0
SECTION
2
HEADER
9
$INSUNITS
70
4
9
$ACADVER
1
AC1014
9
$HANDSEED
5
FFFF
0
ENDSEC
0
SECTION
2
TABLES
0
TABLE
2
VPORT
5
8
100
AcDbSymbolTable
0
ENDTAB
0
TABLE
2
LTYPE
5
5
100
AcDbSymbolTable
0
LTYPE
5
14
100
AcDbSymbolTableRecord
100
AcDbLinetypeTableRecord
2
BYBLOCK
70
0
0
LTYPE
5
15
100
AcDbSymbolTableRecord
100
AcDbLinetypeTableRecord
2
BYLAYER
70
0
0
ENDTAB
0
TABLE
2
LAYER
5
2
100
AcDbSymbolTable
70
2
0
LAYER
5
50
100
AcDbSymbolTableRecord
100
AcDbLayerTableRecord
2
0
70
0
6
CONTINUOUS
0
ENDTAB
0
TABLE
2
STYLE
5
3
100
AcDbSymbolTable
70
1
0
STYLE
5
11
100
AcDbSymbolTableRecord
100
AcDbTextStyleTableRecord
2
STANDARD
70
0
0
ENDTAB
0
TABLE
2
VIEW
5
6
100
AcDbSymbolTable
70
0
0
ENDTAB
0
TABLE
2
UCS
5
7
100
AcDbSymbolTable
70
0
0
ENDTAB
0
TABLE
2
APPID
5
9
100
AcDbSymbolTable
70
2
0
APPID
5
12
100
AcDbSymbolTableRecord
100
AcDbRegAppTableRecord
2
ACAD
70
0
0
ENDTAB
0
TABLE
2
DIMSTYLE
5
A
100
AcDbSymbolTable
70
1
0
ENDTAB
0
TABLE
2
BLOCK_RECORD
5
1
100
AcDbSymbolTable
70
1
0
BLOCK_RECORD
5
1F
100
AcDbSymbolTableRecord
100
AcDbBlockTableRecord
2
*MODEL_SPACE
0
BLOCK_RECORD
5
1B
100
AcDbSymbolTableRecord
100
AcDbBlockTableRecord
2
*PAPER_SPACE
0
ENDTAB
0
ENDSEC
0
SECTION
2
BLOCKS
0
BLOCK
5
20
100
AcDbEntity
100
AcDbBlockBegin
2
*MODEL_SPACE
0
ENDBLK
5
21
100
AcDbEntity
100
AcDbBlockEnd
0
BLOCK
5
1C
100
AcDbEntity
100
AcDbBlockBegin
2
*PAPER_SPACE
0
ENDBLK
5
1D
100
AcDbEntity
100
AcDbBlockEnd
0
ENDSEC
0
SECTION
2
ENTITIES
0
LINE
5
100
100
AcDbEntity
8
0
100
AcDbLine
10
-440.00000000000006
20
259.99999999999994
30
0
11
0
21
259.99999999999994
31
0
0
LWPOLYLINE
5
101
100
AcDbEntity
8
0
100
AcDbPolyline
90
3
70
1
43
0.0
10
-440.00000000000006
20
259.99999999999994
10
-440.00000000000006
20
3.5527136788005009e-14
10
0
20
0
0
LWPOLYLINE
5
102
100
AcDbEntity
8
0
100
AcDbPolyline
90
1369
70
1
43
0.0
10
-362.88959891862464
20
237.82890729664848
42
0.078094544811304248
10
-360.84026686058201
20
237.6007602231135
42
-0.012142582284202504
10
-359.13582400402299
20
237.67537887145781
42
-0.074619737654805854
10
-357.59867925859686
20
237.53061802729599
42
-0.2139627764807065
10
-356.35773116852329
20
236.65406820382313
42
-0.05446737100849991
10
-355.92056068239373
20
235.53329546126076
42
0.021532546703192899
10
-355.61174839958107
20
234.49607577256694
42
0.085307127671795754
10
-355.16828389271961
20
233.69541922589167
42
0.16648109587590565
10
-354.17243436877209
20
233.115669046536
42
0.048582251218199084
10
-353.15421498695787
20
233.03759851104306
42
-0.039003379644898258
10
-351.23956603792982
20
232.93231954101071
42
0.01441964728259912
10
-346.49653897677911
20
232.57377840140407
42
0.010616801955298504
10
-344.75538237425098
20
232.53630666330596
42
0.06133122182550306
10
-347.67664491683405
20
235.65217880684918
42
0.034217060583200495
10
-351.4411307183172
20
238.33859891964528
42
0.018164585378699246
10
-356.39704904091741
20
241.06747904216382
42
0.013674491259397091
10
-358.27036872707055
20
242.01343731052782
42
0.065653968328699117
10
-360.38553999026499
20
242.72152739402065
42
0.056214164447299153
10
-361.89530256200351
20
242.79170461518254
42
0.040355280853496857
10
-365.6248093337382
20
242.26730766002777
42
0.0064001225587990108
10
-368.89923922214007
20
241.46762778807431
42
-0.013447739786004581
10
-372.07378894122746
20
240.7126184761407
42
-0.056274469939097876
10
-376.24079904091741
20
240.25761548275887
42
-0.060830196463199794
10
-378.32450687277299
20
240.6226387300722
42
0.0081629732395174012
10
-380.17075323104734
20
241.18157495861811
42
0.058503193084496891
10
-381.7970490409175
20
241.46863955254497
42
0.090358068387603255
10
-382.98227351090634
20
241.3023387247531
42
0.05881440118120377
10
-384.7680000254399
20
240.44792743874348
42
-0.01106705141870608
10
-386.09442815998193
20
239.66974273210934
42
-0.082101096307303514
10
-387.88246570758423
20
238.95877579445781
42
-0.026806334110899686
10
-389.0183951356338
20
238.8941651925756
42
0.089835921666395799
10
-390.11640922794993
20
238.742596133077
42
0.23941034859789237
10
-390.9746506810676
20
237.8594506170528
42
0.071833046103202916
10
-391.13170095155175
20
236.54067227652297
42
-0.0047231580234015453
10
-391.05746570758413
20
234.91755666330636
42
-0.1691124623706953
10
-391.78154198395691
20
236.24443981432253
42
-0.039323126693297246
10
-391.8512157075856
20
237.29880666330587
42
0.0025732071661874064
10
-393.29464183286063
20
237.18560460029792
42
0.075058673634103693
10
-394.59023155596867
20
236.9275779591112
42
0.12011681602430192
10
-395.43890760052454
20
236.32769730268026
42
0.011123923803297507
10
-395.9264338422679
20
235.75337665421497
42
-0.10443457838849646
10
-396.87829904091751
20
234.91755666330596
42
-0.030726049686198721
10
-396.39553696127058
20
236.17365699755882
42
-0.084951502673302773
10
-395.78130403733616
20
237.07053258282542
42
-0.15279485857160058
10
-394.66904807627969
20
237.61820283901068
42
-0.0087564176036015115
10
-393.55795373953083
20
237.78412758953897
42
0.099633648081198858
10
-392.29841533842409
20
238.28489038862222
42
0.012250868137402299
10
-391.3205730894573
20
238.90968337822929
42
-0.060533543296404826
10
-390.37972202489016
20
239.40106767110501
42
-0.046736309091100207
10
-389.5779976107699
20
239.59171477295357
42
0.080860596736303747
10
-388.55482446101587
20
239.8834264147213
42
0.092285123463787214
10
-388.14704904091747
20
240.20922332997264
42
-0.041165062078098946
10
-390.38997074831468
20
240.05037185652839
42
0.017875372586497199
10
-392.38038237425081
20
240.05203411971672
42
0.022537767808900655
10
-394.25111552789178
20
239.84145505975425
42
-0.042817511249597665
10
-396.08454904091741
20
239.680056663306
42
-0.11140759739980137
10
-392.79960247405268
20
240.78015577202808
42
-0.030847136476397193
10
-390.41523422640716
20
240.86742538887802
42
0.0072433119473037681
10
-388.05108774717235
20
240.83325723706014
42
0.031272294785498041
10
-386.16280713096194
20
240.95418391670449
42
0.07842608509089885
10
-383.99477280122647
20
241.58583724463858
42
0.059792245943900937
10
-382.85538237425078
20
242.32588999663932
42
0.19544816407540108
10
-394.2324657075842
20
244.56341794724406
42
0.056053436330901124
10
-395.9490210924946
20
243.96706071184957
42
-0.020633938462496153
10
-397.93663237425073
20
243.073099919112
42
0.026710868971200844
10
-400.83694686965538
20
241.89397251449091
42
0.073359390367297758
10
-403.06716340071154
20
240.45518054471302
42
0.16370331357980267
10
-404.50785482009064
20
237.85612612374433
42
0.028408660335398347
10
-404.69536468593424
20
235.9588863267158
42
-0.045169403220900614
10
-404.89039976702992
20
234.25877426353478
42
-0.080611493933395922
10
-405.41441559000276
20
232.90479039280132
42
-0.01435753092400221
10
-406.29171597025987
20
231.57705992368406
42
0.05722537661230151
10
-407.1188731066444
20
230.0896407683162
42
0.13589680023110012
10
-407.3147622619004
20
227.67562113150029
42
0.049770093517002671
10
-406.75928148952846
20
225.89066100507918
42
-0.023767302086701057
10
-406.12416964385574
20
224.24109450050702
42
-0.034837434712298845
10
-405.87413237425085
20
223.27588999663931
42
-0.13054351710439899
10
-407.4188567556281
20
225.36792974042839
42
-0.017825284817497612
10
-407.72621570758417
20
226.186306663306
42
0.03131702728719709
10
-408.68270170125066
20
224.39258323859173
42
-0.020043652798900042
10
-409.47003377327496
20
222.82688992597994
42
-0.075479548031500143
10
-411.08072246006509
20
220.74064228778244
42
-0.023487881001295036
10
-413.45596380471932
20
218.78338580425475
42
0.044307504580199178
10
-415.36135421637778
20
217.0473168059618
42
0.062794570423102949
10
-416.70648856729451
20
215.02056565874051
42
-0.012803612458690572
10
-417.66612435893785
20
213.04539252317767
42
-0.038370402529502537
10
-418.34976584728793
20
211.96381103684317
42
-0.13467874907159785
10
-419.83269536111527
20
210.79165090520695
42
-0.085347468405097673
10
-420.95538237425075
20
210.57588999663926
42
0.043924307116601592
10
-418.62199549112972
20
213.4019001410712
42
0.015011725106202004
10
-416.04895167014632
20
217.4412571541497
42
-0.0092462227925980203
10
-414.86996570758407
20
219.30713999663939
42
0.063718035070001164
10
-416.66300248472061
20
218.82149747545566
42
-0.013078823782403895
10
-418.6026333650878
20
218.03423461226484
42
-0.052436416159096569
10
-419.8785790011388
20
217.74108302301011
42
-0.035481168318404768
10
-422.90972106500482
20
217.59106926325518
42
-0.00051921586440866591
10
-426.20376040392705
20
217.69519383006502
42
0.0081367190205003
10
-427.56996570758463
20
217.71963999663933
42
-0.11157556264749843
10
-425.52893068419314
20
218.45954574428441
42
-0.037619217382400899
10
-423.6344523485111
20
218.51638190776416
42
0.015265345330206577
10
-421.1637110581039
20
218.40962742239626
42
0.085237569487299464
10
-419.00313751203112
20
218.74271262889408
42
0.015970749888196308
10
-417.59212846804991
20
219.30328121940295
42
-0.060005324596803022
10
-415.30679094658325
20
220.06626609856752
42
0.010284072696602566
10
-413.77811914542781
20
220.3958144364648
42
0.077216248090703973
10
-412.11962837184814
20
221.03412838348646
42
0.14768294217200231
10
-410.63663237425044
20
222.7467233299727
42
-0.012713297889296992
10
-414.70008033976256
20
222.30614824373401
42
-0.01891758153420451
10
-416.98663237425086
20
222.21755666330597
42
-0.13530764417479979
10
-415.20621703324713
20
223.0256724974241
42
-0.028299004117298656
10
-413.60430360023798
20
223.18995486890145
42
0.039719651020999634
10
-411.94001218048351
20
223.36075537500034
42
0.18127721916470291
10
-409.79763920006849
20
224.60295572544516
42
0.084249205588499562
10
-408.75324179938013
20
226.36904271611357
42
0.098184163965898352
10
-408.13794224562332
20
229.59024058488041
42
0.049801780567697712
10
-408.25538237425076
20
230.6842233299727
42
0.05268071924879919
10
-409.66049234220077
20
229.33282944929798
42
-0.021584056609800232
10
-411.41258397156298
20
227.27476827117948
42
-0.078553254062199374
10
-412.75712079377638
20
226.21807214978287
42
-0.064282295705998846
10
-413.54704904091756
20
225.92172332997254
42
-0.011742001603603638
10
-411.99491480655746
20
227.74393919379077
42
0.030852186302400535
10
-410.7813126736271
20
229.26282914671083
42
0.08740385191500144
10
-409.84288237425085
20
231.21338999663931
42
0.029744902776201163
10
-412.01334223292639
20
230.50580832788157
42
-0.012952578165800024
10
-414.64274544174344
20
229.48494095456743
42
-0.049217710598802346
10
-416.89875837493622
20
228.89512357121558
42
-0.045949306742609303
10
-418.04496570758425
20
228.83213999663926
42
-0.072961261509605163
10
-416.20765996498051
20
229.86965274640136
42
0.0062526283111012946
10
-414.07621570758397
20
230.68422332997275
10
-416.19288237425081
20
232.27172332997267
42
-0.050197561543397967
10
-414.61771828128087
20
231.94179622192038
42
0.034362260208202676
10
-413.28246570758415
20
231.59147980605709
42
0.077750050094800863
10
-412.01673074481664
20
231.64508583565186
42
-0.01904092475480576
10
-410.74156026089355
20
231.91354809789604
42
-0.004968827428086635
10
-409.23102072291414
20
232.10550925976605
42
0.059145770044095665
10
-407.58908228516128
20
232.46538882022355
42
0.23295177085349611
10
-405.88733725809777
20
234.09626240404128
42
0.076056344888596888
10
-405.64307540648724
20
235.36373644859486
42
0.0051059160852141138
10
-405.61867002607733
20
236.91539901296011
42
-0.17100691157589776
10
-404.7367614560319
20
239.80332361154237
42
-0.089764424479003707
10
-402.55131499823005
20
241.81750746701732
42
-0.038875322979698021
10
-400.13936689106322
20
243.04083879240187
42
-0.00033262816163667661
10
-397.76106386543353
20
243.9726694650858
42
0.04246614437879926
10
-395.02621570758424
20
245.23630666330601
10
-395.02621570758424
20
245.76547332997268
42
0.052607124784200467
10
-399.12800392364142
20
246.49223430740378
42
0.053173992758799894
10
-401.9513948002425
20
246.4140681392719
42
0.085540042239899236
10
-404.45152846584688
20
245.6530229006739
42
0.14352971199080006
10
-406.47334183999476
20
243.76777657266763
42
0.036495352607096694
10
-407.5170213153836
20
241.70685946274182
42
0.0042915232957876654
10
-408.74718413782608
20
238.94276640648869
42
0.023440729572901588
10
-409.683842098041
20
236.50526861742381
42
-0.004865317414899685
10
-410.13404843869415
20
234.7893310274907
42
-0.21756566424250251
10
-411.43038237425083
20
233.33005666330598
10
-410.90121570758413
20
236.76963999663934
42
0.016470311910501065
10
-412.27243283875674
20
236.02405676612119
42
-0.030116800237904227
10
-413.6928263296648
20
235.28707392107759
42
-0.076287988327001677
10
-415.15484395519019
20
234.85070811774139
42
-0.044839535995800935
10
-415.6526099467265
20
234.83802600396018
42
-0.18602157497740054
10
-416.9866323742508
20
235.44672332997263
42
0.067282284167601625
10
-413.97942330233241
20
236.20086208635121
42
0.093622340613097502
10
-412.42008035732204
20
237.19324302802576
42
0.17301419560600378
10
-411.43038237425083
20
239.15088999663931
42
-0.055365875884900856
10
-414.27808377657277
20
238.88390283024509
42
-0.0024329973121781454
10
-415.39913237424963
20
238.88630666330599
10
-415.39913237425077
20
239.41547332997266
42
0.04618351523669998
10
-412.00532358208699
20
239.89463685586878
42
0.084311852571497994
10
-409.93839571675926
20
240.73449912179649
42
0.062279299860503533
10
-408.93773312280996
20
241.60918824516958
42
0.041307713035900667
10
-407.67950512546412
20
243.37280214792429
42
-0.046590752995396674
10
-406.44911932414794
20
245.13373137311604
42
-0.15807914998380243
10
-404.02204904091747
20
246.55922332997264
42
0.12984368467500118
10
-405.16378539383163
20
247.47825055849259
42
0.023759543964405626
10
-406.50200274284566
20
247.99030055104373
42
-0.0082231297825119676
10
-406.93246570758419
20
248.1467233299727
42
-0.16481743050679976
10
-405.17229007575253
20
248.52931152347114
42
-0.047024429083705764
10
-403.58881354223678
20
248.1606592951465
42
0.020978809446198041
10
-401.90744514135019
20
247.61670643943506
42
0.034259548495301745
10
-399.62924149236477
20
247.25678567898836
42
-0.0025763888710026933
10
-397.74047197620433
20
247.09106516836823
42
-0.034803890377200275
10
-395.29274179271255
20
246.64130939479435
42
0.021403918289207284
10
-393.21180934393618
20
246.14463891772178
42
0.065985817984201667
10
-391.05746570758413
20
246.03005666330597
42
0.078431103523299725
10
-392.70436457990502
20
247.42813669163775
42
0.019705200872606004
10
-394.93580252610792
20
248.61494107120586
42
-0.032662455175599042
10
-396.52849162494499
20
249.53510354797749
42
-0.04381105102220096
10
-397.40746570758415
20
250.26338999663926
42
-0.13130749484399987
10
-394.40658100484893
20
249.44127014455162
42
-0.021026959084801226
10
-392.71230362592149
20
248.36381239516768
42
0.057616958641400054
10
-389.18480550464784
20
246.48052534022116
42
0.068252080082597255
10
-386.29496570758414
20
245.76547332997262
42
0.02446531768790957
10
-387.11101844413668
20
247.81776588973091
42
0.090136261739596713
10
-388.366305479858
20
249.69208796098815
42
0.12749302766919493
10
-390.79288237425078
20
251.05713999663925
42
-0.18730708648038991
10
-388.82430866519701
20
251.10742166758757
42
-0.045232818930099693
10
-387.8373452422619
20
250.66348045920179
10
-387.08871570758413
20
250.26338999663932
42
0.16952840443300049
10
-386.88117160754598
20
251.96067978248828
42
-0.0023335278037858917
10
-387.22079621194615
20
253.21742935897308
42
-0.036103118620088942
10
-387.35329904091748
20
253.96755666330597
42
-0.054974070451693176
10
-387.57770368602348
20
254.70383920243833
42
-0.077143558354129824
10
-387.58257359028437
20
254.81488377332516
42
-0.66826374727453886
10
-387.50876287322689
20
254.8358045041083
42
-0.049067674963602724
10
-387.12380950563642
20
254.39370178131853
42
-0.0082576890075986183
10
-386.82413237425072
20
253.96755666330603
42
-0.019521465078401662
10
-386.19244630765684
20
252.72817623356144
42
-0.14068923020929741
10
-385.76654642545464
20
250.55379637668435
42
-0.0078724845126914439
10
-385.9223655969729
20
249.07127713774685
42
0.082801470331801519
10
-385.88602270842784
20
247.19899302014309
42
0.15890674887109724
10
-384.60995086946514
20
245.17339851321179
42
0.073029927418600787
10
-382.8762095145679
20
244.0984441179771
42
0.015312290801395676
10
-380.73871570758411
20
243.29336566522858
42
-0.024811580128794624
10
-379.40819276303722
20
242.74356446501361
42
0.020343780671207613
10
-377.71294422404429
20
242.0282416101588
42
0.076925698271101198
10
-375.97621570758417
20
241.63442804411201
42
0.068624093917904375
10
-374.66365849383578
20
241.81832749261758
42
0.014057550219302026
10
-373.42706859707567
20
242.22548674149053
42
-0.00049438308597719079
10
-371.26002737923926
20
242.8595511028272
42
-0.0020221268923819907
10
-366.14189688268073
20
244.41313132525454
42
-0.0027513678042189516
10
-365.12829904091694
20
244.70713999663951
42
0.11395042115250058
10
-368.39701324504227
20
245.90296526882699
42
0.047550722963599919
10
-371.70346067942421
20
245.98082878096204
42
-0.033992560087997586
10
-373.02766559943626
20
245.94914061566323
42
-0.19934150340959339
10
-374.91788237425078
20
246.82380666330596
42
0.068777552114598406
10
-372.63354582439467
20
246.6454103308663
42
0.0014729214974258927
10
-370.78149136669765
20
246.7803678376788
42
-0.012708449241709925
10
-369.8907990409175
20
246.82380666330604
42
0.11914627931288625
10
-370.8475969649013
20
247.6711280747781
42
0.064259093437397163
10
-372.37166018942344
20
248.26808324783599
42
0.076856608413101268
10
-375.47350367204263
20
248.56285733431758
42
0.051408389244108808
10
-376.50538237425081
20
248.41130666330596
42
-0.20818708807970357
10
-374.86337974901858
20
249.34513845298116
42
-0.08041099710640405
10
-373.43919749799505
20
249.26539819880207
42
-0.044288719615196967
10
-370.88585721414086
20
248.39097465157849
42
0.012606116229694802
10
-369.09704904091745
20
247.61755666330589
42
-0.020482971983003632
10
-370.65963593960089
20
250.36709880366885
42
0.011761169839897528
10
-371.74288237425071
20
252.38005666330591
42
-0.13920868034489528
10
-370.38721438100418
20
251.20180885017044
42
-0.012895555872100955
10
-369.77351413560262
20
250.14539655606501
42
0.077884948883900976
10
-368.48248014750828
20
248.41599940405604
42
0.044281518285798183
10
-366.05761350434165
20
246.51902176082288
42
0.057728700279997047
10
-364.92292046689658
20
245.91317124065569
42
0.068901332662096915
10
-363.55772621233018
20
245.64289617155447
42
0.012941744785407282
10
-361.44892777243342
20
245.67312272505831
42
-0.041299189740598784
10
-359.89954298080465
20
245.63325492749721
42
-0.064563565194601311
10
-357.8748770174729
20
245.04996528352606
42
-0.026875430795096803
10
-355.60982419276166
20
243.90745037265481
42
0.026087719704998347
10
-353.30673436874781
20
242.7361071895055
42
0.02949082304400158
10
-352.16371570758406
20
242.32588999663929
42
0.092725541812298543
10
-353.15470277633671
20
244.0598563281647
42
0.0054465927194812767
10
-354.28653922443999
20
245.36211432065286
42
-0.023862690436186596
10
-354.80954904091755
20
246.030056663306
42
-0.082628534295803829
10
-353.14112564893367
20
244.83507922353306
42
0.0067790197700970866
10
-352.01591822833757
20
243.65250434453813
42
0.045575645423706353
10
-351.10538237425078
20
242.85505666330596
42
-0.058054761267004637
10
-350.75152048504299
20
244.31143052177302
42
-0.17308567338840405
10
-349.5178823742508
20
245.76547332997274
42
0.051950797924599265
10
-350.84079904091567
20
241.26755666330453
42
0.00077422926762218329
10
-346.97153221706503
20
238.73266663783781
42
-0.017572417441994774
10
-343.71989307625347
20
236.48137193056493
42
0.062469517764395972
10
-341.5803823742508
20
235.18213999663928
42
0.12063269274839389
10
-342.11053714334554
20
237.38541999381115
42
0.023223458198597904
10
-343.1988412924602
20
239.02640160510143
42
-0.057529485296706699
10
-344.20849230619649
20
240.73838999663931
42
-0.15322401603150615
10
-344.26310648241036
20
242.0104701394626
42
0.06441999957060858
10
-344.09013661435858
20
243.18808847289836
42
0.12003058646230164
10
-344.38932242806959
20
244.15614395954344
42
0.05098479797088535
10
-345.27127301396098
20
245.34398802488926
42
-0.0054170539332105538
10
-346.36522406889208
20
246.4944779148635
42
-0.025277320410497506
10
-346.87204904091743
20
247.08838999663928
42
-0.076959717219202237
10
-344.82319340935049
20
245.70381819757944
42
-0.091100661938998823
10
-343.67779601277442
20
244.23033480397007
42
-0.18008347061940286
10
-343.43218163508686
20
242.60648173845544
42
0.023790832640303541
10
-343.57463503932991
20
241.713330526996
42
0.18881401949869597
10
-343.15065375002848
20
240.3446065776271
42
0.056146346663606093
10
-342.29722213359764
20
239.51655004270023
42
-0.0025001996030393409
10
-341.84496570758449
20
239.15088999663948
42
0.0244732837796971
10
-341.37490286557153
20
240.69173735077192
42
-0.023786048406804056
10
-340.8689723523604
20
242.41138963436293
42
-0.028783802310905018
10
-340.58138100579083
20
243.0708992228345
42
-0.11866716880659567
10
-339.19913237425072
20
244.70713999663928
42
0.027925573136604435
10
-340.69543625554155
20
240.67497209994156
42
0.05105896911190258
10
-341.25254969263165
20
237.82793989171378
42
0.10748302355279418
10
-340.85859988065948
20
234.38838999663929
42
0.067645765838596938
10
-339.67353826473897
20
232.29061425838944
42
-0.00024229402000894366
10
-338.4561515839622
20
230.64285690182038
42
-0.046165298980203752
10
-337.38682976351021
20
228.81711212089965
42
-0.020635126725795653
10
-336.02279583638114
20
225.9909462645478
42
-0.067978672310809216
10
-335.4505180036528
20
224.08016669675973
42
-0.071416655568304691
10
-335.50418450636988
20
221.83265563517662
42
-0.035762871048995511
10
-336.29122676110103
20
218.78856483388273
42
-0.030891580084405044
10
-337.21833026927391
20
216.41021137737201
42
-0.045856054324288208
10
-337.61163237425075
20
215.70801375304796
10
-340.80647935402783
20
212.69255666330596
42
0.066534990262403657
10
-343.58169552747916
20
208.80730512060228
42
0.062395611166797607
10
-344.78092091400026
20
205.68543352233476
42
0.10064064055509958
10
-344.91682053566592
20
201.15748627839739
42
0.022456563996894743
10
-344.38632913501175
20
198.59050911496067
42
-0.0045565287613863036
10
-343.96163237425077
20
196.81755666330605
42
0.043652569335202611
10
-342.30125264133852
20
197.27764109842337
42
-0.021832043517595455
10
-340.52204904091747
20
197.8952040632083
42
-0.019007237373503724
10
-339.41152459734758
20
198.1248700687932
42
0.033198385235800126
10
-338.26719233432067
20
198.36680909925477
42
0.22097301285410217
10
-336.55329904091741
20
199.7279733299726
10
-339.19913237425078
20
198.93422332997267
10
-338.1407990409175
20
199.72797332997266
42
0.16470954333159737
10
-339.64876809253468
20
200.07543016780247
42
0.018204217889791145
10
-340.25746570758417
20
199.99255666330595
42
-0.11868606833160072
10
-338.76807471060857
20
200.6503480220789
42
0.00090960487922635443
10
-338.1407990409175
20
200.78630666330594
10
-338.14079904091739
20
201.31547332997263
42
-0.083306033152098294
10
-339.46371570758413
20
202.37380666330597
42
-0.061535062811100362
10
-337.2142525467342
20
201.06053348498918
42
-0.11678247700990815
10
-336.42241507137692
20
200.09408344505445
42
-0.14661766690482592
10
-336.27798301288271
20
199.23770420461426
42
-0.19536178570121301
10
-336.81902254237605
20
198.376732068237
42
-0.097421885461401694
10
-338.07015636693461
20
197.80847200452516
42
-0.024000826148996547
10
-339.7823135251619
20
197.48342310927177
42
0.049960223253403026
10
-341.56803711391592
20
197.08982749418368
42
0.12383588410111321
10
-343.0797740571935
20
196.14763227696358
42
0.15220035220068623
10
-343.54905235648999
20
195.03757227930004
42
0.024069911330904366
10
-343.58716170946337
20
193.94624421697998
42
-0.041856185205189141
10
-343.63577776967134
20
192.92112912927789
42
-0.059807849785583539
10
-343.92727466818076
20
192.02105744870596
42
0.049809800075408833
10
-344.54924827469438
20
190.47541562791565
42
0.13529789234550238
10
-344.59531027403511
20
189.57345098819459
42
0.20105541609626904
10
-344.15361708854454
20
188.99207965034753
42
0.087387700784009384
10
-343.24969155413726
20
188.70535466405988
42
-0.017889023222499922
10
-339.19913237425067
20
187.99370088175081
42
-0.023510736279100275
10
-335.83547558451079
20
187.0140282399384
42
0.010508607496895962
10
-332.79230495079133
20
186.03598290987665
42
0.048870851334303987
10
-330.60624684100139
20
185.55399117062794
42
0.0063515448452960343
10
-329.02542735061922
20
185.45074408319806
42
-0.029631849837199551
10
-327.82204904091748
20
185.32538022592809
42
-0.034325851240209732
10
-326.5760273486834
20
185.0786601923835
42
-0.029657103626403523
10
-323.78431681372143
20
184.18067206578104
42
-0.037092903213001759
10
-322.72488642011643
20
183.69063405600065
42
-0.10103065938656253
10
-322.31444370472951
20
183.3699133072295
42
-0.48597543415783379
10
-322.35902290439947
20
183.00587841377038
42
-0.098032629059495571
10
-323.03939660712643
20
182.77319137447824
42
-0.10080124503351684
10
-323.75643272940135
20
182.7465483387904
42
-0.13560367883921165
10
-323.85329904091748
20
182.79463999663926
42
-0.044598543304697327
10
-325.3056332293994
20
182.90283710241428
42
0.01406614242920432
10
-326.7289349348755
20
183.14423865781689
42
0.10980540281479936
10
-328.61579904091747
20
183.0592233299727
42
0.02697111447140773
10
-327.71898603135264
20
181.42571505276774
42
-0.017520605429396218
10
-326.6906443750355
20
179.65655110506196
42
-0.063481401390902956
10
-326.0752982646984
20
178.09059878991542
42
-0.15346231083391365
10
-326.13056636981548
20
176.4695092796797
42
-0.1452154858428957
10
-326.95971047954242
20
175.47277820829345
42
-0.069959091815801233
10
-328.45951833714844
20
174.81046748247959
42
-0.028839887593995858
10
-330.62348092830058
20
174.39119636156801
42
0.01301804223139969
10
-332.3045874885043
20
174.16498080416329
42
0.032832075461898813
10
-335.77342523274842
20
173.33851518735716
42
0.048342007433796123
10
-338.28299215083098
20
172.30495144700257
42
0.089021833707298798
10
-340.61153171120111
20
170.46369764033628
42
-0.007001395048091043
10
-341.95153930571973
20
168.93572194935462
42
-0.022551250708003782
10
-342.63871570758403
20
168.24255666330598
42
-0.14615636481131256
10
-341.93710990163032
20
170.00921842639377
42
-0.045950892687701791
10
-340.91325635842389
20
171.08561820156871
42
0.01986969907079136
10
-339.57741667357629
20
172.31586152891487
42
0.019861298115119233
10
-339.19913237425078
20
172.7404733299727
42
0.047414927301699175
10
-343.08740120080074
20
172.40856172245992
42
0.06851540142269473
10
-346.67878697430092
20
171.28744900058589
42
-0.0038633279462556612
10
-347.95790376699529
20
170.68536905550036
42
-0.037087280341299711
10
-349.06874016167109
20
170.27709202890401
42
-0.078834667907699579
10
-350.57621570758414
20
170.09463999663927
42
-0.027854709394004043
10
-348.75612609035812
20
170.94386471892992
42
0.023978223756398916
10
-346.71736998841868
20
171.85206885128636
42
0.018884154972279358
10
-346.07829904091744
20
172.21130666330592
42
0.068218311364704687
10
-347.87048232694667
20
173.35208087924008
42
0.068638564349196143
10
-349.04468115821294
20
173.7075692287597
42
0.11743439434408451
10
-350.52618861010819
20
173.53396308285761
42
0.026176258112900863
10
-352.10623966703611
20
172.81387077939169
42
-0.073617259563606083
10
-353.75121570758427
20
172.21130666330595
42
-0.075849411581400697
10
-352.32134454920924
20
173.36561848516087
42
-0.096670467296295332
10
-349.87226400159022
20
174.33063368402821
42
-0.13826495913329614
10
-348.12397031411626
20
174.15823153034631
42
-0.013447332450415253
10
-347.27710521249264
20
173.81923761147331
42
0.066580235282685418
10
-346.21324837030397
20
173.52224053127458
42
0.063308675728112523
10
-345.54913237425075
20
173.53422332997258
42
0.097000006671607464
10
-347.38767340270056
20
175.30950850657391
42
0.20277380409070037
10
-350.5762157075842
20
175.91547332997266
42
-0.11569128150089759
10
-349.73140060543875
20
176.54835117905372
42
-0.16623134643518889
10
-348.43252464872057
20
176.5909026963233
42
-0.07511286249529997
10
-346.87200952416839
20
175.75228206652812
42
-0.016766566469597025
10
-345.26750611747985
20
174.41642485284902
42
0.045094798794593653
10
-343.97816097341797
20
173.40009587594687
42
0.16281333685238569
10
-342.45814632047399
20
173.02700332264621
42
0.018376674844097031
10
-340.74448527943753
20
173.2372418546322
42
-0.013796076501996655
10
-339.65238319287641
20
173.34043429128999
42
0.024763053058402561
10
-335.21975825770517
20
174.02093509745293
42
-0.00018296484618780147
10
-331.15068253894526
20
174.87692824981997
42
-0.013335399881698641
10
-329.43586552214549
20
175.19005759519015
42
0.056310773570697172
10
-327.67853806356936
20
175.63217090040925
42
0.11697188842970167
10
-326.7337150148964
20
176.24281095118948
42
0.11392288057451735
10
-326.4697656267125
20
176.73012806172321
42
0.12879042453899489
10
-326.51128782510852
20
178.02765857391978
42
0.053399942632096083
10
-327.19450066993704
20
179.60726849071335
42
0.0035586923420113112
10
-328.32662871109136
20
181.43413483844859
42
-0.021328072276604871
10
-328.81048858117356
20
182.33018376581387
42
0.04448651685720971
10
-329.21751780786747
20
183.01663987016519
42
0.1627437165099998
10
-329.87608530954344
20
183.50843466289723
42
0.16453092868880323
10
-331.40355255906547
20
183.46067870091005
42
0.1748036587889247
10
-331.97273236900747
20
183.02485452010302
42
0.097568541762213426
10
-332.05538237425037
20
182.79463999663929
42
-0.022708353921802676
10
-334.0494614148356
20
183.66176179777767
42
0.042277587183893357
10
-336.02413237425077
20
184.4493435819461
42
0.070617998441500199
10
-342.61092022150564
20
185.32861038298842
42
0.089001683450301433
10
-348.6697248408276
20
184.26595591974075
42
0.048172721879798514
10
-350.84053258431345
20
183.19998508686962
42
0.081974301919497491
10
-352.42082932231421
20
181.68437453508221
42
-0.01755440203259076
10
-353.53134723068615
20
180.23863936514115
42
-0.042912801872298297
10
-355.84410960939181
20
178.21987598710012
42
0.011283798624193478
10
-358.06186209185086
20
176.52762194942483
42
0.010451922043803156
10
-359.16229035892053
20
175.58970106111565
42
0.030578112322896079
10
-360.13206985563983
20
174.7322115305644
42
0.17751787759619692
10
-360.78094293939779
20
173.51014537488049
42
0.31788398069349261
10
-360.34605594828201
20
172.55686813881158
42
0.093138407912388629
10
-359.65258254046671
20
172.3067503012177
42
0.040836185902685368
10
-358.24913237425079
20
172.21130666330598
42
-0.016818233232201371
10
-358.17310735920097
20
171.0866724231069
42
-0.11796410929639804
10
-358.38671280078478
20
169.79565953806173
42
-0.10808666919460024
10
-359.38661157807752
20
168.64186722847967
42
-0.024444503528496194
10
-360.61957463826593
20
167.82460946174592
42
0.048516366024813393
10
-361.9532990409175
20
166.89212229644394
42
0.022077324529299971
10
-365.88958915506333
20
162.91061171799214
42
0.0054619093220957624
10
-368.41574776502904
20
160.04047332997189
42
-0.015707503297795404
10
-369.49274794700261
20
158.91663631285576
42
0.066133245740400498
10
-370.79038075936234
20
157.39463999663926
42
0.092589924846692512
10
-371.30407829418579
20
155.95626578675842
42
-0.021783061258801091
10
-371.58640149335071
20
154.64358760600379
42
-0.053659536244004553
10
-371.8627393993973
20
153.96960680877311
42
-0.10565489753321407
10
-372.53474601421669
20
153.27284986241094
42
-0.018174300922685276
10
-373.51502245736424
20
152.64455152977001
42
0.066994112305912415
10
-374.34751116567099
20
152.00426963798998
42
0.20309645850660332
10
-374.74960695437977
20
151.079828417253
42
0.35749896031558703
10
-374.24903471083559
20
150.42098808102398
42
0.057928332066694156
10
-373.23814488853935
20
150.35811671472996
42
-0.10542972822580735
10
-371.71931939548864
20
150.22231114773496
42
-0.038001408820998707
10
-370.0770775711685
20
149.55660184986596
42
0.025295360333488327
10
-368.71341695237879
20
148.92147801930497
42
0.082617834636901796
10
-367.15016910716611
20
148.54861969234199
42
0.068078880175690776
10
-366.18663237425085
20
148.63428970570493
42
0.1098034547694989
10
-362.76265693835808
20
150.32894563272697
42
0.051038784507481907
10
-362.17266497026912
20
150.85215447512294
42
0.14783788730960343
10
-361.92102434479403
20
151.35654908530597
42
0.22626317437308111
10
-362.10185255845573
20
151.81648020126298
42
0.11218743589228473
10
-362.83192824445194
20
152.18730416753286
42
-0.0055613123757264514
10
-364.05366986483523
20
152.5257322362601
42
-0.036692507055259976
10
-364.33454904091747
20
152.63213999663895
10
-361.95329904091744
20
152.89672332997299
10
-362.21788237425073
20
154.21963999663924
42
-0.082076036909198402
10
-361.29542832733279
20
153.27806023561098
42
-0.23175351292740032
10
-361.08181687376555
20
151.90777536590397
42
-0.067775905533103975
10
-361.49450482242901
20
151.02831172941882
42
0.008643043405994276
10
-362.48246570758425
20
149.45713999663883
42
-0.025968994501502144
10
-360.29502802354568
20
149.94781828141595
42
0.040344171769596184
10
-358.4466943618977
20
150.38554346156593
42
0.19099918859041012
10
-356.58929240571558
20
151.89310731201294
42
0.1376134500641904
10
-356.06522819437936
20
153.70535946081296
42
0.3293022956932018
10
-357.74328875693857
20
155.97672003477922
42
0.098512096301413013
10
-359.06051063411655
20
156.07810211748406
42
0.037686737945491523
10
-360.58091811303245
20
155.79659561302469
42
-0.036145316548995672
10
-361.78186054581647
20
155.53802450298755
42
-0.020030906049894708
10
-363.34899959375144
20
155.44370170213153
42
0.032255462946093619
10
-364.60788001685808
20
155.32844718427395
42
0.17234551636419052
10
-366.14377075991939
20
154.54159369087398
42
0.10046883894519684
10
-367.60029548197571
20
152.15562041398402
42
0.069737020462598193
10
-368.03871570758417
20
150.51547332997299
10
-368.83246570758416
20
150.78005666330597
42
-0.053234591774597412
10
-368.12983234182985
20
152.32443793234665
42
0.0016939840220924901
10
-367.25625288664969
20
153.78176891689765
42
0.091695086714098761
10
-366.4512157075842
20
155.80713999663928
42
-0.018761904679002114
10
-367.50486532576849
20
155.07798815618062
42
-0.12550306820539558
10
-368.579149295881
20
154.65451793446056
42
-0.18764957684098599
10
-369.61686413934171
20
155.02386062423813
42
-0.027125376664276359
10
-369.8907990409175
20
155.27797332997261
42
0.068720698437689923
10
-368.7450669540292
20
155.19966200269201
42
0.20735422315710303
10
-367.45196020007251
20
155.8533945894354
42
0.058663032113892538
10
-366.98038237425078
20
156.6008899966393
42
-0.066637253063303675
10
-367.93465478098165
20
157.38599798281771
42
-0.050795115570018826
10
-368.30329904091764
20
157.92380666330604
42
-0.0052354442659919218
10
-366.74439774279961
20
157.13375691316827
42
0.10191761941499393
10
-365.12829904091751
20
156.63978458638127
42
0.08846395852890318
10
-363.10180255315515
20
156.93696943363227
42
0.02927284211079988
10
-361.24933391995228
20
157.74730392376716
42
-0.016519165846701333
10
-359.76352909629492
20
158.47599803435244
42
-0.088475836266500102
10
-357.4553823742508
20
159.13189668253207
42
-0.15695705171869634
10
-356.10943233187209
20
158.8052829986238
42
-0.029923066915295601
10
-355.04636607878467
20
157.98380400334028
42
0.09150597831100514
10
-353.94039182198435
20
157.2999187111372
42
0.091903090484197314
10
-353.13465253749769
20
157.19232837779188
42
0.049726816919709732
10
-351.51965596377175
20
157.42387889668316
42
0.022478151268910514
10
-349.46138629449581
20
158.0220119685975
42
0.11306265646848387
10
-348.86062982152703
20
158.38013964931318
42
0.19974441986562858
10
-348.5708470090151
20
159.18742712322097
42
0.089736221547915773
10
-348.81604001896937
20
160.14081444631211
42
0.027369489171106494
10
-349.50295114289588
20
161.39051644594554
42
-0.019476453935205452
10
-349.78246570758421
20
161.89255666330595
42
-0.072198319568003488
10
-348.57254451300707
20
160.65348750859687
42
-0.17114961772460099
10
-347.96442120043685
20
158.6464429219867
42
-0.061909661625697623
10
-348.19496570758417
20
157.39463999663926
10
-343.69704904091748
20
157.39463999663928
42
-0.21176105929599673
10
-344.96069553386457
20
156.86412135598323
42
-0.010639199925320704
10
-345.28454904091751
20
156.86547332997267
42
0.042001540049933915
10
-345.07178949104548
20
156.4726527940245
42
0.094503867246714571
10
-344.49079904091747
20
156.07172332997266
42
-0.073093619906894378
10
-345.69931107228768
20
156.06944397524165
42
-0.034612541840308264
10
-347.37614330590992
20
156.46827856688645
42
0.020274652627898127
10
-349.49447410760746
20
157.04429657560519
42
0.090227403748107199
10
-351.29418587725047
20
157.14536927833348
42
0.15206267667559475
10
-352.87227226428575
20
156.41488713815949
42
0.17241009463791451
10
-353.34431956318184
20
155.54377684978218
42
0.084745352499502644
10
-353.26042254281987
20
154.12905390695713
42
-0.019613188428897557
10
-353.01824966654243
20
152.85348098608497
42
-0.16862135269890002
10
-353.56916803406909
20
150.48002216314097
42
-0.072742093810992337
10
-354.69229105336154
20
149.19372348369797
42
-0.016827562289905174
10
-355.33871570758413
20
148.66338999663898
42
0.077591490090089268
10
-354.56379095881334
20
148.31215754262902
42
-0.031917472627493129
10
-353.52524567067849
20
147.96167685037392
42
-0.18018199109109689
10
-352.74004261737457
20
147.23147782916297
42
-0.30035251248731792
10
-352.94112728951069
20
146.06244814061895
42
-0.15103790581690049
10
-353.75774996193252
20
145.59970098250196
42
-0.024534777679009301
10
-354.89673956157651
20
145.45653842481397
42
0.10769724429188855
10
-356.31272835960021
20
144.9325582902552
42
-0.0023879418891751994
10
-357.45538237424967
20
144.16547332997368
10
-357.19079904094838
20
145.48838999662462
42
-0.00064298775284113809
10
-358.56690406624324
20
144.85012301689812
42
-0.062270074577893492
10
-359.74478242738513
20
144.45494343791299
42
-0.1833502308190105
10
-361.06784977253739
20
144.69209702930499
42
-0.076481707789503528
10
-361.68871570758415
20
145.22380666330596
42
0.060530620007407838
10
-360.23719234752554
20
144.85278162988897
42
0.15252457033250227
10
-358.89257566623269
20
145.19162952011439
42
-0.0024030191444372566
10
-357.87075240838868
20
145.79812713941513
42
-0.12236887965931077
10
-356.2630202718961
20
146.25059126154096
42
-0.017185518117499798
10
-354.9121246232167
20
146.198966175252
42
0.077335760107393972
10
-353.2220490409174
20
146.28213999663896
42
0.27993477221281804
10
-354.4384678864385
20
147.51673441314901
42
0.030289182873077133
10
-355.59371936987958
20
147.73038934474698
42
-0.016876993235272583
10
-356.13246570758417
20
147.82889635955394
42
0.10757280891190006
10
-358.25301623789028
20
147.81010434233397
42
0.062468516671695756
10
-360.35678488491754
20
147.01795596489288
42
0.014553490184300412
10
-362.51275779497621
20
145.78598639923004
42
-0.033443344634098933
10
-364.85248585063317
20
144.50901083716798
42
-0.083442200196507138
10
-366.98038237425078
20
143.89216152424797
42
-0.13210048918749748
10
-368.15617412357165
20
144.08969571822499
42
-0.053934278980498643
10
-369.23840531054879
20
144.77321570773395
42
0.025759857910892286
10
-370.33273360517535
20
145.59100963256597
42
0.15340255094150132
10
-372.01022986366149
20
146.11878373960798
42
0.036932239966502863
10
-373.63919149754531
20
146.02090767550996
42
0.021484264674200112
10
-375.70660603376615
20
145.66195821359898
42
0.15091901543220987
10
-376.6125825859711
20
145.25129539103193
42
0.34211263198869107
10
-376.6594270603926
20
144.32038812003401
42
0.097004340730495811
10
-376.21452345218927
20
143.86598420823998
42
0.04264237886079085
10
-374.73107468686919
20
143.07024155806897
42
-0.015618920635987691
10
-373.68474806322217
20
142.60186625587804
42
-0.073017743518820719
10
-373.09357916049544
20
142.24063119486095
42
-0.076127837080399191
10
-372.06693157979913
20
140.93769651298339
42
-0.0048490346622157583
10
-371.08457508142214
20
139.02758379110912
42
0.08720342715549724
10
-369.8630189213394
20
137.34663082356397
42
0.073502116854906346
10
-368.1522315864845
20
136.28042534445586
42
0.0030033745782982904
10
-366.60748863736865
20
135.66905743378351
42
-0.055551340453195798
10
-365.11146849031775
20
134.91487952600801
42
-0.19536165898710042
10
-363.41310931971549
20
132.28317797251097
42
0.0074764743777816492
10
-363.26853642703406
20
131.37539527872298
42
0.15362317690720184
10
-362.90651058821538
20
130.52691675597993
42
0.12971343199549512
10
-362.32997053698369
20
130.17897910828896
42
0.048954151874501556
10
-361.07696088651238
20
130.00084308180797
42
-0.0059799303202914891
10
-358.07866087511883
20
129.92710030376202
42
0.015060904306909035
10
-355.88420197192499
20
129.85699908920898
42
0.0049772958812930373
10
-351.02228133033742
20
130.02119387313203
42
-0.016217986505901175
10
-347.42584935161943
20
130.08843715472199
42
-0.041369170616906183
10
-344.07846041815696
20
129.799236725637
42
-0.015282552074286962
10
-343.16788237425078
20
129.61338999663892
42
-0.064717953404497305
10
-345.43873716132509
20
129.35091736421492
42
0.020284101043885339
10
-347.24294561376121
20
129.33459550311295
42
-0.013802340240901422
10
-354.60085826373472
20
129.0832746270751
42
-0.0025658889215920003
10
-361.42413237425285
20
129.0842233299731
42
-0.0095600496530975614
10
-364.1398551404809
20
129.18317549045011
42
0.035628674212808235
10
-366.67513828253834
20
129.17468911820097
42
0.036195983157303775
10
-368.03871570758412
20
128.97997420226693
42
-0.08229224767996747
10
-368.50751808289738
20
128.91296900840902
42
-0.017759117241199066
10
-376.3407766594438
20
128.71157553994999
42
-0.022914002582591159
10
-378.77834253458184
20
128.80687880430298
42
-0.057541557660091509
10
-379.92002421097988
20
128.983081777265
42
-0.072473816386836157
10
-380.20954904091747
20
129.10459514851496
42
0.039641913479794379
10
-382.69383650521149
20
129.25204101319
42
0.0034249532949004314
10
-385.39772791891698
20
129.12865906085295
42
-0.023843683250595431
10
-388.70921518768915
20
129.1248011416821
42
0.0040950818118037063
10
-395.93765333738008
20
129.32873199999906
42
0.0044342203370899133
10
-404.28663237425019
20
129.34880666330596
42
-0.022059953883707795
10
-405.71991535023534
20
129.36624120612495
42
-0.035512309432003175
10
-406.20157585439722
20
129.43857924992298
42
-0.15113099118039575
10
-407.46163237425083
20
130.14255666330598
10
-401.90538237425449
20
130.14255666330587
42
-0.0071539170719949786
10
-389.70765230259065
20
130.6363672818961
42
0.013679464822704102
10
-387.83759577846001
20
130.7121859821529
42
0.070589351611292664
10
-386.25266337575221
20
130.98851611261193
42
0.11826645975670172
10
-384.98967893234567
20
131.91975787433503
42
0.12973068902839827
10
-383.48679490293244
20
135.23678031886794
42
0.14661406896909682
10
-383.94078507003564
20
138.62769422558995
42
0.071444940354598543
10
-385.44671322040142
20
140.93226467366199
42
0.057143020156091621
10
-386.48522754764167
20
142.10531188938779
42
0.001319650135801462
10
-387.77693100189811
20
143.20061798095421
42
-0.058376315352506182
10
-389.00929830373093
20
144.47127027563801
42
-0.058679904445592526
10
-389.43795054289097
20
145.22407311990997
42
-0.12673857742529551
10
-389.54808754489807
20
146.02781757826699
42
-0.040165489048897239
10
-389.27128740031372
20
147.13568620058598
42
0.052857487888984742
10
-389.1102821384718
20
147.91904856536996
42
0.11893445215130187
10
-389.26533586898501
20
148.80577188487996
42
0.038015606232310102
10
-389.73781238841423
20
149.71473404980702
42
-0.048059113353791282
10
-390.18283212734275
20
150.61194704522396
42
-0.13376585932019766
10
-390.28779369525512
20
151.57274891133298
42
-0.15883728466429473
10
-389.48568324203967
20
153.03624492907497
42
-0.071281133064497584
10
-388.00901088263117
20
154.0331914119555
42
-0.013701923171196654
10
-386.55772209193543
20
154.67433216530168
42
0.039275418002601488
10
-385.00185506619857
20
155.37567429219655
42
0.15440368967960222
10
-383.56473229555388
20
156.8404831664094
42
0.084284762808502403
10
-382.93475818169503
20
158.98213999663932
42
0.16254575281640274
10
-383.60662696352512
20
162.84773236746986
42
0.02902466366689492
10
-384.79424876805587
20
164.73129517621967
42
0.014722735051703099
10
-386.03135844612859
20
166.4511506543177
42
0.070236844980590254
10
-387.37526059420026
20
167.77500050706408
42
0.095859553594787608
10
-388.63336823536002
20
168.37336248036434
42
0.2242240123152969
10
-390.61106532943603
20
168.0137381620703
42
0.16008496953639781
10
-392.08004606190678
20
166.03457496150438
42
0.15662536587299958
10
-392.1324687275528
20
164.5383899966393
42
0.0890626278152023
10
-391.30228536779396
20
163.23356171000887
42
-0.008035623726898344
10
-390.07358257889757
20
161.84111472226641
42
-0.046999598770207131
10
-389.49662374646181
20
161.02545258236927
42
-0.087899210632400304
10
-389.25586461055957
20
160.37045164167239
42
-0.22043064183480718
10
-389.51492134316413
20
159.44123088581779
42
-0.11086454076909372
10
-390.52829904091743
20
158.71755666330597
42
0.12075949475459695
10
-389.98985372697518
20
160.02235836299022
42
0.14439431984880877
10
-390.18193654231823
20
161.0735054374029
42
0.072987523935394566
10
-390.87386826602625
20
162.04170969994459
42
-0.03000023241899695
10
-392.38038237425081
20
163.74463999663931
10
-392.90954904091745
20
163.74463999663928
42
-0.019176970593498554
10
-393.59140890424396
20
161.77815894958366
42
-0.067652843263500156
10
-394.8055407085065
20
159.46904531656509
42
-0.09242469408069956
10
-396.11257453307991
20
158.22326951256335
42
-0.16039766734449284
10
-398.28429935325823
20
157.67513234751274
42
-0.0037706571084175698
10
-399.7102258454367
20
157.83689406928363
42
0.10453943560230608
10
-401.37621570758421
20
157.75209556813178
42
0.045477241626592953
10
-403.00990428102835
20
157.04664062318409
42
-0.037741977156204518
10
-405.08038237425069
20
156.07172332997268
42
-0.075590519206212736
10
-404.40878713689875
20
156.84069381878402
42
-0.10175593069409936
10
-401.47050457921642
20
158.45954155111488
42
-0.049190649382410419
10
-400.58246570758422
20
158.64982016479121
42
-0.074222532680493905
10
-399.55777547108494
20
158.55094638174688
42
0.010825280631298518
10
-398.55418479562098
20
158.31192573233307
42
0.17346035146408476
10
-396.69658857729405
20
158.60794574447627
42
0.14395710576781018
10
-395.03867726340798
20
160.30085839150536
42
0.06501592592151105
10
-394.49704904091743
20
161.6279733299726
42
0.049062933525599761
10
-400.29806466293508
20
160.19839332284133
42
0.008366159745906503
10
-402.16996570758391
20
159.51130666330607
42
-0.15928175756219504
10
-400.72408870060997
20
160.86570577009834
42
-0.069604896874596908
10
-398.02844170232765
20
161.58544820638056
42
0.020599916216601618
10
-396.2414648653787
20
161.89902892253207
42
0.08504245664368898
10
-394.52588691246893
20
162.53205251291541
42
0.11899824288059722
10
-393.65135317880981
20
163.44007486286185
42
0.053864106538001721
10
-393.06991967729039
20
164.72531326450115
42
-0.018993763219498666
10
-392.4557341634478
20
166.36328199645672
42
-0.090424487982208313
10
-391.38208085837368
20
167.87214135489279
42
-0.080907603342100329
10
-390.35433314417895
20
168.66544260483403
42
-0.15728195058609912
10
-388.94079904091757
20
168.93470595275494
42
-0.1303136062336967
10
-386.9793258676213
20
168.06811536548287
42
-0.040705696944203035
10
-385.65906441624412
20
166.71220828172818
42
0.015771014331395255
10
-384.52797192233214
20
165.35886703075462
42
0.046457699692807081
10
-383.54464762762376
20
164.43527338977034
42
0.048115239512396782
10
-382.85538237425078
20
164.00922332997254
42
0.093958448303598271
10
-382.74167641861487
20
167.66192263498877
42
0.036822683750697839
10
-383.39116200936223
20
170.35922332997262
42
0.054328802611310012
10
-383.88571228553678
20
171.70158090248481
42
0.128787777100003
10
-384.50772108433034
20
172.41020705747167
42
0.15071672139098943
10
-385.56136765209465
20
172.64712913469268
42
0.061548245120783801
10
-386.48441393006743
20
172.4799920877027
42
0.003052540082481711
10
-387.75854401101162
20
172.04932797977136
42
-0.047503760268995603
10
-388.71092184782214
20
171.83701715287003
42
-0.076462252342401282
10
-389.57468080189904
20
171.88202073536775
42
-0.03409761489839816
10
-391.38627137771493
20
172.43094654955615
42
0.028757516771095802
10
-393.73100256559945
20
173.21904352797196
42
0.060145777157204587
10
-395.19941619343138
20
173.42809360056151
42
0.063320284097001411
10
-396.08454904091741
20
173.32176052327097
42
0.074180908928407133
10
-398.25192327316199
20
172.3806256720095
42
0.047524765236095265
10
-400.35322879263163
20
170.77326102186282
42
0.0051191653499001099
10
-402.64791829451156
20
168.56134363436371
42
-0.042435994560698444
10
-404.72543214731496
20
166.75358063097718
42
0.0040512299679168837
10
-406.70411339048775
20
165.39061857429633
42
0.069142106624595773
10
-408.61571850312146
20
163.69595918253208
42
0.10017626873320096
10
-409.30642822713941
20
162.43425958293699
42
0.096457768954808676
10
-409.40728718930978
20
161.27575666618577
42
0.043822199517299279
10
-408.95593992605302
20
159.46753526229156
42
-0.03017287867360027
10
-408.54261451892449
20
157.92380666330598
42
-0.10155665347300166
10
-408.73383722985409
20
155.37974215656726
42
-0.097667403161094235
10
-409.85941107640167
20
152.92939713997993
42
-0.050960859641485903
10
-410.37204904091755
20
152.36755666330598
42
-0.034162195084597002
10
-409.57829904091744
20
154.74880666330597
42
0.1158670878372078
10
-410.94100197995061
20
154.1472036263863
42
-0.018541081259190833
10
-412.13352971124368
20
153.20604250830795
42
-0.13460396778579051
10
-413.5470490409175
20
152.63213999663895
42
-0.019258942486898054
10
-411.93021778226267
20
153.98965311266556
42
0.033182114784400502
10
-410.33689621402186
20
155.35677758239191
42
0.04802981349420192
10
-409.57816955781624
20
156.24993339209018
42
0.24544737591719773
10
-409.28605905141103
20
158.30574023433135
42
0.024810588742797464
10
-409.7395028983928
20
159.46209285215954
42
-0.067491320134704005
10
-410.16371176761481
20
161.04561817679956
42
0.037876329324198418
10
-410.37204904091743
20
162.15713999663922
42
0.069076048863296532
10
-412.30388559748206
20
160.7885319681873
42
-0.01480475700610036
10
-413.81163237425091
20
159.3999197283897
42
-0.024677779190898128
10
-419.89704904091741
20
154.69588676686232
42
-0.050359250057405061
10
-421.42542190369886
20
153.92111810778695
42
0.023429007135398808
10
-422.97920746735758
20
153.26907251575096
42
0.09310052502870407
10
-424.31492930980909
20
152.31119705433798
42
0.092199474483401253
10
-425.24786159181747
20
150.64384547417598
42
-0.016090856703883098
10
-425.66144035555163
20
149.62534989791601
42
-0.10060149253980051
10
-426.51163237425072
20
148.398806663306
42
-0.096695972098800195
10
-425.90277886187971
20
151.16683600593495
42
-0.10416034164229952
10
-424.68571970246944
20
152.92760493894198
42
-0.071608763286111779
10
-423.48735658200826
20
153.73006207509599
42
-0.0076548291742040532
10
-421.9905461969206
20
154.40015376603932
42
0.068633729106293132
10
-420.44035973482812
20
155.26365364536699
42
0.11863514970400325
10
-419.36788237425077
20
156.60088999663924
42
0.017206959062992105
10
-422.67599054378502
20
156.48870187921835
42
0.054087359094903427
10
-425.6721489702565
20
155.99284719583699
42
0.12606817021450342
10
-427.72233037198197
20
154.84665865063195
42
0.0028199933835820852
10
-428.89489451138735
20
153.60975771496283
42
-0.031420673946116105
10
-429.6774456528284
20
152.87270478435093
42
-0.059929025752703695
10
-430.48038237425084
20
152.36755666330598
42
-0.041131635141399461
10
-429.76724119215885
20
153.58920540390397
42
0.021763047868392706
10
-428.94595025774936
20
154.87030194355503
42
0.032751461652292847
10
-428.62829904091757
20
155.54255666330596
42
-0.013320441074994929
10
-429.8480179590149
20
155.8385067275139
42
0.051485613413612082
10
-431.05366366843259
20
156.05044673351904
42
0.11084350312311152
10
-431.90890314915441
20
155.92578304774415
42
0.12122283137707911
10
-432.32511556776763
20
155.61081800058622
42
0.069217998343499218
10
-433.37436200497018
20
154.36557378894358
42
-0.10104241813819612
10
-433.45815617336837
20
154.25969140489516
42
-0.45204724495924747
10
-433.47953339105237
20
154.33728261396408
42
-0.05126228367920313
10
-433.08218906555101
20
156.11724476479776
42
-0.1059206867305084
10
-432.78722606203195
20
156.71082319337501
42
-0.13835072359304112
10
-432.59704904091745
20
156.86547332997267
42
-0.085076410033191427
10
-430.84973846904836
20
156.77884791533467
42
0.013214618373605531
10
-429.45607181258163
20
156.49297879171417
42
0.072222685514198831
10
-427.36597183065447
20
156.45363518499988
42
0.0035367326407814677
10
-425.1943530397308
20
156.73935406431713
42
-0.029416604757998614
10
-423.60121570758417
20
156.86547332997267
42
0.10795608158020673
10
-424.90207834775612
20
158.49719371637607
42
0.14610981341669618
10
-427.99118533381557
20
159.78091132392188
42
-0.010148527923609922
10
-428.89271129434576
20
159.87226436924715
42
-0.095256006788094469
10
-429.86770003632796
20
160.1500778283276
42
-0.15226340849171199
10
-430.74496570758413
20
161.09880666330594
42
0.033294558236400554
10
-428.85522867811437
20
160.68388848339458
42
-0.041853928597199747
10
-426.72727324805476
20
160.23997916274567
42
-0.067085834486398765
10
-425.36270349494328
20
159.58913657711378
42
-0.013945246627099712
10
-423.86998173031833
20
158.54578642165711
42
0.034010624339110992
10
-422.72311756585623
20
157.82836791208348
42
0.11924613882330547
10
-420.95538237425075
20
157.33960459624871
42
0.12952768113479501
10
-417.80955241587219
20
158.16724412286968
42
0.056933115847201621
10
-415.80309692209431
20
159.61704872696802
42
0.032321512866800226
10
-413.37075530238087
20
162.17918570950934
42
-0.005648411910995025
10
-411.52199218805765
20
164.35935147945958
42
-0.029829214519800921
10
-409.32491221935641
20
166.57378476824508
42
0.014129180712600012
10
-407.06163098964043
20
168.63482046948917
42
0.046855900047097838
10
-405.34496570758421
20
170.62380666330603
42
-0.091039596460497599
10
-410.13321604467529
20
170.63840865046456
42
-0.023592101987110013
10
-411.69496570758417
20
171.00163405334098
42
-0.02060207692059228
10
-412.91373306758857
20
171.47018384871524
42
0.042141254508188834
10
-414.21603498511359
20
171.94668537068398
42
0.18394456049330987
10
-415.88523961635241
20
171.8551891560098
42
0.072872096144996776
10
-417.21953599675805
20
170.9307482667283
42
0.0010721601110752546
10
-418.37655169597491
20
169.76812231422849
42
-0.021768738379105385
10
-420.336093571672
20
168.08044956585996
42
0.0070426158515004434
10
-422.47974413296845
20
166.39630946964775
42
0.0034332031748896073
10
-422.80746570758436
20
166.12588999663913
42
-0.1490276870322973
10
-421.706481790525
20
168.05896887157024
42
-0.036738899578004011
10
-420.19810841750882
20
169.26644666907424
42
0.02436462124940212
10
-418.14090237428252
20
170.73267681180593
42
0.074099007756899538
10
-416.91459083913918
20
172.05208001713919
42
0.066136622276595211
10
-416.45746570758428
20
173.00505666330594
42
-0.010547499728406004
10
-417.8025975104743
20
173.40335752971285
42
0.023935864233802128
10
-418.76120253526005
20
173.65349768828736
42
0.057644297453916971
10
-419.63246570758423
20
173.72499010955437
42
0.15051309323189432
10
-422.94468515618149
20
172.47973861855672
42
0.036681197895702365
10
-424.63942997687286
20
170.91659275518995
42
-0.00253316097762143
10
-425.9391318507997
20
169.50625280550884
42
-0.040517549171595363
10
-427.56996570758417
20
167.97797332997266
42
-0.10069046956369582
10
-426.69566425386301
20
170.01664840895256
42
-0.094426863972203359
10
-424.65565968287365
20
172.00334132110228
42
-0.008750816176287304
10
-423.07470879515438
20
173.10349991921879
42
-0.053335582060304934
10
-421.41578881813268
20
174.00398938050733
42
-0.12007980093739827
10
-418.89514757029019
20
174.30943675749756
42
-0.06241649230360051
10
-416.50860841795094
20
173.74625076739892
42
-0.017523344019606216
10
-414.20876547124521
20
172.78870756091877
42
0.021824883698300233
10
-411.7367870848571
20
171.75648463066256
42
0.064340416091404756
10
-409.35108726382219
20
171.1873312206605
42
0.021913252864013796
10
-408.78454904091757
20
171.1529733299727
42
0.052193792197092061
10
-409.84708619781236
20
173.30308777494477
42
0.091176386955300517
10
-411.1586192330999
20
174.7047194018063
42
0.0098858981747033062
10
-412.37718965441337
20
175.5164976617385
42
-0.11621364803780672
10
-413.65446706233973
20
176.77233791227098
42
-0.06173646558279685
10
-414.07621570758414
20
177.76755666330598
42
-0.038406370431394846
10
-413.3257276826825
20
176.93294909409676
42
0.047128139210688154
10
-412.62695318784631
20
176.13934452101088
42
0.096684376995096966
10
-411.81060437210579
20
175.647023739735
42
-0.010607408203980422
10
-410.99319597356146
20
175.34720789101297
42
-0.10458360420809877
10
-410.2105743202805
20
174.81797895029328
42
-0.035930896852998759
10
-409.21085771470672
20
173.43585763691894
42
0.028728093208896469
10
-408.42185295823703
20
172.32892395453729
42
0.084746192649205229
10
-407.56212782569327
20
171.57170307554938
42
0.15474836666260686
10
-406.1387157075842
20
171.24108164702989
42
0.096167977487910006
10
-404.70095938677395
20
171.65015639678828
42
0.071676693774498604
10
-402.42530394794608
20
173.31312867984019
42
0.00049499907980467002
10
-401.12266344598032
20
174.5727527893697
42
-0.079631387606000317
10
-398.2602175239461
20
176.65622299010431
42
-0.054658505494898334
10
-396.61371570758428
20
177.23838999663926
42
-0.066877797558994437
10
-397.43406797705973
20
178.23609266746621
42
-0.098945897516092007
10
-397.63523623724501
20
178.74352476758622
42
-0.42849740049200424
10
-397.25540428822734
20
179.23818296923059
42
-0.16065676757770084
10
-395.58399973745099
20
178.92390545127924
42
-0.054277980696898077
10
-394.44247508810088
20
178.07707391787483
42
0.033136743094299009
10
-393.09872515531771
20
176.90448757405224
42
0.061202228735301102
10
-391.30505736363966
20
176.07552008127595
42
0.037428035735101305
10
-389.19461273443426
20
175.49806787230955
42
0.046405051690803306
10
-388.21221526252492
20
175.39312407202954
42
0.11850907585589662
10
-387.37362353419365
20
175.57993077032879
42
0.042189300382598258
10
-386.40090115880759
20
176.18970684316818
42
-0.011606471984287358
10
-386.03038237425085
20
176.44463999663927
42
0.066336211710303086
10
-386.76367973647217
20
178.6448571274297
42
-0.019845966271198445
10
-387.4435185161725
20
180.09942441267353
42
0.0020810171954007768
10
-387.86211546863336
20
181.24366876249266
42
0.11245609957750578
10
-388.43841942088739
20
182.18711184895017
42
0.16220450222979699
10
-389.73481549752148
20
182.73404937977728
42
0.081155881136494454
10
-391.5972166137592
20
182.59446425838939
42
-0.0095900020587967351
10
-392.89902332148955
20
182.29065933879781
42
-0.11649911171500144
10
-395.02621570758424
20
182.26547332997268
42
-0.046461629434408111
10
-393.50926517586578
20
182.68449507713291
42
0.036186653837398421
10
-391.85121570758417
20
183.0592233299727
10
-391.8512157075802
20
183.58838999663672
42
-0.0024645399088026121
10
-393.28823488717762
20
184.51546173414667
42
-0.070956241241299331
10
-395.02621570758424
20
185.9696399966393
42
-0.044647376677305117
10
-392.72282305396317
20
185.11199792222567
42
-0.0076554116177875286
10
-389.65121575954066
20
183.56193342510392
42
0.062246982142107825
10
-388.70358685393518
20
183.18135202745535
42
0.22632744645739006
10
-387.16661807647716
20
183.48124873823218
42
0.065404565262998565
10
-386.47748888754018
20
184.21997913634513
42
-0.015182468442001067
10
-385.77606112160356
20
185.23039527487643
42
-0.10054638366781196
10
-384.97204904091745
20
185.9696399966393
42
-0.050689806879702815
10
-385.75231081925392
20
184.40325819978764
42
0.033391665896801141
10
-386.55257723004308
20
182.98731770736111
42
0.15993810330290081
10
-386.81601152014321
20
180.42978500585107
42
0.14379248052339966
10
-385.15732429383638
20
177.37099451265706
42
0.14717317614459585
10
-382.9268961331469
20
176.10056262354425
42
0.12261761786199969
10
-381.0615619573374
20
176.10321028866542
42
0.0022413526825870384
10
-379.68540871473897
20
176.50893678262864
42
-0.18669138503701524
10
-378.89669059330174
20
176.52085156238536
42
-0.28389862468621063
10
-378.57541900426435
20
175.93785993046555
42
-0.13331043330271333
10
-378.76534474835063
20
175.38529862500926
42
-0.053380199425104323
10
-379.35016900075425
20
174.70304407494328
42
0.050411121660691227
10
-380.0539747191707
20
173.98798277770618
42
0.10834950369940193
10
-380.57029511250437
20
172.75834147273878
42
0.032304168125401253
10
-380.71793431253121
20
171.24148279947636
42
-0.0030812566480608165
10
-380.73871570758411
20
170.62380666330523
42
-0.014241978099299023
10
-379.34665976053628
20
171.06942720575324
42
-0.1118280352015137
10
-377.8282990409175
20
171.15297332997267
42
-0.045744362755405561
10
-378.68198464040199
20
169.63448276371238
42
0.036231122807998929
10
-379.72398778854091
20
167.87070684204144
42
0.11629419611939822
10
-380.09154684738439
20
166.3147294206949
42
0.078838294460611025
10
-379.80246241747835
20
164.41377545709526
42
0.082690763825803204
10
-379.31965267838984
20
163.44217876731588
42
0.14873472863959183
10
-378.62047783704946
20
162.90639072203336
42
0.18010522382341437
10
-377.51543424140067
20
163.01291552674604
42
0.032609320578488789
10
-376.47185618782351
20
163.59018379761631
42
-0.011725651806222807
10
-375.97621570758417
20
163.89703702524446
42
0.039624320097898999
10
-372.05877876753596
20
166.69180990016076
42
0.0063956737095047511
10
-371.21371570758436
20
167.41388469929626
42
-0.04090075110580086
10
-370.08645877025316
20
168.14353131708557
42
0.082052564448201068
10
-368.99200861784203
20
168.94317604298536
42
0.15634805772309296
10
-368.51131478283577
20
170.07741822421389
42
0.044316445978502525
10
-368.55877099578731
20
171.79230695051075
42
-0.043236049001088808
10
-368.56939137859115
20
172.85573881236519
42
-0.20383741708239903
10
-367.72583778619975
20
174.51503860767988
42
-0.031779622506704498
10
-366.49093845656324
20
175.42318821654791
42
0.037324864753793839
10
-365.32687679253718
20
176.26880489527548
42
0.19876674004410302
10
-364.33069357070792
20
178.1607575558067
42
0.12233704387321404
10
-364.43147691087404
20
179.34587931305433
42
0.17132079522680185
10
-365.52965512915205
20
180.57544822847041
42
0.065325053725099003
10
-367.50954904091748
20
181.35874572987504
42
0.025883707752904404
10
-368.69109751224096
20
181.69994740924415
42
0.11491140526380633
10
-369.89079904091744
20
181.76196724171578
42
0.10550325117429728
10
-370.72841475116536
20
181.35757587401167
42
-0.0063651674322981128
10
-371.39354792501558
20
180.86839803482687
42
-0.11429698490850397
10
-372.27204904091752
20
180.48509104644396
42
-0.10441038360759279
10
-373.1078036697557
20
180.55977482087002
42
-0.0016934367004721362
10
-376.09843475894655
20
181.62560256141845
42
-0.044999244978103668
10
-378.66705465350202
20
182.75314680990081
42
-0.15018225004550784
10
-379.16134523092364
20
183.19306158169806
42
-0.27853609122952261
10
-379.1414254459977
20
183.6720008491987
42
-0.24640483123498352
10
-378.28649466773669
20
184.20160802593057
42
-0.097066546832999992
10
-376.81255672924556
20
183.97214652380998
42
-0.015254259404593547
10
-375.57744223360521
20
183.49621086169876
42
0.048789698631696889
10
-373.84019330438628
20
182.96006539233858
42
0.10892882557039693
10
-372.27204904091758
20
182.94624572987502
42
0.033685233179706502
10
-371.07971072293992
20
183.42375973033609
42
-0.13530556321090148
10
-369.32305826331714
20
183.85927846250539
42
-0.043389444107899557
10
-367.53246297463215
20
183.63349161809427
42
0.042112076706398056
10
-365.39288237425075
20
183.32380666330602
42
0.12180462393150095
10
-366.54345893306152
20
184.94650348300098
42
0.062225485831401244
10
-368.0439702807364
20
185.92349236786055
42
0.0401956379532016
10
-370.42666449828863
20
186.84306056648853
42
0.0041277495184933429
10
-373.59496570758347
20
187.71033235783489
42
-0.022407996151200395
10
-377.63600622975952
20
188.99525989965267
42
-0.062972585914796347
10
-380.36846258804133
20
190.34762016941184
42
0.048816658429997807
10
-381.8013691215836
20
191.16956635206714
42
0.14192817251360415
10
-383.32515551472522
20
191.33866184665732
42
0.0056164917562948275
10
-384.55338816783888
20
191.10633471320006
42
-0.085861303954600246
10
-386.26408672199125
20
191.07987616582562
42
0.0028382929774985553
10
-387.81609210247433
20
191.36896981067019
42
0.064448002851103928
10
-389.19791668791959
20
191.46251271210869
42
0.071919917330698108
10
-390.92727711701502
20
190.96621577637308
42
-0.0012619829432408735
10
-392.55797709383188
20
190.2116335971688
42
-0.10263994458120469
10
-394.76163237425078
20
189.67380666330598
10
-394.76163237425078
20
190.20297332997268
42
0.093581554616102069
10
-392.11243667764995
20
190.97473377607082
42
-0.0020710038259074081
10
-389.99913237424676
20
192.05505666330808
42
0.18820848110239841
10
-394.11073356032063
20
194.04345130577795
42
0.21447924729140083
10
-396.41834863311544
20
193.2239945098957
42
0.071284608791602033
10
-397.42509342474358
20
191.89339904585299
42
0.012929443813805192
10
-398.29316145090195
20
190.20639496934018
42
-0.024724724996601465
10
-399.00267792086362
20
188.87114385897615
42
-0.09186114171889824
10
-400.31788237425081
20
187.29255666330602
10
-400.58246570758422
20
188.08630666330598
42
0.14563769302800308
10
-399.25841459162723
20
189.5012422498441
42
0.014778167988603361
10
-398.63218826453334
20
190.95036352449046
42
-0.06733377922850739
10
-397.56743552341896
20
192.84377525411455
42
0.010157328826395119
10
-396.34913237425081
20
194.43630666330586
42
0.13270334730720199
10
-399.65170987941036
20
192.62618943580634
42
0.05650451174259892
10
-401.1113114160579
20
190.8549291576594
42
0.024067427863195257
10
-402.4096545365415
20
188.5644198262911
42
-0.018442341373398414
10
-403.25252232515567
20
187.07550312682412
42
-0.12021193201999796
10
-405.14865738017886
20
185.11993297800299
42
-0.082995567821802965
10
-406.40329904091749
20
184.64672332997256
42
-0.024308174350199493
10
-405.38125720557366
20
185.64249179277451
42
0.069687189969195817
10
-403.88175709425889
20
187.32516809719419
42
0.035887239332297871
10
-402.21079833334124
20
190.41817740135312
42
0.0048758990001163171
10
-401.37621570758427
20
192.31963999663907
42
0.1194178153883011
10
-403.71636028790442
20
191.22484087610061
42
0.011320338497805778
10
-405.27199578420601
20
189.81951949295166
42
-0.071203556376997407
10
-406.93349721761933
20
188.62288163100814
42
-0.10004102343370534
10
-408.16324053921812
20
188.34031994206995
42
-0.0069564184846910597
10
-409.42349191222183
20
188.3496715247943
10
-409.57829904091744
20
188.3508899966393
42
-0.11865847592479833
10
-408.36894501419488
20
189.02047138524878
42
0.029838348042900545
10
-407.38737753575958
20
189.332452722461
42
0.093120473432493273
10
-406.09509190101272
20
190.28257322783816
42
-0.014823975275198029
10
-405.0592585240546
20
191.32112780672458
42
-0.072545557941398511
10
-403.53147484729936
20
192.30962392531271
42
-0.015482074120898789
10
-401.36326484732183
20
193.25980375143573
42
-0.0047301788576159867
10
-399.83005194986981
20
193.94524952555827
42
0.0017738929439278205
10
-398.5332218211675
20
194.41837428625004
42
0.056891781348299392
10
-397.44776066171789
20
194.94427539916154
42
0.10510147194349466
10
-396.61371570758422
20
195.75922332997266
42
-0.13346439824340456
10
-398.01828325280235
20
196.61604863137541
42
-0.010090900833579559
10
-398.20121570758425
20
196.81755666330602
42
-0.029775672962502053
10
-395.86559763831758
20
195.87831975915807
42
0.083498879572199619
10
-394.0374236578715
20
195.32811293179648
42
-0.020265879140092355
10
-392.29464429540604
20
195.1390986073261
42
-0.019550926308704909
10
-390.16089758916911
20
194.6377780436224
42
0.018588548683495819
10
-388.67711358463021
20
194.3021833790186
42
0.058777794511197468
10
-385.79340614767523
20
194.1874689533611
42
0.098098547890903526
10
-384.00019422074928
20
194.75216637412188
42
-0.037797046036392903
10
-383.1217500624137
20
195.13191157071657
42
-0.17137177357408823
10
-381.47016316211221
20
195.09007741327321
42
-0.063642334746206203
10
-380.16996225537696
20
194.43488736019623
42
-0.0054245857561090495
10
-378.73294237377598
20
193.4556056139584
42
0.047415650827500003
10
-377.3067007987064
20
192.69789490438012
42
0.026798902288400608
10
-373.76799159008738
20
191.41691546822216
42
0.015472838969602021
10
-369.09704904091763
20
190.20297332997274
42
0.013609829804104219
10
-369.87926092750604
20
191.15022091208738
42
-0.048302172042001566
10
-370.51543117698805
20
192.02418776100629
42
-0.10570696286360322
10
-370.79191260894152
20
192.85351424046357
42
-0.16038345073350171
10
-370.58684526101774
20
193.71286478500909
42
-0.043636765934197463
10
-369.82667712307796
20
194.64520591517174
42
0.022797959413796413
10
-368.63995373355584
20
195.88399428932237
42
0.091736166605206754
10
-367.9475767296139
20
196.96255166747079
42
0.28617444864450392
10
-368.19177130639508
20
198.2511620280853
42
0.2384459216828029
10
-369.62898918572341
20
198.85673611970259
42
0.072953083475198743
10
-371.07107944433392
20
198.49598496484319
42
0.024950382061704537
10
-372.53864975922534
20
197.75558934113508
42
-0.028390437004500568
10
-373.82838725495645
20
197.0861792836638
42
-0.093507354656895261
10
-375.26424511802821
20
196.69965689143012
42
-0.19221619459179878
10
-377.03454904091745
20
197.34672332997269
42
0.083380048738997098
10
-373.59759467268333
20
198.02799264524782
42
0.0094330162990947323
10
-371.32671315592256
20
198.96998298406959
42
-0.026124782006494866
10
-369.3616323742508
20
199.72797332997266
42
0.1291520199315967
10
-372.31295453809469
20
200.71578346493308
42
0.050112368385197989
10
-375.18246570758413
20
200.5217233299727
42
-0.1071116080496952
10
-374.11323168846087
20
201.13302932411844
42
-0.096038662816403095
10
-372.04211592982256
20
201.35414886582038
42
-0.11524405589819972
10
-369.03344312657367
20
200.46387427990314
42
-0.093733147384203686
10
-367.73082449105925
20
199.39158552977759
42
-0.20505101633170023
10
-367.09494660230865
20
197.34698978657667
42
-0.13409889161829938
10
-367.51496759815529
20
196.34439810154367
42
-0.033621223961903091
10
-368.45435347913542
20
195.31169005426821
42
0.052732042761601795
10
-369.65424853422581
20
194.01541966843092
42
0.16915452569030034
10
-370.03140501564724
20
192.82655836354721
42
0.14891287572589981
10
-369.54459363108691
20
191.73230601044281
42
0.051913352056599492
10
-368.21741199409587
20
190.46591562990517
42
0.056513376427495238
10
-366.16204330869391
20
189.09742675736169
42
0.091719550186007567
10
-365.12856549752149
20
188.7221003810082
42
0.15028237725379792
10
-364.18476434729075
20
188.8121404410885
42
0.29866465866918984
10
-363.73715004145095
20
189.6105619477855
42
0.091569263692097377
10
-363.94013933303859
20
190.60951864185859
42
0.068421865835002593
10
-364.86371570758422
20
192.3196399966393
42
-0.14517449678439945
10
-363.56324248228202
20
191.26545214840178
42
-0.086199882522205007
10
-363.16015402751918
20
190.08432487874597
42
-0.012255847051193224
10
-363.01163237425078
20
188.88005666330594
42
0.10255749153120057
10
-361.6411793743282
20
190.27002041017056
42
0.14824237637660703
10
-361.2167261794051
20
191.8522967532345
42
0.067942892571302441
10
-361.51713165814954
20
193.41519533628878
42
0.01499758521929649
10
-361.68871570758421
20
193.9071399966393
42
-0.022052499159917825
10
-361.21685044223727
20
193.41818823182595
42
-0.15210097170759865
10
-360.60906017799942
20
191.7307073594522
42
-0.14999188773849853
10
-361.1187770712794
20
190.31468476987047
42
0.0020593783671664077
10
-361.87917973912198
20
189.32767331072964
42
0.10100567337070117
10
-362.64994579486438
20
187.82172332997266
42
0.11134991076710418
10
-362.60725508450128
20
186.48397980246568
42
0.030986261285095674
10
-361.78406222734799
20
184.09152589185186
42
-0.021668634559397632
10
-361.28268623830257
20
182.73280807804898
42
-0.036271500410992669
10
-361.06334330121257
20
181.60814540208656
42
0.069438619089795747
10
-360.83857232492443
20
180.65675832487116
42
0.085741017617583987
10
-360.62694266172639
20
180.32289971903108
42
0.22412736844190359
10
-360.07230107324824
20
180.09725120768277
42
0.095452929018422394
10
-359.24110371910814
20
180.3776845514513
42
-0.0037443382199999248
10
-357.89890246073651
20
181.18863041993623
42
0.072928427351304448
10
-356.61628157493709
20
182.18145015005834
42
0.13605189049379349
10
-355.86326417511401
20
183.68978580911659
42
-0.046223972333712691
10
-355.59060570282264
20
184.68134241418187
42
-0.17540914763090398
10
-354.83444022424112
20
185.64594933001848
42
-0.19153754517368904
10
-354.12673722340014
20
185.74547782064198
42
-0.040195295845894874
10
-353.32298740036839
20
185.4131802318488
42
0.10206432772069328
10
-352.39488992817087
20
185.10771707177207
42
0.16883653820340222
10
-351.44585963261602
20
185.45262544748169
42
0.043689968133000585
10
-350.6576511602517
20
186.15061299514309
42
0.0045082365723787812
10
-348.64673227407206
20
188.15152161907793
42
0.064243708935697974
10
-346.98611949099535
20
190.28177783961735
42
0.082865884170398377
10
-346.55590692922601
20
191.36756938816535
42
0.083906747162202061
10
-346.54021865816929
20
192.52125730811764
42
0.0056981130009015352
10
-346.80441534978115
20
194.0711086401669
42
-0.025601104450087217
10
-346.87204904091743
20
194.70088999663929
42
0.11671159404950403
10
-349.04722526108026
20
194.09029453920556
42
0.025275257745095918
10
-350.59466817431763
20
193.07665272360762
42
-0.02389358907659897
10
-351.9509776672615
20
192.16942609961609
42
-0.030112478936604226
10
-352.69288237425081
20
191.79047332997268
42
-0.05603680995209466
10
-350.9123994223454
20
193.50203558363248
42
-0.0023287992531496149
10
-349.15379130793281
20
194.77125085673453
42
0.015363157840096339
10
-348.19496570758412
20
195.49463999663931
42
0.078176197476998707
10
-349.61994030623407
20
196.05508591038659
42
0.050154655628505185
10
-351.65209069466664
20
196.26827536545665
42
-0.0075487345801984306
10
-353.63408762680729
20
196.28160771323479
42
-0.025465105471896791
10
-355.74790956842855
20
196.48045875954813
42
0.033865450085003461
10
-357.64112377693993
20
196.64621467315047
42
0.040062254049806838
10
-358.77829904091755
20
196.55297332997264
42
-0.16181849301180232
10
-357.24496948302624
20
197.34450202712995
42
-0.080759336604990767
10
-356.1318493811807
20
197.28827630000652
42
0.0032946571277672003
10
-354.75336781055967
20
196.98292149051508
42
0.052254402983402802
10
-352.55255173973012
20
196.78159120643295
42
-0.010984476218298829
10
-350.58729915644517
20
196.73932072340975
42
-0.075770468441203567
10
-348.19496570758412
20
196.2883899966393
42
0.13419914905430577
10
-349.42617242679086
20
197.55339700891778
42
0.023179042278398589
10
-351.06104798337685
20
198.34220019841905
42
-0.05822776005570298
10
-352.41692215137084
20
199.10276116922637
42
-0.059259003183905222
10
-353.63161374654902
20
200.34089277307305
42
0.0048457310990227065
10
-354.48623121381553
20
201.47350573952249
42
0.14409749663479815
10
-356.66163237425081
20
203.16755666330593
42
-0.23617479003830547
10
-354.58922279459284
20
202.67256471875837
42
-0.05244136620580471
10
-353.66607177322066
20
201.64598947772663
42
0.013448062909595927
10
-352.61863461553759
20
200.18968865348998
42
0.086299325307508196
10
-351.30085142926339
20
199.01722370417616
42
0.041063674783899197
10
-349.29268800722042
20
198.0358972296506
42
0.0083225068685122121
10
-347.40121570758367
20
197.34672332997252
42
0.021801526421907486
10
-347.81646906256134
20
200.27087044774044
42
0.066077525336801002
10
-348.63841854982553
20
202.77216245413581
42
0.10464767397789827
10
-350.60663752428303
20
205.15245951909648
42
0.011758771028297046
10
-352.11997231213076
20
206.32026030814126
42
-0.057020737622102968
10
-353.59893048292378
20
207.63168963117329
42
0.021993712782588541
10
-354.43412425417881
20
208.53569231713601
42
0.11270505482539707
10
-355.6136181784907
20
209.34372602696359
42
0.085313446224295902
10
-357.46041708767245
20
209.52342620684186
42
0.00075832794453691173
10
-359.35686884525916
20
209.35444801303373
42
-0.081547095148702911
10
-361.65254380658098
20
209.4965557050692
42
-0.00074093131716395017
10
-363.68145251539153
20
209.9202888455701
42
0.050010374707600176
10
-366.04886582730188
20
210.20442850008908
42
0.083682151229203014
10
-367.86639778844642
20
209.90010598119042
42
0.016509278036593533
10
-369.77651609350471
20
209.1579597102197
42
-0.0028046394802991302
10
-372.61815958097384
20
208.07413201762654
42
0.030896974204101386
10
-375.90563262597692
20
206.58330883749693
42
0.076020855248198058
10
-378.85462450314458
20
204.40746447142084
42
-0.013815955634901102
10
-380.53024904024869
20
202.72028374747063
42
-0.027528592623597754
10
-381.2678823742508
20
202.10922332997262
42
-0.020563170449802843
10
-380.07991342318695
20
203.75324874385385
42
0.030391562077602241
10
-378.85014026817237
20
205.43178660959637
42
0.016151521180281833
10
-378.62204904091749
20
205.81338999663924
42
0.021656810515398611
10
-382.16817888028743
20
205.65159999592339
42
0.044838365529498186
10
-385.19954403913766
20
205.11835851612918
42
0.025549844743303837
10
-386.2949657075842
20
204.75505666330594
42
-0.20008687781749884
10
-384.15880662589245
20
205.99538890170817
42
-0.027186430508594511
10
-382.55231107440159
20
206.0804423312008
42
0.028159708855197373
10
-379.083410513079
20
206.27780124045728
42
0.058067253016499211
10
-376.25447319573931
20
206.91370456937921
42
0.04030713439969575
10
-375.18246570758424
20
207.40088999663928
10
-375.18246570758407
20
207.93005666330595
42
-0.0056751245226903738
10
-376.61056594104815
20
208.69785558195144
42
0.074548147666101475
10
-378.3574657075842
20
209.41331157282139
42
0.07203494321150293
10
-380.78797637094561
20
209.51009363936436
42
0.024488977943401262
10
-383.88338337435869
20
208.97319056583041
42
-0.028331595542403172
10
-386.31797588948581
20
208.53109268667421
42
-0.04579627968619545
10
-387.94221626436752
20
208.51926183310238
42
0.022598976708705313
10
-389.60318841116577
20
208.61513062917822
42
0.1017891762172034
10
-391.11962065215994
20
208.30725477031399
42
0.025196929210103951
10
-392.66450750763084
20
207.46561498660074
42
-0.083461097915196972
10
-394.23246570758414
20
206.80055115615465
42
-0.14325753381820347
10
-395.95408151309266
20
207.0423146831252
42
0.011818179263201315
10
-397.21670098778014
20
207.54963444941933
42
0.16781104649329634
10
-398.79622785141697
20
207.62471043649447
42
0.053943068321798494
10
-400.05329904091752
20
207.05375759994126
42
0.01792158967400637
10
-403.38775746414524
20
205.02636095095437
42
-0.0038850018580216892
10
-406.5226991432317
20
202.95859685675043
42
-0.039654832595498631
10
-411.16579904091742
20
200.36932226414618
42
0.012201026227694412
10
-412.39195288261283
20
199.76552008362
42
-0.038591492159897045
10
-413.59184290527696
20
199.24017917230651
42
-0.15542277248429934
10
-415.66371570758412
20
199.19880666330599
42
0.024892652152296271
10
-411.78734612048692
20
200.78687726385863
42
0.060818485710600785
10
-408.6505222625517
20
202.71706506964821
42
0.066747757962700244
10
-407.46163237425083
20
203.96130666330595
42
-0.024258626323398345
10
-409.47531771002195
20
204.13716353496869
42
0.052296677107097074
10
-411.44087839125439
20
204.21180668982811
42
0.089815918351097063
10
-413.6900506738458
20
203.49691401335957
42
-0.015695770960486275
10
-414.87065922773985
20
202.90040491966667
42
-0.038589791149515093
10
-415.59345484923966
20
202.62730486673547
42
-0.15255097500469689
10
-417.46038171962419
20
202.66752252786628
42
-0.032122196737588697
10
-418.04496570758437
20
202.90297332997267
42
0.010648084552306042
10
-415.79923505405452
20
203.43943468840422
42
0.047278684182503916
10
-414.02749300715271
20
204.12668549067115
42
-0.033211739882298717
10
-412.3181022777635
20
204.86305231246487
42
-0.090698190237204324
10
-410.69766394457076
20
205.08989740964449
42
-0.038066064158401053
10
-408.86381950749615
20
204.83301869078349
42
0.045817448087602637
10
-406.66788237425078
20
204.52566175058627
42
0.085557426483099275
10
-404.9432416949561
20
204.89220871531427
42
0.090312443098700054
10
-401.78407183706054
20
206.81623095776288
42
0.076342940913101093
10
-400.84704904091751
20
207.93005666330598
42
0.0032943652316869887
10
-403.66127736985158
20
208.13561331043195
42
0.033199180117999619
10
-407.19704904091765
20
208.16103820398587
42
-0.012300724564500839
10
-408.43109975971072
20
208.17483594341101
42
0.10826975849450102
10
-409.84288237425073
20
207.93005666330598
42
0.110922316722372
10
-409.88552736477914
20
208.37872638279413
42
0.019115196122399713
10
-410.10746570758414
20
208.72380666330599
42
-0.065071547289901194
10
-406.83377938681161
20
209.12861825989839
42
-0.021642338241801097
10
-403.87655106299189
20
208.94691756876338
42
0.009736341960504909
10
-401.93898500387718
20
208.74951614888084
42
0.010050584957488418
10
-399.92891782186098
20
208.73653566022242
42
-0.056933365109103067
10
-398.34691449293075
20
208.61575910872654
42
-0.038859035211900338
10
-397.10680803193503
20
208.21979718250566
42
0.041818984095397596
10
-395.48670555944574
20
207.65843969119493
42
0.13416169127319891
10
-393.83862314767663
20
207.72169998092738
42
0.037863039918205901
10
-392.3364554068724
20
208.37997806521031
42
-0.035966982595294732
10
-391.05746570758419
20
208.963520713599
42
-0.099776984267201954
10
-389.02726570685013
20
209.2042325049847
42
-0.028869450286594982
10
-387.61788237425083
20
208.98838999663928
42
0.10302801091180075
10
-388.92726425155053
20
210.19937154689563
42
0.017778399932907092
10
-390.77945568001928
20
211.17258689957589
42
-0.02493732208800396
10
-391.58663237425083
20
211.63422332997266
42
-0.076806400918606424
10
-389.95450879623399
20
211.29805766223356
42
-0.020152854474602046
10
-388.14742255905185
20
210.48494464428867
42
0.037142451123195974
10
-386.4671549814783
20
209.77880358501056
42
0.079119318133304375
10
-384.31526754245391
20
209.52493251742902
42
0.027528221160898425
10
-381.91452368306648
20
209.80683680190469
42
-0.042596904093297146
10
-379.41932989917376
20
210.0412183873074
42
-0.1225051594140029
10
-377.37761832372325
20
209.60110085045898
42
-0.0021332121662780558
10
-376.16155525973636
20
208.94684637327896
42
0.054258363249094652
10
-375.08515352757144
20
208.49454939730845
42
0.20395179271949637
10
-373.38227559449103
20
208.70492203691524
42
0.044383567580901125
10
-372.34457597928292
20
209.40544630631109
42
-0.023569729362297412
10
-369.72646238409266
20
211.22617149226383
42
-0.05443921073279729
10
-367.66030187024114
20
212.2786014457341
42
-0.061866701242994718
10
-366.18663237425073
20
212.64255164062126
42
-0.041645423226400032
10
-363.4901711903475
20
212.67628068233404
42
0.013727781096403541
10
-360.07447407547465
20
212.47653035222388
42
0.079647065118902072
10
-357.00463287222385
20
212.87926840824181
42
0.051553179097092248
10
-355.60329904091748
20
213.48630666330592
42
0.12273584669340157
10
-359.37124323142962
20
216.6244455397873
42
0.053430840271497915
10
-363.15375221380509
20
217.99596656847868
42
0.011797199675904056
10
-365.39288237425097
20
218.51418532923014
42
-0.01796192680949921
10
-366.71359934967245
20
218.93115708529282
42
0.053989710127599552
10
-368.07293145630189
20
219.27485052615697
42
0.096342087328203083
10
-368.83246570758416
20
219.21294758712389
42
0.094877685634902981
10
-370.0393712933498
20
218.50263625488009
42
0.032393873180897474
10
-371.44586386336726
20
217.05772937242816
42
-0.036014025759896519
10
-372.68903251538131
20
215.79583789620267
42
-0.043388948710697657
10
-373.33038237425069
20
215.33838999663936
42
-0.0064465362065951413
10
-372.23933154151069
20
216.73722908123639
42
0.05138807791489762
10
-371.21371570758413
20
218.248806663306
42
0.094350077531000595
10
-373.6438943737914
20
216.9563151331111
42
0.027775977688901346
10
-375.45851883866953
20
215.30462688752857
42
-0.0050098342099994036
10
-376.24079904091741
20
214.54463999663932
42
-0.13095904368720088
10
-374.18002606645825
20
217.29053879076383
42
-0.03912267711590358
10
-372.26682633829677
20
218.499386793182
42
0.024720303444194534
10
-370.61042094073485
20
219.40076925905771
42
-0.083756945743997432
10
-369.3616323742508
20
219.93843624984373
42
-0.092860470944000795
10
-368.008034462436
20
219.84077628690667
42
0.035092953703405518
10
-366.71579904091755
20
219.57172332997271
42
0.14751753412109708
10
-367.70091099966896
20
220.9300383406179
42
0.14154323820719419
10
-369.13148562039521
20
221.37108097625611
42
0.05953867777480179
10
-370.6526866005558
20
221.16890694563068
42
0.021015895415000964
10
-372.47425422090555
20
220.57077602185458
42
0.029880396469898908
10
-374.63040208175914
20
219.62166396937619
42
-0.02412578065210063
10
-376.64151720138085
20
218.65071245167994
42
-0.041767611240397032
10
-378.09288237425079
20
218.16440451537704
42
-0.10195233514500195
10
-379.00450658158042
20
218.16692835787379
42
0.043996145964496108
10
-380.17242503482817
20
218.32483790538993
42
0.13655399037849505
10
-381.09223188910704
20
218.03656221419118
42
0.0526976908411005
10
-382.14377508363111
20
217.16000018687402
42
-0.11397478723090165
10
-386.55954904091749
20
214.01547332997268
42
-0.048839944860802509
10
-385.02874180706874
20
215.574368835352
42
0.016078264494893118
10
-383.49257835522963
20
216.88574881068209
42
0.09649692311230515
10
-381.7970490409175
20
219.04255666330607
42
0.057952273193101138
10
-387.47897535522736
20
216.20265244330159
42
0.038241413985696422
10
-388.86033485551997
20
215.13032736915738
42
-0.034479608644705263
10
-389.86439263390207
20
214.29865884392882
42
-0.097919486182205251
10
-391.05746570758424
20
213.75088999663927
42
-0.083648691131899072
10
-388.5446479749782
20
216.01705643087271
42
0.0018289137941760332
10
-386.76360865102197
20
217.14858914124466
42
0.030004989546298145
10
-385.2366323742508
20
218.24880666330597
42
0.10896881324399429
10
-387.54172307454184
20
218.36281775884598
42
0.021224314071895903
10
-389.71718037771319
20
217.83737598103335
42
-0.055798547974000488
10
-391.85121570758417
20
217.45505666330598
42
-0.10637434734950019
10
-387.84646820069219
20
218.94393873074819
42
-0.028515641507599377
10
-385.08203525404554
20
219.15266550592619
10
-384.17829904091747
20
219.17352412139519
42
0.045072484372496543
10
-382.97148346759974
20
219.37299548653439
42
-0.063988751231502869
10
-381.7970490409175
20
219.53547715738557
42
-0.064828195624598059
10
-380.2758501315879
20
219.21946152837779
42
0.037350921973601243
10
-379.05987850044193
20
218.9111588686705
42
0.10190693065450229
10
-377.50923104485275
20
219.0373878038034
42
0.041181651251896753
10
-375.55380432716925
20
219.77062165985075
42
-0.0055920294743129813
10
-373.02894334746236
20
221.0125406623672
42
-0.023603014800198933
10
-372.00746570758417
20
221.42380666330598
42
0.15692285488870253
10
-374.0955992872839
20
222.14696374320391
42
0.061088554412000257
10
-375.71163237425083
20
221.95297332997268
42
-0.19803563080570447
10
-373.9065564652517
20
222.78924448397447
42
-0.059376887738801426
10
-372.04336116751085
20
222.61705257771791
42
0.016740129194903818
10
-370.43603555263161
20
222.30721335329815
42
0.022241186661399903
10
-369.34549517522385
20
222.19789928426425
42
-0.055825981632802439
10
-368.3345238581511
20
222.01747406680764
42
-0.11752152901789586
10
-367.08029989366503
20
221.17972638203145
42
-0.0096488429361108012
10
-366.17305944527624
20
220.09663362072845
42
0.08359993830289629
10
-365.19138896120796
20
219.13991954896778
42
0.077215674522207914
10
-364.17348821328716
20
218.68374527782606
42
0.0181807507465972
10
-362.54078013418803
20
218.3441439453475
42
-0.04883915010249968
10
-361.15954904091745
20
217.98025474146147
42
-0.088036339287898002
10
-355.95914478847811
20
214.66446087603117
42
-0.021664550476805225
10
-354.23539965482939
20
212.96084616576766
42
0.073019506411698923
10
-350.78249492090487
20
210.28535009110655
42
0.012669705766609024
10
-349.45638503095029
20
209.58623084155462
42
0.036948566234198593
10
-348.38363999609948
20
209.05623862422939
42
0.14789237664818486
10
-347.4565175645788
20
208.94261598184852
42
0.11683624410230024
10
-346.66647092979542
20
209.44566086502397
42
0.042470905973804249
10
-345.73895635585217
20
210.69131454490716
42
-0.041403001984798744
10
-345.04210062610036
20
211.71744972532409
42
-0.021395801664890111
10
-341.55249435349242
20
215.60560261684071
42
0.011341470808580278
10
-339.53793474355473
20
217.70526195098782
42
0.073956249497206222
10
-338.50542401158015
20
219.23019005894318
42
0.10298179101979958
10
-338.20776556766452
20
220.48861810665358
42
0.13113917973051101
10
-338.62428256350552
20
222.4787775683829
42
0.22776055696320685
10
-339.53616594953348
20
223.21128756892378
42
0.069307172349209134
10
-340.48139161628546
20
223.28799427721606
42
-0.019889321821299738
10
-342.5932417435273
20
223.32209379805488
42
0.067716070463499964
10
-344.80230091417627
20
223.15453854315126
42
0.075256724077807188
10
-345.81371570758421
20
222.74196142748136
42
0.068968793232902018
10
-348.20450409756938
20
220.68954468874065
42
-0.016471851182802161
10
-350.08270403491963
20
218.66332399587222
42
-0.023157665610903034
10
-350.84079904091755
20
217.98422332997265
42
-0.073002939049793436
10
-349.43919656097421
20
220.21448077661927
42
-0.020806770631002773
10
-348.38493311735391
20
221.39629098172128
42
-0.015627578037711722
10
-347.71379698560872
20
221.97277710841163
42
0.085305164287189178
10
-347.02860820763635
20
222.69128546886668
42
0.28383186056010284
10
-346.99697200036667
20
223.63878634286363
42
0.16222838288310443
10
-347.82869840682633
20
224.32267790727482
42
0.15549551341379639
10
-349.05821661353104
20
224.45944049688273
42
0.052315142229903223
10
-350.65544168762938
20
223.9332507784315
42
-0.0053040804319037333
10
-352.30454356738778
20
223.16983920379215
42
-0.013338315056887628
10
-352.69288237425076
20
223.01130666330596
42
-0.087856688147997797
10
-352.07581665458906
20
223.69935116200085
42
-0.094463910433895376
10
-349.67138620681931
20
224.9823918914102
42
-0.073910785491205028
10
-348.56859069815198
20
225.17621021639593
42
-0.11417104125960299
10
-347.48423343286811
20
224.88637460519971
42
-0.0095726990475951262
10
-346.6387865524855
20
224.39274259488661
42
0.14135230091460127
10
-344.89173322064681
20
223.81885199316946
42
0.016496995726701307
10
-343.51495473598231
20
223.81974069953526
42
-0.022553277278291914
10
-342.90329904091749
20
223.80505666330603
42
0.14282856077369996
10
-344.43781972443924
20
225.23678712233811
42
0.0089115941452014014
10
-345.45985460645352
20
225.76803213039801
42
-0.074044598321003949
10
-346.87204904091749
20
226.71547332997267
42
-0.073103534797497913
10
-344.54398762618791
20
225.82061029879225
42
0.01301574240910007
10
-342.42895549740922
20
224.66873106185312
42
0.076125441134399077
10
-340.59542219853591
20
224.07103036829849
42
0.069962731215003585
10
-339.46371570758413
20
224.0696399966393
42
0.079267962401403949
10
-340.093547819121
20
226.57223231151278
42
0.089248399864707534
10
-341.14430303655172
20
228.21014164969716
42
0.098415831820609201
10
-342.397557086787
20
229.09566827536312
42
0.057175860086297686
10
-344.36505281498125
20
229.65037226695125
42
-0.0049600966127888221
10
-346.34288237426324
20
229.95661916330832
42
0.0018988656119664708
10
-350.74989021959829
20
230.78108213534134
42
0.024916599452297777
10
-354.79370368466925
20
231.36794514371783
42
0.017757270703999295
10
-356.66163237425081
20
231.47797332997271
42
-0.088331460276799403
10
-357.51628808624446
20
229.38271117752817
42
-0.20424889988880179
10
-360.36579904091747
20
227.50922332997274
42
-0.015777850046196393
10
-359.07280043487242
20
228.558412378968
42
0.042509786870596929
10
-358.28986974630362
20
229.25474081598057
42
0.13752468581599345
10
-357.5429517089118
20
230.68671102681822
42
0.044742855034990155
10
-357.4553823742508
20
231.47797332997268
42
0.053742799741099488
10
-360.17950519190066
20
230.8878087551835
42
0.0037753247722479102
10
-361.99490576975791
20
230.26904405574354
42
-0.019628278532998783
10
-363.27621570758413
20
229.89047332997268
42
-0.11946848321460003
10
-360.37611817849069
20
231.64251835738756
42
-0.051376084799291698
10
-359.4947547777773
20
231.78438775108197
42
0.069485085471997526
10
-358.35828254688374
20
231.99907159847629
42
0.30664625126851119
10
-357.56138981015033
20
232.99327304976589
42
0.16147032411250153
10
-358.00684837474313
20
234.5844814686981
42
0.18255824643319823
10
-358.87336347337481
20
235.31724701526147
42
0.093107700322397638
10
-360.37650615862339
20
235.47059405560447
42
0.0021070205032240074
10
-363.04843905020527
20
235.40594947756799
42
0.058179414065499084
10
-370.90860194812649
20
234.20324293732767
42
0.021976263790398035
10
-373.3303823742508
20
233.41355851089094
42
0.022188510957498728
10
-374.79577944606729
20
232.69349475461252
42
-0.049836746584705945
10
-376.18150158864404
20
232.11281039377783
42
-0.06776090937509173
10
-376.83152694233064
20
232.00614749549541
42
-0.20887839153591298
10
-377.56371570758415
20
232.2717233299727
42
0.050991755753497736
10
-375.96329709619579
20
232.76491342225393
42
0.0037213391675862987
10
-374.04320707985664
20
233.67785264161509
42
-0.045872248751002993
10
-372.27204904091752
20
234.38838999663929
42
0.18311871821589945
10
-373.30375141993449
20
235.10103465583308
42
0.083873933527500291
10
-374.31348512283506
20
235.17065484727399
42
0.045840816857898668
10
-376.76666043916578
20
234.68111502801267
42
0.016318739374110963
10
-379.61805711339127
20
233.75362238371733
42
-0.0021205685308092531
10
-381.53246570758472
20
233.06547332997252
42
-0.1391667857667995
10
-379.63742782117106
20
234.3806643907082
42
-0.026330401184001408
10
-377.6750062028637
20
234.9300512071099
42
0.013127478791407172
10
-376.76996570758422
20
235.18213999663928
10
-376.76996570758428
20
235.71130666330595
42
-0.063766618921902746
10
-378.25966049648946
20
236.29200127120419
42
-0.056941529001299708
10
-378.88663237425067
20
236.76963999663928
42
-0.017592969880193855
10
-376.53273522206513
20
236.29700517446079
42
0.011962556552999271
10
-374.09420892504437
20
235.73907581609012
42
0.059106499778097614
10
-370.94913237425078
20
235.39078964784875
42
0.040205904386998698
10
-368.14208335285639
20
235.72505231908974
42
0.01404902238810391
10
-364.63516993123415
20
236.59575684369543
42
-0.0043948545242311577
10
-363.01163237425129
20
237.03422332997249
42
0.05695126436250289
10
-364.91560003040286
20
238.03965132320826
42
0.059572810210201346
10
-367.62820203119975
20
238.80856273816167
42
0.065659559774998502
10
-369.33224063995686
20
238.83094753227567
42
0.01204170734429846
10
-371.02863746337698
20
238.53762454398876
42
-0.023309264563292412
10
-372.27204904091752
20
238.35713999663926
10
-372.27204904091752
20
238.8863066633059
42
0.03078576678020091
10
-370.60434078404745
20
239.11199856932348
42
-0.015024079117895084
10
-369.24094251696533
20
239.34772608620102
42
-0.1063428794902009
10
-366.79589044245654
20
239.21050100207864
42
-0.026776314796399144
10
-365.04272618658479
20
238.60209530545114
42
0.031478382864797996
0
LWPOLYLINE
5
103
100
AcDbEntity
8
0
100
AcDbPolyline
90
28
70
1
43
0.0
10
-360.96843669031961
20
122.09382258386378
42
0.41421356237310025
10
-359.96843669031961
20
121.09382258386377
10
-354.56843654693097
20
121.09382258386374
42
-0.41421356686534094
10
-352.96843654693083
20
119.49382255932386
10
-352.96843659601063
20
116.29382286737672
42
-0.4142135578808524
10
-354.56843659601071
20
114.69382289191665
10
-360.5727542836633
20
114.69382289191665
10
-361.96843086200607
20
114.69382289191691
42
-0.41421356237321211
10
-362.36843086200616
20
115.09382289191691
10
-362.36843086200611
20
115.6938228811949
42
-0.41421356237287393
10
-361.96843086200607
20
116.09382288119491
10
-360.29275428366316
20
116.09382288119464
10
-355.3684365854391
20
116.09382288119464
42
0.41421355788086345
10
-354.3684365854391
20
117.09382286585722
10
-354.36843656089911
20
118.69382256764844
42
0.41421356686533184
10
-355.36843656089911
20
119.69382258298589
10
-359.96843667581129
20
119.69382258298589
10
-360.76843669041534
20
119.69382258298589
42
-0.41421356237309176
10
-362.36843669041542
20
121.29382258298591
10
-362.36843669041542
20
124.49382265364285
42
-0.41421356237309503
10
-360.76843669041534
20
126.09382265364287
10
-359.96843667581129
20
126.09382265364287
10
-353.36843667580331
20
126.09382265364289
42
-0.41421356237305601
10
-352.96843667580333
20
125.69382265364295
10
-352.96843667580328
20
125.09382265365053
42
-0.41421356237314705
10
-353.36843667580325
20
124.69382265365047
10
-359.96843669031961
20
124.69382265365049
42
0.41421356237309503
10
-360.96843669031961
20
123.69382265365047
0
LWPOLYLINE
5
104
100
AcDbEntity
8
0
100
AcDbPolyline
90
28
70
1
43
0.0
10
-397.96842198241671
20
114.69382265362997
10
-396.57275428366336
20
114.69382265362995
10
-390.56843664973428
20
114.69382265362995
42
0.41421355759948991
10
-388.96843664973426
20
116.29382262755287
10
-388.96843659758019
20
119.49382255304705
42
0.41421356714670993
10
-390.56843659758022
20
121.09382257912409
10
-395.96843669071256
20
121.09382257912408
42
-0.41421356237310025
10
-396.96843669071256
20
122.09382257912411
10
-396.96843669071256
20
123.69382265362992
42
-0.41421356237310025
10
-395.96843669071256
20
124.69382265362992
10
-389.36843667581127
20
124.69382265362992
42
0.414213562373069
10
-388.96843667581129
20
125.09382265362987
10
-388.9684366758114
20
125.69382265362989
42
0.41421356237309503
10
-389.36843667581138
20
126.09382265362989
10
-395.96843667581135
20
126.09382265362989
10
-396.76843669071252
20
126.09382265362987
42
0.41421356237309503
10
-398.36843669071249
20
124.49382265362991
10
-398.36843669071254
20
121.29382257912411
42
0.41421356237308204
10
-396.76843669071263
20
119.69382257912412
10
-395.96843667581135
20
119.69382257912412
10
-391.36843661061891
20
119.69382257912413
42
-0.41421356714672158
10
-390.3684366106188
20
118.69382256282593
10
-390.36843663669578
20
117.09382263733177
42
-0.41421355759947365
10
-391.36843663669583
20
116.09382265362994
10
-396.29275428366321
20
116.09382265362994
10
-397.96842198241671
20
116.09382265363001
42
0.41421356237308204
10
-398.36842198241675
20
115.69382265362997
10
-398.36842198241669
20
115.09382265362994
42
0.41421356237309503
0
LWPOLYLINE
5
105
100
AcDbEntity
8
0
100
AcDbPolyline
90
16
70
1
43
0.0
10
-376.42889256208446
20
114.6845372245221
42
-0.23595972872049156
10
-376.66881871511799
20
114.80443880395568
10
-385.79971803013535
20
126.96857405566291
42
-0.61817570065208349
10
-385.55979187710182
20
127.44867247622935
10
-384.55948408670247
20
127.44867247622933
42
-0.23595972872044152
10
-384.31955793366888
20
127.32877089679576
10
-375.96917755851791
20
116.2044388039557
42
0.23595972872046661
10
-375.72925140548432
20
116.08453722452211
10
-375.18906916700956
20
116.08453722452209
42
0.23595972872045406
10
-374.94914301397603
20
116.20443880395568
10
-366.59876263882501
20
127.32877089679576
42
-0.23595972872044152
10
-366.35883648579147
20
127.44867247622933
10
-365.35852869539212
20
127.44867247622935
42
-0.61817570065208349
10
-365.11860254235853
20
126.96857405566291
10
-374.24950185737589
20
114.80443880395569
42
-0.23595972872052906
10
-374.48942801040943
20
114.68453722452209
0
LWPOLYLINE
5
106
100
AcDbEntity
8
0
100
AcDbPolyline
90
19
70
1
43
0.0
10
-149.77687418921838
20
187.2528554858437
42
0.18384679287509997
10
-155.12062418921838
20
181.8212148608437
42
0.32302785679489765
10
-154.32996937329258
20
178.13250439658304
42
0.067292598260399655
10
-150.36210025544838
20
175.43287015430445
42
-0.28595392121409702
10
-149.19679606421835
20
173.77043361084372
42
-0.11023911616100038
10
-152.04445231421838
20
172.46965236084372
42
-0.18997167694799966
10
-157.84523356421835
20
172.45207423584372
42
0.41105578245200186
10
-160.81514744706749
20
169.26029927810279
42
0.35571214031749909
10
-158.3022648142184
20
168.1102773608437
42
0.14067089313210024
10
-147.69304086224136
20
170.9737903273323
42
0.17464653692249943
10
-144.99562418921838
20
174.10441798584372
42
0.30923956446550216
10
-145.71570585783334
20
177.49477073286022
42
0.074811412085800541
10
-149.36992031796828
20
179.98000047968543
42
-0.65732240770269679
10
-149.48719956821498
20
183.69983731638052
42
-0.087083033779201027
10
-146.04357772389909
20
185.3943710127711
42
-0.27521022244060539
10
-142.81593668921838
20
185.23137111084372
42
0.11982605099190195
10
-141.47999918921835
20
185.7762929858437
42
0.45602636874580205
10
-140.7072617594076
20
189.1798378905909
42
0.15199334455980462
10
-142.46437418921838
20
189.59074611084375
42
0.11811555277129947
0
LWPOLYLINE
5
107
100
AcDbEntity
8
0
100
AcDbPolyline
90
18
70
1
43
0.0
10
-217.10109293921832
20
174.82512111084375
42
-0.038037661183297572
10
-206.94093668921838
20
176.79387111084372
42
-0.61553160226788806
10
-206.87062418921838
20
176.72355861084372
42
0.059690698089295613
10
-206.89680090304421
20
175.96085068586672
42
0.07796723877560055
10
-205.5346866892184
20
169.4286367358437
42
0.51696695167219775
10
-201.45656168921843
20
168.54973048584372
42
0.43409405458200145
10
-200.42190379424906
20
171.64459096078753
42
-0.1518827900664001
10
-202.44093668921838
20
178.12980861084378
42
-0.029960987086298019
10
-202.7573429392184
20
192.01652736084372
42
0.05693910101120065
10
-202.26515543921838
20
193.12394923584372
42
0.54197051626450354
10
-203.04078550592658
20
194.94189841322012
42
0.31894927250440136
10
-206.32570231421829
20
193.8798086108439
42
0.016980101876795772
10
-214.07765543921613
20
185.42473048584606
42
-0.0026166166576976572
10
-227.51499088385799
20
171.26942775034593
42
0.055666101478512225
10
-227.87648356421838
20
170.7469961108437
42
0.48785479502619533
10
-226.18898356421838
20
168.62004298584372
42
0.18056361376059868
10
-224.19074667317236
20
169.52084635246848
42
0.040123020753299446
10
-218.99953043921838
20
174.98332423584372
42
0.30911028804249913
0
LWPOLYLINE
5
108
100
AcDbEntity
8
0
100
AcDbPolyline
90
3
70
1
43
0.0
10
-207.0464054392184
20
188.48332423584333
42
-0.013093735245597708
10
-207.04640543922352
20
180.36223048584301
42
-0.0030468772880884606
10
-215.25538981421835
20
178.9911367358437
0
LWPOLYLINE
5
109
100
AcDbEntity
8
0
100
AcDbPolyline
90
10
70
1
43
0.0
10
-180.3628116892184
20
196.99113673584372
42
0.62443337077189842
10
-181.5581241892184
20
199.06535548584372
42
0.16907680801780001
10
-182.98205796887112
20
198.54841137273519
42
0.1238230399294989
10
-185.75825949489092
20
195.20615837151823
42
0.044233533489500841
10
-196.23585856421838
20
173.13762111084372
42
0.10402850059359954
10
-197.11476481421838
20
169.0946523608437
42
0.44966532785539515
10
-195.74367106421835
20
167.91691798584367
42
0.29871601014369886
10
-192.42140543921818
20
170.48332423584444
42
-0.011163300979702936
10
-190.6811710642184
20
176.82902736084372
42
-0.063331289301700483
10
-181.32960856421835
20
194.93449611084372
42
0.044536943345794916
0
LWPOLYLINE
5
110
100
AcDbEntity
8
0
100
AcDbPolyline
90
10
70
1
43
0.0
10
-180.4507023142184
20
176.82902736084372
42
-0.063331289301700483
10
-171.09913981421835
20
194.93449611084372
42
0.044536943345795249
10
-170.13234293921838
20
196.99113673584372
42
0.62443337077179162
10
-171.32765543921835
20
199.06535548584372
42
0.16907680801780242
10
-172.75158921887109
20
198.54841137273522
42
0.12382303992950205
10
-175.52779074489106
20
195.20615837151806
42
0.044233533489500952
10
-186.00538981421838
20
173.13762111084372
42
0.10402850059359899
10
-186.8842960642184
20
169.0946523608437
42
0.44966532785549956
10
-185.51320231421838
20
167.91691798584372
42
0.29871601014369897
10
-182.19093668921843
20
170.48332423584344
42
-0.011163300979698604
0
LWPOLYLINE
5
111
100
AcDbEntity
8
0
100
AcDbPolyline
90
5
70
1
43
0.0
10
-163.05389460716555
20
182.25110511492949
42
-0.12808963620580044
10
-170.58937418921835
20
178.4637929858437
42
-0.08459968733979871
10
-166.51124918921838
20
183.24504298584372
42
-0.13376648998939894
10
-162.3452335642184
20
185.49504298584372
42
-0.57120322283801095
10
-161.6596866892184
20
184.1239492358437
42
-0.11862459940639743
0
LWPOLYLINE
5
112
100
AcDbEntity
8
0
100
AcDbPolyline
90
15
70
1
43
0.0
10
-161.33565027254019
20
176.29585415013952
42
0.0056131369531034273
10
-164.89051160658636
20
173.90507740466873
42
-0.13273338997460055
10
-170.30812418921838
20
172.18840236084372
42
-0.25931935702899578
10
-172.04835856421838
20
172.9442617358437
42
-0.53414003914830555
10
-171.50343668921838
20
175.19426173584372
42
0.15654935965270039
10
-159.77258259778526
20
181.55079414092023
42
0.19594359891659963
10
-157.51081512346406
20
186.35234337403483
42
0.45355491594779584
10
-160.69288981421838
20
189.06340236084372
42
0.12399787807650059
10
-165.50865604994911
20
187.67114983391218
42
0.098961657410899309
10
-173.50285846888869
20
180.5799166259834
42
0.13745466052219948
10
-176.76993117464934
20
172.92513974290665
42
0.51374030073539712
10
-172.22413981421838
20
168.4442617358437
42
0.17443479482480029
10
-162.46226623983569
20
172.3562347283324
42
0.13796038474600145
10
-159.86671793921835
20
175.35246486084372
42
0.40663360724120956
10
-160.0957188252377
20
176.4626912252044
42
0.22240733625439643
0
LWPOLYLINE
5
113
100
AcDbEntity
8
0
100
AcDbPolyline
90
29
70
1
43
0.0
10
-130.64890250668586
20
175.37530596618393
42
-0.11194251397170144
10
-128.48087275007708
20
180.17211789087412
42
-0.10499543329430053
10
-118.21095561264909
20
189.59074611084372
42
-0.11328488273779969
10
-111.19728373764907
20
192.22746486084372
42
-0.34983996150889546
10
-109.77172065468707
20
191.37106732259912
42
0.039109011151900019
10
-109.4218931126491
20
189.8368398608437
42
0.37512631694410864
10
-107.39546018960107
20
190.06772354448799
42
0.12592685712569915
10
-104.6582212376491
20
193.28215236084367
42
0.35237878820930446
10
-105.25587748764907
20
195.39152736084372
42
0.11849863773990491
10
-106.84022070304408
20
196.07973901309308
42
0.12614715139800114
10
-113.57672091910405
20
195.42164123833652
42
0.12273874036120032
10
-128.44142436264909
20
185.8641836108437
10
-128.44142436264909
20
185.88176173584372
42
0.047559428888796669
10
-132.14320016775196
20
181.41393332724721
42
0.13668629192909829
10
-135.24940119129926
20
173.70828265676471
42
0.3481260827628036
10
-132.63611161754807
20
169.75490815371759
42
0.14224873054459991
10
-127.01125686300109
20
169.8266089968451
42
0.074306733168401029
10
-118.19337748765975
20
173.75285548582423
42
0.0014852789269546363
10
-121.42775248764906
20
167.72355861084372
42
0.54113218774878835
10
-119.63478373764907
20
165.49113673584372
42
0.31608025073089907
10
-116.69923686264909
20
167.79387111084372
42
-0.066863156898098644
10
-111.93556498764907
20
177.98918361084372
10
-111.95314311264914
20
177.98918361084361
42
-0.012792389416301697
10
-109.4962766675841
20
181.49812774283936
42
0.19548048809540111
10
-108.84632312046504
20
183.2886158207524
42
0.36978527815869361
10
-110.6875181126491
20
184.1063711108437
42
0.33226389386689686
10
-113.57033061264903
20
182.47160548584375
42
-0.19318356473810105
10
-119.28322123764907
20
176.33683986084372
42
-0.11686074472709954
10
-128.58204936264946
20
173.06730861084367
42
-0.56136851985809977
0
LWPOLYLINE
5
114
100
AcDbEntity
8
0
100
AcDbPolyline
90
23
70
1
43
0.0
10
-74.634783737649059
20
174.20988673584372
42
-0.12665824569410133
10
-79.539080612649087
20
172.3290273608437
42
-0.3933213675391028
10
-80.365252487649087
20
172.89152736084367
42
-0.098227090862092872
10
-79.97853373764903
20
174.91301173584378
42
-0.042646607922998403
10
-75.214861862649087
20
183.5790273608437
10
-68.798846237649101
20
184.59855861084372
42
0.073116580477503704
10
-66.864211239509075
20
185.14663059068681
42
0.37810076955410082
10
-65.406268112649073
20
187.6219961108437
42
0.17724840720358503
10
-66.548846237650565
20
187.90324611084367
42
0.0058579288063120728
10
-72.841814987648931
20
187.41105861084392
42
0.0076696991015067426
10
-69.501971237649101
20
192.84269923584367
42
0.57641219215890904
10
-70.925799362649087
20
194.74113673584372
42
0.27661964963300212
10
-73.878924362649173
20
192.59660548584364
42
-0.01755993346049866
10
-77.341814987649087
20
187.02433986084372
10
-81.156268112649087
20
186.88371486084375
42
0.62486001031479732
10
-83.072283737649087
20
183.71965236084367
42
0.20554480652090124
10
-79.626971237648959
20
183.31535548584395
42
0.015458531898300699
10
-83.534793644790071
20
176.29209479748258
42
0.098192619049202512
10
-85.058574078048039
20
171.8823543705501
42
0.53618571640009927
10
-81.648455612649087
20
168.5321523608437
42
0.1384948573495999
10
-75.724627487649087
20
170.4833242358437
42
0.12933772091479914
10
-72.033221237649073
20
173.9989492358437
42
0.59458813393209475
10
-72.824236862649073
20
174.9657461108437
42
0.11954763643620085
0
LWPOLYLINE
5
115
100
AcDbEntity
8
0
100
AcDbPolyline
90
25
70
1
43
0.0
10
-91.407094041378059
20
183.88826508825619
42
-0.10641019055979885
10
-99.89735316516807
20
174.4850824756297
42
-0.13378346029539856
10
-103.25197123764909
20
172.90910548584372
42
-0.41401873280277085
10
-103.76283769713608
20
173.36384940560291
42
-0.11711068017669488
10
-103.42775248764907
20
175.2469961108437
42
-0.043047880281598852
10
-99.332049362649073
20
182.3309804858437
42
0.063368535910803631
10
-97.240252487649045
20
185.88176173584372
42
0.37324371981150256
10
-97.99370181191108
20
187.77876980869951
42
0.35331641184070678
10
-101.47658061264907
20
186.44426173584372
42
-0.037242577091598936
10
-102.71063945495305
20
183.73763555507952
42
0.0026729322525926237
10
-105.92050448492806
20
178.06757034657301
42
0.08153259713989898
10
-107.82062977186706
20
173.21672636564421
42
0.45210128155390111
10
-105.25587748764907
20
169.04191798584372
42
0.091995092764896813
10
-102.57237462056409
20
169.59153308950408
42
0.12059005597629999
10
-94.550799362649073
20
175.7391836108437
42
0.082939221462503335
10
-95.605486862649087
20
170.4657461108437
42
0.44184142667560183
10
-94.128924362649087
20
168.51457423584372
42
0.15442534022139759
10
-91.473723378895073
20
169.55897081843349
42
0.54274420610458396
10
-91.193377487649073
20
171.01066798584372
42
-0.15637311944681057
10
-91.612348702344093
20
171.61703463145278
42
-0.12715450963139185
10
-91.610848954198048
20
173.77738496902654
42
-0.094881708619401095
10
-87.449236862649087
20
183.4911367358437
42
0.040799370334112878
10
-86.746111862649045
20
184.68644923584372
42
0.40673324803710165
10
-87.15841375552607
20
186.6090321201608
42
0.19291631292799993
10
-89.012580376493062
20
186.47066683265589
42
0.14538849753700139
0
LWPOLYLINE
5
116
100
AcDbEntity
8
0
100
AcDbPolyline
90
15
70
1
43
0.0
10
-58.28648747338007
20
187.67114983391224
42
0.09896165741090357
10
-66.280689892320083
20
180.57991662598343
42
0.13745466052219948
10
-69.547762598080041
20
172.92513974290659
42
0.5137403007353929
10
-65.001971237649101
20
168.44426173584367
42
0.17443479482479982
10
-55.240097663267029
20
172.3562347283324
42
0.13796038474609953
10
-52.644549362649059
20
175.35246486084372
42
0.4066336072410916
10
-52.873550248669048
20
176.4626912252044
42
0.2224073362543898
10
-54.113481695970755
20
176.29585415013989
42
0.0056131369530959888
10
-57.668343030017049
20
173.90507740466873
42
-0.1327333899746011
10
-63.085955612649087
20
172.18840236084372
42
-0.25931935702900444
10
-64.826189987649087
20
172.9442617358437
42
-0.53414003914829999
10
-64.281268112649073
20
175.19426173584372
42
0.15654935965270003
10
-52.550414021216099
20
181.55079414092023
42
0.19594359891660748
10
-50.288646546895059
20
186.35234337403483
42
0.45355491594779795
10
-53.470721237649066
20
189.06340236084367
42
0.12399787807650103
0
LWPOLYLINE
5
117
100
AcDbEntity
8
0
100
AcDbPolyline
90
25
70
1
43
0.0
10
-39.289568286080041
20
175.2469961108437
42
-0.043047880281598852
10
-35.193865161080033
20
182.3309804858437
42
0.063368535910795165
10
-33.102068286080033
20
185.8817617358437
42
0.37324371981149895
10
-33.855517610342091
20
187.77876980869948
42
0.35331641184059365
10
-37.338396411080062
20
186.44426173584372
42
-0.037242577091603384
10
-38.572455253383275
20
183.73763555508046
42
0.0026729322525899592
10
-41.782320283359063
20
178.06757034657301
42
0.081532597139894844
10
-43.682445570298043
20
173.21672636564426
42
0.4521012815539055
10
-41.117693286080055
20
169.04191798584372
42
0.091995092764903308
10
-38.434190418995058
20
169.59153308950408
42
0.12059005597629908
10
-30.412615161080051
20
175.7391836108437
42
0.082939221462502891
10
-31.467302661080026
20
170.4657461108437
42
0.44184142667559867
10
-29.990740161080044
20
168.51457423584375
42
0.15442534022141088
10
-27.335539177326055
20
169.55897081843349
42
0.54274420610458507
10
-27.055193286080048
20
171.0106679858437
42
-0.15637311944679261
10
-27.474164500775085
20
171.61703463145278
42
-0.12715450963139141
10
-27.472664752629083
20
173.77738496902657
42
-0.094881708619400873
10
-23.311052661080048
20
183.4911367358437
42
0.040799370334115986
10
-22.607927661080023
20
184.68644923584372
42
0.40673324803721744
10
-23.020229553957062
20
186.6090321201608
42
0.19291631292801259
10
-24.874396174924097
20
186.47066683265595
42
0.14538849753699312
10
-27.268909839809076
20
183.88826508825619
42
-0.10641019055980278
10
-35.759168963599031
20
174.48508247562972
42
-0.13378346029540117
10
-39.113787036080048
20
172.90910548584367
42
-0.41401873280276014
10
-39.624653495567046
20
173.36384940560291
42
-0.11711068017670501
0
LWPOLYLINE
5
118
100
AcDbEntity
8
0
100
AcDbPolyline
90
5
70
1
43
0.0
10
-55.123064987649073
20
185.49504298584367
42
-0.57120322283818359
10
-54.437518112649066
20
184.1239492358437
42
-0.11862459940639034
10
-55.831726030597082
20
182.25110511492949
42
-0.12808963620580055
10
-63.367205612649087
20
178.4637929858437
42
-0.084599687339799501
10
-59.289080612649094
20
183.2450429858437
42
-0.13376648998940086
0
ARC
5
119
100
AcDbEntity
8
0
100
AcDbCircle
10
-5.2006968627556205
20
176.03016835531704
30
0
40
5.9337557830317014
100
AcDbArc
50
270.46201422663904
51
329.45532682699945
0
ARC
5
120
100
AcDbEntity
8
0
100
AcDbCircle
10
-13.638267235672217
20
186.28596682452087
30
0
40
1.1436056631837557
100
AcDbArc
50
-8.1318227570524506
51
27.464828442974156
0
ARC
5
121
100
AcDbEntity
8
0
100
AcDbCircle
10
13.324711133666796
20
172.15453373891253
30
0
40
20.782215706175439
100
AcDbArc
50
164.29989823901383
51
180.77896950864931
0
ARC
5
122
100
AcDbEntity
8
0
100
AcDbCircle
10
-17.68776002203996
20
181.18703572546607
30
0
40
11.521431230125152
100
AcDbArc
50
-17.209420898924339
51
0.44915949795796967
0
ARC
5
123
100
AcDbEntity
8
0
100
AcDbCircle
10
-13.321231756237886
20
183.31287102726202
30
0
40
4.0693921803880952
100
AcDbArc
50
99.776333536403214
51
161.3213184578245
0
ARC
5
124
100
AcDbEntity
8
0
100
AcDbCircle
10
-13.836189252608229
20
185.65636270202549
30
0
40
1.6760752594055297
100
AcDbArc
50
43.655982941835013
51
96.028795269075573
0
ARC
5
125
100
AcDbEntity
8
0
100
AcDbCircle
10
18.293763509174639
20
143.55824509905142
30
0
40
46.128897442893482
100
AcDbArc
50
132.46901014161062
51
143.99300965912593
0
ARC
5
126
100
AcDbEntity
8
0
100
AcDbCircle
10
-235.44398835602846
20
276.21954281068832
30
0
40
236.96588780803876
100
AcDbArc
50
333.79338460747442
51
336.0183602330257
0
ARC
5
127
100
AcDbEntity
8
0
100
AcDbCircle
10
-21.257206899836874
20
171.52336174351859
30
0
40
2.3902003534366245
100
AcDbArc
50
235.76088560958667
51
339.25380482533939
0
ARC
5
128
100
AcDbEntity
8
0
100
AcDbCircle
10
-12.85237075935612
20
183.01902516084732
30
0
40
11.167747826968093
100
AcDbArc
50
-14.879497615349102
51
5.401623237784456
0
ARC
5
129
100
AcDbEntity
8
0
100
AcDbCircle
10
-4.4248425895795762
20
183.88030910615288
30
0
40
2.697327779406212
100
AcDbArc
50
4.039455328294836
51
95.015605089805916
0
ARC
5
130
100
AcDbEntity
8
0
100
AcDbCircle
10
-7.0690200638660272
20
181.38976395874909
30
0
40
0.90931199832435672
100
AcDbArc
50
-7.1010640351774432
51
141.91568811605157
0
ARC
5
131
100
AcDbEntity
8
0
100
AcDbCircle
10
-12.656157247766657
20
232.45301929629036
30
0
40
59.684390400066611
100
AcDbArc
50
279.64470202503099
51
281.65373729345896
0
LINE
5
132
100
AcDbEntity
8
0
100
AcDbLine
10
-7.4731620360800477
20
171.8719961108437
30
0
11
-7.4555839110800504
21
171.8719961108437
31
0
0
ARC
5
133
100
AcDbEntity
8
0
100
AcDbCircle
10
17.704173214970105
20
173.96891386816588
30
0
40
20.707698118987047
100
AcDbArc
50
162.62918857240768
51
178.80740785824045
0
ARC
5
134
100
AcDbEntity
8
0
100
AcDbCircle
10
-21.231552541898857
20
170.73241507161765
30
0
40
1.8117780668553434
100
AcDbArc
50
152.3513393165268
51
220.84893169803718
0
ARC
5
135
100
AcDbEntity
8
0
100
AcDbCircle
10
-100.51983176121479
20
213.03648745985103
30
0
40
88.056020706287427
100
AcDbArc
50
337.89896909753304
51
341.1704993412506
0
ARC
5
136
100
AcDbEntity
8
0
100
AcDbCircle
10
-2.4676652989409931
20
174.16260686484361
30
0
40
0.58195306588034301
100
AcDbArc
50
155.93554399143048
51
251.0390325935706
0
ARC
5
137
100
AcDbEntity
8
0
100
AcDbCircle
10
-3.8993140979045293
20
177.56682575806408
30
0
40
9.0326265430462946
100
AcDbArc
50
94.835120980781667
51
130.9102755113687
0
ARC
5
138
100
AcDbEntity
8
0
100
AcDbCircle
10
15.144360688869263
20
154.44333938790916
30
0
40
38.986365474807442
100
AcDbArc
50
129.80646141373333
51
143.49213241731394
0
ARC
5
139
100
AcDbEntity
8
0
100
AcDbCircle
10
-5.4510771430620153
20
172.11078179713954
30
0
40
2.0361350442816022
100
AcDbArc
50
186.73480291588115
51
278.42226803383909
0
ARC
5
140
100
AcDbEntity
8
0
100
AcDbCircle
10
-39.906092162309328
20
192.9804300003272
30
0
40
28.24471850945698
100
AcDbArc
50
327.09758526610938
51
345.95146756499986
0
ARC
5
141
100
AcDbEntity
8
0
100
AcDbCircle
10
6.5101798045920845
20
160.23487259891317
30
0
40
25.998454601695585
100
AcDbArc
50
123.3558592927496
51
138.13729686362453
0
LWPOLYLINE
5
142
100
AcDbEntity
8
0
100
AcDbPolyline
90
17
70
1
43
0.0
10
-329.63420793627444
20
83.171065092040251
42
0.12638558144350034
10
-327.72676852605542
20
83.227773758121586
42
-0.043727435659800869
10
-329.29512790105548
20
74.967031570621586
42
0.26815057369971373
10
-329.06954196355542
20
73.720937820621543
42
0.34376837744448563
10
-327.0818355514524
20
73.631630368199566
42
0.16862995229660374
10
-326.0371812884473
20
76.023908229718216
42
0.017020950112001491
10
-324.84786227605537
20
83.388906570621543
42
0.047328321084199057
10
-321.32733274074639
20
83.69128927653378
42
0.66565182984986548
10
-321.09456389563547
20
86.050417334647861
42
0.13956423082819874
10
-324.30001071355548
20
86.085195633121515
42
-0.022191038935598609
10
-323.85626049111056
20
87.500269649226453
42
-0.33054734436580241
10
-321.25997165105548
20
89.426015945621572
42
0.25517893472930675
10
-319.44393340076346
20
90.174527889901384
42
0.56578025927781661
10
-320.31116948154141
20
92.184038383727966
42
0.21154286842870074
10
-325.00899508855548
20
90.768789383121572
42
0.1419181718296964
10
-327.20040133855542
20
85.988515945621572
42
0.13478854521569886
10
-329.95086084798243
20
85.351953210898671
42
0.52137708337773314
0
LWPOLYLINE
5
143
100
AcDbEntity
8
0
100
AcDbPolyline
90
17
70
1
43
0.0
10
-377.56268430324673
20
53.033086151533752
42
0.66565182984990479
10
-377.32991545813582
20
55.392214209647847
42
0.13956423082810093
10
-380.53536227605542
20
55.426992508121558
42
-0.022191038935599164
10
-380.09161205361056
20
56.842066524226468
42
-0.3305473443658003
10
-377.49532321355548
20
58.767812820621579
42
0.25517893472919889
10
-375.67928496326294
20
59.516324764901363
42
0.56578025927801845
10
-376.54652104404141
20
61.525835258727987
42
0.2115428684286968
10
-381.24434665105548
20
60.110586258121536
42
0.14191817182970048
10
-383.43575290105542
20
55.330312820621543
42
0.13478854521570302
10
-386.18621241048288
20
54.69375008589865
42
0.52137708337739708
10
-385.86955949877427
20
52.512861967040251
42
0.12638558144340301
10
-383.96212008855542
20
52.569570633121558
42
-0.043727435659800647
10
-385.53047946355548
20
44.30882844562155
42
0.26815057369989603
10
-385.30489352605542
20
43.062734695621536
42
0.3437683774444894
10
-383.3171871139524
20
42.973427243199566
42
0.16862995229660308
10
-382.27253285094781
20
45.365705104718039
42
0.017020950112000714
10
-381.08321383855537
20
52.730703445621572
42
0.047328321084199945
0
LWPOLYLINE
5
144
100
AcDbEntity
8
0
100
AcDbPolyline
90
11
70
1
43
0.0
10
-420.25997165105542
20
47.628164383121565
10
-416.39278415105542
20
49.239492508121579
42
0.087613057440998468
10
-412.97676852605548
20
51.054922195621543
42
0.52561143018629941
10
-413.21309665105548
20
54.932851883121565
42
0.22928473354709966
10
-419.16642110620614
20
54.98683160620886
42
0.26281230178120008
10
-423.21407321355542
20
48.014883133121565
42
0.2400717818208957
10
-421.81758883855548
20
45.017812820621572
42
0.16661819603710448
10
-417.92891696355537
20
43.911367508121558
42
0.19694122868989825
10
-413.06138380282272
20
45.523722984670883
42
0.42422838583229533
10
-412.78664124015233
20
47.452546549601244
42
0.30241474439659777
10
-414.98555758855548
20
47.101797195621565
42
-0.31800647418410039
0
ARC
5
145
100
AcDbEntity
8
0
100
AcDbCircle
10
-421.83082971664805
20
46.401954300573351
30
0
40
12.315522136861347
100
AcDbArc
50
129.00549542266188
51
158.80141019410141
0
LWPOLYLINE
5
146
100
AcDbEntity
8
0
100
AcDbPolyline
90
13
70
1
43
0.0
10
-375.66005038859663
20
43.756598729735771
42
0.47110291037639801
10
-373.44551852605548
20
45.103750320621565
10
-372.60762790105548
20
50.485586258121572
42
-0.22200718625499893
10
-368.75118258855548
20
52.977773758121565
10
-368.84786227605548
20
51.892812820621558
42
0.36940351603979926
10
-368.17381026827894
20
50.532123321452247
42
0.4593328788078952
10
-365.97969821355548
20
52.139883133121558
42
0.090177159427704198
10
-365.78633883855537
20
53.783437820621572
42
0.47587149187240285
10
-367.54805758855548
20
55.727773758121572
42
0.15177087351830085
10
-371.98458102605548
20
54.299062820621565
42
0.12026710985010901
10
-372.15314289260152
20
55.010871479969055
42
0.683378954887501
10
-374.80189888408427
20
54.222249410283816
42
0.015041542982504309
10
-376.28145602605542
20
45.103750320621558
42
0.36777222129580001
0
LWPOLYLINE
5
147
100
AcDbEntity
8
0
100
AcDbPolyline
90
13
70
1
43
0.0
10
-333.06563571355537
20
86.385976883121543
42
0.1517708735183014
10
-337.50215915105542
20
84.957265945621558
42
0.12026710985011486
10
-337.67072101760141
20
85.669074604969083
42
0.68337895488780231
10
-340.31947700908427
20
84.880452535283268
42
0.015041542982503309
10
-341.79903415105542
20
75.761953445621572
42
0.3677722212958045
10
-341.17762851359663
20
74.414801854735757
42
0.47110291037640389
10
-338.96309665105548
20
75.761953445621572
10
-338.12520602605548
20
81.143789383121586
42
-0.22200718625499449
10
-334.26876071355548
20
83.635976883121558
10
-334.36544040105548
20
82.551015945621572
42
0.3694035160401154
10
-333.69138839327945
20
81.190326446452303
42
0.45933287880790141
10
-331.49727633855548
20
82.798086258121572
42
0.090177159427708681
10
-331.30391696355548
20
84.441640945621543
42
0.47587149187229083
0
LWPOLYLINE
5
148
100
AcDbEntity
8
0
100
AcDbPolyline
90
5
70
1
43
0.0
10
-402.27754977605542
20
52.515859695621785
42
-0.0048611449859167887
10
-402.81309535556875
20
50.693367414536169
42
-0.21125713993380346
10
-405.50994271232662
20
46.639384302870681
42
-0.48327375596170025
10
-407.9746520685477
20
47.465263486408169
42
-0.22609072356620014
10
-406.87520602605548
20
51.463125320621579
42
-0.36277207374080361
0
LWPOLYLINE
5
149
100
AcDbEntity
8
0
100
AcDbPolyline
90
13
70
1
43
0.0
10
-403.99629977605548
20
44.964101883121579
42
-0.041304847829098323
10
-404.49669885764672
20
43.341155351999959
42
-0.44587587673260209
10
-409.43184665105548
20
41.13988313312155
42
0.26281900058870228
10
-411.92403415105554
20
40.849844070621529
42
0.53485569778949771
10
-411.69352119898065
20
38.854968857344559
42
0.11814727643340112
10
-408.44356540105542
20
38.346914383121565
42
0.19000714393449994
10
-403.60958102605542
20
39.936758133121572
42
0.17740965787069954
10
-401.18184665105565
20
45.468984695621025
42
-0.013470983910501274
10
-399.28570309650587
20
52.562878784854668
42
0.46842916456778882
10
-400.34395602605542
20
54.40648469562155
42
0.16556081015040033
10
-401.61764356503653
20
55.21486523083027
42
0.36260633545160093
10
-410.47551610644643
20
50.612714796668286
42
0.28831950078129986
10
-409.94747165105542
20
44.964101883121607
42
0.39025905338840455
0
ARC
5
150
100
AcDbEntity
8
0
100
AcDbCircle
10
33926.789290512323
20
-62983.928606994923
30
0
40
71786.545548389098
100
AcDbArc
50
118.59070642626851
51
118.59345774868515
0
ARC
5
151
100
AcDbEntity
8
0
100
AcDbCircle
10
-426.54067489747371
20
58.627592898618801
30
0
40
4.2110985429652823
100
AcDbArc
50
-29.652826251776744
51
7.483043667291871
0
LWPOLYLINE
5
152
100
AcDbEntity
8
0
100
AcDbPolyline
90
3
70
1
43
0.0
10
-414.96407321355548
20
52.623281570621565
42
-0.040437432255099624
10
-420.06661227605542
20
50.35668000812155
42
-0.034483651342002097
10
-419.51073662659894
20
51.316796412947873
42
-0.39485036479859731
0
LWPOLYLINE
5
153
100
AcDbEntity
8
0
100
AcDbPolyline
90
11
70
1
43
0.0
10
-357.67598727605554
20
47.101797195621543
42
-0.31800647418409989
10
-362.95040133855548
20
47.628164383121565
10
-359.08321383855542
20
49.239492508121579
42
0.087613057440997691
10
-355.66719821355548
20
51.054922195621543
42
0.52561143018629941
10
-355.90352633855548
20
54.932851883121565
42
0.22928473354710036
10
-361.85685079370614
20
54.986831606208867
42
0.2628123017812003
10
-365.90450290105542
20
48.014883133121565
42
0.2400717818208998
10
-364.50801852605542
20
45.01781282062155
42
0.16661819603710232
10
-360.61934665105537
20
43.911367508121558
42
0.19694122868989916
10
-355.75181349032266
20
45.523722984670876
42
0.42422838583229727
10
-355.47707092765233
20
47.452546549601266
42
0.30241474439661098
0
LWPOLYLINE
5
154
100
AcDbEntity
8
0
100
AcDbPolyline
90
5
70
1
43
0.0
10
-395.05879977605554
20
51.312734695621543
42
-0.39559020974290549
10
-391.7322156816345
20
52.36336053295156
42
-0.26157440667000131
10
-391.41446959450445
20
49.218653690968168
42
-0.34615491172900276
10
-394.28536227605548
20
46.596914383121515
42
-0.46841287972880358
10
-396.01485446355548
20
48.605703445621558
42
-0.18486547225409528
0
ARC
5
155
100
AcDbEntity
8
0
100
AcDbCircle
10
-432.17324978627715
20
54.595237534328575
30
0
40
10.476575737704792
100
AcDbArc
50
272.17526424821335
51
313.23199704755041
0
ARC
5
156
100
AcDbEntity
8
0
100
AcDbCircle
10
-427.49328101175695
20
48.643451084921793
30
0
40
9.1318167920348472
100
AcDbArc
50
144.8121802012856
51
178.14712546513601
0
LWPOLYLINE
5
157
100
AcDbEntity
8
0
100
AcDbPolyline
90
6
70
1
43
0.0
10
-399.02266696355548
20
48.176015945621558
42
0.15412451274950112
10
-397.83028415105542
20
45.007070633121543
42
0.34377743589629833
10
-392.15847410155027
20
44.356011754255348
42
0.26944119542960093
10
-388.29122165105537
20
51.162344070621572
42
0.29175541946039824
10
-390.54095110742401
20
55.244293007884451
42
0.19623350978070009
10
-394.84185396944997
20
54.943130580063183
42
0.27510798751679999
0
LWPOLYLINE
5
158
100
AcDbEntity
8
0
100
AcDbPolyline
90
16
70
1
43
0.0
10
-342.33255613229051
20
53.549798131029476
42
0.30262172190140285
10
-342.50801852605542
20
55.469961258121529
42
0.55272172080130511
10
-345.15059665105554
20
54.417226883121586
42
0.034524750281200549
10
-346.48262790105548
20
47.015859695621558
42
-0.057428333592998045
10
-349.13594821355548
20
46.682851883121558
42
-0.13806004477139797
10
-350.11348727605548
20
46.929922195621558
42
-0.10725402004480195
10
-349.15977155393489
20
53.82206709899296
42
0.30830548794410612
10
-349.36153415105542
20
55.523672195621565
42
0.52728486218720061
10
-351.909860582806
20
54.683535594342565
42
0.11034329165950105
10
-353.05252171260798
20
46.269127881477871
42
0.28249198154590127
10
-351.76778415105554
20
44.319570633121572
42
0.22297694676639973
10
-346.67598727605542
20
44.351797195621565
42
0.16372513404300504
10
-346.22376216282669
20
43.73332667824566
42
0.50980076110849115
10
-343.77559665105537
20
44.921133133121778
42
-0.009296233537899698
10
-342.95919040105548
20
50.603750320621558
10
-342.95919040105537
20
50.582265945621685
42
0.0078157762419962876
0
LWPOLYLINE
5
159
100
AcDbEntity
8
0
100
AcDbPolyline
90
17
70
1
43
0.0
10
-342.04610446355548
20
45.017812820621558
42
0.44074754347700146
10
-340.76778415105542
20
43.868398758121586
42
0.48471920365170623
10
-338.98458102605548
20
46.177969070621572
42
-0.19065208184259944
10
-336.53536227605542
20
51.849844070621529
42
-0.19650615313321027
10
-334.36544040105537
20
53.063711258121543
42
-0.31591287015334873
10
-334.06190386172142
20
52.877381119737372
42
-0.17655148717210212
10
-334.15059665105548
20
51.677969070621558
42
0.073515852882000188
10
-334.84883883855548
20
44.856680008121572
42
0.37493859157630638
10
-334.07241523074549
20
43.681476246949401
42
0.44489758049160294
10
-331.87325290105542
20
45.103750320621501
42
-0.033234081842000128
10
-331.21797946355548
20
52.784414383121565
42
0.28325431563330328
10
-332.7567022605665
20
55.71102667637588
42
0.29794191384439844
10
-337.46993258855548
20
54.320547195621565
10
-337.46993258855548
20
54.449453445621565
42
0.3345233370944144
10
-338.10195046017793
20
56.019478831373213
42
0.44280299589850358
10
-340.43477633855548
20
54.782461258121529
42
-0.0306597960249031
10
-340.89460513119536
20
51.577561510841754
42
0.035345444299400203
0
LWPOLYLINE
5
160
100
AcDbEntity
8
0
100
AcDbPolyline
90
5
70
1
43
0.0
10
-322.30196383855548
20
47.875234695621536
42
-0.18313056242449594
10
-325.09493258855542
20
46.661367508121579
42
-0.58162231275221143
10
-327.29781391251845
20
50.477602672631143
42
-0.34678491561540004
10
-323.73067477605548
20
53.149648758121593
42
-0.34750386347219137
10
-321.67891696355548
20
51.806875320621558
42
0.019525183828898549
0
LWPOLYLINE
5
161
100
AcDbEntity
8
0
100
AcDbPolyline
90
12
70
1
43
0.0
10
-319.61641696355588
20
45.093008133117578
42
0.0022928146743666044
10
-319.18672946355565
20
49.325430008120783
42
-0.010359094063904117
10
-317.05414467388943
20
59.727641678547357
42
0.18104622029301279
10
-317.13530735208445
20
61.038852449722157
42
0.62331568299849949
10
-319.77754977605548
20
60.336172195621387
42
0.013745073729604618
10
-320.93770602605548
20
55.201406570621558
42
0.1128808253619074
10
-322.08909325059346
20
55.743745198049368
42
0.1548351285662001
10
-326.16556732355241
20
55.304222699393073
42
0.28136564764930111
10
-330.34786227605542
20
48.401601883121558
42
0.32531219079779744
10
-327.43829636455939
20
44.200306924823039
42
0.20965832236849788
10
-322.25899508855548
20
44.792226883121565
42
0.15854556032688305
10
-321.84214522810453
20
44.240394423513976
42
0.45022168657550565
0
LWPOLYLINE
5
162
100
AcDbEntity
8
0
100
AcDbPolyline
90
11
70
1
43
0.0
10
-307.29835999015245
20
47.452546549601273
42
0.30241474439660265
10
-309.49727633855548
20
47.101797195621572
42
-0.31800647418410322
10
-314.77169040105542
20
47.628164383121565
10
-310.90450290105548
20
49.239492508121565
42
0.087613057440999259
10
-307.48848727605548
20
51.054922195621543
42
0.52561143018629408
10
-307.72481540105542
20
54.932851883121543
42
0.22928473354709988
10
-313.67813985620649
20
54.986831606208852
42
0.26281230178119908
10
-317.72579196355542
20
48.014883133121565
42
0.2400717818208998
10
-316.32930758855542
20
45.017812820621572
42
0.16661819603709468
10
-312.44063571355548
20
43.911367508121572
42
0.19694122868990299
10
-307.57310255282249
20
45.523722984670847
42
0.42422838583231282
0
LWPOLYLINE
5
163
100
AcDbEntity
8
0
100
AcDbPolyline
90
3
70
1
43
0.0
10
-362.20116631409894
20
51.316796412947866
42
-0.39485036479860064
10
-357.65450290105542
20
52.6232815706216
42
-0.040437432255101734
10
-362.75704196355542
20
50.35668000812155
42
-0.034483651342001098
0
LWPOLYLINE
5
164
100
AcDbEntity
8
0
100
AcDbPolyline
90
3
70
1
43
0.0
10
-314.02245537659843
20
51.316796412947873
42
-0.39485036479859653
10
-309.47579196355542
20
52.623281570621586
42
-0.040437432255101512
10
-314.57833102605542
20
50.356680008121543
42
-0.034483651342009543
0
LWPOLYLINE
5
165
100
AcDbEntity
8
0
100
AcDbPolyline
90
15
70
1
43
0.0
10
-431.19551852605548
20
91.155508133121543
42
0.59012929504010214
10
-433.87032321352314
20
90.038320633299008
42
0.00099119353077025112
10
-436.43770602605548
20
75.418203445621558
42
1.0139452907109925
10
-433.42989352605548
20
75.300039383121558
10
-432.67794040105537
20
79.801015945621401
42
0.0084311684717998207
10
-431.13701036479642
20
78.03951528513582
42
0.10499834861659949
10
-427.23914053164941
20
74.833812215857151
42
0.74792126176970064
10
-424.69592945334773
20
77.042094923462926
42
-0.023802618076698187
10
-427.11348727605537
20
78.608633133121529
42
-0.018060583375897679
10
-430.61544040105554
20
82.357656570621458
42
0.02393706714180098
10
-424.72092953789593
20
87.635261921834825
42
0.13899246932960166
10
-422.87032321355548
20
90.092031570621572
42
0.72692334545670811
10
-425.39473727605667
20
90.779531570620335
42
-0.0087233380996921735
10
-431.90450290105616
20
84.817617508118417
42
0.0027639553030869781
10
-430.91879968227266
20
89.577763660700853
42
0.26446080492910617
0
LWPOLYLINE
5
166
100
AcDbEntity
8
0
100
AcDbPolyline
90
9
70
1
43
0.0
10
-423.69747165105542
20
78.533437820621558
42
0.37290569931349815
10
-420.96568514866078
20
74.649210130617391
42
0.20588511817440108
10
-416.10274508855548
20
75.428945633121572
42
0.13327648461229899
10
-414.71700290105554
20
74.343984695621529
42
0.36021619511540365
10
-413.04122165105548
20
75.697500320621558
42
0.018559461980795691
10
-413.67501071355542
20
78.447500320621572
42
-0.070369699882300699
10
-412.80489352605548
20
83.388906570621572
42
0.46261395650929826
10
-412.92269789920101
20
85.121832787537457
42
0.1499758435042011
10
-416.10274508855548
20
86.2678128206216
42
0.41111567868330029
0
LWPOLYLINE
5
167
100
AcDbEntity
8
0
100
AcDbPolyline
90
4
70
1
43
0.0
10
-419.84102633855542
20
88.760000320621572
42
0.24390082835160046
10
-419.2290624627633
20
87.752589884082028
42
0.24636409909390061
10
-416.74727633855548
20
87.965078445621558
42
0.62485766115851238
10
-416.51909192342833
20
90.272254684142737
42
0.45304194394679959
0
LWPOLYLINE
5
168
100
AcDbEntity
8
0
100
AcDbPolyline
90
11
70
1
43
0.0
10
-384.06954196355542
20
74.569570633121572
42
0.19694122868989825
10
-379.20200880282266
20
76.18192610967084
42
0.4242283858323953
10
-378.92726624015233
20
78.110749674601237
42
0.3024147443965996
10
-381.12618258855548
20
77.760000320621558
42
-0.3180064741841015
10
-386.40059665105548
20
78.286367508121572
10
-382.53340915105548
20
79.897695633121572
42
0.08761305744099937
10
-379.11739352605548
20
81.713125320621543
42
0.52561143018620438
10
-379.35372165105548
20
85.591055008121586
42
0.22928473354709836
10
-385.30704610620614
20
85.645034731208867
42
0.26281230178119991
10
-389.35469821355548
20
78.673086258121572
42
0.24007178182089958
10
-387.95821383855548
20
75.6760159456216
42
0.16661819603710096
0
LWPOLYLINE
5
169
100
AcDbEntity
8
0
100
AcDbPolyline
90
18
70
1
43
0.0
10
-397.17501071355548
20
78.221914383121572
42
0.26697785627729764
10
-395.5093381352051
20
74.826230787876852
42
0.30464661359950407
10
-390.81925122945273
20
76.077252051731392
42
0.61113817620109012
10
-391.69649508855548
20
78.479726883121543
42
0.1887421815050972
10
-393.19344121424172
20
77.522425706879275
42
-0.45250028153511901
10
-394.10079733264638
20
77.537534739959966
42
-0.13200122993350163
10
-394.28536227605554
20
78.597890945621572
42
-0.064788144463000089
10
-393.25411227605542
20
83.496328445621572
42
-0.0084739677277037538
10
-391.11641696355548
20
83.517812820621572
42
0.60986890708920016
10
-389.7669591175561
20
85.906928185493655
42
0.2551112049724038
10
-392.66329196355548
20
86.3644925081217
42
0.0042692983554937329
10
-392.53151572830166
20
87.194439834610066
42
0.25281076800130042
10
-393.10059380190512
20
89.673043576349741
42
0.50740729871119317
10
-395.28438571355542
20
88.448476883121572
10
-395.54219821355548
20
86.300039383121572
10
-397.21797946355542
20
86.450430008121529
42
0.69793507954020073
10
-398.35665133855542
20
83.840078445621558
42
0.13764431789600207
10
-396.11153415105548
20
83.410390945621614
42
0.073628293219201946
0
LWPOLYLINE
5
170
100
AcDbEntity
8
0
100
AcDbPolyline
90
16
70
1
43
0.0
10
-400.06465915105542
20
86.1281643831216
42
0.55272172080120241
10
-402.70723727605548
20
85.075430008121614
42
0.034524750281198884
10
-404.03926852605548
20
77.674062820621558
42
-0.057428333592999266
10
-406.69258883855548
20
77.341055008121572
42
-0.13806004477139489
10
-407.67012790105548
20
77.588125320621543
42
-0.10725402004480003
10
-406.71641217893495
20
84.48027022399296
42
0.30830548794410118
10
-406.91817477605548
20
86.181875320621572
42
0.52728486218720116
10
-409.46650120780589
20
85.341738719342544
42
0.11034329165949981
10
-410.60916233760798
20
76.927331006477871
42
0.28249198154590055
10
-409.32442477605548
20
74.977773758121572
42
0.22297694676639834
10
-404.23262790105554
20
75.010000320621586
42
0.16372513404299216
10
-403.78040278782669
20
74.391529803245675
42
0.50980076110850703
10
-401.33223727605548
20
75.579336258121955
42
-0.0092962335378967004
10
-400.51583102605548
20
81.261953445621572
10
-400.51583102605554
20
81.240469070621245
42
0.0078157762419909585
10
-399.88919675729051
20
84.20800125602949
42
0.302621721901496
0
LWPOLYLINE
5
171
100
AcDbEntity
8
0
100
AcDbPolyline
90
5
70
1
43
0.0
10
-417.95913081353933
20
83.325159388528647
42
-0.28181195078670213
10
-415.72676852605548
20
83.496328445621586
42
0.090197805269998821
10
-416.47872165105548
20
77.888906570621558
42
-0.16670190338730187
10
-419.00313571355548
20
77.008047195621543
42
-0.39655220509089439
10
-420.59585287604017
20
78.199465888747866
42
-0.3379520987558976
0
LWPOLYLINE
5
172
100
AcDbEntity
8
0
100
AcDbPolyline
90
5
70
1
43
0.0
10
-414.57735446355542
20
87.911367508121543
42
0.29808981740830304
10
-411.67696383855548
20
88.029531570621572
42
0.3861288035744922
10
-411.1592841525586
20
89.67271713640281
42
0.34138025650790393
10
-413.6065334522994
20
90.341381413908778
42
0.35552403592750481
10
-415.08223727605554
20
88.749258133121586
42
0.2134055893418163
0
LWPOLYLINE
5
173
100
AcDbEntity
8
0
100
AcDbPolyline
90
12
70
1
43
0.0
10
-352.8900821738892
20
90.385844803547371
42
0.18104622029299869
10
-352.971244852084
20
91.697055574722143
42
0.62331568299830586
10
-355.61348727605548
20
90.994375320621671
42
0.013745073729592959
10
-356.77364352605542
20
85.859609695621586
42
0.11288082536190684
10
-357.92503075059352
20
86.401948323049368
42
0.15483512856619977
10
-362.00150482355218
20
85.962425824393023
42
0.281365647649298
10
-366.18379977605548
20
79.059805008121572
42
0.32531219079779733
10
-363.2742338645599
20
74.858510049823053
42
0.20965832236850124
10
-358.09493258855548
20
75.450430008121586
42
0.15854556032691036
10
-357.67808272810441
20
74.898597548513933
42
0.45022168657539025
10
-355.45235446355593
20
75.75121125811657
42
0.0022928146743757083
10
-355.02266696355571
20
79.983633133120819
42
-0.010359094063899454
0
LWPOLYLINE
5
174
100
AcDbEntity
8
0
100
AcDbPolyline
90
13
70
1
43
0.0
10
-373.18770602605548
20
81.143789383121558
42
-0.22200718625499974
10
-369.33126071355548
20
83.635976883121558
10
-369.42794040105548
20
82.551015945621558
42
0.36940351603999899
10
-368.753888393279
20
81.190326446452275
42
0.45933287880790535
10
-366.55977633855548
20
82.798086258121543
42
0.090177159427698494
10
-366.36641696355548
20
84.441640945621543
42
0.4758714918725046
10
-368.12813571355542
20
86.385976883121586
42
0.15177087351830085
10
-372.56465915105542
20
84.957265945621572
42
0.12026710985010361
10
-372.73322101760141
20
85.669074604969055
42
0.68337895488759892
10
-375.38197700908432
20
84.880452535283538
42
0.015041542982505641
10
-376.86153415105542
20
75.761953445621543
42
0.36777222129590181
10
-376.24012851359669
20
74.414801854735771
42
0.47110291037630425
10
-374.02559665105542
20
75.761953445621572
0
LWPOLYLINE
5
175
100
AcDbEntity
8
0
100
AcDbPolyline
90
5
70
1
43
0.0
10
-359.56661227605542
20
83.8078518831216
42
-0.34750386347218998
10
-357.51485446355554
20
82.465078445621728
42
0.019525183828899326
10
-358.13790133855548
20
78.533437820621558
42
-0.18313056242440046
10
-360.93087008855548
20
77.319570633121543
42
-0.58162231275219523
10
-363.13375141251862
20
81.135805797631178
42
-0.34678491561539948
0
LWPOLYLINE
5
176
100
AcDbEntity
8
0
100
AcDbPolyline
90
6
70
1
43
0.0
10
-349.17681490695003
20
85.601333705063141
42
0.27510798751669979
10
-353.35762790105542
20
78.834219070621572
42
0.15412451274949723
10
-352.16524508855548
20
75.665273758121529
42
0.34377743589629539
10
-346.49343503905027
20
75.014214879255363
42
0.26944119542960066
10
-342.62618258855548
20
81.820547195621572
42
0.29175541946040257
10
-344.87591204492412
20
85.902496132884465
42
0.19623350978069917
0
LWPOLYLINE
5
177
100
AcDbEntity
8
0
100
AcDbPolyline
90
3
70
1
43
0.0
10
-385.65136162659888
20
81.97499953794788
42
-0.39485036479860181
10
-381.10469821355542
20
83.281484695621586
42
-0.040437432255098285
10
-386.20723727605542
20
81.014883133121572
42
-0.034483651341993757
0
LWPOLYLINE
5
178
100
AcDbEntity
8
0
100
AcDbPolyline
90
5
70
1
43
0.0
10
-345.74943053200451
20
79.876856815968168
42
-0.3461549117290042
10
-348.62032321355548
20
77.255117508121529
42
-0.46841287972879103
10
-350.34981540105542
20
79.263906570621586
42
-0.18486547225409802
10
-349.39376071355537
20
81.970937820621543
42
-0.39559020974290021
10
-346.0671766191345
20
83.021563657951532
42
-0.26157440666990545
0
ARC
5
179
100
AcDbEntity
8
0
100
AcDbCircle
10
-430.50542921019542
20
49.610166365718356
30
0
40
3.071269186327461
100
AcDbArc
50
156.08363701099941
51
217.36298125706958
0
ARC
5
180
100
AcDbEntity
8
0
100
AcDbCircle
10
-425.92512737535719
20
47.894031360342282
30
0
40
1.3150333573015613
100
AcDbArc
50
-45.124206669518188
51
121.99360798964946
0
ARC
5
181
100
AcDbEntity
8
0
100
AcDbCircle
10
-426.04960444471266
20
53.981536998784982
30
0
40
6.4545555377533663
100
AcDbArc
50
78.386136702406162
51
118.90949364209418
0
ARC
5
182
100
AcDbEntity
8
0
100
AcDbCircle
10
-431.00065572978002
20
50.084982078963371
30
0
40
3.042300384068362
100
AcDbArc
50
230.23839221056974
51
296.385249824391
0
ARC
5
183
100
AcDbEntity
8
0
100
AcDbCircle
10
-431.92236979707229
20
48.823289720153156
30
0
40
4.699371068012475
100
AcDbArc
50
178.59261335837732
51
271.78978197089208
0
ARC
5
184
100
AcDbEntity
8
0
100
AcDbCircle
10
-420.22107202397467
20
44.80155634203453
30
0
40
17.320985638576541
100
AcDbArc
50
121.10763113467758
51
148.29029643437934
0
ARC
5
185
100
AcDbEntity
8
0
100
AcDbCircle
10
-426.17415466822729
20
56.876764849875144
30
0
40
0.62983024877106941
100
AcDbArc
50
-2.8944098064780626
51
99.400075087041827
0
ARC
5
186
100
AcDbEntity
8
0
100
AcDbCircle
10
-426.26453913187152
20
53.128777743078885
30
0
40
4.3693777963231852
100
AcDbArc
50
90.163703047120734
51
139.40150211763788
0
ARC
5
187
100
AcDbEntity
8
0
100
AcDbCircle
10
-423.71192809890493
20
59.414159031775533
30
0
40
1.3673848214540387
100
AcDbArc
50
-10.029751170885955
51
139.40398356713817
0
ARC
5
188
100
AcDbEntity
8
0
100
AcDbCircle
10
-424.15909545110225
20
57.172866975564375
30
0
40
1.4242921441386371
100
AcDbArc
50
193.31023853967358
51
333.80656126165496
0
LWPOLYLINE
5
189
100
AcDbEntity
8
0
100
AcDbPolyline
90
12
70
1
43
0.0
10
-435.03118840978561
20
29.425832878170482
42
0.22503091248659304
10
-436.3095087222855
20
28.867239128170485
42
0.6553088529204899
10
-435.65423528478556
20
26.493215690670485
42
0.06540117180340084
10
-431.40032903478573
20
26.364309440668521
42
-0.00625767198101223
10
-432.6141962222855
20
15.192434440670489
42
0.56793084999489674
10
-431.4218134097855
20
13.301809440670475
42
0.35546378082450319
10
-429.56103501857433
20
15.265836666084759
42
0.014242702053497
10
-428.3173212222851
20
26.546926628170478
42
-0.0046510621749954288
10
-423.1073602847855
20
26.503957878170507
42
0.20456280179979439
10
-421.9364618472855
20
27.041067253170461
42
0.57652170971390215
10
-422.20501653478505
20
29.361379753170496
42
0.010045161253704376
10
-426.67376653478533
20
29.468801628170493
42
-0.029249456250500624
0
LWPOLYLINE
5
190
100
AcDbEntity
8
0
100
AcDbPolyline
90
19
70
1
43
0.0
10
-411.69915715978556
20
14.300832878170489
42
-0.058257154003898637
10
-411.31243840978556
20
21.347707878170453
42
0.022560427047301851
10
-411.2802118472855
20
22.013723503170482
42
0.36777716210740041
10
-413.02864758021872
20
24.639419423780609
42
0.25154787333320139
10
-417.9940790347855
20
23.216848503170475
42
0.018441365223301833
10
-417.0487665347855
20
28.920950065670485
42
0.28895387088060254
10
-417.75035783014948
20
30.478772457900103
42
0.51955385679020394
10
-420.10173279446349
20
28.918219334473577
42
-0.054456655711799327
10
-420.5936884097855
20
25.182668815670652
42
-0.0099278832171027231
10
-422.3124384097855
20
15.106496940670503
42
0.37389488622329764
10
-422.17278997228556
20
13.484426628170478
42
0.56433548796230215
10
-419.53477118620856
20
14.433356078868689
42
0.056289709790998968
10
-418.61712590978556
20
18.694387565670468
42
-0.035486374207503016
10
-417.41116017927703
20
20.259212974330097
42
-0.21334385792319982
10
-414.6102899722855
20
21.884817253170471
42
-0.3016829954060033
10
-414.23049416545297
20
21.6692195256948
42
-0.16517895037030142
10
-414.32025090978556
20
20.004934440670496
42
0.083804931067499047
10
-414.68533484905572
20
13.830657331889086
42
0.28833055589240342
10
-414.04929393057773
20
12.838633997868667
42
0.48665634244650113
0
LWPOLYLINE
5
191
100
AcDbEntity
8
0
100
AcDbPolyline
90
11
70
1
43
0.0
10
-402.0419305972855
20
16.094778190670468
42
-0.31800647418409878
10
-407.3163446597855
20
16.621145378170489
10
-403.44915715978561
20
18.232473503170489
42
0.087613057441000591
10
-400.03314153478556
20
20.047903190670475
42
0.52561143018629941
10
-400.2694696597855
20
23.925832878170482
42
0.22928473354710058
10
-406.22279411493622
20
23.979812601257784
42
0.2628123017812003
10
-410.2704462222855
20
17.007864128170485
42
0.24007178182089933
10
-408.8739618472855
20
14.010793815670509
42
0.16661819603710176
10
-404.9852899722855
20
12.904348503170473
42
0.19694122868989894
10
-400.11775681155268
20
14.516703979719805
42
0.42422838583228611
10
-399.84301424888235
20
16.445527544650172
42
0.30241474439660526
0
LWPOLYLINE
5
192
100
AcDbEntity
8
0
100
AcDbPolyline
90
11
70
1
43
0.0
10
-371.33216911493616
20
23.979812601257784
42
0.2628123017812003
10
-375.3798212222855
20
17.007864128170489
42
0.24007178182089547
10
-373.98333684728556
20
14.01079381567051
42
0.16661819603710232
10
-370.0946649722855
20
12.904348503170482
42
0.19694122868990124
10
-365.22713181155268
20
14.516703979719798
42
0.42422838583229699
10
-364.95238924888247
20
16.445527544650172
42
0.30241474439660815
10
-367.15130559728556
20
16.094778190670461
42
-0.31800647418409961
10
-372.42571965978556
20
16.621145378170489
10
-368.55853215978556
20
18.232473503170475
42
0.087613057440998579
10
-365.1425165347855
20
20.047903190670478
42
0.52561143018629919
10
-365.3788446597855
20
23.925832878170482
42
0.22928473354710047
0
LWPOLYLINE
5
193
100
AcDbEntity
8
0
100
AcDbPolyline
90
18
70
1
43
0.0
10
-379.21856422297174
20
15.857203576928203
42
-0.45250028153471483
10
-380.1259203413764
20
15.872312610008885
42
-0.1320012299334995
10
-380.3104852847855
20
16.932668815670475
42
-0.064788144463000644
10
-379.27923528478573
20
21.831106315670471
42
-0.0084739677277069735
10
-377.1415399722855
20
21.852590690670514
42
0.60986890708920549
10
-375.79208212628623
20
24.2417060555426
42
0.25511120497240136
10
-378.68841497228544
20
24.69927037817083
42
0.0042692983554856274
10
-378.55663873703173
20
25.529217704658986
42
0.25281076800129948
10
-379.12571681063514
20
28.007821446398733
42
0.50740729871119561
10
-381.3095087222855
20
26.783254753170489
10
-381.56732122228556
20
24.634817253170485
10
-383.2431024722855
20
24.785207878170475
42
0.69793507954029077
10
-384.38177434728544
20
22.174856315670443
42
0.13764431789600015
10
-382.1366571597855
20
21.74516881567051
42
0.073628293219202057
10
-383.20013372228561
20
16.556692253170485
42
0.26697785627729792
10
-381.53446114393518
20
13.161008657925796
42
0.30464661359950734
10
-376.84437423818275
20
14.412029921780316
42
0.6111381762010899
10
-377.72161809728561
20
16.814504753170514
42
0.18874218150509514
0
LWPOLYLINE
5
194
100
AcDbEntity
8
0
100
AcDbPolyline
90
9
70
1
43
0.0
10
-387.62591497228556
20
14.032278190670478
42
0.01855946198079747
10
-388.2597040347855
20
16.782278190670482
42
-0.070369699882301143
10
-387.3895868472855
20
21.723684440670482
42
0.46261395650931608
10
-387.50739122043109
20
23.45661065758641
42
0.1499758435041986
10
-390.68743840978556
20
24.602590690670517
42
0.41111567868329751
10
-398.2821649722855
20
16.868215690670489
42
0.3729056993134986
10
-395.55037846989086
20
12.983988000666315
42
0.20588511817440014
10
-390.68743840978556
20
13.763723503170493
42
0.13327648461230499
10
-389.3016962222855
20
12.678762565670457
42
0.36021619511539338
0
LWPOLYLINE
5
195
100
AcDbEntity
8
0
100
AcDbPolyline
90
5
70
1
43
0.0
10
-393.58782903478556
20
15.342825065670471
42
-0.39655220509089573
10
-395.18054619727025
20
16.534243758796787
42
-0.33795209875590071
10
-392.54382413476935
20
21.659937258577578
42
-0.28181195078670068
10
-390.3114618472855
20
21.831106315670485
42
0.090197805270001957
10
-391.0634149722855
20
16.2236844406705
42
-0.16670190338730254
0
LWPOLYLINE
5
196
100
AcDbEntity
8
0
100
AcDbPolyline
90
3
70
1
43
0.0
10
-402.0204462222855
20
21.616262565670464
42
-0.040437432255099846
10
-407.1229852847855
20
19.34966100317051
42
-0.034483651341997761
10
-406.56710963532902
20
20.309777407996791
42
-0.39485036479860158
0
LWPOLYLINE
5
197
100
AcDbEntity
8
0
100
AcDbPolyline
90
3
70
1
43
0.0
10
-367.12982122228544
20
21.616262565670464
42
-0.040437432255099846
10
-372.23236028478544
20
19.349661003170485
42
-0.034483651342001098
10
-371.67648463532896
20
20.309777407996794
42
-0.39485036479860108
0
LWPOLYLINE
5
198
100
AcDbEntity
8
0
100
AcDbPolyline
90
13
70
1
43
0.0
10
-333.0985712222855
20
21.970754753170489
10
-333.19525090978561
20
20.885793815670496
42
0.36940351603991306
10
-332.52119890200953
20
19.525104316501217
42
0.45933287880790008
10
-330.32708684728556
20
21.132864128170475
42
0.090177159427698605
10
-330.13372747228544
20
22.776418815670496
42
0.47587149187240269
10
-331.8954462222855
20
24.720754753170482
42
0.15177087351829754
10
-336.3319696597855
20
23.292043815670489
42
0.12026710985010913
10
-336.50053152633154
20
24.003852475017943
42
0.68337895488750633
10
-339.1492875178144
20
23.215230405332349
42
0.015041542982503309
10
-340.6288446597855
20
14.096731315670477
42
0.36777222129579934
10
-340.00743902232671
20
12.749579724784697
42
0.47110291037639962
10
-337.7929071597855
20
14.096731315670485
10
-336.9550165347855
20
19.478567253170503
42
-0.22200718625500149
0
LWPOLYLINE
5
199
100
AcDbEntity
8
0
100
AcDbPolyline
90
13
70
1
43
0.0
10
-355.4530634097855
20
20.885793815670489
42
0.36940351603980154
10
-354.77901140200902
20
19.525104316501189
42
0.45933287880789109
10
-352.58489934728561
20
21.132864128170485
42
0.090177159427709791
10
-352.3915399722855
20
22.776418815670478
42
0.47587149187242034
10
-354.15325872228556
20
24.720754753170482
42
0.15177087351829754
10
-358.5897821597855
20
23.292043815670489
42
0.12026710985010913
10
-358.75834402633154
20
24.003852475017982
42
0.68337895488749956
10
-361.40710001781429
20
23.215230405332754
42
0.015041542982500978
10
-362.88665715978544
20
14.096731315670496
42
0.36777222129580428
10
-362.26525152232659
20
12.749579724784699
42
0.4711029103763974
10
-360.0507196597855
20
14.096731315670485
10
-359.21282903478556
20
19.478567253170482
42
-0.22200718625499916
10
-355.35638372228556
20
21.970754753170489
0
LWPOLYLINE
5
200
100
AcDbEntity
8
0
100
AcDbPolyline
90
16
70
1
43
0.0
10
-322.87095548405648
20
12.726307673294643
42
0.50980076110851225
10
-320.42278997228544
20
13.914114128170681
42
-0.009296233537899698
10
-319.6063837222855
20
19.596731315670485
10
-319.6063837222855
20
19.57524694067062
42
0.0078157762419962876
10
-318.97974945352053
20
22.542779126078393
42
0.30262172190149639
10
-319.15521184728544
20
24.462942253170503
42
0.55272172080120896
10
-321.7977899722855
20
23.410207878170446
42
0.034524750281200327
10
-323.1298212222855
20
16.008840690670493
42
-0.057428333593000161
10
-325.7831415347855
20
15.675832878170485
42
-0.13806004477139808
10
-326.7606805972855
20
15.922903190670477
42
-0.1072540200448025
10
-325.80696487516548
20
22.815048094041899
42
0.30830548794419504
10
-326.0087274722855
20
24.516653190670464
42
0.52728486218730508
10
-328.55705390403557
20
23.676516589391483
42
0.11034329165949891
10
-329.69971503383852
20
15.262108876526785
42
0.28249198154590821
10
-328.41497747228544
20
13.312551628170484
42
0.22297694676639915
10
-323.3231805972855
20
13.344778190670482
42
0.1637251340430087
0
LWPOLYLINE
5
201
100
AcDbEntity
8
0
100
AcDbPolyline
90
5
70
1
43
0.0
10
-347.10537822105664
20
15.632365297919561
42
-0.48327375596169442
10
-349.57008757727777
20
16.45824448145709
42
-0.22609072356619653
10
-348.4706415347855
20
20.456106315670446
42
-0.36277207374080561
10
-343.87298528478567
20
21.508840690669562
42
-0.0048611449859167887
10
-344.40853086429877
20
19.686348409585086
42
-0.21125713993380288
0
LWPOLYLINE
5
202
100
AcDbEntity
8
0
100
AcDbPolyline
90
13
70
1
43
0.0
10
-346.0921343663768
20
12.334136347048874
42
-0.44587587673260154
10
-351.02728215978561
20
10.132864128170503
42
0.26281900058869134
10
-353.51946965978556
20
9.8428250656705032
42
0.53485569778951192
10
-353.28895670771067
20
7.8479498523934685
42
0.11814727643339988
10
-350.0390009097855
20
7.3398953781704961
42
0.19000714393449658
10
-345.2050165347855
20
8.9297391281704535
42
0.17740965787069793
10
-342.77728215978556
20
14.461965690670242
42
-0.01347098391049872
10
-340.88113860523595
20
21.555859779903592
42
0.46842916456788841
10
-341.9393915347855
20
23.399465690670493
42
0.16556081015040455
10
-343.21307907376661
20
24.207846225879198
42
0.36260633545159821
10
-352.07095161517645
20
19.605695791717181
42
0.28831950078130203
10
-351.5429071597855
20
13.957082878170453
42
0.39025905338839639
10
-345.59173528478544
20
13.957082878170485
42
-0.041304847829091766
0
LWPOLYLINE
5
203
100
AcDbEntity
8
0
100
AcDbPolyline
90
11
70
1
43
0.0
10
-292.3319696597855
20
16.621145378170485
10
-288.4647821597855
20
18.232473503170471
42
0.087613057441000258
10
-285.0487665347855
20
20.0479031906705
42
0.52561143018629131
10
-285.2850946597855
20
23.925832878170482
42
0.22928473354709872
10
-291.23841911493651
20
23.979812601257784
42
0.2628123017812003
10
-295.2860712222855
20
17.007864128170485
42
0.24007178182089922
10
-293.8895868472855
20
14.010793815670485
42
0.16661819603710151
10
-290.0009149722855
20
12.904348503170491
42
0.19694122868989883
10
-285.13338181155257
20
14.516703979719804
42
0.4242283858323006
10
-284.85863924888247
20
16.445527544650169
42
0.30241474439660193
10
-287.0575555972855
20
16.094778190670496
42
-0.31800647418410133
0
LWPOLYLINE
5
204
100
AcDbEntity
8
0
100
AcDbPolyline
90
3
70
1
43
0.0
10
-291.58273463532851
20
20.309777407996783
42
-0.39485036479859753
10
-287.03607122228556
20
21.616262565670464
42
-0.040437432255099957
10
-292.1386102847855
20
19.349661003170485
42
-0.034483651342009321
0
LWPOLYLINE
5
205
100
AcDbEntity
8
0
100
AcDbPolyline
90
11
70
1
43
0.0
10
-307.2421259097855
20
7.4795438156704925
42
0.58594864012409376
10
-304.59954778478556
20
8.5967313156704854
10
-303.9120477847855
20
12.968801628170493
42
0.27095319597320144
10
-297.6386102847855
20
14.687551628170485
42
0.22706470179049851
10
-295.82184610169753
20
21.490056909593086
42
0.27344898898879921
10
-297.82710504607348
20
24.245011639842275
42
0.20888971974499793
10
-302.4188837222855
20
23.710989128170485
10
-302.37591497228544
20
23.818411003170482
42
0.68361836526158781
10
-304.35198450020346
20
24.992054665151294
42
0.27281405682580501
10
-305.6415399722855
20
22.36821569067029
42
-0.023737521982598892
10
-307.43986791340251
20
9.3978906286235926
42
0.26629884911189988
0
LWPOLYLINE
5
206
100
AcDbEntity
8
0
100
AcDbPolyline
90
5
70
1
43
0.0
10
-299.8407587222855
20
21.637746940670475
42
-0.32090726857620483
10
-298.89085618038052
20
21.037454271947688
42
-0.27781086391179899
10
-300.25744316855253
20
15.956996047021885
42
-0.20951496365139793
10
-303.40716497228567
20
15.944387565669507
42
0.0074071059120072004
10
-302.8163446597855
20
20.359426628170482
42
-0.16420905527819984
0
LWPOLYLINE
5
207
100
AcDbEntity
8
0
100
AcDbPolyline
90
5
70
1
43
0.0
10
-312.02013848105253
20
15.956996047021885
42
-0.20951496365139771
10
-315.16986028478567
20
15.944387565669507
42
0.0074071059120072004
10
-314.5790399722855
20
20.359426628170482
42
-0.16420905527819984
10
-311.6034540347855
20
21.637746940670475
42
-0.32090726857620483
10
-310.65355149288052
20
21.037454271947688
42
-0.27781086391179899
0
LWPOLYLINE
5
208
100
AcDbEntity
8
0
100
AcDbPolyline
90
11
70
1
43
0.0
10
-314.1386102847855
20
23.818411003170489
42
0.68361836526170838
10
-316.11467981270357
20
24.992054665151279
42
0.27281405682579668
10
-317.4042352847855
20
22.368215690670368
42
-0.023737521982601782
10
-319.20256322590251
20
9.3978906286235961
42
0.26629884911179807
10
-319.0048212222855
20
7.4795438156704952
42
0.58594864012409442
10
-316.36224309728556
20
8.5967313156704854
10
-315.6747430972855
20
12.968801628170493
42
0.27095319597320144
10
-309.4013055972855
20
14.687551628170485
42
0.22706470179049851
10
-307.58454141419753
20
21.490056909593093
42
0.27344898898880193
10
-309.58980035857348
20
24.245011639842282
42
0.20888971974499629
10
-314.1815790347855
20
23.710989128170485
0
CIRCLE
5
209
100
AcDbEntity
8
0
100
AcDbCircle
10
-99.999999999999972
20
100
30
0
40
2.9999999999999942
0
LINE
5
210
100
AcDbEntity
8
0
100
AcDbLine
10
0
20
0
30
0
11
0
21
310
31
0
0
LINE
5
211
100
AcDbEntity
8
0
100
AcDbLine
10
0
20
310
30
0
11
0
21
-340
31
0
0
ELLIPSE
5
212
100
AcDbEntity
8
0
100
AcDbEllipse
10
0
20
0
30
0
11
-210
21
-1.2858791391047208e-14
31
0.0
40
0.7142857142857143
41
4.7123889803846897
42
6.2831853071795862
0
LWPOLYLINE
5
213
100
AcDbEntity
8
0
100
AcDbPolyline
90
26
70
1
43
0.0
10
-153.63858323497638
20
248.11196628900117
42
0.60686249426349692
10
-152.88228395400742
20
244.82586378864585
42
0.062438648972300705
10
-150.11372926650762
20
244.47723097614585
42
0.025968452492101109
10
-135.45064332900782
20
245.83074660114551
42
-0.016914224385796681
10
-144.18697145400728
20
238.98113722614596
42
-0.024483200258899607
10
-164.38716676650739
20
224.64617628864585
42
0.18605528853260767
10
-166.33540895400742
20
222.18523878864585
42
0.47210764944122274
10
-165.7237559489084
20
220.25080115849264
42
0.14625527921929363
10
-163.85578135780543
20
220.33951779626236
42
-0.064000991393800347
10
-152.04146364150742
20
221.81609816364585
10
-152.06197145400739
20
221.81609816364588
42
-0.047832517373299098
10
-143.76100048629507
20
222.05278022696589
42
0.010011182609194952
10
-139.79829957900739
20
221.38543410114582
42
0.4563964078085001
10
-136.69922696860243
20
225.24594567459974
42
0.2096122916405124
10
-138.54073416993842
20
226.47082770178235
42
0.066178285880400492
10
-145.84810426635565
20
226.63543410116003
42
0.0004750048067871422
10
-155.93794801650739
20
225.67156691364403
10
-153.10786989150697
20
227.74285597614622
42
0.023910832506699516
10
-133.93306520400745
20
242.50848097614585
42
-0.041286822378500392
10
-127.82173707900741
20
247.10223097614588
42
0.14742734458630452
10
-126.79634645400741
20
248.78387160114582
42
0.42897141547300155
10
-127.21961697647441
20
250.51134386978862
42
0.12595195584739888
10
-130.37202538439243
20
250.34833515425888
42
-0.03454515686899786
10
-137.62447145400753
20
249.58367628864582
42
-0.022723478100697369
10
-149.35494020400745
20
249.21453566364588
42
0.018713823135799591
10
-151.18013551650739
20
249.68621535114585
42
0.15563592710720334
0
LWPOLYLINE
5
214
100
AcDbEntity
8
0
100
AcDbPolyline
90
25
70
1
43
0.0
10
-125.46333864150741
20
227.92742628864588
42
-0.043047880281600073
10
-120.68501832900742
20
236.19207472614588
42
0.063368535910797275
10
-118.24458864150741
20
240.33465285114585
42
0.37324371981160603
10
-119.1236128531454
20
242.54782893614424
42
0.35331641184070134
10
-123.18697145400741
20
240.99090285114585
42
-0.037242577091605826
10
-124.62670677002802
20
237.83317230692114
42
0.0026729322526133849
10
-128.37154930499943
20
231.21809623032991
42
0.13865026571590061
10
-130.66169893362141
20
223.59561797560445
42
0.34634346542700178
10
-127.59615114150741
20
220.68816847614585
42
0.091995092764899047
10
-124.46539779657442
20
221.32938609708293
42
0.12059005597629953
10
-115.10689332900739
20
228.50164503864588
42
0.0829392214624982
10
-116.33736207900742
20
222.34930128864585
42
0.44184142667560433
10
-114.61470582900742
20
220.07293410114585
42
0.15442534022140086
10
-111.51697134796044
20
221.29139678083396
42
0.54274420610451179
10
-111.18990114150739
20
222.9850434761459
42
-0.15637311944677487
10
-111.67870089198442
20
223.69247122935644
42
-0.1271545096314072
10
-111.67695118581442
20
226.21287995652585
42
-0.094881708619398972
10
-106.82173707900743
20
237.54559035114582
42
0.040799370334106758
10
-106.00142457900742
20
238.94012160114585
42
0.40673324803691241
10
-106.48244345403042
20
241.18313496618245
42
0.30032359158319427
10
-109.73384645400741
20
240.23211378864588
42
0.046054207161099883
10
-112.93306520400741
20
235.63836378864585
42
-0.10405673945500094
10
-121.34453943194538
20
227.03852704756287
42
-0.13378346029539664
10
-125.25826051650741
20
225.19988722614588
42
-0.41401873280279089
10
-125.85427138590843
20
225.73042179919815
42
-0.11711068017670759
0
LWPOLYLINE
5
215
100
AcDbEntity
8
0
100
AcDbPolyline
90
29
70
1
43
0.0
10
-45.28291801050856
20
250.89617628864625
42
-0.0065842515030962983
10
-60.171589885510443
20
249.25555128864588
42
0.25145275741219747
10
-64.908894573010386
20
248.08660597614588
42
0.2464593562073964
10
-65.031941448010159
20
245.17449660114636
42
-0.014218029517496825
10
-69.502644573010414
20
235.49480910114585
42
-0.032551115827397906
10
-75.3268633230104
20
224.27703566364585
42
0.27828731307170274
10
-76.147175823010386
20
220.15496535114582
42
0.21991419457650133
10
-73.973347698010429
20
219.43719191364585
42
0.048576308315299965
10
-67.000691448010457
20
220.19598097614585
42
-0.016652651927896767
10
-59.9460039480104
20
220.89324660114588
42
0.07510877318140069
10
-53.875691448010414
20
222.04168410114588
42
0.17442422273629907
10
-52.7682695730104
20
223.47723097614588
42
0.48035977602369401
10
-53.695080975705523
20
225.68529846083106
42
0.18377986564780044
10
-56.499658028353949
20
225.65987500967807
42
-0.032255767155799406
10
-69.2565508230104
20
224.0104341011459
42
-0.61560571635130246
10
-69.933308635510429
20
224.76922316364585
42
-0.038372222465098811
10
-66.549519573010429
20
231.55730910114585
42
-0.31410307487939626
10
-65.8522539480104
20
232.02898878864585
42
-0.029733987347100362
10
-64.103816664998106
20
232.38103531151151
42
-0.0064905210174039966
10
-52.389215967915696
20
233.91199798894235
42
0.30025779152059795
10
-49.322957073010429
20
236.37664503864585
42
0.48388909027389554
10
-50.081532734640291
20
238.05551614354798
42
0.11842780211860013
10
-54.33370208041989
20
238.06025391253922
42
-0.046024611833598808
10
-64.232136760510258
20
236.80730910114605
42
-0.0076976209062952069
10
-59.863972698010386
20
244.88738722614585
42
-0.075366954143599868
10
-57.095418010510542
20
245.50262160114588
42
-0.02490120004570083
10
-44.7702226980104
20
246.42547316364585
42
0.11040498252590401
10
-42.574699143369003
20
247.85809116492908
42
0.38946938584970248
10
-42.36827900391652
20
250.44891136656761
42
0.2159371040573993
0
LWPOLYLINE
5
216
100
AcDbEntity
8
0
100
AcDbPolyline
90
15
70
1
43
0.0
10
-92.712362079007505
20
240.82684035114585
42
0.60332917589568913
10
-94.270955829007505
20
242.85711378864585
42
0.29690220485640118
10
-98.709205227753245
20
239.43621980451738
42
0.01960967903849747
10
-103.88911989150742
20
226.7174653511459
42
0.088347217246002321
10
-105.07857301650742
20
221.44695753864585
42
0.48206667073910758
10
-103.62251832900741
20
219.8473481636459
42
0.32322662329169943
10
-99.438924579007519
20
222.94402785114588
42
-0.14516460631600028
10
-85.682571895004116
20
238.16516631508787
42
-0.49184739808459976
10
-83.729940204007505
20
237.79168410114582
42
0.26757662166649349
10
-81.761190204007534
20
236.74578566364585
42
0.53793855962050274
10
-79.648885516507505
20
241.87273878864588
42
0.31582304721619603
10
-84.50695856119313
20
242.70963787502006
42
0.093602570729199017
10
-89.308065204007477
20
239.90398878864585
42
0.051116698292001661
10
-97.982869891507519
20
231.16766066364585
10
-96.40376832901913
20
234.32586378862482
42
-0.0013831891880850271
0
LWPOLYLINE
5
217
100
AcDbEntity
8
0
100
AcDbPolyline
90
15
70
1
43
0.0
10
-31.419636760510397
20
239.9039887886459
42
0.051116698291999656
10
-40.094441448010386
20
231.16766066364588
10
-38.515339885475051
20
234.3258637887082
42
-0.0013831891880549398
10
-34.823933635510421
20
240.82684035114585
42
0.60332917589570667
10
-36.382527385510407
20
242.85711378864588
42
0.29690220485640134
10
-40.82077678425599
20
239.43621980451778
42
0.019609679038498137
10
-46.0006914480104
20
226.71746535114585
42
0.088347217246000198
10
-47.1901445730104
20
221.44695753864585
42
0.48206667073909271
10
-45.734089885510407
20
219.84734816364585
42
0.32322662329169999
10
-41.550496135510414
20
222.94402785114585
42
-0.14516460631599973
10
-27.794143451506912
20
238.1651663150879
42
-0.4918473980846112
10
-25.841511760510404
20
237.79168410114582
42
0.26757662166649754
10
-23.8727617605104
20
236.74578566364585
42
0.53793855962050197
10
-21.7604570730104
20
241.87273878864588
42
0.31582304721619875
10
-26.618530117695901
20
242.70963787502006
42
0.093602570729199905
0
ARC
5
218
100
AcDbEntity
8
0
100
AcDbCircle
10
-1.6066138322734
20
222.69682790861484
30
0
40
3.7756691398064683
100
AcDbArc
50
248.62622368928788
51
295.18343290945887
0
LWPOLYLINE
5
219
100
AcDbEntity
8
0
100
AcDbPolyline
90
9
70
1
43
0.0
10
-20.406941448010407
20
228.2145356636459
42
-0.14911917755670007
10
-12.942097698010407
20
237.87371535114588
10
-12.921589885510386
20
237.87371535114585
42
-0.1480360233507991
10
-9.8249101980104054
20
238.91961378864585
42
-0.37015824982260259
10
-7.8151445730104037
20
237.54559035114585
42
-0.15328341372440055
10
-8.1022539480104143
20
234.07977003864585
42
-0.17743309149389944
10
-15.313251063073004
20
225.76682260051575
42
-0.13919375678860013
10
-19.463582073010407
20
224.29754347614588
42
-0.3987253862078029
10
-20.735066448010411
20
225.40496535114585
42
-0.12994390277790069
0
LWPOLYLINE
5
220
100
AcDbEntity
8
0
100
AcDbPolyline
90
9
70
1
43
0.0
10
-4.4723711355104099
20
231.41375441364585
42
0.12142867957789971
10
-2.4939852169569097
20
237.56414825952123
42
0.45892495333200078
10
-7.9586992605104054
20
243.24676222614588
42
0.12493277177389979
10
-13.698930202055784
20
241.68727687410157
42
0.10437210163170008
10
-22.649907035745215
20
233.33749925711965
42
0.14693052018830027
10
-26.123564555729295
20
224.95319704344377
42
0.29756138581910169
10
-23.693793771782197
20
220.49884127950602
42
0.20989888810079951
10
-16.617822882117302
20
221.03263326261654
42
0.14918303907980016
10
-4.4723711355104045
20
231.39324660114585
0
LWPOLYLINE
5
221
100
AcDbEntity
8
0
100
AcDbPolyline
90
5
70
1
43
0.0
10
-7.2819414480104143
20
249.60418410114588
42
0.64879768621210065
10
-12.7575273855104
20
247.38934035114585
42
0.26163349491609644
10
-12.63387373063081
20
246.70640924046518
42
0.20791038828300054
10
-10.358113323010405
20
245.74871535114585
42
0.10543623464659928
10
-8.5106789545966048
20
245.98816032411688
42
0.49133446848400208
0
ARC
5
222
100
AcDbEntity
8
0
100
AcDbCircle
10
12.747314693279336
20
217.76516161297465
30
0
40
16.79154977088626
100
AcDbArc
50
149.45442010807758
51
168.20391431639752
0
ARC
5
223
100
AcDbEntity
8
0
100
AcDbCircle
10
-90.328136404535385
20
272.53576029746807
30
0
40
99.951501793360293
100
AcDbArc
50
332.44552737563191
51
334.65138998604152
0
ARC
5
224
100
AcDbEntity
8
0
100
AcDbCircle
10
0.20061879699573168
20
244.6373471641391
30
0
40
6.5640491350417172
100
AcDbArc
50
90.545265431168914
51
112.06038993218345
0
ARC
5
225
100
AcDbEntity
8
0
100
AcDbCircle
10
-2.5669734520819913
20
250.03022711254863
30
0
40
3.7562591711570388
100
AcDbArc
50
266.27149561689288
51
313.10877614680379
0
ARC
5
226
100
AcDbEntity
8
0
100
AcDbCircle
10
-2.0158692410795078
20
220.65209721552225
30
0
40
1.7604779544409395
100
AcDbArc
50
161.94080585354382
51
236.69038344894756
0
ARC
5
227
100
AcDbEntity
8
0
100
AcDbCircle
10
-2.9806076073659575
20
247.99391884420388
30
0
40
1.7203578740232974
100
AcDbArc
50
157.93027382597904
51
275.64992329727971
0
ARC
5
228
100
AcDbEntity
8
0
100
AcDbCircle
10
-1.6879712642239015
20
247.75755009063835
30
0
40
3.0188894764822169
100
AcDbArc
50
101.01407836780928
51
162.99744059840253
0
ARC
5
229
100
AcDbEntity
8
0
100
AcDbCircle
10
-0.60972161383716639
20
173.36979408062126
30
0
40
0.62922849051638052
100
AcDbArc
50
14.303941162769505
51
89.125229401736533
0
ARC
5
230
100
AcDbEntity
8
0
100
AcDbCircle
10
-0.60972161383716639
20
173.36979408062126
30
0
40
0.62922849051637431
100
AcDbArc
50
325.63017614092962
51
345.69605883723301
0
ENDSEC
0
SECTION
2
OBJECTS
0
DICTIONARY
5
C
100
AcDbDictionary
3
ACAD_GROUP
350
D
3
ACAD_MLINESTYLE
350
17
0
DICTIONARY
5
D
100
AcDbDictionary
0
DICTIONARY
5
1A
330
C
100
AcDbDictionary
0
DICTIONARY
5
17
100
AcDbDictionary
0
ENDSEC
0
EOF
