  0
SECTION
  2
HEADER
  9
$ACADVER
  1
AC1014
  9
$HANDSEED
  5
FFFF
  9
$MEASUREMENT
 70
     1
  0
ENDSEC
  0
SECTION
  2
TABLES
  0
TABLE
  2
VPORT
  5
8
330
0
100
AcDbSymbolTable
 70
     4
  0
VPORT
  5
2E
330
8
100
AcDbSymbolTableRecord
100
AcDbViewportTableRecord
  2
*ACTIVE
 70
     0
 10
0.0
 20
0.0
 11
1.0
 21
1.0
 12
210.0
 22
148.5
 13
0.0
 23
0.0
 14
10.0
 24
10.0
 15
10.0
 25
10.0
 16
0.0
 26
0.0
 36
1.0
 17
0.0
 27
0.0
 37
0.0
 40
341.0
 41
1.24
 42
50.0
 43
0.0
 44
0.0
 50
0.0
 51
0.0
 71
     0
 72
   100
 73
     1
 74
     3
 75
     0
 76
     0
 77
     0
 78
     0
  0
ENDTAB
  0
TABLE
  2
LTYPE
  5
5
330
0
100
AcDbSymbolTable
 70
     1
  0
LTYPE
  5
14
330
5
100
AcDbSymbolTableRecord
100
AcDbLinetypeTableRecord
  2
BYBLOCK
 70
     0
  3

 72
    65
 73
     0
 40
0.0
  0
LTYPE
  5
15
330
5
100
AcDbSymbolTableRecord
100
AcDbLinetypeTableRecord
  2
BYLAYER
 70
     0
  3

 72
    65
 73
     0
 40
0.0
  0
LTYPE
  5
16
330
5
100
AcDbSymbolTableRecord
100
AcDbLinetypeTableRecord
  2
CONTINUOUS
 70
     0
  3
Solid line
 72
    65
 73
     0
 40
0.0
  0
ENDTAB
  0
TABLE
  2
LAYER
  5
2
100
AcDbSymbolTable
 70
2
  0
LAYER
  5
50
100
AcDbSymbolTableRecord
100
AcDbLayerTableRecord
  2
0
 70
0
  6
CONTINUOUS
  0
LAYER
  5
51
100
AcDbSymbolTableRecord
100
AcDbLayerTableRecord
  2
Ebene_1
 70
0
  6
CONTINUOUS
  0
ENDTAB
  0
TABLE
  2
STYLE
  5
3
330
0
100
AcDbSymbolTable
 70
     1
  0
STYLE
  5
11
330
3
100
AcDbSymbolTableRecord
100
AcDbTextStyleTableRecord
  2
STANDARD
 70
     0
 40
0.0
 41
1.0
 50
0.0
 71
     0
 42
2.5
  3
txt
  4

  0
ENDTAB
  0
TABLE
  2
VIEW
  5
6
330
0
100
AcDbSymbolTable
 70
     0
  0
ENDTAB
  0
TABLE
  2
UCS
  5
7
330
0
100
AcDbSymbolTable
 70
     0
  0
ENDTAB
  0
TABLE
  2
APPID
  5
9
330
0
100
AcDbSymbolTable
 70
     2
  0
APPID
  5
12
330
9
100
AcDbSymbolTableRecord
100
AcDbRegAppTableRecord
  2
ACAD
 70
     0
  0
ENDTAB
  0
TABLE
  2
DIMSTYLE
  5
A
330
0
100
AcDbSymbolTable
 70
     1
  0
DIMSTYLE
105
27
330
A
100
AcDbSymbolTableRecord
100
AcDbDimStyleTableRecord
  2
ISO-25
 70
     0
  3

  4

  5

  6

  7

 40
1.0
 41
2.5
 42
0.625
 43
3.75
 44
1.25
 45
0.0
 46
0.0
 47
0.0
 48
0.0
140
2.5
141
2.5
142
0.0
143
0.03937007874016
144
1.0
145
0.0
146
1.0
147
0.625
 71
     0
 72
     0
 73
     0
 74
     0
 75
     0
 76
     0
 77
     1
 78
     8
170
     0
171
     3
172
     1
173
     0
174
     0
175
     0
176
     0
177
     0
178
     0
270
     2
271
     2
272
     2
273
     2
274
     3
340
11
275
     0
280
     0
281
     0
282
     0
283
     0
284
     8
285
     0
286
     0
287
     3
288
     0
  0
ENDTAB
  0
TABLE
  2
BLOCK_RECORD
  5
1
330
0
100
AcDbSymbolTable
 70
     1
  0
BLOCK_RECORD
  5
1F
330
1
100
AcDbSymbolTableRecord
100
AcDbBlockTableRecord
  2
*MODEL_SPACE
  0
BLOCK_RECORD
  5
1B
330
1
100
AcDbSymbolTableRecord
100
AcDbBlockTableRecord
  2
*PAPER_SPACE
  0
ENDTAB
  0
ENDSEC
  0
SECTION
  2
BLOCKS
  0
BLOCK
  5
20
330
1F
100
AcDbEntity
  8
0
100
AcDbBlockBegin
  2
*MODEL_SPACE
 70
     0
 10
0.0
 20
0.0
 30
0.0
  3
*MODEL_SPACE
  1

  0
ENDBLK
  5
21
330
1F
100
AcDbEntity
  8
0
100
AcDbBlockEnd
  0
BLOCK
  5
1C
330
1B
100
AcDbEntity
 67
     1
  8
0
100
AcDbBlockBegin
  2
*PAPER_SPACE
  1

  0
ENDBLK
  5
1D
330
1B
100
AcDbEntity
 67
     1
  8
0
100
AcDbBlockEnd
  0
ENDSEC
  0
SECTION
  2
ENTITIES
  0
SPLINE
  5
100
100
AcDbEntity
  8
Ebene_1
 62
7
100
AcDbSpline
 70
8
 71
3
 72
8
 73
4
 74
0
 40
0
 40
0
 40
0
 40
0
 40
1
 40
1
 40
1
 40
1
 10
293.557011
 20
259.223017
 30
0.0
 10
277.032798
 20
275.706794
 30
0.0
 10
255.381199
 20
288.849628
 30
0.0
 10
222.107049
 20
302.594202
 30
0.0
  0
SPLINE
  5
101
100
AcDbEntity
  8
Ebene_1
 62
7
100
AcDbSpline
 70
8
 71
3
 72
8
 73
4
 74
0
 40
0
 40
0
 40
0
 40
0
 40
1
 40
1
 40
1
 40
1
 10
222.107049
 20
302.594202
 30
0.0
 10
215.997211
 20
305.118000
 30
0.0
 10
205.260744
 20
309.553257
 30
0.0
 10
198.248244
 20
312.450321
 30
0.0
  0
SPLINE
  5
102
100
AcDbEntity
  8
Ebene_1
 62
7
100
AcDbSpline
 70
8
 71
3
 72
8
 73
4
 74
0
 40
0
 40
0
 40
0
 40
0
 40
1
 40
1
 40
1
 40
1
 10
198.248244
 20
312.450321
 30
0.0
 10
169.740955
 20
324.227509
 30
0.0
 10
160.159584
 20
329.679921
 30
0.0
 10
151.249096
 20
339.195742
 30
0.0
  0
SPLINE
  5
103
100
AcDbEntity
  8
Ebene_1
 62
7
100
AcDbSpline
 70
8
 71
3
 72
8
 73
4
 74
0
 40
0
 40
0
 40
0
 40
0
 40
1
 40
1
 40
1
 40
1
 10
151.249096
 20
339.195742
 30
0.0
 10
139.111685
 20
352.157698
 30
0.0
 10
131.965234
 20
369.855524
 30
0.0
 10
128.204484
 20
396.264529
 30
0.0
  0
SPLINE
  5
104
100
AcDbEntity
  8
Ebene_1
 62
7
100
AcDbSpline
 70
8
 71
3
 72
8
 73
4
 74
0
 40
0
 40
0
 40
0
 40
0
 40
1
 40
1
 40
1
 40
1
 10
132.507275
 20
412.433858
 30
0.0
 10
150.813405
 20
431.789244
 30
0.0
 10
158.912065
 20
454.391603
 30
0.0
 10
154.754050
 20
474.521839
 30
0.0
  0
SPLINE
  5
105
100
AcDbEntity
  8
Ebene_1
 62
7
100
AcDbSpline
 70
8
 71
3
 72
8
 73
4
 74
0
 40
0
 40
0
 40
0
 40
0
 40
1
 40
1
 40
1
 40
1
 10
154.754050
 20
474.521839
 30
0.0
 10
151.784490
 20
488.898397
 30
0.0
 10
145.977542
 20
502.553197
 30
0.0
 10
137.397597
 20
515.334898
 30
0.0
  0
LWPOLYLINE
  5
106
100
AcDbEntity
  8
Ebene_1
 62
7
100
AcDbPolyline
 90
3
 70
0
 10
128.204484
 20
396.264529
 30
0.0
 10
126.766301
 20
406.363833
 30
0.0
 10
132.507275
 20
412.433858
 30
0.0
  0
SPLINE
  5
107
100
AcDbEntity
  8
Ebene_1
 62
7
100
AcDbSpline
 70
8
 71
3
 72
8
 73
4
 74
0
 40
0
 40
0
 40
0
 40
0
 40
1
 40
1
 40
1
 40
1
 10
133.322227
 20
525.968561
 30
0.0
 10
134.189303
 20
527.186268
 30
0.0
 10
140.208619
 20
533.137380
 30
0.0
 10
146.698486
 20
539.193288
 30
0.0
  0
SPLINE
  5
108
100
AcDbEntity
  8
Ebene_1
 62
7
100
AcDbSpline
 70
8
 71
3
 72
8
 73
4
 74
0
 40
0
 40
0
 40
0
 40
0
 40
1
 40
1
 40
1
 40
1
 10
146.698486
 20
539.193288
 30
0.0
 10
153.188354
 20
545.249197
 30
0.0
 10
160.860745
 20
552.819940
 30
0.0
 10
163.748245
 20
556.017137
 30
0.0
  0
SPLINE
  5
109
100
AcDbEntity
  8
Ebene_1
 62
7
100
AcDbSpline
 70
8
 71
3
 72
8
 73
4
 74
0
 40
0
 40
0
 40
0
 40
0
 40
1
 40
1
 40
1
 40
1
 10
163.748245
 20
556.017137
 30
0.0
 10
167.936151
 20
560.654198
 30
0.0
 10
185.045338
 20
576.973831
 30
0.0
 10
193.854081
 20
584.733634
 30
0.0
  0
SPLINE
  5
10a
100
AcDbEntity
  8
Ebene_1
 62
7
100
AcDbSpline
 70
8
 71
3
 72
8
 73
4
 74
0
 40
0
 40
0
 40
0
 40
0
 40
1
 40
1
 40
1
 40
1
 10
193.854081
 20
584.733634
 30
0.0
 10
195.433319
 20
586.124819
 30
0.0
 10
195.520275
 20
586.117746
 30
0.0
 10
199.104080
 20
584.306668
 30
0.0
  0
SPLINE
  5
10b
100
AcDbEntity
  8
Ebene_1
 62
7
100
AcDbSpline
 70
8
 71
3
 72
8
 73
4
 74
0
 40
0
 40
0
 40
0
 40
0
 40
1
 40
1
 40
1
 40
1
 10
199.104080
 20
584.306668
 30
0.0
 10
209.523722
 20
579.041093
 30
0.0
 10
223.019685
 20
576.603524
 30
0.0
 10
237.998242
 20
577.281815
 30
0.0
  0
SPLINE
  5
10c
100
AcDbEntity
  8
Ebene_1
 62
7
100
AcDbSpline
 70
8
 71
3
 72
8
 73
4
 74
0
 40
0
 40
0
 40
0
 40
0
 40
1
 40
1
 40
1
 40
1
 10
237.998242
 20
577.281815
 30
0.0
 10
252.631446
 20
577.944468
 30
0.0
 10
268.031772
 20
581.163792
 30
0.0
 10
289.748239
 20
588.099776
 30
0.0
  0
LWPOLYLINE
  5
10d
100
AcDbEntity
  8
Ebene_1
 62
7
100
AcDbPolyline
 90
3
 70
0
 10
137.397597
 20
515.334898
 30
0.0
 10
131.745730
 20
523.754589
 30
0.0
 10
133.322227
 20
525.968561
 30
0.0
  0
SPLINE
  5
10e
100
AcDbEntity
  8
Ebene_1
 62
7
100
AcDbSpline
 70
8
 71
3
 72
8
 73
4
 74
0
 40
0
 40
0
 40
0
 40
0
 40
1
 40
1
 40
1
 40
1
 10
305.955128
 20
587.804845
 30
0.0
 10
328.118825
 20
578.057774
 30
0.0
 10
347.441017
 20
574.120089
 30
0.0
 10
362.873225
 20
576.205466
 30
0.0
  0
SPLINE
  5
10f
100
AcDbEntity
  8
Ebene_1
 62
7
100
AcDbSpline
 70
8
 71
3
 72
8
 73
4
 74
0
 40
0
 40
0
 40
0
 40
0
 40
1
 40
1
 40
1
 40
1
 10
362.873225
 20
576.205466
 30
0.0
 10
366.379483
 20
576.679272
 30
0.0
 10
376.841991
 20
578.862422
 30
0.0
 10
386.123244
 20
581.056911
 30
0.0
  0
LWPOLYLINE
  5
110
100
AcDbEntity
  8
Ebene_1
 62
7
100
AcDbPolyline
 90
3
 70
0
 10
289.748239
 20
588.099776
 30
0.0
 10
298.748239
 20
590.974271
 30
0.0
 10
305.955128
 20
587.804845
 30
0.0
  0
SPLINE
  5
111
100
AcDbEntity
  8
Ebene_1
 62
7
100
AcDbSpline
 70
8
 71
3
 72
8
 73
4
 74
0
 40
0
 40
0
 40
0
 40
0
 40
1
 40
1
 40
1
 40
1
 10
409.748230
 20
578.982648
 30
0.0
 10
413.460737
 20
575.647316
 30
0.0
 10
427.045096
 20
562.480396
 30
0.0
 10
439.935732
 20
549.722835
 30
0.0
  0
SPLINE
  5
112
100
AcDbEntity
  8
Ebene_1
 62
7
100
AcDbSpline
 70
8
 71
3
 72
8
 73
4
 74
0
 40
0
 40
0
 40
0
 40
0
 40
1
 40
1
 40
1
 40
1
 10
439.935732
 20
549.722835
 30
0.0
 10
458.924910
 20
530.929644
 30
0.0
 10
463.373235
 20
526.150970
 30
0.0
 10
463.373235
 20
524.544690
 30
0.0
  0
SPLINE
  5
113
100
AcDbEntity
  8
Ebene_1
 62
7
100
AcDbSpline
 70
8
 71
3
 72
8
 73
4
 74
0
 40
0
 40
0
 40
0
 40
0
 40
1
 40
1
 40
1
 40
1
 10
463.373235
 20
524.544690
 30
0.0
 10
463.373235
 20
523.454287
 30
0.0
 10
462.015921
 20
520.391565
 30
0.0
 10
460.357002
 20
517.738677
 30
0.0
  0
SPLINE
  5
114
100
AcDbEntity
  8
Ebene_1
 62
7
100
AcDbSpline
 70
8
 71
3
 72
8
 73
4
 74
0
 40
0
 40
0
 40
0
 40
0
 40
1
 40
1
 40
1
 40
1
 10
460.357002
 20
517.738677
 30
0.0
 10
453.607115
 20
506.944488
 30
0.0
 10
447.860239
 20
491.969594
 30
0.0
 10
445.697660
 20
479.540211
 30
0.0
  0
SPLINE
  5
115
100
AcDbEntity
  8
Ebene_1
 62
7
100
AcDbSpline
 70
8
 71
3
 72
8
 73
4
 74
0
 40
0
 40
0
 40
0
 40
0
 40
1
 40
1
 40
1
 40
1
 10
445.697660
 20
479.540211
 30
0.0
 10
444.197764
 20
470.919600
 30
0.0
 10
444.029783
 20
455.724765
 30
0.0
 10
445.349395
 20
448.040211
 30
0.0
  0
SPLINE
  5
116
100
AcDbEntity
  8
Ebene_1
 62
7
100
AcDbSpline
 70
8
 71
3
 72
8
 73
4
 74
0
 40
0
 40
0
 40
0
 40
0
 40
1
 40
1
 40
1
 40
1
 10
445.349395
 20
448.040211
 30
0.0
 10
447.383140
 20
436.197061
 30
0.0
 10
452.433883
 20
424.267880
 30
0.0
 10
459.321420
 20
415.040202
 30
0.0
  0
SPLINE
  5
117
100
AcDbEntity
  8
Ebene_1
 62
7
100
AcDbSpline
 70
8
 71
3
 72
8
 73
4
 74
0
 40
0
 40
0
 40
0
 40
0
 40
1
 40
1
 40
1
 40
1
 10
459.321420
 20
415.040202
 30
0.0
 10
466.374501
 20
405.590712
 30
0.0
 10
468.517805
 20
400.051162
 30
0.0
 10
467.156268
 20
394.790202
 30
0.0
  0
SPLINE
  5
118
100
AcDbEntity
  8
Ebene_1
 62
7
100
AcDbSpline
 70
8
 71
3
 72
8
 73
4
 74
0
 40
0
 40
0
 40
0
 40
0
 40
1
 40
1
 40
1
 40
1
 10
467.156268
 20
394.790202
 30
0.0
 10
466.782605
 20
393.346460
 30
0.0
 10
465.649087
 20
388.958967
 30
0.0
 10
464.637317
 20
385.040211
 30
0.0
  0
SPLINE
  5
119
100
AcDbEntity
  8
Ebene_1
 62
7
100
AcDbSpline
 70
8
 71
3
 72
8
 73
4
 74
0
 40
0
 40
0
 40
0
 40
0
 40
1
 40
1
 40
1
 40
1
 10
464.637317
 20
385.040211
 30
0.0
 10
459.716683
 20
365.981896
 30
0.0
 10
451.472542
 20
351.665915
 30
0.0
 10
436.403254
 20
336.011528
 30
0.0
  0
SPLINE
  5
11a
100
AcDbEntity
  8
Ebene_1
 62
7
100
AcDbSpline
 70
8
 71
3
 72
8
 73
4
 74
0
 40
0
 40
0
 40
0
 40
0
 40
1
 40
1
 40
1
 40
1
 10
436.403254
 20
336.011528
 30
0.0
 10
429.432406
 20
328.770028
 30
0.0
 10
421.062066
 20
321.755272
 30
0.0
 10
412.581005
 20
316.047288
 30
0.0
  0
SPLINE
  5
11b
100
AcDbEntity
  8
Ebene_1
 62
7
100
AcDbSpline
 70
8
 71
3
 72
8
 73
4
 74
0
 40
0
 40
0
 40
0
 40
0
 40
1
 40
1
 40
1
 40
1
 10
412.581005
 20
316.047288
 30
0.0
 10
407.829402
 20
312.849383
 30
0.0
 10
404.281417
 20
311.460321
 30
0.0
 10
383.706000
 20
304.742721
 30
0.0
  0
SPLINE
  5
11c
100
AcDbEntity
  8
Ebene_1
 62
7
100
AcDbSpline
 70
8
 71
3
 72
8
 73
4
 74
0
 40
0
 40
0
 40
0
 40
0
 40
1
 40
1
 40
1
 40
1
 10
383.706000
 20
304.742721
 30
0.0
 10
358.649348
 20
296.562019
 30
0.0
 10
346.967376
 20
291.977206
 30
0.0
 10
338.406463
 20
286.963994
 30
0.0
  0
SPLINE
  5
11d
100
AcDbEntity
  8
Ebene_1
 62
7
100
AcDbSpline
 70
8
 71
3
 72
8
 73
4
 74
0
 40
0
 40
0
 40
0
 40
0
 40
1
 40
1
 40
1
 40
1
 10
338.406463
 20
286.963994
 30
0.0
 10
326.359332
 20
279.909241
 30
0.0
 10
312.542164
 20
268.087436
 30
0.0
 10
304.927767
 20
258.319984
 30
0.0
  0
SPLINE
  5
11e
100
AcDbEntity
  8
Ebene_1
 62
7
100
AcDbSpline
 70
8
 71
3
 72
8
 73
4
 74
0
 40
0
 40
0
 40
0
 40
0
 40
1
 40
1
 40
1
 40
1
 10
304.927767
 20
258.319984
 30
0.0
 10
302.824800
 20
255.622365
 30
0.0
 10
300.911584
 20
253.220145
 30
0.0
 10
300.676195
 20
252.981694
 30
0.0
  0
SPLINE
  5
11f
100
AcDbEntity
  8
Ebene_1
 62
7
100
AcDbSpline
 70
8
 71
3
 72
8
 73
4
 74
0
 40
0
 40
0
 40
0
 40
0
 40
1
 40
1
 40
1
 40
1
 10
300.676195
 20
252.981694
 30
0.0
 10
300.440920
 20
252.743301
 30
0.0
 10
297.237203
 20
255.551839
 30
0.0
 10
293.557011
 20
259.223017
 30
0.0
  0
LWPOLYLINE
  5
120
100
AcDbEntity
  8
Ebene_1
 62
7
100
AcDbPolyline
 90
3
 70
0
 10
386.123244
 20
581.056911
 30
0.0
 10
402.998230
 20
585.046888
 30
0.0
 10
409.748230
 20
578.982648
 30
0.0
  0
SPLINE
  5
121
100
AcDbEntity
  8
Ebene_1
 62
7
100
AcDbSpline
 70
8
 71
3
 72
8
 73
4
 74
0
 40
0
 40
0
 40
0
 40
0
 40
1
 40
1
 40
1
 40
1
 10
324.749650
 20
307.602709
 30
0.0
 10
327.264350
 20
309.220639
 30
0.0
 10
328.970891
 20
310.816942
 30
0.0
 10
328.767506
 20
311.361024
 30
0.0
  0
SPLINE
  5
122
100
AcDbEntity
  8
Ebene_1
 62
7
100
AcDbSpline
 70
8
 71
3
 72
8
 73
4
 74
0
 40
0
 40
0
 40
0
 40
0
 40
1
 40
1
 40
1
 40
1
 10
328.767506
 20
311.361024
 30
0.0
 10
328.513238
 20
312.041197
 30
0.0
 10
307.177342
 20
343.631650
 30
0.0
 10
305.418529
 20
345.932079
 30
0.0
  0
SPLINE
  5
123
100
AcDbEntity
  8
Ebene_1
 62
7
100
AcDbSpline
 70
8
 71
3
 72
8
 73
4
 74
0
 40
0
 40
0
 40
0
 40
0
 40
1
 40
1
 40
1
 40
1
 10
305.418529
 20
345.932079
 30
0.0
 10
305.306277
 20
346.078913
 30
0.0
 10
303.678680
 20
345.096028
 30
0.0
 10
301.801606
 20
343.748013
 30
0.0
  0
LWPOLYLINE
  5
124
100
AcDbEntity
  8
Ebene_1
 62
7
100
AcDbPolyline
 90
1
 70
1
 10
293.557011
 20
259.223017
 30
0.0
  0
SPLINE
  5
125
100
AcDbEntity
  8
Ebene_1
 62
7
100
AcDbSpline
 70
8
 71
3
 72
8
 73
4
 74
0
 40
0
 40
0
 40
0
 40
0
 40
1
 40
1
 40
1
 40
1
 10
298.843682
 20
337.425987
 30
0.0
 10
299.335465
 20
333.241597
 30
0.0
 10
298.321739
 20
330.333562
 30
0.0
 10
295.472381
 20
327.754942
 30
0.0
  0
LWPOLYLINE
  5
126
100
AcDbEntity
  8
Ebene_1
 62
7
100
AcDbPolyline
 90
3
 70
0
 10
301.801606
 20
343.748013
 30
0.0
 10
298.388721
 20
341.297036
 30
0.0
 10
298.843682
 20
337.425987
 30
0.0
  0
SPLINE
  5
127
100
AcDbEntity
  8
Ebene_1
 62
7
100
AcDbSpline
 70
8
 71
3
 72
8
 73
4
 74
0
 40
0
 40
0
 40
0
 40
0
 40
1
 40
1
 40
1
 40
1
 10
296.272715
 20
323.069187
 30
0.0
 10
297.567865
 20
321.265757
 30
0.0
 10
298.823443
 20
319.791657
 30
0.0
 10
299.062885
 20
319.793414
 30
0.0
  0
SPLINE
  5
128
100
AcDbEntity
  8
Ebene_1
 62
7
100
AcDbSpline
 70
8
 71
3
 72
8
 73
4
 74
0
 40
0
 40
0
 40
0
 40
0
 40
1
 40
1
 40
1
 40
1
 10
299.062885
 20
319.793414
 30
0.0
 10
299.302413
 20
319.794917
 30
0.0
 10
300.991068
 20
320.787014
 30
0.0
 10
302.815644
 20
321.997465
 30
0.0
  0
LWPOLYLINE
  5
129
100
AcDbEntity
  8
Ebene_1
 62
7
100
AcDbPolyline
 90
3
 70
0
 10
295.472381
 20
327.754942
 30
0.0
 10
293.917946
 20
326.348192
 30
0.0
 10
296.272715
 20
323.069187
 30
0.0
  0
SPLINE
  5
12a
100
AcDbEntity
  8
Ebene_1
 62
7
100
AcDbSpline
 70
8
 71
3
 72
8
 73
4
 74
0
 40
0
 40
0
 40
0
 40
0
 40
1
 40
1
 40
1
 40
1
 10
312.795326
 20
314.494243
 30
0.0
 10
316.459616
 20
309.157030
 30
0.0
 10
319.664806
 20
304.790202
 30
0.0
 10
319.917969
 20
304.790202
 30
0.0
  0
SPLINE
  5
12b
100
AcDbEntity
  8
Ebene_1
 62
7
100
AcDbSpline
 70
8
 71
3
 72
8
 73
4
 74
0
 40
0
 40
0
 40
0
 40
0
 40
1
 40
1
 40
1
 40
1
 10
319.917969
 20
304.790202
 30
0.0
 10
320.171102
 20
304.790202
 30
0.0
 10
322.345389
 20
306.055843
 30
0.0
 10
324.749650
 20
307.602709
 30
0.0
  0
LWPOLYLINE
  5
12c
100
AcDbEntity
  8
Ebene_1
 62
7
100
AcDbPolyline
 90
3
 70
0
 10
302.815644
 20
321.997465
 30
0.0
 10
306.133030
 20
324.198283
 30
0.0
 10
312.795326
 20
314.494243
 30
0.0
  0
SPLINE
  5
12d
100
AcDbEntity
  8
Ebene_1
 62
7
100
AcDbSpline
 70
8
 71
3
 72
8
 73
4
 74
0
 40
0
 40
0
 40
0
 40
0
 40
1
 40
1
 40
1
 40
1
 10
346.003682
 20
321.553701
 30
0.0
 10
353.029521
 20
324.825449
 30
0.0
 10
356.788120
 20
331.321975
 30
0.0
 10
355.826891
 20
338.532463
 30
0.0
  0
SPLINE
  5
12e
100
AcDbEntity
  8
Ebene_1
 62
7
100
AcDbSpline
 70
8
 71
3
 72
8
 73
4
 74
0
 40
0
 40
0
 40
0
 40
0
 40
1
 40
1
 40
1
 40
1
 10
355.826891
 20
338.532463
 30
0.0
 10
354.829209
 20
346.016466
 30
0.0
 10
346.699559
 20
357.492954
 30
0.0
 10
340.259896
 20
360.508082
 30
0.0
  0
SPLINE
  5
12f
100
AcDbEntity
  8
Ebene_1
 62
7
100
AcDbSpline
 70
8
 71
3
 72
8
 73
4
 74
0
 40
0
 40
0
 40
0
 40
0
 40
1
 40
1
 40
1
 40
1
 10
340.259896
 20
360.508082
 30
0.0
 10
336.866088
 20
362.097128
 30
0.0
 10
330.944400
 20
362.161219
 30
0.0
 10
327.323112
 20
360.648113
 30
0.0
  0
SPLINE
  5
130
100
AcDbEntity
  8
Ebene_1
 62
7
100
AcDbSpline
 70
8
 71
3
 72
8
 73
4
 74
0
 40
0
 40
0
 40
0
 40
0
 40
1
 40
1
 40
1
 40
1
 10
327.323112
 20
360.648113
 30
0.0
 10
323.996542
 20
359.258173
 30
0.0
 10
318.914759
 20
354.779405
 30
0.0
 10
317.449672
 20
351.946261
 30
0.0
  0
SPLINE
  5
131
100
AcDbEntity
  8
Ebene_1
 62
7
100
AcDbSpline
 70
8
 71
3
 72
8
 73
4
 74
0
 40
0
 40
0
 40
0
 40
0
 40
1
 40
1
 40
1
 40
1
 10
317.449672
 20
351.946261
 30
0.0
 10
316.857628
 20
350.801376
 30
0.0
 10
316.373244
 20
348.315704
 30
0.0
 10
316.373244
 20
346.422529
 30
0.0
  0
SPLINE
  5
132
100
AcDbEntity
  8
Ebene_1
 62
7
100
AcDbSpline
 70
8
 71
3
 72
8
 73
4
 74
0
 40
0
 40
0
 40
0
 40
0
 40
1
 40
1
 40
1
 40
1
 10
316.373244
 20
346.422529
 30
0.0
 10
316.373244
 20
337.133820
 30
0.0
 10
325.593269
 20
329.295713
 30
0.0
 10
333.672321
 20
331.716246
 30
0.0
  0
SPLINE
  5
133
100
AcDbEntity
  8
Ebene_1
 62
7
100
AcDbSpline
 70
8
 71
3
 72
8
 73
4
 74
0
 40
0
 40
0
 40
0
 40
0
 40
1
 40
1
 40
1
 40
1
 10
333.672321
 20
331.716246
 30
0.0
 10
336.993307
 20
332.711235
 30
0.0
 10
341.556435
 20
336.360501
 30
0.0
 10
342.262885
 20
338.586350
 30
0.0
  0
SPLINE
  5
134
100
AcDbEntity
  8
Ebene_1
 62
7
100
AcDbSpline
 70
8
 71
3
 72
8
 73
4
 74
0
 40
0
 40
0
 40
0
 40
0
 40
1
 40
1
 40
1
 40
1
 10
342.262885
 20
338.586350
 30
0.0
 10
342.890306
 20
340.563118
 30
0.0
 10
343.712891
 20
340.412315
 30
0.0
 10
344.752838
 20
338.129858
 30
0.0
  0
SPLINE
  5
135
100
AcDbEntity
  8
Ebene_1
 62
7
100
AcDbSpline
 70
8
 71
3
 72
8
 73
4
 74
0
 40
0
 40
0
 40
0
 40
0
 40
1
 40
1
 40
1
 40
1
 10
344.752838
 20
338.129858
 30
0.0
 10
346.980756
 20
333.240123
 30
0.0
 10
344.732995
 20
329.060183
 30
0.0
 10
340.231833
 20
329.720882
 30
0.0
  0
SPLINE
  5
136
100
AcDbEntity
  8
Ebene_1
 62
7
100
AcDbSpline
 70
8
 71
3
 72
8
 73
4
 74
0
 40
0
 40
0
 40
0
 40
0
 40
1
 40
1
 40
1
 40
1
 10
340.231833
 20
329.720882
 30
0.0
 10
338.231282
 20
330.014523
 30
0.0
 10
337.056605
 20
329.533512
 30
0.0
 10
333.835030
 20
327.101131
 30
0.0
  0
SPLINE
  5
137
100
AcDbEntity
  8
Ebene_1
 62
7
100
AcDbSpline
 70
8
 71
3
 72
8
 73
4
 74
0
 40
0
 40
0
 40
0
 40
0
 40
1
 40
1
 40
1
 40
1
 10
333.835030
 20
327.101131
 30
0.0
 10
331.664627
 20
325.462450
 30
0.0
 10
330.090888
 20
323.794743
 30
0.0
 10
330.337871
 20
323.395143
 30
0.0
  0
SPLINE
  5
138
100
AcDbEntity
  8
Ebene_1
 62
7
100
AcDbSpline
 70
8
 71
3
 72
8
 73
4
 74
0
 40
0
 40
0
 40
0
 40
0
 40
1
 40
1
 40
1
 40
1
 10
330.337871
 20
323.395143
 30
0.0
 10
330.584769
 20
322.995543
 30
0.0
 10
331.846951
 20
322.022183
 30
0.0
 10
333.142583
 20
321.232167
 30
0.0
  0
SPLINE
  5
139
100
AcDbEntity
  8
Ebene_1
 62
7
100
AcDbSpline
 70
8
 71
3
 72
8
 73
4
 74
0
 40
0
 40
0
 40
0
 40
0
 40
1
 40
1
 40
1
 40
1
 10
333.142583
 20
321.232167
 30
0.0
 10
336.360331
 20
319.270082
 30
0.0
 10
341.368809
 20
319.395288
 30
0.0
 10
346.003682
 20
321.553644
 30
0.0
  0
LWPOLYLINE
  5
13a
100
AcDbEntity
  8
Ebene_1
 62
7
100
AcDbPolyline
 90
1
 70
1
 10
324.749650
 20
307.602709
 30
0.0
  0
SPLINE
  5
13b
100
AcDbEntity
  8
Ebene_1
 62
7
100
AcDbSpline
 70
8
 71
3
 72
8
 73
4
 74
0
 40
0
 40
0
 40
0
 40
0
 40
1
 40
1
 40
1
 40
1
 10
329.462419
 20
343.524728
 30
0.0
 10
326.172784
 20
347.074328
 30
0.0
 10
327.791991
 20
352.040202
 30
0.0
 10
332.239068
 20
352.040202
 30
0.0
  0
SPLINE
  5
13c
100
AcDbEntity
  8
Ebene_1
 62
7
100
AcDbSpline
 70
8
 71
3
 72
8
 73
4
 74
0
 40
0
 40
0
 40
0
 40
0
 40
1
 40
1
 40
1
 40
1
 10
332.239068
 20
352.040202
 30
0.0
 10
336.632570
 20
352.040202
 30
0.0
 10
339.192624
 20
345.149631
 30
0.0
 10
335.706350
 20
342.707726
 30
0.0
  0
SPLINE
  5
13d
100
AcDbEntity
  8
Ebene_1
 62
7
100
AcDbSpline
 70
8
 71
3
 72
8
 73
4
 74
0
 40
0
 40
0
 40
0
 40
0
 40
1
 40
1
 40
1
 40
1
 10
335.706350
 20
342.707726
 30
0.0
 10
333.312917
 20
341.031317
 30
0.0
 10
331.560794
 20
341.260583
 30
0.0
 10
329.462419
 20
343.524728
 30
0.0
  0
LWPOLYLINE
  5
13e
100
AcDbEntity
  8
Ebene_1
 62
7
100
AcDbPolyline
 90
1
 70
1
 10
346.003682
 20
321.553644
 30
0.0
  0
SPLINE
  5
13f
100
AcDbEntity
  8
Ebene_1
 62
7
100
AcDbSpline
 70
8
 71
3
 72
8
 73
4
 74
0
 40
0
 40
0
 40
0
 40
0
 40
1
 40
1
 40
1
 40
1
 10
308.581143
 20
413.374762
 30
0.0
 10
464.088813
 20
522.588359
 30
0.0
 10
456.196139
 20
516.922101
 30
0.0
 10
454.918876
 20
518.432428
 30
0.0
  0
SPLINE
  5
140
100
AcDbEntity
  8
Ebene_1
 62
7
100
AcDbSpline
 70
8
 71
3
 72
8
 73
4
 74
0
 40
0
 40
0
 40
0
 40
0
 40
1
 40
1
 40
1
 40
1
 10
454.918876
 20
518.432428
 30
0.0
 10
454.345455
 20
519.110447
 30
0.0
 10
451.749231
 20
522.196469
 30
0.0
 10
449.149465
 20
525.290202
 30
0.0
  0
SPLINE
  5
141
100
AcDbEntity
  8
Ebene_1
 62
7
100
AcDbSpline
 70
8
 71
3
 72
8
 73
4
 74
0
 40
0
 40
0
 40
0
 40
0
 40
1
 40
1
 40
1
 40
1
 10
449.149465
 20
525.290202
 30
0.0
 10
441.473046
 20
534.425216
 30
0.0
 10
414.951874
 20
562.298460
 30
0.0
 10
405.932145
 20
570.710752
 30
0.0
  0
LWPOLYLINE
  5
142
100
AcDbEntity
  8
Ebene_1
 62
7
100
AcDbPolyline
 90
1
 70
1
 10
329.462419
 20
343.524728
 30
0.0
  0
SPLINE
  5
143
100
AcDbEntity
  8
Ebene_1
 62
7
100
AcDbSpline
 70
8
 71
3
 72
8
 73
4
 74
0
 40
0
 40
0
 40
0
 40
0
 40
1
 40
1
 40
1
 40
1
 10
347.415506
 20
543.486869
 30
0.0
 10
319.823518
 20
524.230838
 30
0.0
 10
261.979489
 20
483.952762
 30
0.0
 10
218.873242
 20
453.980013
 30
0.0
  0
LWPOLYLINE
  5
144
100
AcDbEntity
  8
Ebene_1
 62
7
100
AcDbPolyline
 90
3
 70
0
 10
405.932145
 20
570.710752
 30
0.0
 10
397.582781
 20
578.497833
 30
0.0
 10
347.415506
 20
543.486869
 30
0.0
  0
SPLINE
  5
145
100
AcDbEntity
  8
Ebene_1
 62
7
100
AcDbSpline
 70
8
 71
3
 72
8
 73
4
 74
0
 40
0
 40
0
 40
0
 40
0
 40
1
 40
1
 40
1
 40
1
 10
140.730517
 20
396.574668
 30
0.0
 10
141.168249
 20
391.091783
 30
0.0
 10
144.674507
 20
377.957424
 30
0.0
 10
147.407896
 20
371.561329
 30
0.0
  0
SPLINE
  5
146
100
AcDbEntity
  8
Ebene_1
 62
7
100
AcDbSpline
 70
8
 71
3
 72
8
 73
4
 74
0
 40
0
 40
0
 40
0
 40
0
 40
1
 40
1
 40
1
 40
1
 10
147.407896
 20
371.561329
 30
0.0
 10
156.037147
 20
351.369014
 30
0.0
 10
168.655861
 20
338.536205
 30
0.0
 10
185.123234
 20
333.206050
 30
0.0
  0
SPLINE
  5
147
100
AcDbEntity
  8
Ebene_1
 62
7
100
AcDbSpline
 70
8
 71
3
 72
8
 73
4
 74
0
 40
0
 40
0
 40
0
 40
0
 40
1
 40
1
 40
1
 40
1
 10
185.123234
 20
333.206050
 30
0.0
 10
187.391982
 20
332.471707
 30
0.0
 10
189.960542
 20
331.852734
 30
0.0
 10
190.831144
 20
331.830539
 30
0.0
  0
SPLINE
  5
148
100
AcDbEntity
  8
Ebene_1
 62
7
100
AcDbSpline
 70
8
 71
3
 72
8
 73
4
 74
0
 40
0
 40
0
 40
0
 40
0
 40
1
 40
1
 40
1
 40
1
 10
190.831144
 20
331.830539
 30
0.0
 10
191.763060
 20
331.807861
 30
0.0
 10
240.189574
 20
365.343137
 30
0.0
 10
308.581143
 20
413.374762
 30
0.0
  0
LWPOLYLINE
  5
149
100
AcDbEntity
  8
Ebene_1
 62
7
100
AcDbPolyline
 90
3
 70
0
 10
218.873242
 20
453.980013
 30
0.0
 10
140.498246
 20
399.484120
 30
0.0
 10
140.730517
 20
396.574668
 30
0.0
  0
SPLINE
  5
14a
100
AcDbEntity
  8
Ebene_1
 62
7
100
AcDbSpline
 70
8
 71
3
 72
8
 73
4
 74
0
 40
0
 40
0
 40
0
 40
0
 40
1
 40
1
 40
1
 40
1
 10
184.903464
 20
347.145279
 30
0.0
 10
180.107512
 20
348.980797
 30
0.0
 10
178.203382
 20
350.794148
 30
0.0
 10
166.824468
 20
364.362265
 30
0.0
  0
SPLINE
  5
14b
100
AcDbEntity
  8
Ebene_1
 62
7
100
AcDbSpline
 70
8
 71
3
 72
8
 73
4
 74
0
 40
0
 40
0
 40
0
 40
0
 40
1
 40
1
 40
1
 40
1
 10
166.824468
 20
364.362265
 30
0.0
 10
155.557165
 20
377.797323
 30
0.0
 10
152.918515
 20
381.987553
 30
0.0
 10
152.889718
 20
386.490926
 30
0.0
  0
SPLINE
  5
14c
100
AcDbEntity
  8
Ebene_1
 62
7
100
AcDbSpline
 70
8
 71
3
 72
8
 73
4
 74
0
 40
0
 40
0
 40
0
 40
0
 40
1
 40
1
 40
1
 40
1
 10
152.889718
 20
386.490926
 30
0.0
 10
152.838666
 20
394.472835
 30
0.0
 10
161.908138
 20
402.709578
 30
0.0
 10
171.728597
 20
403.600054
 30
0.0
  0
SPLINE
  5
14d
100
AcDbEntity
  8
Ebene_1
 62
7
100
AcDbSpline
 70
8
 71
3
 72
8
 73
4
 74
0
 40
0
 40
0
 40
0
 40
0
 40
1
 40
1
 40
1
 40
1
 10
171.728597
 20
403.600054
 30
0.0
 10
175.419612
 20
403.934740
 30
0.0
 10
176.694466
 20
403.686794
 30
0.0
 10
180.265893
 20
401.939433
 30
0.0
  0
SPLINE
  5
14e
100
AcDbEntity
  8
Ebene_1
 62
7
100
AcDbSpline
 70
8
 71
3
 72
8
 73
4
 74
0
 40
0
 40
0
 40
0
 40
0
 40
1
 40
1
 40
1
 40
1
 10
180.265893
 20
401.939433
 30
0.0
 10
183.819574
 20
400.200775
 30
0.0
 10
185.925626
 20
398.154784
 30
0.0
 10
193.981246
 20
388.615153
 30
0.0
  0
SPLINE
  5
14f
100
AcDbEntity
  8
Ebene_1
 62
7
100
AcDbSpline
 70
8
 71
3
 72
8
 73
4
 74
0
 40
0
 40
0
 40
0
 40
0
 40
1
 40
1
 40
1
 40
1
 10
193.981246
 20
388.615153
 30
0.0
 10
199.215595
 20
382.416548
 30
0.0
 10
204.735796
 20
375.704844
 30
0.0
 10
206.248360
 20
373.700296
 30
0.0
  0
SPLINE
  5
150
100
AcDbEntity
  8
Ebene_1
 62
7
100
AcDbSpline
 70
8
 71
3
 72
8
 73
4
 74
0
 40
0
 40
0
 40
0
 40
0
 40
1
 40
1
 40
1
 40
1
 10
206.248360
 20
373.700296
 30
0.0
 10
211.678132
 20
366.504378
 30
0.0
 10
211.297209
 20
358.926917
 30
0.0
 10
205.210185
 20
353.048797
 30
0.0
  0
SPLINE
  5
151
100
AcDbEntity
  8
Ebene_1
 62
7
100
AcDbSpline
 70
8
 71
3
 72
8
 73
4
 74
0
 40
0
 40
0
 40
0
 40
0
 40
1
 40
1
 40
1
 40
1
 10
205.210185
 20
353.048797
 30
0.0
 10
199.089794
 20
347.138447
 30
0.0
 10
191.037742
 20
344.797597
 30
0.0
 10
184.903464
 20
347.145279
 30
0.0
  0
LWPOLYLINE
  5
152
100
AcDbEntity
  8
Ebene_1
 62
7
100
AcDbPolyline
 90
1
 70
1
 10
308.581143
 20
413.374762
 30
0.0
  0
SPLINE
  5
153
100
AcDbEntity
  8
Ebene_1
 62
7
100
AcDbSpline
 70
8
 71
3
 72
8
 73
4
 74
0
 40
0
 40
0
 40
0
 40
0
 40
1
 40
1
 40
1
 40
1
 10
196.185745
 20
358.973830
 30
0.0
 10
198.474729
 20
360.805124
 30
0.0
 10
197.037275
 20
363.407159
 30
0.0
 10
187.271668
 20
375.109654
 30
0.0
  0
SPLINE
  5
154
100
AcDbEntity
  8
Ebene_1
 62
7
100
AcDbSpline
 70
8
 71
3
 72
8
 73
4
 74
0
 40
0
 40
0
 40
0
 40
0
 40
1
 40
1
 40
1
 40
1
 10
187.271668
 20
375.109654
 30
0.0
 10
171.437828
 20
394.084006
 30
0.0
 10
171.107847
 20
394.343008
 30
0.0
 10
167.439838
 20
390.674976
 30
0.0
  0
SPLINE
  5
155
100
AcDbEntity
  8
Ebene_1
 62
7
100
AcDbSpline
 70
8
 71
3
 72
8
 73
4
 74
0
 40
0
 40
0
 40
0
 40
0
 40
1
 40
1
 40
1
 40
1
 10
167.439838
 20
390.674976
 30
0.0
 10
165.698799
 20
388.933965
 30
0.0
 10
165.647055
 20
388.671789
 30
0.0
 10
166.662641
 20
386.737483
 30
0.0
  0
SPLINE
  5
156
100
AcDbEntity
  8
Ebene_1
 62
7
100
AcDbSpline
 70
8
 71
3
 72
8
 73
4
 74
0
 40
0
 40
0
 40
0
 40
0
 40
1
 40
1
 40
1
 40
1
 10
166.662641
 20
386.737483
 30
0.0
 10
168.097275
 20
384.005055
 30
0.0
 10
188.405974
 20
359.952548
 30
0.0
 10
190.541327
 20
358.456904
 30
0.0
  0
SPLINE
  5
157
100
AcDbEntity
  8
Ebene_1
 62
7
100
AcDbSpline
 70
8
 71
3
 72
8
 73
4
 74
0
 40
0
 40
0
 40
0
 40
0
 40
1
 40
1
 40
1
 40
1
 10
190.541327
 20
358.456904
 30
0.0
 10
192.191547
 20
357.301049
 30
0.0
 10
194.340909
 20
357.497887
 30
0.0
 10
196.185745
 20
358.973830
 30
0.0
  0
LWPOLYLINE
  5
158
100
AcDbEntity
  8
Ebene_1
 62
7
100
AcDbPolyline
 90
1
 70
1
 10
184.903464
 20
347.145279
 30
0.0
  0
SPLINE
  5
159
100
AcDbEntity
  8
Ebene_1
 62
7
100
AcDbSpline
 70
8
 71
3
 72
8
 73
4
 74
0
 40
0
 40
0
 40
0
 40
0
 40
1
 40
1
 40
1
 40
1
 10
204.235787
 20
387.060208
 30
0.0
 10
194.342638
 20
398.837452
 30
0.0
 10
185.315128
 20
409.589660
 30
0.0
 10
184.174651
 20
410.954003
 30
0.0
  0
LWPOLYLINE
  5
15a
100
AcDbEntity
  8
Ebene_1
 62
7
100
AcDbPolyline
 90
1
 70
1
 10
196.185745
 20
358.973830
 30
0.0
  0
SPLINE
  5
15b
100
AcDbEntity
  8
Ebene_1
 62
7
100
AcDbSpline
 70
8
 71
3
 72
8
 73
4
 74
0
 40
0
 40
0
 40
0
 40
0
 40
1
 40
1
 40
1
 40
1
 10
190.924651
 20
419.758214
 30
0.0
 10
195.777626
 20
423.236183
 30
0.0
 10
200.772405
 20
426.605981
 30
0.0
 10
202.024165
 20
427.246696
 30
0.0
  0
SPLINE
  5
15c
100
AcDbEntity
  8
Ebene_1
 62
7
100
AcDbSpline
 70
8
 71
3
 72
8
 73
4
 74
0
 40
0
 40
0
 40
0
 40
0
 40
1
 40
1
 40
1
 40
1
 10
202.024165
 20
427.246696
 30
0.0
 10
208.404811
 20
430.512605
 30
0.0
 10
213.783834
 20
429.201014
 30
0.0
 10
219.362400
 20
423.018964
 30
0.0
  0
SPLINE
  5
15d
100
AcDbEntity
  8
Ebene_1
 62
7
100
AcDbSpline
 70
8
 71
3
 72
8
 73
4
 74
0
 40
0
 40
0
 40
0
 40
0
 40
1
 40
1
 40
1
 40
1
 10
219.362400
 20
423.018964
 30
0.0
 10
224.579384
 20
417.237619
 30
0.0
 10
225.879676
 20
412.907584
 30
0.0
 10
223.815614
 20
408.189543
 30
0.0
  0
SPLINE
  5
15e
100
AcDbEntity
  8
Ebene_1
 62
7
100
AcDbSpline
 70
8
 71
3
 72
8
 73
4
 74
0
 40
0
 40
0
 40
0
 40
0
 40
1
 40
1
 40
1
 40
1
 10
223.815614
 20
408.189543
 30
0.0
 10
223.351792
 20
407.129357
 30
0.0
 10
223.735337
 20
407.015291
 30
0.0
 10
226.656689
 20
407.344564
 30
0.0
  0
SPLINE
  5
15f
100
AcDbEntity
  8
Ebene_1
 62
7
100
AcDbSpline
 70
8
 71
3
 72
8
 73
4
 74
0
 40
0
 40
0
 40
0
 40
0
 40
1
 40
1
 40
1
 40
1
 10
226.656689
 20
407.344564
 30
0.0
 10
231.599693
 20
407.901713
 30
0.0
 10
233.592922
 20
407.140186
 30
0.0
 10
237.930951
 20
403.037518
 30
0.0
  0
SPLINE
  5
160
100
AcDbEntity
  8
Ebene_1
 62
7
100
AcDbSpline
 70
8
 71
3
 72
8
 73
4
 74
0
 40
0
 40
0
 40
0
 40
0
 40
1
 40
1
 40
1
 40
1
 10
237.930951
 20
403.037518
 30
0.0
 10
244.882738
 20
396.462813
 30
0.0
 10
247.172533
 20
389.697789
 30
0.0
 10
244.390978
 20
383.951849
 30
0.0
  0
SPLINE
  5
161
100
AcDbEntity
  8
Ebene_1
 62
7
100
AcDbSpline
 70
8
 71
3
 72
8
 73
4
 74
0
 40
0
 40
0
 40
0
 40
0
 40
1
 40
1
 40
1
 40
1
 10
244.390978
 20
383.951849
 30
0.0
 10
243.013912
 20
381.107225
 30
0.0
 10
241.097219
 20
379.340334
 30
0.0
 10
233.238186
 20
373.670731
 30
0.0
  0
SPLINE
  5
162
100
AcDbEntity
  8
Ebene_1
 62
7
100
AcDbSpline
 70
8
 71
3
 72
8
 73
4
 74
0
 40
0
 40
0
 40
0
 40
0
 40
1
 40
1
 40
1
 40
1
 10
233.238186
 20
373.670731
 30
0.0
 10
228.018719
 20
369.905357
 30
0.0
 10
223.405132
 20
366.559654
 30
0.0
 10
222.985786
 20
366.235852
 30
0.0
  0
SPLINE
  5
163
100
AcDbEntity
  8
Ebene_1
 62
7
100
AcDbSpline
 70
8
 71
3
 72
8
 73
4
 74
0
 40
0
 40
0
 40
0
 40
0
 40
1
 40
1
 40
1
 40
1
 10
222.985786
 20
366.235852
 30
0.0
 10
222.529671
 20
365.883647
 30
0.0
 10
214.996119
 20
374.250643
 30
0.0
 10
204.235787
 20
387.060208
 30
0.0
  0
LWPOLYLINE
  5
164
100
AcDbEntity
  8
Ebene_1
 62
7
100
AcDbPolyline
 90
3
 70
0
 10
184.174651
 20
410.954003
 30
0.0
 10
182.101056
 20
413.434658
 30
0.0
 10
190.924651
 20
419.758214
 30
0.0
  0
SPLINE
  5
165
100
AcDbEntity
  8
Ebene_1
 62
7
100
AcDbSpline
 70
8
 71
3
 72
8
 73
4
 74
0
 40
0
 40
0
 40
0
 40
0
 40
1
 40
1
 40
1
 40
1
 10
229.200562
 20
383.203672
 30
0.0
 10
233.297819
 20
386.073524
 30
0.0
 10
232.809480
 20
388.841357
 30
0.0
 10
227.182958
 20
394.639115
 30
0.0
  0
SPLINE
  5
166
100
AcDbEntity
  8
Ebene_1
 62
7
100
AcDbSpline
 70
8
 71
3
 72
8
 73
4
 74
0
 40
0
 40
0
 40
0
 40
0
 40
1
 40
1
 40
1
 40
1
 10
227.182958
 20
394.639115
 30
0.0
 10
223.712841
 20
398.214822
 30
0.0
 10
220.569945
 20
398.772992
 30
0.0
 10
217.442857
 20
396.368901
 30
0.0
  0
LWPOLYLINE
  5
167
100
AcDbEntity
  8
Ebene_1
 62
7
100
AcDbPolyline
 90
1
 70
1
 10
204.235787
 20
387.060208
 30
0.0
  0
SPLINE
  5
168
100
AcDbEntity
  8
Ebene_1
 62
7
100
AcDbSpline
 70
8
 71
3
 72
8
 73
4
 74
0
 40
0
 40
0
 40
0
 40
0
 40
1
 40
1
 40
1
 40
1
 10
221.086117
 20
388.510583
 30
0.0
 10
224.082870
 20
384.951883
 30
0.0
 10
226.760820
 20
382.040220
 30
0.0
 10
227.037121
 20
382.040220
 30
0.0
  0
SPLINE
  5
169
100
AcDbEntity
  8
Ebene_1
 62
7
100
AcDbSpline
 70
8
 71
3
 72
8
 73
4
 74
0
 40
0
 40
0
 40
0
 40
0
 40
1
 40
1
 40
1
 40
1
 10
227.037121
 20
382.040220
 30
0.0
 10
227.313414
 20
382.040220
 30
0.0
 10
228.286964
 20
382.563780
 30
0.0
 10
229.200562
 20
383.203672
 30
0.0
  0
LWPOLYLINE
  5
16a
100
AcDbEntity
  8
Ebene_1
 62
7
100
AcDbPolyline
 90
3
 70
0
 10
217.442857
 20
396.368901
 30
0.0
 10
215.637480
 20
394.980917
 30
0.0
 10
221.086117
 20
388.510583
 30
0.0
  0
SPLINE
  5
16b
100
AcDbEntity
  8
Ebene_1
 62
7
100
AcDbSpline
 70
8
 71
3
 72
8
 73
4
 74
0
 40
0
 40
0
 40
0
 40
0
 40
1
 40
1
 40
1
 40
1
 10
211.774629
 20
404.251483
 30
0.0
 10
214.304491
 20
405.909099
 30
0.0
 10
214.154490
 20
408.772318
 30
0.0
 10
211.337093
 20
412.603398
 30
0.0
  0
SPLINE
  5
16c
100
AcDbEntity
  8
Ebene_1
 62
7
100
AcDbSpline
 70
8
 71
3
 72
8
 73
4
 74
0
 40
0
 40
0
 40
0
 40
0
 40
1
 40
1
 40
1
 40
1
 10
211.337093
 20
412.603398
 30
0.0
 10
208.151700
 20
416.934850
 30
0.0
 10
205.087337
 20
417.582935
 30
0.0
 10
201.364464
 20
414.712545
 30
0.0
  0
SPLINE
  5
16d
100
AcDbEntity
  8
Ebene_1
 62
7
100
AcDbSpline
 70
8
 71
3
 72
8
 73
4
 74
0
 40
0
 40
0
 40
0
 40
0
 40
1
 40
1
 40
1
 40
1
 10
201.364464
 20
414.712545
 30
0.0
 10
200.059067
 20
413.706047
 30
0.0
 10
200.228992
 20
413.346274
 30
0.0
 10
204.364463
 20
408.360898
 30
0.0
  0
SPLINE
  5
16e
100
AcDbEntity
  8
Ebene_1
 62
7
100
AcDbSpline
 70
8
 71
3
 72
8
 73
4
 74
0
 40
0
 40
0
 40
0
 40
0
 40
1
 40
1
 40
1
 40
1
 10
204.364463
 20
408.360898
 30
0.0
 10
206.775541
 20
405.454309
 30
0.0
 10
209.013242
 20
403.068104
 30
0.0
 10
209.337129
 20
403.058211
 30
0.0
  0
SPLINE
  5
16f
100
AcDbEntity
  8
Ebene_1
 62
7
100
AcDbSpline
 70
8
 71
3
 72
8
 73
4
 74
0
 40
0
 40
0
 40
0
 40
0
 40
1
 40
1
 40
1
 40
1
 10
209.337129
 20
403.058211
 30
0.0
 10
209.661015
 20
403.046872
 30
0.0
 10
210.757890
 20
403.585285
 30
0.0
 10
211.774629
 20
404.251483
 30
0.0
  0
LWPOLYLINE
  5
170
100
AcDbEntity
  8
Ebene_1
 62
7
100
AcDbPolyline
 90
1
 70
1
 10
229.200562
 20
383.203672
 30
0.0
  0
SPLINE
  5
171
100
AcDbEntity
  8
Ebene_1
 62
7
100
AcDbSpline
 70
8
 71
3
 72
8
 73
4
 74
0
 40
0
 40
0
 40
0
 40
0
 40
1
 40
1
 40
1
 40
1
 10
238.679235
 20
413.346557
 30
0.0
 10
228.404693
 20
425.583156
 30
0.0
 10
219.444188
 20
436.292504
 30
0.0
 10
218.767005
 20
437.145080
 30
0.0
  0
SPLINE
  5
172
100
AcDbEntity
  8
Ebene_1
 62
7
100
AcDbSpline
 70
8
 71
3
 72
8
 73
4
 74
0
 40
0
 40
0
 40
0
 40
0
 40
1
 40
1
 40
1
 40
1
 10
218.767005
 20
437.145080
 30
0.0
 10
217.566420
 20
438.656598
 30
0.0
 10
217.835991
 20
438.909562
 30
0.0
 10
229.594612
 20
447.305187
 30
0.0
  0
SPLINE
  5
173
100
AcDbEntity
  8
Ebene_1
 62
7
100
AcDbSpline
 70
8
 71
3
 72
8
 73
4
 74
0
 40
0
 40
0
 40
0
 40
0
 40
1
 40
1
 40
1
 40
1
 10
229.594612
 20
447.305187
 30
0.0
 10
236.226974
 20
452.040718
 30
0.0
 10
242.056094
 20
456.016535
 30
0.0
 10
242.548206
 20
456.140353
 30
0.0
  0
SPLINE
  5
174
100
AcDbEntity
  8
Ebene_1
 62
7
100
AcDbSpline
 70
8
 71
3
 72
8
 73
4
 74
0
 40
0
 40
0
 40
0
 40
0
 40
1
 40
1
 40
1
 40
1
 10
242.548206
 20
456.140353
 30
0.0
 10
243.399495
 20
456.354652
 30
0.0
 10
250.908253
 20
448.248274
 30
0.0
 10
250.292466
 20
447.779849
 30
0.0
  0
SPLINE
  5
175
100
AcDbEntity
  8
Ebene_1
 62
7
100
AcDbSpline
 70
8
 71
3
 72
8
 73
4
 74
0
 40
0
 40
0
 40
0
 40
0
 40
1
 40
1
 40
1
 40
1
 10
250.292466
 20
447.779849
 30
0.0
 10
250.130636
 20
447.656825
 30
0.0
 10
247.045116
 20
445.448211
 30
0.0
 10
243.435742
 20
442.872028
 30
0.0
  0
SPLINE
  5
176
100
AcDbEntity
  8
Ebene_1
 62
7
100
AcDbSpline
 70
8
 71
3
 72
8
 73
4
 74
0
 40
0
 40
0
 40
0
 40
0
 40
1
 40
1
 40
1
 40
1
 10
243.435742
 20
442.872028
 30
0.0
 10
239.826368
 20
440.295846
 30
0.0
 10
236.873242
 20
437.956469
 30
0.0
 10
236.873242
 20
437.673458
 30
0.0
  0
SPLINE
  5
177
100
AcDbEntity
  8
Ebene_1
 62
7
100
AcDbSpline
 70
8
 71
3
 72
8
 73
4
 74
0
 40
0
 40
0
 40
0
 40
0
 40
1
 40
1
 40
1
 40
1
 10
236.873242
 20
437.673458
 30
0.0
 10
236.873242
 20
437.390561
 30
0.0
 10
238.594065
 20
435.057676
 30
0.0
 10
240.697290
 20
432.489487
 30
0.0
  0
LWPOLYLINE
  5
178
100
AcDbEntity
  8
Ebene_1
 62
7
100
AcDbPolyline
 90
1
 70
1
 10
211.774629
 20
404.251483
 30
0.0
  0
SPLINE
  5
179
100
AcDbEntity
  8
Ebene_1
 62
7
100
AcDbSpline
 70
8
 71
3
 72
8
 73
4
 74
0
 40
0
 40
0
 40
0
 40
0
 40
1
 40
1
 40
1
 40
1
 10
249.509789
 20
431.313506
 30
0.0
 10
252.253437
 20
433.234857
 30
0.0
 10
255.044744
 20
435.265512
 30
0.0
 10
255.712700
 20
435.826063
 30
0.0
  0
SPLINE
  5
17a
100
AcDbEntity
  8
Ebene_1
 62
7
100
AcDbSpline
 70
8
 71
3
 72
8
 73
4
 74
0
 40
0
 40
0
 40
0
 40
0
 40
1
 40
1
 40
1
 40
1
 10
255.712700
 20
435.826063
 30
0.0
 10
256.778974
 20
436.720876
 30
0.0
 10
257.398903
 20
436.300696
 30
0.0
 10
260.793485
 20
432.382280
 30
0.0
  0
LWPOLYLINE
  5
17b
100
AcDbEntity
  8
Ebene_1
 62
7
100
AcDbPolyline
 90
3
 70
0
 10
240.697290
 20
432.489487
 30
0.0
 10
244.521343
 20
427.820117
 30
0.0
 10
249.509789
 20
431.313506
 30
0.0
  0
SPLINE
  5
17c
100
AcDbEntity
  8
Ebene_1
 62
7
100
AcDbSpline
 70
8
 71
3
 72
8
 73
4
 74
0
 40
0
 40
0
 40
0
 40
0
 40
1
 40
1
 40
1
 40
1
 10
258.641532
 20
423.678104
 30
0.0
 10
255.331468
 20
421.345446
 30
0.0
 10
252.623242
 20
419.196019
 30
0.0
 10
252.623242
 20
418.901641
 30
0.0
  0
SPLINE
  5
17d
100
AcDbEntity
  8
Ebene_1
 62
7
100
AcDbSpline
 70
8
 71
3
 72
8
 73
4
 74
0
 40
0
 40
0
 40
0
 40
0
 40
1
 40
1
 40
1
 40
1
 10
252.623242
 20
418.901641
 30
0.0
 10
252.623242
 20
417.651222
 30
0.0
 10
261.142362
 20
408.232998
 30
0.0
 10
261.981972
 20
408.555184
 30
0.0
  0
SPLINE
  5
17e
100
AcDbEntity
  8
Ebene_1
 62
7
100
AcDbSpline
 70
8
 71
3
 72
8
 73
4
 74
0
 40
0
 40
0
 40
0
 40
0
 40
1
 40
1
 40
1
 40
1
 10
261.981972
 20
408.555184
 30
0.0
 10
262.488815
 20
408.749641
 30
0.0
 10
265.874474
 20
411.033912
 30
0.0
 10
269.505658
 20
413.631269
 30
0.0
  0
LWPOLYLINE
  5
17f
100
AcDbEntity
  8
Ebene_1
 62
7
100
AcDbPolyline
 90
3
 70
0
 10
260.793485
 20
432.382280
 30
0.0
 10
264.659817
 20
427.919301
 30
0.0
 10
258.641532
 20
423.678104
 30
0.0
  0
SPLINE
  5
180
100
AcDbEntity
  8
Ebene_1
 62
7
100
AcDbSpline
 70
8
 71
3
 72
8
 73
4
 74
0
 40
0
 40
0
 40
0
 40
0
 40
1
 40
1
 40
1
 40
1
 10
279.732246
 20
414.259483
 30
0.0
 10
281.725690
 20
412.007641
 30
0.0
 10
283.360414
 20
409.967773
 30
0.0
 10
283.364966
 20
409.726431
 30
0.0
  0
SPLINE
  5
181
100
AcDbEntity
  8
Ebene_1
 62
7
100
AcDbSpline
 70
8
 71
3
 72
8
 73
4
 74
0
 40
0
 40
0
 40
0
 40
0
 40
1
 40
1
 40
1
 40
1
 10
283.364966
 20
409.726431
 30
0.0
 10
283.371769
 20
409.353931
 30
0.0
 10
260.566534
 20
392.903830
 30
0.0
 10
258.179233
 20
391.559386
 30
0.0
  0
SPLINE
  5
182
100
AcDbEntity
  8
Ebene_1
 62
7
100
AcDbSpline
 70
8
 71
3
 72
8
 73
4
 74
0
 40
0
 40
0
 40
0
 40
0
 40
1
 40
1
 40
1
 40
1
 10
258.179233
 20
391.559386
 30
0.0
 10
257.717203
 20
391.299165
 30
0.0
 10
249.217880
 20
400.795398
 30
0.0
 10
238.679235
 20
413.346557
 30
0.0
  0
LWPOLYLINE
  5
183
100
AcDbEntity
  8
Ebene_1
 62
7
100
AcDbPolyline
 90
3
 70
0
 10
269.505658
 20
413.631269
 30
0.0
 10
276.107794
 20
418.353732
 30
0.0
 10
279.732246
 20
414.259483
 30
0.0
  0
SPLINE
  5
184
100
AcDbEntity
  8
Ebene_1
 62
7
100
AcDbSpline
 70
8
 71
3
 72
8
 73
4
 74
0
 40
0
 40
0
 40
0
 40
0
 40
1
 40
1
 40
1
 40
1
 10
269.500581
 20
437.211524
 30
0.0
 10
258.544993
 20
450.221272
 30
0.0
 10
249.767609
 20
461.167058
 30
0.0
 10
249.995279
 20
461.535420
 30
0.0
  0
SPLINE
  5
185
100
AcDbEntity
  8
Ebene_1
 62
7
100
AcDbSpline
 70
8
 71
3
 72
8
 73
4
 74
0
 40
0
 40
0
 40
0
 40
0
 40
1
 40
1
 40
1
 40
1
 10
249.995279
 20
461.535420
 30
0.0
 10
250.773690
 20
462.794910
 30
0.0
 10
267.721971
 20
474.407717
 30
0.0
 10
270.863067
 20
475.833855
 30
0.0
  0
SPLINE
  5
186
100
AcDbEntity
  8
Ebene_1
 62
7
100
AcDbSpline
 70
8
 71
3
 72
8
 73
4
 74
0
 40
0
 40
0
 40
0
 40
0
 40
1
 40
1
 40
1
 40
1
 10
270.863067
 20
475.833855
 30
0.0
 10
278.140241
 20
479.137833
 30
0.0
 10
285.014551
 20
476.675688
 30
0.0
 10
290.418151
 20
468.829899
 30
0.0
  0
SPLINE
  5
187
100
AcDbEntity
  8
Ebene_1
 62
7
100
AcDbSpline
 70
8
 71
3
 72
8
 73
4
 74
0
 40
0
 40
0
 40
0
 40
0
 40
1
 40
1
 40
1
 40
1
 10
290.418151
 20
468.829899
 30
0.0
 10
293.682019
 20
464.090910
 30
0.0
 10
294.229389
 20
460.175613
 30
0.0
 10
292.085433
 20
456.903553
 30
0.0
  0
LWPOLYLINE
  5
188
100
AcDbEntity
  8
Ebene_1
 62
7
100
AcDbPolyline
 90
1
 70
1
 10
238.679235
 20
413.346557
 30
0.0
  0
SPLINE
  5
189
100
AcDbEntity
  8
Ebene_1
 62
7
100
AcDbSpline
 70
8
 71
3
 72
8
 73
4
 74
0
 40
0
 40
0
 40
0
 40
0
 40
1
 40
1
 40
1
 40
1
 10
294.599480
 20
455.368450
 30
0.0
 10
296.761776
 20
455.576230
 30
0.0
 10
299.322510
 20
455.329049
 30
0.0
 10
300.633732
 20
454.785874
 30
0.0
  0
SPLINE
  5
18a
100
AcDbEntity
  8
Ebene_1
 62
7
100
AcDbSpline
 70
8
 71
3
 72
8
 73
4
 74
0
 40
0
 40
0
 40
0
 40
0
 40
1
 40
1
 40
1
 40
1
 10
300.633732
 20
454.785874
 30
0.0
 10
301.969361
 20
454.232636
 30
0.0
 10
305.726542
 20
450.465165
 30
0.0
 10
309.716957
 20
445.677761
 30
0.0
  0
SPLINE
  5
18b
100
AcDbEntity
  8
Ebene_1
 62
7
100
AcDbSpline
 70
8
 71
3
 72
8
 73
4
 74
0
 40
0
 40
0
 40
0
 40
0
 40
1
 40
1
 40
1
 40
1
 10
309.716957
 20
445.677761
 30
0.0
 10
313.459937
 20
441.187257
 30
0.0
 10
317.163798
 20
437.169883
 30
0.0
 10
317.947805
 20
436.750328
 30
0.0
  0
SPLINE
  5
18c
100
AcDbEntity
  8
Ebene_1
 62
7
100
AcDbSpline
 70
8
 71
3
 72
8
 73
4
 74
0
 40
0
 40
0
 40
0
 40
0
 40
1
 40
1
 40
1
 40
1
 10
317.947805
 20
436.750328
 30
0.0
 10
318.731783
 20
436.330743
 30
0.0
 10
319.373235
 20
435.716901
 30
0.0
 10
319.373235
 20
435.386239
 30
0.0
  0
SPLINE
  5
18d
100
AcDbEntity
  8
Ebene_1
 62
7
100
AcDbSpline
 70
8
 71
3
 72
8
 73
4
 74
0
 40
0
 40
0
 40
0
 40
0
 40
1
 40
1
 40
1
 40
1
 10
319.373235
 20
435.386239
 30
0.0
 10
319.373235
 20
434.647502
 30
0.0
 10
309.525647
 20
427.790211
 30
0.0
 10
308.464781
 20
427.790211
 30
0.0
  0
SPLINE
  5
18e
100
AcDbEntity
  8
Ebene_1
 62
7
100
AcDbSpline
 70
8
 71
3
 72
8
 73
4
 74
0
 40
0
 40
0
 40
0
 40
0
 40
1
 40
1
 40
1
 40
1
 10
308.464781
 20
427.790211
 30
0.0
 10
307.564583
 20
427.790211
 30
0.0
 10
300.877200
 20
434.613487
 30
0.0
 10
295.774271
 20
440.738646
 30
0.0
  0
SPLINE
  5
18f
100
AcDbEntity
  8
Ebene_1
 62
7
100
AcDbSpline
 70
8
 71
3
 72
8
 73
4
 74
0
 40
0
 40
0
 40
0
 40
0
 40
1
 40
1
 40
1
 40
1
 10
295.774271
 20
440.738646
 30
0.0
 10
291.487606
 20
445.884009
 30
0.0
 10
289.658891
 20
446.552617
 30
0.0
 10
286.021417
 20
444.304545
 30
0.0
  0
SPLINE
  5
190
100
AcDbEntity
  8
Ebene_1
 62
7
100
AcDbSpline
 70
8
 71
3
 72
8
 73
4
 74
0
 40
0
 40
0
 40
0
 40
0
 40
1
 40
1
 40
1
 40
1
 10
286.021417
 20
444.304545
 30
0.0
 10
284.564920
 20
443.404375
 30
0.0
 10
283.373240
 20
442.554236
 30
0.0
 10
283.373240
 20
442.415367
 30
0.0
  0
SPLINE
  5
191
100
AcDbEntity
  8
Ebene_1
 62
7
100
AcDbSpline
 70
8
 71
3
 72
8
 73
4
 74
0
 40
0
 40
0
 40
0
 40
0
 40
1
 40
1
 40
1
 40
1
 10
283.373240
 20
442.415367
 30
0.0
 10
283.373240
 20
442.276469
 30
0.0
 10
287.270901
 20
437.539153
 30
0.0
 10
292.034721
 20
431.888003
 30
0.0
  0
SPLINE
  5
192
100
AcDbEntity
  8
Ebene_1
 62
7
100
AcDbSpline
 70
8
 71
3
 72
8
 73
4
 74
0
 40
0
 40
0
 40
0
 40
0
 40
1
 40
1
 40
1
 40
1
 10
292.034721
 20
431.888003
 30
0.0
 10
296.798542
 20
426.236854
 30
0.0
 10
300.595408
 20
421.546564
 30
0.0
 10
300.472214
 20
421.465181
 30
0.0
  0
SPLINE
  5
193
100
AcDbEntity
  8
Ebene_1
 62
7
100
AcDbSpline
 70
8
 71
3
 72
8
 73
4
 74
0
 40
0
 40
0
 40
0
 40
0
 40
1
 40
1
 40
1
 40
1
 10
300.472214
 20
421.465181
 30
0.0
 10
300.348907
 20
421.383827
 30
0.0
 10
297.811843
 20
419.571213
 30
0.0
 10
294.834047
 20
417.437263
 30
0.0
  0
LWPOLYLINE
  5
194
100
AcDbEntity
  8
Ebene_1
 62
7
100
AcDbPolyline
 90
3
 70
0
 10
292.085433
 20
456.903553
 30
0.0
 10
290.843093
 20
455.007515
 30
0.0
 10
294.599480
 20
455.368450
 30
0.0
  0
SPLINE
  5
195
100
AcDbEntity
  8
Ebene_1
 62
7
100
AcDbSpline
 70
8
 71
3
 72
8
 73
4
 74
0
 40
0
 40
0
 40
0
 40
0
 40
1
 40
1
 40
1
 40
1
 10
281.723343
 20
455.690126
 30
0.0
 10
281.970184
 20
457.715424
 30
0.0
 10
278.186006
 20
463.001102
 30
0.0
 10
275.361214
 20
464.576598
 30
0.0
  0
SPLINE
  5
196
100
AcDbEntity
  8
Ebene_1
 62
7
100
AcDbSpline
 70
8
 71
3
 72
8
 73
4
 74
0
 40
0
 40
0
 40
0
 40
0
 40
1
 40
1
 40
1
 40
1
 10
275.361214
 20
464.576598
 30
0.0
 10
274.003234
 20
465.334016
 30
0.0
 10
273.244003
 20
465.240472
 30
0.0
 10
270.907152
 20
464.027754
 30
0.0
  0
SPLINE
  5
197
100
AcDbEntity
  8
Ebene_1
 62
7
100
AcDbSpline
 70
8
 71
3
 72
8
 73
4
 74
0
 40
0
 40
0
 40
0
 40
0
 40
1
 40
1
 40
1
 40
1
 10
270.907152
 20
464.027754
 30
0.0
 10
269.357780
 20
463.223707
 30
0.0
 10
267.966876
 20
462.196120
 30
0.0
 10
267.816251
 20
461.744249
 30
0.0
  0
SPLINE
  5
198
100
AcDbEntity
  8
Ebene_1
 62
7
100
AcDbSpline
 70
8
 71
3
 72
8
 73
4
 74
0
 40
0
 40
0
 40
0
 40
0
 40
1
 40
1
 40
1
 40
1
 10
267.816251
 20
461.744249
 30
0.0
 10
267.665618
 20
461.292378
 30
0.0
 10
269.617453
 20
458.511704
 30
0.0
 10
272.153645
 20
455.564948
 30
0.0
  0
LWPOLYLINE
  5
199
100
AcDbEntity
  8
Ebene_1
 62
7
100
AcDbPolyline
 90
3
 70
0
 10
294.834047
 20
417.437263
 30
0.0
 10
289.419817
 20
413.557398
 30
0.0
 10
269.500581
 20
437.211524
 30
0.0
  0
SPLINE
  5
19a
100
AcDbEntity
  8
Ebene_1
 62
7
100
AcDbSpline
 70
8
 71
3
 72
8
 73
4
 74
0
 40
0
 40
0
 40
0
 40
0
 40
1
 40
1
 40
1
 40
1
 10
279.131570
 20
452.025184
 30
0.0
 10
280.433239
 20
453.025077
 30
0.0
 10
281.599534
 20
454.674274
 30
0.0
 10
281.723343
 20
455.690126
 30
0.0
  0
LWPOLYLINE
  5
19b
100
AcDbEntity
  8
Ebene_1
 62
7
100
AcDbPolyline
 90
3
 70
0
 10
272.153645
 20
455.564948
 30
0.0
 10
276.764893
 20
450.207213
 30
0.0
 10
279.131570
 20
452.025184
 30
0.0
  0
SPLINE
  5
19c
100
AcDbEntity
  8
Ebene_1
 62
7
100
AcDbSpline
 70
8
 71
3
 72
8
 73
4
 74
0
 40
0
 40
0
 40
0
 40
0
 40
1
 40
1
 40
1
 40
1
 10
304.748249
 20
462.438397
 30
0.0
 10
294.023225
 20
475.265962
 30
0.0
 10
285.248239
 20
486.037928
 30
0.0
 10
285.248239
 20
486.376101
 30
0.0
  0
SPLINE
  5
19d
100
AcDbEntity
  8
Ebene_1
 62
7
100
AcDbSpline
 70
8
 71
3
 72
8
 73
4
 74
0
 40
0
 40
0
 40
0
 40
0
 40
1
 40
1
 40
1
 40
1
 10
285.248239
 20
486.376101
 30
0.0
 10
285.248239
 20
487.320661
 30
0.0
 10
302.014148
 20
498.996510
 30
0.0
 10
306.248230
 20
501.000605
 30
0.0
  0
SPLINE
  5
19e
100
AcDbEntity
  8
Ebene_1
 62
7
100
AcDbSpline
 70
8
 71
3
 72
8
 73
4
 74
0
 40
0
 40
0
 40
0
 40
0
 40
1
 40
1
 40
1
 40
1
 10
306.248230
 20
501.000605
 30
0.0
 10
313.156233
 20
504.270312
 30
0.0
 10
317.620176
 20
503.114287
 30
0.0
 10
323.677049
 20
496.487083
 30
0.0
  0
SPLINE
  5
19f
100
AcDbEntity
  8
Ebene_1
 62
7
100
AcDbSpline
 70
8
 71
3
 72
8
 73
4
 74
0
 40
0
 40
0
 40
0
 40
0
 40
1
 40
1
 40
1
 40
1
 10
323.677049
 20
496.487083
 30
0.0
 10
328.576876
 20
491.125890
 30
0.0
 10
329.745657
 20
487.731713
 30
0.0
 10
328.071572
 20
483.725055
 30
0.0
  0
SPLINE
  5
1a0
100
AcDbEntity
  8
Ebene_1
 62
7
100
AcDbSpline
 70
8
 71
3
 72
8
 73
4
 74
0
 40
0
 40
0
 40
0
 40
0
 40
1
 40
1
 40
1
 40
1
 10
328.071572
 20
483.725055
 30
0.0
 10
327.412488
 20
482.147631
 30
0.0
 10
326.873225
 20
480.779036
 30
0.0
 10
326.873225
 20
480.683707
 30
0.0
  0
SPLINE
  5
1a1
100
AcDbEntity
  8
Ebene_1
 62
7
100
AcDbSpline
 70
8
 71
3
 72
8
 73
4
 74
0
 40
0
 40
0
 40
0
 40
0
 40
1
 40
1
 40
1
 40
1
 10
326.873225
 20
480.683707
 30
0.0
 10
326.873225
 20
480.588463
 30
0.0
 10
328.476359
 20
480.650542
 30
0.0
 10
330.435723
 20
480.821471
 30
0.0
  0
SPLINE
  5
1a2
100
AcDbEntity
  8
Ebene_1
 62
7
100
AcDbSpline
 70
8
 71
3
 72
8
 73
4
 74
0
 40
0
 40
0
 40
0
 40
0
 40
1
 40
1
 40
1
 40
1
 10
330.435723
 20
480.821471
 30
0.0
 10
335.444513
 20
481.258800
 30
0.0
 10
337.522706
 20
479.820189
 30
0.0
 10
345.588945
 20
470.331723
 30
0.0
  0
SPLINE
  5
1a3
100
AcDbEntity
  8
Ebene_1
 62
7
100
AcDbSpline
 70
8
 71
3
 72
8
 73
4
 74
0
 40
0
 40
0
 40
0
 40
0
 40
1
 40
1
 40
1
 40
1
 10
345.588945
 20
470.331723
 30
0.0
 10
349.368491
 20
465.885808
 30
0.0
 10
353.082529
 20
461.859959
 30
0.0
 10
353.842413
 20
461.385411
 30
0.0
  0
SPLINE
  5
1a4
100
AcDbEntity
  8
Ebene_1
 62
7
100
AcDbSpline
 70
8
 71
3
 72
8
 73
4
 74
0
 40
0
 40
0
 40
0
 40
0
 40
1
 40
1
 40
1
 40
1
 10
353.842413
 20
461.385411
 30
0.0
 10
355.079367
 20
460.612913
 30
0.0
 10
354.640904
 20
460.104180
 30
0.0
 10
349.654677
 20
456.526517
 30
0.0
  0
SPLINE
  5
1a5
100
AcDbEntity
  8
Ebene_1
 62
7
100
AcDbSpline
 70
8
 71
3
 72
8
 73
4
 74
0
 40
0
 40
0
 40
0
 40
0
 40
1
 40
1
 40
1
 40
1
 10
349.654677
 20
456.526517
 30
0.0
 10
344.250113
 20
452.648693
 30
0.0
 10
344.030967
 20
452.566091
 30
0.0
 10
342.247408
 20
453.734731
 30
0.0
  0
SPLINE
  5
1a6
100
AcDbEntity
  8
Ebene_1
 62
7
100
AcDbSpline
 70
8
 71
3
 72
8
 73
4
 74
0
 40
0
 40
0
 40
0
 40
0
 40
1
 40
1
 40
1
 40
1
 10
342.247408
 20
453.734731
 30
0.0
 10
341.236545
 20
454.397074
 30
0.0
 10
337.993228
 20
457.858630
 30
0.0
 10
335.040038
 20
461.427109
 30
0.0
  0
SPLINE
  5
1a7
100
AcDbEntity
  8
Ebene_1
 62
7
100
AcDbSpline
 70
8
 71
3
 72
8
 73
4
 74
0
 40
0
 40
0
 40
0
 40
0
 40
1
 40
1
 40
1
 40
1
 10
335.040038
 20
461.427109
 30
0.0
 10
332.086847
 20
464.995559
 30
0.0
 10
329.003802
 20
468.505843
 30
0.0
 10
328.188813
 20
469.227713
 30
0.0
  0
SPLINE
  5
1a8
100
AcDbEntity
  8
Ebene_1
 62
7
100
AcDbSpline
 70
8
 71
3
 72
8
 73
4
 74
0
 40
0
 40
0
 40
0
 40
0
 40
1
 40
1
 40
1
 40
1
 10
328.188813
 20
469.227713
 30
0.0
 10
326.201074
 20
470.988425
 30
0.0
 10
323.013317
 20
470.884592
 30
0.0
 10
320.592387
 20
468.980249
 30
0.0
  0
LWPOLYLINE
  5
1a9
100
AcDbEntity
  8
Ebene_1
 62
7
100
AcDbPolyline
 90
1
 70
1
 10
281.723343
 20
455.690126
 30
0.0
  0
SPLINE
  5
1aa
100
AcDbEntity
  8
Ebene_1
 62
7
100
AcDbSpline
 70
8
 71
3
 72
8
 73
4
 74
0
 40
0
 40
0
 40
0
 40
0
 40
1
 40
1
 40
1
 40
1
 10
326.308706
 20
458.292756
 30
0.0
 10
330.543383
 20
453.272598
 30
0.0
 10
334.438271
 20
448.611676
 30
0.0
 10
334.964041
 20
447.935187
 30
0.0
  0
SPLINE
  5
1ab
100
AcDbEntity
  8
Ebene_1
 62
7
100
AcDbSpline
 70
8
 71
3
 72
8
 73
4
 74
0
 40
0
 40
0
 40
0
 40
0
 40
1
 40
1
 40
1
 40
1
 10
334.964041
 20
447.935187
 30
0.0
 10
335.796151
 20
446.864485
 30
0.0
 10
335.291187
 20
446.256510
 30
0.0
 10
331.065128
 20
443.240844
 30
0.0
  0
SPLINE
  5
1ac
100
AcDbEntity
  8
Ebene_1
 62
7
100
AcDbSpline
 70
8
 71
3
 72
8
 73
4
 74
0
 40
0
 40
0
 40
0
 40
0
 40
1
 40
1
 40
1
 40
1
 10
331.065128
 20
443.240844
 30
0.0
 10
328.394948
 20
441.335452
 30
0.0
 10
325.768819
 20
439.627776
 30
0.0
 10
325.229272
 20
439.446019
 30
0.0
  0
SPLINE
  5
1ad
100
AcDbEntity
  8
Ebene_1
 62
7
100
AcDbSpline
 70
8
 71
3
 72
8
 73
4
 74
0
 40
0
 40
0
 40
0
 40
0
 40
1
 40
1
 40
1
 40
1
 10
325.229272
 20
439.446019
 30
0.0
 10
324.648397
 20
439.250428
 30
0.0
 10
316.294157
 20
448.628939
 30
0.0
 10
304.748249
 20
462.438369
 30
0.0
  0
LWPOLYLINE
  5
1ae
100
AcDbEntity
  8
Ebene_1
 62
7
100
AcDbPolyline
 90
3
 70
0
 10
320.592387
 20
468.980249
 30
0.0
 10
318.609269
 20
467.420343
 30
0.0
 10
326.308706
 20
458.292756
 30
0.0
  0
SPLINE
  5
1af
100
AcDbEntity
  8
Ebene_1
 62
7
100
AcDbSpline
 70
8
 71
3
 72
8
 73
4
 74
0
 40
0
 40
0
 40
0
 40
0
 40
1
 40
1
 40
1
 40
1
 10
315.068400
 20
477.695565
 30
0.0
 10
317.898567
 20
480.319852
 30
0.0
 10
317.653030
 20
482.477159
 30
0.0
 10
314.059493
 20
486.559616
 30
0.0
  0
SPLINE
  5
1b0
100
AcDbEntity
  8
Ebene_1
 62
7
100
AcDbSpline
 70
8
 71
3
 72
8
 73
4
 74
0
 40
0
 40
0
 40
0
 40
0
 40
1
 40
1
 40
1
 40
1
 10
314.059493
 20
486.559616
 30
0.0
 10
310.510602
 20
490.591361
 30
0.0
 10
308.227294
 20
491.016189
 30
0.0
 10
304.808712
 20
488.280813
 30
0.0
  0
LWPOLYLINE
  5
1b1
100
AcDbEntity
  8
Ebene_1
 62
7
100
AcDbPolyline
 90
1
 70
1
 10
304.748249
 20
462.438369
 30
0.0
  0
SPLINE
  5
1b2
100
AcDbEntity
  8
Ebene_1
 62
7
100
AcDbSpline
 70
8
 71
3
 72
8
 73
4
 74
0
 40
0
 40
0
 40
0
 40
0
 40
1
 40
1
 40
1
 40
1
 10
307.058712
 20
481.177531
 30
0.0
 10
309.500447
 20
478.234290
 30
0.0
 10
311.839200
 20
475.818094
 30
0.0
 10
312.255893
 20
475.808202
 30
0.0
  0
SPLINE
  5
1b3
100
AcDbEntity
  8
Ebene_1
 62
7
100
AcDbSpline
 70
8
 71
3
 72
8
 73
4
 74
0
 40
0
 40
0
 40
0
 40
0
 40
1
 40
1
 40
1
 40
1
 10
312.255893
 20
475.808202
 30
0.0
 10
312.672614
 20
475.799698
 30
0.0
 10
313.938255
 20
476.647625
 30
0.0
 10
315.068400
 20
477.695565
 30
0.0
  0
LWPOLYLINE
  5
1b4
100
AcDbEntity
  8
Ebene_1
 62
7
100
AcDbPolyline
 90
3
 70
0
 10
304.808712
 20
488.280813
 30
0.0
 10
302.619231
 20
486.528860
 30
0.0
 10
307.058712
 20
481.177531
 30
0.0
  0
SPLINE
  5
1b5
100
AcDbEntity
  8
Ebene_1
 62
7
100
AcDbSpline
 70
8
 71
3
 72
8
 73
4
 74
0
 40
0
 40
0
 40
0
 40
0
 40
1
 40
1
 40
1
 40
1
 10
340.519096
 20
487.930847
 30
0.0
 10
329.713880
 20
500.795717
 30
0.0
 10
320.873244
 20
511.534460
 30
0.0
 10
320.873244
 20
511.794765
 30
0.0
  0
SPLINE
  5
1b6
100
AcDbEntity
  8
Ebene_1
 62
7
100
AcDbSpline
 70
8
 71
3
 72
8
 73
4
 74
0
 40
0
 40
0
 40
0
 40
0
 40
1
 40
1
 40
1
 40
1
 10
320.873244
 20
511.794765
 30
0.0
 10
320.873244
 20
512.269257
 30
0.0
 10
330.127342
 20
519.135562
 30
0.0
 10
331.232683
 20
519.481247
 30
0.0
  0
SPLINE
  5
1b7
100
AcDbEntity
  8
Ebene_1
 62
7
100
AcDbSpline
 70
8
 71
3
 72
8
 73
4
 74
0
 40
0
 40
0
 40
0
 40
0
 40
1
 40
1
 40
1
 40
1
 10
331.232683
 20
519.481247
 30
0.0
 10
331.893071
 20
519.687893
 30
0.0
 10
334.305411
 20
516.917594
 30
0.0
 10
356.315046
 20
490.678639
 30
0.0
  0
LWPOLYLINE
  5
1b8
100
AcDbEntity
  8
Ebene_1
 62
7
100
AcDbPolyline
 90
1
 70
1
 10
315.068400
 20
477.695565
 30
0.0
  0
SPLINE
  5
1b9
100
AcDbEntity
  8
Ebene_1
 62
7
100
AcDbSpline
 70
8
 71
3
 72
8
 73
4
 74
0
 40
0
 40
0
 40
0
 40
0
 40
1
 40
1
 40
1
 40
1
 10
366.287471
 20
468.366123
 30
0.0
 10
363.243572
 20
466.261880
 30
0.0
 10
360.620759
 20
464.540202
 30
0.0
 10
360.459014
 20
464.540202
 30
0.0
  0
SPLINE
  5
1ba
100
AcDbEntity
  8
Ebene_1
 62
7
100
AcDbSpline
 70
8
 71
3
 72
8
 73
4
 74
0
 40
0
 40
0
 40
0
 40
0
 40
1
 40
1
 40
1
 40
1
 10
360.459014
 20
464.540202
 30
0.0
 10
360.297156
 20
464.540202
 30
0.0
 10
351.324312
 20
475.066006
 30
0.0
 10
340.519096
 20
487.930847
 30
0.0
  0
LWPOLYLINE
  5
1bb
100
AcDbEntity
  8
Ebene_1
 62
7
100
AcDbPolyline
 90
3
 70
0
 10
356.315046
 20
490.678639
 30
0.0
 10
371.821861
 20
472.192044
 30
0.0
 10
366.287471
 20
468.366123
 30
0.0
  0
SPLINE
  5
1bc
100
AcDbEntity
  8
Ebene_1
 62
7
100
AcDbSpline
 70
8
 71
3
 72
8
 73
4
 74
0
 40
0
 40
0
 40
0
 40
0
 40
1
 40
1
 40
1
 40
1
 10
357.998230
 20
499.931065
 30
0.0
 10
347.273235
 20
512.743380
 30
0.0
 10
338.498249
 20
523.588706
 30
0.0
 10
338.498249
 20
524.031789
 30
0.0
  0
SPLINE
  5
1bd
100
AcDbEntity
  8
Ebene_1
 62
7
100
AcDbSpline
 70
8
 71
3
 72
8
 73
4
 74
0
 40
0
 40
0
 40
0
 40
0
 40
1
 40
1
 40
1
 40
1
 10
338.498249
 20
524.031789
 30
0.0
 10
338.498249
 20
524.474901
 30
0.0
 10
344.066995
 20
528.830164
 30
0.0
 10
350.873235
 20
533.710148
 30
0.0
  0
LWPOLYLINE
  5
1be
100
AcDbEntity
  8
Ebene_1
 62
7
100
AcDbPolyline
 90
1
 70
1
 10
340.519096
 20
487.930847
 30
0.0
  0
SPLINE
  5
1bf
100
AcDbEntity
  8
Ebene_1
 62
7
100
AcDbSpline
 70
8
 71
3
 72
8
 73
4
 74
0
 40
0
 40
0
 40
0
 40
0
 40
1
 40
1
 40
1
 40
1
 10
364.984214
 20
540.499039
 30
0.0
 10
368.683398
 20
536.058624
 30
0.0
 10
370.570535
 20
533.490378
 30
0.0
 10
370.290331
 20
533.277694
 30
0.0
  0
SPLINE
  5
1c0
100
AcDbEntity
  8
Ebene_1
 62
7
100
AcDbSpline
 70
8
 71
3
 72
8
 73
4
 74
0
 40
0
 40
0
 40
0
 40
0
 40
1
 40
1
 40
1
 40
1
 10
370.290331
 20
533.277694
 30
0.0
 10
370.129606
 20
533.155805
 30
0.0
 10
367.045115
 20
530.948211
 30
0.0
 10
363.435732
 20
528.372028
 30
0.0
  0
SPLINE
  5
1c1
100
AcDbEntity
  8
Ebene_1
 62
7
100
AcDbSpline
 70
8
 71
3
 72
8
 73
4
 74
0
 40
0
 40
0
 40
0
 40
0
 40
1
 40
1
 40
1
 40
1
 10
363.435732
 20
528.372028
 30
0.0
 10
359.826350
 20
525.795846
 30
0.0
 10
356.873244
 20
523.509959
 30
0.0
 10
356.873244
 20
523.292287
 30
0.0
  0
SPLINE
  5
1c2
100
AcDbEntity
  8
Ebene_1
 62
7
100
AcDbSpline
 70
8
 71
3
 72
8
 73
4
 74
0
 40
0
 40
0
 40
0
 40
0
 40
1
 40
1
 40
1
 40
1
 10
356.873244
 20
523.292287
 30
0.0
 10
356.873244
 20
522.434693
 30
0.0
 10
364.048951
 20
514.122803
 30
0.0
 10
364.823830
 20
514.082806
 30
0.0
  0
SPLINE
  5
1c3
100
AcDbEntity
  8
Ebene_1
 62
7
100
AcDbSpline
 70
8
 71
3
 72
8
 73
4
 74
0
 40
0
 40
0
 40
0
 40
0
 40
1
 40
1
 40
1
 40
1
 10
364.823830
 20
514.082806
 30
0.0
 10
365.277912
 20
514.060129
 30
0.0
 10
368.265345
 20
515.917162
 30
0.0
 10
371.462570
 20
518.211184
 30
0.0
  0
LWPOLYLINE
  5
1c4
100
AcDbEntity
  8
Ebene_1
 62
7
100
AcDbPolyline
 90
3
 70
0
 10
350.873235
 20
533.710148
 30
0.0
 10
363.248249
 20
542.582844
 30
0.0
 10
364.984214
 20
540.499039
 30
0.0
  0
SPLINE
  5
1c5
100
AcDbEntity
  8
Ebene_1
 62
7
100
AcDbSpline
 70
8
 71
3
 72
8
 73
4
 74
0
 40
0
 40
0
 40
0
 40
0
 40
1
 40
1
 40
1
 40
1
 10
380.011946
 20
519.207279
 30
0.0
 10
385.271773
 20
513.104400
 30
0.0
 10
385.372942
 20
513.849288
 30
0.0
 10
378.643833
 20
509.134082
 30
0.0
  0
SPLINE
  5
1c6
100
AcDbEntity
  8
Ebene_1
 62
7
100
AcDbSpline
 70
8
 71
3
 72
8
 73
4
 74
0
 40
0
 40
0
 40
0
 40
0
 40
1
 40
1
 40
1
 40
1
 10
378.643833
 20
509.134082
 30
0.0
 10
375.332513
 20
506.813783
 30
0.0
 10
372.623244
 20
504.728391
 30
0.0
 10
372.623244
 20
504.499918
 30
0.0
  0
SPLINE
  5
1c7
100
AcDbEntity
  8
Ebene_1
 62
7
100
AcDbSpline
 70
8
 71
3
 72
8
 73
4
 74
0
 40
0
 40
0
 40
0
 40
0
 40
1
 40
1
 40
1
 40
1
 10
372.623244
 20
504.499918
 30
0.0
 10
372.623244
 20
503.559978
 30
0.0
 10
381.192633
 20
494.171490
 30
0.0
 10
381.982762
 20
494.245757
 30
0.0
  0
SPLINE
  5
1c8
100
AcDbEntity
  8
Ebene_1
 62
7
100
AcDbSpline
 70
8
 71
3
 72
8
 73
4
 74
0
 40
0
 40
0
 40
0
 40
0
 40
1
 40
1
 40
1
 40
1
 10
381.982762
 20
494.245757
 30
0.0
 10
382.454050
 20
494.289978
 30
0.0
 10
385.894715
 20
496.536661
 30
0.0
 10
389.628652
 20
499.238249
 30
0.0
  0
LWPOLYLINE
  5
1c9
100
AcDbEntity
  8
Ebene_1
 62
7
100
AcDbPolyline
 90
3
 70
0
 10
371.462570
 20
518.211184
 30
0.0
 10
377.275663
 20
522.382139
 30
0.0
 10
380.011946
 20
519.207279
 30
0.0
  0
SPLINE
  5
1ca
100
AcDbEntity
  8
Ebene_1
 62
7
100
AcDbSpline
 70
8
 71
3
 72
8
 73
4
 74
0
 40
0
 40
0
 40
0
 40
0
 40
1
 40
1
 40
1
 40
1
 10
399.895427
 20
500.013808
 30
0.0
 10
401.808217
 20
497.738806
 30
0.0
 10
403.373225
 20
495.632211
 30
0.0
 10
403.373225
 20
495.332532
 30
0.0
  0
SPLINE
  5
1cb
100
AcDbEntity
  8
Ebene_1
 62
7
100
AcDbSpline
 70
8
 71
3
 72
8
 73
4
 74
0
 40
0
 40
0
 40
0
 40
0
 40
1
 40
1
 40
1
 40
1
 10
403.373225
 20
495.332532
 30
0.0
 10
403.373225
 20
494.860309
 30
0.0
 10
379.092359
 20
477.150605
 30
0.0
 10
377.930750
 20
476.775581
 30
0.0
  0
SPLINE
  5
1cc
100
AcDbEntity
  8
Ebene_1
 62
7
100
AcDbSpline
 70
8
 71
3
 72
8
 73
4
 74
0
 40
0
 40
0
 40
0
 40
0
 40
1
 40
1
 40
1
 40
1
 10
377.930750
 20
476.775581
 30
0.0
 10
377.692923
 20
476.698762
 30
0.0
 10
368.723225
 20
487.118750
 30
0.0
 10
357.998230
 20
499.931065
 30
0.0
  0
LWPOLYLINE
  5
1cd
100
AcDbEntity
  8
Ebene_1
 62
7
100
AcDbPolyline
 90
3
 70
0
 10
389.628652
 20
499.238249
 30
0.0
 10
396.417628
 20
504.150208
 30
0.0
 10
399.895427
 20
500.013808
 30
0.0
  0
SPLINE
  5
1ce
100
AcDbEntity
  8
Ebene_1
 62
7
100
AcDbSpline
 70
8
 71
3
 72
8
 73
4
 74
0
 40
0
 40
0
 40
0
 40
0
 40
1
 40
1
 40
1
 40
1
 10
390.902230
 20
521.373713
 30
0.0
 10
380.642513
 20
533.583184
 30
0.0
 10
371.652094
 20
544.328816
 30
0.0
 10
370.923477
 20
545.252882
 30
0.0
  0
SPLINE
  5
1cf
100
AcDbEntity
  8
Ebene_1
 62
7
100
AcDbSpline
 70
8
 71
3
 72
8
 73
4
 74
0
 40
0
 40
0
 40
0
 40
0
 40
1
 40
1
 40
1
 40
1
 10
370.923477
 20
545.252882
 30
0.0
 10
369.599443
 20
546.932069
 30
0.0
 10
369.603638
 20
546.936520
 30
0.0
 10
378.709824
 20
553.477408
 30
0.0
  0
SPLINE
  5
1d0
100
AcDbEntity
  8
Ebene_1
 62
7
100
AcDbSpline
 70
8
 71
3
 72
8
 73
4
 74
0
 40
0
 40
0
 40
0
 40
0
 40
1
 40
1
 40
1
 40
1
 10
378.709824
 20
553.477408
 30
0.0
 10
389.439723
 20
561.184608
 30
0.0
 10
392.513471
 20
562.790214
 30
0.0
 10
396.538186
 20
562.790214
 30
0.0
  0
SPLINE
  5
1d1
100
AcDbEntity
  8
Ebene_1
 62
7
100
AcDbSpline
 70
8
 71
3
 72
8
 73
4
 74
0
 40
0
 40
0
 40
0
 40
0
 40
1
 40
1
 40
1
 40
1
 10
396.538186
 20
562.790214
 30
0.0
 10
400.251713
 20
562.790214
 30
0.0
 10
402.924756
 20
561.800928
 30
0.0
 10
405.840614
 20
559.347395
 30
0.0
  0
SPLINE
  5
1d2
100
AcDbEntity
  8
Ebene_1
 62
7
100
AcDbSpline
 70
8
 71
3
 72
8
 73
4
 74
0
 40
0
 40
0
 40
0
 40
0
 40
1
 40
1
 40
1
 40
1
 10
405.840614
 20
559.347395
 30
0.0
 10
408.860079
 20
556.806671
 30
0.0
 10
430.177606
 20
531.515395
 30
0.0
 10
431.702022
 20
528.665216
 30
0.0
  0
SPLINE
  5
1d3
100
AcDbEntity
  8
Ebene_1
 62
7
100
AcDbSpline
 70
8
 71
3
 72
8
 73
4
 74
0
 40
0
 40
0
 40
0
 40
0
 40
1
 40
1
 40
1
 40
1
 10
431.702022
 20
528.665216
 30
0.0
 10
432.363883
 20
527.427723
 30
0.0
 10
432.914258
 20
524.669216
 30
0.0
 10
432.925030
 20
522.535238
 30
0.0
  0
SPLINE
  5
1d4
100
AcDbEntity
  8
Ebene_1
 62
7
100
AcDbSpline
 70
8
 71
3
 72
8
 73
4
 74
0
 40
0
 40
0
 40
0
 40
0
 40
1
 40
1
 40
1
 40
1
 10
432.925030
 20
522.535238
 30
0.0
 10
432.956494
 20
516.301597
 30
0.0
 10
431.776290
 20
515.021443
 30
0.0
 10
414.902211
 20
502.987294
 30
0.0
  0
LWPOLYLINE
  5
1d5
100
AcDbEntity
  8
Ebene_1
 62
7
100
AcDbPolyline
 90
1
 70
1
 10
357.998230
 20
499.931065
 30
0.0
  0
SPLINE
  5
1d6
100
AcDbEntity
  8
Ebene_1
 62
7
100
AcDbSpline
 70
8
 71
3
 72
8
 73
4
 74
0
 40
0
 40
0
 40
0
 40
0
 40
1
 40
1
 40
1
 40
1
 10
417.282321
 20
517.381115
 30
0.0
 10
420.540123
 20
520.638917
 30
0.0
 10
419.901902
 20
521.965928
 30
0.0
 10
408.553398
 20
535.530954
 30
0.0
  0
SPLINE
  5
1d7
100
AcDbEntity
  8
Ebene_1
 62
7
100
AcDbSpline
 70
8
 71
3
 72
8
 73
4
 74
0
 40
0
 40
0
 40
0
 40
0
 40
1
 40
1
 40
1
 40
1
 10
408.553398
 20
535.530954
 30
0.0
 10
396.789024
 20
549.593036
 30
0.0
 10
396.333808
 20
550.040202
 30
0.0
 10
393.783109
 20
550.040202
 30
0.0
  0
SPLINE
  5
1d8
100
AcDbEntity
  8
Ebene_1
 62
7
100
AcDbSpline
 70
8
 71
3
 72
8
 73
4
 74
0
 40
0
 40
0
 40
0
 40
0
 40
1
 40
1
 40
1
 40
1
 10
393.783109
 20
550.040202
 30
0.0
 10
391.780517
 20
550.040202
 30
0.0
 10
387.498784
 20
547.781783
 30
0.0
 10
387.803537
 20
546.886290
 30
0.0
  0
SPLINE
  5
1d9
100
AcDbEntity
  8
Ebene_1
 62
7
100
AcDbSpline
 70
8
 71
3
 72
8
 73
4
 74
0
 40
0
 40
0
 40
0
 40
0
 40
1
 40
1
 40
1
 40
1
 10
387.803537
 20
546.886290
 30
0.0
 10
388.255975
 20
545.556954
 30
0.0
 10
413.999150
 20
515.540211
 30
0.0
 10
414.686806
 20
515.540211
 30
0.0
  0
SPLINE
  5
1da
100
AcDbEntity
  8
Ebene_1
 62
7
100
AcDbSpline
 70
8
 71
3
 72
8
 73
4
 74
0
 40
0
 40
0
 40
0
 40
0
 40
1
 40
1
 40
1
 40
1
 10
414.686806
 20
515.540211
 30
0.0
 10
415.101827
 20
515.540211
 30
0.0
 10
416.269814
 20
516.368636
 30
0.0
 10
417.282321
 20
517.381115
 30
0.0
  0
LWPOLYLINE
  5
1db
100
AcDbEntity
  8
Ebene_1
 62
7
100
AcDbPolyline
 90
3
 70
0
 10
414.902211
 20
502.987294
 30
0.0
 10
409.556211
 20
499.174639
 30
0.0
 10
390.902230
 20
521.373713
 30
0.0
  0
SPLINE
  5
1dc
100
AcDbEntity
  8
Ebene_1
 62
7
100
AcDbSpline
 70
8
 71
3
 72
8
 73
4
 74
0
 40
0
 40
0
 40
0
 40
0
 40
1
 40
1
 40
1
 40
1
 10
378.241313
 20
343.377128
 30
0.0
 10
386.372551
 20
348.977339
 30
0.0
 10
388.695628
 20
356.893965
 30
0.0
 10
384.372425
 20
364.270961
 30
0.0
  0
SPLINE
  5
1dd
100
AcDbEntity
  8
Ebene_1
 62
7
100
AcDbSpline
 70
8
 71
3
 72
8
 73
4
 74
0
 40
0
 40
0
 40
0
 40
0
 40
1
 40
1
 40
1
 40
1
 10
384.372425
 20
364.270961
 30
0.0
 10
379.205943
 20
373.086907
 30
0.0
 10
368.812290
 20
374.169061
 30
0.0
 10
362.152885
 20
366.584372
 30
0.0
  0
SPLINE
  5
1de
100
AcDbEntity
  8
Ebene_1
 62
7
100
AcDbSpline
 70
8
 71
3
 72
8
 73
4
 74
0
 40
0
 40
0
 40
0
 40
0
 40
1
 40
1
 40
1
 40
1
 10
362.152885
 20
366.584372
 30
0.0
 10
360.058706
 20
364.199272
 30
0.0
 10
359.876324
 20
364.133055
 30
0.0
 10
359.148302
 20
365.493373
 30
0.0
  0
SPLINE
  5
1df
100
AcDbEntity
  8
Ebene_1
 62
7
100
AcDbSpline
 70
8
 71
3
 72
8
 73
4
 74
0
 40
0
 40
0
 40
0
 40
0
 40
1
 40
1
 40
1
 40
1
 10
359.148302
 20
365.493373
 30
0.0
 10
357.728598
 20
368.146091
 30
0.0
 10
358.330649
 20
368.990787
 30
0.0
 10
364.748230
 20
373.350076
 30
0.0
  0
SPLINE
  5
1e0
100
AcDbEntity
  8
Ebene_1
 62
7
100
AcDbSpline
 70
8
 71
3
 72
8
 73
4
 74
0
 40
0
 40
0
 40
0
 40
0
 40
1
 40
1
 40
1
 40
1
 10
364.748230
 20
373.350076
 30
0.0
 10
368.254488
 20
375.731773
 30
0.0
 10
371.123235
 20
377.822835
 30
0.0
 10
371.123235
 20
377.996854
 30
0.0
  0
SPLINE
  5
1e1
100
AcDbEntity
  8
Ebene_1
 62
7
100
AcDbSpline
 70
8
 71
3
 72
8
 73
4
 74
0
 40
0
 40
0
 40
0
 40
0
 40
1
 40
1
 40
1
 40
1
 10
371.123235
 20
377.996854
 30
0.0
 10
371.123235
 20
379.250447
 30
0.0
 10
365.517383
 20
386.416460
 30
0.0
 10
364.839619
 20
386.029276
 30
0.0
  0
SPLINE
  5
1e2
100
AcDbEntity
  8
Ebene_1
 62
7
100
AcDbSpline
 70
8
 71
3
 72
8
 73
4
 74
0
 40
0
 40
0
 40
0
 40
0
 40
1
 40
1
 40
1
 40
1
 10
364.839619
 20
386.029276
 30
0.0
 10
360.280630
 20
383.424973
 30
0.0
 10
345.630302
 20
372.763106
 30
0.0
 10
345.654198
 20
372.067002
 30
0.0
  0
SPLINE
  5
1e3
100
AcDbEntity
  8
Ebene_1
 62
7
100
AcDbSpline
 70
8
 71
3
 72
8
 73
4
 74
0
 40
0
 40
0
 40
0
 40
0
 40
1
 40
1
 40
1
 40
1
 10
345.654198
 20
372.067002
 30
0.0
 10
345.671206
 20
371.571024
 30
0.0
 10
347.949354
 20
366.528189
 30
0.0
 10
350.716706
 20
360.860740
 30
0.0
  0
LWPOLYLINE
  5
1e4
100
AcDbEntity
  8
Ebene_1
 62
7
100
AcDbPolyline
 90
1
 70
1
 10
417.282321
 20
517.381115
 30
0.0
  0
SPLINE
  5
1e5
100
AcDbEntity
  8
Ebene_1
 62
7
100
AcDbSpline
 70
8
 71
3
 72
8
 73
4
 74
0
 40
0
 40
0
 40
0
 40
0
 40
1
 40
1
 40
1
 40
1
 10
360.435742
 20
353.566431
 30
0.0
 10
363.554135
 20
355.568967
 30
0.0
 10
365.123225
 20
357.066170
 30
0.0
 10
365.123225
 20
358.039134
 30
0.0
  0
SPLINE
  5
1e6
100
AcDbEntity
  8
Ebene_1
 62
7
100
AcDbSpline
 70
8
 71
3
 72
8
 73
4
 74
0
 40
0
 40
0
 40
0
 40
0
 40
1
 40
1
 40
1
 40
1
 10
365.123225
 20
358.039134
 30
0.0
 10
365.123225
 20
359.413795
 30
0.0
 10
368.447272
 20
361.790220
 30
0.0
 10
370.370069
 20
361.790220
 30
0.0
  0
SPLINE
  5
1e7
100
AcDbEntity
  8
Ebene_1
 62
7
100
AcDbSpline
 70
8
 71
3
 72
8
 73
4
 74
0
 40
0
 40
0
 40
0
 40
0
 40
1
 40
1
 40
1
 40
1
 10
370.370069
 20
361.790220
 30
0.0
 10
370.821827
 20
361.790220
 30
0.0
 10
372.019833
 20
360.961795
 30
0.0
 10
373.032312
 20
359.949288
 30
0.0
  0
SPLINE
  5
1e8
100
AcDbEntity
  8
Ebene_1
 62
7
100
AcDbSpline
 70
8
 71
3
 72
8
 73
4
 74
0
 40
0
 40
0
 40
0
 40
0
 40
1
 40
1
 40
1
 40
1
 10
373.032312
 20
359.949288
 30
0.0
 10
377.125228
 20
355.856400
 30
0.0
 10
374.255008
 20
349.726365
 30
0.0
 10
368.760274
 20
350.825301
 30
0.0
  0
SPLINE
  5
1e9
100
AcDbEntity
  8
Ebene_1
 62
7
100
AcDbSpline
 70
8
 71
3
 72
8
 73
4
 74
0
 40
0
 40
0
 40
0
 40
0
 40
1
 40
1
 40
1
 40
1
 10
368.760274
 20
350.825301
 30
0.0
 10
366.732340
 20
351.230910
 30
0.0
 10
365.867121
 20
350.826803
 30
0.0
 10
362.368460
 20
347.837471
 30
0.0
  0
SPLINE
  5
1ea
100
AcDbEntity
  8
Ebene_1
 62
7
100
AcDbSpline
 70
8
 71
3
 72
8
 73
4
 74
0
 40
0
 40
0
 40
0
 40
0
 40
1
 40
1
 40
1
 40
1
 10
362.368460
 20
347.837471
 30
0.0
 10
358.915323
 20
344.887370
 30
0.0
 10
358.463254
 20
344.210457
 30
0.0
 10
359.284876
 20
343.220457
 30
0.0
  0
SPLINE
  5
1eb
100
AcDbEntity
  8
Ebene_1
 62
7
100
AcDbSpline
 70
8
 71
3
 72
8
 73
4
 74
0
 40
0
 40
0
 40
0
 40
0
 40
1
 40
1
 40
1
 40
1
 10
359.284876
 20
343.220457
 30
0.0
 10
361.086009
 20
341.050195
 30
0.0
 10
364.620161
 20
340.011269
 30
0.0
 10
369.392060
 20
340.249181
 30
0.0
  0
SPLINE
  5
1ec
100
AcDbEntity
  8
Ebene_1
 62
7
100
AcDbSpline
 70
8
 71
3
 72
8
 73
4
 74
0
 40
0
 40
0
 40
0
 40
0
 40
1
 40
1
 40
1
 40
1
 10
369.392060
 20
340.249181
 30
0.0
 10
373.354866
 20
340.446756
 30
0.0
 10
374.652652
 20
340.905515
 30
0.0
 10
378.241313
 20
343.377128
 30
0.0
  0
LWPOLYLINE
  5
1ed
100
AcDbEntity
  8
Ebene_1
 62
7
100
AcDbPolyline
 90
3
 70
0
 10
350.716706
 20
360.860740
 30
0.0
 10
355.748230
 20
350.556265
 30
0.0
 10
360.435742
 20
353.566431
 30
0.0
  0
SPLINE
  5
1ee
100
AcDbEntity
  8
Ebene_1
 62
7
100
AcDbSpline
 70
8
 71
3
 72
8
 73
4
 74
0
 40
0
 40
0
 40
0
 40
0
 40
1
 40
1
 40
1
 40
1
 10
405.084813
 20
362.051546
 30
0.0
 10
410.988671
 20
364.525569
 30
0.0
 10
415.323043
 20
370.496324
 30
0.0
 10
415.356775
 20
376.201502
 30
0.0
  0
SPLINE
  5
1ef
100
AcDbEntity
  8
Ebene_1
 62
7
100
AcDbSpline
 70
8
 71
3
 72
8
 73
4
 74
0
 40
0
 40
0
 40
0
 40
0
 40
1
 40
1
 40
1
 40
1
 10
415.356775
 20
376.201502
 30
0.0
 10
415.393625
 20
382.428907
 30
0.0
 10
409.263562
 20
393.874980
 30
0.0
 10
403.407808
 20
398.512828
 30
0.0
  0
SPLINE
  5
1f0
100
AcDbEntity
  8
Ebene_1
 62
7
100
AcDbSpline
 70
8
 71
3
 72
8
 73
4
 74
0
 40
0
 40
0
 40
0
 40
0
 40
1
 40
1
 40
1
 40
1
 10
403.407808
 20
398.512828
 30
0.0
 10
395.408466
 20
404.848431
 30
0.0
 10
386.142746
 20
403.884198
 30
0.0
 10
379.841669
 20
396.060435
 30
0.0
  0
SPLINE
  5
1f1
100
AcDbEntity
  8
Ebene_1
 62
7
100
AcDbSpline
 70
8
 71
3
 72
8
 73
4
 74
0
 40
0
 40
0
 40
0
 40
0
 40
1
 40
1
 40
1
 40
1
 10
379.841669
 20
396.060435
 30
0.0
 10
377.870995
 20
393.613540
 30
0.0
 10
377.500025
 20
392.453972
 30
0.0
 10
377.245219
 20
387.944504
 30
0.0
  0
SPLINE
  5
1f2
100
AcDbEntity
  8
Ebene_1
 62
7
100
AcDbSpline
 70
8
 71
3
 72
8
 73
4
 74
0
 40
0
 40
0
 40
0
 40
0
 40
1
 40
1
 40
1
 40
1
 10
377.245219
 20
387.944504
 30
0.0
 10
376.972526
 20
383.120362
 30
0.0
 10
377.169250
 20
382.236180
 30
0.0
 10
379.613962
 20
377.299304
 30
0.0
  0
SPLINE
  5
1f3
100
AcDbEntity
  8
Ebene_1
 62
7
100
AcDbSpline
 70
8
 71
3
 72
8
 73
4
 74
0
 40
0
 40
0
 40
0
 40
0
 40
1
 40
1
 40
1
 40
1
 10
379.613962
 20
377.299304
 30
0.0
 10
382.668831
 20
371.130009
 30
0.0
 10
388.781320
 20
364.465332
 30
0.0
 10
393.244072
 20
362.437937
 30
0.0
  0
SPLINE
  5
1f4
100
AcDbEntity
  8
Ebene_1
 62
7
100
AcDbSpline
 70
8
 71
3
 72
8
 73
4
 74
0
 40
0
 40
0
 40
0
 40
0
 40
1
 40
1
 40
1
 40
1
 10
393.244072
 20
362.437937
 30
0.0
 10
396.818759
 20
360.813969
 30
0.0
 10
401.747698
 20
360.653131
 30
0.0
 10
405.084813
 20
362.051546
 30
0.0
  0
LWPOLYLINE
  5
1f5
100
AcDbEntity
  8
Ebene_1
 62
7
100
AcDbPolyline
 90
1
 70
1
 10
378.241313
 20
343.377128
 30
0.0
  0
SPLINE
  5
1f6
100
AcDbEntity
  8
Ebene_1
 62
7
100
AcDbSpline
 70
8
 71
3
 72
8
 73
4
 74
0
 40
0
 40
0
 40
0
 40
0
 40
1
 40
1
 40
1
 40
1
 10
394.887713
 20
375.371858
 30
0.0
 10
391.170302
 20
379.621446
 30
0.0
 10
387.623225
 20
386.060825
 30
0.0
 10
387.623225
 20
388.559906
 30
0.0
  0
SPLINE
  5
1f7
100
AcDbEntity
  8
Ebene_1
 62
7
100
AcDbSpline
 70
8
 71
3
 72
8
 73
4
 74
0
 40
0
 40
0
 40
0
 40
0
 40
1
 40
1
 40
1
 40
1
 10
387.623225
 20
388.559906
 30
0.0
 10
387.623225
 20
390.584041
 30
0.0
 10
389.506819
 20
392.540202
 30
0.0
 10
391.455836
 20
392.540202
 30
0.0
  0
SPLINE
  5
1f8
100
AcDbEntity
  8
Ebene_1
 62
7
100
AcDbSpline
 70
8
 71
3
 72
8
 73
4
 74
0
 40
0
 40
0
 40
0
 40
0
 40
1
 40
1
 40
1
 40
1
 10
391.455836
 20
392.540202
 30
0.0
 10
395.241194
 20
392.540202
 30
0.0
 10
404.123244
 20
380.400690
 30
0.0
 10
404.123244
 20
375.227093
 30
0.0
  0
SPLINE
  5
1f9
100
AcDbEntity
  8
Ebene_1
 62
7
100
AcDbSpline
 70
8
 71
3
 72
8
 73
4
 74
0
 40
0
 40
0
 40
0
 40
0
 40
1
 40
1
 40
1
 40
1
 10
404.123244
 20
375.227093
 30
0.0
 10
404.123244
 20
372.305083
 30
0.0
 10
403.266813
 20
371.540211
 30
0.0
 10
399.995065
 20
371.540211
 30
0.0
  0
SPLINE
  5
1fa
100
AcDbEntity
  8
Ebene_1
 62
7
100
AcDbSpline
 70
8
 71
3
 72
8
 73
4
 74
0
 40
0
 40
0
 40
0
 40
0
 40
1
 40
1
 40
1
 40
1
 10
399.995065
 20
371.540211
 30
0.0
 10
398.820841
 20
371.540211
 30
0.0
 10
397.129663
 20
372.808998
 30
0.0
 10
394.887713
 20
375.371858
 30
0.0
  0
LWPOLYLINE
  5
1fb
100
AcDbEntity
  8
Ebene_1
 62
7
100
AcDbPolyline
 90
1
 70
1
 10
405.084813
 20
362.051546
 30
0.0
  0
SPLINE
  5
1fc
100
AcDbEntity
  8
Ebene_1
 62
7
100
AcDbSpline
 70
8
 71
3
 72
8
 73
4
 74
0
 40
0
 40
0
 40
0
 40
0
 40
1
 40
1
 40
1
 40
1
 10
220.407471
 20
479.190926
 30
0.0
 10
227.774010
 20
482.905757
 30
0.0
 10
233.069961
 20
490.706249
 30
0.0
 10
232.135418
 20
496.465200
 30
0.0
  0
SPLINE
  5
1fd
100
AcDbEntity
  8
Ebene_1
 62
7
100
AcDbSpline
 70
8
 71
3
 72
8
 73
4
 74
0
 40
0
 40
0
 40
0
 40
0
 40
1
 40
1
 40
1
 40
1
 10
232.135418
 20
496.465200
 30
0.0
 10
231.508650
 20
500.327518
 30
0.0
 10
228.193342
 20
505.586154
 30
0.0
 10
225.510457
 20
506.973543
 30
0.0
  0
SPLINE
  5
1fe
100
AcDbEntity
  8
Ebene_1
 62
7
100
AcDbSpline
 70
8
 71
3
 72
8
 73
4
 74
0
 40
0
 40
0
 40
0
 40
0
 40
1
 40
1
 40
1
 40
1
 10
225.510457
 20
506.973543
 30
0.0
 10
222.171060
 20
508.700409
 30
0.0
 10
217.433934
 20
508.443676
 30
0.0
 10
209.879731
 20
506.126381
 30
0.0
  0
SPLINE
  5
1ff
100
AcDbEntity
  8
Ebene_1
 62
7
100
AcDbSpline
 70
8
 71
3
 72
8
 73
4
 74
0
 40
0
 40
0
 40
0
 40
0
 40
1
 40
1
 40
1
 40
1
 10
209.879731
 20
506.126381
 30
0.0
 10
202.899016
 20
503.985005
 30
0.0
 10
200.873245
 20
504.053376
 30
0.0
 10
200.873245
 20
506.430425
 30
0.0
  0
SPLINE
  5
200
100
AcDbEntity
  8
Ebene_1
 62
7
100
AcDbSpline
 70
8
 71
3
 72
8
 73
4
 74
0
 40
0
 40
0
 40
0
 40
0
 40
1
 40
1
 40
1
 40
1
 10
200.873245
 20
506.430425
 30
0.0
 10
200.873245
 20
508.616050
 30
0.0
 10
204.300825
 20
510.517644
 30
0.0
 10
207.244845
 20
509.965342
 30
0.0
  0
SPLINE
  5
201
100
AcDbEntity
  8
Ebene_1
 62
7
100
AcDbSpline
 70
8
 71
3
 72
8
 73
4
 74
0
 40
0
 40
0
 40
0
 40
0
 40
1
 40
1
 40
1
 40
1
 10
207.244845
 20
509.965342
 30
0.0
 10
209.319160
 20
509.576202
 30
0.0
 10
210.434924
 20
510.003609
 30
0.0
 10
214.291321
 20
512.664746
 30
0.0
  0
SPLINE
  5
202
100
AcDbEntity
  8
Ebene_1
 62
7
100
AcDbSpline
 70
8
 71
3
 72
8
 73
4
 74
0
 40
0
 40
0
 40
0
 40
0
 40
1
 40
1
 40
1
 40
1
 10
214.291321
 20
512.664746
 30
0.0
 10
216.811380
 20
514.403745
 30
0.0
 10
218.873242
 20
516.094838
 30
0.0
 10
218.873242
 20
516.422750
 30
0.0
  0
SPLINE
  5
203
100
AcDbEntity
  8
Ebene_1
 62
7
100
AcDbSpline
 70
8
 71
3
 72
8
 73
4
 74
0
 40
0
 40
0
 40
0
 40
0
 40
1
 40
1
 40
1
 40
1
 10
218.873242
 20
516.422750
 30
0.0
 10
218.873242
 20
516.750633
 30
0.0
 10
217.502926
 20
517.925764
 30
0.0
 10
215.828101
 20
519.034110
 30
0.0
  0
SPLINE
  5
204
100
AcDbEntity
  8
Ebene_1
 62
7
100
AcDbSpline
 70
8
 71
3
 72
8
 73
4
 74
0
 40
0
 40
0
 40
0
 40
0
 40
1
 40
1
 40
1
 40
1
 10
215.828101
 20
519.034110
 30
0.0
 10
209.531191
 20
523.201209
 30
0.0
 10
201.715021
 20
522.000680
 30
0.0
 10
194.851715
 20
515.812224
 30
0.0
  0
SPLINE
  5
205
100
AcDbEntity
  8
Ebene_1
 62
7
100
AcDbSpline
 70
8
 71
3
 72
8
 73
4
 74
0
 40
0
 40
0
 40
0
 40
0
 40
1
 40
1
 40
1
 40
1
 10
194.851715
 20
515.812224
 30
0.0
 10
187.936095
 20
509.576598
 30
0.0
 10
186.991645
 20
501.590126
 30
0.0
 10
192.483456
 20
495.785764
 30
0.0
  0
SPLINE
  5
206
100
AcDbEntity
  8
Ebene_1
 62
7
100
AcDbSpline
 70
8
 71
3
 72
8
 73
4
 74
0
 40
0
 40
0
 40
0
 40
0
 40
1
 40
1
 40
1
 40
1
 10
192.483456
 20
495.785764
 30
0.0
 10
197.011939
 20
490.999550
 30
0.0
 10
201.490739
 20
490.416548
 30
0.0
 10
210.320093
 20
493.464019
 30
0.0
  0
SPLINE
  5
207
100
AcDbEntity
  8
Ebene_1
 62
7
100
AcDbSpline
 70
8
 71
3
 72
8
 73
4
 74
0
 40
0
 40
0
 40
0
 40
0
 40
1
 40
1
 40
1
 40
1
 10
210.320093
 20
493.464019
 30
0.0
 10
213.385689
 20
494.522135
 30
0.0
 10
216.817381
 20
495.281509
 30
0.0
 10
217.946069
 20
495.151540
 30
0.0
  0
SPLINE
  5
208
100
AcDbEntity
  8
Ebene_1
 62
7
100
AcDbSpline
 70
8
 71
3
 72
8
 73
4
 74
0
 40
0
 40
0
 40
0
 40
0
 40
1
 40
1
 40
1
 40
1
 10
217.946069
 20
495.151540
 30
0.0
 10
220.867911
 20
494.815068
 30
0.0
 10
221.075671
 20
492.203112
 30
0.0
 10
218.351565
 20
490.053742
 30
0.0
  0
SPLINE
  5
209
100
AcDbEntity
  8
Ebene_1
 62
7
100
AcDbSpline
 70
8
 71
3
 72
8
 73
4
 74
0
 40
0
 40
0
 40
0
 40
0
 40
1
 40
1
 40
1
 40
1
 10
218.351565
 20
490.053742
 30
0.0
 10
216.641911
 20
488.704762
 30
0.0
 10
215.641950
 20
488.476658
 30
0.0
 10
213.008924
 20
488.834929
 30
0.0
  0
SPLINE
  5
20a
100
AcDbEntity
  8
Ebene_1
 62
7
100
AcDbSpline
 70
8
 71
3
 72
8
 73
4
 74
0
 40
0
 40
0
 40
0
 40
0
 40
1
 40
1
 40
1
 40
1
 10
213.008924
 20
488.834929
 30
0.0
 10
210.105638
 20
489.229994
 30
0.0
 10
209.308164
 20
488.962488
 30
0.0
 10
205.321425
 20
486.255033
 30
0.0
  0
SPLINE
  5
20b
100
AcDbEntity
  8
Ebene_1
 62
7
100
AcDbSpline
 70
8
 71
3
 72
8
 73
4
 74
0
 40
0
 40
0
 40
0
 40
0
 40
1
 40
1
 40
1
 40
1
 10
205.321425
 20
486.255033
 30
0.0
 10
202.874927
 20
484.593647
 30
0.0
 10
200.873245
 20
482.939405
 30
0.0
 10
200.873245
 20
482.578951
 30
0.0
  0
SPLINE
  5
20c
100
AcDbEntity
  8
Ebene_1
 62
7
100
AcDbSpline
 70
8
 71
3
 72
8
 73
4
 74
0
 40
0
 40
0
 40
0
 40
0
 40
1
 40
1
 40
1
 40
1
 10
200.873245
 20
482.578951
 30
0.0
 10
200.873245
 20
481.457367
 30
0.0
 10
205.387277
 20
478.062085
 30
0.0
 10
207.493546
 20
477.599386
 30
0.0
  0
SPLINE
  5
20d
100
AcDbEntity
  8
Ebene_1
 62
7
100
AcDbSpline
 70
8
 71
3
 72
8
 73
4
 74
0
 40
0
 40
0
 40
0
 40
0
 40
1
 40
1
 40
1
 40
1
 10
207.493546
 20
477.599386
 30
0.0
 10
208.596129
 20
477.357307
 30
0.0
 10
209.835743
 20
477.038806
 30
0.0
 10
210.248243
 20
476.891915
 30
0.0
  0
SPLINE
  5
20e
100
AcDbEntity
  8
Ebene_1
 62
7
100
AcDbSpline
 70
8
 71
3
 72
8
 73
4
 74
0
 40
0
 40
0
 40
0
 40
0
 40
1
 40
1
 40
1
 40
1
 10
210.248243
 20
476.891915
 30
0.0
 10
211.812602
 20
476.334822
 30
0.0
 10
217.129907
 20
477.538101
 30
0.0
 10
220.407471
 20
479.190926
 30
0.0
  0
LWPOLYLINE
  5
20f
100
AcDbEntity
  8
Ebene_1
 62
7
100
AcDbPolyline
 90
1
 70
1
 10
394.887713
 20
375.371858
 30
0.0
  0
SPLINE
  5
210
100
AcDbEntity
  8
Ebene_1
 62
7
100
AcDbSpline
 70
8
 71
3
 72
8
 73
4
 74
0
 40
0
 40
0
 40
0
 40
0
 40
1
 40
1
 40
1
 40
1
 10
247.051349
 20
498.731046
 30
0.0
 10
249.703387
 20
500.623512
 30
0.0
 10
251.873240
 20
502.426828
 30
0.0
 10
251.873240
 20
502.738441
 30
0.0
  0
SPLINE
  5
211
100
AcDbEntity
  8
Ebene_1
 62
7
100
AcDbSpline
 70
8
 71
3
 72
8
 73
4
 74
0
 40
0
 40
0
 40
0
 40
0
 40
1
 40
1
 40
1
 40
1
 10
251.873240
 20
502.738441
 30
0.0
 10
251.873240
 20
503.050025
 30
0.0
 10
250.185742
 20
505.707874
 30
0.0
 10
248.123242
 20
508.644765
 30
0.0
  0
SPLINE
  5
212
100
AcDbEntity
  8
Ebene_1
 62
7
100
AcDbSpline
 70
8
 71
3
 72
8
 73
4
 74
0
 40
0
 40
0
 40
0
 40
0
 40
1
 40
1
 40
1
 40
1
 10
248.123242
 20
508.644765
 30
0.0
 10
246.060740
 20
511.581657
 30
0.0
 10
244.381275
 20
514.250220
 30
0.0
 10
244.391091
 20
514.574901
 30
0.0
  0
SPLINE
  5
213
100
AcDbEntity
  8
Ebene_1
 62
7
100
AcDbSpline
 70
8
 71
3
 72
8
 73
4
 74
0
 40
0
 40
0
 40
0
 40
0
 40
1
 40
1
 40
1
 40
1
 10
244.391091
 20
514.574901
 30
0.0
 10
244.401012
 20
514.899581
 30
0.0
 10
246.619468
 20
516.671972
 30
0.0
 10
249.321223
 20
518.513528
 30
0.0
  0
SPLINE
  5
214
100
AcDbEntity
  8
Ebene_1
 62
7
100
AcDbSpline
 70
8
 71
3
 72
8
 73
4
 74
0
 40
0
 40
0
 40
0
 40
0
 40
1
 40
1
 40
1
 40
1
 10
249.321223
 20
518.513528
 30
0.0
 10
252.022978
 20
520.355112
 30
0.0
 10
254.389422
 20
522.114151
 30
0.0
 10
254.579990
 20
522.422504
 30
0.0
  0
SPLINE
  5
215
100
AcDbEntity
  8
Ebene_1
 62
7
100
AcDbSpline
 70
8
 71
3
 72
8
 73
4
 74
0
 40
0
 40
0
 40
0
 40
0
 40
1
 40
1
 40
1
 40
1
 10
254.579990
 20
522.422504
 30
0.0
 10
254.770563
 20
522.730828
 30
0.0
 10
253.691308
 20
524.843405
 30
0.0
 10
252.181650
 20
527.117131
 30
0.0
  0
LWPOLYLINE
  5
216
100
AcDbEntity
  8
Ebene_1
 62
7
100
AcDbPolyline
 90
1
 70
1
 10
220.407471
 20
479.190926
 30
0.0
  0
SPLINE
  5
217
100
AcDbEntity
  8
Ebene_1
 62
7
100
AcDbSpline
 70
8
 71
3
 72
8
 73
4
 74
0
 40
0
 40
0
 40
0
 40
0
 40
1
 40
1
 40
1
 40
1
 10
236.060076
 20
526.076419
 30
0.0
 10
234.879508
 20
527.500261
 30
0.0
 10
233.913217
 20
528.833962
 30
0.0
 10
233.912758
 20
529.040211
 30
0.0
  0
SPLINE
  5
218
100
AcDbEntity
  8
Ebene_1
 62
7
100
AcDbSpline
 70
8
 71
3
 72
8
 73
4
 74
0
 40
0
 40
0
 40
0
 40
0
 40
1
 40
1
 40
1
 40
1
 10
233.912758
 20
529.040211
 30
0.0
 10
233.912293
 20
529.246573
 30
0.0
 10
235.575862
 20
530.543764
 30
0.0
 10
237.609570
 20
531.923102
 30
0.0
  0
SPLINE
  5
219
100
AcDbEntity
  8
Ebene_1
 62
7
100
AcDbSpline
 70
8
 71
3
 72
8
 73
4
 74
0
 40
0
 40
0
 40
0
 40
0
 40
1
 40
1
 40
1
 40
1
 10
237.609570
 20
531.923102
 30
0.0
 10
239.643278
 20
533.302441
 30
0.0
 10
242.828969
 20
535.512926
 30
0.0
 10
244.688879
 20
536.835260
 30
0.0
  0
LWPOLYLINE
  5
21a
100
AcDbEntity
  8
Ebene_1
 62
7
100
AcDbPolyline
 90
5
 70
0
 10
252.181650
 20
527.117131
 30
0.0
 10
249.436828
 20
531.251121
 30
0.0
 10
243.821690
 20
527.369386
 30
0.0
 10
238.206555
 20
523.487650
 30
0.0
 10
236.060076
 20
526.076419
 30
0.0
  0
SPLINE
  5
21b
100
AcDbEntity
  8
Ebene_1
 62
7
100
AcDbSpline
 70
8
 71
3
 72
8
 73
4
 74
0
 40
0
 40
0
 40
0
 40
0
 40
1
 40
1
 40
1
 40
1
 10
230.653860
 20
539.785304
 30
0.0
 10
224.380769
 20
535.425109
 30
0.0
 10
218.792798
 20
531.431263
 30
0.0
 10
218.236147
 20
530.910085
 30
0.0
  0
SPLINE
  5
21c
100
AcDbEntity
  8
Ebene_1
 62
7
100
AcDbSpline
 70
8
 71
3
 72
8
 73
4
 74
0
 40
0
 40
0
 40
0
 40
0
 40
1
 40
1
 40
1
 40
1
 10
218.236147
 20
530.910085
 30
0.0
 10
217.399020
 20
530.126277
 30
0.0
 10
219.319546
 20
526.965420
 30
0.0
 10
229.345291
 20
512.626337
 30
0.0
  0
SPLINE
  5
21d
100
AcDbEntity
  8
Ebene_1
 62
7
100
AcDbSpline
 70
8
 71
3
 72
8
 73
4
 74
0
 40
0
 40
0
 40
0
 40
0
 40
1
 40
1
 40
1
 40
1
 10
229.345291
 20
512.626337
 30
0.0
 10
236.011972
 20
503.091468
 30
0.0
 10
241.638185
 20
495.290211
 30
0.0
 10
241.847991
 20
495.290211
 30
0.0
  0
SPLINE
  5
21e
100
AcDbEntity
  8
Ebene_1
 62
7
100
AcDbSpline
 70
8
 71
3
 72
8
 73
4
 74
0
 40
0
 40
0
 40
0
 40
0
 40
1
 40
1
 40
1
 40
1
 10
241.847991
 20
495.290211
 30
0.0
 10
242.057812
 20
495.290211
 30
0.0
 10
244.399303
 20
496.838580
 30
0.0
 10
247.051349
 20
498.731046
 30
0.0
  0
LWPOLYLINE
  5
21f
100
AcDbEntity
  8
Ebene_1
 62
7
100
AcDbPolyline
 90
5
 70
0
 10
244.688879
 20
536.835260
 30
0.0
 10
248.070538
 20
539.239550
 30
0.0
 10
245.065011
 20
543.476211
 30
0.0
 10
242.059484
 20
547.712901
 30
0.0
 10
230.653860
 20
539.785304
 30
0.0
  0
LWPOLYLINE
  5
220
100
AcDbEntity
  8
Ebene_1
 62
7
100
AcDbPolyline
 90
1
 70
1
 10
247.051349
 20
498.731046
 30
0.0
  0
ENDSEC
  0
SECTION
  2
OBJECTS
  0
DICTIONARY
  5
C
330
0
100
AcDbDictionary
  3
ACAD_GROUP
350
D
  3
ACAD_MLINESTYLE
350
17
  0
DICTIONARY
  5
D
330
C
100
AcDbDictionary
  0
DICTIONARY
  5
1A
330
C
100
AcDbDictionary
  0
DICTIONARY
  5
17
330
C
100
AcDbDictionary
  3
STANDARD
350
18
  0
DICTIONARY
  5
19
330
C
100
AcDbDictionary
  0
ENDSEC
  0
EOF
