  0
SECTION
  2
HEADER
  9
$ACADVER
  1
AC1009
  9
$EXTMAX
 10
99.9409790039063
 20
92.047607421875
 30
0.0
  9
$EXTMIN
 10
-94.9068069458008
 20
-60.2308883666992
 30
0.0
  9
$INSUNITS
 70
     4
  9
$LUNITS
 70
     2
  9
$LUPREC
 70
     4
  9
$MEASUREMENT
 70
     1
  0
ENDSEC
  0
SECTION
  2
TABLES
  0
TABLE
  2
LAYER
 70
     1
  0
LAYER
  2
0
 70
     0
 62
    70
  6
Continuous
  0
ENDTAB
  0
TABLE
  2
APPID
 70
     1
  0
APPID
  2
ACAD
 70
     0
  0
ENDTAB
  0
ENDSEC
  0
SECTION
  2
ENTITIES
  0
POLYLINE
  8
0
 66
     1
 10
0.0
 20
0.0
 30
0.0
 70
     1
  0
VERTEX
  8
0
 10
73.5249804823711
 20
-28.3483910527466
 42
0.2743289076377
  0
VERTEX
  8
0
 10
73.5249804823711
 20
-27.8403910527466
 42
0.0
  0
SEQEND
  0
POLYLINE
  8
0
 66
     1
 10
0.0
 20
0.0
 30
0.0
 70
     1
  0
VERTEX
  8
0
 10
-85.3661245998227
 20
-28.0655969446737
 42
3.5125534033022
  0
VERTEX
  8
0
 10
-85.4176503128819
 20
-28.0699680422891
 42
0.2086751840964
  0
SEQEND
  0
POLYLINE
  8
0
 66
     1
 10
0.0
 20
0.0
 30
0.0
 70
     1
  0
VERTEX
  8
0
 10
94.1277745904442
 20
-12.6567803756633
 42
3.5250151044872
  0
VERTEX
  8
0
 10
94.0759197094414
 20
-12.6610361710387
 42
0.209164700646
  0
SEQEND
  0
POLYLINE
  8
0
 66
     1
 10
0.0
 20
0.0
 30
0.0
 70
     1
  0
VERTEX
  8
0
 10
12.6769116347149
 20
-14.1511491093873
 42
-0.197333371278
  0
VERTEX
  8
0
 10
19.5224807254896
 20
-9.9466192672808
 42
-0.0517628608338
  0
VERTEX
  8
0
 10
21.8783138157045
 20
-10.22972438608
 42
0.1879685254903
  0
VERTEX
  8
0
 10
19.7910354114111
 20
-7.7651396961555
 42
0.1732379164696
  0
VERTEX
  8
0
 10
11.0703710254452
 20
-5.8402362096054
 42
0.1404622479504
  0
VERTEX
  8
0
 10
1.98097723206
 20
-9.2632043133347
 42
0.0900877423107
  0
VERTEX
  8
0
 10
1.2196471490378
 20
-10.22972438608
 42
-0.0204832151003
  0
VERTEX
  8
0
 10
6.1303138157045
 20
-8.5363910527466
 42
0.039902402253
  0
VERTEX
  8
0
 10
4.0983138157045
 20
-11.24572438608
 42
0.0569561953624
  0
VERTEX
  8
0
 10
8.2198535208689
 20
-9.3094498524092
 42
-0.0246361885139
  0
VERTEX
  8
0
 10
8.8396471490378
 20
-9.0443910527466
 42
0.040587956387
  0
VERTEX
  8
0
 10
7.1050903630714
 20
-12.7520548245787
 42
0.0444757641571
  0
VERTEX
  8
0
 10
6.9769804823711
 20
-13.4470577194133
 42
0.0218136753334
  0
VERTEX
  8
0
 10
10.1943138157044
 20
-12.2617243860799
 42
0.0665906094706
  0
VERTEX
  8
0
 10
9.5169804823711
 20
-15.3097243860799
 42
0.1120562010163
  0
SEQEND
  0
POLYLINE
  8
0
 66
     1
 10
0.0
 20
0.0
 30
0.0
 70
     1
  0
VERTEX
  8
0
 10
68.1063138157045
 20
92.0476089472531
 42
-0.0370419813309
  0
VERTEX
  8
0
 10
62.4068466728676
 20
71.5465254961824
 42
-0.1089055045695
  0
VERTEX
  8
0
 10
57.2684547608255
 20
62.5394632079552
 42
-0.0923852840097
  0
VERTEX
  8
0
 10
54.8968062249411
 20
61.0043070868288
 42
0.1232623286972
  0
VERTEX
  8
0
 10
54.2209804823711
 20
60.38227561392
 42
-0.0142663922119
  0
VERTEX
  8
0
 10
57.9463138157045
 20
59.87427561392
 42
-0.0843880940245
  0
VERTEX
  8
0
 10
53.0522218181226
 20
53.2942442107445
 42
-0.1212649260104
  0
VERTEX
  8
0
 10
51.3423138157045
 20
52.25427561392
 42
0.0707751103993
  0
VERTEX
  8
0
 10
54.7289804823711
 20
52.25427561392
 42
-0.0406338293154
  0
VERTEX
  8
0
 10
52.0196471490378
 20
48.5289422805867
 42
-0.0437410881536
  0
VERTEX
  8
0
 10
55.5756471490378
 20
48.0209422805867
 42
0.0
  0
VERTEX
  8
0
 10
55.5756471490378
 20
47.6822756139201
 42
0.0762665314138
  0
VERTEX
  8
0
 10
52.7169473597477
 20
45.827117272606
 42
-0.0985511193568
  0
VERTEX
  8
0
 10
46.9396471490378
 20
42.9409422805867
 42
0.0875695957456
  0
VERTEX
  8
0
 10
50.2087798464531
 20
43.0956614171859
 42
-0.0430011782971
  0
VERTEX
  8
0
 10
54.8983138157045
 20
43.6182756139201
 42
-0.0218571413873
  0
VERTEX
  8
0
 10
51.8755738725132
 20
41.3396319097407
 42
0.1240492057268
  0
VERTEX
  8
0
 10
51.1729804823711
 20
40.57027561392
 42
0.0
  0
VERTEX
  8
0
 10
52.8663138157045
 20
41.0782756139201
 42
-0.1974243189563
  0
VERTEX
  8
0
 10
47.9524498621694
 20
34.5721475210048
 42
0.1841052424319
  0
VERTEX
  8
0
 10
45.0769804823711
 20
32.2729422805867
 42
0.0
  0
VERTEX
  8
0
 10
50.8343138157045
 20
32.2729422805867
 42
0.0345786859571
  0
VERTEX
  8
0
 10
49.0885066380166
 20
28.6027301852449
 42
0.0382615223973
  0
VERTEX
  8
0
 10
48.9716471490378
 20
28.0396089472534
 42
0.0157508382332
  0
VERTEX
  8
0
 10
55.9013373328511
 20
33.8520297277146
 42
-0.0614295090263
  0
VERTEX
  8
0
 10
57.2689804823711
 20
34.8129422805867
 42
-0.1116585867354
  0
VERTEX
  8
0
 10
51.001104668569
 20
26.3860664667846
 42
0.0068166235116
  0
VERTEX
  8
0
 10
46.236948691334
 20
23.0894423934137
 42
0.1759279373203
  0
VERTEX
  8
0
 10
45.4156471490378
 20
22.1129422805867
 42
0.0128529831231
  0
VERTEX
  8
0
 10
49.6489804823711
 20
23.4676089472534
 42
-0.2070747789501
  0
VERTEX
  8
0
 10
45.4375759014478
 20
17.4630453746614
 42
-0.010670394536
  0
VERTEX
  8
0
 10
41.8596471490378
 20
15.17027561392
 42
0.1086573601753
  0
VERTEX
  8
0
 10
44.3996471490378
 20
14.6622756139201
 42
-0.2101690585653
  0
VERTEX
  8
0
 10
41.6000547424689
 20
11.5193494516301
 42
0.1260123624628
  0
VERTEX
  8
0
 10
39.8276471490378
 20
9.9209422805867
 42
0.0023434423489
  0
VERTEX
  8
0
 10
49.6489804823711
 20
12.4609422805867
 42
-0.075544923133
  0
VERTEX
  8
0
 10
45.1110921542891
 20
7.206303651836
 42
-0.0665153113821
  0
VERTEX
  8
0
 10
40.0894582030731
 20
2.9087268020883
 42
0.1608714504418
  0
VERTEX
  8
0
 10
38.9809804823711
 20
1.6236089472534
 42
-0.0176250854225
  0
VERTEX
  8
0
 10
43.7223138157045
 20
1.9622756139201
 42
0.0
  0
VERTEX
  8
0
 10
43.7223138157045
 20
1.6236089472534
 42
0.0801438663413
  0
VERTEX
  8
0
 10
39.4513719406328
 20
-0.5298966367188
 42
0.0714829502144
  0
VERTEX
  8
0
 10
39.1503138157045
 20
-0.9163910527466
 42
0.0
  0
VERTEX
  8
0
 10
40.3356471490378
 20
-0.9163910527466
 42
-0.1715815829295
  0
VERTEX
  8
0
 10
37.1183138157045
 20
-2.2710577194133
 42
0.0
  0
VERTEX
  8
0
 10
37.1183138157045
 20
-2.7790577194133
 42
0.0
  0
VERTEX
  8
0
 10
39.9969804823711
 20
-2.7790577194133
 42
-0.0543673803691
  0
VERTEX
  8
0
 10
35.337841100569
 20
-5.0846308258783
 42
0.1732967812155
  0
VERTEX
  8
0
 10
34.0703138157045
 20
-5.9963910527466
 42
0.0
  0
VERTEX
  8
0
 10
44.9076471490378
 20
-4.4723910527466
 42
0.0
  0
VERTEX
  8
0
 10
44.9076471490378
 20
-4.8110577194133
 42
0.0462597396029
  0
VERTEX
  8
0
 10
41.4806783100563
 20
-6.5276990395565
 42
0.1662889619909
  0
VERTEX
  8
0
 10
41.0129804823711
 20
-7.18172438608
 42
0.0
  0
VERTEX
  8
0
 10
42.8756471490378
 20
-7.3510577194133
 42
0.145106114805
  0
VERTEX
  8
0
 10
41.5209804823711
 20
-9.2137243860799
 42
0.0
  0
VERTEX
  8
0
 10
43.7223138157045
 20
-9.2137243860799
 42
-0.0660964440646
  0
VERTEX
  8
0
 10
40.3282101705153
 20
-11.054498632186
 42
0.0271979907601
  0
VERTEX
  8
0
 10
39.6583138157045
 20
-11.4150577194133
 42
0.0263065223036
  0
VERTEX
  8
0
 10
44.4436276596196
 20
-10.9791849625668
 42
0.1351630450135
  0
VERTEX
  8
0
 10
48.0404896619539
 20
-9.1015471028638
 42
-0.0767055207023
  0
VERTEX
  8
0
 10
50.1569804823711
 20
-7.6897243860799
 42
-0.0254699852889
  0
VERTEX
  8
0
 10
45.4329095356949
 20
-13.3066154038371
 42
0.0749232744693
  0
VERTEX
  8
0
 10
44.3996471490378
 20
-14.80172438608
 42
0.0202581843507
  0
VERTEX
  8
0
 10
48.5759994931794
 20
-12.8581084703717
 42
-0.0138844236891
  0
VERTEX
  8
0
 10
48.8023138157045
 20
-12.76972438608
 42
-0.0257860040727
  0
VERTEX
  8
0
 10
45.228770918518
 20
-15.2250624769146
 42
0.1778418148366
  0
VERTEX
  8
0
 10
44.3996471490378
 20
-16.1563910527466
 42
0.0602216626413
  0
VERTEX
  8
0
 10
50.6649804823711
 20
-15.81772438608
 42
0.0148882864334
  0
VERTEX
  8
0
 10
49.3103138157045
 20
-18.0190577194133
 42
0.0683066980724
  0
VERTEX
  8
0
 10
53.3883514512321
 20
-14.9301991655546
 42
-0.0626299722159
  0
VERTEX
  8
0
 10
56.5916471490378
 20
-12.6003910527466
 42
0.0422763231049
  0
VERTEX
  8
0
 10
54.1066088301715
 20
-18.6203367298531
 42
0.0075104776963
  0
VERTEX
  8
0
 10
54.0516471490378
 20
-18.86572438608
 42
0.1796804398292
  0
VERTEX
  8
0
 10
58.6553940133155
 20
-17.1779664045482
 42
-0.0458980316511
  0
VERTEX
  8
0
 10
62.6876471490378
 20
-14.6323910527466
 42
0.1028459478004
  0
VERTEX
  8
0
 10
63.0263138157045
 20
-17.0030577194133
 42
0.0101303670472
  0
VERTEX
  8
0
 10
65.0138839820929
 20
-13.7746637255568
 42
-0.0285475039637
  0
VERTEX
  8
0
 10
65.3969804823711
 20
-13.27772438608
 42
-0.0495566592796
  0
VERTEX
  8
0
 10
64.9646375645079
 20
-25.0146892695542
 42
0.0223450740148
  0
VERTEX
  8
0
 10
64.3809804823711
 20
-31.0577243860799
 42
0.0108630916861
  0
VERTEX
  8
0
 10
63.2605356470098
 20
-27.9031052034759
 42
0.2061056290421
  0
VERTEX
  8
0
 10
62.3489804823711
 20
-26.99372438608
 42
-0.09554426823
  0
VERTEX
  8
0
 10
61.3540575742991
 20
-31.8164470925396
 42
-0.2119203467245
  0
VERTEX
  8
0
 10
59.8089804823711
 20
-33.08972438608
 42
0.0154706798812
  0
VERTEX
  8
0
 10
60.8249804823711
 20
-28.1790577194133
 42
0.2088203517023
  0
VERTEX
  8
0
 10
58.2849804823711
 20
-31.7350577194133
 42
-0.2037098672147
  0
VERTEX
  8
0
 10
57.3822754688364
 20
-30.1165059064992
 42
0.228328645877
  0
VERTEX
  8
0
 10
55.7449804823711
 20
-27.50172438608
 42
-0.0506008625392
  0
VERTEX
  8
0
 10
55.0676471490378
 20
-32.07372438608
 42
0.0955210261796
  0
VERTEX
  8
0
 10
50.8343138157045
 20
-28.0097243860799
 42
-0.067340016673
  0
VERTEX
  8
0
 10
51.0036471490378
 20
-31.9043910527466
 42
-0.3342861376719
  0
VERTEX
  8
0
 10
49.284256948396
 20
-29.0351107213536
 42
-0.0037478448337
  0
VERTEX
  8
0
 10
49.3103138157045
 20
-26.8243910527466
 42
0.2729588922836
  0
VERTEX
  8
0
 10
46.9522800056347
 20
-30.1266464502824
 42
0.0425689269435
  0
VERTEX
  8
0
 10
46.7703138157045
 20
-32.7510577194133
 42
0.0
  0
VERTEX
  8
0
 10
46.0929804823711
 20
-32.7510577194133
 42
0.0900972622358
  0
VERTEX
  8
0
 10
44.5106792968952
 20
-28.4227665584165
 42
0.3399779764136
  0
VERTEX
  8
0
 10
42.0803571380579
 20
-27.2236600286671
 42
0.2263613163526
  0
VERTEX
  8
0
 10
41.5209804823711
 20
-27.8403910527466
 42
-0.4561332858979
  0
VERTEX
  8
0
 10
43.2408878518236
 20
-32.1297351673451
 42
0.0207504012316
  0
VERTEX
  8
0
 10
42.8756471490378
 20
-32.9203910527466
 42
-0.0762071985701
  0
VERTEX
  8
0
 10
40.6339904013076
 20
-30.2844183595567
 42
0.0943649397252
  0
VERTEX
  8
0
 10
39.6583138157045
 20
-29.3643910527466
 42
-0.449031277508
  0
VERTEX
  8
0
 10
38.5522377000337
 20
-32.3067949155906
 42
-0.4536055477946
  0
VERTEX
  8
0
 10
37.7385355737657
 20
-31.1952566889094
 42
-0.0866597157622
  0
VERTEX
  8
0
 10
37.7956471490378
 20
-27.8403910527466
 42
0.1617386951643
  0
VERTEX
  8
0
 10
35.5943138157045
 20
-32.2430577194133
 42
-0.2598055246045
  0
VERTEX
  8
0
 10
33.2085548299288
 20
-29.1381338206201
 42
0.5371079962545
  0
VERTEX
  8
0
 10
31.8689804823711
 20
-28.0097243860799
 42
-0.2593851113341
  0
VERTEX
  8
0
 10
32.0343120656109
 20
-30.915258623662
 42
0.0633696015979
  0
VERTEX
  8
0
 10
31.6996471490378
 20
-32.07372438608
 42
0.0
  0
VERTEX
  8
0
 10
31.0223138157045
 20
-32.07372438608
 42
0.2080552716616
  0
VERTEX
  8
0
 10
29.1596471490378
 20
-29.02572438608
 42
-0.2274571215002
  0
VERTEX
  8
0
 10
28.4823138157045
 20
-32.07372438608
 42
0.2360269161397
  0
VERTEX
  8
0
 10
26.2809804823711
 20
-28.3483910527466
 42
0.0384175919448
  0
VERTEX
  8
0
 10
26.7345396556513
 20
-30.9143610956255
 42
-0.1184302962281
  0
VERTEX
  8
0
 10
26.6196471490378
 20
-32.5817243860799
 42
-0.0954276171909
  0
VERTEX
  8
0
 10
25.0706410618289
 20
-30.4144881446331
 42
0.1391265610038
  0
VERTEX
  8
0
 10
23.9103138157044
 20
-29.1950577194133
 42
-0.1295338073384
  0
VERTEX
  8
0
 10
24.1287334329941
 20
-32.3100143348838
 42
-0.3310189816897
  0
VERTEX
  8
0
 10
22.7249804823711
 20
-33.2590577194133
 42
0.0691847463959
  0
VERTEX
  8
0
 10
21.7089804823711
 20
-28.0097243860799
 42
0.0
  0
VERTEX
  8
0
 10
21.3703138157044
 20
-28.0097243860799
 42
0.0891533358991
  0
VERTEX
  8
0
 10
20.8623138157045
 20
-30.54972438608
 42
-0.0924008154142
  0
VERTEX
  8
0
 10
20.8278273386431
 20
-25.5350697293834
 42
0.019333656766
  0
VERTEX
  8
0
 10
20.8623138157045
 20
-24.7923910527466
 42
0.1308041407693
  0
VERTEX
  8
0
 10
19.3556533496399
 20
-28.534115756054
 42
-0.0723782862319
  0
VERTEX
  8
0
 10
18.4760606798568
 20
-31.8741890422016
 42
-0.1156078047656
  0
VERTEX
  8
0
 10
17.3063138157045
 20
-33.2590577194133
 42
0.0237088837098
  0
VERTEX
  8
0
 10
15.9495242074186
 20
-29.3533481069717
 42
-0.0736770343731
  0
VERTEX
  8
0
 10
15.4436471490378
 20
-26.8243910527466
 42
0.1303315176587
  0
VERTEX
  8
0
 10
14.5026300489843
 20
-30.4257432352614
 42
-0.1958503447901
  0
VERTEX
  8
0
 10
13.0
 20
-33.0
 42
0.0059302594698
  0
VERTEX
  8
0
 10
12.7343138157044
 20
-33.2590577194133
 42
-0.1625631270745
  0
VERTEX
  8
0
 10
13.1780982285193
 20
-28.6938039584929
 42
0.0401143423701
  0
VERTEX
  8
0
 10
13.2423138157044
 20
-28.3483910527466
 42
0.1941752864716
  0
VERTEX
  8
0
 10
10.8716471490378
 20
-31.9043910527466
 42
-0.0655910434296
  0
VERTEX
  8
0
 10
9.5082937144959
 20
-28.8051035778881
 42
0.173503158017
  0
VERTEX
  8
0
 10
8.3316471490378
 20
-27.3323910527466
 42
-0.0753985402202
  0
VERTEX
  8
0
 10
7.8236471490378
 20
-31.9043910527466
 42
-0.1081259034867
  0
VERTEX
  8
0
 10
6.2249180315789
 20
-30.3237138763404
 42
0.1021367833294
  0
VERTEX
  8
0
 10
3.5903138157045
 20
-28.1790577194133
 42
-0.1041382484134
  0
VERTEX
  8
0
 10
3.5903138157045
 20
-32.07372438608
 42
-0.2501597960646
  0
VERTEX
  8
0
 10
1.9863910455222
 20
-29.5337243860799
 42
-0.1265714935029
  0
VERTEX
  8
0
 10
4.0086217773736
 20
-26.8014854188409
 42
0.057515746225
  0
VERTEX
  8
0
 10
9.5015705702618
 20
-18.7031606653768
 42
0.1291790350201
  0
VERTEX
  8
0
 10
11.2103138157044
 20
-15.6483910527466
 42
-0.0256114377115
  0
VERTEX
  8
0
 10
7.8236471490378
 20
-16.8337243860799
 42
0.0260714360035
  0
VERTEX
  8
0
 10
8.8396471490378
 20
-14.29372438608
 42
-0.0033419498287
  0
VERTEX
  8
0
 10
5.1143138157045
 20
-15.4790577194133
 42
0.0248522177655
  0
VERTEX
  8
0
 10
6.2996471490378
 20
-11.4150577194133
 42
0.0019109025713
  0
VERTEX
  8
0
 10
1.7276471490378
 20
-13.7857243860799
 42
0.0220290560184
  0
VERTEX
  8
0
 10
3.5903138157045
 20
-10.22972438608
 42
0.1220981190468
  0
VERTEX
  8
0
 10
-0.6641670327364
 20
-12.2169903057571
 42
0.0930131745728
  0
VERTEX
  8
0
 10
-2.9479980871089
 20
-17.6209900342669
 42
-0.1561198600284
  0
VERTEX
  8
0
 10
-7.9954577384426
 20
-28.3659063809474
 42
-0.1114832881819
  0
VERTEX
  8
0
 10
-9.7870195176289
 20
-29.5337243860799
 42
0.0
  0
VERTEX
  8
0
 10
-9.7870195176289
 20
-28.0097243860799
 42
0.0
  0
VERTEX
  8
0
 10
-10.9723528509622
 20
-29.5337243860799
 42
-0.0093690501652
  0
VERTEX
  8
0
 10
-10.6185560370243
 20
-22.1312544006965
 42
0.1107115753549
  0
VERTEX
  8
0
 10
-14.5235770069449
 20
-2.8055915378922
 42
-0.0158761125627
  0
VERTEX
  8
0
 10
-16.9037359295208
 20
1.984523338646
 42
-0.0385435475228
  0
VERTEX
  8
0
 10
-18.4290156411413
 20
10.8992373909684
 42
0.0335736364288
  0
VERTEX
  8
0
 10
-19.348481727851
 20
15.9905589795311
 42
0.1778656375261
  0
VERTEX
  8
0
 10
-23.661434074279
 20
20.9649489761254
 42
-0.1643686429769
  0
VERTEX
  8
0
 10
-25.1521269283791
 20
23.1154337687236
 42
0.0158197128275
  0
VERTEX
  8
0
 10
-26.7203528509622
 20
26.5156089472534
 42
0.0
  0
VERTEX
  8
0
 10
-27.0590195176289
 20
26.5156089472534
 42
-0.0942945959388
  0
VERTEX
  8
0
 10
-28.4444153318677
 20
23.2510454141911
 42
-0.0405778797837
  0
VERTEX
  8
0
 10
-28.7523528509622
 20
22.9596089472534
 42
0.1451443536388
  0
VERTEX
  8
0
 10
-30.9536861842956
 20
25.8382756139201
 42
0.0300983881235
  0
VERTEX
  8
0
 10
-31.6692317137885
 20
20.910130862013
 42
-0.2076931533261
  0
VERTEX
  8
0
 10
-33.3360257082246
 20
18.7353096757171
 42
0.1814972378209
  0
VERTEX
  8
0
 10
-34.4344434127297
 20
16.8645444327554
 42
-0.2342212815067
  0
VERTEX
  8
0
 10
-36.6498104606602
 20
14.7179136873366
 42
-0.0991161267158
  0
VERTEX
  8
0
 10
-44.5003528509622
 20
12.9689422805867
 42
0.2932873060619
  0
VERTEX
  8
0
 10
-35.147301203396
 20
8.2791123758557
 42
-0.1884888821775
  0
VERTEX
  8
0
 10
-31.7401680486627
 20
7.9893458316388
 42
-0.2730788681169
  0
VERTEX
  8
0
 10
-30.6278568310969
 20
5.3214933480721
 42
0.05044659172
  0
VERTEX
  8
0
 10
-30.9628277451679
 20
0.0996089472534
 42
0.0580224065807
  0
VERTEX
  8
0
 10
-31.2419772978879
 20
-5.8963529572853
 42
-0.1708620136424
  0
VERTEX
  8
0
 10
-31.6607412346835
 20
-8.1997176375809
 42
-0.0799106716467
  0
VERTEX
  8
0
 10
-31.9881450059101
 20
-8.500320903007
 42
-0.2091660601324
  0
VERTEX
  8
0
 10
-40.9599433108791
 20
-10.0390175106779
 42
0.2303613182758
  0
VERTEX
  8
0
 10
-46.2877144332539
 20
-10.8410330473338
 42
-0.1502573643801
  0
VERTEX
  8
0
 10
-51.6808303629228
 20
-12.2623157973853
 42
-0.3164662690154
  0
VERTEX
  8
0
 10
-54.004074951502
 20
-11.7102109801437
 42
-0.0979386213472
  0
VERTEX
  8
0
 10
-54.4291606169299
 20
-8.3508700816437
 42
-0.1247576395671
  0
VERTEX
  8
0
 10
-52.4595259466655
 20
-6.9026613164185
 42
0.3450622887322
  0
VERTEX
  8
0
 10
-51.0844322972678
 20
-1.0415602767221
 42
0.1272963611015
  0
VERTEX
  8
0
 10
-54.4898552877247
 20
4.098809341588
 42
-0.3004460097259
  0
VERTEX
  8
0
 10
-54.7633954658963
 20
7.001511980051
 42
0.0235106872051
  0
VERTEX
  8
0
 10
-52.3262016435385
 20
13.6756014711475
 42
0.2298201245456
  0
VERTEX
  8
0
 10
-52.8528081439923
 20
19.4405558017576
 42
0.4297140792966
  0
VERTEX
  8
0
 10
-55.3420601461132
 20
19.6612447711698
 42
0.1735111155264
  0
VERTEX
  8
0
 10
-57.127420407854
 20
15.2370388304687
 42
0.0292904910354
  0
VERTEX
  8
0
 10
-58.3856861842956
 20
6.8729422805867
 42
-0.0138888495677
  0
VERTEX
  8
0
 10
-57.5173076319737
 20
16.135728325781
 42
0.2205168619911
  0
VERTEX
  8
0
 10
-59.3059390300403
 20
21.7061927591925
 42
0.4769488988681
  0
VERTEX
  8
0
 10
-62.2182471542457
 20
21.214489378411
 42
0.1622345847335
  0
VERTEX
  8
0
 10
-63.9767796211315
 20
14.0780059311671
 42
0.0304621463269
  0
VERTEX
  8
0
 10
-62.7416915742515
 20
4.8300087375695
 42
-0.1902409575929
  0
VERTEX
  8
0
 10
-63.4423899578284
 20
1.2913893040727
 42
0.1468522831617
  0
VERTEX
  8
0
 10
-64.5824932339078
 20
-3.4821572483173
 42
-0.1192677336569
  0
VERTEX
  8
0
 10
-66.2019819233804
 20
-13.4133555646266
 42
0.0284085394243
  0
VERTEX
  8
0
 10
-68.2991379258323
 20
-19.4228273320435
 42
0.0607706059283
  0
VERTEX
  8
0
 10
-68.7150195176288
 20
-24.2843910527466
 42
-0.0040845064801
  0
VERTEX
  8
0
 10
-71.4243528509625
 20
-22.5910577194133
 42
0.3710853443388
  0
VERTEX
  8
0
 10
-70.8347141513407
 20
-28.4993230115148
 42
-0.3066744038357
  0
VERTEX
  8
0
 10
-70.0645826846342
 20
-31.2696734912557
 42
0.0579269999803
  0
VERTEX
  8
0
 10
-70.4083528509625
 20
-33.2590577194133
 42
-0.3439802678544
  0
VERTEX
  8
0
 10
-72.2409231018924
 20
-30.8015915821549
 42
-0.0209922859517
  0
VERTEX
  8
0
 10
-72.2710195176287
 20
-30.04172438608
 42
0.0922278965301
  0
VERTEX
  8
0
 10
-73.7950195176288
 20
-32.2430577194133
 42
-0.2657212886807
  0
VERTEX
  8
0
 10
-74.0672610094118
 20
-29.2698297172167
 42
0.0576002413538
  0
VERTEX
  8
0
 10
-73.7950195176288
 20
-27.8403910527466
 42
0.2168952986741
  0
VERTEX
  8
0
 10
-76.3350195176288
 20
-32.2430577194133
 42
-0.1254425122322
  0
VERTEX
  8
0
 10
-77.0123528509625
 20
-29.02572438608
 42
0.0209294187729
  0
VERTEX
  8
0
 10
-78.5169555577888
 20
-31.4928345913988
 42
-0.6782756213949
  0
VERTEX
  8
0
 10
-79.9074485877529
 20
-31.4891942641985
 42
-0.4074066889288
  0
VERTEX
  8
0
 10
-79.9589053391417
 20
-29.143760955559
 42
0.0269643421581
  0
VERTEX
  8
0
 10
-79.8910195176287
 20
-29.02572438608
 42
0.3644035440815
  0
VERTEX
  8
0
 10
-83.1083528509625
 20
-31.7350577194133
 42
-0.0159699963281
  0
VERTEX
  8
0
 10
-84.8211835868416
 20
-28.7577853689402
 42
0.0349499620844
  0
VERTEX
  8
0
 10
-85.1403528509625
 20
-28.3483910527466
 42
0.0734462192107
  0
VERTEX
  8
0
 10
-85.4790195176288
 20
-32.5817243860799
 42
-0.4137058598451
  0
VERTEX
  8
0
 10
-87.5833837074924
 20
-30.0575538164279
 42
-0.0423201412987
  0
VERTEX
  8
0
 10
-87.5110195176288
 20
-29.3643910527466
 42
0.1024268957579
  0
VERTEX
  8
0
 10
-90.0510195176287
 20
-32.7510577194133
 42
-0.2489041743433
  0
VERTEX
  8
0
 10
-90.1171268286784
 20
-29.2838114858417
 42
-0.0062432712004
  0
VERTEX
  8
0
 10
-89.3736861842956
 20
-27.6710577194133
 42
0.1551465247449
  0
VERTEX
  8
0
 10
-94.6635556940467
 20
-31.6052446829478
 42
0.446084375383
  0
VERTEX
  8
0
 10
-94.2843528509625
 20
-33.4283910527466
 42
-0.2412040448552
  0
VERTEX
  8
0
 10
-91.7443528509625
 20
-30.54972438608
 42
0.3362351483409
  0
VERTEX
  8
0
 10
-89.2043528509625
 20
-34.2750577194133
 42
-0.1138097217607
  0
VERTEX
  8
0
 10
-88.394644904318
 20
-32.8035196927908
 42
-0.2092726211978
  0
VERTEX
  8
0
 10
-86.9963480902201
 20
-33.3589585983196
 42
0.0919825377534
  0
VERTEX
  8
0
 10
-84.4630195176288
 20
-34.1057243860799
 42
0.0
  0
VERTEX
  8
0
 10
-84.4630195176288
 20
-32.9203910527466
 42
0.0
  0
VERTEX
  8
0
 10
-83.1083528509625
 20
-33.59772438608
 42
-0.2963665382985
  0
VERTEX
  8
0
 10
-81.2456861842956
 20
-31.3963910527466
 42
0.3410185293953
  0
VERTEX
  8
0
 10
-78.881176041895
 20
-33.3462532153989
 42
0.0388028184353
  0
VERTEX
  8
0
 10
-78.0283528509625
 20
-33.4283910527466
 42
0.0
  0
VERTEX
  8
0
 10
-78.0283528509625
 20
-32.2430577194133
 42
-0.129797206411
  0
VERTEX
  8
0
 10
-76.6516629533606
 20
-33.4789097541708
 42
0.1056896178034
  0
VERTEX
  8
0
 10
-75.9963528509625
 20
-33.9363910527466
 42
-0.1568922593406
  0
VERTEX
  8
0
 10
-74.9803528509625
 20
-31.3963910527466
 42
0.2781642351609
  0
VERTEX
  8
0
 10
-74.155897387831
 20
-33.7100627088867
 42
0.5991481387079
  0
VERTEX
  8
0
 10
-73.1176861842956
 20
-32.9203910527466
 42
0.1076100365638
  0
VERTEX
  8
0
 10
-70.0696861842956
 20
-33.9363910527466
 42
0.0770806493413
  0
VERTEX
  8
0
 10
-69.7310195176287
 20
-32.2430577194133
 42
0.0
  0
VERTEX
  8
0
 10
-69.0536861842956
 20
-32.2430577194133
 42
0.3412208472956
  0
VERTEX
  8
0
 10
-68.4610172675116
 20
-33.7302542028179
 42
0.3211475635814
  0
VERTEX
  8
0
 10
-67.3603528509625
 20
-32.07372438608
 42
0.0907677699766
  0
VERTEX
  8
0
 10
-66.1790384209593
 20
-33.0466848793447
 42
-0.0531796060398
  0
VERTEX
  8
0
 10
-65.4976861842956
 20
-34.4443910527466
 42
0.3176048011781
  0
VERTEX
  8
0
 10
-63.6350195176287
 20
-31.2270577194133
 42
0.0307435908404
  0
VERTEX
  8
0
 10
-62.2292138535667
 20
-33.3420293991008
 42
0.0852972340658
  0
VERTEX
  8
0
 10
-58.8936861842956
 20
-34.10572438608
 42
0.0276829834741
  0
VERTEX
  8
0
 10
-59.2323528509625
 20
-32.4123910527466
 42
-0.064537072605
  0
VERTEX
  8
0
 10
-57.8776861842956
 20
-34.2750577194133
 42
0.0
  0
VERTEX
  8
0
 10
-57.5390195176287
 20
-34.2750577194133
 42
0.0539919705091
  0
VERTEX
  8
0
 10
-57.2003528509625
 20
-31.7350577194133
 42
-0.2879390578215
  0
VERTEX
  8
0
 10
-55.9317111266585
 20
-32.7717504040621
 42
0.5469607210978
  0
VERTEX
  8
0
 10
-54.9352149242323
 20
-32.9022579937274
 42
-0.1329301965029
  0
VERTEX
  8
0
 10
-52.2896861842956
 20
-30.54972438608
 42
0.3536283225393
  0
VERTEX
  8
0
 10
-50.7656861842956
 20
-33.4283910527466
 42
-0.1148325502173
  0
VERTEX
  8
0
 10
-48.9030195176289
 20
-30.7190577194133
 42
0.3186276366534
  0
VERTEX
  8
0
 10
-47.2096861842956
 20
-33.9363910527466
 42
-0.103782891423
  0
VERTEX
  8
0
 10
-45.6856861842956
 20
-31.56572438608
 42
0.4639012009383
  0
VERTEX
  8
0
 10
-42.6376861842956
 20
-33.2590577194133
 42
-0.0612711168607
  0
VERTEX
  8
0
 10
-42.4683528509622
 20
-31.0577243860799
 42
0.1180052834648
  0
VERTEX
  8
0
 10
-39.2510195176289
 20
-32.9203910527466
 42
-0.2373366474042
  0
VERTEX
  8
0
 10
-37.8963528509622
 20
-30.54972438608
 42
0.0521439030874
  0
VERTEX
  8
0
 10
-37.3883528509622
 20
-33.59772438608
 42
-0.0656241473907
  0
VERTEX
  8
0
 10
-35.5256861842956
 20
-32.2430577194133
 42
0.0
  0
VERTEX
  8
0
 10
-35.5256861842956
 20
-34.9523910527466
 42
0.2216065566558
  0
VERTEX
  8
0
 10
-31.9696861842956
 20
-31.56572438608
 42
0.0
  0
VERTEX
  8
0
 10
-31.6310195176289
 20
-31.56572438608
 42
0.2504970302485
  0
VERTEX
  8
0
 10
-29.5990195176289
 20
-34.2750577194133
 42
-0.0039054399045
  0
VERTEX
  8
0
 10
-28.0750195176289
 20
-29.7030577194133
 42
0.0
  0
VERTEX
  8
0
 10
-27.7363528509622
 20
-29.7030577194133
 42
-0.0963653960829
  0
VERTEX
  8
0
 10
-27.7363528509622
 20
-34.2750577194133
 42
0.1712837660764
  0
VERTEX
  8
0
 10
-26.5510195176289
 20
-32.9203910527466
 42
0.1950193078303
  0
VERTEX
  8
0
 10
-24.356460964569
 20
-34.0803202519654
 42
0.1406198770198
  0
VERTEX
  8
0
 10
-22.4870195176289
 20
-32.5817243860799
 42
0.2432968041739
  0
VERTEX
  8
0
 10
-20.6243528509622
 20
-34.2750577194133
 42
-0.2831414216666
  0
VERTEX
  8
0
 10
-19.7179732575153
 20
-32.6756207334644
 42
-0.2817303115218
  0
VERTEX
  8
0
 10
-18.9310195176289
 20
-34.2750577194133
 42
0.0545129451598
  0
VERTEX
  8
0
 10
-17.5763528509622
 20
-31.9043910527466
 42
0.1897358940686
  0
VERTEX
  8
0
 10
-15.9155826187966
 20
-32.8367135400759
 42
0.1281654390954
  0
VERTEX
  8
0
 10
-14.5174995243978
 20
-31.542669066052
 42
-0.6101288130044
  0
VERTEX
  8
0
 10
-12.9977563754478
 20
-32.2532535871364
 42
0.1626402685269
  0
VERTEX
  8
0
 10
-12.4873005610279
 20
-33.3756035746312
 42
0.4566835700215
  0
VERTEX
  8
0
 10
-11.4326926050205
 20
-32.8925117314727
 42
-0.0864688206967
  0
VERTEX
  8
0
 10
-10.8011558447372
 20
-32.0485413016541
 42
-0.6044386635776
  0
VERTEX
  8
0
 10
-10.1607201150694
 20
-32.4854673284365
 42
0.3490734369916
  0
VERTEX
  8
0
 10
-9.7331726751809
 20
-33.97872438608
 42
0.1006846901421
  0
VERTEX
  8
0
 10
-7.5463183798156
 20
-32.7056170369519
 42
-0.6337381842636
  0
VERTEX
  8
0
 10
-5.4038004111366
 20
-33.9927825569546
 42
-0.0073939140157
  0
VERTEX
  8
0
 10
-5.3843528509622
 20
-34.2750577194133
 42
0.2762178520589
  0
VERTEX
  8
0
 10
-3.1830195176289
 20
-31.7350577194133
 42
0.0
  0
VERTEX
  8
0
 10
-2.1670195176289
 20
-31.56572438608
 42
0.4233253854897
  0
VERTEX
  8
0
 10
0.0343138157044
 20
-33.9363910527466
 42
0.0322375364116
  0
VERTEX
  8
0
 10
1.0503138157045
 20
-31.56572438608
 42
0.0894081658906
  0
VERTEX
  8
0
 10
4.0708598208346
 20
-33.2147896930092
 42
0.0285491803597
  0
VERTEX
  8
0
 10
4.6063138157045
 20
-33.2590577194133
 42
0.0
  0
VERTEX
  8
0
 10
4.6063138157045
 20
-30.54972438608
 42
-0.1789972640813
  0
VERTEX
  8
0
 10
6.7761104134849
 20
-32.5517824965378
 42
0.9628362898338
  0
VERTEX
  8
0
 10
8.4749754159281
 20
-32.6690815227407
 42
0.07936072962
  0
VERTEX
  8
0
 10
8.6703138157045
 20
-31.3963910527466
 42
0.0
  0
VERTEX
  8
0
 10
9.3476471490378
 20
-31.3963910527466
 42
0.0939638684231
  0
VERTEX
  8
0
 10
10.3636471490378
 20
-33.9363910527466
 42
0.1014084397158
  0
VERTEX
  8
0
 10
11.2103138157044
 20
-32.4123910527466
 42
-0.0376406721443
  0
VERTEX
  8
0
 10
12.0710785609915
 20
-33.9051085202842
 42
0.3288509963794
  0
VERTEX
  8
0
 10
14.9827712894717
 20
-32.2930896976814
 42
0.038905279575
  0
VERTEX
  8
0
 10
15.2743138157044
 20
-31.56572438608
 42
-0.0977713014166
  0
VERTEX
  8
0
 10
16.9676471490378
 20
-34.4443910527466
 42
0.2645171619997
  0
VERTEX
  8
0
 10
19.1689804823711
 20
-32.4123910527466
 42
-0.7951147932888
  0
VERTEX
  8
0
 10
19.8068317454634
 20
-32.9738308314189
 42
0.2717734328244
  0
VERTEX
  8
0
 10
20.5236471490378
 20
-33.7670577194133
 42
0.0011001395592
  0
VERTEX
  8
0
 10
21.3703138157044
 20
-31.7350577194133
 42
0.1033170824409
  0
VERTEX
  8
0
 10
22.1902084883642
 20
-33.9815628066241
 42
0.3877572628132
  0
VERTEX
  8
0
 10
23.6535521123839
 20
-33.9860848162876
 42
-0.3511665155774
  0
VERTEX
  8
0
 10
26.3130624266485
 20
-33.6762751464468
 42
0.0404200213366
  0
VERTEX
  8
0
 10
26.6196471490378
 20
-33.7670577194133
 42
0.0
  0
VERTEX
  8
0
 10
27.4663138157045
 20
-32.4123910527466
 42
0.0
  0
VERTEX
  8
0
 10
27.8049804823711
 20
-32.4123910527466
 42
0.3450910371522
  0
VERTEX
  8
0
 10
29.1596471490378
 20
-33.7670577194133
 42
0.0
  0
VERTEX
  8
0
 10
29.4983138157044
 20
-32.4123910527466
 42
0.0822077684819
  0
VERTEX
  8
0
 10
32.0383138157044
 20
-33.2590577194133
 42
0.0566184960527
  0
VERTEX
  8
0
 10
32.7156471490378
 20
-31.3963910527466
 42
0.006348326404
  0
VERTEX
  8
0
 10
34.8986275267744
 20
-32.9890392439624
 42
0.4538271986714
  0
VERTEX
  8
0
 10
36.8044741701912
 20
-32.1965443577431
 42
-0.0060867047229
  0
VERTEX
  8
0
 10
36.9489804823711
 20
-31.9043910527466
 42
0.3826020770084
  0
VERTEX
  8
0
 10
38.4030419459569
 20
-33.3877218372165
 42
-0.0731569188966
  0
VERTEX
  8
0
 10
40.2931873930593
 20
-32.5625247305416
 42
-0.1635220905329
  0
VERTEX
  8
0
 10
41.8714892262611
 20
-33.8605432842651
 42
0.5296756915548
  0
VERTEX
  8
0
 10
43.6276432341389
 20
-33.1853032497203
 42
0.0349680134116
  0
VERTEX
  8
0
 10
44.3996471490378
 20
-31.3963910527466
 42
0.0543856178631
  0
VERTEX
  8
0
 10
46.001003891084
 20
-33.4010502542104
 42
0.1529248823987
  0
VERTEX
  8
0
 10
47.4476471490378
 20
-33.9363910527466
 42
0.0200512638619
  0
VERTEX
  8
0
 10
47.9556471490378
 20
-30.2110577194133
 42
0.0
  0
VERTEX
  8
0
 10
48.6329804823711
 20
-30.2110577194133
 42
0.2246394383454
  0
VERTEX
  8
0
 10
50.0259696704474
 20
-33.0755497962659
 42
0.4807914744085
  0
VERTEX
  8
0
 10
51.5199504129943
 20
-32.1530789340886
 42
-0.6991670259263
  0
VERTEX
  8
0
 10
53.0876751388424
 20
-31.4133119079711
 42
0.0261805448101
  0
VERTEX
  8
0
 10
55.1933107172643
 20
-33.7914478252018
 42
0.0381807583748
  0
VERTEX
  8
0
 10
55.4063138157045
 20
-33.9363910527466
 42
-0.1253188358814
  0
VERTEX
  8
0
 10
56.4950312021831
 20
-31.3878273548341
 42
-0.0720793594261
  0
VERTEX
  8
0
 10
56.9303138157045
 20
-31.0577243860799
 42
0.1357442254331
  0
VERTEX
  8
0
 10
57.4728921184767
 20
-32.7524759268848
 42
0.3951721535448
  0
VERTEX
  8
0
 10
58.9623138157045
 20
-32.5817243860799
 42
0.0
  0
VERTEX
  8
0
 10
58.7929804823711
 20
-34.10572438608
 42
0.4289452052942
  0
VERTEX
  8
0
 10
62.3095154985636
 20
-31.668442912182
 42
0.050016526021
  0
VERTEX
  8
0
 10
62.5183138157045
 20
-30.7190577194133
 42
-0.2090562494347
  0
VERTEX
  8
0
 10
63.8235524985411
 20
-33.667949462646
 42
0.0474493922181
  0
VERTEX
  8
0
 10
64.0423138157044
 20
-34.7830577194133
 42
0.0
  0
VERTEX
  8
0
 10
64.3809804823711
 20
-34.7830577194133
 42
-0.1322717123297
  0
VERTEX
  8
0
 10
66.9209804823711
 20
-32.07372438608
 42
0.431897991124
  0
VERTEX
  8
0
 10
71.264314148061
 20
-34.0076182344281
 42
0.1674242781395
  0
VERTEX
  8
0
 10
72.0009804823711
 20
-33.2590577194133
 42
0.3565009442629
  0
VERTEX
  8
0
 10
74.5382478813117
 20
-33.5189243849766
 42
-0.0883917752496
  0
VERTEX
  8
0
 10
75.2183138157045
 20
-33.2590577194133
 42
0.0541697652375
  0
VERTEX
  8
0
 10
75.7263138157045
 20
-34.4443910527466
 42
-0.2435353725944
  0
VERTEX
  8
0
 10
77.4196471490375
 20
-32.7510577194133
 42
0.0907281898595
  0
VERTEX
  8
0
 10
76.9116471490378
 20
-32.5817243860799
 42
0.0
  0
VERTEX
  8
0
 10
77.0809804823711
 20
-31.7350577194133
 42
0.0199759306073
  0
VERTEX
  8
0
 10
78.1462256990798
 20
-32.97488130191
 42
0.2107331936428
  0
VERTEX
  8
0
 10
80.4813639035041
 20
-32.3552054239985
 42
-0.0643545351435
  0
VERTEX
  8
0
 10
81.8223138157044
 20
-31.9043910527466
 42
0.3299039115811
  0
VERTEX
  8
0
 10
83.5156471490375
 20
-33.08972438608
 42
-0.1856145836673
  0
VERTEX
  8
0
 10
84.5316471490375
 20
-31.56572438608
 42
0.0356240745412
  0
VERTEX
  8
0
 10
85.0396471490375
 20
-33.2590577194133
 42
0.2492914928699
  0
VERTEX
  8
0
 10
87.9183138157044
 20
-32.07372438608
 42
-0.0689210029206
  0
VERTEX
  8
0
 10
89.7809804823713
 20
-34.2750577194133
 42
0.0
  0
VERTEX
  8
0
 10
90.1196471490375
 20
-34.2750577194133
 42
-0.1253146837525
  0
VERTEX
  8
0
 10
91.1688182150612
 20
-31.3518622790576
 42
-0.4639493985619
  0
VERTEX
  8
0
 10
92.5551131296366
 20
-31.340858134064
 42
-0.1035447278283
  0
VERTEX
  8
0
 10
93.8449804823713
 20
-33.2590577194133
 42
0.0
  0
VERTEX
  8
0
 10
94.1836471490375
 20
-33.2590577194133
 42
0.3358542950836
  0
VERTEX
  8
0
 10
92.4474770399335
 20
-29.9336639072383
 42
0.0160194077708
  0
VERTEX
  8
0
 10
89.4324556105582
 20
-27.895863398722
 42
0.0352627251341
  0
VERTEX
  8
0
 10
88.9343138157044
 20
-27.6710577194133
 42
-0.1714834566322
  0
VERTEX
  8
0
 10
89.9546679799277
 20
-32.2826184392865
 42
0.006642355948
  0
VERTEX
  8
0
 10
89.9503138157044
 20
-32.5817243860799
 42
0.0
  0
VERTEX
  8
0
 10
89.2729804823713
 20
-32.5817243860799
 42
0.2289384598053
  0
VERTEX
  8
0
 10
87.0716471490381
 20
-29.7030577194133
 42
-0.3585662567278
  0
VERTEX
  8
0
 10
85.9671916331617
 20
-32.2605036348483
 42
-0.5209669900135
  0
VERTEX
  8
0
 10
85.0459460567687
 20
-31.2635138828179
 42
-0.0019297772616
  0
VERTEX
  8
0
 10
84.8703138157044
 20
-28.0097243860799
 42
0.1730915315928
  0
VERTEX
  8
0
 10
83.1769804823713
 20
-31.56572438608
 42
-0.1092003514253
  0
VERTEX
  8
0
 10
82.0089910832084
 20
-30.2927116335691
 42
0.2301882139061
  0
VERTEX
  8
0
 10
79.2823138157044
 20
-29.02572438608
 42
-0.4123583999223
  0
VERTEX
  8
0
 10
79.0953257240903
 20
-31.7634205954755
 42
-0.0406776201585
  0
VERTEX
  8
0
 10
78.6049804823713
 20
-32.2430577194133
 42
0.1931854332042
  0
VERTEX
  8
0
 10
76.4036471490378
 20
-29.02572438608
 42
-0.0768774239846
  0
VERTEX
  8
0
 10
76.2343138157045
 20
-32.07372438608
 42
0.0205007853076
  0
VERTEX
  8
0
 10
74.0329804823711
 20
-28.51772438608
 42
0.0329467975405
  0
VERTEX
  8
0
 10
74.0329804823711
 20
-30.2110577194133
 42
-0.1677431529364
  0
VERTEX
  8
0
 10
71.4853359484449
 20
-22.5814280223203
 42
-0.0211232733036
  0
VERTEX
  8
0
 10
71.3236471490378
 20
-18.6963910527466
 42
-0.0076505580097
  0
VERTEX
  8
0
 10
75.2437313274149
 20
-22.0847722154581
 42
0.0707931670637
  0
VERTEX
  8
0
 10
77.4196471490375
 20
-23.43772438608
 42
0.0237783894882
  0
VERTEX
  8
0
 10
76.7423138157044
 20
-21.7443910527466
 42
0.0165546899866
  0
VERTEX
  8
0
 10
79.4516471490375
 20
-23.6070577194133
 42
-0.0766029787124
  0
VERTEX
  8
0
 10
78.7006075857223
 20
-20.6726286672694
 42
-0.3677600507137
  0
VERTEX
  8
0
 10
79.4516471490375
 20
-19.8817243860799
 42
0.0100824181901
  0
VERTEX
  8
0
 10
77.7583138157044
 20
-17.5110577194133
 42
0.0363514066156
  0
VERTEX
  8
0
 10
79.4516471490375
 20
-18.1883910527466
 42
0.0147255827749
  0
VERTEX
  8
0
 10
76.1688070889759
 20
-12.094398991391
 42
-0.0253365463272
  0
VERTEX
  8
0
 10
75.7263138157045
 20
-11.0763910527466
 42
-0.0205125606626
  0
VERTEX
  8
0
 10
79.0639672786862
 20
-15.2615133682838
 42
0.0354104914939
  0
VERTEX
  8
0
 10
79.7903138157044
 20
-15.9870577194133
 42
-0.0821754183919
  0
VERTEX
  8
0
 10
78.9436471490375
 20
-12.4310577194133
 42
-0.0388324033212
  0
VERTEX
  8
0
 10
82.4661101463521
 20
-14.3740288335523
 42
-0.0781744732375
  0
VERTEX
  8
0
 10
84.0276782492359
 20
-17.4123599015093
 42
0.1914600943447
  0
VERTEX
  8
0
 10
84.8703138157044
 20
-18.1883910527466
 42
-0.1472665931844
  0
VERTEX
  8
0
 10
85.5542025948769
 20
-16.732901156089
 42
-0.5222174969873
  0
VERTEX
  8
0
 10
86.4063609849031
 20
-17.278669313695
 42
0.6459531630253
  0
VERTEX
  8
0
 10
87.8428438625325
 20
-17.7704526749789
 42
-0.4221732501361
  0
VERTEX
  8
0
 10
89.8448078640967
 20
-17.6074785281743
 42
0.153648337178
  0
VERTEX
  8
0
 10
92.1516471490375
 20
-18.86572438608
 42
0.0035439717988
  0
VERTEX
  8
0
 10
86.4375270161447
 20
-8.8780049012289
 42
-0.0490947182838
  0
VERTEX
  8
0
 10
85.7169804823713
 20
-7.3510577194133
 42
-0.0116158942203
  0
VERTEX
  8
0
 10
92.7193528232717
 20
-14.7915249259274
 42
0.1178854777734
  0
VERTEX
  8
0
 10
94.3529804823713
 20
-16.1563910527466
 42
0.004824897936
  0
VERTEX
  8
0
 10
92.6364251541485
 20
-11.221153975475
 42
-0.0241433797845
  0
VERTEX
  8
0
 10
92.4903138157044
 20
-10.5683910527466
 42
0.0342895989132
  0
VERTEX
  8
0
 10
93.8449804823713
 20
-12.0923910527466
 42
0.0244952275853
  0
VERTEX
  8
0
 10
92.1516471490375
 20
-8.0283910527466
 42
0.0356889877793
  0
VERTEX
  8
0
 10
95.0049486361966
 20
-11.3213737127031
 42
0.0298945201967
  0
VERTEX
  8
0
 10
95.3689804823713
 20
-11.5843910527466
 42
-0.0311764416475
  0
VERTEX
  8
0
 10
95.0303138157044
 20
-8.3670577194133
 42
0.131068450613
  0
VERTEX
  8
0
 10
99.2636471490375
 20
-9.72172438608
 42
0.0248648694525
  0
VERTEX
  8
0
 10
92.1516471490375
 20
-0.5777243860799
 42
0.0234646069337
  0
VERTEX
  8
0
 10
97.0623138157044
 20
-0.9163910527466
 42
-0.0376118876695
  0
VERTEX
  8
0
 10
95.5383138157044
 20
0.94627561392
 42
0.0491405967314
  0
VERTEX
  8
0
 10
98.0783138157044
 20
1.6236089472534
 42
0.0461362010443
  0
VERTEX
  8
0
 10
95.4033154848852
 20
4.0767174567283
 42
-0.0419231521166
  0
VERTEX
  8
0
 10
95.0303138157044
 20
4.50227561392
 42
0.0242978401681
  0
VERTEX
  8
0
 10
99.9409804823713
 20
3.6556089472534
 42
0.0978615347681
  0
VERTEX
  8
0
 10
97.5770937636212
 20
5.6020947870971
 42
0.040775297151
  0
VERTEX
  8
0
 10
92.4374932249562
 20
9.3924122192971
 42
-0.1729243357547
  0
VERTEX
  8
0
 10
90.7969804823713
 20
11.2756089472534
 42
0.0
  0
VERTEX
  8
0
 10
92.1516471490375
 20
11.10627561392
 42
-0.0094868553391
  0
VERTEX
  8
0
 10
88.5956471490375
 20
14.8316089472534
 42
-0.0056503466816
  0
VERTEX
  8
0
 10
93.4525289668077
 20
12.8561501898811
 42
0.0706382184448
  0
VERTEX
  8
0
 10
95.3689804823713
 20
12.4609422805867
 42
0.008869962323
  0
VERTEX
  8
0
 10
93.8449804823713
 20
15.0009422805867
 42
0.1341475341077
  0
VERTEX
  8
0
 10
97.8166849246042
 20
15.5025638308966
 42
0.1375001154975
  0
VERTEX
  8
0
 10
98.4169804823713
 20
16.0169422805867
 42
-0.020186597314
  0
VERTEX
  8
0
 10
94.6127321376046
 20
17.3549677914661
 42
-0.0941366090588
  0
VERTEX
  8
0
 10
93.5063138157044
 20
18.0489422805867
 42
0.0
  0
VERTEX
  8
0
 10
94.5223138157044
 20
18.0489422805867
 42
-0.1031144792369
  0
VERTEX
  8
0
 10
93.199456322697
 20
19.5110520607369
 42
-0.2793478395451
  0
VERTEX
  8
0
 10
94.1836471490375
 20
20.4196089472534
 42
0.156933262186
  0
VERTEX
  8
0
 10
91.8442690973249
 20
22.4537427378357
 42
-0.0602981220764
  0
VERTEX
  8
0
 10
87.3716084514452
 20
25.4758318096694
 42
-0.0832655973262
  0
VERTEX
  8
0
 10
86.0556471490375
 20
27.1929422805867
 42
0.1153874868469
  0
VERTEX
  8
0
 10
92.3209804823713
 20
25.4996089472534
 42
0.0209596771775
  0
VERTEX
  8
0
 10
88.7251260778977
 20
30.6005335322572
 42
-0.1245837853094
  0
VERTEX
  8
0
 10
87.0716471490375
 20
34.47427561392
 42
0.0
  0
VERTEX
  8
0
 10
90.9663138157044
 20
34.47427561392
 42
0.0261449035687
  0
VERTEX
  8
0
 10
86.2211484245863
 20
38.4629301650991
 42
0.0430548718207
  0
VERTEX
  8
0
 10
85.2089804823713
 20
39.04627561392
 42
-0.0526664526879
  0
VERTEX
  8
0
 10
87.0716471490381
 20
40.2316089472534
 42
-0.0132370462327
  0
VERTEX
  8
0
 10
82.4996471490375
 20
43.1890201614461
 42
-0.1071059278604
  0
VERTEX
  8
0
 10
77.7583138157044
 20
50.2222756139201
 42
0.0798833099085
  0
VERTEX
  8
0
 10
83.8144229860621
 20
47.5810822644508
 42
-0.0505433097606
  0
VERTEX
  8
0
 10
85.2089804823713
 20
47.0049422805867
 42
0.1071771057464
  0
VERTEX
  8
0
 10
83.8583271310503
 20
49.1524104244817
 42
-0.0657291495779
  0
VERTEX
  8
0
 10
83.1769804823713
 20
50.2222756139201
 42
0.0372322387612
  0
VERTEX
  8
0
 10
86.3943138157044
 20
49.2062756139201
 42
-0.0170493055922
  0
VERTEX
  8
0
 10
83.2460800580877
 20
52.6036236440099
 42
0.0133651316142
  0
VERTEX
  8
0
 10
78.417556293657
 20
60.4088389336794
 42
-0.0458301512832
  0
VERTEX
  8
0
 10
77.7583138157044
 20
61.7369422805869
 42
0.1167281996021
  0
VERTEX
  8
0
 10
80.9756471490375
 20
60.38227561392
 42
-0.0298493301677
  0
VERTEX
  8
0
 10
73.7857604302878
 20
69.6981514277222
 42
-0.0990875003651
  0
VERTEX
  8
0
 10
70.2763658653389
 20
80.5798842091418
 42
0.0316775159066
  0
VERTEX
  8
0
 10
69.1145186261084
 20
89.3347100068979
 42
0.0209333137577
  0
VERTEX
  8
0
 10
68.6188804359465
 20
91.5415414428602
 42
0.1619604289508
  0
SEQEND
  0
POLYLINE
  8
0
 66
     1
 10
0.0
 20
0.0
 30
0.0
 70
     1
  0
VERTEX
  8
0
 10
-8.9403528509622
 20
-32.58172438608
 42
0.0
  0
VERTEX
  8
0
 10
-8.9403528509622
 20
-32.2430577194133
 42
0.0
  0
VERTEX
  8
0
 10
-9.4483528509622
 20
-32.2430577194133
 42
0.0
  0
VERTEX
  8
0
 10
-9.4483528509622
 20
-32.5817243860799
 42
0.0
  0
SEQEND
  0
POLYLINE
  8
0
 66
     1
 10
0.0
 20
0.0
 30
0.0
 70
     1
  0
VERTEX
  8
0
 10
-68.0376861842956
 20
-32.07372438608
 42
-0.265470904382
  0
VERTEX
  8
0
 10
-68.0376861842956
 20
-31.3963910527466
 42
0.0
  0
SEQEND
  0
POLYLINE
  8
0
 66
     1
 10
0.0
 20
0.0
 30
0.0
 70
     1
  0
VERTEX
  8
0
 10
-45.6856861842956
 20
-28.8563910527466
 42
0.0728913577793
  0
VERTEX
  8
0
 10
-47.0403528509622
 20
-32.2430577194133
 42
0.0
  0
VERTEX
  8
0
 10
-47.7176861842956
 20
-32.2430577194133
 42
0.1334306600785
  0
VERTEX
  8
0
 10
-49.1599307930912
 20
-27.5836635191961
 42
0.064242574241
  0
VERTEX
  8
0
 10
-49.9190195176289
 20
-26.8243910527466
 42
-0.1967695212377
  0
VERTEX
  8
0
 10
-50.1386409486934
 20
-30.9280740906165
 42
-0.1453027982545
  0
VERTEX
  8
0
 10
-51.4430195176287
 20
-32.07372438608
 42
-0.154812347867
  0
VERTEX
  8
0
 10
-51.6002252775142
 20
-28.9232050373713
 42
0.1847350339244
  0
VERTEX
  8
0
 10
-51.0889908401907
 20
-22.3243712631994
 42
-0.0135668186185
  0
VERTEX
  8
0
 10
-53.1998257650835
 20
-15.6314960864764
 42
-0.0394223524728
  0
VERTEX
  8
0
 10
-53.3056861842956
 20
-14.6323910527466
 42
0.0467465101743
  0
VERTEX
  8
0
 10
-46.1936861842956
 20
-14.0796909388143
 42
-0.134953129422
  0
VERTEX
  8
0
 10
-41.8461045120383
 20
-13.2337156232848
 42
0.0206551578709
  0
VERTEX
  8
0
 10
-37.1752873128352
 20
-12.7746078765301
 42
0.0509808875458
  0
VERTEX
  8
0
 10
-31.6310195176289
 20
-12.4310577194133
 42
0.0
  0
VERTEX
  8
0
 10
-31.6310195176289
 20
-26.99372438608
 42
0.0
  0
VERTEX
  8
0
 10
-32.1390195176289
 20
-26.99372438608
 42
-0.1840199104614
  0
VERTEX
  8
0
 10
-33.1309118731478
 20
-31.8415341850801
 42
-0.1734701018757
  0
VERTEX
  8
0
 10
-34.6790195176289
 20
-32.9203910527466
 42
-0.0596152080024
  0
VERTEX
  8
0
 10
-33.8822420372574
 20
-28.7053844520886
 42
0.0361123089535
  0
VERTEX
  8
0
 10
-33.8323528509622
 20
-28.1790577194133
 42
0.1452454614534
  0
VERTEX
  8
0
 10
-36.3723528509623
 20
-31.7350577194133
 42
-0.1856362188208
  0
VERTEX
  8
0
 10
-37.4178187526549
 20
-29.7030577194133
 42
0.1652608530808
  0
VERTEX
  8
0
 10
-38.9123528509623
 20
-27.50172438608
 42
-0.0868633228383
  0
VERTEX
  8
0
 10
-39.5896861842956
 20
-32.07372438608
 42
0.0033456513103
  0
VERTEX
  8
0
 10
-41.7913874015695
 20
-29.6934157130659
 42
0.0398087766523
  0
VERTEX
  8
0
 10
-43.8230195176289
 20
-28.1790577194133
 42
-0.1019525037004
  0
VERTEX
  8
0
 10
-43.6536861842955
 20
-32.07372438608
 42
-0.3067180402864
  0
VERTEX
  8
0
 10
-45.0277550750814
 20
-30.526242795822
 42
0.0031004430101
  0
VERTEX
  8
0
 10
-45.3470195176289
 20
-28.8563910527466
 42
0.0
  0
SEQEND
  0
POLYLINE
  8
0
 66
     1
 10
0.0
 20
0.0
 30
0.0
 70
     1
  0
VERTEX
  8
0
 10
-0.3043528509622
 20
-32.7510577194133
 42
-0.7259574153253
  0
VERTEX
  8
0
 10
-0.1996462661939
 20
-30.6318304323856
 42
-0.0547511395147
  0
VERTEX
  8
0
 10
0.3729804823711
 20
-30.3803910527466
 42
-0.0594671231041
  0
SEQEND
  0
POLYLINE
  8
0
 66
     1
 10
0.0
 20
0.0
 30
0.0
 70
     1
  0
VERTEX
  8
0
 10
50.2133698052878
 20
-7.5767803756633
 42
-3.8263124660271
  0
VERTEX
  8
0
 10
50.260526282388
 20
-7.5874729877252
 42
-0.1769674326576
  0
SEQEND
  0
POLYLINE
  8
0
 66
     1
 10
0.0
 20
0.0
 30
0.0
 70
     1
  0
VERTEX
  8
0
 10
-70.4970703125
 20
-45.8134765625
 42
-0.5808399614564
  0
VERTEX
  8
0
 10
-70.1412733769817
 20
-52.4000435028679
 42
-0.134659806646
  0
VERTEX
  8
0
 10
-79.1875
 20
-54.525390625
 42
-0.4563229072415
  0
VERTEX
  8
0
 10
-80.5947265625
 20
-52.849609375
 42
0.0062971129671
  0
VERTEX
  8
0
 10
-78.5188231535061
 20
-39.3182272280728
 42
-0.340411620111
  0
VERTEX
  8
0
 10
-76.5126953125
 20
-37.4130859375
 42
-0.2175933299471
  0
VERTEX
  8
0
 10
-69.8310546875
 20
-38.4443359375
 42
-0.5004735017019
  0
SEQEND
  0
POLYLINE
  8
0
 66
     1
 10
0.0
 20
0.0
 30
0.0
 70
     1
  0
VERTEX
  8
0
 10
-73.9775390625
 20
-40.0556640625
 42
0.0192236625154
  0
VERTEX
  8
0
 10
-75.6533203125
 20
-40.0771484375
 42
-0.0087942299946
  0
VERTEX
  8
0
 10
-76.373046875
 20
-44.599609375
 42
0.3160553547514
  0
VERTEX
  8
0
 10
-71.5418447177652
 20
-43.1678673098572
 42
0.5664240902304
  0
SEQEND
  0
POLYLINE
  8
0
 66
     1
 10
0.0
 20
0.0
 30
0.0
 70
     1
  0
VERTEX
  8
0
 10
-76.8349609375
 20
-47.5751953125
 42
0.0
  0
VERTEX
  8
0
 10
-77.4794921875
 20
-51.603515625
 42
0.1312630078387
  0
VERTEX
  8
0
 10
-71.8983908397914
 20
-50.508152659206
 42
0.6092166627668
  0
VERTEX
  8
0
 10
-72.3447265625
 20
-48.1875
 42
0.1560651864705
  0
SEQEND
  0
POLYLINE
  8
0
 66
     1
 10
0.0
 20
0.0
 30
0.0
 70
     1
  0
VERTEX
  8
0
 10
-64.6318359375
 20
-50.787109375
 42
0.3180064741841
  0
VERTEX
  8
0
 10
-59.357421875
 20
-51.3134765625
 42
-0.3024147443966
  0
VERTEX
  8
0
 10
-57.1585055265969
 20
-50.9627272085203
 42
-0.4371199020428
  0
VERTEX
  8
0
 10
-58.583984375
 20
-53.6875
 42
-0.2789166646554
  0
VERTEX
  8
0
 10
-66.189453125
 20
-53.3974609375
 42
-0.321630811073
  0
VERTEX
  8
0
 10
-67.0748029081842
 20
-47.6889648741837
 42
-0.4699965098025
  0
VERTEX
  8
0
 10
-57.5849609375
 20
-43.482421875
 42
-0.5541652548933
  0
VERTEX
  8
0
 10
-58.1393874081587
 20
-47.9243913800003
 42
-0.0250157075898
  0
SEQEND
  0
POLYLINE
  8
0
 66
     1
 10
0.0
 20
0.0
 30
0.0
 70
     1
  0
VERTEX
  8
0
 10
-64.4384765625
 20
-48.05859375
 42
0.0404374322551
  0
VERTEX
  8
0
 10
-59.3359375
 20
-45.7919921875
 42
0.3948503647986
  0
VERTEX
  8
0
 10
-63.8826009130435
 20
-47.0984773451737
 42
0.034483651342
  0
SEQEND
  0
POLYLINE
  8
0
 66
     1
 10
0.0
 20
0.0
 30
0.0
 70
     1
  0
VERTEX
  8
0
 10
-44.791015625
 20
-46.275390625
 42
-0.6909430418147
  0
VERTEX
  8
0
 10
-47.5302114256515
 20
-47.5284648970793
 42
-0.1086127307089
  0
VERTEX
  8
0
 10
-47.5625
 20
-45.4375
 42
0.222007186255
  0
VERTEX
  8
0
 10
-51.4189453125
 20
-47.9296875
 42
0.0
  0
VERTEX
  8
0
 10
-52.2568359375
 20
-53.3115234375
 42
-0.6893464461177
  0
VERTEX
  8
0
 10
-54.8779296875
 20
-54.3427734375
 42
-0.2115238464611
  0
VERTEX
  8
0
 10
-55.0927734375
 20
-53.3115234375
 42
-0.0150415429825
  0
VERTEX
  8
0
 10
-53.6132162955288
 20
-44.1930243478381
 42
-0.6833789548874
  0
VERTEX
  8
0
 10
-50.964460304046
 20
-43.4044022781525
 42
-0.1202671098501
  0
VERTEX
  8
0
 10
-50.7958984375
 20
-44.1162109375
 42
-0.2344572553233
  0
VERTEX
  8
0
 10
-45.6164920709908
 20
-42.7990527181075
 42
-0.3093989814479
  0
VERTEX
  8
0
 10
-44.68359375
 20
-45.5556640625
 42
-0.052214876528
  0
SEQEND
  0
POLYLINE
  8
0
 66
     1
 10
0.0
 20
0.0
 30
0.0
 70
     1
  0
VERTEX
  8
0
 10
-37.7978515625
 20
-53.451171875
 42
-0.6942786466556
  0
VERTEX
  8
0
 10
-44.833984375
 20
-50.6259765625
 42
-0.4737581600101
  0
VERTEX
  8
0
 10
-35.4191953514811
 20
-43.2004085272913
 42
0.0778884438569
  0
VERTEX
  8
0
 10
-33.3032673271224
 20
-44.3749181388858
 42
-0.2165733296653
  0
VERTEX
  8
0
 10
-33.59765625
 20
-47.6181640625
 42
-0.003981682871
  0
VERTEX
  8
0
 10
-35.7760292725955
 20
-55.8972552206473
 42
-0.3352444783884
  0
VERTEX
  8
0
 10
-42.2451171875
 20
-60.068359375
 42
-0.2703816768269
  0
VERTEX
  8
0
 10
-45.957329638501
 20
-59.1840378521508
 42
-0.5724945128122
  0
VERTEX
  8
0
 10
-44.59765625
 20
-57.103515625
 42
0.1445751933131
  0
VERTEX
  8
0
 10
-40.3116301964714
 20
-57.26376987551
 42
0.2259328787535
  0
SEQEND
  0
POLYLINE
  8
0
 66
     1
 10
0.0
 20
0.0
 30
0.0
 70
     1
  0
VERTEX
  8
0
 10
-36.0791015625
 20
-45.8994140625
 42
0.5512426780265
  0
VERTEX
  8
0
 10
-41.84765625
 20
-50.2822265625
 42
0.62185302797
  0
VERTEX
  8
0
 10
-39.3114944987711
 20
-51.7758894552509
 42
0.2112571399338
  0
VERTEX
  8
0
 10
-36.6146471420133
 20
-47.7219063435854
 42
0.0048611449859
  0
SEQEND
  0
POLYLINE
  8
0
 66
     1
 10
0.0
 20
0.0
 30
0.0
 70
     1
  0
VERTEX
  8
0
 10
-30.5361328125
 20
-53.9560546875
 42
-0.86958197953
  0
VERTEX
  8
0
 10
-32.5986328125
 20
-52.1943359375
 42
0.0146454765977
  0
VERTEX
  8
0
 10
-30.5146484375
 20
-39.2392578125
 42
-0.63819987549
  0
VERTEX
  8
0
 10
-27.8997110437701
 20
-37.3172455513457
 42
-0.1922411605122
  0
VERTEX
  8
0
 10
-27.8720703125
 20
-39.2392578125
 42
0.0
  0
VERTEX
  8
0
 10
-28.52734375
 20
-43.353515625
 42
-0.6433619153874
  0
VERTEX
  8
0
 10
-20.7822265625
 20
-47.2958984375
 42
-0.5382077104985
  0
SEQEND
  0
POLYLINE
  8
0
 66
     1
 10
0.0
 20
0.0
 30
0.0
 70
     1
  0
VERTEX
  8
0
 10
-29.0107421875
 20
-46.5224609375
 42
0.0
  0
VERTEX
  8
0
 10
-29.7412109375
 20
-51.0771484375
 42
0.8325365937294
  0
VERTEX
  8
0
 10
-24.1982421875
 20
-45.9638671875
 42
0.3289767123873
  0
VERTEX
  8
0
 10
-27.9147265334014
 20
-45.8648549911698
 42
0.0239031767492
  0
SEQEND
  0
POLYLINE
  8
0
 66
     1
 10
0.0
 20
0.0
 30
0.0
 70
     1
  0
VERTEX
  8
0
 10
-12.693359375
 20
-53.64453125
 42
-0.2850126760728
  0
VERTEX
  8
0
 10
-18.7525496094341
 20
-53.9236916837525
 42
-0.3160874326391
  0
VERTEX
  8
0
 10
-19.7158667966618
 20
-47.5038555426323
 42
-0.2946898466437
  0
VERTEX
  8
0
 10
-12.693359375
 20
-42.8056640625
 42
-0.2675025429249
  0
VERTEX
  8
0
 10
-9.1866643181265
 20
-44.3377648077597
 42
-0.3372362379779
  0
VERTEX
  8
0
 10
-9.3955078125
 20
-45.6845703125
 42
0.1362202597862
  0
VERTEX
  8
0
 10
-10.201171875
 20
-51.2919921875
 42
-0.0466156062831
  0
VERTEX
  8
0
 10
-9.6318359375
 20
-53.3759765625
 42
-0.6978178914347
  0
VERTEX
  8
0
 10
-12.2409580264774
 20
-54.1385977020312
 42
-0.0199999803588
  0
SEQEND
  0
POLYLINE
  8
0
 66
     1
 10
0.0
 20
0.0
 30
0.0
 70
     1
  0
VERTEX
  8
0
 10
-12.3173828125
 20
-45.5771484375
 42
0.4980071348916
  0
VERTEX
  8
0
 10
-17.1864671624847
 20
-50.8740109943737
 42
0.5320872151425
  0
VERTEX
  8
0
 10
-13.0693359375
 20
-51.1845703125
 42
-0.09019780527
  0
SEQEND
  0
POLYLINE
  8
0
 66
     1
 10
0.0
 20
0.0
 30
0.0
 70
     1
  0
VERTEX
  8
0
 10
2.8935546875
 20
-47.8115234375
 42
0.0092962335379
  0
VERTEX
  8
0
 10
2.0771484375
 20
-53.494140625
 42
-0.8347606227446
  0
VERTEX
  8
0
 10
-0.8232421875
 20
-54.0634765625
 42
-0.3281084811384
  0
VERTEX
  8
0
 10
-6.5473779967695
 20
-53.6368284852677
 42
-0.1680552529873
  0
VERTEX
  8
0
 10
-7.1245689439405
 20
-48.5801957026338
 42
-0.1441221409643
  0
VERTEX
  8
0
 10
-5.689453125
 20
-43.0634765625
 42
-0.9334477581732
  0
VERTEX
  8
0
 10
-3.3070264653796
 20
-44.5932066591286
 42
0.1072540200448
  0
VERTEX
  8
0
 10
-4.2607421875
 20
-51.4853515625
 42
0.1883903716039
  0
VERTEX
  8
0
 10
-0.6298828125
 20
-51.3994140625
 42
-0.0345247502812
  0
VERTEX
  8
0
 10
0.7021484375
 20
-43.998046875
 42
-0.5527217208012
  0
VERTEX
  8
0
 10
3.3447265625
 20
-42.9453125
 42
-0.3026217219014
  0
VERTEX
  8
0
 10
3.520188956265
 20
-44.8654756270921
 42
-0.007815776242
  0
VERTEX
  8
0
 10
2.8935546875
 20
-47.8330078125
 42
0.0
  0
SEQEND
  0
POLYLINE
  8
0
 66
     1
 10
0.0
 20
0.0
 30
0.0
 70
     1
  0
VERTEX
  8
0
 10
6.642578125
 20
-50.787109375
 42
0.3180064741841
  0
VERTEX
  8
0
 10
11.9169921875
 20
-51.3134765625
 42
-0.3024147443966
  0
VERTEX
  8
0
 10
14.1159085359031
 20
-50.9627272085203
 42
-0.4371199020428
  0
VERTEX
  8
0
 10
12.6904296875
 20
-53.6875
 42
-0.2789166646554
  0
VERTEX
  8
0
 10
5.0849609375
 20
-53.3974609375
 42
-0.321630811073
  0
VERTEX
  8
0
 10
4.1996111543159
 20
-47.6889648741837
 42
-0.4699965098025
  0
VERTEX
  8
0
 10
13.689453125
 20
-43.482421875
 42
-0.5541652548933
  0
VERTEX
  8
0
 10
13.1350266543413
 20
-47.9243913800003
 42
-0.0250157075898
  0
SEQEND
  0
POLYLINE
  8
0
 66
     1
 10
0.0
 20
0.0
 30
0.0
 70
     1
  0
VERTEX
  8
0
 10
6.8359375
 20
-48.05859375
 42
0.0404374322551
  0
VERTEX
  8
0
 10
11.9384765625
 20
-45.7919921875
 42
0.3948503647986
  0
VERTEX
  8
0
 10
7.3918131494565
 20
-47.0984773451737
 42
0.034483651342
  0
SEQEND
  0
POLYLINE
  8
0
 66
     1
 10
0.0
 20
0.0
 30
0.0
 70
     1
  0
VERTEX
  8
0
 10
26.4833984375
 20
-46.275390625
 42
-0.6909430418147
  0
VERTEX
  8
0
 10
23.7442026368485
 20
-47.5284648970793
 42
-0.1086127307088
  0
VERTEX
  8
0
 10
23.7119140625
 20
-45.4375
 42
0.222007186255
  0
VERTEX
  8
0
 10
19.85546875
 20
-47.9296875
 42
0.0
  0
VERTEX
  8
0
 10
19.017578125
 20
-53.3115234375
 42
-0.6893464461178
  0
VERTEX
  8
0
 10
16.396484375
 20
-54.3427734375
 42
-0.2115238464611
  0
VERTEX
  8
0
 10
16.181640625
 20
-53.3115234375
 42
-0.0150415429825
  0
VERTEX
  8
0
 10
17.6611977669712
 20
-44.1930243478381
 42
-0.6833789548874
  0
VERTEX
  8
0
 10
20.309953758454
 20
-43.4044022781525
 42
-0.1202671098501
  0
VERTEX
  8
0
 10
20.478515625
 20
-44.1162109375
 42
-0.2344572553233
  0
VERTEX
  8
0
 10
25.6579219915092
 20
-42.7990527181075
 42
-0.3093989814479
  0
VERTEX
  8
0
 10
26.5908203125
 20
-45.5556640625
 42
-0.052214876528
  0
SEQEND
  0
POLYLINE
  8
0
 66
     1
 10
0.0
 20
0.0
 30
0.0
 70
     1
  0
VERTEX
  8
0
 10
31.2529296875
 20
-44.0947265625
 42
-0.2979419138444
  0
VERTEX
  8
0
 10
35.9661600154895
 20
-42.7042470817457
 42
-0.2960643462011
  0
VERTEX
  8
0
 10
37.322265625
 20
-47.6181640625
 42
0.0363115096698
  0
VERTEX
  8
0
 10
36.849609375
 20
-53.3115234375
 42
-0.6858372913295
  0
VERTEX
  8
0
 10
34.0419208923396
 20
-54.2917516299578
 42
-0.052701824436
  0
VERTEX
  8
0
 10
34.72265625
 20
-45.888671875
 42
0.4502586391436
  0
VERTEX
  8
0
 10
34.357421875
 20
-45.3515625
 42
0.2597145151934
  0
VERTEX
  8
0
 10
29.950052178671
 20
-50.6051093672128
 42
-0.0384125392543
  0
VERTEX
  8
0
 10
29.56640625
 20
-53.537109375
 42
-0.8688934446776
  0
VERTEX
  8
0
 10
26.6767578125
 20
-53.3974609375
 42
0.0009060587723
  0
VERTEX
  8
0
 10
28.1162109375
 20
-45.1796875
 42
-0.6568462104605
  0
VERTEX
  8
0
 10
30.6209118158775
 20
-42.3957949267483
 42
-0.1937227251509
  0
SEQEND
  0
POLYLINE
  8
0
 66
     1
 10
0.0
 20
0.0
 30
0.0
 70
     1
  0
VERTEX
  8
0
 10
40.56640625
 20
-53.9560546875
 42
-0.86958197953
  0
VERTEX
  8
0
 10
38.50390625
 20
-52.1943359375
 42
0.0146454765977
  0
VERTEX
  8
0
 10
40.587890625
 20
-39.2392578125
 42
-0.63819987549
  0
VERTEX
  8
0
 10
43.2028280187299
 20
-37.3172455513457
 42
-0.1922411605122
  0
VERTEX
  8
0
 10
43.23046875
 20
-39.2392578125
 42
0.0
  0
VERTEX
  8
0
 10
42.5751953125
 20
-43.353515625
 42
-0.6433619153874
  0
VERTEX
  8
0
 10
50.3203125
 20
-47.2958984375
 42
-0.5382077104985
  0
SEQEND
  0
POLYLINE
  8
0
 66
     1
 10
0.0
 20
0.0
 30
0.0
 70
     1
  0
VERTEX
  8
0
 10
42.091796875
 20
-46.5224609375
 42
0.0
  0
VERTEX
  8
0
 10
41.361328125
 20
-51.0771484375
 42
0.8325365937294
  0
VERTEX
  8
0
 10
46.904296875
 20
-45.9638671875
 42
0.3289767123873
  0
VERTEX
  8
0
 10
43.1878125290986
 20
-45.8648549911698
 42
0.0239031767492
  0
SEQEND
  0
POLYLINE
  8
0
 66
     1
 10
0.0
 20
0.0
 30
0.0
 70
     1
  0
VERTEX
  8
0
 10
61.771484375
 20
-47.8115234375
 42
0.0092962335379
  0
VERTEX
  8
0
 10
60.955078125
 20
-53.494140625
 42
-0.8347606227448
  0
VERTEX
  8
0
 10
58.0546875
 20
-54.0634765625
 42
-0.3281084811384
  0
VERTEX
  8
0
 10
52.3305516907305
 20
-53.6368284852677
 42
-0.1680552529873
  0
VERTEX
  8
0
 10
51.7533607435595
 20
-48.5801957026338
 42
-0.1441221409643
  0
VERTEX
  8
0
 10
53.1884765625
 20
-43.0634765625
 42
-0.9334477581731
  0
VERTEX
  8
0
 10
55.5709032221205
 20
-44.5932066591286
 42
0.1072540200448
  0
VERTEX
  8
0
 10
54.6171875
 20
-51.4853515625
 42
0.1883903716039
  0
VERTEX
  8
0
 10
58.248046875
 20
-51.3994140625
 42
-0.0345247502812
  0
VERTEX
  8
0
 10
59.580078125
 20
-43.998046875
 42
-0.5527217208013
  0
VERTEX
  8
0
 10
62.22265625
 20
-42.9453125
 42
-0.3026217219015
  0
VERTEX
  8
0
 10
62.398118643765
 20
-44.8654756270921
 42
-0.007815776242
  0
VERTEX
  8
0
 10
61.771484375
 20
-47.8330078125
 42
0.0
  0
SEQEND
  0
POLYLINE
  8
0
 66
     1
 10
0.0
 20
0.0
 30
0.0
 70
     1
  0
VERTEX
  8
0
 10
65.05859375
 20
-53.9560546875
 42
-0.86958197953
  0
VERTEX
  8
0
 10
62.99609375
 20
-52.1943359375
 42
0.0146454765977
  0
VERTEX
  8
0
 10
65.080078125
 20
-39.2392578125
 42
-0.6381998754902
  0
VERTEX
  8
0
 10
67.6950155187299
 20
-37.3172455513457
 42
-0.1922411605122
  0
VERTEX
  8
0
 10
67.72265625
 20
-39.2392578125
 42
0.0
  0
VERTEX
  8
0
 10
67.0673828125
 20
-43.353515625
 42
-0.6433619153874
  0
VERTEX
  8
0
 10
74.8125
 20
-47.2958984375
 42
-0.5382077104985
  0
SEQEND
  0
POLYLINE
  8
0
 66
     1
 10
0.0
 20
0.0
 30
0.0
 70
     1
  0
VERTEX
  8
0
 10
66.583984375
 20
-46.5224609375
 42
0.0
  0
VERTEX
  8
0
 10
65.853515625
 20
-51.0771484375
 42
0.8325365937294
  0
VERTEX
  8
0
 10
71.396484375
 20
-45.9638671875
 42
0.3289767123872
  0
VERTEX
  8
0
 10
67.6800000290986
 20
-45.8648549911698
 42
0.0239031767492
  0
SEQEND
  0
POLYLINE
  8
0
 66
     1
 10
0.0
 20
0.0
 30
0.0
 70
     1
  0
VERTEX
  8
0
 10
78.572265625
 20
-50.787109375
 42
0.3180064741841
  0
VERTEX
  8
0
 10
83.8466796875
 20
-51.3134765625
 42
-0.3024147443967
  0
VERTEX
  8
0
 10
86.0455960359031
 20
-50.9627272085203
 42
-0.4371199020429
  0
VERTEX
  8
0
 10
84.6201171875
 20
-53.6875
 42
-0.2789166646554
  0
VERTEX
  8
0
 10
77.0146484375
 20
-53.3974609375
 42
-0.321630811073
  0
VERTEX
  8
0
 10
76.1292986543158
 20
-47.6889648741837
 42
-0.4699965098025
  0
VERTEX
  8
0
 10
85.619140625
 20
-43.482421875
 42
-0.5541652548933
  0
VERTEX
  8
0
 10
85.0647141543413
 20
-47.9243913800003
 42
-0.0250157075898
  0
SEQEND
  0
POLYLINE
  8
0
 66
     1
 10
0.0
 20
0.0
 30
0.0
 70
     1
  0
VERTEX
  8
0
 10
78.765625
 20
-48.05859375
 42
0.0404374322551
  0
VERTEX
  8
0
 10
83.8681640625
 20
-45.7919921875
 42
0.3948503647986
  0
VERTEX
  8
0
 10
79.3215006494565
 20
-47.0984773451737
 42
0.034483651342
  0
SEQEND
  0
ENDSEC
  0
EOF
