<?xml version="1.0" standalone="yes"?>
<svg xmlns="http://www.w3.org/2000/svg" width="1208" height="1356">
<path style="fill:#050505; stroke:none;" d="M1002 353C999.773 370.243 994.021 387.245 989.583 404C979.896 440.573 969.955 479.006 950.209 511.714C945.803 519.014 939.794 526.402 933 531.585C928.798 534.791 922.885 535.407 920 540C927.459 540.589 934.64 541.918 942 543C934.754 555.063 927.765 566.793 917.907 577.039C913.452 581.669 909.28 586.135 903 588C909.117 590.567 916.59 588.275 923 588C919.589 597.371 912.792 602.426 907 610C914.16 610.059 921.022 611.561 928 613L928 615C920.225 617.948 913.812 624.29 907 628.974C897.854 635.264 887.724 640.133 877 643C882.311 645.229 888.509 643.223 894 642.428C903.839 641.004 914.049 639.027 924 639C919.034 642.101 914.718 646.26 910.004 649.754C906.932 652.03 903.785 653.545 902 657L912 654C907.706 666.591 899.345 679.959 888.999 688.381C882.014 694.068 870.177 697.825 866 706L900 706C897.22 714.563 890.127 722.032 889 731C892.848 729.102 895.667 725.672 899.036 723.025C907.604 716.292 915.776 709.036 924.025 701.906C928.534 698.008 932.657 693.729 938 691C935.779 696.678 932.003 701.836 928.785 707C921.112 719.311 912.654 731.852 900.985 740.765C893.158 746.744 884.548 751.361 876.714 757.492C873.331 760.139 869.425 761.787 868 766C876.422 763.702 884.728 760.794 893 758C890.543 782.652 865.355 795.302 847 807C851.119 810.169 856.949 809.986 862 810C860.661 824.759 841.798 826.795 835 838C843.464 836.969 851.845 833.896 860 831.513C870.891 828.331 882.071 826.101 893 823C889.774 831.181 882.106 837.892 876 844C867.056 852.948 858.559 862.393 849 870.711C843.7 875.323 832.251 880.361 830 887C839.516 887 848.656 885.084 858 885L858 887C851.371 887.902 844.788 892.557 839 895.782C835.753 897.592 832.877 898.742 831 902L838 902C833.538 906.699 825.384 909.36 819 910L819 913L836 913C829.499 918.508 820.773 921.448 813 924.79C808.793 926.599 803.475 928.028 801 932L865 923L865 925C859.246 925.783 854.335 929.539 849.424 932.451C846.084 934.431 843.252 935.131 842 939L853 940C850.182 943.778 846.281 946.305 845 951L858 951C851.43 957.738 841.788 959.198 834 964C838.525 965.846 843.315 963.534 848 963.076C856.608 962.234 865.253 961.964 873.015 957.779C881.183 953.376 887.562 945.662 896 942C889.802 951.432 881.719 959.972 874.255 968.424C869.939 973.313 864.758 978.05 862 984C871.379 981.991 879.045 975.311 888 972C883.12 977.32 876.055 980.699 870 984.543C866.79 986.581 863.3 988.357 862 992C873.951 992 887.255 992.18 899 990C897.125 994.837 893.39 998.412 891 1003C896.392 1001.53 900.171 997.504 904.424 994.036C913.554 986.591 923.426 976.123 934 971C929.786 983.559 921.725 994.906 919 1008C925.696 1009.57 931.095 1006.79 937 1003.68C948.452 997.649 958.079 988.145 970 983C970.001 987.982 970.039 992.353 972 997C977.842 990.73 980.252 981.571 986 975C986.01 990.03 986.944 1004.91 985.911 1020C984.538 1040.04 980.863 1059.9 980 1080C975.917 1073.5 975.823 1058.71 968 1056C965.598 1067.64 967.147 1088 953 1092C954.868 1087.59 954.475 1083.55 955.455 1079C956.625 1073.56 958.837 1068.62 959 1063C951.334 1065.69 945.636 1076.44 944 1084C939.674 1081.48 939.423 1076.51 937.981 1072C936.486 1067.32 933.284 1061.47 929 1059C929 1068.76 926.94 1076.58 925 1086C920.885 1082.82 919.039 1078.35 915.53 1074.67C911.099 1070.01 905.26 1065.66 900 1062C901.083 1070.19 902.065 1076.58 901 1085C888.399 1081.16 891 1065.19 891 1055C876.981 1060.33 876 1077.05 876 1090L872 1090C870.263 1081.68 866.206 1067.07 859.942 1061.19C855.943 1057.44 847.285 1054.12 845 1061C853.083 1064.61 858.532 1072.94 856.722 1082C856.089 1085.17 854.13 1087.99 853 1091C844.468 1086.67 842.237 1074.98 834 1070C835.035 1076.14 836.59 1080.87 830.895 1085.38C829.357 1086.6 826.576 1088.48 824.603 1087.12C822.662 1085.78 822.861 1082.06 822.576 1080C821.671 1073.45 821.558 1067.4 823 1061C816.303 1064.87 810.903 1079.61 810 1087C802.457 1085.84 798.864 1078.8 796.819 1072C795.25 1066.78 794.778 1060.47 788 1062C789.149 1065.19 790.973 1068.48 790.817 1071.96C790.603 1076.73 787.586 1081.19 787 1086L783 1086C781.525 1080.27 777.105 1071.17 772 1068C772 1074.31 772.618 1081.13 768 1086C767.482 1077.94 761.992 1068.21 755 1064C755.2 1073.39 759.949 1079.55 757 1089C749.974 1083.57 748.778 1073.43 741 1069C741.721 1078.13 747.376 1092.1 734 1093C733.892 1083.19 730.852 1071.39 728 1062L726 1062C724.255 1067.17 723.016 1071.5 723 1077C718.742 1066.91 722.97 1053.74 723 1043C718.354 1046.25 717.3 1051.82 715.847 1057C712.348 1069.49 713.519 1084.44 702 1093C698.853 1079.79 691.604 1069.06 691 1055C684.002 1062.49 687.169 1072.07 684.486 1081C683.023 1085.87 678.465 1089.53 675 1093C673.709 1087.58 673.133 1080.6 674.275 1075.09C675.097 1071.12 677.568 1068.19 678 1064C671.233 1067.31 665.31 1077.74 664 1085C656.254 1077.65 659.221 1064.2 649 1058C649.041 1063.06 649.681 1067.96 648.91 1073C648.283 1077.1 646.568 1080.87 646 1085C641.39 1082.8 639.475 1079.05 636.24 1075.29C632.36 1070.78 626.335 1065.55 621 1063C622.45 1071.56 622.777 1077.39 621 1086C619.073 1084.52 617.557 1083.09 616.05 1081.15C613.929 1078.43 611.146 1074.68 611.528 1071C612.237 1064.17 622.887 1056.37 626.911 1051.01C637.428 1037.01 647.051 1022.14 655.909 1007.04C659.359 1001.16 664.641 995.82 666 989C658.977 990.447 652.888 994.278 646 996C647.341 990.731 650.401 986.184 652 981C644.713 981.971 637.237 986.068 630 988C631.68 979.823 635.252 972.146 637 964C627.437 967.217 619.246 974.024 610 978C613.648 971.043 617.967 964.242 621 957C612.998 958.675 599.862 963.997 594.429 970.209C591.669 973.365 590.193 978.194 588.54 982.011C583.741 993.092 581.614 1004.27 578.545 1015.83C575.867 1025.92 571.535 1035.87 566.536 1045C561.413 1054.36 552.495 1067.43 542 1071L542 1062L535 1071C535.061 1049.04 538.419 1027.03 536.911 1005C535.384 982.715 529.937 960.449 523.988 939C520.739 927.282 515.536 915.796 509.985 905C505.881 897.016 500.624 888.808 498.471 880C493.874 861.196 492.639 841.19 489.414 822C488.063 813.963 487.016 805.168 483.949 797.576C480.88 789.978 475.55 783.514 469.035 778.598C465.054 775.594 459.922 773.448 456.553 769.74C452.973 765.799 451.665 760.754 449.652 756C447.347 750.555 444.254 745.486 442 740L440 740C436.747 746.996 436.271 756.029 430 761C427.581 755.189 422.414 747.285 417 744C415.916 752.052 414.602 760.024 413.258 768C412.697 771.335 413.106 774.822 411.566 777.957C409.176 782.821 403.157 784.695 399.84 788.899C396.405 793.251 397.018 799.383 393.138 803.471C389.747 807.044 384.456 809.221 380 811.127C367.397 816.521 350.689 819.717 337 820C338.346 824.947 342.381 828.468 345.997 831.96C357.337 842.91 371.418 848.074 387 847.999C397.152 847.95 411.639 843.228 417.137 855.001C420.926 863.113 417.756 870.753 417.093 879C416.64 884.646 417.332 890.351 416.946 896C416.734 899.102 415.474 901.93 415.129 905C414.396 911.53 415 918.432 415 925C415 931.606 417.267 942.591 410.891 946.787C401.02 953.284 386.851 958.461 375 957.961C363.498 957.475 350.414 953.465 339 955.147C332.3 956.135 325.212 961.89 319 964.688C310.965 968.308 303.682 969 295 969C291.194 969 285.47 970.014 282.314 967.397C278.158 963.949 279.027 955.833 278.425 951C278.148 948.771 277.794 946.336 279.014 944.299C281.138 940.752 286.774 939.658 289.997 937.352C297.41 932.048 301.607 923.11 300.811 914C299.864 903.165 292.574 889.296 286.15 880.715C282.979 876.479 276.096 872.283 274.904 866.999C273.357 860.143 278.439 850.257 280.749 844C286.864 827.439 296.055 809.506 291.544 791.286C290.536 787.213 288.912 781.939 285.319 779.434C278.119 774.413 269.434 781.946 266.459 788.286C262.872 795.93 263.119 803.99 261.625 812C258.983 826.161 255.912 841.662 255 856C253.373 850.481 255.573 846.464 255.946 841C256.515 832.673 256.912 824.235 258.259 816C259.808 806.538 261.412 796.563 258.995 787C257.141 779.66 253.53 769.406 245.961 766.093C239.564 763.294 233.797 769.031 230.399 773.834C222.298 785.284 221.685 801.555 222.015 815C222.397 830.586 226.398 846.587 228.129 862C228.593 866.132 230.04 869.754 229.995 874C229.889 883.855 221.795 892.235 219.807 902C216.766 916.938 219.991 932.15 217.385 947C213.465 969.34 201.919 989.398 196.456 1011.29C194.078 1020.81 194 1030.2 194 1040C187.744 1038.39 184.063 1032.35 178 1030C171.993 1039.56 171.765 1051.39 178.109 1061C180.546 1064.69 185.343 1067.57 186.397 1072.01C187.908 1078.39 184.055 1086.4 184 1093C174.465 1090.54 173 1082.52 173 1074C168.674 1076.69 166.144 1082.46 164 1087C156.796 1082.57 163.686 1068.29 164 1061C156.866 1067.52 149.516 1077.05 149 1087C145.366 1080.7 145 1075.15 145 1068C139.825 1071.74 138.678 1082.87 132.889 1085.19C128.066 1087.13 124.888 1076.39 125.194 1073.03C125.375 1071.05 127.183 1069.67 128 1068C118.742 1068.27 110.352 1074.49 109 1084C103.384 1078.44 102.353 1069.9 97 1064C94.5434 1072.08 95 1080.64 95 1089C84.6743 1087.7 81.2634 1079.39 83 1070C76.8636 1075.21 71.4329 1082.74 68 1090C61.5671 1079.5 67.4138 1069.82 72 1060C62.44 1063.22 49.8583 1072.46 43.0995 1080.01C39.1417 1084.44 37.1434 1090.3 43 1094C43.2666 1085.1 50.4923 1080.42 58 1077C58.0324 1086.44 63.3582 1096.3 73 1099C73.989 1096.47 76.1389 1090.21 79.1744 1089.63C81.5305 1089.18 84.167 1092.52 86.0394 1093.59C90.5897 1096.19 95.8618 1097.34 101 1098L101 1091L109 1095C109.891 1089.12 114.211 1083.64 120 1082C121.375 1090.88 131.051 1093.83 139 1094L139 1087C144.368 1088.69 145.552 1094.79 151 1097C152.509 1092.1 153.504 1085.7 157 1082C157.458 1085.62 157.42 1090.68 159.742 1093.66C163.55 1098.54 167.414 1096.09 168 1091C174.174 1094.07 178.84 1096.69 186 1097C187.063 1093.59 187.896 1090.58 188 1087L192 1087C192.07 1088.34 192.022 1089.73 192.394 1091.04C195.448 1101.77 201.393 1092.04 202 1086C204.124 1086.9 204.101 1086.88 205 1089C209.991 1090.57 210.929 1095.59 213 1100C221.51 1098.12 223.769 1088.99 224 1081C228.26 1084.45 228.449 1090 232.302 1093.49C236.894 1097.64 246.144 1097.54 252 1098C251.7 1094.56 250.768 1091.36 250 1088C253.36 1091.31 255.729 1094.87 258 1099L260 1099C261.179 1094.1 261.896 1089.04 262 1084C264.089 1084.43 265.781 1084.75 267.282 1086.43C268.835 1088.17 269.396 1091.61 272.051 1092.09C274.895 1092.61 276.995 1089 278.519 1087.2C282.114 1082.94 285.83 1079.19 291 1077C291.287 1083.59 292.973 1091.84 300 1094C302.223 1088.14 306.376 1082.23 311 1078C311.001 1086.74 312.865 1092.6 321 1097C323.642 1091.85 325.361 1086.72 330 1083C331.808 1092.98 339.097 1094.65 348 1093C348 1088.56 347.967 1084.34 349 1080C355.261 1083.59 360.706 1089.93 368 1091C369.114 1086.13 371.633 1079.64 376 1077C376.26 1083.06 377.482 1089.13 379 1095C383.252 1092.98 385.785 1089.05 390 1087L390 1103C400.174 1100.57 407.242 1092.39 411 1083L413 1083C415.127 1088.84 418.713 1096.95 425 1099C426.466 1089.56 431.486 1081.12 434 1072L436 1072C438.01 1080.44 437.577 1090.51 436 1099C439.538 1097.22 441.452 1094.6 443 1091C446.674 1093.4 451.295 1097.87 455.96 1097.85C460.264 1097.84 464.55 1092.05 467 1089C470.545 1093.05 472.423 1097.82 478 1099C478.943 1096.59 480.25 1091.34 482.541 1089.92C486.705 1087.34 487.888 1096.85 488 1099C491.019 1094.47 493.899 1090.05 496 1085C499.354 1087.32 503.461 1092.15 507.946 1089.95C511.518 1088.2 513.515 1080.33 518.072 1081.26C524.892 1082.65 521.911 1092.71 527.235 1094.25C532.128 1095.66 534.489 1082.77 538.491 1085.88C541.674 1088.36 537.878 1095.98 542.318 1097.25C544.789 1097.96 547.246 1095.6 549 1094.23C553.482 1090.74 559.843 1084.98 565.232 1090.32C566.182 1091.26 566.794 1092.74 567.232 1093.98C567.821 1095.65 567.888 1097.26 568 1099C574.591 1096.45 580.194 1091.23 581 1084L587 1083C589.098 1090.34 591.588 1096.73 600 1097C601.616 1092.09 604.891 1088.11 606 1083C609.941 1084.16 611.771 1086.99 615.039 1089.31C618.678 1091.9 622.626 1092.87 627 1093L627 1077C631.816 1078.61 635.407 1082.13 638.289 1086.29C639.973 1088.72 641.353 1092.56 644.258 1093.82C647.939 1095.42 650.023 1089.63 650.61 1087.02C650.983 1085.36 650.96 1083.69 651 1082L655 1082C655.712 1086.98 658.319 1092.74 661 1097C663.201 1094.08 664.944 1091.52 666 1088C669.661 1090.25 669.015 1096.35 672.318 1097.7C674.457 1098.57 677.088 1096.78 678.96 1095.93C684.979 1093.22 688.025 1089.25 690 1083C694.32 1087.93 697.874 1093.78 700 1100C706.233 1098.01 711.288 1094.5 713 1088L716 1088C716.782 1091.71 717.206 1094.67 721 1096C721.944 1091.65 724.38 1088.11 726 1084C728.058 1087.57 728.349 1095.62 731.589 1097.96C737.038 1101.89 742.511 1093.58 747.17 1093.02C750.223 1092.65 753.937 1095.41 757 1096L762 1088L764 1088C765.456 1092.63 767.01 1095.22 772 1096L774 1088C779.505 1089.07 783.232 1092.83 789 1093C790.417 1089.23 792.462 1086.05 793 1082C799.515 1083.91 807.523 1098.91 815.461 1089.45C816.548 1088.16 817.237 1086.49 818 1085C819.273 1087.22 820.438 1091.51 822.585 1092.94C828.068 1096.57 833.757 1088.15 838.829 1088.92C843.228 1089.58 845.066 1096.08 848.999 1097.92C855.506 1100.96 860.417 1086.34 862 1082C867.365 1088.98 870.24 1096.37 880 1097C880.949 1089.65 882.681 1082.43 883 1075L887 1075C887.355 1080.33 892.786 1096.41 900.66 1091.95C904.401 1089.84 904.322 1080.22 909.094 1080.54C916.819 1081.06 921.003 1093.62 927 1097C928.608 1090.94 930.175 1083.22 936 1080C937.209 1088.22 939.284 1095.41 948 1089L947 1098C950.505 1098 954.597 1098.49 957.906 1097.11C964.17 1094.49 968.361 1084.25 969 1078C977.302 1082.19 975.556 1094.27 978 1102L980 1102C983.784 1095.49 988.423 1089.72 995 1086C996.812 1097.2 1019.46 1104.48 1025 1093C1028.03 1094.03 1031.65 1096.6 1034.91 1096.42C1038.06 1096.25 1040.74 1093.5 1044 1093C1044.63 1095.58 1045.72 1097.66 1047 1100C1050.68 1095.4 1050.69 1091.61 1057 1090C1055.75 1089.32 1055.45 1089.25 1054 1089L1055 1084C1057.61 1086.38 1059.6 1091.39 1063.29 1092.27C1065.66 1092.83 1067.99 1091.15 1070 1090.15C1074.22 1088.06 1078.34 1085.83 1083 1085C1084.35 1090.48 1087.79 1091.32 1093 1092C1094.44 1088.18 1095.31 1085.01 1099 1083C1099.55 1086.52 1100.88 1089.64 1102 1093C1108.29 1092.81 1115.03 1091.04 1119 1086C1123.37 1089.86 1126.88 1094.08 1130 1099L1132 1099C1133.42 1093.98 1134.99 1083.82 1139.42 1080.6C1145.35 1076.28 1152.42 1088.88 1154 1093L1156 1093C1159.81 1080.1 1146.98 1074.5 1138 1068.28C1133.83 1065.4 1129.78 1061.72 1125 1060C1126.54 1064.1 1129.45 1067.72 1130.53 1072C1131.86 1077.3 1131 1083.57 1131 1089L1127 1089C1125.48 1081.98 1120.53 1075.1 1114 1072C1114.65 1077.48 1114.64 1081.55 1110.03 1085.38C1108.28 1086.84 1105.67 1088.69 1103.7 1086.55C1101.88 1084.57 1102.12 1081.48 1101.91 1079C1101.44 1073.28 1101 1067.76 1101 1062C1095.86 1067.2 1091.47 1075.66 1091 1083C1086.72 1080.62 1085.62 1076.75 1082.32 1073.39C1078.67 1069.69 1073.02 1068.26 1068 1068C1074.51 1073.97 1069.79 1082.15 1064 1087C1061.38 1080.78 1057.08 1071.16 1051 1068C1051.52 1074.54 1051.33 1079.54 1050 1086C1045.79 1078.77 1041.73 1071.94 1037 1065C1035.85 1068.19 1036.86 1071.62 1037 1075C1031.22 1069.93 1028.24 1061.32 1026.27 1054C1021.99 1038.03 1021 1023.5 1021 1007C1032.6 1015.61 1043.59 1029.29 1057 1035C1056.16 1031.43 1054.28 1028.42 1053 1025C1058.98 1027.65 1062.96 1033.31 1069 1036C1068.36 1029.58 1059.31 1015.56 1069 1014C1066.12 1009 1062.17 1004.8 1059 1000C1062.34 1001.39 1065.52 1003 1069 1004C1068.26 999.393 1065.67 996.05 1063.49 991.996C1058.21 982.151 1050.88 972.441 1047 962C1056.54 970.075 1061.49 982.811 1071 991C1069.88 983.794 1065.48 977.504 1066 970C1072.78 975.468 1083.46 977.248 1089.15 983.684C1094.05 989.231 1093.47 1001.27 1101 1004C1101.33 1002.55 1101.57 1001.32 1102.19 999.956C1102.63 998.998 1103.04 997.954 1103.63 997.076C1108.62 989.646 1109.79 1002.43 1114.26 1003.08C1118.41 1003.68 1120.55 997.823 1125 998.528C1132.19 999.665 1136.72 1006.97 1144 1008C1142.45 1003.96 1139.76 1000.75 1137.63 997C1130.04 983.654 1122.17 970.509 1114.87 957C1111.81 951.345 1108.06 946.122 1106 940C1110.75 943.562 1114.06 948.673 1118.09 953C1126.26 961.777 1134.67 970.333 1142.96 979C1147.44 983.686 1151 989.203 1157 992C1155.28 980.538 1147.96 970.408 1146 959C1148.84 961.939 1150.8 965.388 1154 968C1152.89 959.543 1146.75 952.053 1144 944C1151 950.074 1155.2 960.055 1163 965C1163 958.438 1161.02 952.508 1161 946C1165.09 947.141 1168.09 950.136 1172 951.786C1176.17 953.545 1181.52 953.646 1186 954C1183.1 946.675 1176.45 940.001 1171.57 933.83C1162.53 922.375 1153.47 911.076 1144 900C1153.8 900 1163.13 902 1173 902C1170.8 897.683 1166.54 895.194 1164 891C1169.23 890.295 1174.06 888.78 1179 887C1175.27 879.083 1166.03 876.868 1161 870C1170.72 870.281 1180.22 874.228 1190 875C1188.15 869.897 1180.38 866.587 1176.04 863.505C1168.15 857.896 1161.02 851.288 1153 845.836C1146.44 841.377 1138.7 837.943 1136 830L1144 831C1138.14 822.685 1129.61 816.647 1123 809C1136.5 812.403 1148.76 822.271 1163 823C1160.91 817.476 1156.91 813.101 1154 808C1161 807.981 1177.07 808.422 1181 802C1175.17 801.419 1170.35 798.707 1164.99 796.579C1160.38 794.749 1155.59 793.5 1152 790L1158 790C1155.43 785.627 1145.17 781.432 1152.86 777.154C1153.83 776.616 1154.97 776.355 1156 776C1154.18 769.474 1146.57 766.803 1141.29 763.435C1129.24 755.764 1114.86 749.204 1108 736C1119.13 740.724 1132.78 745.746 1145 746C1136.39 727.889 1116.57 714.102 1114 693L1137 693C1134.28 688.303 1129.26 685.476 1125 682.232C1117.9 676.816 1111.14 669.792 1103 666C1105.52 661.881 1109.93 661.281 1114 659C1105.99 652.105 1095.31 648.373 1087 641.535C1074.59 631.328 1065.07 614.709 1059 600C1066.95 603.012 1074.02 608.33 1082 611.557C1089.14 614.441 1095.98 615.169 1103 619C1101.21 611.525 1094.02 606.96 1091 600C1097.68 601.001 1103.36 604.857 1110 606C1105.95 599.293 1098.03 594.235 1092.99 587.961C1084.56 577.465 1078.07 564.751 1071.37 553.089C1067.28 545.959 1061.94 539.822 1059 532C1064.97 535.13 1071.23 539.152 1078 540C1074.33 532.538 1066.74 526.38 1061.44 520C1052.2 508.897 1043.39 497.112 1035.54 484.985C1020.85 462.268 1016.77 435.207 1013.13 409C1011.17 394.893 1011.15 379.21 1007 365.576C1005.54 360.775 1007.02 355.634 1002 353M607 957C617.039 954.911 626.111 949.471 636 947C633.144 953.126 627.234 957.091 624 963C633.791 961.698 642.666 953.392 652 950C649.137 959.046 641.874 966.289 641 976C647.672 975.164 653.703 971.24 660 969C659.09 975.162 656.287 980.717 656 987C661.647 985.794 670.015 983.696 674.661 980.158C676.956 978.411 678.243 975.652 680.259 973.615C685.55 968.269 692.249 963.569 698.985 960.245C704.604 957.473 712.698 955.016 718.985 955.097C722.417 955.142 725.554 956.771 729 957C726.047 946.185 712.743 939.517 703.08 935.673C679.454 926.275 650.331 930.839 628 941.704C620.474 945.366 611.046 949.17 607 957M896.667 940.667C896.722 940.722 896.778 941.778 896.333 941.333C896.278 941.278 896.222 940.222 896.667 940.667M413 970L413 1056L410 1056C410 1068.21 409.439 1086.95 395 1091C395.797 1086.71 395.503 1082.22 396.459 1078C397.644 1072.78 399.872 1068.48 400 1063C392.856 1066.85 387.707 1076.56 385 1084C380.183 1082.31 380.126 1076.43 378.826 1072C377.327 1066.89 374.254 1062.15 370 1059C370.414 1068.78 368.995 1076.65 366 1086C361.502 1083.65 359.868 1079.11 356.545 1075.46C352.233 1070.73 346.397 1066.4 341 1063C343.497 1071 342.647 1077.8 342 1086C333.326 1084.51 333.623 1073.8 332 1067L330 1067C326.39 1074.2 323.528 1078.89 322 1087L318 1087C315.816 1075.41 315.103 1062.8 305 1055C307.146 1066.56 308.675 1079.96 296 1086C295.595 1080.88 293.394 1075.11 294.292 1070C294.924 1066.41 297.427 1063.47 298.481 1060C300.608 1053.01 300.728 1044.21 299.7 1037C298.23 1026.69 294.876 1016.01 291.265 1006.29C288.432 998.65 285.177 991.286 285 983C298.67 983 313.534 982.188 327 979.736C331.226 978.967 334.693 975.931 339 975.508C349.259 974.503 359.689 974.854 370 973.896C373.408 973.579 376.564 972.235 380 972.043C391.302 971.414 401.837 971.89 413 970M1155.33 970.667C1155.28 970.722 1155.22 971.778 1155.67 971.333C1155.72 971.277 1155.78 970.222 1155.33 970.667M95.3333 1061.67C95.2777 1061.72 95.2223 1062.78 95.6667 1062.33C95.7221 1062.28 95.7778 1061.22 95.3333 1061.67M1034 1061L1034 1064C1034.7 1062.45 1034.7 1062.55 1034 1061M602 1076C601.509 1080.93 599.503 1085.32 598 1090C588.839 1085.38 594.866 1078.26 602 1076M198 1082L198 1086C197.29 1084.24 197.29 1083.76 198 1082M547 1087L547 1089L544 1089L544 1087L547 1087M307 1181L307 1185C315.77 1186.37 314 1195.05 314 1202L314 1236C313.992 1241.03 312.664 1246.14 314 1251C316.789 1249.7 319.909 1246.17 323 1246.01C326.03 1245.86 329.194 1248.92 332 1249.89C339.164 1252.38 348.22 1250.74 353.895 1245.66C362.587 1237.88 364.001 1220.14 356.606 1211.04C348.799 1201.43 333.959 1201.78 328 1213C325.054 1203.03 327 1190.38 327 1180L307 1181M665 1181L665 1185C673.77 1186.37 672 1195.05 672 1202C672 1213.33 672.054 1224.67 671.999 1236C671.975 1241.1 670.576 1246.04 672 1251C674.789 1249.7 677.909 1246.17 681 1246.01C684.03 1245.86 687.193 1248.92 690 1249.89C697.164 1252.38 706.22 1250.74 711.895 1245.66C720.587 1237.88 722.001 1220.14 714.606 1211.04C706.799 1201.43 691.959 1201.78 686 1213C683.054 1203.03 685 1190.38 685 1180L665 1181M793 1181L793 1185C801.77 1186.37 800 1195.05 800 1202C800 1213.33 800.054 1224.67 799.999 1236C799.975 1241.1 798.576 1246.04 800 1251C802.789 1249.7 805.909 1246.17 809 1246.01C812.03 1245.86 815.193 1248.92 818 1249.89C825.164 1252.38 834.22 1250.74 839.895 1245.66C848.587 1237.88 850.001 1220.14 842.606 1211.04C834.799 1201.43 819.959 1201.78 814 1213C811.054 1203.03 813 1190.38 813 1180L793 1181M69 1181L69 1185C71.9516 1185.01 76.0791 1184.48 77.9722 1187.32C80.082 1190.48 79 1196.38 79 1200L79 1231C79 1234.62 80.082 1240.52 77.9722 1243.68C76.0791 1246.52 71.9516 1245.99 69 1246L69 1250L103 1250C111.405 1250 120.371 1250.15 127.985 1245.95C136.16 1241.45 139.097 1229.49 132.606 1222.19C128.32 1217.37 121.186 1215.51 115 1215C120.282 1212.64 125.892 1210.84 129.486 1205.96C135.938 1197.19 130.246 1185.99 121 1182.56C114.99 1180.33 108.289 1181 102 1181L69 1181M1016 1181L1016 1185C1024.25 1185.45 1025.95 1191.2 1028.85 1198C1034.23 1210.63 1039.3 1223.39 1044.72 1236C1047.58 1242.66 1048.6 1250.72 1057 1251C1061.66 1233.98 1070.44 1217.4 1077 1201C1079.92 1193.7 1082.16 1185.98 1091 1185L1091 1181L1064 1181L1064 1185C1074.14 1185.25 1074.88 1191.69 1071.6 1200C1067.34 1210.78 1061.68 1221.71 1059 1233C1053.05 1222.77 1049.07 1210.96 1044.6 1200C1043.36 1196.93 1039.5 1190.75 1041.21 1187.43C1042.71 1184.53 1047.31 1185.02 1050 1185L1050 1181L1016 1181M944 1190L944 1194C947.526 1194 953.661 1192.87 956.397 1195.6C959.663 1198.87 958 1207.76 958 1212L958 1235C957.993 1238.18 958.392 1242.11 955.682 1244.4C953.128 1246.55 949.1 1246 946 1246L946 1250L982 1250L982 1246C978.235 1246 973.271 1246.64 971.028 1242.85C968.523 1238.62 970 1230.76 970 1226L970 1184C961.111 1184.91 953.207 1189.6 944 1190M94 1213L94 1194C94.0045 1191.8 93.5335 1188.59 95.0278 1186.74C97.0396 1184.26 102.197 1184.86 105 1185.09C108.892 1185.41 112.938 1186.76 115.258 1190.11C119.903 1196.82 116.964 1209.66 108.996 1212.2C104.322 1213.68 98.8437 1213 94 1213M287 1206C277.692 1204.08 267.742 1202.21 259.015 1207.37C248.926 1213.33 250.189 1226.86 260 1232C257.432 1233.65 254.632 1235.22 253.183 1238.04C249.811 1244.61 256.194 1249.35 262 1250C258.808 1251.22 254.804 1251.9 252.319 1254.42C247.461 1259.34 253.187 1264.58 258 1266.21C266.795 1269.19 279.226 1269.14 288 1266.08C296.759 1263.03 303.398 1250.84 294.775 1243.65C290.497 1240.09 284.265 1239.98 279 1240C271.759 1240.02 265.238 1241.34 258 1240C261.131 1234.03 267.06 1235.07 273 1235C281.618 1234.89 292.27 1231.93 293.785 1222C294.132 1219.73 294.029 1217.2 293.349 1215C292.5 1212.25 290.786 1210.18 289 1208L294 1206C294.482 1206.86 294.919 1208.15 295.74 1208.84C302.077 1214.19 305.712 1202.66 298.941 1199.64C297.722 1199.1 296.248 1199.37 295 1199.59C293.615 1199.83 292.227 1200.59 291.059 1201.34C289.067 1202.62 288.086 1203.99 287 1206M190 1237L187 1236C180.278 1244.75 167.853 1251.04 161.314 1238C159.8 1234.98 159.427 1231.31 159 1228L190 1228C189.669 1220.3 187.605 1212.37 180.985 1207.65C166.281 1197.18 146.252 1209.13 145.091 1226C144.457 1235.21 148.68 1243.96 157 1248.33C168.305 1254.26 186.48 1250.53 190 1237M385 1210C387.262 1209.4 389.646 1208.41 392.002 1208.31C400.956 1207.96 401.996 1216.19 402 1223C393.393 1224.11 379.315 1225.77 373.703 1233.19C368.022 1240.69 373.405 1249.74 382 1250.81C390.683 1251.9 396.167 1247.5 403 1243C406.574 1252.12 415.3 1252.31 423 1248L422 1245C413.759 1245.91 414 1239.5 414 1233C413.999 1222.77 416.481 1209.03 404 1205.3C396.628 1203.1 386.57 1203.21 380.015 1207.7C375.845 1210.56 371.244 1218.37 378.133 1221.25C386.477 1224.74 387.186 1215.17 385 1210M541 1237L538 1236C535.69 1239.01 533.326 1241.83 529.999 1243.77C518.285 1250.62 510.842 1238.3 510 1228L541 1228C540.669 1220.3 538.605 1212.37 531.985 1207.65C517.281 1197.18 497.252 1209.13 496.091 1226C495.457 1235.21 499.68 1243.96 508 1248.33C519.306 1254.26 537.48 1250.53 541 1237M902 1237L899 1236C892.278 1244.75 879.853 1251.04 873.314 1238C871.8 1234.98 871.427 1231.31 871 1228L902 1228C901.669 1220.3 899.605 1212.37 892.985 1207.65C878.281 1197.18 858.252 1209.13 857.091 1226C856.457 1235.21 860.679 1243.96 869 1248.33C880.306 1254.26 898.48 1250.53 902 1237M200 1206L200 1210C210.874 1211.68 208.001 1224.71 208 1233C208 1236.34 208.715 1240.92 206.397 1243.68C204.508 1245.93 201.677 1245.91 199 1246L199 1250L230 1250L230 1246C227.336 1245.99 223.675 1246.47 221.603 1244.4C219.351 1242.14 219.997 1237.88 220 1235C220.01 1226.55 222.152 1210.46 233 1210C232.244 1211.65 231.368 1213.07 231.637 1214.98C232.655 1222.22 242.578 1219.52 242.427 1213C242.27 1206.2 234.414 1203.93 229.004 1205.88C223.547 1207.84 220.557 1212.71 219 1218C217.741 1213.74 218 1209.42 218 1205L200 1206M429 1206L429 1210C436.279 1211.49 436 1216.6 436 1223C436.001 1234.18 435.608 1252.64 452 1250.81C454.436 1250.54 456.848 1249.75 459 1248.58C462.485 1246.69 465.213 1243.76 468 1241L469 1250L487 1250L487 1246C484.252 1245.44 481.785 1244.76 480.603 1241.89C479.194 1238.47 480 1233.63 480 1230L480 1205L460 1206L460 1210C472.014 1211.87 470.045 1233.22 462.892 1239.77C455.908 1246.16 449.063 1239.8 448.174 1232C447.762 1228.38 448 1224.64 448 1221L448 1205L429 1206M551 1206L551 1210C561.874 1211.68 559.001 1224.71 559 1233C559 1236.34 559.715 1240.92 557.397 1243.68C555.508 1245.93 552.677 1245.91 550 1246L550 1250L581 1250L581 1246C578.336 1245.99 574.675 1246.47 572.603 1244.4C570.186 1241.98 570.986 1237.09 571.001 1234C571.045 1224.7 573.838 1211.86 584 1209C583.125 1211.46 581.833 1214.23 583.222 1216.77C586.226 1222.27 593.551 1218.33 593.427 1213C593.27 1206.2 585.414 1203.93 580.004 1205.88C574.547 1207.84 571.557 1212.71 570 1218C568.741 1213.74 569 1209.42 569 1205L551 1206M601 1206L601 1210C611.518 1211.64 609.001 1223.96 609 1232C609 1235.41 609.628 1239.79 607.821 1242.85C606.26 1245.5 603.777 1245.79 601 1246L601 1250L628 1250L628 1246C625.776 1245.75 623.423 1245.62 622.026 1243.57C620.312 1241.05 621 1236.88 621 1234C621 1226.58 620.552 1214.08 631 1213.34C634.674 1213.08 637.954 1215.71 639.258 1219.02C640.458 1222.06 640 1225.8 640 1229C640 1235.95 641.769 1244.63 633 1246L633 1250L659 1250L659 1246C655.263 1245.42 652.791 1244.05 652.148 1240C650.786 1231.4 654.291 1221.21 650.772 1213.01C645.163 1199.96 627.521 1204.82 622 1215C620.67 1212.52 620.528 1208.73 618.822 1206.6C615.827 1202.87 605.26 1205.99 601 1206M728 1206L728 1210C735.279 1211.49 735 1216.6 735 1223C735.001 1234.18 734.608 1252.64 751 1250.81C753.436 1250.54 755.848 1249.75 758 1248.58C761.485 1246.69 764.213 1243.76 767 1241L768 1250L786 1250L786 1246C783.252 1245.44 780.786 1244.76 779.603 1241.89C778.194 1238.47 779 1233.63 779 1230L779 1205L759 1206L759 1210C771.042 1211.86 769.108 1233.17 761.892 1239.77C754.908 1246.16 748.063 1239.8 747.174 1232C746.762 1228.38 747 1224.64 747 1221L747 1205L728 1206M159 1224C159.543 1217.18 163.059 1203.73 172.892 1209.18C176.799 1211.34 180.361 1219.84 175.682 1222.97C171.781 1225.58 163.533 1224 159 1224M271.019 1208.62C282.152 1204.85 284.825 1227.07 274.985 1230.38C263.771 1234.15 261.316 1211.91 271.019 1208.62M510 1224C510.543 1217.18 514.059 1203.73 523.892 1209.18C527.799 1211.34 531.361 1219.84 526.682 1222.97C522.781 1225.58 514.533 1224 510 1224M871 1224C871.543 1217.18 875.059 1203.73 884.892 1209.18C888.799 1211.34 892.361 1219.84 887.682 1222.97C883.781 1225.58 875.533 1224 871 1224M335.001 1212.45C340.331 1211.19 344.269 1215.4 345.891 1220C348.649 1227.84 348.092 1244.16 337.999 1246.55C333.245 1247.67 329.339 1244.26 327.854 1239.99C325.19 1232.32 325.055 1214.81 335.001 1212.45M693.001 1212.45C698.335 1211.19 702.247 1215.36 703.775 1220C706.381 1227.92 706.334 1244.1 695.999 1246.55C691.245 1247.67 687.339 1244.26 685.854 1239.99C683.19 1232.32 683.055 1214.81 693.001 1212.45M821.001 1212.45C826.335 1211.19 830.247 1215.36 831.775 1220C834.381 1227.92 834.334 1244.1 823.999 1246.55C819.245 1247.67 815.339 1244.26 813.854 1239.99C811.19 1232.32 811.055 1214.81 821.001 1212.45M94 1217C99.1746 1217 104.941 1216.3 110 1217.53C120.042 1219.97 124.635 1233.84 117.57 1241.78C114.354 1245.39 109.544 1245.94 105 1246C102.212 1246.03 97.0105 1246.9 95.0278 1244.4C93.3756 1242.31 94.0011 1238.47 94 1236L94 1217M402 1227C402 1230.56 402.511 1234.71 400.821 1237.98C398.561 1242.36 391.054 1246.57 386.742 1242.26C377.519 1233.03 396.141 1227.48 402 1227M1001.04 1235.76C992.247 1239.05 996.875 1253.58 1005.98 1250.24C1014.94 1246.96 1010.2 1232.33 1001.04 1235.76M1101.04 1235.76C1092.25 1239.05 1096.87 1253.58 1105.98 1250.24C1114.94 1246.96 1110.2 1232.33 1101.04 1235.76M268 1252.29C273.459 1251.57 283.886 1250.36 288.768 1253.32C297.093 1258.35 283.966 1263.19 280 1263.71C274.755 1264.4 266.911 1265.04 262.059 1262.57C253.374 1258.14 262.88 1252.96 268 1252.29z"/>
</svg>
