  0
SECTION
  2
HEADER
  9
$ACADVER
  1
AC1009
  9
$EXTMAX
 10
135.591049194336
 20
153.893264770508
 30
0.0
  9
$EXTMIN
 10
-168.855407714844
 20
-88.3152618408203
 30
0.0
  9
$INSUNITS
 70
     4
  9
$LUNITS
 70
     2
  9
$LUPREC
 70
     4
  9
$MEASUREMENT
 70
     1
  0
ENDSEC
  0
SECTION
  2
TABLES
  0
TABLE
  2
LAYER
 70
     1
  0
LAYER
  2
0
 70
     0
 62
    70
  6
Continuous
  0
ENDTAB
  0
TABLE
  2
APPID
 70
     1
  0
APPID
  2
ACAD
 70
     0
  0
ENDTAB
  0
ENDSEC
  0
SECTION
  2
ENTITIES
  0
POLYLINE
  8
0
 66
     1
 10
0.0
 20
0.0
 30
0.0
 70
     1
  0
VERTEX
  8
0
 10
-34.5360391140125
 20
-40.840070829046
 42
0.0
  0
VERTEX
  8
0
 10
-34.5360391140125
 20
-40.3109041623793
 42
0.0
  0
VERTEX
  8
0
 10
-35.3297891140125
 20
-40.3109041623793
 42
0.0
  0
VERTEX
  8
0
 10
-35.3297891140125
 20
-40.8400708290459
 42
0.0
  0
SEQEND
  0
POLYLINE
  8
0
 66
     1
 10
0.0
 20
0.0
 30
0.0
 70
     1
  0
VERTEX
  8
0
 10
-154.12034996352
 20
-66.7004432452244
 42
-0.1383911874543
  0
VERTEX
  8
0
 10
-153.577850943767
 20
-66.3433331258035
 42
-0.0880415816692
  0
VERTEX
  8
0
 10
-152.073456495985
 20
-66.2175370236472
 42
-0.0369244090885
  0
VERTEX
  8
0
 10
-150.714069077049
 20
-66.381474312768
 42
-0.0995796033888
  0
VERTEX
  8
0
 10
-149.381347751524
 20
-66.9653079409186
 42
-0.1585089353318
  0
VERTEX
  8
0
 10
-148.389422635626
 20
-68.3550777307297
 42
-0.2035425603941
  0
VERTEX
  8
0
 10
-148.777896169169
 20
-72.0048707763018
 42
-0.1894854328134
  0
VERTEX
  8
0
 10
-150.424596865986
 20
-73.4367245766045
 42
-0.0683993011263
  0
VERTEX
  8
0
 10
-152.149529586722
 20
-73.6857471637517
 42
-0.0031541868101
  0
VERTEX
  8
0
 10
-154.392289114013
 20
-73.6484041623793
 42
0.0
  0
VERTEX
  8
0
 10
-154.392289114013
 20
-68.621320829046
 42
-0.037732903434
  0
VERTEX
  8
0
 10
-154.393372133024
 20
-67.4825240443984
 42
-0.144865761155
  0
SEQEND
  0
POLYLINE
  8
0
 66
     1
 10
0.0
 20
0.0
 30
0.0
 70
     1
  0
VERTEX
  8
0
 10
-126.875622447346
 20
-40.046320829046
 42
-0.0830993256417
  0
VERTEX
  8
0
 10
-127.015299299511
 20
-39.5585014059064
 42
-0.0871947344427
  0
VERTEX
  8
0
 10
-126.875622447346
 20
-38.9879874957126
 42
0.0
  0
SEQEND
  0
POLYLINE
  8
0
 66
     1
 10
0.0
 20
0.0
 30
0.0
 70
     1
  0
VERTEX
  8
0
 10
71.0327108859875
 20
-82.3796541623793
 42
0.0
  0
VERTEX
  8
0
 10
71.0327108859875
 20
-83.4379874957126
 42
0.0
  0
VERTEX
  8
0
 10
80.5577108859875
 20
-83.4379874957126
 42
0.0
  0
VERTEX
  8
0
 10
80.5577108859875
 20
-82.3796541623793
 42
-0.0310870809656
  0
VERTEX
  8
0
 10
79.1273849077816
 20
-82.361677989089
 42
-0.1588390073279
  0
VERTEX
  8
0
 10
77.9687543204514
 20
-81.9245131441258
 42
-0.1479247925775
  0
VERTEX
  8
0
 10
77.4335011265415
 20
-81.0217478567704
 42
-0.0699234590396
  0
VERTEX
  8
0
 10
77.2688411376651
 20
-79.6756437747147
 42
-0.0112858055078
  0
VERTEX
  8
0
 10
77.3473763557815
 20
-77.9277405313451
 42
0.0202089453771
  0
VERTEX
  8
0
 10
77.3827108859875
 20
-77.0879874957127
 42
0.0
  0
VERTEX
  8
0
 10
77.3827108859875
 20
-65.9754874957126
 42
0.0505199304839
  0
VERTEX
  8
0
 10
74.6414147944831
 20
-66.6095053349517
 42
-0.0141840580634
  0
VERTEX
  8
0
 10
72.6223426392373
 20
-67.2181061788607
 42
-0.053318494334
  0
VERTEX
  8
0
 10
70.5035442193208
 20
-67.5629874957126
 42
0.0
  0
VERTEX
  8
0
 10
70.5035442193208
 20
-68.621320829046
 42
0.0139484730865
  0
VERTEX
  8
0
 10
71.5729048449076
 20
-68.5721036298891
 42
-0.0512876147938
  0
VERTEX
  8
0
 10
72.721114783915
 20
-68.5993370631222
 42
-0.1082268691569
  0
VERTEX
  8
0
 10
73.5523422910235
 20
-68.8641219332908
 42
-0.1708789387934
  0
VERTEX
  8
0
 10
74.0886657884486
 20
-69.5212130784042
 42
-0.0695011460942
  0
VERTEX
  8
0
 10
74.3089940037816
 20
-70.671355090068
 42
-0.0265596225613
  0
VERTEX
  8
0
 10
74.2782522818568
 20
-72.1329270535348
 42
0.0258609272635
  0
VERTEX
  8
0
 10
74.2077108859875
 20
-73.3838208290459
 42
0.0032307490097
  0
VERTEX
  8
0
 10
74.2119483311881
 20
-80.1250298457922
 42
-0.1061091435817
  0
VERTEX
  8
0
 10
73.9912765834412
 20
-81.4329901464404
 42
-0.2208240182215
  0
VERTEX
  8
0
 10
73.0055455804443
 20
-82.2683849704274
 42
-0.0778688902024
  0
VERTEX
  8
0
 10
71.6861495303745
 20
-82.3935510929812
 42
0.0075756149944
  0
SEQEND
  0
POLYLINE
  8
0
 66
     1
 10
0.0
 20
0.0
 30
0.0
 70
     1
  0
VERTEX
  8
0
 10
113.360747385011
 20
-83.501484911891
 42
0.2834454601658
  0
VERTEX
  8
0
 10
114.602553496753
 20
-82.007005571278
 42
0.1950794503772
  0
VERTEX
  8
0
 10
114.175472999063
 20
-80.2790536407451
 42
0.2916380779379
  0
VERTEX
  8
0
 10
112.484310912351
 20
-79.5557121998872
 42
0.143472174313
  0
VERTEX
  8
0
 10
111.398252259624
 20
-80.0678253550686
 42
0.1711342768789
  0
VERTEX
  8
0
 10
110.833985190894
 20
-81.1651782737135
 42
0.1928237655097
  0
VERTEX
  8
0
 10
111.256599056321
 20
-82.8826610528092
 42
0.2912160107022
  0
VERTEX
  8
0
 10
112.932164834807
 20
-83.6123613295016
 42
0.0513878935886
  0
SEQEND
  0
POLYLINE
  8
0
 66
     1
 10
0.0
 20
0.0
 30
0.0
 70
     1
  0
VERTEX
  8
0
 10
86.9024140516776
 20
-83.501484911891
 42
0.2834459047322
  0
VERTEX
  8
0
 10
88.1442301632463
 20
-82.007005571278
 42
0.1950863813212
  0
VERTEX
  8
0
 10
87.7171200116679
 20
-80.2790167161087
 42
0.2916298974269
  0
VERTEX
  8
0
 10
86.0259585680109
 20
-79.5557135077974
 42
0.1433956305204
  0
VERTEX
  8
0
 10
84.9398590934
 20
-80.067716307503
 42
0.1712214155105
  0
VERTEX
  8
0
 10
84.375589078374
 20
-81.1650626444207
 42
0.1927741657441
  0
VERTEX
  8
0
 10
84.798419726578
 20
-82.8823696044779
 42
0.291252464823
  0
VERTEX
  8
0
 10
86.473872623093
 20
-83.6123857198902
 42
0.0513707351546
  0
SEQEND
  0
POLYLINE
  8
0
 66
     1
 10
0.0
 20
0.0
 30
0.0
 70
     1
  0
VERTEX
  8
0
 10
34.7847942193208
 20
-82.3823025795343
 42
-0.1292046921559
  0
VERTEX
  8
0
 10
35.8438897913601
 20
-82.6991334521512
 42
0.0097131746664
  0
VERTEX
  8
0
 10
36.7312476811221
 20
-83.2111737993496
 42
0.0389873200481
  0
VERTEX
  8
0
 10
37.1660442193208
 20
-83.4088872047784
 42
0.2060609646542
  0
VERTEX
  8
0
 10
42.0154495581071
 20
-82.9562667731662
 42
0.1237670883289
  0
VERTEX
  8
0
 10
43.7701880575782
 20
-81.3451663126687
 42
0.0755974592071
  0
VERTEX
  8
0
 10
44.6125066858543
 20
-79.499309840726
 42
0.129218240167
  0
VERTEX
  8
0
 10
44.7366199058336
 20
-75.3834483808227
 42
0.1121915230013
  0
VERTEX
  8
0
 10
43.6763864993908
 20
-73.1298311643324
 42
0.2062985096139
  0
VERTEX
  8
0
 10
40.3029181106272
 20
-71.3298320353822
 42
0.3051471441879
  0
VERTEX
  8
0
 10
36.1077108859875
 20
-73.6484041623793
 42
-0.0682119246463
  0
VERTEX
  8
0
 10
35.6781760975377
 20
-70.2539855492518
 42
-0.0109116273922
  0
VERTEX
  8
0
 10
35.783110773258
 20
-66.8982027660329
 42
0.0143890130829
  0
VERTEX
  8
0
 10
35.8431275526542
 20
-64.9171541623793
 42
0.0
  0
VERTEX
  8
0
 10
30.5514608859875
 20
-65.1817374957126
 42
0.0
  0
VERTEX
  8
0
 10
30.5514608859875
 20
-66.240070829046
 42
-0.1010425706323
  0
VERTEX
  8
0
 10
31.5057198054559
 20
-66.5786940869548
 42
-0.1872691372468
  0
VERTEX
  8
0
 10
32.3133199422396
 20
-67.7846617413605
 42
-0.051245039098
  0
VERTEX
  8
0
 10
32.4415804192702
 20
-69.2255901091763
 42
0.0128333863547
  0
VERTEX
  8
0
 10
32.4041301657229
 20
-71.8625212796678
 42
-0.0019018957103
  0
VERTEX
  8
0
 10
32.4032858371594
 20
-79.733820829046
 42
-0.0184426851392
  0
VERTEX
  8
0
 10
32.2801716411955
 20
-81.471410157411
 42
0.0530337337859
  0
VERTEX
  8
0
 10
32.271836344777
 20
-83.0431097916498
 42
0.0390163250015
  0
VERTEX
  8
0
 10
32.4035442193208
 20
-83.7025708290459
 42
0.0504706335399
  0
VERTEX
  8
0
 10
33.1950818024312
 20
-83.1964200470475
 42
-0.0424537878245
  0
VERTEX
  8
0
 10
34.1806522579303
 20
-82.5536580773566
 42
-0.1186919740151
  0
SEQEND
  0
POLYLINE
  8
0
 66
     1
 10
0.0
 20
0.0
 30
0.0
 70
     1
  0
VERTEX
  8
0
 10
4.8866191704927
 20
-82.5251879148207
 42
-0.1958456076721
  0
VERTEX
  8
0
 10
3.3949371321364
 20
-82.3046149563098
 42
-0.1763201878723
  0
VERTEX
  8
0
 10
2.2024160861828
 20
-80.7895057452244
 42
-0.0799478796701
  0
VERTEX
  8
0
 10
1.7939523358477
 20
-78.0564826861732
 42
-0.0740444141605
  0
VERTEX
  8
0
 10
2.0998712877075
 20
-75.7131324954816
 42
-0.0821612792649
  0
VERTEX
  8
0
 10
2.6781427695107
 20
-74.4872667703086
 42
-0.3101462558197
  0
VERTEX
  8
0
 10
5.0574345839208
 20
-73.4968292527953
 42
-0.1393668758302
  0
VERTEX
  8
0
 10
6.1297485641075
 20
-74.126809390046
 42
-0.1199270620823
  0
VERTEX
  8
0
 10
7.0159405922077
 20
-75.7360140108327
 42
-0.101381136201
  0
VERTEX
  8
0
 10
7.2339528180613
 20
-79.348758639564
 42
-0.0870163666177
  0
VERTEX
  8
0
 10
6.6857873112467
 20
-81.0842939289181
 42
-0.1245691231627
  0
VERTEX
  8
0
 10
5.7048247256911
 20
-82.1794747806583
 42
-0.09617337307
  0
SEQEND
  0
POLYLINE
  8
0
 66
     1
 10
0.0
 20
0.0
 30
0.0
 70
     1
  0
VERTEX
  8
0
 10
-13.1047891140125
 20
-82.3796541623793
 42
-0.0356391255968
  0
VERTEX
  8
0
 10
-13.8193259158964
 20
-82.2786302632722
 42
-0.2733584371555
  0
VERTEX
  8
0
 10
-14.8353512901281
 20
-81.4472791108862
 42
-0.0995162978917
  0
VERTEX
  8
0
 10
-14.9853403284509
 20
-79.9976364487333
 42
0.0124533319547
  0
VERTEX
  8
0
 10
-14.9571590274873
 20
-78.5094178609068
 42
-0.036971594917
  0
VERTEX
  8
0
 10
-14.8212784868495
 20
-76.4863929476746
 42
-0.1037733111602
  0
VERTEX
  8
0
 10
-14.2390054025436
 20
-74.8267149332687
 42
-0.2045264130306
  0
VERTEX
  8
0
 10
-12.7375418406383
 20
-73.7973126363055
 42
-0.2682454869184
  0
VERTEX
  8
0
 10
-10.7094172518395
 20
-74.3659226471411
 42
-0.1693194908753
  0
VERTEX
  8
0
 10
-9.9595048067677
 20
-75.8872739701492
 42
-0.0433564083007
  0
VERTEX
  8
0
 10
-9.9154748770572
 20
-77.2130933410701
 42
0.0165096335348
  0
VERTEX
  8
0
 10
-9.8969422336299
 20
-79.1190802143783
 42
-0.0598189622881
  0
VERTEX
  8
0
 10
-9.9781203839289
 20
-80.6456142364086
 42
-0.133903914417
  0
VERTEX
  8
0
 10
-10.4522684971064
 20
-81.7148251463306
 42
-0.1447565998385
  0
VERTEX
  8
0
 10
-11.4119063827504
 20
-82.2993193411725
 42
-0.0322581595753
  0
VERTEX
  8
0
 10
-11.7818724473459
 20
-82.3796541623793
 42
0.0
  0
VERTEX
  8
0
 10
-11.7818724473459
 20
-83.4379874957126
 42
0.0
  0
VERTEX
  8
0
 10
-4.9027057806792
 20
-83.4379874957126
 42
0.0
  0
VERTEX
  8
0
 10
-4.9027057806792
 20
-82.3796541623793
 42
-0.1039581630769
  0
VERTEX
  8
0
 10
-5.9829066108488
 20
-82.0245815555089
 42
-0.18035439344
  0
VERTEX
  8
0
 10
-6.6326553674338
 20
-81.1515928808882
 42
-0.067947090438
  0
VERTEX
  8
0
 10
-6.7973613942604
 20
-79.8982449396474
 42
-0.0224130587422
  0
VERTEX
  8
0
 10
-6.7356827754
 20
-77.985132712435
 42
0.0214282160982
  0
VERTEX
  8
0
 10
-6.6499423198945
 20
-76.1850418705112
 42
0.1017069141875
  0
VERTEX
  8
0
 10
-6.9900815732355
 20
-73.8767971875428
 42
0.0913727214792
  0
VERTEX
  8
0
 10
-7.7210916688429
 20
-72.6284027714031
 42
0.2072429854372
  0
VERTEX
  8
0
 10
-10.15771909291
 20
-71.5614817273654
 42
0.1675454756321
  0
VERTEX
  8
0
 10
-13.3919781071766
 20
-72.686244663105
 42
0.104308879799
  0
VERTEX
  8
0
 10
-14.6922891140125
 20
-74.1775708290459
 42
-0.0353953797324
  0
VERTEX
  8
0
 10
-15.05353260263
 20
-73.1125424070996
 42
0.0578481152051
  0
VERTEX
  8
0
 10
-15.3630060324909
 20
-72.2209758265544
 42
0.2062293743237
  0
VERTEX
  8
0
 10
-16.026147858467
 20
-71.6192670228048
 42
0.0790613416942
  0
VERTEX
  8
0
 10
-17.2633872206437
 20
-71.473502050074
 42
0.0196934169255
  0
VERTEX
  8
0
 10
-19.2145822105567
 20
-71.6908249636486
 42
-0.0309582209165
  0
VERTEX
  8
0
 10
-20.2485391140125
 20
-71.796320829046
 42
0.0
  0
VERTEX
  8
0
 10
-20.2485391140125
 20
-72.8546541623793
 42
-0.1778777768803
  0
VERTEX
  8
0
 10
-18.8009980680474
 20
-73.5813576966393
 42
-0.117310145291
  0
VERTEX
  8
0
 10
-18.2412903257367
 20
-74.6792750347443
 42
-0.0525114554764
  0
VERTEX
  8
0
 10
-18.0635042086522
 20
-76.1867244579711
 42
-0.0049729253895
  0
VERTEX
  8
0
 10
-18.1251078555384
 20
-78.2670217866541
 42
0.0069250593261
  0
VERTEX
  8
0
 10
-18.1054393770669
 20
-79.6982314589261
 42
-0.0693888620909
  0
VERTEX
  8
0
 10
-18.2228005547959
 20
-81.0048743943796
 42
-0.1537426940967
  0
VERTEX
  8
0
 10
-18.7781394163655
 20
-81.9490387075597
 42
-0.1405410583991
  0
VERTEX
  8
0
 10
-19.8131621115697
 20
-82.3382947233094
 42
-0.0106197539488
  0
VERTEX
  8
0
 10
-20.2485391140125
 20
-82.3796541623793
 42
0.0
  0
VERTEX
  8
0
 10
-20.2485391140125
 20
-83.4379874957126
 42
0.0
  0
VERTEX
  8
0
 10
-13.1047891140125
 20
-83.4379874957126
 42
0.0
  0
SEQEND
  0
POLYLINE
  8
0
 66
     1
 10
0.0
 20
0.0
 30
0.0
 70
     1
  0
VERTEX
  8
0
 10
-91.9506224473459
 20
-35.0192374957126
 42
0.010700027828
  0
VERTEX
  8
0
 10
-93.0079039286344
 20
-37.1206846875306
 42
0.0652452240512
  0
VERTEX
  8
0
 10
-94.0672891140126
 20
-40.3109041623793
 42
0.0
  0
VERTEX
  8
0
 10
-95.1256224473459
 20
-40.3109041623793
 42
0.0051066111387
  0
VERTEX
  8
0
 10
-95.567588733132
 20
-37.7851407380382
 42
0.0308057505647
  0
VERTEX
  8
0
 10
-96.1183954715426
 20
-35.5158951382663
 42
0.0846390803127
  0
VERTEX
  8
0
 10
-97.3791296485891
 20
-33.0306007245399
 42
0.064242574241
  0
VERTEX
  8
0
 10
-98.5652057806792
 20
-31.8442374957126
 42
-0.0324210379554
  0
VERTEX
  8
0
 10
-98.2153008550747
 20
-34.3303362404709
 42
-0.0514614723784
  0
VERTEX
  8
0
 10
-98.2472796481609
 20
-36.2364736070866
 42
-0.1045727121888
  0
VERTEX
  8
0
 10
-98.9083642667175
 20
-38.2562422423843
 42
-0.1453027982545
  0
VERTEX
  8
0
 10
-100.946455780679
 20
-40.046320829046
 42
0.0254064886805
  0
VERTEX
  8
0
 10
-101.240993297724
 20
-38.2533577369629
 42
-0.0328242634719
  0
VERTEX
  8
0
 10
-101.448532201598
 20
-36.7572952758492
 42
-0.1194011849171
  0
VERTEX
  8
0
 10
-101.1920897805
 20
-35.1236343466886
 42
-0.0099148155076
  0
VERTEX
  8
0
 10
-100.624113906467
 20
-33.9706458008736
 42
0.0383498737384
  0
VERTEX
  8
0
 10
-100.290027825052
 20
-33.1671541623793
 42
0.075281963091
  0
VERTEX
  8
0
 10
-99.8020400396185
 20
-29.3031642879314
 42
0.0542652655433
  0
VERTEX
  8
0
 10
-100.393285972182
 20
-24.812956574545
 42
0.0275592466313
  0
VERTEX
  8
0
 10
-101.985250510043
 20
-19.5401718718745
 42
-0.0010407926375
  0
VERTEX
  8
0
 10
-102.836501309864
 20
-17.2640581275408
 42
-0.042222797017
  0
VERTEX
  8
0
 10
-103.691465542327
 20
-14.3553391109153
 42
-0.0394223524728
  0
VERTEX
  8
0
 10
-103.856872447346
 20
-12.7942374957126
 42
0.0285778257884
  0
VERTEX
  8
0
 10
-95.808429645302
 20
-12.3782672265073
 42
0.0171616824913
  0
VERTEX
  8
0
 10
-92.7443724473459
 20
-11.9306435676934
 42
0.0632129123097
  0
VERTEX
  8
0
 10
-91.4033818301236
 20
-11.4491992010895
 42
-0.0352141545014
  0
VERTEX
  8
0
 10
-90.199035330329
 20
-10.9421853557855
 42
-0.0552232752286
  0
VERTEX
  8
0
 10
-89.3138368745951
 20
-10.7879948399389
 42
-0.0141554987091
  0
VERTEX
  8
0
 10
-85.9512760844439
 20
-10.6088071371785
 42
0.0153630162829
  0
VERTEX
  8
0
 10
-81.3672891140126
 20
-10.3854697955173
 42
0.0257251046175
  0
VERTEX
  8
0
 10
-79.5417159708035
 20
-10.0114517459078
 42
-0.0429717324025
  0
VERTEX
  8
0
 10
-78.6531242106891
 20
-9.8914512828743
 42
-0.0054765177874
  0
VERTEX
  8
0
 10
-74.8558939564022
 20
-9.7669538089032
 42
0.0353661271286
  0
VERTEX
  8
0
 10
-70.3860672333671
 20
-9.4181570512542
 42
0.004298465067
  0
VERTEX
  8
0
 10
-69.9902057806792
 20
-9.3546541623793
 42
0.0
  0
VERTEX
  8
0
 10
-69.9902057806792
 20
-32.108820829046
 42
0.0
  0
VERTEX
  8
0
 10
-70.7839557806792
 20
-32.108820829046
 42
-0.0275314695548
  0
VERTEX
  8
0
 10
-70.8903761356066
 20
-35.0434930413608
 42
-0.0705526230411
  0
VERTEX
  8
0
 10
-71.5916746631304
 20
-38.3042212383028
 42
-0.0624893880289
  0
VERTEX
  8
0
 10
-72.3337875861775
 20
-39.6835236399837
 42
-0.1734701018757
  0
VERTEX
  8
0
 10
-74.7527057806792
 20
-41.3692374957126
 42
0.0207115951301
  0
VERTEX
  8
0
 10
-74.5593559637256
 20
-39.4079699491888
 42
-0.0688894049527
  0
VERTEX
  8
0
 10
-74.0971301286741
 20
-36.9448826230366
 42
0.039662915764
  0
VERTEX
  8
0
 10
-73.5077409675988
 20
-34.7832896821845
 42
0.0361123089535
  0
VERTEX
  8
0
 10
-73.4297891140125
 20
-33.9609041623793
 42
0.0739616054406
  0
VERTEX
  8
0
 10
-74.7223759540407
 20
-34.9572661151069
 42
0.0802348888949
  0
VERTEX
  8
0
 10
-76.844447810621
 20
-38.1776081668038
 42
0.020222675273
  0
VERTEX
  8
0
 10
-77.3985391140126
 20
-39.5171541623793
 42
-0.1874949301336
  0
VERTEX
  8
0
 10
-78.358321562937
 20
-38.6748878942564
 42
-0.0551555706779
  0
VERTEX
  8
0
 10
-78.7518536559074
 20
-37.5321017925815
 42
0.0139638648813
  0
VERTEX
  8
0
 10
-79.0320795854074
 20
-36.3421541623793
 42
0.1652608530808
  0
VERTEX
  8
0
 10
-81.3672891140126
 20
-32.902570829046
 42
-0.0793881937039
  0
VERTEX
  8
0
 10
-82.0707473438861
 20
-38.8606425291447
 42
-0.0089573717202
  0
VERTEX
  8
0
 10
-82.4256224473459
 20
-40.046320829046
 42
-0.1087259466812
  0
VERTEX
  8
0
 10
-83.6594122994629
 20
-38.958000466927
 42
0.0019897795385
  0
VERTEX
  8
0
 10
-84.4657173751136
 20
-37.8286955799289
 42
0.0550486018827
  0
VERTEX
  8
0
 10
-85.8657805993364
 20
-36.3270885274614
 42
0.0398087766523
  0
VERTEX
  8
0
 10
-89.0402057806792
 20
-33.9609041623793
 42
-0.0758232212892
  0
VERTEX
  8
0
 10
-88.5958038260356
 20
-37.0353549141583
 42
-0.0168806388224
  0
VERTEX
  8
0
 10
-88.7756224473459
 20
-40.046320829046
 42
-0.2259734819235
  0
VERTEX
  8
0
 10
-90.4140093635576
 20
-38.9226538856749
 42
-0.0763928411963
  0
VERTEX
  8
0
 10
-90.9226050891988
 20
-37.6283808442678
 42
-0.0197077767059
  0
VERTEX
  8
0
 10
-91.2593439884241
 20
-35.8481110951718
 42
0.0196920328524
  0
VERTEX
  8
0
 10
-91.4214557806792
 20
-35.0192374957126
 42
0.0
  0
SEQEND
  0
POLYLINE
  8
0
 66
     1
 10
0.0
 20
0.0
 30
0.0
 70
     1
  0
VERTEX
  8
0
 10
55.6027418613293
 20
-76.2862922442478
 42
-0.1071423013573
  0
VERTEX
  8
0
 10
54.6087625217719
 20
-76.6259311093053
 42
-0.0418994029893
  0
VERTEX
  8
0
 10
52.45102735814
 20
-76.6286787509451
 42
0.0160724025797
  0
VERTEX
  8
0
 10
51.1889608859875
 20
-76.558820829046
 42
-0.0816152990576
  0
VERTEX
  8
0
 10
51.8304730717484
 20
-73.9042954676886
 42
-0.139711612402
  0
VERTEX
  8
0
 10
52.8345749304798
 20
-72.5794682793001
 42
-0.2400830335651
  0
VERTEX
  8
0
 10
54.3791257456339
 20
-72.4183737511689
 42
-0.2040209849914
  0
VERTEX
  8
0
 10
55.8142003205515
 20
-73.6974070924933
 42
-0.1278128405476
  0
VERTEX
  8
0
 10
56.1914047241541
 20
-75.0643988182664
 42
-0.1405700978517
  0
VERTEX
  8
0
 10
55.9726958356253
 20
-75.9091500884523
 42
-0.0887283641232
  0
SEQEND
  0
POLYLINE
  8
0
 66
     1
 10
0.0
 20
0.0
 30
0.0
 70
     1
  0
VERTEX
  8
0
 10
-161.006872447346
 20
-82.3796541623793
 42
0.0
  0
VERTEX
  8
0
 10
-161.006872447346
 20
-83.4379874957126
 42
0.0002850510075
  0
VERTEX
  8
0
 10
-151.166916029754
 20
-83.4375062594022
 42
0.0347986009772
  0
VERTEX
  8
0
 10
-148.355816943789
 20
-83.2848882229666
 42
0.0931513380416
  0
VERTEX
  8
0
 10
-145.40042436919
 20
-82.3664120766045
 42
0.2702820671742
  0
VERTEX
  8
0
 10
-143.23960788676
 20
-78.5988874487754
 42
0.2658055419049
  0
VERTEX
  8
0
 10
-145.168226011104
 20
-75.2546516201308
 42
0.0867575591251
  0
VERTEX
  8
0
 10
-147.406873878167
 20
-74.3880668506237
 42
0.0321438995185
  0
VERTEX
  8
0
 10
-148.836039114013
 20
-74.1775708290459
 42
0.0109042066211
  0
VERTEX
  8
0
 10
-147.291945513474
 20
-73.5018796292079
 42
0.061093841208
  0
VERTEX
  8
0
 10
-145.7499698726
 20
-72.5701655836888
 42
0.124795474879
  0
VERTEX
  8
0
 10
-144.531713398381
 20
-70.9474678610298
 42
0.2018182113078
  0
VERTEX
  8
0
 10
-144.596615058398
 20
-68.0930326231935
 42
0.2019680942935
  0
VERTEX
  8
0
 10
-147.248539114013
 20
-65.5945029986423
 42
0.0733334758642
  0
VERTEX
  8
0
 10
-149.424760492741
 20
-65.1810761678191
 42
0.0126994465757
  0
VERTEX
  8
0
 10
-151.774386927772
 20
-65.1773780369587
 42
0.0
  0
VERTEX
  8
0
 10
-152.275622447346
 20
-65.1817374957126
 42
0.0
  0
VERTEX
  8
0
 10
-161.006872447346
 20
-65.1817374957126
 42
0.0
  0
VERTEX
  8
0
 10
-161.006872447346
 20
-66.240070829046
 42
-0.0040875424619
  0
VERTEX
  8
0
 10
-160.13692593077
 20
-66.233907650249
 42
-0.1432934828965
  0
VERTEX
  8
0
 10
-158.970859635143
 20
-66.5186206819808
 42
-0.1715299255704
  0
VERTEX
  8
0
 10
-158.445876631266
 20
-67.241689892951
 42
-0.0706060524835
  0
VERTEX
  8
0
 10
-158.288134578646
 20
-68.5520929473971
 42
0.0088862990938
  0
VERTEX
  8
0
 10
-158.361039114013
 20
-70.2088208290459
 42
0.0
  0
VERTEX
  8
0
 10
-158.361039114013
 20
-78.4109041623793
 42
-0.007611195471
  0
VERTEX
  8
0
 10
-158.289732527625
 20
-79.9688131864257
 42
-0.0365606313367
  0
VERTEX
  8
0
 10
-158.337635383751
 20
-80.9205765708241
 42
-0.1082584386361
  0
VERTEX
  8
0
 10
-158.632978264505
 20
-81.7658350400649
 42
-0.2043820769316
  0
VERTEX
  8
0
 10
-159.579059127721
 20
-82.3315119527398
 42
-0.0361739101733
  0
VERTEX
  8
0
 10
-160.801503336145
 20
-82.3814411914844
 42
0.0
  0
SEQEND
  0
POLYLINE
  8
0
 66
     1
 10
0.0
 20
0.0
 30
0.0
 70
     1
  0
VERTEX
  8
0
 10
-39.9118414720041
 20
-76.2862922442478
 42
-0.1071423013574
  0
VERTEX
  8
0
 10
-40.9058208115615
 20
-76.6259311093053
 42
-0.0418994029892
  0
VERTEX
  8
0
 10
-43.0635559751933
 20
-76.6286787509451
 42
0.0160724025797
  0
VERTEX
  8
0
 10
-44.3256224473459
 20
-76.558820829046
 42
-0.0816163525803
  0
VERTEX
  8
0
 10
-43.6841137103362
 20
-73.9042954676886
 42
-0.1397116999485
  0
VERTEX
  8
0
 10
-42.6800101175815
 20
-72.5794682793001
 42
-0.2400828000233
  0
VERTEX
  8
0
 10
-41.1354576830159
 20
-72.4183737511689
 42
-0.2040210093765
  0
VERTEX
  8
0
 10
-39.7003830127818
 20
-73.6974070924933
 42
-0.1278128405476
  0
VERTEX
  8
0
 10
-39.3231786091793
 20
-75.0643988182664
 42
-0.1405700978518
  0
VERTEX
  8
0
 10
-39.5418874977081
 20
-75.9091500884523
 42
-0.0887283641231
  0
SEQEND
  0
POLYLINE
  8
0
 66
     1
 10
0.0
 20
0.0
 30
0.0
 70
     1
  0
VERTEX
  8
0
 10
-106.506678406412
 20
-78.2468637876234
 42
-0.306154659492
  0
VERTEX
  8
0
 10
-108.310701106067
 20
-77.863469133346
 42
-0.1106982724028
  0
VERTEX
  8
0
 10
-108.912769555249
 20
-76.8591443213716
 42
-0.1639326168569
  0
VERTEX
  8
0
 10
-108.939936719636
 20
-74.0279684839518
 42
-0.1219781366257
  0
VERTEX
  8
0
 10
-108.243152172304
 20
-72.9006995059077
 42
-0.1698858527062
  0
VERTEX
  8
0
 10
-107.02086252126
 20
-72.3795612820284
 42
-0.221182696576
  0
VERTEX
  8
0
 10
-105.74928789119
 20
-72.8787261245494
 42
-0.1223183044808
  0
VERTEX
  8
0
 10
-105.066883860243
 20
-74.1276088218975
 42
-0.1299475184006
  0
VERTEX
  8
0
 10
-105.034071833464
 20
-76.4503239618376
 42
-0.1456990649503
  0
VERTEX
  8
0
 10
-105.823605898779
 20
-77.8456669031363
 42
-0.0977643405339
  0
SEQEND
  0
POLYLINE
  8
0
 66
     1
 10
0.0
 20
0.0
 30
0.0
 70
     1
  0
VERTEX
  8
0
 10
-132.780591472004
 20
-76.2862922442478
 42
-0.1071423047285
  0
VERTEX
  8
0
 10
-133.774571411537
 20
-76.6259311093053
 42
-0.0418993964447
  0
VERTEX
  8
0
 10
-135.932307750782
 20
-76.6286787509451
 42
0.0160723852348
  0
VERTEX
  8
0
 10
-137.194372447346
 20
-76.558820829046
 42
-0.0816161136811
  0
VERTEX
  8
0
 10
-136.552865488058
 20
-73.9042954676886
 42
-0.1397121703665
  0
VERTEX
  8
0
 10
-135.548762033247
 20
-72.5794666778942
 42
-0.2400828376636
  0
VERTEX
  8
0
 10
-134.004214266828
 20
-72.4183739940583
 42
-0.2040200295554
  0
VERTEX
  8
0
 10
-132.569146062998
 20
-73.6973937591164
 42
-0.1278126131263
  0
VERTEX
  8
0
 10
-132.19193348558
 20
-75.0643914781275
 42
-0.1405698813764
  0
VERTEX
  8
0
 10
-132.410638662839
 20
-75.9091479294339
 42
-0.0887295291572
  0
SEQEND
  0
POLYLINE
  8
0
 66
     1
 10
0.0
 20
0.0
 30
0.0
 70
     1
  0
VERTEX
  8
0
 10
28.6993775526541
 20
-82.3796541623793
 42
-0.0691363257311
  0
VERTEX
  8
0
 10
27.750984605384
 20
-82.0927493798869
 42
-0.1904559482537
  0
VERTEX
  8
0
 10
27.0068452040213
 20
-81.2922205381117
 42
-0.0902577607567
  0
VERTEX
  8
0
 10
26.7867373052252
 20
-79.7978492779087
 42
0.0062001464171
  0
VERTEX
  8
0
 10
26.845622808017
 20
-78.3012956707926
 42
0.0051112617872
  0
VERTEX
  8
0
 10
26.8472942193208
 20
-78.1463208290459
 42
0.0
  0
VERTEX
  8
0
 10
26.8472942193208
 20
-71.5317374957126
 42
0.0
  0
VERTEX
  8
0
 10
21.5556275526541
 20
-71.796320829046
 42
0.0
  0
VERTEX
  8
0
 10
21.5556275526541
 20
-72.8546541623793
 42
-0.1882894507047
  0
VERTEX
  8
0
 10
23.0388446892907
 20
-73.6913800380022
 42
-0.1228670921963
  0
VERTEX
  8
0
 10
23.746320686071
 20
-75.311234151242
 42
-0.1358878133473
  0
VERTEX
  8
0
 10
23.3440604844083
 20
-79.1338194768643
 42
-0.1179572894771
  0
VERTEX
  8
0
 10
22.3860167205301
 20
-80.6696305245055
 42
-0.0782413109147
  0
VERTEX
  8
0
 10
21.595174749414
 20
-81.2310581454095
 42
-0.2362746008061
  0
VERTEX
  8
0
 10
19.9753713103311
 20
-81.2303905212596
 42
-0.1313606072369
  0
VERTEX
  8
0
 10
18.9951102518734
 20
-80.3076941489797
 42
-0.1169582705797
  0
VERTEX
  8
0
 10
18.4080750008681
 20
-78.4943197038555
 42
-0.0181071359873
  0
VERTEX
  8
0
 10
18.3730867120572
 20
-76.4569136289848
 42
0.0054496604168
  0
VERTEX
  8
0
 10
18.3806275526541
 20
-71.5317374957126
 42
0.0
  0
VERTEX
  8
0
 10
13.3535442193208
 20
-71.796320829046
 42
0.0
  0
VERTEX
  8
0
 10
13.3535442193208
 20
-72.8546541623793
 42
-0.0950980278807
  0
VERTEX
  8
0
 10
14.3266840031019
 20
-73.2274214256188
 42
-0.2040940685916
  0
VERTEX
  8
0
 10
15.102199137598
 20
-74.4363901482744
 42
-0.046119307148
  0
VERTEX
  8
0
 10
15.2057429516422
 20
-75.7903733415906
 42
0.0189694661201
  0
VERTEX
  8
0
 10
15.2470149676321
 20
-78.5953069736797
 42
0.0528736446144
  0
VERTEX
  8
0
 10
15.547035229905
 20
-80.7544968129158
 42
0.1308681341382
  0
VERTEX
  8
0
 10
16.5691852723205
 20
-82.7919114981351
 42
0.1938432685789
  0
VERTEX
  8
0
 10
18.6656942699495
 20
-83.6814959117206
 42
0.1710028891664
  0
VERTEX
  8
0
 10
21.9489513460884
 20
-82.64023456222
 42
0.0352861756945
  0
VERTEX
  8
0
 10
23.1277552524871
 20
-81.5990243646046
 42
0.0
  0
VERTEX
  8
0
 10
23.6722942193208
 20
-81.0567374957127
 42
0.0
  0
VERTEX
  8
0
 10
23.9368775526541
 20
-83.4379874957127
 42
0.0
  0
VERTEX
  8
0
 10
28.6993775526541
 20
-83.4379874957126
 42
0.0
  0
SEQEND
  0
POLYLINE
  8
0
 66
     1
 10
0.0
 20
0.0
 30
0.0
 70
     1
  0
VERTEX
  8
0
 10
-73.212562386209
 20
-80.2576906614027
 42
-0.0510473117869
  0
VERTEX
  8
0
 10
-73.5163396805616
 20
-80.7086388487515
 42
-0.1405490694725
  0
VERTEX
  8
0
 10
-75.0852318028829
 20
-81.7607750043393
 42
-0.1519840911488
  0
VERTEX
  8
0
 10
-76.3081152809949
 20
-81.7823198543674
 42
-0.1910585227673
  0
VERTEX
  8
0
 10
-77.5014418597156
 20
-80.5920390240151
 42
-0.243474726913
  0
VERTEX
  8
0
 10
-77.4191865472153
 20
-79.4376080382394
 42
-0.0968825888783
  0
VERTEX
  8
0
 10
-76.5854131586575
 20
-78.612417186186
 42
-0.0779870525536
  0
VERTEX
  8
0
 10
-74.3427650976974
 20
-77.6393265644181
 42
-0.046370653897
  0
VERTEX
  8
0
 10
-72.9006224473459
 20
-77.352570829046
 42
-0.0112712532224
  0
VERTEX
  8
0
 10
-72.8853289233212
 20
-78.7374630349139
 42
-0.1144255574982
  0
SEQEND
  0
POLYLINE
  8
0
 66
     1
 10
0.0
 20
0.0
 30
0.0
 70
     1
  0
VERTEX
  8
0
 10
0.9181275526541
 20
-82.3823025795343
 42
-0.1292046921559
  0
VERTEX
  8
0
 10
1.9772231246935
 20
-82.6991334521512
 42
0.0097131746664
  0
VERTEX
  8
0
 10
2.8645810144555
 20
-83.2111737993496
 42
0.0389873200482
  0
VERTEX
  8
0
 10
3.2993775526541
 20
-83.4088872047784
 42
0.2060609646542
  0
VERTEX
  8
0
 10
8.1487828914404
 20
-82.9562667731662
 42
0.1237670883289
  0
VERTEX
  8
0
 10
9.9035213909116
 20
-81.3451663126687
 42
0.0755974592072
  0
VERTEX
  8
0
 10
10.7458400191876
 20
-79.499309840726
 42
0.129218240167
  0
VERTEX
  8
0
 10
10.8699532391669
 20
-75.3834483808227
 42
0.1121915230013
  0
VERTEX
  8
0
 10
9.8097198327241
 20
-73.1298311643324
 42
0.2062985096139
  0
VERTEX
  8
0
 10
6.4362514439605
 20
-71.3298320353822
 42
0.3051471441879
  0
VERTEX
  8
0
 10
2.2410442193208
 20
-73.6484041623793
 42
-0.0682119246463
  0
VERTEX
  8
0
 10
1.8115094308711
 20
-70.2539855492518
 42
-0.0109116273922
  0
VERTEX
  8
0
 10
1.9164441065913
 20
-66.8982027660329
 42
0.0143890130829
  0
VERTEX
  8
0
 10
1.9764608859875
 20
-64.9171541623793
 42
0.0
  0
VERTEX
  8
0
 10
-3.3152057806792
 20
-65.1817374957126
 42
0.0
  0
VERTEX
  8
0
 10
-3.3152057806792
 20
-66.240070829046
 42
-0.1010425706324
  0
VERTEX
  8
0
 10
-2.3609468612108
 20
-66.5786940869548
 42
-0.1872691372468
  0
VERTEX
  8
0
 10
-1.5533467244271
 20
-67.7846617413605
 42
-0.0512450390979
  0
VERTEX
  8
0
 10
-1.4250862473966
 20
-69.2255901091763
 42
0.0128333863547
  0
VERTEX
  8
0
 10
-1.4625365009439
 20
-71.8625212796678
 42
-0.0019018957103
  0
VERTEX
  8
0
 10
-1.4633808295073
 20
-79.733820829046
 42
-0.0184426851392
  0
VERTEX
  8
0
 10
-1.5864950254712
 20
-81.471410157411
 42
0.0530337337859
  0
VERTEX
  8
0
 10
-1.5948303218897
 20
-83.0431097916498
 42
0.0390163250014
  0
VERTEX
  8
0
 10
-1.4631224473459
 20
-83.7025708290459
 42
0.0504706335399
  0
VERTEX
  8
0
 10
-0.6715848642355
 20
-83.1964200470475
 42
-0.0424537878245
  0
VERTEX
  8
0
 10
0.3139855912636
 20
-82.5536580773566
 42
-0.118691974015
  0
SEQEND
  0
POLYLINE
  8
0
 66
     1
 10
0.0
 20
0.0
 30
0.0
 70
     1
  0
VERTEX
  8
0
 10
-93.8027057806792
 20
-82.3823025795343
 42
-0.1291893925507
  0
VERTEX
  8
0
 10
-92.7435533171499
 20
-82.6991196979959
 42
0.0004136282787
  0
VERTEX
  8
0
 10
-91.856179859032
 20
-83.2111594054003
 42
0.0404364022655
  0
VERTEX
  8
0
 10
-91.4214557806792
 20
-83.4088872047784
 42
0.2060614739097
  0
VERTEX
  8
0
 10
-86.5720517111786
 20
-82.9562667731662
 42
0.1237636418847
  0
VERTEX
  8
0
 10
-84.8173144528865
 20
-81.3451663126687
 42
0.07559787158
  0
VERTEX
  8
0
 10
-83.97499056444
 20
-79.499309840726
 42
0.1292192023633
  0
VERTEX
  8
0
 10
-83.850878851027
 20
-75.3834483808227
 42
0.1121920093359
  0
VERTEX
  8
0
 10
-84.9111215750518
 20
-73.1298311643324
 42
0.2062990356835
  0
VERTEX
  8
0
 10
-88.2845808116545
 20
-71.3298320353822
 42
0.3051463699493
  0
VERTEX
  8
0
 10
-92.4797891140125
 20
-73.6484041623793
 42
-0.0682127179722
  0
VERTEX
  8
0
 10
-92.9093273993646
 20
-70.2539855492518
 42
-0.0109117013164
  0
VERTEX
  8
0
 10
-92.804390218927
 20
-66.8982027660329
 42
0.0143892527482
  0
VERTEX
  8
0
 10
-92.7443724473459
 20
-64.9171541623793
 42
0.0
  0
VERTEX
  8
0
 10
-98.0360391140126
 20
-65.1817374957126
 42
0.0
  0
VERTEX
  8
0
 10
-98.0360391140126
 20
-66.240070829046
 42
-0.1010427384977
  0
VERTEX
  8
0
 10
-97.0817830238615
 20
-66.5786940869548
 42
-0.1872684923748
  0
VERTEX
  8
0
 10
-96.2741832557037
 20
-67.7846617413605
 42
-0.0512450273238
  0
VERTEX
  8
0
 10
-96.1459208291301
 20
-69.2255901091763
 42
0.0090175188128
  0
VERTEX
  8
0
 10
-96.1839557806792
 20
-70.7379874957126
 42
0.0
  0
VERTEX
  8
0
 10
-96.1839557806792
 20
-79.733820829046
 42
-0.0189471895416
  0
VERTEX
  8
0
 10
-96.2932866040144
 20
-81.414673542562
 42
0.042918183157
  0
VERTEX
  8
0
 10
-96.3181465158948
 20
-82.9435153156012
 42
0.0469242964428
  0
VERTEX
  8
0
 10
-96.1839557806792
 20
-83.7025708290459
 42
0.0504706335399
  0
VERTEX
  8
0
 10
-95.3924181975688
 20
-83.1964200470475
 42
-0.0424537878246
  0
VERTEX
  8
0
 10
-94.4068477420697
 20
-82.5536580773566
 42
-0.1186899079237
  0
SEQEND
  0
POLYLINE
  8
0
 66
     1
 10
0.0
 20
0.0
 30
0.0
 70
     1
  0
VERTEX
  8
0
 10
-109.926681216572
 20
-86.7637857846938
 42
-0.1152099434705
  0
VERTEX
  8
0
 10
-110.677471417346
 20
-86.2008084408572
 42
-0.3687917000684
  0
VERTEX
  8
0
 10
-110.650642582092
 20
-85.1895092063027
 42
-0.0963097206498
  0
VERTEX
  8
0
 10
-109.9612976703
 20
-84.6169810158217
 42
-0.1068498559673
  0
VERTEX
  8
0
 10
-108.182670351581
 20
-84.021432559798
 42
-0.0355815199843
  0
VERTEX
  8
0
 10
-105.558595721725
 20
-83.8150632199174
 42
-0.0669607538857
  0
VERTEX
  8
0
 10
-103.597539594811
 20
-84.0157355773172
 42
-0.1300808232894
  0
VERTEX
  8
0
 10
-102.437810494267
 20
-84.6326159766337
 42
-0.1715729181519
  0
VERTEX
  8
0
 10
-102.14681356442
 20
-85.148271370168
 42
-0.1700473442051
  0
VERTEX
  8
0
 10
-102.258704259987
 20
-85.6060362933127
 42
-0.1009271275484
  0
VERTEX
  8
0
 10
-102.818000195022
 20
-86.1505666043669
 42
-0.1035750748262
  0
VERTEX
  8
0
 10
-105.179789114013
 20
-87.0654146604262
 42
-0.0409234953943
  0
VERTEX
  8
0
 10
-107.523954204653
 20
-87.2292491601
 42
-0.0715132670915
  0
VERTEX
  8
0
 10
-109.352367773554
 20
-86.9899164683959
 42
-0.0476353207202
  0
SEQEND
  0
POLYLINE
  8
0
 66
     1
 10
0.0
 20
0.0
 30
0.0
 70
     1
  0
VERTEX
  8
0
 10
-21.0422891140125
 20
-41.1046541623793
 42
-0.156642002788
  0
VERTEX
  8
0
 10
-22.1312849423749
 20
-40.1631699217519
 42
-0.2568523967028
  0
VERTEX
  8
0
 10
-22.0645364347217
 20
-38.8936830030053
 42
-0.1318677885148
  0
VERTEX
  8
0
 10
-20.878685075312
 20
-37.7933615263985
 42
-0.0547511395147
  0
VERTEX
  8
0
 10
-19.9839557806792
 20
-37.4004874957126
 42
-0.0458489092515
  0
VERTEX
  8
0
 10
-20.3227275674884
 20
-38.9929287112332
 42
0.0071264663275
  0
SEQEND
  0
POLYLINE
  8
0
 66
     1
 10
0.0
 20
0.0
 30
0.0
 70
     1
  0
VERTEX
  8
0
 10
94.3160442193208
 20
-34.2254874957126
 42
0.0537945238101
  0
VERTEX
  8
0
 10
94.4505386908887
 20
-33.8804508497415
 42
0.1584383510276
  0
VERTEX
  8
0
 10
94.3886252162453
 20
-33.5937930992027
 42
0.0083736478261
  0
VERTEX
  8
0
 10
94.3160442193208
 20
-33.4317374957126
 42
0.0
  0
SEQEND
  0
POLYLINE
  8
0
 66
     1
 10
0.0
 20
0.0
 30
0.0
 70
     1
  0
VERTEX
  8
0
 10
-153.951307471607
 20
-33.7836217018487
 42
0.1765428627938
  0
VERTEX
  8
0
 10
-153.95901271583
 20
-33.6021901162192
 42
0.7781250137551
  0
VERTEX
  8
0
 10
-154.048842113561
 20
-33.6654711676649
 42
0.1319057176028
  0
VERTEX
  8
0
 10
-154.031816398262
 20
-33.7904515418727
 42
0.419064539238
  0
SEQEND
  0
POLYLINE
  8
0
 66
     1
 10
0.0
 20
0.0
 30
0.0
 70
     1
  0
VERTEX
  8
0
 10
126.507910013185
 20
-9.7073458127699
 42
0.1759308474573
  0
VERTEX
  8
0
 10
126.49901767421
 20
-9.5245381282541
 42
0.7926019131516
  0
VERTEX
  8
0
 10
126.409331262387
 20
-9.5882970553065
 42
0.1336367449863
  0
VERTEX
  8
0
 10
126.426886761618
 20
-9.713995493044
 42
0.4246652149261
  0
SEQEND
  0
POLYLINE
  8
0
 66
     1
 10
0.0
 20
0.0
 30
0.0
 70
     1
  0
VERTEX
  8
0
 10
-154.12034996352
 20
-81.9563272886
 42
-0.1395081236418
  0
VERTEX
  8
0
 10
-154.392988954665
 20
-81.2252631058961
 42
-0.0302421478448
  0
VERTEX
  8
0
 10
-154.402516838221
 20
-80.0895331511927
 42
0.0126329940967
  0
VERTEX
  8
0
 10
-154.392289114013
 20
-79.733820829046
 42
0.0
  0
VERTEX
  8
0
 10
-154.392289114013
 20
-74.7067374957126
 42
-0.0064224070569
  0
VERTEX
  8
0
 10
-152.290260483917
 20
-74.6550403100846
 42
-0.0685299434952
  0
VERTEX
  8
0
 10
-150.158955780679
 20
-74.8469744138441
 42
-0.2260157218265
  0
VERTEX
  8
0
 10
-147.671847840091
 20
-76.9706716940443
 42
-0.2141426414775
  0
VERTEX
  8
0
 10
-147.54634616095
 20
-80.2976372243498
 42
-0.2262447466444
  0
VERTEX
  8
0
 10
-149.478728660862
 20
-82.1104152906515
 42
-0.0690007166326
  0
VERTEX
  8
0
 10
-151.481872447346
 20
-82.3796541623793
 42
-0.0221856069305
  0
VERTEX
  8
0
 10
-152.743528032222
 20
-82.4236334001534
 42
-0.1144307427857
  0
VERTEX
  8
0
 10
-153.790888113659
 20
-82.2194994395319
 42
-0.1086865493971
  0
SEQEND
  0
POLYLINE
  8
0
 66
     1
 10
0.0
 20
0.0
 30
0.0
 70
     1
  0
VERTEX
  8
0
 10
-36.9172891140125
 20
-79.733820829046
 42
-0.0498939522595
  0
VERTEX
  8
0
 10
-38.2449534908646
 20
-81.2186167756132
 42
-0.1140630732825
  0
VERTEX
  8
0
 10
-39.9801030421666
 20
-82.2014415679389
 42
-0.2093977128357
  0
VERTEX
  8
0
 10
-42.1025692418207
 20
-81.9317649862449
 42
-0.1194247259036
  0
VERTEX
  8
0
 10
-43.489908021732
 20
-80.410545084236
 42
-0.1087750288103
  0
VERTEX
  8
0
 10
-44.3256224473459
 20
-77.6171541623793
 42
0.0
  0
VERTEX
  8
0
 10
-36.1235391140125
 20
-77.6171541623793
 42
0.0483910881717
  0
VERTEX
  8
0
 10
-36.4024783893557
 20
-75.5487705229119
 42
0.0995665096267
  0
VERTEX
  8
0
 10
-37.4341609572843
 20
-73.2814105941955
 42
0.2709692926869
  0
VERTEX
  8
0
 10
-42.5507953874459
 20
-71.2559452564886
 42
0.2727391712184
  0
VERTEX
  8
0
 10
-47.6785143203589
 20
-75.5109756555618
 42
0.1839382875862
  0
VERTEX
  8
0
 10
-47.5094196069561
 20
-80.1188014442339
 42
0.2304026105666
  0
VERTEX
  8
0
 10
-43.6509826268307
 20
-83.4668189246127
 42
0.1371402722738
  0
VERTEX
  8
0
 10
-39.7132617180763
 20
-83.4270711677297
 42
0.0973808445682
  0
VERTEX
  8
0
 10
-37.702349979394
 20
-82.4040704893695
 42
0.164666122737
  0
VERTEX
  8
0
 10
-36.1235391140125
 20
-79.9984041623793
 42
0.0
  0
SEQEND
  0
POLYLINE
  8
0
 66
     1
 10
0.0
 20
0.0
 30
0.0
 70
     1
  0
VERTEX
  8
0
 10
-50.4110391140125
 20
-82.3796541623793
 42
-0.0573642144497
  0
VERTEX
  8
0
 10
-51.2919808300212
 20
-82.1249242285641
 42
-0.2020504856147
  0
VERTEX
  8
0
 10
-52.1035795370879
 20
-81.2922205381117
 42
-0.0902540814609
  0
VERTEX
  8
0
 10
-52.3236773503374
 20
-79.7978492779087
 42
0.0062000097236
  0
VERTEX
  8
0
 10
-52.2647937956682
 20
-78.3012956707926
 42
0.0051110697554
  0
VERTEX
  8
0
 10
-52.2631224473459
 20
-78.1463208290459
 42
0.0
  0
VERTEX
  8
0
 10
-52.2631224473459
 20
-71.5317374957126
 42
0.0
  0
VERTEX
  8
0
 10
-57.5547891140126
 20
-71.796320829046
 42
0.0
  0
VERTEX
  8
0
 10
-57.5547891140126
 20
-72.8546541623793
 42
-0.2314399046606
  0
VERTEX
  8
0
 10
-55.8062329845105
 20
-74.088116812591
 42
-0.0968280760607
  0
VERTEX
  8
0
 10
-55.3164394814731
 20
-75.6692372126061
 42
-0.116279347205
  0
VERTEX
  8
0
 10
-55.7225941181618
 20
-79.0051571393294
 42
-0.1217024483594
  0
VERTEX
  8
0
 10
-56.7896145661813
 20
-80.7313051633559
 42
-0.1561064049899
  0
VERTEX
  8
0
 10
-58.1021701746415
 20
-81.4083757680124
 42
-0.2409098217284
  0
VERTEX
  8
0
 10
-59.7562533449807
 20
-80.7645339901208
 42
-0.1580882400457
  0
VERTEX
  8
0
 10
-60.6837486426177
 20
-78.6754874957126
 42
-0.0328262308414
  0
VERTEX
  8
0
 10
-60.7429409134005
 20
-76.7888507115566
 42
0.0029991057587
  0
VERTEX
  8
0
 10
-60.7297891140125
 20
-75.765070829046
 42
0.0
  0
VERTEX
  8
0
 10
-60.7297891140125
 20
-71.5317374957126
 42
0.0
  0
VERTEX
  8
0
 10
-65.7568724473459
 20
-71.796320829046
 42
0.0
  0
VERTEX
  8
0
 10
-65.7568724473459
 20
-72.8546541623793
 42
-0.0950980278807
  0
VERTEX
  8
0
 10
-64.7837326635648
 20
-73.2274214256188
 42
-0.2040940685916
  0
VERTEX
  8
0
 10
-64.0082175290687
 20
-74.4363901482744
 42
-0.0461193071481
  0
VERTEX
  8
0
 10
-63.9046737150245
 20
-75.7903733415906
 42
0.0189693487069
  0
VERTEX
  8
0
 10
-63.8633973551941
 20
-78.5953069736797
 42
0.052873398798
  0
VERTEX
  8
0
 10
-63.563375451537
 20
-80.7544968129158
 42
0.1308678573694
  0
VERTEX
  8
0
 10
-62.5412262415411
 20
-82.7919114981351
 42
0.1938435211125
  0
VERTEX
  8
0
 10
-60.4447209569253
 20
-83.6814959117206
 42
0.1710028261067
  0
VERTEX
  8
0
 10
-57.1614653205783
 20
-82.64023456222
 42
0.0352861756945
  0
VERTEX
  8
0
 10
-55.9826614141796
 20
-81.5990243646046
 42
0.0
  0
VERTEX
  8
0
 10
-55.4381224473459
 20
-81.0567374957127
 42
0.0
  0
VERTEX
  8
0
 10
-55.1735391140125
 20
-83.4379874957127
 42
0.0
  0
VERTEX
  8
0
 10
-50.4110391140125
 20
-83.4379874957126
 42
0.0
  0
SEQEND
  0
POLYLINE
  8
0
 66
     1
 10
0.0
 20
0.0
 30
0.0
 70
     1
  0
VERTEX
  8
0
 10
38.7532858371593
 20
-82.5251879148207
 42
-0.1958456076722
  0
VERTEX
  8
0
 10
37.2616037988031
 20
-82.3046149563098
 42
-0.1763201878723
  0
VERTEX
  8
0
 10
36.0690827528494
 20
-80.7895057452244
 42
-0.0799478796701
  0
VERTEX
  8
0
 10
35.6606190025144
 20
-78.0564826861732
 42
-0.0740444141605
  0
VERTEX
  8
0
 10
35.9665379543741
 20
-75.7131324954816
 42
-0.0821612792649
  0
VERTEX
  8
0
 10
36.5448094361773
 20
-74.4872667703086
 42
-0.3101462558197
  0
VERTEX
  8
0
 10
38.9241012505875
 20
-73.4968292527953
 42
-0.1393668758302
  0
VERTEX
  8
0
 10
39.9964152307742
 20
-74.126809390046
 42
-0.1199270620823
  0
VERTEX
  8
0
 10
40.8826072588743
 20
-75.7360140108327
 42
-0.101381136201
  0
VERTEX
  8
0
 10
41.1006194847279
 20
-79.348758639564
 42
-0.0870163666176
  0
VERTEX
  8
0
 10
40.5524539779134
 20
-81.0842939289181
 42
-0.1245691231627
  0
VERTEX
  8
0
 10
39.5714913923578
 20
-82.1794747806583
 42
-0.09617337307
  0
SEQEND
  0
POLYLINE
  8
0
 66
     1
 10
0.0
 20
0.0
 30
0.0
 70
     1
  0
VERTEX
  8
0
 10
57.8916525363781
 20
-1.7698458127699
 42
-0.2357886946531
  0
VERTEX
  8
0
 10
57.9063372401278
 20
-1.5769219723086
 42
-0.6743550374462
  0
VERTEX
  8
0
 10
57.9892556050713
 20
-1.6504273220291
 42
-0.1898166171052
  0
VERTEX
  8
0
 10
57.9653345318472
 20
-1.7865530191166
 42
-0.3561553540216
  0
SEQEND
  0
POLYLINE
  8
0
 66
     1
 10
0.0
 20
0.0
 30
0.0
 70
     1
  0
VERTEX
  8
0
 10
-33.7422891140125
 20
-82.3796541623793
 42
0.0
  0
VERTEX
  8
0
 10
-33.7422891140125
 20
-83.4379874957126
 42
0.0
  0
VERTEX
  8
0
 10
-25.5402057806792
 20
-83.4379874957126
 42
0.0
  0
VERTEX
  8
0
 10
-25.5402057806792
 20
-82.3796541623793
 42
-0.0151815505003
  0
VERTEX
  8
0
 10
-26.5496281486836
 20
-82.383786716336
 42
-0.0821239941815
  0
VERTEX
  8
0
 10
-27.3509469982129
 20
-82.2264731793526
 42
-0.2259546335449
  0
VERTEX
  8
0
 10
-28.0972774188734
 20
-81.3750727517906
 42
-0.0840754539723
  0
VERTEX
  8
0
 10
-28.2144115677745
 20
-79.9705527321
 42
0.0070082690828
  0
VERTEX
  8
0
 10
-28.1857807318511
 20
-79.2046541623793
 42
-0.0776114120198
  0
VERTEX
  8
0
 10
-27.6722667722635
 20
-75.8018040201101
 42
-0.0954424750845
  0
VERTEX
  8
0
 10
-26.6946760272915
 20
-73.914717977611
 42
-0.1609816311303
  0
VERTEX
  8
0
 10
-24.7464557806792
 20
-72.590070829046
 42
0.0350489720182
  0
VERTEX
  8
0
 10
-25.059965399143
 20
-73.5431132091547
 42
0.2871257807355
  0
VERTEX
  8
0
 10
-24.6434802592751
 20
-75.0466722979324
 42
0.3143372532507
  0
VERTEX
  8
0
 10
-23.2222713421029
 20
-75.1890898626031
 42
0.3782918213384
  0
VERTEX
  8
0
 10
-22.3479818961841
 20
-73.0602726155862
 42
0.22234735505
  0
VERTEX
  8
0
 10
-23.5667784755035
 20
-71.8127197553849
 42
0.2639172794658
  0
VERTEX
  8
0
 10
-26.7558066630881
 20
-72.2779765038783
 42
0.1180590161926
  0
VERTEX
  8
0
 10
-28.0126123199541
 20
-73.8426231052598
 42
0.0445820521436
  0
VERTEX
  8
0
 10
-28.4506224473459
 20
-74.971320829046
 42
-0.0551020615207
  0
VERTEX
  8
0
 10
-28.7045666305936
 20
-73.338503877674
 42
-0.008063819049
  0
VERTEX
  8
0
 10
-28.7152057806792
 20
-71.5317374957126
 42
0.0
  0
VERTEX
  8
0
 10
-33.4777057806792
 20
-71.796320829046
 42
0.0
  0
VERTEX
  8
0
 10
-33.4777057806792
 20
-72.8546541623793
 42
-0.1574618977149
  0
VERTEX
  8
0
 10
-32.1079404343856
 20
-73.4902966082906
 42
-0.130927519567
  0
VERTEX
  8
0
 10
-31.4628826650606
 20
-74.6476940546413
 42
-0.0659705465713
  0
VERTEX
  8
0
 10
-31.2703819983998
 20
-76.2918943787457
 42
-0.0146182527601
  0
VERTEX
  8
0
 10
-31.3330022976232
 20
-78.0489084039418
 42
0.0238050929857
  0
VERTEX
  8
0
 10
-31.3393603017829
 20
-79.7058028050611
 42
-0.0778860249228
  0
VERTEX
  8
0
 10
-31.4598301111815
 20
-81.1393996465512
 42
-0.272727511207
  0
VERTEX
  8
0
 10
-32.5632527821254
 20
-82.2559692254574
 42
-0.0444261221867
  0
SEQEND
  0
POLYLINE
  8
0
 66
     1
 10
0.0
 20
0.0
 30
0.0
 70
     1
  0
VERTEX
  8
0
 10
-0.7590633551421
 20
-12.0422969592136
 42
0.0580358823823
  0
VERTEX
  8
0
 10
0.0077045372502
 20
-11.2074750732781
 42
-0.0575387769682
  0
VERTEX
  8
0
 10
1.1239712683155
 20
-9.9192320319714
 42
-0.0727461055082
  0
VERTEX
  8
0
 10
5.6766549269217
 20
-6.7736424538018
 42
-0.082316807132
  0
VERTEX
  8
0
 10
9.9371383491934
 20
-5.4727190809223
 42
-0.0631443998966
  0
VERTEX
  8
0
 10
11.305776739058
 20
-5.4341693888752
 42
-0.0253695884962
  0
VERTEX
  8
0
 10
12.4767586103226
 20
-5.6947890625303
 42
0.0574068633912
  0
VERTEX
  8
0
 10
13.6181275526542
 20
-5.915070829046
 42
0.1037807061125
  0
VERTEX
  8
0
 10
12.6101156812696
 20
-4.0104826031781
 42
0.077515612257
  0
VERTEX
  8
0
 10
10.3567550459457
 20
-2.064157251039
 42
0.0782357082746
  0
VERTEX
  8
0
 10
4.3137898045584
 20
0.5007178805812
 42
0.0833968349532
  0
VERTEX
  8
0
 10
-3.2692830571259
 20
0.9435044466956
 42
0.087093223313
  0
VERTEX
  8
0
 10
-13.1047891140125
 20
-1.8679987363539
 42
0.0144900565641
  0
VERTEX
  8
0
 10
-15.2845670656573
 20
-2.9361275635223
 42
0.067135952437
  0
VERTEX
  8
0
 10
-17.4714608592903
 20
-4.4048832153815
 42
0.0900877423107
  0
VERTEX
  8
0
 10
-18.6610391140125
 20
-5.915070829046
 42
0.0419827464298
  0
VERTEX
  8
0
 10
-15.83700229974
 20
-5.0387890522089
 42
-0.0056417025689
  0
VERTEX
  8
0
 10
-12.6501214018551
 20
-3.7831280069639
 42
-0.022796420396
  0
VERTEX
  8
0
 10
-10.9881224473459
 20
-3.2692374957126
 42
-0.0698889388299
  0
VERTEX
  8
0
 10
-12.1356724219917
 20
-4.9513314965006
 42
0.0190113087836
  0
VERTEX
  8
0
 10
-13.6377217047769
 20
-6.6975060035817
 42
0.0367655052496
  0
VERTEX
  8
0
 10
-14.1631224473459
 20
-7.502570829046
 42
0.0731156477151
  0
VERTEX
  8
0
 10
-11.9568800026583
 20
-6.8100156974585
 42
0.0204220733379
  0
VERTEX
  8
0
 10
-10.071326747014
 20
-5.7906784560781
 42
-0.0214564457242
  0
VERTEX
  8
0
 10
-7.7232166580264
 20
-4.4771418701854
 42
-0.0246361885139
  0
VERTEX
  8
0
 10
-6.7547891140125
 20
-4.0629874957126
 42
-0.0414037811573
  0
VERTEX
  8
0
 10
-7.6877086874526
 20
-6.1443904222519
 42
0.0096376332331
  0
VERTEX
  8
0
 10
-8.7836313018328
 20
-8.1489379239814
 42
0.0477118237634
  0
VERTEX
  8
0
 10
-9.4650340920851
 20
-9.8562121392002
 42
0.0444757641571
  0
VERTEX
  8
0
 10
-9.6652057806792
 20
-10.9421541623793
 42
0.0616885882214
  0
VERTEX
  8
0
 10
-7.8809264822692
 20
-10.470332098191
 42
0.014640801789
  0
VERTEX
  8
0
 10
-5.7858997501923
 20
-9.5572134195789
 42
-0.0185731160253
  0
VERTEX
  8
0
 10
-4.6381224473459
 20
-9.0900708290459
 42
-0.0305239561456
  0
VERTEX
  8
0
 10
-5.1993043805803
 20
-11.3565342515389
 42
0.0296574470509
  0
VERTEX
  8
0
 10
-5.6058782327018
 20
-13.0205174298752
 42
0.027893895232
  0
VERTEX
  8
0
 10
-5.6964557806792
 20
-13.8525708290459
 42
0.048871804191
  0
VERTEX
  8
0
 10
-2.0999592399306
 20
-12.7921650245386
 42
0.059576887499
  0
SEQEND
  0
POLYLINE
  8
0
 66
     1
 10
0.0
 20
0.0
 30
0.0
 70
     1
  0
VERTEX
  8
0
 10
98.5493775526542
 20
-66.240070829046
 42
0.0
  0
VERTEX
  8
0
 10
98.5493775526541
 20
-65.1817374957126
 42
0.0
  0
VERTEX
  8
0
 10
89.5535442193208
 20
-65.1817374957126
 42
0.0
  0
VERTEX
  8
0
 10
89.5535442193208
 20
-66.240070829046
 42
-0.1597314072624
  0
VERTEX
  8
0
 10
91.333985705129
 20
-66.862327925851
 42
-0.0976212919279
  0
VERTEX
  8
0
 10
92.2060437060418
 20
-67.9958260060618
 42
-0.0205814520747
  0
VERTEX
  8
0
 10
92.9534335931001
 20
-69.6796541623793
 42
-0.0003277663186
  0
VERTEX
  8
0
 10
95.8735835527358
 20
-76.702032536388
 42
-0.0010324254303
  0
VERTEX
  8
0
 10
97.217332518639
 20
-79.8887290452481
 42
0.0024786274093
  0
VERTEX
  8
0
 10
97.7754332384484
 20
-81.3737602847696
 42
0.0891536261987
  0
VERTEX
  8
0
 10
98.6031499699679
 20
-82.8868525096599
 42
0.2113023838664
  0
VERTEX
  8
0
 10
100.401460885987
 20
-83.7025708290459
 42
-0.0317420918461
  0
VERTEX
  8
0
 10
102.356837094637
 20
-78.2062845048801
 42
-0.0012847961091
  0
VERTEX
  8
0
 10
104.592823139628
 20
-73.0873730053918
 42
0.0083525303649
  0
VERTEX
  8
0
 10
106.080935888329
 20
-69.4882238618032
 42
-0.0299560968089
  0
VERTEX
  8
0
 10
106.644926915275
 20
-68.2460529531346
 42
-0.0899212999715
  0
VERTEX
  8
0
 10
107.58120819288
 20
-67.0129122110804
 42
-0.1536171298999
  0
VERTEX
  8
0
 10
109.397294219321
 20
-66.240070829046
 42
0.0
  0
VERTEX
  8
0
 10
109.397294219321
 20
-65.1817374957126
 42
0.0
  0
VERTEX
  8
0
 10
102.253544219321
 20
-65.1817374957126
 42
0.0
  0
VERTEX
  8
0
 10
102.253544219321
 20
-66.240070829046
 42
-0.0827777882627
  0
VERTEX
  8
0
 10
103.555668047633
 20
-66.4592971339297
 42
-0.3313049265472
  0
VERTEX
  8
0
 10
104.724679045019
 20
-68.1766774475334
 42
-0.0960487346587
  0
VERTEX
  8
0
 10
104.2643710931
 20
-70.2088208290459
 42
-0.0046409287906
  0
VERTEX
  8
0
 10
102.849330386538
 20
-73.5580556133419
 42
0.024251723757
  0
VERTEX
  8
0
 10
101.45181268306
 20
-77.1274919278046
 42
0.0207387487669
  0
VERTEX
  8
0
 10
100.930627552654
 20
-78.9400708290459
 42
-0.0281589646214
  0
VERTEX
  8
0
 10
99.0910136680991
 20
-75.158142584036
 42
-0.0045611482175
  0
VERTEX
  8
0
 10
97.6068274627182
 20
-71.4262878342121
 42
0.0210218237373
  0
VERTEX
  8
0
 10
96.9418730655581
 20
-69.8106853788868
 42
-0.0288643867341
  0
VERTEX
  8
0
 10
96.3518788075101
 20
-68.4981780279396
 42
-0.0849844557875
  0
VERTEX
  8
0
 10
96.109944348921
 20
-67.4157192923179
 42
-0.3102271602407
  0
VERTEX
  8
0
 10
96.688658910858
 20
-66.4421253201203
 42
-0.0912350211095
  0
VERTEX
  8
0
 10
97.7541852035312
 20
-66.2375183891442
 42
-0.0013273615233
  0
SEQEND
  0
POLYLINE
  8
0
 66
     1
 10
0.0
 20
0.0
 30
0.0
 70
     1
  0
VERTEX
  8
0
 10
58.5972942193208
 20
-79.733820829046
 42
-0.1238300085928
  0
VERTEX
  8
0
 10
56.0492091903026
 20
-81.862644560474
 42
-0.0818689408852
  0
VERTEX
  8
0
 10
54.8364229941269
 20
-82.2170223668971
 42
-0.2170846584515
  0
VERTEX
  8
0
 10
52.7603057638105
 20
-81.5637526560328
 42
-0.1449041758277
  0
VERTEX
  8
0
 10
51.4805127024561
 20
-79.3820376409395
 42
-0.0239582600376
  0
VERTEX
  8
0
 10
51.2150562926311
 20
-77.8218801087234
 42
0.0
  0
VERTEX
  8
0
 10
51.1889608859875
 20
-77.6171541623793
 42
0.0
  0
VERTEX
  8
0
 10
59.3910442193208
 20
-77.6171541623793
 42
0.0483910881717
  0
VERTEX
  8
0
 10
59.1121049439777
 20
-75.5487705229119
 42
0.0995665096267
  0
VERTEX
  8
0
 10
58.080422376049
 20
-73.2814105941955
 42
0.2709692926869
  0
VERTEX
  8
0
 10
52.9637879458875
 20
-71.2559452564886
 42
0.2727391712184
  0
VERTEX
  8
0
 10
47.8360690129745
 20
-75.5109756555618
 42
0.1839281921461
  0
VERTEX
  8
0
 10
48.0050930053696
 20
-80.1188380995866
 42
0.2303922765592
  0
VERTEX
  8
0
 10
51.8636007065027
 20
-83.4668189246127
 42
0.1371402722738
  0
VERTEX
  8
0
 10
55.8013216152571
 20
-83.4270711677297
 42
0.0973808445682
  0
VERTEX
  8
0
 10
57.8122333539394
 20
-82.4040704893695
 42
0.164666122737
  0
VERTEX
  8
0
 10
59.3910442193208
 20
-79.9984041623793
 42
0.0
  0
SEQEND
  0
POLYLINE
  8
0
 66
     1
 10
0.0
 20
0.0
 30
0.0
 70
     1
  0
VERTEX
  8
0
 10
-89.8342222372832
 20
-82.5251879148207
 42
-0.1958462397565
  0
VERTEX
  8
0
 10
-91.3258976266875
 20
-82.3046149563098
 42
-0.1763198257269
  0
VERTEX
  8
0
 10
-92.5184172471506
 20
-80.7895057452244
 42
-0.0799479550429
  0
VERTEX
  8
0
 10
-92.92688067392
 20
-78.0564826861732
 42
-0.0740445846424
  0
VERTEX
  8
0
 10
-92.6209602592492
 20
-75.7131324954816
 42
-0.0821614144979
  0
VERTEX
  8
0
 10
-92.0426868727009
 20
-74.4872667703086
 42
-0.3114478451581
  0
VERTEX
  8
0
 10
-89.6591534823806
 20
-73.4991027559848
 42
-0.1368320336822
  0
VERTEX
  8
0
 10
-88.582393154827
 20
-74.1317507284167
 42
-0.1098953932607
  0
VERTEX
  8
0
 10
-87.7461310227853
 20
-75.5004874957126
 42
-0.1211708393379
  0
VERTEX
  8
0
 10
-87.5014691916525
 20
-79.4823882157719
 42
-0.084525484092
  0
VERTEX
  8
0
 10
-88.0809382253688
 20
-81.1444359616956
 42
-0.1191092283291
  0
VERTEX
  8
0
 10
-89.0432469717982
 20
-82.1911736497263
 42
-0.0944688074482
  0
SEQEND
  0
POLYLINE
  8
0
 66
     1
 10
0.0
 20
0.0
 30
0.0
 70
     1
  0
VERTEX
  8
0
 10
-67.6089557806792
 20
-82.115070829046
 42
-0.072059612733
  0
VERTEX
  8
0
 10
-68.4591110169531
 20
-82.0966893073995
 42
-0.245634504407
  0
VERTEX
  8
0
 10
-69.4333162385174
 20
-81.3745228958599
 42
-0.0890559051172
  0
VERTEX
  8
0
 10
-69.6908143331271
 20
-80.3278184767308
 42
-0.0214497720025
  0
VERTEX
  8
0
 10
-69.7055294937738
 20
-77.9385537539328
 42
0.0253722019548
  0
VERTEX
  8
0
 10
-69.6866197295887
 20
-75.8049685268456
 42
0.0875449468145
  0
VERTEX
  8
0
 10
-70.1073339724024
 20
-73.5906648092026
 42
0.1964213696811
  0
VERTEX
  8
0
 10
-71.8244939336064
 20
-71.8140194274576
 42
0.0332538330072
  0
VERTEX
  8
0
 10
-72.3714557806792
 20
-71.6111254148207
 42
0.1042523047669
  0
VERTEX
  8
0
 10
-76.1256580325777
 20
-71.3168096963167
 42
0.118941164467
  0
VERTEX
  8
0
 10
-78.7174831549468
 20
-72.2460995766046
 42
0.1541794707146
  0
VERTEX
  8
0
 10
-80.0455497861035
 20
-73.9794357750127
 42
0.156644014361
  0
VERTEX
  8
0
 10
-80.0954545249609
 20
-74.9596808340694
 42
0.2291330671696
  0
VERTEX
  8
0
 10
-79.2154340267323
 20
-75.8312166623793
 42
0.1573923531034
  0
VERTEX
  8
0
 10
-78.0665648005667
 20
-75.9953575374315
 42
0.205424640122
  0
VERTEX
  8
0
 10
-77.3974083617153
 20
-75.4881232239918
 42
0.1149610254127
  0
VERTEX
  8
0
 10
-77.1327782000787
 20
-74.5978926653226
 42
0.1177867858674
  0
VERTEX
  8
0
 10
-77.3985391140126
 20
-72.8546541623793
 42
-0.0083895161632
  0
VERTEX
  8
0
 10
-76.1660183665
 20
-72.498931513324
 42
-0.1062275206585
  0
VERTEX
  8
0
 10
-74.8536667288564
 20
-72.4527968521325
 42
-0.2098149594567
  0
VERTEX
  8
0
 10
-73.5097599082727
 20
-73.3321757870347
 42
-0.0871333320773
  0
VERTEX
  8
0
 10
-73.0263494117878
 20
-74.633774963241
 42
-0.0401972175922
  0
VERTEX
  8
0
 10
-72.9006224473459
 20
-76.2942374957127
 42
0.0206807388675
  0
VERTEX
  8
0
 10
-75.955538120615
 20
-76.7749826927193
 42
0.047476054554
  0
VERTEX
  8
0
 10
-78.2313814849864
 20
-77.4581224773041
 42
0.0649054145315
  0
VERTEX
  8
0
 10
-79.680159226641
 20
-78.2809336757748
 42
0.1280629693347
  0
VERTEX
  8
0
 10
-80.7876563499099
 20
-79.6744190548508
 42
0.2323192455043
  0
VERTEX
  8
0
 10
-80.6770793532945
 20
-82.0148617763161
 42
0.240940384021
  0
VERTEX
  8
0
 10
-78.1922891140125
 20
-83.6523154986423
 42
0.1304145002392
  0
VERTEX
  8
0
 10
-75.5684912407779
 20
-83.3186393947372
 42
0.0521433373876
  0
VERTEX
  8
0
 10
-73.6342764843898
 20
-82.2506874015149
 42
-0.0000362797925
  0
VERTEX
  8
0
 10
-72.6360391140125
 20
-81.5859041623793
 42
0.1065699292001
  0
VERTEX
  8
0
 10
-71.835632660764
 20
-82.8437680552263
 42
0.1924612509823
  0
VERTEX
  8
0
 10
-69.9139147772399
 20
-83.6293709701866
 42
0.0958642607963
  0
VERTEX
  8
0
 10
-68.2617339270039
 20
-83.3332014778703
 42
0.0387209965626
  0
VERTEX
  8
0
 10
-67.3443724473459
 20
-82.908820829046
 42
0.0
  0
SEQEND
  0
POLYLINE
  8
0
 66
     1
 10
0.0
 20
0.0
 30
0.0
 70
     1
  0
VERTEX
  8
0
 10
-126.611039114013
 20
-82.3796541623793
 42
0.0
  0
VERTEX
  8
0
 10
-126.611039114013
 20
-83.4379874957126
 42
0.0
  0
VERTEX
  8
0
 10
-118.408955780679
 20
-83.4379874957126
 42
0.0
  0
VERTEX
  8
0
 10
-118.408955780679
 20
-82.3796541623793
 42
-0.0324086292573
  0
VERTEX
  8
0
 10
-119.599758357058
 20
-82.3703381073308
 42
-0.1753503493748
  0
VERTEX
  8
0
 10
-120.630662870421
 20
-81.9563272886
 42
-0.1463719026614
  0
VERTEX
  8
0
 10
-121.038027817851
 20
-81.0390788319905
 42
-0.0319537057058
  0
VERTEX
  8
0
 10
-121.063392816942
 20
-79.8316713520835
 42
0.0105797343339
  0
VERTEX
  8
0
 10
-121.054789114013
 20
-79.4692374957126
 42
-0.0757477619377
  0
VERTEX
  8
0
 10
-120.560076727381
 20
-75.8169729473202
 42
-0.0834372515996
  0
VERTEX
  8
0
 10
-119.73830596196
 20
-74.065259908551
 42
-0.141610815057
  0
VERTEX
  8
0
 10
-118.483645757973
 20
-73.0377719806583
 42
-0.0857949241695
  0
VERTEX
  8
0
 10
-117.615205780679
 20
-72.8546541623793
 42
0.0170803086774
  0
VERTEX
  8
0
 10
-117.871216209161
 20
-73.4170844332757
 42
0.2247015831058
  0
VERTEX
  8
0
 10
-117.804384938461
 20
-74.7179990540784
 42
0.2293691274254
  0
VERTEX
  8
0
 10
-117.029407847909
 20
-75.2892114578853
 42
0.4649051450396
  0
VERTEX
  8
0
 10
-115.120978180582
 20
-73.6484041623793
 42
0.3058055689114
  0
VERTEX
  8
0
 10
-116.435531042761
 20
-71.8127197553849
 42
0.2639183346688
  0
VERTEX
  8
0
 10
-119.62456012042
 20
-72.2779765038783
 42
0.1180585934526
  0
VERTEX
  8
0
 10
-120.881362494067
 20
-73.8426231052598
 42
0.0445809421114
  0
VERTEX
  8
0
 10
-121.319372447346
 20
-74.971320829046
 42
-0.0551039279468
  0
VERTEX
  8
0
 10
-121.573319778427
 20
-73.338503877674
 42
-0.0080632055694
  0
VERTEX
  8
0
 10
-121.583955780679
 20
-71.5317374957126
 42
0.0
  0
VERTEX
  8
0
 10
-126.346455780679
 20
-71.796320829046
 42
0.0
  0
VERTEX
  8
0
 10
-126.346455780679
 20
-72.8546541623793
 42
-0.1574618424273
  0
VERTEX
  8
0
 10
-124.976692765137
 20
-73.4902966082906
 42
-0.1309270997125
  0
VERTEX
  8
0
 10
-124.331633677639
 20
-74.6476940546413
 42
-0.0659706367757
  0
VERTEX
  8
0
 10
-124.139130424
 20
-76.2918943787457
 42
-0.0146188159107
  0
VERTEX
  8
0
 10
-124.201750290244
 20
-78.0489084039418
 42
0.0238050371426
  0
VERTEX
  8
0
 10
-124.208111420153
 20
-79.7058028050611
 42
-0.0778840001609
  0
VERTEX
  8
0
 10
-124.328580118441
 20
-81.1393996465512
 42
-0.2727297693547
  0
VERTEX
  8
0
 10
-125.432001357607
 20
-82.2559692254574
 42
-0.0444260338898
  0
SEQEND
  0
POLYLINE
  8
0
 66
     1
 10
0.0
 20
0.0
 30
0.0
 70
     1
  0
VERTEX
  8
0
 10
-129.786039114013
 20
-79.733820829046
 42
-0.123829856554
  0
VERTEX
  8
0
 10
-132.334128572712
 20
-81.862644560474
 42
-0.0818688371658
  0
VERTEX
  8
0
 10
-133.546916291924
 20
-82.2170223668971
 42
-0.2170845945681
  0
VERTEX
  8
0
 10
-135.623035338411
 20
-81.5637526560328
 42
-0.1449064463156
  0
VERTEX
  8
0
 10
-136.902821093899
 20
-79.3820376409395
 42
-0.0239576583553
  0
VERTEX
  8
0
 10
-137.168276977628
 20
-77.8218801087234
 42
0.0
  0
VERTEX
  8
0
 10
-137.194372447346
 20
-77.6171541623793
 42
0.0
  0
VERTEX
  8
0
 10
-128.992289114013
 20
-77.6171541623793
 42
0.048390859476
  0
VERTEX
  8
0
 10
-129.271227301992
 20
-75.5487705229119
 42
0.0995665691064
  0
VERTEX
  8
0
 10
-130.30290752006
 20
-73.2814105941955
 42
0.2709691566331
  0
VERTEX
  8
0
 10
-135.419545026396
 20
-71.2559452564886
 42
0.2727394309919
  0
VERTEX
  8
0
 10
-140.547265457402
 20
-75.5109756555618
 42
0.1839381123067
  0
VERTEX
  8
0
 10
-140.378169606956
 20
-80.1188014442339
 42
0.2303934266286
  0
VERTEX
  8
0
 10
-136.519753724805
 20
-83.4668348818118
 42
0.1371441469565
  0
VERTEX
  8
0
 10
-132.581953617143
 20
-83.4270241469407
 42
0.0973794496422
  0
VERTEX
  8
0
 10
-130.571028889186
 20
-82.4039777853275
 42
0.1646628344602
  0
VERTEX
  8
0
 10
-128.992289114013
 20
-79.9984041623793
 42
0.0
  0
SEQEND
  0
POLYLINE
  8
0
 66
     1
 10
0.0
 20
0.0
 30
0.0
 70
     1
  0
VERTEX
  8
0
 10
-101.211039114013
 20
-70.1003326190036
 42
0.096356888732
  0
VERTEX
  8
0
 10
-102.253764549905
 20
-70.563353452337
 42
0.1194134827407
  0
VERTEX
  8
0
 10
-103.184677477888
 20
-71.5433351599483
 42
0.0167159065991
  0
VERTEX
  8
0
 10
-103.327705780679
 20
-71.796320829046
 42
0.0196756890457
  0
VERTEX
  8
0
 10
-105.483777892433
 20
-71.4051153894351
 42
0.0524628385437
  0
VERTEX
  8
0
 10
-107.839591641742
 20
-71.2952521491265
 42
0.1186711960085
  0
VERTEX
  8
0
 10
-110.73206648828
 20
-72.1587987038018
 42
0.1876339678919
  0
VERTEX
  8
0
 10
-112.429908472298
 20
-74.2540215630893
 42
0.2273752232678
  0
VERTEX
  8
0
 10
-111.928369837703
 20
-77.3873837509458
 42
0.1234324057633
  0
VERTEX
  8
0
 10
-110.471455780679
 20
-78.6754874957126
 42
0.0585568948772
  0
VERTEX
  8
0
 10
-111.831727209127
 20
-79.6683432678256
 42
0.1416602093056
  0
VERTEX
  8
0
 10
-112.481193792439
 20
-80.8366869028612
 42
0.2586245781524
  0
VERTEX
  8
0
 10
-111.970250278941
 20
-82.4954690828856
 42
0.1649081351123
  0
VERTEX
  8
0
 10
-109.942289114013
 20
-83.4379874957126
 42
0.0050656580596
  0
VERTEX
  8
0
 10
-111.300577753816
 20
-83.8965057316643
 42
0.100784549213
  0
VERTEX
  8
0
 10
-112.379014956092
 20
-84.4906996471262
 42
0.1869853569313
  0
VERTEX
  8
0
 10
-112.981940213307
 20
-85.4964940238145
 42
0.2144493534048
  0
VERTEX
  8
0
 10
-112.517966740168
 20
-86.7434208582659
 42
0.1322070735693
  0
VERTEX
  8
0
 10
-110.76075353143
 20
-87.8042858557797
 42
0.0935232138015
  0
VERTEX
  8
0
 10
-105.838314058193
 20
-88.255435557611
 42
0.0619562955294
  0
VERTEX
  8
0
 10
-103.063122447346
 20
-87.6924758685153
 42
0.2107883518018
  0
VERTEX
  8
0
 10
-100.444383987557
 20
-85.1415092393611
 42
0.1301230956411
  0
VERTEX
  8
0
 10
-100.234024436244
 20
-83.5363298108985
 42
0.1896000932083
  0
VERTEX
  8
0
 10
-101.270571978901
 20
-81.7578897886
 42
0.1202077903837
  0
VERTEX
  8
0
 10
-103.001340690032
 20
-80.9694019740009
 42
0.0439773929089
  0
VERTEX
  8
0
 10
-105.06701091696
 20
-80.7921759381469
 42
0.0168939779948
  0
VERTEX
  8
0
 10
-107.875990683216
 20
-80.908554658206
 42
-0.0353132664693
  0
VERTEX
  8
0
 10
-110.044572973194
 20
-80.916621736312
 42
-0.0272669547256
  0
VERTEX
  8
0
 10
-111.000622447346
 20
-80.7921541623793
 42
-0.250937303128
  0
VERTEX
  8
0
 10
-109.204659363931
 20
-79.5293877509459
 42
-0.0339375195223
  0
VERTEX
  8
0
 10
-107.785442210961
 20
-79.464335844718
 42
0.0532004562099
  0
VERTEX
  8
0
 10
-105.302979332499
 20
-79.2961254295167
 42
0.0671447036853
  0
VERTEX
  8
0
 10
-103.575560948773
 20
-78.7228266982295
 42
0.1425488949157
  0
VERTEX
  8
0
 10
-101.963717378141
 20
-77.2704201298658
 42
0.1960704928552
  0
VERTEX
  8
0
 10
-101.647866455728
 20
-74.1775708290459
 42
0.0874809897927
  0
VERTEX
  8
0
 10
-102.28815913367
 20
-72.9702214451837
 42
0.0137403662862
  0
VERTEX
  8
0
 10
-102.798539114013
 20
-72.3254874957126
 42
0.0
  0
VERTEX
  8
0
 10
-101.475622447346
 20
-71.796320829046
 42
0.0142392554478
  0
VERTEX
  8
0
 10
-101.204695146823
 20
-72.3193384148304
 42
0.2270182863383
  0
VERTEX
  8
0
 10
-100.227753102351
 20
-72.915711237227
 42
0.2703493744394
  0
VERTEX
  8
0
 10
-99.4632011650058
 20
-72.5131353440431
 42
0.4573319077334
  0
VERTEX
  8
0
 10
-100.16831367812
 20
-70.1135747047784
 42
0.1343441645241
  0
VERTEX
  8
0
 10
-100.81961091865
 20
-70.041125887857
 42
0.0350729010135
  0
SEQEND
  0
POLYLINE
  8
0
 66
     1
 10
0.0
 20
0.0
 30
0.0
 70
     1
  0
VERTEX
  8
0
 10
85.8493775526541
 20
153.893262504287
 42
-0.0253204758627
  0
VERTEX
  8
0
 10
84.8389194421231
 20
148.699923567175
 42
-0.0059055322375
  0
VERTEX
  8
0
 10
83.4287796602926
 20
143.521287842268
 42
0.0020636331203
  0
VERTEX
  8
0
 10
81.6253183790222
 20
136.865392029318
 42
-0.0084077321007
  0
VERTEX
  8
0
 10
79.6998489034134
 20
130.010603500252
 42
-0.0197296705957
  0
VERTEX
  8
0
 10
76.9439601419715
 20
121.860319611989
 42
-0.0274620547988
  0
VERTEX
  8
0
 10
74.0070673852073
 20
115.248084035759
 42
-0.0179167908729
  0
VERTEX
  8
0
 10
72.1463380018729
 20
111.900186179825
 42
-0.0644156976909
  0
VERTEX
  8
0
 10
68.9152227794058
 20
107.786784786634
 42
-0.0352721175359
  0
VERTEX
  8
0
 10
67.5415272130334
 20
106.603994119327
 42
-0.0421466122159
  0
VERTEX
  8
0
 10
66.5469149813438
 20
106.037381104397
 42
0.027954886997
  0
VERTEX
  8
0
 10
65.2095219420864
 20
105.388103347374
 42
0.1232623286972
  0
VERTEX
  8
0
 10
64.1535442193208
 20
104.416179170954
 42
-0.016185283499
  0
VERTEX
  8
0
 10
67.7377494038612
 20
103.967486753574
 42
0.0031852356946
  0
VERTEX
  8
0
 10
69.9743775526541
 20
103.622429170954
 42
-0.0152320392661
  0
VERTEX
  8
0
 10
67.2289896978974
 20
99.2101303729477
 42
-0.0446107869007
  0
VERTEX
  8
0
 10
63.5997666517752
 20
94.6162767000475
 42
-0.0181423418894
  0
VERTEX
  8
0
 10
62.3273588064325
 20
93.3411301034923
 42
-0.059939009667
  0
VERTEX
  8
0
 10
60.7463682062909
 20
92.1716207312563
 42
-0.0542119580393
  0
VERTEX
  8
0
 10
59.6556275526541
 20
91.716179170954
 42
0.0922844715331
  0
VERTEX
  8
0
 10
61.3864315761276
 20
91.3979423656424
 42
0.0283897875785
  0
VERTEX
  8
0
 10
63.4081473129939
 20
91.5615468295489
 42
-0.0249684862205
  0
VERTEX
  8
0
 10
64.9472942193208
 20
91.716179170954
 42
-0.0830567232279
  0
VERTEX
  8
0
 10
63.340451510229
 20
88.9597873276303
 42
-0.0059500631018
  0
VERTEX
  8
0
 10
61.685563792325
 20
87.0657043934201
 42
0.01758662936
  0
VERTEX
  8
0
 10
60.7139608859875
 20
85.8953458376207
 42
-0.0450203377251
  0
VERTEX
  8
0
 10
64.330999626081
 20
85.4917591047979
 42
-0.0030598747158
  0
VERTEX
  8
0
 10
66.2702108859875
 20
85.1015958376207
 42
0.0
  0
VERTEX
  8
0
 10
66.2702108859875
 20
84.5724291709541
 42
0.0583271894375
  0
VERTEX
  8
0
 10
64.2399111811952
 20
83.4922448214462
 42
0.0151741919297
  0
VERTEX
  8
0
 10
61.8034924652217
 20
81.6737442626509
 42
-0.0985511193568
  0
VERTEX
  8
0
 10
52.7764608859875
 20
77.1640958376207
 42
0.1062145904303
  0
VERTEX
  8
0
 10
54.3179184617641
 20
76.894832863845
 42
0.034714750035
  0
VERTEX
  8
0
 10
56.1876207708655
 20
77.1259097478583
 42
-0.0110171226255
  0
VERTEX
  8
0
 10
57.8844807256988
 20
77.4058444885569
 42
-0.0151106867039
  0
VERTEX
  8
0
 10
62.9447923862136
 20
78.105639429608
 42
-0.0220916903186
  0
VERTEX
  8
0
 10
65.2118775526542
 20
78.2224291709541
 42
0.0261575784911
  0
VERTEX
  8
0
 10
63.357661475655
 20
76.8569377149706
 42
-0.0166684154213
  0
VERTEX
  8
0
 10
61.5087767124035
 20
75.3770925112047
 42
0.0002000882988
  0
VERTEX
  8
0
 10
60.4888463914178
 20
74.6620483831738
 42
0.1240492057268
  0
VERTEX
  8
0
 10
59.3910442193208
 20
73.459929170954
 42
0.0
  0
VERTEX
  8
0
 10
62.0368775526541
 20
74.2536791709541
 42
-0.0945836795315
  0
VERTEX
  8
0
 10
58.0312459054847
 20
67.2049038287841
 42
-0.0436046922676
  0
VERTEX
  8
0
 10
55.951202503826
 20
65.1570444968818
 42
-0.031294961622
  0
VERTEX
  8
0
 10
54.3589651252556
 20
64.087854025774
 42
0.019478723195
  0
VERTEX
  8
0
 10
51.9364679676616
 20
62.625903630075
 42
0.0666616654312
  0
VERTEX
  8
0
 10
50.4161037912259
 20
61.3113357835082
 42
0.0582445088597
  0
VERTEX
  8
0
 10
49.8660442193208
 20
60.4953458376207
 42
0.0
  0
VERTEX
  8
0
 10
58.8618775526541
 20
60.4953458376207
 42
-0.0381058384853
  0
VERTEX
  8
0
 10
58.0414674508137
 20
58.6566604940671
 42
0.0042782001056
  0
VERTEX
  8
0
 10
56.9146088404715
 20
56.6232486341847
 42
0.0516948225187
  0
VERTEX
  8
0
 10
56.1340538375168
 20
54.7606394386492
 42
0.0382615223973
  0
VERTEX
  8
0
 10
55.9514608859875
 20
53.8807625042874
 42
0.0625603963026
  0
VERTEX
  8
0
 10
57.2628024584681
 20
54.8051190949055
 42
-0.0155469767043
  0
VERTEX
  8
0
 10
58.6068220615246
 20
55.9908081280667
 42
0.009086417868
  0
VERTEX
  8
0
 10
63.5756950885346
 20
60.1533911162341
 42
0.0023100920086
  0
VERTEX
  8
0
 10
66.7791017981958
 20
62.962669973758
 42
-0.0614295090263
  0
VERTEX
  8
0
 10
68.9160442193208
 20
64.4640958376207
 42
-0.0392870262293
  0
VERTEX
  8
0
 10
67.7246442208025
 20
62.1810104713356
 42
-0.0019894038308
  0
VERTEX
  8
0
 10
65.5532355442705
 20
58.7721731828403
 42
-0.0297701185385
  0
VERTEX
  8
0
 10
62.7187501667803
 20
54.8313921019892
 42
-0.0581375850522
  0
VERTEX
  8
0
 10
59.122488260255
 20
51.2971023785549
 42
-0.0176770127988
  0
VERTEX
  8
0
 10
56.0932067860201
 20
49.2167264274207
 42
0.0247989907934
  0
VERTEX
  8
0
 10
52.7007872104504
 20
46.871419674901
 42
-0.0041869149403
  0
VERTEX
  8
0
 10
51.6784945458253
 20
46.1461272639129
 42
0.087712806743
  0
VERTEX
  8
0
 10
50.6934370684538
 20
45.2146801533734
 42
0.0690536905576
  0
VERTEX
  8
0
 10
50.3952108859875
 20
44.6203458376207
 42
0.0115924678348
  0
VERTEX
  8
0
 10
54.6645800250183
 20
45.943545146067
 42
0.0
  0
VERTEX
  8
0
 10
57.0097942193208
 20
46.7370125042874
 42
-0.1099967220297
  0
VERTEX
  8
0
 10
55.6470787454381
 20
42.6106161818755
 42
-0.06125949139
  0
VERTEX
  8
0
 10
53.6100461077774
 20
40.0053972765153
 42
-0.0438442642669
  0
VERTEX
  8
0
 10
50.4294745616281
 20
37.3548819221125
 42
-0.0136263418654
  0
VERTEX
  8
0
 10
47.0219932853869
 20
35.1314016362911
 42
0.0043397274306
  0
VERTEX
  8
0
 10
44.8389608859875
 20
33.772429170954
 42
0.1203860129281
  0
VERTEX
  8
0
 10
46.5003028746367
 20
33.09797481808
 42
0.0347245687152
  0
VERTEX
  8
0
 10
48.426608072372
 20
32.9791194565232
 42
-0.0005420470658
  0
VERTEX
  8
0
 10
48.8077108859875
 20
32.9786791709541
 42
-0.1529260768897
  0
VERTEX
  8
0
 10
47.8668926558521
 20
30.6776492233655
 42
-0.0643522362447
  0
VERTEX
  8
0
 10
46.4746972845225
 20
29.4012255688794
 42
-0.0150832066681
  0
VERTEX
  8
0
 10
44.4333477507236
 20
28.0678570423761
 42
0.0585473633764
  0
VERTEX
  8
0
 10
42.3796282275149
 20
26.4855827069751
 42
0.0571273743974
  0
VERTEX
  8
0
 10
41.6639608859875
 20
25.5703458376207
 42
0.0332163726176
  0
VERTEX
  8
0
 10
44.8670401834177
 20
26.2559972631608
 42
-0.0009630128375
  0
VERTEX
  8
0
 10
48.2785442193208
 20
27.286697791763
 42
-0.0097757969592
  0
VERTEX
  8
0
 10
54.2709634989173
 20
28.8195178214968
 42
0.0076667033904
  0
VERTEX
  8
0
 10
57.0097942193208
 20
29.5390958376207
 42
-0.0646018895942
  0
VERTEX
  8
0
 10
55.7414477238792
 20
27.3886369815504
 42
-0.0263258911209
  0
VERTEX
  8
0
 10
54.1250272296516
 20
25.5779467602769
 42
0.0063306731069
  0
VERTEX
  8
0
 10
49.9193437066926
 20
21.3287229801978
 42
-0.0083464285352
  0
VERTEX
  8
0
 10
47.1649527655837
 20
18.5638351247278
 42
-0.0123126201478
  0
VERTEX
  8
0
 10
45.3681275526541
 20
16.9155608085273
 42
-0.0267950220418
  0
VERTEX
  8
0
 10
43.7142783574369
 20
15.7378885456261
 42
0.0235815742432
  0
VERTEX
  8
0
 10
42.0730406579176
 20
14.6137591524669
 42
0.0779721650504
  0
VERTEX
  8
0
 10
40.6916832395982
 20
13.2755738610557
 42
0.0688478226181
  0
VERTEX
  8
0
 10
40.3410442193208
 20
12.6057625042874
 42
0.0220642334458
  0
VERTEX
  8
0
 10
43.4041109988793
 20
12.7936548091314
 42
-0.0070455177021
  0
VERTEX
  8
0
 10
46.2643203684502
 20
13.0708633452113
 42
-0.01657340985
  0
VERTEX
  8
0
 10
47.7493775526541
 20
13.1349291709541
 42
0.0
  0
VERTEX
  8
0
 10
47.7493775526541
 20
12.6057625042874
 42
0.0746849350068
  0
VERTEX
  8
0
 10
45.8153216013853
 20
12.0014803190376
 42
0.0221519485968
  0
VERTEX
  8
0
 10
44.0468656438912
 20
11.0537689462376
 42
-0.0154376873805
  0
VERTEX
  8
0
 10
42.1266719963353
 20
9.9594425798696
 42
0.0645101990983
  0
VERTEX
  8
0
 10
41.0760308728547
 20
9.2409100293308
 42
0.0714829502144
  0
VERTEX
  8
0
 10
40.6056275526542
 20
8.6370125042874
 42
0.0
  0
VERTEX
  8
0
 10
42.4577108859875
 20
8.6370125042874
 42
-0.0886651890157
  0
VERTEX
  8
0
 10
40.8102380916108
 20
7.4737319008234
 42
-0.0862080123303
  0
VERTEX
  8
0
 10
37.4306275526541
 20
6.5203458376207
 42
0.0
  0
VERTEX
  8
0
 10
37.4306275526541
 20
5.7265958376207
 42
0.0
  0
VERTEX
  8
0
 10
41.9285442193208
 20
5.7265958376207
 42
-0.0578730976294
  0
VERTEX
  8
0
 10
39.7170831843552
 20
4.2950387943692
 42
-0.0160236043779
  0
VERTEX
  8
0
 10
37.3436133964265
 20
3.2312550098479
 42
-0.0059790192477
  0
VERTEX
  8
0
 10
34.648638935255
 20
2.1241378587691
 42
0.0885341388559
  0
VERTEX
  8
0
 10
33.1173712634091
 20
1.2325195856855
 42
0.0690977338188
  0
VERTEX
  8
0
 10
32.6681275526541
 20
0.6995125042874
 42
0.0
  0
VERTEX
  8
0
 10
49.6014608859875
 20
3.0807625042874
 42
0.0
  0
VERTEX
  8
0
 10
49.6014608859875
 20
2.5515958376207
 42
0.0859635527112
  0
VERTEX
  8
0
 10
47.5590474737524
 20
1.8321554373943
 42
0.0119053356335
  0
VERTEX
  8
0
 10
46.0940730153662
 20
0.9562395150051
 42
-0.0215459033623
  0
VERTEX
  8
0
 10
44.8163459755199
 20
0.2158326900467
 42
0.0325317450066
  0
VERTEX
  8
0
 10
44.2468220750788
 20
-0.130656225103
 42
0.1662889619909
  0
VERTEX
  8
0
 10
43.5160442193208
 20
-1.152570829046
 42
0.0
  0
VERTEX
  8
0
 10
46.4264608859875
 20
-1.4171541623793
 42
-0.0236009237707
  0
VERTEX
  8
0
 10
45.3764135658856
 20
-2.6027729255855
 42
0.0434729020754
  0
VERTEX
  8
0
 10
44.6674331051923
 20
-3.5076428822442
 42
0.0712313461155
  0
VERTEX
  8
0
 10
44.3097942193208
 20
-4.3275708290459
 42
0.0
  0
VERTEX
  8
0
 10
47.7493775526541
 20
-4.3275708290459
 42
-0.0706562046991
  0
VERTEX
  8
0
 10
46.1112232154287
 20
-5.5553794233906
 42
-0.0293144732491
  0
VERTEX
  8
0
 10
44.2059558988365
 20
-6.4456520513722
 42
0.0112395086174
  0
VERTEX
  8
0
 10
42.4460906070461
 20
-7.2037805885867
 42
0.0271979907601
  0
VERTEX
  8
0
 10
41.3993775526541
 20
-7.7671541623793
 42
0.1341675333702
  0
VERTEX
  8
0
 10
43.1584620737024
 20
-7.8863987606967
 42
-0.0031352261412
  0
VERTEX
  8
0
 10
44.5227376490691
 20
-7.6089801225651
 42
-0.0216466725916
  0
VERTEX
  8
0
 10
46.1354420691527
 20
-7.4279926954265
 42
0.0299130706048
  0
VERTEX
  8
0
 10
48.8764304337715
 20
-7.0861029798066
 42
0.1072052032722
  0
VERTEX
  8
0
 10
52.5142282823854
 20
-5.6458017618894
 42
0.0241535133735
  0
VERTEX
  8
0
 10
54.4965273124189
 20
-4.1522938240207
 42
-0.0368093155057
  0
VERTEX
  8
0
 10
56.8187449122593
 20
-2.4561688061411
 42
-0.0318631016101
  0
VERTEX
  8
0
 10
57.8035442193208
 20
-1.9463208290459
 42
-0.0302029006469
  0
VERTEX
  8
0
 10
54.6399875162702
 20
-6.0183701735513
 42
-0.0020577951303
  0
VERTEX
  8
0
 10
51.8310783893282
 20
-9.1826143364625
 42
0.0044859616778
  0
VERTEX
  8
0
 10
50.4221833651391
 20
-10.7227130442915
 42
0.033804003419
  0
VERTEX
  8
0
 10
49.3302668718943
 20
-12.1273117183724
 42
0.0361312198938
  0
VERTEX
  8
0
 10
48.8077108859875
 20
-13.058820829046
 42
0.0506818123905
  0
VERTEX
  8
0
 10
50.8040578252929
 20
-12.3678702801469
 42
0.0153147916893
  0
VERTEX
  8
0
 10
53.259088181074
 20
-11.057434798556
 42
-0.0358866249897
  0
VERTEX
  8
0
 10
55.3332614237087
 20
-10.0219209607518
 42
-0.0138844236891
  0
VERTEX
  8
0
 10
55.6868775526542
 20
-9.883820829046
 42
-0.0616617043803
  0
VERTEX
  8
0
 10
53.2261527158453
 20
-11.8128514550456
 42
0.0021887565583
  0
VERTEX
  8
0
 10
51.2754095989879
 20
-12.9837818968773
 42
0.0085887880888
  0
VERTEX
  8
0
 10
50.1032167758003
 20
-13.720286595975
 42
0.0875533956392
  0
VERTEX
  8
0
 10
49.1140498636895
 20
-14.6021235290264
 42
0.0747946683039
  0
VERTEX
  8
0
 10
48.8077108859875
 20
-15.1754874957126
 42
0.0108982732949
  0
VERTEX
  8
0
 10
53.5330410243126
 20
-15.1337616320284
 42
0.0291493726083
  0
VERTEX
  8
0
 10
57.6352989381593
 20
-14.8039039942655
 42
0.0103105437148
  0
VERTEX
  8
0
 10
58.5972942193208
 20
-14.646320829046
 42
-0.0577621378159
  0
VERTEX
  8
0
 10
57.6513079238938
 20
-16.3040025017885
 42
0.017189112576
  0
VERTEX
  8
0
 10
56.8201034438657
 20
-17.5023145568042
 42
0.0191119281002
  0
VERTEX
  8
0
 10
56.4806275526541
 20
-18.0859041623793
 42
0.0896991981555
  0
VERTEX
  8
0
 10
58.2245358217118
 20
-17.2056533177481
 42
0.0119056797629
  0
VERTEX
  8
0
 10
59.7207945093606
 20
-15.9737462921546
 42
0.0107790413899
  0
VERTEX
  8
0
 10
62.8525613581661
 20
-13.2595626719751
 42
-0.0151843098255
  0
VERTEX
  8
0
 10
64.9450863005846
 20
-11.501365282537
 42
-0.0579484579867
  0
VERTEX
  8
0
 10
67.8577108859875
 20
-9.6192374957126
 42
-0.0240690687645
  0
VERTEX
  8
0
 10
66.7438298677444
 20
-12.3334835265497
 42
0.0098704235553
  0
VERTEX
  8
0
 10
65.0408749756895
 20
-15.9529304974434
 42
0.0489664429713
  0
VERTEX
  8
0
 10
63.9748385127589
 20
-19.0254026161915
 42
0.0075104776963
  0
VERTEX
  8
0
 10
63.8889608859875
 20
-19.408820829046
 42
0.1223843623594
  0
VERTEX
  8
0
 10
66.0716355941697
 20
-19.3785852395643
 42
0.0533063906243
  0
VERTEX
  8
0
 10
67.7712325689072
 20
-18.7185377052178
 42
0.0349151656902
  0
VERTEX
  8
0
 10
71.0823153614213
 20
-16.7716989829025
 42
-0.0045402279748
  0
VERTEX
  8
0
 10
73.9385569005398
 20
-14.7671697080488
 42
-0.0479017986396
  0
VERTEX
  8
0
 10
77.3827108859875
 20
-12.7942374957126
 42
0.0248885104991
  0
VERTEX
  8
0
 10
77.4377162785685
 20
-14.531995798076
 42
0.0753676163972
  0
VERTEX
  8
0
 10
77.9118775526541
 20
-16.4984041623793
 42
0.0496195615986
  0
VERTEX
  8
0
 10
79.0966154503927
 20
-14.8544544646584
 42
0.0023027470588
  0
VERTEX
  8
0
 10
80.1380806805957
 20
-12.9295315043293
 42
-0.0261069963601
  0
VERTEX
  8
0
 10
81.017455937636
 20
-11.4540385469785
 42
-0.0285475039637
  0
VERTEX
  8
0
 10
81.6160442193208
 20
-10.677570829046
 42
0.001320980708
  0
VERTEX
  8
0
 10
81.7031589933149
 20
-16.3177871419295
 42
-0.0215462583453
  0
VERTEX
  8
0
 10
81.5924991448579
 20
-22.583820829046
 42
-0.0107615323706
  0
VERTEX
  8
0
 10
80.9405084101595
 20
-29.0165784594744
 42
0.0096781582705
  0
VERTEX
  8
0
 10
80.2058276595608
 20
-35.7159616743484
 42
0.0105559014532
  0
VERTEX
  8
0
 10
80.0285442193208
 20
-38.4588208290459
 42
-0.0615732825939
  0
VERTEX
  8
0
 10
79.4773732900897
 20
-37.1920806943739
 42
-0.0027028425514
  0
VERTEX
  8
0
 10
78.9116529519079
 20
-35.2371482456004
 42
0.054541989026
  0
VERTEX
  8
0
 10
78.2778491640687
 20
-33.5297283562271
 42
0.0931517523192
  0
VERTEX
  8
0
 10
77.5192034042287
 20
-32.4987478640049
 42
0.0977207348975
  0
VERTEX
  8
0
 10
76.8535442193208
 20
-32.108820829046
 42
0.0155204691095
  0
VERTEX
  8
0
 10
76.450152889419
 20
-35.1037770557383
 42
-0.0269581348164
  0
VERTEX
  8
0
 10
76.1060000719787
 20
-37.3125189907545
 42
-0.0735926370575
  0
VERTEX
  8
0
 10
75.2989771754582
 20
-39.6443250578891
 42
-0.1198954852461
  0
VERTEX
  8
0
 10
73.9785418988062
 20
-41.1346919423141
 42
-0.078074645281
  0
VERTEX
  8
0
 10
72.8847942193208
 20
-41.633820829046
 42
0.0664603124489
  0
VERTEX
  8
0
 10
73.2690389913319
 20
-40.1495909220255
 42
-0.0214421263965
  0
VERTEX
  8
0
 10
73.534350824342
 20
-38.1942374957126
 42
-0.015347395762
  0
VERTEX
  8
0
 10
74.0289689935303
 20
-36.3602052682799
 42
0.0669356226626
  0
VERTEX
  8
0
 10
74.4722942193208
 20
-33.9609041623793
 42
0.0998834421422
  0
VERTEX
  8
0
 10
73.0668383756873
 20
-34.8393479317302
 42
0.1003163737737
  0
VERTEX
  8
0
 10
71.1450652154602
 20
-37.620435173411
 42
0.0518614009368
  0
VERTEX
  8
0
 10
70.5035442193208
 20
-39.5171541623793
 42
-0.1676048949594
  0
VERTEX
  8
0
 10
69.4903609793614
 20
-38.3029145402607
 42
-0.0349800088895
  0
VERTEX
  8
0
 10
69.0930676356728
 20
-36.988166954701
 42
0.0818084598858
  0
VERTEX
  8
0
 10
68.0121418314007
 20
-34.4225101504617
 42
0.0792695315533
  0
VERTEX
  8
0
 10
66.97304823314
 20
-33.2092511280236
 42
0.0395295100865
  0
VERTEX
  8
0
 10
66.5347942193208
 20
-32.902570829046
 42
-0.0451338116115
  0
VERTEX
  8
0
 10
66.1095964591452
 20
-36.9955569674874
 42
-0.0006871075901
  0
VERTEX
  8
0
 10
65.4764608859875
 20
-40.046320829046
 42
-0.0691866258748
  0
VERTEX
  8
0
 10
64.3085164123131
 20
-38.7967768419538
 42
0.0068776344757
  0
VERTEX
  8
0
 10
63.5891669212967
 20
-37.7935806905502
 42
0.0556454347812
  0
VERTEX
  8
0
 10
62.0145166952618
 20
-36.1270439708893
 42
0.0274521215112
  0
VERTEX
  8
0
 10
58.8618775526541
 20
-33.6963208290459
 42
-0.0122412465846
  0
VERTEX
  8
0
 10
59.179328150575
 20
-36.3496989363239
 42
-0.0553720109673
  0
VERTEX
  8
0
 10
59.1264608859875
 20
-39.7817374957126
 42
-0.2308637323386
  0
VERTEX
  8
0
 10
56.9303121530881
 20
-37.8065140489756
 42
-0.0857564714453
  0
VERTEX
  8
0
 10
56.4399136974847
 20
-35.298486977911
 42
-0.0154588337317
  0
VERTEX
  8
0
 10
56.4670327252086
 20
-32.6163201530297
 42
0.0074261254424
  0
VERTEX
  8
0
 10
56.4806275526541
 20
-31.8442374957126
 42
0.1740000859668
  0
VERTEX
  8
0
 10
53.7929108905317
 20
-34.1277898581601
 42
0.0866133329655
  0
VERTEX
  8
0
 10
52.7961997244201
 20
-37.0040115543622
 42
0.0349446892623
  0
VERTEX
  8
0
 10
52.5445152212685
 20
-39.407888542464
 42
0.011281800943
  0
VERTEX
  8
0
 10
52.5118775526541
 20
-41.1046541623793
 42
0.0
  0
VERTEX
  8
0
 10
51.4535442193208
 20
-41.1046541623793
 42
0.0371438215811
  0
VERTEX
  8
0
 10
50.3068690717061
 20
-37.0494427429913
 42
0.0612079045442
  0
VERTEX
  8
0
 10
48.9811986170147
 20
-34.3416992233218
 42
0.2026987267912
  0
VERTEX
  8
0
 10
46.215031849818
 20
-32.4186286703714
 42
0.133554180403
  0
VERTEX
  8
0
 10
45.1838202438313
 20
-32.4680952705884
 42
0.2263613163526
  0
VERTEX
  8
0
 10
44.3097942193208
 20
-33.4317374957126
 42
-0.1348400993225
  0
VERTEX
  8
0
 10
46.6087618964269
 20
-35.306479852852
 42
-0.2082252135366
  0
VERTEX
  8
0
 10
47.4112360477307
 20
-38.9879874957126
 42
-0.0581678575703
  0
VERTEX
  8
0
 10
46.9971494840903
 20
-40.1338376747727
 42
0.0207504012316
  0
VERTEX
  8
0
 10
46.4264608859875
 20
-41.3692374957126
 42
-0.1001788148018
  0
VERTEX
  8
0
 10
44.9307406317856
 20
-40.1273884820455
 42
-0.0263740961083
  0
VERTEX
  8
0
 10
43.8701443502628
 20
-38.6348056859162
 42
0.0205136329587
  0
VERTEX
  8
0
 10
42.9238722176591
 20
-37.2505301626034
 42
0.0943649397252
  0
VERTEX
  8
0
 10
41.3993775526541
 20
-35.8129874957126
 42
-0.0287289055449
  0
VERTEX
  8
0
 10
41.6515209224091
 20
-37.4219170585358
 42
-0.1666872738194
  0
VERTEX
  8
0
 10
41.2953489918253
 20
-39.1152935962126
 42
-0.0873625940205
  0
VERTEX
  8
0
 10
40.5778514702974
 20
-39.8822804542901
 42
-0.0980250585355
  0
VERTEX
  8
0
 10
39.6711336219186
 20
-40.4104935314063
 42
-0.2378370448989
  0
VERTEX
  8
0
 10
38.9130952040213
 20
-40.3426528704685
 42
-0.1824098735131
  0
VERTEX
  8
0
 10
38.5056418075829
 20
-39.6034126035318
 42
-0.022493870517
  0
VERTEX
  8
0
 10
38.3997240496248
 20
-38.6737150522169
 42
0.0005328981875
  0
VERTEX
  8
0
 10
38.2412788473663
 20
-37.202745849235
 42
-0.0760159936977
  0
VERTEX
  8
0
 10
38.4889608859875
 20
-33.4317374957126
 42
0.096128294287
  0
VERTEX
  8
0
 10
37.4451842839227
 20
-34.3883031858462
 42
0.0562530634633
  0
VERTEX
  8
0
 10
36.37616210897
 20
-36.1349003939461
 42
0.0518043489276
  0
VERTEX
  8
0
 10
35.2549182152051
 20
-39.2306948730736
 42
0.0286628695844
  0
VERTEX
  8
0
 10
35.0493775526541
 20
-40.3109041623793
 42
-0.1818282335262
  0
VERTEX
  8
0
 10
32.9509761666286
 20
-39.1208523118977
 42
-0.0826440220926
  0
VERTEX
  8
0
 10
31.8979825890691
 20
-37.3113979967028
 42
-0.0274194490077
  0
VERTEX
  8
0
 10
31.3216291373796
 20
-35.4594605705149
 42
0.0840221583613
  0
VERTEX
  8
0
 10
30.8195524917041
 20
-34.2019953303725
 42
0.2324637395825
  0
VERTEX
  8
0
 10
29.8907190630425
 20
-33.6419475035992
 42
0.0788184493788
  0
VERTEX
  8
0
 10
29.2285442193208
 20
-33.6963208290459
 42
-0.0190526912676
  0
VERTEX
  8
0
 10
29.7897087756311
 20
-35.1613758123964
 42
-0.1348116640815
  0
VERTEX
  8
0
 10
29.8987704636121
 20
-36.9155351625603
 42
-0.028222286655
  0
VERTEX
  8
0
 10
29.486874818133
 20
-38.2362180752678
 42
0.0633696015979
  0
VERTEX
  8
0
 10
28.9639608859875
 20
-40.046320829046
 42
0.0
  0
VERTEX
  8
0
 10
27.9056275526541
 20
-40.046320829046
 42
0.0723645083449
  0
VERTEX
  8
0
 10
26.6446097868043
 20
-37.1295424996532
 42
0.0712682898343
  0
VERTEX
  8
0
 10
25.4897373084974
 20
-35.6649541569759
 42
0.0468889257717
  0
VERTEX
  8
0
 10
24.9952108859875
 20
-35.283820829046
 42
-0.007438824508
  0
VERTEX
  8
0
 10
24.9915012840237
 20
-36.996325534162
 42
-0.0687595899939
  0
VERTEX
  8
0
 10
24.7448507898795
 20
-38.6408557361025
 42
-0.1172546761623
  0
VERTEX
  8
0
 10
23.9368775526541
 20
-40.046320829046
 42
0.0856160081722
  0
VERTEX
  8
0
 10
23.3504622413316
 20
-37.7300126177981
 42
0.104894549673
  0
VERTEX
  8
0
 10
21.4107821537085
 20
-34.9191286581435
 42
0.0503764153027
  0
VERTEX
  8
0
 10
20.4972942193208
 20
-34.2254874957126
 42
0.0456356678531
  0
VERTEX
  8
0
 10
20.773989983072
 20
-36.240182179355
 42
-0.0204797248439
  0
VERTEX
  8
0
 10
21.205980427571
 20
-38.2348156877109
 42
-0.1184302962281
  0
VERTEX
  8
0
 10
21.0264608859875
 20
-40.8400708290459
 42
-0.0744845167189
  0
VERTEX
  8
0
 10
19.7591659434227
 20
-39.4060582198773
 42
-0.0024258364608
  0
VERTEX
  8
0
 10
18.6061388747236
 20
-37.4537642017852
 42
0.0884822409668
  0
VERTEX
  8
0
 10
17.3347616705973
 20
-35.9205551718849
 42
0.040344369102
  0
VERTEX
  8
0
 10
16.7931275526541
 20
-35.5484041623793
 42
0.0173181580951
  0
VERTEX
  8
0
 10
17.0684135838193
 20
-37.4434907737987
 42
-0.0491289383922
  0
VERTEX
  8
0
 10
17.2683892754149
 20
-39.43644862085
 42
-0.0698218172221
  0
VERTEX
  8
0
 10
17.1344082046691
 20
-40.415523874052
 42
-0.2254641114199
  0
VERTEX
  8
0
 10
16.0987338390101
 20
-41.6320048959302
 42
-0.0871869150927
  0
VERTEX
  8
0
 10
14.9410442193208
 20
-41.8984041623793
 42
0.037916043859
  0
VERTEX
  8
0
 10
14.5672325308788
 20
-38.4972198968759
 42
0.0269911250118
  0
VERTEX
  8
0
 10
13.3535442193208
 20
-33.6963208290459
 42
0.0
  0
VERTEX
  8
0
 10
12.8243775526541
 20
-33.6963208290459
 42
0.039817561685
  0
VERTEX
  8
0
 10
12.1905246828108
 20
-35.9699219160619
 42
0.0451765036493
  0
VERTEX
  8
0
 10
12.0306275526541
 20
-37.665070829046
 42
-0.0789961593006
  0
VERTEX
  8
0
 10
11.5440774074411
 20
-35.3719316389587
 42
-0.0334353382826
  0
VERTEX
  8
0
 10
11.6620133981737
 20
-32.6592105437078
 42
0.0122706767441
  0
VERTEX
  8
0
 10
11.9767424322458
 20
-29.8296729279576
 42
0.019333656766
  0
VERTEX
  8
0
 10
12.0306275526541
 20
-28.6692374957126
 42
0.1415723503764
  0
VERTEX
  8
0
 10
10.7474512029326
 20
-30.3783032816895
 42
0.0240836765143
  0
VERTEX
  8
0
 10
10.1380589643973
 20
-32.3734041623793
 42
0.0219457411417
  0
VERTEX
  8
0
 10
9.6764705744283
 20
-34.5156823446304
 42
-0.0158663496326
  0
VERTEX
  8
0
 10
9.2279763680719
 20
-36.9814876558333
 42
-0.070709196901
  0
VERTEX
  8
0
 10
8.3021070278921
 20
-39.734546854236
 42
-0.1156078047656
  0
VERTEX
  8
0
 10
6.4743775526542
 20
-41.8984041623793
 42
0.0261742432425
  0
VERTEX
  8
0
 10
5.5209315443596
 20
-38.9206368071661
 42
-0.0118301525971
  0
VERTEX
  8
0
 10
4.3543937897075
 20
-35.7957328929392
 42
-0.0736770343731
  0
VERTEX
  8
0
 10
3.5639608859875
 20
-31.8442374957126
 42
0.1346528019395
  0
VERTEX
  8
0
 10
2.4378160438613
 20
-34.0455470104397
 42
0.0400781561248
  0
VERTEX
  8
0
 10
2.2334047586905
 20
-35.6543149024498
 42
-0.0215030755412
  0
VERTEX
  8
0
 10
2.0936216671539
 20
-37.4713502808919
 42
-0.0422658329911
  0
VERTEX
  8
0
 10
1.8404711246349
 20
-38.7234041623793
 42
-0.0891652664714
  0
VERTEX
  8
0
 10
0.9827564579121
 20
-40.2201440464305
 42
-0.0243083637771
  0
VERTEX
  8
0
 10
-0.2542377843841
 20
-41.493626475796
 42
0.0059302594698
  0
VERTEX
  8
0
 10
-0.6693724473459
 20
-41.8984041623793
 42
-0.0805921514547
  0
VERTEX
  8
0
 10
-0.9852473408728
 20
-38.018676635709
 42
-0.0937854088063
  0
VERTEX
  8
0
 10
-0.4049397777514
 20
-35.8836520965713
 42
0.0414862000986
  0
VERTEX
  8
0
 10
0.0240406976773
 20
-34.7651951609412
 42
0.0401143423701
  0
VERTEX
  8
0
 10
0.1243775526541
 20
-34.2254874957126
 42
0.0773049037731
  0
VERTEX
  8
0
 10
-1.0174015428343
 20
-35.0510430041133
 42
0.0957237263794
  0
VERTEX
  8
0
 10
-3.0435430731774
 20
-38.0769283195955
 42
0.0557627519334
  0
VERTEX
  8
0
 10
-3.5797891140125
 20
-39.7817374957126
 42
-0.1043347859838
  0
VERTEX
  8
0
 10
-4.6457366965858
 20
-38.1688391152476
 42
-0.0243552255535
  0
VERTEX
  8
0
 10
-5.2495591109926
 20
-36.330412522134
 42
0.0221617466423
  0
VERTEX
  8
0
 10
-5.7100288554843
 20
-34.9391008162461
 42
0.0906699786345
  0
VERTEX
  8
0
 10
-6.6769328284257
 20
-33.3454933973128
 42
0.0695372519687
  0
VERTEX
  8
0
 10
-7.5485391140125
 20
-32.6379874957126
 42
-0.0019637433069
  0
VERTEX
  8
0
 10
-7.4804192091437
 20
-34.6049750338431
 42
-0.0481771050701
  0
VERTEX
  8
0
 10
-7.572358719522
 20
-36.6067374957126
 42
-0.02730674775
  0
VERTEX
  8
0
 10
-7.9989989601131
 20
-38.3136839785514
 42
0.0412538874866
  0
VERTEX
  8
0
 10
-8.3422891140125
 20
-39.7817374957126
 42
-0.1002165390305
  0
VERTEX
  8
0
 10
-9.8676264597622
 20
-38.5371534086893
 42
0.0115762213695
  0
VERTEX
  8
0
 10
-10.8403033600421
 20
-37.3119294075779
 42
0.0646724950368
  0
VERTEX
  8
0
 10
-13.665973746773
 20
-34.7293121748155
 42
0.040519830863
  0
VERTEX
  8
0
 10
-14.9568724473459
 20
-33.9609041623793
 42
-0.0353016189782
  0
VERTEX
  8
0
 10
-14.6425583386719
 20
-36.7292871534513
 42
-0.0607774412479
  0
VERTEX
  8
0
 10
-14.9568724473459
 20
-40.046320829046
 42
-0.0673769722338
  0
VERTEX
  8
0
 10
-16.2665631771229
 20
-38.7630981219333
 42
-0.0653055182715
  0
VERTEX
  8
0
 10
-17.2126691293969
 20
-37.3136042535899
 42
-0.1338690916049
  0
VERTEX
  8
0
 10
-17.4630017757557
 20
-36.0775708290459
 42
-0.0856376721679
  0
VERTEX
  8
0
 10
-17.1509971136823
 20
-35.1190301447006
 42
-0.0520048988884
  0
VERTEX
  8
0
 10
-16.059112774004
 20
-33.6177129074358
 42
-0.0127868898009
  0
VERTEX
  8
0
 10
-14.3032662572379
 20
-31.8084474427349
 42
0.0444389613231
  0
VERTEX
  8
0
 10
-12.8725452655811
 20
-30.089473471779
 42
0.0257553203217
  0
VERTEX
  8
0
 10
-5.7205337683501
 20
-19.1548150154473
 42
-0.0183223229336
  0
VERTEX
  8
0
 10
-4.4918154116731
 20
-17.3249935222566
 42
0.052623078319
  0
VERTEX
  8
0
 10
-3.3623586147873
 20
-15.3830389399283
 42
0.0505866402671
  0
VERTEX
  8
0
 10
-3.0506224473459
 20
-14.3817374957126
 42
0.0447104455897
  0
VERTEX
  8
0
 10
-5.4728088419689
 20
-15.1824952881462
 42
-0.013308076052
  0
VERTEX
  8
0
 10
-7.3776082060025
 20
-15.9410366950453
 42
-0.0222374852909
  0
VERTEX
  8
0
 10
-8.3422891140125
 20
-16.2338208290459
 42
-0.0435723061455
  0
VERTEX
  8
0
 10
-7.6854906687099
 20
-14.4827745789849
 42
0.0184191062763
  0
VERTEX
  8
0
 10
-6.9498719185313
 20
-12.8243839196734
 42
0.0177317503327
  0
VERTEX
  8
0
 10
-6.7547891140125
 20
-12.265070829046
 42
0.0514987711178
  0
VERTEX
  8
0
 10
-8.9109117832788
 20
-12.8194415738367
 42
-0.0015897813224
  0
VERTEX
  8
0
 10
-11.5097784824122
 20
-13.7844220873915
 42
-0.0175857487993
  0
VERTEX
  8
0
 10
-12.5756224473459
 20
-14.1171541623793
 42
-0.0285187229258
  0
VERTEX
  8
0
 10
-11.8587289518762
 20
-11.5493381967715
 42
0.0148359416375
  0
VERTEX
  8
0
 10
-10.9570611168897
 20
-8.7155139081997
 42
0.0131273211132
  0
VERTEX
  8
0
 10
-10.7235391140125
 20
-7.7671541623793
 42
0.0397684418351
  0
VERTEX
  8
0
 10
-13.1708202976659
 20
-8.8798642430412
 42
0.0047094555466
  0
VERTEX
  8
0
 10
-15.4668334871877
 20
-10.2189059872707
 42
-0.0351940619886
  0
VERTEX
  8
0
 10
-17.8672891140126
 20
-11.4713208290459
 42
0.0000672918491
  0
VERTEX
  8
0
 10
-16.3075047166436
 20
-8.6423102760205
 42
0.0302812967031
  0
VERTEX
  8
0
 10
-14.9568724473459
 20
-5.915070829046
 42
0.0689707669304
  0
VERTEX
  8
0
 10
-19.6605364102095
 20
-7.6830222793365
 42
0.0645223040729
  0
VERTEX
  8
0
 10
-21.6044987730348
 20
-9.0201738285415
 42
0.0914747400108
  0
VERTEX
  8
0
 10
-22.5688164482666
 20
-10.2724775035108
 42
0.019043253363
  0
VERTEX
  8
0
 10
-23.2796748036967
 20
-11.8858917383862
 42
-0.0087200841257
  0
VERTEX
  8
0
 10
-23.5741925075364
 20
-12.5996715949185
 42
0.0349012872288
  0
VERTEX
  8
0
 10
-25.1729847954918
 20
-17.4639234043381
 42
-0.0019796411119
  0
VERTEX
  8
0
 10
-26.1897623857004
 20
-21.4805128507338
 42
-0.0426718499498
  0
VERTEX
  8
0
 10
-28.0595537200026
 20
-26.6011768084073
 42
-0.0384473114734
  0
VERTEX
  8
0
 10
-30.6075320058602
 20
-31.2524679927218
 42
-0.0566720584364
  0
VERTEX
  8
0
 10
-33.0596405007007
 20
-34.2528551960263
 42
-0.0548669472455
  0
VERTEX
  8
0
 10
-34.7169652975179
 20
-35.541532500111
 42
-0.0525997902864
  0
VERTEX
  8
0
 10
-35.8589557806792
 20
-36.0775708290459
 42
0.0
  0
VERTEX
  8
0
 10
-35.8589557806792
 20
-33.6963208290459
 42
0.0
  0
VERTEX
  8
0
 10
-37.7110391140125
 20
-36.0775708290459
 42
-0.0121820258335
  0
VERTEX
  8
0
 10
-37.4990869694485
 20
-30.508244644522
 42
0.0068012528004
  0
VERTEX
  8
0
 10
-37.1582315922345
 20
-24.5112114768843
 42
0.050581096836
  0
VERTEX
  8
0
 10
-37.690589854338
 20
-14.184815975231
 42
0.0200397360268
  0
VERTEX
  8
0
 10
-39.0737432746069
 20
-7.1215863421785
 42
0.0084270698822
  0
VERTEX
  8
0
 10
-40.6246371110422
 20
-1.152570829046
 42
0.04119408306
  0
VERTEX
  8
0
 10
-43.2598268577355
 20
5.6851367462475
 42
0.0116943343921
  0
VERTEX
  8
0
 10
-45.3667838895815
 20
9.7778708596096
 42
-0.0383418383013
  0
VERTEX
  8
0
 10
-46.9788251742604
 20
13.1696912408384
 42
-0.0283848831619
  0
VERTEX
  8
0
 10
-47.3760015010975
 20
14.4578458376207
 42
-0.020624004304
  0
VERTEX
  8
0
 10
-48.3991368497088
 20
19.857800860739
 42
-0.0011700832585
  0
VERTEX
  8
0
 10
-49.3620747236674
 20
27.0989319475922
 42
0.0083344554046
  0
VERTEX
  8
0
 10
-50.2157165446733
 20
32.4951778032652
 42
0.0275519726045
  0
VERTEX
  8
0
 10
-50.7987404841513
 20
35.0541219297214
 42
0.1175169970907
  0
VERTEX
  8
0
 10
-53.3741570985856
 20
39.6588381016988
 42
0.0724501894851
  0
VERTEX
  8
0
 10
-56.0046508061879
 20
41.8539948217941
 42
-0.0217206314137
  0
VERTEX
  8
0
 10
-57.5377285254451
 20
42.8266062994
 42
-0.1122223400655
  0
VERTEX
  8
0
 10
-59.0733920847651
 20
44.4561309256246
 42
-0.0358466701036
  0
VERTEX
  8
0
 10
-59.8669361099765
 20
46.1867387878347
 42
0.0285345059092
  0
VERTEX
  8
0
 10
-61.0784945986241
 20
48.9240356477423
 42
-0.0213402681141
  0
VERTEX
  8
0
 10
-62.3172891140125
 20
51.4995125042874
 42
0.0
  0
VERTEX
  8
0
 10
-62.8464557806792
 20
51.4995125042874
 42
0.0269155235815
  0
VERTEX
  8
0
 10
-63.481392110753
 20
49.7398967222022
 42
-0.0169160203614
  0
VERTEX
  8
0
 10
-64.0060182575201
 20
48.1491218108281
 42
-0.0948832980481
  0
VERTEX
  8
0
 10
-65.0111367404273
 20
46.3986319838776
 42
-0.0405778797837
  0
VERTEX
  8
0
 10
-65.4922891140126
 20
45.9432625042874
 42
0.072163220334
  0
VERTEX
  8
0
 10
-67.3874760857605
 20
49.0469811109455
 42
0.0822203049387
  0
VERTEX
  8
0
 10
-68.9318724473459
 20
50.4411791709541
 42
-0.0070560278935
  0
VERTEX
  8
0
 10
-69.9219444433989
 20
44.091179170954
 42
0.0110498055183
  0
VERTEX
  8
0
 10
-70.0499123371787
 20
42.7409529960993
 42
-0.0916062759486
  0
VERTEX
  8
0
 10
-70.3696157614531
 20
41.45673080161
 42
-0.1160179930674
  0
VERTEX
  8
0
 10
-71.5869992423346
 20
40.1218212274407
 42
0.0083007818839
  0
VERTEX
  8
0
 10
-72.654277953485
 20
39.342794892512
 42
0.1501725426959
  0
VERTEX
  8
0
 10
-73.9621305988426
 20
37.6914491424079
 42
0.0142232536434
  0
VERTEX
  8
0
 10
-74.3705556167742
 20
36.4197242003843
 42
-0.0613077386526
  0
VERTEX
  8
0
 10
-74.8624616243724
 20
35.2150832544444
 42
-0.1113183730797
  0
VERTEX
  8
0
 10
-76.0959961466912
 20
33.9960277566465
 42
-0.0380892036044
  0
VERTEX
  8
0
 10
-77.8320666291656
 20
33.0656136606675
 42
-0.048199035472
  0
VERTEX
  8
0
 10
-82.870733483139
 20
31.3205706000645
 42
-0.0537405981309
  0
VERTEX
  8
0
 10
-90.0985391140125
 20
30.3328458376207
 42
0.099986408624
  0
VERTEX
  8
0
 10
-89.2812767305478
 20
28.7876587587566
 42
0.0272112301055
  0
VERTEX
  8
0
 10
-88.3007315983486
 20
27.728492076407
 42
0.0017509572123
  0
VERTEX
  8
0
 10
-87.5828825084835
 20
27.0393733348752
 42
0.1617282520502
  0
VERTEX
  8
0
 10
-79.0699189674257
 20
23.0514480813268
 42
0.0553930551669
  0
VERTEX
  8
0
 10
-75.4843959146904
 20
23.0049866114785
 42
-0.0174671558974
  0
VERTEX
  8
0
 10
-73.2713517842111
 20
23.1770036797176
 42
-0.0548833434105
  0
VERTEX
  8
0
 10
-71.5914021621789
 20
23.0799127291084
 42
-0.0981660107654
  0
VERTEX
  8
0
 10
-70.1607503604196
 20
22.5522263861396
 42
-0.1467512872085
  0
VERTEX
  8
0
 10
-68.8956262747588
 20
21.0721707887926
 42
-0.1195774673348
  0
VERTEX
  8
0
 10
-68.422764082973
 20
18.3837068805667
 42
-0.0226644131306
  0
VERTEX
  8
0
 10
-68.6892277628083
 20
16.3407745316455
 42
0.0499676522794
  0
VERTEX
  8
0
 10
-68.9473506791613
 20
13.1764688568761
 42
-0.0208675009667
  0
VERTEX
  8
0
 10
-68.946156136209
 20
10.2245125042874
 42
-0.0421679660246
  0
VERTEX
  8
0
 10
-69.1765766140988
 20
9.0182655988733
 42
0.0527842912779
  0
VERTEX
  8
0
 10
-69.4828773106009
 20
7.2091308285444
 42
0.0221754520601
  0
VERTEX
  8
0
 10
-69.4861464536664
 20
3.9844664406046
 42
-0.0032138022479
  0
VERTEX
  8
0
 10
-69.4589560303368
 20
2.363820431308
 42
0.0048835395911
  0
VERTEX
  8
0
 10
-69.382327312334
 20
0.8558220284457
 42
-0.0466957267105
  0
VERTEX
  8
0
 10
-69.4213015435462
 20
-1.1003012205793
 42
-0.1383299046226
  0
VERTEX
  8
0
 10
-70.0366459635771
 20
-2.7431852845162
 42
-0.0799106716467
  0
VERTEX
  8
0
 10
-70.5482143561187
 20
-3.2128778867445
 42
-0.0950997924892
  0
VERTEX
  8
0
 10
-77.2187683771037
 20
-5.9363352653387
 42
-0.0714636918249
  0
VERTEX
  8
0
 10
-80.6414547385556
 20
-6.1332208644934
 42
-0.0140345056606
  0
VERTEX
  8
0
 10
-84.5666492076327
 20
-5.6170913362302
 42
0.0287368695568
  0
VERTEX
  8
0
 10
-87.6893289081223
 20
-5.3194238689927
 42
0.0443924871192
  0
VERTEX
  8
0
 10
-89.5693724473459
 20
-5.4247906776788
 42
0.0627252962603
  0
VERTEX
  8
0
 10
-90.9256350975365
 20
-5.8308073860068
 42
0.0246792047803
  0
VERTEX
  8
0
 10
-92.8912915863433
 20
-6.870240612255
 42
-0.0297620811327
  0
VERTEX
  8
0
 10
-94.8610391140126
 20
-7.9491843951267
 42
-0.0824345925759
  0
VERTEX
  8
0
 10
-99.0804714505239
 20
-9.0127143793965
 42
-0.0138286821369
  0
VERTEX
  8
0
 10
-101.318035226451
 20
-9.0909949092105
 42
-0.0158698178375
  0
VERTEX
  8
0
 10
-102.725491117764
 20
-9.1412077649797
 42
-0.0718441815136
  0
VERTEX
  8
0
 10
-103.944695029466
 20
-8.9921071428204
 42
-0.1884861583144
  0
VERTEX
  8
0
 10
-104.948104896106
 20
-8.2283311322705
 42
-0.1057574441185
  0
VERTEX
  8
0
 10
-105.453426577715
 20
-6.4685776013782
 42
-0.0120826687885
  0
VERTEX
  8
0
 10
-105.543598711406
 20
-4.9863049442638
 42
0.0052976141749
  0
VERTEX
  8
0
 10
-105.645104389816
 20
-3.9128297477821
 42
-0.0837536686468
  0
VERTEX
  8
0
 10
-105.612301248337
 20
-2.9793609783642
 42
-0.150397135503
  0
VERTEX
  8
0
 10
-105.030922512675
 20
-2.0836990367256
 42
-0.0521400333222
  0
VERTEX
  8
0
 10
-103.810763640514
 20
-1.378174895741
 42
0.0502544179181
  0
VERTEX
  8
0
 10
-102.534747076049
 20
-0.7165347826999
 42
0.2716594595032
  0
VERTEX
  8
0
 10
-99.6882750825587
 20
5.6136649613502
 42
0.0533641154817
  0
VERTEX
  8
0
 10
-100.386163248865
 20
8.4414355918258
 42
0.0696680069122
  0
VERTEX
  8
0
 10
-103.552603228901
 20
14.2686616487779
 42
0.0371971045759
  0
VERTEX
  8
0
 10
-104.419618176962
 20
15.2007053140609
 42
-0.0262403535626
  0
VERTEX
  8
0
 10
-105.707136671454
 20
16.4732631204353
 42
-0.0819011645025
  0
VERTEX
  8
0
 10
-106.397966742566
 20
17.5030195967208
 42
-0.1123744742655
  0
VERTEX
  8
0
 10
-106.603824242859
 20
18.694741993955
 42
-0.0724357049302
  0
VERTEX
  8
0
 10
-106.134543199847
 20
21.0087359930337
 42
-0.0097802038461
  0
VERTEX
  8
0
 10
-105.17766568618
 20
23.4762000194943
 42
-0.0017368574408
  0
VERTEX
  8
0
 10
-103.784937038899
 20
27.0736940727802
 42
0.030865928346
  0
VERTEX
  8
0
 10
-102.326427852413
 20
31.437000822872
 42
0.0442340429118
  0
VERTEX
  8
0
 10
-101.841602545298
 20
34.320401989475
 42
0.1042944969362
  0
VERTEX
  8
0
 10
-102.483868256705
 20
39.1420352936443
 42
0.0687382553147
  0
VERTEX
  8
0
 10
-103.149250509372
 20
40.4447419644503
 42
0.321018380845
  0
VERTEX
  8
0
 10
-105.765684023366
 20
41.4149392344305
 42
0.0961306485632
  0
VERTEX
  8
0
 10
-107.038706762686
 20
40.7895684791568
 42
0.1547781775152
  0
VERTEX
  8
0
 10
-109.067401967299
 20
37.9784874957499
 42
0.0422094133214
  0
VERTEX
  8
0
 10
-109.588094833563
 20
35.7691700513154
 42
0.0040336690662
  0
VERTEX
  8
0
 10
-109.828332171656
 20
33.8767466968114
 42
-0.0184749980814
  0
VERTEX
  8
0
 10
-110.312633077104
 20
31.0024292869409
 42
0.0112651002607
  0
VERTEX
  8
0
 10
-111.260025493384
 20
25.5614271919449
 42
0.0229041968392
  0
VERTEX
  8
0
 10
-111.794372447346
 20
20.8078458376207
 42
-0.1084356200938
  0
VERTEX
  8
0
 10
-111.904433737571
 20
22.5524005201923
 42
-0.0018378359008
  0
VERTEX
  8
0
 10
-111.618517710552
 20
24.1336050223087
 42
0.0209138929297
  0
VERTEX
  8
0
 10
-111.544076840097
 20
24.7765958376207
 42
-0.0104289870761
  0
VERTEX
  8
0
 10
-111.246179601799
 20
28.8844315609392
 42
-0.0175633813135
  0
VERTEX
  8
0
 10
-110.778609759154
 20
32.3436564025112
 42
0.0252904768632
  0
VERTEX
  8
0
 10
-110.437530959343
 20
35.2809490332368
 42
0.0785771445472
  0
VERTEX
  8
0
 10
-110.73736332259
 20
39.0640958376207
 42
0.0526273616969
  0
VERTEX
  8
0
 10
-111.743752828074
 20
41.9344163074837
 42
0.1005666576844
  0
VERTEX
  8
0
 10
-113.232267518822
 20
43.9847997104423
 42
0.0752330592321
  0
VERTEX
  8
0
 10
-114.185941584919
 20
44.5957349367418
 42
0.1915748101236
  0
VERTEX
  8
0
 10
-115.914957772498
 20
44.6390102572079
 42
0.1179478330437
  0
VERTEX
  8
0
 10
-117.782748962893
 20
43.2165131779712
 42
0.0817076156279
  0
VERTEX
  8
0
 10
-119.454555669255
 20
40.3695985547753
 42
0.0640533347135
  0
VERTEX
  8
0
 10
-120.394556648373
 20
36.1665503420733
 42
0.0265200696721
  0
VERTEX
  8
0
 10
-120.530455942402
 20
32.0657577916526
 42
0.033098633837
  0
VERTEX
  8
0
 10
-120.09235166084
 20
27.0272750167454
 42
0.0011909743002
  0
VERTEX
  8
0
 10
-119.364417889679
 20
22.4826666582006
 42
-0.0107107481818
  0
VERTEX
  8
0
 10
-118.903991778706
 20
19.2203458376207
 42
0.0196607155117
  0
VERTEX
  8
0
 10
-118.600630869152
 20
17.6157621766564
 42
-0.055766614349
  0
VERTEX
  8
0
 10
-118.410279989257
 20
16.0453458376207
 42
-0.078759102299
  0
VERTEX
  8
0
 10
-118.746643247321
 20
14.2174860958478
 42
-0.0364989347244
  0
VERTEX
  8
0
 10
-119.695472093491
 20
12.0866693118176
 42
0.0139353705624
  0
VERTEX
  8
0
 10
-120.483045496859
 20
10.4814194959496
 42
0.0642256290844
  0
VERTEX
  8
0
 10
-121.141845109127
 20
8.4544228066864
 42
0.0391483705795
  0
VERTEX
  8
0
 10
-121.476883462365
 20
4.6280028237082
 42
0.001281099963
  0
VERTEX
  8
0
 10
-121.453414391043
 20
1.2546843826678
 42
-0.0334036090121
  0
VERTEX
  8
0
 10
-121.594726878166
 20
-2.1977058789434
 42
-0.0402483871055
  0
VERTEX
  8
0
 10
-122.480198662555
 20
-6.4034578596463
 42
-0.0178079209251
  0
VERTEX
  8
0
 10
-124.007334539666
 20
-10.889494545525
 42
0.0050664790156
  0
VERTEX
  8
0
 10
-125.695779547136
 20
-15.3001543039462
 42
0.0283106026787
  0
VERTEX
  8
0
 10
-127.284140793497
 20
-20.279294182114
 42
0.0436076021573
  0
VERTEX
  8
0
 10
-127.863523015345
 20
-24.3503171808704
 42
0.0115501576394
  0
VERTEX
  8
0
 10
-127.933955780679
 20
-27.8754874957126
 42
-0.0774890569672
  0
VERTEX
  8
0
 10
-129.21072024567
 20
-27.2772738497708
 42
-0.0206565510355
  0
VERTEX
  8
0
 10
-130.456207167544
 20
-26.3106729279877
 42
0.0787505745867
  0
VERTEX
  8
0
 10
-132.167289114013
 20
-25.2296541623793
 42
0.1785579847091
  0
VERTEX
  8
0
 10
-133.299626346322
 20
-30.4180066975702
 42
0.1101598997656
  0
VERTEX
  8
0
 10
-132.138451242461
 20
-33.4317374957126
 42
0.03807182015
  0
VERTEX
  8
0
 10
-131.245978645854
 20
-34.4613186812879
 42
-0.0598953031022
  0
VERTEX
  8
0
 10
-130.225715177073
 20
-35.6728406366543
 42
-0.1361394813776
  0
VERTEX
  8
0
 10
-129.85344714076
 20
-37.1217897494748
 42
-0.045091971709
  0
VERTEX
  8
0
 10
-130.042648229125
 20
-38.789991305883
 42
0.0137359276569
  0
VERTEX
  8
0
 10
-130.499522270268
 20
-40.9948189429523
 42
0.0358006756563
  0
VERTEX
  8
0
 10
-130.579789114013
 20
-41.8984041623793
 42
-0.0962531127787
  0
VERTEX
  8
0
 10
-131.944663670479
 20
-41.2759362791669
 42
-0.1273231381954
  0
VERTEX
  8
0
 10
-132.984211624635
 20
-39.9792601141665
 42
-0.087085648328
  0
VERTEX
  8
0
 10
-133.443180131091
 20
-38.058613322913
 42
-0.0209922859517
  0
VERTEX
  8
0
 10
-133.490205780679
 20
-36.871320829046
 42
0.1055089006877
  0
VERTEX
  8
0
 10
-134.781476274591
 20
-38.2244577180246
 42
0.0288528406939
  0
VERTEX
  8
0
 10
-135.694306721188
 20
-39.9344219528085
 42
0.0
  0
VERTEX
  8
0
 10
-135.871455780679
 20
-40.3109041623793
 42
-0.193791871857
  0
VERTEX
  8
0
 10
-136.638784798326
 20
-39.2351528845098
 42
-0.0771771560983
  0
VERTEX
  8
0
 10
-136.713668963243
 20
-37.8775345139985
 42
-0.0276391502606
  0
VERTEX
  8
0
 10
-136.29683311159
 20
-35.6652354089471
 42
0.0290913550249
  0
VERTEX
  8
0
 10
-135.911838806899
 20
-33.8569116232039
 42
0.0225077209483
  0
VERTEX
  8
0
 10
-135.871455780679
 20
-33.4317374957126
 42
0.0563277197183
  0
VERTEX
  8
0
 10
-138.151446063177
 20
-35.9896995089178
 42
0.0802600494892
  0
VERTEX
  8
0
 10
-139.569667425824
 20
-38.7944702801841
 42
0.0606116324976
  0
VERTEX
  8
0
 10
-139.840205780679
 20
-40.3109041623793
 42
-0.1217715868443
  0
VERTEX
  8
0
 10
-140.869563533977
 20
-36.6117005121157
 42
-0.0119725997096
  0
VERTEX
  8
0
 10
-140.898539114013
 20
-35.283820829046
 42
0.1007883245799
  0
VERTEX
  8
0
 10
-141.740304574025
 20
-36.2891771221908
 42
0.0207197644571
  0
VERTEX
  8
0
 10
-142.505457720249
 20
-37.8382299372768
 42
-0.0598885437663
  0
VERTEX
  8
0
 10
-143.249480843429
 20
-39.1386805248566
 42
-0.1343534351067
  0
VERTEX
  8
0
 10
-144.102905861551
 20
-39.8319928261163
 42
-0.2561416706895
  0
VERTEX
  8
0
 10
-144.881933397851
 20
-39.736683553969
 42
-0.1014756965675
  0
VERTEX
  8
0
 10
-145.422126202748
 20
-39.1329925136061
 42
-0.0960570596628
  0
VERTEX
  8
0
 10
-146.117067086263
 20
-37.1111808265312
 42
-0.2203377936132
  0
VERTEX
  8
0
 10
-145.884938245657
 20
-35.995741920632
 42
0.0114766463727
  0
VERTEX
  8
0
 10
-145.502527376793
 20
-35.468252968857
 42
0.0269643421581
  0
VERTEX
  8
0
 10
-145.396455780679
 20
-35.283820829046
 42
0.1418411002185
  0
VERTEX
  8
0
 10
-148.331754843227
 20
-36.2151045855949
 42
0.214803126733
  0
VERTEX
  8
0
 10
-150.423539114013
 20
-39.5171541623793
 42
-0.0757246249906
  0
VERTEX
  8
0
 10
-151.647937032789
 20
-37.7286073509887
 42
-0.0010224372143
  0
VERTEX
  8
0
 10
-152.309729054776
 20
-36.3116873212749
 42
0.0391377929317
  0
VERTEX
  8
0
 10
-153.099837138824
 20
-34.8651661147651
 42
0.0349499620844
  0
VERTEX
  8
0
 10
-153.598539114013
 20
-34.2254874957126
 42
0.0553706988277
  0
VERTEX
  8
0
 10
-154.108830715278
 20
-37.5486961893356
 42
0.0080816497608
  0
VERTEX
  8
0
 10
-154.127705780679
 20
-40.8400708290459
 42
-0.094970074568
  0
VERTEX
  8
0
 10
-155.654433352869
 20
-40.3691453047709
 42
-0.179228451231
  0
VERTEX
  8
0
 10
-157.124536702717
 20
-38.6803312727508
 42
-0.0993902570799
  0
VERTEX
  8
0
 10
-157.415774827341
 20
-36.8960543139646
 42
-0.0423201412987
  0
VERTEX
  8
0
 10
-157.302705780679
 20
-35.8129874957126
 42
0.1024268957579
  0
VERTEX
  8
0
 10
-161.271455780679
 20
-41.1046541623793
 42
-0.1745478169991
  0
VERTEX
  8
0
 10
-161.978070715098
 20
-37.8144490008602
 42
-0.0576168792221
  0
VERTEX
  8
0
 10
-161.374748454194
 20
-35.6870819224237
 42
-0.0091750451552
  0
VERTEX
  8
0
 10
-160.432240831647
 20
-33.6300345811468
 42
0.0
  0
VERTEX
  8
0
 10
-160.213122447346
 20
-33.1671541623793
 42
0.0570527306152
  0
VERTEX
  8
0
 10
-163.103690308689
 20
-34.5849006044054
 42
0.0630482928452
  0
VERTEX
  8
0
 10
-167.4657686062
 20
-38.0396330183599
 42
0.0618385036656
  0
VERTEX
  8
0
 10
-168.478543556332
 20
-39.314321292902
 42
0.1420599949574
  0
VERTEX
  8
0
 10
-168.855400188967
 20
-40.6760678789823
 42
0.2017829763379
  0
VERTEX
  8
0
 10
-168.253891174235
 20
-41.8865278306978
 42
0.041903532101
  0
VERTEX
  8
0
 10
-167.886039114013
 20
-42.1629874957126
 42
-0.203931016855
  0
VERTEX
  8
0
 10
-166.548606926001
 20
-39.3018298732992
 42
-0.0642784193215
  0
VERTEX
  8
0
 10
-164.929569295954
 20
-38.1671492824902
 42
-0.0171306320297
  0
VERTEX
  8
0
 10
-163.917289114013
 20
-37.665070829046
 42
0.1680266300178
  0
VERTEX
  8
0
 10
-162.548710537063
 20
-41.720067466955
 42
0.1606732962133
  0
VERTEX
  8
0
 10
-159.948539114013
 20
-43.4859041623793
 42
-0.0320626806069
  0
VERTEX
  8
0
 10
-159.408126946748
 20
-42.1951119986531
 42
-0.1122330700459
  0
VERTEX
  8
0
 10
-158.683370447381
 20
-41.1866259957816
 42
-0.3054675116168
  0
VERTEX
  8
0
 10
-157.818546731932
 20
-41.0890413836686
 42
-0.055474679248
  0
VERTEX
  8
0
 10
-157.108498596985
 20
-41.5823208765413
 42
0.04349504448
  0
VERTEX
  8
0
 10
-156.498531675353
 20
-42.0544992856703
 42
0.0766115588151
  0
VERTEX
  8
0
 10
-153.978548176263
 20
-42.9777636548854
 42
0.0217297282116
  0
VERTEX
  8
0
 10
-152.540205780679
 20
-43.2213208290459
 42
0.0
  0
VERTEX
  8
0
 10
-152.540205780679
 20
-41.3692374957126
 42
0.0
  0
VERTEX
  8
0
 10
-150.423539114013
 20
-42.427570829046
 42
-0.2266961643868
  0
VERTEX
  8
0
 10
-148.332906904803
 20
-39.3347301884865
 42
-0.0617897652906
  0
VERTEX
  8
0
 10
-147.513122447346
 20
-38.9879874957126
 42
0.1839103761531
  0
VERTEX
  8
0
 10
-146.437370489238
 20
-40.9144162516228
 42
0.1304655308101
  0
VERTEX
  8
0
 10
-143.818575349845
 20
-42.0346471248568
 42
0.0388028184353
  0
VERTEX
  8
0
 10
-142.486039114013
 20
-42.1629874957126
 42
0.0
  0
VERTEX
  8
0
 10
-142.486039114013
 20
-40.3109041623793
 42
-0.1268301695064
  0
VERTEX
  8
0
 10
-141.288302175532
 20
-41.1340106642814
 42
0.0187201452043
  0
VERTEX
  8
0
 10
-140.33496114901
 20
-42.2419229666879
 42
0.1056896178034
  0
VERTEX
  8
0
 10
-139.311039114013
 20
-42.9567374957126
 42
0.0006724812522
  0
VERTEX
  8
0
 10
-138.91193046316
 20
-41.5127774348702
 42
-0.0688507736978
  0
VERTEX
  8
0
 10
-138.166260449679
 20
-39.5844633832812
 42
-0.0576204680332
  0
VERTEX
  8
0
 10
-137.723539114013
 20
-38.9879874957126
 42
0.013270956183
  0
VERTEX
  8
0
 10
-137.552005294914
 20
-40.5546017601935
 42
0.08055505489
  0
VERTEX
  8
0
 10
-137.214393623718
 20
-41.7263029017654
 42
0.1318997764061
  0
VERTEX
  8
0
 10
-136.43532745287
 20
-42.6030994584315
 42
0.3929085250355
  0
VERTEX
  8
0
 10
-135.258201590713
 20
-42.4748734438521
 42
0.1486810974273
  0
VERTEX
  8
0
 10
-134.813122447346
 20
-41.3692374957126
 42
0.0213505513002
  0
VERTEX
  8
0
 10
-132.972814438311
 20
-42.2569452364038
 42
0.0925631805532
  0
VERTEX
  8
0
 10
-130.050622447346
 20
-42.9567374957126
 42
0.0367479734831
  0
VERTEX
  8
0
 10
-129.604827245031
 20
-41.1951656569899
 42
0.0344068748224
  0
VERTEX
  8
0
 10
-129.521455780679
 20
-40.3109041623793
 42
0.0
  0
VERTEX
  8
0
 10
-128.463122447346
 20
-40.3109041623793
 42
0.070891344345
  0
VERTEX
  8
0
 10
-128.358877356861
 20
-41.3798311643324
 42
0.0893236852022
  0
VERTEX
  8
0
 10
-127.955881579996
 20
-42.3067495691911
 42
0.1733320074404
  0
VERTEX
  8
0
 10
-127.537077264871
 20
-42.6346486676989
 42
0.1858719686305
  0
VERTEX
  8
0
 10
-127.124419757956
 20
-42.5797688542009
 42
0.1399427058265
  0
VERTEX
  8
0
 10
-126.436862833842
 20
-41.8514019218858
 42
0.1049943330792
  0
VERTEX
  8
0
 10
-125.817289114013
 20
-40.046320829046
 42
-0.0540008625675
  0
VERTEX
  8
0
 10
-125.354143402669
 20
-40.2740933406258
 42
-0.1378098384987
  0
VERTEX
  8
0
 10
-125.121691246583
 20
-40.6123583366316
 42
-0.0086153149165
  0
VERTEX
  8
0
 10
-125.023539114013
 20
-40.8400708290459
 42
-0.152252253179
  0
VERTEX
  8
0
 10
-123.971485317133
 20
-41.5665715997721
 42
-0.0540810097734
  0
VERTEX
  8
0
 10
-123.369696301223
 20
-42.653701253229
 42
0.0185739035647
  0
VERTEX
  8
0
 10
-122.906872447346
 20
-43.7504874957126
 42
0.1796065064835
  0
VERTEX
  8
0
 10
-121.092860354056
 20
-42.6059637786906
 42
0.0938191792845
  0
VERTEX
  8
0
 10
-120.31668420136
 20
-40.9975593896364
 42
0.0614910014495
  0
VERTEX
  8
0
 10
-119.996455780679
 20
-38.7234041623793
 42
-0.0945537677409
  0
VERTEX
  8
0
 10
-119.145115019238
 20
-39.7942983766754
 42
-0.0005490098598
  0
VERTEX
  8
0
 10
-118.571287729796
 20
-40.9650732826974
 42
0.089645641419
  0
VERTEX
  8
0
 10
-117.799884430582
 20
-42.028047411891
 42
0.0955951113209
  0
VERTEX
  8
0
 10
-116.692276962532
 20
-42.6601018909545
 42
0.0501495095268
  0
VERTEX
  8
0
 10
-114.95066442086
 20
-43.0411034234367
 42
0.0090435634679
  0
VERTEX
  8
0
 10
-113.024421126683
 20
-43.1912782342177
 42
0.0
  0
VERTEX
  8
0
 10
-112.588122447346
 20
-43.221320829046
 42
0.0293252563797
  0
VERTEX
  8
0
 10
-112.909566143918
 20
-41.4453511933928
 42
-0.0025992418493
  0
VERTEX
  8
0
 10
-113.117289114013
 20
-40.5754874957126
 42
-0.0636754159596
  0
VERTEX
  8
0
 10
-111.096448910198
 20
-43.3133564349697
 42
0.0
  0
VERTEX
  8
0
 10
-111.000622447346
 20
-43.4859041623793
 42
0.0
  0
VERTEX
  8
0
 10
-110.471455780679
 20
-43.4859041623793
 42
0.0539919705091
  0
VERTEX
  8
0
 10
-109.942289114013
 20
-39.5171541623793
 42
-0.0303804742644
  0
VERTEX
  8
0
 10
-109.294280906919
 20
-39.6749735835605
 42
-0.1798934774311
  0
VERTEX
  8
0
 10
-108.396157211489
 20
-40.3595341758933
 42
0.0112831017461
  0
VERTEX
  8
0
 10
-107.960036419788
 20
-41.1369864821431
 42
0.2167137049235
  0
VERTEX
  8
0
 10
-107.282963387186
 20
-41.6576242856703
 42
0.2307476505722
  0
VERTEX
  8
0
 10
-106.403011103497
 20
-41.340904590995
 42
0.0247803368628
  0
VERTEX
  8
0
 10
-105.571633736307
 20
-40.3638079099379
 42
-0.0430540957659
  0
VERTEX
  8
0
 10
-104.056885492646
 20
-38.7919726316279
 42
-0.077934760875
  0
VERTEX
  8
0
 10
-102.269372447346
 20
-37.665070829046
 42
0.0696759917688
  0
VERTEX
  8
0
 10
-101.888299548209
 20
-39.9796159189841
 42
0.0820001172212
  0
VERTEX
  8
0
 10
-101.282058054216
 20
-41.1746524897258
 42
0.1616072753355
  0
VERTEX
  8
0
 10
-99.8881224473459
 20
-42.1629874957126
 42
-0.1148325502173
  0
VERTEX
  8
0
 10
-96.9777057806792
 20
-37.9296541623793
 42
0.0393397380488
  0
VERTEX
  8
0
 10
-96.8742168563479
 20
-39.4810022717025
 42
0.2151581386071
  0
VERTEX
  8
0
 10
-95.0451246563848
 20
-42.5145467640013
 42
0.0323637168268
  0
VERTEX
  8
0
 10
-94.3318724473459
 20
-42.9567374957126
 42
-0.0053209371599
  0
VERTEX
  8
0
 10
-93.4543628689171
 20
-41.1736126824195
 42
-0.1032090556694
  0
VERTEX
  8
0
 10
-91.9506224473459
 20
-39.252570829046
 42
0.0888322565269
  0
VERTEX
  8
0
 10
-91.4627738674782
 20
-40.6444019468246
 42
0.2213976594027
  0
VERTEX
  8
0
 10
-89.5083109938036
 20
-41.9686830527565
 42
0.0870947069374
  0
VERTEX
  8
0
 10
-87.1881224473459
 20
-41.8984041623793
 42
-0.0190874790298
  0
VERTEX
  8
0
 10
-87.1503000068547
 20
-40.0370265212943
 42
-0.042343029514
  0
VERTEX
  8
0
 10
-86.9235391140125
 20
-38.4588208290459
 42
-0.0266520973468
  0
VERTEX
  8
0
 10
-85.3516965298134
 20
-39.5433303101481
 42
0.0254830945927
  0
VERTEX
  8
0
 10
-83.8652427370849
 20
-40.594838935196
 42
0.1058886072974
  0
VERTEX
  8
0
 10
-81.8964557806792
 20
-41.3692374957126
 42
-0.0725228241217
  0
VERTEX
  8
0
 10
-81.0800471764545
 20
-39.1434012480361
 42
-0.0898051173917
  0
VERTEX
  8
0
 10
-80.1677279160619
 20
-37.9517612455183
 42
-0.0417305079013
  0
VERTEX
  8
0
 10
-79.7797891140125
 20
-37.665070829046
 42
0.0521439030874
  0
VERTEX
  8
0
 10
-78.9860391140125
 20
-42.427570829046
 42
0.0552584087429
  0
VERTEX
  8
0
 10
-77.6876060230576
 20
-41.5131892853301
 42
-0.0431032623801
  0
VERTEX
  8
0
 10
-76.4892199439436
 20
-40.5449733293474
 42
-0.0309021170495
  0
VERTEX
  8
0
 10
-76.0756224473459
 20
-40.3109041623793
 42
0.0
  0
VERTEX
  8
0
 10
-76.0756224473459
 20
-44.5442374957126
 42
0.1244324623585
  0
VERTEX
  8
0
 10
-73.0159240572374
 20
-42.9246852445794
 42
0.0967228995776
  0
VERTEX
  8
0
 10
-70.7693710877343
 20
-39.830462416643
 42
0.0138399191651
  0
VERTEX
  8
0
 10
-70.5193724473459
 20
-39.252570829046
 42
0.0
  0
VERTEX
  8
0
 10
-69.9902057806792
 20
-39.252570829046
 42
0.0453913446261
  0
VERTEX
  8
0
 10
-69.0048580202583
 20
-41.4366790257569
 42
0.0664071148419
  0
VERTEX
  8
0
 10
-68.0761822765285
 20
-42.6772057705439
 42
0.1185094746377
  0
VERTEX
  8
0
 10
-66.8152057806792
 20
-43.4859041623793
 42
-0.0434176256334
  0
VERTEX
  8
0
 10
-66.0828308149934
 20
-40.8082614955598
 42
-0.0012350841252
  0
VERTEX
  8
0
 10
-65.09638644301
 20
-38.2924864252199
 42
0.0250044948571
  0
VERTEX
  8
0
 10
-64.4339557806792
 20
-36.3421541623793
 42
0.0
  0
VERTEX
  8
0
 10
-63.9047891140125
 20
-36.3421541623793
 42
-0.0741388769759
  0
VERTEX
  8
0
 10
-63.5932311143314
 20
-41.0186870758383
 42
-0.0295424474704
  0
VERTEX
  8
0
 10
-63.9047891140125
 20
-43.4859041623793
 42
0.1585211968853
  0
VERTEX
  8
0
 10
-62.2836938761271
 20
-41.8556910525497
 42
0.0210194878536
  0
VERTEX
  8
0
 10
-62.0527057806792
 20
-41.3692374957126
 42
0.0098038984888
  0
VERTEX
  8
0
 10
-60.5793670667929
 20
-42.4216325931222
 42
0.0608468649852
  0
VERTEX
  8
0
 10
-59.4078523895429
 20
-43.0403225425826
 42
0.084677710846
  0
VERTEX
  8
0
 10
-58.6237080415231
 20
-43.1816268694919
 42
0.129047302987
  0
VERTEX
  8
0
 10
-57.7599209195409
 20
-42.9177732128163
 42
0.0792603013872
  0
VERTEX
  8
0
 10
-56.2316091341916
 20
-41.4970326984107
 42
0.0053957228039
  0
VERTEX
  8
0
 10
-55.7027057806792
 20
-40.8400708290459
 42
-0.0051118188468
  0
VERTEX
  8
0
 10
-54.5779224803832
 20
-42.2949753426419
 42
0.0921186532842
  0
VERTEX
  8
0
 10
-53.560876084987
 20
-43.1997326960848
 42
0.0777726205409
  0
VERTEX
  8
0
 10
-52.7922891140125
 20
-43.4859041623793
 42
-0.0165585156705
  0
VERTEX
  8
0
 10
-52.3335662368699
 20
-42.2068040785035
 42
-0.0795292546536
  0
VERTEX
  8
0
 10
-51.8447165274588
 20
-41.3127775145933
 42
-0.1569373129494
  0
VERTEX
  8
0
 10
-51.3760709992517
 20
-40.9867838718341
 42
-0.3292292345027
  0
VERTEX
  8
0
 10
-50.7321844084702
 20
-41.2780643626102
 42
-0.0749759564546
  0
VERTEX
  8
0
 10
-50.3548200319838
 20
-42.18084699614
 42
-0.0457866389133
  0
VERTEX
  8
0
 10
-50.1464557806792
 20
-43.4859041623793
 42
0.0255670146926
  0
VERTEX
  8
0
 10
-48.5941015017678
 20
-40.9689116964802
 42
0.0229087654022
  0
VERTEX
  8
0
 10
-48.0297891140125
 20
-39.7817374957126
 42
-0.0144948229903
  0
VERTEX
  8
0
 10
-47.3060950286573
 20
-40.3451096034044
 42
0.055457045375
  0
VERTEX
  8
0
 10
-46.3698737447174
 20
-40.9939869034542
 42
0.1286693979183
  0
VERTEX
  8
0
 10
-45.4348356262538
 20
-41.2384913821646
 42
0.1919361318758
  0
VERTEX
  8
0
 10
-44.5060366295367
 20
-40.8247120510112
 42
0.0525930650624
  0
VERTEX
  8
0
 10
-43.8825604837226
 20
-40.0363837557916
 42
-0.0523568368463
  0
VERTEX
  8
0
 10
-43.2503307912557
 20
-39.2165468915023
 42
-0.1465497077615
  0
VERTEX
  8
0
 10
-42.5810203536958
 20
-38.7937556555511
 42
-0.272668788104
  0
VERTEX
  8
0
 10
-41.3157225104353
 20
-39.3309967308926
 42
-0.0756167727485
  0
VERTEX
  8
0
 10
-40.8757321210213
 20
-40.3268352056966
 42
0.0249888968072
  0
VERTEX
  8
0
 10
-40.5744272061058
 20
-41.3633561336024
 42
0.1559479978136
  0
VERTEX
  8
0
 10
-40.0781449109902
 20
-42.0805070611573
 42
0.3479377113012
  0
VERTEX
  8
0
 10
-39.082313630649
 20
-42.0795605862789
 42
0.0723759043043
  0
VERTEX
  8
0
 10
-38.4303199797286
 20
-41.3256760562221
 42
-0.0259848314346
  0
VERTEX
  8
0
 10
-37.8104455056738
 20
-40.3935086863764
 42
-0.0734412054229
  0
VERTEX
  8
0
 10
-37.443543791786
 20
-40.0069722596305
 42
-0.377261127281
  0
VERTEX
  8
0
 10
-36.7873713334543
 20
-40.0145721209568
 42
-0.1900527869541
  0
VERTEX
  8
0
 10
-36.44286296418
 20
-40.6896691764781
 42
-0.023246252882
  0
VERTEX
  8
0
 10
-36.4055008719133
 20
-41.7089409171099
 42
0.05714229874
  0
VERTEX
  8
0
 10
-36.3436993177817
 20
-42.3872645344551
 42
0.2769052354904
  0
VERTEX
  8
0
 10
-35.7748200893543
 20
-43.022883329046
 42
0.1915370545186
  0
VERTEX
  8
0
 10
-34.9173271749902
 20
-42.8842191302982
 42
0.032484208269
  0
VERTEX
  8
0
 10
-34.0068724473459
 20
-42.2238364947361
 42
-0.0387443230595
  0
VERTEX
  8
0
 10
-32.3578602528459
 20
-41.0336530960334
 42
-0.0702086960751
  0
VERTEX
  8
0
 10
-31.446935704908
 20
-40.6651542871942
 42
-0.3051126416203
  0
VERTEX
  8
0
 10
-29.5360672173745
 20
-41.4048075761701
 42
-0.1150973423117
  0
VERTEX
  8
0
 10
-29.010175926785
 20
-43.0448492210376
 42
-0.0073939140157
  0
VERTEX
  8
0
 10
-28.9797891140125
 20
-43.4859041623793
 42
0.0970808664783
  0
VERTEX
  8
0
 10
-26.9427068137923
 20
-42.2256948925809
 42
0.180350914837
  0
VERTEX
  8
0
 10
-25.5402057806792
 20
-39.5171541623793
 42
0.0
  0
VERTEX
  8
0
 10
-23.9527057806792
 20
-39.252570829046
 42
0.0501438225282
  0
VERTEX
  8
0
 10
-23.2180761992235
 20
-41.2390286388257
 42
0.0774743350506
  0
VERTEX
  8
0
 10
-22.5341885692426
 20
-42.17298718621
 42
0.1515366283142
  0
VERTEX
  8
0
 10
-21.0468975943141
 20
-42.9043834443682
 42
0.0343802794253
  0
VERTEX
  8
0
 10
-20.5131224473459
 20
-42.9567374957126
 42
-0.0299692037036
  0
VERTEX
  8
0
 10
-19.5993045340048
 20
-40.9884359580663
 42
0.0692021336171
  0
VERTEX
  8
0
 10
-18.9256224473459
 20
-39.252570829046
 42
-0.0929489613975
  0
VERTEX
  8
0
 10
-17.7183126035069
 20
-39.9262529896581
 42
-0.0016507866877
  0
VERTEX
  8
0
 10
-16.9348248964177
 20
-40.6101408915201
 42
0.145918257067
  0
VERTEX
  8
0
 10
-14.2060193143301
 20
-41.8292353711229
 42
0.0285491803597
  0
VERTEX
  8
0
 10
-13.3693724473459
 20
-41.8984041623793
 42
0.0
  0
VERTEX
  8
0
 10
-13.3693724473459
 20
-37.665070829046
 42
-0.1294892200868
  0
VERTEX
  8
0
 10
-11.0639065407171
 20
-39.2526539541388
 42
-0.0507592998834
  0
VERTEX
  8
0
 10
-9.9790652633139
 20
-40.7932866266363
 42
0.0665675321464
  0
VERTEX
  8
0
 10
-9.2872425871227
 20
-41.778231392233
 42
0.0936845728298
  0
VERTEX
  8
0
 10
-8.8031944433989
 20
-42.1153482846938
 42
0.3081503176986
  0
VERTEX
  8
0
 10
-7.9243125963174
 20
-41.9519054399648
 42
0.1150102263154
  0
VERTEX
  8
0
 10
-7.3245886969964
 20
-40.9765663550783
 42
0.089251975557
  0
VERTEX
  8
0
 10
-7.0260583063551
 20
-39.3213717591191
 42
0.0003059248162
  0
VERTEX
  8
0
 10
-7.0193724473459
 20
-38.9879874957126
 42
0.0
  0
VERTEX
  8
0
 10
-5.9610391140125
 20
-38.9879874957126
 42
0.0736188622035
  0
VERTEX
  8
0
 10
-5.1006360221261
 20
-41.632039473608
 42
0.0288309836846
  0
VERTEX
  8
0
 10
-4.3735391140125
 20
-42.9567374957126
 42
0.0527467312441
  0
VERTEX
  8
0
 10
-3.3533708719996
 20
-41.3626510327133
 42
0.0381533493026
  0
VERTEX
  8
0
 10
-3.0506224473459
 20
-40.5754874957126
 42
-0.1200201797225
  0
VERTEX
  8
0
 10
-2.5486729299525
 20
-41.1000115131802
 42
-0.0348826824208
  0
VERTEX
  8
0
 10
-2.1347291354929
 20
-42.0716527262871
 42
0.0963192521868
  0
VERTEX
  8
0
 10
-1.7056775328349
 20
-42.9078585387401
 42
0.2602473960125
  0
VERTEX
  8
0
 10
-0.9111244477909
 20
-43.1947979386947
 42
0.0822804078397
  0
VERTEX
  8
0
 10
-0.0318899370199
 20
-42.8772410910365
 42
-0.0148664327476
  0
VERTEX
  8
0
 10
0.3783833662528
 20
-42.6736475400648
 42
0.1786574177337
  0
VERTEX
  8
0
 10
2.8438423554155
 20
-40.3890791284231
 42
0.038905279575
  0
VERTEX
  8
0
 10
3.2993775526541
 20
-39.252570829046
 42
-0.0977713014166
  0
VERTEX
  8
0
 10
5.9452108859875
 20
-43.7504874957126
 42
0.0832834856975
  0
VERTEX
  8
0
 10
7.8576747626571
 20
-42.8146802639805
 42
0.1757453263797
  0
VERTEX
  8
0
 10
9.3847942193208
 20
-40.5754874957126
 42
0.0
  0
VERTEX
  8
0
 10
10.1785442193208
 20
-40.5754874957126
 42
0.0165931153009
  0
VERTEX
  8
0
 10
10.3814368179025
 20
-41.452737149888
 42
0.1451068462901
  0
VERTEX
  8
0
 10
10.9309916909965
 20
-42.3775948909344
 42
0.0919105482114
  0
VERTEX
  8
0
 10
11.5014608859875
 20
-42.6921541623793
 42
-0.0549282112713
  0
VERTEX
  8
0
 10
12.0565845133222
 20
-41.1633905273702
 42
0.0143090854376
  0
VERTEX
  8
0
 10
12.7102846915877
 20
-39.7925344814277
 42
0.0120029374221
  0
VERTEX
  8
0
 10
12.8243775526541
 20
-39.5171541623793
 42
-0.0616351912098
  0
VERTEX
  8
0
 10
13.314428779183
 20
-40.9727835725808
 42
0.0365333536592
  0
VERTEX
  8
0
 10
13.7117913571637
 20
-42.3265824716043
 42
0.0879609982438
  0
VERTEX
  8
0
 10
14.1054629786849
 20
-43.0273183611461
 42
0.2581111572153
  0
VERTEX
  8
0
 10
15.3491972701142
 20
-43.4714027202223
 42
0.0832131803401
  0
VERTEX
  8
0
 10
16.3919373912157
 20
-43.0343840012454
 42
-0.0091964475365
  0
VERTEX
  8
0
 10
17.5430696581571
 20
-42.2672986402912
 42
-0.1036525334519
  0
VERTEX
  8
0
 10
18.425602197633
 20
-41.9037009966892
 42
-0.1172255048367
  0
VERTEX
  8
0
 10
19.5596988799392
 20
-42.1343375714431
 42
0.006013252828
  0
VERTEX
  8
0
 10
20.5474222572541
 20
-42.5503063921192
 42
0.0404200213366
  0
VERTEX
  8
0
 10
21.0264608859875
 20
-42.6921541623793
 42
0.0
  0
VERTEX
  8
0
 10
22.3493775526541
 20
-40.5754874957126
 42
0.0
  0
VERTEX
  8
0
 10
22.8785442193208
 20
-40.5754874957126
 42
0.0752957961989
  0
VERTEX
  8
0
 10
23.4243447135484
 20
-41.8114237891502
 42
0.1755806490201
  0
VERTEX
  8
0
 10
24.5437361237104
 20
-42.5930014630051
 42
0.0346859466756
  0
VERTEX
  8
0
 10
24.9952108859875
 20
-42.6921541623793
 42
0.0
  0
VERTEX
  8
0
 10
25.5243775526541
 20
-40.5754874957126
 42
-0.0636263615895
  0
VERTEX
  8
0
 10
26.8860260356247
 20
-41.0454980157129
 42
0.0195791732549
  0
VERTEX
  8
0
 10
28.117230080675
 20
-41.6012824187881
 42
0.0865936875238
  0
VERTEX
  8
0
 10
29.4931275526541
 20
-41.8984041623793
 42
-0.0041001599004
  0
VERTEX
  8
0
 10
30.0821095494926
 20
-40.5347820855594
 42
0.0664292572067
  0
VERTEX
  8
0
 10
30.5514608859875
 20
-38.9879874957126
 42
-0.0815254311925
  0
VERTEX
  8
0
 10
31.5645963498694
 20
-39.5756348668766
 42
0.0002185923949
  0
VERTEX
  8
0
 10
32.8632041829101
 20
-40.6890231837181
 42
0.0588171767343
  0
VERTEX
  8
0
 10
33.9623677262009
 20
-41.4765002944873
 42
0.1533226820605
  0
VERTEX
  8
0
 10
35.1597961653024
 20
-41.7730971939926
 42
0.1605070015674
  0
VERTEX
  8
0
 10
36.2202711844464
 20
-41.2496901221333
 42
0.0962850516704
  0
VERTEX
  8
0
 10
36.9402531065396
 20
-40.2382270347695
 42
-0.0060867047229
  0
VERTEX
  8
0
 10
37.1660442193208
 20
-39.7817374957126
 42
-0.0068070265363
  0
VERTEX
  8
0
 10
37.6409193553162
 20
-40.8133225466774
 42
0.0476792202598
  0
VERTEX
  8
0
 10
38.0473176108957
 20
-41.548414486438
 42
0.2948846268537
  0
VERTEX
  8
0
 10
39.4380152561736
 20
-42.0994418464468
 42
0.0850787582583
  0
VERTEX
  8
0
 10
40.7324876275561
 20
-41.5402411420052
 42
-0.0199208043055
  0
VERTEX
  8
0
 10
41.5795078691385
 20
-41.0647891848506
 42
-0.0981556594051
  0
VERTEX
  8
0
 10
42.391367517271
 20
-40.8100713672673
 42
-0.2005069993069
  0
VERTEX
  8
0
 10
43.4431802335078
 20
-41.1970436857092
 42
-0.0544799739774
  0
VERTEX
  8
0
 10
44.0015706944416
 20
-41.8064579046488
 42
0.0357823191772
  0
VERTEX
  8
0
 10
44.8574641316488
 20
-42.8382253574602
 42
0.1777023089572
  0
VERTEX
  8
0
 10
45.7588242819437
 20
-43.3063020768517
 42
0.1844008235297
  0
VERTEX
  8
0
 10
46.6760290964637
 20
-42.9630479591996
 42
0.0783597828333
  0
VERTEX
  8
0
 10
47.601454768958
 20
-41.783162803484
 42
0.0367948103486
  0
VERTEX
  8
0
 10
48.6618250904137
 20
-39.3909791998014
 42
0.0
  0
VERTEX
  8
0
 10
48.8077108859875
 20
-38.9879874957126
 42
-0.0028726620556
  0
VERTEX
  8
0
 10
49.9392822553752
 20
-40.5790808064569
 42
0.0742225267738
  0
VERTEX
  8
0
 10
51.3098307954346
 20
-42.1202674979997
 42
0.1529248823987
  0
VERTEX
  8
0
 10
53.5702108859875
 20
-42.9567374957126
 42
-0.0071666977774
  0
VERTEX
  8
0
 10
54.0031560613981
 20
-40.2163673663649
 42
0.03446436282
  0
VERTEX
  8
0
 10
54.3639608859875
 20
-37.1359041623793
 42
0.0
  0
VERTEX
  8
0
 10
55.4222942193208
 20
-37.1359041623793
 42
0.0687825910021
  0
VERTEX
  8
0
 10
55.8945607289227
 20
-39.0714617776747
 42
0.0669853911829
  0
VERTEX
  8
0
 10
56.7778035173633
 20
-40.8072664192774
 42
0.1014330151238
  0
VERTEX
  8
0
 10
57.59883982569
 20
-41.6116730324615
 42
0.4391027561857
  0
VERTEX
  8
0
 10
59.5056897947048
 20
-41.1209614026362
 42
0.0350662914908
  0
VERTEX
  8
0
 10
59.9331847359195
 20
-40.1703123103094
 42
-0.0508282019588
  0
VERTEX
  8
0
 10
60.3923522180212
 20
-39.1486481327284
 42
-0.136008502114
  0
VERTEX
  8
0
 10
60.8681292632646
 20
-38.6753192084723
 42
-0.1317563009934
  0
VERTEX
  8
0
 10
61.2679968356945
 20
-38.6017061643324
 42
-0.1306138553379
  0
VERTEX
  8
0
 10
62.3827546200571
 20
-39.0144263320008
 42
-0.0626970981918
  0
VERTEX
  8
0
 10
63.3045428781511
 20
-39.8701124186636
 42
0.0010572457677
  0
VERTEX
  8
0
 10
64.8217078826732
 20
-41.8420727373198
 42
0.0584704713757
  0
VERTEX
  8
0
 10
65.6728102113413
 20
-42.7302637026738
 42
0.0381807583748
  0
VERTEX
  8
0
 10
66.0056275526541
 20
-42.9567374957126
 42
-0.0236735077645
  0
VERTEX
  8
0
 10
66.6136758997302
 20
-40.8427267946519
 42
-0.1121841695735
  0
VERTEX
  8
0
 10
67.7067484690269
 20
-38.9746067177243
 42
-0.0720793594261
  0
VERTEX
  8
0
 10
68.3868775526541
 20
-38.4588208290459
 42
0.0461824197529
  0
VERTEX
  8
0
 10
68.7550286179106
 20
-40.1854070713181
 42
0.1025960522673
  0
VERTEX
  8
0
 10
69.2346561507357
 20
-41.1068701115535
 42
0.3036285034593
  0
VERTEX
  8
0
 10
70.451774415145
 20
-41.4332060630067
 42
0.0783432465746
  0
VERTEX
  8
0
 10
71.5618775526541
 20
-40.8400708290459
 42
0.0
  0
VERTEX
  8
0
 10
71.2972942193208
 20
-43.221320829046
 42
0.0027645299954
  0
VERTEX
  8
0
 10
72.4169807549692
 20
-43.2433383001448
 42
0.1030955613971
  0
VERTEX
  8
0
 10
74.0251125905663
 20
-43.0456582628939
 42
0.1254738600272
  0
VERTEX
  8
0
 10
75.3191752799263
 20
-42.1333742387975
 42
0.1008118299305
  0
VERTEX
  8
0
 10
76.7918801821215
 20
-39.4130685260803
 42
0.050016526021
  0
VERTEX
  8
0
 10
77.1181275526541
 20
-37.9296541623793
 42
-0.1496650959264
  0
VERTEX
  8
0
 10
78.3114454803777
 20
-39.0765272210959
 42
-0.0742662568657
  0
VERTEX
  8
0
 10
78.8882578540775
 20
-40.7448728551692
 42
-0.0132262626076
  0
VERTEX
  8
0
 10
79.1575629945864
 20
-42.5372975111804
 42
0.0474493922181
  0
VERTEX
  8
0
 10
79.4993775526541
 20
-44.2796541623793
 42
0.0
  0
VERTEX
  8
0
 10
80.0285442193208
 20
-44.2796541623793
 42
-0.0439230320862
  0
VERTEX
  8
0
 10
81.4875093147918
 20
-42.1710489157153
 42
-0.0900303166413
  0
VERTEX
  8
0
 10
83.9972942193208
 20
-40.046320829046
 42
0.143728824149
  0
VERTEX
  8
0
 10
84.8562056912085
 20
-41.6579618469671
 42
0.1193348489866
  0
VERTEX
  8
0
 10
87.1539513716403
 20
-43.085676546551
 42
0.1079090876065
  0
VERTEX
  8
0
 10
89.5428673392515
 20
-43.4114352133258
 42
0.0943984427026
  0
VERTEX
  8
0
 10
90.7837530719612
 20
-43.0680299670899
 42
0.1674242781395
  0
VERTEX
  8
0
 10
91.9347942193208
 20
-41.8984041623793
 42
-0.0124689667808
  0
VERTEX
  8
0
 10
93.0135771018847
 20
-42.3754897497645
 42
0.0287700977659
  0
VERTEX
  8
0
 10
93.8085753795229
 20
-42.6950002981188
 42
0.1837244226328
  0
VERTEX
  8
0
 10
95.1464025310197
 20
-42.6678895787401
 42
0.0274628986463
  0
VERTEX
  8
0
 10
95.8992745301654
 20
-42.3044458273219
 42
-0.0883917752496
  0
VERTEX
  8
0
 10
96.9618775526541
 20
-41.8984041623793
 42
0.0565216349766
  0
VERTEX
  8
0
 10
97.6076386232849
 20
-43.4773073233208
 42
0.0
  0
VERTEX
  8
0
 10
97.7556275526541
 20
-43.7504874957126
 42
0.0300927055522
  0
VERTEX
  8
0
 10
98.4121636763301
 20
-42.7711753115975
 42
-0.0620346348723
  0
VERTEX
  8
0
 10
99.0844469759147
 20
-41.8110732658317
 42
-0.1420251409344
  0
VERTEX
  8
0
 10
100.401460885987
 20
-41.1046541623793
 42
0.0907281898595
  0
VERTEX
  8
0
 10
99.6077108859875
 20
-40.8400708290459
 42
0.0
  0
VERTEX
  8
0
 10
99.8722942193208
 20
-39.5171541623793
 42
-0.0385202970011
  0
VERTEX
  8
0
 10
100.575545129419
 20
-40.3741190296047
 42
0.0817043932733
  0
VERTEX
  8
0
 10
101.536739870428
 20
-41.4543785100304
 42
0.2432978280916
  0
VERTEX
  8
0
 10
102.717662924414
 20
-41.6759770202841
 42
0.0567098481959
  0
VERTEX
  8
0
 10
103.429037078111
 20
-41.3636018003235
 42
-0.0140196241032
  0
VERTEX
  8
0
 10
105.185393314841
 20
-40.4861349507937
 42
-0.0643545351435
  0
VERTEX
  8
0
 10
107.280627552654
 20
-39.7817374957126
 42
0.1773468850231
  0
VERTEX
  8
0
 10
108.030443798856
 20
-41.0570842795637
 42
0.0925507345353
  0
VERTEX
  8
0
 10
108.820421851018
 20
-41.430126527986
 42
0.0277283458084
  0
VERTEX
  8
0
 10
109.926460885987
 20
-41.633820829046
 42
-0.0229283531083
  0
VERTEX
  8
0
 10
110.386341523252
 20
-40.4753333357975
 42
-0.1671228280577
  0
VERTEX
  8
0
 10
111.513960885987
 20
-39.252570829046
 42
0.0476331233352
  0
VERTEX
  8
0
 10
111.96583291347
 20
-40.9193596318705
 42
-0.0038748412956
  0
VERTEX
  8
0
 10
112.307710885987
 20
-41.8984041623793
 42
0.067418756926
  0
VERTEX
  8
0
 10
114.46567660285
 20
-41.5621949224478
 42
0.1030919312948
  0
VERTEX
  8
0
 10
116.252654170447
 20
-40.6183950881543
 42
0.0493973924178
  0
VERTEX
  8
0
 10
116.805627552654
 20
-40.046320829046
 42
-0.0689210029206
  0
VERTEX
  8
0
 10
119.716044219321
 20
-43.4859041623793
 42
0.0
  0
VERTEX
  8
0
 10
120.245210885987
 20
-43.4859041623793
 42
-0.0075174710389
  0
VERTEX
  8
0
 10
120.749355410005
 20
-41.4865012827265
 42
-0.0356195513469
  0
VERTEX
  8
0
 10
121.221700291458
 20
-40.0579407594371
 42
-0.0832005938839
  0
VERTEX
  8
0
 10
121.884540676649
 20
-38.9184112868235
 42
-0.1328639945464
  0
VERTEX
  8
0
 10
122.547905180963
 20
-38.4389493690851
 42
-0.1538245675589
  0
VERTEX
  8
0
 10
123.233077240298
 20
-38.4309941940781
 42
-0.097313994979
  0
VERTEX
  8
0
 10
124.050626480673
 20
-38.901217310271
 42
-0.0822464482153
  0
VERTEX
  8
0
 10
125.456977130465
 20
-40.678479729063
 42
-0.038649280789
  0
VERTEX
  8
0
 10
126.066044219321
 20
-41.8984041623793
 42
0.0
  0
VERTEX
  8
0
 10
126.595210885987
 20
-41.8984041623793
 42
0.1447137926637
  0
VERTEX
  8
0
 10
126.653252122676
 20
-39.8072837662478
 42
0.1083193270058
  0
VERTEX
  8
0
 10
125.697556546882
 20
-38.1867758445479
 42
0.0530972432856
  0
VERTEX
  8
0
 10
123.882445090512
 20
-36.7024763308558
 42
-0.0046253402945
  0
VERTEX
  8
0
 10
121.832710885987
 20
-35.3579119138441
 42
0.0006914872833
  0
VERTEX
  8
0
 10
120.368855485365
 20
-34.2864597657687
 42
0.0314674964842
  0
VERTEX
  8
0
 10
119.171474107113
 20
-33.5184130362991
 42
0.0352627251341
  0
VERTEX
  8
0
 10
118.393127552654
 20
-33.1671541623793
 42
0.0307269818689
  0
VERTEX
  8
0
 10
119.123537718734
 20
-34.6504468752311
 42
-0.0673314877377
  0
VERTEX
  8
0
 10
119.856281137452
 20
-36.3421541623793
 42
-0.0599068929902
  0
VERTEX
  8
0
 10
120.052491818017
 20
-38.4099605083585
 42
-0.0007260620087
  0
VERTEX
  8
0
 10
119.987430934253
 20
-40.3727177871811
 42
0.006642355948
  0
VERTEX
  8
0
 10
119.980627552654
 20
-40.8400708290459
 42
0.0
  0
VERTEX
  8
0
 10
118.922294219321
 20
-40.8400708290459
 42
0.1546275151082
  0
VERTEX
  8
0
 10
116.843118905099
 20
-37.2615787542556
 42
0.0726105764534
  0
VERTEX
  8
0
 10
115.482710885988
 20
-36.3421541623793
 42
-0.0488245096074
  0
VERTEX
  8
0
 10
115.547601083295
 20
-37.8316443988901
 42
-0.2121195922623
  0
VERTEX
  8
0
 10
114.432322804119
 20
-39.8822804542901
 42
-0.0663326077872
  0
VERTEX
  8
0
 10
113.756999142431
 20
-40.3381634052464
 42
-0.1812199195331
  0
VERTEX
  8
0
 10
113.095348040818
 20
-40.4167444106123
 42
-0.2227486713418
  0
VERTEX
  8
0
 10
112.484728375666
 20
-39.7421074048067
 42
-0.0798781894454
  0
VERTEX
  8
0
 10
112.317552929317
 20
-38.780366917699
 42
0.0099159950599
  0
VERTEX
  8
0
 10
112.283907429363
 20
-38.1942374957126
 42
-0.0207786720243
  0
VERTEX
  8
0
 10
112.043127552654
 20
-33.6963208290459
 42
0.1115570120894
  0
VERTEX
  8
0
 10
109.743679869428
 20
-37.5258040303029
 42
0.0662835169248
  0
VERTEX
  8
0
 10
109.397294219321
 20
-39.252570829046
 42
-0.1055747636
  0
VERTEX
  8
0
 10
108.278341299618
 20
-38.2484752884091
 42
-0.0043785307383
  0
VERTEX
  8
0
 10
107.572310783129
 20
-37.2634884032477
 42
0.1479103718375
  0
VERTEX
  8
0
 10
105.580935191985
 20
-35.7429258389942
 42
0.0793429993834
  0
VERTEX
  8
0
 10
103.311877552654
 20
-35.283820829046
 42
-0.3233349840264
  0
VERTEX
  8
0
 10
103.95539845778
 20
-38.0469423020452
 42
-0.091706128243
  0
VERTEX
  8
0
 10
103.019708659507
 20
-39.5614711562264
 42
-0.0406776201585
  0
VERTEX
  8
0
 10
102.253544219321
 20
-40.3109041623793
 42
0.0359096213436
  0
VERTEX
  8
0
 10
101.030427209475
 20
-37.7544725220871
 42
0.0626286007502
  0
VERTEX
  8
0
 10
99.8784927158211
 20
-36.1313303376927
 42
0.0855889597955
  0
VERTEX
  8
0
 10
98.8139608859875
 20
-35.283820829046
 42
-0.0768774239846
  0
VERTEX
  8
0
 10
98.5493775526541
 20
-40.046320829046
 42
0.0146342977144
  0
VERTEX
  8
0
 10
95.847453146476
 20
-35.5990876555835
 42
0.0055390502798
  0
VERTEX
  8
0
 10
95.1097942193208
 20
-34.490070829046
 42
0.0894383219388
  0
VERTEX
  8
0
 10
94.9820914668941
 20
-35.7980154961593
 42
-0.0073495257037
  0
VERTEX
  8
0
 10
95.0964835700075
 20
-36.9157328925448
 42
-0.0116996922526
  0
VERTEX
  8
0
 10
95.1097942193208
 20
-37.1359041623793
 42
-0.083165443327
  0
VERTEX
  8
0
 10
93.7565045136939
 20
-35.4388748355394
 42
-0.0510212406192
  0
VERTEX
  8
0
 10
92.7167336379968
 20
-33.0688039833589
 42
-0.0559003870191
  0
VERTEX
  8
0
 10
91.129099635061
 20
-25.2146077606715
 42
-0.0211232733036
  0
VERTEX
  8
0
 10
90.8764608859875
 20
-19.1442374957126
 42
-0.0219372409936
  0
VERTEX
  8
0
 10
93.7957669592644
 20
-21.6267625578547
 42
0.020181227515
  0
VERTEX
  8
0
 10
97.0015924147017
 20
-24.4385830624492
 42
0.0457249772638
  0
VERTEX
  8
0
 10
99.3617327656553
 20
-26.0430083124213
 42
0.0248952987238
  0
VERTEX
  8
0
 10
100.401460885987
 20
-26.552570829046
 42
0.0424938999906
  0
VERTEX
  8
0
 10
99.800938029269
 20
-24.9634034630645
 42
-0.0241048217584
  0
VERTEX
  8
0
 10
99.3431275526541
 20
-23.9067374957126
 42
-0.0519280458842
  0
VERTEX
  8
0
 10
100.58499641573
 20
-24.658530339992
 42
-0.0054371917461
  0
VERTEX
  8
0
 10
101.806814056758
 20
-25.6505454130498
 42
0.0749833194464
  0
VERTEX
  8
0
 10
103.576460885987
 20
-26.8171541623793
 42
0.0519670928395
  0
VERTEX
  8
0
 10
103.240426113689
 20
-25.5257544929055
 42
-0.0147132258852
  0
VERTEX
  8
0
 10
102.600972890601
 20
-23.6119444944968
 42
-0.0814738578072
  0
VERTEX
  8
0
 10
102.402961568307
 20
-22.2321087684044
 42
-0.3336104052335
  0
VERTEX
  8
0
 10
103.237763176877
 20
-21.0789777297156
 42
-0.0470182071851
  0
VERTEX
  8
0
 10
103.576460885987
 20
-20.9963208290459
 42
0.0277673105497
  0
VERTEX
  8
0
 10
102.065277250112
 20
-18.8421444153179
 42
-0.0151887624426
  0
VERTEX
  8
0
 10
100.930627552654
 20
-17.2921541623793
 42
0.0050711478016
  0
VERTEX
  8
0
 10
102.691804602106
 20
-18.0458116423051
 42
0.0253834271645
  0
VERTEX
  8
0
 10
103.576460885987
 20
-18.3504874957126
 42
0.075763481228
  0
VERTEX
  8
0
 10
102.973981278214
 20
-16.6765873825719
 42
0.0001072391804
  0
VERTEX
  8
0
 10
102.255582164432
 20
-15.42277951452
 42
0.014064259765
  0
VERTEX
  8
0
 10
100.166148343075
 20
-11.8729499098423
 42
-0.0264023528132
  0
VERTEX
  8
0
 10
98.4470232921407
 20
-8.8286248998444
 42
-0.0253365463272
  0
VERTEX
  8
0
 10
97.7556275526541
 20
-7.2379874957126
 42
-0.0452513620016
  0
VERTEX
  8
0
 10
99.496449127712
 20
-9.0809735490691
 42
-0.012085214748
  0
VERTEX
  8
0
 10
101.101398639529
 20
-11.3049375449885
 42
0.0280566370456
  0
VERTEX
  8
0
 10
102.970711088563
 20
-13.7772411137394
 42
0.0354104914939
  0
VERTEX
  8
0
 10
104.105627552654
 20
-14.9109041623793
 42
0.0382128695853
  0
VERTEX
  8
0
 10
103.662175646458
 20
-13.2422402465995
 42
-0.0181263035064
  0
VERTEX
  8
0
 10
103.064732398597
 20
-11.4894467508392
 42
-0.0902721693179
  0
VERTEX
  8
0
 10
102.782710885987
 20
-9.3546541623793
 42
0.049326214754
  0
VERTEX
  8
0
 10
104.646038497581
 20
-10.4690791724659
 42
-0.0125165578597
  0
VERTEX
  8
0
 10
106.956955494436
 20
-11.552682024134
 42
-0.0471695728673
  0
VERTEX
  8
0
 10
108.286559319291
 20
-12.3905465282215
 42
-0.1277522623873
  0
VERTEX
  8
0
 10
109.490849220815
 20
-13.9166818566128
 42
-0.0244774904487
  0
VERTEX
  8
0
 10
109.998971874466
 20
-15.2970894898119
 42
0.0540598006123
  0
VERTEX
  8
0
 10
110.726509480047
 20
-17.1379388219042
 42
0.0978451347638
  0
VERTEX
  8
0
 10
111.453561418044
 20
-18.0242297715774
 42
0.0792377344184
  0
VERTEX
  8
0
 10
112.043127552654
 20
-18.3504874957126
 42
-0.0690970151521
  0
VERTEX
  8
0
 10
112.533422242733
 20
-16.8919511926426
 42
-0.1052705138323
  0
VERTEX
  8
0
 10
113.111703770111
 20
-16.0762845321851
 42
-0.2152938828072
  0
VERTEX
  8
0
 10
113.54617762266
 20
-15.9095956337917
 42
-0.1578252680998
  0
VERTEX
  8
0
 10
113.870092700827
 20
-16.085152703565
 42
-0.0645710397583
  0
VERTEX
  8
0
 10
114.443201254527
 20
-16.9290472784445
 42
0.055426743896
  0
VERTEX
  8
0
 10
114.972723507949
 20
-17.7360509347542
 42
0.3151716425002
  0
VERTEX
  8
0
 10
115.951361351101
 20
-18.0908400540751
 42
0.089473561679
  0
VERTEX
  8
0
 10
116.687705750823
 20
-17.6974587804506
 42
-0.0426094756303
  0
VERTEX
  8
0
 10
117.498650941447
 20
-17.0924068218525
 42
-0.1788727639057
  0
VERTEX
  8
0
 10
118.393127552654
 20
-16.9026915006361
 42
-0.0840087055758
  0
VERTEX
  8
0
 10
119.815774503267
 20
-17.4428116760683
 42
-0.000219390812
  0
VERTEX
  8
0
 10
121.658057398017
 20
-18.6885962868076
 42
0.0537893532735
  0
VERTEX
  8
0
 10
122.723268841423
 20
-19.2330849920024
 42
0.0531181275855
  0
VERTEX
  8
0
 10
123.420210885987
 20
-19.408820829046
 42
0.0467974111799
  0
VERTEX
  8
0
 10
122.536902952138
 20
-17.7721243034091
 42
-0.0222791273439
  0
VERTEX
  8
0
 10
121.640695703055
 20
-16.3330368586632
 42
-0.0005004213208
  0
VERTEX
  8
0
 10
118.075468284332
 20
-10.1444852068014
 42
-0.0038120808397
  0
VERTEX
  8
0
 10
115.637424039257
 20
-5.7768366549939
 42
-0.0006408806522
  0
VERTEX
  8
0
 10
114.491898178342
 20
-3.8030091339662
 42
-0.0490947182838
  0
VERTEX
  8
0
 10
113.366044219321
 20
-1.4171541623793
 42
-0.0459765873901
  0
VERTEX
  8
0
 10
115.019417738343
 20
-3.040512064043
 42
0.0238897700893
  0
VERTEX
  8
0
 10
117.378359188783
 20
-5.7251151915962
 42
0.0001801617431
  0
VERTEX
  8
0
 10
122.796103380792
 20
-11.3716015135842
 42
-0.0121897016146
  0
VERTEX
  8
0
 10
124.307251001978
 20
-13.0428841725575
 42
0.0633864882987
  0
VERTEX
  8
0
 10
126.054101628555
 20
-14.7071831007568
 42
0.0450795306361
  0
VERTEX
  8
0
 10
126.859794219321
 20
-15.1754874957126
 42
0.048817960406
  0
VERTEX
  8
0
 10
126.037695265407
 20
-12.2848253763148
 42
0.0015501575184
  0
VERTEX
  8
0
 10
125.021166657113
 20
-9.8381152696491
 42
-0.0324544289779
  0
VERTEX
  8
0
 10
124.177676518973
 20
-7.4641795624757
 42
-0.0241433797845
  0
VERTEX
  8
0
 10
123.949377552654
 20
-6.4442374957126
 42
-0.015926107467
  0
VERTEX
  8
0
 10
125.04906965762
 20
-7.7631179647041
 42
0.0521085938659
  0
VERTEX
  8
0
 10
126.066044219321
 20
-8.8254874957126
 42
0.0630858804964
  0
VERTEX
  8
0
 10
125.536765342002
 20
-6.9520582400088
 42
0.018746790303
  0
VERTEX
  8
0
 10
124.42831652609
 20
-4.6945184637188
 42
-0.0378663547995
  0
VERTEX
  8
0
 10
123.420210885987
 20
-2.4754874957126
 42
-0.04571146509
  0
VERTEX
  8
0
 10
124.904795720127
 20
-4.1010096670223
 42
0.0094625462708
  0
VERTEX
  8
0
 10
126.396103195865
 20
-6.0700277866783
 42
0.0606785272203
  0
VERTEX
  8
0
 10
127.878494459673
 20
-7.6207729018946
 42
0.0298945201967
  0
VERTEX
  8
0
 10
128.447294219321
 20
-8.0317374957126
 42
0.0291581494916
  0
VERTEX
  8
0
 10
128.203087001738
 20
-5.6281527514909
 42
-0.0134472810187
  0
VERTEX
  8
0
 10
127.972334222966
 20
-3.9937169546492
 42
-0.0225381339359
  0
VERTEX
  8
0
 10
127.918127552654
 20
-3.0046541623793
 42
-0.0682019051895
  0
VERTEX
  8
0
 10
129.221682137063
 20
-3.6144531586032
 42
0.0141594016997
  0
VERTEX
  8
0
 10
130.191956510049
 20
-4.2144827840772
 42
0.0897781166119
  0
VERTEX
  8
0
 10
132.151051449021
 20
-4.897085539605
 42
0.0216306214722
  0
VERTEX
  8
0
 10
133.930465270095
 20
-5.0782118199599
 42
-0.0031272225589
  0
VERTEX
  8
0
 10
134.532710885987
 20
-5.121320829046
 42
0.0647848929951
  0
VERTEX
  8
0
 10
133.107351624398
 20
-2.7119061025841
 42
0.0099016241605
  0
VERTEX
  8
0
 10
131.287118138556
 20
-0.4861988140214
 42
0.0007707679046
  0
VERTEX
  8
0
 10
128.119850392932
 20
3.4777769722676
 42
0.0071777965958
  0
VERTEX
  8
0
 10
123.420210885987
 20
9.1661791709541
 42
-0.0201164942363
  0
VERTEX
  8
0
 10
126.516966177843
 20
8.9771203868759
 42
0.0126409979994
  0
VERTEX
  8
0
 10
129.826688292719
 20
8.6745893686785
 42
0.014035171527
  0
VERTEX
  8
0
 10
131.093127552654
 20
8.6370125042874
 42
0.0612738973327
  0
VERTEX
  8
0
 10
130.137329446132
 20
9.8978845363803
 42
-0.0175930976018
  0
VERTEX
  8
0
 10
129.140130596087
 20
10.9540564332187
 42
-0.0362831819588
  0
VERTEX
  8
0
 10
128.711877552654
 20
11.547429170954
 42
0.0402155667851
  0
VERTEX
  8
0
 10
131.563381238892
 20
12.222322076259
 42
0.0093792952296
  0
VERTEX
  8
0
 10
132.680627552654
 20
12.6057625042874
 42
0.1056029742949
  0
VERTEX
  8
0
 10
131.313386292196
 20
14.2904214283064
 42
0.0124558546249
  0
VERTEX
  8
0
 10
129.77170893532
 20
15.4186498503101
 42
-0.038276652709
  0
VERTEX
  8
0
 10
128.500942660749
 20
16.438744550342
 42
-0.0419231521166
  0
VERTEX
  8
0
 10
127.918127552654
 20
17.103679170954
 42
-0.0468138901899
  0
VERTEX
  8
0
 10
131.265303826792
 20
16.602029355756
 42
0.0118959631056
  0
VERTEX
  8
0
 10
134.151073476977
 20
15.9707915267342
 42
0.024156200326
  0
VERTEX
  8
0
 10
135.591044219321
 20
15.7807625042874
 42
0.1072048685926
  0
VERTEX
  8
0
 10
134.801408180781
 20
16.8725940995141
 42
0.0417829490723
  0
VERTEX
  8
0
 10
133.266683127332
 20
17.9651346671513
 42
-0.0181870167487
  0
VERTEX
  8
0
 10
131.897471221274
 20
18.8221466290432
 42
-0.0127152669111
  0
VERTEX
  8
0
 10
128.814983180263
 20
21.2133043532642
 42
0.0225104486642
  0
VERTEX
  8
0
 10
125.801460885987
 20
23.4970712251939
 42
-0.0045799696844
  0
VERTEX
  8
0
 10
123.86684537961
 20
24.7445176168557
 42
-0.0695029298985
  0
VERTEX
  8
0
 10
122.216500118201
 20
26.1294313015708
 42
-0.1000160338635
  0
VERTEX
  8
0
 10
121.303544219321
 20
27.6870125042874
 42
0.0
  0
VERTEX
  8
0
 10
123.420210885987
 20
27.422429170954
 42
0.0388020924278
  0
VERTEX
  8
0
 10
121.398836378714
 20
29.7401692772747
 42
-0.0078499866316
  0
VERTEX
  8
0
 10
118.699325016014
 20
32.3394741396358
 42
-0.014942226714
  0
VERTEX
  8
0
 10
117.863960885987
 20
33.2432625042874
 42
-0.0361016052296
  0
VERTEX
  8
0
 10
120.403742464078
 20
32.3509334225751
 42
-0.0030983673376
  0
VERTEX
  8
0
 10
122.745745929883
 20
31.2806398345803
 42
0.0321845662894
  0
VERTEX
  8
0
 10
125.452838726253
 20
30.1566081958932
 42
0.0706382184448
  0
VERTEX
  8
0
 10
128.447294219321
 20
29.5390958376207
 42
0.0458892740237
  0
VERTEX
  8
0
 10
127.586727445804
 20
31.1869570695681
 42
-0.0021048878913
  0
VERTEX
  8
0
 10
126.550050111728
 20
32.7265647623546
 42
-0.0178310628038
  0
VERTEX
  8
0
 10
126.066044219321
 20
33.5078458376207
 42
0.0198948489907
  0
VERTEX
  8
0
 10
128.720456512497
 20
33.5553510088101
 42
0.0457194994248
  0
VERTEX
  8
0
 10
131.075187905502
 20
33.8698777553104
 42
0.060459908501
  0
VERTEX
  8
0
 10
132.27183241031
 20
34.29162950998
 42
0.1375001154975
  0
VERTEX
  8
0
 10
133.209794219321
 20
35.0953458376207
 42
-0.0622308647271
  0
VERTEX
  8
0
 10
131.00940477056
 20
35.6730272527421
 42
0.0089128439169
  0
VERTEX
  8
0
 10
128.973812468833
 20
36.5296575136461
 42
-0.0090363958216
  0
VERTEX
  8
0
 10
127.265656180623
 20
37.1860106983698
 42
-0.0941366090588
  0
VERTEX
  8
0
 10
125.536877552654
 20
38.2703458376207
 42
0.0
  0
VERTEX
  8
0
 10
127.124377552654
 20
38.2703458376207
 42
0.057493052204
  0
VERTEX
  8
0
 10
126.360344704207
 20
39.1111676960798
 42
-0.0306529260538
  0
VERTEX
  8
0
 10
125.44714321206
 20
39.9564602042957
 42
-0.1155516802124
  0
VERTEX
  8
0
 10
125.05741271983
 20
40.5548923691054
 42
-0.244467215862
  0
VERTEX
  8
0
 10
125.148525760342
 20
41.1640487905003
 42
-0.1403794017137
  0
VERTEX
  8
0
 10
126.179707070148
 20
41.841935672346
 42
-0.0026937131423
  0
VERTEX
  8
0
 10
126.595210885987
 20
41.9745125042874
 42
0.1240908624233
  0
VERTEX
  8
0
 10
125.75918004194
 20
43.3325224488559
 42
0.0516734626461
  0
VERTEX
  8
0
 10
124.494698537289
 20
44.2672071317438
 42
-0.0072709057083
  0
VERTEX
  8
0
 10
122.939932680186
 20
45.1528465520723
 42
0.0022531571617
  0
VERTEX
  8
0
 10
120.142089365109
 20
46.8555756383994
 42
-0.014160851269
  0
VERTEX
  8
0
 10
118.00490744263
 20
48.2240218884081
 42
-0.0390567326886
  0
VERTEX
  8
0
 10
115.951400420999
 20
49.8748607268125
 42
-0.0832655973262
  0
VERTEX
  8
0
 10
113.895210885987
 20
52.5578458376207
 42
0.0299446131076
  0
VERTEX
  8
0
 10
118.486672577781
 20
50.850024041242
 42
0.0580379790101
  0
VERTEX
  8
0
 10
122.816567802572
 20
49.9587097795787
 42
0.0160380974903
  0
VERTEX
  8
0
 10
123.684794219321
 20
49.9120125042874
 42
0.039908909073
  0
VERTEX
  8
0
 10
121.831273017311
 20
52.9406593828466
 42
0.0084804074961
  0
VERTEX
  8
0
 10
119.74516560163
 20
55.6456872790178
 42
-0.0124752167234
  0
VERTEX
  8
0
 10
118.066271712331
 20
57.8822071683559
 42
-0.0487408428632
  0
VERTEX
  8
0
 10
116.382113333966
 20
60.783723370842
 42
-0.0757251101655
  0
VERTEX
  8
0
 10
115.482710885987
 20
63.934929170954
 42
0.0
  0
VERTEX
  8
0
 10
121.568127552654
 20
63.934929170954
 42
0.0856727246367
  0
VERTEX
  8
0
 10
120.329841053953
 20
65.342783987772
 42
0.0123585705818
  0
VERTEX
  8
0
 10
118.776898295336
 20
66.4998676572054
 42
-0.0188798944738
  0
VERTEX
  8
0
 10
116.4668807123
 20
68.3625601295817
 42
0.0299553969132
  0
VERTEX
  8
0
 10
114.153806629032
 20
70.1672019071713
 42
0.0430548718207
  0
VERTEX
  8
0
 10
112.572294219321
 20
71.078679170954
 42
-0.1427718149946
  0
VERTEX
  8
0
 10
113.921110211288
 20
72.2102174693662
 42
0.0035843320276
  0
VERTEX
  8
0
 10
115.098257041307
 20
72.7332162240299
 42
0.0173087411981
  0
VERTEX
  8
0
 10
115.482710885988
 20
72.9307625042874
 42
0.0380771601251
  0
VERTEX
  8
0
 10
113.237427306279
 20
74.5017396543028
 42
-0.0022168456804
  0
VERTEX
  8
0
 10
110.849598913149
 20
75.866250401641
 42
-0.0414936361566
  0
VERTEX
  8
0
 10
108.338960885987
 20
77.5517175264635
 42
-0.052063604042
  0
VERTEX
  8
0
 10
105.493805853242
 20
80.5075463190144
 42
-0.04859168854
  0
VERTEX
  8
0
 10
102.270006128774
 20
85.6284622341429
 42
-0.0196201233073
  0
VERTEX
  8
0
 10
100.930627552654
 20
88.5411791709541
 42
-0.0301109309208
  0
VERTEX
  8
0
 10
103.749393539237
 20
87.1574337412209
 42
0.0126405712668
  0
VERTEX
  8
0
 10
105.624679105219
 20
86.12912119263
 42
0.0434709431327
  0
VERTEX
  8
0
 10
108.0602080706
 20
85.1086741949151
 42
-0.0023620790798
  0
VERTEX
  8
0
 10
110.393298131338
 20
84.4143145624083
 42
-0.0505433097606
  0
VERTEX
  8
0
 10
112.572294219321
 20
83.5140958376207
 42
0.0926264949668
  0
VERTEX
  8
0
 10
111.644296365101
 20
85.3875841629156
 42
-0.0002191291868
  0
VERTEX
  8
0
 10
110.461898357882
 20
86.8695148124567
 42
-0.0657291495779
  0
VERTEX
  8
0
 10
109.397294219321
 20
88.5411791709541
 42
-0.0550654286984
  0
VERTEX
  8
0
 10
111.607857779688
 20
87.8834439560073
 42
0.013963712507
  0
VERTEX
  8
0
 10
113.344124329287
 20
87.2262527586494
 42
0.0347160756189
  0
VERTEX
  8
0
 10
114.424377552654
 20
86.9536791709541
 42
0.0647114027622
  0
VERTEX
  8
0
 10
112.708787310935
 20
88.9727090378316
 42
-0.0072380520784
  0
VERTEX
  8
0
 10
111.025215214372
 20
90.5432064994164
 42
-0.0431169465297
  0
VERTEX
  8
0
 10
109.505262306378
 20
92.2620354679695
 42
-0.0281565959822
  0
VERTEX
  8
0
 10
106.857603416561
 20
96.2824087223633
 42
-0.0018601012644
  0
VERTEX
  8
0
 10
104.704066548733
 20
100.073349303375
 42
0.0226336272911
  0
VERTEX
  8
0
 10
103.263897221102
 20
102.452318974861
 42
-0.0156053739822
  0
VERTEX
  8
0
 10
101.960693924455
 20
104.457684358078
 42
-0.0458301512832
  0
VERTEX
  8
0
 10
100.930627552654
 20
106.532845837621
 42
0.0102930528491
  0
VERTEX
  8
0
 10
102.975609284395
 20
105.439228069473
 42
0.0501003055494
  0
VERTEX
  8
0
 10
104.86964555049
 20
104.651669150854
 42
0.0425743953781
  0
VERTEX
  8
0
 10
105.957710885987
 20
104.416179170954
 42
0.0649170241929
  0
VERTEX
  8
0
 10
104.360570319263
 20
106.690425668943
 42
0.0076685347271
  0
VERTEX
  8
0
 10
102.444642173084
 20
108.733468681901
 42
-0.0144714671431
  0
VERTEX
  8
0
 10
100.903148213435
 20
110.52474209804
 42
-0.0275898120944
  0
VERTEX
  8
0
 10
94.7235128879406
 20
118.97223513002
 42
-0.0559464023935
  0
VERTEX
  8
0
 10
91.7992400651185
 20
124.959206337988
 42
-0.0296030322004
  0
VERTEX
  8
0
 10
90.4043002923282
 20
129.729286388036
 42
-0.0169918837757
  0
VERTEX
  8
0
 10
89.2400838802079
 20
135.974942600988
 42
-0.017460558233
  0
VERTEX
  8
0
 10
88.4072191862702
 20
142.692498975112
 42
0.0125254039673
  0
VERTEX
  8
0
 10
88.0395807587656
 20
146.265176775716
 42
0.0326078166778
  0
VERTEX
  8
0
 10
87.4246975689102
 20
149.654357909982
 42
-0.029333900146
  0
VERTEX
  8
0
 10
87.0682242701386
 20
150.995203735203
 42
-0.0126139220064
  0
VERTEX
  8
0
 10
86.9358298974684
 20
151.979800647756
 42
0.0934122805021
  0
VERTEX
  8
0
 10
86.6502628967823
 20
153.102532028673
 42
0.1619604289508
  0
SEQEND
  0
ENDSEC
  0
EOF
