  0
SECTION
  2
HEADER
  9
$ACADVER
  1
AC1014
  9
$HANDSEED
  5
FFFF
  9
$MEASUREMENT
 70
     1
  0
ENDSEC
  0
SECTION
  2
TABLES
  0
TABLE
  2
VPORT
  5
8
330
0
100
AcDbSymbolTable
 70
     4
  0
VPORT
  5
2E
330
8
100
AcDbSymbolTableRecord
100
AcDbViewportTableRecord
  2
*ACTIVE
 70
     0
 10
0.0
 20
0.0
 11
1.0
 21
1.0
 12
210.0
 22
148.5
 13
0.0
 23
0.0
 14
10.0
 24
10.0
 15
10.0
 25
10.0
 16
0.0
 26
0.0
 36
1.0
 17
0.0
 27
0.0
 37
0.0
 40
341.0
 41
1.24
 42
50.0
 43
0.0
 44
0.0
 50
0.0
 51
0.0
 71
     0
 72
   100
 73
     1
 74
     3
 75
     0
 76
     0
 77
     0
 78
     0
  0
ENDTAB
  0
TABLE
  2
LTYPE
  5
5
330
0
100
AcDbSymbolTable
 70
     1
  0
LTYPE
  5
14
330
5
100
AcDbSymbolTableRecord
100
AcDbLinetypeTableRecord
  2
BYBLOCK
 70
     0
  3

 72
    65
 73
     0
 40
0.0
  0
LTYPE
  5
15
330
5
100
AcDbSymbolTableRecord
100
AcDbLinetypeTableRecord
  2
BYLAYER
 70
     0
  3

 72
    65
 73
     0
 40
0.0
  0
LTYPE
  5
16
330
5
100
AcDbSymbolTableRecord
100
AcDbLinetypeTableRecord
  2
CONTINUOUS
 70
     0
  3
Solid line
 72
    65
 73
     0
 40
0.0
  0
ENDTAB
  0
TABLE
  2
LAYER
  5
2
100
AcDbSymbolTable
 70
1
  0
LAYER
  5
50
100
AcDbSymbolTableRecord
100
AcDbLayerTableRecord
  2
0
 70
0
  6
CONTINUOUS
  0
ENDTAB
  0
TABLE
  2
STYLE
  5
3
330
0
100
AcDbSymbolTable
 70
     1
  0
STYLE
  5
11
330
3
100
AcDbSymbolTableRecord
100
AcDbTextStyleTableRecord
  2
STANDARD
 70
     0
 40
0.0
 41
1.0
 50
0.0
 71
     0
 42
2.5
  3
txt
  4

  0
ENDTAB
  0
TABLE
  2
VIEW
  5
6
330
0
100
AcDbSymbolTable
 70
     0
  0
ENDTAB
  0
TABLE
  2
UCS
  5
7
330
0
100
AcDbSymbolTable
 70
     0
  0
ENDTAB
  0
TABLE
  2
APPID
  5
9
330
0
100
AcDbSymbolTable
 70
     2
  0
APPID
  5
12
330
9
100
AcDbSymbolTableRecord
100
AcDbRegAppTableRecord
  2
ACAD
 70
     0
  0
ENDTAB
  0
TABLE
  2
DIMSTYLE
  5
A
330
0
100
AcDbSymbolTable
 70
     1
  0
DIMSTYLE
105
27
330
A
100
AcDbSymbolTableRecord
100
AcDbDimStyleTableRecord
  2
ISO-25
 70
     0
  3

  4

  5

  6

  7

 40
1.0
 41
2.5
 42
0.625
 43
3.75
 44
1.25
 45
0.0
 46
0.0
 47
0.0
 48
0.0
140
2.5
141
2.5
142
0.0
143
0.03937007874016
144
1.0
145
0.0
146
1.0
147
0.625
 71
     0
 72
     0
 73
     0
 74
     0
 75
     0
 76
     0
 77
     1
 78
     8
170
     0
171
     3
172
     1
173
     0
174
     0
175
     0
176
     0
177
     0
178
     0
270
     2
271
     2
272
     2
273
     2
274
     3
340
11
275
     0
280
     0
281
     0
282
     0
283
     0
284
     8
285
     0
286
     0
287
     3
288
     0
  0
ENDTAB
  0
TABLE
  2
BLOCK_RECORD
  5
1
330
0
100
AcDbSymbolTable
 70
     1
  0
BLOCK_RECORD
  5
1F
330
1
100
AcDbSymbolTableRecord
100
AcDbBlockTableRecord
  2
*MODEL_SPACE
  0
BLOCK_RECORD
  5
1B
330
1
100
AcDbSymbolTableRecord
100
AcDbBlockTableRecord
  2
*PAPER_SPACE
  0
ENDTAB
  0
ENDSEC
  0
SECTION
  2
BLOCKS
  0
BLOCK
  5
20
330
1F
100
AcDbEntity
  8
0
100
AcDbBlockBegin
  2
*MODEL_SPACE
 70
     0
 10
0.0
 20
0.0
 30
0.0
  3
*MODEL_SPACE
  1

  0
ENDBLK
  5
21
330
1F
100
AcDbEntity
  8
0
100
AcDbBlockEnd
  0
BLOCK
  5
1C
330
1B
100
AcDbEntity
 67
     1
  8
0
100
AcDbBlockBegin
  2
*PAPER_SPACE
  1

  0
ENDBLK
  5
1D
330
1B
100
AcDbEntity
 67
     1
  8
0
100
AcDbBlockEnd
  0
ENDSEC
  0
SECTION
  2
ENTITIES
  0
SPLINE
  5
100
100
AcDbEntity
  8
0
 62
7
100
AcDbSpline
 70
8
 71
3
 72
8
 73
4
 74
0
 40
0
 40
0
 40
0
 40
0
 40
1
 40
1
 40
1
 40
1
 10
75.009375
 20
149.992292
 30
0.0
 10
33.575625
 20
149.992292
 30
0.0
 10
0.000000
 20
116.416667
 30
0.0
 10
0.000000
 20
74.982917
 30
0.0
  0
SPLINE
  5
101
100
AcDbEntity
  8
0
 62
7
100
AcDbSpline
 70
8
 71
3
 72
8
 73
4
 74
0
 40
0
 40
0
 40
0
 40
0
 40
1
 40
1
 40
1
 40
1
 10
0.000000
 20
74.982917
 30
0.0
 10
0.000000
 20
33.575625
 30
0.0
 10
33.575625
 20
0.000000
 30
0.0
 10
75.009375
 20
0.000000
 30
0.0
  0
SPLINE
  5
102
100
AcDbEntity
  8
0
 62
7
100
AcDbSpline
 70
8
 71
3
 72
8
 73
4
 74
0
 40
0
 40
0
 40
0
 40
0
 40
1
 40
1
 40
1
 40
1
 10
75.009375
 20
0.000000
 30
0.0
 10
116.443125
 20
0.000000
 30
0.0
 10
150.018750
 20
33.575625
 30
0.0
 10
150.018750
 20
75.009375
 30
0.0
  0
SPLINE
  5
103
100
AcDbEntity
  8
0
 62
7
100
AcDbSpline
 70
8
 71
3
 72
8
 73
4
 74
0
 40
0
 40
0
 40
0
 40
0
 40
1
 40
1
 40
1
 40
1
 10
150.018750
 20
75.009375
 30
0.0
 10
149.992292
 20
116.416667
 30
0.0
 10
116.416667
 20
149.992292
 30
0.0
 10
75.009375
 20
149.992292
 30
0.0
  0
SPLINE
  5
104
100
AcDbEntity
  8
0
 62
7
100
AcDbSpline
 70
8
 71
3
 72
8
 73
4
 74
0
 40
0
 40
0
 40
0
 40
0
 40
1
 40
1
 40
1
 40
1
 10
75.009375
 20
146.235208
 30
0.0
 10
35.665833
 20
146.235208
 30
0.0
 10
3.757083
 20
114.326458
 30
0.0
 10
3.757083
 20
74.982917
 30
0.0
  0
SPLINE
  5
105
100
AcDbEntity
  8
0
 62
7
100
AcDbSpline
 70
8
 71
3
 72
8
 73
4
 74
0
 40
0
 40
0
 40
0
 40
0
 40
1
 40
1
 40
1
 40
1
 10
3.757083
 20
74.982917
 30
0.0
 10
3.757083
 20
35.639375
 30
0.0
 10
35.665833
 20
3.730625
 30
0.0
 10
75.009375
 20
3.730625
 30
0.0
  0
SPLINE
  5
106
100
AcDbEntity
  8
0
 62
7
100
AcDbSpline
 70
8
 71
3
 72
8
 73
4
 74
0
 40
0
 40
0
 40
0
 40
0
 40
1
 40
1
 40
1
 40
1
 10
75.009375
 20
3.730625
 30
0.0
 10
114.352917
 20
3.730625
 30
0.0
 10
146.261667
 20
35.639375
 30
0.0
 10
146.261667
 20
74.982917
 30
0.0
  0
SPLINE
  5
107
100
AcDbEntity
  8
0
 62
7
100
AcDbSpline
 70
8
 71
3
 72
8
 73
4
 74
0
 40
0
 40
0
 40
0
 40
0
 40
1
 40
1
 40
1
 40
1
 10
146.261667
 20
74.982917
 30
0.0
 10
146.261667
 20
114.352917
 30
0.0
 10
114.352917
 20
146.235208
 30
0.0
 10
75.009375
 20
146.235208
 30
0.0
  0
LWPOLYLINE
  5
108
100
AcDbEntity
  8
0
 62
7
100
AcDbPolyline
 90
1
 70
1
 10
75.009375
 20
149.992292
 30
0.0
  0
SPLINE
  5
109
100
AcDbEntity
  8
0
 62
7
100
AcDbSpline
 70
8
 71
3
 72
8
 73
4
 74
0
 40
0
 40
0
 40
0
 40
0
 40
1
 40
1
 40
1
 40
1
 10
75.009375
 20
142.875000
 30
0.0
 10
37.517917
 20
142.875000
 30
0.0
 10
7.143750
 20
112.474375
 30
0.0
 10
7.143750
 20
75.009375
 30
0.0
  0
SPLINE
  5
10a
100
AcDbEntity
  8
0
 62
7
100
AcDbSpline
 70
8
 71
3
 72
8
 73
4
 74
0
 40
0
 40
0
 40
0
 40
0
 40
1
 40
1
 40
1
 40
1
 10
7.143750
 20
75.009375
 30
0.0
 10
7.117292
 20
37.517917
 30
0.0
 10
37.517917
 20
7.117292
 30
0.0
 10
75.009375
 20
7.117292
 30
0.0
  0
SPLINE
  5
10b
100
AcDbEntity
  8
0
 62
7
100
AcDbSpline
 70
8
 71
3
 72
8
 73
4
 74
0
 40
0
 40
0
 40
0
 40
0
 40
1
 40
1
 40
1
 40
1
 10
75.009375
 20
7.117292
 30
0.0
 10
112.474375
 20
7.117292
 30
0.0
 10
142.875000
 20
37.517917
 30
0.0
 10
142.875000
 20
74.982917
 30
0.0
  0
SPLINE
  5
10c
100
AcDbEntity
  8
0
 62
7
100
AcDbSpline
 70
8
 71
3
 72
8
 73
4
 74
0
 40
0
 40
0
 40
0
 40
0
 40
1
 40
1
 40
1
 40
1
 10
142.875000
 20
74.982917
 30
0.0
 10
142.875000
 20
112.474375
 30
0.0
 10
112.474375
 20
142.875000
 30
0.0
 10
75.009375
 20
142.875000
 30
0.0
  0
LWPOLYLINE
  5
10d
100
AcDbEntity
  8
0
 62
7
100
AcDbPolyline
 90
1
 70
1
 10
75.009375
 20
146.235208
 30
0.0
  0
SPLINE
  5
10e
100
AcDbEntity
  8
0
 62
7
100
AcDbSpline
 70
8
 71
3
 72
8
 73
4
 74
0
 40
0
 40
0
 40
0
 40
0
 40
1
 40
1
 40
1
 40
1
 10
75.009375
 20
32.623125
 30
0.0
 10
51.593750
 20
32.623125
 30
0.0
 10
32.623125
 20
51.593750
 30
0.0
 10
32.623125
 20
75.009375
 30
0.0
  0
SPLINE
  5
10f
100
AcDbEntity
  8
0
 62
7
100
AcDbSpline
 70
8
 71
3
 72
8
 73
4
 74
0
 40
0
 40
0
 40
0
 40
0
 40
1
 40
1
 40
1
 40
1
 10
32.623125
 20
75.009375
 30
0.0
 10
32.623125
 20
98.425000
 30
0.0
 10
51.593750
 20
117.395625
 30
0.0
 10
75.009375
 20
117.395625
 30
0.0
  0
SPLINE
  5
110
100
AcDbEntity
  8
0
 62
7
100
AcDbSpline
 70
8
 71
3
 72
8
 73
4
 74
0
 40
0
 40
0
 40
0
 40
0
 40
1
 40
1
 40
1
 40
1
 10
75.009375
 20
117.395625
 30
0.0
 10
98.425000
 20
117.395625
 30
0.0
 10
117.395625
 20
98.425000
 30
0.0
 10
117.395625
 20
75.009375
 30
0.0
  0
SPLINE
  5
111
100
AcDbEntity
  8
0
 62
7
100
AcDbSpline
 70
8
 71
3
 72
8
 73
4
 74
0
 40
0
 40
0
 40
0
 40
0
 40
1
 40
1
 40
1
 40
1
 10
117.395625
 20
75.009375
 30
0.0
 10
117.369167
 20
51.593750
 30
0.0
 10
98.398542
 20
32.623125
 30
0.0
 10
75.009375
 20
32.623125
 30
0.0
  0
LWPOLYLINE
  5
112
100
AcDbEntity
  8
0
 62
7
100
AcDbPolyline
 90
1
 70
1
 10
75.009375
 20
142.875000
 30
0.0
  0
SPLINE
  5
113
100
AcDbEntity
  8
0
 62
7
100
AcDbSpline
 70
8
 71
3
 72
8
 73
4
 74
0
 40
0
 40
0
 40
0
 40
0
 40
1
 40
1
 40
1
 40
1
 10
37.756042
 20
63.473542
 30
0.0
 10
39.528750
 20
57.732083
 30
0.0
 10
42.518542
 20
52.678542
 30
0.0
 10
46.355000
 20
48.551042
 30
0.0
  0
LWPOLYLINE
  5
114
100
AcDbEntity
  8
0
 62
7
100
AcDbPolyline
 90
1
 70
1
 10
75.009375
 20
32.623125
 30
0.0
  0
SPLINE
  5
115
100
AcDbEntity
  8
0
 62
7
100
AcDbSpline
 70
8
 71
3
 72
8
 73
4
 74
0
 40
0
 40
0
 40
0
 40
0
 40
1
 40
1
 40
1
 40
1
 10
36.406667
 20
80.645000
 30
0.0
 10
35.586458
 20
75.062292
 30
0.0
 10
35.956875
 20
69.215000
 30
0.0
 10
37.756042
 20
63.473542
 30
0.0
  0
LWPOLYLINE
  5
116
100
AcDbEntity
  8
0
 62
7
100
AcDbPolyline
 90
3
 70
0
 10
46.355000
 20
48.551042
 30
0.0
 10
46.355000
 20
66.119375
 30
0.0
 10
36.406667
 20
80.645000
 30
0.0
  0
SPLINE
  5
117
100
AcDbEntity
  8
0
 62
7
100
AcDbSpline
 70
8
 71
3
 72
8
 73
4
 74
0
 40
0
 40
0
 40
0
 40
0
 40
1
 40
1
 40
1
 40
1
 10
46.434375
 20
101.520625
 30
0.0
 10
44.317708
 20
99.245208
 30
0.0
 10
42.518542
 20
96.731667
 30
0.0
 10
41.010417
 20
94.059375
 30
0.0
  0
LWPOLYLINE
  5
118
100
AcDbEntity
  8
0
 62
7
100
AcDbPolyline
 90
4
 70
0
 10
57.811458
 20
49.530000
 30
0.0
 10
57.811458
 20
69.664792
 30
0.0
 10
46.434375
 20
86.280625
 30
0.0
 10
46.434375
 20
101.520625
 30
0.0
  0
SPLINE
  5
119
100
AcDbEntity
  8
0
 62
7
100
AcDbSpline
 70
8
 71
3
 72
8
 73
4
 74
0
 40
0
 40
0
 40
0
 40
0
 40
1
 40
1
 40
1
 40
1
 10
57.732083
 20
40.031458
 30
0.0
 10
60.483750
 20
38.655625
 30
0.0
 10
63.420625
 20
37.623750
 30
0.0
 10
66.436875
 20
36.935833
 30
0.0
  0
LWPOLYLINE
  5
11a
100
AcDbEntity
  8
0
 62
7
100
AcDbPolyline
 90
5
 70
0
 10
41.010417
 20
94.059375
 30
0.0
 10
46.355000
 20
86.254167
 30
0.0
 10
46.355000
 20
66.119375
 30
0.0
 10
57.732083
 20
49.503542
 30
0.0
 10
57.732083
 20
40.031458
 30
0.0
  0
LWPOLYLINE
  5
11b
100
AcDbEntity
  8
0
 62
7
100
AcDbPolyline
 90
3
 70
0
 10
66.436875
 20
36.935833
 30
0.0
 10
57.811458
 20
49.530000
 30
0.0
 10
57.811458
 20
49.530000
 30
0.0
  0
LWPOLYLINE
  5
11c
100
AcDbEntity
  8
0
 62
7
100
AcDbPolyline
 90
9
 70
1
 10
69.267917
 20
73.210208
 30
0.0
 10
80.645000
 20
56.594375
 30
0.0
 10
80.645000
 20
36.459583
 30
0.0
 10
69.267917
 20
53.075417
 30
0.0
 10
69.267917
 20
73.210208
 30
0.0
 10
57.890833
 20
89.826042
 30
0.0
 10
57.890833
 20
109.960833
 30
0.0
 10
69.267917
 20
93.345000
 30
0.0
 10
69.267917
 20
73.210208
 30
0.0
  0
SPLINE
  5
11d
100
AcDbEntity
  8
0
 62
7
100
AcDbSpline
 70
8
 71
3
 72
8
 73
4
 74
0
 40
0
 40
0
 40
0
 40
0
 40
1
 40
1
 40
1
 40
1
 10
63.473542
 20
112.236250
 30
0.0
 10
57.652708
 20
110.437083
 30
0.0
 10
52.572708
 20
107.394375
 30
0.0
 10
48.418750
 20
103.531458
 30
0.0
  0
LWPOLYLINE
  5
11e
100
AcDbEntity
  8
0
 62
7
100
AcDbPolyline
 90
9
 70
1
 10
80.724375
 20
76.755625
 30
0.0
 10
69.347292
 20
93.371458
 30
0.0
 10
69.347292
 20
113.506250
 30
0.0
 10
80.724375
 20
96.890417
 30
0.0
 10
80.724375
 20
76.755625
 30
0.0
 10
92.101458
 20
60.139792
 30
0.0
 10
92.101458
 20
40.005000
 30
0.0
 10
80.724375
 20
56.620833
 30
0.0
 10
80.724375
 20
76.755625
 30
0.0
  0
SPLINE
  5
11f
100
AcDbEntity
  8
0
 62
7
100
AcDbSpline
 70
8
 71
3
 72
8
 73
4
 74
0
 40
0
 40
0
 40
0
 40
0
 40
1
 40
1
 40
1
 40
1
 10
69.188542
 20
36.406667
 30
0.0
 10
74.824167
 20
35.560000
 30
0.0
 10
80.724375
 20
35.930417
 30
0.0
 10
86.545208
 20
37.729583
 30
0.0
  0
SPLINE
  5
120
100
AcDbEntity
  8
0
 62
7
100
AcDbSpline
 70
8
 71
3
 72
8
 73
4
 74
0
 40
0
 40
0
 40
0
 40
0
 40
1
 40
1
 40
1
 40
1
 10
86.545208
 20
37.729583
 30
0.0
 10
92.366042
 20
39.528750
 30
0.0
 10
97.446042
 20
42.571458
 30
0.0
 10
101.600000
 20
46.434375
 30
0.0
  0
LWPOLYLINE
  5
121
100
AcDbEntity
  8
0
 62
7
100
AcDbPolyline
 90
5
 70
0
 10
48.418750
 20
103.531458
 30
0.0
 10
57.811458
 20
89.799583
 30
0.0
 10
57.811458
 20
69.664792
 30
0.0
 10
69.188542
 20
53.048958
 30
0.0
 10
69.188542
 20
36.406667
 30
0.0
  0
SPLINE
  5
122
100
AcDbEntity
  8
0
 62
7
100
AcDbSpline
 70
8
 71
3
 72
8
 73
4
 74
0
 40
0
 40
0
 40
0
 40
0
 40
1
 40
1
 40
1
 40
1
 10
80.830208
 20
113.559167
 30
0.0
 10
75.194583
 20
114.405833
 30
0.0
 10
69.267917
 20
114.035417
 30
0.0
 10
63.473542
 20
112.236250
 30
0.0
  0
LWPOLYLINE
  5
123
100
AcDbEntity
  8
0
 62
7
100
AcDbPolyline
 90
5
 70
0
 10
101.600000
 20
46.434375
 30
0.0
 10
92.207292
 20
60.166250
 30
0.0
 10
92.207292
 20
80.301042
 30
0.0
 10
80.830208
 20
96.916875
 30
0.0
 10
80.830208
 20
113.559167
 30
0.0
  0
SPLINE
  5
124
100
AcDbEntity
  8
0
 62
7
100
AcDbSpline
 70
8
 71
3
 72
8
 73
4
 74
0
 40
0
 40
0
 40
0
 40
0
 40
1
 40
1
 40
1
 40
1
 10
92.286667
 20
109.934375
 30
0.0
 10
89.535000
 20
111.310208
 30
0.0
 10
86.598125
 20
112.342083
 30
0.0
 10
83.581875
 20
113.030000
 30
0.0
  0
LWPOLYLINE
  5
125
100
AcDbEntity
  8
0
 62
7
100
AcDbPolyline
 90
4
 70
0
 10
103.663750
 20
63.711667
 30
0.0
 10
103.663750
 20
83.846458
 30
0.0
 10
92.286667
 20
100.462292
 30
0.0
 10
92.286667
 20
109.934375
 30
0.0
  0
SPLINE
  5
126
100
AcDbEntity
  8
0
 62
7
100
AcDbSpline
 70
8
 71
3
 72
8
 73
4
 74
0
 40
0
 40
0
 40
0
 40
0
 40
1
 40
1
 40
1
 40
1
 10
103.557917
 20
48.471667
 30
0.0
 10
105.674583
 20
50.747083
 30
0.0
 10
107.473750
 20
53.260625
 30
0.0
 10
108.981875
 20
55.932917
 30
0.0
  0
LWPOLYLINE
  5
127
100
AcDbEntity
  8
0
 62
7
100
AcDbPolyline
 90
5
 70
0
 10
83.581875
 20
113.030000
 30
0.0
 10
92.180833
 20
100.462292
 30
0.0
 10
92.180833
 20
80.327500
 30
0.0
 10
103.557917
 20
63.711667
 30
0.0
 10
103.557917
 20
48.471667
 30
0.0
  0
SPLINE
  5
128
100
AcDbEntity
  8
0
 62
7
100
AcDbSpline
 70
8
 71
3
 72
8
 73
4
 74
0
 40
0
 40
0
 40
0
 40
0
 40
1
 40
1
 40
1
 40
1
 10
112.262708
 20
86.518750
 30
0.0
 10
110.490000
 20
92.260208
 30
0.0
 10
107.500208
 20
97.313750
 30
0.0
 10
103.663750
 20
101.441250
 30
0.0
  0
LWPOLYLINE
  5
129
100
AcDbEntity
  8
0
 62
7
100
AcDbPolyline
 90
3
 70
0
 10
108.981875
 20
55.932917
 30
0.0
 10
103.663750
 20
63.711667
 30
0.0
 10
103.663750
 20
63.711667
 30
0.0
  0
SPLINE
  5
12a
100
AcDbEntity
  8
0
 62
7
100
AcDbSpline
 70
8
 71
3
 72
8
 73
4
 74
0
 40
0
 40
0
 40
0
 40
0
 40
1
 40
1
 40
1
 40
1
 10
113.612083
 20
69.320833
 30
0.0
 10
114.405833
 20
74.930000
 30
0.0
 10
114.035417
 20
80.777292
 30
0.0
 10
112.262708
 20
86.518750
 30
0.0
  0
LWPOLYLINE
  5
12b
100
AcDbEntity
  8
0
 62
7
100
AcDbPolyline
 90
3
 70
0
 10
103.663750
 20
101.441250
 30
0.0
 10
103.663750
 20
83.846458
 30
0.0
 10
113.612083
 20
69.320833
 30
0.0
  0
SPLINE
  5
12c
100
AcDbEntity
  8
0
 62
7
100
AcDbSpline
 70
8
 71
3
 72
8
 73
4
 74
0
 40
0
 40
0
 40
0
 40
0
 40
1
 40
1
 40
1
 40
1
 10
28.442708
 20
50.932292
 30
0.0
 10
27.966458
 20
50.059167
 30
0.0
 10
27.569583
 20
49.318333
 30
0.0
 10
27.569583
 20
49.318333
 30
0.0
  0
LWPOLYLINE
  5
12d
100
AcDbEntity
  8
0
 62
7
100
AcDbPolyline
 90
3
 70
0
 10
29.633333
 20
60.960000
 30
0.0
 10
31.564792
 20
56.858958
 30
0.0
 10
28.442708
 20
50.932292
 30
0.0
  0
SPLINE
  5
12e
100
AcDbEntity
  8
0
 62
7
100
AcDbSpline
 70
8
 71
3
 72
8
 73
4
 74
0
 40
0
 40
0
 40
0
 40
0
 40
1
 40
1
 40
1
 40
1
 10
27.622500
 20
49.238958
 30
0.0
 10
27.622500
 20
49.238958
 30
0.0
 10
28.442708
 20
49.186042
 30
0.0
 10
29.448125
 20
49.106667
 30
0.0
  0
LWPOLYLINE
  5
12f
100
AcDbEntity
  8
0
 62
7
100
AcDbPolyline
 90
2
 70
0
 10
27.569583
 20
49.318333
 30
0.0
 10
27.622500
 20
49.238958
 30
0.0
  0
SPLINE
  5
130
100
AcDbEntity
  8
0
 62
7
100
AcDbSpline
 70
8
 71
3
 72
8
 73
4
 74
0
 40
0
 40
0
 40
0
 40
0
 40
1
 40
1
 40
1
 40
1
 10
27.807708
 20
43.471042
 30
0.0
 10
29.210000
 20
44.291250
 30
0.0
 10
30.268333
 20
44.873333
 30
0.0
 10
30.268333
 20
44.873333
 30
0.0
  0
LWPOLYLINE
  5
131
100
AcDbEntity
  8
0
 62
7
100
AcDbPolyline
 90
6
 70
0
 10
29.448125
 20
49.106667
 30
0.0
 10
36.115625
 20
48.498125
 30
0.0
 10
38.496875
 20
44.661667
 30
0.0
 10
24.077083
 20
36.247917
 30
0.0
 10
21.775208
 20
39.952083
 30
0.0
 10
27.807708
 20
43.471042
 30
0.0
  0
SPLINE
  5
132
100
AcDbEntity
  8
0
 62
7
100
AcDbSpline
 70
8
 71
3
 72
8
 73
4
 74
0
 40
0
 40
0
 40
0
 40
0
 40
1
 40
1
 40
1
 40
1
 10
30.215417
 20
44.952708
 30
0.0
 10
30.215417
 20
44.952708
 30
0.0
 10
29.474583
 20
45.005625
 30
0.0
 10
27.966458
 20
45.243750
 30
0.0
  0
LWPOLYLINE
  5
133
100
AcDbEntity
  8
0
 62
7
100
AcDbPolyline
 90
2
 70
0
 10
30.268333
 20
44.873333
 30
0.0
 10
30.215417
 20
44.952708
 30
0.0
  0
SPLINE
  5
134
100
AcDbEntity
  8
0
 62
7
100
AcDbSpline
 70
8
 71
3
 72
8
 73
4
 74
0
 40
0
 40
0
 40
0
 40
0
 40
1
 40
1
 40
1
 40
1
 10
24.368125
 20
51.884792
 30
0.0
 10
25.003125
 20
53.287083
 30
0.0
 10
25.373542
 20
53.922083
 30
0.0
 10
25.373542
 20
53.922083
 30
0.0
  0
LWPOLYLINE
  5
135
100
AcDbEntity
  8
0
 62
7
100
AcDbPolyline
 90
4
 70
0
 10
27.966458
 20
45.243750
 30
0.0
 10
21.828125
 20
46.169792
 30
0.0
 10
21.775208
 20
46.249167
 30
0.0
 10
24.368125
 20
51.884792
 30
0.0
  0
SPLINE
  5
136
100
AcDbEntity
  8
0
 62
7
100
AcDbSpline
 70
8
 71
3
 72
8
 73
4
 74
0
 40
0
 40
0
 40
0
 40
0
 40
1
 40
1
 40
1
 40
1
 10
25.320625
 20
54.001458
 30
0.0
 10
25.320625
 20
54.001458
 30
0.0
 10
24.262292
 20
53.419375
 30
0.0
 10
22.807083
 20
52.678542
 30
0.0
  0
LWPOLYLINE
  5
137
100
AcDbEntity
  8
0
 62
7
100
AcDbPolyline
 90
2
 70
0
 10
25.373542
 20
53.922083
 30
0.0
 10
25.320625
 20
54.001458
 30
0.0
  0
LWPOLYLINE
  5
138
100
AcDbEntity
  8
0
 62
7
100
AcDbPolyline
 90
5
 70
0
 10
22.807083
 20
52.678542
 30
0.0
 10
16.562917
 20
49.530000
 30
0.0
 10
14.710833
 20
53.472292
 30
0.0
 10
29.633333
 20
60.960000
 30
0.0
 10
29.633333
 20
60.960000
 30
0.0
  0
SPLINE
  5
139
100
AcDbEntity
  8
0
 62
7
100
AcDbSpline
 70
8
 71
3
 72
8
 73
4
 74
0
 40
0
 40
0
 40
0
 40
0
 40
1
 40
1
 40
1
 40
1
 10
37.332708
 20
31.882292
 30
0.0
 10
36.247917
 20
30.559375
 30
0.0
 10
36.300833
 20
29.183542
 30
0.0
 10
37.941250
 20
27.860625
 30
0.0
  0
SPLINE
  5
13a
100
AcDbEntity
  8
0
 62
7
100
AcDbSpline
 70
8
 71
3
 72
8
 73
4
 74
0
 40
0
 40
0
 40
0
 40
0
 40
1
 40
1
 40
1
 40
1
 10
37.941250
 20
27.860625
 30
0.0
 10
39.608125
 20
26.564167
 30
0.0
 10
40.957500
 20
26.828750
 30
0.0
 10
41.989375
 20
28.204583
 30
0.0
  0
LWPOLYLINE
  5
13b
100
AcDbEntity
  8
0
 62
7
100
AcDbPolyline
 90
3
 70
0
 10
40.666458
 20
42.783125
 30
0.0
 10
44.000208
 20
39.819792
 30
0.0
 10
37.332708
 20
31.882292
 30
0.0
  0
SPLINE
  5
13c
100
AcDbEntity
  8
0
 62
7
100
AcDbSpline
 70
8
 71
3
 72
8
 73
4
 74
0
 40
0
 40
0
 40
0
 40
0
 40
1
 40
1
 40
1
 40
1
 10
45.481875
 20
25.479375
 30
0.0
 10
42.597917
 20
21.563542
 30
0.0
 10
38.840833
 20
22.330833
 30
0.0
 10
35.586458
 20
24.870833
 30
0.0
  0
SPLINE
  5
13d
100
AcDbEntity
  8
0
 62
7
100
AcDbSpline
 70
8
 71
3
 72
8
 73
4
 74
0
 40
0
 40
0
 40
0
 40
0
 40
1
 40
1
 40
1
 40
1
 10
35.586458
 20
24.870833
 30
0.0
 10
32.332083
 20
27.437292
 30
0.0
 10
30.718125
 20
30.903333
 30
0.0
 10
33.840208
 20
34.633958
 30
0.0
  0
LWPOLYLINE
  5
13e
100
AcDbEntity
  8
0
 62
7
100
AcDbPolyline
 90
4
 70
0
 10
41.989375
 20
28.204583
 30
0.0
 10
48.154167
 20
36.565417
 30
0.0
 10
51.805417
 20
34.025417
 30
0.0
 10
45.481875
 20
25.479375
 30
0.0
  0
LWPOLYLINE
  5
13f
100
AcDbEntity
  8
0
 62
7
100
AcDbPolyline
 90
3
 70
0
 10
33.840208
 20
34.633958
 30
0.0
 10
40.666458
 20
42.783125
 30
0.0
 10
40.666458
 20
42.783125
 30
0.0
  0
LWPOLYLINE
  5
140
100
AcDbEntity
  8
0
 62
7
100
AcDbPolyline
 90
5
 70
1
 10
47.307500
 20
37.359167
 30
0.0
 10
43.206458
 20
34.501667
 30
0.0
 10
43.127083
 20
34.554583
 30
0.0
 10
44.952708
 20
39.211250
 30
0.0
 10
47.307500
 20
37.359167
 30
0.0
  0
SPLINE
  5
141
100
AcDbEntity
  8
0
 62
7
100
AcDbSpline
 70
8
 71
3
 72
8
 73
4
 74
0
 40
0
 40
0
 40
0
 40
0
 40
1
 40
1
 40
1
 40
1
 10
61.145208
 20
22.595417
 30
0.0
 10
61.674375
 20
20.796250
 30
0.0
 10
61.886042
 20
19.817292
 30
0.0
 10
61.886042
 20
19.817292
 30
0.0
  0
LWPOLYLINE
  5
142
100
AcDbEntity
  8
0
 62
7
100
AcDbPolyline
 90
3
 70
0
 10
54.345417
 20
32.570208
 30
0.0
 10
58.684583
 20
30.982708
 30
0.0
 10
61.145208
 20
22.595417
 30
0.0
  0
SPLINE
  5
143
100
AcDbEntity
  8
0
 62
7
100
AcDbSpline
 70
8
 71
3
 72
8
 73
4
 74
0
 40
0
 40
0
 40
0
 40
0
 40
1
 40
1
 40
1
 40
1
 10
62.018333
 20
19.790833
 30
0.0
 10
62.018333
 20
19.790833
 30
0.0
 10
62.309375
 20
21.034375
 30
0.0
 10
62.706250
 20
22.568958
 30
0.0
  0
LWPOLYLINE
  5
144
100
AcDbEntity
  8
0
 62
7
100
AcDbPolyline
 90
2
 70
0
 10
61.886042
 20
19.817292
 30
0.0
 10
62.018333
 20
19.790833
 30
0.0
  0
SPLINE
  5
145
100
AcDbEntity
  8
0
 62
7
100
AcDbSpline
 70
8
 71
3
 72
8
 73
4
 74
0
 40
0
 40
0
 40
0
 40
0
 40
1
 40
1
 40
1
 40
1
 10
57.123542
 20
21.933958
 30
0.0
 10
56.594375
 20
23.627292
 30
0.0
 10
56.356250
 20
24.712083
 30
0.0
 10
56.356250
 20
24.712083
 30
0.0
  0
LWPOLYLINE
  5
146
100
AcDbEntity
  8
0
 62
7
100
AcDbPolyline
 90
6
 70
0
 10
62.706250
 20
22.568958
 30
0.0
 10
64.478958
 20
29.236458
 30
0.0
 10
68.712292
 20
28.231042
 30
0.0
 10
64.399583
 20
12.091458
 30
0.0
 10
59.901667
 20
13.176250
 30
0.0
 10
57.123542
 20
21.933958
 30
0.0
  0
SPLINE
  5
147
100
AcDbEntity
  8
0
 62
7
100
AcDbSpline
 70
8
 71
3
 72
8
 73
4
 74
0
 40
0
 40
0
 40
0
 40
0
 40
1
 40
1
 40
1
 40
1
 10
56.223958
 20
24.738542
 30
0.0
 10
56.223958
 20
24.738542
 30
0.0
 10
55.853542
 20
23.415625
 30
0.0
 10
55.377292
 20
22.013333
 30
0.0
  0
LWPOLYLINE
  5
148
100
AcDbEntity
  8
0
 62
7
100
AcDbPolyline
 90
2
 70
0
 10
56.356250
 20
24.712083
 30
0.0
 10
56.223958
 20
24.738542
 30
0.0
  0
SPLINE
  5
149
100
AcDbEntity
  8
0
 62
7
100
AcDbSpline
 70
8
 71
3
 72
8
 73
4
 74
0
 40
0
 40
0
 40
0
 40
0
 40
1
 40
1
 40
1
 40
1
 10
86.836250
 20
18.123958
 30
0.0
 10
86.915625
 20
14.155208
 30
0.0
 10
84.455000
 20
11.456458
 30
0.0
 10
79.718958
 20
11.112500
 30
0.0
  0
SPLINE
  5
14a
100
AcDbEntity
  8
0
 62
7
100
AcDbSpline
 70
8
 71
3
 72
8
 73
4
 74
0
 40
0
 40
0
 40
0
 40
0
 40
1
 40
1
 40
1
 40
1
 10
79.718958
 20
11.112500
 30
0.0
 10
75.300417
 20
10.821458
 30
0.0
 10
71.146458
 20
12.832292
 30
0.0
 10
70.908333
 20
19.288125
 30
0.0
  0
SPLINE
  5
14b
100
AcDbEntity
  8
0
 62
7
100
AcDbSpline
 70
8
 71
3
 72
8
 73
4
 74
0
 40
0
 40
0
 40
0
 40
0
 40
1
 40
1
 40
1
 40
1
 10
70.908333
 20
19.288125
 30
0.0
 10
70.670208
 20
25.823333
 30
0.0
 10
74.295000
 20
28.283958
 30
0.0
 10
78.528333
 20
28.575000
 30
0.0
  0
SPLINE
  5
14c
100
AcDbEntity
  8
0
 62
7
100
AcDbSpline
 70
8
 71
3
 72
8
 73
4
 74
0
 40
0
 40
0
 40
0
 40
0
 40
1
 40
1
 40
1
 40
1
 10
78.528333
 20
28.575000
 30
0.0
 10
83.132083
 20
28.892500
 30
0.0
 10
85.804375
 20
26.326042
 30
0.0
 10
86.254167
 20
22.833542
 30
0.0
  0
LWPOLYLINE
  5
14d
100
AcDbEntity
  8
0
 62
7
100
AcDbPolyline
 90
5
 70
0
 10
55.377292
 20
22.013333
 30
0.0
 10
53.101875
 20
15.213542
 30
0.0
 10
49.027292
 20
16.721667
 30
0.0
 10
54.345417
 20
32.570208
 30
0.0
 10
54.345417
 20
32.570208
 30
0.0
  0
SPLINE
  5
14e
100
AcDbEntity
  8
0
 62
7
100
AcDbSpline
 70
8
 71
3
 72
8
 73
4
 74
0
 40
0
 40
0
 40
0
 40
0
 40
1
 40
1
 40
1
 40
1
 10
81.782708
 20
22.542500
 30
0.0
 10
81.359375
 20
24.050625
 30
0.0
 10
80.565625
 20
24.950208
 30
0.0
 10
78.581250
 20
24.817917
 30
0.0
  0
SPLINE
  5
14f
100
AcDbEntity
  8
0
 62
7
100
AcDbSpline
 70
8
 71
3
 72
8
 73
4
 74
0
 40
0
 40
0
 40
0
 40
0
 40
1
 40
1
 40
1
 40
1
 10
78.581250
 20
24.817917
 30
0.0
 10
76.729167
 20
24.685625
 30
0.0
 10
75.459167
 20
22.992292
 30
0.0
 10
75.591458
 20
19.632083
 30
0.0
  0
SPLINE
  5
150
100
AcDbEntity
  8
0
 62
7
100
AcDbSpline
 70
8
 71
3
 72
8
 73
4
 74
0
 40
0
 40
0
 40
0
 40
0
 40
1
 40
1
 40
1
 40
1
 10
75.591458
 20
19.632083
 30
0.0
 10
75.750208
 20
16.113125
 30
0.0
 10
77.205417
 20
14.763750
 30
0.0
 10
79.269167
 20
14.896042
 30
0.0
  0
SPLINE
  5
151
100
AcDbEntity
  8
0
 62
7
100
AcDbSpline
 70
8
 71
3
 72
8
 73
4
 74
0
 40
0
 40
0
 40
0
 40
0
 40
1
 40
1
 40
1
 40
1
 10
79.269167
 20
14.896042
 30
0.0
 10
81.332917
 20
15.028333
 30
0.0
 10
82.232500
 20
16.033750
 30
0.0
 10
82.338333
 20
17.832917
 30
0.0
  0
LWPOLYLINE
  5
152
100
AcDbEntity
  8
0
 62
7
100
AcDbPolyline
 90
2
 70
0
 10
86.254167
 20
22.833542
 30
0.0
 10
81.782708
 20
22.542500
 30
0.0
  0
LWPOLYLINE
  5
153
100
AcDbEntity
  8
0
 62
7
100
AcDbPolyline
 90
3
 70
0
 10
82.338333
 20
17.832917
 30
0.0
 10
86.836250
 20
18.123958
 30
0.0
 10
86.836250
 20
18.123958
 30
0.0
  0
LWPOLYLINE
  5
154
100
AcDbEntity
  8
0
 62
7
100
AcDbPolyline
 90
14
 70
1
 10
87.841667
 20
29.659792
 30
0.0
 10
91.995625
 20
31.247292
 30
0.0
 10
94.350417
 20
25.611667
 30
0.0
 10
99.536250
 20
27.966458
 30
0.0
 10
96.837500
 20
33.443333
 30
0.0
 10
100.753333
 20
35.533542
 30
0.0
 10
108.161667
 20
20.558125
 30
0.0
 10
104.245833
 20
18.467917
 30
0.0
 10
101.308958
 20
24.421042
 30
0.0
 10
95.885000
 20
21.960417
 30
0.0
 10
98.425000
 20
15.848542
 30
0.0
 10
94.271042
 20
14.261042
 30
0.0
 10
87.841667
 20
29.659792
 30
0.0
 10
87.841667
 20
29.659792
 30
0.0
  0
LWPOLYLINE
  5
155
100
AcDbEntity
  8
0
 62
7
100
AcDbPolyline
 90
13
 70
1
 10
103.346250
 20
37.491458
 30
0.0
 10
111.336667
 20
45.137917
 30
0.0
 10
113.903125
 20
42.624375
 30
0.0
 10
108.902500
 20
37.835417
 30
0.0
 10
110.807500
 20
35.718750
 30
0.0
 10
115.649375
 20
40.375417
 30
0.0
 10
118.162917
 20
37.914792
 30
0.0
 10
113.162292
 20
33.125833
 30
0.0
 10
115.252500
 20
30.797500
 30
0.0
 10
120.888125
 20
36.195000
 30
0.0
 10
123.454583
 20
33.681458
 30
0.0
 10
114.511667
 20
25.108958
 30
0.0
 10
103.346250
 20
37.491458
 30
0.0
  0
SPLINE
  5
156
100
AcDbEntity
  8
0
 62
7
100
AcDbSpline
 70
8
 71
3
 72
8
 73
4
 74
0
 40
0
 40
0
 40
0
 40
0
 40
1
 40
1
 40
1
 40
1
 10
124.327708
 20
52.546250
 30
0.0
 10
126.206250
 20
52.757917
 30
0.0
 10
127.185208
 20
52.810833
 30
0.0
 10
127.185208
 20
52.810833
 30
0.0
  0
LWPOLYLINE
  5
157
100
AcDbEntity
  8
0
 62
7
100
AcDbPolyline
 90
3
 70
0
 10
113.347500
 20
47.519167
 30
0.0
 10
115.649375
 20
51.540833
 30
0.0
 10
124.327708
 20
52.546250
 30
0.0
  0
SPLINE
  5
158
100
AcDbEntity
  8
0
 62
7
100
AcDbSpline
 70
8
 71
3
 72
8
 73
4
 74
0
 40
0
 40
0
 40
0
 40
0
 40
1
 40
1
 40
1
 40
1
 10
127.238125
 20
52.916667
 30
0.0
 10
127.238125
 20
52.916667
 30
0.0
 10
126.047500
 20
53.419375
 30
0.0
 10
124.618750
 20
54.080833
 30
0.0
  0
LWPOLYLINE
  5
159
100
AcDbEntity
  8
0
 62
7
100
AcDbPolyline
 90
2
 70
0
 10
127.185208
 20
52.810833
 30
0.0
 10
127.238125
 20
52.916667
 30
0.0
  0
SPLINE
  5
15a
100
AcDbEntity
  8
0
 62
7
100
AcDbSpline
 70
8
 71
3
 72
8
 73
4
 74
0
 40
0
 40
0
 40
0
 40
0
 40
1
 40
1
 40
1
 40
1
 10
124.274792
 20
48.498125
 30
0.0
 10
122.502083
 20
48.260000
 30
0.0
 10
121.417292
 20
48.207083
 30
0.0
 10
121.417292
 20
48.207083
 30
0.0
  0
LWPOLYLINE
  5
15b
100
AcDbEntity
  8
0
 62
7
100
AcDbPolyline
 90
6
 70
0
 10
124.618750
 20
54.080833
 30
0.0
 10
118.348125
 20
56.964792
 30
0.0
 10
120.041458
 20
60.986458
 30
0.0
 10
135.202083
 20
54.001458
 30
0.0
 10
133.376458
 20
49.768125
 30
0.0
 10
124.274792
 20
48.498125
 30
0.0
  0
SPLINE
  5
15c
100
AcDbEntity
  8
0
 62
7
100
AcDbSpline
 70
8
 71
3
 72
8
 73
4
 74
0
 40
0
 40
0
 40
0
 40
0
 40
1
 40
1
 40
1
 40
1
 10
121.364375
 20
48.101250
 30
0.0
 10
121.364375
 20
48.101250
 30
0.0
 10
122.581458
 20
47.519167
 30
0.0
 10
123.904375
 20
46.804792
 30
0.0
  0
LWPOLYLINE
  5
15d
100
AcDbEntity
  8
0
 62
7
100
AcDbPolyline
 90
2
 70
0
 10
121.417292
 20
48.207083
 30
0.0
 10
121.364375
 20
48.101250
 30
0.0
  0
LWPOLYLINE
  5
15e
100
AcDbEntity
  8
0
 62
7
100
AcDbPolyline
 90
5
 70
0
 10
123.904375
 20
46.804792
 30
0.0
 10
130.201458
 20
43.418125
 30
0.0
 10
128.031875
 20
39.634583
 30
0.0
 10
113.347500
 20
47.519167
 30
0.0
 10
113.347500
 20
47.519167
 30
0.0
  0
SPLINE
  5
15f
100
AcDbEntity
  8
0
 62
7
100
AcDbSpline
 70
8
 71
3
 72
8
 73
4
 74
0
 40
0
 40
0
 40
0
 40
0
 40
1
 40
1
 40
1
 40
1
 10
38.311667
 20
113.823750
 30
0.0
 10
41.195625
 20
111.204375
 30
0.0
 10
41.698333
 20
107.632500
 30
0.0
 10
38.814375
 20
103.981250
 30
0.0
  0
SPLINE
  5
160
100
AcDbEntity
  8
0
 62
7
100
AcDbSpline
 70
8
 71
3
 72
8
 73
4
 74
0
 40
0
 40
0
 40
0
 40
0
 40
1
 40
1
 40
1
 40
1
 10
38.814375
 20
103.981250
 30
0.0
 10
36.168542
 20
100.647500
 30
0.0
 10
32.120417
 20
99.033542
 30
0.0
 10
26.855208
 20
102.949375
 30
0.0
  0
SPLINE
  5
161
100
AcDbEntity
  8
0
 62
7
100
AcDbSpline
 70
8
 71
3
 72
8
 73
4
 74
0
 40
0
 40
0
 40
0
 40
0
 40
1
 40
1
 40
1
 40
1
 10
26.855208
 20
102.949375
 30
0.0
 10
21.669375
 20
106.785833
 30
0.0
 10
22.357292
 20
111.336667
 30
0.0
 10
25.108958
 20
114.829167
 30
0.0
  0
SPLINE
  5
162
100
AcDbEntity
  8
0
 62
7
100
AcDbSpline
 70
8
 71
3
 72
8
 73
4
 74
0
 40
0
 40
0
 40
0
 40
0
 40
1
 40
1
 40
1
 40
1
 10
25.108958
 20
114.829167
 30
0.0
 10
28.019375
 20
118.506875
 30
0.0
 10
31.750000
 20
118.824375
 30
0.0
 10
34.633958
 20
116.760625
 30
0.0
  0
LWPOLYLINE
  5
163
100
AcDbEntity
  8
0
 62
7
100
AcDbPolyline
 90
11
 70
1
 10
17.832917
 20
102.817083
 30
0.0
 10
21.193125
 20
101.494167
 30
0.0
 10
18.520833
 20
94.085833
 30
0.0
 10
21.642917
 20
93.053958
 30
0.0
 10
24.156458
 20
99.986042
 30
0.0
 10
27.410833
 20
98.689583
 30
0.0
 10
24.976667
 20
91.969167
 30
0.0
 10
30.823958
 20
90.064167
 30
0.0
 10
29.553958
 20
85.804375
 30
0.0
 10
13.573125
 20
90.990208
 30
0.0
 10
17.832917
 20
102.817083
 30
0.0
  0
SPLINE
  5
164
100
AcDbEntity
  8
0
 62
7
100
AcDbSpline
 70
8
 71
3
 72
8
 73
4
 74
0
 40
0
 40
0
 40
0
 40
0
 40
1
 40
1
 40
1
 40
1
 10
31.855833
 20
113.241667
 30
0.0
 10
30.506458
 20
114.008958
 30
0.0
 10
29.236458
 20
113.929583
 30
0.0
 10
27.966458
 20
112.315625
 30
0.0
  0
SPLINE
  5
165
100
AcDbEntity
  8
0
 62
7
100
AcDbSpline
 70
8
 71
3
 72
8
 73
4
 74
0
 40
0
 40
0
 40
0
 40
0
 40
1
 40
1
 40
1
 40
1
 10
27.966458
 20
112.315625
 30
0.0
 10
26.696458
 20
110.701667
 30
0.0
 10
26.987500
 20
108.717292
 30
0.0
 10
29.792083
 20
106.627083
 30
0.0
  0
SPLINE
  5
166
100
AcDbEntity
  8
0
 62
7
100
AcDbSpline
 70
8
 71
3
 72
8
 73
4
 74
0
 40
0
 40
0
 40
0
 40
0
 40
1
 40
1
 40
1
 40
1
 10
29.792083
 20
106.627083
 30
0.0
 10
32.490833
 20
104.616250
 30
0.0
 10
34.581042
 20
104.695625
 30
0.0
 10
35.745208
 20
106.177292
 30
0.0
  0
SPLINE
  5
167
100
AcDbEntity
  8
0
 62
7
100
AcDbSpline
 70
8
 71
3
 72
8
 73
4
 74
0
 40
0
 40
0
 40
0
 40
0
 40
1
 40
1
 40
1
 40
1
 10
35.745208
 20
106.177292
 30
0.0
 10
36.988750
 20
107.764792
 30
0.0
 10
36.750625
 20
109.034792
 30
0.0
 10
35.533542
 20
110.304792
 30
0.0
  0
LWPOLYLINE
  5
168
100
AcDbEntity
  8
0
 62
7
100
AcDbPolyline
 90
2
 70
0
 10
34.633958
 20
116.760625
 30
0.0
 10
31.855833
 20
113.241667
 30
0.0
  0
SPLINE
  5
169
100
AcDbEntity
  8
0
 62
7
100
AcDbSpline
 70
8
 71
3
 72
8
 73
4
 74
0
 40
0
 40
0
 40
0
 40
0
 40
1
 40
1
 40
1
 40
1
 10
49.265417
 20
132.715000
 30
0.0
 10
52.228750
 20
134.090833
 30
0.0
 10
55.112708
 20
134.381875
 30
0.0
 10
56.382708
 20
131.365625
 30
0.0
  0
SPLINE
  5
16a
100
AcDbEntity
  8
0
 62
7
100
AcDbSpline
 70
8
 71
3
 72
8
 73
4
 74
0
 40
0
 40
0
 40
0
 40
0
 40
1
 40
1
 40
1
 40
1
 10
56.382708
 20
131.365625
 30
0.0
 10
57.414583
 20
128.905000
 30
0.0
 10
56.753125
 20
127.820208
 30
0.0
 10
55.483125
 20
126.735417
 30
0.0
  0
LWPOLYLINE
  5
16b
100
AcDbEntity
  8
0
 62
7
100
AcDbPolyline
 90
3
 70
0
 10
35.533542
 20
110.304792
 30
0.0
 10
38.311667
 20
113.823750
 30
0.0
 10
38.311667
 20
113.823750
 30
0.0
  0
SPLINE
  5
16c
100
AcDbEntity
  8
0
 62
7
100
AcDbSpline
 70
8
 71
3
 72
8
 73
4
 74
0
 40
0
 40
0
 40
0
 40
0
 40
1
 40
1
 40
1
 40
1
 10
55.536042
 20
126.629583
 30
0.0
 10
56.911875
 20
126.947083
 30
0.0
 10
58.763958
 20
126.894167
 30
0.0
 10
59.928125
 20
124.142500
 30
0.0
  0
SPLINE
  5
16d
100
AcDbEntity
  8
0
 62
7
100
AcDbSpline
 70
8
 71
3
 72
8
 73
4
 74
0
 40
0
 40
0
 40
0
 40
0
 40
1
 40
1
 40
1
 40
1
 10
59.928125
 20
124.142500
 30
0.0
 10
61.330417
 20
120.835208
 30
0.0
 10
59.187292
 20
118.903750
 30
0.0
 10
56.223958
 20
117.554375
 30
0.0
  0
LWPOLYLINE
  5
16e
100
AcDbEntity
  8
0
 62
7
100
AcDbPolyline
 90
2
 70
0
 10
55.483125
 20
126.735417
 30
0.0
 10
55.536042
 20
126.629583
 30
0.0
  0
SPLINE
  5
16f
100
AcDbEntity
  8
0
 62
7
100
AcDbSpline
 70
8
 71
3
 72
8
 73
4
 74
0
 40
0
 40
0
 40
0
 40
0
 40
1
 40
1
 40
1
 40
1
 10
51.778958
 20
126.682500
 30
0.0
 10
52.943125
 20
127.211667
 30
0.0
 10
53.260625
 20
127.767292
 30
0.0
 10
52.810833
 20
128.878542
 30
0.0
  0
SPLINE
  5
170
100
AcDbEntity
  8
0
 62
7
100
AcDbSpline
 70
8
 71
3
 72
8
 73
4
 74
0
 40
0
 40
0
 40
0
 40
0
 40
1
 40
1
 40
1
 40
1
 10
52.810833
 20
128.878542
 30
0.0
 10
52.361042
 20
129.963333
 30
0.0
 10
51.593750
 20
130.042708
 30
0.0
 10
50.482500
 20
129.513542
 30
0.0
  0
LWPOLYLINE
  5
171
100
AcDbEntity
  8
0
 62
7
100
AcDbPolyline
 90
5
 70
0
 10
56.223958
 20
117.554375
 30
0.0
 10
49.979792
 20
114.670417
 30
0.0
 10
42.492083
 20
129.592917
 30
0.0
 10
49.265417
 20
132.715000
 30
0.0
 10
49.265417
 20
132.715000
 30
0.0
  0
SPLINE
  5
172
100
AcDbEntity
  8
0
 62
7
100
AcDbSpline
 70
8
 71
3
 72
8
 73
4
 74
0
 40
0
 40
0
 40
0
 40
0
 40
1
 40
1
 40
1
 40
1
 10
54.610000
 20
120.570625
 30
0.0
 10
55.880000
 20
121.152708
 30
0.0
 10
56.223958
 20
121.655417
 30
0.0
 10
55.694792
 20
122.925417
 30
0.0
  0
SPLINE
  5
173
100
AcDbEntity
  8
0
 62
7
100
AcDbSpline
 70
8
 71
3
 72
8
 73
4
 74
0
 40
0
 40
0
 40
0
 40
0
 40
1
 40
1
 40
1
 40
1
 10
55.694792
 20
122.925417
 30
0.0
 10
55.192083
 20
124.116042
 30
0.0
 10
54.318958
 20
124.142500
 30
0.0
 10
53.022500
 20
123.560417
 30
0.0
  0
LWPOLYLINE
  5
174
100
AcDbEntity
  8
0
 62
7
100
AcDbPolyline
 90
5
 70
0
 10
50.482500
 20
129.513542
 30
0.0
 10
47.995417
 20
128.349375
 30
0.0
 10
49.397708
 20
125.571250
 30
0.0
 10
51.778958
 20
126.682500
 30
0.0
 10
51.778958
 20
126.682500
 30
0.0
  0
LWPOLYLINE
  5
175
100
AcDbEntity
  8
0
 62
7
100
AcDbPolyline
 90
5
 70
0
 10
53.022500
 20
123.560417
 30
0.0
 10
50.879375
 20
122.555000
 30
0.0
 10
52.387500
 20
119.565208
 30
0.0
 10
54.610000
 20
120.570625
 30
0.0
 10
54.610000
 20
120.570625
 30
0.0
  0
LWPOLYLINE
  5
176
100
AcDbEntity
  8
0
 62
7
100
AcDbPolyline
 90
9
 70
1
 10
79.666042
 20
121.761250
 30
0.0
 10
74.930000
 20
121.761250
 30
0.0
 10
73.554167
 20
124.751042
 30
0.0
 10
67.812708
 20
124.248333
 30
0.0
 10
66.992500
 20
121.073333
 30
0.0
 10
62.335833
 20
120.253125
 30
0.0
 10
66.966042
 20
137.715625
 30
0.0
 10
72.125417
 20
138.165417
 30
0.0
 10
79.666042
 20
121.761250
 30
0.0
  0
SPLINE
  5
177
100
AcDbEntity
  8
0
 62
7
100
AcDbSpline
 70
8
 71
3
 72
8
 73
4
 74
0
 40
0
 40
0
 40
0
 40
0
 40
1
 40
1
 40
1
 40
1
 10
70.828958
 20
131.233333
 30
0.0
 10
70.326250
 20
132.344583
 30
0.0
 10
69.955833
 20
133.323542
 30
0.0
 10
69.955833
 20
133.323542
 30
0.0
  0
LWPOLYLINE
  5
178
100
AcDbEntity
  8
0
 62
7
100
AcDbPolyline
 90
2
 70
0
 10
72.257708
 20
127.978958
 30
0.0
 10
70.828958
 20
131.233333
 30
0.0
  0
SPLINE
  5
179
100
AcDbEntity
  8
0
 62
7
100
AcDbSpline
 70
8
 71
3
 72
8
 73
4
 74
0
 40
0
 40
0
 40
0
 40
0
 40
1
 40
1
 40
1
 40
1
 10
69.876458
 20
133.323542
 30
0.0
 10
69.876458
 20
133.323542
 30
0.0
 10
69.691250
 20
132.291667
 30
0.0
 10
69.373750
 20
131.127500
 30
0.0
  0
LWPOLYLINE
  5
17a
100
AcDbEntity
  8
0
 62
7
100
AcDbPolyline
 90
2
 70
0
 10
69.955833
 20
133.323542
 30
0.0
 10
69.876458
 20
133.323542
 30
0.0
  0
LWPOLYLINE
  5
17b
100
AcDbEntity
  8
0
 62
7
100
AcDbPolyline
 90
4
 70
0
 10
69.373750
 20
131.127500
 30
0.0
 10
68.527083
 20
127.687917
 30
0.0
 10
72.257708
 20
127.978958
 30
0.0
 10
72.257708
 20
127.978958
 30
0.0
  0
SPLINE
  5
17c
100
AcDbEntity
  8
0
 62
7
100
AcDbSpline
 70
8
 71
3
 72
8
 73
4
 74
0
 40
0
 40
0
 40
0
 40
0
 40
1
 40
1
 40
1
 40
1
 10
86.492292
 20
132.529792
 30
0.0
 10
86.783333
 20
131.577292
 30
0.0
 10
87.021458
 20
130.545417
 30
0.0
 10
87.021458
 20
130.545417
 30
0.0
  0
LWPOLYLINE
  5
17d
100
AcDbEntity
  8
0
 62
7
100
AcDbPolyline
 90
4
 70
0
 10
83.872917
 20
126.656042
 30
0.0
 10
79.983542
 20
138.509375
 30
0.0
 10
84.984167
 20
137.556875
 30
0.0
 10
86.492292
 20
132.529792
 30
0.0
  0
SPLINE
  5
17e
100
AcDbEntity
  8
0
 62
7
100
AcDbSpline
 70
8
 71
3
 72
8
 73
4
 74
0
 40
0
 40
0
 40
0
 40
0
 40
1
 40
1
 40
1
 40
1
 10
87.100833
 20
130.518958
 30
0.0
 10
87.100833
 20
130.518958
 30
0.0
 10
87.762292
 20
131.339167
 30
0.0
 10
88.397292
 20
132.106458
 30
0.0
  0
LWPOLYLINE
  5
17f
100
AcDbEntity
  8
0
 62
7
100
AcDbPolyline
 90
2
 70
0
 10
87.021458
 20
130.545417
 30
0.0
 10
87.100833
 20
130.518958
 30
0.0
  0
LWPOLYLINE
  5
180
100
AcDbEntity
  8
0
 62
7
100
AcDbPolyline
 90
8
 70
0
 10
88.397292
 20
132.106458
 30
0.0
 10
91.863333
 20
136.048750
 30
0.0
 10
96.811042
 20
134.831667
 30
0.0
 10
88.370833
 20
125.650625
 30
0.0
 10
87.074375
 20
120.120833
 30
0.0
 10
82.708750
 20
121.073333
 30
0.0
 10
83.872917
 20
126.656042
 30
0.0
 10
83.872917
 20
126.656042
 30
0.0
  0
LWPOLYLINE
  5
181
100
AcDbEntity
  8
0
 62
7
100
AcDbPolyline
 90
13
 70
1
 10
100.197708
 20
133.402917
 30
0.0
 10
110.701667
 20
127.635000
 30
0.0
 10
108.876042
 20
124.539375
 30
0.0
 10
102.393750
 20
128.084792
 30
0.0
 10
101.097292
 20
125.544792
 30
0.0
 10
107.076875
 20
122.263958
 30
0.0
 10
105.277708
 20
119.247708
 30
0.0
 10
99.483333
 20
122.422708
 30
0.0
 10
98.054583
 20
119.644583
 30
0.0
 10
104.378125
 20
116.178542
 30
0.0
 10
102.552500
 20
113.082917
 30
0.0
 10
92.630625
 20
118.533333
 30
0.0
 10
100.197708
 20
133.402917
 30
0.0
  0
SPLINE
  5
182
100
AcDbEntity
  8
0
 62
7
100
AcDbSpline
 70
8
 71
3
 72
8
 73
4
 74
0
 40
0
 40
0
 40
0
 40
0
 40
1
 40
1
 40
1
 40
1
 10
121.628958
 20
117.660208
 30
0.0
 10
124.248333
 20
114.855625
 30
0.0
 10
124.856875
 20
112.183333
 30
0.0
 10
121.761250
 20
109.458125
 30
0.0
  0
SPLINE
  5
183
100
AcDbEntity
  8
0
 62
7
100
AcDbSpline
 70
8
 71
3
 72
8
 73
4
 74
0
 40
0
 40
0
 40
0
 40
0
 40
1
 40
1
 40
1
 40
1
 10
121.761250
 20
109.458125
 30
0.0
 10
119.776875
 20
107.711875
 30
0.0
 10
118.321667
 20
107.235625
 30
0.0
 10
116.575417
 20
107.923542
 30
0.0
  0
LWPOLYLINE
  5
184
100
AcDbEntity
  8
0
 62
7
100
AcDbPolyline
 90
2
 70
0
 10
116.522500
 20
123.110625
 30
0.0
 10
121.628958
 20
117.660208
 30
0.0
  0
LWPOLYLINE
  5
185
100
AcDbEntity
  8
0
 62
7
100
AcDbPolyline
 90
9
 70
0
 10
116.575417
 20
107.923542
 30
0.0
 10
113.903125
 20
101.203125
 30
0.0
 10
110.754583
 20
105.066042
 30
0.0
 10
113.188750
 20
110.569375
 30
0.0
 10
111.733542
 20
112.130417
 30
0.0
 10
107.791250
 20
108.188125
 30
0.0
 10
104.563333
 20
111.257292
 30
0.0
 10
116.522500
 20
123.110625
 30
0.0
 10
116.522500
 20
123.110625
 30
0.0
  0
SPLINE
  5
186
100
AcDbEntity
  8
0
 62
7
100
AcDbSpline
 70
8
 71
3
 72
8
 73
4
 74
0
 40
0
 40
0
 40
0
 40
0
 40
1
 40
1
 40
1
 40
1
 10
115.940417
 20
112.712500
 30
0.0
 10
116.892917
 20
111.680625
 30
0.0
 10
117.713125
 20
111.654167
 30
0.0
 10
118.771458
 20
112.606667
 30
0.0
  0
SPLINE
  5
187
100
AcDbEntity
  8
0
 62
7
100
AcDbSpline
 70
8
 71
3
 72
8
 73
4
 74
0
 40
0
 40
0
 40
0
 40
0
 40
1
 40
1
 40
1
 40
1
 10
118.771458
 20
112.606667
 30
0.0
 10
119.829792
 20
113.532708
 30
0.0
 10
119.803333
 20
114.432292
 30
0.0
 10
118.850833
 20
115.437708
 30
0.0
  0
LWPOLYLINE
  5
188
100
AcDbEntity
  8
0
 62
7
100
AcDbPolyline
 90
2
 70
0
 10
114.220625
 20
114.564583
 30
0.0
 10
115.940417
 20
112.712500
 30
0.0
  0
LWPOLYLINE
  5
189
100
AcDbEntity
  8
0
 62
7
100
AcDbPolyline
 90
4
 70
0
 10
118.850833
 20
115.437708
 30
0.0
 10
117.025208
 20
117.369167
 30
0.0
 10
114.220625
 20
114.564583
 30
0.0
 10
114.220625
 20
114.564583
 30
0.0
  0
SPLINE
  5
18a
100
AcDbEntity
  8
0
 62
7
100
AcDbSpline
 70
8
 71
3
 72
8
 73
4
 74
0
 40
0
 40
0
 40
0
 40
0
 40
1
 40
1
 40
1
 40
1
 10
124.116042
 20
97.366667
 30
0.0
 10
125.174375
 20
98.901250
 30
0.0
 10
125.782917
 20
99.695000
 30
0.0
 10
125.782917
 20
99.695000
 30
0.0
  0
LWPOLYLINE
  5
18b
100
AcDbEntity
  8
0
 62
7
100
AcDbPolyline
 90
3
 70
0
 10
120.729375
 20
85.804375
 30
0.0
 10
119.194792
 20
90.170000
 30
0.0
 10
124.116042
 20
97.366667
 30
0.0
  0
SPLINE
  5
18c
100
AcDbEntity
  8
0
 62
7
100
AcDbSpline
 70
8
 71
3
 72
8
 73
4
 74
0
 40
0
 40
0
 40
0
 40
0
 40
1
 40
1
 40
1
 40
1
 10
125.730000
 20
99.827292
 30
0.0
 10
125.730000
 20
99.827292
 30
0.0
 10
124.592292
 20
99.245208
 30
0.0
 10
123.137083
 20
98.610208
 30
0.0
  0
LWPOLYLINE
  5
18d
100
AcDbEntity
  8
0
 62
7
100
AcDbPolyline
 90
2
 70
0
 10
125.782917
 20
99.695000
 30
0.0
 10
125.730000
 20
99.827292
 30
0.0
  0
SPLINE
  5
18e
100
AcDbEntity
  8
0
 62
7
100
AcDbSpline
 70
8
 71
3
 72
8
 73
4
 74
0
 40
0
 40
0
 40
0
 40
0
 40
1
 40
1
 40
1
 40
1
 10
127.185208
 20
94.694375
 30
0.0
 10
126.232708
 20
93.239167
 30
0.0
 10
125.518333
 20
92.339583
 30
0.0
 10
125.518333
 20
92.339583
 30
0.0
  0
LWPOLYLINE
  5
18f
100
AcDbEntity
  8
0
 62
7
100
AcDbPolyline
 90
6
 70
0
 10
123.137083
 20
98.610208
 30
0.0
 10
116.840000
 20
95.752708
 30
0.0
 10
114.935000
 20
99.668542
 30
0.0
 10
130.148542
 20
106.547708
 30
0.0
 10
132.159375
 20
102.393750
 30
0.0
 10
127.185208
 20
94.694375
 30
0.0
  0
SPLINE
  5
190
100
AcDbEntity
  8
0
 62
7
100
AcDbSpline
 70
8
 71
3
 72
8
 73
4
 74
0
 40
0
 40
0
 40
0
 40
0
 40
1
 40
1
 40
1
 40
1
 10
125.571250
 20
92.207292
 30
0.0
 10
125.571250
 20
92.207292
 30
0.0
 10
126.814792
 20
92.736458
 30
0.0
 10
128.217083
 20
93.292083
 30
0.0
  0
LWPOLYLINE
  5
191
100
AcDbEntity
  8
0
 62
7
100
AcDbPolyline
 90
2
 70
0
 10
125.518333
 20
92.339583
 30
0.0
 10
125.571250
 20
92.207292
 30
0.0
  0
LWPOLYLINE
  5
192
100
AcDbEntity
  8
0
 62
7
100
AcDbPolyline
 90
5
 70
0
 10
128.217083
 20
93.292083
 30
0.0
 10
134.911042
 20
95.832083
 30
0.0
 10
136.339792
 20
91.704583
 30
0.0
 10
120.729375
 20
85.804375
 30
0.0
 10
120.729375
 20
85.804375
 30
0.0
  0
ENDSEC
  0
SECTION
  2
OBJECTS
  0
DICTIONARY
  5
C
330
0
100
AcDbDictionary
  3
ACAD_GROUP
350
D
  3
ACAD_MLINESTYLE
350
17
  0
DICTIONARY
  5
D
330
C
100
AcDbDictionary
  0
DICTIONARY
  5
1A
330
C
100
AcDbDictionary
  0
DICTIONARY
  5
17
330
C
100
AcDbDictionary
  3
STANDARD
350
18
  0
DICTIONARY
  5
19
330
C
100
AcDbDictionary
  0
ENDSEC
  0
EOF
