<?xml version="1.0" standalone="yes"?>
<svg xmlns="http://www.w3.org/2000/svg" width="912" height="288">
<path style="fill:#785032; stroke:none;" d="M476 123C476.986 121.522 477 121.797 477 120C467.89 118.026 460.867 124.914 454 130C456.183 125.822 459.05 121.864 454 119C451.782 123.745 448.952 130.011 444.79 133.347C438.5 138.39 431.569 134.318 430.333 127C429.538 122.291 431.377 117.624 432 113C428.072 114.26 426.174 116.664 422.791 118.73C413.594 124.348 405.941 128.116 400.233 138C394.951 147.147 390.868 164.488 377.005 164.442C371.913 164.425 369.924 159.338 370.8 155C372.611 146.035 377.169 137.106 381.248 129C391.5 108.625 403.806 88.1389 417.654 70C423.887 61.836 432.335 50.709 443 48.3904C447.313 47.4529 451.714 48.4583 456 49L458 42C441.262 42.0018 430.409 51.7541 419.87 64C410.945 74.37 402.688 85.3986 395.424 97C391.487 103.288 387.875 112.425 382.39 117.437C379.203 120.349 373.826 120.891 370 122.81C361.464 127.092 354.607 134.808 349.876 143C348.274 145.773 345.861 149.578 346.423 152.941C347.149 157.286 351.883 157.08 355 155.542C361.321 152.424 367.801 145.167 371 139C370.155 146.378 365.156 153.147 367.434 160.956C368.713 165.342 372.935 166.194 377 165.902C385.363 165.302 390.729 158.707 396 153C398.792 158.063 404.361 157.471 409 154.772C416.971 150.134 423.473 140.756 426 132C432.024 137.353 437.343 137.422 445 136C441.486 140.608 431.531 152.276 438 157C443.59 148.525 447.745 139.284 455.015 132.015C460.324 126.705 464.574 123.361 472 126L468 134C470.953 132.074 472.283 128.794 475.105 126.653C480.055 122.897 488.053 123.016 494 123C472.207 164.375 449.44 212.964 411 241.522C396.073 252.611 365.614 266.374 354 244C352.352 251.966 360.983 257.938 368 258.815C382.519 260.629 397.451 253.348 409 245.279C436.484 226.074 458.206 197.499 475.399 169C481.977 158.096 488.323 147.091 494.576 136C496.733 132.172 498.56 125.471 502.39 123.028C507.674 119.658 519.853 122 526 122C519.555 119.296 509.968 121 503 121C505.563 112.102 511.076 104.199 515.244 96C523.654 79.4564 531.846 60.3423 545.015 47.0039C550.919 41.0235 569.611 28.4591 575.258 42.0394C576.039 43.9188 575.952 46.0117 576 48C580.415 38.8138 577.907 28.2569 566 30.3287C559.05 31.5381 553.078 36.5787 548.001 41.1705C531.661 55.9465 520.504 77.2564 509.397 96C506.267 101.282 503.111 106.563 500.255 112C498.815 114.743 497.445 118.29 494.671 119.972C490.13 122.726 481.341 121.684 476 123M68 79C66.9519 80.8559 66.4875 81.9442 66 84L86 83C83.7556 90.7909 79.1875 97.9314 75.3056 105C68.6166 117.18 61.8339 129.31 54.3079 141C50.2898 147.241 45.0081 153.241 42 160C45.6204 158.105 51.4189 157.051 54.3627 154.4C57.1592 151.883 58.7442 147.242 60.5756 144C64.7725 136.571 70.0701 129.003 73 121L75 121C78.9133 130.245 87.4846 138.447 94 146C108.26 162.53 124.059 179.722 147 182.711C152.717 183.455 158.329 182.714 164 182.049C170.359 181.304 176.444 179.159 182 176C178.019 175.334 173.848 178.124 170 179.279C164.174 181.026 158.059 181.396 152 180.907C140.885 180.009 131.79 172.282 124 165.025C116.081 157.647 108.441 150.298 101.439 142C97.0417 136.789 92.6927 131.474 88.6273 126C87.0961 123.938 84.19 121.006 85.1674 118.174C86.7801 113.5 95.1255 110.185 99 107.656C108.485 101.464 118.118 95.4089 128 89.8611C132.501 87.3343 138.93 85.1911 142 81C133.016 80.3316 126.116 86.8754 119 91.6698C104.523 101.423 89.55 110.372 75 120C78.0221 112.987 82.475 106.541 86.3997 100C91.4554 91.5736 94.4475 83.3718 105 82C100.777 80.232 96.4334 81.7665 92 81.9606C83.6881 82.3246 75.6959 82.4198 68 79M255 124L263 124C256.922 135.54 250.693 146.299 240 154.239C236.517 156.825 227.938 162.629 226.361 154.977C223.762 142.364 241.728 134.713 239 122L236 122C232.236 130.736 226.902 140.758 220.674 147.985C219.369 149.499 214.22 155.205 212.241 151.573C211.149 149.57 212.913 146.76 213.758 145C216.567 139.144 219.788 133.615 223.03 128C223.996 126.327 226.769 120.189 222.15 120.921C218.498 121.5 215.758 129.136 214.255 132C209.904 140.29 203.634 146.757 196 152.211C193.13 154.263 186.904 158.883 183.322 156.292C179.478 153.511 182.456 147.311 183.873 144C187.343 135.89 192.49 119.385 203 121C200.943 119.418 199.613 119.174 197 119L200 114C196.187 114.924 193.481 117.113 189.91 118.481C180.016 122.27 171.539 125.406 164.468 134.004C160.899 138.343 157.52 143.572 155.909 149C155.199 151.391 154.629 155.07 157.434 156.381C164.353 159.617 173.931 148.058 178 144C177.373 145.977 176.662 147.951 176.326 150.005C175.017 157.99 179.515 161.107 187 158.779C195.279 156.205 201.984 149.966 208 144C207.102 146.466 205.784 149.246 206.361 151.941C208.37 161.322 219.779 152.18 222 148C222.185 151.212 221.149 155.865 223.028 158.682C225.089 161.773 229.977 161.135 233 160.15C240.54 157.693 246.543 151.442 252 146C252.008 148.21 251.73 150.803 252.603 152.893C256.804 162.942 274.215 153.043 280 150C274.126 148.626 268.151 156.885 262.228 152.393C255.325 147.157 262.883 135.558 265.757 130.001C266.886 127.817 268.004 125.331 270.213 124.028C275.189 121.092 286.248 122.004 292 122C286.041 119.5 277.436 121 271 121C275.546 111.274 281.845 99.8677 291 94C277.359 91.6103 273.087 111.141 266.096 118.682C262.782 122.256 257.741 119.771 255 124M187 101C187.908 101.202 189.095 101.787 190.117 101.522C197.523 99.5978 192.441 90.4686 188.015 97.9483C187.483 98.8489 187.292 100.039 187 101M200 103C204.923 102.231 206.631 99.8783 207 95C202.077 95.7687 200.369 98.1217 200 103M141 119C135.722 127.95 130.302 136.889 125.306 146C123.068 150.08 120.048 154.17 125 157C130.39 147.861 135.066 137.941 143.09 130.755C148.306 126.082 152.601 122.834 159 127C160.932 125.458 162.397 123.899 164 122C157.276 115.214 146.422 125.312 141 130C142.753 126.045 144.144 123.301 143 119L141 119M319 145C316.93 149.463 314.014 152.962 318 157C323.564 148.591 327.901 139.272 335.039 132.015C337.913 129.095 341.71 125.402 346 124.862C348.752 124.515 351.479 126.112 354 127C355.183 124.672 356.223 122.489 357 120C347.28 117.914 340.314 125.909 333 131C335.854 126.986 339.467 122.101 334 119C328.491 131.785 320.341 144.05 308 150.957C299.618 155.648 287.233 153.019 292.287 141.019C295.745 132.81 308.279 135.229 313.061 126.985C315.894 122.1 313.608 118.36 307.999 119.345C297.539 121.181 289.44 132.693 286.09 142C282.137 152.982 287.325 159.15 299 156.471C302.163 155.745 305.132 154.216 308 152.741C312.11 150.627 315.594 148.107 319 145M191 120C187.899 128.523 181.744 135.372 179 144C177.805 143.402 178.023 143.534 177 142C173.253 147.319 168.495 152.456 162 154C162.665 139.481 175.909 121.328 191 120M295 134C295.903 131.907 296.824 129.9 298.108 127.999C299.006 126.67 299.982 125.291 301.185 124.215C302.054 123.437 302.949 122.573 304.01 122.053C307.612 120.289 310.602 121.714 309.087 126.015C308.07 128.901 305.705 131.439 302.995 132.821C300.507 134.09 297.711 133.975 295 134M424 120C427.074 130.4 421.677 140.296 414.816 147.996C412.909 150.136 408.054 155.986 404.603 153.863C401.338 151.855 403.44 144.688 404.468 142C407.979 132.825 414.632 123.483 424 120M381 121C377.621 132.482 365.615 149.083 354 153C353.003 148.202 354.999 144.213 357.313 140C362.357 130.816 369.872 121.577 381 121M141 130L140 131L141 130M454 130L453 131L454 130M178 141L179 142L178 141M253 145L252 146L253 145M552 249C557.344 252.844 562.774 252.156 569 251C567.619 252.942 566.324 254.815 565.348 257.005C564.637 258.599 564.037 260.284 563.696 262C562.661 267.212 565.483 271.108 571.001 270.656C578.292 270.058 584.02 265.687 590 262C588.074 264.938 587.346 266.544 588 270L590 270C595.3 259.937 603.529 243.113 617 247C617.89 245.255 618.453 243.875 619 242C612.791 240.711 607.96 244.657 603 248C603.592 245.312 603.675 243.659 603 241C595.146 248.251 592.686 258.567 583 264.532C580.212 266.249 576.475 268.362 573.059 267.639C564.946 265.921 569.95 254.957 576 254C574.494 253.317 573.685 253.174 572 253C573.971 248.858 576.302 245.73 580 243C572.087 242.35 568.304 253.599 559.015 249.047C557.627 248.367 556.402 247.147 555.434 245.967C554.159 244.411 553.633 242.859 553 241C548.558 244.793 550.487 248.803 549.319 254C547.823 260.651 544.02 265.868 538 269C536.057 260.542 540.539 252.42 544.247 245C552.543 228.397 561.792 209.286 575.039 196.039C582.555 188.524 591.001 183.975 601 189C600.125 173.161 581.828 187.381 576.004 192.428C558.771 207.364 545.767 230.562 536.167 251C534.943 253.606 533.577 256.219 532.789 259C530.29 267.807 535.763 273.86 543.907 267.431C549.544 262.981 551.7 255.885 552 249M682 241C684.598 248.042 679.705 251.935 673 253C674.98 248.842 677.403 245.872 681 243C677.771 242.735 675.426 244.786 673.174 247.094C667.431 252.978 664.173 259.857 657 264.451C656.052 265.059 655.047 265.72 654 266.145C643.011 270.609 648.928 256.398 651.428 252C653.323 248.666 655.375 245.476 657 242C649.226 243.603 643.576 254.74 641.642 261.999C639.672 269.394 646.39 270.58 652 268.775C653.771 268.206 655.421 267.42 657 266.438C659.926 264.618 662.473 262.32 665 260C665.002 262.424 664.577 265.503 665.603 267.772C669.306 275.955 684.224 266.23 689 264C687.988 268.446 690.392 270.909 694.997 268.856C699.846 266.694 703.369 261.697 707 258C705.468 261.977 703.084 266.613 703.518 270.996C704.321 279.113 712.807 278.353 718 275.03C725.468 270.251 731.018 261.192 734 253C728.47 258.455 725.763 266.216 719.829 271.532C717.548 273.575 714.326 276.066 711.044 275.573C707.722 275.074 706.44 272.022 706.869 268.999C707.773 262.628 711.419 255.701 714.27 250C723.131 232.278 733.976 214.278 746.615 199.001C753.436 190.756 761.169 184.71 772 188L774 182C761.598 178.598 749.508 192.623 742.439 201C736.074 208.543 730.331 216.667 725.053 225C722.251 229.424 719.983 234.885 716.39 238.721C711.93 243.485 704.062 244.342 699.015 249.093C692.507 255.22 688.717 263.158 680 266.647C673.421 269.279 667.464 263.876 671.318 257.148C672.2 255.607 673.433 254.825 675.055 254.213C678.871 252.773 682.752 252.091 685.566 248.787C689.291 244.412 686.885 241.381 682 241M654 204L649 202C648.177 204.712 647.433 205.538 645 207C645.18 204.353 644.819 202.532 644 200C639.046 202.642 635.46 202.22 630 202C629.151 204.971 626.811 209.586 625 212C633.014 215.731 640.311 216 649 216C648.583 219.301 647.101 223.824 649.604 226.643C652.178 229.541 656.604 227.59 659.911 228.549C662.065 229.174 663.797 230.588 666.089 230.817C669.627 231.17 673.526 229.996 677 229.414C684.174 228.21 692.189 228.987 696.436 221.985C698.589 218.435 698 213.981 698 210C688.496 208.516 693.43 199.573 687.656 194.394C682.943 190.166 679.422 192.443 674 191.672C666.546 190.612 658.782 185.607 654.483 195.015C653.926 196.235 653.536 197.646 653.363 198.975C653.116 200.868 653.507 202.203 654 204M637 192C638.248 192.685 638.548 192.749 640 193C638.752 192.315 638.452 192.251 637 192M884 201C883.11 209.192 876.566 215.793 871.6 222C860.221 236.224 847.791 251.071 834 263C834.876 251.904 837.599 241.013 839.13 230C839.785 225.291 841.125 219.381 838.142 215.148C834.503 209.985 825.998 212.112 821 213.749C817.805 214.796 814.893 216.318 812 218C817.537 218.639 822.16 213.205 827.985 216.18C834.369 219.441 834.521 226.762 833.711 233C831.977 246.345 828.014 258.971 825 272C834.291 269.02 837.63 262.938 844.089 256L875.975 222C881.024 216.581 890.813 208.28 884 201M670 209C670.429 212.15 672.211 212.725 675 214C673.363 216.183 674.762 216.448 672 217L676 218L676 220C672.884 219.928 670.585 219.768 668 218L671 215C667.597 214.271 668.013 212.194 668 209L670 209M500 211.465C484.112 214.323 472.155 225.253 466.018 240C463.037 247.164 460.841 257.073 465.854 263.895C471.204 271.174 483.841 271.846 492 270.561C507.396 268.137 520.99 257.397 526.982 243C529.618 236.668 531.919 227.564 528.682 221.004C524.132 211.783 509.103 209.827 500 211.465M667 211C666.463 214.316 665.798 216.099 663 218C663.507 215.564 664.12 213.326 665 211L667 211M504 212.304C520.972 210.509 525.986 223.791 522.073 238C517.952 252.967 504.03 268.291 488 269.823C472.593 271.295 466.268 259.564 470.671 246C475.689 230.545 486.592 214.145 504 212.304M581 241C582.373 246.027 580.864 248.694 577 252C583.848 253.114 591.023 241.781 581 241M627 241C622.524 250.464 614.977 258.878 612 269L613 270L615 270C620.457 261.085 629.168 241.25 642 248C643.561 244.057 643.35 240.32 637.995 242.233C633.701 243.767 630.241 246.925 627 250C628.778 246.447 630.617 243.698 627 241M786 254C782.271 256.132 779.439 259.498 776 262.1C772.678 264.613 768.41 267.799 764.005 267.667C758.342 267.497 757.204 261.366 759.573 257.148C762.247 252.386 769.88 253.238 773.566 248.812C775.426 246.577 776.784 242.245 772.851 241.362C763.894 239.35 754.798 253.796 753.38 261C752.158 267.212 755.522 271.629 762 270.528C764.064 270.177 766.082 269.487 768 268.662C771.166 267.301 774.268 265.576 777 263.471C780.498 260.774 783.47 257.591 786 254M771 242C772.708 249.093 767.482 252.412 761 253C762.986 247.766 765.87 244.306 771 242M715 243C710.387 251.756 703.465 264.889 693 267C695.525 256.116 702.768 243.636 715 243M603 248C602.455 249.635 602.635 249.455 601 250C601.545 248.365 601.365 248.545 603 248M708 257L707 258L708 257M786 270C790.519 269.296 792.526 267.284 794 263C788.288 261.612 786.3 264.57 786 270M857 270C862.332 269.594 864.412 267.263 865 262C859.668 262.406 857.588 264.737 857 270z"/>
</svg>
