<?xml version="1.0" encoding="utf-8"?>
<!-- Generator: Adobe Illustrator 22.0.1, SVG Export Plug-In . SVG Version: 6.00 Build 0)  -->
<svg version="1.1" xmlns="http://www.w3.org/2000/svg" xmlns:xlink="http://www.w3.org/1999/xlink" x="0px" y="0px"
	 viewBox="0 0 150.2 113.2" style="enable-background:new 0 0 150.2 113.2;" xml:space="preserve">
<style type="text/css">
	.st0{fill:#2A6BB7;}
	.st1{fill:#FFFFFF;}
	.st2{font-family:'BrushScript';}
	.st3{font-size:21.2626px;}
	.st4{fill:none;}
</style>
<g id="Ebene_3">
	<ellipse class="st0" cx="74.6" cy="57" rx="66.6" ry="48.3"/>
</g>
<g id="Ebene_1">
</g>
<g id="Schrift_Hof">
	<g>
		<path class="st1" d="M52.8,58.1c0.3-0.5,0.7-1.1,1.2-1.4c2-1.6,4.1-3.2,6.1-4.9c2.6-2.2,5.1-4.5,7.5-6.9c1.3-1.3,2.5-2.8,3.7-4.2
			c1.9-2.1,3.5-4.4,5-6.8c0.6-1,0.8-1.9,1.3-1.3l0.1,0.1c0,0,4.8,5.9,8.5,9.3c3.7,3.4,5.9,5.2,14.1,8.6c8.4,3.5,14,0.3,15.9-0.9
			s3.9-4,3.9-4s-0.4,7.2-0.6,7.8s-6.1,1.9-7.3,2.1c-1.2,0.2-6.9,0.9-16.7-3.2S77.5,38.1,77.5,38.1l0,0c-4.6,4.7-8.8,9.6-13.1,14.4
			l-0.1,0.1c2.8-0.8,6.2-1.5,8.7-1.6c3-0.1,4,1.6,4.1,3.4c0.1,2.3-2,4.6-3.4,6.2l-4,4.6l5.6-0.9l6.3-8.6c0.4-0.6,1.9-2.7,2.6-2.7
			c0.5,0,0.6,0.4,0.7,0.8c0,1.2,0,2-2.8,5.4l-3.8,5c1.7,0,3.5-0.1,5,0.7c-1.7,1.4-3.1,3.1-4.2,5.1c-2.1-0.3-1.3-0.2-3.7-0.1
			c-0.5,1-1.8,2.7-1.7,3.8c0,0.7,0.3,1.5,0.5,2.2c-1.2-0.2-3,1.7-3.9,1.4c-0.6-0.2-0.9-0.7-0.7-1.8c0.1-1.1,0.7-2.8,1.9-5.4
			l-6.7,1.2L61,75.8c-0.4,0.6-1.2,2.1-2,2.2c-0.8,0-1.8-0.7-1.9-1.5c0-1,2.5-3.7,2.9-4.7c-2.6,0.3-3.7-0.1-3.8-1.3
			c0-0.8,0.9-2.8,1.9-2.9c0.3,0,0.6,0.2,0.9,0.2c0.4,0,0.4-0.3,5.9-1.6c1.3-1.4,3.9-4.4,6.9-8.2c0.5-0.5,1.5-1.9,1.4-2.6
			c0-0.7-0.9-0.8-1.3-0.8c-1.9,0.1-6.5,1.6-12.4,4.4c0.3,0.1,0.5,0.2,0.5,0.5c0,0.5-0.4,0.8-0.9,0.9c-2.7,1.1-2.4,1.1-4.9,2.5
			c-0.4,0.2-0.9,0.6-1.4,0.6c-0.8,0-1.1-1-1.2-1.6c0-1.1,0.5-3.2,1.1-4L52.8,58.1z"/>
		<path class="st1" d="M95.8,71.1c-1.6,2.2-3.1,3.1-5.8,3.2c-1.5,1.6-3.2,2.9-5.5,3c-1.9,0.1-3.7-1.8-4-5.1c-0.2-2.7,1.1-4.6,3-6.3
			c1.9-1.7,4.5-2.8,6.7-3c0.8-0.1,2,0.2,2.1,1.2c0,0.5-0.4,0.8-0.8,1c1.1,0.2,1.4,1,1.4,2.1c0.1,1.6-0.6,2.9-1.3,4.4
			c1.6,0.2,2.6-1.2,3.7-2.1L95.8,71.1z M88.6,67.1L88.6,67.1c-1.3,0.7-3,1.7-4,2.8c-0.8,0.8-1.4,2.3-1.4,3.4c0,1.1,0.8,1.4,1.7,1.3
			c1.2,0,1.9-0.8,2.8-1.6c-0.3-0.6-0.5-1-0.5-1.7C87,69.9,87.9,68.3,88.6,67.1L88.6,67.1L88.6,67.1z"/>
		<path class="st1" d="M99.8,70.1c1.1,0.6,1.5,1.8,2,2.8l4.8-3.3l0.5,1.3c-1.4,1.4-2.8,2.7-4.6,3.7c0.2,0.7,0.2,1.3,0.1,2
			c-0.1,4.4-5.1,8.6-7.7,9.1c-1.7,0.3-2.3-3.1-2.3-4.3c-0.1-2.4,1.4-5.3,2.3-7.5c-0.6-0.6-1.1-1.1-1.1-2c-0.1-1.5,0.9-1.9,1.9-2.5
			c2.1-1.3,3.2-3,4.3-5.2c0.9-1.8,3.3-7.7,4.9-8c0.8-0.1,1.5-0.1,1.7,0.5c0.3,0.9,0.3,2.1-0.5,3.3L99.8,70.1z M99.9,75.5
			c-1.8,0.1-1.1,0.2-2.6-0.2c-0.9,1.6-1.4,3-1.5,4.2c-0.1,1.2,0.3,2.2,0.9,3.2C98.8,81.1,100.3,78.2,99.9,75.5z"/>
	</g>
	<text transform="matrix(1.0486 0 0 1 27.3985 44.3623)" class="st1 st2 st3">Zum</text>
</g>
<g id="Dach">
</g>
<g id="Rundsatz-unten">
	<path id="SVGID_x5F_1_x5F_" class="st4" d="M135.6,57c0-23.8-27.3-43.1-61-43.1s-61,19.3-61,43.1S41,100,74.6,100
		S135.6,80.7,135.6,57z"/>
	<text>	<textPath  xlink:href="#SVGID_x5F_1_x5F_" startOffset="-296766.9375%">
<tspan  class="st1" style="font-family:'AntiqueOlive-Bold'; font-size:14px; letter-spacing:-30;">Hofsgrund</tspan>	</textPath>
</text>
</g>
<g id="RUNDSATZ-OBEN">
	<path id="SVGID_x5F_2_x5F_" class="st4" d="M124,57c0,19.3-22.1,34.9-49.4,34.9S25.3,76.2,25.3,57s22.1-34.9,49.4-34.9
		S124,37.7,124,57z"/>
	<text>	<textPath  xlink:href="#SVGID_x5F_2_x5F_" startOffset="33.439%">
<tspan  class="st1" style="font-family:'AntiqueOlive-Bold'; font-size:14px; letter-spacing:-30;">Gasthof</tspan>	</textPath>
</text>
</g>
</svg>
