0
SECTION
2
HEADER
9
$INSUNITS
70
4
9
$ACADVER
1
AC1014
9
$HANDSEED
5
FFFF
0
ENDSEC
0
SECTION
2
TABLES
0
TABLE
2
VPORT
5
8
100
AcDbSymbolTable
0
ENDTAB
0
TABLE
2
LTYPE
5
5
100
AcDbSymbolTable
0
LTYPE
5
14
100
AcDbSymbolTableRecord
100
AcDbLinetypeTableRecord
2
BYBLOCK
70
0
0
LTYPE
5
15
100
AcDbSymbolTableRecord
100
AcDbLinetypeTableRecord
2
BYLAYER
70
0
0
ENDTAB
0
TABLE
2
LAYER
5
2
100
AcDbSymbolTable
70
2
0
LAYER
5
50
100
AcDbSymbolTableRecord
100
AcDbLayerTableRecord
2
0
70
0
6
CONTINUOUS
0
ENDTAB
0
TABLE
2
STYLE
5
3
100
AcDbSymbolTable
70
1
0
STYLE
5
11
100
AcDbSymbolTableRecord
100
AcDbTextStyleTableRecord
2
STANDARD
70
0
0
ENDTAB
0
TABLE
2
VIEW
5
6
100
AcDbSymbolTable
70
0
0
ENDTAB
0
TABLE
2
UCS
5
7
100
AcDbSymbolTable
70
0
0
ENDTAB
0
TABLE
2
APPID
5
9
100
AcDbSymbolTable
70
2
0
APPID
5
12
100
AcDbSymbolTableRecord
100
AcDbRegAppTableRecord
2
ACAD
70
0
0
ENDTAB
0
TABLE
2
DIMSTYLE
5
A
100
AcDbSymbolTable
70
1
0
ENDTAB
0
TABLE
2
BLOCK_RECORD
5
1
100
AcDbSymbolTable
70
1
0
BLOCK_RECORD
5
1F
100
AcDbSymbolTableRecord
100
AcDbBlockTableRecord
2
*MODEL_SPACE
0
BLOCK_RECORD
5
1B
100
AcDbSymbolTableRecord
100
AcDbBlockTableRecord
2
*PAPER_SPACE
0
ENDTAB
0
ENDSEC
0
SECTION
2
BLOCKS
0
BLOCK
5
20
100
AcDbEntity
100
AcDbBlockBegin
2
*MODEL_SPACE
0
ENDBLK
5
21
100
AcDbEntity
100
AcDbBlockEnd
0
BLOCK
5
1C
100
AcDbEntity
100
AcDbBlockBegin
2
*PAPER_SPACE
0
ENDBLK
5
1D
100
AcDbEntity
100
AcDbBlockEnd
0
ENDSEC
0
SECTION
2
ENTITIES
0
ELLIPSE
5
100
100
AcDbEntity
8
0
100
AcDbEllipse
10
0.042409273835621875
20
0.074678498216353972
30
0
11
70.485000000000014
21
0
31
0.0
40
0.72522522522522526
41
0
42
6.2831853071795862
0
SPLINE
5
101
100
AcDbEntity
8
0
100
AcDbSpline
70
1064
71
3
72
8
73
4
74
0
42
0.000000001
43
0.0000000001
44
0.0000000001
40
0
40
0
40
0
40
0
40
1
40
1
40
1
40
1
10
-23.029258200275294
20
-1.089486553561807
30
0
10
-22.71175900771955
20
-0.56031988689514201
30
0
10
-22.288424059497707
20
0.074678498216353972
30
0
10
-21.759257392831046
20
0.39218172799336593
30
0
0
SPLINE
5
102
100
AcDbEntity
8
0
100
AcDbSpline
70
1064
71
3
72
8
73
4
74
0
42
0.000000001
43
0.0000000001
44
0.0000000001
40
0
40
0
40
0
40
0
40
1
40
1
40
1
40
1
10
-21.759257392831046
20
0.39218172799336593
30
0
10
-19.642590726164375
20
2.0855134464381919
30
0
10
-17.420092341052886
20
3.7788492021042952
30
0
10
-15.303425674386215
20
5.5780166762152117
30
0
0
SPLINE
5
103
100
AcDbEntity
8
0
100
AcDbSpline
70
1064
71
3
72
8
73
4
74
0
42
0.000000001
43
0.0000000001
44
0.0000000001
40
0
40
0
40
0
40
0
40
1
40
1
40
1
40
1
10
-15.303425674386215
20
5.5780166762152117
30
0
10
-12.551760622608059
20
7.9063508169928021
30
0
10
-9.9059272892747252
20
10.340516676215215
30
0
10
-7.3659256743862134
20
12.880518291103726
30
0
0
SPLINE
5
104
100
AcDbEntity
8
0
100
AcDbSpline
70
1064
71
3
72
8
73
4
74
0
42
0.000000001
43
0.0000000001
44
0.0000000001
40
0
40
0
40
0
40
0
40
1
40
1
40
1
40
1
10
-7.3659256743862134
20
12.880518291103726
30
0
10
-5.9900891112758625
20
14.2563508169928
30
0
10
-4.7200923410528794
20
15.843850816992804
30
0
10
-3.4500955708299053
20
17.325519098547979
30
0
0
SPLINE
5
105
100
AcDbEntity
8
0
100
AcDbSpline
70
1064
71
3
72
8
73
4
74
0
42
0.000000001
43
0.0000000001
44
0.0000000001
40
0
40
0
40
0
40
0
40
1
40
1
40
1
40
1
10
-3.4500955708299053
20
17.325519098547979
30
0
10
-1.4392606226080584
20
19.548017483659468
30
0
10
0.25407109583676757
20
21.982187380103152
30
0
10
1.8415710958367626
20
24.522184957770392
30
0
0
SPLINE
5
106
100
AcDbEntity
8
0
100
AcDbSpline
70
1064
71
3
72
8
73
4
74
0
42
0.000000001
43
0.0000000001
44
0.0000000001
40
0
40
0
40
0
40
0
40
1
40
1
40
1
40
1
10
1.8415710958367626
20
24.522184957770392
30
0
10
2.4765694809482497
20
25.580518291103726
30
0
10
2.6882409922804484
20
26.533017887381597
30
0
10
3.2174076589471134
20
25.898017483659469
30
0
0
LINE
5
107
100
AcDbEntity
8
0
100
AcDbLine
10
3.2174076589471134
20
25.898017483659469
30
0
11
3.3232393773919378
21
25.792185765214647
31
0
0
SPLINE
5
108
100
AcDbEntity
8
0
100
AcDbSpline
70
1064
71
2
72
6
73
3
74
0
42
0.000000001
43
0.0000000001
44
0.0000000001
40
0
40
0
40
0
40
1
40
1
40
1
10
3.3232393773919355
20
25.792185765214647
30
0
10
8.4032426071689592
20
19.548017483659468
30
0
10
12.319072710725276
20
15.949686572658903
30
0
0
SPLINE
5
109
100
AcDbEntity
8
0
100
AcDbSpline
70
1064
71
3
72
8
73
4
74
0
42
0.000000001
43
0.0000000001
44
0.0000000001
40
0
40
0
40
0
40
0
40
1
40
1
40
1
40
1
10
12.319072710725276
20
15.949686572658903
30
0
10
16.234902814281593
20
12.351351624437052
30
0
10
18.563240992280452
20
10.446352431881314
30
0
10
27.241571095836772
20
6.8480215208807405
30
0
0
SPLINE
5
110
100
AcDbEntity
8
0
100
AcDbSpline
70
1064
71
3
72
8
73
4
74
0
42
0.000000001
43
0.0000000001
44
0.0000000001
40
0
40
0
40
0
40
0
40
1
40
1
40
1
40
1
10
27.241571095836772
20
6.8480215208807405
30
0
10
36.131572710725273
20
3.1438548542140765
30
0
10
42.058237762503445
20
6.5305223283249969
30
0
10
44.06907271072528
20
7.8005231357692484
30
0
0
SPLINE
5
111
100
AcDbEntity
8
0
100
AcDbSpline
70
1064
71
2
72
6
73
3
74
0
42
0.000000001
43
0.0000000001
44
0.0000000001
40
0
40
0
40
0
40
1
40
1
40
1
10
44.06907271072528
20
7.8005231357692484
30
0
10
46.079907658947121
20
9.0705239432135087
30
0
10
48.196574325613796
20
12.033856469102586
30
0
0
SPLINE
5
112
100
AcDbEntity
8
0
100
AcDbSpline
70
1064
71
2
72
6
73
3
74
0
42
0.000000001
43
0.0000000001
44
0.0000000001
40
0
40
0
40
0
40
1
40
1
40
1
10
48.196574325613796
20
12.033856469102586
30
0
10
47.77323937739196
20
4.413855661658328
30
0
10
47.561575940502294
20
3.7788572765468409
30
0
0
SPLINE
5
113
100
AcDbEntity
8
0
100
AcDbSpline
70
1064
71
3
72
8
73
4
74
0
42
0.000000001
43
0.0000000001
44
0.0000000001
40
0
40
0
40
0
40
0
40
1
40
1
40
1
40
1
10
47.561575940502294
20
3.7788572765468409
30
0
10
47.34991250361265
20
3.1438588914353449
30
0
10
41.105744222057474
20
1.7680223283249941
30
0
10
39.835739377391945
20
1.5563588914353499
30
0
0
SPLINE
5
114
100
AcDbEntity
8
0
100
AcDbSpline
70
1064
71
3
72
8
73
4
74
0
42
0.000000001
43
0.0000000001
44
0.0000000001
40
0
40
0
40
0
40
0
40
1
40
1
40
1
40
1
10
39.835739377391945
20
1.5563588914353499
30
0
10
38.565742607168971
20
1.3446914173244284
30
0
10
32.53323776250344
20
0.60385727654683308
30
0
10
22.161575940502303
20
4.9430263655462703
30
0
0
SPLINE
5
115
100
AcDbEntity
8
0
100
AcDbSpline
70
1064
71
2
72
6
73
3
74
0
42
0.000000001
43
0.0000000001
44
0.0000000001
40
0
40
0
40
0
40
1
40
1
40
1
10
22.161575940502303
20
4.9430263655462703
30
0
10
11.789914118501148
20
9.2821954545456986
30
0
10
3.1115759405022914
20
20.077180113104866
30
0
0
SPLINE
5
116
100
AcDbEntity
8
0
100
AcDbSpline
70
1064
71
3
72
8
73
4
74
0
42
0.000000001
43
0.0000000001
44
0.0000000001
40
0
40
0
40
0
40
0
40
1
40
1
40
1
40
1
10
3.1115759405022914
20
20.077180113104866
30
0
10
-1.7567557779425336
20
15.10301263899394
30
0
10
-6.2017606226080613
20
9.9171817279933716
30
0
10
-10.752589111275865
20
4.8371784982163479
30
0
0
LINE
5
117
100
AcDbEntity
8
0
100
AcDbLine
10
-10.752589111275865
20
4.8371784982163497
30
0
11
-10.858420829720689
21
4.7313467797715241
31
0
0
SPLINE
5
118
100
AcDbEntity
8
0
100
AcDbSpline
70
1064
71
3
72
8
73
4
74
0
42
0.000000001
43
0.0000000001
44
0.0000000001
40
0
40
0
40
0
40
0
40
1
40
1
40
1
40
1
10
-10.858420829720687
20
4.7313467797715258
30
0
10
-7.8950842666103416
20
5.5780126389939433
30
0
10
-4.2967573928310365
20
6.3188467797715298
30
0
10
-1.6509240594977026
20
6.4246784982163518
30
0
0
SPLINE
5
119
100
AcDbEntity
8
0
100
AcDbSpline
70
1064
71
3
72
8
73
4
74
0
42
0.000000001
43
0.0000000001
44
0.0000000001
40
0
40
0
40
0
40
0
40
1
40
1
40
1
40
1
10
-1.6509240594977026
20
6.4246784982163518
30
0
10
1.5240759405022963
20
6.5305102166611739
30
0
10
2.5824092738356264
20
4.7313467797715258
30
0
10
2.6882409922804484
20
2.82634354999451
30
0
0
SPLINE
5
120
100
AcDbEntity
8
0
100
AcDbSpline
70
1064
71
3
72
8
73
4
74
0
42
0.000000001
43
0.0000000001
44
0.0000000001
40
0
40
0
40
0
40
0
40
1
40
1
40
1
40
1
10
2.6882409922804484
20
2.82634354999451
30
0
10
2.7940727107252705
20
0.39217769077209752
30
0
10
0.5715743256137884
20
-2.0419881684503149
30
0
10
-0.91009395594139342
20
-3.7353239241164093
30
0
0
LINE
5
121
100
AcDbEntity
8
0
100
AcDbLine
10
-0.91009395594139342
20
-3.7353239241164093
30
0
11
-5.1434272892747268
21
-8.6036596797825062
31
0
0
LINE
5
122
100
AcDbEntity
8
0
100
AcDbLine
10
-5.1434272892747268
20
-8.6036596797825062
30
0
11
0.78323776250343591
21
-7.6511580648940027
31
0
0
LINE
5
123
100
AcDbEntity
8
0
100
AcDbLine
10
0.78323776250343591
20
-7.6511580648940027
30
0
11
7.4507409922804513
21
1.4505069868841547
31
0
0
SPLINE
5
124
100
AcDbEntity
8
0
100
AcDbSpline
70
1064
71
3
72
8
73
4
74
0
42
0.000000001
43
0.0000000001
44
0.0000000001
40
0
40
0
40
0
40
0
40
1
40
1
40
1
40
1
10
7.4507409922804513
20
1.4505069868841591
30
0
10
7.8740759405022942
20
2.0855053719956462
30
0
10
9.4615759405022892
20
4.3080077943284145
30
0
10
10.202406044058616
20
4.3080077943284145
30
0
0
SPLINE
5
125
100
AcDbEntity
8
0
100
AcDbSpline
70
1064
71
3
72
8
73
4
74
0
42
0.000000001
43
0.0000000001
44
0.0000000001
40
0
40
0
40
0
40
0
40
1
40
1
40
1
40
1
10
10.202406044058616
20
4.3080077943284145
30
0
10
10.731572710725281
20
4.3080077943284145
30
0
10
10.837404429170103
20
3.8846728461065716
30
0
10
10.943236147614925
20
3.4613419351059971
30
0
0
SPLINE
5
126
100
AcDbEntity
8
0
100
AcDbSpline
70
1064
71
3
72
8
73
4
74
0
42
0.000000001
43
0.0000000001
44
0.0000000001
40
0
40
0
40
0
40
0
40
1
40
1
40
1
40
1
10
10.943236147614925
20
3.4613419351059971
30
0
10
10.943236147614925
20
2.1913411276617456
30
0
10
10.943236147614925
20
1.344675268439337
30
0
10
7.9798995845045795
20
-2.2536596797825137
30
0
0
LINE
5
127
100
AcDbEntity
8
0
100
AcDbLine
10
7.9798995845045795
20
-2.2536596797825141
30
0
11
3.9582296880608943
21
-7.5453263464491815
31
0
0
SPLINE
5
128
100
AcDbEntity
8
0
100
AcDbSpline
70
1064
71
3
72
8
73
4
74
0
42
0.000000001
43
0.0000000001
44
0.0000000001
40
0
40
0
40
0
40
0
40
1
40
1
40
1
40
1
10
3.9582296880608858
20
-7.5453263464491727
30
0
10
5.7573931249505428
20
-7.5453263464491727
30
0
10
7.6623963547275586
20
-7.4394946280043506
30
0
10
9.2498963547275537
20
-8.2861564500054907
30
0
0
SPLINE
5
129
100
AcDbEntity
8
0
100
AcDbSpline
70
1064
71
3
72
8
73
4
74
0
42
0.000000001
43
0.0000000001
44
0.0000000001
40
0
40
0
40
0
40
0
40
1
40
1
40
1
40
1
10
9.2498963547275537
20
-8.2861564500054907
30
0
10
7.4507329178379145
20
-9.7678247315606637
30
0
10
5.9690646362827238
20
-11.566988168450321
30
0
10
4.8048995845045717
20
-13.683654835116981
30
0
0
SPLINE
5
130
100
AcDbEntity
8
0
100
AcDbSpline
70
1064
71
3
72
8
73
4
74
0
42
0.000000001
43
0.0000000001
44
0.0000000001
40
0
40
0
40
0
40
0
40
1
40
1
40
1
40
1
10
4.8048995845045717
20
-13.683654835116981
30
0
10
2.5824011993930895
20
-13.366151605339969
30
0
10
3.4290630213942208
20
-13.471991398227336
30
0
10
0.88906948094825466
20
-13.577823116672159
30
0
0
SPLINE
5
131
100
AcDbEntity
8
0
100
AcDbSpline
70
1064
71
3
72
8
73
4
74
0
42
0.000000001
43
0.0000000001
44
0.0000000001
40
0
40
0
40
0
40
0
40
1
40
1
40
1
40
1
10
0.88906948094825466
20
-13.577823116672159
30
0
10
0.35990281428158966
20
-14.636156450005489
30
0
10
-1.0159337488287612
20
-16.435319886895144
30
0
10
-0.91009395594139342
20
-17.599493013115843
30
0
0
SPLINE
5
132
100
AcDbEntity
8
0
100
AcDbSpline
70
1064
71
3
72
8
73
4
74
0
42
0.000000001
43
0.0000000001
44
0.0000000001
40
0
40
0
40
0
40
0
40
1
40
1
40
1
40
1
10
-0.91009395594139342
20
-17.599493013115843
30
0
10
-0.91009395594139342
20
-18.34032311667216
30
0
10
-0.59259072616437258
20
-19.186993013115845
30
0
10
-0.38092728927472841
20
-19.927823116672165
30
0
0
SPLINE
5
133
100
AcDbEntity
8
0
100
AcDbSpline
70
1064
71
3
72
8
73
4
74
0
42
0.000000001
43
0.0000000001
44
0.0000000001
40
0
40
0
40
0
40
0
40
1
40
1
40
1
40
1
10
-0.38092728927472841
20
-19.927823116672165
30
0
10
-1.6509240594977026
20
-19.716159679782503
30
0
10
-3.5559272892747273
20
-21.726986553561805
30
0
10
-4.5084289041632353
20
-21.409491398227338
30
0
0
SPLINE
5
134
100
AcDbEntity
8
0
100
AcDbSpline
70
1064
71
3
72
8
73
4
74
0
42
0.000000001
43
0.0000000001
44
0.0000000001
40
0
40
0
40
0
40
0
40
1
40
1
40
1
40
1
10
-4.5084289041632353
20
-21.409491398227338
30
0
10
-5.1434272892747224
20
-21.197827961337694
30
0
10
-5.4609305190517432
20
-20.668661294671029
30
0
10
-5.2492590077195533
20
-19.504488168450315
30
0
0
SPLINE
5
135
100
AcDbEntity
8
0
100
AcDbSpline
70
1064
71
3
72
8
73
4
74
0
42
0.000000001
43
0.0000000001
44
0.0000000001
40
0
40
0
40
0
40
0
40
1
40
1
40
1
40
1
10
-5.2492590077195533
20
-19.504488168450315
30
0
10
-5.1434272892747224
20
-18.34032311667216
30
0
10
-4.5084289041632353
20
-16.541151605339969
30
0
10
-3.2384240594977065
20
-13.789486553561812
30
0
0
LINE
5
136
100
AcDbEntity
8
0
100
AcDbLine
10
-3.2384240594977065
20
-13.789486553561812
30
0
11
-10.329254163054022
21
-15.059483323784795
31
0
0
LINE
5
137
100
AcDbEntity
8
0
100
AcDbLine
10
-10.329254163054022
20
-15.059483323784795
30
0
11
-14.350924059497707
21
-19.821991398227333
31
0
0
SPLINE
5
138
100
AcDbEntity
8
0
100
AcDbSpline
70
1064
71
3
72
8
73
4
74
0
42
0.000000001
43
0.0000000001
44
0.0000000001
40
0
40
0
40
0
40
0
40
1
40
1
40
1
40
1
10
-14.350924059497707
20
-19.821991398227343
30
0
10
-14.77425900771955
20
-20.45698978333883
30
0
10
-15.620924866941968
20
-22.044489783338825
30
0
10
-16.467590726164374
20
-22.150321501783647
30
0
0
SPLINE
5
139
100
AcDbEntity
8
0
100
AcDbSpline
70
1064
71
3
72
8
73
4
74
0
42
0.000000001
43
0.0000000001
44
0.0000000001
40
0
40
0
40
0
40
0
40
1
40
1
40
1
40
1
10
-16.467590726164374
20
-22.150321501783647
30
0
10
-17.314256585386786
20
-22.150321501783647
30
0
10
-18.372589918720124
20
-21.409491398227338
30
0
10
-18.478425674386216
20
-20.562821501783652
30
0
0
SPLINE
5
140
100
AcDbEntity
8
0
100
AcDbSpline
70
1064
71
3
72
8
73
4
74
0
42
0.000000001
43
0.0000000001
44
0.0000000001
40
0
40
0
40
0
40
0
40
1
40
1
40
1
40
1
10
-18.478425674386216
20
-20.562821501783652
30
0
10
-18.478425674386216
20
-19.504488168450315
30
0
10
-15.832592341052889
20
-16.646991398227335
30
0
10
-15.409257392831046
20
-15.588658064894005
30
0
0
SPLINE
5
141
100
AcDbEntity
8
0
100
AcDbSpline
70
1064
71
3
72
8
73
4
74
0
42
0.000000001
43
0.0000000001
44
0.0000000001
40
0
40
0
40
0
40
0
40
1
40
1
40
1
40
1
10
-15.409257392831046
20
-15.588658064894005
30
0
10
-18.160922444609202
20
-15.906161294671017
30
0
10
-19.325091533608632
20
-15.482826346449174
30
0
10
-19.430923252053454
20
-14.212821501783655
30
0
0
SPLINE
5
142
100
AcDbEntity
8
0
100
AcDbSpline
70
1064
71
3
72
8
73
4
74
0
42
0.000000001
43
0.0000000001
44
0.0000000001
40
0
40
0
40
0
40
0
40
1
40
1
40
1
40
1
10
-19.430923252053454
20
-14.212821501783655
30
0
10
-19.430923252053454
20
-13.366151605339969
30
0
10
-18.478421637164946
20
-11.2494849386733
30
0
10
-17.420088303831616
20
-11.143653220228478
30
0
0
SPLINE
5
143
100
AcDbEntity
8
0
100
AcDbSpline
70
1064
71
3
72
8
73
4
74
0
42
0.000000001
43
0.0000000001
44
0.0000000001
40
0
40
0
40
0
40
0
40
1
40
1
40
1
40
1
10
-17.420088303831616
20
-11.143653220228478
30
0
10
-17.102589111275861
20
-11.143653220228478
30
0
10
-16.785089918720118
20
-11.355316657118122
30
0
10
-16.467586688943101
20
-11.355316657118122
30
0
0
SPLINE
5
144
100
AcDbEntity
8
0
100
AcDbSpline
70
1064
71
3
72
8
73
4
74
0
42
0.000000001
43
0.0000000001
44
0.0000000001
40
0
40
0
40
0
40
0
40
1
40
1
40
1
40
1
10
-16.467586688943101
20
-11.355316657118122
30
0
10
-16.044251740721265
20
-11.355316657118122
30
0
10
-16.044251740721265
20
-11.037813427341101
30
0
10
-10.2234224446092
20
-9.6619849386732959
30
0
0
SPLINE
5
145
100
AcDbEntity
8
0
100
AcDbSpline
70
1064
71
3
72
8
73
4
74
0
42
0.000000001
43
0.0000000001
44
0.0000000001
40
0
40
0
40
0
40
0
40
1
40
1
40
1
40
1
10
-10.2234224446092
20
-9.6619849386732959
30
0
10
-8.8475858814988495
20
-8.1803166571181229
30
0
10
-6.0959208297206935
20
-5.005316657118124
30
0
10
-2.9209208297206857
20
-0.98365079789570764
30
0
0
SPLINE
5
146
100
AcDbEntity
8
0
100
AcDbSpline
70
1064
71
3
72
8
73
4
74
0
42
0.000000001
43
0.0000000001
44
0.0000000001
40
0
40
0
40
0
40
0
40
1
40
1
40
1
40
1
10
-2.9209208297206857
20
-0.98365079789570764
30
0
10
-2.3917541630540207
20
-0.45448413122904263
30
0
10
-1.3334208297206906
20
1.0271841503261303
30
0
10
-1.4392525481655127
20
1.7680142538824484
30
0
0
SPLINE
5
147
100
AcDbEntity
8
0
100
AcDbSpline
70
1064
71
3
72
8
73
4
74
0
42
0.000000001
43
0.0000000001
44
0.0000000001
40
0
40
0
40
0
40
0
40
1
40
1
40
1
40
1
10
-1.4392525481655127
20
1.7680142538824484
30
0
10
-1.4392525481655127
20
2.5088483946600348
30
0
10
-2.3917541630540207
20
2.6146801131048569
30
0
10
-2.8150891112758636
20
2.6146801131048569
30
0
0
SPLINE
5
148
100
AcDbEntity
8
0
100
AcDbSpline
70
1064
71
3
72
8
73
4
74
0
42
0.000000001
43
0.0000000001
44
0.0000000001
40
0
40
0
40
0
40
0
40
1
40
1
40
1
40
1
10
-2.8150891112758636
20
2.6146801131048569
30
0
10
-4.8259240594977104
20
2.5088483946600348
30
0
10
-9.6942557779425353
20
0.92134839466003982
30
0
10
-15.938424059497711
20
-2.0419881684503149
30
0
0
SPLINE
5
149
100
AcDbEntity
8
0
100
AcDbSpline
70
1064
71
3
72
8
73
4
74
0
42
0.000000001
43
0.0000000001
44
0.0000000001
40
0
40
0
40
0
40
0
40
1
40
1
40
1
40
1
10
-15.938424059497711
20
-2.0419881684503149
30
0
10
-15.620924866941968
20
-2.147819886895137
30
0
10
-15.409257392831046
20
-2.2536556425612364
30
0
10
-15.409257392831046
20
-2.57115483511698
30
0
0
SPLINE
5
150
100
AcDbEntity
8
0
100
AcDbSpline
70
1064
71
3
72
8
73
4
74
0
42
0.000000001
43
0.0000000001
44
0.0000000001
40
0
40
0
40
0
40
0
40
1
40
1
40
1
40
1
10
-15.409257392831046
20
-2.57115483511698
30
0
10
-15.409257392831046
20
-3.100321501783645
30
0
10
-15.832592341052889
20
-3.4178206943393974
30
0
10
-16.361759007719556
20
-3.5236564500054879
30
0
0
SPLINE
5
151
100
AcDbEntity
8
0
100
AcDbSpline
70
1064
71
3
72
8
73
4
74
0
42
0.000000001
43
0.0000000001
44
0.0000000001
40
0
40
0
40
0
40
0
40
1
40
1
40
1
40
1
10
-16.361759007719556
20
-3.5236564500054879
30
0
10
-19.219259815163809
20
-4.6878215017836489
30
0
10
-18.901760622608059
20
-4.6878215017836489
30
0
10
-21.547593955941391
20
-6.1694897833388218
30
0
0
SPLINE
5
152
100
AcDbEntity
8
0
100
AcDbSpline
70
1064
71
3
72
8
73
4
74
0
42
0.000000001
43
0.0000000001
44
0.0000000001
40
0
40
0
40
0
40
0
40
1
40
1
40
1
40
1
10
-21.547593955941391
20
-6.1694897833388218
30
0
10
-21.970928904163234
20
-6.3811572574497433
30
0
10
-22.500095570829906
20
-6.8044881684503178
30
0
10
-23.029262237496575
20
-6.8044881684503178
30
0
0
SPLINE
5
153
100
AcDbEntity
8
0
100
AcDbSpline
70
1064
71
3
72
8
73
4
74
0
42
0.000000001
43
0.0000000001
44
0.0000000001
40
0
40
0
40
0
40
0
40
1
40
1
40
1
40
1
10
-23.029262237496575
20
-6.8044881684503178
30
0
10
-23.87592809671898
20
-6.8044881684503178
30
0
10
-24.193427289274723
20
-5.7461548351169789
30
0
10
-24.299263044940822
20
-5.1111564500054918
30
0
0
SPLINE
5
154
100
AcDbEntity
8
0
100
AcDbSpline
70
1064
71
3
72
8
73
4
74
0
42
0.000000001
43
0.0000000001
44
0.0000000001
40
0
40
0
40
0
40
0
40
1
40
1
40
1
40
1
10
-24.299263044940822
20
-5.1111564500054918
30
0
10
-24.299263044940822
20
-3.9469913982273308
30
0
10
-23.770096378274161
20
-1.7244889758945714
30
0
10
-23.135097993162674
20
-0.87782311667215396
30
0
0
LINE
5
155
100
AcDbEntity
8
0
100
AcDbLine
10
-23.135097993162674
20
-0.87782311667215351
30
0
11
-23.029258200275294
21
-1.089486553561807
31
0
0
SPLINE
5
156
100
AcDbEntity
8
0
100
AcDbSpline
70
1064
71
3
72
8
73
4
74
0
42
0.000000001
43
0.0000000001
44
0.0000000001
40
0
40
0
40
0
40
0
40
1
40
1
40
1
40
1
10
22.479079170279324
20
-14.847819886895142
30
0
10
20.785747451834489
20
-17.176149990451457
30
0
10
19.198247451834494
20
-18.128651605339961
30
0
10
16.34074260716897
20
-18.234483323784794
30
0
0
SPLINE
5
157
100
AcDbEntity
8
0
100
AcDbSpline
70
1064
71
3
72
8
73
4
74
0
42
0.000000001
43
0.0000000001
44
0.0000000001
40
0
40
0
40
0
40
0
40
1
40
1
40
1
40
1
10
16.34074260716897
20
-18.234483323784794
30
0
10
14.753242607168957
20
-19.927815042229611
30
0
10
12.954079170279318
20
-21.303651605339962
30
0
10
10.519909273835637
20
-21.409483323784784
30
0
0
SPLINE
5
158
100
AcDbEntity
8
0
100
AcDbSpline
70
1064
71
3
72
8
73
4
74
0
42
0.000000001
43
0.0000000001
44
0.0000000001
40
0
40
0
40
0
40
0
40
1
40
1
40
1
40
1
10
10.519909273835637
20
-21.409483323784784
30
0
10
8.5090743256137813
20
-21.515315042229624
30
0
10
6.60407917027932
20
-19.504480094007775
30
0
10
6.2865759405022992
20
-16.011984938673301
30
0
0
SPLINE
5
159
100
AcDbEntity
8
0
100
AcDbSpline
70
1064
71
3
72
8
73
4
74
0
42
0.000000001
43
0.0000000001
44
0.0000000001
40
0
40
0
40
0
40
0
40
1
40
1
40
1
40
1
10
6.2865759405022992
20
-16.011984938673301
30
0
10
6.0749125036126372
20
-13.154488168450316
30
0
10
7.4507409922804513
20
-11.143653220228478
30
0
10
9.4615759405022892
20
-9.3444817088962839
30
0
0
SPLINE
5
160
100
AcDbEntity
8
0
100
AcDbSpline
70
1064
71
3
72
8
73
4
74
0
42
0.000000001
43
0.0000000001
44
0.0000000001
40
0
40
0
40
0
40
0
40
1
40
1
40
1
40
1
10
9.4615759405022892
20
-9.3444817088962839
30
0
10
11.472410888724145
20
-7.545318272006627
30
0
10
14.224075940502292
20
-6.3811491830071976
30
0
10
16.552406044058614
20
-6.1694817088962761
30
0
0
SPLINE
5
161
100
AcDbEntity
8
0
100
AcDbSpline
70
1064
71
3
72
8
73
4
74
0
42
0.000000001
43
0.0000000001
44
0.0000000001
40
0
40
0
40
0
40
0
40
1
40
1
40
1
40
1
10
16.552406044058614
20
-6.1694817088962761
30
0
10
17.3990759405023
20
-6.063649990451454
30
0
10
18.669072710725274
20
-6.3811491830071976
30
0
10
18.774904429170096
20
-7.4394784791192592
30
0
0
SPLINE
5
162
100
AcDbEntity
8
0
100
AcDbSpline
70
1064
71
3
72
8
73
4
74
0
42
0.000000001
43
0.0000000001
44
0.0000000001
40
0
40
0
40
0
40
0
40
1
40
1
40
1
40
1
10
18.774904429170096
20
-7.4394784791192592
30
0
10
18.774904429170096
20
-7.9686451457859242
30
0
10
18.351569480948253
20
-8.286148375562945
30
0
10
17.92823453272641
20
-8.4978118124525981
30
0
0
SPLINE
5
163
100
AcDbEntity
8
0
100
AcDbSpline
70
1064
71
3
72
8
73
4
74
0
42
0.000000001
43
0.0000000001
44
0.0000000001
40
0
40
0
40
0
40
0
40
1
40
1
40
1
40
1
10
17.92823453272641
20
-8.4978118124525981
30
0
10
19.09239958450458
20
-8.7094752493422423
30
0
10
19.409902814281601
20
-9.5561451457859281
30
0
10
19.409902814281601
20
-10.720310197564089
30
0
0
SPLINE
5
164
100
AcDbEntity
8
0
100
AcDbSpline
70
1064
71
3
72
8
73
4
74
0
42
0.000000001
43
0.0000000001
44
0.0000000001
40
0
40
0
40
0
40
0
40
1
40
1
40
1
40
1
10
19.409902814281601
20
-10.720310197564089
30
0
10
19.515734532726423
20
-12.413641916008906
30
0
10
18.774904429170096
20
-13.789478479119266
30
0
10
18.034066251171232
20
-15.376978479119261
30
0
0
SPLINE
5
165
100
AcDbEntity
8
0
100
AcDbSpline
70
1064
71
3
72
8
73
4
74
0
42
0.000000001
43
0.0000000001
44
0.0000000001
40
0
40
0
40
0
40
0
40
1
40
1
40
1
40
1
10
18.034066251171232
20
-15.376978479119261
30
0
10
19.727397969616067
20
-15.588641916008914
30
0
10
20.785731302949397
20
-14.106981708896278
30
0
10
21.949896354727549
20
-13.15448009400777
30
0
0
LINE
5
166
100
AcDbEntity
8
0
100
AcDbLine
10
21.949896354727549
20
-13.15448009400777
30
0
11
22.479079170279324
21
-14.847819886895142
31
0
0
SPLINE
5
167
100
AcDbEntity
8
0
100
AcDbSpline
70
1064
71
3
72
8
73
4
74
0
42
0.000000001
43
0.0000000001
44
0.0000000001
40
0
40
0
40
0
40
0
40
1
40
1
40
1
40
1
10
14.859074325613779
20
-10.614486553561804
30
0
10
13.483237762503428
20
-11.355316657118122
30
0
10
11.684074325613789
20
-12.413649990451452
30
0
10
10.625740992280459
20
-13.577823116672159
30
0
0
SPLINE
5
168
100
AcDbEntity
8
0
100
AcDbSpline
70
1064
71
3
72
8
73
4
74
0
42
0.000000001
43
0.0000000001
44
0.0000000001
40
0
40
0
40
0
40
0
40
1
40
1
40
1
40
1
10
10.625740992280459
20
-13.577823116672159
30
0
10
9.7790710958367733
20
-14.424493013115844
30
0
10
9.1440727107252684
20
-16.011993013115848
30
0
10
9.1440727107252684
20
-17.176158064894
30
0
0
SPLINE
5
169
100
AcDbEntity
8
0
100
AcDbSpline
70
1064
71
3
72
8
73
4
74
0
42
0.000000001
43
0.0000000001
44
0.0000000001
40
0
40
0
40
0
40
0
40
1
40
1
40
1
40
1
10
9.1440727107252684
20
-17.176158064894
30
0
10
9.1440727107252684
20
-18.34032311667216
30
0
10
9.9907426071689542
20
-18.657826346449184
30
0
10
10.943236147614925
20
-18.551994628004351
30
0
0
SPLINE
5
170
100
AcDbEntity
8
0
100
AcDbSpline
70
1064
71
3
72
8
73
4
74
0
42
0.000000001
43
0.0000000001
44
0.0000000001
40
0
40
0
40
0
40
0
40
1
40
1
40
1
40
1
10
10.943236147614925
20
-18.551994628004351
30
0
10
12.2132329178379
20
-18.551994628004351
30
0
10
12.954071095836763
20
-17.705324731560665
30
0
10
13.906572710725271
20
-16.858662909559534
30
0
0
SPLINE
5
171
100
AcDbEntity
8
0
100
AcDbSpline
70
1064
71
3
72
8
73
4
74
0
42
0.000000001
43
0.0000000001
44
0.0000000001
40
0
40
0
40
0
40
0
40
1
40
1
40
1
40
1
10
13.906572710725271
20
-16.858662909559534
30
0
10
13.58906948094825
20
-16.22366452444804
30
0
10
13.377406044058606
20
-15.800329576226195
30
0
10
13.377406044058606
20
-15.059499472669877
30
0
0
SPLINE
5
172
100
AcDbEntity
8
0
100
AcDbSpline
70
1064
71
3
72
8
73
4
74
0
42
0.000000001
43
0.0000000001
44
0.0000000001
40
0
40
0
40
0
40
0
40
1
40
1
40
1
40
1
10
13.377406044058606
20
-15.059499472669877
30
0
10
13.165742607168962
20
-13.577823116672159
30
0
10
14.11824422205747
20
-11.884491398227333
30
0
10
14.859074325613779
20
-10.614486553561804
30
0
0
SPLINE
5
173
100
AcDbEntity
8
0
100
AcDbSpline
70
1064
71
3
72
8
73
4
74
0
42
0.000000001
43
0.0000000001
44
0.0000000001
40
0
40
0
40
0
40
0
40
1
40
1
40
1
40
1
10
26.712412503612644
20
-13.789486553561812
30
0
10
27.876577555390814
20
-14.424484938673299
30
0
10
28.299912503612656
20
-15.694489783338827
30
0
10
28.829079170279321
20
-16.752823116672158
30
0
0
LINE
5
174
100
AcDbEntity
8
0
100
AcDbLine
10
28.829079170279321
20
-16.752823116672161
30
0
11
33.909082400056342
21
-13.260319886895138
31
0
0
LINE
5
175
100
AcDbEntity
8
0
100
AcDbLine
10
33.909082400056342
20
-13.260319886895138
30
0
11
34.438249066722989
21
-14.636156450005489
31
0
0
SPLINE
5
176
100
AcDbEntity
8
0
100
AcDbSpline
70
1064
71
3
72
8
73
4
74
0
42
0.000000001
43
0.0000000001
44
0.0000000001
40
0
40
0
40
0
40
0
40
1
40
1
40
1
40
1
10
34.43824906672301
20
-14.636156450005489
30
0
10
32.956580785167816
20
-16.11782473156067
30
0
10
31.474912503612646
20
-17.493653220228474
30
0
10
29.569917348278185
20
-18.551986553561804
30
0
0
SPLINE
5
177
100
AcDbEntity
8
0
100
AcDbSpline
70
1064
71
3
72
8
73
4
74
0
42
0.000000001
43
0.0000000001
44
0.0000000001
40
0
40
0
40
0
40
0
40
1
40
1
40
1
40
1
10
29.569917348278185
20
-18.551986553561804
30
0
10
29.781580785167829
20
-19.292816657118124
30
0
10
29.781580785167829
20
-19.927823116672165
30
0
10
29.675749066723007
20
-20.668653220228475
30
0
0
SPLINE
5
178
100
AcDbEntity
8
0
100
AcDbSpline
70
1064
71
3
72
8
73
4
74
0
42
0.000000001
43
0.0000000001
44
0.0000000001
40
0
40
0
40
0
40
0
40
1
40
1
40
1
40
1
10
29.675749066723007
20
-20.668653220228475
30
0
10
29.569917348278185
20
-25.325321501783655
30
0
10
24.278250681611517
20
-29.770318272006637
30
0
10
21.526585629833352
20
-30.299484938673302
30
0
0
SPLINE
5
179
100
AcDbEntity
8
0
100
AcDbSpline
70
1064
71
3
72
8
73
4
74
0
42
0.000000001
43
0.0000000001
44
0.0000000001
40
0
40
0
40
0
40
0
40
1
40
1
40
1
40
1
10
21.526585629833352
20
-30.299484938673302
30
0
10
19.727422192943695
20
-30.616988168450323
30
0
10
19.092415733389672
20
-27.018653220228472
30
0
10
19.092415733389672
20
-25.748648375562944
30
0
0
SPLINE
5
180
100
AcDbEntity
8
0
100
AcDbSpline
70
1064
71
3
72
8
73
4
74
0
42
0.000000001
43
0.0000000001
44
0.0000000001
40
0
40
0
40
0
40
0
40
1
40
1
40
1
40
1
10
19.092415733389672
20
-25.748648375562944
30
0
10
18.986584014944849
20
-23.208646760674441
30
0
10
20.574084014944845
20
-20.139478479119255
30
0
10
21.526585629833352
20
-17.811148375562951
30
0
0
SPLINE
5
181
100
AcDbEntity
8
0
100
AcDbSpline
70
1064
71
3
72
8
73
4
74
0
42
0.000000001
43
0.0000000001
44
0.0000000001
40
0
40
0
40
0
40
0
40
1
40
1
40
1
40
1
10
21.526585629833352
20
-17.811148375562951
30
0
10
20.891587244721865
20
-17.176149990451457
30
0
10
20.3624205780552
20
-16.646983323784788
30
0
10
20.3624205780552
20
-15.694481708896282
30
0
0
SPLINE
5
182
100
AcDbEntity
8
0
100
AcDbSpline
70
1064
71
3
72
8
73
4
74
0
42
0.000000001
43
0.0000000001
44
0.0000000001
40
0
40
0
40
0
40
0
40
1
40
1
40
1
40
1
10
20.3624205780552
20
-15.694481708896282
30
0
10
20.25658885961036
20
-14.106981708896278
30
0
10
21.314922192943708
20
-13.683646760674435
30
0
10
22.373255526277038
20
-13.048648375562948
30
0
0
SPLINE
5
183
100
AcDbEntity
8
0
100
AcDbSpline
70
1064
71
3
72
8
73
4
74
0
42
0.000000001
43
0.0000000001
44
0.0000000001
40
0
40
0
40
0
40
0
40
1
40
1
40
1
40
1
10
22.373255526277038
20
-13.048648375562948
30
0
10
24.59575391138852
20
-11.672811812452597
30
0
10
25.75991896316669
20
-9.8736483755629489
30
0
10
26.924092089387397
20
-7.545318272006627
30
0
0
SPLINE
5
184
100
AcDbEntity
8
0
100
AcDbSpline
70
1064
71
3
72
8
73
4
74
0
42
0.000000001
43
0.0000000001
44
0.0000000001
40
0
40
0
40
0
40
0
40
1
40
1
40
1
40
1
10
26.924092089387397
20
-7.545318272006627
30
0
10
27.876593704275905
20
-5.6403190794508884
30
0
10
30.416595319164408
20
0.60384920210428739
30
0
10
32.109927037609225
20
0.92134839466003982
30
0
0
SPLINE
5
185
100
AcDbEntity
8
0
100
AcDbSpline
70
1064
71
3
72
8
73
4
74
0
42
0.000000001
43
0.0000000001
44
0.0000000001
40
0
40
0
40
0
40
0
40
1
40
1
40
1
40
1
10
32.109927037609225
20
0.92134839466003982
30
0
10
32.956596934052911
20
1.0271801131048619
30
0
10
33.697427037609238
20
1.0271801131048619
30
0
10
33.909090474498882
20
0.39218172799336593
30
0
0
SPLINE
5
186
100
AcDbEntity
8
0
100
AcDbSpline
70
1064
71
3
72
8
73
4
74
0
42
0.000000001
43
0.0000000001
44
0.0000000001
40
0
40
0
40
0
40
0
40
1
40
1
40
1
40
1
10
33.909090474498882
20
0.39218172799336593
30
0
10
34.226593704275899
20
-0.56031988689514201
30
0
10
34.226593704275899
20
-1.8303166571181251
30
0
10
33.379923807832213
20
-3.1003174645623766
30
0
0
LINE
5
187
100
AcDbEntity
8
0
100
AcDbLine
10
33.379923807832213
20
-3.1003174645623766
30
0
11
26.712412503612644
21
-13.789486553561812
31
0
0
SPLINE
5
188
100
AcDbEntity
8
0
100
AcDbSpline
70
1064
71
3
72
8
73
4
74
0
42
0.000000001
43
0.0000000001
44
0.0000000001
40
0
40
0
40
0
40
0
40
1
40
1
40
1
40
1
10
26.818244222057466
20
-19.504488168450315
30
0
10
24.91324099228045
20
-19.610319886895144
30
0
10
25.654079170279314
20
-19.716151605339967
30
0
10
24.066579170279319
20
-19.292824731560671
30
0
0
SPLINE
5
189
100
AcDbEntity
8
0
100
AcDbSpline
70
1064
71
3
72
8
73
4
74
0
42
0.000000001
43
0.0000000001
44
0.0000000001
40
0
40
0
40
0
40
0
40
1
40
1
40
1
40
1
10
24.066579170279319
20
-19.292824731560671
30
0
10
23.114077555390811
20
-20.986156450005495
30
0
10
22.584910888724146
20
-22.467824731560668
30
0
10
22.479079170279324
20
-23.73782150178366
30
0
0
SPLINE
5
190
100
AcDbEntity
8
0
100
AcDbSpline
70
1064
71
3
72
8
73
4
74
0
42
0.000000001
43
0.0000000001
44
0.0000000001
40
0
40
0
40
0
40
0
40
1
40
1
40
1
40
1
10
22.479079170279324
20
-23.73782150178366
30
0
10
22.373247451834484
20
-25.007818272006634
30
0
10
22.796582400056327
20
-26.066151605339964
30
0
10
23.431580785167831
20
-27.124484938673294
30
0
0
SPLINE
5
191
100
AcDbEntity
8
0
100
AcDbSpline
70
1064
71
3
72
8
73
4
74
0
42
0.000000001
43
0.0000000001
44
0.0000000001
40
0
40
0
40
0
40
0
40
1
40
1
40
1
40
1
10
23.431580785167831
20
-27.124484938673294
30
0
10
25.654079170279314
20
-25.431153220228477
30
0
10
27.241579170279309
20
-22.361984938673292
30
0
10
26.818244222057466
20
-19.504488168450315
30
0
0
LWPOLYLINE
5
192
100
AcDbEntity
8
0
100
AcDbPolyline
90
4
70
1
43
0.0
10
921.09074260716898
20
60.39967849821636
10
-78.909257392831051
20
60.39967849821636
10
-78.909257392831051
20
70.983011831549703
10
921.09074260716898
20
70.983011831549703
0
LINE
5
193
100
AcDbEntity
8
0
100
AcDbLine
10
-78.909257392831051
20
60.39967849821636
30
0
11
921.09074260716898
21
60.39967849821636
31
0
0
LINE
5
194
100
AcDbEntity
8
0
100
AcDbLine
10
921.09074260716898
20
60.39967849821636
30
0
11
921.09074260716898
21
70.983011831549703
31
0
0
LINE
5
195
100
AcDbEntity
8
0
100
AcDbLine
10
921.09074260716898
20
70.983011831549703
30
0
11
-78.909257392831051
21
70.983011831549703
31
0
0
LINE
5
196
100
AcDbEntity
8
0
100
AcDbLine
10
-78.909257392831051
20
70.983011831549703
30
0
11
-78.909257392831051
21
60.39967849821636
31
0
0
LWPOLYLINE
5
197
100
AcDbEntity
8
0
100
AcDbPolyline
90
4
70
1
43
0.0
10
-23.176197262775304
20
13.449577664883021
10
-49.912511559497716
20
13.449577664883021
10
-49.912511559497716
20
24.547260998216352
10
-23.176197262775304
20
24.547260998216352
0
ENDSEC
0
SECTION
2
OBJECTS
0
DICTIONARY
5
C
100
AcDbDictionary
3
ACAD_GROUP
350
D
3
ACAD_MLINESTYLE
350
17
0
DICTIONARY
5
D
100
AcDbDictionary
0
DICTIONARY
5
1A
330
C
100
AcDbDictionary
0
DICTIONARY
5
17
100
AcDbDictionary
0
ENDSEC
0
EOF
