  0
SECTION
  2
HEADER
  9
$ACADVER
  1
AC1014
  9
$HANDSEED
  5
FFFF
  9
$INSUNITS
 70
     4
  9
$MEASUREMENT
 70
     1
  0
ENDSEC
  0
SECTION
  2
TABLES
  0
TABLE
  2
VPORT
  5
8
330
0
100
AcDbSymbolTable
 70
     4
  0
VPORT
  5
2E
330
8
100
AcDbSymbolTableRecord
100
AcDbViewportTableRecord
  2
*ACTIVE
 70
     0
 10
0.0
 20
0.0
 11
1.0
 21
1.0
 12
210.0
 22
148.5
 13
0.0
 23
0.0
 14
10.0
 24
10.0
 15
10.0
 25
10.0
 16
0.0
 26
0.0
 36
1.0
 17
0.0
 27
0.0
 37
0.0
 40
341.0
 41
1.24
 42
50.0
 43
0.0
 44
0.0
 50
0.0
 51
0.0
 71
     0
 72
   100
 73
     1
 74
     3
 75
     0
 76
     0
 77
     0
 78
     0
  0
ENDTAB
  0
TABLE
  2
LTYPE
  5
5
330
0
100
AcDbSymbolTable
 70
     1
  0
LTYPE
  5
14
330
5
100
AcDbSymbolTableRecord
100
AcDbLinetypeTableRecord
  2
BYBLOCK
 70
     0
  3

 72
    65
 73
     0
 40
0.0
  0
LTYPE
  5
15
330
5
100
AcDbSymbolTableRecord
100
AcDbLinetypeTableRecord
  2
BYLAYER
 70
     0
  3

 72
    65
 73
     0
 40
0.0
  0
LTYPE
  5
16
330
5
100
AcDbSymbolTableRecord
100
AcDbLinetypeTableRecord
  2
CONTINUOUS
 70
     0
  3
Solid line
 72
    65
 73
     0
 40
0.0
  0
ENDTAB
  0
TABLE
  2
LAYER
  5
2
100
AcDbSymbolTable
 70
2
  0
LAYER
  5
50
100
AcDbSymbolTableRecord
100
AcDbLayerTableRecord
  2
0
 70
0
  6
CONTINUOUS
  0
LAYER
  5
51
100
AcDbSymbolTableRecord
100
AcDbLayerTableRecord
  2
Ebene_1
 70
0
  6
CONTINUOUS
  0
ENDTAB
  0
TABLE
  2
STYLE
  5
3
330
0
100
AcDbSymbolTable
 70
     1
  0
STYLE
  5
11
330
3
100
AcDbSymbolTableRecord
100
AcDbTextStyleTableRecord
  2
STANDARD
 70
     0
 40
0.0
 41
1.0
 50
0.0
 71
     0
 42
2.5
  3
txt
  4

  0
ENDTAB
  0
TABLE
  2
VIEW
  5
6
330
0
100
AcDbSymbolTable
 70
     0
  0
ENDTAB
  0
TABLE
  2
UCS
  5
7
330
0
100
AcDbSymbolTable
 70
     0
  0
ENDTAB
  0
TABLE
  2
APPID
  5
9
330
0
100
AcDbSymbolTable
 70
     2
  0
APPID
  5
12
330
9
100
AcDbSymbolTableRecord
100
AcDbRegAppTableRecord
  2
ACAD
 70
     0
  0
ENDTAB
  0
TABLE
  2
DIMSTYLE
  5
A
330
0
100
AcDbSymbolTable
 70
     1
  0
DIMSTYLE
105
27
330
A
100
AcDbSymbolTableRecord
100
AcDbDimStyleTableRecord
  2
ISO-25
 70
     0
  3

  4

  5

  6

  7

 40
1.0
 41
2.5
 42
0.625
 43
3.75
 44
1.25
 45
0.0
 46
0.0
 47
0.0
 48
0.0
140
2.5
141
2.5
142
0.0
143
0.03937007874016
144
1.0
145
0.0
146
1.0
147
0.625
 71
     0
 72
     0
 73
     0
 74
     0
 75
     0
 76
     0
 77
     1
 78
     8
170
     0
171
     3
172
     1
173
     0
174
     0
175
     0
176
     0
177
     0
178
     0
270
     2
271
     2
272
     2
273
     2
274
     3
340
11
275
     0
280
     0
281
     0
282
     0
283
     0
284
     8
285
     0
286
     0
287
     3
288
     0
  0
ENDTAB
  0
TABLE
  2
BLOCK_RECORD
  5
1
330
0
100
AcDbSymbolTable
 70
     1
  0
BLOCK_RECORD
  5
1F
330
1
100
AcDbSymbolTableRecord
100
AcDbBlockTableRecord
  2
*MODEL_SPACE
  0
BLOCK_RECORD
  5
1B
330
1
100
AcDbSymbolTableRecord
100
AcDbBlockTableRecord
  2
*PAPER_SPACE
  0
ENDTAB
  0
ENDSEC
  0
SECTION
  2
BLOCKS
  0
BLOCK
  5
20
330
1F
100
AcDbEntity
  8
0
100
AcDbBlockBegin
  2
*MODEL_SPACE
 70
     0
 10
0.0
 20
0.0
 30
0.0
  3
*MODEL_SPACE
  1

  0
ENDBLK
  5
21
330
1F
100
AcDbEntity
  8
0
100
AcDbBlockEnd
  0
BLOCK
  5
1C
330
1B
100
AcDbEntity
 67
     1
  8
0
100
AcDbBlockBegin
  2
*PAPER_SPACE
  1

  0
ENDBLK
  5
1D
330
1B
100
AcDbEntity
 67
     1
  8
0
100
AcDbBlockEnd
  0
ENDSEC
  0
SECTION
  2
ENTITIES
  0
SPLINE
  5
100
100
AcDbEntity
  8
Ebene_1
 62
7
100
AcDbSpline
 70
8
 71
3
 72
8
 73
4
 74
0
 40
0
 40
0
 40
0
 40
0
 40
1
 40
1
 40
1
 40
1
 10
105.921530
 20
77.199600
 30
0.0
 10
98.922425
 20
77.531680
 30
0.0
 10
86.900304
 20
79.688060
 30
0.0
 10
81.403472
 20
81.597350
 30
0.0
  0
SPLINE
  5
101
100
AcDbEntity
  8
Ebene_1
 62
7
100
AcDbSpline
 70
8
 71
3
 72
8
 73
4
 74
0
 40
0
 40
0
 40
0
 40
0
 40
1
 40
1
 40
1
 40
1
 10
81.403472
 20
81.597350
 30
0.0
 10
76.719527
 20
83.224290
 30
0.0
 10
69.829700
 20
86.856300
 30
0.0
 10
66.586805
 20
89.408040
 30
0.0
  0
SPLINE
  5
102
100
AcDbEntity
  8
Ebene_1
 62
7
100
AcDbSpline
 70
8
 71
3
 72
8
 73
4
 74
0
 40
0
 40
0
 40
0
 40
0
 40
1
 40
1
 40
1
 40
1
 10
66.586805
 20
89.408040
 30
0.0
 10
57.868863
 20
96.267920
 30
0.0
 10
52.752823
 20
104.472320
 30
0.0
 10
50.154174
 20
115.760420
 30
0.0
  0
SPLINE
  5
103
100
AcDbEntity
  8
Ebene_1
 62
7
100
AcDbSpline
 70
8
 71
3
 72
8
 73
4
 74
0
 40
0
 40
0
 40
0
 40
0
 40
1
 40
1
 40
1
 40
1
 10
50.154174
 20
115.760420
 30
0.0
 10
47.055573
 20
129.220220
 30
0.0
 10
45.200273
 20
134.886020
 30
0.0
 10
41.230311
 20
143.012500
 30
0.0
  0
SPLINE
  5
104
100
AcDbEntity
  8
Ebene_1
 62
7
100
AcDbSpline
 70
8
 71
3
 72
8
 73
4
 74
0
 40
0
 40
0
 40
0
 40
0
 40
1
 40
1
 40
1
 40
1
 10
41.230311
 20
143.012500
 30
0.0
 10
39.642634
 20
146.262470
 30
0.0
 10
38.363638
 20
148.921530
 30
0.0
 10
38.388098
 20
148.921530
 30
0.0
  0
SPLINE
  5
105
100
AcDbEntity
  8
Ebene_1
 62
7
100
AcDbSpline
 70
8
 71
3
 72
8
 73
4
 74
0
 40
0
 40
0
 40
0
 40
0
 40
1
 40
1
 40
1
 40
1
 10
38.388098
 20
148.921530
 30
0.0
 10
38.636697
 20
148.921530
 30
0.0
 10
41.068434
 20
147.596470
 30
0.0
 10
41.892361
 20
147.012050
 30
0.0
  0
SPLINE
  5
106
100
AcDbEntity
  8
Ebene_1
 62
7
100
AcDbSpline
 70
8
 71
3
 72
8
 73
4
 74
0
 40
0
 40
0
 40
0
 40
0
 40
1
 40
1
 40
1
 40
1
 10
41.892361
 20
147.012050
 30
0.0
 10
42.474444
 20
146.599170
 30
0.0
 10
43.406610
 20
146.028960
 30
0.0
 10
43.963839
 20
145.744920
 30
0.0
  0
SPLINE
  5
107
100
AcDbEntity
  8
Ebene_1
 62
7
100
AcDbSpline
 70
8
 71
3
 72
8
 73
4
 74
0
 40
0
 40
0
 40
0
 40
0
 40
1
 40
1
 40
1
 40
1
 10
43.963839
 20
145.744920
 30
0.0
 10
45.525131
 20
144.949090
 30
0.0
 10
49.787536
 20
141.177940
 30
0.0
 10
51.969631
 20
138.661830
 30
0.0
  0
SPLINE
  5
108
100
AcDbEntity
  8
Ebene_1
 62
7
100
AcDbSpline
 70
8
 71
3
 72
8
 73
4
 74
0
 40
0
 40
0
 40
0
 40
0
 40
1
 40
1
 40
1
 40
1
 10
51.969631
 20
138.661830
 30
0.0
 10
54.194944
 20
136.095890
 30
0.0
 10
58.296528
 20
130.394750
 30
0.0
 10
58.296528
 20
129.867530
 30
0.0
  0
SPLINE
  5
109
100
AcDbEntity
  8
Ebene_1
 62
7
100
AcDbSpline
 70
8
 71
3
 72
8
 73
4
 74
0
 40
0
 40
0
 40
0
 40
0
 40
1
 40
1
 40
1
 40
1
 10
58.296528
 20
129.867530
 30
0.0
 10
58.296528
 20
129.675700
 30
0.0
 10
58.579957
 20
129.518750
 30
0.0
 10
58.926372
 20
129.518750
 30
0.0
  0
SPLINE
  5
10a
100
AcDbEntity
  8
Ebene_1
 62
7
100
AcDbSpline
 70
8
 71
3
 72
8
 73
4
 74
0
 40
0
 40
0
 40
0
 40
0
 40
1
 40
1
 40
1
 40
1
 10
58.926372
 20
129.518750
 30
0.0
 10
59.472203
 20
129.518750
 30
0.0
 10
59.564051
 20
129.886280
 30
0.0
 10
59.614960
 20
132.274100
 30
0.0
  0
SPLINE
  5
10b
100
AcDbEntity
  8
Ebene_1
 62
7
100
AcDbSpline
 70
8
 71
3
 72
8
 73
4
 74
0
 40
0
 40
0
 40
0
 40
0
 40
1
 40
1
 40
1
 40
1
 10
59.614960
 20
132.274100
 30
0.0
 10
59.673680
 20
135.028370
 30
0.0
 10
60.214408
 20
137.115520
 30
0.0
 10
62.316555
 20
142.701980
 30
0.0
  0
SPLINE
  5
10c
100
AcDbEntity
  8
Ebene_1
 62
7
100
AcDbSpline
 70
8
 71
3
 72
8
 73
4
 74
0
 40
0
 40
0
 40
0
 40
0
 40
1
 40
1
 40
1
 40
1
 10
62.316555
 20
142.701980
 30
0.0
 10
63.727053
 20
146.450380
 30
0.0
 10
64.413184
 20
150.712210
 30
0.0
 10
64.169800
 20
154.213190
 30
0.0
  0
SPLINE
  5
10d
100
AcDbEntity
  8
Ebene_1
 62
7
100
AcDbSpline
 70
8
 71
3
 72
8
 73
4
 74
0
 40
0
 40
0
 40
0
 40
0
 40
1
 40
1
 40
1
 40
1
 10
64.169800
 20
154.213190
 30
0.0
 10
63.880259
 20
158.378130
 30
0.0
 10
61.034853
 20
170.077720
 30
0.0
 10
59.708898
 20
172.555290
 30
0.0
  0
SPLINE
  5
10e
100
AcDbEntity
  8
Ebene_1
 62
7
100
AcDbSpline
 70
8
 71
3
 72
8
 73
4
 74
0
 40
0
 40
0
 40
0
 40
0
 40
1
 40
1
 40
1
 40
1
 10
59.708898
 20
172.555290
 30
0.0
 10
59.058804
 20
173.770000
 30
0.0
 10
59.471238
 20
173.719010
 30
0.0
 10
61.243859
 20
172.365510
 30
0.0
  0
SPLINE
  5
10f
100
AcDbEntity
  8
Ebene_1
 62
7
100
AcDbSpline
 70
8
 71
3
 72
8
 73
4
 74
0
 40
0
 40
0
 40
0
 40
0
 40
1
 40
1
 40
1
 40
1
 10
61.243859
 20
172.365510
 30
0.0
 10
63.810084
 20
170.406050
 30
0.0
 10
66.659120
 20
167.641900
 30
0.0
 10
68.499852
 20
165.325690
 30
0.0
  0
SPLINE
  5
110
100
AcDbEntity
  8
Ebene_1
 62
7
100
AcDbSpline
 70
8
 71
3
 72
8
 73
4
 74
0
 40
0
 40
0
 40
0
 40
0
 40
1
 40
1
 40
1
 40
1
 10
68.499852
 20
165.325690
 30
0.0
 10
70.416863
 20
162.913510
 30
0.0
 10
72.267356
 20
159.863110
 30
0.0
 10
71.823799
 20
159.846420
 30
0.0
  0
SPLINE
  5
111
100
AcDbEntity
  8
Ebene_1
 62
7
100
AcDbSpline
 70
8
 71
3
 72
8
 73
4
 74
0
 40
0
 40
0
 40
0
 40
0
 40
1
 40
1
 40
1
 40
1
 10
71.823799
 20
159.846420
 30
0.0
 10
71.659842
 20
159.840420
 30
0.0
 10
71.763819
 20
159.641810
 30
0.0
 10
72.054861
 20
159.405450
 30
0.0
  0
SPLINE
  5
112
100
AcDbEntity
  8
Ebene_1
 62
7
100
AcDbSpline
 70
8
 71
3
 72
8
 73
4
 74
0
 40
0
 40
0
 40
0
 40
0
 40
1
 40
1
 40
1
 40
1
 10
72.054861
 20
159.405450
 30
0.0
 10
72.691695
 20
158.888260
 30
0.0
 10
73.814316
 20
156.545180
 30
0.0
 10
73.829969
 20
155.700530
 30
0.0
  0
SPLINE
  5
113
100
AcDbEntity
  8
Ebene_1
 62
7
100
AcDbSpline
 70
8
 71
3
 72
8
 73
4
 74
0
 40
0
 40
0
 40
0
 40
0
 40
1
 40
1
 40
1
 40
1
 10
73.829969
 20
155.700530
 30
0.0
 10
73.841089
 20
155.100340
 30
0.0
 10
74.606126
 20
153.860420
 30
0.0
 10
74.965319
 20
153.860420
 30
0.0
  0
SPLINE
  5
114
100
AcDbEntity
  8
Ebene_1
 62
7
100
AcDbSpline
 70
8
 71
3
 72
8
 73
4
 74
0
 40
0
 40
0
 40
0
 40
0
 40
1
 40
1
 40
1
 40
1
 10
74.965319
 20
153.860420
 30
0.0
 10
75.375292
 20
153.860420
 30
0.0
 10
76.766370
 20
157.373610
 30
0.0
 10
77.546560
 20
160.379380
 30
0.0
  0
SPLINE
  5
115
100
AcDbEntity
  8
Ebene_1
 62
7
100
AcDbSpline
 70
8
 71
3
 72
8
 73
4
 74
0
 40
0
 40
0
 40
0
 40
0
 40
1
 40
1
 40
1
 40
1
 10
77.546560
 20
160.379380
 30
0.0
 10
79.674625
 20
168.578000
 30
0.0
 10
80.275681
 20
176.550360
 30
0.0
 10
79.315807
 20
183.846530
 30
0.0
  0
SPLINE
  5
116
100
AcDbEntity
  8
Ebene_1
 62
7
100
AcDbSpline
 70
8
 71
3
 72
8
 73
4
 74
0
 40
0
 40
0
 40
0
 40
0
 40
1
 40
1
 40
1
 40
1
 10
79.315807
 20
183.846530
 30
0.0
 10
78.775522
 20
187.953330
 30
0.0
 10
76.697215
 20
197.238973
 30
0.0
 10
75.960071
 20
198.839583
 30
0.0
  0
SPLINE
  5
117
100
AcDbEntity
  8
Ebene_1
 62
7
100
AcDbSpline
 70
8
 71
3
 72
8
 73
4
 74
0
 40
0
 40
0
 40
0
 40
0
 40
1
 40
1
 40
1
 40
1
 10
75.960071
 20
198.839583
 30
0.0
 10
75.781356
 20
199.227639
 30
0.0
 10
74.898932
 20
201.370764
 30
0.0
 10
73.999129
 20
203.602083
 30
0.0
  0
SPLINE
  5
118
100
AcDbEntity
  8
Ebene_1
 62
7
100
AcDbSpline
 70
8
 71
3
 72
8
 73
4
 74
0
 40
0
 40
0
 40
0
 40
0
 40
1
 40
1
 40
1
 40
1
 10
73.999129
 20
203.602083
 30
0.0
 10
73.099326
 20
205.833403
 30
0.0
 10
72.261716
 20
207.896722
 30
0.0
 10
72.137773
 20
208.187238
 30
0.0
  0
SPLINE
  5
119
100
AcDbEntity
  8
Ebene_1
 62
7
100
AcDbSpline
 70
8
 71
3
 72
8
 73
4
 74
0
 40
0
 40
0
 40
0
 40
0
 40
1
 40
1
 40
1
 40
1
 10
72.137773
 20
208.187238
 30
0.0
 10
71.963091
 20
208.596683
 30
0.0
 10
72.146573
 20
208.566365
 30
0.0
 10
72.953780
 20
208.052395
 30
0.0
  0
SPLINE
  5
11a
100
AcDbEntity
  8
Ebene_1
 62
7
100
AcDbSpline
 70
8
 71
3
 72
8
 73
4
 74
0
 40
0
 40
0
 40
0
 40
0
 40
1
 40
1
 40
1
 40
1
 10
72.953780
 20
208.052395
 30
0.0
 10
74.314554
 20
207.185964
 30
0.0
 10
77.637855
 20
204.718111
 30
0.0
 10
78.757639
 20
203.742503
 30
0.0
  0
SPLINE
  5
11b
100
AcDbEntity
  8
Ebene_1
 62
7
100
AcDbSpline
 70
8
 71
3
 72
8
 73
4
 74
0
 40
0
 40
0
 40
0
 40
0
 40
1
 40
1
 40
1
 40
1
 10
78.757639
 20
203.742503
 30
0.0
 10
87.421840
 20
196.193840
 30
0.0
 10
92.555407
 20
190.017680
 30
0.0
 10
95.500790
 20
183.598920
 30
0.0
  0
SPLINE
  5
11c
100
AcDbEntity
  8
Ebene_1
 62
7
100
AcDbSpline
 70
8
 71
3
 72
8
 73
4
 74
0
 40
0
 40
0
 40
0
 40
0
 40
1
 40
1
 40
1
 40
1
 10
95.500790
 20
183.598920
 30
0.0
 10
97.029414
 20
180.267660
 30
0.0
 10
97.676362
 20
180.354290
 30
0.0
 10
98.667098
 20
184.022920
 30
0.0
  0
SPLINE
  5
11d
100
AcDbEntity
  8
Ebene_1
 62
7
100
AcDbSpline
 70
8
 71
3
 72
8
 73
4
 74
0
 40
0
 40
0
 40
0
 40
0
 40
1
 40
1
 40
1
 40
1
 10
98.667098
 20
184.022920
 30
0.0
 10
99.477522
 20
187.023860
 30
0.0
 10
99.755161
 20
193.005000
 30
0.0
 10
99.249665
 20
196.573070
 30
0.0
  0
SPLINE
  5
11e
100
AcDbEntity
  8
Ebene_1
 62
7
100
AcDbSpline
 70
8
 71
3
 72
8
 73
4
 74
0
 40
0
 40
0
 40
0
 40
0
 40
1
 40
1
 40
1
 40
1
 10
99.249665
 20
196.573070
 30
0.0
 10
98.791996
 20
199.803560
 30
0.0
 10
96.420873
 20
209.656562
 30
0.0
 10
95.350842
 20
212.774305
 30
0.0
  0
SPLINE
  5
11f
100
AcDbEntity
  8
Ebene_1
 62
7
100
AcDbSpline
 70
8
 71
3
 72
8
 73
4
 74
0
 40
0
 40
0
 40
0
 40
0
 40
1
 40
1
 40
1
 40
1
 10
95.350842
 20
212.774305
 30
0.0
 10
92.605079
 20
220.774622
 30
0.0
 10
92.075179
 20
230.779504
 30
0.0
 10
94.089634
 20
236.586805
 30
0.0
  0
SPLINE
  5
120
100
AcDbEntity
  8
Ebene_1
 62
7
100
AcDbSpline
 70
8
 71
3
 72
8
 73
4
 74
0
 40
0
 40
0
 40
0
 40
0
 40
1
 40
1
 40
1
 40
1
 10
94.089634
 20
236.586805
 30
0.0
 10
94.628074
 20
238.139028
 30
0.0
 10
95.269244
 20
239.647153
 30
0.0
 10
95.514456
 20
239.938194
 30
0.0
  0
SPLINE
  5
121
100
AcDbEntity
  8
Ebene_1
 62
7
100
AcDbSpline
 70
8
 71
3
 72
8
 73
4
 74
0
 40
0
 40
0
 40
0
 40
0
 40
1
 40
1
 40
1
 40
1
 10
95.514456
 20
239.938194
 30
0.0
 10
95.759668
 20
240.229236
 30
0.0
 10
96.075487
 20
240.844527
 30
0.0
 10
96.216276
 20
241.305508
 30
0.0
  0
SPLINE
  5
122
100
AcDbEntity
  8
Ebene_1
 62
7
100
AcDbSpline
 70
8
 71
3
 72
8
 73
4
 74
0
 40
0
 40
0
 40
0
 40
0
 40
1
 40
1
 40
1
 40
1
 10
96.216276
 20
241.305508
 30
0.0
 10
96.500425
 20
242.235891
 30
0.0
 10
100.920160
 20
246.821042
 30
0.0
 10
101.232120
 20
246.509080
 30
0.0
  0
SPLINE
  5
123
100
AcDbEntity
  8
Ebene_1
 62
7
100
AcDbSpline
 70
8
 71
3
 72
8
 73
4
 74
0
 40
0
 40
0
 40
0
 40
0
 40
1
 40
1
 40
1
 40
1
 10
101.232120
 20
246.509080
 30
0.0
 10
101.340590
 20
246.400608
 30
0.0
 10
101.227120
 20
244.780998
 30
0.0
 10
100.979080
 20
242.909946
 30
0.0
  0
SPLINE
  5
124
100
AcDbEntity
  8
Ebene_1
 62
7
100
AcDbSpline
 70
8
 71
3
 72
8
 73
4
 74
0
 40
0
 40
0
 40
0
 40
0
 40
1
 40
1
 40
1
 40
1
 10
100.979080
 20
242.909946
 30
0.0
 10
99.920913
 20
234.915011
 30
0.0
 10
101.570170
 20
225.368969
 30
0.0
 10
105.301830
 20
217.889583
 30
0.0
  0
SPLINE
  5
125
100
AcDbEntity
  8
Ebene_1
 62
7
100
AcDbSpline
 70
8
 71
3
 72
8
 73
4
 74
0
 40
0
 40
0
 40
0
 40
0
 40
1
 40
1
 40
1
 40
1
 10
105.301830
 20
217.889583
 30
0.0
 10
106.194360
 20
216.100684
 30
0.0
 10
109.340410
 20
210.690198
 30
0.0
 10
110.532660
 20
208.893750
 30
0.0
  0
SPLINE
  5
126
100
AcDbEntity
  8
Ebene_1
 62
7
100
AcDbSpline
 70
8
 71
3
 72
8
 73
4
 74
0
 40
0
 40
0
 40
0
 40
0
 40
1
 40
1
 40
1
 40
1
 10
110.532660
 20
208.893750
 30
0.0
 10
111.624030
 20
207.249317
 30
0.0
 10
114.299150
 20
201.156400
 30
0.0
 10
115.334220
 20
197.957639
 30
0.0
  0
SPLINE
  5
127
100
AcDbEntity
  8
Ebene_1
 62
7
100
AcDbSpline
 70
8
 71
3
 72
8
 73
4
 74
0
 40
0
 40
0
 40
0
 40
0
 40
1
 40
1
 40
1
 40
1
 10
115.334220
 20
197.957639
 30
0.0
 10
118.616550
 20
187.813880
 30
0.0
 10
119.378670
 20
177.926000
 30
0.0
 10
117.740590
 20
166.736810
 30
0.0
  0
SPLINE
  5
128
100
AcDbEntity
  8
Ebene_1
 62
7
100
AcDbSpline
 70
8
 71
3
 72
8
 73
4
 74
0
 40
0
 40
0
 40
0
 40
0
 40
1
 40
1
 40
1
 40
1
 10
117.740590
 20
166.736810
 30
0.0
 10
117.086830
 20
162.271130
 30
0.0
 10
117.089050
 20
161.974310
 30
0.0
 10
117.776290
 20
161.974310
 30
0.0
  0
SPLINE
  5
129
100
AcDbEntity
  8
Ebene_1
 62
7
100
AcDbSpline
 70
8
 71
3
 72
8
 73
4
 74
0
 40
0
 40
0
 40
0
 40
0
 40
1
 40
1
 40
1
 40
1
 10
117.776290
 20
161.974310
 30
0.0
 10
118.559910
 20
161.974310
 30
0.0
 10
122.200830
 20
165.771010
 30
0.0
 10
123.775360
 20
168.230070
 30
0.0
  0
SPLINE
  5
12a
100
AcDbEntity
  8
Ebene_1
 62
7
100
AcDbSpline
 70
8
 71
3
 72
8
 73
4
 74
0
 40
0
 40
0
 40
0
 40
0
 40
1
 40
1
 40
1
 40
1
 10
123.775360
 20
168.230070
 30
0.0
 10
127.885880
 20
174.649750
 30
0.0
 10
129.515670
 20
181.146520
 30
0.0
 10
129.861160
 20
192.489580
 30
0.0
  0
SPLINE
  5
12b
100
AcDbEntity
  8
Ebene_1
 62
7
100
AcDbSpline
 70
8
 71
3
 72
8
 73
4
 74
0
 40
0
 40
0
 40
0
 40
0
 40
1
 40
1
 40
1
 40
1
 10
130.968740
 20
198.310417
 30
0.0
 10
131.453810
 20
197.437292
 30
0.0
 10
132.226770
 20
195.849790
 30
0.0
 10
132.686430
 20
194.782640
 30
0.0
  0
SPLINE
  5
12c
100
AcDbEntity
  8
Ebene_1
 62
7
100
AcDbSpline
 70
8
 71
3
 72
8
 73
4
 74
0
 40
0
 40
0
 40
0
 40
0
 40
1
 40
1
 40
1
 40
1
 10
132.686430
 20
194.782640
 30
0.0
 10
133.146080
 20
193.715490
 30
0.0
 10
133.720460
 20
192.445490
 30
0.0
 10
133.962830
 20
191.960420
 30
0.0
  0
SPLINE
  5
12d
100
AcDbEntity
  8
Ebene_1
 62
7
100
AcDbSpline
 70
8
 71
3
 72
8
 73
4
 74
0
 40
0
 40
0
 40
0
 40
0
 40
1
 40
1
 40
1
 40
1
 10
133.962830
 20
191.960420
 30
0.0
 10
135.235000
 20
189.414270
 30
0.0
 10
137.316740
 20
181.683890
 30
0.0
 10
138.047850
 20
176.790970
 30
0.0
  0
SPLINE
  5
12e
100
AcDbEntity
  8
Ebene_1
 62
7
100
AcDbSpline
 70
8
 71
3
 72
8
 73
4
 74
0
 40
0
 40
0
 40
0
 40
0
 40
1
 40
1
 40
1
 40
1
 10
138.047850
 20
176.790970
 30
0.0
 10
139.018190
 20
170.297080
 30
0.0
 10
138.083250
 20
158.754420
 30
0.0
 10
136.033400
 20
151.920140
 30
0.0
  0
SPLINE
  5
12f
100
AcDbEntity
  8
Ebene_1
 62
7
100
AcDbSpline
 70
8
 71
3
 72
8
 73
4
 74
0
 40
0
 40
0
 40
0
 40
0
 40
1
 40
1
 40
1
 40
1
 10
136.033400
 20
151.920140
 30
0.0
 10
134.915950
 20
148.194540
 30
0.0
 10
134.765290
 20
145.679340
 30
0.0
 10
135.609040
 20
144.835590
 30
0.0
  0
SPLINE
  5
130
100
AcDbEntity
  8
Ebene_1
 62
7
100
AcDbSpline
 70
8
 71
3
 72
8
 73
4
 74
0
 40
0
 40
0
 40
0
 40
0
 40
1
 40
1
 40
1
 40
1
 10
135.609040
 20
144.835590
 30
0.0
 10
136.305290
 20
144.139340
 30
0.0
 10
138.809420
 20
143.808660
 30
0.0
 10
140.952240
 20
144.129990
 30
0.0
  0
SPLINE
  5
131
100
AcDbEntity
  8
Ebene_1
 62
7
100
AcDbSpline
 70
8
 71
3
 72
8
 73
4
 74
0
 40
0
 40
0
 40
0
 40
0
 40
1
 40
1
 40
1
 40
1
 10
140.952240
 20
144.129990
 30
0.0
 10
143.167870
 20
144.462240
 30
0.0
 10
144.879520
 20
145.726340
 30
0.0
 10
147.838880
 20
149.215950
 30
0.0
  0
SPLINE
  5
132
100
AcDbEntity
  8
Ebene_1
 62
7
100
AcDbSpline
 70
8
 71
3
 72
8
 73
4
 74
0
 40
0
 40
0
 40
0
 40
0
 40
1
 40
1
 40
1
 40
1
 10
147.838880
 20
149.215950
 30
0.0
 10
152.157720
 20
154.308630
 30
0.0
 10
155.247890
 20
160.878350
 30
0.0
 10
157.449980
 20
169.649210
 30
0.0
  0
SPLINE
  5
133
100
AcDbEntity
  8
Ebene_1
 62
7
100
AcDbSpline
 70
8
 71
3
 72
8
 73
4
 74
0
 40
0
 40
0
 40
0
 40
0
 40
1
 40
1
 40
1
 40
1
 10
157.449980
 20
169.649210
 30
0.0
 10
157.900860
 20
171.445060
 30
0.0
 10
158.380120
 20
172.794440
 30
0.0
 10
158.514990
 20
172.647820
 30
0.0
  0
SPLINE
  5
134
100
AcDbEntity
  8
Ebene_1
 62
7
100
AcDbSpline
 70
8
 71
3
 72
8
 73
4
 74
0
 40
0
 40
0
 40
0
 40
0
 40
1
 40
1
 40
1
 40
1
 10
158.514990
 20
172.647820
 30
0.0
 10
158.649870
 20
172.501210
 30
0.0
 10
159.121520
 20
170.714380
 30
0.0
 10
159.563100
 20
168.677080
 30
0.0
  0
SPLINE
  5
135
100
AcDbEntity
  8
Ebene_1
 62
7
100
AcDbSpline
 70
8
 71
3
 72
8
 73
4
 74
0
 40
0
 40
0
 40
0
 40
0
 40
1
 40
1
 40
1
 40
1
 10
159.563100
 20
168.677080
 30
0.0
 10
160.486740
 20
164.415720
 30
0.0
 10
160.668630
 20
156.618230
 30
0.0
 10
159.929290
 20
152.978470
 30
0.0
  0
SPLINE
  5
136
100
AcDbEntity
  8
Ebene_1
 62
7
100
AcDbSpline
 70
8
 71
3
 72
8
 73
4
 74
0
 40
0
 40
0
 40
0
 40
0
 40
1
 40
1
 40
1
 40
1
 10
159.929290
 20
152.978470
 30
0.0
 10
158.762440
 20
147.234070
 30
0.0
 10
156.081880
 20
140.461870
 30
0.0
 10
152.668240
 20
134.634030
 30
0.0
  0
SPLINE
  5
137
100
AcDbEntity
  8
Ebene_1
 62
7
100
AcDbSpline
 70
8
 71
3
 72
8
 73
4
 74
0
 40
0
 40
0
 40
0
 40
0
 40
1
 40
1
 40
1
 40
1
 10
152.668240
 20
134.634030
 30
0.0
 10
148.981850
 20
128.340560
 30
0.0
 10
148.617320
 20
126.839790
 30
0.0
 10
150.004150
 20
123.666190
 30
0.0
  0
SPLINE
  5
138
100
AcDbEntity
  8
Ebene_1
 62
7
100
AcDbSpline
 70
8
 71
3
 72
8
 73
4
 74
0
 40
0
 40
0
 40
0
 40
0
 40
1
 40
1
 40
1
 40
1
 10
150.004150
 20
123.666190
 30
0.0
 10
151.563490
 20
120.097860
 30
0.0
 10
156.008920
 20
119.761550
 30
0.0
 10
159.759600
 20
122.928180
 30
0.0
  0
SPLINE
  5
139
100
AcDbEntity
  8
Ebene_1
 62
7
100
AcDbSpline
 70
8
 71
3
 72
8
 73
4
 74
0
 40
0
 40
0
 40
0
 40
0
 40
1
 40
1
 40
1
 40
1
 10
159.759600
 20
122.928180
 30
0.0
 10
161.657160
 20
124.530240
 30
0.0
 10
164.128670
 20
128.620430
 30
0.0
 10
165.917290
 20
133.118740
 30
0.0
  0
SPLINE
  5
13a
100
AcDbEntity
  8
Ebene_1
 62
7
100
AcDbSpline
 70
8
 71
3
 72
8
 73
4
 74
0
 40
0
 40
0
 40
0
 40
0
 40
1
 40
1
 40
1
 40
1
 10
165.917290
 20
133.118740
 30
0.0
 10
166.865860
 20
135.504370
 30
0.0
 10
167.645500
 20
137.686440
 30
0.0
 10
167.649800
 20
137.967780
 30
0.0
  0
SPLINE
  5
13b
100
AcDbEntity
  8
Ebene_1
 62
7
100
AcDbSpline
 70
8
 71
3
 72
8
 73
4
 74
0
 40
0
 40
0
 40
0
 40
0
 40
1
 40
1
 40
1
 40
1
 10
167.649800
 20
137.967780
 30
0.0
 10
167.654800
 20
138.290420
 30
0.0
 10
167.780950
 20
138.355560
 30
0.0
 10
167.991600
 20
138.144170
 30
0.0
  0
SPLINE
  5
13c
100
AcDbEntity
  8
Ebene_1
 62
7
100
AcDbSpline
 70
8
 71
3
 72
8
 73
4
 74
0
 40
0
 40
0
 40
0
 40
0
 40
1
 40
1
 40
1
 40
1
 10
167.991600
 20
138.144170
 30
0.0
 10
168.889970
 20
137.242670
 30
0.0
 10
168.555800
 20
125.856370
 30
0.0
 10
167.464090
 20
120.170140
 30
0.0
  0
SPLINE
  5
13d
100
AcDbEntity
  8
Ebene_1
 62
7
100
AcDbSpline
 70
8
 71
3
 72
8
 73
4
 74
0
 40
0
 40
0
 40
0
 40
0
 40
1
 40
1
 40
1
 40
1
 10
167.464090
 20
120.170140
 30
0.0
 10
165.527810
 20
110.084850
 30
0.0
 10
159.716190
 20
99.598950
 30
0.0
 10
151.905240
 20
92.097360
 30
0.0
  0
SPLINE
  5
13e
100
AcDbEntity
  8
Ebene_1
 62
7
100
AcDbSpline
 70
8
 71
3
 72
8
 73
4
 74
0
 40
0
 40
0
 40
0
 40
0
 40
1
 40
1
 40
1
 40
1
 10
151.905240
 20
92.097360
 30
0.0
 10
149.636080
 20
89.918070
 30
0.0
 10
145.731310
 20
86.832640
 30
0.0
 10
145.242470
 20
86.832640
 30
0.0
  0
SPLINE
  5
13f
100
AcDbEntity
  8
Ebene_1
 62
7
100
AcDbSpline
 70
8
 71
3
 72
8
 73
4
 74
0
 40
0
 40
0
 40
0
 40
0
 40
1
 40
1
 40
1
 40
1
 10
145.242470
 20
86.832640
 30
0.0
 10
145.121310
 20
86.832640
 30
0.0
 10
144.122340
 20
86.311570
 30
0.0
 10
143.022540
 20
85.674710
 30
0.0
  0
SPLINE
  5
140
100
AcDbEntity
  8
Ebene_1
 62
7
100
AcDbSpline
 70
8
 71
3
 72
8
 73
4
 74
0
 40
0
 40
0
 40
0
 40
0
 40
1
 40
1
 40
1
 40
1
 10
143.022540
 20
85.674710
 30
0.0
 10
138.202540
 20
82.883580
 30
0.0
 10
130.742860
 20
80.099300
 30
0.0
 10
124.442350
 20
78.739760
 30
0.0
  0
SPLINE
  5
141
100
AcDbEntity
  8
Ebene_1
 62
7
100
AcDbSpline
 70
8
 71
3
 72
8
 73
4
 74
0
 40
0
 40
0
 40
0
 40
0
 40
1
 40
1
 40
1
 40
1
 10
124.442350
 20
78.739760
 30
0.0
 10
121.427470
 20
78.089200
 30
0.0
 10
110.492810
 20
76.877990
 30
0.0
 10
108.942220
 20
77.022840
 30
0.0
  0
SPLINE
  5
142
100
AcDbEntity
  8
Ebene_1
 62
7
100
AcDbSpline
 70
8
 71
3
 72
8
 73
4
 74
0
 40
0
 40
0
 40
0
 40
0
 40
1
 40
1
 40
1
 40
1
 10
108.942220
 20
77.022840
 30
0.0
 10
108.542010
 20
77.060240
 30
0.0
 10
107.182700
 20
77.139770
 30
0.0
 10
105.921520
 20
77.199600
 30
0.0
  0
LWPOLYLINE
  5
143
100
AcDbEntity
  8
Ebene_1
 62
7
100
AcDbPolyline
 90
3
 70
0
 10
129.861160
 20
192.489580
 30
0.0
 10
130.086800
 20
199.897917
 30
0.0
 10
130.968740
 20
198.310417
 30
0.0
  0
SPLINE
  5
144
100
AcDbEntity
  8
Ebene_1
 62
7
100
AcDbSpline
 70
8
 71
3
 72
8
 73
4
 74
0
 40
0
 40
0
 40
0
 40
0
 40
1
 40
1
 40
1
 40
1
 10
132.969530
 20
87.187190
 30
0.0
 10
137.653410
 20
89.062700
 30
0.0
 10
140.736860
 20
91.587230
 30
0.0
 10
142.443310
 20
94.943720
 30
0.0
  0
SPLINE
  5
145
100
AcDbEntity
  8
Ebene_1
 62
7
100
AcDbSpline
 70
8
 71
3
 72
8
 73
4
 74
0
 40
0
 40
0
 40
0
 40
0
 40
1
 40
1
 40
1
 40
1
 10
142.443310
 20
94.943720
 30
0.0
 10
143.272850
 20
96.575360
 30
0.0
 10
143.525870
 20
100.425800
 30
0.0
 10
142.899180
 20
101.881000
 30
0.0
  0
SPLINE
  5
146
100
AcDbEntity
  8
Ebene_1
 62
7
100
AcDbSpline
 70
8
 71
3
 72
8
 73
4
 74
0
 40
0
 40
0
 40
0
 40
0
 40
1
 40
1
 40
1
 40
1
 10
142.899180
 20
101.881000
 30
0.0
 10
142.426110
 20
102.979460
 30
0.0
 10
133.959580
 20
112.938360
 30
0.0
 10
133.499080
 20
112.938020
 30
0.0
  0
SPLINE
  5
147
100
AcDbEntity
  8
Ebene_1
 62
7
100
AcDbSpline
 70
8
 71
3
 72
8
 73
4
 74
0
 40
0
 40
0
 40
0
 40
0
 40
1
 40
1
 40
1
 40
1
 10
133.499080
 20
112.938020
 30
0.0
 10
133.368580
 20
112.937920
 30
0.0
 10
132.428150
 20
112.620980
 30
0.0
 10
131.409240
 20
112.233720
 30
0.0
  0
SPLINE
  5
148
100
AcDbEntity
  8
Ebene_1
 62
7
100
AcDbSpline
 70
8
 71
3
 72
8
 73
4
 74
0
 40
0
 40
0
 40
0
 40
0
 40
1
 40
1
 40
1
 40
1
 10
131.409240
 20
112.233720
 30
0.0
 10
130.390340
 20
111.846450
 30
0.0
 10
129.517210
 20
111.547670
 30
0.0
 10
129.468970
 20
111.569760
 30
0.0
  0
SPLINE
  5
149
100
AcDbEntity
  8
Ebene_1
 62
7
100
AcDbSpline
 70
8
 71
3
 72
8
 73
4
 74
0
 40
0
 40
0
 40
0
 40
0
 40
1
 40
1
 40
1
 40
1
 10
129.468970
 20
111.569760
 30
0.0
 10
129.420670
 20
111.591860
 30
0.0
 10
128.270000
 20
111.265450
 30
0.0
 10
126.911810
 20
110.844440
 30
0.0
  0
SPLINE
  5
14a
100
AcDbEntity
  8
Ebene_1
 62
7
100
AcDbSpline
 70
8
 71
3
 72
8
 73
4
 74
0
 40
0
 40
0
 40
0
 40
0
 40
1
 40
1
 40
1
 40
1
 10
126.911810
 20
110.844440
 30
0.0
 10
122.724540
 20
109.546490
 30
0.0
 10
116.830070
 20
108.704860
 30
0.0
 10
111.926890
 20
108.704860
 30
0.0
  0
SPLINE
  5
14b
100
AcDbEntity
  8
Ebene_1
 62
7
100
AcDbSpline
 70
8
 71
3
 72
8
 73
4
 74
0
 40
0
 40
0
 40
0
 40
0
 40
1
 40
1
 40
1
 40
1
 10
111.926890
 20
108.704860
 30
0.0
 10
106.873580
 20
108.704860
 30
0.0
 10
106.192070
 20
108.441310
 30
0.0
 10
107.349630
 20
106.934760
 30
0.0
  0
SPLINE
  5
14c
100
AcDbEntity
  8
Ebene_1
 62
7
100
AcDbSpline
 70
8
 71
3
 72
8
 73
4
 74
0
 40
0
 40
0
 40
0
 40
0
 40
1
 40
1
 40
1
 40
1
 10
107.349630
 20
106.934760
 30
0.0
 10
108.370230
 20
105.606470
 30
0.0
 10
108.241700
 20
104.824310
 30
0.0
 10
107.002830
 20
104.824310
 30
0.0
  0
SPLINE
  5
14d
100
AcDbEntity
  8
Ebene_1
 62
7
100
AcDbSpline
 70
8
 71
3
 72
8
 73
4
 74
0
 40
0
 40
0
 40
0
 40
0
 40
1
 40
1
 40
1
 40
1
 10
107.002830
 20
104.824310
 30
0.0
 10
105.142880
 20
104.824310
 30
0.0
 10
104.134620
 20
105.443960
 30
0.0
 10
103.542710
 20
106.950840
 30
0.0
  0
SPLINE
  5
14e
100
AcDbEntity
  8
Ebene_1
 62
7
100
AcDbSpline
 70
8
 71
3
 72
8
 73
4
 74
0
 40
0
 40
0
 40
0
 40
0
 40
1
 40
1
 40
1
 40
1
 10
103.542710
 20
106.950840
 30
0.0
 10
102.955620
 20
108.445410
 30
0.0
 10
102.982780
 20
108.431600
 30
0.0
 10
99.418542
 20
109.048260
 30
0.0
  0
SPLINE
  5
14f
100
AcDbEntity
  8
Ebene_1
 62
7
100
AcDbSpline
 70
8
 71
3
 72
8
 73
4
 74
0
 40
0
 40
0
 40
0
 40
0
 40
1
 40
1
 40
1
 40
1
 10
99.418542
 20
109.048260
 30
0.0
 10
96.167193
 20
109.610780
 30
0.0
 10
96.317048
 20
109.706560
 30
0.0
 10
96.448527
 20
107.149900
 30
0.0
  0
SPLINE
  5
150
100
AcDbEntity
  8
Ebene_1
 62
7
100
AcDbSpline
 70
8
 71
3
 72
8
 73
4
 74
0
 40
0
 40
0
 40
0
 40
0
 40
1
 40
1
 40
1
 40
1
 10
96.448527
 20
107.149900
 30
0.0
 10
96.541427
 20
105.343430
 30
0.0
 10
96.435097
 20
104.746090
 30
0.0
 10
95.919153
 20
104.175980
 30
0.0
  0
SPLINE
  5
151
100
AcDbEntity
  8
Ebene_1
 62
7
100
AcDbSpline
 70
8
 71
3
 72
8
 73
4
 74
0
 40
0
 40
0
 40
0
 40
0
 40
1
 40
1
 40
1
 40
1
 10
95.919153
 20
104.175980
 30
0.0
 10
95.494612
 20
103.706870
 30
0.0
 10
95.212510
 20
102.700700
 30
0.0
 10
95.095337
 20
101.237690
 30
0.0
  0
SPLINE
  5
152
100
AcDbEntity
  8
Ebene_1
 62
7
100
AcDbSpline
 70
8
 71
3
 72
8
 73
4
 74
0
 40
0
 40
0
 40
0
 40
0
 40
1
 40
1
 40
1
 40
1
 10
95.095337
 20
101.237690
 30
0.0
 10
94.997327
 20
100.014000
 30
0.0
 10
94.713618
 20
98.613830
 30
0.0
 10
94.464864
 20
98.126190
 30
0.0
  0
SPLINE
  5
153
100
AcDbEntity
  8
Ebene_1
 62
7
100
AcDbSpline
 70
8
 71
3
 72
8
 73
4
 74
0
 40
0
 40
0
 40
0
 40
0
 40
1
 40
1
 40
1
 40
1
 10
94.464864
 20
98.126190
 30
0.0
 10
93.817543
 20
96.857250
 30
0.0
 10
93.082945
 20
92.371710
 30
0.0
 10
93.348907
 20
91.312030
 30
0.0
  0
SPLINE
  5
154
100
AcDbEntity
  8
Ebene_1
 62
7
100
AcDbSpline
 70
8
 71
3
 72
8
 73
4
 74
0
 40
0
 40
0
 40
0
 40
0
 40
1
 40
1
 40
1
 40
1
 10
93.348907
 20
91.312030
 30
0.0
 10
93.472763
 20
90.818550
 30
0.0
 10
93.999185
 20
89.909610
 30
0.0
 10
94.518734
 20
89.292160
 30
0.0
  0
SPLINE
  5
155
100
AcDbEntity
  8
Ebene_1
 62
7
100
AcDbSpline
 70
8
 71
3
 72
8
 73
4
 74
0
 40
0
 40
0
 40
0
 40
0
 40
1
 40
1
 40
1
 40
1
 10
94.518734
 20
89.292160
 30
0.0
 10
95.423617
 20
88.216770
 30
0.0
 10
95.553518
 20
88.175750
 30
0.0
 10
97.605643
 20
88.317290
 30
0.0
  0
SPLINE
  5
156
100
AcDbEntity
  8
Ebene_1
 62
7
100
AcDbSpline
 70
8
 71
3
 72
8
 73
4
 74
0
 40
0
 40
0
 40
0
 40
0
 40
1
 40
1
 40
1
 40
1
 10
97.605643
 20
88.317290
 30
0.0
 10
99.558302
 20
88.451980
 30
0.0
 10
101.719440
 20
89.406250
 30
0.0
 10
102.815950
 20
90.617950
 30
0.0
  0
SPLINE
  5
157
100
AcDbEntity
  8
Ebene_1
 62
7
100
AcDbSpline
 70
8
 71
3
 72
8
 73
4
 74
0
 40
0
 40
0
 40
0
 40
0
 40
1
 40
1
 40
1
 40
1
 10
102.815950
 20
90.617950
 30
0.0
 10
104.762000
 20
92.768440
 30
0.0
 10
105.216220
 20
93.346790
 30
0.0
 10
105.217600
 20
93.675930
 30
0.0
  0
SPLINE
  5
158
100
AcDbEntity
  8
Ebene_1
 62
7
100
AcDbSpline
 70
8
 71
3
 72
8
 73
4
 74
0
 40
0
 40
0
 40
0
 40
0
 40
1
 40
1
 40
1
 40
1
 10
105.217600
 20
93.675930
 30
0.0
 10
105.219600
 20
94.217160
 30
0.0
 10
107.125560
 20
96.195430
 30
0.0
 10
108.330080
 20
96.906950
 30
0.0
  0
SPLINE
  5
159
100
AcDbEntity
  8
Ebene_1
 62
7
100
AcDbSpline
 70
8
 71
3
 72
8
 73
4
 74
0
 40
0
 40
0
 40
0
 40
0
 40
1
 40
1
 40
1
 40
1
 10
108.330080
 20
96.906950
 30
0.0
 10
109.500950
 20
97.598600
 30
0.0
 10
110.192710
 20
98.599130
 30
0.0
 10
110.487520
 20
100.027360
 30
0.0
  0
SPLINE
  5
15a
100
AcDbEntity
  8
Ebene_1
 62
7
100
AcDbSpline
 70
8
 71
3
 72
8
 73
4
 74
0
 40
0
 40
0
 40
0
 40
0
 40
1
 40
1
 40
1
 40
1
 10
110.487520
 20
100.027360
 30
0.0
 10
110.688440
 20
101.000770
 30
0.0
 10
110.799840
 20
100.887740
 30
0.0
 10
112.747450
 20
97.734300
 30
0.0
  0
SPLINE
  5
15b
100
AcDbEntity
  8
Ebene_1
 62
7
100
AcDbSpline
 70
8
 71
3
 72
8
 73
4
 74
0
 40
0
 40
0
 40
0
 40
0
 40
1
 40
1
 40
1
 40
1
 10
112.747450
 20
97.734300
 30
0.0
 10
114.974350
 20
94.128660
 30
0.0
 10
119.344210
 20
88.595280
 30
0.0
 10
120.710470
 20
87.651050
 30
0.0
  0
SPLINE
  5
15c
100
AcDbEntity
  8
Ebene_1
 62
7
100
AcDbSpline
 70
8
 71
3
 72
8
 73
4
 74
0
 40
0
 40
0
 40
0
 40
0
 40
1
 40
1
 40
1
 40
1
 10
120.710470
 20
87.651050
 30
0.0
 10
122.270170
 20
86.573140
 30
0.0
 10
124.056780
 20
86.158220
 30
0.0
 10
127.205820
 20
86.142570
 30
0.0
  0
SPLINE
  5
15d
100
AcDbEntity
  8
Ebene_1
 62
7
100
AcDbSpline
 70
8
 71
3
 72
8
 73
4
 74
0
 40
0
 40
0
 40
0
 40
0
 40
1
 40
1
 40
1
 40
1
 10
127.205820
 20
86.142570
 30
0.0
 10
129.868870
 20
86.129370
 30
0.0
 10
130.707060
 20
86.281250
 30
0.0
 10
132.969530
 20
87.187190
 30
0.0
  0
LWPOLYLINE
  5
15e
100
AcDbEntity
  8
Ebene_1
 62
7
100
AcDbPolyline
 90
1
 70
1
 10
105.921520
 20
77.199600
 30
0.0
  0
SPLINE
  5
15f
100
AcDbEntity
  8
Ebene_1
 62
7
100
AcDbSpline
 70
8
 71
3
 72
8
 73
4
 74
0
 40
0
 40
0
 40
0
 40
0
 40
1
 40
1
 40
1
 40
1
 10
121.090970
 20
110.260400
 30
0.0
 10
127.718070
 20
111.192800
 30
0.0
 10
133.444360
 20
113.306730
 30
0.0
 10
134.752940
 20
115.303870
 30
0.0
  0
SPLINE
  5
160
100
AcDbEntity
  8
Ebene_1
 62
7
100
AcDbSpline
 70
8
 71
3
 72
8
 73
4
 74
0
 40
0
 40
0
 40
0
 40
0
 40
1
 40
1
 40
1
 40
1
 10
134.752940
 20
115.303870
 30
0.0
 10
135.240030
 20
116.047270
 30
0.0
 10
135.216900
 20
116.342290
 30
0.0
 10
134.495590
 20
118.585560
 30
0.0
  0
SPLINE
  5
161
100
AcDbEntity
  8
Ebene_1
 62
7
100
AcDbSpline
 70
8
 71
3
 72
8
 73
4
 74
0
 40
0
 40
0
 40
0
 40
0
 40
1
 40
1
 40
1
 40
1
 10
134.495590
 20
118.585560
 30
0.0
 10
133.816560
 20
120.697340
 30
0.0
 10
132.678150
 20
122.664690
 30
0.0
 10
130.083280
 20
126.210720
 30
0.0
  0
SPLINE
  5
162
100
AcDbEntity
  8
Ebene_1
 62
7
100
AcDbSpline
 70
8
 71
3
 72
8
 73
4
 74
0
 40
0
 40
0
 40
0
 40
0
 40
1
 40
1
 40
1
 40
1
 10
130.083280
 20
126.210720
 30
0.0
 10
129.781860
 20
126.622630
 30
0.0
 10
129.389940
 20
127.813250
 30
0.0
 10
129.212340
 20
128.856560
 30
0.0
  0
SPLINE
  5
163
100
AcDbEntity
  8
Ebene_1
 62
7
100
AcDbSpline
 70
8
 71
3
 72
8
 73
4
 74
0
 40
0
 40
0
 40
0
 40
0
 40
1
 40
1
 40
1
 40
1
 10
129.212340
 20
128.856560
 30
0.0
 10
129.034750
 20
129.899860
 30
0.0
 10
128.631340
 20
132.261600
 30
0.0
 10
128.315870
 20
134.104860
 30
0.0
  0
SPLINE
  5
164
100
AcDbEntity
  8
Ebene_1
 62
7
100
AcDbSpline
 70
8
 71
3
 72
8
 73
4
 74
0
 40
0
 40
0
 40
0
 40
0
 40
1
 40
1
 40
1
 40
1
 10
128.315870
 20
134.104860
 30
0.0
 10
127.312180
 20
139.969400
 30
0.0
 10
125.999260
 20
142.844050
 30
0.0
 10
122.893850
 20
145.976360
 30
0.0
  0
SPLINE
  5
165
100
AcDbEntity
  8
Ebene_1
 62
7
100
AcDbSpline
 70
8
 71
3
 72
8
 73
4
 74
0
 40
0
 40
0
 40
0
 40
0
 40
1
 40
1
 40
1
 40
1
 10
122.893850
 20
145.976360
 30
0.0
 10
117.880150
 20
151.033510
 30
0.0
 10
111.258890
 20
153.082330
 30
0.0
 10
101.182820
 20
152.694420
 30
0.0
  0
SPLINE
  5
166
100
AcDbEntity
  8
Ebene_1
 62
7
100
AcDbSpline
 70
8
 71
3
 72
8
 73
4
 74
0
 40
0
 40
0
 40
0
 40
0
 40
1
 40
1
 40
1
 40
1
 10
101.182820
 20
152.694420
 30
0.0
 10
89.763859
 20
152.254810
 30
0.0
 10
82.918011
 20
149.473860
 30
0.0
 10
79.123427
 20
143.733350
 30
0.0
  0
SPLINE
  5
167
100
AcDbEntity
  8
Ebene_1
 62
7
100
AcDbSpline
 70
8
 71
3
 72
8
 73
4
 74
0
 40
0
 40
0
 40
0
 40
0
 40
1
 40
1
 40
1
 40
1
 10
79.123427
 20
143.733350
 30
0.0
 10
77.058740
 20
140.609850
 30
0.0
 10
76.809991
 20
139.859730
 30
0.0
 10
75.753251
 20
133.570340
 30
0.0
  0
SPLINE
  5
168
100
AcDbEntity
  8
Ebene_1
 62
7
100
AcDbSpline
 70
8
 71
3
 72
8
 73
4
 74
0
 40
0
 40
0
 40
0
 40
0
 40
1
 40
1
 40
1
 40
1
 10
75.753251
 20
133.570340
 30
0.0
 10
75.232139
 20
130.468840
 30
0.0
 10
74.662670
 20
127.663130
 30
0.0
 10
74.487764
 20
127.335420
 30
0.0
  0
SPLINE
  5
169
100
AcDbEntity
  8
Ebene_1
 62
7
100
AcDbSpline
 70
8
 71
3
 72
8
 73
4
 74
0
 40
0
 40
0
 40
0
 40
0
 40
1
 40
1
 40
1
 40
1
 10
74.487764
 20
127.335420
 30
0.0
 10
74.151623
 20
126.705630
 30
0.0
 10
70.708089
 20
124.694280
 30
0.0
 10
70.223065
 20
124.844440
 30
0.0
  0
SPLINE
  5
16a
100
AcDbEntity
  8
Ebene_1
 62
7
100
AcDbSpline
 70
8
 71
3
 72
8
 73
4
 74
0
 40
0
 40
0
 40
0
 40
0
 40
1
 40
1
 40
1
 40
1
 10
70.223065
 20
124.844440
 30
0.0
 10
70.066386
 20
124.892940
 30
0.0
 10
69.938194
 20
124.793140
 30
0.0
 10
69.938194
 20
124.622660
 30
0.0
  0
SPLINE
  5
16b
100
AcDbEntity
  8
Ebene_1
 62
7
100
AcDbSpline
 70
8
 71
3
 72
8
 73
4
 74
0
 40
0
 40
0
 40
0
 40
0
 40
1
 40
1
 40
1
 40
1
 10
69.938194
 20
124.622660
 30
0.0
 10
69.938194
 20
124.452170
 30
0.0
 10
69.461944
 20
124.115410
 30
0.0
 10
68.879861
 20
123.874310
 30
0.0
  0
SPLINE
  5
16c
100
AcDbEntity
  8
Ebene_1
 62
7
100
AcDbSpline
 70
8
 71
3
 72
8
 73
4
 74
0
 40
0
 40
0
 40
0
 40
0
 40
1
 40
1
 40
1
 40
1
 10
68.879861
 20
123.874310
 30
0.0
 10
67.852932
 20
123.448940
 30
0.0
 10
67.580737
 20
122.730710
 30
0.0
 10
67.810298
 20
121.052080
 30
0.0
  0
SPLINE
  5
16d
100
AcDbEntity
  8
Ebene_1
 62
7
100
AcDbSpline
 70
8
 71
3
 72
8
 73
4
 74
0
 40
0
 40
0
 40
0
 40
0
 40
1
 40
1
 40
1
 40
1
 10
67.810298
 20
121.052080
 30
0.0
 10
68.113728
 20
118.833310
 30
0.0
 10
73.936082
 20
116.938290
 30
0.0
 10
82.529747
 20
116.261300
 30
0.0
  0
SPLINE
  5
16e
100
AcDbEntity
  8
Ebene_1
 62
7
100
AcDbSpline
 70
8
 71
3
 72
8
 73
4
 74
0
 40
0
 40
0
 40
0
 40
0
 40
1
 40
1
 40
1
 40
1
 10
82.529747
 20
116.261300
 30
0.0
 10
86.038569
 20
115.984880
 30
0.0
 10
88.665701
 20
115.106750
 30
0.0
 10
90.222917
 20
113.689820
 30
0.0
  0
SPLINE
  5
16f
100
AcDbEntity
  8
Ebene_1
 62
7
100
AcDbSpline
 70
8
 71
3
 72
8
 73
4
 74
0
 40
0
 40
0
 40
0
 40
0
 40
1
 40
1
 40
1
 40
1
 10
90.222917
 20
113.689820
 30
0.0
 10
91.659485
 20
112.382670
 30
0.0
 10
93.229319
 20
111.655810
 30
0.0
 10
97.631250
 20
110.259600
 30
0.0
  0
SPLINE
  5
170
100
AcDbEntity
  8
Ebene_1
 62
7
100
AcDbSpline
 70
8
 71
3
 72
8
 73
4
 74
0
 40
0
 40
0
 40
0
 40
0
 40
1
 40
1
 40
1
 40
1
 10
97.631250
 20
110.259600
 30
0.0
 10
99.945671
 20
109.525510
 30
0.0
 10
100.632200
 20
109.483040
 30
0.0
 10
108.567360
 20
109.582970
 30
0.0
  0
SPLINE
  5
171
100
AcDbEntity
  8
Ebene_1
 62
7
100
AcDbSpline
 70
8
 71
3
 72
8
 73
4
 74
0
 40
0
 40
0
 40
0
 40
0
 40
1
 40
1
 40
1
 40
1
 10
108.567360
 20
109.582970
 30
0.0
 10
113.882250
 20
109.649870
 30
0.0
 10
118.544250
 20
109.902090
 30
0.0
 10
121.090970
 20
110.260400
 30
0.0
  0
LWPOLYLINE
  5
172
100
AcDbEntity
  8
Ebene_1
 62
7
100
AcDbPolyline
 90
1
 70
1
 10
132.969530
 20
87.187190
 30
0.0
  0
SPLINE
  5
173
100
AcDbEntity
  8
Ebene_1
 62
7
100
AcDbSpline
 70
8
 71
3
 72
8
 73
4
 74
0
 40
0
 40
0
 40
0
 40
0
 40
1
 40
1
 40
1
 40
1
 10
93.221528
 20
123.769670
 30
0.0
 10
89.892323
 20
124.031560
 30
0.0
 10
78.422985
 20
126.384020
 30
0.0
 10
77.403522
 20
127.014080
 30
0.0
  0
SPLINE
  5
174
100
AcDbEntity
  8
Ebene_1
 62
7
100
AcDbSpline
 70
8
 71
3
 72
8
 73
4
 74
0
 40
0
 40
0
 40
0
 40
0
 40
1
 40
1
 40
1
 40
1
 10
77.403522
 20
127.014080
 30
0.0
 10
77.072899
 20
127.218420
 30
0.0
 10
77.065583
 20
127.702300
 30
0.0
 10
77.371542
 20
129.128960
 30
0.0
  0
SPLINE
  5
175
100
AcDbEntity
  8
Ebene_1
 62
7
100
AcDbSpline
 70
8
 71
3
 72
8
 73
4
 74
0
 40
0
 40
0
 40
0
 40
0
 40
1
 40
1
 40
1
 40
1
 10
77.371542
 20
129.128960
 30
0.0
 10
77.692253
 20
130.624380
 30
0.0
 10
77.879974
 20
130.935920
 30
0.0
 10
78.351151
 20
130.754700
 30
0.0
  0
SPLINE
  5
176
100
AcDbEntity
  8
Ebene_1
 62
7
100
AcDbSpline
 70
8
 71
3
 72
8
 73
4
 74
0
 40
0
 40
0
 40
0
 40
0
 40
1
 40
1
 40
1
 40
1
 10
78.351151
 20
130.754700
 30
0.0
 10
81.449631
 20
129.562990
 30
0.0
 10
92.105925
 20
127.855700
 30
0.0
 10
99.395135
 20
127.383140
 30
0.0
  0
SPLINE
  5
177
100
AcDbEntity
  8
Ebene_1
 62
7
100
AcDbSpline
 70
8
 71
3
 72
8
 73
4
 74
0
 40
0
 40
0
 40
0
 40
0
 40
1
 40
1
 40
1
 40
1
 10
99.395135
 20
127.383140
 30
0.0
 10
106.466630
 20
126.924700
 30
0.0
 10
114.914340
 20
127.518630
 30
0.0
 10
121.970620
 20
128.970360
 30
0.0
  0
SPLINE
  5
178
100
AcDbEntity
  8
Ebene_1
 62
7
100
AcDbSpline
 70
8
 71
3
 72
8
 73
4
 74
0
 40
0
 40
0
 40
0
 40
0
 40
1
 40
1
 40
1
 40
1
 10
121.970620
 20
128.970360
 30
0.0
 10
124.297700
 20
129.449120
 30
0.0
 10
126.313630
 20
129.728680
 30
0.0
 10
126.450480
 20
129.591600
 30
0.0
  0
SPLINE
  5
179
100
AcDbEntity
  8
Ebene_1
 62
7
100
AcDbSpline
 70
8
 71
3
 72
8
 73
4
 74
0
 40
0
 40
0
 40
0
 40
0
 40
1
 40
1
 40
1
 40
1
 10
126.450480
 20
129.591600
 30
0.0
 10
126.587330
 20
129.454520
 30
0.0
 10
126.802550
 20
128.696110
 30
0.0
 10
126.928730
 20
127.906240
 30
0.0
  0
LWPOLYLINE
  5
17a
100
AcDbEntity
  8
Ebene_1
 62
7
100
AcDbPolyline
 90
1
 70
1
 10
121.090970
 20
110.260400
 30
0.0
  0
SPLINE
  5
17b
100
AcDbEntity
  8
Ebene_1
 62
7
100
AcDbSpline
 70
8
 71
3
 72
8
 73
4
 74
0
 40
0
 40
0
 40
0
 40
0
 40
1
 40
1
 40
1
 40
1
 10
124.565540
 20
126.017520
 30
0.0
 10
123.139600
 20
125.768590
 30
0.0
 10
121.734790
 20
125.489390
 30
0.0
 10
121.443750
 20
125.397080
 30
0.0
  0
SPLINE
  5
17c
100
AcDbEntity
  8
Ebene_1
 62
7
100
AcDbSpline
 70
8
 71
3
 72
8
 73
4
 74
0
 40
0
 40
0
 40
0
 40
0
 40
1
 40
1
 40
1
 40
1
 10
121.443750
 20
125.397080
 30
0.0
 10
120.639700
 20
125.142050
 30
0.0
 10
117.459850
 20
124.621090
 30
0.0
 10
113.175900
 20
124.042560
 30
0.0
  0
SPLINE
  5
17d
100
AcDbEntity
  8
Ebene_1
 62
7
100
AcDbSpline
 70
8
 71
3
 72
8
 73
4
 74
0
 40
0
 40
0
 40
0
 40
0
 40
1
 40
1
 40
1
 40
1
 10
113.175900
 20
124.042560
 30
0.0
 10
109.633290
 20
123.564140
 30
0.0
 10
97.877991
 20
123.403380
 30
0.0
 10
93.221524
 20
123.769670
 30
0.0
  0
LWPOLYLINE
  5
17e
100
AcDbEntity
  8
Ebene_1
 62
7
100
AcDbPolyline
 90
3
 70
0
 10
126.928730
 20
127.906240
 30
0.0
 10
127.158160
 20
126.470130
 30
0.0
 10
124.565540
 20
126.017520
 30
0.0
  0
SPLINE
  5
17f
100
AcDbEntity
  8
Ebene_1
 62
7
100
AcDbSpline
 70
8
 71
3
 72
8
 73
4
 74
0
 40
0
 40
0
 40
0
 40
0
 40
1
 40
1
 40
1
 40
1
 10
135.731250
 20
58.477740
 30
0.0
 10
132.044720
 20
63.442740
 30
0.0
 10
127.382200
 20
69.717980
 30
0.0
 10
125.370090
 20
72.422720
 30
0.0
  0
SPLINE
  5
180
100
AcDbEntity
  8
Ebene_1
 62
7
100
AcDbSpline
 70
8
 71
3
 72
8
 73
4
 74
0
 40
0
 40
0
 40
0
 40
0
 40
1
 40
1
 40
1
 40
1
 10
125.370090
 20
72.422720
 30
0.0
 10
123.357990
 20
75.127460
 30
0.0
 10
121.775090
 20
77.403790
 30
0.0
 10
121.852540
 20
77.481240
 30
0.0
  0
SPLINE
  5
181
100
AcDbEntity
  8
Ebene_1
 62
7
100
AcDbSpline
 70
8
 71
3
 72
8
 73
4
 74
0
 40
0
 40
0
 40
0
 40
0
 40
1
 40
1
 40
1
 40
1
 10
121.852540
 20
77.481240
 30
0.0
 10
121.929940
 20
77.558640
 30
0.0
 10
123.258760
 20
77.882810
 30
0.0
 10
124.805360
 20
78.201490
 30
0.0
  0
SPLINE
  5
182
100
AcDbEntity
  8
Ebene_1
 62
7
100
AcDbSpline
 70
8
 71
3
 72
8
 73
4
 74
0
 40
0
 40
0
 40
0
 40
0
 40
1
 40
1
 40
1
 40
1
 10
124.805360
 20
78.201490
 30
0.0
 10
126.351960
 20
78.520180
 30
0.0
 10
129.105920
 20
79.257080
 30
0.0
 10
130.925270
 20
79.839060
 30
0.0
  0
SPLINE
  5
183
100
AcDbEntity
  8
Ebene_1
 62
7
100
AcDbSpline
 70
8
 71
3
 72
8
 73
4
 74
0
 40
0
 40
0
 40
0
 40
0
 40
1
 40
1
 40
1
 40
1
 10
130.925270
 20
79.839060
 30
0.0
 10
133.673360
 20
80.718110
 30
0.0
 10
134.308150
 20
80.817330
 30
0.0
 10
134.676240
 20
80.425330
 30
0.0
  0
SPLINE
  5
184
100
AcDbEntity
  8
Ebene_1
 62
7
100
AcDbSpline
 70
8
 71
3
 72
8
 73
4
 74
0
 40
0
 40
0
 40
0
 40
0
 40
1
 40
1
 40
1
 40
1
 10
134.676240
 20
80.425330
 30
0.0
 10
134.919930
 20
80.165810
 30
0.0
 10
138.653300
 20
75.349720
 30
0.0
 10
142.972620
 20
69.722920
 30
0.0
  0
SPLINE
  5
185
100
AcDbEntity
  8
Ebene_1
 62
7
100
AcDbSpline
 70
8
 71
3
 72
8
 73
4
 74
0
 40
0
 40
0
 40
0
 40
0
 40
1
 40
1
 40
1
 40
1
 10
142.972620
 20
69.722920
 30
0.0
 10
147.291940
 20
64.096110
 30
0.0
 10
150.951460
 20
59.329830
 30
0.0
 10
151.104880
 20
59.131180
 30
0.0
  0
SPLINE
  5
186
100
AcDbEntity
  8
Ebene_1
 62
7
100
AcDbSpline
 70
8
 71
3
 72
8
 73
4
 74
0
 40
0
 40
0
 40
0
 40
0
 40
1
 40
1
 40
1
 40
1
 10
151.104880
 20
59.131180
 30
0.0
 10
151.340730
 20
58.825780
 30
0.0
 10
143.398240
 20
49.792200
 30
0.0
 10
142.665560
 20
49.532520
 30
0.0
  0
SPLINE
  5
187
100
AcDbEntity
  8
Ebene_1
 62
7
100
AcDbSpline
 70
8
 71
3
 72
8
 73
4
 74
0
 40
0
 40
0
 40
0
 40
0
 40
1
 40
1
 40
1
 40
1
 10
142.665560
 20
49.532520
 30
0.0
 10
142.538220
 20
49.487420
 30
0.0
 10
139.417780
 20
53.512740
 30
0.0
 10
135.731250
 20
58.477740
 30
0.0
  0
LWPOLYLINE
  5
188
100
AcDbEntity
  8
Ebene_1
 62
7
100
AcDbPolyline
 90
1
 70
1
 10
93.221524
 20
123.769670
 30
0.0
  0
SPLINE
  5
189
100
AcDbEntity
  8
Ebene_1
 62
7
100
AcDbSpline
 70
8
 71
3
 72
8
 73
4
 74
0
 40
0
 40
0
 40
0
 40
0
 40
1
 40
1
 40
1
 40
1
 10
58.313979
 20
54.387040
 30
0.0
 10
55.716720
 20
57.171600
 30
0.0
 10
54.079070
 20
59.201280
 30
0.0
 10
54.192051
 20
59.495700
 30
0.0
  0
SPLINE
  5
18a
100
AcDbEntity
  8
Ebene_1
 62
7
100
AcDbSpline
 70
8
 71
3
 72
8
 73
4
 74
0
 40
0
 40
0
 40
0
 40
0
 40
1
 40
1
 40
1
 40
1
 10
54.192051
 20
59.495700
 30
0.0
 10
54.414024
 20
60.074160
 30
0.0
 10
70.863891
 20
83.982240
 30
0.0
 10
71.489277
 20
84.635330
 30
0.0
  0
SPLINE
  5
18b
100
AcDbEntity
  8
Ebene_1
 62
7
100
AcDbSpline
 70
8
 71
3
 72
8
 73
4
 74
0
 40
0
 40
0
 40
0
 40
0
 40
1
 40
1
 40
1
 40
1
 10
71.489277
 20
84.635330
 30
0.0
 10
71.834459
 20
84.995800
 30
0.0
 10
72.641986
 20
84.747090
 30
0.0
 10
75.602790
 20
83.368400
 30
0.0
  0
SPLINE
  5
18c
100
AcDbEntity
  8
Ebene_1
 62
7
100
AcDbSpline
 70
8
 71
3
 72
8
 73
4
 74
0
 40
0
 40
0
 40
0
 40
0
 40
1
 40
1
 40
1
 40
1
 10
75.602790
 20
83.368400
 30
0.0
 10
77.628998
 20
82.424910
 30
0.0
 10
80.239305
 20
81.367350
 30
0.0
 10
81.403472
 20
81.018280
 30
0.0
  0
SPLINE
  5
18d
100
AcDbEntity
  8
Ebene_1
 62
7
100
AcDbSpline
 70
8
 71
3
 72
8
 73
4
 74
0
 40
0
 40
0
 40
0
 40
0
 40
1
 40
1
 40
1
 40
1
 10
81.403472
 20
81.018280
 30
0.0
 10
82.567639
 20
80.669210
 30
0.0
 10
83.573317
 20
80.339480
 30
0.0
 10
83.638313
 20
80.285550
 30
0.0
  0
SPLINE
  5
18e
100
AcDbEntity
  8
Ebene_1
 62
7
100
AcDbSpline
 70
8
 71
3
 72
8
 73
4
 74
0
 40
0
 40
0
 40
0
 40
0
 40
1
 40
1
 40
1
 40
1
 10
83.638313
 20
80.285550
 30
0.0
 10
83.703313
 20
80.231650
 30
0.0
 10
81.174312
 20
76.562970
 30
0.0
 10
78.018320
 20
72.132980
 30
0.0
  0
SPLINE
  5
18f
100
AcDbEntity
  8
Ebene_1
 62
7
100
AcDbSpline
 70
8
 71
3
 72
8
 73
4
 74
0
 40
0
 40
0
 40
0
 40
0
 40
1
 40
1
 40
1
 40
1
 10
78.018320
 20
72.132980
 30
0.0
 10
74.862329
 20
67.703000
 30
0.0
 10
70.142996
 20
60.903470
 30
0.0
 10
67.530913
 20
57.022920
 30
0.0
  0
SPLINE
  5
190
100
AcDbEntity
  8
Ebene_1
 62
7
100
AcDbSpline
 70
8
 71
3
 72
8
 73
4
 74
0
 40
0
 40
0
 40
0
 40
0
 40
1
 40
1
 40
1
 40
1
 10
67.530913
 20
57.022920
 30
0.0
 10
64.918830
 20
53.142360
 30
0.0
 10
62.746053
 20
49.922250
 30
0.0
 10
62.702518
 20
49.867120
 30
0.0
  0
SPLINE
  5
191
100
AcDbEntity
  8
Ebene_1
 62
7
100
AcDbSpline
 70
8
 71
3
 72
8
 73
4
 74
0
 40
0
 40
0
 40
0
 40
0
 40
1
 40
1
 40
1
 40
1
 10
62.702518
 20
49.867120
 30
0.0
 10
62.658988
 20
49.812020
 30
0.0
 10
60.684141
 20
51.845950
 30
0.0
 10
58.313979
 20
54.387040
 30
0.0
  0
LWPOLYLINE
  5
192
100
AcDbEntity
  8
Ebene_1
 62
7
100
AcDbPolyline
 90
1
 70
1
 10
135.731250
 20
58.477740
 30
0.0
  0
SPLINE
  5
193
100
AcDbEntity
  8
Ebene_1
 62
7
100
AcDbSpline
 70
8
 71
3
 72
8
 73
4
 74
0
 40
0
 40
0
 40
0
 40
0
 40
1
 40
1
 40
1
 40
1
 10
25.840972
 20
145.614760
 30
0.0
 10
12.679666
 20
153.552630
 30
0.0
 10
4.732535
 20
165.086490
 30
0.0
 10
2.353744
 20
179.702330
 30
0.0
  0
SPLINE
  5
194
100
AcDbEntity
  8
Ebene_1
 62
7
100
AcDbSpline
 70
8
 71
3
 72
8
 73
4
 74
0
 40
0
 40
0
 40
0
 40
0
 40
1
 40
1
 40
1
 40
1
 10
2.353744
 20
179.702330
 30
0.0
 10
2.014187
 20
181.788640
 30
0.0
 10
1.814202
 20
183.573460
 30
0.0
 10
1.909333
 20
183.668590
 30
0.0
  0
SPLINE
  5
195
100
AcDbEntity
  8
Ebene_1
 62
7
100
AcDbSpline
 70
8
 71
3
 72
8
 73
4
 74
0
 40
0
 40
0
 40
0
 40
0
 40
1
 40
1
 40
1
 40
1
 10
1.909333
 20
183.668590
 30
0.0
 10
2.004464
 20
183.763690
 30
0.0
 10
3.737063
 20
183.682390
 30
0.0
 10
5.759552
 20
183.487860
 30
0.0
  0
SPLINE
  5
196
100
AcDbEntity
  8
Ebene_1
 62
7
100
AcDbSpline
 70
8
 71
3
 72
8
 73
4
 74
0
 40
0
 40
0
 40
0
 40
0
 40
1
 40
1
 40
1
 40
1
 10
5.759552
 20
183.487860
 30
0.0
 10
14.697407
 20
182.628180
 30
0.0
 10
22.809306
 20
184.531380
 30
0.0
 10
30.864898
 20
189.378020
 30
0.0
  0
LWPOLYLINE
  5
197
100
AcDbEntity
  8
Ebene_1
 62
7
100
AcDbPolyline
 90
1
 70
1
 10
58.313979
 20
54.387040
 30
0.0
  0
SPLINE
  5
198
100
AcDbEntity
  8
Ebene_1
 62
7
100
AcDbSpline
 70
8
 71
3
 72
8
 73
4
 74
0
 40
0
 40
0
 40
0
 40
0
 40
1
 40
1
 40
1
 40
1
 10
32.370307
 20
191.601940
 30
0.0
 10
31.864575
 20
192.579920
 30
0.0
 10
31.885345
 20
192.635360
 30
0.0
 10
33.132132
 20
193.635570
 30
0.0
  0
LWPOLYLINE
  5
199
100
AcDbEntity
  8
Ebene_1
 62
7
100
AcDbPolyline
 90
3
 70
0
 10
30.864898
 20
189.378020
 30
0.0
 10
32.890213
 20
190.596550
 30
0.0
 10
32.370307
 20
191.601940
 30
0.0
  0
SPLINE
  5
19a
100
AcDbEntity
  8
Ebene_1
 62
7
100
AcDbSpline
 70
8
 71
3
 72
8
 73
4
 74
0
 40
0
 40
0
 40
0
 40
0
 40
1
 40
1
 40
1
 40
1
 10
31.495457
 20
201.198025
 30
0.0
 10
32.169032
 20
201.764317
 30
0.0
 10
33.849151
 20
203.164755
 30
0.0
 10
35.229054
 20
204.310109
 30
0.0
  0
LWPOLYLINE
  5
19b
100
AcDbEntity
  8
Ebene_1
 62
7
100
AcDbPolyline
 90
5
 70
0
 10
33.132132
 20
193.635570
 30
0.0
 10
34.413863
 20
194.663810
 30
0.0
 10
32.342319
 20
197.416106
 30
0.0
 10
30.270774
 20
200.168402
 30
0.0
 10
31.495457
 20
201.198025
 30
0.0
  0
SPLINE
  5
19c
100
AcDbEntity
  8
Ebene_1
 62
7
100
AcDbSpline
 70
8
 71
3
 72
8
 73
4
 74
0
 40
0
 40
0
 40
0
 40
0
 40
1
 40
1
 40
1
 40
1
 10
39.586847
 20
204.113789
 30
0.0
 10
40.603729
 20
202.860460
 30
0.0
 10
41.591055
 20
201.739009
 30
0.0
 10
41.780904
 20
201.621676
 30
0.0
  0
SPLINE
  5
19d
100
AcDbEntity
  8
Ebene_1
 62
7
100
AcDbSpline
 70
8
 71
3
 72
8
 73
4
 74
0
 40
0
 40
0
 40
0
 40
0
 40
1
 40
1
 40
1
 40
1
 10
41.780904
 20
201.621676
 30
0.0
 10
41.970753
 20
201.504342
 30
0.0
 10
42.604068
 20
201.862247
 30
0.0
 10
43.188270
 20
202.417019
 30
0.0
  0
LWPOLYLINE
  5
19e
100
AcDbEntity
  8
Ebene_1
 62
7
100
AcDbPolyline
 90
3
 70
0
 10
35.229054
 20
204.310109
 30
0.0
 10
37.737970
 20
206.392571
 30
0.0
 10
39.586847
 20
204.113789
 30
0.0
  0
SPLINE
  5
19f
100
AcDbEntity
  8
Ebene_1
 62
7
100
AcDbSpline
 70
8
 71
3
 72
8
 73
4
 74
0
 40
0
 40
0
 40
0
 40
0
 40
1
 40
1
 40
1
 40
1
 10
45.401851
 20
202.102778
 30
0.0
 10
46.035117
 20
201.375174
 30
0.0
 10
46.714679
 20
200.779861
 30
0.0
 10
46.911986
 20
200.779861
 30
0.0
  0
SPLINE
  5
1a0
100
AcDbEntity
  8
Ebene_1
 62
7
100
AcDbSpline
 70
8
 71
3
 72
8
 73
4
 74
0
 40
0
 40
0
 40
0
 40
0
 40
1
 40
1
 40
1
 40
1
 10
46.911986
 20
200.779861
 30
0.0
 10
47.109294
 20
200.779861
 30
0.0
 10
48.014375
 20
201.108812
 30
0.0
 10
48.923277
 20
201.510862
 30
0.0
  0
SPLINE
  5
1a1
100
AcDbEntity
  8
Ebene_1
 62
7
100
AcDbSpline
 70
8
 71
3
 72
8
 73
4
 74
0
 40
0
 40
0
 40
0
 40
0
 40
1
 40
1
 40
1
 40
1
 10
48.923277
 20
201.510862
 30
0.0
 10
56.101375
 20
204.686076
 30
0.0
 10
66.210865
 20
204.853603
 30
0.0
 10
72.859733
 20
201.907519
 30
0.0
  0
SPLINE
  5
1a2
100
AcDbEntity
  8
Ebene_1
 62
7
100
AcDbSpline
 70
8
 71
3
 72
8
 73
4
 74
0
 40
0
 40
0
 40
0
 40
0
 40
1
 40
1
 40
1
 40
1
 10
72.859733
 20
201.907519
 30
0.0
 10
74.189845
 20
201.318152
 30
0.0
 10
74.431263
 20
201.015605
 30
0.0
 10
75.132592
 20
199.059154
 30
0.0
  0
SPLINE
  5
1a3
100
AcDbEntity
  8
Ebene_1
 62
7
100
AcDbSpline
 70
8
 71
3
 72
8
 73
4
 74
0
 40
0
 40
0
 40
0
 40
0
 40
1
 40
1
 40
1
 40
1
 10
75.132592
 20
199.059154
 30
0.0
 10
75.712770
 20
197.440672
 30
0.0
 10
75.804709
 20
196.829270
 30
0.0
 10
75.485370
 20
196.713150
 30
0.0
  0
SPLINE
  5
1a4
100
AcDbEntity
  8
Ebene_1
 62
7
100
AcDbSpline
 70
8
 71
3
 72
8
 73
4
 74
0
 40
0
 40
0
 40
0
 40
0
 40
1
 40
1
 40
1
 40
1
 10
75.485370
 20
196.713150
 30
0.0
 10
75.247826
 20
196.626750
 30
0.0
 10
73.487521
 20
196.152880
 30
0.0
 10
71.573581
 20
195.660050
 30
0.0
  0
SPLINE
  5
1a5
100
AcDbEntity
  8
Ebene_1
 62
7
100
AcDbSpline
 70
8
 71
3
 72
8
 73
4
 74
0
 40
0
 40
0
 40
0
 40
0
 40
1
 40
1
 40
1
 40
1
 10
71.573581
 20
195.660050
 30
0.0
 10
65.947218
 20
194.211270
 30
0.0
 10
58.388411
 20
191.163340
 30
0.0
 10
56.033537
 20
189.393840
 30
0.0
  0
SPLINE
  5
1a6
100
AcDbEntity
  8
Ebene_1
 62
7
100
AcDbSpline
 70
8
 71
3
 72
8
 73
4
 74
0
 40
0
 40
0
 40
0
 40
0
 40
1
 40
1
 40
1
 40
1
 10
56.033537
 20
189.393840
 30
0.0
 10
55.379712
 20
188.902540
 30
0.0
 10
55.395859
 20
188.833610
 30
0.0
 10
56.536967
 20
187.244640
 30
0.0
  0
LWPOLYLINE
  5
1a7
100
AcDbEntity
  8
Ebene_1
 62
7
100
AcDbPolyline
 90
3
 70
0
 10
43.188270
 20
202.417019
 30
0.0
 10
44.250456
 20
203.425694
 30
0.0
 10
45.401851
 20
202.102778
 30
0.0
  0
SPLINE
  5
1a8
100
AcDbEntity
  8
Ebene_1
 62
7
100
AcDbSpline
 70
8
 71
3
 72
8
 73
4
 74
0
 40
0
 40
0
 40
0
 40
0
 40
1
 40
1
 40
1
 40
1
 10
56.771486
 20
184.617280
 30
0.0
 10
56.252065
 20
184.075120
 30
0.0
 10
55.827083
 20
183.502720
 30
0.0
 10
55.827083
 20
183.345280
 30
0.0
  0
SPLINE
  5
1a9
100
AcDbEntity
  8
Ebene_1
 62
7
100
AcDbSpline
 70
8
 71
3
 72
8
 73
4
 74
0
 40
0
 40
0
 40
0
 40
0
 40
1
 40
1
 40
1
 40
1
 10
55.827083
 20
183.345280
 30
0.0
 10
55.827083
 20
183.187830
 30
0.0
 10
56.633976
 20
182.032270
 30
0.0
 10
57.620178
 20
180.777350
 30
0.0
  0
SPLINE
  5
1aa
100
AcDbEntity
  8
Ebene_1
 62
7
100
AcDbSpline
 70
8
 71
3
 72
8
 73
4
 74
0
 40
0
 40
0
 40
0
 40
0
 40
1
 40
1
 40
1
 40
1
 10
57.620178
 20
180.777350
 30
0.0
 10
58.606380
 20
179.522430
 30
0.0
 10
59.360442
 20
178.443290
 30
0.0
 10
59.295872
 20
178.379260
 30
0.0
  0
SPLINE
  5
1ab
100
AcDbEntity
  8
Ebene_1
 62
7
100
AcDbSpline
 70
8
 71
3
 72
8
 73
4
 74
0
 40
0
 40
0
 40
0
 40
0
 40
1
 40
1
 40
1
 40
1
 10
59.295872
 20
178.379260
 30
0.0
 10
58.831671
 20
177.918940
 30
0.0
 10
51.368310
 20
172.569710
 30
0.0
 10
51.182823
 20
172.564380
 30
0.0
  0
SPLINE
  5
1ac
100
AcDbEntity
  8
Ebene_1
 62
7
100
AcDbSpline
 70
8
 71
3
 72
8
 73
4
 74
0
 40
0
 40
0
 40
0
 40
0
 40
1
 40
1
 40
1
 40
1
 10
51.182823
 20
172.564380
 30
0.0
 10
51.053828
 20
172.560380
 30
0.0
 10
50.372507
 20
173.342010
 30
0.0
 10
49.668777
 20
174.300680
 30
0.0
  0
LWPOLYLINE
  5
1ad
100
AcDbEntity
  8
Ebene_1
 62
7
100
AcDbPolyline
 90
3
 70
0
 10
56.536967
 20
187.244640
 30
0.0
 10
57.715889
 20
185.603020
 30
0.0
 10
56.771486
 20
184.617280
 30
0.0
  0
SPLINE
  5
1ae
100
AcDbEntity
  8
Ebene_1
 62
7
100
AcDbSpline
 70
8
 71
3
 72
8
 73
4
 74
0
 40
0
 40
0
 40
0
 40
0
 40
1
 40
1
 40
1
 40
1
 10
46.910220
 20
175.521880
 30
0.0
 10
45.444750
 20
175.004830
 30
0.0
 10
45.424644
 20
175.009010
 30
0.0
 10
44.720100
 20
175.977390
 30
0.0
  0
SPLINE
  5
1af
100
AcDbEntity
  8
Ebene_1
 62
7
100
AcDbSpline
 70
8
 71
3
 72
8
 73
4
 74
0
 40
0
 40
0
 40
0
 40
0
 40
1
 40
1
 40
1
 40
1
 10
44.720100
 20
175.977390
 30
0.0
 10
44.329010
 20
176.514930
 30
0.0
 10
43.691528
 20
177.318080
 30
0.0
 10
43.303472
 20
177.762160
 30
0.0
  0
LWPOLYLINE
  5
1b0
100
AcDbEntity
  8
Ebene_1
 62
7
100
AcDbPolyline
 90
3
 70
0
 10
49.668777
 20
174.300680
 30
0.0
 10
48.389269
 20
176.043720
 30
0.0
 10
46.910220
 20
175.521880
 30
0.0
  0
SPLINE
  5
1b1
100
AcDbEntity
  8
Ebene_1
 62
7
100
AcDbSpline
 70
8
 71
3
 72
8
 73
4
 74
0
 40
0
 40
0
 40
0
 40
0
 40
1
 40
1
 40
1
 40
1
 10
40.146803
 20
174.436180
 30
0.0
 10
35.598463
 20
166.766140
 30
0.0
 10
31.810173
 20
157.375580
 30
0.0
 10
29.469781
 20
147.969570
 30
0.0
  0
LWPOLYLINE
  5
1b2
100
AcDbEntity
  8
Ebene_1
 62
7
100
AcDbPolyline
 90
3
 70
0
 10
43.303472
 20
177.762160
 30
0.0
 10
42.597917
 20
178.569590
 30
0.0
 10
40.146803
 20
174.436180
 30
0.0
  0
SPLINE
  5
1b3
100
AcDbEntity
  8
Ebene_1
 62
7
100
AcDbSpline
 70
8
 71
3
 72
8
 73
4
 74
0
 40
0
 40
0
 40
0
 40
0
 40
1
 40
1
 40
1
 40
1
 10
179.796680
 20
151.126390
 30
0.0
 10
173.213760
 20
162.757770
 30
0.0
 10
164.147550
 20
174.292770
 30
0.0
 10
151.941190
 20
186.567130
 30
0.0
  0
LWPOLYLINE
  5
1b4
100
AcDbEntity
  8
Ebene_1
 62
7
100
AcDbPolyline
 90
3
 70
0
 10
29.469781
 20
147.969570
 30
0.0
 10
28.486806
 20
144.019010
 30
0.0
 10
25.840972
 20
145.614760
 30
0.0
  0
SPLINE
  5
1b5
100
AcDbEntity
  8
Ebene_1
 62
7
100
AcDbSpline
 70
8
 71
3
 72
8
 73
4
 74
0
 40
0
 40
0
 40
0
 40
0
 40
1
 40
1
 40
1
 40
1
 10
163.424310
 20
206.478086
 30
0.0
 10
167.513150
 20
202.826216
 30
0.0
 10
172.516020
 20
199.060843
 30
0.0
 10
176.897100
 20
196.337880
 30
0.0
  0
SPLINE
  5
1b6
100
AcDbEntity
  8
Ebene_1
 62
7
100
AcDbSpline
 70
8
 71
3
 72
8
 73
4
 74
0
 40
0
 40
0
 40
0
 40
0
 40
1
 40
1
 40
1
 40
1
 10
176.897100
 20
196.337880
 30
0.0
 10
184.316670
 20
191.726420
 30
0.0
 10
195.578840
 20
186.653360
 30
0.0
 10
204.611110
 20
183.854070
 30
0.0
  0
SPLINE
  5
1b7
100
AcDbEntity
  8
Ebene_1
 62
7
100
AcDbSpline
 70
8
 71
3
 72
8
 73
4
 74
0
 40
0
 40
0
 40
0
 40
0
 40
1
 40
1
 40
1
 40
1
 10
204.611110
 20
183.854070
 30
0.0
 10
206.993520
 20
183.115710
 30
0.0
 10
208.227080
 20
182.560960
 30
0.0
 10
208.227080
 20
182.227900
 30
0.0
  0
SPLINE
  5
1b8
100
AcDbEntity
  8
Ebene_1
 62
7
100
AcDbSpline
 70
8
 71
3
 72
8
 73
4
 74
0
 40
0
 40
0
 40
0
 40
0
 40
1
 40
1
 40
1
 40
1
 10
208.227080
 20
182.227900
 30
0.0
 10
208.227080
 20
181.142200
 30
0.0
 10
206.788640
 20
175.344780
 30
0.0
 10
205.905510
 20
172.871160
 30
0.0
  0
SPLINE
  5
1b9
100
AcDbEntity
  8
Ebene_1
 62
7
100
AcDbSpline
 70
8
 71
3
 72
8
 73
4
 74
0
 40
0
 40
0
 40
0
 40
0
 40
1
 40
1
 40
1
 40
1
 10
205.905510
 20
172.871160
 30
0.0
 10
204.720440
 20
169.551820
 30
0.0
 10
202.596410
 20
165.303930
 30
0.0
 10
200.741200
 20
162.543000
 30
0.0
  0
SPLINE
  5
1ba
100
AcDbEntity
  8
Ebene_1
 62
7
100
AcDbSpline
 70
8
 71
3
 72
8
 73
4
 74
0
 40
0
 40
0
 40
0
 40
0
 40
1
 40
1
 40
1
 40
1
 10
200.741200
 20
162.543000
 30
0.0
 10
198.586880
 20
159.336910
 30
0.0
 10
192.970380
 20
153.882100
 30
0.0
 10
189.529860
 20
151.654410
 30
0.0
  0
SPLINE
  5
1bb
100
AcDbEntity
  8
Ebene_1
 62
7
100
AcDbSpline
 70
8
 71
3
 72
8
 73
4
 74
0
 40
0
 40
0
 40
0
 40
0
 40
1
 40
1
 40
1
 40
1
 10
189.529860
 20
151.654410
 30
0.0
 10
186.945960
 20
149.981370
 30
0.0
 10
182.451580
 20
147.510420
 30
0.0
 10
181.992420
 20
147.510420
 30
0.0
  0
SPLINE
  5
1bc
100
AcDbEntity
  8
Ebene_1
 62
7
100
AcDbSpline
 70
8
 71
3
 72
8
 73
4
 74
0
 40
0
 40
0
 40
0
 40
0
 40
1
 40
1
 40
1
 40
1
 10
181.992420
 20
147.510420
 30
0.0
 10
181.910320
 20
147.510420
 30
0.0
 10
180.922260
 20
149.137600
 30
0.0
 10
179.796680
 20
151.126390
 30
0.0
  0
LWPOLYLINE
  5
1bd
100
AcDbEntity
  8
Ebene_1
 62
7
100
AcDbPolyline
 90
5
 70
0
 10
151.941190
 20
186.567130
 30
0.0
 10
145.201190
 20
193.344680
 30
0.0
 10
152.637060
 20
201.407994
 30
0.0
 10
160.072920
 20
209.471310
 30
0.0
 10
163.424310
 20
206.478086
 30
0.0
  0
SPLINE
  5
1be
100
AcDbEntity
  8
Ebene_1
 62
7
100
AcDbSpline
 70
8
 71
3
 72
8
 73
4
 74
0
 40
0
 40
0
 40
0
 40
0
 40
1
 40
1
 40
1
 40
1
 10
136.639940
 20
151.253140
 30
0.0
 10
138.728170
 20
160.002040
 30
0.0
 10
139.271400
 20
164.949930
 30
0.0
 10
138.964500
 20
172.426010
 30
0.0
  0
SPLINE
  5
1bf
100
AcDbEntity
  8
Ebene_1
 62
7
100
AcDbSpline
 70
8
 71
3
 72
8
 73
4
 74
0
 40
0
 40
0
 40
0
 40
0
 40
1
 40
1
 40
1
 40
1
 10
138.964500
 20
172.426010
 30
0.0
 10
138.844010
 20
175.361040
 30
0.0
 10
138.584680
 20
178.185240
 30
0.0
 10
138.388200
 20
178.702000
 30
0.0
  0
SPLINE
  5
1c0
100
AcDbEntity
  8
Ebene_1
 62
7
100
AcDbSpline
 70
8
 71
3
 72
8
 73
4
 74
0
 40
0
 40
0
 40
0
 40
0
 40
1
 40
1
 40
1
 40
1
 10
138.388200
 20
178.702000
 30
0.0
 10
138.054610
 20
179.579410
 30
0.0
 10
138.260540
 20
179.891570
 30
0.0
 10
141.500440
 20
183.419750
 30
0.0
  0
SPLINE
  5
1c1
100
AcDbEntity
  8
Ebene_1
 62
7
100
AcDbSpline
 70
8
 71
3
 72
8
 73
4
 74
0
 40
0
 40
0
 40
0
 40
0
 40
1
 40
1
 40
1
 40
1
 10
141.500440
 20
183.419750
 30
0.0
 10
143.408650
 20
185.497740
 30
0.0
 10
145.201360
 20
187.389720
 30
0.0
 10
145.484250
 20
187.624150
 30
0.0
  0
SPLINE
  5
1c2
100
AcDbEntity
  8
Ebene_1
 62
7
100
AcDbSpline
 70
8
 71
3
 72
8
 73
4
 74
0
 40
0
 40
0
 40
0
 40
0
 40
1
 40
1
 40
1
 40
1
 10
145.484250
 20
187.624150
 30
0.0
 10
145.911040
 20
187.977840
 30
0.0
 10
147.069300
 20
186.978450
 30
0.0
 10
152.288480
 20
181.753210
 30
0.0
  0
LWPOLYLINE
  5
1c3
100
AcDbEntity
  8
Ebene_1
 62
7
100
AcDbPolyline
 90
1
 70
1
 10
179.796680
 20
151.126390
 30
0.0
  0
SPLINE
  5
1c4
100
AcDbEntity
  8
Ebene_1
 62
7
100
AcDbSpline
 70
8
 71
3
 72
8
 73
4
 74
0
 40
0
 40
0
 40
0
 40
0
 40
1
 40
1
 40
1
 40
1
 10
157.617350
 20
174.624190
 30
0.0
 10
156.072970
 20
173.287440
 30
0.0
 10
148.052670
 20
164.088500
 30
0.0
 10
142.435970
 20
157.211810
 30
0.0
  0
SPLINE
  5
1c5
100
AcDbEntity
  8
Ebene_1
 62
7
100
AcDbSpline
 70
8
 71
3
 72
8
 73
4
 74
0
 40
0
 40
0
 40
0
 40
0
 40
1
 40
1
 40
1
 40
1
 10
142.435970
 20
157.211810
 30
0.0
 10
135.874810
 20
149.178780
 30
0.0
 10
136.232620
 20
149.546630
 30
0.0
 10
136.639940
 20
151.253140
 30
0.0
  0
LWPOLYLINE
  5
1c6
100
AcDbEntity
  8
Ebene_1
 62
7
100
AcDbPolyline
 90
3
 70
0
 10
152.288480
 20
181.753210
 30
0.0
 10
158.578380
 20
175.456020
 30
0.0
 10
157.617350
 20
174.624190
 30
0.0
  0
SPLINE
  5
1c7
100
AcDbEntity
  8
Ebene_1
 62
7
100
AcDbSpline
 70
8
 71
3
 72
8
 73
4
 74
0
 40
0
 40
0
 40
0
 40
0
 40
1
 40
1
 40
1
 40
1
 10
73.836649
 20
157.645960
 30
0.0
 10
73.383923
 20
158.765370
 30
0.0
 10
72.693033
 20
160.236880
 30
0.0
 10
72.301340
 20
160.915970
 30
0.0
  0
SPLINE
  5
1c8
100
AcDbEntity
  8
Ebene_1
 62
7
100
AcDbSpline
 70
8
 71
3
 72
8
 73
4
 74
0
 40
0
 40
0
 40
0
 40
0
 40
1
 40
1
 40
1
 40
1
 10
72.301340
 20
160.915970
 30
0.0
 10
71.412797
 20
162.456480
 30
0.0
 10
71.823701
 20
162.049710
 30
0.0
 10
73.967020
 20
159.267030
 30
0.0
  0
SPLINE
  5
1c9
100
AcDbEntity
  8
Ebene_1
 62
7
100
AcDbSpline
 70
8
 71
3
 72
8
 73
4
 74
0
 40
0
 40
0
 40
0
 40
0
 40
1
 40
1
 40
1
 40
1
 10
73.967020
 20
159.267030
 30
0.0
 10
75.539369
 20
157.225650
 30
0.0
 10
75.901974
 20
156.024180
 30
0.0
 10
75.033019
 20
155.734920
 30
0.0
  0
SPLINE
  5
1ca
100
AcDbEntity
  8
Ebene_1
 62
7
100
AcDbSpline
 70
8
 71
3
 72
8
 73
4
 74
0
 40
0
 40
0
 40
0
 40
0
 40
1
 40
1
 40
1
 40
1
 10
75.033019
 20
155.734920
 30
0.0
 10
74.827743
 20
155.666620
 30
0.0
 10
74.289376
 20
156.526550
 30
0.0
 10
73.836649
 20
157.645960
 30
0.0
  0
LWPOLYLINE
  5
1cb
100
AcDbEntity
  8
Ebene_1
 62
7
100
AcDbPolyline
 90
1
 70
1
 10
136.639940
 20
151.253140
 30
0.0
  0
LWPOLYLINE
  5
1cc
100
AcDbEntity
  8
Ebene_1
 62
7
100
AcDbPolyline
 90
1
 70
1
 10
73.836649
 20
157.645960
 30
0.0
  0
SPLINE
  5
1cd
100
AcDbEntity
  8
Ebene_1
 62
7
100
AcDbSpline
 70
8
 71
3
 72
8
 73
4
 74
0
 40
0
 40
0
 40
0
 40
0
 40
1
 40
1
 40
1
 40
1
 10
56.123062
 20
174.016670
 30
0.0
 10
58.385621
 20
175.713820
 30
0.0
 10
60.331101
 20
176.992640
 30
0.0
 10
60.446352
 20
176.858490
 30
0.0
  0
SPLINE
  5
1ce
100
AcDbEntity
  8
Ebene_1
 62
7
100
AcDbSpline
 70
8
 71
3
 72
8
 73
4
 74
0
 40
0
 40
0
 40
0
 40
0
 40
1
 40
1
 40
1
 40
1
 10
60.446352
 20
176.858490
 30
0.0
 10
60.561602
 20
176.724340
 30
0.0
 10
62.213908
 20
174.550830
 30
0.0
 10
64.118143
 20
172.028470
 30
0.0
  0
LWPOLYLINE
  5
1cf
100
AcDbEntity
  8
Ebene_1
 62
7
100
AcDbPolyline
 90
3
 70
0
 10
57.534173
 20
163.485770
 30
0.0
 10
52.009319
 20
170.930960
 30
0.0
 10
56.123062
 20
174.016670
 30
0.0
  0
SPLINE
  5
1d0
100
AcDbEntity
  8
Ebene_1
 62
7
100
AcDbSpline
 70
8
 71
3
 72
8
 73
4
 74
0
 40
0
 40
0
 40
0
 40
0
 40
1
 40
1
 40
1
 40
1
 10
65.154992
 20
169.735420
 30
0.0
 10
63.821025
 20
170.996600
 30
0.0
 10
62.644969
 20
172.112470
 30
0.0
 10
62.541535
 20
172.215140
 30
0.0
  0
SPLINE
  5
1d1
100
AcDbEntity
  8
Ebene_1
 62
7
100
AcDbSpline
 70
8
 71
3
 72
8
 73
4
 74
0
 40
0
 40
0
 40
0
 40
0
 40
1
 40
1
 40
1
 40
1
 10
62.541535
 20
172.215140
 30
0.0
 10
62.438100
 20
172.317800
 30
0.0
 10
61.520035
 20
172.992230
 30
0.0
 10
60.501389
 20
173.713860
 30
0.0
  0
SPLINE
  5
1d2
100
AcDbEntity
  8
Ebene_1
 62
7
100
AcDbSpline
 70
8
 71
3
 72
8
 73
4
 74
0
 40
0
 40
0
 40
0
 40
0
 40
1
 40
1
 40
1
 40
1
 10
60.501389
 20
173.713860
 30
0.0
 10
58.153280
 20
175.377300
 30
0.0
 10
58.142538
 20
175.202440
 30
0.0
 10
60.210059
 20
168.971240
 30
0.0
  0
SPLINE
  5
1d3
100
AcDbEntity
  8
Ebene_1
 62
7
100
AcDbSpline
 70
8
 71
3
 72
8
 73
4
 74
0
 40
0
 40
0
 40
0
 40
0
 40
1
 40
1
 40
1
 40
1
 10
60.210059
 20
168.971240
 30
0.0
 10
62.138737
 20
163.158490
 30
0.0
 10
63.315695
 20
158.425170
 30
0.0
 10
63.169684
 20
157.068650
 30
0.0
  0
SPLINE
  5
1d4
100
AcDbEntity
  8
Ebene_1
 62
7
100
AcDbSpline
 70
8
 71
3
 72
8
 73
4
 74
0
 40
0
 40
0
 40
0
 40
0
 40
1
 40
1
 40
1
 40
1
 10
63.169684
 20
157.068650
 30
0.0
 10
63.070374
 20
156.145980
 30
0.0
 10
62.492676
 20
156.803800
 30
0.0
 10
57.534173
 20
163.485770
 30
0.0
  0
LWPOLYLINE
  5
1d5
100
AcDbEntity
  8
Ebene_1
 62
7
100
AcDbPolyline
 90
3
 70
0
 10
64.118143
 20
172.028470
 30
0.0
 10
67.580387
 20
167.442360
 30
0.0
 10
65.154992
 20
169.735420
 30
0.0
  0
LWPOLYLINE
  5
1d6
100
AcDbEntity
  8
Ebene_1
 62
7
100
AcDbPolyline
 90
1
 70
1
 10
57.534173
 20
163.485770
 30
0.0
  0
ENDSEC
  0
SECTION
  2
OBJECTS
  0
DICTIONARY
  5
C
330
0
100
AcDbDictionary
  3
ACAD_GROUP
350
D
  3
ACAD_MLINESTYLE
350
17
  0
DICTIONARY
  5
D
330
C
100
AcDbDictionary
  0
DICTIONARY
  5
1A
330
C
100
AcDbDictionary
  0
DICTIONARY
  5
17
330
C
100
AcDbDictionary
  3
STANDARD
350
18
  0
DICTIONARY
  5
19
330
C
100
AcDbDictionary
  0
ENDSEC
  0
EOF
