  0
SECTION
  2
HEADER
  9
$ACADVER
  1
AC1009
  9
$EXTMAX
 10
183.775146484375
 20
47.9662055969238
 30
0.0
  9
$EXTMIN
 10
1.0031137466431
 20
-1.1478558778763
 30
0.0
  9
$INSUNITS
 70
     4
  9
$LUNITS
 70
     2
  9
$LUPREC
 70
     4
  9
$MEASUREMENT
 70
     1
  0
ENDSEC
  0
SECTION
  2
TABLES
  0
TABLE
  2
LAYER
 70
     1
  0
LAYER
  2
0
 70
     0
 62
     7
  6
Continuous
  0
LAYER
  2
Standard
 70
     0
 62
    70
  6
Continuous
  0
ENDTAB
  0
TABLE
  2
APPID
 70
     1
  0
APPID
  2
ACAD
 70
     0
  0
ENDTAB
  0
ENDSEC
  0
SECTION
  2
ENTITIES
  0
POLYLINE
  8
Standard
 66
     1
 10
0.0
 20
0.0
 30
0.0
 70
     1
  0
VERTEX
  8
Standard
 10
11.8781597134778
 20
35.7392578125
 42
-0.2976164827265
  0
VERTEX
  8
Standard
 10
19.620265260839
 20
46.487068906505
 42
-0.1857857865484
  0
VERTEX
  8
Standard
 10
26.3818111705403
 20
46.1728246852688
 42
-0.2846485536492
  0
VERTEX
  8
Standard
 10
28.8723003384778
 20
41.6904296875
 42
-0.297711087724
  0
VERTEX
  8
Standard
 10
21.7769656097389
 20
30.5690479868059
 42
-0.2721611799976
  0
VERTEX
  8
Standard
 10
13.7902690884778
 20
31.6142578125
 42
-0.1921617072663
  0
SEQEND
  0
POLYLINE
  8
Standard
 66
     1
 10
0.0
 20
0.0
 30
0.0
 70
     1
  0
VERTEX
  8
Standard
 10
14.9719097134778
 20
36.265625
 42
0.5237453860613
  0
VERTEX
  8
Standard
 10
21.8112235582563
 20
33.7206110755876
 42
0.2335432443949
  0
VERTEX
  8
Standard
 10
25.7785503384778
 20
41.2822265625
 42
0.4222835103513
  0
VERTEX
  8
Standard
 10
23.0396881429337
 20
43.9550568405534
 42
0.3279446750334
  0
VERTEX
  8
Standard
 10
15.9387065884778
 20
39.57421875
 42
0.2125690846249
  0
SEQEND
  0
POLYLINE
  8
Standard
 66
     1
 10
0.0
 20
0.0
 30
0.0
 70
     1
  0
VERTEX
  8
Standard
 10
39.3996440884778
 20
38.4033203125
 42
-0.6909430418148
  0
VERTEX
  8
Standard
 10
36.6604482878263
 20
37.1502460404207
 42
-0.1086127307089
  0
VERTEX
  8
Standard
 10
36.6281597134778
 20
39.2412109375
 42
0.222007186255
  0
VERTEX
  8
Standard
 10
32.7717144009778
 20
36.7490234375
 42
0.0
  0
VERTEX
  8
Standard
 10
31.9338237759778
 20
31.3671875
 42
-0.6893464461178
  0
VERTEX
  8
Standard
 10
29.3127300259778
 20
30.3359375
 42
-0.2115238464611
  0
VERTEX
  8
Standard
 10
29.0978862759778
 20
31.3671875
 42
-0.0150415429825
  0
VERTEX
  8
Standard
 10
30.577443417949
 20
40.4856865896619
 42
-0.6833789548874
  0
VERTEX
  8
Standard
 10
33.2261994094318
 20
41.2743086593475
 42
-0.1202671098501
  0
VERTEX
  8
Standard
 10
33.3947612759778
 20
40.5625
 42
-0.2344572553233
  0
VERTEX
  8
Standard
 10
38.574167642487
 20
41.8796582193925
 42
-0.3093989814479
  0
VERTEX
  8
Standard
 10
39.5070659634778
 20
39.123046875
 42
-0.052214876528
  0
SEQEND
  0
POLYLINE
  8
Standard
 66
     1
 10
0.0
 20
0.0
 30
0.0
 70
     1
  0
VERTEX
  8
Standard
 10
48.0793315884778
 20
39.123046875
 42
0.0084739677277
  0
VERTEX
  8
Standard
 10
45.9416362759778
 20
39.1015625
 42
0.145570467176
  0
VERTEX
  8
Standard
 10
44.9681837713211
 20
33.4965166317278
 42
0.5633171719966
  0
VERTEX
  8
Standard
 10
46.4787456509778
 20
33.515625
 42
-1.0177694936331
  0
VERTEX
  8
Standard
 10
48.3764973225805
 20
31.6824861061098
 42
-0.3046466135995
  0
VERTEX
  8
Standard
 10
43.6864104168282
 20
30.4314648422553
 42
-0.2669778562773
  0
VERTEX
  8
Standard
 10
42.0207378384778
 20
33.8271484375
 42
-0.0736282932192
  0
VERTEX
  8
Standard
 10
43.0842144009778
 20
39.015625
 42
-0.137644317896
  0
VERTEX
  8
Standard
 10
40.8390972134778
 20
39.4453125
 42
-0.6979350795403
  0
VERTEX
  8
Standard
 10
41.9777690884778
 20
42.0556640625
 42
0.0
  0
VERTEX
  8
Standard
 10
43.6535503384778
 20
41.9052734375
 42
-0.1852966913852
  0
VERTEX
  8
Standard
 10
44.4162456509778
 20
45.009765625
 42
-0.7129850470207
  0
VERTEX
  8
Standard
 10
46.7580425259778
 20
43.634765625
 42
-0.022802232045
  0
VERTEX
  8
Standard
 10
46.5324565884778
 20
41.9697265625
 42
-0.2551112049724
  0
VERTEX
  8
Standard
 10
49.4287894344771
 20
41.5121622398721
 42
-0.6098689070892
  0
SEQEND
  0
POLYLINE
  8
Standard
 66
     1
 10
0.0
 20
0.0
 30
0.0
 70
     1
  0
VERTEX
  8
Standard
 10
57.5861675259778
 20
39.4130859375
 42
0.2082258897479
  0
VERTEX
  8
Standard
 10
54.2074286089466
 20
39.0764089525569
 42
0.5969210329732
  0
VERTEX
  8
Standard
 10
54.7081452122867
 20
38.018566619378
 42
-0.0879334535493
  0
VERTEX
  8
Standard
 10
58.4562847134778
 20
35.7177734375
 42
-0.4531581332908
  0
VERTEX
  8
Standard
 10
57.6721050259778
 20
31.173828125
 42
-0.2323758882141
  0
VERTEX
  8
Standard
 10
50.7863628384778
 20
30.5400390625
 42
-1.0185487943313
  0
VERTEX
  8
Standard
 10
51.0764019009778
 20
33.30078125
 42
0.1539501822601
  0
VERTEX
  8
Standard
 10
55.1593082747558
 20
32.7886448755846
 42
0.9164747267268
  0
VERTEX
  8
Standard
 10
55.4483920802137
 20
34.4570575181877
 42
-0.0736321823372
  0
VERTEX
  8
Standard
 10
51.8498394009778
 20
36.5126953125
 42
-0.5284645330688
  0
VERTEX
  8
Standard
 10
53.7636354490779
 20
41.6433987081961
 42
-0.1325810103656
  0
VERTEX
  8
Standard
 10
59.3475193923159
 20
41.9174258238482
 42
-0.4429701061038
  0
VERTEX
  8
Standard
 10
59.7668315884778
 20
39.3271484375
 42
-0.8647372283185
  0
SEQEND
  0
POLYLINE
  8
Standard
 66
     1
 10
0.0
 20
0.0
 30
0.0
 70
     1
  0
VERTEX
  8
Standard
 10
60.4543315884778
 20
34.181640625
 42
-0.2930292696436
  0
VERTEX
  8
Standard
 10
65.8092514220873
 20
41.8473752303331
 42
-0.2186344783121
  0
VERTEX
  8
Standard
 10
70.7020302223436
 20
40.8717165103492
 42
-0.9977032247516
  0
VERTEX
  8
Standard
 10
68.5861675259778
 20
38.88671875
 42
0.4406371992257
  0
VERTEX
  8
Standard
 10
65.237096684008
 20
38.451176653442
 42
0.1979037570073
  0
VERTEX
  8
Standard
 10
63.2902690884778
 20
34.6650390625
 42
0.4571424840233
  0
VERTEX
  8
Standard
 10
66.7470545138769
 20
32.8577092478239
 42
-0.079869932568
  0
VERTEX
  8
Standard
 10
69.0695659634778
 20
33.7841796875
 42
-0.7928619297714
  0
VERTEX
  8
Standard
 10
69.2725236328742
 20
31.2770784767621
 42
-0.3487510470038
  0
VERTEX
  8
Standard
 10
61.7971050259778
 20
31.1416015625
 42
-0.1766374550374
  0
SEQEND
  0
POLYLINE
  8
Standard
 66
     1
 10
0.0
 20
0.0
 30
0.0
 70
     1
  0
VERTEX
  8
Standard
 10
76.8361675259778
 20
40.4873046875
 42
-0.3872160185524
  0
VERTEX
  8
Standard
 10
82.8303081509778
 20
41.400390625
 42
-0.1903393441348
  0
VERTEX
  8
Standard
 10
83.5178081509778
 20
38.6181640625
 42
0.0582571540039
  0
VERTEX
  8
Standard
 10
83.1310894009778
 20
31.5712890625
 42
-0.7439775641495
  0
VERTEX
  8
Standard
 10
80.3166362759778
 20
30.5185546875
 42
-0.1124812810593
  0
VERTEX
  8
Standard
 10
80.5099956509778
 20
37.275390625
 42
0.1651789503704
  0
VERTEX
  8
Standard
 10
80.5997523953103
 20
38.9396757100243
 42
0.4172452790941
  0
VERTEX
  8
Standard
 10
78.9369065161553
 20
38.7942849155348
 42
0.303813538357
  0
VERTEX
  8
Standard
 10
75.7760510602016
 20
33.5138852529032
 42
-0.2678897036076
  0
VERTEX
  8
Standard
 10
74.4165483915147
 20
30.5909563623104
 42
-0.8640432600442
  0
VERTEX
  8
Standard
 10
72.5178081509778
 20
32.376953125
 42
0.0099278832171
  0
VERTEX
  8
Standard
 10
74.2365581509778
 20
42.453125
 42
0.0544566557118
  0
VERTEX
  8
Standard
 10
74.7285137662998
 20
46.1886755188032
 42
-1.1637909258058
  0
VERTEX
  8
Standard
 10
77.7814800259778
 20
46.19140625
 42
-0.0184413652233
  0
SEQEND
  0
POLYLINE
  8
Standard
 66
     1
 10
0.0
 20
0.0
 30
0.0
 70
     1
  0
VERTEX
  8
Standard
 10
91.8430034634778
 20
31.0341796875
 42
-0.2850126760728
  0
VERTEX
  8
Standard
 10
85.7838132290437
 20
30.7550192537475
 42
-0.3160874326391
  0
VERTEX
  8
Standard
 10
84.820496041816
 20
37.1748553948677
 42
-0.2946898466437
  0
VERTEX
  8
Standard
 10
91.8430034634778
 20
41.873046875
 42
-0.2675025429249
  0
VERTEX
  8
Standard
 10
95.3496985203513
 20
40.3409461297403
 42
-0.3372362379781
  0
VERTEX
  8
Standard
 10
95.1408550259778
 20
38.994140625
 42
0.1362202597862
  0
VERTEX
  8
Standard
 10
94.3351909634778
 20
33.38671875
 42
-0.0466156062832
  0
VERTEX
  8
Standard
 10
94.9045269009778
 20
31.302734375
 42
-0.6978178914347
  0
VERTEX
  8
Standard
 10
92.2954048120004
 20
30.5401132354688
 42
-0.0199999803588
  0
SEQEND
  0
POLYLINE
  8
Standard
 66
     1
 10
0.0
 20
0.0
 30
0.0
 70
     1
  0
VERTEX
  8
Standard
 10
92.2189800259778
 20
39.1015625
 42
0.4980071348916
  0
VERTEX
  8
Standard
 10
87.3498956759931
 20
33.8046999431263
 42
0.5320872151425
  0
VERTEX
  8
Standard
 10
91.4670269009778
 20
33.494140625
 42
-0.09019780527
  0
SEQEND
  0
POLYLINE
  8
Standard
 66
     1
 10
0.0
 20
0.0
 30
0.0
 70
     1
  0
VERTEX
  8
Standard
 10
103.906480025978
 20
41.6904296875
 42
-0.1395642308282
  0
VERTEX
  8
Standard
 10
107.111926843897
 20
41.6556513890263
 42
-0.7054085663062
  0
VERTEX
  8
Standard
 10
106.166101030736
 20
39.1191866275736
 42
0.003991767037
  0
VERTEX
  8
Standard
 10
103.358628463478
 20
38.994140625
 42
-0.0601963938025
  0
VERTEX
  8
Standard
 10
101.725815963478
 20
30.0888671875
 42
-0.9980729773677
  0
VERTEX
  8
Standard
 10
98.8469097134778
 20
30.3037109375
 42
0.0433635523421
  0
VERTEX
  8
Standard
 10
100.479722213478
 20
38.8330078125
 42
-0.2985807390452
  0
VERTEX
  8
Standard
 10
98.0949565884778
 20
39.0693359375
 42
-0.5638912740051
  0
VERTEX
  8
Standard
 10
100.045881580094
 20
41.5459321134002
 42
-0.0111458063659
  0
VERTEX
  8
Standard
 10
101.006089400978
 20
41.59375
 42
-0.1419181718297
  0
VERTEX
  8
Standard
 10
103.197495650978
 20
46.3740234375
 42
-0.2864373175312
  0
VERTEX
  8
Standard
 10
108.373491119468
 20
47.6593375185303
 42
-0.6368228722005
  0
VERTEX
  8
Standard
 10
107.950040718997
 20
45.1737987283312
 42
0.3854222232443
  0
VERTEX
  8
Standard
 10
103.992417525978
 20
42.001953125
 42
0.0
  0
SEQEND
  0
POLYLINE
  8
Standard
 66
     1
 10
0.0
 20
0.0
 30
0.0
 70
     1
  0
VERTEX
  8
Standard
 10
116.571519088478
 20
39.123046875
 42
0.0084739677277
  0
VERTEX
  8
Standard
 10
114.433823775978
 20
39.1015625
 42
0.145570467176
  0
VERTEX
  8
Standard
 10
113.460371271321
 20
33.4965166317278
 42
0.5633171719964
  0
VERTEX
  8
Standard
 10
114.970933150978
 20
33.515625
 42
-1.017769493633
  0
VERTEX
  8
Standard
 10
116.868684822581
 20
31.6824861061098
 42
-0.3046466135995
  0
VERTEX
  8
Standard
 10
112.178597916828
 20
30.4314648422553
 42
-0.2669778562773
  0
VERTEX
  8
Standard
 10
110.512925338478
 20
33.8271484375
 42
-0.0736282932192
  0
VERTEX
  8
Standard
 10
111.576401900978
 20
39.015625
 42
-0.1376443178961
  0
VERTEX
  8
Standard
 10
109.331284713478
 20
39.4453125
 42
-0.6979350795403
  0
VERTEX
  8
Standard
 10
110.469956588478
 20
42.0556640625
 42
0.0
  0
VERTEX
  8
Standard
 10
112.145737838478
 20
41.9052734375
 42
-0.1852966913852
  0
VERTEX
  8
Standard
 10
112.908433150978
 20
45.009765625
 42
-0.7129850470208
  0
VERTEX
  8
Standard
 10
115.250230025978
 20
43.634765625
 42
-0.022802232045
  0
VERTEX
  8
Standard
 10
115.024644088478
 20
41.9697265625
 42
-0.2551112049724
  0
VERTEX
  8
Standard
 10
117.920976934477
 20
41.5121622398721
 42
-0.6098689070892
  0
SEQEND
  0
POLYLINE
  8
Standard
 66
     1
 10
0.0
 20
0.0
 30
0.0
 70
     1
  0
VERTEX
  8
Standard
 10
126.078355025978
 20
39.4130859375
 42
0.2082258897478
  0
VERTEX
  8
Standard
 10
122.699616108947
 20
39.0764089525569
 42
0.5969210329714
  0
VERTEX
  8
Standard
 10
123.200332712287
 20
38.018566619378
 42
-0.0879334535493
  0
VERTEX
  8
Standard
 10
126.948472213478
 20
35.7177734375
 42
-0.4531581332908
  0
VERTEX
  8
Standard
 10
126.164292525978
 20
31.173828125
 42
-0.2323758882141
  0
VERTEX
  8
Standard
 10
119.278550338478
 20
30.5400390625
 42
-1.0185487943313
  0
VERTEX
  8
Standard
 10
119.568589400978
 20
33.30078125
 42
0.1539501822601
  0
VERTEX
  8
Standard
 10
123.651495774756
 20
32.7886448755846
 42
0.9164747267267
  0
VERTEX
  8
Standard
 10
123.940579580214
 20
34.4570575181877
 42
-0.0736321823372
  0
VERTEX
  8
Standard
 10
120.342026900978
 20
36.5126953125
 42
-0.5284645330688
  0
VERTEX
  8
Standard
 10
122.255822949078
 20
41.6433987081961
 42
-0.1325810103656
  0
VERTEX
  8
Standard
 10
127.839706892316
 20
41.9174258238482
 42
-0.4429701061034
  0
VERTEX
  8
Standard
 10
128.259019088478
 20
39.3271484375
 42
-0.8647372283187
  0
SEQEND
  0
POLYLINE
  8
Standard
 66
     1
 10
0.0
 20
0.0
 30
0.0
 70
     1
  0
VERTEX
  8
Standard
 10
139.538315963478
 20
38.4033203125
 42
-0.6909430418149
  0
VERTEX
  8
Standard
 10
136.799120162826
 20
37.1502460404207
 42
-0.1086127307087
  0
VERTEX
  8
Standard
 10
136.766831588478
 20
39.2412109375
 42
0.222007186255
  0
VERTEX
  8
Standard
 10
132.910386275978
 20
36.7490234375
 42
0.0
  0
VERTEX
  8
Standard
 10
132.072495650978
 20
31.3671875
 42
-0.6893464461177
  0
VERTEX
  8
Standard
 10
129.451401900978
 20
30.3359375
 42
-0.2115238464611
  0
VERTEX
  8
Standard
 10
129.236558150978
 20
31.3671875
 42
-0.0150415429825
  0
VERTEX
  8
Standard
 10
130.716115292949
 20
40.4856865896619
 42
-0.6833789548876
  0
VERTEX
  8
Standard
 10
133.364871284432
 20
41.2743086593475
 42
-0.1202671098501
  0
VERTEX
  8
Standard
 10
133.533433150978
 20
40.5625
 42
-0.2344572553233
  0
VERTEX
  8
Standard
 10
138.712839517487
 20
41.8796582193925
 42
-0.3093989814479
  0
VERTEX
  8
Standard
 10
139.645737838478
 20
39.123046875
 42
-0.052214876528
  0
SEQEND
  0
POLYLINE
  8
Standard
 66
     1
 10
0.0
 20
0.0
 30
0.0
 70
     1
  0
VERTEX
  8
Standard
 10
146.896714400978
 20
31.0341796875
 42
-0.2850126760729
  0
VERTEX
  8
Standard
 10
140.837524166544
 20
30.7550192537475
 42
-0.3160874326391
  0
VERTEX
  8
Standard
 10
139.874206979316
 20
37.1748553948677
 42
-0.2946898466437
  0
VERTEX
  8
Standard
 10
146.896714400978
 20
41.873046875
 42
-0.2675025429249
  0
VERTEX
  8
Standard
 10
150.403409457851
 20
40.3409461297403
 42
-0.3372362379779
  0
VERTEX
  8
Standard
 10
150.194565963478
 20
38.994140625
 42
0.1362202597862
  0
VERTEX
  8
Standard
 10
149.388901900978
 20
33.38671875
 42
-0.0466156062832
  0
VERTEX
  8
Standard
 10
149.958237838478
 20
31.302734375
 42
-0.6978178914346
  0
VERTEX
  8
Standard
 10
147.3491157495
 20
30.5401132354688
 42
-0.0199999803588
  0
SEQEND
  0
POLYLINE
  8
Standard
 66
     1
 10
0.0
 20
0.0
 30
0.0
 70
     1
  0
VERTEX
  8
Standard
 10
147.272690963478
 20
39.1015625
 42
0.4980071348917
  0
VERTEX
  8
Standard
 10
142.403606613493
 20
33.8046999431263
 42
0.5320872151426
  0
VERTEX
  8
Standard
 10
146.520737838478
 20
33.494140625
 42
-0.09019780527
  0
SEQEND
  0
POLYLINE
  8
Standard
 66
     1
 10
0.0
 20
0.0
 30
0.0
 70
     1
  0
VERTEX
  8
Standard
 10
160.442612838478
 20
39.123046875
 42
0.0084739677277
  0
VERTEX
  8
Standard
 10
158.304917525978
 20
39.1015625
 42
0.145570467176
  0
VERTEX
  8
Standard
 10
157.331465021321
 20
33.4965166317278
 42
0.5633171719958
  0
VERTEX
  8
Standard
 10
158.842026900978
 20
33.515625
 42
-1.0177694936327
  0
VERTEX
  8
Standard
 10
160.739778572581
 20
31.6824861061098
 42
-0.3046466135996
  0
VERTEX
  8
Standard
 10
156.049691666828
 20
30.4314648422553
 42
-0.2669778562773
  0
VERTEX
  8
Standard
 10
154.384019088478
 20
33.8271484375
 42
-0.0736282932192
  0
VERTEX
  8
Standard
 10
155.447495650978
 20
39.015625
 42
-0.1376443178961
  0
VERTEX
  8
Standard
 10
153.202378463478
 20
39.4453125
 42
-0.6979350795399
  0
VERTEX
  8
Standard
 10
154.341050338478
 20
42.0556640625
 42
0.0
  0
VERTEX
  8
Standard
 10
156.016831588478
 20
41.9052734375
 42
-0.1852966913852
  0
VERTEX
  8
Standard
 10
156.779526900978
 20
45.009765625
 42
-0.7129850470205
  0
VERTEX
  8
Standard
 10
159.121323775978
 20
43.634765625
 42
-0.022802232045
  0
VERTEX
  8
Standard
 10
158.895737838478
 20
41.9697265625
 42
-0.2551112049725
  0
VERTEX
  8
Standard
 10
161.792070684477
 20
41.5121622398721
 42
-0.6098689070893
  0
SEQEND
  0
POLYLINE
  8
Standard
 66
     1
 10
0.0
 20
0.0
 30
0.0
 70
     1
  0
VERTEX
  8
Standard
 10
6.1552734375
 20
13.642578125
 42
-0.0103007879182
  0
VERTEX
  8
Standard
 10
5.5859375
 20
10.076171875
 42
-0.092788079696
  0
VERTEX
  8
Standard
 10
11.90234375
 20
10.2802734375
 42
-0.6677216220102
  0
VERTEX
  8
Standard
 10
12.439453125
 20
7.884765625
 42
-0.2334782956098
  0
VERTEX
  8
Standard
 10
9.5498046875
 20
7.455078125
 42
0.0927473705264
  0
VERTEX
  8
Standard
 10
5.1025390625
 20
7.0576171875
 42
0.0
  0
VERTEX
  8
Standard
 10
4.0498046875
 20
0.3330078125
 42
-0.6060960953932
  0
VERTEX
  8
Standard
 10
1.2568359375
 20
-0.7197265625
 42
-0.2123001103716
  0
VERTEX
  8
Standard
 10
1.03125
 20
0.3330078125
 42
-0.0123717960348
  0
VERTEX
  8
Standard
 10
3.4267578125
 20
15.1572265625
 42
-0.4976109203537
  0
VERTEX
  8
Standard
 10
5.8330078125
 20
16.478515625
 42
-0.1707901242938
  0
VERTEX
  8
Standard
 10
14.3881759517105
 20
15.907824007709
 42
-0.5865624043168
  0
VERTEX
  8
Standard
 10
14.6630859375
 20
13.96484375
 42
-0.2276862829223
  0
VERTEX
  8
Standard
 10
11.2901746507411
 20
13.8755252693308
 42
0.0587084490163
  0
SEQEND
  0
POLYLINE
  8
Standard
 66
     1
 10
0.0
 20
0.0
 30
0.0
 70
     1
  0
VERTEX
  8
Standard
 10
24.6640625
 20
7.7451171875
 42
-0.6909430418147
  0
VERTEX
  8
Standard
 10
21.9248666993485
 20
6.4920429154207
 42
-0.1086127307088
  0
VERTEX
  8
Standard
 10
21.892578125
 20
8.5830078125
 42
0.222007186255
  0
VERTEX
  8
Standard
 10
18.0361328125
 20
6.0908203125
 42
0.0
  0
VERTEX
  8
Standard
 10
17.1982421875
 20
0.708984375
 42
-0.6893464461178
  0
VERTEX
  8
Standard
 10
14.5771484375
 20
-0.322265625
 42
-0.2115238464611
  0
VERTEX
  8
Standard
 10
14.3623046875
 20
0.708984375
 42
-0.0150415429825
  0
VERTEX
  8
Standard
 10
15.8418618294712
 20
9.8274834646619
 42
-0.6833789548875
  0
VERTEX
  8
Standard
 10
18.490617820954
 20
10.6161055343475
 42
-0.1202671098501
  0
VERTEX
  8
Standard
 10
18.6591796875
 20
9.904296875
 42
-0.2344572553233
  0
VERTEX
  8
Standard
 10
23.8385860540092
 20
11.2214550943925
 42
-0.3093989814479
  0
VERTEX
  8
Standard
 10
24.771484375
 20
8.46484375
 42
-0.052214876528
  0
SEQEND
  0
POLYLINE
  8
Standard
 66
     1
 10
0.0
 20
0.0
 30
0.0
 70
     1
  0
VERTEX
  8
Standard
 10
27.693359375
 20
3.2333984375
 42
0.3180064741841
  0
VERTEX
  8
Standard
 10
32.9677734375
 20
2.70703125
 42
-0.3024147443966
  0
VERTEX
  8
Standard
 10
35.1666897859031
 20
3.0577806039797
 42
-0.4371199020428
  0
VERTEX
  8
Standard
 10
33.7412109375
 20
0.3330078125
 42
-0.2789166646554
  0
VERTEX
  8
Standard
 10
26.1357421875
 20
0.623046875
 42
-0.321630811073
  0
VERTEX
  8
Standard
 10
25.2503924043159
 20
6.3315429383163
 42
-0.4699965098025
  0
VERTEX
  8
Standard
 10
34.740234375
 20
10.5380859375
 42
-0.5541652548933
  0
VERTEX
  8
Standard
 10
34.1858079043413
 20
6.0961164324998
 42
-0.0250157075898
  0
SEQEND
  0
POLYLINE
  8
Standard
 66
     1
 10
0.0
 20
0.0
 30
0.0
 70
     1
  0
VERTEX
  8
Standard
 10
27.88671875
 20
5.9619140625
 42
0.0404374322551
  0
VERTEX
  8
Standard
 10
32.9892578125
 20
8.228515625
 42
0.3948503647986
  0
VERTEX
  8
Standard
 10
28.4425943994565
 20
6.9220304673263
 42
0.034483651342
  0
SEQEND
  0
POLYLINE
  8
Standard
 66
     1
 10
0.0
 20
0.0
 30
0.0
 70
     1
  0
VERTEX
  8
Standard
 10
40.3154296875
 20
14.265625
 42
-0.6219358108264
  0
VERTEX
  8
Standard
 10
43.3125
 20
15.68359375
 42
-0.8648747950771
  0
VERTEX
  8
Standard
 10
40.7236328125
 20
13.3095703125
 42
-0.1797010594719
  0
SEQEND
  0
POLYLINE
  8
Standard
 66
     1
 10
0.0
 20
0.0
 30
0.0
 70
     1
  0
VERTEX
  8
Standard
 10
39.1982421875
 20
-0.3330078125
 42
-0.449708228753
  0
VERTEX
  8
Standard
 10
37.8984375
 20
0.8701171875
 42
-0.0173238930394
  0
VERTEX
  8
Standard
 10
39.4560546875
 20
9.8291015625
 42
-0.5797104596516
  0
VERTEX
  8
Standard
 10
42.0771484375
 20
10.935546875
 42
-0.1976153435371
  0
VERTEX
  8
Standard
 10
41.958984375
 20
7.583984375
 42
0.0188612123522
  0
VERTEX
  8
Standard
 10
40.8740234375
 20
1.0634765625
 42
-0.3787685175918
  0
SEQEND
  0
POLYLINE
  8
Standard
 66
     1
 10
0.0
 20
0.0
 30
0.0
 70
     1
  0
VERTEX
  8
Standard
 10
50.703125
 20
6.31640625
 42
-0.0463617791187
  0
VERTEX
  8
Standard
 10
47.158203125
 20
-0.0859375
 42
-0.6673889325378
  0
VERTEX
  8
Standard
 10
45.0205078125
 20
-0.171875
 42
-0.0949237706856
  0
VERTEX
  8
Standard
 10
44.21484375
 20
8.29296875
 42
-0.658160986745
  0
VERTEX
  8
Standard
 10
46.6509061254955
 20
11.0742865852938
 42
-0.2871301615069
  0
VERTEX
  8
Standard
 10
47.2978515625
 20
8.5615234375
 42
0.0153809757782
  0
VERTEX
  8
Standard
 10
47.2333984375
 20
4.3076171875
 42
0.0068777807661
  0
VERTEX
  8
Standard
 10
49.908203125
 20
9.7431640625
 42
-0.5790653785615
  0
VERTEX
  8
Standard
 10
52.7119140625
 20
10.720703125
 42
-0.0524555979267
  0
VERTEX
  8
Standard
 10
53.28125
 20
3.6953125
 42
0.0
  0
VERTEX
  8
Standard
 10
56.0634765625
 20
10.376953125
 42
-0.7620262319531
  0
VERTEX
  8
Standard
 10
58.8349609375
 20
9.9580078125
 42
-0.045509905727
  0
VERTEX
  8
Standard
 10
54.806640625
 20
1.07421875
 42
-0.2705739762954
  0
VERTEX
  8
Standard
 10
52.37890625
 20
-0.880859375
 42
-0.3062471007616
  0
VERTEX
  8
Standard
 10
50.886294664535
 20
1.036094979528
 42
-0.0370442700511
  0
SEQEND
  0
POLYLINE
  8
Standard
 66
     1
 10
0.0
 20
0.0
 30
0.0
 70
     1
  0
VERTEX
  8
Standard
 10
60.4140625
 20
0.1611328125
 42
-0.5759527550719
  0
VERTEX
  8
Standard
 10
63.5400390625
 20
1.4609375
 42
-0.6309618835326
  0
VERTEX
  8
Standard
 10
61.939453125
 20
-1.1171875
 42
-0.4714805386119
  0
SEQEND
  0
POLYLINE
  8
Standard
 66
     1
 10
0.0
 20
0.0
 30
0.0
 70
     1
  0
VERTEX
  8
Standard
 10
78.3951345442389
 20
13.642578125
 42
-0.0103007879182
  0
VERTEX
  8
Standard
 10
77.8257986067389
 20
10.076171875
 42
-0.092788079696
  0
VERTEX
  8
Standard
 10
84.1422048567389
 20
10.2802734375
 42
-0.6677216220102
  0
VERTEX
  8
Standard
 10
84.6793142317389
 20
7.884765625
 42
-0.2334782956098
  0
VERTEX
  8
Standard
 10
81.7896657942389
 20
7.455078125
 42
0.0927473705264
  0
VERTEX
  8
Standard
 10
77.3424001692389
 20
7.0576171875
 42
0.0
  0
VERTEX
  8
Standard
 10
76.2896657942389
 20
0.3330078125
 42
-0.6060960953932
  0
VERTEX
  8
Standard
 10
73.4966970442389
 20
-0.7197265625
 42
-0.2123001103716
  0
VERTEX
  8
Standard
 10
73.2711111067389
 20
0.3330078125
 42
-0.0123717960348
  0
VERTEX
  8
Standard
 10
75.6666189192389
 20
15.1572265625
 42
-0.4976109203537
  0
VERTEX
  8
Standard
 10
78.0728689192389
 20
16.478515625
 42
-0.1707901242938
  0
VERTEX
  8
Standard
 10
86.6280370584494
 20
15.907824007709
 42
-0.5865624043169
  0
VERTEX
  8
Standard
 10
86.9029470442389
 20
13.96484375
 42
-0.2276862829223
  0
VERTEX
  8
Standard
 10
83.53003575748
 20
13.8755252693308
 42
0.0587084490163
  0
SEQEND
  0
POLYLINE
  8
Standard
 66
     1
 10
0.0
 20
0.0
 30
0.0
 70
     1
  0
VERTEX
  8
Standard
 10
89.3629079817389
 20
3.2333984375
 42
0.3180064741841
  0
VERTEX
  8
Standard
 10
94.6373220442389
 20
2.70703125
 42
-0.3024147443966
  0
VERTEX
  8
Standard
 10
96.836238392642
 20
3.0577806039797
 42
-0.4371199020428
  0
VERTEX
  8
Standard
 10
95.4107595442389
 20
0.3330078125
 42
-0.2789166646554
  0
VERTEX
  8
Standard
 10
87.8052907942389
 20
0.623046875
 42
-0.321630811073
  0
VERTEX
  8
Standard
 10
86.9199410110547
 20
6.3315429383163
 42
-0.4699965098025
  0
VERTEX
  8
Standard
 10
96.4097829817389
 20
10.5380859375
 42
-0.5541652548933
  0
VERTEX
  8
Standard
 10
95.8553565110802
 20
6.0961164324998
 42
-0.0250157075898
  0
SEQEND
  0
POLYLINE
  8
Standard
 66
     1
 10
0.0
 20
0.0
 30
0.0
 70
     1
  0
VERTEX
  8
Standard
 10
89.5562673567389
 20
5.9619140625
 42
0.0404374322551
  0
VERTEX
  8
Standard
 10
94.6588064192389
 20
8.228515625
 42
0.3948503647986
  0
VERTEX
  8
Standard
 10
90.1121430061954
 20
6.9220304673263
 42
0.034483651342
  0
SEQEND
  0
POLYLINE
  8
Standard
 66
     1
 10
0.0
 20
0.0
 30
0.0
 70
     1
  0
VERTEX
  8
Standard
 10
109.354118919239
 20
6.208984375
 42
0.0092962335379
  0
VERTEX
  8
Standard
 10
108.537712669239
 20
0.5263671875
 42
-0.8347606227446
  0
VERTEX
  8
Standard
 10
105.637322044239
 20
-0.04296875
 42
-0.3281084811384
  0
VERTEX
  8
Standard
 10
99.9131862349694
 20
0.3836793272323
 42
-0.1680552529873
  0
VERTEX
  8
Standard
 10
99.3359952877984
 20
5.4403121098662
 42
-0.1441221409643
  0
VERTEX
  8
Standard
 10
100.771111106739
 20
10.95703125
 42
-0.9334477581731
  0
VERTEX
  8
Standard
 10
103.153537766359
 20
9.4273011533714
 42
0.1072540200448
  0
VERTEX
  8
Standard
 10
102.199822044239
 20
2.53515625
 42
0.1883903716039
  0
VERTEX
  8
Standard
 10
105.830681419239
 20
2.62109375
 42
-0.0345247502812
  0
VERTEX
  8
Standard
 10
107.162712669239
 20
10.0224609375
 42
-0.5527217208012
  0
VERTEX
  8
Standard
 10
109.805290794239
 20
11.0751953125
 42
-0.3026217219014
  0
VERTEX
  8
Standard
 10
109.980753188004
 20
9.1550321854079
 42
-0.007815776242
  0
VERTEX
  8
Standard
 10
109.354118919239
 20
6.1875
 42
0.0
  0
SEQEND
  0
POLYLINE
  8
Standard
 66
     1
 10
0.0
 20
0.0
 30
0.0
 70
     1
  0
VERTEX
  8
Standard
 10
113.103142356739
 20
3.2333984375
 42
0.3180064741841
  0
VERTEX
  8
Standard
 10
118.377556419239
 20
2.70703125
 42
-0.3024147443966
  0
VERTEX
  8
Standard
 10
120.576472767642
 20
3.0577806039797
 42
-0.4371199020428
  0
VERTEX
  8
Standard
 10
119.150993919239
 20
0.3330078125
 42
-0.2789166646554
  0
VERTEX
  8
Standard
 10
111.545525169239
 20
0.623046875
 42
-0.321630811073
  0
VERTEX
  8
Standard
 10
110.660175386055
 20
6.3315429383163
 42
-0.4699965098025
  0
VERTEX
  8
Standard
 10
120.150017356739
 20
10.5380859375
 42
-0.5541652548933
  0
VERTEX
  8
Standard
 10
119.59559088608
 20
6.0961164324998
 42
-0.0250157075898
  0
SEQEND
  0
POLYLINE
  8
Standard
 66
     1
 10
0.0
 20
0.0
 30
0.0
 70
     1
  0
VERTEX
  8
Standard
 10
113.296501731739
 20
5.9619140625
 42
0.0404374322551
  0
VERTEX
  8
Standard
 10
118.399040794239
 20
8.228515625
 42
0.3948503647986
  0
VERTEX
  8
Standard
 10
113.852377381195
 20
6.9220304673263
 42
0.034483651342
  0
SEQEND
  0
POLYLINE
  8
Standard
 66
     1
 10
0.0
 20
0.0
 30
0.0
 70
     1
  0
VERTEX
  8
Standard
 10
132.943962669239
 20
7.7451171875
 42
-0.6909430418147
  0
VERTEX
  8
Standard
 10
130.204766868587
 20
6.4920429154207
 42
-0.1086127307088
  0
VERTEX
  8
Standard
 10
130.172478294239
 20
8.5830078125
 42
0.222007186255
  0
VERTEX
  8
Standard
 10
126.316032981739
 20
6.0908203125
 42
0.0
  0
VERTEX
  8
Standard
 10
125.478142356739
 20
0.708984375
 42
-0.6893464461178
  0
VERTEX
  8
Standard
 10
122.857048606739
 20
-0.322265625
 42
-0.2115238464611
  0
VERTEX
  8
Standard
 10
122.642204856739
 20
0.708984375
 42
-0.0150415429825
  0
VERTEX
  8
Standard
 10
124.12176199871
 20
9.8274834646619
 42
-0.6833789548874
  0
VERTEX
  8
Standard
 10
126.770517990193
 20
10.6161055343475
 42
-0.1202671098501
  0
VERTEX
  8
Standard
 10
126.939079856739
 20
9.904296875
 42
-0.2344572553233
  0
VERTEX
  8
Standard
 10
132.118486223248
 20
11.2214550943925
 42
-0.3093989814479
  0
VERTEX
  8
Standard
 10
133.051384544239
 20
8.46484375
 42
-0.052214876528
  0
SEQEND
  0
POLYLINE
  8
Standard
 66
     1
 10
0.0
 20
0.0
 30
0.0
 70
     1
  0
VERTEX
  8
Standard
 10
140.517204856739
 20
6.31640625
 42
-0.0463617791187
  0
VERTEX
  8
Standard
 10
136.972282981739
 20
-0.0859375
 42
-0.6673889325378
  0
VERTEX
  8
Standard
 10
134.834587669239
 20
-0.171875
 42
-0.0949237706856
  0
VERTEX
  8
Standard
 10
134.028923606739
 20
8.29296875
 42
-0.658160986745
  0
VERTEX
  8
Standard
 10
136.464985982234
 20
11.0742865852938
 42
-0.2871301615069
  0
VERTEX
  8
Standard
 10
137.111931419239
 20
8.5615234375
 42
0.0153809757782
  0
VERTEX
  8
Standard
 10
137.047478294239
 20
4.3076171875
 42
0.0068777807661
  0
VERTEX
  8
Standard
 10
139.722282981739
 20
9.7431640625
 42
-0.5790653785616
  0
VERTEX
  8
Standard
 10
142.525993919239
 20
10.720703125
 42
-0.0524555979267
  0
VERTEX
  8
Standard
 10
143.095329856739
 20
3.6953125
 42
0.0
  0
VERTEX
  8
Standard
 10
145.877556419239
 20
10.376953125
 42
-0.7620262319531
  0
VERTEX
  8
Standard
 10
148.649040794239
 20
9.9580078125
 42
-0.045509905727
  0
VERTEX
  8
Standard
 10
144.620720481739
 20
1.07421875
 42
-0.2705739762954
  0
VERTEX
  8
Standard
 10
142.192986106739
 20
-0.880859375
 42
-0.3062471007616
  0
VERTEX
  8
Standard
 10
140.700374521274
 20
1.036094979528
 42
-0.0370442700511
  0
SEQEND
  0
POLYLINE
  8
Standard
 66
     1
 10
0.0
 20
0.0
 30
0.0
 70
     1
  0
VERTEX
  8
Standard
 10
151.023064231739
 20
3.2333984375
 42
0.3180064741841
  0
VERTEX
  8
Standard
 10
156.297478294239
 20
2.70703125
 42
-0.3024147443966
  0
VERTEX
  8
Standard
 10
158.496394642642
 20
3.0577806039797
 42
-0.4371199020428
  0
VERTEX
  8
Standard
 10
157.070915794239
 20
0.3330078125
 42
-0.2789166646554
  0
VERTEX
  8
Standard
 10
149.465447044239
 20
0.623046875
 42
-0.321630811073
  0
VERTEX
  8
Standard
 10
148.580097261055
 20
6.3315429383163
 42
-0.4699965098025
  0
VERTEX
  8
Standard
 10
158.069939231739
 20
10.5380859375
 42
-0.5541652548933
  0
VERTEX
  8
Standard
 10
157.51551276108
 20
6.0961164324998
 42
-0.0250157075898
  0
SEQEND
  0
POLYLINE
  8
Standard
 66
     1
 10
0.0
 20
0.0
 30
0.0
 70
     1
  0
VERTEX
  8
Standard
 10
151.216423606739
 20
5.9619140625
 42
0.0404374322551
  0
VERTEX
  8
Standard
 10
156.318962669239
 20
8.228515625
 42
0.3948503647986
  0
VERTEX
  8
Standard
 10
151.772299256195
 20
6.9220304673263
 42
0.034483651342
  0
SEQEND
  0
POLYLINE
  8
Standard
 66
     1
 10
0.0
 20
0.0
 30
0.0
 70
     1
  0
VERTEX
  8
Standard
 10
165.353142356739
 20
9.8291015625
 42
-0.3872160185525
  0
VERTEX
  8
Standard
 10
171.347282981739
 20
10.7421875
 42
-0.1903393441348
  0
VERTEX
  8
Standard
 10
172.034782981739
 20
7.9599609375
 42
0.0582571540039
  0
VERTEX
  8
Standard
 10
171.648064231739
 20
0.9130859375
 42
-0.7439775641495
  0
VERTEX
  8
Standard
 10
168.833611106739
 20
-0.1396484375
 42
-0.1124812810593
  0
VERTEX
  8
Standard
 10
169.026970481739
 20
6.6171875
 42
0.1651789503703
  0
VERTEX
  8
Standard
 10
169.116727226071
 20
8.2814725850243
 42
0.4172452790944
  0
VERTEX
  8
Standard
 10
167.453881346916
 20
8.1360817905348
 42
0.303813538357
  0
VERTEX
  8
Standard
 10
164.293025890963
 20
2.8556821279032
 42
-0.2678897036077
  0
VERTEX
  8
Standard
 10
162.933523222276
 20
-0.0672467626896
 42
-0.8640432600441
  0
VERTEX
  8
Standard
 10
161.034782981739
 20
1.71875
 42
0.0099278832171
  0
VERTEX
  8
Standard
 10
162.753532981739
 20
11.794921875
 42
0.0544566557118
  0
VERTEX
  8
Standard
 10
163.245488597061
 20
15.5304723938031
 42
-1.1637909258058
  0
VERTEX
  8
Standard
 10
166.298454856739
 20
15.533203125
 42
-0.0184413652233
  0
SEQEND
  0
POLYLINE
  8
Standard
 66
     1
 10
0.0
 20
0.0
 30
0.0
 70
     1
  0
VERTEX
  8
Standard
 10
183.571892356739
 20
7.7451171875
 42
-0.6909430418147
  0
VERTEX
  8
Standard
 10
180.832696556087
 20
6.4920429154207
 42
-0.1086127307088
  0
VERTEX
  8
Standard
 10
180.800407981739
 20
8.5830078125
 42
0.222007186255
  0
VERTEX
  8
Standard
 10
176.943962669239
 20
6.0908203125
 42
0.0
  0
VERTEX
  8
Standard
 10
176.106072044239
 20
0.708984375
 42
-0.6893464461178
  0
VERTEX
  8
Standard
 10
173.484978294239
 20
-0.322265625
 42
-0.2115238464611
  0
VERTEX
  8
Standard
 10
173.270134544239
 20
0.708984375
 42
-0.0150415429825
  0
VERTEX
  8
Standard
 10
174.74969168621
 20
9.8274834646619
 42
-0.6833789548875
  0
VERTEX
  8
Standard
 10
177.398447677693
 20
10.6161055343475
 42
-0.1202671098501
  0
VERTEX
  8
Standard
 10
177.567009544239
 20
9.904296875
 42
-0.2344572553233
  0
VERTEX
  8
Standard
 10
182.746415910748
 20
11.2214550943925
 42
-0.3093989814479
  0
VERTEX
  8
Standard
 10
183.679314231739
 20
8.46484375
 42
-0.052214876528
  0
SEQEND
  0
ENDSEC
  0
EOF
