  0
SECTION
  2
HEADER
  9
$ACADVER
  1
AC1009
  9
$EXTMAX
 10
33.4308738708496
 20
32.8289070129395
 30
0.0
  9
$EXTMIN
 10
-34.5691261291504
 20
-40.9150085449219
 30
0.0
  9
$INSUNITS
 70
     4
  9
$LUNITS
 70
     2
  9
$LUPREC
 70
     4
  9
$MEASUREMENT
 70
     1
  0
ENDSEC
  0
SECTION
  2
TABLES
  0
TABLE
  2
LAYER
 70
     1
  0
LAYER
  2
0
 70
     0
 62
     7
  6
Continuous
  0
LAYER
  2
Blume-Links
 70
     0
 62
    70
  6
Continuous
  0
LAYER
  2
WappenHofsgrun_Kontur2
 70
     0
 62
    70
  6
Continuous
  0
LAYER
  2
BlumeBund
 70
     0
 62
    70
  6
Continuous
  0
ENDTAB
  0
TABLE
  2
APPID
 70
     1
  0
APPID
  2
ACAD
 70
     0
  0
ENDTAB
  0
ENDSEC
  0
SECTION
  2
ENTITIES
  0
POLYLINE
  8
Blume-Links
 66
     1
 10
0.0
 20
0.0
 30
0.0
 70
     1
  0
VERTEX
  8
Blume-Links
 10
31.330872376293
 20
-6.9150103029919
 42
-1.0
  0
VERTEX
  8
Blume-Links
 10
-32.469127623707
 20
-6.9150103029919
 42
0.0
  0
VERTEX
  8
Blume-Links
 10
-32.469127623707
 20
30.7289088419268
 42
0.0
  0
VERTEX
  8
Blume-Links
 10
31.3308723762932
 20
30.7289088419268
 42
0.0
  0
SEQEND
  0
POLYLINE
  8
Blume-Links
 66
     1
 10
0.0
 20
0.0
 30
0.0
 70
     1
  0
VERTEX
  8
Blume-Links
 10
-19.4999792623947
 20
6.9169605162313
 42
-1.0482723292077
  0
VERTEX
  8
Blume-Links
 10
-19.4293946286377
 20
8.4136316608453
 42
1.0482723292077
  0
SEQEND
  0
POLYLINE
  8
Blume-Links
 66
     1
 10
0.0
 20
0.0
 30
0.0
 70
     1
  0
VERTEX
  8
Blume-Links
 10
-19.4990509430884
 20
3.4169605162318
 42
-1.0000716311433
  0
VERTEX
  8
Blume-Links
 10
-19.4989433421438
 20
4.9169607602719
 42
1.0000716311433
  0
SEQEND
  0
POLYLINE
  8
Blume-Links
 66
     1
 10
0.0
 20
0.0
 30
0.0
 70
     1
  0
VERTEX
  8
Blume-Links
 10
-13.8990306226264
 20
8.4169599260386
 42
0.0
  0
VERTEX
  8
Blume-Links
 10
-19.4999791043346
 20
8.4169605162312
 42
0.0
  0
SEQEND
  0
POLYLINE
  8
Blume-Links
 66
     1
 10
0.0
 20
0.0
 30
0.0
 70
     1
  0
VERTEX
  8
Blume-Links
 10
-13.8990316988853
 20
3.4169599260406
 42
0.0
  0
VERTEX
  8
Blume-Links
 10
-19.4999796312014
 20
3.4169605162314
 42
0.0
  0
SEQEND
  0
POLYLINE
  8
Blume-Links
 66
     1
 10
0.0
 20
0.0
 30
0.0
 70
     1
  0
VERTEX
  8
Blume-Links
 10
-13.9018036520421
 20
6.9169654198889
 42
-1.000646441569
  0
VERTEX
  8
Blume-Links
 10
-13.8994351553502
 20
4.9169602994692
 42
1.000646441569
  0
SEQEND
  0
POLYLINE
  8
Blume-Links
 66
     1
 10
0.0
 20
0.0
 30
0.0
 70
     1
  0
VERTEX
  8
Blume-Links
 10
3.29152395571
 20
-19.3373195092685
 42
0.0
  0
VERTEX
  8
Blume-Links
 10
-2.4324167664122
 20
-19.3373189061175
 42
0.0
  0
SEQEND
  0
POLYLINE
  8
Blume-Links
 66
     1
 10
0.0
 20
0.0
 30
0.0
 70
     1
  0
VERTEX
  8
Blume-Links
 10
-2.2206709508798
 20
-24.3070799481134
 42
-1.5419039783002
  0
VERTEX
  8
Blume-Links
 10
-2.0361245946381
 20
-22.9499903323601
 42
1.5419039783002
  0
SEQEND
  0
POLYLINE
  8
Blume-Links
 66
     1
 10
0.0
 20
0.0
 30
0.0
 70
     1
  0
VERTEX
  8
Blume-Links
 10
3.29152379765
 20
-20.8373195092684
 42
0.0
  0
VERTEX
  8
Blume-Links
 10
-2.4324169244723
 20
-20.8373189061175
 42
0.0
  0
SEQEND
  0
POLYLINE
  8
Blume-Links
 66
     1
 10
0.0
 20
0.0
 30
0.0
 70
     1
  0
VERTEX
  8
Blume-Links
 10
-2.0250915100113
 20
-22.7505974128798
 42
-1.4765272505654
  0
VERTEX
  8
Blume-Links
 10
-2.0981464752505
 20
-20.8948453554658
 42
1.4765272505654
  0
SEQEND
  0
POLYLINE
  8
Blume-Links
 66
     1
 10
0.0
 20
0.0
 30
0.0
 70
     1
  0
VERTEX
  8
Blume-Links
 10
3.2915234288432
 20
-24.3373195092684
 42
0.0
  0
VERTEX
  8
Blume-Links
 10
-2.4324172932791
 20
-24.3373189061175
 42
0.0
  0
SEQEND
  0
POLYLINE
  8
Blume-Links
 66
     1
 10
0.0
 20
0.0
 30
0.0
 70
     1
  0
VERTEX
  8
Blume-Links
 10
-2.1138631565873
 20
-20.7663060901451
 42
-1.3095358552463
  0
VERTEX
  8
Blume-Links
 10
-2.3618322907153
 20
-19.3406477615036
 42
1.3095358552463
  0
SEQEND
  0
POLYLINE
  8
Blume-Links
 66
     1
 10
0.0
 20
0.0
 30
0.0
 70
     1
  0
VERTEX
  8
Blume-Links
 10
3.2915235869032
 20
-22.8373195092685
 42
0.0
  0
VERTEX
  8
Blume-Links
 10
-2.432417135219
 20
-22.8373189061175
 42
0.0
  0
SEQEND
  0
POLYLINE
  8
Blume-Links
 66
     1
 10
0.0
 20
0.0
 30
0.0
 70
     1
  0
VERTEX
  8
Blume-Links
 10
3.168531715296
 20
-19.3373194963102
 42
-1.000311849527
  0
VERTEX
  8
Blume-Links
 10
3.1680671947559
 20
-20.8373193514689
 42
1.000311849527
  0
SEQEND
  0
POLYLINE
  8
Blume-Links
 66
     1
 10
0.0
 20
0.0
 30
0.0
 70
     1
  0
VERTEX
  8
Blume-Links
 10
3.1657586858803
 20
-20.8373140024599
 42
-1.000646441569
  0
VERTEX
  8
Blume-Links
 10
3.1681271825722
 20
-22.8373191228796
 42
1.000646441569
  0
SEQEND
  0
POLYLINE
  8
Blume-Links
 66
     1
 10
0.0
 20
0.0
 30
0.0
 70
     0
  0
VERTEX
  8
Blume-Links
 10
-13.8990316988853
 20
3.4169599260406
 42
1.0002691123976
  0
VERTEX
  8
Blume-Links
 10
-13.8994351550909
 20
4.9169598174801
 42
-1.0002691123976
  0
VERTEX
  8
Blume-Links
 10
-13.8990317214751
 20
3.4169599260405
 42
0.9993455929619
  0
VERTEX
  8
Blume-Links
 10
-13.9004188286068
 20
4.9184580767754
 42
1.0004240228526
  0
VERTEX
  8
Blume-Links
 10
-13.9018036514969
 20
6.9169650583998
 42
0.0
  0
SEQEND
  0
POLYLINE
  8
Blume-Links
 66
     1
 10
0.0
 20
0.0
 30
0.0
 70
     1
  0
VERTEX
  8
Blume-Links
 10
18.9009693773736
 20
8.4169599260386
 42
0.0
  0
VERTEX
  8
Blume-Links
 10
13.3000208956654
 20
8.4169605162312
 42
0.0
  0
SEQEND
  0
POLYLINE
  8
Blume-Links
 66
     1
 10
0.0
 20
0.0
 30
0.0
 70
     1
  0
VERTEX
  8
Blume-Links
 10
13.3009490569116
 20
3.4169605162318
 42
-1.0000716311433
  0
VERTEX
  8
Blume-Links
 10
13.3010566578562
 20
4.9169607602719
 42
1.0000716311433
  0
SEQEND
  0
POLYLINE
  8
Blume-Links
 66
     1
 10
0.0
 20
0.0
 30
0.0
 70
     0
  0
VERTEX
  8
Blume-Links
 10
18.9009683011147
 20
3.4169599260406
 42
1.0002691123976
  0
VERTEX
  8
Blume-Links
 10
18.9005648449091
 20
4.9169598174801
 42
-1.0002691123976
  0
VERTEX
  8
Blume-Links
 10
18.9009682785249
 20
3.4169599260405
 42
0.9993455929619
  0
VERTEX
  8
Blume-Links
 10
18.8995811713932
 20
4.9184580767754
 42
1.0004240228526
  0
VERTEX
  8
Blume-Links
 10
18.8981963485031
 20
6.9169650583998
 42
0.0
  0
SEQEND
  0
POLYLINE
  8
Blume-Links
 66
     1
 10
0.0
 20
0.0
 30
0.0
 70
     1
  0
VERTEX
  8
Blume-Links
 10
18.9009708887387
 20
6.9169599260403
 42
0.0
  0
VERTEX
  8
Blume-Links
 10
13.3000207376053
 20
6.9169605162313
 42
0.0
  0
SEQEND
  0
POLYLINE
  8
Blume-Links
 66
     1
 10
0.0
 20
0.0
 30
0.0
 70
     1
  0
VERTEX
  8
Blume-Links
 10
18.9009683011147
 20
3.4169599260405
 42
0.0
  0
VERTEX
  8
Blume-Links
 10
13.3000203687985
 20
3.4169605162313
 42
0.0
  0
SEQEND
  0
POLYLINE
  8
Blume-Links
 66
     1
 10
0.0
 20
0.0
 30
0.0
 70
     1
  0
VERTEX
  8
Blume-Links
 10
13.3000207376053
 20
6.9169605162313
 42
-1.0482723292077
  0
VERTEX
  8
Blume-Links
 10
13.3706053713624
 20
8.4136316608453
 42
1.0482723292077
  0
SEQEND
  0
POLYLINE
  8
Blume-Links
 66
     1
 10
0.0
 20
0.0
 30
0.0
 70
     1
  0
VERTEX
  8
Blume-Links
 10
18.8981963479579
 20
6.9169654198889
 42
-1.000646441569
  0
VERTEX
  8
Blume-Links
 10
18.9005648446498
 20
4.9169602994692
 42
1.000646441569
  0
SEQEND
  0
POLYLINE
  8
Blume-Links
 66
     1
 10
0.0
 20
0.0
 30
0.0
 70
     1
  0
VERTEX
  8
Blume-Links
 10
-13.8990291112612
 20
6.9169599260403
 42
0.0
  0
VERTEX
  8
Blume-Links
 10
-19.4999792623946
 20
6.9169605162313
 42
0.0
  0
SEQEND
  0
POLYLINE
  8
Blume-Links
 66
     1
 10
0.0
 20
0.0
 30
0.0
 70
     0
  0
VERTEX
  8
Blume-Links
 10
-13.8449893971707
 20
4.9184729012893
 42
0.0
  0
VERTEX
  8
Blume-Links
 10
-19.4999794731318
 20
4.9169604831603
 42
0.0
  0
VERTEX
  8
Blume-Links
 10
-13.8528112928197
 20
4.9169599211702
 42
0.0
  0
VERTEX
  8
Blume-Links
 10
-19.4999794731414
 20
4.9169605162313
 42
0.0
  0
VERTEX
  8
Blume-Links
 10
-19.4989433421438
 20
4.9169607602719
 42
-1.0000575978623
  0
VERTEX
  8
Blume-Links
 10
-19.4999792623946
 20
6.9169605162313
 42
1.0001388745389
  0
VERTEX
  8
Blume-Links
 10
-19.4997220953743
 20
4.916960552217
 42
-1.0001388745389
  0
VERTEX
  8
Blume-Links
 10
-19.4999792623946
 20
6.9169605162313
 42
0.0
  0
VERTEX
  8
Blume-Links
 10
-13.8990291112612
 20
6.9169599260403
 42
0.0
  0
VERTEX
  8
Blume-Links
 10
-13.8994951431665
 20
6.9169600708799
 42
1.000311849527
  0
VERTEX
  8
Blume-Links
 10
-13.8990306226264
 20
8.4169599260385
 42
-1.000311849527
  0
VERTEX
  8
Blume-Links
 10
-13.8994951431665
 20
6.9169600708799
 42
1.000311849527
  0
VERTEX
  8
Blume-Links
 10
-13.8990306226264
 20
8.4169599260386
 42
0.0
  0
VERTEX
  8
Blume-Links
 10
-19.4999791043346
 20
8.4169605162312
 42
0.0
  0
VERTEX
  8
Blume-Links
 10
-19.4293946286377
 20
8.4136316608453
 42
1.0482723292077
  0
VERTEX
  8
Blume-Links
 10
-19.4999792623947
 20
6.9169605162313
 42
0.0
  0
SEQEND
  0
POLYLINE
  8
Blume-Links
 66
     1
 10
0.0
 20
0.0
 30
0.0
 70
     0
  0
VERTEX
  8
Blume-Links
 10
18.9550106028294
 20
4.9184729012894
 42
0.0
  0
VERTEX
  8
Blume-Links
 10
13.3000205268586
 20
4.9169605162313
 42
0.0
  0
VERTEX
  8
Blume-Links
 10
18.9471887071803
 20
4.9169599211702
 42
0.0
  0
VERTEX
  8
Blume-Links
 10
13.3000205268586
 20
4.9169605162313
 42
0.0
  0
VERTEX
  8
Blume-Links
 10
13.3010566578562
 20
4.9169607602719
 42
-1.0000575981957
  0
VERTEX
  8
Blume-Links
 10
13.3000207376053
 20
6.9169605162312
 42
1.0001388745389
  0
VERTEX
  8
Blume-Links
 10
13.3002779046256
 20
4.916960552217
 42
-1.0001388745388
  0
VERTEX
  8
Blume-Links
 10
13.3000207376053
 20
6.9169605162313
 42
0.0
  0
VERTEX
  8
Blume-Links
 10
18.9009708887387
 20
6.9169599260403
 42
0.0
  0
VERTEX
  8
Blume-Links
 10
18.9005048568335
 20
6.9169600708799
 42
1.000311849527
  0
VERTEX
  8
Blume-Links
 10
18.9009693773736
 20
8.4169599260386
 42
-1.000311849527
  0
VERTEX
  8
Blume-Links
 10
18.9005048568335
 20
6.9169600708799
 42
1.000311849527
  0
VERTEX
  8
Blume-Links
 10
18.9009693773736
 20
8.4169599260386
 42
0.0
  0
VERTEX
  8
Blume-Links
 10
13.3000208956654
 20
8.4169605162312
 42
0.0
  0
VERTEX
  8
Blume-Links
 10
13.3706053713624
 20
8.4136316608453
 42
1.0482723292077
  0
VERTEX
  8
Blume-Links
 10
13.3000207376053
 20
6.9169605162313
 42
0.0
  0
SEQEND
  0
POLYLINE
  8
Blume-Links
 66
     1
 10
0.0
 20
0.0
 30
0.0
 70
     1
  0
VERTEX
  8
Blume-Links
 10
-2.4324172932791
 20
-24.3373189061175
 42
0.0
  0
VERTEX
  8
Blume-Links
 10
3.2915234288432
 20
-24.3373195092684
 42
0.0
  0
VERTEX
  8
Blume-Links
 10
3.1685306390371
 20
-24.3373194963083
 42
1.0002691123976
  0
VERTEX
  8
Blume-Links
 10
3.1681271828316
 20
-22.8373196048687
 42
-1.0002691123976
  0
VERTEX
  8
Blume-Links
 10
3.1685306390371
 20
-24.3373194963083
 42
1.0002691123976
  0
VERTEX
  8
Blume-Links
 10
3.1681271825722
 20
-22.8373191228796
 42
1.000646441569
  0
VERTEX
  8
Blume-Links
 10
3.1657586858803
 20
-20.8373140024599
 42
1.0020094170017
  0
VERTEX
  8
Blume-Links
 10
3.168531715296
 20
-19.3373194963102
 42
0.0
  0
VERTEX
  8
Blume-Links
 10
3.29152395571
 20
-19.3373195092685
 42
0.0
  0
VERTEX
  8
Blume-Links
 10
-2.4324167664122
 20
-19.3373189061175
 42
0.0
  0
VERTEX
  8
Blume-Links
 10
-2.3618322907153
 20
-19.3406477615036
 42
1.3095358552463
  0
VERTEX
  8
Blume-Links
 10
-2.1138631565873
 20
-20.7663060901451
 42
0.0
  0
VERTEX
  8
Blume-Links
 10
-2.0981464752505
 20
-20.8948453554658
 42
1.4765272505654
  0
VERTEX
  8
Blume-Links
 10
-2.0250915100113
 20
-22.7505974128798
 42
0.0
  0
VERTEX
  8
Blume-Links
 10
-2.0361245946381
 20
-22.9499903323601
 42
1.5419039783002
  0
VERTEX
  8
Blume-Links
 10
-2.2206709508798
 20
-24.3070799481134
 42
0.0
  0
SEQEND
  0
POLYLINE
  8
Blume-Links
 66
     1
 10
0.0
 20
0.0
 30
0.0
 70
     1
  0
VERTEX
  8
Blume-Links
 10
33.4308723762931
 20
32.8289088419267
 42
0.0
  0
VERTEX
  8
Blume-Links
 10
-34.5691276237071
 20
32.8289088419268
 42
0.0
  0
VERTEX
  8
Blume-Links
 10
-34.569127623707
 20
-6.9150103029918
 42
1.0
  0
VERTEX
  8
Blume-Links
 10
33.430872376293
 20
-6.9150103029919
 42
0.0
  0
SEQEND
  0
POLYLINE
  8
Blume-Links
 66
     1
 10
0.0
 20
0.0
 30
0.0
 70
     1
  0
VERTEX
  8
Blume-Links
 10
-16.9545767733326
 20
27.4394400539079
 42
0.1229014804442
  0
VERTEX
  8
Blume-Links
 10
-17.867983044873
 20
24.4091772869655
 42
-0.0072636582912
  0
VERTEX
  8
Blume-Links
 10
-20.1337934699649
 20
20.4798659688146
 42
0.0757259793006
  0
VERTEX
  8
Blume-Links
 10
-19.1024537427426
 20
14.7976023573859
 42
-2.0456196430405
  0
VERTEX
  8
Blume-Links
 10
-19.2397091249719
 20
14.8217165088315
 42
0.1403687106015
  0
VERTEX
  8
Blume-Links
 10
-22.7475538312291
 20
17.9461925187224
 42
0.4067449868361
  0
VERTEX
  8
Blume-Links
 10
-27.5001193390905
 20
15.0578047543532
 42
0.1441707586686
  0
VERTEX
  8
Blume-Links
 10
-26.9743508195298
 20
8.9425744698566
 42
-0.1816035634435
  0
VERTEX
  8
Blume-Links
 10
-26.5841826435561
 20
5.2737845277228
 42
-0.2183057961883
  0
VERTEX
  8
Blume-Links
 10
-28.9011030630155
 20
3.9458785420186
 42
0.8067454324354
  0
VERTEX
  8
Blume-Links
 10
-28.9787462301308
 20
3.7752002672929
 42
0.3249529367233
  0
VERTEX
  8
Blume-Links
 10
-22.8330454820248
 20
4.3416166670621
 42
0.2990900080127
  0
VERTEX
  8
Blume-Links
 10
-22.7029400470784
 20
8.8782787690323
 42
-0.9929076513182
  0
VERTEX
  8
Blume-Links
 10
-20.9013033757407
 20
11.0325061404526
 42
-0.2370363605382
  0
VERTEX
  8
Blume-Links
 10
-19.3831857335015
 20
5.4975163974231
 42
-0.2466223101882
  0
VERTEX
  8
Blume-Links
 10
-21.8989644213721
 20
-0.1309817943618
 42
-0.2618398784227
  0
VERTEX
  8
Blume-Links
 10
-24.5823662415167
 20
0.138461450971
 42
0.4728330388359
  0
VERTEX
  8
Blume-Links
 10
-25.4824717105688
 20
-0.1485773432405
 42
0.5980707288885
  0
VERTEX
  8
Blume-Links
 10
-21.8701989618454
 20
-4.5805311063456
 42
0.1679082407529
  0
VERTEX
  8
Blume-Links
 10
-19.0033662677229
 20
-1.403401779947
 42
-0.0566518178154
  0
VERTEX
  8
Blume-Links
 10
-18.8405267284496
 20
-1.1542844851794
 42
-0.6352669291219
  0
VERTEX
  8
Blume-Links
 10
-18.806949183597
 20
-1.2523650844243
 42
0.2778348356914
  0
VERTEX
  8
Blume-Links
 10
-17.1265104550985
 20
-9.4014035512043
 42
0.4336503498954
  0
VERTEX
  8
Blume-Links
 10
-15.9887648355556
 20
-8.3027286186716
 42
0.2311404452103
  0
VERTEX
  8
Blume-Links
 10
-14.7077215280138
 20
-2.1939053812038
 42
-0.9226626034738
  0
VERTEX
  8
Blume-Links
 10
-14.6067647759193
 20
-1.6039508579092
 42
0.3108538898326
  0
VERTEX
  8
Blume-Links
 10
-11.1045870097493
 20
-4.263071737669
 42
0.5048016954921
  0
VERTEX
  8
Blume-Links
 10
-7.9879377159756
 20
0.0593701076403
 42
0.5801059207393
  0
VERTEX
  8
Blume-Links
 10
-9.6145410244031
 20
-0.2591376799294
 42
-0.4903974440297
  0
VERTEX
  8
Blume-Links
 10
-13.5334274358892
 20
2.0337412448229
 42
-0.0894975592342
  0
VERTEX
  8
Blume-Links
 10
-14.1104332252039
 20
8.5554846988818
 42
-0.4005813034084
  0
VERTEX
  8
Blume-Links
 10
-11.6331320862434
 20
11.5346113186094
 42
-0.5281662912208
  0
VERTEX
  8
Blume-Links
 10
-10.7525517841354
 20
9.5876230465545
 42
0.1515320112076
  0
VERTEX
  8
Blume-Links
 10
-10.8754711468509
 20
5.1840363188741
 42
0.3928233110572
  0
VERTEX
  8
Blume-Links
 10
-6.1885847924552
 20
3.5616918491537
 42
0.2279166140406
  0
VERTEX
  8
Blume-Links
 10
-4.7311910461996
 20
4.1634220072062
 42
0.1156470492201
  0
VERTEX
  8
Blume-Links
 10
-6.1222287399687
 20
4.9919987597593
 42
-0.2825344358605
  0
VERTEX
  8
Blume-Links
 10
-6.6970392034026
 20
8.8258921350581
 42
0.0702799354441
  0
VERTEX
  8
Blume-Links
 10
-5.7025011551166
 20
13.8277801948147
 42
0.8139221594621
  0
VERTEX
  8
Blume-Links
 10
-13.5527323705843
 20
16.0149296182805
 42
0.038954786427
  0
VERTEX
  8
Blume-Links
 10
-14.9459130706316
 20
13.9130116938679
 42
0.1610914635576
  0
VERTEX
  8
Blume-Links
 10
-13.768412763585
 20
20.8887299716794
 42
-0.0812112919054
  0
VERTEX
  8
Blume-Links
 10
-16.6965380284029
 20
27.0564829422313
 42
0.5544435074879
  0
SEQEND
  0
POLYLINE
  8
Blume-Links
 66
     1
 10
0.0
 20
0.0
 30
0.0
 70
     1
  0
VERTEX
  8
Blume-Links
 10
15.6942067874578
 20
27.4394400539079
 42
0.1229014804442
  0
VERTEX
  8
Blume-Links
 10
14.7808005159174
 20
24.4091772869655
 42
-0.0072636582912
  0
VERTEX
  8
Blume-Links
 10
12.5149900908255
 20
20.4798659688145
 42
0.0757259793006
  0
VERTEX
  8
Blume-Links
 10
13.5463298180478
 20
14.7976023573858
 42
-2.045619643048
  0
VERTEX
  8
Blume-Links
 10
13.4090744358186
 20
14.8217165088315
 42
0.1403687106015
  0
VERTEX
  8
Blume-Links
 10
9.9012297295614
 20
17.9461925187223
 42
0.4067449868361
  0
VERTEX
  8
Blume-Links
 10
5.1486642216999
 20
15.0578047543532
 42
0.1441707586686
  0
VERTEX
  8
Blume-Links
 10
5.6744327412606
 20
8.9425744698565
 42
-0.1816035634435
  0
VERTEX
  8
Blume-Links
 10
6.0646009172344
 20
5.2737845277227
 42
-0.2183057961882
  0
VERTEX
  8
Blume-Links
 10
3.747680497775
 20
3.9458785420186
 42
0.8067454324164
  0
VERTEX
  8
Blume-Links
 10
3.6700373306597
 20
3.7752002672929
 42
0.3249529367233
  0
VERTEX
  8
Blume-Links
 10
9.8157380787656
 20
4.3416166670621
 42
0.2990900080127
  0
VERTEX
  8
Blume-Links
 10
9.945843513712
 20
8.8782787690322
 42
-0.9929076513181
  0
VERTEX
  8
Blume-Links
 10
11.7474801850497
 20
11.0325061404526
 42
-0.2370363605382
  0
VERTEX
  8
Blume-Links
 10
13.2655978272889
 20
5.4975163974231
 42
-0.2466223101882
  0
VERTEX
  8
Blume-Links
 10
10.7498191394183
 20
-0.1309817943618
 42
-0.2618398784228
  0
VERTEX
  8
Blume-Links
 10
8.0664173192738
 20
0.138461450971
 42
0.4728330388359
  0
VERTEX
  8
Blume-Links
 10
7.1663118502217
 20
-0.1485773432406
 42
0.5980707288885
  0
VERTEX
  8
Blume-Links
 10
10.778584598945
 20
-4.5805311063457
 42
0.1679082407529
  0
VERTEX
  8
Blume-Links
 10
13.6454172930674
 20
-1.4034017799471
 42
-0.0566518178151
  0
VERTEX
  8
Blume-Links
 10
13.8082568323408
 20
-1.1542844851795
 42
-0.635266929175
  0
VERTEX
  8
Blume-Links
 10
13.8418343771934
 20
-1.2523650844244
 42
0.2778348356914
  0
VERTEX
  8
Blume-Links
 10
15.5222731056919
 20
-9.4014035512044
 42
0.4336503498952
  0
VERTEX
  8
Blume-Links
 10
16.6600187252348
 20
-8.3027286186717
 42
0.2311404452103
  0
VERTEX
  8
Blume-Links
 10
17.9410620327766
 20
-2.1939053812039
 42
-0.9226626034747
  0
VERTEX
  8
Blume-Links
 10
18.0420187848711
 20
-1.6039508579093
 42
0.3108538898327
  0
VERTEX
  8
Blume-Links
 10
21.5441965510411
 20
-4.263071737669
 42
0.5048016954922
  0
VERTEX
  8
Blume-Links
 10
24.6608458448148
 20
0.0593701076403
 42
0.5801059207392
  0
VERTEX
  8
Blume-Links
 10
23.0342425363872
 20
-0.2591376799295
 42
-0.4903974440297
  0
VERTEX
  8
Blume-Links
 10
19.1153561249012
 20
2.0337412448229
 42
-0.0894975592342
  0
VERTEX
  8
Blume-Links
 10
18.5383503355865
 20
8.5554846988818
 42
-0.4005813034084
  0
VERTEX
  8
Blume-Links
 10
21.015651474547
 20
11.5346113186094
 42
-0.5281662912208
  0
VERTEX
  8
Blume-Links
 10
21.896231776655
 20
9.5876230465545
 42
0.1515320112076
  0
VERTEX
  8
Blume-Links
 10
21.7733124139394
 20
5.1840363188741
 42
0.3928233110572
  0
VERTEX
  8
Blume-Links
 10
26.4601987683352
 20
3.5616918491536
 42
0.2279166140407
  0
VERTEX
  8
Blume-Links
 10
27.9175925145907
 20
4.1634220072062
 42
0.1156470492202
  0
VERTEX
  8
Blume-Links
 10
26.5265548208218
 20
4.9919987597592
 42
-0.2825344358606
  0
VERTEX
  8
Blume-Links
 10
25.9517443573878
 20
8.8258921350581
 42
0.0702799354441
  0
VERTEX
  8
Blume-Links
 10
26.9462824056738
 20
13.8277801948147
 42
0.8139221594621
  0
VERTEX
  8
Blume-Links
 10
19.0960511902061
 20
16.0149296182805
 42
0.0389547864272
  0
VERTEX
  8
Blume-Links
 10
17.7028704901588
 20
13.9130116938679
 42
0.1610914635576
  0
VERTEX
  8
Blume-Links
 10
18.8803707972053
 20
20.8887299716794
 42
-0.0812112919054
  0
VERTEX
  8
Blume-Links
 10
15.9522455323875
 20
27.0564829422313
 42
0.554443507488
  0
SEQEND
  0
POLYLINE
  8
Blume-Links
 66
     1
 10
0.0
 20
0.0
 30
0.0
 70
     1
  0
VERTEX
  8
Blume-Links
 10
0.0
 20
0.0
 42
0.1229014804443
  0
VERTEX
  8
Blume-Links
 10
-0.9134062715404
 20
-3.0302627669423
 42
-0.0072636582911
  0
VERTEX
  8
Blume-Links
 10
-3.1792166966323
 20
-6.9595740850933
 42
0.0757259793006
  0
VERTEX
  8
Blume-Links
 10
-2.1478769694101
 20
-12.641837696522
 42
-2.0456196430424
  0
VERTEX
  8
Blume-Links
 10
-2.2851323516393
 20
-12.6177235450764
 42
0.1403687106015
  0
VERTEX
  8
Blume-Links
 10
-5.7929770578965
 20
-9.4932475351854
 42
0.4067449868361
  0
VERTEX
  8
Blume-Links
 10
-10.5455425657579
 20
-12.3816352995547
 42
0.1441707586686
  0
VERTEX
  8
Blume-Links
 10
-10.0197740461973
 20
-18.4968655840513
 42
-0.1816035634435
  0
VERTEX
  8
Blume-Links
 10
-9.6296058702235
 20
-22.1656555261851
 42
-0.2183057961883
  0
VERTEX
  8
Blume-Links
 10
-11.9465262896829
 20
-23.4935615118892
 42
0.8067454324242
  0
VERTEX
  8
Blume-Links
 10
-12.0241694567982
 20
-23.664239786615
 42
0.3249529367233
  0
VERTEX
  8
Blume-Links
 10
-5.8784687086923
 20
-23.0978233868458
 42
0.2990900080127
  0
VERTEX
  8
Blume-Links
 10
-5.7483632737458
 20
-18.5611612848756
 42
-0.9929076513182
  0
VERTEX
  8
Blume-Links
 10
-3.9467266024082
 20
-16.4069339134553
 42
-0.2370363605383
  0
VERTEX
  8
Blume-Links
 10
-2.4286089601689
 20
-21.9419236564848
 42
-0.2466223101882
  0
VERTEX
  8
Blume-Links
 10
-4.9443876480396
 20
-27.5704218482697
 42
-0.2618398784228
  0
VERTEX
  8
Blume-Links
 10
-7.6277894681842
 20
-27.3009786029368
 42
0.4728330388358
  0
VERTEX
  8
Blume-Links
 10
-8.5278949372362
 20
-27.5880173971484
 42
0.5980707288886
  0
VERTEX
  8
Blume-Links
 10
-4.9156221885129
 20
-32.0199711602535
 42
0.1679082407529
  0
VERTEX
  8
Blume-Links
 10
-2.0487894943903
 20
-28.8428418338549
 42
-0.056651817815
  0
VERTEX
  8
Blume-Links
 10
-1.885949955117
 20
-28.5937245390873
 42
-0.6352669290748
  0
VERTEX
  8
Blume-Links
 10
-1.8523724102644
 20
-28.6918051383321
 42
0.2778348356914
  0
VERTEX
  8
Blume-Links
 10
-0.1719336817659
 20
-36.8408436051122
 42
0.4336503498954
  0
VERTEX
  8
Blume-Links
 10
0.965811937777
 20
-35.7421686725794
 42
0.2311404452103
  0
VERTEX
  8
Blume-Links
 10
2.2468552453187
 20
-29.6333454351117
 42
-0.9226626034735
  0
VERTEX
  8
Blume-Links
 10
2.3478119974132
 20
-29.0433909118171
 42
0.3108538898326
  0
VERTEX
  8
Blume-Links
 10
5.8499897635832
 20
-31.7025117915768
 42
0.5048016954922
  0
VERTEX
  8
Blume-Links
 10
8.966639057357
 20
-27.3800699462675
 42
0.5801059207392
  0
VERTEX
  8
Blume-Links
 10
7.3400357489294
 20
-27.6985777338373
 42
-0.4903974440297
  0
VERTEX
  8
Blume-Links
 10
3.4211493374434
 20
-25.4056988090849
 42
-0.0894975592342
  0
VERTEX
  8
Blume-Links
 10
2.8441435481286
 20
-18.8839553550261
 42
-0.4005813034083
  0
VERTEX
  8
Blume-Links
 10
5.3214446870891
 20
-15.9048287352984
 42
-0.5281662912208
  0
VERTEX
  8
Blume-Links
 10
6.2020249891972
 20
-17.8518170073534
 42
0.1515320112076
  0
VERTEX
  8
Blume-Links
 10
6.0791056264816
 20
-22.2554037350338
 42
0.3928233110572
  0
VERTEX
  8
Blume-Links
 10
10.7659919808774
 20
-23.8777482047542
 42
0.2279166140406
  0
VERTEX
  8
Blume-Links
 10
12.2233857271329
 20
-23.2760180467017
 42
0.1156470492202
  0
VERTEX
  8
Blume-Links
 10
10.8323480333639
 20
-22.4474412941486
 42
-0.2825344358605
  0
VERTEX
  8
Blume-Links
 10
10.25753756993
 20
-18.6135479188498
 42
0.0702799354441
  0
VERTEX
  8
Blume-Links
 10
11.252075618216
 20
-13.6116598590932
 42
0.8139221594621
  0
VERTEX
  8
Blume-Links
 10
3.4018444027483
 20
-11.4245104356274
 42
0.0389547864269
  0
VERTEX
  8
Blume-Links
 10
2.008663702701
 20
-13.52642836004
 42
0.1610914635575
  0
VERTEX
  8
Blume-Links
 10
3.1861640097475
 20
-6.5507100822284
 42
-0.0812112919054
  0
VERTEX
  8
Blume-Links
 10
0.2580387449296
 20
-0.3829571116766
 42
0.5544435074879
  0
SEQEND
  0
POLYLINE
  8
WappenHofsgrun_Kontur2
 66
     1
 10
0.0
 20
0.0
 30
0.0
 70
     1
  0
VERTEX
  8
WappenHofsgrun_Kontur2
 10
31.330872376293
 20
-6.9150103029919
 42
-1.0
  0
VERTEX
  8
WappenHofsgrun_Kontur2
 10
-32.469127623707
 20
-6.9150103029919
 42
0.0
  0
VERTEX
  8
WappenHofsgrun_Kontur2
 10
-32.469127623707
 20
30.7289088419268
 42
0.0
  0
VERTEX
  8
WappenHofsgrun_Kontur2
 10
31.3308723762932
 20
30.7289088419268
 42
0.0
  0
SEQEND
  0
POLYLINE
  8
WappenHofsgrun_Kontur2
 66
     1
 10
0.0
 20
0.0
 30
0.0
 70
     0
  0
VERTEX
  8
WappenHofsgrun_Kontur2
 10
-32.469127623707
 20
30.7289088419268
 42
0.0
  0
VERTEX
  8
WappenHofsgrun_Kontur2
 10
-32.469127623707
 20
-6.9150103029919
 42
0.0
  0
SEQEND
  0
POLYLINE
  8
BlumeBund
 66
     1
 10
0.0
 20
0.0
 30
0.0
 70
     0
  0
VERTEX
  8
BlumeBund
 10
-2.432417135219
 20
-22.8373189061175
 42
0.0
  0
VERTEX
  8
BlumeBund
 10
3.2915235869032
 20
-22.8373195092685
 42
0.0
  0
SEQEND
  0
POLYLINE
  8
BlumeBund
 66
     1
 10
0.0
 20
0.0
 30
0.0
 70
     0
  0
VERTEX
  8
BlumeBund
 10
-2.4324169244723
 20
-20.8373189061175
 42
0.0
  0
VERTEX
  8
BlumeBund
 10
3.29152379765
 20
-20.8373195092684
 42
0.0
  0
SEQEND
  0
ENDSEC
  0
EOF
