<?xml version="1.0" encoding="UTF-8"?>
<!DOCTYPE svg PUBLIC "-//W3C//DTD SVG 1.1//EN" "http://www.w3.org/Graphics/SVG/1.1/DTD/svg11.dtd">
<!-- Creator: CorelDRAW X6 -->
<svg xmlns="http://www.w3.org/2000/svg" xml:space="preserve" width="210mm" height="297mm" version="1.1" style="shape-rendering:geometricPrecision; text-rendering:geometricPrecision; image-rendering:optimizeQuality; fill-rule:evenodd; clip-rule:evenodd"
viewBox="0 0 21000 29700"
 xmlns:xlink="http://www.w3.org/1999/xlink">
 <defs>
  <style type="text/css">
   <![CDATA[
    .fil0 {fill:#525957}
    .fil2 {fill:#E3E5E5}
    .fil1 {fill:#F5F7F7}
    .fil3 {fill:black;fill-rule:nonzero}
   ]]>
  </style>
 </defs>
 <g id="Ebene_x0020_1">
  <metadata id="CorelCorpID_0Corel-Layer"/>
  <path class="fil0" d="M10002 18749c4,-92 96,-504 123,-614 44,-181 74,-432 143,-578 194,45 286,48 440,133 68,38 58,15 98,87l130 255c44,91 81,160 119,251 49,116 202,308 54,395 -148,87 -608,96 -817,109l34 -145 -124 94c-12,26 -64,121 -80,134 -1,1 -163,65 -164,65 -74,15 -111,-19 -169,-42l28 -100 85 27 14 -67 85 -4zm1242 -529c21,47 5,129 7,190 4,95 22,113 -42,138l-35 -151c-27,-120 -178,-154 -114,-376 90,-40 93,-8 115,69 24,84 48,84 69,129zm-207 -310l47 60 -124 23c-13,-73 -49,-97 -55,-195 118,52 70,44 175,63l-43 49zm997 -268c-48,76 -323,143 -433,155 -42,5 -32,13 -56,-9 -14,-13 -22,-43 -12,-72 19,-51 3,-28 57,-37 40,-7 88,-11 131,-17 104,-13 208,-17 313,-20zm-763 26l-8 154c-96,4 -49,-7 -83,-32 -57,-41 -123,53 -156,-170l248 48zm267 206c248,-42 1109,-309 1243,-295 -27,90 -13,26 7,134l85 313c16,73 153,575 168,598 56,85 73,-19 92,98 -241,-75 -164,-76 -335,-25l-39 -142c118,23 55,10 128,37 2,1 6,2 8,2l15 1c1,-2 5,0 7,-1l-141 -306 -19 48c-25,62 -25,30 -80,87l72 24c-52,32 -47,26 -45,80l2 21c2,56 -5,96 -18,144l-498 80 -71 -90 -113 52c-56,1 -108,-3 -147,-22 -35,-38 -6,-188 -4,-224 6,-96 -29,-182 -91,-266l-126 328 80 22c-68,36 -70,52 -140,6 -59,-447 8,-251 14,-370 1,-15 -26,-114 -33,-150 -11,-56 -21,-122 -20,-186zm-1213 -513c15,-155 57,-364 92,-511 41,-172 78,-303 114,-468 132,2 325,-35 383,123 42,115 -27,-15 68,173 17,34 20,61 31,82 76,135 171,364 197,399 38,52 93,57 69,165 -17,77 -89,63 -166,59 -65,-185 -45,-144 -120,-163 -34,-183 -26,-186 -109,-157l-23 300 -535 -4zm1196 -915c88,-21 18,10 97,-32 108,-57 225,-74 345,-36 -133,104 -254,209 -426,256l-7 -17c-1,-2 -2,-6 -3,-8 -1,-2 -2,-6 -2,-8l-3 -156zm44 672c-55,-22 -40,-136 -43,-186 -14,-286 -9,-171 306,-363l353 -197c138,-76 160,-109 222,-73 12,100 8,72 55,87l-27 59 271 956 -143 -7 -44 -148 -32 149 -549 -8c-48,-259 -10,-278 -101,-286l-2 184c-137,-86 -62,-51 -118,-91 -15,-11 -12,-2 -38,-21l-53 -198c-47,187 -2,121 -58,143zm-935 -1085c8,-113 51,-251 72,-331 25,-95 38,-272 82,-345 110,92 144,108 225,212l42 60c49,92 141,289 146,394 -79,39 -191,41 -259,14l4 -151c-11,-47 -46,-72 -82,-112l-39 241 -192 18zm858 -502c34,-18 107,-43 155,-57 89,-25 93,-12 165,22l-299 240 -21 -206zm19 490c-3,-151 -22,-178 79,-249l364 -260c73,-46 104,-103 210,-100 35,122 181,595 187,679l-126 -64 -58 53c-29,15 -279,-1 -314,-1 -48,-58 -47,-69 -130,-99l-87 61 -25 -98c-66,39 -42,18 -78,59 -16,18 -3,6 -23,21zm-627 -1181c141,-56 284,226 300,310l-339 -22 39 -289zm597 74c3,-2 407,-135 97,151 -37,34 -47,57 -106,56l9 -208zm92 227c22,-59 -5,-1 25,-31 3,-3 12,-10 15,-12 2,-2 5,-4 7,-6 344,-312 153,-151 403,-189l75 223c29,123 -68,157 -109,7l-32 66 -385 -57zm-1606 2661c-70,113 -4,3 -24,112l-207 788c-17,48 -59,80 -81,118l59 -48c-4,157 -3,193 -32,231l-68 -76c23,-59 -28,48 19,-27 3,-5 41,-16 -8,-62 -109,147 -116,205 -217,236 -72,23 -302,65 -342,94l1 53c1607,12 3199,1 4804,6 169,1 161,24 135,-137l-90 -84 105 23 -2 -276c-187,-6 -317,-32 -471,30 -141,56 -24,86 -216,21 1,-80 15,-57 -116,-125 -3,-63 35,-57 58,-101l-44 -155c-2,-8 -6,-25 -9,-35l-87 -281c-68,-216 -366,-1174 -431,-1332 -35,-85 -29,-149 -58,-239 -29,-88 -48,-141 -69,-227 -58,-236 -396,-1261 -413,-1386l71 -39 -71 -273 138 -5 -306 -614 -135 -15 -23 -88c54,-35 35,-21 91,-40l-416 -853 -367 466c-42,57 -185,259 -201,298 43,56 14,21 57,57l-71 93c-61,9 -80,-19 -133,28 -57,49 -322,446 -404,558l149 103c-5,92 -32,124 -73,171l278 99 -196 755c-86,328 -573,2159 -583,2177z"/>
  <path class="fil1" d="M11538 17874c0,64 9,130 20,186 7,36 33,135 33,150 -6,118 -73,-77 -14,370 70,46 72,29 140,-6l-80 -22 126 -328c62,84 97,169 91,266 -2,36 -31,185 4,224 39,19 91,23 147,22l113 -52 71 90 498 -80c13,-49 20,-89 18,-144l-2 -21c-2,-54 -8,-49 45,-80l-72 -24c54,-57 54,-25 80,-87l19 -48 141 306c-2,1 -6,-1 -7,1l-15 -1c-2,0 -6,-2 -8,-2 -73,-27 -10,-14 -128,-37l39 142c172,-50 95,-50 335,25 -18,-116 -36,-13 -92,-98 -15,-23 -152,-525 -168,-598l-85 -313c-20,-108 -34,-44 -7,-134 -133,-14 -995,253 -1243,295z"/>
  <path class="fil1" d="M10002 18749l-85 4 -14 67 -85 -27 -28 100c58,23 95,57 169,42 1,0 163,-64 164,-65 16,-12 67,-108 80,-134l124 -94 -34 145c208,-14 668,-22 817,-109 148,-86 -5,-279 -54,-395 -38,-91 -75,-160 -119,-251l-130 -255c-40,-72 -30,-49 -98,-87 -153,-85 -246,-88 -440,-133 -69,146 -99,396 -143,578 -27,110 -119,522 -123,614z"/>
  <path class="fil1" d="M11565 17118c57,-22 11,44 58,-143l53 198c26,20 23,11 38,21 55,40 -19,5 118,91l2 -184c91,8 53,27 101,286l549 8 32 -149 44 148 143 7 -271 -956 27 -59c-47,-15 -43,13 -55,-87 -62,-36 -84,-3 -222,73l-353 197c-315,191 -320,76 -306,363 2,50 -12,164 43,186z"/>
  <path class="fil1" d="M10325 17361l535 4 23 -300c84,-29 75,-26 109,157 74,20 55,-22 120,163 77,3 149,18 166,-59 24,-108 -31,-114 -69,-165 -26,-36 -121,-265 -197,-399 -12,-21 -14,-49 -31,-82 -95,-188 -26,-57 -68,-173 -57,-159 -251,-121 -383,-123 -36,165 -73,296 -114,468 -34,146 -77,356 -92,511z"/>
  <path class="fil1" d="M11506 16021c20,-15 7,-3 23,-21 37,-41 12,-20 78,-59l25 98 87 -61c83,29 82,41 130,99 36,0 286,16 314,1l58 -53 126 64c-7,-85 -152,-558 -187,-679 -106,-3 -138,54 -210,100l-364 260c-101,71 -81,98 -79,249z"/>
  <path class="fil1" d="M10629 16033l192 -18 39 -241c36,40 70,65 82,112l-4 151c68,27 180,25 259,-14 -5,-105 -97,-302 -146,-394l-42 -60c-81,-104 -115,-120 -225,-212 -45,74 -57,250 -82,345 -21,80 -64,219 -72,331z"/>
  <path class="fil1" d="M11568 15142l385 57 32 -66c41,150 138,115 109,-7l-75 -223c-250,37 -59,-123 -403,189 -2,2 -5,4 -7,6 -3,3 -12,10 -15,12 -31,30 -4,-28 -25,31z"/>
  <path class="fil1" d="M10879 14840l-39 289 339 22c-16,-84 -159,-366 -300,-310z"/>
  <path class="fil2" d="M11520 16446l3 156c1,2 2,6 2,8 1,2 2,6 3,8l7 17c172,-47 293,-152 426,-256 -120,-38 -237,-21 -345,36 -79,42 -9,11 -97,32z"/>
  <path class="fil2" d="M11061 18021c-64,222 87,257 114,376l35 151c64,-25 46,-43 42,-138 -2,-61 14,-143 -7,-190 -21,-46 -45,-46 -69,-129 -22,-77 -25,-109 -115,-69z"/>
  <path class="fil1" d="M12034 17642c-105,4 -208,7 -313,20 -43,5 -91,10 -131,17 -55,10 -38,-13 -57,37 -11,29 -2,59 12,72 24,22 14,14 56,9 110,-12 385,-79 433,-155z"/>
  <path class="fil2" d="M11487 15531l21 206 299 -240c-71,-34 -76,-47 -165,-22 -49,14 -122,39 -155,57z"/>
  <path class="fil1" d="M11476 14914l-9 208c59,1 69,-22 106,-56 310,-287 -94,-153 -97,-151z"/>
  <path class="fil2" d="M11262 17822l8 -154 -248 -48c33,223 100,129 156,170 34,25 -13,36 83,32z"/>
  <path class="fil2" d="M10960 17993l124 -23 -47 -60 43 -49c-106,-19 -57,-11 -175,-63 6,97 42,122 55,195z"/>
  <path class="fil3" d="M6223 19999l265 227c-27,39 -41,76 -41,110 0,55 25,107 76,155 38,36 74,56 109,61 35,5 61,-3 80,-22 18,-19 24,-44 18,-78 -5,-33 -38,-90 -96,-171 -96,-132 -151,-240 -166,-324 -16,-84 3,-154 56,-210 35,-37 81,-59 138,-68 57,-9 120,2 189,32 69,30 149,88 238,173 110,104 177,201 202,290 25,89 8,176 -52,261l-262 -225c24,-39 33,-76 26,-111 -7,-35 -30,-71 -67,-106 -31,-29 -59,-46 -85,-50 -26,-4 -46,2 -61,18 -11,11 -14,28 -10,49 3,21 25,58 64,111 96,131 159,231 189,300 30,69 41,130 34,184 -7,53 -29,100 -67,139 -44,46 -99,74 -167,84 -67,10 -138,-1 -212,-33 -74,-32 -152,-87 -235,-167 -146,-139 -225,-259 -237,-359 -12,-100 13,-190 75,-270zm1397 1146l238 206c-46,34 -96,56 -152,66 -55,10 -114,6 -177,-12 -63,-17 -132,-54 -209,-109 -74,-53 -132,-103 -173,-150 -41,-47 -70,-96 -87,-147 -17,-51 -23,-101 -19,-151 5,-49 28,-103 69,-160 43,-60 91,-101 144,-124 39,-17 83,-25 130,-26 48,-1 92,4 133,17 65,19 139,58 220,117 114,82 189,161 225,238 36,77 42,157 20,240l-272 -152c10,-31 9,-60 -3,-87 -12,-28 -35,-54 -71,-79 -44,-32 -90,-44 -136,-37 -46,7 -89,37 -127,91 -34,48 -47,94 -37,139 9,44 35,81 77,112 35,25 70,39 104,41 35,2 69,-8 103,-30zm689 -546l295 147 -163 326c57,-15 110,-20 157,-15 47,5 97,21 151,48 80,40 133,92 159,155 26,64 17,138 -25,222l-204 408 -296 -148 176 -353c20,-40 26,-73 16,-99 -9,-26 -30,-47 -62,-63 -35,-18 -70,-21 -103,-9 -33,12 -65,47 -94,105l-154 308 -295 -147 443 -886zm1002 918l-292 -121c25,-40 52,-70 82,-88 29,-19 67,-31 113,-36 33,-4 76,-2 128,7 53,9 108,22 167,41 94,30 168,58 222,85 54,27 96,60 125,100 21,28 33,62 37,102 4,40 1,77 -9,109l-96 302c-10,32 -16,58 -17,78 -1,20 2,46 10,80l-294 -93c-6,-21 -10,-37 -11,-47 -1,-10 0,-26 3,-46 -52,20 -100,31 -145,32 -62,1 -129,-10 -203,-33 -98,-31 -166,-73 -205,-127 -39,-54 -49,-109 -32,-164 16,-52 48,-89 95,-111 47,-22 123,-26 226,-11 124,17 205,28 242,31 38,3 78,5 121,4 10,-32 9,-57 -3,-75 -12,-18 -38,-33 -78,-46 -51,-16 -92,-22 -122,-16 -24,5 -46,20 -68,46zm228 223c-47,-1 -96,-4 -146,-8 -68,-6 -113,-5 -134,4 -22,9 -36,22 -42,40 -7,21 -3,41 10,59 13,19 36,33 70,44 35,11 70,14 105,9 35,-5 61,-15 81,-32 19,-17 34,-41 44,-74l13 -42zm1299 533l-305 -40 15 -115c-52,41 -102,69 -151,83 -49,14 -107,17 -174,8 -90,-12 -157,-44 -202,-95 -45,-52 -61,-124 -49,-218l60 -453 329 44 -52 392c-6,45 0,78 17,99 17,21 44,34 79,39 39,5 72,-3 100,-25 28,-22 46,-65 55,-130l45 -343 327 43 -94 711zm226 -989l330 3 -2 187 -330 -3 2 -187zm-3 272l330 3 -7 718 -330 -3 7 -718zm464 31l306 -29 11 116c41,-52 84,-90 129,-115 45,-25 100,-41 168,-47 91,-9 164,7 219,47 55,40 88,107 97,202l43 454 -330 31 -37 -393c-4,-45 -17,-76 -39,-92 -22,-17 -50,-23 -86,-20 -39,4 -70,19 -92,47 -22,28 -30,74 -24,139l33 343 -328 31 -68 -714zm1066 446l308 -111c22,27 46,45 73,52 27,7 60,5 99,-6 43,-12 74,-28 93,-50 15,-16 20,-33 16,-50 -5,-19 -21,-31 -48,-35 -19,-3 -67,1 -144,10 -115,14 -195,21 -242,19 -47,-2 -89,-15 -128,-39 -38,-25 -63,-58 -75,-99 -13,-46 -8,-89 15,-131 23,-42 59,-79 111,-110 51,-32 123,-60 217,-86 98,-27 173,-41 224,-41 51,0 95,8 134,26 39,18 75,47 108,86l-294 107c-14,-20 -31,-32 -52,-38 -29,-7 -61,-6 -96,4 -36,10 -60,22 -74,38 -13,15 -18,30 -14,45 5,17 19,27 42,30 23,3 70,-2 142,-14 108,-19 191,-27 247,-23 56,4 103,18 139,44 37,26 60,58 71,98 11,40 7,83 -11,129 -18,46 -56,88 -111,128 -56,40 -137,74 -244,104 -151,42 -264,54 -338,35 -74,-18 -130,-58 -166,-120zm744 -964l307 -121 362 922 -307 121 -362 -922zm930 260l-292 121c-11,-46 -12,-86 -4,-120 8,-34 26,-69 54,-106 20,-26 52,-55 95,-86 43,-31 92,-61 147,-89 87,-45 160,-78 217,-97 57,-19 110,-25 159,-18 34,5 67,20 99,46 32,25 55,53 71,83l146 281c16,30 30,52 44,67 13,15 35,31 63,50l-274 142c-20,-11 -33,-19 -41,-26 -8,-7 -18,-18 -31,-35 -22,51 -49,92 -80,125 -43,44 -98,84 -166,120 -91,47 -169,66 -235,55 -66,-11 -112,-42 -139,-93 -25,-48 -29,-97 -11,-146 18,-49 68,-105 152,-168 100,-75 164,-125 193,-150 29,-24 58,-52 88,-83 -16,-30 -34,-47 -55,-51 -21,-4 -50,3 -87,22 -48,25 -80,50 -98,75 -13,20 -18,46 -16,80zm319 -4c-34,33 -70,65 -109,98 -52,44 -83,77 -92,98 -10,22 -10,41 -1,58 10,19 26,31 49,35 23,4 49,-2 80,-18 33,-17 59,-39 81,-67 21,-28 33,-54 34,-80 2,-25 -5,-53 -21,-84l-20 -39zm221 -421l250 -178 68 95c10,-66 27,-120 54,-164 26,-44 67,-85 122,-124 74,-53 145,-76 214,-69 68,7 130,49 185,126l265 372 -270 192 -229 -322c-26,-37 -53,-57 -80,-61 -27,-4 -55,5 -84,26 -32,23 -51,52 -57,87 -5,35 11,79 49,132l200 281 -269 191 -416 -585zm1305 -1279l693 707 -220 216 -74 -76c1,62 -6,112 -20,148 -19,48 -50,92 -91,133 -83,82 -173,118 -270,108 -96,-10 -182,-53 -256,-129 -83,-85 -123,-174 -118,-267 4,-93 44,-176 119,-250 37,-36 75,-63 115,-82 40,-19 82,-30 125,-32l-240 -244 238 -233zm204 680c-40,-40 -79,-60 -119,-60 -40,0 -75,15 -107,46 -27,27 -41,59 -41,96 0,37 22,78 66,123 41,42 81,63 119,64 38,1 71,-12 99,-40 30,-29 45,-64 46,-103 1,-39 -21,-81 -65,-126z"/>
  <path class="fil3" d="M5473 14196l175 -216 533 295 -400 -460 174 -215 766 620 -108 134 -584 -473 501 576 -98 121 -668 -370 584 473 -108 134 -766 -621zm964 -402c-116,-112 -184,-221 -206,-328 -22,-107 6,-200 83,-280 79,-82 171,-114 277,-97 106,17 216,81 330,191 83,80 141,155 176,226 34,70 49,138 43,203 -6,65 -35,125 -87,179 -53,55 -110,89 -171,100 -60,11 -129,2 -206,-29 -77,-31 -157,-86 -239,-166zm146 -151c71,69 132,110 181,121 49,12 89,2 120,-30 31,-32 40,-73 27,-120 -13,-48 -60,-109 -139,-186 -67,-64 -124,-102 -173,-113 -49,-11 -89,-1 -119,31 -30,31 -38,70 -24,119 13,49 56,108 128,178zm91 -797l490 -411 157 187 -165 138 477 569 -161 135 -477 -569 -165 138 -157 -187zm894 -111c-85,-136 -125,-259 -120,-368 5,-109 54,-193 148,-251 96,-60 194,-69 292,-27 99,42 190,131 274,265 61,98 100,185 116,261 16,77 14,146 -7,208 -21,62 -64,112 -128,153 -65,41 -128,59 -190,56 -61,-4 -126,-29 -193,-78 -67,-48 -131,-121 -192,-219zm179 -111c53,84 102,138 146,161 45,23 86,23 123,0 38,-24 57,-61 55,-110 -2,-49 -31,-121 -90,-214 -49,-79 -96,-129 -141,-152 -45,-23 -86,-22 -123,1 -36,23 -53,59 -52,110 1,50 28,118 82,203zm770 92l-432 -886 315 -154c58,-28 107,-43 145,-43 38,-1 76,14 114,44 38,30 71,74 99,130 24,49 37,95 40,138 3,43 -3,82 -17,116 -9,22 -26,44 -49,67 28,0 49,3 65,9 10,4 28,15 53,32 25,17 42,31 53,42l217 211 -214 104 -233 -221c-30,-29 -52,-46 -67,-52 -20,-7 -39,-6 -56,2l-17 8 175 359 -190 93zm-67 -619l80 -39c9,-4 23,-16 44,-37 11,-10 17,-24 17,-43 1,-19 -4,-38 -13,-57 -14,-29 -31,-48 -51,-57 -20,-9 -47,-6 -82,11l-83 41 88 181zm595 16l181 -85c20,43 41,73 61,91 34,30 70,38 108,24 28,-10 46,-28 55,-52 8,-25 8,-50 -1,-75 -9,-24 -24,-43 -45,-57 -21,-14 -61,-19 -121,-17 -97,4 -172,-12 -226,-45 -54,-33 -94,-86 -121,-158 -17,-47 -24,-96 -20,-145 4,-49 20,-93 50,-131 29,-38 78,-69 144,-93 82,-30 152,-30 211,-2 59,28 110,89 153,182l-180 84c-20,-40 -42,-67 -64,-80 -23,-13 -48,-15 -76,-5 -23,8 -38,22 -44,40 -7,18 -6,38 1,58 5,15 15,26 29,35 14,9 40,12 78,10 96,-4 168,0 215,14 47,14 87,38 119,73 32,35 57,77 75,128 22,59 30,118 26,177 -5,58 -22,108 -54,149 -31,41 -78,72 -140,95 -109,40 -195,37 -259,-9 -64,-45 -116,-114 -155,-205zm557 -890l340 -85c74,-18 136,-7 185,35 49,42 86,110 110,204 24,97 23,177 -4,242 -27,65 -81,107 -164,128l-112 28 88 354 -205 51 -239 -957zm307 358l50 -13c40,-10 65,-27 76,-51 11,-24 13,-51 5,-82 -7,-30 -21,-54 -40,-71 -19,-17 -48,-21 -86,-12l-58 15 53 214zm532 -58c-11,-160 11,-288 66,-381 56,-94 138,-145 249,-152 113,-8 203,30 271,113 67,84 106,205 118,363 8,115 1,210 -20,285 -22,75 -56,135 -104,180 -48,45 -109,69 -185,75 -77,5 -141,-8 -194,-40 -53,-32 -97,-85 -134,-159 -36,-74 -59,-169 -67,-284zm210 -14c7,99 25,170 53,211 29,41 65,61 109,58 45,-3 79,-27 100,-71 22,-44 29,-121 21,-231 -6,-93 -24,-159 -53,-200 -29,-41 -65,-60 -110,-57 -42,3 -75,27 -98,72 -23,45 -31,118 -24,218zm646 440l17 -986 350 6c65,1 115,10 149,27 34,17 61,47 82,91 20,44 30,98 29,161 -1,55 -10,102 -27,141 -17,40 -39,71 -68,96 -18,15 -43,28 -75,38 25,13 43,25 54,37 7,8 18,26 33,52 14,27 24,47 28,62l97 287 -238 -4 -107 -303c-14,-39 -26,-65 -37,-77 -15,-15 -32,-23 -51,-24l-19 0 -7 399 -211 -4zm221 -581l89 2c10,0 28,-4 56,-13 14,-4 26,-14 35,-30 9,-17 14,-36 14,-57 1,-32 -6,-57 -20,-74 -14,-17 -40,-26 -78,-27l-93 -2 -4 201zm580 -368l635 78 -30 242 -213 -26 -90 737 -209 -26 90 -737 -213 -26 30 -242zm842 133l505 126 -51 206 -300 -75 -42 167 256 64 -48 194 -256 -64 -97 390 -205 -51 239 -957zm376 1116l337 -927 329 120c61,22 105,47 132,74 27,27 43,65 47,113 5,48 -4,102 -25,161 -19,51 -42,93 -71,125 -29,32 -61,55 -96,68 -22,9 -50,12 -83,11 19,20 32,37 39,53 4,10 9,30 14,60 5,30 7,52 7,68l-1 303 -223 -81 -3 -321c0,-42 -3,-70 -10,-84 -9,-19 -23,-32 -41,-39l-17 -6 -137 375 -198 -72zm399 -478l84 30c9,3 28,5 57,6 14,1 29,-5 43,-17 14,-13 25,-29 32,-49 11,-30 13,-55 5,-76 -7,-21 -29,-38 -65,-51l-87 -32 -69 189zm720 -141l506 247 -92 189 -316 -154 -69 141 293 143 -88 181 -293 -143 -85 175 326 159 -98 201 -515 -251 432 -886zm1092 642l174 118 -328 487c-32,48 -69,90 -108,126 -39,36 -81,62 -125,80 -44,17 -82,24 -115,21 -46,-5 -93,-23 -140,-55 -27,-19 -55,-42 -84,-69 -29,-27 -48,-57 -59,-88 -11,-31 -15,-68 -12,-111 2,-43 11,-82 26,-119 24,-59 50,-109 77,-149l328 -487 174 118 -336 499c-30,45 -45,85 -45,121 0,37 15,65 46,86 30,20 62,24 95,10 34,-13 66,-42 96,-88l336 -499zm371 276l150 126 -154 581 350 -417 152 128 -634 755 -152 -128 154 -578 -348 415 -152 -127 634 -755zm695 613l209 232c41,46 66,91 73,135 7,44 3,91 -14,140 -17,49 -44,97 -82,146 -37,49 -81,95 -131,140 -78,70 -145,119 -199,146 -54,27 -106,42 -155,46 -49,4 -89,-2 -122,-18 -44,-22 -79,-47 -104,-75l-209 -232 733 -660zm-25 305l-400 360 35 38c29,33 56,51 79,56 23,4 51,-1 84,-17 33,-16 79,-50 138,-103 78,-70 123,-126 136,-170 13,-43 1,-85 -36,-126l-35 -39zm575 328l331 455 -170 124 -207 -285 -127 92 192 264 -163 118 -192 -264 -157 114 213 293 -180 131 -337 -464 798 -580z"/>
 </g>
</svg>
