<?xml version="1.0" standalone="yes"?>
<svg xmlns="http://www.w3.org/2000/svg" width="921" height="420">
<path style="fill:#33343d; stroke:none;" d="M0 0L0 420L921 420L921 0L0 0M444 18L442 31C438.411 30.3041 434.682 29.1571 431 29.3789C413.292 30.4457 410.728 47.9307 408 62L430 62C429.82 66.1219 428.83 69.9744 428 74L405 74C404.528 84.8363 401.034 96.4089 398.65 107C396.11 118.287 393.718 129.655 391.449 141C388.048 158 385.449 179.373 366 185.377C361.835 186.663 357.33 186.985 353 186.999C348.398 187.014 344.322 186.619 340 185L342 173C350.106 173.64 358.122 175.456 364.957 169.657C372.982 162.848 374.442 150.725 376.4 141C380.815 119.061 388.225 96.2985 390 74L376 74C376.142 70.7104 375.979 64.3445 379.433 62.6034C383.497 60.5545 389.777 64.0508 392.836 59.6821C396.748 54.0933 396.173 44.4029 398.876 38C407.153 18.3877 424.808 14.3841 444 18M379 63L377 73L392 73C387.666 94.0109 383.074 114.975 378.801 136C376.69 146.385 375.593 159.485 368.61 167.96C362.005 175.975 352.366 175.739 343 174C342.788 176.685 341.324 181.042 343.042 183.411C345.227 186.424 351.765 186.123 355 185.829C365.612 184.867 375.094 181.383 381.049 171.996C388.128 160.836 389.256 145.725 391.8 133C395.729 113.354 402.371 92.9479 404 73L427 73L429 63L407 63C407.566 49.8457 411.613 32.7734 426 28.6381C430.899 27.23 436.082 28.3784 441 29L443 19C428.679 17.1902 414.118 17.144 404.613 30.0008C400.055 36.165 398.087 43.6143 396.6 51C395.929 54.3349 395.831 59.9065 392.686 61.9722C389.295 64.1997 382.894 63 379 63M832 19C824.6 47.6011 819.825 77.1008 813.661 106C812.387 111.974 811.177 118.004 810.005 124C809.543 126.364 808.723 129.424 810.618 131.397C812.805 133.673 817.154 132.998 820 133C819.557 136.289 819.257 142.804 816.411 144.972C814.697 146.278 812.018 145.995 810 145.998C801.122 146.013 795.482 142.273 795 133C783.749 144.244 762.099 155.691 750.108 137.985C748.256 135.25 747.019 132.175 746.159 129C740.935 109.713 748.78 82.8059 763.039 69.0934C773.656 58.8836 797.428 53.2331 806 69C809.781 57.8528 811.491 45.5439 813.8 34C814.533 30.3353 814.618 22.505 817.738 20.0278C820.824 17.5788 828.254 19 832 19M818 20C815.697 37.1031 809.363 53.7553 808 71C803.754 67.6172 800.418 63.4347 795 61.8002C762.267 51.9261 742.334 96.7147 746.439 123C747.245 128.158 748.43 133.706 751.638 137.957C759.078 147.816 773.216 147.099 783 141.651C788.252 138.727 791.902 134.27 796 130C796.172 133.948 796.491 138.592 799.43 141.581C802.591 144.796 812.545 147.194 816.012 143.258C817.818 141.207 817.796 137.56 818 135C802.198 134.813 810.163 117.022 812.199 107C818.051 78.2016 826.237 49.1375 830 20L818 20M111 44C105.32 42.8245 99.7959 40.7504 94 40.1705C79.6759 38.7373 66.4416 42.9594 56.0401 53.0903C43.2092 65.5874 37.9933 83.5603 38 101C38.0043 112.226 41.4121 123.353 52.0008 129.084C66.6038 136.988 81.9833 131.022 97 129C96.2398 132.92 96.1226 139.289 93.2616 142.297C90.2489 145.464 84.045 145.567 80 146.13C66.5013 148.011 51.8572 147.424 40 139.907C22.6155 128.885 19.823 107.979 22.2894 89C25.5641 63.8002 40.6595 39.2494 65 29.9151C76.0092 25.6933 88.4005 24.8586 100 26.7538C103.424 27.3132 109.734 27.598 111.958 30.7029C114.198 33.8306 111.291 40.4362 111 44M95 131C81.2255 132.201 66.4371 137.784 53 131.001C23.597 116.157 36.7032 68.9063 56.0394 51.2894C63.9361 44.0947 74.1086 38.7572 85 38.456C93.6096 38.2179 101.622 40.7682 110 42L112 31C94.5534 26.0953 75.4357 24.9577 59 33.9005C35.5078 46.6827 23.01 73.9575 23 100C22.9957 111.121 24.5565 121.969 31.6806 130.985C41.837 143.84 59.7015 146.65 75 145.17C80.0228 144.684 89.4373 145.381 92.686 140.57C94.4329 137.983 94.6112 134.011 95 131M132 110C132.009 113.38 132.022 116.712 132.928 120C138.915 141.711 163.275 131.503 178 129C177.28 132.713 177.238 139.27 174.4 142.005C171.264 145.029 165.103 145.66 161 146.385C146.148 149.009 128.01 145.743 120.821 131C105.079 98.7145 136.712 46.0765 175 61.4784C187.986 66.7024 192.882 84.9218 183.606 95.9066C177.769 102.82 167.515 105.578 159 107.334C150.307 109.127 140.848 109.62 132 110M261 69C264.215 61.4218 268.503 62 276 62C275.778 72.7567 272.071 83.4805 270.001 94C266.915 109.682 263.854 125.388 260.424 141C257.212 155.625 253.987 170.061 241 179.363C224.857 190.924 204.786 187.077 187 183C187.19 178.577 188.159 174.336 189 170C195.44 170.951 201.41 173.67 208 173.961C212.028 174.138 216.042 173.984 220 173.192C239.011 169.389 243.582 151.569 247 135C242.558 139.347 237.952 143.333 232 145.451C214.786 151.578 199.457 139.795 199.015 122C198.56 103.736 202.632 83.5548 216.093 70.0934C228.303 57.8836 249.325 54.3783 261 69M287 120C291.246 127.927 291.571 135.578 300.001 141.031C314.017 150.099 332.6 145.053 343.826 133.826C356.871 120.781 363.319 97.7122 358.087 80C352.391 60.7154 329.079 56.2261 313 65.5293C298.142 74.1257 288.724 93.1935 288 110C285.009 102.856 289.556 92.4925 292.756 86C296.783 77.8298 302.131 70.352 310 65.4676C326.138 55.4511 351.475 56.7722 358.907 77C366.998 99.0219 356.288 131.876 335 142.623C315.342 152.546 287.212 145.316 287 120M486 60C485.796 64.7472 484.607 69.3024 484 74C479.711 74 475.167 73.5915 471 74.7894C453.994 79.6773 450.45 96.9998 447.449 112C445.912 119.685 444.3 127.334 442.661 135C442.056 137.832 442.091 142.112 439.486 143.972C436.3 146.247 429.738 145 426 145C429.598 117.137 437.652 89.5781 443 62L455 62L455 72C463.727 62.4464 473.174 58.3806 486 60M500 110C500 113.636 499.702 117.484 500.804 121C507.039 140.885 531.151 132.204 545 129C544.918 132.944 544.856 138.312 542.146 141.49C539.066 145.103 532.37 145.641 528 146.271C514.094 148.275 497.166 146.42 489.363 133C485.56 126.459 484.998 119.372 485 112C485.009 82.4697 509.65 49.9311 542 61.5486C555.534 66.409 560.595 83.5561 551.606 94.9962C545.928 102.224 536.746 105.453 528 107.192C518.985 108.984 509.169 109.606 500 110M719 145L704 145C705.393 134.656 708.037 124.222 710.211 114C712.267 104.329 718.251 89.7666 715.427 80.0038C713.745 74.1854 707.665 71.6465 702 72.3148C693.248 73.3475 685.67 78.9417 680.638 86C669.391 101.778 673.191 124.537 665.856 141.852C663.777 146.759 655.346 145 651 145C652.582 125.127 658.779 104.465 663.116 85C664.405 79.2149 664.319 68.2308 668.164 63.6034C670.487 60.8079 676.764 62 680 62L680 72C683.388 68.6843 686.777 65.5635 691 63.3271C703.94 56.4751 727.462 57.0721 730.671 75C732.218 83.6498 729.798 92.6023 728 101C724.897 115.49 720.897 130.314 719 145M850 110C850.07 113.392 850.361 116.719 851.301 120C857.471 141.544 881.121 131.56 896 129C895.703 132.757 895.672 138.472 893.142 141.49C890.138 145.073 883.297 145.526 879 146.13C864.826 148.123 848.374 146.452 840.214 133C836.133 126.273 835.997 118.607 836 111C836.011 82.355 860.53 50.3835 892 61.1042C906.546 66.0593 911.572 84.0653 901.66 95.9846C895.944 102.858 886.468 105.6 878 107.334C869.143 109.147 859.036 109.813 850 110M176 131C161.465 134.332 137.629 141.205 131.789 121C130.586 116.836 131 112.286 131 108C140.139 108 148.967 107.602 158 106.079C166.151 104.705 175.942 102.141 181.786 95.8951C191.11 85.9313 187.836 68.1525 175 63.1188C143.695 50.8423 119.011 82.3517 119 111C118.997 118.053 118.931 124.589 122.327 131C129.351 144.26 145.317 147.054 159 145.13C169.03 143.721 175.124 141.996 176 131M249 131C246.841 147.029 242.065 167.357 225 173.451C219.068 175.57 212.213 175.243 206 174.961C200.437 174.708 195.241 172.705 190 171L188 182C206.305 185.778 225.722 189.36 241.985 177.076C254.219 167.835 256.792 152.04 259.6 138C264.607 112.973 270.14 88.0608 275 63C267.728 63.0008 264.195 63.4247 262 71L260 71C252.814 57.2708 233.001 58.9292 222 66.9283C206.022 78.5459 198.311 102.797 200.17 122C201.849 139.354 214.689 149.912 232 143.893C239.16 141.403 243.487 135.768 249 131M454 74L454 63L444 63C440.409 82.0583 435.984 100.946 432.389 120C430.885 127.972 428.169 135.851 428 144L440 144C440.773 134.281 443.487 124.511 445.576 115C448.522 101.585 449.868 86.4799 462.001 77.7894C468.585 73.0733 475.245 73 483 73L485 61C476.887 61 469.925 61.2297 463.004 66.0548C459.685 68.3684 457.129 71.4865 454 74M544 131C529.742 133.106 510.629 141.357 501.086 124.999C499.851 122.883 499.024 120.39 498.518 118C495.892 105.597 507.808 108.594 516 107.421C532.632 105.039 560.557 99.5549 554.072 76C549.119 58.012 524.508 58.0708 511 65.3241C490.422 76.3736 477.558 112.164 490.97 132.999C498.677 144.972 513.163 146.496 526 145.05C530.436 144.55 536.969 144.27 540.486 141.157C543.151 138.798 543.199 134.251 544 131M679 74L679 63L669 63L652 144C655.299 144 661.606 145.188 664.012 142.397C667.382 138.486 667.456 128.955 668.449 124C671.736 107.593 673.24 88.6844 687.001 77.3295C694.226 71.3679 710.013 66.4604 715.846 77.0432C718.153 81.2293 717.239 87.5176 716.335 92C714.988 98.6776 713.487 105.31 712.197 112C710.148 122.622 706.854 133.193 706 144L718 144C719.162 129.776 723.519 114.937 726.651 101C728.286 93.7237 730.487 85.4994 729.906 78C728.57 60.7794 708.217 57.9575 695 63.0687C688.681 65.5122 684.365 70.151 679 74M894 131C878.462 134.562 854.729 140.917 849.681 119C846.579 105.536 858.875 108.571 868 107.271C883.569 105.052 904.786 101.847 904.996 82C905.024 79.3546 905.157 76.5409 904.297 74C898.788 57.7183 874.313 58.5559 862 65.1234C844.878 74.2562 836.941 94.3416 837.001 113C837.022 119.718 837.843 127.285 841.699 133C849.62 144.738 864.958 147.235 878 145.08C888.014 143.425 893.523 142.071 894 131M594 62C591.831 76.7517 587.727 91.3628 584.8 106C583.559 112.208 581.079 120.969 584.179 126.985C590.166 138.603 607.892 134.581 614.442 125.985C619.432 119.436 620.601 109.864 622.199 102C624.868 88.8639 628.936 75.3669 630 62L645 62C643.732 77.9286 638.853 94.3911 635.424 110C633.276 119.781 631.219 130.411 623.815 137.815C610.085 151.545 576.21 151.747 568.966 131C565.917 122.268 568.673 111.661 570.576 103C573.567 89.3823 576.346 75.687 579 62L594 62M580 63C577.96 78.1532 573.482 92.9328 570.919 108C569.722 115.038 568.004 121.899 569.927 129C576.253 152.352 614.211 149.913 626.2 132.996C632.023 124.779 633.445 113.659 635.261 104C637.827 90.3477 640.521 76.4472 644 63C640.849 63 635.367 61.9739 632.728 64.0278C628.941 66.9745 628.501 77.5255 627.6 82C624.724 96.2885 624.216 117.798 613.787 128.895C605.277 137.95 586.147 138.997 581.943 125C579.153 115.711 583.965 104.176 585.8 95C587.908 84.4618 591.147 73.7164 592 63L580 63M133 97C137.086 85.0008 145.039 72.2163 159 71.0934C164.5 70.6509 171.473 71.3401 173.99 77.0941C176.737 83.3752 172.408 89.5965 166.999 92.5833C160.146 96.3676 152.559 96.569 145 97.0895C140.708 97.3851 137.213 98.2337 133 97M237 71.3904C244.275 69.8055 256.986 72.1516 258.593 81.0008C259.417 85.5435 257.105 91.5403 256.199 96C252.982 111.835 246.749 132.471 228 135.518C215.973 137.472 212.073 125.686 212.005 116C211.895 100.447 219.499 75.2029 237 71.3904M325 71.3403C341.449 68.1894 348.607 80.2354 347.961 95C347.221 111.889 338.259 132.331 320 135.535C306.283 137.942 300.005 126.934 300 115C299.994 98.8111 306.061 74.968 325 71.3403M501 98C503.011 84.5853 513.703 71.3151 528 71.0154C531.826 70.9352 535.737 71.1792 538.867 73.6528C544.08 77.773 543.179 85.2787 538.772 89.6705C533.915 94.5116 525.549 95.8571 519 96.7106C513.111 97.4781 506.939 97.9836 501 98M783 71.3904C790.319 69.7964 802.843 72.3304 804.643 81.0008C805.599 85.6069 803.245 91.4612 802.424 96C799.507 112.139 792.839 132.599 774 135.521C762.694 137.274 757.686 125.529 758.104 116C758.79 100.385 765.01 75.3084 783 71.3904M852 98C853.356 84.4724 864.961 71.3097 879 71.0154C882.752 70.9368 886.753 71.1185 889.772 73.6528C894.427 77.5605 893.793 85.4677 889.656 89.4707C884.781 94.1881 876.561 96.1705 870 96.8295C864.071 97.425 857.96 97.9836 852 98M135 96C140.708 96 146.349 96.1626 152 95.2462C158.241 94.2341 165.113 93.4025 169.867 88.7863C173.789 84.977 175.074 79.3822 170.772 75.3032C166.989 71.7167 160.777 71.5001 156 72.7639C144.971 75.6815 137.886 85.4528 135 96M238 72.5293C220.367 76.5703 214.316 99.3439 213.184 115C212.408 125.739 217.867 136.248 230 133.61C246.66 129.987 251.959 110.204 254.8 96C255.659 91.7074 257.661 86.3895 257.243 82.0008C256.472 73.9112 244.524 71.0341 238 72.5293M326 72.5185C309.338 76.1067 301.187 96.5828 301.004 112C300.841 125.704 306.5 136.444 322 133.671C339.115 130.608 347.595 106.334 346.896 91C346.351 79.0495 338.804 69.7612 326 72.5185M503 96C508.707 96 514.351 96.1692 520 95.2462C525.999 94.266 533.256 93.1175 537.772 88.6597C541.608 84.8723 542.114 78.2982 537.772 74.6528C534.29 71.73 529.249 71.6663 525 72.4676C513.69 74.6006 504.975 84.9208 503 96M785 72.4684C767.378 75.7136 760.075 98.3164 760.001 114C759.95 124.728 762.511 136.062 776 133.671C792.981 130.66 798.079 110.122 801.003 96C801.884 91.7441 804.174 86.3727 803.512 82.0008C802.347 74.3134 791.496 71.2721 785 72.4684M854 96C859.768 96 865.283 95.7922 871 95C876.948 94.1758 884.181 93.1048 888.606 88.6096C892.308 84.8484 893.193 78.281 888.772 74.7029C875.103 63.6407 855.369 82.6323 854 96M287 111L287 119C285.839 116.23 285.839 113.77 287 111M388 234C387.225 237.997 386.323 241.937 386 246C381.007 245.959 375.927 244.566 371 245.681C356.676 248.923 353.682 264.511 352 277L374 277L372 290C366.479 290 355.099 287.824 350.434 291.028C347.97 292.72 347.909 296.355 347.339 299C345.831 306 344.165 312.947 342.916 320C340.422 334.078 336.902 347.999 334.003 362C331.763 372.821 330.251 384.293 322.671 392.957C315.89 400.708 303.962 403.581 294 402.91C287.366 402.464 279.998 398.082 286.175 390.607C288.215 388.139 292.33 389.807 295 389.871C299.357 389.975 304.335 388.892 307.826 386.196C320.097 376.723 320.937 353.091 323.801 339C327.123 322.655 330.824 306.377 334 290L319 290C319.656 286.615 319.803 280.303 322.728 278.028C325.861 275.59 333.219 277 337 277C339.559 257.182 346.923 234.644 370 232.174C376.052 231.526 382.085 232.885 388 234M338 279C334.181 279 325.738 277.414 322.988 280.603C321.188 282.692 321.207 286.409 321 289L335 289C334.521 299.985 331.07 311.293 328.65 322C326.175 332.954 324.396 344.059 321.881 355C319.721 364.395 318.817 375.174 312.61 382.996C305.879 391.478 296.903 391.839 287 390L285 400C289.275 401.106 293.555 402.189 298 401.711C305.434 400.91 313.114 399.718 318.96 394.671C327.486 387.31 329.567 376.397 331.884 366C335.589 349.379 338.596 332.611 342.35 316C343.698 310.03 344.788 303.999 346 298C346.486 295.594 346.715 292.407 348.589 290.603C352.709 286.637 365.588 289 371 289L372 279C364.717 279 357.121 279.695 350 278C353.277 265.333 354.689 246.706 371 244.213C375.677 243.498 380.376 244.416 385 245L386 235C381.746 234.175 377.367 232.856 373 233.185C347.92 235.077 340.776 257.505 338 279M853 234C852.772 244.984 849.267 256.305 846.884 267C842.979 284.529 838.986 302.307 835.92 320C834.813 326.384 833.252 332.669 831.885 339C831.311 341.659 830.417 345.192 832.604 347.397C834.845 349.655 839.116 348.998 842 349C841.335 352.431 841.169 357.757 838.436 360.258C836.479 362.048 833.484 362.012 831 361.981C821.878 361.87 817.21 356.942 817 348C804.654 364.159 777 370.747 768.549 347C766.706 341.822 766.998 336.406 767 331C767.007 313.926 773.28 295.828 786.001 284.093C796.769 274.16 819.587 269.526 828 285C831.858 273.604 833.281 260.796 835.789 249C836.572 245.319 836.595 237.523 839.738 235.028C842.667 232.703 849.457 234 853 234M829 287C826.016 283.657 823.206 280.365 818.999 278.533C806.954 273.287 791.736 278.739 783.465 288.09C772.55 300.429 766.966 319.675 768.089 336C769.393 354.947 783.373 366.174 802 358.881C808.69 356.262 812.754 350.538 818 346C818.086 350.047 818.335 354.538 821.419 357.57C824.773 360.868 833.491 362.643 837.272 359.142C839.626 356.962 839.757 352.965 840 350C824.695 353.463 831.611 333.255 833.424 325C839.921 295.424 846.235 265.727 852 236C848.877 236 843.34 234.963 840.738 237.028C837.669 239.464 837.296 247.368 836.611 251C834.351 262.978 832.299 275.265 829 287M152 244C151.667 260.123 146.359 278.494 142 294L182 294C186.05 294 194.135 295.53 197.262 292.397C199.607 290.046 199.895 285.101 200.576 282C202.401 273.689 204.019 265.323 205.789 257C206.507 253.625 206.547 247.261 209.564 245.028C212.834 242.608 220.112 244 224 244C218.884 270.382 213.347 296.713 207.789 323C205.127 335.594 201.718 348.243 200 361L185 361C185.362 343.47 191.666 325.193 195 308L139 308C137.991 320.681 134.28 333.526 131.8 346C131.047 349.79 130.796 357.489 127.436 359.972C124.08 362.452 116.651 361.079 113 360C118.946 337.019 122.916 313.273 127.6 290C130.669 274.75 135.008 259.423 137 244L152 244M138 245C137.096 256.064 133.625 267.122 131.449 278C127.312 298.68 122.61 319.268 118.739 340C117.556 346.338 115.526 352.563 115 359L128 359C129.433 341.461 136.604 324.539 138 307L197 307C191.857 323.259 188.277 342.094 186 359L199 359C202.596 332.295 209.648 305.336 215.424 279C217.861 267.892 221.097 256.346 222 245C218.849 245 213.368 243.974 210.728 246.028C207.662 248.412 207.281 255.447 206.611 259C204.372 270.867 200.52 282.898 200 295L141 295C143.175 278.156 148.825 261.844 151 245L138 245M231 339C235.621 346.307 237.591 353.858 246 358.164C278.807 374.965 309.768 330.526 303.112 301C301.988 296.013 300.672 291.111 297.468 287.015C285.996 272.349 264.22 274.374 251.001 285.329C235.526 298.153 231 318.878 231 338C228.639 332.373 229.745 323.866 231.015 318C234.645 301.226 243.515 284.766 260 277.877C275.015 271.601 296.07 275.41 302.29 292C310.625 314.23 300.659 347.042 279 358.179C261.524 367.165 232.253 363.155 231 339M411 275C404.963 277.604 398 277.124 392 280.417C380.035 286.983 373.797 304.627 385.044 314.787C392.696 321.699 407.788 321.251 412.682 331.015C416.477 338.587 411.092 346.614 404 349.517C393.241 353.921 381.414 349.843 371 347L369 357C388.06 362.095 419.281 365.961 424.985 340C425.893 335.865 425.969 332.013 424.437 328C418.959 313.651 401.958 316.983 393.434 306.812C387.75 300.03 392.605 290.654 400.001 287.97C409.695 284.451 420.65 288.501 430 291C430.401 287.889 430.994 284.969 432 282C425.44 279.469 419.086 277.305 412 277C416.841 274.97 430.221 276.328 432.307 282.214C433.414 285.338 431.607 289.868 431 293C420.02 290.46 400.554 281.501 393.471 296.015C389.136 304.9 400.543 309.92 407 312.319C421.116 317.561 431.755 327.787 425.532 344C418.99 361.042 400.834 363.359 385 362.086C380.452 361.72 370.848 361.633 368.618 356.606C367.147 353.29 369.311 348.341 370 345C380.932 347.53 391.739 353.091 403 348.03C409.411 345.149 415.133 337.737 410.343 331.043C403.079 320.889 386.673 323.419 380.09 311.996C378.316 308.919 378.03 305.472 378.005 302C377.863 282.894 393.93 275.011 411 275M506 285C509.29 277.18 513.102 277 521 277C520.61 286.059 518.091 295.156 516.211 304C512.89 319.615 509.263 335.294 506.424 351C503.472 367.332 500.499 384.875 486 395.211C469.861 406.716 449.768 402.677 432 399C432.065 395.853 431.678 389.118 434.6 387.068C437.626 384.944 443.779 388.294 447 388.905C455.155 390.453 464.305 390.735 472 387.08C486.04 380.412 489.338 363.726 492 350C481.668 362.481 458.636 369.909 448.214 352.996C446.553 350.301 445.228 347.09 444.529 344C440.149 324.643 447.663 298.62 462.015 285.093C474.458 273.365 494.628 270.425 506 285M589 276C588.338 279.512 588.465 286.644 585.411 288.972C582.787 290.973 578.087 289.786 575 290.329C568.952 291.391 563.294 295.256 559.529 300.015C550.434 311.511 549.784 329.132 546.79 343C545.911 347.072 545.597 357.292 542.258 359.972C539.355 362.303 532.524 361 529 361C529.381 342.562 535.96 323.009 539.789 305C541.417 297.347 541.512 286.1 545.513 279.318C547.287 276.31 554.766 275.82 556.972 278.603C558.621 280.683 557.998 284.528 558 287C566.337 278.738 576.92 272.429 589 276M726 361C727.321 350.599 729.836 340.232 732.116 330C733.811 322.391 735.416 314.683 736.75 307C737.365 303.457 738.428 299.551 737.343 296.004C732.157 279.042 709.163 292.341 703.044 301.001C691.416 317.458 695.251 339.869 687.852 357.852C685.83 362.766 677.306 361 673 361C673.84 341.479 680.741 321.145 684.6 302C685.742 296.335 686.829 290.63 688.12 285C688.582 282.983 688.792 280.253 690.164 278.603C692.488 275.808 698.763 277 702 277L702 287C706.558 283.056 711.284 279.347 717 277.243C720.811 275.84 724.934 275.029 729 275.029C732.032 275.029 735.061 275.513 738 276.24C762.909 282.403 750.169 316.045 746.424 333C745.103 338.984 744.058 345.009 742.789 351C742.242 353.583 741.912 357.36 740.062 359.397C737.298 362.441 729.736 361 726 361M494 346C492.841 360.194 487.948 379.131 475 386.995C463.142 394.197 447.239 390.981 435 387C434.241 390.68 433.306 394.248 433 398C449.383 400.41 465.149 405.066 481 396.673C497 388.201 500.649 372.201 504.003 356C509.317 330.336 515.01 304.731 520 279C512.745 279.001 508.87 279.25 507 287L505 287C496.476 270.716 474.082 275.444 463.004 286.043C448.136 300.268 439.949 328.242 447.235 348C452.102 361.201 468.278 364.202 480 358.341C485.833 355.425 489.793 350.812 494 346M557 290L557 279L546 279C543.853 305.972 533.464 332.178 530 359L542 359C544.476 346.995 546.946 334.973 549.576 323C551.275 315.261 552.59 307.661 557.221 301.004C561.073 295.466 566.527 291.379 573 289.44C576.191 288.484 581.663 289.009 584.272 286.972C586.941 284.889 586.868 280.038 587 277C574.292 274.676 565.29 281.075 557 290M701 290L701 279C698.275 279 693.897 278.242 691.6 280.028C689.885 281.361 689.775 284.045 689.39 286.001C688.468 290.684 687.397 295.344 686.349 300C681.941 319.588 678.804 339.501 674 359C678.729 359 685.178 360.45 687.061 354.941C693.358 336.521 690.91 313.881 703.67 298.015C710.199 289.896 732.385 279.099 738.258 294.015C741.843 303.121 736.147 317.881 734.116 327C731.781 337.48 728.853 348.284 728 359L740 359C741.879 344.213 745.894 329.614 748.8 315C750.146 308.231 752.749 299.896 751.671 293C748.924 275.439 728.534 273.386 715 279.518C709.597 281.965 705.191 285.898 701 290M615 277C614.91 287.866 611.104 298.355 609.25 309C607.64 318.246 602.209 330.759 604.944 340C608.909 353.401 627.688 351.977 635.319 342.906C640.364 336.909 641.467 329.417 643.003 322C644.798 313.332 646.66 304.682 648.4 296C649.291 291.552 649.715 280.877 653.564 278.028C656.665 275.732 663.324 277 667 277C665.674 293.235 660.722 310.109 657.12 326C654.896 335.808 653.193 345.421 645.907 352.96C632.235 367.105 598.716 367.943 590.814 347C587.533 338.305 590.057 329.72 591.8 321C594.739 306.306 598.147 291.71 601 277L615 277M665 279L653 279C652.067 290.424 648.363 301.742 646.261 313C644.441 322.748 643.371 334.871 637.072 342.91C629.77 352.227 610.692 355.642 604.573 342.996C601.394 336.428 603.858 328.712 605.2 322C608.056 307.718 612.057 293.429 614 279C610.798 279 604.449 277.799 602.175 280.603C599.194 284.28 598.99 293.379 598 298C596.362 305.65 594.97 313.353 593.339 321C591.212 330.97 588.476 342.863 594.853 351.96C605.332 366.908 635.523 363.333 646.319 350.826C653.573 342.424 654.905 330.476 657 320C659.676 306.617 664.405 292.649 665 279M269 287.329C281.839 285.072 291.899 292.594 291.921 306C291.948 322.234 284.618 347.399 266 350.671C251.17 353.277 243.496 344.163 243.043 330C242.535 314.084 251.331 290.434 269 287.329M481 287.394C488.454 285.717 501.922 287.802 503.593 297.001C504.369 301.276 502.244 306.807 501.4 311C498.463 325.593 492.86 346.451 476 350.468C462.6 353.66 456.88 344.057 457.004 332C457.159 316.934 463.799 291.262 481 287.394M780 328C782.924 334.777 780.794 343.399 788.044 347.991C794.976 352.381 802.82 347.901 807.996 342.957C817.567 333.814 820.493 322.537 823 310C823.712 306.44 825.636 301.62 824.933 298.001C822.872 287.392 807.274 286.624 800 291.144C788.482 298.301 783.028 314.089 782 327C780.208 322.721 781.572 318.293 782.885 314C785.968 303.924 791.391 292.028 802 288.133C809.758 285.286 823.242 287.002 826.382 296.004C827.822 300.132 825.663 305.893 824.789 310C821.922 323.486 818.49 337.656 806.999 346.606C800.085 351.992 787.526 353.761 782.569 344.96C779.719 339.901 780.001 333.605 780 328M269 288.529C251.773 292.504 245.024 313.407 245 329C244.98 342.048 251.02 352.931 266 349.471C283.442 345.441 290 323.639 290 308C290 295.192 283.066 285.284 269 288.529M482 288.532C464.918 292.601 459.246 315.989 458.184 331C457.463 341.193 462.288 351.725 474 349.531C491.593 346.234 496.836 325.824 499.8 311C500.624 306.882 502.86 301.186 501.958 297.004C500.244 289.064 488.596 286.962 482 288.532z"/>
</svg>
