<?xml version="1.0" encoding="UTF-8" standalone="no"?>
<!-- Created with Inkscape (http://www.inkscape.org/) -->

<svg
   version="1.1"
   id="svg1106"
   width="297mm"
   height="210mm"
   viewBox="0 0 1122.5197 793.7008"
   sodipodi:docname="Bank-Logo.svg"
   inkscape:version="1.1.2 (0a00cf5339, 2022-02-04)"
   xmlns:inkscape="http://www.inkscape.org/namespaces/inkscape"
   xmlns:sodipodi="http://sodipodi.sourceforge.net/DTD/sodipodi-0.dtd"
   xmlns="http://www.w3.org/2000/svg"
   xmlns:svg="http://www.w3.org/2000/svg">
  <defs
     id="defs1110" />
  <sodipodi:namedview
     id="namedview1108"
     pagecolor="#ffffff"
     bordercolor="#666666"
     borderopacity="1.0"
     inkscape:pageshadow="2"
     inkscape:pageopacity="0.0"
     inkscape:pagecheckerboard="0"
     showgrid="false"
     inkscape:zoom="1"
     inkscape:cx="530"
     inkscape:cy="474"
     inkscape:window-width="2560"
     inkscape:window-height="1408"
     inkscape:window-x="0"
     inkscape:window-y="0"
     inkscape:window-maximized="1"
     inkscape:current-layer="g1112"
     units="mm"
     inkscape:document-units="mm" />
  <g
     inkscape:groupmode="layer"
     inkscape:label="Image"
     id="g1112">
    <path
       style="fill:#000000;stroke-width:6.1776"
       d="m 3150.9599,1709.1648 c -24.6577,-26.1052 -42.5622,-65.6339 -51.8946,-114.5697 -10.3322,-54.175 -10.6793,-82.5607 -1.4747,-120.5323 16.8076,-69.3362 47.6332,-84.1757 166.9447,-80.3679 68.1843,2.1761 79.6169,4.1978 108.4313,19.1747 35.955,18.6883 45.0734,31.1127 44.8721,61.1403 -0.2348,34.8832 -24.6497,55.2536 -88.0837,73.4897 -38.4534,11.0546 -53.7784,28.3995 -81.4346,92.1672 -24.8971,57.4063 -47.8229,86.4864 -68.1819,86.4864 -7.2228,0 -20.3535,-7.6448 -29.1786,-16.9884 z m -572.2371,-57.1929 c -39.1003,-39.1004 -65.1277,-152.5729 -50.6466,-220.8094 11.4216,-53.8219 24.4181,-72.1886 59.5531,-84.1602 43.2028,-14.7207 138.5318,-13.5132 188.77,2.3912 43.8889,13.8942 53.8704,20.271 69.6253,44.4788 9.2931,14.2799 9.8243,20.0226 3.5959,38.8942 -8.4778,25.6882 -34.6646,44.0431 -88.1982,61.82 -19.6376,6.5211 -40.8775,17.5075 -47.1999,24.4144 -6.3221,6.9069 -21.819,36.789 -34.4373,66.4049 -36.8462,86.4805 -63.5556,104.073 -101.0623,66.5661 z m 381.3396,-11.4662 c -33.8289,-21.4537 -49.7235,-40.7874 -60.5824,-73.6906 -9.5081,-28.8091 -6.047,-48.5022 12.2269,-69.5721 11.0298,-12.7177 18.2906,-14.9006 48.2109,-14.4941 27.8314,0.3781 40.7768,4.1525 61.674,17.9817 53.4981,35.4033 76.3855,107.8215 44.7287,141.5246 -21.8767,23.2905 -67.9709,22.5315 -106.2581,-1.7495 z m -553.4231,-44.2778 c -50.651,-25.7211 -89.8472,-88.1426 -78.6197,-125.2045 8.4704,-27.961 27.6087,-41.395 58.9719,-41.395 37.9736,0 54.8886,6.7744 85.128,34.0939 45.1992,40.835 56.6248,107.6937 22.2521,130.2155 -24.8081,16.2549 -58.5008,17.1344 -87.7323,2.2901 z m 591.26,-121.3089 c -56.9581,-19.3918 -93.1375,-60.5521 -93.7743,-106.6843 -0.4335,-31.4333 10.2318,-49.0825 36.2241,-59.9428 26.3747,-11.0199 51.2607,-6.7583 85.6491,14.6672 60.5916,37.7508 77.8527,115.9248 31.7974,144.0065 -19.0868,11.6379 -40.6602,14.5025 -59.8963,7.9534 z m -589.9608,-60.0405 c -26.738,-11.6698 -63.1072,-54.6214 -70.9672,-83.8111 -5.4985,-20.4204 -4.9296,-29.0016 3.0359,-45.7878 13.3578,-28.1496 32.4317,-37.1135 71.0717,-33.4007 53.0909,5.1014 98.4453,50.2675 103.5208,103.0915 2.6951,28.0476 1.2563,32.5557 -15.852,49.664 -15.298,15.2977 -23.8151,18.7712 -45.5466,18.5746 -14.7014,-0.1328 -35.0696,-3.8818 -45.2626,-8.3305 z m 674.6401,-63.5913 c -43.1112,-30.6742 -65.2996,-84.2482 -52.5844,-126.9645 13.6085,-45.7148 51.0778,-58.8106 97.6347,-34.124 37.2453,19.7492 61.4288,62.3747 61.6317,108.6309 0.1231,28.2362 -2.4192,35.4709 -17.9135,50.9652 -24.0553,24.0555 -56.2953,24.5975 -88.7685,1.4924 z m 178.5294,3.626 c -34.7095,-27.3023 -52.2737,-95.1968 -33.9144,-131.0962 17.7593,-34.727 54.8882,-44.4786 89.3465,-23.4661 26.1481,15.945 39.6599,47.3864 39.6599,92.2855 0,31.0104 -2.6619,40.366 -15.9932,56.2092 -19.8089,23.5419 -53.5897,26.1332 -79.0988,6.0676 z m -726.4846,-46.3224 c -46.8891,-20.3338 -75.0529,-61.4038 -75.4903,-110.0845 -0.2192,-24.4373 3.1992,-38.3425 12.7118,-51.7017 43.9584,-61.734 149.2208,5.8974 149.2208,95.8752 0,33.6344 -10.7384,52.8711 -37.1338,66.5207 -21.5646,11.1514 -22.2061,11.1435 -49.3085,-0.6098 z m 175.711,1.1514 c -41.6279,-18.132 -63.5746,-63.5533 -56.4346,-116.7983 4.3371,-32.3416 32.2098,-59.8403 60.6539,-59.8403 39.8434,0 87.0716,71.8852 76.6447,116.6596 -7.8149,33.5586 -17.9806,51.0014 -34.7888,59.6933 -20.7697,10.7403 -22.0547,10.7483 -46.0752,0.2854 z M 779.44215,660.82074 C 656.18045,626.83171 594.81255,536.73723 594.81255,389.76589 v -58.92961 l -16.9884,-1.95472 c -12.1389,-1.3967 -17.5498,-5.90549 -18.9547,-15.79457 -2.8951,-20.37817 20.075,-28.80999 60.7157,-22.28725 l 32.643,5.23911 0.8521,55.5984 c 0.6973,45.49839 3.7318,61.82183 16.7044,89.85707 21.4652,46.38872 51.5645,79.10134 88.6893,96.38946 99.5731,46.36882 188.4288,-24.82462 181.1128,-145.11182 -3.1295,-51.45323 -27.6328,-107.78015 -61.1049,-140.46473 -13.3155,-13.00239 -24.2101,-27.0096 -24.2101,-31.12721 0,-13.43707 60.2538,-53.09769 74.0268,-48.72637 14.5341,4.61294 16.6874,24.88812 3.1932,30.06638 -13.9886,5.36797 -11.0988,17.09849 10.1029,41.00919 75.71685,85.3915 92.07405,120.23256 92.33835,196.68338 0.1983,57.36698 -7.9751,88.93588 -33.2645,128.47926 -29.98935,46.8928 -81.62015,81.76985 -139.39025,94.15935 -38.6544,8.28983 -44.9784,8.13291 -81.8361,-2.03047 z m 117.423,-55.11888 c 14.4379,-17.39662 -10.5358,-42.37032 -27.9324,-27.9324 -8.9264,7.4083 -11.3467,25.31574 -4.365,32.29735 6.9816,6.98168 24.8891,4.56149 32.2974,-4.36495 z m -196.6037,-50.72164 c 5.8928,-7.10026 6.3392,-12.60772 1.6275,-20.0772 -8.2609,-13.09638 -26.6343,-13.26633 -34.7995,-0.32184 -14.7454,23.37634 15.3445,41.87998 33.172,20.39904 z M 1007.5015,440.45724 c 1.9789,-17.06378 -10.04235,-26.36114 -26.11125,-20.19489 -23.1064,8.86678 -13.3525,41.76415 11.3369,38.23661 8.71085,-1.24459 13.50535,-7.09953 14.77435,-18.04172 z M 264.31095,603.84029 c -32.6642,-13.60394 -74.8448,-42.52598 -96.6302,-66.25649 -20.9849,-22.85854 -54.721,-87.19972 -54.721,-104.36331 0,-6.70788 -2.6674,-22.24846 -5.9274,-34.53452 -3.2601,-12.28608 -7.5242,-32.59394 -9.4759,-45.12855 -3.1542,-20.25831 -5.7556,-23.00353 -23.4162,-24.71041 -16.3896,-1.58405 -19.8677,-4.54601 -19.8677,-16.91968 0,-16.20663 7.8095,-19.828 59.4635,-27.57398 l 28.3325,-4.24876 3.5705,34.59462 c 3.8728,37.52318 31.5393,101.61953 54.7444,126.82885 60.5106,65.73688 144.8574,82.19081 201.1658,39.24234 38.45,-29.32729 59.5898,-97.50285 45.4264,-146.49945 -18.8005,-65.03738 -49.8391,-107.91224 -108.4244,-149.77018 l -17.7702,-12.69645 26.5612,-35.17995 c 14.6086,-19.34899 28.4757,-35.17995 30.8158,-35.17995 2.34,0 9.5752,3.89047 16.078,8.64543 10.8201,7.91183 11.0523,10.08616 2.7366,25.62414 -8.899,16.62791 -8.5128,17.43824 18.701,39.23089 15.2832,12.23882 44.7533,39.06777 65.489,59.62002 44.5703,44.17587 63.4919,87.06132 68.7685,155.86249 3.0176,39.34624 1.3163,50.40303 -13.609,88.44506 -19.9203,50.77376 -59.3051,94.25238 -106.0318,117.05336 -39.6413,19.34353 -128.3776,23.57482 -165.9794,7.91448 z m 172.9728,-69.96385 c 0,-12.25574 -3.5072,-15.84754 -16.9884,-17.39871 -14.3564,-1.65191 -16.9884,0.34222 -16.9884,12.86997 0,18.6141 5.3532,24.07009 21.3674,21.7777 8.8502,-1.26684 12.6094,-6.40913 12.6094,-17.24896 z m -197.3425,-7.25128 c 4.3681,-13.76256 -11.6888,-32.2092 -24.36,-27.98551 -10.3794,3.45978 -18.2563,20.79857 -14.2234,31.30833 5.8571,15.2633 33.4384,12.88797 38.5834,-3.32282 z m 276.9891,-161.45014 c 5.4554,-8.91119 4.4789,-12.92649 -4.8244,-19.83783 -21.4731,-15.95216 -45.7764,8.16446 -27.0744,26.86645 9.9119,9.91189 23.3393,6.95328 31.8988,-7.02862 z"
       id="path1191"
       sodipodi:nodetypes="ccssscssscscssccsssssssssssssssssscsssssscsscssscscssscsscssccsssscssssccsscssscssssssssssssssssssssssssssssssssscssssscsssssssssssssssssssssss" />
  </g>
</svg>
