<?xml version="1.0" encoding="UTF-8" standalone="no"?>
<!-- Created with Inkscape (http://www.inkscape.org/) -->

<svg
   version="1.1"
   id="svg1106"
   width="297mm"
   height="210mm"
   viewBox="0 0 1122.5197 793.7008"
   sodipodi:docname="Bank-Logo.svg"
   inkscape:version="1.1.2 (0a00cf5339, 2022-02-04)"
   xmlns:inkscape="http://www.inkscape.org/namespaces/inkscape"
   xmlns:sodipodi="http://sodipodi.sourceforge.net/DTD/sodipodi-0.dtd"
   xmlns="http://www.w3.org/2000/svg"
   xmlns:svg="http://www.w3.org/2000/svg">
  <defs
     id="defs1110" />
  <sodipodi:namedview
     id="namedview1108"
     pagecolor="#ffffff"
     bordercolor="#666666"
     borderopacity="1.0"
     inkscape:pageshadow="2"
     inkscape:pageopacity="0.0"
     inkscape:pagecheckerboard="0"
     showgrid="false"
     inkscape:zoom="0.42051122"
     inkscape:cx="2496.9607"
     inkscape:cy="601.64863"
     inkscape:window-width="2560"
     inkscape:window-height="1368"
     inkscape:window-x="2560"
     inkscape:window-y="0"
     inkscape:window-maximized="1"
     inkscape:current-layer="g1112"
     units="mm"
     inkscape:document-units="mm" />
  <g
     inkscape:groupmode="layer"
     inkscape:label="Image"
     id="g1112">
    <path
       style="fill:#000000;stroke-width:2.86"
       d="m 715.80542,758.0908 c -11.4156,-12.08573 -19.7047,-30.38607 -24.0253,-53.04153 -4.7834,-25.08103 -4.9441,-38.22253 -0.6827,-55.802 7.7813,-32.10007 22.0524,-38.97022 77.2892,-37.20735 31.5668,1.00747 36.8597,1.94343 50.1997,8.87719 16.6458,8.65198 20.8673,14.40401 20.7741,28.30567 -0.1087,16.14965 -11.4119,25.58039 -40.7795,34.02302 -17.8025,5.11789 -24.8974,13.14794 -37.7012,42.67 -11.5264,26.57698 -22.1402,40.04 -31.5657,40.04 -3.3439,0 -9.4229,-3.53925 -13.5086,-7.865 z m -264.9246,-26.47819 c -18.102,-18.10206 -30.1517,-70.6356 -23.4475,-102.22659 5.2878,-24.91755 11.3047,-33.42061 27.5709,-38.96303 20.0013,-6.81516 64.1351,-6.25611 87.3935,1.10702 20.3189,6.43251 24.94,9.38471 32.2339,20.59205 4.3024,6.61106 4.5483,9.26972 1.6648,18.00656 -3.9249,11.89271 -16.0484,20.39034 -40.8325,28.62039 -9.0915,3.01902 -18.9248,8.10533 -21.8518,11.30295 -2.9269,3.19763 -10.1014,17.03196 -15.9432,30.743 -17.0584,40.03726 -29.4239,48.18194 -46.7881,30.81765 z m 176.5461,-5.30845 c -15.6615,-9.93224 -23.0201,-18.88304 -28.0474,-34.11597 -4.4019,-13.33758 -2.7995,-22.45474 5.6606,-32.20935 5.1064,-5.88779 8.4679,-6.8984 22.3199,-6.71021 12.8849,0.17503 18.8781,1.92246 28.5528,8.32485 24.7676,16.39041 35.3636,49.91736 20.7077,65.52066 -10.1281,10.7826 -31.468,10.43125 -49.1936,-0.80998 z m -256.2144,-20.49894 c -23.4495,-11.90795 -41.5959,-40.80679 -36.398,-57.96505 3.9215,-12.94493 12.7818,-19.16437 27.3018,-19.16437 17.5804,0 25.4114,3.1363 39.4111,15.7842 20.9256,18.90511 26.2152,49.85821 10.3019,60.28496 -11.4852,7.52541 -27.0837,7.93259 -40.6168,1.06026 z M -643.48612,649.94307 c -14.157,-2.02653 -33.462,-5.76676 -42.9,-8.31161 -24.18916,-6.52238 -79.8719,-29.37206 -99.35514,-40.77088 -36.77537,-21.51569 -77.95346,-65.26551 -96.78031,-102.8246 -11.5437,-23.02941 -13.343,-28.29967 -21.3071,-62.41018 -5.21532,-22.33743 -5.31465,-80.95362 -0.18252,-107.71341 9.47851,-49.42254 36.76773,-98.58972 74.24269,-133.76357 29.998,-28.15601 86.08806,-62.23878 104.97284,-63.78609 8.99456,-0.73697 9.33704,-0.3418 12.97776,14.97307 2.05669,8.6515 3.79397,20.58811 3.8606,26.52579 0.10325,9.19787 -1.04295,11.23796 -7.74382,13.78319 -69.45873,26.38299 -142.15042,89.9915 -163.11274,142.73102 -17.85148,44.91284 -14.20895,86.90539 12.18125,140.43069 23.96915,48.61485 53.12884,78.28981 95.80402,97.49686 7.11837,3.20377 19.37747,8.80688 27.24247,12.45135 15.91001,7.37231 56.64362,19.23859 82.94,24.16159 9.438,1.76691 24.2385,4.74638 32.89001,6.62105 22.05443,4.77889 136.40978,4.49658 158.73,-0.39185 18.26699,-4.00074 101.79469,-24.36589 118.89529,-28.98822 31.5585,-8.53038 132.96131,-53.24768 166.45223,-73.40321 59.27398,-35.67233 100.159709,-65.10072 140.542209,-101.15826 47.9300996,-42.79684 45.4876996,-40.01681 40.2454996,-45.80948 -2.618,-2.89283 -15.2619996,-11.59744 -28.0975996,-19.34358 -12.8357,-7.74614 -42.95183,-26.50007 -66.92472,-41.6754 -23.972889,-15.17534 -44.127909,-27.59154 -44.788909,-27.59154 -0.66104,0 -10.00434,-4.9355 -20.76295,-10.96776 -10.75857,-6.03228 -32.43105,-17.77487 -48.16105,-26.09467 -15.73,-8.31976 -30.18095,-16.3888 -32.11326,-17.93117 -2.49566,-1.99204 -3.04718,-9.13758 -1.90413,-24.67036 0.88503,-12.02632 2.13871,-23.56562 2.78596,-25.6429 2.89023,-9.27584 116.46641,60.15861 199.161859,121.75698 47.0492996,35.04621 67.4082,49.32988 70.3113,49.32988 1.6608,0 4.7204,-1.65611 6.7989,-3.68025 3.3004,-3.21387 59.8574,-52.04668 79.495501,-68.63842 17.7745,-15.01724 117.5749,-84.98133 121.2218,-84.98133 0.6861,0 10.0662,-5.36316 20.8447,-11.91811 55.525,-33.76747 136.1345,-62.33192 209.7875,-74.339379 58.5724,-9.548885 134.7133,-13.186518 175.8058,-8.399075 67.7465,7.892715 77.8918,9.241465 88.7442,11.797985 6.292,1.4822 22.765,5.338449 36.6067,8.569389 64.5609,15.06986 140.887,52.89585 178.2978,88.36148 49.6791,47.09602 74.55388,122.74622 67.01128,203.79753 -5.589,60.0586 -26.78648,110.53514 -71.24838,169.66018 -22.6788,30.15816 -73.8253,84.37 -79.5995,84.37 -7.6726,0 -3.2564,-6.86517 20.8812,-32.46049 13.5734,-14.39323 26.7471,-29.38701 29.2748,-33.31951 2.5277,-3.9325 12.1323,-17.39512 21.3436,-29.91697 22.1298,-30.08323 32.4225,-51.09802 41.2692,-84.26006 6.4483,-24.17198 7.3351,-33.27811 7.5413,-77.44297 0.2211,-47.33623 -0.1759,-51.15816 -7.3192,-70.4877 -10.0732,-27.25806 -24.7045,-49.52142 -49.2755,-74.97854 -27.9724,-28.98118 -80.934,-63.17474 -120.4233,-77.74887 -3.146,-1.16107 -12.6484,-4.82316 -21.1164,-8.13795 -8.468,-3.31483 -17.7383,-6.02694 -20.6004,-6.02694 -2.8623,0 -8.1605,-1.15298 -11.7736,-2.56216 -25.4513,-9.92612 -77.1513,-20.12222 -124.8851,-24.6294 -42.5215,-4.01502 -51.3093,-4.00149 -95.81,0.14757 -44.1986,4.12095 -79.6124,9.88982 -116.2045,18.92968 -15.97,3.94526 -62.3471,18.65438 -70.0701,22.22366 -3.146,1.45397 -12.7985,5.18847 -21.45,8.29892 -23.455,8.43271 -117.1899,55.80475 -140.8962,71.20651 -11.3816,7.39456 -23.7061,15.08038 -27.3877,17.07958 -3.6816,1.99919 -11.4036,7.25218 -17.16,11.67329 -5.7564,4.4211 -13.9945,10.25098 -18.3068,12.95528 -7.03,4.40855 -44.917401,34.52429 -61.514401,48.89622 -9.6464,8.35317 -7.8202,13.52794 8.6538,24.5215 23.6292,15.76846 81.106001,58.87824 110.214501,82.66509 14.6483,11.9703 31.5366,25.62517 37.5294,30.34417 35.1542,27.68177 97.4274,86.06524 97.4274,91.34191 0,8.47933 -5.6259,6.97769 -21.1084,-5.63417 -8.757,-7.1335 -29.1474,-22.77292 -45.3119,-34.75426 -16.1644,-11.98134 -41.495,-31.56482 -56.2902,-43.51882 -14.7953,-11.95403 -32.976,-26.42068 -40.4016,-32.14814 C 113.15502,427.54378 32.763719,376.9958 25.043419,376.9958 c -2.1254,0 -13.131,8.7693 -24.45690043,19.48733 -19.92569957,18.85615 -44.22059957,41.4736 -64.92266957,60.44 -11.80378,10.81421 -106.412179,82.19203 -115.375679,87.04585 -3.39585,1.83889 -11.61846,6.8497 -18.27245,11.13512 -6.65399,4.28543 -12.71062,7.7917 -13.45914,7.7917 -0.74854,0 -8.14227,3.99839 -16.43052,8.88533 -74.23193,43.76873 -144.86412,67.95137 -232.57217,79.62675 -30.7468,4.09292 -150.9339,3.1311 -183.04001,-1.46481 z m 1288.43014,-0.29941 c -26.3695,-8.97768 -43.1192,-28.03338 -43.414,-49.39088 -0.2007,-14.55246 4.7369,-22.72336 16.7704,-27.75127 12.2105,-5.10184 23.7318,-3.12884 39.6524,6.79036 28.0516,17.4772 36.0429,53.66887 14.721,66.66966 -8.8365,5.38792 -18.8242,6.71413 -27.7298,3.68213 z m -273.13,-27.79651 c -12.3787,-5.40268 -29.2163,-25.28769 -32.8552,-38.80145 -2.5456,-9.4539 -2.2822,-13.42664 1.4055,-21.19806 6.1842,-13.03219 15.0147,-17.18214 32.9036,-15.46325 24.5791,2.36176 45.5765,23.27196 47.9263,47.72754 1.2477,12.98497 0.5816,15.07208 -7.3389,22.9926 -7.0824,7.08224 -11.0255,8.69033 -21.0864,8.59933 -6.8062,-0.0615 -16.2359,-1.79711 -20.9549,-3.85671 z m 312.3334,-29.44041 c -19.9589,-14.20102 -30.2313,-39.00379 -24.3446,-58.77987 6.3002,-21.16422 23.6471,-27.22711 45.2012,-15.79815 17.2432,9.14316 28.4393,28.87716 28.5332,50.29207 0.057,13.07235 -1.12,16.42175 -8.2933,23.595 -11.1367,11.13681 -26.0626,11.38775 -41.0965,0.69095 z m 82.6525,1.6787 c -16.0692,-12.63997 -24.2008,-44.0726 -15.7011,-60.69266 8.2219,-16.07731 25.4112,-20.59194 41.3641,-10.86394 12.1056,7.38195 18.3611,21.93812 18.3611,42.72474 0,14.35666 -1.2324,18.68796 -7.4043,26.02277 -9.1708,10.89906 -24.81,12.09872 -36.6198,2.80909 z m -336.3355,-21.44556 c -21.7079,-9.41378 -34.7467,-28.42769 -34.9492,-50.96503 -0.1015,-11.31356 1.4811,-17.75116 5.8851,-23.93597 20.3511,-28.58058 69.0837,2.7303 69.0837,44.38663 0,15.5715 -4.9715,24.47739 -17.1916,30.79662 -9.9836,5.1627 -10.2806,5.15904 -22.828,-0.28228 z m 81.3477,0.53304 c -19.2722,-8.39444 -29.4327,-29.42279 -26.1271,-54.07327 2.0079,-14.97296 14.9119,-27.70385 28.0805,-27.70385 18.446,0 40.3109,33.28022 35.4836,54.00907 -3.618,15.53641 -8.3243,23.61176 -16.1059,27.63581 -9.6156,4.97236 -10.2105,4.97605 -21.3311,0.13213 z M -382.11946,272.74631 c -57.06556,-15.73566 -85.47665,-57.44607 -85.47665,-125.48836 v -27.28223 l -7.865,-0.90496 c -5.61985,-0.64662 -8.12486,-2.73402 -8.77528,-7.3123 -1.34034,-9.43434 9.29394,-13.337959 28.10905,-10.31817 l 15.11252,2.42551 0.39451,25.74 c 0.32281,21.06407 1.7277,28.62122 7.73353,41.6005 9.93758,21.47626 23.87245,36.62099 41.05985,44.62475 46.09862,21.46705 87.23557,-11.49288 83.8485,-67.1814 -1.44884,-23.82094 -12.79295,-49.898219 -28.28926,-65.029964 -6.16464,-6.019623 -11.20842,-12.504443 -11.20842,-14.410743 0,-6.22087 27.89526,-24.58227 34.27163,-22.55851 6.72876,2.13562 7.72569,11.52228 1.47837,13.91962 -6.47624,2.48517 -5.13834,7.91597 4.67727,18.98574 35.05413,39.533097 42.62687,55.663217 42.74925,91.057117 0.0918,26.55879 -3.69218,41.17402 -15.40019,59.48114 -13.88401,21.70963 -37.78717,37.85641 -64.53261,43.59229 -17.89553,3.83789 -20.82331,3.76524 -37.88707,-0.94003 z m 54.3625,-25.518 c 6.68422,-8.05399 -4.87767,-19.61589 -12.93166,-12.93167 -4.13261,3.42977 -5.25307,11.72025 -2.02082,14.95248 3.23223,3.23226 11.52271,2.1118 14.95248,-2.02081 z m -91.02018,-23.48224 c 2.72809,-3.28716 2.93479,-5.83691 0.75346,-9.295 -3.8245,-6.06314 -12.33074,-6.14182 -16.11089,-0.149 -6.82659,10.82238 7.1039,19.38888 15.35743,9.444 z m 142.24075,-53.0199 c 0.91612,-7.8999 -4.64927,-12.20423 -12.08859,-9.34949 -10.6974,4.10499 -6.18169,19.33526 5.24859,17.70214 4.0328,-0.5762 6.25253,-3.28682 6.84,-8.35265 z m -344.06972,75.6403 c -15.12229,-6.29812 -34.65039,-19.68795 -44.73621,-30.6743 -9.71522,-10.58266 -25.3338,-40.37024 -25.3338,-48.31635 0,-3.1055 -1.23486,-10.30021 -2.74417,-15.9882 -1.50928,-5.688 -3.48339,-15.08979 -4.38695,-20.89285 -1.46029,-9.37885 -2.66463,-10.64978 -10.84083,-11.44 -7.58781,-0.73336 -9.19805,-2.10464 -9.19805,-7.83319 0,-7.50307 3.61553,-9.17963 27.52942,-12.765729 l 13.1169,-1.96702 1.65303,16.016029 c 1.79293,17.37184 14.6015,47.04608 25.3446,58.71706 28.01419,30.43374 67.06363,38.0513 93.1323,18.16775 17.80096,-13.57745 27.5879,-45.14021 21.03075,-67.82382 -8.70389,-30.109899 -23.07368,-49.959367 -50.19646,-69.338047 l -8.22693,-5.87798 12.29683,-16.287018 c 6.76324,-8.95786 13.1832,-16.28701 14.26656,-16.28701 1.08334,0 4.43295,1.80114 7.44353,4.00251 5.00929,3.66289 5.11679,4.66952 1.26695,11.86303 -4.11992,7.69811 -3.94111,8.07326 8.65785,18.162448 7.07558,5.66612 20.71912,18.08693 30.319,27.60186 20.63438,20.451788 29.39439,40.306167 31.83726,72.158557 1.39706,18.21585 0.60941,23.33474 -6.30046,40.94679 -9.22239,23.50637 -27.45609,43.63536 -49.08879,54.19137 -18.35247,8.95534 -59.43408,10.91427 -76.84233,3.66411 z m 80.08,-32.39067 c 0,-5.67395 -1.62365,-7.33682 -7.865,-8.05496 -6.64647,-0.76477 -7.865,0.15844 -7.865,5.95832 0,8.61764 2.47833,11.14356 9.89231,10.08227 4.09735,-0.5865 5.83769,-2.96719 5.83769,-7.98563 z m -91.36225,-3.35707 c 2.02225,-6.37156 -5.41152,-14.91167 -11.27778,-12.95626 -4.80526,1.60175 -8.45202,9.62897 -6.58489,14.4946 2.71159,7.06634 15.48069,5.96665 17.86267,-1.53834 z m 128.23571,-74.74544 c 2.52561,-4.12555 2.07353,-5.98449 -2.23354,-9.18418 -9.94125,-7.38526 -21.19277,3.77984 -12.53444,12.43817 4.58884,4.58884 10.80522,3.21911 14.76798,-3.25399 z"
       id="path1191" />
  </g>
</svg>
