  0
SECTION
  2
HEADER
  9
$ACADVER
  1
AC1009
  9
$EXTMAX
 10
393.172515869141
 20
32.1201858520508
 30
0.0
  9
$EXTMIN
 10
1.2680839300156
 20
-11.9162464141846
 30
0.0
  9
$INSUNITS
 70
     4
  9
$LUNITS
 70
     2
  9
$LUPREC
 70
     4
  9
$MEASUREMENT
 70
     1
  0
ENDSEC
  0
SECTION
  2
TABLES
  0
TABLE
  2
LAYER
 70
     1
  0
LAYER
  2
0
 70
     0
 62
     7
  6
Continuous
  0
LAYER
  2
Standard
 70
     0
 62
    70
  6
Continuous
  0
ENDTAB
  0
TABLE
  2
APPID
 70
     1
  0
APPID
  2
ACAD
 70
     0
  0
ENDTAB
  0
ENDSEC
  0
SECTION
  2
ENTITIES
  0
POLYLINE
  8
Standard
 66
     1
 10
0.0
 20
0.0
 30
0.0
 70
     1
  0
VERTEX
  8
Standard
 10
19.3305993849976
 20
12.8152484171789
 42
-0.0314124001391
  0
VERTEX
  8
Standard
 10
19.7212243849976
 20
2.1902484171789
 42
-0.9925094687622
  0
VERTEX
  8
Standard
 10
15.0141931349976
 20
2.2683734171789
 42
0.01807675475
  0
VERTEX
  8
Standard
 10
15.0141931349976
 20
4.7293109171789
 42
-0.0570238922406
  0
VERTEX
  8
Standard
 10
6.0493493849976
 20
4.8074359171789
 42
-0.011763078
  0
VERTEX
  8
Standard
 10
6.0884118849976
 20
2.4636859171789
 42
-1.0156891146331
  0
VERTEX
  8
Standard
 10
1.3618493849976
 20
2.4636859171789
 42
-0.0491066460739
  0
VERTEX
  8
Standard
 10
2.1940801307273
 20
18.87074793075
 42
-0.0772873741486
  0
VERTEX
  8
Standard
 10
4.2039077812253
 20
25.5485353939298
 42
-0.1444491671843
  0
VERTEX
  8
Standard
 10
7.8461758476595
 20
29.4112215419391
 42
-0.3412059879222
  0
VERTEX
  8
Standard
 10
14.6040368849976
 20
28.2449359171789
 42
-0.1115083149461
  0
VERTEX
  8
Standard
 10
17.1066730077924
 20
23.8099252677064
 42
-0.0483173078609
  0
SEQEND
  0
POLYLINE
  8
Standard
 66
     1
 10
0.0
 20
0.0
 30
0.0
 70
     1
  0
VERTEX
  8
Standard
 10
5.6782556349976
 20
9.5144671671789
 42
0.0548182361665
  0
VERTEX
  8
Standard
 10
14.8579431349976
 20
9.3972796671789
 42
0.0341407695106
  0
VERTEX
  8
Standard
 10
13.3540368849976
 20
20.5886859171789
 42
0.1058792389365
  0
VERTEX
  8
Standard
 10
11.2251306349976
 20
24.9636859171789
 42
0.4881104744737
  0
VERTEX
  8
Standard
 10
9.3501306349976
 20
24.7879046671789
 42
0.1224146843687
  0
VERTEX
  8
Standard
 10
7.0063806349976
 20
18.8308734171789
 42
0.0391857506231
  0
VERTEX
  8
Standard
 10
6.0884118849976
 20
9.5144671671789
 42
0.0
  0
SEQEND
  0
POLYLINE
  8
Standard
 66
     1
 10
0.0
 20
0.0
 30
0.0
 70
     1
  0
VERTEX
  8
Standard
 10
23.8227868849976
 20
-0.1535015828211
 42
-0.4208910698383
  0
VERTEX
  8
Standard
 10
21.4595056349976
 20
2.2683734171789
 42
0.000322106413
  0
VERTEX
  8
Standard
 10
21.9087243849976
 20
29.7488421671789
 42
-0.9612372453069
  0
VERTEX
  8
Standard
 10
26.6352868849976
 20
29.9441546671789
 42
-0.0032788767917
  0
VERTEX
  8
Standard
 10
26.1860681349976
 20
2.1121234171789
 42
-0.3948265708132
  0
SEQEND
  0
POLYLINE
  8
Standard
 66
     1
 10
0.0
 20
0.0
 30
0.0
 70
     1
  0
VERTEX
  8
Standard
 10
30.1704431349976
 20
-0.1535015828211
 42
-0.4208910698383
  0
VERTEX
  8
Standard
 10
27.8071618849976
 20
2.2683734171789
 42
0.000322106413
  0
VERTEX
  8
Standard
 10
28.2563806349976
 20
29.7488421671789
 42
-0.9612372453069
  0
VERTEX
  8
Standard
 10
32.9829431349976
 20
29.9441546671789
 42
-0.0032788767917
  0
VERTEX
  8
Standard
 10
32.5337243849976
 20
2.1121234171789
 42
-0.3948265708132
  0
SEQEND
  0
POLYLINE
  8
Standard
 66
     1
 10
0.0
 20
0.0
 30
0.0
 70
     1
  0
VERTEX
  8
Standard
 10
43.4126306349976
 20
-0.2706890828211
 42
-0.416011959341
  0
VERTEX
  8
Standard
 10
34.2915368849976
 20
9.1043109171789
 42
-0.3021116664333
  0
VERTEX
  8
Standard
 10
39.7212243849976
 20
19.2019671671789
 42
-0.2817267799468
  0
VERTEX
  8
Standard
 10
47.5727868849976
 20
18.9480609171789
 42
-0.3788920572977
  0
VERTEX
  8
Standard
 10
49.6430993849976
 20
11.4089984171789
 42
-0.2083781838127
  0
VERTEX
  8
Standard
 10
44.4868493849976
 20
6.9168109171789
 42
-0.1153951776957
  0
VERTEX
  8
Standard
 10
39.5259118849976
 20
6.3894671671789
 42
0.3225280876397
  0
VERTEX
  8
Standard
 10
44.8579431349976
 20
4.6707171671789
 42
0.216613670739
  0
VERTEX
  8
Standard
 10
46.2251306349976
 20
5.9011859171789
 42
-1.0044943593776
  0
VERTEX
  8
Standard
 10
50.5805993849976
 20
4.1238421671789
 42
-0.2138263927222
  0
VERTEX
  8
Standard
 10
46.6157556349976
 20
0.3933734171789
 42
-0.0984893017412
  0
SEQEND
  0
POLYLINE
  8
Standard
 66
     1
 10
0.0
 20
0.0
 30
0.0
 70
     1
  0
VERTEX
  8
Standard
 10
39.1352868849976
 20
11.1160296671789
 42
0.2234915489654
  0
VERTEX
  8
Standard
 10
44.3696618849976
 20
12.1121234171789
 42
0.2939084212483
  0
VERTEX
  8
Standard
 10
45.5024743849976
 20
13.9480609171789
 42
0.3651637937181
  0
VERTEX
  8
Standard
 10
43.2954431349976
 20
15.4129046671789
 42
0.3313202329521
  0
SEQEND
  0
POLYLINE
  8
Standard
 66
     1
 10
0.0
 20
0.0
 30
0.0
 70
     1
  0
VERTEX
  8
Standard
 10
60.5805993849976
 20
-0.1535015828211
 42
-0.2825094571521
  0
VERTEX
  8
Standard
 10
53.5688806349976
 20
3.4011859171789
 42
-0.1421910767236
  0
VERTEX
  8
Standard
 10
52.7876306349976
 20
6.9363421671789
 42
-0.994402852043
  0
VERTEX
  8
Standard
 10
57.4946618849976
 20
6.4871234171789
 42
0.3179173843784
  0
VERTEX
  8
Standard
 10
59.1743493849976
 20
4.7293109171789
 42
0.2415899773782
  0
VERTEX
  8
Standard
 10
62.5532556349976
 20
5.1004046671789
 42
0.0
  0
VERTEX
  8
Standard
 10
62.5923181349976
 20
5.1589984171789
 42
0.2197841559476
  0
VERTEX
  8
Standard
 10
61.4399743849976
 20
6.7214984171789
 42
0.0314637578
  0
VERTEX
  8
Standard
 10
56.8110681349976
 20
9.5339984171789
 42
-0.1187344219775
  0
VERTEX
  8
Standard
 10
53.7078488556978
 20
12.5101435096504
 42
-0.30178674846
  0
VERTEX
  8
Standard
 10
54.0766931349976
 20
17.4441546671789
 42
-0.2779871284524
  0
VERTEX
  8
Standard
 10
62.5348556548338
 20
19.966861250233
 42
-0.3930900265076
  0
VERTEX
  8
Standard
 10
66.9087243849976
 20
13.3816546671789
 42
-0.9952271999249
  0
VERTEX
  8
Standard
 10
62.2016931349976
 20
14.0457171671789
 42
0.477113557565
  0
VERTEX
  8
Standard
 10
61.2055993849976
 20
15.4324359171789
 42
0.2313548966878
  0
VERTEX
  8
Standard
 10
58.0024743849976
 20
14.8074359171789
 42
0.0839974052972
  0
VERTEX
  8
Standard
 10
57.8657556349976
 20
14.6121234171789
 42
-0.3984724809264
  0
VERTEX
  8
Standard
 10
58.2954431349976
 20
14.2605609171789
 42
0.010125978443
  0
VERTEX
  8
Standard
 10
63.0610681349976
 20
11.3113421671789
 42
-0.093215122256
  0
VERTEX
  8
Standard
 10
65.1118493849976
 20
9.3386859171789
 42
-0.5883790767394
  0
VERTEX
  8
Standard
 10
64.3891931349976
 20
0.7058734171789
 42
-0.1022074185863
  0
SEQEND
  0
POLYLINE
  8
Standard
 66
     1
 10
0.0
 20
0.0
 30
0.0
 70
     1
  0
VERTEX
  8
Standard
 10
104.983733819212
 20
9.9050921671789
 42
-0.3799682291045
  0
VERTEX
  8
Standard
 10
103.186858819212
 20
7.3269671671789
 42
-0.0435058671309
  0
VERTEX
  8
Standard
 10
101.370452569212
 20
7.0730609171789
 42
-0.1735432330947
  0
VERTEX
  8
Standard
 10
99.3392025692122
 20
3.2254046671789
 42
-0.4446736381644
  0
VERTEX
  8
Standard
 10
82.1126400692122
 20
4.2214984171789
 42
-0.1657086642885
  0
VERTEX
  8
Standard
 10
79.0071713192122
 20
13.7527484171789
 42
-0.1461330143655
  0
VERTEX
  8
Standard
 10
81.9954525692122
 20
24.7488421671789
 42
-0.226966187798
  0
VERTEX
  8
Standard
 10
89.4759213192122
 20
30.0222796671789
 42
-0.3184714701273
  0
VERTEX
  8
Standard
 10
98.3580615401481
 20
24.5662924398019
 42
-0.0556635252183
  0
VERTEX
  8
Standard
 10
99.7884213192122
 20
20.6277484171789
 42
-0.9907060238829
  0
VERTEX
  8
Standard
 10
95.1985775692122
 20
19.4558734171789
 42
0.1451756043086
  0
VERTEX
  8
Standard
 10
92.6985775692122
 20
24.4363421671789
 42
0.3974880541301
  0
VERTEX
  8
Standard
 10
87.9524838192122
 20
24.3582171671789
 42
0.1712291353652
  0
VERTEX
  8
Standard
 10
84.3001400692122
 20
18.3621234171789
 42
0.1019380823337
  0
VERTEX
  8
Standard
 10
83.9242715825862
 20
11.2778018907296
 42
0.2639050728041
  0
VERTEX
  8
Standard
 10
88.4602963192122
 20
5.1589984171789
 42
0.2849557673916
  0
VERTEX
  8
Standard
 10
95.4329525692122
 20
5.9988421671789
 42
0.0134117410755
  0
VERTEX
  8
Standard
 10
96.5657650692122
 20
6.9949359171789
 42
-0.0214329217707
  0
VERTEX
  8
Standard
 10
91.8977963192122
 20
7.2879046671789
 42
-1.047312189918
  0
VERTEX
  8
Standard
 10
92.6399838192122
 20
11.9168109171789
 42
0.0574418880477
  0
VERTEX
  8
Standard
 10
102.210296319212
 20
11.9363421671789
 42
-0.4340174128686
  0
SEQEND
  0
POLYLINE
  8
Standard
 66
     1
 10
0.0
 20
0.0
 30
0.0
 70
     1
  0
VERTEX
  8
Standard
 10
109.514983819212
 20
20.1980609171789
 42
-0.4297793964021
  0
VERTEX
  8
Standard
 10
111.878265069212
 20
17.6589984171789
 42
0.079332676247
  0
VERTEX
  8
Standard
 10
112.176786369829
 20
7.2099731533987
 42
0.0723272390805
  0
VERTEX
  8
Standard
 10
113.011077569212
 20
4.9832171671789
 42
0.4655946522963
  0
VERTEX
  8
Standard
 10
115.550140069212
 20
5.4129046671789
 42
0.0081612732623
  0
VERTEX
  8
Standard
 10
116.702483819212
 20
7.1511859171789
 42
0.0755912791404
  0
VERTEX
  8
Standard
 10
118.753265069212
 20
18.0105609171789
 42
-0.9720980746607
  0
VERTEX
  8
Standard
 10
123.460296319212
 20
17.7566546671789
 42
0.0069232388129
  0
VERTEX
  8
Standard
 10
123.050140069212
 20
2.5027484171789
 42
-1.0804575515631
  0
VERTEX
  8
Standard
 10
118.304046319212
 20
2.1902484171789
 42
0.0
  0
VERTEX
  8
Standard
 10
118.304046319212
 20
2.0730609171789
 42
-0.2974178286441
  0
VERTEX
  8
Standard
 10
114.026702569212
 20
-0.1925640828211
 42
-0.3262129854573
  0
VERTEX
  8
Standard
 10
108.099069719908
 20
4.3865763902823
 42
-0.0893590412182
  0
VERTEX
  8
Standard
 10
106.980096875517
 20
12.742892480396
 42
-0.0175515906705
  0
VERTEX
  8
Standard
 10
107.171233819212
 20
18.0105609171789
 42
-0.3824663366098
  0
SEQEND
  0
POLYLINE
  8
Standard
 66
     1
 10
0.0
 20
0.0
 30
0.0
 70
     1
  0
VERTEX
  8
Standard
 10
139.905608819212
 20
12.3855609171789
 42
-0.4051808966064
  0
VERTEX
  8
Standard
 10
141.878265069212
 20
9.5925921671789
 42
-0.1185336917003
  0
VERTEX
  8
Standard
 10
139.436858819212
 20
2.8347796671789
 42
-0.5071570530762
  0
VERTEX
  8
Standard
 10
130.589202569212
 20
1.6043109171789
 42
-0.1416936950042
  0
VERTEX
  8
Standard
 10
128.518890069212
 20
5.6668109171789
 42
-0.0524319175533
  0
VERTEX
  8
Standard
 10
127.581390069212
 20
17.7175921671789
 42
0.0
  0
VERTEX
  8
Standard
 10
127.796233819212
 20
17.7175921671789
 42
-0.9256487937647
  0
VERTEX
  8
Standard
 10
127.425140069212
 20
22.3660296671789
 42
0.0
  0
VERTEX
  8
Standard
 10
127.620452569212
 20
22.4050921671789
 42
0.005837753635
  0
VERTEX
  8
Standard
 10
127.854827569212
 20
29.7097796671789
 42
-0.9826519191823
  0
VERTEX
  8
Standard
 10
132.581390069212
 20
29.7097796671789
 42
0.0171182699458
  0
VERTEX
  8
Standard
 10
132.386077569212
 20
22.9714984171789
 42
0.0
  0
VERTEX
  8
Standard
 10
139.456390069212
 20
23.8894671671789
 42
-1.0103082358137
  0
VERTEX
  8
Standard
 10
140.159515069212
 20
19.2410296671789
 42
0.0
  0
VERTEX
  8
Standard
 10
132.288421319212
 20
18.2644671671789
 42
0.050924734907
  0
VERTEX
  8
Standard
 10
133.128265069212
 20
6.7214984171789
 42
0.1986203051844
  0
VERTEX
  8
Standard
 10
134.0765118058
 20
4.8136665383538
 42
0.4857390230939
  0
VERTEX
  8
Standard
 10
135.022796319212
 20
4.9050921671789
 42
0.1502477115713
  0
VERTEX
  8
Standard
 10
137.229827569212
 20
10.4129046671789
 42
-0.4217352064831
  0
SEQEND
  0
POLYLINE
  8
Standard
 66
     1
 10
0.0
 20
0.0
 30
0.0
 70
     1
  0
VERTEX
  8
Standard
 10
152.347015069212
 20
-0.2706890828211
 42
-0.416011959341
  0
VERTEX
  8
Standard
 10
143.225921319212
 20
9.1043109171789
 42
-0.3021116664333
  0
VERTEX
  8
Standard
 10
148.655608819212
 20
19.2019671671789
 42
-0.2817267799468
  0
VERTEX
  8
Standard
 10
156.507171319212
 20
18.9480609171789
 42
-0.3788920572977
  0
VERTEX
  8
Standard
 10
158.577483819212
 20
11.4089984171789
 42
-0.2083781838127
  0
VERTEX
  8
Standard
 10
153.421233819212
 20
6.9168109171789
 42
-0.1153951776957
  0
VERTEX
  8
Standard
 10
148.460296319212
 20
6.3894671671789
 42
0.3225280876397
  0
VERTEX
  8
Standard
 10
153.792327569212
 20
4.6707171671789
 42
0.216613670739
  0
VERTEX
  8
Standard
 10
155.159515069212
 20
5.9011859171789
 42
-1.0044943593776
  0
VERTEX
  8
Standard
 10
159.514983819212
 20
4.1238421671789
 42
-0.2138263927222
  0
VERTEX
  8
Standard
 10
155.550140069212
 20
0.3933734171789
 42
-0.0984893017412
  0
SEQEND
  0
POLYLINE
  8
Standard
 66
     1
 10
0.0
 20
0.0
 30
0.0
 70
     1
  0
VERTEX
  8
Standard
 10
148.069671319212
 20
11.1160296671789
 42
0.2234915489654
  0
VERTEX
  8
Standard
 10
153.304046319212
 20
12.1121234171789
 42
0.2939084212484
  0
VERTEX
  8
Standard
 10
154.436858819212
 20
13.9480609171789
 42
0.3651637937178
  0
VERTEX
  8
Standard
 10
152.229827569212
 20
15.4129046671789
 42
0.3313202329521
  0
SEQEND
  0
POLYLINE
  8
Standard
 66
     1
 10
0.0
 20
0.0
 30
0.0
 70
     1
  0
VERTEX
  8
Standard
 10
174.601712003427
 20
20.1980609171789
 42
-0.4297793964022
  0
VERTEX
  8
Standard
 10
176.964993253427
 20
17.6589984171789
 42
0.079332676247
  0
VERTEX
  8
Standard
 10
177.263514554044
 20
7.2099731533987
 42
0.0723272390805
  0
VERTEX
  8
Standard
 10
178.097805753427
 20
4.9832171671789
 42
0.4655946522963
  0
VERTEX
  8
Standard
 10
180.636868253427
 20
5.4129046671789
 42
0.0081612732623
  0
VERTEX
  8
Standard
 10
181.789212003427
 20
7.1511859171789
 42
0.0755912791404
  0
VERTEX
  8
Standard
 10
183.839993253427
 20
18.0105609171789
 42
-0.9720980746607
  0
VERTEX
  8
Standard
 10
188.547024503427
 20
17.7566546671789
 42
0.0069232388129
  0
VERTEX
  8
Standard
 10
188.136868253427
 20
2.5027484171789
 42
-1.0804575515631
  0
VERTEX
  8
Standard
 10
183.390774503427
 20
2.1902484171789
 42
0.0
  0
VERTEX
  8
Standard
 10
183.390774503427
 20
2.0730609171789
 42
-0.2974178286441
  0
VERTEX
  8
Standard
 10
179.113430753427
 20
-0.1925640828211
 42
-0.3262129854573
  0
VERTEX
  8
Standard
 10
173.185797904122
 20
4.3865763902823
 42
-0.0893590412182
  0
VERTEX
  8
Standard
 10
172.066825059732
 20
12.742892480396
 42
-0.0175515906705
  0
VERTEX
  8
Standard
 10
172.257962003427
 20
18.0105609171789
 42
-0.3824663366089
  0
SEQEND
  0
POLYLINE
  8
Standard
 66
     1
 10
0.0
 20
0.0
 30
0.0
 70
     1
  0
VERTEX
  8
Standard
 10
205.011868253427
 20
-0.1535015828211
 42
-0.448679885921
  0
VERTEX
  8
Standard
 10
202.668118253427
 20
2.3660296671789
 42
0.0802096555806
  0
VERTEX
  8
Standard
 10
202.368916143356
 20
12.8052748874023
 42
0.0676171304416
  0
VERTEX
  8
Standard
 10
201.535305753427
 20
15.0418109171789
 42
0.4557738616523
  0
VERTEX
  8
Standard
 10
198.976712003427
 20
14.6316546671789
 42
0.0066663703967
  0
VERTEX
  8
Standard
 10
197.843899503427
 20
12.8933734171789
 42
0.074357896664
  0
VERTEX
  8
Standard
 10
195.793118253427
 20
2.0144671671789
 42
-0.9662865498354
  0
VERTEX
  8
Standard
 10
191.066555753427
 20
2.2488421671789
 42
0.0065075272962
  0
VERTEX
  8
Standard
 10
191.515774503427
 20
17.9129046671789
 42
-0.9825433081613
  0
VERTEX
  8
Standard
 10
196.242337003427
 20
17.8347796671789
 42
0.0
  0
VERTEX
  8
Standard
 10
196.242337003427
 20
17.9519671671789
 42
-0.2960727955623
  0
VERTEX
  8
Standard
 10
200.500149503427
 20
20.2371234171789
 42
-0.2337602140466
  0
VERTEX
  8
Standard
 10
204.914212003427
 20
18.1472796671789
 42
-0.1500956379925
  0
VERTEX
  8
Standard
 10
207.199368253427
 20
12.5027484171789
 42
-0.0505717485941
  0
VERTEX
  8
Standard
 10
207.375149503427
 20
1.9949359171789
 42
-0.3684700722608
  0
SEQEND
  0
POLYLINE
  8
Standard
 66
     1
 10
0.0
 20
0.0
 30
0.0
 70
     1
  0
VERTEX
  8
Standard
 10
222.179837003427
 20
-0.1535015828211
 42
-0.2868852738664
  0
VERTEX
  8
Standard
 10
210.168118253427
 20
8.0300921671789
 42
-0.2598639491858
  0
VERTEX
  8
Standard
 10
210.441555753427
 20
17.4832171671789
 42
-0.3685789061529
  0
VERTEX
  8
Standard
 10
218.488430753427
 20
19.6121234171789
 42
-0.087687443283
  0
VERTEX
  8
Standard
 10
220.36353499617
 20
18.3944883540456
 42
-0.1609473971846
  0
VERTEX
  8
Standard
 10
220.617337003427
 20
17.8347796671789
 42
-0.0101399740779
  0
VERTEX
  8
Standard
 10
220.851712003427
 20
29.8074359171789
 42
-0.9922863492685
  0
VERTEX
  8
Standard
 10
225.558743253427
 20
29.5339984171789
 42
0.0215818635872
  0
VERTEX
  8
Standard
 10
225.597805753427
 20
2.3464984171789
 42
-0.4100943646841
  0
VERTEX
  8
Standard
 10
223.507962003427
 20
-0.0753765828211
 42
-0.0269276735802
  0
SEQEND
  0
POLYLINE
  8
Standard
 66
     1
 10
0.0
 20
0.0
 30
0.0
 70
     1
  0
VERTEX
  8
Standard
 10
220.617337003427
 20
12.1902484171789
 42
-0.2036048233854
  0
VERTEX
  8
Standard
 10
219.172024503427
 20
13.1277484171789
 42
0.1894200786798
  0
VERTEX
  8
Standard
 10
215.92295902131
 20
15.487218752373
 42
0.3920362905827
  0
VERTEX
  8
Standard
 10
214.250149503427
 20
14.6511859171789
 42
0.2151488701417
  0
VERTEX
  8
Standard
 10
214.562649503427
 20
9.7879046671789
 42
0.2044028558712
  0
VERTEX
  8
Standard
 10
218.547024503427
 20
5.4519671671789
 42
0.0870690009541
  0
VERTEX
  8
Standard
 10
220.812649503427
 20
4.6121234171789
 42
-0.0046221518068
  0
SEQEND
  0
POLYLINE
  8
Standard
 66
     1
 10
0.0
 20
0.0
 30
0.0
 70
     1
  0
VERTEX
  8
Standard
 10
244.864221437642
 20
-0.1144390828211
 42
-0.2378055181066
  0
VERTEX
  8
Standard
 10
240.508752687642
 20
2.3269671671789
 42
-0.1397034146982
  0
VERTEX
  8
Standard
 10
238.321252687642
 20
6.6043109171789
 42
-0.062950242449
  0
VERTEX
  8
Standard
 10
237.735315187642
 20
18.1472796671789
 42
-0.9903154579654
  0
VERTEX
  8
Standard
 10
242.442346437642
 20
17.6394671671789
 42
0.0712121081265
  0
VERTEX
  8
Standard
 10
242.950158937642
 20
7.5613421671789
 42
0.1041570611679
  0
VERTEX
  8
Standard
 10
244.063440187642
 20
5.0027484171789
 42
0.4784281839795
  0
VERTEX
  8
Standard
 10
245.762658937642
 20
5.0027484171789
 42
0.1162582147414
  0
VERTEX
  8
Standard
 10
247.520471437642
 20
9.1238421671789
 42
0.0590223191887
  0
VERTEX
  8
Standard
 10
248.360315187642
 20
17.8152484171789
 42
-1.0044532189405
  0
VERTEX
  8
Standard
 10
253.067346437642
 20
17.9519671671789
 42
-0.0694920191098
  0
VERTEX
  8
Standard
 10
251.700158937642
 20
6.3699359171789
 42
-0.1979455289638
  0
VERTEX
  8
Standard
 10
247.168908937642
 20
0.3347796671789
 42
-0.1126437949236
  0
SEQEND
  0
POLYLINE
  8
Standard
 66
     1
 10
0.0
 20
0.0
 30
0.0
 70
     1
  0
VERTEX
  8
Standard
 10
256.895471437642
 20
-0.1535015828211
 42
-0.4208910698383
  0
VERTEX
  8
Standard
 10
254.532190187642
 20
2.2683734171789
 42
0.0048066111524
  0
VERTEX
  8
Standard
 10
254.942346437642
 20
17.8933734171789
 42
-0.9736099666772
  0
VERTEX
  8
Standard
 10
259.668908937642
 20
17.9714984171789
 42
-0.0003623750624
  0
VERTEX
  8
Standard
 10
259.258752687642
 20
2.1121234171789
 42
-0.3948265708132
  0
SEQEND
  0
POLYLINE
  8
Standard
 66
     1
 10
0.0
 20
0.0
 30
0.0
 70
     1
  0
VERTEX
  8
Standard
 10
259.766565187642
 20
25.2957171671789
 42
-5.0769679558133
  0
VERTEX
  8
Standard
 10
259.082971437642
 20
26.9558734171789
 42
-0.2070975418854
  0
SEQEND
  0
POLYLINE
  8
Standard
 66
     1
 10
0.0
 20
0.0
 30
0.0
 70
     1
  0
VERTEX
  8
Standard
 10
270.332971437642
 20
-0.2706890828211
 42
-0.416011959341
  0
VERTEX
  8
Standard
 10
261.211877687642
 20
9.1043109171789
 42
-0.3021116664333
  0
VERTEX
  8
Standard
 10
266.641565187642
 20
19.2019671671789
 42
-0.2817267799468
  0
VERTEX
  8
Standard
 10
274.493127687642
 20
18.9480609171789
 42
-0.3788920572977
  0
VERTEX
  8
Standard
 10
276.563440187642
 20
11.4089984171789
 42
-0.2083781838127
  0
VERTEX
  8
Standard
 10
271.407190187642
 20
6.9168109171789
 42
-0.1153951776957
  0
VERTEX
  8
Standard
 10
266.446252687642
 20
6.3894671671789
 42
0.3225280876397
  0
VERTEX
  8
Standard
 10
271.778283937642
 20
4.6707171671789
 42
0.216613670739
  0
VERTEX
  8
Standard
 10
273.145471437642
 20
5.9011859171789
 42
-1.0044943593776
  0
VERTEX
  8
Standard
 10
277.500940187642
 20
4.1238421671789
 42
-0.2138263927222
  0
VERTEX
  8
Standard
 10
273.536096437642
 20
0.3933734171789
 42
-0.0984893017412
  0
SEQEND
  0
POLYLINE
  8
Standard
 66
     1
 10
0.0
 20
0.0
 30
0.0
 70
     1
  0
VERTEX
  8
Standard
 10
266.055627687642
 20
11.1160296671789
 42
0.2234915489654
  0
VERTEX
  8
Standard
 10
271.290002687642
 20
12.1121234171789
 42
0.2939084212483
  0
VERTEX
  8
Standard
 10
272.422815187642
 20
13.9480609171789
 42
0.3651637937182
  0
VERTEX
  8
Standard
 10
270.215783937642
 20
15.4129046671789
 42
0.3313202329521
  0
SEQEND
  0
POLYLINE
  8
Standard
 66
     1
 10
0.0
 20
0.0
 30
0.0
 70
     1
  0
VERTEX
  8
Standard
 10
281.817346437642
 20
-0.1535015828211
 42
-0.4208910698383
  0
VERTEX
  8
Standard
 10
279.454065187642
 20
2.2683734171789
 42
0.000322106413
  0
VERTEX
  8
Standard
 10
279.903283937642
 20
29.7488421671789
 42
-0.9612372453073
  0
VERTEX
  8
Standard
 10
284.629846437642
 20
29.9441546671789
 42
-0.0032788767917
  0
VERTEX
  8
Standard
 10
284.180627687642
 20
2.1121234171789
 42
-0.3948265708132
  0
SEQEND
  0
POLYLINE
  8
Standard
 66
     1
 10
0.0
 20
0.0
 30
0.0
 70
     1
  0
VERTEX
  8
Standard
 10
316.669699621856
 20
3.3816546671789
 42
-0.4326141642024
  0
VERTEX
  8
Standard
 10
313.896262121856
 20
0.6277484171789
 42
-0.0349480553134
  0
VERTEX
  8
Standard
 10
302.353293371856
 20
-0.1144390828211
 42
-0.1609138686166
  0
VERTEX
  8
Standard
 10
297.784669947402
 20
0.9216551152178
 42
-0.2246782920313
  0
VERTEX
  8
Standard
 10
296.572043371856
 20
3.5183734171789
 42
-0.017849341186
  0
VERTEX
  8
Standard
 10
296.454855871856
 20
25.4129046671789
 42
-0.1628310153398
  0
VERTEX
  8
Standard
 10
297.157980871856
 20
28.4402484171789
 42
-0.1819766830502
  0
VERTEX
  8
Standard
 10
299.833762121856
 20
29.6707171671789
 42
-0.0332022825013
  0
VERTEX
  8
Standard
 10
311.005637121856
 20
29.9832171671789
 42
0.0182865658812
  0
VERTEX
  8
Standard
 10
313.154074621856
 20
29.9246234171789
 42
-1.0041579862219
  0
VERTEX
  8
Standard
 10
313.075949621856
 20
25.2175921671789
 42
0.0412995437433
  0
VERTEX
  8
Standard
 10
301.161887121856
 20
25.1394671671789
 42
0.012199677192
  0
VERTEX
  8
Standard
 10
301.044699621856
 20
15.2175921671789
 42
0.0
  0
VERTEX
  8
Standard
 10
301.044699621856
 20
15.4910296671789
 42
0.0462795347182
  0
VERTEX
  8
Standard
 10
312.958762121856
 20
15.7644671671789
 42
-0.9988190142886
  0
VERTEX
  8
Standard
 10
313.700949621856
 20
11.1355609171789
 42
-0.0225472399659
  0
VERTEX
  8
Standard
 10
301.025168371856
 20
10.7839984171789
 42
0.0136877233132
  0
VERTEX
  8
Standard
 10
301.200949621856
 20
4.6511859171789
 42
0.0464859099234
  0
VERTEX
  8
Standard
 10
313.974387121856
 20
5.3933734171789
 42
-0.4193413822103
  0
SEQEND
  0
POLYLINE
  8
Standard
 66
     1
 10
0.0
 20
0.0
 30
0.0
 70
     1
  0
VERTEX
  8
Standard
 10
320.888449621856
 20
-0.1535015828211
 42
-0.4268925752621
  0
VERTEX
  8
Standard
 10
318.544699621856
 20
2.2683734171789
 42
0.0067745615
  0
VERTEX
  8
Standard
 10
318.935324621856
 20
17.8933734171789
 42
-0.9736099666772
  0
VERTEX
  8
Standard
 10
323.661887121856
 20
17.9714984171789
 42
0.0
  0
VERTEX
  8
Standard
 10
323.661887121856
 20
18.1472796671789
 42
-0.2923102166501
  0
VERTEX
  8
Standard
 10
327.587668371856
 20
20.2371234171789
 42
-0.3274398462783
  0
VERTEX
  8
Standard
 10
333.26257296039
 20
15.8846520189985
 42
-0.0453607810083
  0
VERTEX
  8
Standard
 10
333.974387121856
 20
13.3035296671789
 42
-1.0921204803456
  0
VERTEX
  8
Standard
 10
329.365012121856
 20
12.5613421671789
 42
0.0942436018081
  0
VERTEX
  8
Standard
 10
328.349387121856
 20
15.1785296671789
 42
0.4364245466685
  0
VERTEX
  8
Standard
 10
326.923605871856
 20
15.2566546671789
 42
0.1137308851386
  0
VERTEX
  8
Standard
 10
325.185324621856
 20
12.6199359171789
 42
0.0787113699492
  0
VERTEX
  8
Standard
 10
323.251730871856
 20
2.0144671671789
 42
-0.3776542669359
  0
SEQEND
  0
POLYLINE
  8
Standard
 66
     1
 10
0.0
 20
0.0
 30
0.0
 70
     1
  0
VERTEX
  8
Standard
 10
351.240012121856
 20
12.2488421671789
 42
-0.4131251599264
  0
VERTEX
  8
Standard
 10
349.247824621856
 20
9.6121234171789
 42
0.0
  0
VERTEX
  8
Standard
 10
341.454855871856
 20
8.5964984171789
 42
-0.0005051431481
  0
VERTEX
  8
Standard
 10
341.650168371856
 20
2.2683734171789
 42
-1.0156891146331
  0
VERTEX
  8
Standard
 10
336.923605871856
 20
2.2683734171789
 42
0.020181208929
  0
VERTEX
  8
Standard
 10
336.747824621856
 20
8.0691546671789
 42
-0.0477294460737
  0
VERTEX
  8
Standard
 10
337.099387121856
 20
8.0496234171789
 42
-0.9947735549486
  0
VERTEX
  8
Standard
 10
336.591574621856
 20
12.7371234171789
 42
0.0
  0
VERTEX
  8
Standard
 10
336.650168371856
 20
12.7371234171789
 42
-0.0579751726545
  0
VERTEX
  8
Standard
 10
337.587668371856
 20
26.3113421671789
 42
-0.1416936950042
  0
VERTEX
  8
Standard
 10
339.657980871856
 20
30.3738421671789
 42
-0.3710323947628
  0
VERTEX
  8
Standard
 10
346.298605871856
 20
31.2332171671789
 42
-0.1762273415443
  0
VERTEX
  8
Standard
 10
350.16678815108
 20
25.8188540955711
 42
-0.0445528925484
  0
VERTEX
  8
Standard
 10
350.966574621856
 20
22.2879046671789
 42
-0.502197473437
  0
VERTEX
  8
Standard
 10
348.642355871856
 20
19.6121234171789
 42
-0.3770101170628
  0
VERTEX
  8
Standard
 10
346.298605871856
 20
21.5457171671789
 42
0.1011737002157
  0
VERTEX
  8
Standard
 10
344.872824621856
 20
26.0964984171789
 42
0.2329405648404
  0
VERTEX
  8
Standard
 10
343.466574621856
 20
27.3660296671789
 42
0.201110724307
  0
VERTEX
  8
Standard
 10
342.197043371856
 20
25.2175921671789
 42
0.0522283660949
  0
VERTEX
  8
Standard
 10
341.357199621856
 20
13.2839984171789
 42
0.0
  0
VERTEX
  8
Standard
 10
348.544699621856
 20
14.2605609171789
 42
-0.420169422069
  0
SEQEND
  0
POLYLINE
  8
Standard
 66
     1
 10
0.0
 20
0.0
 30
0.0
 70
     1
  0
VERTEX
  8
Standard
 10
360.341574621856
 20
-0.2706890828211
 42
-0.3384292496859
  0
VERTEX
  8
Standard
 10
352.730822333511
 20
5.9030100054489
 42
-0.2208584139997
  0
VERTEX
  8
Standard
 10
354.247824621856
 20
16.0574359171789
 42
-0.2319868339719
  0
VERTEX
  8
Standard
 10
361.044699621856
 20
20.1004046671789
 42
-0.5117741013107
  0
VERTEX
  8
Standard
 10
363.5984245563
 20
17.2249384801711
 42
-0.3369839371979
  0
VERTEX
  8
Standard
 10
363.036887121856
 20
16.7019671671789
 42
-0.3038039532594
  0
VERTEX
  8
Standard
 10
363.876730871856
 20
16.7019671671789
 42
-0.2116633335042
  0
VERTEX
  8
Standard
 10
367.997824621856
 20
13.0105609171789
 42
-0.2863691616321
  0
VERTEX
  8
Standard
 10
365.907980871856
 20
2.1511859171789
 42
-0.2337087469212
  0
SEQEND
  0
POLYLINE
  8
Standard
 66
     1
 10
0.0
 20
0.0
 30
0.0
 70
     1
  0
VERTEX
  8
Standard
 10
361.532980871856
 20
15.4129046671789
 42
0.3290168412738
  0
VERTEX
  8
Standard
 10
357.255637121856
 20
11.3113421671789
 42
0.2307692307692
  0
VERTEX
  8
Standard
 10
358.017355871856
 20
5.6472796671789
 42
0.4982401576161
  0
VERTEX
  8
Standard
 10
362.665793371856
 20
5.6277484171789
 42
0.2600295394458
  0
VERTEX
  8
Standard
 10
363.720480871856
 20
11.1355609171789
 42
0.2130435626568
  0
VERTEX
  8
Standard
 10
362.529074621856
 20
12.1902484171789
 42
-0.4967095500152
  0
VERTEX
  8
Standard
 10
361.181418371856
 20
15.6668109171789
 42
-0.6219339599308
  0
VERTEX
  8
Standard
 10
361.454855871856
 20
15.4519671671789
 42
-0.3851871706601
  0
VERTEX
  8
Standard
 10
361.560426884822
 20
15.4264828618895
 42
-0.0513234035742
  0
SEQEND
  0
POLYLINE
  8
Standard
 66
     1
 10
0.0
 20
0.0
 30
0.0
 70
     1
  0
VERTEX
  8
Standard
 10
372.607199621856
 20
-0.1535015828211
 42
-0.4208910698383
  0
VERTEX
  8
Standard
 10
370.243918371856
 20
2.2683734171789
 42
0.000322106413
  0
VERTEX
  8
Standard
 10
370.693137121856
 20
29.7488421671789
 42
-0.9612372453067
  0
VERTEX
  8
Standard
 10
375.419699621856
 20
29.9441546671789
 42
-0.0032788767917
  0
VERTEX
  8
Standard
 10
374.970480871856
 20
2.1121234171789
 42
-0.3948265708132
  0
SEQEND
  0
POLYLINE
  8
Standard
 66
     1
 10
0.0
 20
0.0
 30
0.0
 70
     1
  0
VERTEX
  8
Standard
 10
387.450949621856
 20
3.5574359171789
 42
-0.0484240017817
  0
VERTEX
  8
Standard
 10
387.133555882893
 20
0.4470676632715
 42
-0.4729694884068
  0
VERTEX
  8
Standard
 10
387.118918371856
 20
0.6277484171789
 42
-0.5040778377275
  0
VERTEX
  8
Standard
 10
391.298605871856
 20
-7.8488140828211
 42
-0.6020803239017
  0
VERTEX
  8
Standard
 10
378.407980871856
 20
-8.2199078328211
 42
-0.3801753027157
  0
VERTEX
  8
Standard
 10
381.220480871856
 20
-0.4269390828211
 42
-0.0561960185067
  0
VERTEX
  8
Standard
 10
382.353293371856
 20
0.1199359171789
 42
-0.0256789873133
  0
VERTEX
  8
Standard
 10
382.724387121856
 20
3.3621234171789
 42
-0.3628135846959
  0
VERTEX
  8
Standard
 10
376.689230871856
 20
10.9988421671789
 42
-0.4065779019817
  0
VERTEX
  8
Standard
 10
385.517355871856
 20
20.1004046671789
 42
-0.4570231510751
  0
VERTEX
  8
Standard
 10
388.071564907087
 20
17.6190147360961
 42
-0.3773020769634
  0
VERTEX
  8
Standard
 10
387.941512989028
 20
17.5109877727669
 42
-0.4144703314967
  0
VERTEX
  8
Standard
 10
393.075949621856
 20
10.1785296671789
 42
-0.276459586163
  0
SEQEND
  0
POLYLINE
  8
Standard
 66
     1
 10
0.0
 20
0.0
 30
0.0
 70
     1
  0
VERTEX
  8
Standard
 10
381.415793371856
 20
11.0574359171789
 42
0.4345523019124
  0
VERTEX
  8
Standard
 10
384.755637121856
 20
7.8347796671789
 42
0.3897913590482
  0
VERTEX
  8
Standard
 10
388.427512121856
 20
10.9402484171789
 42
0.4409176503574
  0
VERTEX
  8
Standard
 10
387.021262121856
 20
12.8543109171789
 42
-0.4193833827474
  0
VERTEX
  8
Standard
 10
385.322043371856
 20
15.7644671671789
 42
0.0
  0
VERTEX
  8
Standard
 10
385.380637121856
 20
15.4129046671789
 42
0.3959173006556
  0
SEQEND
  0
POLYLINE
  8
Standard
 66
     1
 10
0.0
 20
0.0
 30
0.0
 70
     1
  0
VERTEX
  8
Standard
 10
387.236105871856
 20
-5.0753765828211
 42
0.4076705139007
  0
VERTEX
  8
Standard
 10
385.673605871856
 20
-3.8839703328211
 42
0.3993203880068
  0
VERTEX
  8
Standard
 10
382.626730871856
 20
-5.9738140828211
 42
0.3547022232648
  0
VERTEX
  8
Standard
 10
384.794699621856
 20
-7.2238140828211
 42
0.3928155407692
  0
SEQEND
  0
ENDSEC
  0
EOF
