  0
SECTION
  2
HEADER
  9
$ACADVER
  1
AC1009
  9
$EXTMAX
 10
229.579711914063
 20
39.3429870605469
 30
0.0
  9
$EXTMIN
 10
1.1338338851929
 20
0.4832277595997
 30
0.0
  9
$INSUNITS
 70
     4
  9
$LUNITS
 70
     2
  9
$LUPREC
 70
     4
  9
$MEASUREMENT
 70
     1
  0
ENDSEC
  0
SECTION
  2
TABLES
  0
TABLE
  2
LAYER
 70
     1
  0
LAYER
  2
0
 70
     0
 62
     7
  6
Continuous
  0
LAYER
  2
Standard
 70
     0
 62
    70
  6
Continuous
  0
ENDTAB
  0
TABLE
  2
APPID
 70
     1
  0
APPID
  2
ACAD
 70
     0
  0
ENDTAB
  0
ENDSEC
  0
SECTION
  2
ENTITIES
  0
POLYLINE
  8
Standard
 66
     1
 10
0.0
 20
0.0
 30
0.0
 70
     1
  0
VERTEX
  8
Standard
 10
32.3088832718042
 20
12.6941652606034
 42
-0.3799682291045
  0
VERTEX
  8
Standard
 10
30.1526332718042
 20
9.6004152606034
 42
-0.0435058671309
  0
VERTEX
  8
Standard
 10
27.9729457718042
 20
9.2957277606034
 42
-0.1735432330947
  0
VERTEX
  8
Standard
 10
25.5354457718042
 20
4.6785402606034
 42
-0.4446736381644
  0
VERTEX
  8
Standard
 10
4.8635707718042
 20
5.8738527606034
 42
-0.1657086642885
  0
VERTEX
  8
Standard
 10
1.1370082718042
 20
17.3113527606034
 42
-0.1461330143655
  0
VERTEX
  8
Standard
 10
4.7229457718042
 20
30.5066652606034
 42
-0.226966187798
  0
VERTEX
  8
Standard
 10
13.6995082718042
 20
36.8347902606034
 42
-0.2224412524256
  0
VERTEX
  8
Standard
 10
21.3635707718042
 20
34.3269777606034
 42
-0.1458052986046
  0
VERTEX
  8
Standard
 10
26.0745082718042
 20
25.5613527606034
 42
-0.9907060238829
  0
VERTEX
  8
Standard
 10
20.5666957718042
 20
24.1551027606034
 42
0.1451756043086
  0
VERTEX
  8
Standard
 10
17.5666957718042
 20
30.1316652606034
 42
0.3974880541301
  0
VERTEX
  8
Standard
 10
11.8713832718042
 20
30.0379152606034
 42
0.1712291353652
  0
VERTEX
  8
Standard
 10
7.4885707718042
 20
22.8426027606034
 42
0.1019380823337
  0
VERTEX
  8
Standard
 10
7.0375285878531
 20
14.3414169288642
 42
0.1459141167048
  0
VERTEX
  8
Standard
 10
9.9729457718042
 20
8.6394777606034
 42
0.2933985474559
  0
VERTEX
  8
Standard
 10
18.9026332718042
 20
6.8582277606034
 42
0.0942596156621
  0
VERTEX
  8
Standard
 10
22.2073207718042
 20
9.2019777606034
 42
-0.0214329217707
  0
VERTEX
  8
Standard
 10
16.6057582718042
 20
9.5535402606034
 42
-1.0473121899179
  0
VERTEX
  8
Standard
 10
17.4963832718042
 20
15.1082277606034
 42
0.0574418880477
  0
VERTEX
  8
Standard
 10
28.9807582718042
 20
15.1316652606034
 42
-0.4340174128686
  0
SEQEND
  0
POLYLINE
  8
Standard
 66
     1
 10
0.0
 20
0.0
 30
0.0
 70
     1
  0
VERTEX
  8
Standard
 10
44.9885707718042
 20
0.4832277606034
 42
-0.416011959341
  0
VERTEX
  8
Standard
 10
34.0432582718042
 20
11.7332277606034
 42
-0.3021116664333
  0
VERTEX
  8
Standard
 10
40.5588832718042
 20
23.8504152606034
 42
-0.2817267799468
  0
VERTEX
  8
Standard
 10
49.9807582718042
 20
23.5457277606034
 42
-0.3788920572977
  0
VERTEX
  8
Standard
 10
52.4651332718042
 20
14.4988527606034
 42
-0.2083781838127
  0
VERTEX
  8
Standard
 10
46.2776332718042
 20
9.1082277606034
 42
-0.1153951776957
  0
VERTEX
  8
Standard
 10
40.3245082718042
 20
8.4754152606034
 42
0.0113826955832
  0
VERTEX
  8
Standard
 10
42.2229457718042
 20
6.8816652606034
 42
0.3221419699768
  0
VERTEX
  8
Standard
 10
47.7031803274715
 20
6.9735058284856
 42
0.1291953524607
  0
VERTEX
  8
Standard
 10
48.3635707718042
 20
7.8894777606034
 42
-1.0044943593776
  0
VERTEX
  8
Standard
 10
53.5901332718042
 20
5.7566652606034
 42
-0.2138263927222
  0
VERTEX
  8
Standard
 10
48.8323207718042
 20
1.2801027606034
 42
-0.0984893017412
  0
SEQEND
  0
POLYLINE
  8
Standard
 66
     1
 10
0.0
 20
0.0
 30
0.0
 70
     1
  0
VERTEX
  8
Standard
 10
39.8557582718042
 20
14.1472902606034
 42
0.2234915489654
  0
VERTEX
  8
Standard
 10
46.1370082718042
 20
15.3426027606034
 42
0.2939084212483
  0
VERTEX
  8
Standard
 10
47.4963832718042
 20
17.5457277606034
 42
0.3638101295243
  0
VERTEX
  8
Standard
 10
45.4104457718042
 20
19.3035402606034
 42
0.2516859833264
  0
VERTEX
  8
Standard
 10
41.4026332718042
 20
17.4519777606034
 42
0.1471933690692
  0
SEQEND
  0
POLYLINE
  8
Standard
 66
     1
 10
0.0
 20
0.0
 30
0.0
 70
     1
  0
VERTEX
  8
Standard
 10
58.7698207718042
 20
0.6238527606034
 42
-0.4208910698383
  0
VERTEX
  8
Standard
 10
55.9338832718042
 20
3.5301027606034
 42
0.000322106413
  0
VERTEX
  8
Standard
 10
56.4729457718042
 20
36.5066652606034
 42
-0.681342884179
  0
VERTEX
  8
Standard
 10
61.3010707718042
 20
38.4754152606034
 42
-0.200577468906
  0
VERTEX
  8
Standard
 10
62.1448207718042
 20
36.7410402606034
 42
-0.0032788767917
  0
VERTEX
  8
Standard
 10
61.6057582718042
 20
3.3426027606034
 42
-0.3948265708132
  0
SEQEND
  0
POLYLINE
  8
Standard
 66
     1
 10
0.0
 20
0.0
 30
0.0
 70
     1
  0
VERTEX
  8
Standard
 10
74.6604457718042
 20
0.4832277606034
 42
-0.416011959341
  0
VERTEX
  8
Standard
 10
63.7151332718042
 20
11.7332277606034
 42
-0.3021116664333
  0
VERTEX
  8
Standard
 10
70.2307582718042
 20
23.8504152606034
 42
-0.2817267799468
  0
VERTEX
  8
Standard
 10
79.6526332718042
 20
23.5457277606034
 42
-0.3788920572977
  0
VERTEX
  8
Standard
 10
82.1370082718042
 20
14.4988527606034
 42
-0.2083781838127
  0
VERTEX
  8
Standard
 10
75.9495082718042
 20
9.1082277606034
 42
-0.1153951776957
  0
VERTEX
  8
Standard
 10
69.9963832718042
 20
8.4754152606034
 42
0.0113826955832
  0
VERTEX
  8
Standard
 10
71.8948207718042
 20
6.8816652606034
 42
0.3221419699768
  0
VERTEX
  8
Standard
 10
77.3750553274715
 20
6.9735058284856
 42
0.1291953524607
  0
VERTEX
  8
Standard
 10
78.0354457718042
 20
7.8894777606034
 42
-1.0044943593776
  0
VERTEX
  8
Standard
 10
83.2620082718042
 20
5.7566652606034
 42
-0.2138263927222
  0
VERTEX
  8
Standard
 10
78.5041957718042
 20
1.2801027606034
 42
-0.0984893017412
  0
SEQEND
  0
POLYLINE
  8
Standard
 66
     1
 10
0.0
 20
0.0
 30
0.0
 70
     1
  0
VERTEX
  8
Standard
 10
69.5276332718042
 20
14.1472902606034
 42
0.2234915489654
  0
VERTEX
  8
Standard
 10
75.8088832718042
 20
15.3426027606034
 42
0.2939084212483
  0
VERTEX
  8
Standard
 10
77.1682582718042
 20
17.5457277606034
 42
0.3638101295243
  0
VERTEX
  8
Standard
 10
75.0823207718042
 20
19.3035402606034
 42
0.2516859833264
  0
VERTEX
  8
Standard
 10
71.0745082718042
 20
17.4519777606034
 42
0.1471933690692
  0
SEQEND
  0
POLYLINE
  8
Standard
 66
     1
 10
0.0
 20
0.0
 30
0.0
 70
     1
  0
VERTEX
  8
Standard
 10
104.858269592862
 20
23.2879152606034
 42
-0.4539807459011
  0
VERTEX
  8
Standard
 10
107.600457092862
 20
26.2176027606034
 42
-0.4334463603669
  0
VERTEX
  8
Standard
 10
110.530144592862
 20
23.2176027606034
 42
0.0
  0
VERTEX
  8
Standard
 10
110.530144592862
 20
18.9285402606034
 42
0.0
  0
VERTEX
  8
Standard
 10
115.381707092862
 20
19.1160402606034
 42
-1.0310879843512
  0
VERTEX
  8
Standard
 10
115.217644592862
 20
13.4676027606034
 42
0.0
  0
VERTEX
  8
Standard
 10
110.553582092862
 20
13.2801027606034
 42
0.0
  0
VERTEX
  8
Standard
 10
110.600457092862
 20
8.4285402606034
 42
-1.0361266339589
  0
VERTEX
  8
Standard
 10
104.952019592862
 20
8.2879152606034
 42
0.0
  0
VERTEX
  8
Standard
 10
104.905144592862
 20
13.0926027606034
 42
0.0
  0
VERTEX
  8
Standard
 10
100.428582092862
 20
12.8816652606034
 42
-1.0668792087129
  0
VERTEX
  8
Standard
 10
100.592644592862
 20
18.5301027606034
 42
0.0
  0
VERTEX
  8
Standard
 10
104.858269592862
 20
18.6941652606034
 42
0.0
  0
SEQEND
  0
POLYLINE
  8
Standard
 66
     1
 10
0.0
 20
0.0
 30
0.0
 70
     1
  0
VERTEX
  8
Standard
 10
153.993593413919
 20
36.9051027606034
 42
-0.3990934716444
  0
VERTEX
  8
Standard
 10
156.806093413919
 20
34.0222902606034
 42
-0.001649580271
  0
VERTEX
  8
Standard
 10
156.173280913919
 20
3.3894777606034
 42
-1.0084613876485
  0
VERTEX
  8
Standard
 10
150.524843413919
 20
3.6238527606034
 42
0.002297381521
  0
VERTEX
  8
Standard
 10
150.712343413919
 20
11.1004152606034
 42
-0.0681201349421
  0
VERTEX
  8
Standard
 10
137.985780913919
 20
11.1004152606034
 42
-0.204148052616
  0
VERTEX
  8
Standard
 10
137.88965815519
 20
11.1090362198662
 42
-0.0281293332503
  0
VERTEX
  8
Standard
 10
138.149843413919
 20
11.1472902606034
 42
-0.0022822527079
  0
VERTEX
  8
Standard
 10
137.962343413919
 20
3.3894777606034
 42
-1.0084613876485
  0
VERTEX
  8
Standard
 10
132.313905913919
 20
3.6238527606034
 42
0.0017470352413
  0
VERTEX
  8
Standard
 10
132.923280913919
 20
34.1394777606034
 42
-0.6721939062694
  0
VERTEX
  8
Standard
 10
137.751405913919
 20
36.0379152606034
 42
-0.1932069083987
  0
VERTEX
  8
Standard
 10
138.595155913919
 20
34.4207277606034
 42
0.0
  0
VERTEX
  8
Standard
 10
138.243593413919
 20
16.7019777606034
 42
-0.0417869164639
  0
VERTEX
  8
Standard
 10
138.207686052144
 20
16.714690488673
 42
-0.0123370358877
  0
VERTEX
  8
Standard
 10
144.430417895946
 20
16.3524992623547
 42
-0.0521352187384
  0
VERTEX
  8
Standard
 10
150.797098125813
 20
16.7197397457988
 42
-0.7475185153518
  0
VERTEX
  8
Standard
 10
150.806093413919
 20
16.7019777606034
 42
0.0
  0
VERTEX
  8
Standard
 10
151.134218413919
 20
34.1160402606034
 42
-0.4191068744601
  0
SEQEND
  0
POLYLINE
  8
Standard
 66
     1
 10
0.0
 20
0.0
 30
0.0
 70
     1
  0
VERTEX
  8
Standard
 10
170.259218413919
 20
0.4832277606034
 42
-0.416011959341
  0
VERTEX
  8
Standard
 10
159.313905913919
 20
11.7332277606034
 42
-0.3021116664333
  0
VERTEX
  8
Standard
 10
165.829530913919
 20
23.8504152606034
 42
-0.2817267799468
  0
VERTEX
  8
Standard
 10
175.251405913919
 20
23.5457277606034
 42
-0.3788920572977
  0
VERTEX
  8
Standard
 10
177.735780913919
 20
14.4988527606034
 42
-0.2083781838127
  0
VERTEX
  8
Standard
 10
171.548280913919
 20
9.1082277606034
 42
-0.1153951776957
  0
VERTEX
  8
Standard
 10
165.595155913919
 20
8.4754152606034
 42
0.0113826955832
  0
VERTEX
  8
Standard
 10
167.493593413919
 20
6.8816652606034
 42
0.3221419699768
  0
VERTEX
  8
Standard
 10
172.973827969587
 20
6.9735058284856
 42
0.1291953524607
  0
VERTEX
  8
Standard
 10
173.634218413919
 20
7.8894777606034
 42
-1.0044943593776
  0
VERTEX
  8
Standard
 10
178.860780913919
 20
5.7566652606034
 42
-0.2138263927222
  0
VERTEX
  8
Standard
 10
174.102968413919
 20
1.2801027606034
 42
-0.0984893017412
  0
SEQEND
  0
POLYLINE
  8
Standard
 66
     1
 10
0.0
 20
0.0
 30
0.0
 70
     1
  0
VERTEX
  8
Standard
 10
165.126405913919
 20
14.1472902606034
 42
0.2234915489654
  0
VERTEX
  8
Standard
 10
171.407655913919
 20
15.3426027606034
 42
0.2939084212484
  0
VERTEX
  8
Standard
 10
172.767030913919
 20
17.5457277606034
 42
0.3638101295242
  0
VERTEX
  8
Standard
 10
170.681093413919
 20
19.3035402606034
 42
0.2516859833264
  0
VERTEX
  8
Standard
 10
166.673280913919
 20
17.4519777606034
 42
0.1471933690692
  0
SEQEND
  0
POLYLINE
  8
Standard
 66
     1
 10
0.0
 20
0.0
 30
0.0
 70
     1
  0
VERTEX
  8
Standard
 10
185.540468413919
 20
0.6238527606034
 42
-0.2079589407533
  0
VERTEX
  8
Standard
 10
182.142030913919
 20
1.6316652606034
 42
-0.2007655582656
  0
VERTEX
  8
Standard
 10
181.462343413919
 20
3.6238527606034
 42
0.0215818635872
  0
VERTEX
  8
Standard
 10
181.509218413919
 20
36.2488527606034
 42
-0.9663363350196
  0
VERTEX
  8
Standard
 10
187.157655913919
 20
36.5769777606034
 42
-0.0107264877795
  0
VERTEX
  8
Standard
 10
187.462343413919
 20
22.2097902606034
 42
-0.2352803902019
  0
VERTEX
  8
Standard
 10
188.282655913919
 20
23.3582277606034
 42
-0.2390789026973
  0
VERTEX
  8
Standard
 10
195.829530913919
 20
24.7644777606034
 42
-0.3164331755852
  0
VERTEX
  8
Standard
 10
201.243593413919
 20
16.5613527606034
 42
-0.2949454139377
  0
VERTEX
  8
Standard
 10
191.188905913919
 20
1.7019777606034
 42
-0.0953801744114
  0
SEQEND
  0
POLYLINE
  8
Standard
 66
     1
 10
0.0
 20
0.0
 30
0.0
 70
     1
  0
VERTEX
  8
Standard
 10
187.438905913919
 20
15.4363527606034
 42
-0.0020988217854
  0
VERTEX
  8
Standard
 10
187.227968413919
 20
6.3426027606034
 42
0.1183009114935
  0
VERTEX
  8
Standard
 10
192.524843413919
 20
9.1316652606034
 42
0.1089733796214
  0
VERTEX
  8
Standard
 10
195.385823786236
 20
14.3284758679918
 42
0.2529229844269
  0
VERTEX
  8
Standard
 10
194.685486914861
 20
19.0032462717162
 42
0.2875606863555
  0
VERTEX
  8
Standard
 10
192.102968413919
 20
19.0691652606034
 42
0.1134718701768
  0
VERTEX
  8
Standard
 10
189.196718413919
 20
16.5847902606034
 42
-0.2011017867033
  0
SEQEND
  0
POLYLINE
  8
Standard
 66
     1
 10
0.0
 20
0.0
 30
0.0
 70
     1
  0
VERTEX
  8
Standard
 10
206.493593413919
 20
0.6238527606034
 42
-0.2079589407533
  0
VERTEX
  8
Standard
 10
203.095155913919
 20
1.6316652606034
 42
-0.2007655582656
  0
VERTEX
  8
Standard
 10
202.415468413919
 20
3.6238527606034
 42
0.0215818635872
  0
VERTEX
  8
Standard
 10
202.462343413919
 20
36.2488527606034
 42
-0.9663363350195
  0
VERTEX
  8
Standard
 10
208.110780913919
 20
36.5769777606034
 42
-0.0107264877795
  0
VERTEX
  8
Standard
 10
208.415468413919
 20
22.2097902606034
 42
-0.235280390202
  0
VERTEX
  8
Standard
 10
209.235780913919
 20
23.3582277606034
 42
-0.2390789026973
  0
VERTEX
  8
Standard
 10
216.782655913919
 20
24.7644777606034
 42
-0.3164331755852
  0
VERTEX
  8
Standard
 10
222.196718413919
 20
16.5613527606034
 42
-0.2949454139377
  0
VERTEX
  8
Standard
 10
212.142030913919
 20
1.7019777606034
 42
-0.0953801744114
  0
SEQEND
  0
POLYLINE
  8
Standard
 66
     1
 10
0.0
 20
0.0
 30
0.0
 70
     1
  0
VERTEX
  8
Standard
 10
208.392030913919
 20
15.4363527606034
 42
-0.0020988217854
  0
VERTEX
  8
Standard
 10
208.181093413919
 20
6.3426027606034
 42
0.1183009114935
  0
VERTEX
  8
Standard
 10
213.477968413919
 20
9.1316652606034
 42
0.1089733796214
  0
VERTEX
  8
Standard
 10
216.338948786236
 20
14.3284758679918
 42
0.2529229844269
  0
VERTEX
  8
Standard
 10
215.638611914861
 20
19.0032462717162
 42
0.2875606863555
  0
VERTEX
  8
Standard
 10
213.056093413919
 20
19.0691652606034
 42
0.1134718701768
  0
VERTEX
  8
Standard
 10
210.149843413919
 20
16.5847902606034
 42
-0.2011017867033
  0
SEQEND
  0
POLYLINE
  8
Standard
 66
     1
 10
0.0
 20
0.0
 30
0.0
 70
     1
  0
VERTEX
  8
Standard
 10
226.134218413919
 20
0.6238527606034
 42
-0.4208910698383
  0
VERTEX
  8
Standard
 10
223.298280913919
 20
3.5301027606034
 42
0.0048066111524
  0
VERTEX
  8
Standard
 10
223.790468413919
 20
22.2801027606034
 42
-0.9736099666772
  0
VERTEX
  8
Standard
 10
229.462343413919
 20
22.3738527606034
 42
-0.0003623750624
  0
VERTEX
  8
Standard
 10
228.970155913919
 20
3.3426027606034
 42
-0.3948265708132
  0
SEQEND
  0
POLYLINE
  8
Standard
 66
     1
 10
0.0
 20
0.0
 30
0.0
 70
     1
  0
VERTEX
  8
Standard
 10
229.579530913919
 20
31.1629152606034
 42
-5.0769679558147
  0
VERTEX
  8
Standard
 10
228.759218413919
 20
33.1551027606034
 42
-0.2070975418854
  0
SEQEND
  0
ENDSEC
  0
EOF
