  0
SECTION
  2
HEADER
  9
$ACADVER
  1
AC1009
  9
$EXTMAX
 10
135.034912109375
 20
22.4956455230713
 30
0.0
  9
$EXTMIN
 10
-167.102233886719
 20
-26.2818813323975
 30
0.0
  9
$INSUNITS
 70
     4
  9
$LUNITS
 70
     2
  9
$LUPREC
 70
     4
  9
$MEASUREMENT
 70
     1
  0
ENDSEC
  0
SECTION
  2
TABLES
  0
TABLE
  2
LAYER
 70
     1
  0
LAYER
  2
0
 70
     0
 62
     7
  6
Continuous
  0
LAYER
  2
Standard
 70
     0
 62
    70
  6
Continuous
  0
ENDTAB
  0
TABLE
  2
APPID
 70
     1
  0
APPID
  2
ACAD
 70
     0
  0
ENDTAB
  0
ENDSEC
  0
SECTION
  2
ENTITIES
  0
POLYLINE
  8
Standard
 66
     1
 10
0.0
 20
0.0
 30
0.0
 70
     1
  0
VERTEX
  8
Standard
 10
-128.376698412688
 20
12.908548162938
 42
0.0412868223785
  0
VERTEX
  8
Standard
 10
-134.488026537688
 20
8.314798162938
 42
-0.0239108325067
  0
VERTEX
  8
Standard
 10
-153.662831225188
 20
-6.450826837062
 42
0.0
  0
VERTEX
  8
Standard
 10
-156.492909350188
 20
-8.522115899562
 42
-0.0004750048067
  0
VERTEX
  8
Standard
 10
-146.403065600188
 20
-7.558248712062
 42
-0.0661782858804
  0
VERTEX
  8
Standard
 10
-139.095695503619
 20
-7.7228551114255
 42
-0.2096122916405
  0
VERTEX
  8
Standard
 10
-137.254188302283
 20
-8.9477371386081
 42
-0.4563964078085
  0
VERTEX
  8
Standard
 10
-140.353260912688
 20
-12.808248712062
 42
-0.0100111826092
  0
VERTEX
  8
Standard
 10
-144.315961819976
 20
-12.1409025862419
 42
0.0478325173733
  0
VERTEX
  8
Standard
 10
-152.616932787688
 20
-12.377584649562
 42
0.0
  0
VERTEX
  8
Standard
 10
-152.596424975188
 20
-12.377584649562
 42
0.0640009913938
  0
VERTEX
  8
Standard
 10
-164.410742691486
 20
-13.8541650169455
 42
-0.1462552792193
  0
VERTEX
  8
Standard
 10
-166.278717282589
 20
-13.9428816547152
 42
-0.4721076494412
  0
VERTEX
  8
Standard
 10
-166.890370287688
 20
-12.008444024562
 42
-0.1860552885326
  0
VERTEX
  8
Standard
 10
-164.942128100188
 20
-9.547506524562
 42
0.0244832002589
  0
VERTEX
  8
Standard
 10
-144.741932787688
 20
4.787454412938
 42
0.0169142243858
  0
VERTEX
  8
Standard
 10
-136.005604662688
 20
11.637063787938
 42
-0.0259684524921
  0
VERTEX
  8
Standard
 10
-150.668690600188
 20
10.283548162938
 42
-0.0624386489723
  0
VERTEX
  8
Standard
 10
-153.437245287688
 20
10.632180975438
 42
-0.6068624942635
  0
VERTEX
  8
Standard
 10
-154.193544568657
 20
13.9182834757933
 42
-0.1556359271072
  0
VERTEX
  8
Standard
 10
-151.735096850188
 20
15.492532537938
 42
-0.0187138231358
  0
VERTEX
  8
Standard
 10
-149.909901537688
 20
15.020852850438
 42
0.0227234781007
  0
VERTEX
  8
Standard
 10
-138.179432787688
 20
15.389993475438
 42
0.034545156869
  0
VERTEX
  8
Standard
 10
-130.926986718073
 20
16.154652341051
 42
-0.1259519558474
  0
VERTEX
  8
Standard
 10
-127.774578310155
 20
16.3176610565808
 42
-0.428971415473
  0
VERTEX
  8
Standard
 10
-127.351307787688
 20
14.590188787938
 42
-0.1474273445863
  0
SEQEND
  0
POLYLINE
  8
Standard
 66
     1
 10
0.0
 20
0.0
 30
0.0
 70
     1
  0
VERTEX
  8
Standard
 10
-115.661854662688
 20
-5.692037774562
 42
-0.1205900559763
  0
VERTEX
  8
Standard
 10
-125.020359130255
 20
-12.8642967161249
 42
-0.0919950927649
  0
VERTEX
  8
Standard
 10
-128.151112475188
 20
-13.505514337062
 42
-0.346343465427
  0
VERTEX
  8
Standard
 10
-131.216660267302
 20
-10.5980648376034
 42
-0.1386502657159
  0
VERTEX
  8
Standard
 10
-128.92651063868
 20
-2.9755865828779
 42
-0.0026729322526
  0
VERTEX
  8
Standard
 10
-125.181668103709
 20
3.6394894937125
 42
0.0372425770916
  0
VERTEX
  8
Standard
 10
-123.741932787688
 20
6.797220037938
 42
-0.3533164118407
  0
VERTEX
  8
Standard
 10
-119.678574186826
 20
8.3541461229364
 42
-0.3732437198116
  0
VERTEX
  8
Standard
 10
-118.799549975188
 20
6.140970037938
 42
-0.0633685359108
  0
VERTEX
  8
Standard
 10
-121.239979662688
 20
1.998391912938
 42
0.0430478802816
  0
VERTEX
  8
Standard
 10
-126.018299975188
 20
-6.266256524562
 42
0.1171106801767
  0
VERTEX
  8
Standard
 10
-126.409232719589
 20
-8.4632610140097
 42
0.4140187328028
  0
VERTEX
  8
Standard
 10
-125.813221850188
 20
-8.993795587062
 42
0.1337834602954
  0
VERTEX
  8
Standard
 10
-121.899500765626
 20
-7.155155765645
 42
0.104056739455
  0
VERTEX
  8
Standard
 10
-113.488026537688
 20
1.444680975438
 42
-0.0460542071611
  0
VERTEX
  8
Standard
 10
-110.288807787688
 20
6.038430975438
 42
-0.3003235915832
  0
VERTEX
  8
Standard
 10
-107.037404787711
 20
6.9894521529746
 42
-0.4067332480369
  0
VERTEX
  8
Standard
 10
-106.556385912688
 20
4.746438787938
 42
-0.0407993703341
  0
VERTEX
  8
Standard
 10
-107.376698412688
 20
3.351907537938
 42
0.0948817086194
  0
VERTEX
  8
Standard
 10
-112.231912519495
 20
-7.980802856682
 42
0.1271545096314
  0
VERTEX
  8
Standard
 10
-112.233662225665
 20
-10.5012115838514
 42
0.1563731194468
  0
VERTEX
  8
Standard
 10
-111.744862475188
 20
-11.208639337062
 42
-0.5427442061045
  0
VERTEX
  8
Standard
 10
-112.071932681641
 20
-12.9022860323739
 42
-0.1544253402214
  0
VERTEX
  8
Standard
 10
-115.169667162688
 20
-14.120748712062
 42
-0.4418414266756
  0
VERTEX
  8
Standard
 10
-116.892323412688
 20
-11.844381524562
 42
-0.0829392214625
  0
SEQEND
  0
POLYLINE
  8
Standard
 66
     1
 10
0.0
 20
0.0
 30
0.0
 70
     1
  0
VERTEX
  8
Standard
 10
-98.5378312251881
 20
-3.026022149562
 42
-0.051116698292
  0
VERTEX
  8
Standard
 10
-89.8630265376881
 20
5.710305975438
 42
-0.0936025707292
  0
VERTEX
  8
Standard
 10
-85.0619198948737
 20
8.5159550618122
 42
-0.3158230472162
  0
VERTEX
  8
Standard
 10
-80.2038468501881
 20
7.679055975438
 42
-0.5379385596205
  0
VERTEX
  8
Standard
 10
-82.3161515376881
 20
2.552102850438
 42
-0.2675766216665
  0
VERTEX
  8
Standard
 10
-84.2849015376881
 20
3.598001287938
 42
0.4918473980846
  0
VERTEX
  8
Standard
 10
-86.2375332286847
 20
3.97148350188
 42
0.145164606316
  0
VERTEX
  8
Standard
 10
-99.9938859126881
 20
-11.249654962062
 42
-0.3232266232917
  0
VERTEX
  8
Standard
 10
-104.177479662688
 20
-14.346334649562
 42
-0.4820666707391
  0
VERTEX
  8
Standard
 10
-105.633534350188
 20
-12.746725274562
 42
-0.088347217246
  0
VERTEX
  8
Standard
 10
-104.444081225188
 20
-7.476217462062
 42
-0.0196096790385
  0
VERTEX
  8
Standard
 10
-99.2641665614336
 20
5.2425369913101
 42
-0.2969022048564
  0
VERTEX
  8
Standard
 10
-94.8259171626881
 20
8.663430975438
 42
-0.6033291758957
  0
VERTEX
  8
Standard
 10
-93.2673234126881
 20
6.633157537938
 42
0.0013831891881
  0
VERTEX
  8
Standard
 10
-96.9587296626881
 20
0.132180975438
 42
0.0
  0
SEQEND
  0
POLYLINE
  8
Standard
 66
     1
 10
0.0
 20
0.0
 30
0.0
 70
     1
  0
VERTEX
  8
Standard
 10
-45.325184031691
 20
12.231790350438
 42
0.0249012000457
  0
VERTEX
  8
Standard
 10
-57.650379344191
 20
11.308938787938
 42
0.0753669541436
  0
VERTEX
  8
Standard
 10
-60.418934031691
 20
10.693704412938
 42
0.0076976209063
  0
VERTEX
  8
Standard
 10
-64.787098094191
 20
2.613626287938
 42
0.0460246118336
  0
VERTEX
  8
Standard
 10
-54.8886634141005
 20
3.8665710993314
 42
-0.1184278021186
  0
VERTEX
  8
Standard
 10
-50.6364940683209
 20
3.8618333303401
 42
-0.4838890902739
  0
VERTEX
  8
Standard
 10
-49.877918406691
 20
2.182962225438
 42
-0.3002577915206
  0
VERTEX
  8
Standard
 10
-52.9441773015963
 20
-0.2816848242655
 42
0.0064905210174
  0
VERTEX
  8
Standard
 10
-64.6587779986728
 20
-1.8126475016956
 42
0.0297339873471
  0
VERTEX
  8
Standard
 10
-66.407215281691
 20
-2.164694024562
 42
0.3141030748794
  0
VERTEX
  8
Standard
 10
-67.104480906691
 20
-2.636373712062
 42
0.0383722224651
  0
VERTEX
  8
Standard
 10
-70.488269969191
 20
-9.424459649562
 42
0.6156057163513
  0
VERTEX
  8
Standard
 10
-69.811512156691
 20
-10.183248712062
 42
0.0322557671558
  0
VERTEX
  8
Standard
 10
-57.0546193620345
 20
-8.5338078035298
 42
-0.1837798656478
  0
VERTEX
  8
Standard
 10
-54.2500423093861
 20
-8.5083843523768
 42
-0.4803597760237
  0
VERTEX
  8
Standard
 10
-53.323230906691
 20
-10.716451837062
 42
-0.1744242227363
  0
VERTEX
  8
Standard
 10
-54.430652781691
 20
-12.151998712062
 42
-0.0751087731814
  0
VERTEX
  8
Standard
 10
-60.500965281691
 20
-13.300436212062
 42
0.0166526519279
  0
VERTEX
  8
Standard
 10
-67.555652781691
 20
-13.997701837062
 42
-0.0485763083153
  0
VERTEX
  8
Standard
 10
-74.528309031691
 20
-14.756490899562
 42
-0.2199141945765
  0
VERTEX
  8
Standard
 10
-76.702137156691
 20
-14.038717462062
 42
-0.2782873130717
  0
VERTEX
  8
Standard
 10
-75.881824656691
 20
-9.916647149562
 42
0.0325511158274
  0
VERTEX
  8
Standard
 10
-70.057605906691
 20
1.301126287938
 42
0.0142180295175
  0
VERTEX
  8
Standard
 10
-65.586902781691
 20
10.980813787938
 42
-0.2464593562074
  0
VERTEX
  8
Standard
 10
-65.463855906691
 20
13.892923162938
 42
-0.2514527574122
  0
VERTEX
  8
Standard
 10
-60.726551219191
 20
15.061868475438
 42
0.0065842515031
  0
VERTEX
  8
Standard
 10
-45.837879344191
 20
16.702493475438
 42
-0.2159371040574
  0
VERTEX
  8
Standard
 10
-42.9232403375971
 20
16.2552285533598
 42
-0.3894693858497
  0
VERTEX
  8
Standard
 10
-43.1296604770496
 20
13.6644083517212
 42
-0.1104049825259
  0
SEQEND
  0
POLYLINE
  8
Standard
 66
     1
 10
0.0
 20
0.0
 30
0.0
 70
     1
  0
VERTEX
  8
Standard
 10
-40.649402781691
 20
-3.026022149562
 42
-0.051116698292
  0
VERTEX
  8
Standard
 10
-31.974598094191
 20
5.710305975438
 42
-0.0936025707292
  0
VERTEX
  8
Standard
 10
-27.1734914513765
 20
8.5159550618122
 42
-0.3158230472162
  0
VERTEX
  8
Standard
 10
-22.315418406691
 20
7.679055975438
 42
-0.5379385596205
  0
VERTEX
  8
Standard
 10
-24.427723094191
 20
2.552102850438
 42
-0.2675766216665
  0
VERTEX
  8
Standard
 10
-26.396473094191
 20
3.598001287938
 42
0.4918473980846
  0
VERTEX
  8
Standard
 10
-28.3491047851875
 20
3.97148350188
 42
0.145164606316
  0
VERTEX
  8
Standard
 10
-42.105457469191
 20
-11.249654962062
 42
-0.3232266232917
  0
VERTEX
  8
Standard
 10
-46.289051219191
 20
-14.346334649562
 42
-0.4820666707391
  0
VERTEX
  8
Standard
 10
-47.745105906691
 20
-12.746725274562
 42
-0.088347217246
  0
VERTEX
  8
Standard
 10
-46.555652781691
 20
-7.476217462062
 42
-0.0196096790385
  0
VERTEX
  8
Standard
 10
-41.3757381179365
 20
5.2425369913101
 42
-0.2969022048564
  0
VERTEX
  8
Standard
 10
-36.937488719191
 20
8.663430975438
 42
-0.6033291758957
  0
VERTEX
  8
Standard
 10
-35.378894969191
 20
6.633157537938
 42
0.0013831891881
  0
VERTEX
  8
Standard
 10
-39.070301219191
 20
0.132180975438
 42
0.0
  0
SEQEND
  0
POLYLINE
  8
Standard
 66
     1
 10
0.0
 20
0.0
 30
0.0
 70
     1
  0
VERTEX
  8
Standard
 10
-5.027332469191
 20
-2.800436212062
 42
-0.1491830390798
  0
VERTEX
  8
Standard
 10
-17.1727842157979
 20
-13.1610495505913
 42
-0.2098988881008
  0
VERTEX
  8
Standard
 10
-24.2487551054628
 20
-13.6948415337018
 42
-0.2975613858191
  0
VERTEX
  8
Standard
 10
-26.6785258894099
 20
-9.2404857697641
 42
-0.1469305201883
  0
VERTEX
  8
Standard
 10
-23.2048683694258
 20
-0.8561835560882
 42
-0.1043721016317
  0
VERTEX
  8
Standard
 10
-14.2538915357364
 20
7.4935940608937
 42
-0.1249327717739
  0
VERTEX
  8
Standard
 10
-8.513660594191
 20
9.053079412938
 42
-0.458924953332
  0
VERTEX
  8
Standard
 10
-3.0489465506375
 20
3.3704654463134
 42
-0.1214286795779
  0
VERTEX
  8
Standard
 10
-5.027332469191
 20
-2.779928399562
 42
0.0
  0
SEQEND
  0
POLYLINE
  8
Standard
 66
     1
 10
0.0
 20
0.0
 30
0.0
 70
     1
  0
VERTEX
  8
Standard
 10
-13.497059031691
 20
3.680032537938
 42
0.1491191775567
  0
VERTEX
  8
Standard
 10
-20.961902781691
 20
-5.979147149562
 42
0.1299439027779
  0
VERTEX
  8
Standard
 10
-21.290027781691
 20
-8.788717462062
 42
0.3987253862078
  0
VERTEX
  8
Standard
 10
-20.018543406691
 20
-9.896139337062
 42
0.1391937567886
  0
VERTEX
  8
Standard
 10
-15.8682123967536
 20
-8.4268602126921
 42
0.1774330914939
  0
VERTEX
  8
Standard
 10
-8.657215281691
 20
-0.113912774562
 42
0.1532834137244
  0
VERTEX
  8
Standard
 10
-8.370105906691
 20
3.351907537938
 42
0.3701582498226
  0
VERTEX
  8
Standard
 10
-10.379871531691
 20
4.725930975438
 42
0.1480360233508
  0
VERTEX
  8
Standard
 10
-13.476551219191
 20
3.680032537938
 42
0.0
  0
SEQEND
  0
POLYLINE
  8
Standard
 66
     1
 10
0.0
 20
0.0
 30
0.0
 70
     1
  0
VERTEX
  8
Standard
 10
-3.366199656691
 20
12.088235662938
 42
-0.5641590701775
  0
VERTEX
  8
Standard
 10
-5.129871531691
 20
14.446634100438
 42
-0.2772463663936
  0
VERTEX
  8
Standard
 10
-2.8196920030463
 20
16.5271496230391
 42
-0.0941541958441
  0
VERTEX
  8
Standard
 10
-0.4168095296631
 20
17.0074162446297
 42
-0.5016597538065
  0
VERTEX
  8
Standard
 10
0.509776905809
 20
14.877298162938
 42
-0.3587058684054
  0
SEQEND
  0
POLYLINE
  8
Standard
 66
     1
 10
0.0
 20
0.0
 30
0.0
 70
     1
  0
VERTEX
  8
Standard
 10
-10.913074656691
 20
11.555032537938
 42
-0.207910388283
  0
VERTEX
  8
Standard
 10
-13.1888350643114
 20
12.5127264272573
 42
-0.2616334949161
  0
VERTEX
  8
Standard
 10
-13.312488719191
 20
13.195657537938
 42
-0.6487976862121
  0
VERTEX
  8
Standard
 10
-7.836902781691
 20
15.410501287938
 42
-0.491334468484
  0
VERTEX
  8
Standard
 10
-9.0656402882772
 20
11.794477510909
 42
-0.1054362346466
  0
SEQEND
  0
POLYLINE
  8
Standard
 66
     1
 10
0.0
 20
0.0
 30
0.0
 70
     1
  0
VERTEX
  8
Standard
 10
4.898448780809
 20
-2.759420587062
 42
0.0179599630138
  0
VERTEX
  8
Standard
 10
1.965831593309
 20
-9.916647149562
 42
0.0325054259444
  0
VERTEX
  8
Standard
 10
1.022472218309
 20
-13.526022149562
 42
-0.3583706096756
  0
VERTEX
  8
Standard
 10
-3.5376200926255
 20
-15.0128437858423
 42
-0.3382361283993
  0
VERTEX
  8
Standard
 10
-4.2445816692671
 20
-12.9958384935163
 42
-0.0819931071167
  0
VERTEX
  8
Standard
 10
-2.2689512971852
 20
-7.8946585735073
 42
0.027805726028
  0
VERTEX
  8
Standard
 10
2.314464405809
 20
2.223977850438
 42
0.1435315198773
  0
VERTEX
  8
Standard
 10
1.4890675909657
 20
3.2448115466346
 42
-0.2294314896609
  0
VERTEX
  8
Standard
 10
1.330089405809
 20
4.233743475438
 42
-0.1469877806698
  0
VERTEX
  8
Standard
 10
3.708995655809
 20
6.551126287938
 42
0.128640273776
  0
VERTEX
  8
Standard
 10
5.103526905809
 20
7.925149725438
 42
-0.0142216527703
  0
VERTEX
  8
Standard
 10
9.3193167709854
 20
15.3762788434199
 42
-0.1513287904062
  0
VERTEX
  8
Standard
 10
16.2250498950733
 20
21.7219375360847
 42
-0.1910210105553
  0
VERTEX
  8
Standard
 10
21.6214431453
 20
22.1864225934055
 42
-0.413076082587
  0
VERTEX
  8
Standard
 10
23.273448780809
 20
17.748391912938
 42
-0.1242543343387
  0
VERTEX
  8
Standard
 10
19.9545079785325
 20
12.7256434082135
 42
-0.4119164768027
  0
VERTEX
  8
Standard
 10
17.449230030809
 20
12.436868475438
 42
-0.2384144651369
  0
VERTEX
  8
Standard
 10
17.387706593309
 20
13.441751287938
 42
0.0665103447269
  0
VERTEX
  8
Standard
 10
18.5621080029703
 20
16.8685534330972
 42
0.2460576278308
  0
VERTEX
  8
Standard
 10
18.3597624513564
 20
18.2608718270379
 42
0.3031172100614
  0
VERTEX
  8
Standard
 10
15.9716110910227
 20
17.4298741776539
 42
0.0972497847408
  0
VERTEX
  8
Standard
 10
9.492198780809
 20
7.145852850438
 42
0.6655888795433
  0
VERTEX
  8
Standard
 10
9.779308155809
 20
6.838235662938
 42
0.0046410046067
  0
VERTEX
  8
Standard
 10
15.788097218309
 20
6.879251287938
 42
-0.2464854524136
  0
VERTEX
  8
Standard
 10
17.1072318585278
 20
6.3967255600372
 42
-0.3590690605304
  0
VERTEX
  8
Standard
 10
15.9097870626546
 20
4.1930551794909
 42
-0.1289891801393
  0
VERTEX
  8
Standard
 10
9.594737843309
 20
2.880227850438
 42
0.025658048149
  0
VERTEX
  8
Standard
 10
7.461925343309
 20
2.613626287938
 42
0.0145829168562
  0
VERTEX
  8
Standard
 10
4.918956593309
 20
-2.738912774562
 42
0.0
  0
SEQEND
  0
POLYLINE
  8
Standard
 66
     1
 10
0.0
 20
0.0
 30
0.0
 70
     1
  0
VERTEX
  8
Standard
 10
20.463878468309
 20
-2.759420587062
 42
0.0179599630138
  0
VERTEX
  8
Standard
 10
17.531261280809
 20
-9.916647149562
 42
0.0325054259444
  0
VERTEX
  8
Standard
 10
16.587901905809
 20
-13.526022149562
 42
-0.3583706096756
  0
VERTEX
  8
Standard
 10
12.0278095948745
 20
-15.0128437858423
 42
-0.3382361283993
  0
VERTEX
  8
Standard
 10
11.3208480182329
 20
-12.9958384935163
 42
-0.0819931071167
  0
VERTEX
  8
Standard
 10
13.2964783903148
 20
-7.8946585735073
 42
0.027805726028
  0
VERTEX
  8
Standard
 10
17.879894093309
 20
2.223977850438
 42
0.1435315198773
  0
VERTEX
  8
Standard
 10
17.0544972784657
 20
3.2448115466346
 42
-0.2294314896609
  0
VERTEX
  8
Standard
 10
16.895519093309
 20
4.233743475438
 42
-0.1469877806698
  0
VERTEX
  8
Standard
 10
19.274425343309
 20
6.551126287938
 42
0.128640273776
  0
VERTEX
  8
Standard
 10
20.668956593309
 20
7.925149725438
 42
-0.0142216527703
  0
VERTEX
  8
Standard
 10
24.8847464584853
 20
15.3762788434199
 42
-0.1513287904062
  0
VERTEX
  8
Standard
 10
31.7904795825733
 20
21.7219375360847
 42
-0.1910210105553
  0
VERTEX
  8
Standard
 10
37.1868728328
 20
22.1864225934055
 42
-0.413076082587
  0
VERTEX
  8
Standard
 10
38.838878468309
 20
17.748391912938
 42
-0.1242543343387
  0
VERTEX
  8
Standard
 10
35.5199376660325
 20
12.7256434082135
 42
-0.4119164768028
  0
VERTEX
  8
Standard
 10
33.014659718309
 20
12.436868475438
 42
-0.2384144651369
  0
VERTEX
  8
Standard
 10
32.953136280809
 20
13.441751287938
 42
0.0665103447269
  0
VERTEX
  8
Standard
 10
34.1275376904703
 20
16.8685534330972
 42
0.2460576278308
  0
VERTEX
  8
Standard
 10
33.9251921388564
 20
18.2608718270379
 42
0.3031172100614
  0
VERTEX
  8
Standard
 10
31.5370407785227
 20
17.4298741776539
 42
0.0972497847408
  0
VERTEX
  8
Standard
 10
25.057628468309
 20
7.145852850438
 42
0.6655888795433
  0
VERTEX
  8
Standard
 10
25.344737843309
 20
6.838235662938
 42
0.0046410046067
  0
VERTEX
  8
Standard
 10
31.353526905809
 20
6.879251287938
 42
-0.2464854524136
  0
VERTEX
  8
Standard
 10
32.6726615460278
 20
6.3967255600372
 42
-0.3590690605304
  0
VERTEX
  8
Standard
 10
31.4752167501546
 20
4.1930551794909
 42
-0.1289891801393
  0
VERTEX
  8
Standard
 10
25.160167530809
 20
2.880227850438
 42
0.025658048149
  0
VERTEX
  8
Standard
 10
23.027355030809
 20
2.613626287938
 42
0.0145829168562
  0
VERTEX
  8
Standard
 10
20.484386280809
 20
-2.738912774562
 42
0.0
  0
SEQEND
  0
POLYLINE
  8
Standard
 66
     1
 10
0.0
 20
0.0
 30
0.0
 70
     1
  0
VERTEX
  8
Standard
 10
45.114269093309
 20
-10.203756524562
 42
-0.0720276861144
  0
VERTEX
  8
Standard
 10
46.016612843309
 20
-3.313131524562
 42
0.0772029300977
  0
VERTEX
  8
Standard
 10
46.6179870401249
 20
0.769162057757
 42
0.7605330375298
  0
VERTEX
  8
Standard
 10
44.7302500129596
 20
1.554668501082
 42
0.0645857670194
  0
VERTEX
  8
Standard
 10
38.818370655809
 20
-3.538717462062
 42
0.0503253545585
  0
VERTEX
  8
Standard
 10
31.620128468309
 20
-11.598287774562
 42
-0.4849966492938
  0
VERTEX
  8
Standard
 10
27.443394267981
 20
-12.9157957139802
 42
-0.308106359185
  0
VERTEX
  8
Standard
 10
27.169933155809
 20
-10.552389337062
 42
0.0097085926269
  0
VERTEX
  8
Standard
 10
31.7227795212681
 20
-0.8305093151149
 42
0.014275713242
  0
VERTEX
  8
Standard
 10
33.773448780809
 20
4.664407537938
 42
-0.1474227221952
  0
VERTEX
  8
Standard
 10
36.282994473138
 20
7.4552783344948
 42
-0.3678893327628
  0
VERTEX
  8
Standard
 10
39.084972218309
 20
7.227884100438
 42
-0.1565808508256
  0
VERTEX
  8
Standard
 10
39.2219300368461
 20
6.4238176744368
 42
-0.0830906901285
  0
VERTEX
  8
Standard
 10
37.8293203548378
 20
2.131390549391
 42
-0.0133389926531
  0
VERTEX
  8
Standard
 10
34.921886280809
 20
-3.477194024562
 42
-0.0597860851095
  0
VERTEX
  8
Standard
 10
42.3621213612659
 20
4.4042063260112
 42
-0.158720607466
  0
VERTEX
  8
Standard
 10
48.375011280809
 20
6.940774725438
 42
-0.4192124416082
  0
VERTEX
  8
Standard
 10
51.7891988221186
 20
4.0276190822626
 42
-0.0887248068086
  0
VERTEX
  8
Standard
 10
51.410167530809
 20
-0.544576837062
 42
0.0707082853425
  0
VERTEX
  8
Standard
 10
50.3135711858353
 20
-7.2545278178794
 42
0.4405496173308
  0
VERTEX
  8
Standard
 10
50.712901905809
 20
-8.173483087062
 42
0.0087662946025
  0
VERTEX
  8
Standard
 10
53.112315968309
 20
-7.722311212062
 42
-0.5978658874502
  0
VERTEX
  8
Standard
 10
53.707042530809
 20
-8.870748712062
 42
-0.2632468268199
  0
VERTEX
  8
Standard
 10
47.800792530809
 20
-12.275045587062
 42
-0.4228663473536
  0
VERTEX
  8
Standard
 10
45.093761280809
 20
-10.203756524562
 42
0.0
  0
SEQEND
  0
POLYLINE
  8
Standard
 66
     1
 10
0.0
 20
0.0
 30
0.0
 70
     1
  0
VERTEX
  8
Standard
 10
71.630870655809
 20
-5.692037774562
 42
-0.1205900559763
  0
VERTEX
  8
Standard
 10
62.2723661882417
 20
-12.8642967161249
 42
-0.0919950927649
  0
VERTEX
  8
Standard
 10
59.141612843309
 20
-13.505514337062
 42
-0.346343465427
  0
VERTEX
  8
Standard
 10
56.0760650511948
 20
-10.5980648376034
 42
-0.1386502657159
  0
VERTEX
  8
Standard
 10
58.3662146798171
 20
-2.9755865828779
 42
-0.0026729322526
  0
VERTEX
  8
Standard
 10
62.1110572147885
 20
3.6394894937125
 42
0.0372425770916
  0
VERTEX
  8
Standard
 10
63.550792530809
 20
6.797220037938
 42
-0.3533164118407
  0
VERTEX
  8
Standard
 10
67.6141511316707
 20
8.3541461229364
 42
-0.3732437198115
  0
VERTEX
  8
Standard
 10
68.493175343309
 20
6.140970037938
 42
-0.0633685359108
  0
VERTEX
  8
Standard
 10
66.052745655809
 20
1.998391912938
 42
0.0430478802816
  0
VERTEX
  8
Standard
 10
61.274425343309
 20
-6.266256524562
 42
0.1171106801767
  0
VERTEX
  8
Standard
 10
60.8834925989083
 20
-8.4632610140097
 42
0.4140187328028
  0
VERTEX
  8
Standard
 10
61.479503468309
 20
-8.993795587062
 42
0.1337834602954
  0
VERTEX
  8
Standard
 10
65.3932245528711
 20
-7.155155765645
 42
0.104056739455
  0
VERTEX
  8
Standard
 10
73.804698780809
 20
1.444680975438
 42
-0.0460542071611
  0
VERTEX
  8
Standard
 10
77.003917530809
 20
6.038430975438
 42
-0.3003235915832
  0
VERTEX
  8
Standard
 10
80.2553205307864
 20
6.9894521529746
 42
-0.4067332480369
  0
VERTEX
  8
Standard
 10
80.736339405809
 20
4.746438787938
 42
-0.0407993703341
  0
VERTEX
  8
Standard
 10
79.916026905809
 20
3.351907537938
 42
0.0948817086194
  0
VERTEX
  8
Standard
 10
75.0608127990019
 20
-7.980802856682
 42
0.1271545096314
  0
VERTEX
  8
Standard
 10
75.059063092832
 20
-10.5012115838514
 42
0.1563731194468
  0
VERTEX
  8
Standard
 10
75.547862843309
 20
-11.208639337062
 42
-0.5427442061046
  0
VERTEX
  8
Standard
 10
75.220792636856
 20
-12.9022860323739
 42
-0.1544253402214
  0
VERTEX
  8
Standard
 10
72.123058155809
 20
-14.120748712062
 42
-0.4418414266756
  0
VERTEX
  8
Standard
 10
70.400401905809
 20
-11.844381524562
 42
-0.0829392214625
  0
SEQEND
  0
POLYLINE
  8
Standard
 66
     1
 10
0.0
 20
0.0
 30
0.0
 70
     1
  0
VERTEX
  8
Standard
 10
98.414073780809
 20
-10.203756524562
 42
-0.0720276861144
  0
VERTEX
  8
Standard
 10
99.316417530809
 20
-3.313131524562
 42
0.0772029300977
  0
VERTEX
  8
Standard
 10
99.9177917276249
 20
0.769162057757
 42
0.7605330375298
  0
VERTEX
  8
Standard
 10
98.0300547004596
 20
1.554668501082
 42
0.0645857670194
  0
VERTEX
  8
Standard
 10
92.118175343309
 20
-3.538717462062
 42
0.0503253545585
  0
VERTEX
  8
Standard
 10
84.919933155809
 20
-11.598287774562
 42
-0.4849966492938
  0
VERTEX
  8
Standard
 10
80.7431989554809
 20
-12.9157957139802
 42
-0.308106359185
  0
VERTEX
  8
Standard
 10
80.469737843309
 20
-10.552389337062
 42
0.0097085926269
  0
VERTEX
  8
Standard
 10
85.0225842087681
 20
-0.8305093151149
 42
0.014275713242
  0
VERTEX
  8
Standard
 10
87.073253468309
 20
4.664407537938
 42
-0.1474227221952
  0
VERTEX
  8
Standard
 10
89.582799160638
 20
7.4552783344948
 42
-0.3678893327628
  0
VERTEX
  8
Standard
 10
92.384776905809
 20
7.227884100438
 42
-0.1565808508256
  0
VERTEX
  8
Standard
 10
92.5217347243461
 20
6.4238176744368
 42
-0.0830906901285
  0
VERTEX
  8
Standard
 10
91.1291250423378
 20
2.131390549391
 42
-0.0133389926531
  0
VERTEX
  8
Standard
 10
88.221690968309
 20
-3.477194024562
 42
-0.0597860851096
  0
VERTEX
  8
Standard
 10
95.6619260487659
 20
4.4042063260112
 42
-0.158720607466
  0
VERTEX
  8
Standard
 10
101.674815968309
 20
6.940774725438
 42
-0.4192124416082
  0
VERTEX
  8
Standard
 10
105.089003509619
 20
4.0276190822626
 42
-0.0887248068086
  0
VERTEX
  8
Standard
 10
104.709972218309
 20
-0.544576837062
 42
0.0707082853425
  0
VERTEX
  8
Standard
 10
103.613375873335
 20
-7.2545278178794
 42
0.4405496173308
  0
VERTEX
  8
Standard
 10
104.012706593309
 20
-8.173483087062
 42
0.0087662946025
  0
VERTEX
  8
Standard
 10
106.412120655809
 20
-7.722311212062
 42
-0.5978658874502
  0
VERTEX
  8
Standard
 10
107.006847218309
 20
-8.870748712062
 42
-0.2632468268199
  0
VERTEX
  8
Standard
 10
101.100597218309
 20
-12.275045587062
 42
-0.4228663473536
  0
VERTEX
  8
Standard
 10
98.393565968309
 20
-10.203756524562
 42
0.0
  0
SEQEND
  0
POLYLINE
  8
Standard
 66
     1
 10
0.0
 20
0.0
 30
0.0
 70
     1
  0
VERTEX
  8
Standard
 10
124.130870655809
 20
-6.922506524562
 42
-0.0931639800772
  0
VERTEX
  8
Standard
 10
114.572186135
 20
-12.2493854778639
 42
-0.1655289232579
  0
VERTEX
  8
Standard
 10
109.956472926926
 20
-12.5411736701745
 42
-0.3634418964897
  0
VERTEX
  8
Standard
 10
108.274984460382
 20
-9.7628388941574
 42
-0.1441851279397
  0
VERTEX
  8
Standard
 10
110.694157901728
 20
-4.224573939467
 42
-0.1366776485456
  0
VERTEX
  8
Standard
 10
126.629830858715
 20
7.7815064524895
 42
-0.0861447885671
  0
VERTEX
  8
Standard
 10
131.144542530809
 20
8.724954412938
 42
-0.2144271228166
  0
VERTEX
  8
Standard
 10
134.487315968309
 20
7.289407537938
 42
-0.3579976969877
  0
VERTEX
  8
Standard
 10
134.10370391042
 20
3.2355978059975
 42
0.0317130498096
  0
VERTEX
  8
Standard
 10
130.672862843309
 20
-2.246725274562
 42
0.0043891443086
  0
VERTEX
  8
Standard
 10
125.935558155809
 20
-12.521139337062
 42
-0.1179396717614
  0
VERTEX
  8
Standard
 10
118.368175343309
 20
-22.980123712062
 42
-0.1642406642565
  0
VERTEX
  8
Standard
 10
110.247081593309
 20
-26.281881524562
 42
-0.2414252246321
  0
VERTEX
  8
Standard
 10
101.625004625125
 20
-21.6079843454534
 42
-0.4268398464977
  0
VERTEX
  8
Standard
 10
101.786918166577
 20
-17.9391486379337
 42
-0.3089309974041
  0
VERTEX
  8
Standard
 10
103.657390455473
 20
-17.6953536380248
 42
-0.0533278393145
  0
VERTEX
  8
Standard
 10
105.099620655809
 20
-18.714498712062
 42
0.1753538151572
  0
VERTEX
  8
Standard
 10
112.072276905809
 20
-21.790670587062
 42
0.1768316809925
  0
VERTEX
  8
Standard
 10
115.711299193446
 20
-20.2652580465051
 42
0.0927932287251
  0
VERTEX
  8
Standard
 10
121.924052573215
 20
-11.4743126506879
 42
0.0115322792637
  0
SEQEND
  0
POLYLINE
  8
Standard
 66
     1
 10
0.0
 20
0.0
 30
0.0
 70
     1
  0
VERTEX
  8
Standard
 10
128.478526905809
 20
4.479837225438
 42
0.098932016358
  0
VERTEX
  8
Standard
 10
123.884776905809
 20
2.654641912938
 42
0.0809019593543
  0
VERTEX
  8
Standard
 10
115.502476671924
 20
-4.5843218831814
 42
0.0837580598746
  0
VERTEX
  8
Standard
 10
113.856456593309
 20
-7.332662774562
 42
0.5998057206342
  0
VERTEX
  8
Standard
 10
114.266612843309
 20
-8.399069024562
 42
0.1389160837998
  0
VERTEX
  8
Standard
 10
120.234386280809
 20
-6.266256524562
 42
0.1064047217616
  0
VERTEX
  8
Standard
 10
128.579391550268
 20
1.7329709945835
 42
0.2942735063348
  0
VERTEX
  8
Standard
 10
129.196300343309
 20
4.049173162938
 42
0.1428299346567
  0
SEQEND
  0
ENDSEC
  0
EOF
