  0
SECTION
  2
HEADER
  9
$ACADVER
  1
AC1009
  9
$EXTMAX
 10
92.240966796875
 20
34.9137840270996
 30
0.0
  9
$EXTMIN
 10
-139.872833251953
 20
-9.080114364624
 30
0.0
  9
$INSUNITS
 70
     4
  9
$LUNITS
 70
     2
  9
$LUPREC
 70
     4
  9
$MEASUREMENT
 70
     1
  0
ENDSEC
  0
SECTION
  2
TABLES
  0
TABLE
  2
LAYER
 70
     1
  0
LAYER
  2
0
 70
     0
 62
     7
  6
Continuous
  0
LAYER
  2
Standard
 70
     0
 62
    70
  6
Continuous
  0
ENDTAB
  0
TABLE
  2
APPID
 70
     1
  0
APPID
  2
ACAD
 70
     0
  0
ENDTAB
  0
ENDSEC
  0
SECTION
  2
ENTITIES
  0
POLYLINE
  8
Standard
 66
     1
 10
0.0
 20
0.0
 30
0.0
 70
     1
  0
VERTEX
  8
Standard
 10
-131.044356017108
 20
2.7216929821042
 42
-0.2168314288427
  0
VERTEX
  8
Standard
 10
-138.075606017108
 20
5.3974742321042
 42
-0.1319669687861
  0
VERTEX
  8
Standard
 10
-139.696699767108
 20
8.6201304821042
 42
-0.2252800106513
  0
VERTEX
  8
Standard
 10
-136.649824767108
 20
19.3037242321042
 42
-0.061703992144
  0
VERTEX
  8
Standard
 10
-129.169356017108
 20
26.3349742321042
 42
0.0
  0
VERTEX
  8
Standard
 10
-127.020918517108
 20
28.1513804821042
 42
0.0
  0
VERTEX
  8
Standard
 10
-126.649824767108
 20
28.1318492321042
 42
0.0635970871731
  0
VERTEX
  8
Standard
 10
-137.079512267108
 20
27.4482554821042
 42
-0.9722342773429
  0
VERTEX
  8
Standard
 10
-137.763106017108
 20
32.1162242321042
 42
-0.0527080996542
  0
VERTEX
  8
Standard
 10
-128.134199767108
 20
32.8779429821042
 42
-0.094563427755
  0
VERTEX
  8
Standard
 10
-123.837324767108
 20
31.9990367321042
 42
-0.5467933150667
  0
VERTEX
  8
Standard
 10
-122.821699767108
 20
25.6513804821042
 42
-0.0114880199881
  0
VERTEX
  8
Standard
 10
-129.696699767108
 20
19.7724742321042
 42
0.117152443489
  0
VERTEX
  8
Standard
 10
-134.7726514369
 20
13.3005267158911
 42
0.1509475877597
  0
VERTEX
  8
Standard
 10
-135.087324767108
 20
9.6748179821042
 42
0.2742426476834
  0
VERTEX
  8
Standard
 10
-133.349043517108
 20
7.7998179821042
 42
0.1916401384005
  0
VERTEX
  8
Standard
 10
-125.302168517108
 20
8.9130992321042
 42
-1.0398861602401
  0
VERTEX
  8
Standard
 10
-122.587324767108
 20
5.0849742321042
 42
-0.1408459520456
  0
SEQEND
  0
POLYLINE
  8
Standard
 66
     1
 10
0.0
 20
0.0
 30
0.0
 70
     1
  0
VERTEX
  8
Standard
 10
-116.415449767108
 20
23.0341929821042
 42
-0.4297793964022
  0
VERTEX
  8
Standard
 10
-114.052168517108
 20
20.4951304821042
 42
0.079332676247
  0
VERTEX
  8
Standard
 10
-113.753647216491
 20
10.046105218324
 42
0.0723272390805
  0
VERTEX
  8
Standard
 10
-112.919356017108
 20
7.8193492321042
 42
0.4655946522963
  0
VERTEX
  8
Standard
 10
-110.380293517108
 20
8.2490367321042
 42
0.0081612732623
  0
VERTEX
  8
Standard
 10
-109.227949767108
 20
9.9873179821042
 42
0.0755912791404
  0
VERTEX
  8
Standard
 10
-107.177168517108
 20
20.8466929821042
 42
-0.9720980746607
  0
VERTEX
  8
Standard
 10
-102.470137267108
 20
20.5927867321042
 42
0.0069232388129
  0
VERTEX
  8
Standard
 10
-102.880293517108
 20
5.3388804821042
 42
-1.0804575515631
  0
VERTEX
  8
Standard
 10
-107.626387267108
 20
5.0263804821042
 42
0.0
  0
VERTEX
  8
Standard
 10
-107.626387267108
 20
4.9091929821042
 42
-0.2974178286441
  0
VERTEX
  8
Standard
 10
-111.903731017108
 20
2.6435679821042
 42
-0.3262129854573
  0
VERTEX
  8
Standard
 10
-117.831363866412
 20
7.2227084552076
 42
-0.0893590412182
  0
VERTEX
  8
Standard
 10
-118.950336710803
 20
15.5790245453213
 42
-0.0175515906705
  0
VERTEX
  8
Standard
 10
-118.759199767108
 20
20.8466929821042
 42
-0.3824663366096
  0
SEQEND
  0
POLYLINE
  8
Standard
 66
     1
 10
0.0
 20
0.0
 30
0.0
 70
     1
  0
VERTEX
  8
Standard
 10
-97.9779497671079
 20
2.6826304821042
 42
-0.4268925752621
  0
VERTEX
  8
Standard
 10
-100.321699767108
 20
5.1045054821042
 42
0.0067745615
  0
VERTEX
  8
Standard
 10
-99.9310747671079
 20
20.7295054821042
 42
-0.9736099666771
  0
VERTEX
  8
Standard
 10
-95.2045122671079
 20
20.8076304821042
 42
0.0
  0
VERTEX
  8
Standard
 10
-95.2045122671079
 20
20.9834117321042
 42
-0.2923102166501
  0
VERTEX
  8
Standard
 10
-91.2787310171079
 20
23.0732554821042
 42
-0.3274398462783
  0
VERTEX
  8
Standard
 10
-85.6038264285743
 20
18.7207840839238
 42
-0.0453607810083
  0
VERTEX
  8
Standard
 10
-84.8920122671079
 20
16.1396617321042
 42
-1.0921204803457
  0
VERTEX
  8
Standard
 10
-89.5013872671079
 20
15.3974742321042
 42
0.0942436018081
  0
VERTEX
  8
Standard
 10
-90.5170122671079
 20
18.0146617321042
 42
0.4364245466689
  0
VERTEX
  8
Standard
 10
-91.9427935171079
 20
18.0927867321042
 42
0.1137308851387
  0
VERTEX
  8
Standard
 10
-93.6810747671079
 20
15.4560679821042
 42
0.0787113699492
  0
VERTEX
  8
Standard
 10
-95.6146685171079
 20
4.8505992321042
 42
-0.3776542669358
  0
SEQEND
  0
POLYLINE
  8
Standard
 66
     1
 10
0.0
 20
0.0
 30
0.0
 70
     1
  0
VERTEX
  8
Standard
 10
-53.2427840828933
 20
6.2177867321042
 42
-0.4326141642024
  0
VERTEX
  8
Standard
 10
-56.0162215828933
 20
3.4638804821042
 42
-0.0349480553134
  0
VERTEX
  8
Standard
 10
-67.5591903328933
 20
2.7216929821042
 42
-0.1609138686166
  0
VERTEX
  8
Standard
 10
-72.1278137573478
 20
3.7577871801431
 42
-0.2246782920313
  0
VERTEX
  8
Standard
 10
-73.3404403328933
 20
6.3545054821042
 42
-0.017849341186
  0
VERTEX
  8
Standard
 10
-73.4576278328933
 20
28.2490367321042
 42
-0.1628310153397
  0
VERTEX
  8
Standard
 10
-72.7545028328933
 20
31.2763804821042
 42
-0.1819766830502
  0
VERTEX
  8
Standard
 10
-70.0787215828933
 20
32.5068492321042
 42
-0.0332022825013
  0
VERTEX
  8
Standard
 10
-58.9068465828933
 20
32.8193492321042
 42
0.0182865658813
  0
VERTEX
  8
Standard
 10
-56.7584090828933
 20
32.7607554821042
 42
-1.0041579862231
  0
VERTEX
  8
Standard
 10
-56.8365340828933
 20
28.0537242321042
 42
0.0412995437433
  0
VERTEX
  8
Standard
 10
-68.7505965828933
 20
27.9755992321042
 42
0.012199677192
  0
VERTEX
  8
Standard
 10
-68.8677840828933
 20
18.0537242321042
 42
0.0
  0
VERTEX
  8
Standard
 10
-68.8677840828933
 20
18.3271617321042
 42
0.0462795347182
  0
VERTEX
  8
Standard
 10
-56.9537215828933
 20
18.6005992321042
 42
-0.9988190142886
  0
VERTEX
  8
Standard
 10
-56.2115340828933
 20
13.9716929821042
 42
-0.0225472399659
  0
VERTEX
  8
Standard
 10
-68.8873153328933
 20
13.6201304821042
 42
0.0136877233132
  0
VERTEX
  8
Standard
 10
-68.7115340828933
 20
7.4873179821042
 42
0.0464859099234
  0
VERTEX
  8
Standard
 10
-55.9380965828933
 20
8.2295054821042
 42
-0.4193413822103
  0
SEQEND
  0
POLYLINE
  8
Standard
 66
     1
 10
0.0
 20
0.0
 30
0.0
 70
     1
  0
VERTEX
  8
Standard
 10
-49.0240340828933
 20
2.6826304821042
 42
-0.4268925752621
  0
VERTEX
  8
Standard
 10
-51.3677840828933
 20
5.1045054821042
 42
0.0067745615
  0
VERTEX
  8
Standard
 10
-50.9771590828933
 20
20.7295054821042
 42
-0.9736099666772
  0
VERTEX
  8
Standard
 10
-46.2505965828933
 20
20.8076304821042
 42
0.0
  0
VERTEX
  8
Standard
 10
-46.2505965828933
 20
20.9834117321042
 42
-0.2923102166501
  0
VERTEX
  8
Standard
 10
-42.3248153328933
 20
23.0732554821042
 42
-0.3274398462783
  0
VERTEX
  8
Standard
 10
-36.6499107443597
 20
18.7207840839238
 42
-0.0453607810083
  0
VERTEX
  8
Standard
 10
-35.9380965828933
 20
16.1396617321042
 42
-1.0921204803456
  0
VERTEX
  8
Standard
 10
-40.5474715828933
 20
15.3974742321042
 42
0.0942436018081
  0
VERTEX
  8
Standard
 10
-41.5630965828933
 20
18.0146617321042
 42
0.436424546669
  0
VERTEX
  8
Standard
 10
-42.9888778328933
 20
18.0927867321042
 42
0.1137308851387
  0
VERTEX
  8
Standard
 10
-44.7271590828933
 20
15.4560679821042
 42
0.0787113699492
  0
VERTEX
  8
Standard
 10
-46.6607528328933
 20
4.8505992321042
 42
-0.3776542669358
  0
SEQEND
  0
POLYLINE
  8
Standard
 66
     1
 10
0.0
 20
0.0
 30
0.0
 70
     1
  0
VERTEX
  8
Standard
 10
-26.9146590828933
 20
2.5654429821042
 42
-0.3384292496859
  0
VERTEX
  8
Standard
 10
-34.5254113712382
 20
8.7391420703742
 42
-0.2208584139997
  0
VERTEX
  8
Standard
 10
-33.0084090828933
 20
18.8935679821042
 42
-0.2299699253998
  0
VERTEX
  8
Standard
 10
-26.2115340828933
 20
22.9365367321042
 42
-0.5117741013107
  0
VERTEX
  8
Standard
 10
-23.6578091484497
 20
20.0610705450964
 42
-0.3369839371979
  0
VERTEX
  8
Standard
 10
-24.2193465828933
 20
19.5380992321042
 42
-0.3007700792622
  0
VERTEX
  8
Standard
 10
-23.3795028328933
 20
19.5380992321042
 42
-0.2166154389537
  0
VERTEX
  8
Standard
 10
-19.2584090828933
 20
15.8466929821042
 42
-0.2863691616321
  0
VERTEX
  8
Standard
 10
-21.3482528328933
 20
4.9873179821042
 42
-0.2337087469212
  0
SEQEND
  0
POLYLINE
  8
Standard
 66
     1
 10
0.0
 20
0.0
 30
0.0
 70
     1
  0
VERTEX
  8
Standard
 10
-25.7232528328933
 20
18.2490367321042
 42
0.3290168412738
  0
VERTEX
  8
Standard
 10
-30.0005965828933
 20
14.1474742321042
 42
0.2307692307692
  0
VERTEX
  8
Standard
 10
-29.2388778328933
 20
8.4834117321042
 42
0.4982401576161
  0
VERTEX
  8
Standard
 10
-24.5904403328933
 20
8.4638804821042
 42
0.2600295394458
  0
VERTEX
  8
Standard
 10
-23.5357528328933
 20
13.9716929821042
 42
0.2130435626568
  0
VERTEX
  8
Standard
 10
-24.7271590828933
 20
15.0263804821042
 42
-0.4967095500152
  0
VERTEX
  8
Standard
 10
-26.0748153328933
 20
18.5029429821042
 42
-0.6219339599517
  0
VERTEX
  8
Standard
 10
-25.8013778328933
 20
18.2880992321042
 42
-0.3851871705015
  0
VERTEX
  8
Standard
 10
-25.6958068199272
 20
18.2626149268148
 42
-0.0513234035742
  0
SEQEND
  0
POLYLINE
  8
Standard
 66
     1
 10
0.0
 20
0.0
 30
0.0
 70
     1
  0
VERTEX
  8
Standard
 10
-26.6021590828933
 20
26.3154429821042
 42
-5.1326431622061
  0
VERTEX
  8
Standard
 10
-27.3052840828933
 20
27.9755992321042
 42
-0.2112429676289
  0
SEQEND
  0
POLYLINE
  8
Standard
 66
     1
 10
0.0
 20
0.0
 30
0.0
 70
     1
  0
VERTEX
  8
Standard
 10
-21.1138778328933
 20
26.3154429821042
 42
-5.132643162206
  0
VERTEX
  8
Standard
 10
-21.8170028328933
 20
27.9755992321042
 42
-0.2112429676289
  0
SEQEND
  0
POLYLINE
  8
Standard
 66
     1
 10
0.0
 20
0.0
 30
0.0
 70
     1
  0
VERTEX
  8
Standard
 10
-0.5279403328933
 20
15.0849742321042
 42
-0.4131251599264
  0
VERTEX
  8
Standard
 10
-2.5201278328933
 20
12.4482554821042
 42
0.0
  0
VERTEX
  8
Standard
 10
-10.3130965828933
 20
11.4326304821042
 42
-0.0005051431481
  0
VERTEX
  8
Standard
 10
-10.1177840828933
 20
5.1045054821042
 42
-1.0156891146331
  0
VERTEX
  8
Standard
 10
-14.8443465828933
 20
5.1045054821042
 42
0.020181208929
  0
VERTEX
  8
Standard
 10
-15.0201278328933
 20
10.9052867321042
 42
-0.0477294460737
  0
VERTEX
  8
Standard
 10
-14.6685653328933
 20
10.8857554821042
 42
-0.9947735549486
  0
VERTEX
  8
Standard
 10
-15.1763778328933
 20
15.5732554821042
 42
0.0
  0
VERTEX
  8
Standard
 10
-15.1177840828933
 20
15.5732554821042
 42
-0.0579751726545
  0
VERTEX
  8
Standard
 10
-14.1802840828933
 20
29.1474742321042
 42
-0.1416936950042
  0
VERTEX
  8
Standard
 10
-12.1099715828933
 20
33.2099742321042
 42
-0.3710323947628
  0
VERTEX
  8
Standard
 10
-5.4693465828933
 20
34.0693492321042
 42
-0.1762273415443
  0
VERTEX
  8
Standard
 10
-1.6011643036694
 20
28.6549861604964
 42
-0.0445528925484
  0
VERTEX
  8
Standard
 10
-0.8013778328933
 20
25.1240367321042
 42
-0.5021974734374
  0
VERTEX
  8
Standard
 10
-3.1255965828933
 20
22.4482554821042
 42
-0.3770101170628
  0
VERTEX
  8
Standard
 10
-5.4693465828933
 20
24.3818492321042
 42
0.1011737002157
  0
VERTEX
  8
Standard
 10
-6.8951278328933
 20
28.9326304821042
 42
0.2329405648404
  0
VERTEX
  8
Standard
 10
-8.3013778328933
 20
30.2021617321042
 42
0.201110724307
  0
VERTEX
  8
Standard
 10
-9.5709090828933
 20
28.0537242321042
 42
0.0522283660949
  0
VERTEX
  8
Standard
 10
-10.4107528328933
 20
16.1201304821042
 42
0.0
  0
VERTEX
  8
Standard
 10
-3.2232528328933
 20
17.0966929821042
 42
-0.420169422069
  0
SEQEND
  0
POLYLINE
  8
Standard
 66
     1
 10
0.0
 20
0.0
 30
0.0
 70
     1
  0
VERTEX
  8
Standard
 10
17.456889807321
 20
15.0849742321042
 42
-0.4131251599264
  0
VERTEX
  8
Standard
 10
15.464702307321
 20
12.4482554821042
 42
0.0
  0
VERTEX
  8
Standard
 10
7.671733557321
 20
11.4326304821042
 42
-0.0005051431481
  0
VERTEX
  8
Standard
 10
7.867046057321
 20
5.1045054821042
 42
-1.0156891146331
  0
VERTEX
  8
Standard
 10
3.140483557321
 20
5.1045054821042
 42
0.020181208929
  0
VERTEX
  8
Standard
 10
2.964702307321
 20
10.9052867321042
 42
-0.0477294460737
  0
VERTEX
  8
Standard
 10
3.316264807321
 20
10.8857554821042
 42
-0.9947735549486
  0
VERTEX
  8
Standard
 10
2.808452307321
 20
15.5732554821042
 42
0.0
  0
VERTEX
  8
Standard
 10
2.867046057321
 20
15.5732554821042
 42
-0.0579751726545
  0
VERTEX
  8
Standard
 10
3.804546057321
 20
29.1474742321042
 42
-0.1416936950042
  0
VERTEX
  8
Standard
 10
5.874858557321
 20
33.2099742321042
 42
-0.3710323947628
  0
VERTEX
  8
Standard
 10
12.515483557321
 20
34.0693492321042
 42
-0.1762273415443
  0
VERTEX
  8
Standard
 10
16.3836658365449
 20
28.6549861604964
 42
-0.0445528925484
  0
VERTEX
  8
Standard
 10
17.183452307321
 20
25.1240367321042
 42
-0.5021974734373
  0
VERTEX
  8
Standard
 10
14.859233557321
 20
22.4482554821042
 42
-0.3770101170628
  0
VERTEX
  8
Standard
 10
12.515483557321
 20
24.3818492321042
 42
0.1011737002157
  0
VERTEX
  8
Standard
 10
11.089702307321
 20
28.9326304821042
 42
0.2329405648404
  0
VERTEX
  8
Standard
 10
9.683452307321
 20
30.2021617321042
 42
0.201110724307
  0
VERTEX
  8
Standard
 10
8.413921057321
 20
28.0537242321042
 42
0.0522283660949
  0
VERTEX
  8
Standard
 10
7.574077307321
 20
16.1201304821042
 42
0.0
  0
VERTEX
  8
Standard
 10
14.761577307321
 20
17.0966929821042
 42
-0.420169422069
  0
SEQEND
  0
POLYLINE
  8
Standard
 66
     1
 10
0.0
 20
0.0
 30
0.0
 70
     1
  0
VERTEX
  8
Standard
 10
32.808452307321
 20
2.6826304821042
 42
-0.448679885921
  0
VERTEX
  8
Standard
 10
30.464702307321
 20
5.2021617321042
 42
0.0802096555806
  0
VERTEX
  8
Standard
 10
30.16550019725
 20
15.6414069523276
 42
0.0676171304416
  0
VERTEX
  8
Standard
 10
29.331889807321
 20
17.8779429821042
 42
0.4557738616523
  0
VERTEX
  8
Standard
 10
26.773296057321
 20
17.4677867321042
 42
0.0066663703967
  0
VERTEX
  8
Standard
 10
25.640483557321
 20
15.7295054821042
 42
0.074357896664
  0
VERTEX
  8
Standard
 10
23.589702307321
 20
4.8505992321042
 42
-0.9662865498354
  0
VERTEX
  8
Standard
 10
18.863139807321
 20
5.0849742321042
 42
0.0065075272962
  0
VERTEX
  8
Standard
 10
19.312358557321
 20
20.7490367321042
 42
-0.9825433081612
  0
VERTEX
  8
Standard
 10
24.038921057321
 20
20.6709117321042
 42
0.0
  0
VERTEX
  8
Standard
 10
24.038921057321
 20
20.7880992321042
 42
-0.2960727955623
  0
VERTEX
  8
Standard
 10
28.296733557321
 20
23.0732554821042
 42
-0.2337602140466
  0
VERTEX
  8
Standard
 10
32.710796057321
 20
20.9834117321042
 42
-0.1500956379925
  0
VERTEX
  8
Standard
 10
34.995952307321
 20
15.3388804821042
 42
-0.0505717485941
  0
VERTEX
  8
Standard
 10
35.171733557321
 20
4.8310679821042
 42
-0.3684700722608
  0
SEQEND
  0
POLYLINE
  8
Standard
 66
     1
 10
0.0
 20
0.0
 30
0.0
 70
     1
  0
VERTEX
  8
Standard
 10
40.640483557321
 20
23.0341929821042
 42
-0.4297793964022
  0
VERTEX
  8
Standard
 10
43.003764807321
 20
20.4951304821042
 42
0.079332676247
  0
VERTEX
  8
Standard
 10
43.3022861079382
 20
10.046105218324
 42
0.0723272390805
  0
VERTEX
  8
Standard
 10
44.136577307321
 20
7.8193492321042
 42
0.4655946522963
  0
VERTEX
  8
Standard
 10
46.675639807321
 20
8.2490367321042
 42
0.0081612732623
  0
VERTEX
  8
Standard
 10
47.827983557321
 20
9.9873179821042
 42
0.0755912791404
  0
VERTEX
  8
Standard
 10
49.878764807321
 20
20.8466929821042
 42
-0.9720980746606
  0
VERTEX
  8
Standard
 10
54.585796057321
 20
20.5927867321042
 42
0.0069232388129
  0
VERTEX
  8
Standard
 10
54.175639807321
 20
5.3388804821042
 42
-1.0804575515631
  0
VERTEX
  8
Standard
 10
49.429546057321
 20
5.0263804821042
 42
0.0
  0
VERTEX
  8
Standard
 10
49.429546057321
 20
4.9091929821042
 42
-0.2974178286441
  0
VERTEX
  8
Standard
 10
45.152202307321
 20
2.6435679821042
 42
-0.3262129854573
  0
VERTEX
  8
Standard
 10
39.2245694580165
 20
7.2227084552076
 42
-0.0893590412182
  0
VERTEX
  8
Standard
 10
38.1055966136259
 20
15.5790245453213
 42
-0.0175515906705
  0
VERTEX
  8
Standard
 10
38.296733557321
 20
20.8466929821042
 42
-0.3824663366097
  0
SEQEND
  0
POLYLINE
  8
Standard
 66
     1
 10
0.0
 20
0.0
 30
0.0
 70
     1
  0
VERTEX
  8
Standard
 10
71.050639807321
 20
2.6826304821042
 42
-0.448679885921
  0
VERTEX
  8
Standard
 10
68.706889807321
 20
5.2021617321042
 42
0.0802096555806
  0
VERTEX
  8
Standard
 10
68.40768769725
 20
15.6414069523276
 42
0.0676171304416
  0
VERTEX
  8
Standard
 10
67.574077307321
 20
17.8779429821042
 42
0.4557738616522
  0
VERTEX
  8
Standard
 10
65.015483557321
 20
17.4677867321042
 42
0.0066663703967
  0
VERTEX
  8
Standard
 10
63.882671057321
 20
15.7295054821042
 42
0.074357896664
  0
VERTEX
  8
Standard
 10
61.831889807321
 20
4.8505992321042
 42
-0.9662865498354
  0
VERTEX
  8
Standard
 10
57.105327307321
 20
5.0849742321042
 42
0.0065075272962
  0
VERTEX
  8
Standard
 10
57.554546057321
 20
20.7490367321042
 42
-0.9825433081612
  0
VERTEX
  8
Standard
 10
62.281108557321
 20
20.6709117321042
 42
0.0
  0
VERTEX
  8
Standard
 10
62.281108557321
 20
20.7880992321042
 42
-0.2960727955623
  0
VERTEX
  8
Standard
 10
66.538921057321
 20
23.0732554821042
 42
-0.2337602140466
  0
VERTEX
  8
Standard
 10
70.952983557321
 20
20.9834117321042
 42
-0.1500956379925
  0
VERTEX
  8
Standard
 10
73.238139807321
 20
15.3388804821042
 42
-0.0505717485941
  0
VERTEX
  8
Standard
 10
73.413921057321
 20
4.8310679821042
 42
-0.3684700722608
  0
SEQEND
  0
POLYLINE
  8
Standard
 66
     1
 10
0.0
 20
0.0
 30
0.0
 70
     1
  0
VERTEX
  8
Standard
 10
86.519389807321
 20
6.3935679821042
 42
-0.048424001782
  0
VERTEX
  8
Standard
 10
86.2019960683576
 20
3.2831997281968
 42
-0.4729694884033
  0
VERTEX
  8
Standard
 10
86.187358557321
 20
3.4638804821042
 42
-0.5040778377275
  0
VERTEX
  8
Standard
 10
90.367046057321
 20
-5.0126820178958
 42
-0.6020803239017
  0
VERTEX
  8
Standard
 10
77.476421057321
 20
-5.3837757678958
 42
-0.3801753027157
  0
VERTEX
  8
Standard
 10
80.288921057321
 20
2.4091929821042
 42
-0.0561960185067
  0
VERTEX
  8
Standard
 10
81.421733557321
 20
2.9560679821042
 42
-0.0256789873133
  0
VERTEX
  8
Standard
 10
81.792827307321
 20
6.1982554821042
 42
-0.3628135846959
  0
VERTEX
  8
Standard
 10
75.757671057321
 20
13.8349742321042
 42
-0.4065779019817
  0
VERTEX
  8
Standard
 10
84.585796057321
 20
22.9365367321042
 42
-0.4570231510751
  0
VERTEX
  8
Standard
 10
87.1400050925523
 20
20.4551468010214
 42
-0.3773020769525
  0
VERTEX
  8
Standard
 10
87.009953174493
 20
20.3471198376922
 42
-0.4144703314967
  0
VERTEX
  8
Standard
 10
92.144389807321
 20
13.0146617321042
 42
-0.276459586163
  0
SEQEND
  0
POLYLINE
  8
Standard
 66
     1
 10
0.0
 20
0.0
 30
0.0
 70
     1
  0
VERTEX
  8
Standard
 10
80.484233557321
 20
13.8935679821042
 42
0.4345523019122
  0
VERTEX
  8
Standard
 10
83.824077307321
 20
10.6709117321042
 42
0.3897913590482
  0
VERTEX
  8
Standard
 10
87.495952307321
 20
13.7763804821042
 42
0.4409176503573
  0
VERTEX
  8
Standard
 10
86.089702307321
 20
15.6904429821042
 42
-0.4193833827475
  0
VERTEX
  8
Standard
 10
84.390483557321
 20
18.6005992321042
 42
0.0
  0
VERTEX
  8
Standard
 10
84.449077307321
 20
18.2490367321042
 42
0.3959173006556
  0
SEQEND
  0
POLYLINE
  8
Standard
 66
     1
 10
0.0
 20
0.0
 30
0.0
 70
     1
  0
VERTEX
  8
Standard
 10
86.304546057321
 20
-2.2392445178958
 42
0.4076705139007
  0
VERTEX
  8
Standard
 10
84.742046057321
 20
-1.0478382678958
 42
0.3993203880068
  0
VERTEX
  8
Standard
 10
81.695171057321
 20
-3.1376820178958
 42
0.3547022232649
  0
VERTEX
  8
Standard
 10
83.863139807321
 20
-4.3876820178958
 42
0.3928155407692
  0
SEQEND
  0
ENDSEC
  0
EOF
