<?xml version="1.0" standalone="yes"?>
<svg xmlns="http://www.w3.org/2000/svg" width="1270" height="777">
<path style="fill:#a54d36; stroke:none;" d="M821 140C834.181 136.596 840.475 122.688 850 114.174C853.165 111.344 859.246 105.236 863.985 106.573C867.703 107.621 870.414 112.21 872.754 115C877.772 120.984 883.598 129.072 891 132C892.942 125.155 888.535 121.855 884.286 117C878.397 110.271 871.647 103.41 866.649 96C861.212 87.9404 866.707 77.9445 864.467 69.0154C863.539 65.3186 856.203 59.3376 853.912 65.3179C852.884 68.0007 853.99 72.1522 853.999 75C854.023 82.62 854.503 93.995 851.347 101C847.215 110.173 835.045 117.918 828.001 125C823.516 129.509 819.183 133.307 821 140M577 156C587.298 159.231 586 166.776 586 176C586 181.534 586.735 187.742 584.656 193C582.981 197.236 579.506 200.607 576.575 204C570.74 210.755 564.607 217.282 558.714 224C555.053 228.173 545.979 234.038 545.546 239.956C545.27 243.733 549.011 244.767 552.004 244.956C557.364 245.294 565.628 242.116 569.397 247.148C572.492 251.281 570.839 258.306 570.286 263C569.118 272.896 568.999 283.034 569 293C569 296.938 570.458 303.529 567.593 306.682C563.806 310.85 555.072 308.652 550 309.665C533.286 313.005 516.487 316.814 500 321.156C479.773 326.483 460.505 334.156 441 341.576C420.281 349.457 399.153 357.056 379 366.309C362.074 374.079 345.842 383.264 329 391.219C314.865 397.896 301.049 404.634 288 413.333C282.554 416.964 275.874 420.379 274 427C285.976 426.745 295.824 418.747 306 413.323C317.354 407.272 330.151 402.495 342 397.427C380.09 381.138 418.712 366.715 458 353.667C473.35 348.569 488.287 342.354 504 338.374C523.219 333.507 542.586 329.018 562 324.997C568.801 323.588 580.788 322.6 585.258 316.671C590.263 310.031 585.012 296.661 585 289C584.982 277.679 584.737 266.318 585.015 255C585.133 250.153 586.94 244.826 585.682 240.019C583.849 233.013 571.54 236.939 571.306 229.945C571.187 226.369 575.345 222.542 577.424 220C582.964 213.228 588.748 206.659 594.421 200C596.77 197.243 599.638 192.406 603.046 190.921C607.313 189.063 609.746 197.431 611.467 200C618.306 210.214 626.073 219.86 633 230C624.996 233.608 625.001 240.099 625 248C624.999 258.399 624.799 268.771 627.015 279C627.964 283.386 632.649 290.599 630.153 294.816C626.365 301.215 614.988 306.101 609 310.424C594.062 321.21 579.034 332.966 566 346C561.538 350.462 557.26 354.974 553.429 360C551.779 362.165 549.306 364.954 549.546 367.895C549.954 372.917 558.157 374.075 562 373.941C573.199 373.552 581.244 359.276 589 352.576C606.281 337.648 625.221 324.918 644 311.975C666.834 296.237 689.724 280.913 715 269.309C728.215 263.242 741.561 257.332 755 251.796C760.337 249.598 768.17 246.851 770 241C755.15 241.124 738.646 248.342 725 253.8C707.084 260.967 688.871 267.299 671 274.603C663.05 277.853 655.527 282.032 648 286.136C645.645 287.42 641.224 290.319 638.603 288.211C635.338 285.585 638.014 278.506 637.946 275C637.721 263.355 637 251.71 637 240C641.734 240 654.516 241.852 655.418 234.946C655.825 231.832 653.161 229.753 651.281 227.714C647.253 223.347 644.069 218.311 639.961 214C634.065 207.814 627.058 201.249 624.105 193C621.308 185.188 622.315 177.098 621.961 169C621.727 163.669 619.072 156.08 622.741 151.391C624.291 149.409 626.888 148.263 629 147C625.12 136.401 618.323 126.151 613.247 116C611.862 113.232 609.864 106.636 605.988 106.636C601.496 106.636 598.86 114.775 597.247 118C593.29 125.909 589.944 134.267 585.687 142C583.005 146.871 579.014 150.793 577 156M860 117.738C854.572 119.737 850.004 125.035 846 129C841.468 133.489 836.507 137.491 832.004 142.004C829.505 144.508 825.256 147.985 825.546 151.956C826.046 158.794 836.007 154.96 837.682 161.059C838.99 165.819 837.439 171.222 837.089 176C836.357 185.984 835.477 196.008 835.039 206C834.707 213.586 836.673 227.557 831.436 233.721C828.442 237.246 822.264 237.976 818 239C810.219 240.868 802.439 243.498 795 246.45C786.757 249.72 779.043 253.998 771 257.691C744.108 270.039 715.121 285.335 695.424 308C689.523 314.791 683.097 320.979 678.796 329C677.428 331.55 675.408 334.95 675.647 337.96C675.915 341.342 679.403 343.339 682.001 344.931C693.872 352.204 700.139 343.357 707.911 335C717.151 325.063 726.474 315.096 737 306.465C754.07 292.466 774.792 281.83 795 273.15L815 264.579C817.981 263.307 821.661 260.946 824.981 260.927C831.316 260.891 829.35 269.051 830.573 272.941C831.278 275.185 833.15 277.305 835.74 276.338C839.286 275.014 838.751 269.973 839.184 267C839.841 262.504 842.202 258.501 846.04 255.995C852 252.104 860.134 251.666 867 250.845C882.163 249.031 897.69 247.04 913 248.089C935.401 249.625 959.612 258.93 974.714 276.001C978.494 280.273 981.785 285.961 986.184 289.566C987.76 290.856 990.424 292.323 992.393 290.928C995.971 288.393 991.591 281.565 990.127 279C984.353 268.878 975.277 260.521 966 253.63C952.641 243.706 937.989 238.372 922 234.375C914.785 232.571 901.883 233.165 896.558 227.606C891.925 222.768 892.527 215.124 891.561 209C889.603 196.595 886.302 184.309 883.801 172C882.795 167.048 880.253 160.072 881.357 155.043C882.473 149.962 888.04 149.67 891.941 147.867C893.838 146.991 895.861 145.519 895.248 143.13C894.376 139.723 889.426 137.159 887 134.91C880.29 128.689 870.867 113.738 860 117.738M596 141C596.264 138.439 596.675 136.264 598.005 133.998C599.447 131.543 602.767 126.207 606.046 126.207C609.908 126.207 613.621 134.418 611.868 137.566C610.489 140.044 606.464 140.213 604 140.572C601.332 140.96 598.69 140.993 596 141M595 178C594.813 173.638 594.02 169.381 594.001 165C593.987 161.858 593.526 157.975 595.179 155.144C597.391 151.355 605.02 149.446 608.397 152.742C610.471 154.768 609.996 158.374 610 161C610.018 171.877 605.916 176.12 595 178M248 170L248 172L249.992 173.637C254.696 179.522 247.516 179.391 245.082 183.498C243.71 185.813 245.582 188.472 244.714 190.911C243.713 193.72 240.499 195.087 239.712 198.039C237.967 204.588 250.015 208.632 246.288 214.867C242.326 221.493 230.317 218.569 224 219.17C218.674 219.677 213.347 220.727 208 220.961C194.135 221.568 178.714 220.334 166 227C170.081 235.273 179.348 232.901 187 232.17C199.708 230.955 214.325 227.78 227 229.424C230.683 229.902 236.657 229.193 239.218 232.434C241.681 235.55 240.003 242.227 240 246C247.703 243.371 247.433 231.79 256.001 229.434C261.748 227.853 269.071 229 275 229C284.891 229 295.153 228.217 305 229.17C309.763 229.631 314.288 231.2 319 231.819C353.17 236.315 387.158 240.638 421 247.449C431.866 249.636 443.324 251.895 454 254.609C459.08 255.9 463.793 257.992 469 258.916C487.914 262.274 506.506 268.282 525 273.424C530.445 274.938 543.756 280.906 541.311 269.999C538.979 259.598 529.018 255.441 520 252.218C499.55 244.908 477.401 239.559 456 235.919C448.991 234.727 441.993 233.363 435 232.076C432.073 231.537 428.365 230.791 426.832 227.87C423.812 222.118 433.838 220.394 437 218.698C439.79 217.202 441.982 214.675 445 213.6C448.096 212.496 451.774 213.064 455 212.985C461.844 212.818 468.149 212.706 475 213C473.184 206.963 466.669 206.292 461 206.039C450.109 205.554 437.583 206.519 427 204C433.47 200.833 440.928 200.592 448 199.834C458.298 198.731 468.628 197.029 479 197C477.337 191.717 472.038 190.948 467 190.289C456.505 188.918 445.25 190.44 435 188C441.626 184.147 450.934 183.679 454 176C445.982 173.696 430.084 177.43 423.001 181.843C419.382 184.098 417.126 187.754 413.83 190.363C411.062 192.554 406.778 193.476 404.647 196.39C402.652 199.121 405.008 202.024 403.907 204.911C402.972 207.359 399.514 209.008 400.346 211.996C401.315 215.479 418.563 222.681 408.937 226.382C405.512 227.699 400.505 226.098 397 225.579C388.714 224.352 380.337 222.967 372 222.17C345.315 219.618 317.814 218 291 218C282.403 218 273.543 219.801 265 218.826C261.518 218.428 257.329 217.241 257.527 212.981C258.203 198.412 274.099 197.498 285 196C289.884 195.329 295.316 195.595 298 191C289.696 191 282.879 189.563 275 187C286.227 180.71 298.826 184 311 184C306.651 177.365 294.37 175.886 287 175.17C284.486 174.925 280.587 175.663 278.466 173.988C274.313 170.707 284.245 168.09 285.995 167.629L292 166L292 164C277.64 160.581 260.957 163.172 248 170M861 168.326C865.13 167.651 869.508 168.278 871.86 172.109C874.718 176.763 875.181 183.71 876.081 189C877.446 197.023 879.417 204.939 880.572 213C881.361 218.514 882.82 226.805 875.981 228.366C869.182 229.917 860.974 229.987 854 230.681C851.633 230.916 849.232 230.611 847.603 228.682C844.117 224.552 845.378 214.019 845.831 209C847.035 195.677 842.906 171.283 861 168.326M356 298C353.153 285.7 345.398 277.232 337.285 268C334.963 265.358 327.932 259.388 329.422 255.322C330.566 252.202 335.639 253.71 338 253.925C347.311 254.775 356.09 258.047 365 260.72C378.331 264.72 391.622 268.869 405 272.709C410.333 274.24 417.182 274.249 421.961 277.09C426.273 279.653 429.252 284.409 433.001 287.714C442.298 295.909 452.221 304.528 462 312C461.964 299.529 452.553 291.919 444.001 283.91C440.357 280.498 437.446 274.737 433.391 272.028C429.873 269.677 423.176 270.125 419 268.576C401.073 261.924 382.35 256.943 364 251.576C354.31 248.741 345.033 246.264 335 244.87C331.768 244.42 327.38 243.096 324.394 245.028C319.37 248.279 321.119 255.696 323.324 260C328.821 270.727 336.771 280.571 344.211 290C347.46 294.118 350.331 298.802 356 298M321 340C315.91 337.864 304.001 342.601 300.89 337.687C297.288 331.996 308.964 330.719 312 330.272C322.961 328.656 334.05 328.134 345 326.41C349.365 325.722 355.755 323.186 359.957 325.218C369.137 329.659 366.631 342.084 366.09 350C365.832 353.757 364.931 360.274 370.059 360.762C383.024 361.998 388.32 348.596 399 343.644C413.801 336.781 432.057 337.015 448 335C447.195 324.424 437.526 327.895 430 327.996C418.427 328.152 406.501 328.872 395 330.285C390.298 330.862 382.402 333.106 378.015 330.958C368.399 326.247 366.725 311.132 356.985 306.18C352.645 303.973 345.667 305.727 341 306.285C327.629 307.885 314.052 310.89 301 314.286C297.302 315.249 289.999 319.305 286.361 316.932C282.372 314.33 287.851 306.693 289.453 304C296.376 292.364 306.232 283.208 313.451 272C315.139 269.38 321.542 255.838 312.985 257.89C307.58 259.186 303.875 266.813 300.975 271C292.818 282.78 284.309 294.326 276 306C273.181 309.961 266.152 316.65 267.8 321.985C269.07 326.093 273.549 327.929 277 329.781C282.057 332.495 287.943 335.736 290.698 341.004C292.856 345.131 296.101 351.423 296.761 356C297.284 359.628 296.057 363.357 296.019 367C295.991 369.617 295.839 373.988 299.225 374.573C303.232 375.266 305.766 371.186 306.891 367.996C308.453 363.569 308.846 357.685 308.946 353C308.998 350.575 308.077 347.497 309.198 345.228C310.992 341.597 317.513 341.108 321 340M464 602C464.888 611.767 460.078 623.461 457.881 633C454.186 649.042 451.941 664.791 449.41 681C448.131 689.185 443.72 704.873 451.43 711.396C454.181 713.724 458.004 712.725 459.86 709.852C463.148 704.764 465.27 694.946 466.547 689C473.668 655.832 486.426 622.817 498.053 591C501.691 581.046 504.424 563.983 514.015 558.074C525.173 551.2 541.501 553.115 550.961 543.945C553.296 541.681 556.65 538.455 557.288 535.109C558.151 530.583 551.807 531.011 549 531.001C541.449 530.973 533.46 533.583 526.059 533.168C523.616 533.031 522.495 531.328 522.677 528.98C522.997 524.871 525.951 520.604 527.753 517C532.371 507.762 537.727 499.034 542.688 490C556.361 465.103 570.6 441.914 590.089 421C601.466 408.792 615.099 398.72 626.826 386.83C629.571 384.048 633.188 380.067 633.617 376C634.327 369.26 626.242 362.608 620 362.359C612.019 362.04 605.944 366.794 600 371.424C590.083 379.15 580.884 387.101 572 396C538.66 429.394 517.617 472.925 497.258 515C492.283 525.283 489.467 537.216 483.637 546.985C480.492 552.254 474.818 555.339 470 558.884C462.795 564.186 456.301 569.626 450.004 576C446.69 579.354 442.174 583.324 440.771 588C438.724 594.818 447.27 605.119 454.001 605.718C457.66 606.043 460.869 603.523 464 602M639 416.858C634.565 418.639 630.426 422.833 627.015 426.09C616.784 435.856 608.975 448.874 601.861 461C588.578 483.641 575.467 507.649 565.604 532C557.783 551.309 552.44 571.552 545.064 591C539.52 605.618 535.693 620.506 533.845 636C532.916 643.791 532.554 652.724 543 650.251C547.127 649.273 552.36 648.246 555.61 645.351C559.766 641.648 561.49 635.081 563.204 630C566.801 619.341 569.635 609.027 572 598C573.988 588.733 577.55 579.985 580.482 571C591.546 537.087 608.176 504.418 626.811 474C632.472 464.759 638.702 455.482 645.45 447C649.123 442.383 655.196 437.591 657.254 432C660.831 422.28 647.478 413.454 639 416.858M752.214 430.782C749.022 432.055 747.998 436.027 747.155 439C745.185 445.952 743.379 452.99 741.627 460C735.939 482.743 729.971 505.366 723.849 528C720.724 539.553 716.536 549.962 728.001 558.211C742.111 568.365 749.97 557.073 761 548.514C768.888 542.393 777.942 537.456 787 533.309C791.768 531.126 806.04 523.304 810.396 528.333C815.276 533.967 806.777 545.202 803.771 550C795.174 563.724 783.039 577.219 770 586.844C765.125 590.443 759.416 595.023 753 594.725C747.298 594.461 741.306 591.212 737 587.671C731.934 583.506 727.085 577.23 720.09 581.894C709.83 588.734 713.491 598.182 719.924 606C729.113 617.169 739.758 625.279 755 622.536C776.504 618.665 792.657 603.375 808 589.089C816.944 580.762 825.467 573.308 832.326 563C840.132 551.268 847.414 532.274 833.985 522.159C820.857 512.272 802.336 507.946 786 510.3C779.385 511.253 773.264 514.252 767 516.408C764.834 517.154 761.579 518.48 759.708 516.381C758.331 514.838 759.095 512.719 759.599 510.999C760.972 506.306 762.472 501.646 763.999 497C767.632 485.95 768.885 474.219 771.92 463C773.536 457.024 776.862 450.352 775.768 444.004C774.498 436.638 759.476 427.885 752.214 430.782M189 431.424C173.729 433.435 159.811 437.794 145 441.848C124.375 447.493 104.106 453.402 85 463.258C77.42 467.169 65.9484 472.538 60.7423 479.465C57.1151 484.29 60.2999 490.483 65.0432 493C73.4233 497.447 82.1444 493.847 90 490.306C103.934 484.024 117.642 477.627 132 472.319C137.511 470.281 143.224 467.512 149 466.359C151.097 465.94 153.772 465.723 155.357 467.488C158.008 470.439 155.224 476.641 154.614 480C152.559 491.32 150.61 502.638 148.754 514C145.7 532.693 144.786 551.154 143.961 570C143.658 576.911 144.456 587.458 138.811 592.291C133.798 596.583 126.229 596.954 120 598.2C107.975 600.605 96.0181 603.358 84 605.801C79.0735 606.802 73.775 607.586 69.0193 609.224C67.4559 609.762 65.3101 610.524 64.7515 612.289C63.6852 615.659 69.8332 617.643 72 618.573C80.6862 622.298 90.5411 625.883 100 626.829C116.411 628.471 133.058 625.614 149 622.286C163.111 619.339 178.12 615.729 191 609.015C206.113 601.138 221.121 590.339 235 580.421C253.06 567.515 272.844 551.746 283.688 532C287.65 524.786 290.71 517.128 292.079 509C293.202 502.337 293.793 494.711 292.674 488C285.109 442.607 228.471 426.227 189 431.424M206 453.325C212.175 452.864 218.915 454.433 225 455.41C243.548 458.39 260.964 464.824 266.104 485C267.156 489.13 268.424 493.749 267.464 498C265.157 508.208 255.999 516.837 249.015 524C244.788 528.335 241.393 533.493 236.91 537.561C224.511 548.812 209.211 557.224 195 565.939C189.108 569.553 183.01 572.867 177 576.281C174.046 577.959 170.597 580.636 167.044 580.638C163.732 580.64 162.375 577.987 162.573 574.995C162.862 570.627 164.73 566.296 165.54 562C166.476 557.036 166.729 551.967 167.615 547C171.533 525.026 176.304 502.462 182.421 481C184.406 474.036 185.156 462.637 190.419 457.314C193.988 453.704 201.231 453.681 206 453.325M363.941 475.666C353.558 476.309 343.668 483.301 336 489.615C320.26 502.574 307.801 519.379 297.72 537C293.194 544.912 288.29 553.788 287.184 563C284.393 586.253 303.631 613.225 328 614.903C350.943 616.483 377.393 599.433 388.468 580C391.68 574.363 393.459 567.244 395.116 561C400.04 542.443 401.386 516.398 377 512.326C357.186 509.017 341.997 528.283 333.785 544C330.298 550.674 326.539 564.01 335.188 568.816C339.249 571.073 342.62 568.144 344.957 564.981C350.384 557.634 353.413 548.629 360.174 542.213C363.064 539.47 369.816 534.926 373.218 539.322C376.894 544.073 370.435 554.559 368.244 559C362.247 571.157 353.177 579.015 342 586.329C335.298 590.715 325.972 594.358 318 590.911C305.03 585.302 308.716 568.344 313.018 558C319.801 541.687 332.255 523.274 345.015 511.09C351.708 504.698 360.169 500.578 366.852 494.331C370.933 490.516 369.191 486.792 368.32 482.001C367.785 479.056 367.905 475.42 363.941 475.666M438 508C437.579 504.667 436.902 501.378 437.093 498C437.312 494.137 438.908 489.817 436.821 486.188C433.371 480.191 417.798 477.858 414.589 485.109C412.706 489.362 412.631 495.408 412 500C410.618 510.058 409.404 519.868 408.961 530C408.492 540.705 406.185 551.339 405.17 562C404.505 568.977 404.54 576.023 403.715 583C402.736 591.271 402.865 601.77 404.468 609.999C405.123 613.359 406.55 616.698 410.025 617.932C412.18 618.698 413.998 618.114 414.682 615.848C415.701 612.471 414.786 608.492 415.301 605C416.229 598.7 418.493 592.117 420.294 586C422.365 578.966 425.666 572.689 428.576 566C435.379 550.363 442.538 534.102 455.004 522.039C463.829 513.499 474.146 508.184 485 502.753C492.159 499.171 497.384 495.938 501.676 489C503.215 486.512 505.542 483.233 503.928 480.228C500.675 474.172 490.611 478.796 486 480.333C474.849 484.051 464.617 489.274 455 496.036C449.347 500.011 444.498 505.483 438 508M685 484.439C679.294 485.048 673.424 484.621 668 486.761C658.325 490.577 649.813 497.922 642 504.579C624.12 519.811 603.881 539.188 598.236 563C596.561 570.066 594.589 577.699 595.089 585C596.534 606.086 611.996 629.128 635 626.829C654.204 624.911 676.488 614.344 688.319 599C691.666 594.66 702.732 578.784 693.772 574.746C688.92 572.56 682.235 576.674 678 578.756C668.015 583.665 658.205 588.985 648 593.424C644.107 595.118 640.245 597.326 636 598.007C629.507 599.049 623.303 593.85 621.013 588C618.311 581.098 624.337 571.686 627.811 566C638.457 548.578 652.166 532.595 668 519.616C673.497 515.11 684.277 505.938 691.956 510.028C702.106 515.433 690.611 525.403 686 529.999C675.738 540.228 663.994 548.011 652 556C646.773 559.482 639.464 562.542 635.333 567.326C629.83 573.699 639.923 577.763 645 577.956C654.133 578.303 662.572 572.651 670 567.947C687.408 556.922 709.819 543.921 717.907 524C726.173 503.64 705.663 482.234 685 484.439M1226 594C1219.94 591.394 1213.39 590.589 1207 589.119C1187.59 584.658 1167.9 582.767 1148 583.004C1139.65 583.103 1131.35 584.911 1123 584.996C1119.76 585.029 1115.97 585.317 1113.23 583.258C1106.18 577.965 1109.23 564.321 1110.05 557C1111.83 541.184 1124.11 518.019 1111.66 504.105C1108.32 500.371 1103.4 498.426 1099 496.248C1094.81 494.176 1090.68 492.64 1086 492.171C1069.75 490.54 1060.46 501.808 1050.72 513C1041.91 523.126 1032.81 533.065 1025 544C1020.39 550.445 1015.74 556.99 1010.56 562.995C1009 564.812 1006.19 568.613 1003.32 567.654C998.239 565.96 1002.81 553.338 1003.63 550C1006.15 539.658 1007.03 528.577 1008.17 518C1008.69 513.106 1009.73 507.901 1008.61 503C1006.79 495.118 995.929 488.48 988.058 491.742C984.635 493.161 983.563 496.596 983.174 500C982.297 507.686 982.916 515.33 981.334 523C976.754 545.209 969.967 567.058 970.079 590C970.14 602.469 981.773 612.511 994 612.657C1008.01 612.823 1012.67 604.273 1021.09 595C1035.33 579.308 1047.2 562.024 1061 546C1065.32 540.986 1069.53 535.803 1074.09 531.005C1075.86 529.138 1078.2 526.275 1080.94 525.921C1087.12 525.123 1084.98 538.751 1084.33 542C1082.37 551.849 1081.83 562.006 1080.83 572C1079.78 582.494 1078.51 594.555 1084.48 603.96C1091.1 614.39 1104.18 614 1115 614C1141.47 614 1168.11 610.364 1194 605.003C1203.92 602.949 1220.81 604.523 1226 594M955 566C947.688 566.642 941.578 570.729 935 573.694C927.156 577.231 918.975 579.982 911 583.201C901.744 586.936 892.926 591.795 884 596.247C879.977 598.253 874.675 601.744 870.015 601.562C858.937 601.129 858.345 579.582 866.108 574.693C869.057 572.836 872.825 574.119 876 574.572C880.677 575.239 885.527 575.349 890 573.676C904.136 568.387 915.965 559.755 928 550.884C933.867 546.56 940.836 542.68 945.471 536.961C953.438 527.131 951.607 512.753 940.985 505.36C937.284 502.784 933.153 500.623 929 498.876C924.603 497.025 919.726 495.904 915 495.289C908.922 494.5 900.929 494.106 895 495.789C876.1 501.153 862.411 519.812 853.15 536C839.924 559.119 829.063 585.672 846.039 609.999C849.113 614.405 852.876 618.364 857.004 621.802C868.546 631.415 881.297 627.158 894 622.424C904.215 618.617 912.701 613.443 922 607.797C938.878 597.55 954.062 587.518 955 566M878 551C879.551 546.323 882.613 542.916 885.522 539C891.844 530.489 898.083 521.936 908 517.324C911.945 515.49 921.771 511.427 924.954 516.434C928.159 521.476 920.244 527.579 916.999 530.192C909.271 536.414 900.81 541.278 892 545.756C887.281 548.155 883.39 550.708 878 551M682 675L674 675L674 683L682 683L682 723L694 723L694 683L702 683L702 675L694 675C694.001 666.675 694.391 661.114 704 661C703.992 658.806 704.466 655.581 702.972 653.742C699.558 649.54 688.701 652.112 685.558 655.394C680.722 660.444 682 668.617 682 675M957 653L957 680C954.834 678.057 952.746 676.11 949.998 675.008C941.707 671.682 932.904 675.955 929.613 684C925.698 693.573 925.76 706.946 931.086 715.996C937.106 726.227 951.402 726.532 957 716C957.722 718.418 957.948 720.472 958 723L968 723L968 653L957 653M573 658L573 723L584 723L584 694L604 694L604 723L616 723L616 658L604 658L604 684L584 684L584 658L573 658M1067 658C1071.54 679.925 1082.73 700.878 1086 723L1099 723C1103.58 701.088 1115.01 680.196 1118 658L1106 658C1102.59 674.526 1097.32 690.7 1093 707C1090.14 701.306 1089.56 695.06 1087.79 689C1084.89 679.042 1080.85 668.362 1080 658L1067 658M641 674.638C624.268 679.474 622.082 707.428 633.329 718.671C639.045 724.383 648.673 724.725 656 722.482C665.769 719.49 668.951 709.297 668.999 700C669.025 694.921 669.19 689.704 666.95 685C662.442 675.531 650.806 671.804 641 674.638M708 712C708 714.668 707.236 719.027 709.028 721.258C710.669 723.302 714.609 723.43 717 723.713C725.219 724.687 736.472 722.31 738.606 712.999C740.604 704.281 734.586 699.649 728 695.414C725.268 693.656 718.615 690.366 720.256 686.133C722.497 680.353 731.982 683.937 736 685L736 675C731.638 674.656 727.402 673.891 723 674.015C712.695 674.306 703.596 685 710.009 694.907C713.849 700.837 723.011 701.937 726.248 708.089C727.94 711.304 724.905 713.816 721.995 714.552C717.439 715.703 712.38 713.013 708 712M775 716C777.485 724.487 772.908 734.595 763 734.63C758.157 734.648 753.365 731.79 749 730C749 732.976 748.111 737.897 750.028 740.411C751.839 742.788 756.315 742.811 759 743.246C767.953 744.698 778.874 743.663 783.911 734.996C787.726 728.432 787 720.272 787 713L787 675L777 675L777 681C774.853 678.904 772.727 676.533 769.998 675.177C762.19 671.298 753.228 675.696 749.558 683C745.31 691.453 745.244 706.766 750.086 714.996C755.642 724.44 769.321 725.962 775 716M810 682C809.278 679.582 809.052 677.528 809 675L799 675L799 723L810 723C810 713.865 808.343 702.914 810.394 694C811.812 687.839 816.877 684.173 823 685L823 674C816.697 674.152 812.958 676.35 810 682M890 681L890 675L880 675L880 723L891 723C891 713.352 889.073 701.371 891.419 692.001C892.429 687.967 896.223 682.982 900.961 684.107C904.973 685.06 906.668 689.317 906.945 693C907.689 702.889 907 713.082 907 723L918 723C918 710.678 920.634 694.852 917.057 683.001C914.627 674.947 904.391 671.478 897.015 675.317C894.357 676.701 892.273 679.094 890 681M1038 712C1027.23 716.148 1014.5 716.513 1013 702L1041 702C1040.98 694.07 1040.69 684.342 1034.53 678.532C1019.95 664.777 1002.71 681.236 1002.04 697C1001.67 705.742 1003.97 715.952 1012.01 720.772C1017.33 723.957 1024.07 724.246 1030 723.245C1032.36 722.847 1035.45 722.619 1036.97 720.486C1038.57 718.255 1038 714.582 1038 712M831 675L831 699C831 704.82 830.548 710.576 833.059 715.999C838.118 726.926 852.578 725.968 858 716C858.722 718.418 858.948 720.472 859 723L869 723L869 675L858 675C858 684.657 859.376 695.503 857.532 705C856.719 709.183 854.142 714.319 849.015 713.458C844.33 712.671 843.142 708.038 843.015 704C842.713 694.353 843 684.652 843 675L831 675M647.015 682.499C651.405 681.909 654.671 685.095 655.891 689.015C658.081 696.05 659.036 713.808 648.996 715.458C644.812 716.145 641.55 712.527 640.148 708.996C637.398 702.071 636.986 683.849 647.015 682.499M947.003 682.623C951.172 682.049 954.128 685.577 955.633 689.005C958.59 695.74 957.987 714.096 947.997 714.793C943.73 715.091 940.983 711.734 939.804 707.999C937.628 701.108 937.198 683.973 947.003 682.623M1030 695L1013 695C1013.08 691.484 1013.33 688.011 1015.65 685.148C1019.11 680.895 1025.81 681.263 1028.54 686.109C1030.07 688.824 1029.97 691.99 1030 695M765.04 683.449C779.208 679.834 780.123 710.73 768.982 713.551C764.04 714.802 761.04 711.267 759.599 706.996C757.414 700.523 756.247 685.693 765.04 683.449M1048 711L1048 723L1059 723L1059 711L1048 711M1118 711L1118 723L1129 723L1129 711L1118 711z"/>
</svg>
