  0
SECTION
  2
HEADER
  9
$ACADVER
  1
AC1009
  9
$EXTMAX
 10
74.6079559326172
 20
94.4862365722656
 30
0.0
  9
$EXTMIN
 10
-0.3178656995296
 20
1.1862359046936
 30
0.0
  9
$INSUNITS
 70
     4
  9
$LUNITS
 70
     2
  9
$LUPREC
 70
     4
  9
$MEASUREMENT
 70
     1
  0
ENDSEC
  0
SECTION
  2
TABLES
  0
TABLE
  2
LAYER
 70
     1
  0
LAYER
  2
0
 70
     0
 62
     7
  6
Continuous
  0
LAYER
  2
C7
 70
     0
 62
     7
  6
Continuous
  0
ENDTAB
  0
TABLE
  2
APPID
 70
     1
  0
APPID
  2
ACAD
 70
     0
  0
ENDTAB
  0
ENDSEC
  0
SECTION
  2
ENTITIES
  0
POLYLINE
  8
C7
 66
     1
 10
0.0
 20
0.0
 30
0.0
 70
     1
  0
VERTEX
  8
C7
 10
26.253199582353
 20
58.6870032338481
 42
0.0
  0
VERTEX
  8
C7
 10
23.0216926549875
 20
46.2047089904107
 42
0.0
  0
VERTEX
  8
C7
 10
32.3154428010772
 20
46.3988202986134
 42
0.0
  0
VERTEX
  8
C7
 10
32.8011257799157
 20
58.6870032338481
 42
0.0
  0
SEQEND
  0
POLYLINE
  8
C7
 66
     1
 10
0.0
 20
0.0
 30
0.0
 70
     1
  0
VERTEX
  8
C7
 10
22.4514074072614
 20
43.8522823435407
 42
0.0
  0
VERTEX
  8
C7
 10
18.5304496941828
 20
29.2142563482899
 42
0.0
  0
VERTEX
  8
C7
 10
31.7185426828096
 20
29.2387228705608
 42
0.0
  0
VERTEX
  8
C7
 10
32.0306541079873
 20
43.7767719290822
 42
0.0
  0
SEQEND
  0
POLYLINE
  8
C7
 66
     1
 10
0.0
 20
0.0
 30
0.0
 70
     1
  0
VERTEX
  8
C7
 10
36.1913728453565
 20
43.5111941373353
 42
0.0
  0
VERTEX
  8
C7
 10
48.9391068492112
 20
43.7325089637911
 42
0.0
  0
VERTEX
  8
C7
 10
53.7637700659479
 20
29.2585193135811
 42
0.0
  0
VERTEX
  8
C7
 10
36.2798987759388
 20
29.2585193135811
 42
0.0
  0
SEQEND
  0
ARC
  8
C7
 10
32.1985438216423
 20
25.6454255354543
 30
0.0
 40
0.4696593920586
 50
10.6493020422666
 51
26.2205956035689
  0
POLYLINE
  8
C7
 66
     1
 10
0.0
 20
0.0
 30
0.0
 70
     1
  0
VERTEX
  8
C7
 10
18.2821342975135
 20
9.2862359270087
 42
0.0
  0
VERTEX
  8
C7
 10
18.2821342975135
 20
7.4862359270087
 42
-0.0066435194117
  0
VERTEX
  8
C7
 10
23.6863642975135
 20
7.9041359270086
 42
0.0449001926961
  0
VERTEX
  8
C7
 10
28.7296642975135
 20
8.5272959270086
 42
0.128641638496
  0
VERTEX
  8
C7
 10
32.842769788787
 20
8.4501304761121
 42
0.0
  0
VERTEX
  8
C7
 10
32.6198750779321
 20
25.8529343714641
 42
0.01492927371
  0
VERTEX
  8
C7
 10
17.650948348501
 20
25.893173421812
 42
0.0435534435235
  0
VERTEX
  8
C7
 10
13.7821342975135
 20
8.3862359270086
 42
0.0
  0
VERTEX
  8
C7
 10
13.4967414406749
 20
6.4632524875155
 42
0.3102088913748
  0
VERTEX
  8
C7
 10
15.3609442975138
 20
6.5214059270093
 42
-0.0004708574843
  0
SEQEND
  0
POLYLINE
  8
C7
 66
     1
 10
0.0
 20
0.0
 30
0.0
 70
     1
  0
VERTEX
  8
C7
 10
26.6190055151777
 20
60.6989358643841
 42
0.0
  0
VERTEX
  8
C7
 10
32.8377063731982
 20
60.7355164576666
 42
0.0
  0
VERTEX
  8
C7
 10
33.0206093396105
 20
62.7108684949202
 42
0.0
  0
VERTEX
  8
C7
 10
31.6305467948766
 20
64.6496399388913
 42
0.0
  0
VERTEX
  8
C7
 10
27.4237785673921
 20
64.7593817187387
 42
0.0
  0
SEQEND
  0
POLYLINE
  8
C7
 66
     1
 10
0.0
 20
0.0
 30
0.0
 70
     1
  0
VERTEX
  8
C7
 10
36.1299597686208
 20
60.4794523046893
 42
0.0
  0
VERTEX
  8
C7
 10
44.2142708840474
 20
60.5160328979717
 42
0.0
  0
VERTEX
  8
C7
 10
43.2997560519856
 20
64.5764787523263
 42
0.0
  0
VERTEX
  8
C7
 10
36.1299597686208
 20
64.5033175657614
 42
0.0
  0
SEQEND
  0
POLYLINE
  8
C7
 66
     1
 10
0.0
 20
0.0
 30
0.0
 70
     1
  0
VERTEX
  8
C7
 10
39.7813691203195
 20
10.4997602113346
 42
0.056325376313
  0
VERTEX
  8
C7
 10
39.0497538515887
 20
12.1093138025424
 42
0.0960626339182
  0
VERTEX
  8
C7
 10
40.4764036256137
 20
16.8648130492926
 42
-0.247473171625
  0
VERTEX
  8
C7
 10
41.5557742975135
 20
11.7135659270086
 42
0.0843588618619
  0
VERTEX
  8
C7
 10
41.4048142975135
 20
9.9049859270087
 42
0.3865806494827
  0
VERTEX
  8
C7
 10
43.0789342975135
 20
8.3996459270086
 42
-0.0387305203769
  0
VERTEX
  8
C7
 10
45.2703142975135
 20
8.5526459270087
 42
-0.0662953230446
  0
VERTEX
  8
C7
 10
46.4828542975135
 20
8.1424859270087
 42
0.1112150156418
  0
VERTEX
  8
C7
 10
47.9945842975135
 20
7.8726959270087
 42
0.0363454808361
  0
VERTEX
  8
C7
 10
51.6105742975135
 20
8.4085859270087
 42
-0.0295326291966
  0
VERTEX
  8
C7
 10
54.5821342975135
 20
8.9862359270087
 42
-0.0318487441847
  0
VERTEX
  8
C7
 10
54.5740555105574
 20
11.0154586740587
 42
-0.1552751297637
  0
VERTEX
  8
C7
 10
53.36477575927
 20
11.4551967654359
 42
0.0809394722799
  0
VERTEX
  8
C7
 10
54.5821342975135
 20
13.1862359270086
 42
0.0
  0
VERTEX
  8
C7
 10
55.5634662161563
 20
15.0005851271651
 42
0.0484021821301
  0
VERTEX
  8
C7
 10
57.5821342975135
 20
10.7862359270086
 42
0.0
  0
VERTEX
  8
C7
 10
55.838302523267
 20
10.9604914126365
 42
0.0
  0
VERTEX
  8
C7
 10
55.7821342975135
 20
8.9862359270087
 42
-0.1262009885851
  0
VERTEX
  8
C7
 10
60.1734359950594
 20
8.998052652847
 42
0.0650537576412
  0
VERTEX
  8
C7
 10
59.8199535567486
 20
10.5298098855271
 42
0.0020384582703
  0
VERTEX
  8
C7
 10
54.8122856806789
 20
25.7295547328916
 42
-0.0648564546676
  0
VERTEX
  8
C7
 10
54.7533719409605
 20
25.9652096917654
 42
-0.0028055148076
  0
VERTEX
  8
C7
 10
36.6668538473911
 20
25.1993310754253
 42
0.0223145959175
  0
VERTEX
  8
C7
 10
37.1841349163251
 20
9.0731104373096
 42
-0.0740816706505
  0
VERTEX
  8
C7
 10
38.0986540022386
 20
8.9999489104365
 42
0.1369576372078
  0
VERTEX
  8
C7
 10
39.7447883568829
 20
8.8536258566904
 42
0.3072468611207
  0
VERTEX
  8
C7
 10
39.7813691203195
 20
8.963368147
 42
0.0694008126346
  0
SEQEND
  0
POLYLINE
  8
C7
 66
     1
 10
0.0
 20
0.0
 30
0.0
 70
     1
  0
VERTEX
  8
C7
 10
20.8172242975135
 20
71.2119359270086
 42
0.0433474175024
  0
VERTEX
  8
C7
 10
19.7821342975135
 20
71.9862359270087
 42
-0.0910181513786
  0
VERTEX
  8
C7
 10
25.2721642975135
 20
80.0417759270087
 42
-0.0644343805041
  0
VERTEX
  8
C7
 10
26.8082842975135
 20
80.8958159270087
 42
0.3833029930638
  0
VERTEX
  8
C7
 10
28.4411842975135
 20
83.0549159270086
 42
-0.1289315763918
  0
VERTEX
  8
C7
 10
28.9229542975135
 20
84.8174459270086
 42
-0.0336779226577
  0
VERTEX
  8
C7
 10
31.3670542975135
 20
88.2820259270086
 42
0.003285386336
  0
VERTEX
  8
C7
 10
34.1115742975135
 20
91.8650759270086
 42
-0.0780531202732
  0
VERTEX
  8
C7
 10
36.5821342975135
 20
94.4862359270087
 42
-0.0112356795533
  0
VERTEX
  8
C7
 10
41.9258842975135
 20
83.9341259270086
 42
-0.1538899694179
  0
VERTEX
  8
C7
 10
42.2546842975135
 20
82.5088259270086
 42
-0.2168431877501
  0
VERTEX
  8
C7
 10
41.3821342975135
 20
81.2862359270086
 42
0.1219564520114
  0
VERTEX
  8
C7
 10
42.6860842975135
 20
80.1060359270086
 42
-0.1628090572768
  0
VERTEX
  8
C7
 10
44.7484042975135
 20
78.0998159270087
 42
0.0064262335454
  0
VERTEX
  8
C7
 10
46.8978442975135
 20
73.7930459270086
 42
-0.0562753660321
  0
VERTEX
  8
C7
 10
48.2821342975135
 20
70.4862359270087
 42
0.0
  0
VERTEX
  8
C7
 10
46.4821342975135
 20
70.4862359270087
 42
0.0098771556148
  0
VERTEX
  8
C7
 10
46.9965142975135
 20
68.3976959270086
 42
-0.1955150638417
  0
VERTEX
  8
C7
 10
46.8853042975135
 20
65.7158459270086
 42
0.1463098410228
  0
VERTEX
  8
C7
 10
46.7408542975135
 20
64.1965559270086
 42
0.0361380009872
  0
VERTEX
  8
C7
 10
48.2480242975135
 20
58.4110859270086
 42
-0.0083824999038
  0
VERTEX
  8
C7
 10
50.3575642975132
 20
52.4149259270102
 42
0.0031756930948
  0
VERTEX
  8
C7
 10
61.5185842975135
 20
16.1631959270086
 42
-0.0006523832297
  0
VERTEX
  8
C7
 10
61.7895142975135
 20
15.2862359270086
 42
-0.0381928421751
  0
VERTEX
  8
C7
 10
62.5573342975135
 20
12.6727259270086
 42
-0.1858955620459
  0
VERTEX
  8
C7
 10
63.1191229809828
 20
9.881758748624
 42
-0.0498634842094
  0
VERTEX
  8
C7
 10
63.5791342975135
 20
8.1656759270086
 42
0.1024566275581
  0
VERTEX
  8
C7
 10
64.8271342975135
 20
7.3056059270086
 42
0.1392611648537
  0
VERTEX
  8
C7
 10
66.4567042975135
 20
7.3119959270086
 42
0.002343157159
  0
VERTEX
  8
C7
 10
68.4864742975135
 20
8.0282459270086
 42
-0.0860149669876
  0
VERTEX
  8
C7
 10
71.3873542975135
 20
8.3404559270086
 42
0.0175382292179
  0
VERTEX
  8
C7
 10
73.1411397368628
 20
7.138511780808
 42
0.0
  0
VERTEX
  8
C7
 10
74.3821342975135
 20
4.1862359270087
 42
0.0
  0
VERTEX
  8
C7
 10
74.3821342975135
 20
4.1862359270087
 42
-0.1506165872865
  0
VERTEX
  8
C7
 10
74.3821342975135
 20
1.1862359270087
 42
0.0
  0
VERTEX
  8
C7
 10
-0.3178657024865
 20
1.1862359270087
 42
-0.1996496686721
  0
VERTEX
  8
C7
 10
0.8288242975135
 20
2.3859359270087
 42
-0.040235229036
  0
VERTEX
  8
C7
 10
3.0332842975135
 20
2.9814959270086
 42
0.0740798228879
  0
VERTEX
  8
C7
 10
4.8740842975135
 20
3.4813859270087
 42
0.0903978816418
  0
VERTEX
  8
C7
 10
5.6061853416456
 20
4.9516517022608
 42
-0.0776924452495
  0
VERTEX
  8
C7
 10
6.7852339541442
 20
7.279516911553
 42
0.1770462077941
  0
VERTEX
  8
C7
 10
8.9821342975135
 20
4.4862359270087
 42
0.0425953286427
  0
VERTEX
  8
C7
 10
9.3665842975135
 20
6.8824859270087
 42
-0.02820799904
  0
VERTEX
  8
C7
 10
9.9400942975135
 20
10.1500259270085
 42
0.0056141352768
  0
VERTEX
  8
C7
 10
13.8109342975136
 20
25.105505927009
 42
-0.004064902397
  0
VERTEX
  8
C7
 10
17.992934297513
 20
40.2419159270067
 42
0.0029708163638
  0
VERTEX
  8
C7
 10
23.9024842975135
 20
62.3862359270086
 42
0.0257457080933
  0
VERTEX
  8
C7
 10
24.5446342975135
 20
64.4579159270087
 42
0.2010393834085
  0
VERTEX
  8
C7
 10
24.5217142975135
 20
66.2179259270086
 42
0.1441170567023
  0
VERTEX
  8
C7
 10
23.2302742975135
 20
67.2590159270087
 42
-0.0288772961978
  0
VERTEX
  8
C7
 10
20.9821342975135
 20
68.0862359270086
 42
0.1326854262679
  0
VERTEX
  8
C7
 10
21.5005042975135
 20
69.7750559270087
 42
0.1972004346025
  0
SEQEND
  0
POLYLINE
  8
C7
 66
     1
 10
0.0
 20
0.0
 30
0.0
 70
     1
  0
VERTEX
  8
C7
 10
36.1299597686208
 20
58.833325606978
 42
0.0
  0
VERTEX
  8
C7
 10
36.1198647611454
 20
46.8377920632366
 42
0.0
  0
VERTEX
  8
C7
 10
48.3478779249669
 20
46.9080521968916
 42
0.0
  0
VERTEX
  8
C7
 10
44.8361409698495
 20
58.9796479801079
 42
0.0
  0
SEQEND
  0
ENDSEC
  0
EOF
