  0
SECTION
  2
HEADER
  9
$ACADVER
  1
AC1009
  9
$EXTMAX
 10
169.365875244141
 20
17.1774349212646
 30
0.0
  9
$EXTMIN
 10
-30.1108436584473
 20
-6.2532730102539
 30
0.0
  9
$INSUNITS
 70
     4
  9
$LUNITS
 70
     2
  9
$LUPREC
 70
     4
  9
$MEASUREMENT
 70
     1
  0
ENDSEC
  0
SECTION
  2
TABLES
  0
TABLE
  2
LAYER
 70
     1
  0
LAYER
  2
0
 70
     0
 62
     7
  6
Continuous
  0
LAYER
  2
Standard
 70
     0
 62
    70
  6
Continuous
  0
ENDTAB
  0
TABLE
  2
APPID
 70
     1
  0
APPID
  2
ACAD
 70
     0
  0
ENDTAB
  0
ENDSEC
  0
SECTION
  2
ENTITIES
  0
POLYLINE
  8
Standard
 66
     1
 10
0.0
 20
0.0
 30
0.0
 70
     1
  0
VERTEX
  8
Standard
 10
-23.8779296875
 20
9.5927734375
 42
0.0164559034939
  0
VERTEX
  8
Standard
 10
-27.025390625
 20
0.81640625
 42
-0.3113353256396
  0
VERTEX
  8
Standard
 10
-28.89453125
 20
-0.708984375
 42
-0.447557037432
  0
VERTEX
  8
Standard
 10
-30.1083984375
 20
0.5263671875
 42
-0.0755676756953
  0
VERTEX
  8
Standard
 10
-28.658203125
 20
5.0595703125
 42
0.0273973972153
  0
VERTEX
  8
Standard
 10
-25.6611328125
 20
12.697265625
 42
-0.1063978324293
  0
VERTEX
  8
Standard
 10
-24.1357421875
 20
15.68359375
 42
-0.3812052213109
  0
VERTEX
  8
Standard
 10
-21.8240911674403
 20
16.05122581215
 42
-0.1947708820264
  0
VERTEX
  8
Standard
 10
-21.2048436694209
 20
13.9342753247526
 42
0.0274821081259
  0
VERTEX
  8
Standard
 10
-20.751953125
 20
4.59765625
 42
0.0184178521961
  0
VERTEX
  8
Standard
 10
-16.2724609375
 20
14.9423828125
 42
-0.5105091875443
  0
VERTEX
  8
Standard
 10
-13.5850895760281
 20
16.2809384342243
 42
-0.1991271759789
  0
VERTEX
  8
Standard
 10
-12.7698383572988
 20
14.0049966093166
 42
0.0456386668725
  0
VERTEX
  8
Standard
 10
-12.1412001789896
 20
2.404102856303
 42
-0.0183442150653
  0
VERTEX
  8
Standard
 10
-11.96484375
 20
0.64453125
 42
-0.9852454560983
  0
VERTEX
  8
Standard
 10
-15.251953125
 20
0.794921875
 42
-0.017087435282
  0
VERTEX
  8
Standard
 10
-15.4990234375
 20
10.033203125
 42
-0.0348273135634
  0
VERTEX
  8
Standard
 10
-19.7104908373351
 20
1.236522742684
 42
-0.2819162679151
  0
VERTEX
  8
Standard
 10
-21.8369140625
 20
-0.4833984375
 42
-0.3578587670452
  0
VERTEX
  8
Standard
 10
-23.09375
 20
0.708984375
 42
-0.0237561393558
  0
SEQEND
  0
POLYLINE
  8
Standard
 66
     1
 10
0.0
 20
0.0
 30
0.0
 70
     1
  0
VERTEX
  8
Standard
 10
-10.5576171875
 20
3.78125
 42
-0.2751079875168
  0
VERTEX
  8
Standard
 10
-6.3768041933945
 20
10.5483646344416
 42
-0.1962335097807
  0
VERTEX
  8
Standard
 10
-2.0759013313686
 20
10.8495270622629
 42
-0.2917554194604
  0
VERTEX
  8
Standard
 10
0.173828125
 20
6.767578125
 42
-0.2694411954296
  0
VERTEX
  8
Standard
 10
-3.6934243254948
 20
-0.0387541913662
 42
-0.3437774358963
  0
VERTEX
  8
Standard
 10
-9.365234375
 20
0.6123046875
 42
-0.1541245127495
  0
SEQEND
  0
POLYLINE
  8
Standard
 66
     1
 10
0.0
 20
0.0
 30
0.0
 70
     1
  0
VERTEX
  8
Standard
 10
-7.5498046875
 20
4.2109375
 42
0.4684128797288
  0
VERTEX
  8
Standard
 10
-5.8203125
 20
2.2021484375
 42
0.346154911729
  0
VERTEX
  8
Standard
 10
-2.949419818449
 20
4.8238877453466
 42
0.26157440667
  0
VERTEX
  8
Standard
 10
-3.2671659055791
 20
7.96859458733
 42
0.3955902097429
  0
VERTEX
  8
Standard
 10
-6.59375
 20
6.91796875
 42
0.1848654722541
  0
SEQEND
  0
POLYLINE
  8
Standard
 66
     1
 10
0.0
 20
0.0
 30
0.0
 70
     1
  0
VERTEX
  8
Standard
 10
9.412109375
 20
8.46484375
 42
0.0084739677277
  0
VERTEX
  8
Standard
 10
7.2744140625
 20
8.443359375
 42
0.064788144463
  0
VERTEX
  8
Standard
 10
6.2431640625
 20
3.544921875
 42
0.1320012299335
  0
VERTEX
  8
Standard
 10
6.4277290059091
 20
2.4845656693384
 42
0.4525002815347
  0
VERTEX
  8
Standard
 10
7.3350851243137
 20
2.4694566362577
 42
-0.1887421815051
  0
VERTEX
  8
Standard
 10
8.83203125
 20
3.4267578125
 42
-0.6111381762011
  0
VERTEX
  8
Standard
 10
9.7092751091027
 20
1.0242829811098
 42
-0.3046466135995
  0
VERTEX
  8
Standard
 10
5.0191882033504
 20
-0.2267382827447
 42
-0.2669778562773
  0
VERTEX
  8
Standard
 10
3.353515625
 20
3.1689453125
 42
-0.0736282932192
  0
VERTEX
  8
Standard
 10
4.4169921875
 20
8.357421875
 42
-0.1376443178961
  0
VERTEX
  8
Standard
 10
2.171875
 20
8.787109375
 42
-0.6979350795403
  0
VERTEX
  8
Standard
 10
3.310546875
 20
11.3974609375
 42
0.0
  0
VERTEX
  8
Standard
 10
4.986328125
 20
11.2470703125
 42
0.0
  0
VERTEX
  8
Standard
 10
5.244140625
 20
13.3955078125
 42
-0.5074072987112
  0
VERTEX
  8
Standard
 10
7.4279325366504
 20
14.6200745057282
 42
-0.2528107680013
  0
VERTEX
  8
Standard
 10
7.9970106102538
 20
12.1414707639885
 42
-0.0042692983555
  0
VERTEX
  8
Standard
 10
7.865234375
 20
11.3115234375
 42
-0.2551112049724
  0
VERTEX
  8
Standard
 10
10.7615672209993
 20
10.8539591148721
 42
-0.6098689070892
  0
SEQEND
  0
POLYLINE
  8
Standard
 66
     1
 10
0.0
 20
0.0
 30
0.0
 70
     1
  0
VERTEX
  8
Standard
 10
11.3779296875
 20
3.78125
 42
-0.2751079875168
  0
VERTEX
  8
Standard
 10
15.5587426816055
 20
10.5483646344416
 42
-0.1962335097807
  0
VERTEX
  8
Standard
 10
19.8596455436314
 20
10.8495270622629
 42
-0.2917554194604
  0
VERTEX
  8
Standard
 10
22.109375
 20
6.767578125
 42
-0.2694411954296
  0
VERTEX
  8
Standard
 10
18.2421225495052
 20
-0.0387541913662
 42
-0.3437774358963
  0
VERTEX
  8
Standard
 10
12.5703125
 20
0.6123046875
 42
-0.1541245127495
  0
SEQEND
  0
POLYLINE
  8
Standard
 66
     1
 10
0.0
 20
0.0
 30
0.0
 70
     1
  0
VERTEX
  8
Standard
 10
14.3857421875
 20
4.2109375
 42
0.4684128797288
  0
VERTEX
  8
Standard
 10
16.115234375
 20
2.2021484375
 42
0.346154911729
  0
VERTEX
  8
Standard
 10
18.986127056551
 20
4.8238877453466
 42
0.26157440667
  0
VERTEX
  8
Standard
 10
18.668380969421
 20
7.96859458733
 42
0.3955902097429
  0
VERTEX
  8
Standard
 10
15.341796875
 20
6.91796875
 42
0.1848654722541
  0
SEQEND
  0
POLYLINE
  8
Standard
 66
     1
 10
0.0
 20
0.0
 30
0.0
 70
     1
  0
VERTEX
  8
Standard
 10
33.23828125
 20
7.7451171875
 42
-0.4593328788079
  0
VERTEX
  8
Standard
 10
31.0441691952765
 20
6.1373573758307
 42
-0.3694035160398
  0
VERTEX
  8
Standard
 10
30.3701171875
 20
7.498046875
 42
0.0
  0
VERTEX
  8
Standard
 10
30.466796875
 20
8.5830078125
 42
0.222007186255
  0
VERTEX
  8
Standard
 10
26.6103515625
 20
6.0908203125
 42
0.0
  0
VERTEX
  8
Standard
 10
25.7724609375
 20
0.708984375
 42
-0.4711029103764
  0
VERTEX
  8
Standard
 10
23.5579290749588
 20
-0.6381672158858
 42
-0.3677722212958
  0
VERTEX
  8
Standard
 10
22.9365234375
 20
0.708984375
 42
-0.0150415429825
  0
VERTEX
  8
Standard
 10
24.4160805794712
 20
9.8274834646619
 42
-0.6833789548875
  0
VERTEX
  8
Standard
 10
27.064836570954
 20
10.6161055343475
 42
-0.1202671098501
  0
VERTEX
  8
Standard
 10
27.2333984375
 20
9.904296875
 42
-0.1517708735183
  0
VERTEX
  8
Standard
 10
31.669921875
 20
11.3330078125
 42
-0.4758714918724
  0
VERTEX
  8
Standard
 10
33.431640625
 20
9.388671875
 42
-0.0901771594277
  0
SEQEND
  0
POLYLINE
  8
Standard
 66
     1
 10
0.0
 20
0.0
 30
0.0
 70
     1
  0
VERTEX
  8
Standard
 10
41.05859375
 20
8.7548828125
 42
0.1027857335902
  0
VERTEX
  8
Standard
 10
38.0271717182302
 20
8.5921157220035
 42
0.6501358281768
  0
VERTEX
  8
Standard
 10
37.5711561941426
 20
7.8601208343213
 42
0.0437122395352
  0
VERTEX
  8
Standard
 10
40.4677191907802
 20
6.1279749898175
 42
-0.2753493177175
  0
VERTEX
  8
Standard
 10
42.69140625
 20
3.265625
 42
-0.3263227521453
  0
VERTEX
  8
Standard
 10
39.1474060315299
 20
-0.3943861080288
 42
-0.1498682572368
  0
VERTEX
  8
Standard
 10
34.2587890625
 20
-0.1181640625
 42
-0.7086799351118
  0
VERTEX
  8
Standard
 10
33.7195407506638
 20
2.486740256037
 42
-0.1693710195453
  0
VERTEX
  8
Standard
 10
35.9130859375
 20
2.3310546875
 42
0.2185153665427
  0
VERTEX
  8
Standard
 10
39.2859912256701
 20
2.3741766180466
 42
0.5900940074744
  0
VERTEX
  8
Standard
 10
38.9208183042359
 20
3.7988543931877
 42
-0.0736321823372
  0
VERTEX
  8
Standard
 10
35.322265625
 20
5.8544921875
 42
-0.4338808914558
  0
VERTEX
  8
Standard
 10
35.9453125
 20
10.3447265625
 42
-0.140832997896
  0
VERTEX
  8
Standard
 10
39.3509711114589
 20
11.371742329734
 42
-0.0974128743971
  0
VERTEX
  8
Standard
 10
42.8199456163381
 20
11.2592226988482
 42
-0.4429701061037
  0
VERTEX
  8
Standard
 10
43.2392578125
 20
8.6689453125
 42
-0.8647372283184
  0
SEQEND
  0
POLYLINE
  8
Standard
 66
     1
 10
0.0
 20
0.0
 30
0.0
 70
     1
  0
VERTEX
  8
Standard
 10
47.16015625
 20
-0.4189453125
 42
0.0
  0
VERTEX
  8
Standard
 10
46.47265625
 20
-4.791015625
 42
-0.5859486401241
  0
VERTEX
  8
Standard
 10
43.830078125
 20
-5.908203125
 42
-0.2662988491119
  0
VERTEX
  8
Standard
 10
43.6323361213825
 20
-3.9898563120469
 42
0.0237375219826
  0
VERTEX
  8
Standard
 10
45.4306640625
 20
8.98046875
 42
-0.2728140568258
  0
VERTEX
  8
Standard
 10
46.7202195345818
 20
11.6043077244808
 42
-0.6836183652616
  0
VERTEX
  8
Standard
 10
48.6962890625
 20
10.4306640625
 42
0.0
  0
VERTEX
  8
Standard
 10
48.6533203125
 20
10.3232421875
 42
-0.208889719745
  0
VERTEX
  8
Standard
 10
53.2450989887125
 20
10.8572646991718
 42
-0.2734489889888
  0
VERTEX
  8
Standard
 10
55.2503579330883
 20
8.1023099689226
 42
-0.2270647017905
  0
VERTEX
  8
Standard
 10
53.43359375
 20
1.2998046875
 42
-0.2709531959732
  0
SEQEND
  0
POLYLINE
  8
Standard
 66
     1
 10
0.0
 20
0.0
 30
0.0
 70
     1
  0
VERTEX
  8
Standard
 10
48.255859375
 20
6.9716796875
 42
-0.007407105912
  0
VERTEX
  8
Standard
 10
47.6650390625
 20
2.556640625
 42
0.2095149636514
  0
VERTEX
  8
Standard
 10
50.8147608662327
 20
2.5692491063514
 42
0.2778108639118
  0
VERTEX
  8
Standard
 10
52.1813478544055
 20
7.6497073312772
 42
0.3209072685762
  0
VERTEX
  8
Standard
 10
51.2314453125
 20
8.25
 42
0.1642090552782
  0
SEQEND
  0
POLYLINE
  8
Standard
 66
     1
 10
0.0
 20
0.0
 30
0.0
 70
     1
  0
VERTEX
  8
Standard
 10
55.990234375
 20
3.78125
 42
-0.2751079875168
  0
VERTEX
  8
Standard
 10
60.1710473691055
 20
10.5483646344416
 42
-0.1962335097807
  0
VERTEX
  8
Standard
 10
64.4719502311314
 20
10.8495270622629
 42
-0.2917554194604
  0
VERTEX
  8
Standard
 10
66.7216796875
 20
6.767578125
 42
-0.2694411954296
  0
VERTEX
  8
Standard
 10
62.8544272370052
 20
-0.0387541913662
 42
-0.3437774358963
  0
VERTEX
  8
Standard
 10
57.1826171875
 20
0.6123046875
 42
-0.1541245127495
  0
SEQEND
  0
POLYLINE
  8
Standard
 66
     1
 10
0.0
 20
0.0
 30
0.0
 70
     1
  0
VERTEX
  8
Standard
 10
58.998046875
 20
4.2109375
 42
0.4684128797288
  0
VERTEX
  8
Standard
 10
60.7275390625
 20
2.2021484375
 42
0.346154911729
  0
VERTEX
  8
Standard
 10
63.598431744051
 20
4.8238877453466
 42
0.26157440667
  0
VERTEX
  8
Standard
 10
63.280685656921
 20
7.96859458733
 42
0.3955902097429
  0
VERTEX
  8
Standard
 10
59.9541015625
 20
6.91796875
 42
0.1848654722541
  0
SEQEND
  0
POLYLINE
  8
Standard
 66
     1
 10
0.0
 20
0.0
 30
0.0
 70
     1
  0
VERTEX
  8
Standard
 10
77.8505859375
 20
7.7451171875
 42
-0.4593328788079
  0
VERTEX
  8
Standard
 10
75.6564738827765
 20
6.1373573758307
 42
-0.3694035160399
  0
VERTEX
  8
Standard
 10
74.982421875
 20
7.498046875
 42
0.0
  0
VERTEX
  8
Standard
 10
75.0791015625
 20
8.5830078125
 42
0.222007186255
  0
VERTEX
  8
Standard
 10
71.22265625
 20
6.0908203125
 42
0.0
  0
VERTEX
  8
Standard
 10
70.384765625
 20
0.708984375
 42
-0.4711029103764
  0
VERTEX
  8
Standard
 10
68.1702337624588
 20
-0.6381672158858
 42
-0.3677722212958
  0
VERTEX
  8
Standard
 10
67.548828125
 20
0.708984375
 42
-0.0150415429825
  0
VERTEX
  8
Standard
 10
69.0283852669712
 20
9.8274834646619
 42
-0.6833789548875
  0
VERTEX
  8
Standard
 10
71.677141258454
 20
10.6161055343475
 42
-0.1202671098501
  0
VERTEX
  8
Standard
 10
71.845703125
 20
9.904296875
 42
-0.1517708735183
  0
VERTEX
  8
Standard
 10
76.2822265625
 20
11.3330078125
 42
-0.4758714918724
  0
VERTEX
  8
Standard
 10
78.0439453125
 20
9.388671875
 42
-0.0901771594277
  0
SEQEND
  0
POLYLINE
  8
Standard
 66
     1
 10
0.0
 20
0.0
 30
0.0
 70
     1
  0
VERTEX
  8
Standard
 10
86.5302734375
 20
8.46484375
 42
0.0084739677277
  0
VERTEX
  8
Standard
 10
84.392578125
 20
8.443359375
 42
0.064788144463
  0
VERTEX
  8
Standard
 10
83.361328125
 20
3.544921875
 42
0.1320012299335
  0
VERTEX
  8
Standard
 10
83.5458930684091
 20
2.4845656693384
 42
0.4525002815347
  0
VERTEX
  8
Standard
 10
84.4532491868137
 20
2.4694566362577
 42
-0.1887421815051
  0
VERTEX
  8
Standard
 10
85.9501953125
 20
3.4267578125
 42
-0.6111381762011
  0
VERTEX
  8
Standard
 10
86.8274391716027
 20
1.0242829811098
 42
-0.3046466135995
  0
VERTEX
  8
Standard
 10
82.1373522658504
 20
-0.2267382827447
 42
-0.2669778562773
  0
VERTEX
  8
Standard
 10
80.4716796875
 20
3.1689453125
 42
-0.0736282932192
  0
VERTEX
  8
Standard
 10
81.53515625
 20
8.357421875
 42
-0.1376443178961
  0
VERTEX
  8
Standard
 10
79.2900390625
 20
8.787109375
 42
-0.6979350795403
  0
VERTEX
  8
Standard
 10
80.4287109375
 20
11.3974609375
 42
0.0
  0
VERTEX
  8
Standard
 10
82.1044921875
 20
11.2470703125
 42
0.0
  0
VERTEX
  8
Standard
 10
82.3623046875
 20
13.3955078125
 42
-0.5074072987112
  0
VERTEX
  8
Standard
 10
84.5460965991504
 20
14.6200745057282
 42
-0.2528107680014
  0
VERTEX
  8
Standard
 10
85.1151746727538
 20
12.1414707639885
 42
-0.0042692983555
  0
VERTEX
  8
Standard
 10
84.9833984375
 20
11.3115234375
 42
-0.2551112049724
  0
VERTEX
  8
Standard
 10
87.8797312834993
 20
10.8539591148721
 42
-0.6098689070892
  0
SEQEND
  0
POLYLINE
  8
Standard
 66
     1
 10
0.0
 20
0.0
 30
0.0
 70
     1
  0
VERTEX
  8
Standard
 10
95.4140625
 20
11.0322265625
 42
-0.1395642308282
  0
VERTEX
  8
Standard
 10
98.6195093179196
 20
10.9974482640263
 42
-0.6656518298499
  0
VERTEX
  8
Standard
 10
98.3867404728087
 20
8.6383202059122
 42
-0.0473283210842
  0
VERTEX
  8
Standard
 10
94.8662109375
 20
8.3359375
 42
-0.017020950112
  0
VERTEX
  8
Standard
 10
93.6768919251076
 20
0.9709391590965
 42
-0.1686299522966
  0
VERTEX
  8
Standard
 10
92.6322376621032
 20
-1.421338702422
 42
-0.3437683774445
  0
VERTEX
  8
Standard
 10
90.64453125
 20
-1.33203125
 42
-0.2681505736999
  0
VERTEX
  8
Standard
 10
90.4189453125
 20
-0.0859375
 42
0.0437274356598
  0
VERTEX
  8
Standard
 10
91.9873046875
 20
8.1748046875
 42
-0.1263855814434
  0
VERTEX
  8
Standard
 10
90.0798652772812
 20
8.1180960214187
 42
-0.5213770833774
  0
VERTEX
  8
Standard
 10
89.7632123655726
 20
10.2989841402771
 42
-0.1347885452157
  0
VERTEX
  8
Standard
 10
92.513671875
 20
10.935546875
 42
-0.1419181718297
  0
VERTEX
  8
Standard
 10
94.705078125
 20
15.7158203125
 42
-0.2115428684287
  0
VERTEX
  8
Standard
 10
99.4029037320141
 20
17.1310693131064
 42
-0.565780259278
  0
VERTEX
  8
Standard
 10
100.270139812792
 20
15.1215588192798
 42
-0.2551789347292
  0
VERTEX
  8
Standard
 10
98.4541015625
 20
14.373046875
 42
0.3305473443658
  0
VERTEX
  8
Standard
 10
95.857812722445
 20
12.4473005786049
 42
0.0221910389356
  0
SEQEND
  0
POLYLINE
  8
Standard
 66
     1
 10
0.0
 20
0.0
 30
0.0
 70
     1
  0
VERTEX
  8
Standard
 10
109.9697265625
 20
7.7451171875
 42
-0.4593328788079
  0
VERTEX
  8
Standard
 10
107.775614507776
 20
6.1373573758307
 42
-0.3694035160398
  0
VERTEX
  8
Standard
 10
107.1015625
 20
7.498046875
 42
0.0
  0
VERTEX
  8
Standard
 10
107.1982421875
 20
8.5830078125
 42
0.222007186255
  0
VERTEX
  8
Standard
 10
103.341796875
 20
6.0908203125
 42
0.0
  0
VERTEX
  8
Standard
 10
102.50390625
 20
0.708984375
 42
-0.4711029103764
  0
VERTEX
  8
Standard
 10
100.289374387459
 20
-0.6381672158858
 42
-0.3677722212958
  0
VERTEX
  8
Standard
 10
99.66796875
 20
0.708984375
 42
-0.0150415429825
  0
VERTEX
  8
Standard
 10
101.147525891971
 20
9.8274834646619
 42
-0.6833789548875
  0
VERTEX
  8
Standard
 10
103.796281883454
 20
10.6161055343475
 42
-0.1202671098501
  0
VERTEX
  8
Standard
 10
103.96484375
 20
9.904296875
 42
-0.1517708735183
  0
VERTEX
  8
Standard
 10
108.4013671875
 20
11.3330078125
 42
-0.4758714918724
  0
VERTEX
  8
Standard
 10
110.1630859375
 20
9.388671875
 42
-0.0901771594277
  0
SEQEND
  0
POLYLINE
  8
Standard
 66
     1
 10
0.0
 20
0.0
 30
0.0
 70
     1
  0
VERTEX
  8
Standard
 10
112.9990234375
 20
3.2333984375
 42
0.3180064741841
  0
VERTEX
  8
Standard
 10
118.2734375
 20
2.70703125
 42
-0.3024147443966
  0
VERTEX
  8
Standard
 10
120.472353848403
 20
3.0577806039797
 42
-0.4242283858323
  0
VERTEX
  8
Standard
 10
120.197611285733
 20
1.1289570390493
 42
-0.1969412286899
  0
VERTEX
  8
Standard
 10
115.330078125
 20
-0.4833984375
 42
-0.1666181960371
  0
VERTEX
  8
Standard
 10
111.44140625
 20
0.623046875
 42
-0.2400717818209
  0
VERTEX
  8
Standard
 10
110.044921875
 20
3.6201171875
 42
-0.2628123017812
  0
VERTEX
  8
Standard
 10
114.092573982349
 20
10.5920656605873
 42
-0.2292847335471
  0
VERTEX
  8
Standard
 10
120.0458984375
 20
10.5380859375
 42
-0.5256114301862
  0
VERTEX
  8
Standard
 10
120.2822265625
 20
6.66015625
 42
-0.087613057441
  0
VERTEX
  8
Standard
 10
116.8662109375
 20
4.8447265625
 42
0.0
  0
SEQEND
  0
POLYLINE
  8
Standard
 66
     1
 10
0.0
 20
0.0
 30
0.0
 70
     1
  0
VERTEX
  8
Standard
 10
113.1923828125
 20
5.9619140625
 42
0.0404374322551
  0
VERTEX
  8
Standard
 10
118.294921875
 20
8.228515625
 42
0.3948503647986
  0
VERTEX
  8
Standard
 10
113.748258461957
 20
6.9220304673263
 42
0.034483651342
  0
SEQEND
  0
POLYLINE
  8
Standard
 66
     1
 10
0.0
 20
0.0
 30
0.0
 70
     1
  0
VERTEX
  8
Standard
 10
132.990234375
 20
6.208984375
 42
0.0092962335379
  0
VERTEX
  8
Standard
 10
132.173828125
 20
0.5263671875
 42
-0.5098007611085
  0
VERTEX
  8
Standard
 10
129.725662613229
 20
-0.6614392673759
 42
-0.163725134043
  0
VERTEX
  8
Standard
 10
129.2734375
 20
-0.04296875
 42
-0.2229769467664
  0
VERTEX
  8
Standard
 10
124.181640625
 20
-0.0751953125
 42
-0.2824919815459
  0
VERTEX
  8
Standard
 10
122.896903063447
 20
1.8743619358563
 42
-0.1103432916595
  0
VERTEX
  8
Standard
 10
124.03956419325
 20
10.288769648721
 42
-0.5272848621872
  0
VERTEX
  8
Standard
 10
126.587890625
 20
11.12890625
 42
-0.3083054879441
  0
VERTEX
  8
Standard
 10
126.78965322212
 20
9.4273011533714
 42
0.1072540200448
  0
VERTEX
  8
Standard
 10
125.8359375
 20
2.53515625
 42
0.1380600447714
  0
VERTEX
  8
Standard
 10
126.8134765625
 20
2.2880859375
 42
0.057428333593
  0
VERTEX
  8
Standard
 10
129.466796875
 20
2.62109375
 42
-0.0345247502812
  0
VERTEX
  8
Standard
 10
130.798828125
 20
10.0224609375
 42
-0.5527217208012
  0
VERTEX
  8
Standard
 10
133.44140625
 20
11.0751953125
 42
-0.3026217219014
  0
VERTEX
  8
Standard
 10
133.616868643765
 20
9.1550321854079
 42
-0.007815776242
  0
VERTEX
  8
Standard
 10
132.990234375
 20
6.1875
 42
0.0
  0
SEQEND
  0
POLYLINE
  8
Standard
 66
     1
 10
0.0
 20
0.0
 30
0.0
 70
     1
  0
VERTEX
  8
Standard
 10
138.4794921875
 20
9.92578125
 42
-0.2979419138444
  0
VERTEX
  8
Standard
 10
143.192722515489
 20
11.3162607307543
 42
-0.2832543156333
  0
VERTEX
  8
Standard
 10
144.7314453125
 20
8.3896484375
 42
0.033234081842
  0
VERTEX
  8
Standard
 10
144.076171875
 20
0.708984375
 42
-0.4448975804916
  0
VERTEX
  8
Standard
 10
141.87700954531
 20
-0.7132896986722
 42
-0.3749385915763
  0
VERTEX
  8
Standard
 10
141.1005859375
 20
0.4619140625
 42
-0.073515852882
  0
VERTEX
  8
Standard
 10
141.798828125
 20
7.283203125
 42
0.1765514871721
  0
VERTEX
  8
Standard
 10
141.887520914334
 20
8.4826151741158
 42
0.3159128701534
  0
VERTEX
  8
Standard
 10
141.583984375
 20
8.6689453125
 42
0.1965061531332
  0
VERTEX
  8
Standard
 10
139.4140625
 20
7.455078125
 42
0.1906520818426
  0
VERTEX
  8
Standard
 10
136.96484375
 20
1.783203125
 42
-0.4847192036517
  0
VERTEX
  8
Standard
 10
135.181640625
 20
-0.5263671875
 42
-0.440747543477
  0
VERTEX
  8
Standard
 10
133.9033203125
 20
0.623046875
 42
-0.0353454442994
  0
VERTEX
  8
Standard
 10
135.05481964486
 20
7.1827955652201
 42
0.0306597960249
  0
VERTEX
  8
Standard
 10
135.5146484375
 20
10.3876953125
 42
-0.4428029958985
  0
VERTEX
  8
Standard
 10
137.847474315878
 20
11.6247128857517
 42
-0.3345233370944
  0
VERTEX
  8
Standard
 10
138.4794921875
 20
10.0546875
 42
0.0
  0
SEQEND
  0
POLYLINE
  8
Standard
 66
     1
 10
0.0
 20
0.0
 30
0.0
 70
     1
  0
VERTEX
  8
Standard
 10
155.01171875
 20
10.806640625
 42
-0.0137450737296
  0
VERTEX
  8
Standard
 10
156.171875
 20
15.94140625
 42
-0.6233156829984
  0
VERTEX
  8
Standard
 10
158.814117423972
 20
16.6440865041006
 42
-0.181046220293
  0
VERTEX
  8
Standard
 10
158.895280102166
 20
15.3328757329258
 42
0.0103590940639
  0
VERTEX
  8
Standard
 10
156.7626953125
 20
4.9306640625
 42
-0.0022928146744
  0
VERTEX
  8
Standard
 10
156.3330078125
 20
0.6982421875
 42
-0.4502216865755
  0
VERTEX
  8
Standard
 10
154.107279547951
 20
-0.1543715221076
 42
-0.1585455603269
  0
VERTEX
  8
Standard
 10
153.6904296875
 20
0.3974609375
 42
-0.2096583223685
  0
VERTEX
  8
Standard
 10
148.511128411496
 20
-0.1944590207985
 42
-0.3253121907978
  0
VERTEX
  8
Standard
 10
145.6015625
 20
4.0068359375
 42
-0.2813656476493
  0
VERTEX
  8
Standard
 10
149.783857452503
 20
10.9094567537715
 42
-0.1548351285662
  0
VERTEX
  8
Standard
 10
153.860331525462
 20
11.3489792524278
 42
-0.1128808253619
  0
SEQEND
  0
POLYLINE
  8
Standard
 66
     1
 10
0.0
 20
0.0
 30
0.0
 70
     1
  0
VERTEX
  8
Standard
 10
154.2705078125
 20
7.412109375
 42
0.3475038634722
  0
VERTEX
  8
Standard
 10
152.21875
 20
8.7548828125
 42
0.3467849156154
  0
VERTEX
  8
Standard
 10
148.651610863537
 20
6.0828367270096
 42
0.5816223127522
  0
VERTEX
  8
Standard
 10
150.8544921875
 20
2.2666015625
 42
0.1831305624245
  0
VERTEX
  8
Standard
 10
153.6474609375
 20
3.48046875
 42
-0.0195251838289
  0
SEQEND
  0
POLYLINE
  8
Standard
 66
     1
 10
0.0
 20
0.0
 30
0.0
 70
     1
  0
VERTEX
  8
Standard
 10
161.177734375
 20
3.2333984375
 42
0.3180064741841
  0
VERTEX
  8
Standard
 10
166.4521484375
 20
2.70703125
 42
-0.3024147443966
  0
VERTEX
  8
Standard
 10
168.651064785903
 20
3.0577806039797
 42
-0.4242283858323
  0
VERTEX
  8
Standard
 10
168.376322223233
 20
1.1289570390493
 42
-0.1969412286899
  0
VERTEX
  8
Standard
 10
163.5087890625
 20
-0.4833984375
 42
-0.1666181960371
  0
VERTEX
  8
Standard
 10
159.6201171875
 20
0.623046875
 42
-0.2400717818209
  0
VERTEX
  8
Standard
 10
158.2236328125
 20
3.6201171875
 42
-0.2628123017812
  0
VERTEX
  8
Standard
 10
162.271284919849
 20
10.5920656605873
 42
-0.2292847335471
  0
VERTEX
  8
Standard
 10
168.224609375
 20
10.5380859375
 42
-0.5256114301863
  0
VERTEX
  8
Standard
 10
168.4609375
 20
6.66015625
 42
-0.087613057441
  0
VERTEX
  8
Standard
 10
165.044921875
 20
4.8447265625
 42
0.0
  0
SEQEND
  0
POLYLINE
  8
Standard
 66
     1
 10
0.0
 20
0.0
 30
0.0
 70
     1
  0
VERTEX
  8
Standard
 10
161.37109375
 20
5.9619140625
 42
0.0404374322551
  0
VERTEX
  8
Standard
 10
166.4736328125
 20
8.228515625
 42
0.3948503647986
  0
VERTEX
  8
Standard
 10
161.926969399457
 20
6.9220304673263
 42
0.034483651342
  0
SEQEND
  0
ENDSEC
  0
EOF
