0
SECTION
2
HEADER
9
$INSUNITS
70
4
9
$ACADVER
1
AC1014
9
$HANDSEED
5
FFFF
0
ENDSEC
0
SECTION
2
TABLES
0
TABLE
2
VPORT
5
8
100
AcDbSymbolTable
0
ENDTAB
0
TABLE
2
LTYPE
5
5
100
AcDbSymbolTable
0
LTYPE
5
14
100
AcDbSymbolTableRecord
100
AcDbLinetypeTableRecord
2
BYBLOCK
70
0
0
LTYPE
5
15
100
AcDbSymbolTableRecord
100
AcDbLinetypeTableRecord
2
BYLAYER
70
0
0
ENDTAB
0
TABLE
2
LAYER
5
2
100
AcDbSymbolTable
70
2
0
LAYER
5
50
100
AcDbSymbolTableRecord
100
AcDbLayerTableRecord
2
0
70
0
6
CONTINUOUS
0
ENDTAB
0
TABLE
2
STYLE
5
3
100
AcDbSymbolTable
70
1
0
STYLE
5
11
100
AcDbSymbolTableRecord
100
AcDbTextStyleTableRecord
2
STANDARD
70
0
0
ENDTAB
0
TABLE
2
VIEW
5
6
100
AcDbSymbolTable
70
0
0
ENDTAB
0
TABLE
2
UCS
5
7
100
AcDbSymbolTable
70
0
0
ENDTAB
0
TABLE
2
APPID
5
9
100
AcDbSymbolTable
70
2
0
APPID
5
12
100
AcDbSymbolTableRecord
100
AcDbRegAppTableRecord
2
ACAD
70
0
0
ENDTAB
0
TABLE
2
DIMSTYLE
5
A
100
AcDbSymbolTable
70
1
0
ENDTAB
0
TABLE
2
BLOCK_RECORD
5
1
100
AcDbSymbolTable
70
1
0
BLOCK_RECORD
5
1F
100
AcDbSymbolTableRecord
100
AcDbBlockTableRecord
2
*MODEL_SPACE
0
BLOCK_RECORD
5
1B
100
AcDbSymbolTableRecord
100
AcDbBlockTableRecord
2
*PAPER_SPACE
0
ENDTAB
0
ENDSEC
0
SECTION
2
BLOCKS
0
BLOCK
5
20
100
AcDbEntity
100
AcDbBlockBegin
2
*MODEL_SPACE
0
ENDBLK
5
21
100
AcDbEntity
100
AcDbBlockEnd
0
BLOCK
5
1C
100
AcDbEntity
100
AcDbBlockBegin
2
*PAPER_SPACE
0
ENDBLK
5
1D
100
AcDbEntity
100
AcDbBlockEnd
0
ENDSEC
0
SECTION
2
ENTITIES
0
SPLINE
5
100
100
AcDbEntity
8
0
100
AcDbSpline
70
4
71
5
72
36
73
30
74
0
42
0.000000001
43
0.0000000001
44
0.0000000001
40
0
40
0
40
0
40
0
40
0
40
0
40
0.040000000000000001
40
0.080000000000000002
40
0.12
40
0.16
40
0.20000000000000001
40
0.24000000000000002
40
0.28000000000000003
40
0.32000000000000001
40
0.35999999999999999
40
0.39999999999999997
40
0.43999999999999995
40
0.47999999999999993
40
0.51999999999999991
40
0.55999999999999994
40
0.59999999999999998
40
0.64000000000000001
40
0.68000000000000005
40
0.72000000000000008
40
0.76000000000000012
40
0.80000000000000016
40
0.84000000000000019
40
0.88000000000000023
40
0.92000000000000026
40
0.9600000000000003
40
1
40
1
40
1
40
1
40
1
40
1
41
1
41
1
41
1
41
1
41
1
41
1
41
1
41
1
41
1
41
1
41
1
41
1
41
1
41
1
41
1
41
1
41
1
41
1
41
1
41
1
41
1
41
1
41
1
41
1
41
1
41
1
41
1
41
1
41
1
41
1
10
-57.039338210780187
20
43.667834881673713
30
0
10
-56.87780011600502
20
44.838987268974684
30
0
10
-56.515893541342344
20
47.148578800651542
30
0
10
-55.856541179069495
20
50.514825651276361
30
0
10
-54.743823635845594
20
54.806368177988546
30
0
10
-52.957346182358158
20
59.835879894529455
30
0
10
-50.762855548834061
20
64.51497383938738
30
0
10
-48.139807734390899
20
68.81636703677205
30
0
10
-45.059153891046073
20
72.698625903704851
30
0
10
-41.479325179334666
20
76.101757327419207
30
0
10
-37.359038473574664
20
78.952226938135198
30
0
10
-32.677943041978175
20
81.172699756573166
30
0
10
-27.456752278832013
20
82.690757708483432
30
0
10
-21.774789982984689
20
83.44770053092202
30
0
10
-15.798015898290485
20
83.409338094591504
30
0
10
-9.7661268218733319
20
82.569527832915099
30
0
10
-3.9492106858805527
20
80.948490085660154
30
0
10
1.3857568473113968
20
78.593148718745596
30
0
10
6.0135092799397789
20
75.577520685721169
30
0
10
9.7849702055153536
20
72.003174537562785
30
0
10
12.671032114791442
20
68.001743519595252
30
0
10
14.734189329971453
20
63.721239029734058
30
0
10
16.08984040059028
20
59.309836927577287
30
0
10
16.873006021541578
20
54.901199565742743
30
0
10
17.201666513565318
20
50.598057482189745
30
0
10
17.146911398009845
20
46.459363211562305
30
0
10
16.826763787193403
20
43.302724997164923
30
0
10
16.437595210525014
20
41.025770159057366
30
0
10
16.112084715298508
20
39.547934717314519
30
0
10
15.932812644130223
20
38.819050238544328
30
0
0
SPLINE
5
101
100
AcDbEntity
8
0
100
AcDbSpline
70
4
71
5
72
46
73
40
74
0
42
0.000000001
43
0.0000000001
44
0.0000000001
40
0
40
0
40
0
40
0
40
0
40
0
40
0.028571428571428571
40
0.057142857142857141
40
0.085714285714285715
40
0.11428571428571428
40
0.14285714285714285
40
0.17142857142857143
40
0.20000000000000001
40
0.22857142857142859
40
0.25714285714285717
40
0.28571428571428575
40
0.31428571428571433
40
0.34285714285714292
40
0.3714285714285715
40
0.40000000000000008
40
0.42857142857142866
40
0.45714285714285724
40
0.48571428571428582
40
0.51428571428571435
40
0.54285714285714293
40
0.57142857142857151
40
0.60000000000000009
40
0.62857142857142867
40
0.65714285714285725
40
0.68571428571428583
40
0.71428571428571441
40
0.74285714285714299
40
0.77142857142857157
40
0.80000000000000016
40
0.82857142857142874
40
0.85714285714285732
40
0.8857142857142859
40
0.91428571428571448
40
0.94285714285714306
40
0.97142857142857164
40
1
40
1
40
1
40
1
40
1
40
1
41
1
41
1
41
1
41
1
41
1
41
1
41
1
41
1
41
1
41
1
41
1
41
1
41
1
41
1
41
1
41
1
41
1
41
1
41
1
41
1
41
1
41
1
41
1
41
1
41
1
41
1
41
1
41
1
41
1
41
1
41
1
41
1
41
1
41
1
41
1
41
1
41
1
41
1
41
1
41
1
10
-108.81867094426077
20
-0.17090754084933743
30
0
10
-109.07853765236081
20
0.20002692378384179
30
0
10
-109.57489026739663
20
0.95849830054141005
30
0
10
-110.24927673429073
20
2.146013054978491
30
0
10
-111.007987678928
20
3.8291109298876975
30
0
10
-111.72080717484116
20
6.0980752968944705
30
0
10
-112.19559782760392
20
8.5272805558659481
30
0
10
-112.42885223081905
20
11.106085131750286
30
0
10
-112.41606819251791
20
13.815519363241382
30
0
10
-112.15129677287223
20
16.62872234845555
30
0
10
-111.62663294551251
20
19.512005704759439
30
0
10
-110.83167205534052
20
22.425614793098475
30
0
10
-109.75316147320476
20
25.324654612188869
30
0
10
-108.37415576963917
20
28.159692678070481
30
0
10
-106.67757542918793
20
30.879573445616451
30
0
10
-104.65044683789672
20
33.434545127440458
30
0
10
-102.28809503590598
20
35.779377857982816
30
0
10
-99.59812042764888
20
37.876331608277965
30
0
10
-96.60532356926204
20
39.698708950841223
30
0
10
-93.35399707053277
20
41.232804300889953
30
0
10
-89.901387183151542
20
42.474476303099522
30
0
10
-86.31272378931628
20
43.426693866182482
30
0
10
-82.655727559155125
20
44.096787925847977
30
0
10
-78.995342638199133
20
44.493865433914891
30
0
10
-75.388469074812448
20
44.626266075259728
30
0
10
-71.878407876680242
20
44.498859320835031
30
0
10
-68.497402494633036
20
44.115832072826194
30
0
10
-65.269452929437492
20
43.483685261845295
30
0
10
-62.212997812092937
20
42.614264931581111
30
0
10
-59.343529738343818
20
41.52766691081645
30
0
10
-56.676362922615894
20
40.255661992400363
30
0
10
-54.228830000785059
20
38.843838937295196
30
0
10
-52.018433813866594
20
37.344285956771806
30
0
10
-50.061289635597547
20
35.808958102494117
30
0
10
-48.370609036429826
20
34.283396079858257
30
0
10
-46.954680421111838
20
32.798858841147783
30
0
10
-46.044186462694398
20
31.655809213137779
30
0
10
-45.486487848461046
20
30.825837635181959
30
0
10
-45.170242684012607
20
30.284634324047776
30
0
10
-45.02600881822444
20
30.01706119101609
30
0
0
SPLINE
5
102
100
AcDbEntity
8
0
100
AcDbSpline
70
4
71
5
72
36
73
30
74
0
42
0.000000001
43
0.0000000001
44
0.0000000001
40
0
40
0
40
0
40
0
40
0
40
0
40
0.040000000000000001
40
0.080000000000000002
40
0.12
40
0.16
40
0.20000000000000001
40
0.24000000000000002
40
0.28000000000000003
40
0.32000000000000001
40
0.35999999999999999
40
0.39999999999999997
40
0.43999999999999995
40
0.47999999999999993
40
0.51999999999999991
40
0.55999999999999994
40
0.59999999999999998
40
0.64000000000000001
40
0.68000000000000005
40
0.72000000000000008
40
0.76000000000000012
40
0.80000000000000016
40
0.84000000000000019
40
0.88000000000000023
40
0.92000000000000026
40
0.9600000000000003
40
1
40
1
40
1
40
1
40
1
40
1
41
1
41
1
41
1
41
1
41
1
41
1
41
1
41
1
41
1
41
1
41
1
41
1
41
1
41
1
41
1
41
1
41
1
41
1
41
1
41
1
41
1
41
1
41
1
41
1
41
1
41
1
41
1
41
1
41
1
41
1
10
-136.9238379663995
20
-19.813464027504473
30
0
10
-137.21255384741443
20
-19.625917108128924
30
0
10
-137.77368910382597
20
-19.221479414939196
30
0
10
-138.56650219718097
20
-18.52679286602417
30
0
10
-139.52555407374726
20
-17.424011224857708
30
0
10
-140.55814504708138
20
-15.753152213584009
30
0
10
-141.41864097266395
20
-13.799903865059179
30
0
10
-142.09718709516062
20
-11.588411780601922
30
0
10
-142.5794266113075
20
-9.1612482597812566
30
0
10
-142.848473383342
20
-6.5722337913794027
30
0
10
-142.88666028166833
20
-3.8806761098008198
30
0
10
-142.6774317027193
20
-1.1453277689562298
30
0
10
-142.20733314009823
20
1.5817254519328343
30
0
10
-141.46795775751499
20
4.2604257195244175
30
0
10
-140.45666916677308
20
6.8601824932895301
30
0
10
-139.17750172159342
20
9.3581207185643223
30
0
10
-137.64232614083224
20
11.737097908039637
30
0
10
-135.87177739636695
20
13.984025422100574
30
0
10
-133.8973269815352
20
16.087929521734093
30
0
10
-131.7592068273409
20
18.039299244309582
30
0
10
-129.50177426384872
20
19.830235063183046
30
0
10
-127.16978312402495
20
21.454434000736104
30
0
10
-124.80433830808161
20
22.907334581434956
30
0
10
-122.43904171940241
20
24.186280111593298
30
0
10
-120.09588997420374
20
25.290792800657542
30
0
10
-117.78770280005034
20
26.221764479501545
30
0
10
-115.97402643987407
20
26.82890622603361
30
0
10
-114.63307346839363
20
27.207474476125292
30
0
10
-113.74766227281069
20
27.425814178340406
30
0
10
-113.30709603188345
20
27.526474241163875
30
0
0
SPLINE
5
103
100
AcDbEntity
8
0
100
AcDbSpline
70
4
71
5
72
36
73
30
74
0
42
0.000000001
43
0.0000000001
44
0.0000000001
40
0
40
0
40
0
40
0
40
0
40
0
40
0.040000000000000001
40
0.080000000000000002
40
0.12
40
0.16
40
0.20000000000000001
40
0.24000000000000002
40
0.28000000000000003
40
0.32000000000000001
40
0.35999999999999999
40
0.39999999999999997
40
0.43999999999999995
40
0.47999999999999993
40
0.51999999999999991
40
0.55999999999999994
40
0.59999999999999998
40
0.64000000000000001
40
0.68000000000000005
40
0.72000000000000008
40
0.76000000000000012
40
0.80000000000000016
40
0.84000000000000019
40
0.88000000000000023
40
0.92000000000000026
40
0.9600000000000003
40
1
40
1
40
1
40
1
40
1
40
1
41
1
41
1
41
1
41
1
41
1
41
1
41
1
41
1
41
1
41
1
41
1
41
1
41
1
41
1
41
1
41
1
41
1
41
1
41
1
41
1
41
1
41
1
41
1
41
1
41
1
41
1
41
1
41
1
41
1
41
1
10
-134.11397306547065
20
-17.003599126575608
30
0
10
-134.38556395638648
20
-16.738547664076847
30
0
10
-134.91003949410708
20
-16.190535506522956
30
0
10
-135.64063432344332
20
-15.314789087707634
30
0
10
-136.50222882292678
20
-14.03939465218903
30
0
10
-137.3890608252263
20
-12.266254705435781
30
0
10
-138.08085018117239
20
-10.31914899643051
30
0
10
-138.57018072723724
20
-8.2100529135058338
30
0
10
-138.84665952241005
20
-5.9614269224123628
30
0
10
-138.8971711740752
20
-3.6081600372880933
30
0
10
-138.70898449032282
20
-1.192882259979819
30
0
10
-138.27243140548865
20
1.2375773250748017
30
0
10
-137.58407105893474
20
3.6362107297523298
30
0
10
-136.64938512664696
20
5.9593436105106043
30
0
10
-135.4869508724872
20
8.1710807492869861
30
0
10
-134.1278343136043
20
10.24466519784248
30
0
10
-132.61069117063431
20
12.161153471005125
30
0
10
-130.97827872579418
20
13.908953930845202
30
0
10
-129.27342330132768
20
15.483201107532828
30
0
10
-127.53552289870277
20
16.885261188961294
30
0
10
-125.79623841961977
20
18.122567227412951
30
0
10
-124.07963041404349
20
19.206819400683383
30
0
10
-122.40348128337854
20
20.151779951155273
30
0
10
-120.78014122712904
20
20.971267474445824
30
0
10
-119.21750218028811
20
21.677212318326603
30
0
10
-117.71982232236978
20
22.277537791983569
30
0
10
-116.57501103694386
20
22.676920714548952
30
0
10
-115.74649786789435
20
22.931883624196104
30
0
10
-115.20749655763026
20
23.082099010735885
30
0
10
-114.94133110740904
20
23.152266768843862
30
0
0
SPLINE
5
104
100
AcDbEntity
8
0
100
AcDbSpline
70
4
71
5
72
41
73
35
74
0
42
0.000000001
43
0.0000000001
44
0.0000000001
40
0
40
0
40
0
40
0
40
0
40
0
40
0.033333333333333333
40
0.066666666666666666
40
0.10000000000000001
40
0.13333333333333333
40
0.16666666666666666
40
0.19999999999999998
40
0.23333333333333331
40
0.26666666666666666
40
0.29999999999999999
40
0.33333333333333331
40
0.36666666666666664
40
0.39999999999999997
40
0.43333333333333329
40
0.46666666666666662
40
0.49999999999999994
40
0.53333333333333333
40
0.56666666666666665
40
0.59999999999999998
40
0.6333333333333333
40
0.66666666666666663
40
0.69999999999999996
40
0.73333333333333328
40
0.76666666666666661
40
0.79999999999999993
40
0.83333333333333326
40
0.86666666666666659
40
0.89999999999999991
40
0.93333333333333324
40
0.96666666666666656
40
1
40
1
40
1
40
1
40
1
40
1
41
1
41
1
41
1
41
1
41
1
41
1
41
1
41
1
41
1
41
1
41
1
41
1
41
1
41
1
41
1
41
1
41
1
41
1
41
1
41
1
41
1
41
1
41
1
41
1
41
1
41
1
41
1
41
1
41
1
41
1
41
1
41
1
41
1
41
1
41
1
10
-91.804968041448305
20
46.265934644429507
30
0
10
-91.824346329011036
20
46.539480004198083
30
0
10
-91.843909292120017
20
47.09308220034216
30
0
10
-91.815672489181168
20
47.943020592139227
30
0
10
-91.662655949136422
20
49.115406965081206
30
0
10
-91.279258205516598
20
50.644438431704366
30
0
10
-90.706379464836075
20
52.231150896671167
30
0
10
-89.950829873716089
20
53.863418169642856
30
0
10
-89.025768102819441
20
55.520023939927981
30
0
10
-87.951554842555041
20
57.169948101125357
30
0
10
-86.75259121030885
20
58.778021364797233
30
0
10
-85.454975212016222
20
60.309284580012147
30
0
10
-84.083788358207144
20
61.734122805717639
30
0
10
-82.660775281193594
20
63.032506391392644
30
0
10
-81.201328921065937
20
64.200188310179072
30
0
10
-79.713693717299122
20
65.248655988434336
30
0
10
-78.200870796472728
20
66.197406381435897
30
0
10
-76.661805053970326
20
67.068254162080081
30
0
10
-75.092834635451936
20
67.878883763377019
30
0
10
-73.489013623137623
20
68.63668763007945
30
0
10
-71.845476493794393
20
69.332543288427246
30
0
10
-70.159598434779241
20
69.946655977831995
30
0
10
-68.433077007136504
20
70.454045976381295
30
0
10
-66.674267952903378
20
70.83038361106702
30
0
10
-64.900037667590354
20
71.057126596373209
30
0
10
-63.138978140882756
20
71.128439789867784
30
0
10
-61.428654242844345
20
71.050260755251529
30
0
10
-59.809932123623575
20
70.835448904399826
30
0
10
-58.32201306910239
20
70.500112620951256
30
0
10
-56.99766857599252
20
70.059806238551346
30
0
10
-55.85702653825372
20
69.525068824130628
30
0
10
-55.098553969698358
20
69.026060769839333
30
0
10
-54.617410464265106
20
68.612732381911044
30
0
10
-54.335553157983156
20
68.319841914512665
30
0
10
-54.204351173847542
20
68.169062365224221
30
0
0
SPLINE
5
105
100
AcDbEntity
8
0
100
AcDbSpline
70
4
71
5
72
46
73
40
74
0
42
0.000000001
43
0.0000000001
44
0.0000000001
40
0
40
0
40
0
40
0
40
0
40
0
40
0.028571428571428571
40
0.057142857142857141
40
0.085714285714285715
40
0.11428571428571428
40
0.14285714285714285
40
0.17142857142857143
40
0.20000000000000001
40
0.22857142857142859
40
0.25714285714285717
40
0.28571428571428575
40
0.31428571428571433
40
0.34285714285714292
40
0.3714285714285715
40
0.40000000000000008
40
0.42857142857142866
40
0.45714285714285724
40
0.48571428571428582
40
0.51428571428571435
40
0.54285714285714293
40
0.57142857142857151
40
0.60000000000000009
40
0.62857142857142867
40
0.65714285714285725
40
0.68571428571428583
40
0.71428571428571441
40
0.74285714285714299
40
0.77142857142857157
40
0.80000000000000016
40
0.82857142857142874
40
0.85714285714285732
40
0.8857142857142859
40
0.91428571428571448
40
0.94285714285714306
40
0.97142857142857164
40
1
40
1
40
1
40
1
40
1
40
1
41
1
41
1
41
1
41
1
41
1
41
1
41
1
41
1
41
1
41
1
41
1
41
1
41
1
41
1
41
1
41
1
41
1
41
1
41
1
41
1
41
1
41
1
41
1
41
1
41
1
41
1
41
1
41
1
41
1
41
1
41
1
41
1
41
1
41
1
41
1
41
1
41
1
41
1
41
1
41
1
10
-94.593930670253997
20
45.392489420038629
30
0
10
-94.605373167823203
20
45.670500140875696
30
0
10
-94.613192009335151
20
46.233006883329423
30
0
10
-94.579721762593067
20
47.09622303895032
30
0
10
-94.444577940657354
20
48.2861405594846
30
0
10
-94.124973911172333
20
49.83679329523342
30
0
10
-93.656483505782134
20
51.445102620287095
30
0
10
-93.043601688869444
20
53.099489028037723
30
0
10
-92.29472042871393
20
54.780150052550802
30
0
10
-91.423180866718283
20
56.457197669465231
30
0
10
-90.445674926097752
20
58.095832991354605
30
0
10
-89.380815792715765
20
59.66102723493443
30
0
10
-88.247663613716384
20
61.122581760607872
30
0
10
-87.064300747339956
20
62.459603771415821
30
0
10
-85.846356124359801
20
63.666374945683977
30
0
10
-84.605669965821605
20
64.754136698723812
30
0
10
-83.349346699397827
20
65.743918405437569
30
0
10
-82.078612552042586
20
66.661143134131336
30
0
10
-80.787927759270673
20
67.529808813133968
30
0
10
-79.46346880082092
20
68.366297021659619
30
0
10
-78.083336196499687
20
69.17505718613657
30
0
10
-76.624154972188961
20
69.951806434856763
30
0
10
-75.066691460724201
20
70.685498698394213
30
0
10
-73.40183035570044
20
71.360735902002716
30
0
10
-71.636567794594868
20
71.959976498771354
30
0
10
-69.799774725562983
20
72.46579557401931
30
0
10
-67.934040969897836
20
72.862392681028155
30
0
10
-66.088116629954143
20
73.137097460575461
30
0
10
-64.308888974664399
20
73.282004440067979
30
0
10
-62.634217371800531
20
73.295358582683932
30
0
10
-61.08375973071621
20
73.183658981207955
30
0
10
-59.655955292189418
20
72.961610409696561
30
0
10
-58.336619637826708
20
72.648012453580861
30
0
10
-57.105069503918855
20
72.262486922730616
30
0
10
-55.940883828541246
20
71.822064144044276
30
0
10
-54.831141603879054
20
71.337375771029471
30
0
10
-53.981761053944268
20
70.91847393726573
30
0
10
-53.365288398923944
20
70.587633030074898
30
0
10
-52.96343667307373
20
70.359673982853494
30
0
10
-52.764793138256714
20
70.243844953270028
30
0
0
SPLINE
5
106
100
AcDbEntity
8
0
100
AcDbSpline
70
4
71
5
72
56
73
50
74
0
42
0.000000001
43
0.0000000001
44
0.0000000001
40
0
40
0
40
0
40
0
40
0
40
0
40
0.022222222222222223
40
0.044444444444444446
40
0.066666666666666666
40
0.088888888888888892
40
0.11111111111111112
40
0.13333333333333333
40
0.15555555555555556
40
0.17777777777777778
40
0.20000000000000001
40
0.22222222222222224
40
0.24444444444444446
40
0.26666666666666666
40
0.28888888888888886
40
0.31111111111111106
40
0.33333333333333326
40
0.35555555555555546
40
0.37777777777777766
40
0.39999999999999986
40
0.42222222222222205
40
0.44444444444444425
40
0.46666666666666645
40
0.48888888888888865
40
0.51111111111111085
40
0.5333333333333331
40
0.55555555555555536
40
0.57777777777777761
40
0.59999999999999987
40
0.62222222222222212
40
0.64444444444444438
40
0.66666666666666663
40
0.68888888888888888
40
0.71111111111111114
40
0.73333333333333339
40
0.75555555555555565
40
0.7777777777777779
40
0.80000000000000016
40
0.82222222222222241
40
0.84444444444444466
40
0.86666666666666692
40
0.88888888888888917
40
0.91111111111111143
40
0.93333333333333368
40
0.95555555555555594
40
0.97777777777777819
40
1
40
1
40
1
40
1
40
1
40
1
41
1
41
1
41
1
41
1
41
1
41
1
41
1
41
1
41
1
41
1
41
1
41
1
41
1
41
1
41
1
41
1
41
1
41
1
41
1
41
1
41
1
41
1
41
1
41
1
41
1
41
1
41
1
41
1
41
1
41
1
41
1
41
1
41
1
41
1
41
1
41
1
41
1
41
1
41
1
41
1
41
1
41
1
41
1
41
1
41
1
41
1
41
1
41
1
41
1
41
1
10
18.517777958346766
20
66.016498509694557
30
0
10
18.646085373602464
20
66.13984827139204
30
0
10
18.914483820196601
20
66.3801427589394
30
0
10
19.352432155064253
20
66.721369441980002
30
0
10
20.007123060682726
20
67.137876832872706
30
0
10
20.941759514409412
20
67.59476107936662
30
0
10
21.987140865170538
20
67.989255725203449
30
0
10
23.131711221107697
20
68.324337634334029
30
0
10
24.355929874773551
20
68.605143785374437
30
0
10
25.63644622381624
20
68.837559522334573
30
0
10
26.950125233184671
20
69.026853150691196
30
0
10
28.278018433370274
20
69.176330030274642
30
0
10
29.60961002959591
20
69.285892448114879
30
0
10
30.946265561804267
20
69.350869559336076
30
0
10
32.295960457032692
20
69.363780451837002
30
0
10
33.668779303834164
20
69.31584585355526
30
0
10
35.071971713837399
20
69.198629951631432
30
0
10
36.505560192184589
20
69.005541647971398
30
0
10
37.956719413303247
20
68.733633593361503
30
0
10
39.403726561292594
20
68.383120763485834
30
0
10
40.82149814018895
20
67.956510829680937
30
0
10
42.186723858282448
20
67.45787026362693
30
0
10
43.482801283745324
20
66.892066902987665
30
0
10
44.705762995920054
20
66.263971601468924
30
0
10
45.867032381782813
20
65.577862607000739
30
0
10
46.985937681704186
20
64.837502659320933
30
0
10
48.084012573373343
20
64.046100818942875
30
0
10
49.178597579483267
20
63.206319832788658
30
0
10
50.276756306496118
20
62.320265524535571
30
0
10
51.36896756096634
20
61.389481485126581
30
0
10
52.434930375820727
20
60.415294127949423
30
0
10
53.449222776200962
20
59.399151175021302
30
0
10
54.387273148613104
20
58.34298450489969
30
0
10
55.230565304730248
20
57.249520099961074
30
0
10
55.973757274657039
20
56.122728097718579
30
0
10
56.624539147732648
20
54.967749230268261
30
0
10
57.197410498455092
20
53.790380353748269
30
0
10
57.709001544875711
20
52.596676869349992
30
0
10
58.173214046818742
20
51.392533521328694
30
0
10
58.59537512614348
20
50.183216736282503
30
0
10
58.970680900675063
20
48.973131175893855
30
0
10
59.288412951826288
20
47.76591268985355
30
0
10
59.534801061496943
20
46.564433067453379
30
0
10
59.696171550585539
20
45.370845783781988
30
0
10
59.762599051235654
20
44.186592056194726
30
0
10
59.728587810561962
20
43.012507058455462
30
0
10
59.618913081474567
20
42.08169402834767
30
0
10
59.489964613482329
20
41.388391917708496
30
0
10
59.383261649989969
20
40.928325582552738
30
0
10
59.324725943084154
20
40.698826180036683
30
0
0
SPLINE
5
107
100
AcDbEntity
8
0
100
AcDbSpline
70
4
71
5
72
36
73
30
74
0
42
0.000000001
43
0.0000000001
44
0.0000000001
40
0
40
0
40
0
40
0
40
0
40
0
40
0.040000000000000001
40
0.080000000000000002
40
0.12
40
0.16
40
0.20000000000000001
40
0.24000000000000002
40
0.28000000000000003
40
0.32000000000000001
40
0.35999999999999999
40
0.39999999999999997
40
0.43999999999999995
40
0.47999999999999993
40
0.51999999999999991
40
0.55999999999999994
40
0.59999999999999998
40
0.64000000000000001
40
0.68000000000000005
40
0.72000000000000008
40
0.76000000000000012
40
0.80000000000000016
40
0.84000000000000019
40
0.88000000000000023
40
0.92000000000000026
40
0.9600000000000003
40
1
40
1
40
1
40
1
40
1
40
1
41
1
41
1
41
1
41
1
41
1
41
1
41
1
41
1
41
1
41
1
41
1
41
1
41
1
41
1
41
1
41
1
41
1
41
1
41
1
41
1
41
1
41
1
41
1
41
1
41
1
41
1
41
1
41
1
41
1
41
1
10
17.318524397653043
20
68.49108249122169
30
0
10
17.650601353126834
20
68.692860858415713
30
0
10
18.334363165813407
20
69.082357375678356
30
0
10
19.418831007248599
20
69.624422323659772
30
0
10
20.982733077161427
20
70.26258875943499
30
0
10
23.132972503109034
20
70.916427151882132
30
0
10
25.471547470439482
20
71.419823050149034
30
0
10
27.982334478549724
20
71.761553791858844
30
0
10
30.635078720456256
20
71.923916707009539
30
0
10
33.386834459180953
20
71.884473931379659
30
0
10
36.187762908031843
20
71.62021090461765
30
0
10
38.985595236481686
20
71.111137697821846
30
0
10
41.730392644680194
20
70.344039551150274
30
0
10
44.379620262213024
20
69.316812871943142
30
0
10
46.901837590339781
20
68.041319639711546
30
0
10
49.273866256781389
20
66.539194000101247
30
0
10
51.479057337236149
20
64.838887629809889
30
0
10
53.505225637765534
20
62.972358850244248
30
0
10
55.342954911687642
20
60.972192717102743
30
0
10
56.983606607273089
20
58.868285526158459
30
0
10
58.419147599828392
20
56.686971595122031
30
0
10
59.642583856037731
20
54.450960967998327
30
0
10
60.648335763186047
20
52.178974037420886
30
0
10
61.432647431531258
20
49.885565618338973
30
0
10
61.994350914470346
20
47.580645457333546
30
0
10
62.33433352006336
20
45.270079051028631
30
0
10
62.430349437301267
20
43.41947311644325
30
0
10
62.404168035143158
20
42.030749984167883
30
0
10
62.343185361276042
20
41.104594278692126
30
0
10
62.301811950407249
20
40.641431327708943
30
0
0
SPLINE
5
108
100
AcDbEntity
8
0
100
AcDbSpline
70
4
71
5
72
56
73
50
74
0
42
0.000000001
43
0.0000000001
44
0.0000000001
40
0
40
0
40
0
40
0
40
0
40
0
40
0.022222222222222223
40
0.044444444444444446
40
0.066666666666666666
40
0.088888888888888892
40
0.11111111111111112
40
0.13333333333333333
40
0.15555555555555556
40
0.17777777777777778
40
0.20000000000000001
40
0.22222222222222224
40
0.24444444444444446
40
0.26666666666666666
40
0.28888888888888886
40
0.31111111111111106
40
0.33333333333333326
40
0.35555555555555546
40
0.37777777777777766
40
0.39999999999999986
40
0.42222222222222205
40
0.44444444444444425
40
0.46666666666666645
40
0.48888888888888865
40
0.51111111111111085
40
0.5333333333333331
40
0.55555555555555536
40
0.57777777777777761
40
0.59999999999999987
40
0.62222222222222212
40
0.64444444444444438
40
0.66666666666666663
40
0.68888888888888888
40
0.71111111111111114
40
0.73333333333333339
40
0.75555555555555565
40
0.7777777777777779
40
0.80000000000000016
40
0.82222222222222241
40
0.84444444444444466
40
0.86666666666666692
40
0.88888888888888917
40
0.91111111111111143
40
0.93333333333333368
40
0.95555555555555594
40
0.97777777777777819
40
1
40
1
40
1
40
1
40
1
40
1
41
1
41
1
41
1
41
1
41
1
41
1
41
1
41
1
41
1
41
1
41
1
41
1
41
1
41
1
41
1
41
1
41
1
41
1
41
1
41
1
41
1
41
1
41
1
41
1
41
1
41
1
41
1
41
1
41
1
41
1
41
1
41
1
41
1
41
1
41
1
41
1
41
1
41
1
41
1
41
1
41
1
41
1
41
1
41
1
41
1
41
1
41
1
41
1
41
1
41
1
10
-50.570912419564678
20
14.827307841999907
30
0
10
-50.420714959698742
20
15.177239611245019
30
0
10
-50.110792059660163
20
15.879777446516341
30
0
10
-49.617323792083056
20
16.941607061088856
30
0
10
-48.902152093728439
20
18.373438756591661
30
0
10
-47.912122193162602
20
20.190041402738586
30
0
10
-46.82435913931505
20
22.03347647485969
30
0
10
-45.635880296691596
20
23.903675950257096
30
0
10
-44.342008316472231
20
25.800463172285056
30
0
10
-42.936575329377831
20
27.721369040479338
30
0
10
-41.412104745004328
20
29.659225445867349
30
0
10
-39.760079914158965
20
31.600112535924296
30
0
10
-37.970992790843454
20
33.52046130373018
30
0
10
-36.035092047457439
20
35.386689308357752
30
0
10
-33.944733350586837
20
37.160654366109007
30
0
10
-31.696424235533883
20
38.80393726878296
30
0
10
-29.292997445041205
20
40.282571235861717
30
0
10
-26.745783004699874
20
41.571638078253592
30
0
10
-24.076736008924364
20
42.65983502647881
30
0
10
-21.314634174486791
20
43.545273685969114
30
0
10
-18.491486087198371
20
44.231573491026282
30
0
10
-15.638717500876442
20
44.723685287381898
30
0
10
-12.783823392821485
20
45.024277380065307
30
0
10
-9.9459154734167541
20
45.128832335399721
30
0
10
-7.1349998253375011
20
45.025136685902005
30
0
10
-4.3562201675242997
20
44.698616121188969
30
0
10
-1.6128369478898446
20
44.136198577753845
30
0
10
1.0902670424979557
20
43.330819984582085
30
0
10
3.74336369036897
20
42.285598586990261
30
0
10
6.3283669759381489
20
41.018416071535235
30
0
10
8.8220366981980369
20
39.557012102888187
30
0
10
11.199264917120333
20
37.933984337330116
30
0
10
13.436474705092255
20
36.18162121749026
30
0
10
15.514644215706719
20
34.327337638563037
30
0
10
17.423324340736141
20
32.387575547012673
30
0
10
19.161298898320481
20
30.366955226285345
30
0
10
20.732766812377395
20
28.264398826482683
30
0
10
22.144584060343817
20
26.077657959474188
30
0
10
23.403255560737342
20
23.808162614849572
30
0
10
24.511661466139923
20
21.466505643861229
30
0
10
25.467094469589536
20
19.075291143749208
30
0
10
26.263523317759891
20
16.663616572571716
30
0
10
26.893156735106544
20
14.262913760365665
30
0
10
27.348176692059138
20
11.902550057762269
30
0
10
27.622658043699332
20
9.6048532031570168
30
0
10
27.713583073135503
20
7.382596798650507
30
0
10
27.638498388184463
20
5.6702458534455227
30
0
10
27.498994191338255
20
4.4236697676971009
30
0
10
27.369046324306531
20
3.6093584704309429
30
0
10
27.29483618950594
20
3.2063875019183858
30
0
0
SPLINE
5
109
100
AcDbEntity
8
0
100
AcDbSpline
70
4
71
5
72
66
73
60
74
0
42
0.000000001
43
0.0000000001
44
0.0000000001
40
0
40
0
40
0
40
0
40
0
40
0
40
0.018181818181818181
40
0.036363636363636362
40
0.054545454545454543
40
0.072727272727272724
40
0.090909090909090912
40
0.1090909090909091
40
0.12727272727272729
40
0.14545454545454548
40
0.16363636363636366
40
0.18181818181818185
40
0.20000000000000004
40
0.21818181818181823
40
0.23636363636363641
40
0.25454545454545457
40
0.27272727272727276
40
0.29090909090909095
40
0.30909090909090914
40
0.32727272727272733
40
0.34545454545454551
40
0.3636363636363637
40
0.38181818181818189
40
0.40000000000000008
40
0.41818181818181827
40
0.43636363636363645
40
0.45454545454545464
40
0.47272727272727283
40
0.49090909090909102
40
0.50909090909090915
40
0.52727272727272734
40
0.54545454545454553
40
0.56363636363636371
40
0.5818181818181819
40
0.60000000000000009
40
0.61818181818181828
40
0.63636363636363646
40
0.65454545454545465
40
0.67272727272727284
40
0.69090909090909103
40
0.70909090909090922
40
0.7272727272727274
40
0.74545454545454559
40
0.76363636363636378
40
0.78181818181818197
40
0.80000000000000016
40
0.81818181818181834
40
0.83636363636363653
40
0.85454545454545472
40
0.87272727272727291
40
0.89090909090909109
40
0.90909090909090928
40
0.92727272727272747
40
0.94545454545454566
40
0.96363636363636385
40
0.98181818181818203
40
1
40
1
40
1
40
1
40
1
40
1
41
1
41
1
41
1
41
1
41
1
41
1
41
1
41
1
41
1
41
1
41
1
41
1
41
1
41
1
41
1
41
1
41
1
41
1
41
1
41
1
41
1
41
1
41
1
41
1
41
1
41
1
41
1
41
1
41
1
41
1
41
1
41
1
41
1
41
1
41
1
41
1
41
1
41
1
41
1
41
1
41
1
41
1
41
1
41
1
41
1
41
1
41
1
41
1
41
1
41
1
41
1
41
1
41
1
41
1
41
1
41
1
41
1
41
1
41
1
41
1
10
30.915399193246436
20
1.9413214424849079
30
0
10
30.911420682880447
20
2.153772540288402
30
0
10
30.905154283678385
20
2.5955996492794102
30
0
10
30.900826638300934
20
3.3091060281627582
30
0
10
30.905205036076197
20
4.3621122865343596
30
0
10
30.928498384380315
20
5.8399133722051486
30
0
10
30.972262320597142
20
7.456477488804838
30
0
10
31.041787078244766
20
9.1628776585091174
30
0
10
31.145751889677111
20
10.894451578727223
30
0
10
31.297034427617703
20
12.59268379328965
30
0
10
31.513299431376932
20
14.220945871973036
30
0
10
31.818185176158341
20
15.788780115624155
30
0
10
32.240151485921963
20
17.347399350974484
30
0
10
32.809342589317822
20
18.961043508820211
30
0
10
33.555116709289756
20
20.687163546245849
30
0
10
34.503073907685945
20
22.548504949289566
30
0
10
35.673111067298755
20
24.525052080914843
30
0
10
37.078569745135795
20
26.569159990326284
30
0
10
38.725146009588606
20
28.614692195351967
30
0
10
40.609772776511505
20
30.588863872481824
30
0
10
42.719727571361858
20
32.42214613981433
30
0
10
45.031015895110727
20
34.06092151334699
30
0
10
47.510071535332116
20
35.469316072626711
30
0
10
50.117191564077011
20
36.625568286602864
30
0
10
52.809413476212171
20
37.520125343265576
30
0
10
55.543610144285182
20
38.153057634536779
30
0
10
58.279490559217933
20
38.531793762211095
30
0
10
60.982635860113106
20
38.668743451238562
30
0
10
63.627555316117935
20
38.57898133579512
30
0
10
66.19619226151697
20
38.278388586076694
30
0
10
68.676408025878047
20
37.781792009130008
30
0
10
71.060493812822884
20
37.101145898775158
30
0
10
73.343673841566897
20
36.24360469576655
30
0
10
75.522644721552339
20
35.209847212892726
30
0
10
77.594044557356185
20
33.991719945826219
30
0
10
79.553723793273733
20
32.577210424061427
30
0
10
81.396114932488572
20
30.956303819379329
30
0
10
83.113563687653951
20
29.126543017535461
30
0
10
84.69568051170711
20
27.098702511125879
30
0
10
86.128665230096587
20
24.902511749637924
30
0
10
87.39468016754337
20
22.592209485667254
30
0
10
88.474996172373764
20
20.235258282292527
30
0
10
89.353061532452642
20
17.901404483595485
30
0
10
90.017656751987047
20
15.651458580423068
30
0
10
90.465911707880423
20
13.526551776461332
30
0
10
90.706675952793773
20
11.536271072595692
30
0
10
90.762989990530201
20
9.6497052881644336
30
0
10
90.665664108294962
20
7.8149838688153608
30
0
10
90.447286758321553
20
5.9775054418598845
30
0
10
90.136616508850835
20
4.0968237422613782
30
0
10
89.751518317160532
20
2.1685090928625046
30
0
10
89.297401445129125
20
0.22732174683825004
30
0
10
88.771919717436845
20
-1.6707947151772955
30
0
10
88.16811250855919
20
-3.461567415511225
30
0
10
87.477958985852112
20
-5.0863553364803913
30
0
10
86.696292829913247
20
-6.5081179723046532
30
0
10
85.995884639498513
20
-7.4690087242236523
30
0
10
85.428023103981602
20
-8.0877533507515995
30
0
10
85.030548034128444
20
-8.4549866478393554
30
0
10
84.827085169927855
20
-8.6272868352848491
30
0
0
SPLINE
5
110
100
AcDbEntity
8
0
100
AcDbSpline
70
4
71
5
72
96
73
90
74
0
42
0.000000001
43
0.0000000001
44
0.0000000001
40
0
40
0
40
0
40
0
40
0
40
0
40
0.011764705882352941
40
0.023529411764705882
40
0.035294117647058823
40
0.047058823529411764
40
0.058823529411764705
40
0.070588235294117646
40
0.082352941176470587
40
0.094117647058823528
40
0.10588235294117647
40
0.11764705882352941
40
0.12941176470588234
40
0.14117647058823529
40
0.15294117647058825
40
0.1647058823529412
40
0.17647058823529416
40
0.18823529411764711
40
0.20000000000000007
40
0.21176470588235302
40
0.22352941176470598
40
0.23529411764705893
40
0.24705882352941189
40
0.25882352941176484
40
0.2705882352941178
40
0.28235294117647075
40
0.29411764705882371
40
0.30588235294117666
40
0.31764705882352962
40
0.32941176470588257
40
0.34117647058823553
40
0.35294117647058848
40
0.36470588235294144
40
0.37647058823529439
40
0.38823529411764734
40
0.4000000000000003
40
0.41176470588235325
40
0.42352941176470621
40
0.43529411764705916
40
0.44705882352941212
40
0.45882352941176507
40
0.47058823529411803
40
0.48235294117647098
40
0.49411764705882394
40
0.50588235294117689
40
0.51764705882352979
40
0.52941176470588269
40
0.54117647058823559
40
0.55294117647058849
40
0.56470588235294139
40
0.57647058823529429
40
0.58823529411764719
40
0.60000000000000009
40
0.61176470588235299
40
0.62352941176470589
40
0.63529411764705879
40
0.64705882352941169
40
0.65882352941176459
40
0.67058823529411749
40
0.68235294117647038
40
0.69411764705882328
40
0.70588235294117618
40
0.71764705882352908
40
0.72941176470588198
40
0.74117647058823488
40
0.75294117647058778
40
0.76470588235294068
40
0.77647058823529358
40
0.78823529411764648
40
0.79999999999999938
40
0.81176470588235228
40
0.82352941176470518
40
0.83529411764705808
40
0.84705882352941098
40
0.85882352941176388
40
0.87058823529411677
40
0.88235294117646967
40
0.89411764705882257
40
0.90588235294117547
40
0.91764705882352837
40
0.92941176470588127
40
0.94117647058823417
40
0.95294117647058707
40
0.96470588235293997
40
0.97647058823529287
40
0.98823529411764577
40
1
40
1
40
1
40
1
40
1
40
1
41
1
41
1
41
1
41
1
41
1
41
1
41
1
41
1
41
1
41
1
41
1
41
1
41
1
41
1
41
1
41
1
41
1
41
1
41
1
41
1
41
1
41
1
41
1
41
1
41
1
41
1
41
1
41
1
41
1
41
1
41
1
41
1
41
1
41
1
41
1
41
1
41
1
41
1
41
1
41
1
41
1
41
1
41
1
41
1
41
1
41
1
41
1
41
1
41
1
41
1
41
1
41
1
41
1
41
1
41
1
41
1
41
1
41
1
41
1
41
1
41
1
41
1
41
1
41
1
41
1
41
1
41
1
41
1
41
1
41
1
41
1
41
1
41
1
41
1
41
1
41
1
41
1
41
1
41
1
41
1
41
1
41
1
41
1
41
1
41
1
41
1
41
1
41
1
41
1
41
1
10
87.441378565485792
20
-9.7842295819983391
30
0
10
87.227731799149893
20
-9.9975273270897418
30
0
10
86.784731604145577
20
-10.408014997643523
30
0
10
86.073116406412069
20
-10.975425309275394
30
0
10
85.03000099708261
20
-11.635288572864324
30
0
10
83.574564136099227
20
-12.301651080276034
30
0
10
81.983817117006708
20
-12.817415542531911
30
0
10
80.292080430733463
20
-13.199240783207207
30
0
10
78.539216533648187
20
-13.467152774084393
30
0
10
76.756413558629859
20
-13.63828612182327
30
0
10
74.949450493561741
20
-13.719682249009823
30
0
10
73.093084893930168
20
-13.705482300076826
30
0
10
71.150859554353843
20
-13.584080575376626
30
0
10
69.088029460835799
20
-13.342741532388748
30
0
10
66.890575062037584
20
-12.974170343007781
30
0
10
64.568476047967621
20
-12.47853417646327
30
0
10
62.145316008946637
20
-11.861615178986025
30
0
10
59.651347460014755
20
-11.134009711160077
30
0
10
57.115678977328983
20
-10.30989677835092
30
0
10
54.557512249436677
20
-9.4060186720569519
30
0
10
51.985101328937958
20
-8.4404484341907757
30
0
10
49.398301148942856
20
-7.4313444373732187
30
0
10
46.789939345573302
20
-6.3956857613271136
30
0
10
44.147684125477575
20
-5.3480599247619143
30
0
10
41.455663886416339
20
-4.2993200982048316
30
0
10
38.696278473879531
20
-3.255610204970437
30
0
10
35.852582955517327
20
-2.2195769983013003
30
0
10
32.910620149235143
20
-1.1913259072044011
30
0
10
29.861769396723226
20
-0.16947239272335851
30
0
10
26.70510522997002
20
0.84784731841833161
30
0
10
23.44973057445462
20
1.8619530409506235
30
0
10
20.117208520740434
20
2.8725909455833989
30
0
10
16.73724162792432
20
3.8778857015299457
30
0
10
13.343252676950286
20
4.874306493638727
30
0
10
9.9680184335684867
20
5.8566277580117454
30
0
10
6.6392547504224115
20
6.8178873370872779
30
0
10
3.3752814046833493
20
7.7493516118309946
30
0
10
0.18049657771555702
20
8.6404582439998485
30
0
10
-2.9586635666622847
20
9.4788164799476036
30
0
10
-6.0671144786876514
20
10.251448482943552
30
0
10
-9.1748653006068945
20
10.945997145991885
30
0
10
-12.310794247994659
20
11.55191463284709
30
0
10
-15.496049474266545
20
12.061734063821888
30
0
10
-18.738448055649805
20
12.472137264359633
30
0
10
-22.024325556677546
20
12.78554234917603
30
0
10
-25.320838517952936
20
13.009570259351031
30
0
10
-28.58577898886702
20
13.154989337434895
30
0
10
-31.775076261024427
20
13.234127498189395
30
0
10
-34.851453109606652
20
13.259057442149491
30
0
10
-37.792117834653574
20
13.239963827921802
30
0
10
-40.598017658070127
20
13.183229426776499
30
0
10
-43.298978513749624
20
13.090254417366992
30
0
10
-45.941440168789583
20
12.959365296697387
30
0
10
-48.578876375632127
20
12.787249132607972
30
0
10
-51.26081692744178
20
12.570631640385511
30
0
10
-54.023296422364886
20
12.307711385008254
30
0
10
-56.876533750771571
20
12.000060435311221
30
0
10
-59.807958132122749
20
11.651942996645413
30
0
10
-62.789974656964262
20
11.268832208593071
30
0
10
-65.786086705222942
20
10.856211542166015
30
0
10
-68.757808571892184
20
10.418221273553199
30
0
10
-71.670968504025069
20
9.9564559382318869
30
0
10
-74.502983210726882
20
9.4684690168678074
30
0
10
-77.242102116567082
20
8.9488061540899118
30
0
10
-79.88548694499994
20
8.3903859929062321
30
0
10
-82.437718543863127
20
7.785798452424201
30
0
10
-84.909109023518596
20
7.1285443690705677
30
0
10
-87.314158652078916
20
6.4145249796435468
30
0
10
-89.66977718607049
20
5.6426785358367182
30
0
10
-91.993169718435553
20
4.8139064375397478
30
0
10
-94.299716305952543
20
3.9303225354911402
30
0
10
-96.601012773081806
20
2.9944649155368577
30
0
10
-98.902458128902865
20
2.0083089306352058
30
0
10
-101.20231067224509
20
0.97308574259002067
30
0
10
-103.49363585166948
20
-0.10928925224448419
30
0
10
-105.76566584787228
20
-1.2350782395596491
30
0
10
-108.00531546710059
20
-2.3975843001602253
30
0
10
-110.1988071399556
20
-3.5857276850809674
30
0
10
-112.33267933966651
20
-4.7836477979939254
30
0
10
-114.39309980544367
20
-5.9730217358738962
30
0
10
-116.36543202891579
20
-7.1349398236633368
30
0
10
-118.23384678099046
20
-8.2518055985428003
30
0
10
-119.98055725999707
20
-9.3095912440125641
30
0
10
-121.58664177278715
20
-10.298515072926897
30
0
10
-123.03473934219312
20
-11.212034477239916
30
0
10
-124.31095816648624
20
-12.046297142130848
30
0
10
-125.18841769495168
20
-12.648785733130399
30
0
10
-125.76476787244302
20
-13.063868116377835
30
0
10
-126.1126702950472
20
-13.324244688772129
30
0
10
-126.2775392289584
20
-13.450346734034767
30
0
0
SPLINE
5
111
100
AcDbEntity
8
0
100
AcDbSpline
70
4
71
5
72
39
73
33
74
0
42
0.000000001
43
0.0000000001
44
0.0000000001
40
0.7116499684401757
40
0.7116499684401757
40
0.7116499684401757
40
0.7116499684401757
40
0.7116499684401757
40
0.7116499684401757
40
0.71578947368421075
40
0.72631578947368447
40
0.73684210526315819
40
0.7473684210526319
40
0.75789473684210562
40
0.76842105263157934
40
0.77894736842105305
40
0.78947368421052677
40
0.80000000000000049
40
0.81052631578947421
40
0.82105263157894792
40
0.83157894736842164
40
0.84210526315789536
40
0.85263157894736907
40
0.86315789473684279
40
0.87368421052631651
40
0.88421052631579022
40
0.89473684210526394
40
0.90526315789473766
40
0.91578947368421137
40
0.92631578947368509
40
0.93684210526315881
40
0.94736842105263253
40
0.95789473684210624
40
0.96842105263157996
40
0.97894736842105368
40
0.98947368421052739
40
1
40
1
40
1
40
1
40
1
40
1
41
1
41
1
41
1
41
1
41
1
41
1
41
1
41
1
41
1
41
1
41
1
41
1
41
1
41
1
41
1
41
1
41
1
41
1
41
1
41
1
41
1
41
1
41
1
41
1
41
1
41
1
41
1
41
1
41
1
41
1
41
1
41
1
41
1
10
30.915399188900949
20
1.9413214440802684
30
0
10
31.017530508694875
20
1.90382596886352
30
0
10
31.38536113384227
20
1.7686988247088031
30
0
10
32.056280531585067
20
1.5219700652108212
30
0
10
33.122322651376777
20
1.1314880664377032
30
0
10
34.734973834029212
20
0.54902008216171549
30
0
10
36.858328154577642
20
-0.20156341425853025
30
0
10
39.204312267301049
20
-1.0130395067229292
30
0
10
41.690719739946047
20
-1.8570064544059957
30
0
10
44.244007780613174
20
-2.7141952416215149
30
0
10
46.80611705292069
20
-3.5749154553750047
30
0
10
49.331959718801244
20
-4.4345429244077845
30
0
10
51.789911942418456
20
-5.2907024635453759
30
0
10
54.161182220827719
20
-6.1395616013036687
30
0
10
56.439394270123778
20
-6.9729359999540019
30
0
10
58.630794881654637
20
-7.77394633981441
30
0
10
60.750319546450662
20
-8.5193695688926336
30
0
10
62.816017446486697
20
-9.184609271414935
30
0
10
64.843692554966964
20
-9.7480852737975336
30
0
10
66.842166906772036
20
-10.195284808606761
30
0
10
68.806497671868371
20
-10.524411783262424
30
0
10
70.720061955615904
20
-10.744838605488479
30
0
10
72.563117619721112
20
-10.870286337616449
30
0
10
74.319075198442619
20
-10.913840118259287
30
0
10
75.982553448548174
20
-10.881596842864429
30
0
10
77.564107913050663
20
-10.76876684121347
30
0
10
79.082072700195127
20
-10.565087421141657
30
0
10
80.556848007490075
20
-10.258520763846148
30
0
10
82.002950484852192
20
-9.8404437058334064
30
0
10
83.142330331942702
20
-9.4136030584245471
30
0
10
83.988116760213757
20
-9.0408866061677582
30
0
10
84.548078078625707
20
-8.7690472599274383
30
0
10
84.827085169927855
20
-8.6272868352848491
30
0
0
SPLINE
5
112
100
AcDbEntity
8
0
100
AcDbSpline
70
4
71
5
72
19
73
13
74
0
42
0.000000001
43
0.0000000001
44
0.0000000001
40
0.74046699607898236
40
0.74046699607898236
40
0.74046699607898236
40
0.74046699607898236
40
0.74046699607898236
40
0.74046699607898236
40
0.76666666666666661
40
0.79999999999999993
40
0.83333333333333326
40
0.86666666666666659
40
0.89999999999999991
40
0.93333333333333324
40
0.96666666666666656
40
1
40
1
40
1
40
1
40
1
40
1
41
1
41
1
41
1
41
1
41
1
41
1
41
1
41
1
41
1
41
1
41
1
41
1
41
1
10
18.517777952908649
20
66.016498522145355
30
0
10
18.834834685611
20
65.290584781476582
30
0
10
19.504870250136822
20
63.630650704903566
30
0
10
20.37642804598951
20
61.014021259866894
30
0
10
21.222051281464701
20
57.447329383043417
30
0
10
21.806418260253857
20
53.039378451783236
30
0
10
22.001781636041962
20
48.669233138454899
30
0
10
21.886421520117501
20
44.63035174336936
30
0
10
21.526110526610147
20
40.980040047459518
30
0
10
21.068269554446243
20
38.391707578489516
30
0
10
20.634871006439536
20
36.640483696745449
30
0
10
20.305989672977056
20
35.557294867775646
30
0
10
20.131562531963141
20
35.036774430212446
30
0
0
SPLINE
5
113
100
AcDbEntity
8
0
100
AcDbSpline
70
4
71
5
72
25
73
19
74
0
42
0.000000001
43
0.0000000001
44
0.0000000001
40
0.79550112678800933
40
0.79550112678800933
40
0.79550112678800933
40
0.79550112678800933
40
0.79550112678800933
40
0.79550112678800933
40
0.79999999999999893
40
0.81538461538461426
40
0.83076923076922959
40
0.84615384615384492
40
0.86153846153846025
40
0.87692307692307558
40
0.89230769230769091
40
0.90769230769230624
40
0.92307692307692157
40
0.9384615384615369
40
0.95384615384615223
40
0.96923076923076756
40
0.98461538461538289
40
1
40
1
40
1
40
1
40
1
40
1
41
1
41
1
41
1
41
1
41
1
41
1
41
1
41
1
41
1
41
1
41
1
41
1
41
1
41
1
41
1
41
1
41
1
41
1
41
1
10
20.131562532028056
20
35.036774430144455
30
0
10
20.190710222363435
20
34.974819849255553
30
0
10
20.452509758188882
20
34.699419264177735
30
0
10
20.919927595170847
20
34.198529302376059
30
0
10
21.598818779271927
20
33.447876410808966
30
0
10
22.490556356950879
20
32.416159688888989
30
0
10
23.513894804841197
20
31.156803189341527
30
0
10
24.492932383008604
20
29.860838673661618
30
0
10
25.401575565441981
20
28.548556479240901
30
0
10
26.224961289452629
20
27.234697134490293
30
0
10
26.960651733755352
20
25.927395188080911
30
0
10
27.613532878642882
20
24.630459956667586
30
0
10
28.192548411294108
20
23.344687766317634
30
0
10
28.706629577836608
20
22.069587167875575
30
0
10
29.161136928567512
20
20.804866517197034
30
0
10
29.479276414755343
20
19.801267724193082
30
0
10
29.69273438914869
20
19.053141922391063
30
0
10
29.823867985986823
20
18.556423118427968
30
0
10
29.886641839477086
20
18.308571652619907
30
0
0
SPLINE
5
114
100
AcDbEntity
8
0
100
AcDbSpline
70
4
71
5
72
16
73
10
74
0
42
0.000000001
43
0.0000000001
44
0.0000000001
40
0
40
0
40
0
40
0
40
0
40
0
40
0.20000000000000001
40
0.40000000000000002
40
0.60000000000000009
40
0.80000000000000004
40
1
40
1
40
1
40
1
40
1
40
1
41
1
41
1
41
1
41
1
41
1
41
1
41
1
41
1
41
1
41
1
10
-128.67159354250919
20
-11.83896402299097
30
0
10
-128.91482476081745
20
-12.077289997928879
30
0
10
-129.39831850393514
20
-12.550251945916388
30
0
10
-130.11465678255598
20
-13.248629516466535
30
0
10
-131.050732533879
20
-14.156131001963676
30
0
10
-132.17356431941394
20
-15.231761409047571
30
0
10
-133.01019458115172
20
-16.015654969243393
30
0
10
-133.58558307770596
20
-16.538835955157499
30
0
10
-133.94232257203629
20
-16.854245964079531
30
0
10
-134.11397306547065
20
-17.003599126575608
30
0
0
SPLINE
5
115
100
AcDbEntity
8
0
100
AcDbSpline
70
4
71
5
72
106
73
100
74
0
42
0.000000001
43
0.0000000001
44
0.0000000001
40
0
40
0
40
0
40
0
40
0
40
0
40
0.010526315789473684
40
0.021052631578947368
40
0.031578947368421054
40
0.042105263157894736
40
0.052631578947368418
40
0.063157894736842107
40
0.073684210526315796
40
0.084210526315789486
40
0.094736842105263175
40
0.10526315789473686
40
0.11578947368421055
40
0.12631578947368424
40
0.13684210526315793
40
0.14736842105263162
40
0.15789473684210531
40
0.168421052631579
40
0.17894736842105269
40
0.18947368421052638
40
0.20000000000000007
40
0.21052631578947376
40
0.22105263157894744
40
0.23157894736842113
40
0.24210526315789482
40
0.25263157894736848
40
0.26315789473684215
40
0.27368421052631581
40
0.28421052631578947
40
0.29473684210526313
40
0.30526315789473679
40
0.31578947368421045
40
0.32631578947368411
40
0.33684210526315778
40
0.34736842105263144
40
0.3578947368421051
40
0.36842105263157876
40
0.37894736842105242
40
0.38947368421052608
40
0.39999999999999974
40
0.41052631578947341
40
0.42105263157894707
40
0.43157894736842073
40
0.44210526315789439
40
0.45263157894736805
40
0.46315789473684171
40
0.47368421052631537
40
0.48421052631578904
40
0.4947368421052627
40
0.50526315789473641
40
0.51578947368421013
40
0.52631578947368385
40
0.53684210526315757
40
0.54736842105263128
40
0.557894736842105
40
0.56842105263157872
40
0.57894736842105243
40
0.58947368421052615
40
0.59999999999999987
40
0.61052631578947358
40
0.6210526315789473
40
0.63157894736842102
40
0.64210526315789473
40
0.65263157894736845
40
0.66315789473684217
40
0.67368421052631589
40
0.6842105263157896
40
0.69473684210526332
40
0.70526315789473704
40
0.71578947368421075
40
0.72631578947368447
40
0.73684210526315819
40
0.7473684210526319
40
0.75789473684210562
40
0.76842105263157934
40
0.77894736842105305
40
0.78947368421052677
40
0.80000000000000049
40
0.81052631578947421
40
0.82105263157894792
40
0.83157894736842164
40
0.84210526315789536
40
0.85263157894736907
40
0.86315789473684279
40
0.87368421052631651
40
0.88421052631579022
40
0.89473684210526394
40
0.90526315789473766
40
0.91578947368421137
40
0.92631578947368509
40
0.93684210526315881
40
0.94736842105263253
40
0.95789473684210624
40
0.96842105263157996
40
0.97894736842105368
40
0.98947368421052739
40
1
40
1
40
1
40
1
40
1
40
1
41
1
41
1
41
1
41
1
41
1
41
1
41
1
41
1
41
1
41
1
41
1
41
1
41
1
41
1
41
1
41
1
41
1
41
1
41
1
41
1
41
1
41
1
41
1
41
1
41
1
41
1
41
1
41
1
41
1
41
1
41
1
41
1
41
1
41
1
41
1
41
1
41
1
41
1
41
1
41
1
41
1
41
1
41
1
41
1
41
1
41
1
41
1
41
1
41
1
41
1
41
1
41
1
41
1
41
1
41
1
41
1
41
1
41
1
41
1
41
1
41
1
41
1
41
1
41
1
41
1
41
1
41
1
41
1
41
1
41
1
41
1
41
1
41
1
41
1
41
1
41
1
41
1
41
1
41
1
41
1
41
1
41
1
41
1
41
1
41
1
41
1
41
1
41
1
41
1
41
1
41
1
41
1
41
1
41
1
41
1
41
1
41
1
41
1
41
1
41
1
10
87.441378565485792
20
-9.7842295819983391
30
0
10
87.609231741187571
20
-9.8870377114406907
30
0
10
87.928517187792352
20
-10.10088693758064
30
0
10
88.358480889231146
20
-10.446559915465748
30
0
10
88.909504209160929
20
-11.011285663097162
30
0
10
89.846614126241562
20
-12.099999101849201
30
0
10
91.051036962591837
20
-13.606369042789241
30
0
10
92.315828265412904
20
-15.411001509610037
30
0
10
93.364058007179835
20
-17.337663876052691
30
0
10
93.955044797172008
20
-19.218654511058972
30
0
10
94.038937400657531
20
-20.989367219357007
30
0
10
93.712181194672709
20
-22.667829338867431
30
0
10
93.118286132036374
20
-24.302763797614229
30
0
10
92.361481085960236
20
-25.929621078362644
30
0
10
91.42938961199539
20
-27.529910168257011
30
0
10
90.257459769047784
20
-29.054489467927166
30
0
10
88.775418279063786
20
-30.439409107057791
30
0
10
86.967645355851488
20
-31.626111025981874
30
0
10
84.906456825493962
20
-32.575257380742201
30
0
10
82.70569960402392
20
-33.263354207869853
30
0
10
80.485592172153929
20
-33.682186704934935
30
0
10
78.336735626796411
20
-33.836998869242045
30
0
10
76.275480316037275
20
-33.745650854120193
30
0
10
74.255853392922319
20
-33.434772256632087
30
0
10
72.20545548975592
20
-32.934728426880724
30
0
10
70.051394350517711
20
-32.275277566028521
30
0
10
67.75524584775458
20
-31.480223617188376
30
0
10
65.327784861487345
20
-30.564905514895543
30
0
10
62.807500668950802
20
-29.53906298116117
30
0
10
60.246975633830061
20
-28.408532716011315
30
0
10
57.69580658929884
20
-27.177434139351263
30
0
10
55.185773408609997
20
-25.850086964196567
30
0
10
52.712980462914587
20
-24.433196795683262
30
0
10
50.246735557162253
20
-22.936056606814343
30
0
10
47.741721679713592
20
-21.37053283645951
30
0
10
45.148788240266924
20
-19.751110093301666
30
0
10
42.426782010881553
20
-18.094955440896076
30
0
10
39.552851153802344
20
-16.42187815733681
30
0
10
36.536202979183415
20
-14.754589042543895
30
0
10
33.413392009533929
20
-13.117295911004412
30
0
10
30.237118253446909
20
-11.533717992876593
30
0
10
27.067076734687348
20
-10.025267621229396
30
0
10
23.960163095573815
20
-8.6092130376611369
30
0
10
20.960482815823053
20
-7.296725271975574
30
0
10
18.090545864769467
20
-6.0912543592731954
30
0
10
15.339106806898972
20
-4.9860333029696182
30
0
10
12.666111188100436
20
-3.9659705017829965
30
0
10
10.015171625223012
20
-3.0114767448701296
30
0
10
7.3234216780186143
20
-2.1016057183460695
30
0
10
4.5328830838314307
20
-1.2176164032171812
30
0
10
1.6001858272680705
20
-0.34603382329115939
30
0
10
-1.4904637136228054
20
0.51725709116175866
30
0
10
-4.7286195337617896
20
1.3675144542416342
30
0
10
-8.0860913012864142
20
2.1939477233092255
30
0
10
-11.523244384529933
20
2.9818182874093608
30
0
10
-14.996080261942438
20
3.7147923775371079
30
0
10
-18.463254129998631
20
4.3772715273640728
30
0
10
-21.892470712782593
20
4.9565279241874602
30
0
10
-25.268798503968387
20
5.4454449607289632
30
0
10
-28.593750653143029
20
5.8423436903720933
30
0
10
-31.879675849652767
20
6.1493293581393953
30
0
10
-35.145600512428288
20
6.3710957839549742
30
0
10
-38.412533977229849
20
6.5135619668988376
30
0
10
-41.69886969079073
20
6.5825362931995031
30
0
10
-45.016066163676456
20
6.5824769470986633
30
0
10
-48.363362146772843
20
6.5149291445175095
30
0
10
-51.729446040210689
20
6.3792872303869874
30
0
10
-55.09578675418291
20
6.1741107286107955
30
0
10
-58.439393696285158
20
5.8982547578523814
30
0
10
-61.735804735462104
20
5.5520683017736516
30
0
10
-64.961991702399217
20
5.1385878419463964
30
0
10
-68.09926122360929
20
4.6646794754299208
30
0
10
-71.136270539880528
20
4.1423577421669213
30
0
10
-74.069245691324653
20
3.5860363254440286
30
0
10
-76.90207752189967
20
3.0095398668485105
30
0
10
-79.64642432204019
20
2.4232560731122081
30
0
10
-82.321916927711214
20
1.8311069445210124
30
0
10
-84.9560933732308
20
1.2278744366249232
30
0
10
-87.585076234543777
20
0.59561839048967546
30
0
10
-90.24644487257676
20
-0.090458182367352175
30
0
10
-92.971141587911092
20
-0.85496701235999861
30
0
10
-95.775666736381964
20
-1.7156735865791424
30
0
10
-98.654255971143016
20
-2.6767555985542875
30
0
10
-101.57078103430661
20
-3.721887873950096
30
0
10
-104.45152232159566
20
-4.8079645328354648
30
0
10
-107.20556769229235
20
-5.8799015881932357
30
0
10
-109.74368333502215
20
-6.8841893878164377
30
0
10
-111.9988925658062
20
-7.7839437929547426
30
0
10
-113.9437569295233
20
-8.5709855277713523
30
0
10
-115.6153727412722
20
-9.2849100334731371
30
0
10
-117.11569040077514
20
-10.009614923975809
30
0
10
-118.55694583149615
20
-10.818072240180994
30
0
10
-120.02425289617233
20
-11.734935692271149
30
0
10
-121.51856689461239
20
-12.676132057240618
30
0
10
-122.97252312270697
20
-13.478057430108104
30
0
10
-124.29706292611341
20
-13.964039479914883
30
0
10
-125.19825182577944
20
-13.998680919405187
30
0
10
-125.7761297267439
20
-13.80868565363653
30
0
10
-126.11768060653128
20
-13.585818171874497
30
0
10
-126.2775392289584
20
-13.450346734034767
30
0
0
SPLINE
5
116
100
AcDbEntity
8
0
100
AcDbSpline
70
4
71
5
72
21
73
15
74
0
42
0.000000001
43
0.0000000001
44
0.0000000001
40
0
40
0
40
0
40
0
40
0
40
0
40
0.10000000000000001
40
0.20000000000000001
40
0.30000000000000004
40
0.40000000000000002
40
0.5
40
0.59999999999999998
40
0.69999999999999996
40
0.79999999999999993
40
0.89999999999999991
40
1
40
1
40
1
40
1
40
1
40
1
41
1
41
1
41
1
41
1
41
1
41
1
41
1
41
1
41
1
41
1
41
1
41
1
41
1
41
1
41
1
10
-128.67159354250919
20
-11.83896402299097
30
0
10
-128.35892405403297
20
-11.603780781488327
30
0
10
-127.73022073673721
20
-11.136785292578558
30
0
10
-126.77707391120798
20
-10.446404504870387
30
0
10
-125.48568521960254
20
-9.5464590080992728
30
0
10
-123.83700238980751
20
-8.4584809989755865
30
0
10
-122.156820209785
20
-7.4118542404530752
30
0
10
-120.45482790769498
20
-6.4120698733417623
30
0
10
-118.75081758335212
20
-5.4648646671855481
30
0
10
-117.08106734821138
20
-4.5741982648028392
30
0
10
-115.49257371914354
20
-3.7428897506428265
30
0
10
-114.32497070781946
20
-3.1274687729453605
30
0
10
-113.52484217846346
20
-2.6948981436972979
30
0
10
-113.02740522051488
20
-2.4195863137003375
30
0
10
-112.78768311295048
20
-2.2851976347816505
30
0
0
SPLINE
5
117
100
AcDbEntity
8
0
100
AcDbSpline
70
4
71
5
72
31
73
25
74
0
42
0.000000001
43
0.0000000001
44
0.0000000001
40
0.13025318293879426
40
0.13025318293879426
40
0.13025318293879426
40
0.13025318293879426
40
0.13025318293879426
40
0.13025318293879426
40
0.13684210526315793
40
0.14736842105263162
40
0.15789473684210531
40
0.168421052631579
40
0.17894736842105269
40
0.18947368421052638
40
0.20000000000000007
40
0.21052631578947376
40
0.22105263157894744
40
0.23157894736842113
40
0.24210526315789482
40
0.25263157894736848
40
0.26315789473684215
40
0.27368421052631581
40
0.28421052631578947
40
0.29473684210526313
40
0.30526315789473679
40
0.31578947368421045
40
0.32631578947368411
40
0.33482041362026038
40
0.33482041362026038
40
0.33482041362026038
40
0.33482041362026038
40
0.33482041362026038
40
0.33482041362026038
41
1
41
1
41
1
41
1
41
1
41
1
41
1
41
1
41
1
41
1
41
1
41
1
41
1
41
1
41
1
41
1
41
1
41
1
41
1
41
1
41
1
41
1
41
1
41
1
41
1
10
-108.81867094414076
20
-0.17090754078795414
30
0
10
-108.63851905132907
20
-0.078765339812590485
30
0
10
-108.15734343998132
20
0.16652347294745629
30
0
10
-107.3206910070647
20
0.58939448140890716
30
0
10
-106.01310667398965
20
1.2403771826007222
30
0
10
-104.05444074359964
20
2.187762183385527
30
0
10
-101.59955242634294
20
3.3244093589854513
30
0
10
-98.844248945142141
20
4.5300161577826232
30
0
10
-95.841669810798336
20
5.7541113250650522
30
0
10
-92.649771466306618
20
6.9480829894762177
30
0
10
-89.317368560554172
20
8.0760386040997396
30
0
10
-85.883997161507153
20
9.1154108225891939
30
0
10
-82.384643578668616
20
10.053954100941651
30
0
10
-78.852835436028371
20
10.887931767647636
30
0
10
-75.324527419128955
20
11.619797851572276
30
0
10
-71.841385093914084
20
12.256138184648403
30
0
10
-68.454940028259671
20
12.805418106651871
30
0
10
-65.228949352832743
20
13.276016623081491
30
0
10
-62.24617145895941
20
13.673625154313315
30
0
10
-59.593258806489196
20
14.001764539413177
30
0
10
-57.42374440180896
20
14.253523018255279
30
0
10
-56.011202948811302
20
14.407889777976342
30
0
10
-55.12215799995262
20
14.499721683472286
30
0
10
-54.601361112421465
20
14.550777918980982
30
0
10
-54.377565933473434
20
14.57209292454152
30
0
0
SPLINE
5
118
100
AcDbEntity
8
0
100
AcDbSpline
70
4
71
5
72
42
73
36
74
0
42
0.000000001
43
0.0000000001
44
0.0000000001
40
0.36626738004469889
40
0.36626738004469889
40
0.36626738004469889
40
0.36626738004469889
40
0.36626738004469889
40
0.36626738004469889
40
0.36842105263157876
40
0.37894736842105242
40
0.38947368421052608
40
0.39999999999999974
40
0.41052631578947341
40
0.42105263157894707
40
0.43157894736842073
40
0.44210526315789439
40
0.45263157894736805
40
0.46315789473684171
40
0.47368421052631537
40
0.48421052631578904
40
0.4947368421052627
40
0.50526315789473641
40
0.51578947368421013
40
0.52631578947368385
40
0.53684210526315757
40
0.54736842105263128
40
0.557894736842105
40
0.56842105263157872
40
0.57894736842105243
40
0.58947368421052615
40
0.59999999999999987
40
0.61052631578947358
40
0.6210526315789473
40
0.63157894736842102
40
0.64210526315789473
40
0.65263157894736845
40
0.66315789473684217
40
0.67368421052631589
40
0.68012304483882913
40
0.68012304483882913
40
0.68012304483882913
40
0.68012304483882913
40
0.68012304483882913
40
0.68012304483882913
41
1
41
1
41
1
41
1
41
1
41
1
41
1
41
1
41
1
41
1
41
1
41
1
41
1
41
1
41
1
41
1
41
1
41
1
41
1
41
1
41
1
41
1
41
1
41
1
41
1
41
1
41
1
41
1
41
1
41
1
41
1
41
1
41
1
41
1
41
1
41
1
10
-50.570912419423678
20
14.827307842005835
30
0
10
-50.510465947129561
20
14.829847738400005
30
0
10
-50.150610755450415
20
14.844785886949747
30
0
10
-49.448052879157373
20
14.872060754954738
30
0
10
-48.292790479706589
20
14.913111454073711
30
0
10
-46.498776466584729
20
14.973271449650165
30
0
10
-43.988441274028922
20
15.056163537002137
30
0
10
-41.192981354667282
20
15.147441127040011
30
0
10
-38.226702283904331
20
15.239733866097589
30
0
10
-35.198535388593314
20
15.32179860334432
30
0
10
-32.176033105564066
20
15.378897157171087
30
0
10
-29.184282848511
20
15.394120031348486
30
0
10
-26.220185311657914
20
15.350149052162836
30
0
10
-23.261903142124709
20
15.230891069185546
30
0
10
-20.280166736869294
20
15.023138950134939
30
0
10
-17.249083613032823
20
14.718285386689569
30
0
10
-14.156435409305725
20
14.313870248295572
30
0
10
-11.016114910193116
20
13.815591230825977
30
0
10
-7.8623960348636492
20
13.23562642554753
30
0
10
-4.7407656731212304
20
12.59026879675285
30
0
10
-1.6998811780942991
20
11.8977845027031
30
0
10
1.2167613734540379
20
11.176221176822503
30
0
10
3.9794528501857145
20
10.441141237631859
30
0
10
6.5798011642516849
20
9.7036140108575673
30
0
10
9.0413062404167253
20
8.9674974740399644
30
0
10
11.407916123050066
20
8.2318480181463638
30
0
10
13.727836314768147
20
7.4944320844278911
30
0
10
16.038722151222082
20
6.7549226738252219
30
0
10
18.352854513101594
20
6.0180834443125484
30
0
10
20.640966462725494
20
5.2973039680695084
30
0
10
22.820351760172851
20
4.6170406136972186
30
0
10
24.639549446126679
20
4.0506512866890469
30
0
10
25.87945634977606
20
3.6613059339543614
30
0
10
26.672755085780228
20
3.4081339358573337
30
0
10
27.127117130808781
20
3.2610284643364955
30
0
10
27.294836184290652
20
3.2063875036174694
30
0
0
SPLINE
5
119
100
AcDbEntity
8
0
100
AcDbSpline
70
4
71
5
72
18
73
12
74
0
42
0.000000001
43
0.0000000001
44
0.0000000001
40
0.80337762433029691
40
0.80337762433029691
40
0.80337762433029691
40
0.80337762433029691
40
0.80337762433029691
40
0.80337762433029691
40
0.82857142857142874
40
0.85714285714285732
40
0.8857142857142859
40
0.91428571428571448
40
0.94285714285714306
40
0.97142857142857164
40
1
40
1
40
1
40
1
40
1
40
1
41
1
41
1
41
1
41
1
41
1
41
1
41
1
41
1
41
1
41
1
41
1
41
1
10
-57.039338210685607
20
43.667834881626106
30
0
10
-56.562671712086797
20
43.427972424998266
30
0
10
-55.55010435012094
20
42.899340222081612
30
0
10
-54.018723313607765
20
42.039466932217948
30
0
10
-52.016598802471592
20
40.799817169093522
30
0
10
-49.663097736560069
20
39.167319436062925
30
0
10
-47.487438662849073
20
37.481243011590138
30
0
10
-45.584425336826811
20
35.820981807492103
30
0
10
-44.294028570622274
20
34.528757940386619
30
0
10
-43.45908177430389
20
33.582734154886317
30
0
10
-42.961405312000728
20
32.962313095602426
30
0
10
-42.727306434864254
20
32.654668573881665
30
0
0
SPLINE
5
120
100
AcDbEntity
8
0
100
AcDbSpline
70
4
71
5
72
21
73
15
74
0
42
0.000000001
43
0.0000000001
44
0.0000000001
40
0.49182043030792172
40
0.49182043030792172
40
0.49182043030792172
40
0.49182043030792172
40
0.49182043030792172
40
0.49182043030792172
40
0.51428571428571435
40
0.54285714285714293
40
0.57142857142857151
40
0.60000000000000009
40
0.62857142857142867
40
0.65714285714285725
40
0.68571428571428583
40
0.71428571428571441
40
0.74285714285714299
40
0.75742100547578028
40
0.75742100547578028
40
0.75742100547578028
40
0.75742100547578028
40
0.75742100547578028
40
0.75742100547578028
41
1
41
1
41
1
41
1
41
1
41
1
41
1
41
1
41
1
41
1
41
1
41
1
41
1
41
1
41
1
10
-91.80496804131414
20
46.265934644465602
30
0
10
-91.215708897956503
20
46.424461343238903
30
0
10
-89.871861921390689
20
46.756681544079882
30
0
10
-87.763263393297152
20
47.179587453767226
30
0
10
-84.900281041810956
20
47.572974064920047
30
0
10
-81.359010824070182
20
47.82419924063737
30
0
10
-77.81785071434966
20
47.890428701152246
30
0
10
-74.481723842200452
20
47.818707472890544
30
0
10
-71.359543850569253
20
47.633157274728305
30
0
10
-68.415840013213455
20
47.313313684990639
30
0
10
-65.869784559427544
20
46.86481775481316
30
0
10
-63.925533750360714
20
46.377436584399362
30
0
10
-62.542480109245666
20
45.949389987629665
30
0
10
-61.712255419757618
20
45.662797208958622
30
0
10
-61.432134297346053
20
45.562726001691161
30
0
0
SPLINE
5
121
100
AcDbEntity
8
0
100
AcDbSpline
70
4
71
5
72
18
73
12
74
0
42
0.000000001
43
0.0000000001
44
0.0000000001
40
0
40
0
40
0
40
0
40
0
40
0
40
0.033333333333333333
40
0.066666666666666666
40
0.10000000000000001
40
0.13333333333333333
40
0.16666666666666666
40
0.19999999999999998
40
0.20797247343622138
40
0.20797247343622138
40
0.20797247343622138
40
0.20797247343622138
40
0.20797247343622138
40
0.20797247343622138
41
1
41
1
41
1
41
1
41
1
41
1
41
1
41
1
41
1
41
1
41
1
41
1
10
-61.432134294777597
20
45.56272600077358
30
0
10
-61.377980854743072
20
46.28198893606119
30
0
10
-61.244180019287896
20
47.722377608735812
30
0
10
-60.966998874027169
20
49.888549107796713
30
0
10
-60.444170271764861
20
52.787974309316624
30
0
10
-59.526894175493922
20
56.428533968775305
30
0
10
-58.323380340934207
20
60.077991170639805
30
0
10
-57.024376182650499
20
63.167010106402977
30
0
10
-55.82249320598887
20
65.510966961495114
30
0
10
-54.875992503017549
20
67.116473272740222
30
0
10
-54.314213629774173
20
67.998966206872041
30
0
10
-54.204351173562763
20
68.169062365665141
30
0
0
SPLINE
5
122
100
AcDbEntity
8
0
100
AcDbSpline
70
4
71
5
72
27
73
21
74
0
42
0.000000001
43
0.0000000001
44
0.0000000001
40
0.22757049396412865
40
0.22757049396412865
40
0.22757049396412865
40
0.22757049396412865
40
0.22757049396412865
40
0.22757049396412865
40
0.23333333333333331
40
0.26666666666666666
40
0.29999999999999999
40
0.33333333333333331
40
0.36666666666666664
40
0.39999999999999997
40
0.43333333333333329
40
0.46666666666666662
40
0.49999999999999994
40
0.53333333333333333
40
0.56666666666666665
40
0.59999999999999998
40
0.6333333333333333
40
0.66666666666666663
40
0.69999999999999996
40
0.72241819580803068
40
0.72241819580803068
40
0.72241819580803068
40
0.72241819580803068
40
0.72241819580803068
40
0.72241819580803068
41
1
41
1
41
1
41
1
41
1
41
1
41
1
41
1
41
1
41
1
41
1
41
1
41
1
41
1
41
1
41
1
41
1
41
1
41
1
41
1
41
1
10
-52.764793138256714
20
70.243844953270028
30
0
10
-52.674732722692156
20
70.364825620302653
30
0
10
-52.058213560732021
20
71.184436839925723
30
0
10
-50.845990561522157
20
72.68804977516767
30
0
10
-48.876931208001849
20
74.835765762603856
30
0
10
-45.877694574217223
20
77.535937771549385
30
0
10
-41.647799538539218
20
80.496930464867248
30
0
10
-36.818914102962474
20
83.077659526472175
30
0
10
-31.471860866984471
20
85.164235851200004
30
0
10
-25.723184177103171
20
86.64489592792593
30
0
10
-19.716449494724479
20
87.420777958861237
30
0
10
-13.61418566365284
20
87.416541865384346
30
0
10
-7.5898171919401491
20
86.591562266426678
30
0
10
-1.8196382129506736
20
84.950722197452805
30
0
10
3.5283194091423375
20
82.537469204667389
30
0
10
8.3053956977441867
20
79.427810522454593
30
0
10
12.125857795001362
20
75.966913056663941
30
0
10
14.613047798377842
20
72.929666654929761
30
0
10
16.143042377495583
20
70.595846496578233
30
0
10
16.993560498748359
20
69.098416751510598
30
0
10
17.318524397653043
20
68.49108249122169
30
0
0
SPLINE
5
123
100
AcDbEntity
8
0
100
AcDbSpline
70
4
71
5
72
22
73
16
74
0
42
0.000000001
43
0.0000000001
44
0.0000000001
40
0
40
0
40
0
40
0
40
0
40
0
40
0.015384615384615385
40
0.030769230769230771
40
0.046153846153846156
40
0.061538461538461542
40
0.076923076923076927
40
0.092307692307692313
40
0.1076923076923077
40
0.12307692307692308
40
0.13846153846153847
40
0.15384615384615385
40
0.16013408963985884
40
0.16013408963985884
40
0.16013408963985884
40
0.16013408963985884
40
0.16013408963985884
40
0.16013408963985884
41
1
41
1
41
1
41
1
41
1
41
1
41
1
41
1
41
1
41
1
41
1
41
1
41
1
41
1
41
1
41
1
10
-54.377566282022329
20
14.572092891344553
30
0
10
-54.240164045763933
20
14.848587391400001
30
0
10
-53.957880632788651
20
15.409240651118459
30
0
10
-53.512019526378616
20
16.273211938521406
30
0
10
-52.872641543201624
20
17.47118615754114
30
0
10
-52.000653972629138
20
19.041841319277705
30
0
10
-51.062129752539036
20
20.675224664526006
30
0
10
-50.069900387449294
20
22.34987997450839
30
0
10
-49.044978375470471
20
24.030738399872238
30
0
10
-48.020278869705081
20
25.662955613585932
30
0
10
-47.035037079142086
20
27.181117638293138
30
0
10
-46.232065809562009
20
28.367284599494049
30
0
10
-45.666929342467355
20
29.162919010182279
30
0
10
-45.295195660286453
20
29.664464980689786
30
0
10
-45.086035826922739
20
29.938950619376943
30
0
10
-45.026008806728044
20
30.017061205975878
30
0
0
SPLINE
5
124
100
AcDbEntity
8
0
100
AcDbSpline
70
4
71
5
72
46
73
40
74
0
42
0.000000001
43
0.0000000001
44
0.0000000001
40
0.21070643640484479
40
0.21070643640484479
40
0.21070643640484479
40
0.21070643640484479
40
0.21070643640484479
40
0.21070643640484479
40
0.2153846153846154
40
0.23076923076923078
40
0.24615384615384617
40
0.26153846153846155
40
0.27692307692307694
40
0.29230769230769232
40
0.30769230769230771
40
0.32307692307692309
40
0.33846153846153848
40
0.35384615384615387
40
0.36923076923076925
40
0.38461538461538464
40
0.40000000000000002
40
0.41538461538461541
40
0.43076923076923079
40
0.44615384615384618
40
0.46153846153846156
40
0.47692307692307695
40
0.49230769230769234
40
0.50769230769230766
40
0.52307692307692299
40
0.53846153846153832
40
0.55384615384615365
40
0.56923076923076898
40
0.58461538461538431
40
0.59999999999999964
40
0.61538461538461497
40
0.6307692307692303
40
0.64615384615384563
40
0.66153846153846096
40
0.67692307692307629
40
0.69230769230769162
40
0.70769230769230695
40
0.72307692307692228
40
0.73179572560360462
40
0.73179572560360462
40
0.73179572560360462
40
0.73179572560360462
40
0.73179572560360462
40
0.73179572560360462
41
1
41
1
41
1
41
1
41
1
41
1
41
1
41
1
41
1
41
1
41
1
41
1
41
1
41
1
41
1
41
1
41
1
41
1
41
1
41
1
41
1
41
1
41
1
41
1
41
1
41
1
41
1
41
1
41
1
41
1
41
1
41
1
41
1
41
1
41
1
41
1
41
1
41
1
41
1
41
1
10
-42.727306434601566
20
32.654668574158102
30
0
10
-42.679981151676898
20
32.7044683083612
30
0
10
-42.474674082916941
20
32.920140236736195
30
0
10
-42.093284629583671
20
33.318081379463976
30
0
10
-41.490324780439749
20
33.940826770090375
30
0
10
-40.579511402755458
20
34.860901024726303
30
0
10
-39.32580207941826
20
36.068392876901029
30
0
10
-37.874518044207811
20
37.374684134792425
30
0
10
-36.238348981590995
20
38.727314999243625
30
0
10
-34.442825675331918
20
40.074157609684129
30
0
10
-32.523325897790691
20
41.371926042640183
30
0
10
-30.520436972817965
20
42.584714865283281
30
0
10
-28.47560767706041
20
43.684780482110376
30
0
10
-26.426798381844804
20
44.652400306700883
30
0
10
-24.403880646783733
20
45.476218648440117
30
0
10
-22.424714561150836
20
46.153215208048657
30
0
10
-20.489442267071631
20
46.68931551060146
30
0
10
-18.583157737830195
20
47.097330138864557
30
0
10
-16.682792190083077
20
47.393563649895924
30
0
10
-14.762570216466228
20
47.594903359506233
30
0
10
-12.800251825541519
20
47.715588792362247
30
0
10
-10.782574444668249
20
47.76440497016354
30
0
10
-8.7122626093920221
20
47.740935881781283
30
0
10
-6.6055909690558874
20
47.637673671566674
30
0
10
-4.4874248209938052
20
47.443719749299916
30
0
10
-2.387204868661156
20
47.147863664965108
30
0
10
-0.33437427590875168
20
46.742096116823511
30
0
10
1.6455526662564832
20
46.22453367532831
30
0
10
3.5362022077575443
20
45.60362180698543
30
0
10
5.330618995611224
20
44.897336516180317
30
0
10
7.0279763359739214
20
44.128753550489662
30
0
10
8.6313424481424086
20
43.322695542870804
30
0
10
10.14501354159802
20
42.50192590523347
30
0
10
11.572052785932598
20
41.683569584094244
30
0
10
12.91168869739411
20
40.875338456565302
30
0
10
14.054195904464056
20
40.145896236836911
30
0
10
14.891227076404135
20
39.577417379204874
30
0
10
15.467165852635974
20
39.165171647826078
30
0
10
15.809920908370049
20
38.911254127858378
30
0
10
15.932810974451996
20
38.819051491279822
30
0
0
SPLINE
5
125
100
AcDbEntity
8
0
100
AcDbSpline
70
4
71
5
72
41
73
35
74
0
42
0.000000001
43
0.0000000001
44
0.0000000001
40
0
40
0
40
0
40
0
40
0
40
0
40
0.033333333333333333
40
0.066666666666666666
40
0.10000000000000001
40
0.13333333333333333
40
0.16666666666666666
40
0.19999999999999998
40
0.23333333333333331
40
0.26666666666666666
40
0.29999999999999999
40
0.33333333333333331
40
0.36666666666666664
40
0.39999999999999997
40
0.43333333333333329
40
0.46666666666666662
40
0.49999999999999994
40
0.53333333333333333
40
0.56666666666666665
40
0.59999999999999998
40
0.6333333333333333
40
0.66666666666666663
40
0.69999999999999996
40
0.73333333333333328
40
0.76666666666666661
40
0.79999999999999993
40
0.83333333333333326
40
0.86666666666666659
40
0.89999999999999991
40
0.93333333333333324
40
0.96666666666666656
40
1
40
1
40
1
40
1
40
1
40
1
41
1
41
1
41
1
41
1
41
1
41
1
41
1
41
1
41
1
41
1
41
1
41
1
41
1
41
1
41
1
41
1
41
1
41
1
41
1
41
1
41
1
41
1
41
1
41
1
41
1
41
1
41
1
41
1
41
1
41
1
41
1
41
1
41
1
41
1
41
1
10
89.451678795779159
20
-8.114158988778323
30
0
10
89.585670416170032
20
-7.8141437657827684
30
0
10
89.852867596736573
20
-7.2007385335422889
30
0
10
90.251306361558434
20
-6.2405058220927581
30
0
10
90.777825360819037
20
-4.8798048597805126
30
0
10
91.425384449637775
20
-3.0454423240740631
30
0
10
92.054130666287989
20
-1.0806512253081173
30
0
10
92.647977418166207
20
1.0074518712464322
30
0
10
93.179270286747652
20
3.2055644002910553
30
0
10
93.611770841311056
20
5.4950159611093143
30
0
10
93.90619561212263
20
7.853713419172931
30
0
10
94.025108043490647
20
10.25772381955054
30
0
10
93.937680913754278
20
12.682862696765188
30
0
10
93.625652978610219
20
15.106537933400013
30
0
10
93.084452651112898
20
17.508334584350919
30
0
10
92.320202192860023
20
19.869513221392051
30
0
10
91.348029388645969
20
22.172834853174422
30
0
10
90.189938688994005
20
24.402269330691638
30
0
10
88.873034803045883
20
26.542779624576728
30
0
10
87.427501117331616
20
28.580082293965642
30
0
10
85.881977840506764
20
30.500138893351831
30
0
10
84.259406965674657
20
32.288739883356882
30
0
10
82.572168788561427
20
33.930964621310657
30
0
10
80.818660397597384
20
35.410975856245997
30
0
10
78.976140877201559
20
36.711040609680296
30
0
10
77.011775614754498
20
37.814492692503443
30
0
10
74.900404780994208
20
38.710112658034824
30
0
10
72.641597085729032
20
39.396538588714705
30
0
10
70.274047329286461
20
39.885843635350689
30
0
10
67.899259688380837
20
40.20994114365773
30
0
10
65.664313819139153
20
40.414860910039124
30
0
10
64.108895861249508
20
40.521181519413176
30
0
10
63.127317509836416
20
40.585429441857634
30
0
10
62.562115662491124
20
40.623549153502339
30
0
10
62.301811950407249
20
40.641431327708943
30
0
0
SPLINE
5
126
100
AcDbEntity
8
0
100
AcDbSpline
70
4
71
5
72
35
73
29
74
0
42
0.000000001
43
0.0000000001
44
0.0000000001
40
0.61066687415989385
40
0.61066687415989385
40
0.61066687415989385
40
0.61066687415989385
40
0.61066687415989385
40
0.61066687415989385
40
0.61666666666666692
40
0.63333333333333364
40
0.65000000000000036
40
0.66666666666666707
40
0.68333333333333379
40
0.70000000000000051
40
0.71666666666666723
40
0.73333333333333395
40
0.75000000000000067
40
0.76666666666666738
40
0.7833333333333341
40
0.80000000000000082
40
0.81666666666666754
40
0.83333333333333426
40
0.85000000000000098
40
0.8666666666666677
40
0.88333333333333441
40
0.90000000000000113
40
0.91666666666666785
40
0.93333333333333457
40
0.95000000000000129
40
0.96666666666666801
40
0.98333333333333472
40
1
40
1
40
1
40
1
40
1
40
1
41
1
41
1
41
1
41
1
41
1
41
1
41
1
41
1
41
1
41
1
41
1
41
1
41
1
41
1
41
1
41
1
41
1
41
1
41
1
41
1
41
1
41
1
41
1
41
1
41
1
41
1
41
1
41
1
41
1
10
59.324725943373302
20
40.698826180056138
30
0
10
59.244018408706154
20
40.693399357577185
30
0
10
58.933390466921445
20
40.670762580799718
30
0
10
58.354857935665933
20
40.617150416720982
30
0
10
57.419014097838428
20
40.502739324917947
30
0
10
56.003215448371897
20
40.281816213583184
30
0
10
54.188224054191693
20
39.93400746123649
30
0
10
52.301790264502955
20
39.499354194921928
30
0
10
50.456908377490599
20
38.982854330594982
30
0
10
48.710522436142583
20
38.379956429213948
30
0
10
47.066595003641432
20
37.678955346998855
30
0
10
45.49994389355075
20
36.866968203522759
30
0
10
43.973980199385636
20
35.935032263523198
30
0
10
42.459130953164859
20
34.8828938885922
30
0
10
40.955567365603841
20
33.725657929132439
30
0
10
39.491260943081308
20
32.491166512489244
30
0
10
38.106709850495839
20
31.212525341054352
30
0
10
36.8432876535216
20
29.921855986154604
30
0
10
35.73136068316191
20
28.644203271575172
30
0
10
34.77539133904979
20
27.389746872246601
30
0
10
33.952270753712853
20
26.152978632641744
30
0
10
33.224927120202537
20
24.919836763047041
30
0
10
32.551407268115959
20
23.672490870794526
30
0
10
31.896763524159081
20
22.395567757457997
30
0
10
31.240768800565355
20
21.080256950976079
30
0
10
30.706629464826317
20
19.993716997043453
30
0
10
30.299266697845255
20
19.158890220651632
30
0
10
30.024684453735105
20
18.593486504982032
30
0
10
29.886641839477086
20
18.308571652619907
30
0
0
SPLINE
5
127
100
AcDbEntity
8
0
100
AcDbSpline
70
4
71
5
72
71
73
65
74
0
42
0.000000001
43
0.0000000001
44
0.0000000001
40
0
40
0
40
0
40
0
40
0
40
0
40
0.016666666666666666
40
0.033333333333333333
40
0.050000000000000003
40
0.066666666666666666
40
0.083333333333333329
40
0.099999999999999992
40
0.11666666666666665
40
0.13333333333333333
40
0.14999999999999999
40
0.16666666666666666
40
0.18333333333333332
40
0.19999999999999998
40
0.21666666666666665
40
0.23333333333333331
40
0.24999999999999997
40
0.26666666666666666
40
0.28333333333333333
40
0.29999999999999999
40
0.31666666666666665
40
0.33333333333333331
40
0.34999999999999998
40
0.36666666666666664
40
0.3833333333333333
40
0.39999999999999997
40
0.41666666666666663
40
0.43333333333333329
40
0.44999999999999996
40
0.46666666666666662
40
0.48333333333333328
40
0.49999999999999994
40
0.51666666666666661
40
0.53333333333333333
40
0.55000000000000004
40
0.56666666666666676
40
0.58333333333333348
40
0.6000000000000002
40
0.61666666666666692
40
0.63333333333333364
40
0.65000000000000036
40
0.66666666666666707
40
0.68333333333333379
40
0.70000000000000051
40
0.71666666666666723
40
0.73333333333333395
40
0.75000000000000067
40
0.76666666666666738
40
0.7833333333333341
40
0.80000000000000082
40
0.81666666666666754
40
0.83333333333333426
40
0.85000000000000098
40
0.8666666666666677
40
0.88333333333333441
40
0.90000000000000113
40
0.91666666666666785
40
0.93333333333333457
40
0.95000000000000129
40
0.96666666666666801
40
0.98333333333333472
40
1
40
1
40
1
40
1
40
1
40
1
41
1
41
1
41
1
41
1
41
1
41
1
41
1
41
1
41
1
41
1
41
1
41
1
41
1
41
1
41
1
41
1
41
1
41
1
41
1
41
1
41
1
41
1
41
1
41
1
41
1
41
1
41
1
41
1
41
1
41
1
41
1
41
1
41
1
41
1
41
1
41
1
41
1
41
1
41
1
41
1
41
1
41
1
41
1
41
1
41
1
41
1
41
1
41
1
41
1
41
1
41
1
41
1
41
1
41
1
41
1
41
1
41
1
41
1
41
1
41
1
41
1
41
1
41
1
41
1
41
1
10
-136.9238379663995
20
-19.813464027504473
30
0
10
-137.14177560072
20
-20.0594098620778
30
0
10
-137.58858456495867
20
-20.577820556157384
30
0
10
-138.29159684611807
20
-21.434965251783499
30
0
10
-139.28264635492403
20
-22.755428195764864
30
0
10
-140.53413152738261
20
-24.785334942161022
30
0
10
-141.68726874351916
20
-27.266241765340709
30
0
10
-142.60861248868059
20
-30.195464289756021
30
0
10
-143.15771318932204
20
-33.482905847930176
30
0
10
-143.20550375754857
20
-36.985406420469438
30
0
10
-142.65270980254053
20
-40.528537712756517
30
0
10
-141.44652778966565
20
-43.932408673375399
30
0
10
-139.60239102455836
20
-47.038238168505984
30
0
10
-137.20954360387739
20
-49.726296503323141
30
0
10
-134.40169270001019
20
-51.91295392876534
30
0
10
-131.33508879522287
20
-53.552162700365471
30
0
10
-128.16348172547782
20
-54.635348455867351
30
0
10
-125.01493724316461
20
-55.1918101779384
30
0
10
-121.9664330103307
20
-55.28967636286626
30
0
10
-119.0504177883665
20
-55.019372304534578
30
0
10
-116.26303567453763
20
-54.475453701462939
30
0
10
-113.57183816837987
20
-53.740107177127669
30
0
10
-110.9232839235739
20
-52.86349668941034
30
0
10
-108.25138144437676
20
-51.852915439791332
30
0
10
-105.49017963459271
20
-50.692178575004576
30
0
10
-102.58627426504448
20
-49.356783077618161
30
0
10
-99.509976270887336
20
-47.829371043320506
30
0
10
-96.270329037519872
20
-46.118270104848342
30
0
10
-92.917176535063419
20
-44.26352934550976
30
0
10
-89.522184050966189
20
-42.322081228397145
30
0
10
-86.165114767277913
20
-40.358059642362662
30
0
10
-82.917366775929523
20
-38.430575521955348
30
0
10
-79.828161243578023
20
-36.583691258998144
30
0
10
-76.905937635031393
20
-34.83271663563113
30
0
10
-74.114306894339478
20
-33.161449532586452
30
0
10
-71.391773488236339
20
-31.537180283102995
30
0
10
-68.666131804898086
20
-29.921752660401928
30
0
10
-65.870620634204769
20
-28.283865682677025
30
0
10
-62.960161661146799
20
-26.61162294048075
30
0
10
-59.92516293884939
20
-24.922748095258406
30
0
10
-56.782115208582091
20
-23.252895163849537
30
0
10
-53.566494624573842
20
-21.64631322808588
30
0
10
-50.324736018817504
20
-20.145145397974076
30
0
10
-47.106818927332426
20
-18.780412661039861
30
0
10
-43.958128095664229
20
-17.559529878444554
30
0
10
-40.913620472116278
20
-16.466325676190955
30
0
10
-37.994355396250171
20
-15.472093893362365
30
0
10
-35.202815403973844
20
-14.543944568995538
30
0
10
-32.519853397525694
20
-13.653400966859726
30
0
10
-29.898065780274429
20
-12.786952308808001
30
0
10
-27.267240312341524
20
-11.948082145075913
30
0
10
-24.55394107870271
20
-11.148776869756745
30
0
10
-21.697891423322524
20
-10.403616849247575
30
0
10
-18.668718003796965
20
-9.7231608346404315
30
0
10
-15.485111799169569
20
-9.1067427218621546
30
0
10
-12.201192292939398
20
-8.546625901936272
30
0
10
-8.88927877186714
20
-8.0334269769745408
30
0
10
-5.6232710852809342
20
-7.5614017550394133
30
0
10
-2.4634201347443896
20
-7.1330520672914988
30
0
10
0.56365020881500916
20
-6.7659114535908271
30
0
10
3.4611964156965676
20
-6.4885615940469439
30
0
10
5.6899554237400682
20
-6.3628726517657688
30
0
10
7.320791908550949
20
-6.333872140075222
30
0
10
8.3913953210822783
20
-6.3449982922750277
30
0
10
8.9225423748282306
20
-6.3581765882911823
30
0
0
SPLINE
5
128
100
AcDbEntity
8
0
100
AcDbSpline
70
4
71
5
72
71
73
65
74
0
42
0.000000001
43
0.0000000001
44
0.0000000001
40
0
40
0
40
0
40
0
40
0
40
0
40
0.016666666666666666
40
0.033333333333333333
40
0.050000000000000003
40
0.066666666666666666
40
0.083333333333333329
40
0.099999999999999992
40
0.11666666666666665
40
0.13333333333333333
40
0.14999999999999999
40
0.16666666666666666
40
0.18333333333333332
40
0.19999999999999998
40
0.21666666666666665
40
0.23333333333333331
40
0.24999999999999997
40
0.26666666666666666
40
0.28333333333333333
40
0.29999999999999999
40
0.31666666666666665
40
0.33333333333333331
40
0.34999999999999998
40
0.36666666666666664
40
0.3833333333333333
40
0.39999999999999997
40
0.41666666666666663
40
0.43333333333333329
40
0.44999999999999996
40
0.46666666666666662
40
0.48333333333333328
40
0.49999999999999994
40
0.51666666666666661
40
0.53333333333333333
40
0.55000000000000004
40
0.56666666666666676
40
0.58333333333333348
40
0.6000000000000002
40
0.61666666666666692
40
0.63333333333333364
40
0.65000000000000036
40
0.66666666666666707
40
0.68333333333333379
40
0.70000000000000051
40
0.71666666666666723
40
0.73333333333333395
40
0.75000000000000067
40
0.76666666666666738
40
0.7833333333333341
40
0.80000000000000082
40
0.81666666666666754
40
0.83333333333333426
40
0.85000000000000098
40
0.8666666666666677
40
0.88333333333333441
40
0.90000000000000113
40
0.91666666666666785
40
0.93333333333333457
40
0.95000000000000129
40
0.96666666666666801
40
0.98333333333333472
40
1
40
1
40
1
40
1
40
1
40
1
41
1
41
1
41
1
41
1
41
1
41
1
41
1
41
1
41
1
41
1
41
1
41
1
41
1
41
1
41
1
41
1
41
1
41
1
41
1
41
1
41
1
41
1
41
1
41
1
41
1
41
1
41
1
41
1
41
1
41
1
41
1
41
1
41
1
41
1
41
1
41
1
41
1
41
1
41
1
41
1
41
1
41
1
41
1
41
1
41
1
41
1
41
1
41
1
41
1
41
1
41
1
41
1
41
1
41
1
41
1
41
1
41
1
41
1
41
1
41
1
41
1
41
1
41
1
41
1
41
1
10
89.451678795779159
20
-8.114158988778323
30
0
10
89.640392445979813
20
-8.2774891026340782
30
0
10
90.024610603352627
20
-8.6180429340085105
30
0
10
90.621309062332003
20
-9.170554711104689
30
0
10
91.457679599464569
20
-9.9906349410169888
30
0
10
92.56440281943577
20
-11.155073562486686
30
0
10
93.712327390548907
20
-12.459462524470675
30
0
10
94.860775220757148
20
-13.90480525045575
30
0
10
95.942846562190937
20
-15.492345520399986
30
0
10
96.879447441238412
20
-17.220432932369764
30
0
10
97.592331585133337
20
-19.081457600468163
30
0
10
98.016845101006226
20
-21.058993895256094
30
0
10
98.116383513179599
20
-23.12425987608335
30
0
10
97.891361745971949
20
-25.234622965636468
30
0
10
97.36657531354021
20
-27.340115275193838
30
0
10
96.581993737711826
20
-29.388660734620984
30
0
10
95.582101937462141
20
-31.331897924358671
30
0
10
94.406217082709887
20
-33.130525542727781
30
0
10
93.077478807294597
20
-34.76047840184664
30
0
10
91.606914999240786
20
-36.209112179948811
30
0
10
89.998675327392746
20
-37.470661834779108
30
0
10
88.255018650996362
20
-38.541747905347862
30
0
10
86.380982011450328
20
-39.417393085769106
30
0
10
84.390255826796349
20
-40.085494834878517
30
0
10
82.304363161869034
20
-40.529620237576758
30
0
10
80.14924995790247
20
-40.734903742836117
30
0
10
77.952661844882343
20
-40.693203272077348
30
0
10
75.741348136253947
20
-40.407989622570291
30
0
10
73.53798005217547
20
-39.900796594491453
30
0
10
71.35941254609773
20
-39.212175001139833
30
0
10
69.217580076170862
20
-38.392126394602528
30
0
10
67.11980150051518
20
-37.493057425279709
30
0
10
65.069305726174321
20
-36.561356125648658
30
0
10
63.065670792876119
20
-35.630423396860628
30
0
10
61.105250429134863
20
-34.710857920140235
30
0
10
59.181804159662462
20
-33.792759339028066
30
0
10
57.287244897135601
20
-32.854395340668894
30
0
10
55.412359684961473
20
-31.869008212029382
30
0
10
53.547506368453611
20
-30.812086511875989
30
0
10
51.683395909415111
20
-29.669134674673764
30
0
10
49.811601444108511
20
-28.441116542869928
30
0
10
47.923867002280367
20
-27.139439780637549
30
0
10
46.011633499518354
20
-25.782565705375696
30
0
10
44.065394894787516
20
-24.391873147715657
30
0
10
42.074319947188918
20
-22.988138816916816
30
0
10
40.025285392373235
20
-21.587049637453898
30
0
10
37.903798019775657
20
-20.197572874282791
30
0
10
35.697998332445401
20
-18.824951781900626
30
0
10
33.402018118146238
20
-17.472662829521134
30
0
10
31.019486963563491
20
-16.144728698093225
30
0
10
28.567271881990443
20
-14.848009985961442
30
0
10
26.078485936817884
20
-13.594201604411149
30
0
10
23.607545249277084
20
-12.402765177418303
30
0
10
21.222476557127003
20
-11.297872063281012
30
0
10
18.993261826593525
20
-10.303478439746845
30
0
10
16.982011109857172
20
-9.4392540640137952
30
0
10
15.231268852364014
20
-8.715644946594276
30
0
10
13.75562390377571
20
-8.1304582644384453
30
0
10
12.525509801309626
20
-7.6618440724254882
30
0
10
11.486652671603398
20
-7.2780335926091499
30
0
10
10.578851965275891
20
-6.9475083587759805
30
0
10
9.9417315056020623
20
-6.7176956245091803
30
0
10
9.4488465238346429
20
-6.5426212758101592
30
0
10
9.101173468726568
20
-6.4205547513221024
30
0
10
8.9225423748282306
20
-6.3581765882911823
30
0
0
SPLINE
5
129
100
AcDbEntity
8
0
100
AcDbSpline
70
4
71
5
72
20
73
14
74
0
42
0.000000001
43
0.0000000001
44
0.0000000001
40
0
40
0
40
0
40
0
40
0
40
0
40
0.028571428571428571
40
0.057142857142857141
40
0.085714285714285715
40
0.11428571428571428
40
0.14285714285714285
40
0.17142857142857143
40
0.20000000000000001
40
0.22857142857142859
40
0.23845003353560132
40
0.23845003353560132
40
0.23845003353560132
40
0.23845003353560132
40
0.23845003353560132
40
0.23845003353560132
41
1
41
1
41
1
41
1
41
1
41
1
41
1
41
1
41
1
41
1
41
1
41
1
41
1
41
1
10
-112.78768311295048
20
-2.2851976347816505
30
0
10
-113.07174368314001
20
-1.7958518585069809
30
0
10
-113.61355762246072
20
-0.80133940506205381
30
0
10
-114.34735745948782
20
0.73789212127796866
30
0
10
-115.16770060422046
20
2.8852515287933471
30
0
10
-115.92709618343427
20
5.7269849187086832
30
0
10
-116.41467206961821
20
8.7222956056702117
30
0
10
-116.62060076825858
20
11.862322990728153
30
0
10
-116.52960525494038
20
15.131275047846371
30
0
10
-116.17476418202781
20
18.063453360356721
30
0
10
-115.71175587096577
20
20.360784507574884
30
0
10
-115.2894001226274
20
21.981723638605935
30
0
10
-115.01421508463264
20
22.912958720027529
30
0
10
-114.94133254959249
20
23.152262033564153
30
0
0
SPLINE
5
130
100
AcDbEntity
8
0
100
AcDbSpline
70
4
71
5
72
19
73
13
74
0
42
0.000000001
43
0.0000000001
44
0.0000000001
40
0.27466708485017022
40
0.27466708485017022
40
0.27466708485017022
40
0.27466708485017022
40
0.27466708485017022
40
0.27466708485017022
40
0.28571428571428575
40
0.31428571428571433
40
0.34285714285714292
40
0.3714285714285715
40
0.40000000000000008
40
0.42857142857142866
40
0.45714285714285724
40
0.47034844688171273
40
0.47034844688171273
40
0.47034844688171273
40
0.47034844688171273
40
0.47034844688171273
40
0.47034844688171273
41
1
41
1
41
1
41
1
41
1
41
1
41
1
41
1
41
1
41
1
41
1
41
1
41
1
10
-113.30709603182996
20
27.526474241283736
30
0
10
-113.18894926875821
20
27.791318046421239
30
0
10
-112.75503617330601
20
28.73930580281899
30
0
10
-111.94507233844939
20
30.358245700503872
30
0
10
-110.64057196340103
20
32.611354377119227
30
0
10
-108.66702306135275
20
35.401573575660592
30
0
10
-106.04929029413654
20
38.325329852442003
30
0
10
-103.08963836888688
20
40.913473990768559
30
0
10
-100.17851985194049
20
42.865895713264166
30
0
10
-97.770883669551253
20
44.116220727056437
30
0
10
-96.000513165438846
20
44.86963080508535
30
0
10
-94.932890699735481
20
45.270410780852608
30
0
10
-94.593930670253954
20
45.392489420038643
30
0
0
SPLINE
5
131
100
AcDbEntity
8
0
100
AcDbSpline
70
4
71
5
72
116
73
110
74
0
42
0.000000001
43
0.0000000001
44
0.0000000001
40
0
40
0
40
0
40
0
40
0
40
0
40
0.0095238095238095247
40
0.019047619047619049
40
0.028571428571428574
40
0.038095238095238099
40
0.047619047619047623
40
0.057142857142857148
40
0.06666666666666668
40
0.076190476190476197
40
0.085714285714285715
40
0.095238095238095233
40
0.10476190476190475
40
0.11428571428571427
40
0.12380952380952379
40
0.1333333333333333
40
0.14285714285714282
40
0.15238095238095234
40
0.16190476190476186
40
0.17142857142857137
40
0.18095238095238089
40
0.19047619047619041
40
0.19999999999999993
40
0.20952380952380945
40
0.21904761904761896
40
0.22857142857142848
40
0.238095238095238
40
0.24761904761904752
40
0.25714285714285706
40
0.26666666666666661
40
0.27619047619047615
40
0.2857142857142857
40
0.29523809523809524
40
0.30476190476190479
40
0.31428571428571433
40
0.32380952380952388
40
0.33333333333333343
40
0.34285714285714297
40
0.35238095238095252
40
0.36190476190476206
40
0.37142857142857161
40
0.38095238095238115
40
0.3904761904761907
40
0.40000000000000024
40
0.40952380952380979
40
0.41904761904761934
40
0.42857142857142888
40
0.43809523809523843
40
0.44761904761904797
40
0.45714285714285752
40
0.46666666666666706
40
0.47619047619047661
40
0.48571428571428615
40
0.4952380952380957
40
0.50476190476190519
40
0.51428571428571468
40
0.52380952380952417
40
0.53333333333333366
40
0.54285714285714315
40
0.55238095238095264
40
0.56190476190476213
40
0.57142857142857162
40
0.58095238095238111
40
0.5904761904761906
40
0.60000000000000009
40
0.60952380952380958
40
0.61904761904761907
40
0.62857142857142856
40
0.63809523809523805
40
0.64761904761904754
40
0.65714285714285703
40
0.66666666666666652
40
0.67619047619047601
40
0.6857142857142855
40
0.69523809523809499
40
0.70476190476190448
40
0.71428571428571397
40
0.72380952380952346
40
0.73333333333333295
40
0.74285714285714244
40
0.75238095238095193
40
0.76190476190476142
40
0.77142857142857091
40
0.7809523809523804
40
0.79047619047618989
40
0.79999999999999938
40
0.80952380952380887
40
0.81904761904761836
40
0.82857142857142785
40
0.83809523809523734
40
0.84761904761904683
40
0.85714285714285632
40
0.86666666666666581
40
0.8761904761904753
40
0.88571428571428479
40
0.89523809523809428
40
0.90476190476190377
40
0.91428571428571326
40
0.92380952380952275
40
0.93333333333333224
40
0.94285714285714173
40
0.95238095238095122
40
0.96190476190476071
40
0.9714285714285702
40
0.98095238095237969
40
0.99047619047618918
40
1
40
1
40
1
40
1
40
1
40
1
41
1
41
1
41
1
41
1
41
1
41
1
41
1
41
1
41
1
41
1
41
1
41
1
41
1
41
1
41
1
41
1
41
1
41
1
41
1
41
1
41
1
41
1
41
1
41
1
41
1
41
1
41
1
41
1
41
1
41
1
41
1
41
1
41
1
41
1
41
1
41
1
41
1
41
1
41
1
41
1
41
1
41
1
41
1
41
1
41
1
41
1
41
1
41
1
41
1
41
1
41
1
41
1
41
1
41
1
41
1
41
1
41
1
41
1
41
1
41
1
41
1
41
1
41
1
41
1
41
1
41
1
41
1
41
1
41
1
41
1
41
1
41
1
41
1
41
1
41
1
41
1
41
1
41
1
41
1
41
1
41
1
41
1
41
1
41
1
41
1
41
1
41
1
41
1
41
1
41
1
41
1
41
1
41
1
41
1
41
1
41
1
41
1
41
1
41
1
41
1
41
1
41
1
41
1
41
1
41
1
41
1
41
1
41
1
41
1
41
1
10
3.8172785350482199
20
-4.3627832880644455
30
0
10
3.4159768274107769
20
-4.1931772049814855
30
0
10
2.5874777380437686
20
-3.8553426637879635
30
0
10
1.2670410319220424
20
-3.3527234432827928
30
0
10
-0.64893123001206998
20
-2.6908333433865543
30
0
10
-3.2994046777446551
20
-1.8782175559082428
30
0
10
-6.1945598013276912
20
-1.0832788411102072
30
0
10
-9.3128653106909152
20
-0.31178901602914361
30
0
10
-12.61760626478404
20
0.42645794174393964
30
0
10
-16.055764333203115
20
1.1173727299122502
30
0
10
-19.566962345697476
20
1.7450153363000047
30
0
10
-23.090513573339063
20
2.2935287193251361
30
0
10
-26.573454541892019
20
2.7493365015890636
30
0
10
-29.977618068090376
20
3.1030857366287119
30
0
10
-33.288432620327725
20
3.3520462317002879
30
0
10
-36.518887426309057
20
3.5012348822605217
30
0
10
-39.697934494170923
20
3.5604501626680096
30
0
10
-42.861755642134
20
3.5420473700070456
30
0
10
-46.043436117618782
20
3.4583264375309213
30
0
10
-49.264405506593462
20
3.3193114544916247
30
0
10
-52.522361003712668
20
3.1297892759303747
30
0
10
-55.794782858315386
20
2.8895917633590367
30
0
10
-59.050223116042027
20
2.5954930770029865
30
0
10
-62.257213244077654
20
2.2426079482598609
30
0
10
-65.394036145365178
20
1.8259791899045226
30
0
10
-68.458419967037884
20
1.3421230310246401
30
0
10
-71.47645355373723
20
0.7904804693018388
30
0
10
-74.491346891632759
20
0.17200128171060203
30
0
10
-77.553348307328235
20
-0.5120830864092214
30
0
10
-80.708798201256485
20
-1.2616641147035288
30
0
10
-83.990535498257003
20
-2.0788427063889685
30
0
10
-87.405248441465886
20
-2.9697617834130421
30
0
10
-90.933347675951779
20
-3.9433443784559152
30
0
10
-94.537219437242442
20
-5.0079218585281495
30
0
10
-98.166930988062191
20
-6.1685554800218787
30
0
10
-101.76707171149562
20
-7.4239269519918869
30
0
10
-105.28288748100275
20
-8.7637410248481089
30
0
10
-108.66723418820379
20
-10.165107965564353
30
0
10
-111.88559105375155
20
-11.591829913685167
30
0
10
-114.91440545426848
20
-13.004551761682098
30
0
10
-117.74043215304553
20
-14.368886729398632
30
0
10
-120.35980151409356
20
-15.664983213407131
30
0
10
-122.77695348208594
20
-16.895000557939756
30
0
10
-125.00427213656954
20
-18.095185385445557
30
0
10
-127.05872849215476
20
-19.33044848459047
30
0
10
-128.95574303838509
20
-20.673340777835278
30
0
10
-130.70413209948549
20
-22.188652642027883
30
0
10
-132.29993671005198
20
-23.912958020931256
30
0
10
-133.72286436932271
20
-25.845211458581016
30
0
10
-134.93834361133634
20
-27.962357845004796
30
0
10
-135.89879423466607
20
-30.229506738524819
30
0
10
-136.54452953586272
20
-32.613535391313363
30
0
10
-136.80676317132597
20
-35.091476720161921
30
0
10
-136.62210545248098
20
-37.636927687220499
30
0
10
-135.94606480606464
20
-40.208516182090207
30
0
10
-134.76597323539858
20
-42.738796551138662
30
0
10
-133.1167031554543
20
-45.119757368773882
30
0
10
-131.06907744238188
20
-47.22286896633107
30
0
10
-128.71387258380292
20
-48.92485381692606
30
0
10
-126.1474876659917
20
-50.131117966515802
30
0
10
-123.45668877158646
20
-50.800920406829988
30
0
10
-120.70439658819691
20
-50.969774455351342
30
0
10
-117.93265442517047
20
-50.721756402096389
30
0
10
-115.16487973497581
20
-50.162996223011227
30
0
10
-112.40849378237476
20
-49.396333586703761
30
0
10
-109.6570902051763
20
-48.491745199522668
30
0
10
-106.89372532880442
20
-47.470594920828113
30
0
10
-104.09695874050499
20
-46.325799591477534
30
0
10
-101.24638650328463
20
-45.035174623608221
30
0
10
-98.328347764453184
20
-43.577417378212964
30
0
10
-95.341624159788992
20
-41.947093622215391
30
0
10
-92.302972631675729
20
-40.169694827203443
30
0
10
-89.24066184767608
20
-38.291554903172866
30
0
10
-86.188198667270143
20
-36.370250503183009
30
0
10
-83.178025447652985
20
-34.464879900773255
30
0
10
-80.235144548009899
20
-32.626270520913621
30
0
10
-77.370972301580437
20
-30.887510217550197
30
0
10
-74.576541279472394
20
-29.253528837534446
30
0
10
-71.828115066793387
20
-27.708815754628716
30
0
10
-69.093449549978217
20
-26.226053951638463
30
0
10
-66.33798211670711
20
-24.774716432697424
30
0
10
-63.530666318317245
20
-23.328986864620269
30
0
10
-60.650890501105366
20
-21.877647065119589
30
0
10
-57.691627007883199
20
-20.427150656875988
30
0
10
-54.656970173515845
20
-18.994398411905713
30
0
10
-51.560965654174964
20
-17.602093571212542
30
0
10
-48.426049144883933
20
-16.272825645715081
30
0
10
-45.281369880016477
20
-15.024240456496141
30
0
10
-42.161894831125572
20
-13.862371704826518
30
0
10
-39.103556522983638
20
-12.782681091074416
30
0
10
-36.13648434662305
20
-11.774965079409087
30
0
10
-33.278546549778241
20
-10.827136069286054
30
0
10
-30.529390346273352
20
-9.9292904651807632
30
0
10
-27.862754586069165
20
-9.0780766362376681
30
0
10
-25.223982126095809
20
-8.2796707798456275
30
0
10
-22.551717294568338
20
-7.5455841426344765
30
0
10
-19.797433007965072
20
-6.8893471070018037
30
0
10
-16.943680637967326
20
-6.32302666674991
30
0
10
-14.027927609815407
20
-5.853404585648927
30
0
10
-11.147898797358103
20
-5.4796317440143998
30
0
10
-8.4228191694972256
20
-5.1948147682518186
30
0
10
-5.9608674105307058
20
-4.9867436248907868
30
0
10
-3.8291544383008951
20
-4.8391426708991707
30
0
10
-2.0103321701433563
20
-4.7322432055157702
30
0
10
-0.41888527302735129
20
-4.6455341912748986
30
0
10
1.0472674812489096
20
-4.5613240300501703
30
0
10
2.1742791939297756
20
-4.4875222991445343
30
0
10
3.0023227807025483
20
-4.4271282729977237
30
0
10
3.5468788962355555
20
-4.3846073272715627
30
0
10
3.8172785350482199
20
-4.3627832880644455
30
0
0
ENDSEC
0
SECTION
2
OBJECTS
0
DICTIONARY
5
C
100
AcDbDictionary
3
ACAD_GROUP
350
D
3
ACAD_MLINESTYLE
350
17
0
DICTIONARY
5
D
100
AcDbDictionary
0
DICTIONARY
5
1A
330
C
100
AcDbDictionary
0
DICTIONARY
5
17
100
AcDbDictionary
0
ENDSEC
0
EOF
