  0
SECTION
  2
HEADER
  9
$ACADVER
  1
AC1009
  9
$EXTMAX
 10
435.246826171875
 20
34.6306266784668
 30
0.0
  9
$EXTMIN
 10
0.5903801321983
 20
-7.1786818504334
 30
0.0
  9
$INSUNITS
 70
     4
  9
$LUNITS
 70
     2
  9
$LUPREC
 70
     4
  9
$MEASUREMENT
 70
     1
  0
ENDSEC
  0
SECTION
  2
TABLES
  0
TABLE
  2
LAYER
 70
     1
  0
LAYER
  2
0
 70
     0
 62
     7
  6
Continuous
  0
LAYER
  2
Standard
 70
     0
 62
    70
  6
Continuous
  0
ENDTAB
  0
TABLE
  2
APPID
 70
     1
  0
APPID
  2
ACAD
 70
     0
  0
ENDTAB
  0
ENDSEC
  0
SECTION
  2
ENTITIES
  0
POLYLINE
  8
Standard
 66
     1
 10
0.0
 20
0.0
 30
0.0
 70
     1
  0
VERTEX
  8
Standard
 10
9.5154604446397
 20
9.7138964854979
 42
-0.0401230207533
  0
VERTEX
  8
Standard
 10
4.3242442106857
 20
4.2514186021227
 42
-0.1805636137606
  0
VERTEX
  8
Standard
 10
2.3260073196397
 20
3.3506152354979
 42
-0.4878547950262
  0
VERTEX
  8
Standard
 10
0.6385073196397
 20
5.4775683604979
 42
-0.0556661014785
  0
VERTEX
  8
Standard
 10
1.0
 20
6.0
 42
0.0026166166577
  0
VERTEX
  8
Standard
 10
14.4373354446397
 20
20.1553027354979
 42
-0.0169801018768
  0
VERTEX
  8
Standard
 10
22.1892885696397
 20
28.6103808604979
 42
-0.3189492725044
  0
VERTEX
  8
Standard
 10
25.4742053779315
 20
29.6724706628743
 42
-0.5419705162645
  0
VERTEX
  8
Standard
 10
26.2498354446397
 20
27.8545214854979
 42
-0.0569391010112
  0
VERTEX
  8
Standard
 10
25.7576479446397
 20
26.7470996104979
 42
0.0299609870863
  0
VERTEX
  8
Standard
 10
26.0740541946397
 20
12.8603808604979
 42
0.1518827900664
  0
VERTEX
  8
Standard
 10
28.093087089609
 20
6.3751632104417
 42
-0.434094054582
  0
VERTEX
  8
Standard
 10
27.0584291946397
 20
3.2803027354979
 42
-0.5169669516722
  0
VERTEX
  8
Standard
 10
22.9803041946397
 20
4.1592089854979
 42
-0.0779672387756
  0
VERTEX
  8
Standard
 10
21.6181899808139
 20
10.6914229355209
 42
-0.0596906980893
  0
VERTEX
  8
Standard
 10
21.6443666946397
 20
11.4541308604979
 42
0.615531602268
  0
VERTEX
  8
Standard
 10
21.5740541946397
 20
11.5244433604979
 42
0.0380376611833
  0
VERTEX
  8
Standard
 10
11.4138979446397
 20
9.5556933604979
 42
-0.3091102880425
  0
SEQEND
  0
POLYLINE
  8
Standard
 66
     1
 10
0.0
 20
0.0
 30
0.0
 70
     1
  0
VERTEX
  8
Standard
 10
21.4685854446397
 20
15.0928027354979
 42
0.0130937352456
  0
VERTEX
  8
Standard
 10
21.4685854446397
 20
23.2138964854979
 42
0.0
  0
VERTEX
  8
Standard
 10
13.2596010696397
 20
13.7217089854979
 42
0.0030468772881
  0
SEQEND
  0
POLYLINE
  8
Standard
 66
     1
 10
0.0
 20
0.0
 30
0.0
 70
     1
  0
VERTEX
  8
Standard
 10
46.9568666946397
 20
33.7959277354979
 42
-0.6244333707719
  0
VERTEX
  8
Standard
 10
48.1521791946397
 20
31.7217089854979
 42
-0.0445369433458
  0
VERTEX
  8
Standard
 10
47.1853823196397
 20
29.6650683604979
 42
0.0633312893017
  0
VERTEX
  8
Standard
 10
37.8338198196397
 20
11.5595996104979
 42
0.0111633009797
  0
VERTEX
  8
Standard
 10
36.0935854446397
 20
5.2138964854979
 42
-0.2987160101437
  0
VERTEX
  8
Standard
 10
32.7713198196397
 20
2.6474902354979
 42
-0.4496653278554
  0
VERTEX
  8
Standard
 10
31.4002260696397
 20
3.8252246104979
 42
-0.1040285005936
  0
VERTEX
  8
Standard
 10
32.2791323196397
 20
7.8681933604979
 42
-0.0442335334895
  0
VERTEX
  8
Standard
 10
42.7567313889671
 20
29.9367306211723
 42
-0.1238230399295
  0
VERTEX
  8
Standard
 10
45.532932914987
 20
33.2789836223894
 42
-0.1690768080178
  0
SEQEND
  0
POLYLINE
  8
Standard
 66
     1
 10
0.0
 20
0.0
 30
0.0
 70
     1
  0
VERTEX
  8
Standard
 10
57.1873354446397
 20
33.7959277354979
 42
-0.6244333707718
  0
VERTEX
  8
Standard
 10
58.3826479446397
 20
31.7217089854979
 42
-0.0445369433458
  0
VERTEX
  8
Standard
 10
57.4158510696397
 20
29.6650683604979
 42
0.0633312893017
  0
VERTEX
  8
Standard
 10
48.0642885696397
 20
11.5595996104979
 42
0.0111633009797
  0
VERTEX
  8
Standard
 10
46.3240541946397
 20
5.2138964854979
 42
-0.2987160101437
  0
VERTEX
  8
Standard
 10
43.0017885696397
 20
2.6474902354979
 42
-0.4496653278555
  0
VERTEX
  8
Standard
 10
41.6306948196397
 20
3.8252246104979
 42
-0.1040285005936
  0
VERTEX
  8
Standard
 10
42.5096010696397
 20
7.8681933604979
 42
-0.0442335334895
  0
VERTEX
  8
Standard
 10
52.9872001389671
 20
29.9367306211723
 42
-0.1238230399295
  0
VERTEX
  8
Standard
 10
55.763401664987
 20
33.2789836223894
 42
-0.1690768080178
  0
SEQEND
  0
POLYLINE
  8
Standard
 66
     1
 10
0.0
 20
0.0
 30
0.0
 70
     1
  0
VERTEX
  8
Standard
 10
68.6482729446397
 20
10.0830371104979
 42
-0.137960384746
  0
VERTEX
  8
Standard
 10
66.0527246440224
 20
7.0868069779866
 42
-0.1744347948248
  0
VERTEX
  8
Standard
 10
56.2908510696397
 20
3.1748339854979
 42
-0.5137403007354
  0
VERTEX
  8
Standard
 10
51.7450597092087
 20
7.6557119925608
 42
-0.1374546605222
  0
VERTEX
  8
Standard
 10
55.0121324149694
 20
15.3104888756376
 42
-0.0989616574109
  0
VERTEX
  8
Standard
 10
63.006334833909
 20
22.4017220835664
 42
-0.1239978780765
  0
VERTEX
  8
Standard
 10
67.8221010696397
 20
23.7939746104979
 42
-0.4535549159478
  0
VERTEX
  8
Standard
 10
71.004175760394
 20
21.082915623689
 42
-0.1959435989166
  0
VERTEX
  8
Standard
 10
68.7424082860728
 20
16.2813663905744
 42
-0.1565493596527
  0
VERTEX
  8
Standard
 10
57.0115541946397
 20
9.9248339854979
 42
0.5341400391483
  0
VERTEX
  8
Standard
 10
56.4666323196397
 20
7.6748339854979
 42
0.259319357029
  0
VERTEX
  8
Standard
 10
58.2068666946397
 20
6.9189746104979
 42
0.1327333899746
  0
VERTEX
  8
Standard
 10
63.6244792772717
 20
8.6356496543229
 42
-0.0056131369531
  0
VERTEX
  8
Standard
 10
67.1793406113179
 20
11.0264263997938
 42
-0.2224073362544
  0
VERTEX
  8
Standard
 10
68.4192720586204
 20
11.1932634748586
 42
-0.4066336072412
  0
SEQEND
  0
POLYLINE
  8
Standard
 66
     1
 10
0.0
 20
0.0
 30
0.0
 70
     1
  0
VERTEX
  8
Standard
 10
57.9256166946397
 20
13.1943652354979
 42
0.1280896362058
  0
VERTEX
  8
Standard
 10
65.4610962766925
 20
16.9816773645837
 42
0.1186245994064
  0
VERTEX
  8
Standard
 10
66.8553041946397
 20
18.8545214854979
 42
0.571203222838
  0
VERTEX
  8
Standard
 10
66.1697573196397
 20
20.2256152354979
 42
0.1337664899894
  0
VERTEX
  8
Standard
 10
62.0037416946397
 20
17.9756152354979
 42
0.0845996873398
  0
SEQEND
  0
POLYLINE
  8
Standard
 66
     1
 10
0.0
 20
0.0
 30
0.0
 70
     1
  0
VERTEX
  8
Standard
 10
79.3181948196397
 20
8.5010058604979
 42
0.2859539212141
  0
VERTEX
  8
Standard
 10
78.1528906284097
 20
10.1634424039586
 42
-0.0672925982604
  0
VERTEX
  8
Standard
 10
74.1850215105655
 20
12.8630766462372
 42
-0.3230278567949
  0
VERTEX
  8
Standard
 10
73.3943666946397
 20
16.5517871104979
 42
-0.1838467928751
  0
VERTEX
  8
Standard
 10
78.7381166946397
 20
21.9834277354979
 42
-0.1181155527713
  0
VERTEX
  8
Standard
 10
86.0506166946397
 20
24.3213183604979
 42
-0.1519933445598
  0
VERTEX
  8
Standard
 10
87.8077291244505
 20
23.9104101402451
 42
-0.4560263687458
  0
VERTEX
  8
Standard
 10
87.0349916946397
 20
20.5068652354979
 42
-0.1198260509919
  0
VERTEX
  8
Standard
 10
85.6990541946397
 20
19.9619433604979
 42
0.2752102224406
  0
VERTEX
  8
Standard
 10
82.471413159959
 20
20.1249432624253
 42
0.0870830337792
  0
VERTEX
  8
Standard
 10
79.0277913156431
 20
18.4304095660347
 42
0.6573224077027
  0
VERTEX
  8
Standard
 10
79.1450705658898
 20
14.7105727293396
 42
-0.0748114120858
  0
VERTEX
  8
Standard
 10
82.7992850260247
 20
12.2253429825144
 42
-0.3092395644655
  0
VERTEX
  8
Standard
 10
83.5193666946397
 20
8.8349902354979
 42
-0.1746465369225
  0
VERTEX
  8
Standard
 10
80.8219500216167
 20
5.7043625769865
 42
-0.1406708931321
  0
VERTEX
  8
Standard
 10
70.2127260696397
 20
2.8408496104979
 42
-0.3557121403175
  0
VERTEX
  8
Standard
 10
67.6998434367906
 20
3.990871527757
 42
-0.411055782452
  0
VERTEX
  8
Standard
 10
70.6697573196397
 20
7.1826464854979
 42
0.189971676948
  0
VERTEX
  8
Standard
 10
76.4705385696397
 20
7.2002246104979
 42
0.110239116161
  0
SEQEND
  0
POLYLINE
  8
Standard
 66
     1
 10
0.0
 20
0.0
 30
0.0
 70
     1
  0
VERTEX
  8
Standard
 10
116.561847771209
 20
12.7197558604979
 42
0.0
  0
VERTEX
  8
Standard
 10
116.579425896209
 20
12.7197558604979
 42
0.0668631568981
  0
VERTEX
  8
Standard
 10
111.815754021209
 20
2.5244433604979
 42
-0.3160802507309
  0
VERTEX
  8
Standard
 10
108.880207146209
 20
0.2217089854979
 42
-0.5411321877488
  0
VERTEX
  8
Standard
 10
107.087238396209
 20
2.4541308604979
 42
-0.001485278927
  0
VERTEX
  8
Standard
 10
110.321613396209
 20
8.4834277354979
 42
-0.0743067331684
  0
VERTEX
  8
Standard
 10
101.503734020857
 20
4.5571812464993
 42
-0.1422487305446
  0
VERTEX
  8
Standard
 10
95.87887926631
 20
4.4854804033718
 42
-0.3481260827628
  0
VERTEX
  8
Standard
 10
93.2655896925588
 20
8.4388549064189
 42
-0.1366862919291
  0
VERTEX
  8
Standard
 10
96.3717907161061
 20
16.1445055769014
 42
-0.0475594288888
  0
VERTEX
  8
Standard
 10
100.073566521209
 20
20.6123339854979
 42
0.0
  0
VERTEX
  8
Standard
 10
100.073566521209
 20
20.5947558604979
 42
-0.1227387403612
  0
VERTEX
  8
Standard
 10
114.938269964754
 20
30.1522134879907
 42
-0.126147151398
  0
VERTEX
  8
Standard
 10
121.674770180814
 20
30.8103112627473
 42
-0.1184986377399
  0
VERTEX
  8
Standard
 10
123.259113396209
 20
30.1220996104979
 42
-0.3523787882093
  0
VERTEX
  8
Standard
 10
123.856769646209
 20
28.0127246104979
 42
-0.1259268571257
  0
VERTEX
  8
Standard
 10
121.119530694257
 20
24.7982957941422
 42
-0.3751263169441
  0
VERTEX
  8
Standard
 10
119.093097771209
 20
24.5674121104979
 42
-0.0391090111519
  0
VERTEX
  8
Standard
 10
118.743270229171
 20
26.1016395722533
 42
0.3498399615089
  0
VERTEX
  8
Standard
 10
117.317707146209
 20
26.9580371104979
 42
0.1132848827378
  0
VERTEX
  8
Standard
 10
110.304035271209
 20
24.3213183604979
 42
0.1049954332943
  0
VERTEX
  8
Standard
 10
100.034118133781
 20
14.9026901405283
 42
0.1119425139717
  0
VERTEX
  8
Standard
 10
97.8660883771722
 20
10.1058782158381
 42
0.5613685198581
  0
VERTEX
  8
Standard
 10
99.9329415212086
 20
7.7978808604979
 42
0.1168607447271
  0
VERTEX
  8
Standard
 10
109.231769646209
 20
11.0674121104979
 42
0.1931835647381
  0
VERTEX
  8
Standard
 10
114.944660271209
 20
17.2021777354979
 42
-0.3322638938669
  0
VERTEX
  8
Standard
 10
117.827472771209
 20
18.8369433604979
 42
-0.3697852781587
  0
VERTEX
  8
Standard
 10
119.668667763393
 20
18.0191880704066
 42
-0.1954804880954
  0
VERTEX
  8
Standard
 10
119.018714216274
 20
16.2286999924936
 42
0.0127923894163
  0
SEQEND
  0
POLYLINE
  8
Standard
 66
     1
 10
0.0
 20
0.0
 30
0.0
 70
     1
  0
VERTEX
  8
Standard
 10
133.964191521209
 20
10.4697558604979
 42
-0.1205900559763
  0
VERTEX
  8
Standard
 10
125.942616263294
 20
4.3221053391583
 42
-0.0919950927649
  0
VERTEX
  8
Standard
 10
123.259113396209
 20
3.7724902354979
 42
-0.4521012815539
  0
VERTEX
  8
Standard
 10
120.694361111991
 20
7.9472986152984
 42
-0.0815325971399
  0
VERTEX
  8
Standard
 10
122.59448639893
 20
12.7981425962272
 42
-0.0026729322526
  0
VERTEX
  8
Standard
 10
125.804351428905
 20
18.4682078047333
 42
0.0372425770916
  0
VERTEX
  8
Standard
 10
127.038410271209
 20
21.1748339854979
 42
-0.3533164118407
  0
VERTEX
  8
Standard
 10
130.521289071947
 20
22.5093420583537
 42
-0.3732437198115
  0
VERTEX
  8
Standard
 10
131.274738396209
 20
20.6123339854979
 42
-0.0633685359108
  0
VERTEX
  8
Standard
 10
129.182941521209
 20
17.0615527354979
 42
0.0430478802816
  0
VERTEX
  8
Standard
 10
125.087238396209
 20
9.9775683604979
 42
0.1171106801767
  0
VERTEX
  8
Standard
 10
124.752153186722
 20
8.0944216552571
 42
0.4140187328028
  0
VERTEX
  8
Standard
 10
125.263019646209
 20
7.6396777354979
 42
0.1337834602954
  0
VERTEX
  8
Standard
 10
128.61763771869
 20
9.2156547252839
 42
0.1064101905598
  0
VERTEX
  8
Standard
 10
137.10789684248
 20
18.6188373379104
 42
-0.145388497537
  0
VERTEX
  8
Standard
 10
139.502410507365
 20
21.2012390823101
 42
-0.192916312928
  0
VERTEX
  8
Standard
 10
141.356577128332
 20
21.339604369815
 42
-0.4067332480371
  0
VERTEX
  8
Standard
 10
141.768879021209
 20
19.4170214854979
 42
-0.0407993703341
  0
VERTEX
  8
Standard
 10
141.065754021209
 20
18.2217089854979
 42
0.0948817086194
  0
VERTEX
  8
Standard
 10
136.90414192966
 20
8.5079572186808
 42
0.1271545096314
  0
VERTEX
  8
Standard
 10
136.902642181514
 20
6.347606881107
 42
0.1563731194468
  0
VERTEX
  8
Standard
 10
137.321613396209
 20
5.7412402354979
 42
-0.5427442061046
  0
VERTEX
  8
Standard
 10
137.041267504963
 20
4.2895430680877
 42
-0.1544253402214
  0
VERTEX
  8
Standard
 10
134.386066521209
 20
3.2451464854979
 42
-0.4418414266756
  0
VERTEX
  8
Standard
 10
132.909504021209
 20
5.1963183604979
 42
-0.0829392214625
  0
SEQEND
  0
POLYLINE
  8
Standard
 66
     1
 10
0.0
 20
0.0
 30
0.0
 70
     1
  0
VERTEX
  8
Standard
 10
153.300129021209
 20
18.3095996104979
 42
0.042646607923
  0
VERTEX
  8
Standard
 10
148.536457146209
 20
9.6435839854979
 42
0.0982270908621
  0
VERTEX
  8
Standard
 10
148.149738396209
 20
7.6220996104979
 42
0.3933213675391
  0
VERTEX
  8
Standard
 10
148.975910271209
 20
7.0595996104979
 42
0.1266582456941
  0
VERTEX
  8
Standard
 10
153.880207146209
 20
8.9404589854979
 42
-0.1195476364362
  0
VERTEX
  8
Standard
 10
155.690754021209
 20
9.6963183604979
 42
-0.5945881339321
  0
VERTEX
  8
Standard
 10
156.481769646209
 20
8.7295214854979
 42
-0.1293377209148
  0
VERTEX
  8
Standard
 10
152.790363396209
 20
5.2138964854979
 42
-0.1384948573496
  0
VERTEX
  8
Standard
 10
146.866535271209
 20
3.2627246104979
 42
-0.5361857164001
  0
VERTEX
  8
Standard
 10
143.45641680581
 20
6.6129266202043
 42
-0.0981926190492
  0
VERTEX
  8
Standard
 10
144.980197239068
 20
11.0226670471368
 42
-0.0154585318983
  0
VERTEX
  8
Standard
 10
148.888019646209
 20
18.0459277354979
 42
-0.2055448065209
  0
VERTEX
  8
Standard
 10
145.442707146209
 20
18.4502246104979
 42
-0.6248600103148
  0
VERTEX
  8
Standard
 10
147.358722771209
 20
21.6142871104979
 42
0.0
  0
VERTEX
  8
Standard
 10
151.173175896209
 20
21.7549121104979
 42
0.0175599334605
  0
VERTEX
  8
Standard
 10
154.636066521209
 20
27.3271777354979
 42
-0.276619649633
  0
VERTEX
  8
Standard
 10
157.589191521209
 20
29.4717089854979
 42
-0.5764121921589
  0
VERTEX
  8
Standard
 10
159.013019646209
 20
27.5732714854979
 42
-0.0076696991015
  0
VERTEX
  8
Standard
 10
155.673175896209
 20
22.1416308604979
 42
-0.0058579288063
  0
VERTEX
  8
Standard
 10
161.966144646209
 20
22.6338183604979
 42
-0.1772484072036
  0
VERTEX
  8
Standard
 10
163.108722771209
 20
22.3525683604979
 42
-0.3781007695541
  0
VERTEX
  8
Standard
 10
161.650779644349
 20
19.877202840341
 42
-0.0731165804775
  0
VERTEX
  8
Standard
 10
159.716144646209
 20
19.3291308604979
 42
0.0
  0
SEQEND
  0
POLYLINE
  8
Standard
 66
     1
 10
0.0
 20
0.0
 30
0.0
 70
     1
  0
VERTEX
  8
Standard
 10
175.870441521209
 20
10.0830371104979
 42
-0.1379603847461
  0
VERTEX
  8
Standard
 10
173.274893220591
 20
7.0868069779866
 42
-0.1744347948248
  0
VERTEX
  8
Standard
 10
163.513019646209
 20
3.1748339854979
 42
-0.5137403007354
  0
VERTEX
  8
Standard
 10
158.967228285778
 20
7.6557119925608
 42
-0.1374546605222
  0
VERTEX
  8
Standard
 10
162.234300991538
 20
15.3104888756376
 42
-0.0989616574109
  0
VERTEX
  8
Standard
 10
170.228503410478
 20
22.4017220835664
 42
-0.1239978780765
  0
VERTEX
  8
Standard
 10
175.044269646209
 20
23.7939746104979
 42
-0.4535549159478
  0
VERTEX
  8
Standard
 10
178.226344336963
 20
21.082915623689
 42
-0.1959435989166
  0
VERTEX
  8
Standard
 10
175.964576862642
 20
16.2813663905744
 42
-0.1565493596527
  0
VERTEX
  8
Standard
 10
164.233722771209
 20
9.9248339854979
 42
0.5341400391483
  0
VERTEX
  8
Standard
 10
163.688800896209
 20
7.6748339854979
 42
0.259319357029
  0
VERTEX
  8
Standard
 10
165.429035271209
 20
6.9189746104979
 42
0.1327333899746
  0
VERTEX
  8
Standard
 10
170.846647853841
 20
8.6356496543229
 42
-0.0056131369531
  0
VERTEX
  8
Standard
 10
174.401509187887
 20
11.0264263997938
 42
-0.2224073362544
  0
VERTEX
  8
Standard
 10
175.641440635189
 20
11.1932634748586
 42
-0.4066336072411
  0
SEQEND
  0
POLYLINE
  8
Standard
 66
     1
 10
0.0
 20
0.0
 30
0.0
 70
     1
  0
VERTEX
  8
Standard
 10
165.147785271209
 20
13.1943652354979
 42
0.1280896362058
  0
VERTEX
  8
Standard
 10
172.683264853261
 20
16.9816773645837
 42
0.1186245994064
  0
VERTEX
  8
Standard
 10
174.077472771209
 20
18.8545214854979
 42
0.5712032228382
  0
VERTEX
  8
Standard
 10
173.391925896209
 20
20.2256152354979
 42
0.1337664899894
  0
VERTEX
  8
Standard
 10
169.225910271209
 20
17.9756152354979
 42
0.0845996873398
  0
SEQEND
  0
POLYLINE
  8
Standard
 66
     1
 10
0.0
 20
0.0
 30
0.0
 70
     1
  0
VERTEX
  8
Standard
 10
198.102375722778
 20
10.4697558604979
 42
-0.1205900559763
  0
VERTEX
  8
Standard
 10
190.080800464863
 20
4.3221053391583
 42
-0.0919950927649
  0
VERTEX
  8
Standard
 10
187.397297597778
 20
3.7724902354979
 42
-0.4521012815539
  0
VERTEX
  8
Standard
 10
184.83254531356
 20
7.9472986152984
 42
-0.0815325971399
  0
VERTEX
  8
Standard
 10
186.732670600499
 20
12.7981425962272
 42
-0.0026729322526
  0
VERTEX
  8
Standard
 10
189.942535630474
 20
18.4682078047333
 42
0.0372425770916
  0
VERTEX
  8
Standard
 10
191.176594472778
 20
21.1748339854979
 42
-0.3533164118406
  0
VERTEX
  8
Standard
 10
194.659473273516
 20
22.5093420583537
 42
-0.3732437198115
  0
VERTEX
  8
Standard
 10
195.412922597778
 20
20.6123339854979
 42
-0.0633685359108
  0
VERTEX
  8
Standard
 10
193.321125722778
 20
17.0615527354979
 42
0.0430478802816
  0
VERTEX
  8
Standard
 10
189.225422597778
 20
9.9775683604979
 42
0.1171106801767
  0
VERTEX
  8
Standard
 10
188.890337388291
 20
8.0944216552571
 42
0.4140187328028
  0
VERTEX
  8
Standard
 10
189.401203847778
 20
7.6396777354979
 42
0.1337834602954
  0
VERTEX
  8
Standard
 10
192.755821920259
 20
9.2156547252839
 42
0.1064101905598
  0
VERTEX
  8
Standard
 10
201.246081044049
 20
18.6188373379104
 42
-0.145388497537
  0
VERTEX
  8
Standard
 10
203.640594708934
 20
21.2012390823101
 42
-0.192916312928
  0
VERTEX
  8
Standard
 10
205.494761329901
 20
21.339604369815
 42
-0.4067332480372
  0
VERTEX
  8
Standard
 10
205.907063222778
 20
19.4170214854979
 42
-0.0407993703341
  0
VERTEX
  8
Standard
 10
205.203938222778
 20
18.2217089854979
 42
0.0948817086194
  0
VERTEX
  8
Standard
 10
201.042326131229
 20
8.5079572186808
 42
0.1271545096314
  0
VERTEX
  8
Standard
 10
201.040826383083
 20
6.347606881107
 42
0.1563731194468
  0
VERTEX
  8
Standard
 10
201.459797597778
 20
5.7412402354979
 42
-0.5427442061046
  0
VERTEX
  8
Standard
 10
201.179451706532
 20
4.2895430680877
 42
-0.1544253402214
  0
VERTEX
  8
Standard
 10
198.524250722778
 20
3.2451464854979
 42
-0.4418414266756
  0
VERTEX
  8
Standard
 10
197.047688222778
 20
5.1963183604979
 42
-0.0829392214625
  0
SEQEND
  0
POLYLINE
  8
Standard
 66
     1
 10
0.0
 20
0.0
 30
0.0
 70
     1
  0
VERTEX
  8
Standard
 10
221.059406972778
 20
6.6025683604979
 42
-0.0720276861144
  0
VERTEX
  8
Standard
 10
221.832844472778
 20
12.5088183604979
 42
0.0772029300977
  0
VERTEX
  8
Standard
 10
222.348308070048
 20
16.0079271453428
 42
0.7605330375296
  0
VERTEX
  8
Standard
 10
220.73024776105
 20
16.6812183824785
 42
0.0645857670194
  0
VERTEX
  8
Standard
 10
215.662922597778
 20
12.3154589854979
 42
0.0503253545585
  0
VERTEX
  8
Standard
 10
209.493000722778
 20
5.4072558604979
 42
-0.4849966492939
  0
VERTEX
  8
Standard
 10
205.912942836782
 20
4.2779633409967
 42
-0.308106359185
  0
VERTEX
  8
Standard
 10
205.678547597778
 20
6.3037402354979
 42
0.0097085926269
  0
VERTEX
  8
Standard
 10
209.5809873396
 20
14.6367802543097
 42
0.014275713242
  0
VERTEX
  8
Standard
 10
211.338703847778
 20
19.3467089854979
 42
-0.2751876467687
  0
VERTEX
  8
Standard
 10
214.502766347778
 20
22.0537402354979
 42
-0.2325822403477
  0
VERTEX
  8
Standard
 10
215.891438222778
 20
21.5439746104979
 42
-0.1565808508256
  0
VERTEX
  8
Standard
 10
216.008830638667
 20
20.8547748167827
 42
-0.0824516653696
  0
VERTEX
  8
Standard
 10
212.323078847778
 20
12.3681933604979
 42
-0.0597860851096
  0
VERTEX
  8
Standard
 10
218.700423202455
 20
19.123679375275
 42
-0.158720607466
  0
VERTEX
  8
Standard
 10
223.854328847778
 20
21.2978808604979
 42
-0.4192124416082
  0
VERTEX
  8
Standard
 10
226.780775311757
 20
18.8008903092047
 42
-0.0887248068086
  0
VERTEX
  8
Standard
 10
226.455891347778
 20
14.8818652354979
 42
0.0707082853425
  0
VERTEX
  8
Standard
 10
225.515951623514
 20
9.1304786805116
 42
0.4405496173302
  0
VERTEX
  8
Standard
 10
225.858235097778
 20
8.3428027354979
 42
0.0087662946025
  0
VERTEX
  8
Standard
 10
227.914875722778
 20
8.7295214854979
 42
-0.5978658874503
  0
VERTEX
  8
Standard
 10
228.424641347778
 20
7.7451464854979
 42
-0.2632468268199
  0
VERTEX
  8
Standard
 10
223.362141347778
 20
4.8271777354979
 42
-0.4228663473536
  0
VERTEX
  8
Standard
 10
221.041828847778
 20
6.6025683604979
 42
0.0
  0
SEQEND
  0
POLYLINE
  8
Standard
 66
     1
 10
0.0
 20
0.0
 30
0.0
 70
     1
  0
VERTEX
  8
Standard
 10
243.647297597778
 20
9.9072558604979
 42
-0.097426078179
  0
VERTEX
  8
Standard
 10
235.560575656447
 20
4.1568537545589
 42
-0.2165896451586
  0
VERTEX
  8
Standard
 10
230.800918272056
 20
3.7822899435203
 42
-0.3052828212165
  0
VERTEX
  8
Standard
 10
229.50906379317
 20
6.7998861639231
 42
-0.1498824119576
  0
VERTEX
  8
Standard
 10
232.75023457258
 20
13.6688060177399
 42
-0.0871002855839
  0
VERTEX
  8
Standard
 10
240.973827498346
 20
20.7970518309525
 42
-0.1258336733706
  0
VERTEX
  8
Standard
 10
245.914875722778
 20
22.3174121104979
 42
-0.3332349780382
  0
VERTEX
  8
Standard
 10
248.674641347778
 20
21.1572558604979
 42
0.0013052430172
  0
VERTEX
  8
Standard
 10
253.677323041631
 20
30.1643534282673
 42
-0.2174847829655
  0
VERTEX
  8
Standard
 10
256.970501222078
 20
33.5938892103035
 42
-0.6886783879591
  0
VERTEX
  8
Standard
 10
258.898329071944
 20
32.0787392687572
 42
-0.1436456045729
  0
VERTEX
  8
Standard
 10
257.848017113352
 20
29.7186272853389
 42
0.035028369967
  0
VERTEX
  8
Standard
 10
249.316244729535
 20
14.9468163752134
 42
0.0717449829686
  0
VERTEX
  8
Standard
 10
247.066914443702
 20
9.0170868238029
 42
0.4833665807817
  0
VERTEX
  8
Standard
 10
247.778156972778
 20
7.5517871104979
 42
-0.0214963800822
  0
VERTEX
  8
Standard
 10
250.573078847778
 20
8.2724902354979
 42
-0.5972094116097
  0
VERTEX
  8
Standard
 10
251.100422597778
 20
7.2705371104979
 42
-0.1526572671546
  0
VERTEX
  8
Standard
 10
248.534016347778
 20
4.8447558604979
 42
-0.1204035495302
  0
VERTEX
  8
Standard
 10
244.807453847778
 20
3.6494433604979
 42
-0.4224157978338
  0
VERTEX
  8
Standard
 10
242.821125722778
 20
5.4599902354979
 42
-0.1361720611287
  0
SEQEND
  0
POLYLINE
  8
Standard
 66
     1
 10
0.0
 20
0.0
 30
0.0
 70
     1
  0
VERTEX
  8
Standard
 10
244.754719472778
 20
18.9248339854979
 42
0.1589811869824
  0
VERTEX
  8
Standard
 10
240.755716613089
 20
17.1372884884551
 42
0.137899410365
  0
VERTEX
  8
Standard
 10
234.067219472778
 20
8.9756152354979
 42
0.3537259756103
  0
VERTEX
  8
Standard
 10
234.183872915185
 20
7.4073356228657
 42
0.2567447811918
  0
VERTEX
  8
Standard
 10
236.586041814763
 20
7.7713037187425
 42
0.1005474517116
  0
VERTEX
  8
Standard
 10
245.234260215391
 20
15.3754346483231
 42
0.0712897346771
  0
VERTEX
  8
Standard
 10
246.178547597778
 20
17.1142871104979
 42
0.5529477451205
  0
SEQEND
  0
POLYLINE
  8
Standard
 66
     1
 10
0.0
 20
0.0
 30
0.0
 70
     1
  0
VERTEX
  8
Standard
 10
263.049153674347
 20
4.2119433604979
 42
0.0833659630853
  0
VERTEX
  8
Standard
 10
263.347981799347
 20
9.2041308604979
 42
-0.042678475385
  0
VERTEX
  8
Standard
 10
263.609825376895
 20
17.3406736883148
 42
-0.1512627393905
  0
VERTEX
  8
Standard
 10
265.32463749087
 20
21.9947137696007
 42
-0.2966382387698
  0
VERTEX
  8
Standard
 10
268.364930769435
 20
22.711284157063
 42
-0.3702093300766
  0
VERTEX
  8
Standard
 10
268.762044299347
 20
20.2431933604979
 42
0.0833961436528
  0
VERTEX
  8
Standard
 10
267.549153674347
 20
12.1396777354979
 42
0.0172618986477
  0
VERTEX
  8
Standard
 10
267.531575549347
 20
9.1162402354979
 42
-0.0245357352353
  0
VERTEX
  8
Standard
 10
278.254231799347
 20
20.1904589854979
 42
-0.0477693523699
  0
VERTEX
  8
Standard
 10
281.506184924347
 20
22.7041308604979
 42
-0.2114315232462
  0
VERTEX
  8
Standard
 10
284.063857482329
 20
23.0346177853971
 42
-0.4352200846935
  0
VERTEX
  8
Standard
 10
284.722981799347
 20
21.1045214854979
 42
-0.1707650425562
  0
VERTEX
  8
Standard
 10
282.578450549347
 20
19.1006152354979
 42
0.0630149678789
  0
VERTEX
  8
Standard
 10
277.111653674347
 20
14.6006152354979
 42
0.021012413966
  0
VERTEX
  8
Standard
 10
268.762044299347
 20
5.7588183604979
 42
-0.1311653746319
  0
VERTEX
  8
Standard
 10
265.44950758518
 20
2.8624609528168
 42
-0.4243999746413
  0
SEQEND
  0
POLYLINE
  8
Standard
 66
     1
 10
0.0
 20
0.0
 30
0.0
 70
     1
  0
VERTEX
  8
Standard
 10
297.959309924347
 20
30.1572558604979
 42
-0.2511563644605
  0
VERTEX
  8
Standard
 10
293.810872424347
 20
27.0283496104979
 42
-0.5106540142333
  0
VERTEX
  8
Standard
 10
292.017903674347
 20
29.6650683604979
 42
-0.3984715354999
  0
VERTEX
  8
Standard
 10
297.03638988338
 20
32.3521638908352
 42
-0.4348459681396
  0
SEQEND
  0
POLYLINE
  8
Standard
 66
     1
 10
0.0
 20
0.0
 30
0.0
 70
     1
  0
VERTEX
  8
Standard
 10
284.547200549347
 20
15.7080371104979
 42
0.0
  0
VERTEX
  8
Standard
 10
284.547200549347
 20
15.6904589854979
 42
0.0132460999128
  0
VERTEX
  8
Standard
 10
286.357747424347
 20
19.3467089854979
 42
-0.2016007880846
  0
VERTEX
  8
Standard
 10
288.518070652305
 20
22.159553278589
 42
-0.3133252908621
  0
VERTEX
  8
Standard
 10
291.226888049347
 20
21.8428027354979
 42
-0.2854445643183
  0
VERTEX
  8
Standard
 10
291.455403674347
 20
20.5771777354979
 42
-0.0116933465219
  0
VERTEX
  8
Standard
 10
287.967549132519
 20
14.5741425074583
 42
0.1033638505109
  0
VERTEX
  8
Standard
 10
284.564778674347
 20
5.4248339854979
 42
-0.2126559712839
  0
VERTEX
  8
Standard
 10
283.299153674347
 20
3.8076464854979
 42
-0.3415194345401
  0
VERTEX
  8
Standard
 10
280.319028584554
 20
3.4745018729586
 42
-0.2597210730366
  0
VERTEX
  8
Standard
 10
279.987513552462
 20
5.4497973031306
 42
-0.0533261751855
  0
VERTEX
  8
Standard
 10
283.633138049347
 20
13.9150683604979
 42
0.0036512084095
  0
SEQEND
  0
POLYLINE
  8
Standard
 66
     1
 10
0.0
 20
0.0
 30
0.0
 70
     1
  0
VERTEX
  8
Standard
 10
307.451497424347
 20
10.0830371104979
 42
-0.137960384746
  0
VERTEX
  8
Standard
 10
304.855949123729
 20
7.0868069779866
 42
-0.1744347948248
  0
VERTEX
  8
Standard
 10
295.094075549347
 20
3.1748339854979
 42
-0.5137403007355
  0
VERTEX
  8
Standard
 10
290.548284188916
 20
7.6557119925608
 42
-0.1374546605222
  0
VERTEX
  8
Standard
 10
293.815356894676
 20
15.3104888756376
 42
-0.0989616574109
  0
VERTEX
  8
Standard
 10
301.809559313616
 20
22.4017220835664
 42
-0.1239978780765
  0
VERTEX
  8
Standard
 10
306.625325549347
 20
23.7939746104979
 42
-0.4535549159478
  0
VERTEX
  8
Standard
 10
309.807400240101
 20
21.082915623689
 42
-0.1959435989166
  0
VERTEX
  8
Standard
 10
307.54563276578
 20
16.2813663905744
 42
-0.1565493596527
  0
VERTEX
  8
Standard
 10
295.814778674347
 20
9.9248339854979
 42
0.5341400391483
  0
VERTEX
  8
Standard
 10
295.269856799347
 20
7.6748339854979
 42
0.2593193570291
  0
VERTEX
  8
Standard
 10
297.010091174347
 20
6.9189746104979
 42
0.1327333899746
  0
VERTEX
  8
Standard
 10
302.427703756979
 20
8.6356496543229
 42
-0.0056131369531
  0
VERTEX
  8
Standard
 10
305.982565091025
 20
11.0264263997938
 42
-0.2224073362544
  0
VERTEX
  8
Standard
 10
307.222496538327
 20
11.1932634748586
 42
-0.4066336072413
  0
SEQEND
  0
POLYLINE
  8
Standard
 66
     1
 10
0.0
 20
0.0
 30
0.0
 70
     1
  0
VERTEX
  8
Standard
 10
296.728841174347
 20
13.1943652354979
 42
0.1280896362058
  0
VERTEX
  8
Standard
 10
304.264320756399
 20
16.9816773645837
 42
0.1186245994064
  0
VERTEX
  8
Standard
 10
305.658528674347
 20
18.8545214854979
 42
0.5712032228378
  0
VERTEX
  8
Standard
 10
304.972981799347
 20
20.2256152354979
 42
0.1337664899895
  0
VERTEX
  8
Standard
 10
300.806966174347
 20
17.9756152354979
 42
0.0845996873398
  0
SEQEND
  0
POLYLINE
  8
Standard
 66
     1
 10
0.0
 20
0.0
 30
0.0
 70
     1
  0
VERTEX
  8
Standard
 10
324.871419299347
 20
33.7959277354979
 42
-0.6244333707716
  0
VERTEX
  8
Standard
 10
326.066731799347
 20
31.7217089854979
 42
-0.0445369433458
  0
VERTEX
  8
Standard
 10
325.099934924347
 20
29.6650683604979
 42
0.0633312893017
  0
VERTEX
  8
Standard
 10
315.748372424347
 20
11.5595996104979
 42
0.0111633009797
  0
VERTEX
  8
Standard
 10
314.008138049347
 20
5.2138964854979
 42
-0.2987160101437
  0
VERTEX
  8
Standard
 10
310.685872424347
 20
2.6474902354979
 42
-0.4496653278554
  0
VERTEX
  8
Standard
 10
309.314778674347
 20
3.8252246104979
 42
-0.1040285005936
  0
VERTEX
  8
Standard
 10
310.193684924347
 20
7.8681933604979
 42
-0.0442335334895
  0
VERTEX
  8
Standard
 10
320.671283993674
 20
29.9367306211723
 42
-0.1238230399295
  0
VERTEX
  8
Standard
 10
323.447485519694
 20
33.2789836223894
 42
-0.1690768080177
  0
SEQEND
  0
POLYLINE
  8
Standard
 66
     1
 10
0.0
 20
0.0
 30
0.0
 70
     1
  0
VERTEX
  8
Standard
 10
353.255697250916
 20
25.8330371104979
 42
0.0612199226945
  0
VERTEX
  8
Standard
 10
340.894694014068
 20
24.7131205133066
 42
0.2515754846743
  0
VERTEX
  8
Standard
 10
339.720541000916
 20
23.4424121104979
 42
0.0065165771893
  0
VERTEX
  8
Standard
 10
336.574056625916
 20
17.5888964854979
 42
0.0460246118336
  0
VERTEX
  8
Standard
 10
345.05842920885
 20
18.662849180978
 42
-0.1184278021186
  0
VERTEX
  8
Standard
 10
348.703145790947
 20
18.6587882361283
 42
-0.4838890902737
  0
VERTEX
  8
Standard
 10
349.353353500916
 20
17.2197558604979
 42
-0.3002577915206
  0
VERTEX
  8
Standard
 10
346.725131590997
 20
15.1072012464664
 42
0.0064905210174
  0
VERTEX
  8
Standard
 10
336.684045279217
 20
13.7949475229549
 42
-0.0996744199956
  0
VERTEX
  8
Standard
 10
335.167806625916
 20
13.4931933604979
 42
0.2236350115989
  0
VERTEX
  8
Standard
 10
333.844192230278
 20
11.7965169112099
 42
0.0294578053334
  0
VERTEX
  8
Standard
 10
331.687337875916
 20
7.2705371104979
 42
0.6156057163503
  0
VERTEX
  8
Standard
 10
332.267416000916
 20
6.6201464854979
 42
0.0322557671558
  0
VERTEX
  8
Standard
 10
343.201895539193
 20
8.0339529785256
 42
-0.3847849428831
  0
VERTEX
  8
Standard
 10
346.457595309705
 20
7.3002306245446
 42
-0.3129932005394
  0
VERTEX
  8
Standard
 10
345.451009750916
 20
4.9326464854979
 42
-0.0751087731814
  0
VERTEX
  8
Standard
 10
340.247884750916
 20
3.9482714854979
 42
0.0166526519279
  0
VERTEX
  8
Standard
 10
334.201009750916
 20
3.3506152354979
 42
-0.0485763083153
  0
VERTEX
  8
Standard
 10
328.224447250916
 20
2.7002246104979
 42
-0.2199141945765
  0
VERTEX
  8
Standard
 10
326.361166000916
 20
3.3154589854979
 42
-0.2782873130717
  0
VERTEX
  8
Standard
 10
327.064291000916
 20
6.8486621104979
 42
0.0325511158274
  0
VERTEX
  8
Standard
 10
332.056478500916
 20
16.4638964854979
 42
0.0142180295175
  0
VERTEX
  8
Standard
 10
335.888509750916
 20
24.7607714854979
 42
-0.4752061380545
  0
VERTEX
  8
Standard
 10
337.013509750916
 20
27.9951464854979
 42
-0.1619618808767
  0
VERTEX
  8
Standard
 10
340.054525375916
 20
28.2588183604979
 42
0.0065842515031
  0
VERTEX
  8
Standard
 10
352.816244125916
 20
29.6650683604979
 42
-0.2159371040574
  0
VERTEX
  8
Standard
 10
355.314506131568
 20
29.281698427288
 42
-0.38946938585
  0
VERTEX
  8
Standard
 10
355.137574583465
 20
27.0609953973122
 42
-0.1104049825259
  0
SEQEND
  0
POLYLINE
  8
Standard
 66
     1
 10
0.0
 20
0.0
 30
0.0
 70
     1
  0
VERTEX
  8
Standard
 10
357.263509750916
 20
12.7549121104979
 42
-0.051116698292
  0
VERTEX
  8
Standard
 10
364.699056625916
 20
20.2431933604979
 42
-0.0936025707292
  0
VERTEX
  8
Standard
 10
368.814290891185
 20
22.648035434533
 42
-0.3158230472163
  0
VERTEX
  8
Standard
 10
372.978353500916
 20
21.9306933604979
 42
-0.5379385596204
  0
VERTEX
  8
Standard
 10
371.167806625916
 20
17.5361621104979
 42
-0.2675766216665
  0
VERTEX
  8
Standard
 10
369.480306625916
 20
18.4326464854979
 42
0.4918473980849
  0
VERTEX
  8
Standard
 10
367.806622319347
 20
18.7527740974482
 42
0.145164606316
  0
VERTEX
  8
Standard
 10
356.015462875916
 20
5.7060839854979
 42
-0.3232266232917
  0
VERTEX
  8
Standard
 10
352.429525375916
 20
3.0517871104979
 42
-0.482066670739
  0
VERTEX
  8
Standard
 10
351.181478500916
 20
4.4228808604979
 42
-0.088347217246
  0
VERTEX
  8
Standard
 10
352.201009750916
 20
8.9404589854979
 42
-0.0196096790385
  0
VERTEX
  8
Standard
 10
356.640936605562
 20
19.8422485169598
 42
-0.2969022048564
  0
VERTEX
  8
Standard
 10
360.445150375916
 20
22.7744433604979
 42
-0.6033291758954
  0
VERTEX
  8
Standard
 10
361.781087875916
 20
21.0342089854979
 42
0.0013831891881
  0
VERTEX
  8
Standard
 10
358.617025375916
 20
15.4619433604979
 42
0.0
  0
SEQEND
  0
POLYLINE
  8
Standard
 66
     1
 10
0.0
 20
0.0
 30
0.0
 70
     1
  0
VERTEX
  8
Standard
 10
376.019369125916
 20
12.9834277354979
 42
0.0667144732358
  0
VERTEX
  8
Standard
 10
372.697103500916
 20
3.7549121104979
 42
-0.3583706096756
  0
VERTEX
  8
Standard
 10
368.788452948686
 20
2.4804935651148
 42
-0.3382361283993
  0
VERTEX
  8
Standard
 10
368.182485882993
 20
4.2093552442514
 42
-0.0819931071167
  0
VERTEX
  8
Standard
 10
369.875883344778
 20
8.5817951756877
 42
0.027805726028
  0
VERTEX
  8
Standard
 10
373.804525375916
 20
17.2549121104979
 42
0.143531519877
  0
VERTEX
  8
Standard
 10
373.097042391764
 20
18.1299124215236
 42
-0.2294314896609
  0
VERTEX
  8
Standard
 10
372.960775375916
 20
18.9775683604979
 42
-0.1469877806697
  0
VERTEX
  8
Standard
 10
374.999837875916
 20
20.9638964854979
 42
0.128640273776
  0
VERTEX
  8
Standard
 10
376.195150375916
 20
22.1416308604979
 42
-0.0142216527703
  0
VERTEX
  8
Standard
 10
379.808684546067
 20
28.5283129616253
 42
-0.1513287904062
  0
VERTEX
  8
Standard
 10
385.727884366714
 20
33.9674489839094
 42
-0.1910210105553
  0
VERTEX
  8
Standard
 10
390.353364295479
 20
34.3655790330415
 42
-0.4130760825871
  0
VERTEX
  8
Standard
 10
391.769369125916
 20
30.5615527354979
 42
-0.1242543343386
  0
VERTEX
  8
Standard
 10
388.924562723964
 20
26.2563397314484
 42
-0.4119164768028
  0
VERTEX
  8
Standard
 10
386.777181625916
 20
26.0088183604979
 42
-0.2384144651369
  0
VERTEX
  8
Standard
 10
386.724447250916
 20
26.8701464854979
 42
0.1544170913036
  0
VERTEX
  8
Standard
 10
387.750168362655
 20
30.6110259633249
 42
0.526502133982
  0
VERTEX
  8
Standard
 10
386.478601726823
 20
30.9723275247365
 42
0.0968752429119
  0
VERTEX
  8
Standard
 10
383.261556625916
 20
27.5556933604979
 42
0.0653021326977
  0
VERTEX
  8
Standard
 10
379.956869125916
 20
21.4736621104979
 42
0.6655888795434
  0
VERTEX
  8
Standard
 10
380.202962875916
 20
21.2099902354979
 42
-0.032524988541
  0
VERTEX
  8
Standard
 10
385.843987178449
 20
21.2165587199648
 42
-0.5861934513186
  0
VERTEX
  8
Standard
 10
386.460775375916
 20
20.0849902354979
 42
-0.2333435674815
  0
VERTEX
  8
Standard
 10
384.052572250916
 20
18.3623339854979
 42
-0.0667433206255
  0
VERTEX
  8
Standard
 10
380.044759750916
 20
17.8174121104979
 42
0.025658048149
  0
VERTEX
  8
Standard
 10
378.216634750916
 20
17.5888964854979
 42
0.0145829168562
  0
VERTEX
  8
Standard
 10
376.036947250916
 20
13.0010058604979
 42
0.0
  0
SEQEND
  0
POLYLINE
  8
Standard
 66
     1
 10
0.0
 20
0.0
 30
0.0
 70
     1
  0
VERTEX
  8
Standard
 10
401.156087875916
 20
12.9482714854979
 42
-0.1491830390798
  0
VERTEX
  8
Standard
 10
390.745700664538
 20
4.0677457667585
 42
-0.2098988881008
  0
VERTEX
  8
Standard
 10
384.680582759111
 20
3.6102097812353
 42
-0.2975613858191
  0
VERTEX
  8
Standard
 10
382.597922087157
 20
7.4282290074676
 42
-0.1469305201883
  0
VERTEX
  8
Standard
 10
385.575342818572
 20
14.6147737620469
 42
-0.1043721016317
  0
VERTEX
  8
Standard
 10
393.24760867602
 20
21.7717260051743
 42
-0.2375148822112
  0
VERTEX
  8
Standard
 10
400.565009762419
 20
22.6197095161861
 42
-0.2899203033276
  0
VERTEX
  8
Standard
 10
402.851847234676
 20
18.2376157641054
 42
-0.1214286795779
  0
VERTEX
  8
Standard
 10
401.156087875916
 20
12.9658496104979
 42
0.0
  0
SEQEND
  0
POLYLINE
  8
Standard
 66
     1
 10
0.0
 20
0.0
 30
0.0
 70
     1
  0
VERTEX
  8
Standard
 10
393.896322250916
 20
18.5029589854979
 42
0.1491191775567
  0
VERTEX
  8
Standard
 10
387.497884750916
 20
10.2236621104979
 42
0.1299439027779
  0
VERTEX
  8
Standard
 10
387.216634750916
 20
7.8154589854979
 42
0.3987253862076
  0
VERTEX
  8
Standard
 10
388.306478500916
 20
6.8662402354979
 42
0.1406381629821
  0
VERTEX
  8
Standard
 10
393.720541000916
 20
9.4502246104979
 42
0.2057490185285
  0
VERTEX
  8
Standard
 10
398.395486389509
 20
16.717496444491
 42
0.2806078883128
  0
VERTEX
  8
Standard
 10
397.647500069516
 20
19.1294034425512
 42
0.2934557348134
  0
VERTEX
  8
Standard
 10
393.913900375916
 20
18.5029589854979
 42
0.0
  0
SEQEND
  0
POLYLINE
  8
Standard
 66
     1
 10
0.0
 20
0.0
 30
0.0
 70
     1
  0
VERTEX
  8
Standard
 10
418.347494125916
 20
33.7959277354979
 42
-0.6244333707712
  0
VERTEX
  8
Standard
 10
419.542806625916
 20
31.7217089854979
 42
-0.0445369433458
  0
VERTEX
  8
Standard
 10
418.576009750916
 20
29.6650683604979
 42
0.0633312893017
  0
VERTEX
  8
Standard
 10
409.224447250916
 20
11.5595996104979
 42
0.0111633009797
  0
VERTEX
  8
Standard
 10
407.484212875916
 20
5.2138964854979
 42
-0.2987160101437
  0
VERTEX
  8
Standard
 10
404.161947250916
 20
2.6474902354979
 42
-0.4496653278556
  0
VERTEX
  8
Standard
 10
402.790853500916
 20
3.8252246104979
 42
-0.1040285005936
  0
VERTEX
  8
Standard
 10
403.669759750916
 20
7.8681933604979
 42
-0.0442335334895
  0
VERTEX
  8
Standard
 10
414.147358820243
 20
29.9367306211723
 42
-0.1238230399295
  0
VERTEX
  8
Standard
 10
416.923560346263
 20
33.2789836223894
 42
-0.1690768080178
  0
SEQEND
  0
POLYLINE
  8
Standard
 66
     1
 10
0.0
 20
0.0
 30
0.0
 70
     1
  0
VERTEX
  8
Standard
 10
425.906087875916
 20
9.4150683604979
 42
-0.0931639800772
  0
VERTEX
  8
Standard
 10
417.712929715222
 20
4.8491721148106
 42
-0.1655289232579
  0
VERTEX
  8
Standard
 10
413.756604108302
 20
4.599067949973
 42
-0.3634418964897
  0
VERTEX
  8
Standard
 10
412.315328279835
 20
6.9804977579876
 42
-0.1441851279397
  0
VERTEX
  8
Standard
 10
414.388905515275
 20
11.7275820048651
 42
-0.1366776485456
  0
VERTEX
  8
Standard
 10
428.048053764121
 20
22.0185080551135
 42
-0.1744602117986
  0
VERTEX
  8
Standard
 10
433.254532673783
 20
22.6395720371544
 42
-0.5764081678181
  0
VERTEX
  8
Standard
 10
434.454230665582
 20
18.122014929549
 42
0.0317130498096
  0
VERTEX
  8
Standard
 10
431.513509750916
 20
13.4228808604979
 42
0.0043891443086
  0
VERTEX
  8
Standard
 10
427.452962875916
 20
4.6162402354979
 42
-0.1179396717614
  0
VERTEX
  8
Standard
 10
420.966634750916
 20
-4.3486035145021
 42
-0.1642406642565
  0
VERTEX
  8
Standard
 10
414.005697250916
 20
-7.1786816395021
 42
-0.2414252246321
  0
VERTEX
  8
Standard
 10
406.615345563901
 20
-3.172484057409
 42
-0.4268398464977
  0
VERTEX
  8
Standard
 10
406.754128599431
 20
-0.0277677366778
 42
-0.390615282984
  0
VERTEX
  8
Standard
 10
409.593587875916
 20
-0.6923535145021
 42
0.1753538151572
  0
VERTEX
  8
Standard
 10
415.570150375916
 20
-3.3290722645021
 42
0.1906316255177
  0
VERTEX
  8
Standard
 10
420.158041000916
 20
-0.5868847645021
 42
0.0562121302631
  0
SEQEND
  0
POLYLINE
  8
Standard
 66
     1
 10
0.0
 20
0.0
 30
0.0
 70
     1
  0
VERTEX
  8
Standard
 10
429.632650375916
 20
19.1885058604979
 42
0.098932016358
  0
VERTEX
  8
Standard
 10
425.695150375916
 20
17.6240527354979
 42
0.0809019593543
  0
VERTEX
  8
Standard
 10
418.510321604014
 20
11.4192266245385
 42
0.1853388159961
  0
VERTEX
  8
Standard
 10
417.001098880953
 20
8.5010391316003
 42
0.444471624156
  0
VERTEX
  8
Standard
 10
417.451009750916
 20
8.1494433604979
 42
0.1389160837998
  0
VERTEX
  8
Standard
 10
422.566244125916
 20
9.9775683604979
 42
0.1064047217617
  0
VERTEX
  8
Standard
 10
429.719105785452
 20
16.8340490911941
 42
0.2942735063349
  0
VERTEX
  8
Standard
 10
430.247884750916
 20
18.8193652354979
 42
0.1428299346568
  0
SEQEND
  0
ENDSEC
  0
EOF
