  0
SECTION
  2
HEADER
  9
$ACADVER
  1
AC1009
  9
$EXTMAX
 10
276.399291992188
 20
42.919921875
 30
0.0
  9
$EXTMIN
 10
-11.8751268386841
 20
-5.3090867996216
 30
0.0
  9
$INSUNITS
 70
     4
  9
$LUNITS
 70
     2
  9
$LUPREC
 70
     4
  9
$MEASUREMENT
 70
     1
  0
ENDSEC
  0
SECTION
  2
TABLES
  0
TABLE
  2
LAYER
 70
     1
  0
LAYER
  2
0
 70
     0
 62
     7
  6
Continuous
  0
LAYER
  2
Standard
 70
     0
 62
    70
  6
Continuous
  0
ENDTAB
  0
TABLE
  2
APPID
 70
     1
  0
APPID
  2
ACAD
 70
     0
  0
ENDTAB
  0
ENDSEC
  0
SECTION
  2
ENTITIES
  0
POLYLINE
  8
Standard
 66
     1
 10
0.0
 20
0.0
 30
0.0
 70
     1
  0
VERTEX
  8
Standard
 10
20.5
 20
12.060546875
 42
0.0
  0
VERTEX
  8
Standard
 10
20.5244140625
 20
12.060546875
 42
0.0668631568981
  0
VERTEX
  8
Standard
 10
13.908203125
 20
-2.099609375
 42
-0.3160802507309
  0
VERTEX
  8
Standard
 10
9.8310546875
 20
-5.2978515625
 42
-0.5411321877488
  0
VERTEX
  8
Standard
 10
7.3408203125
 20
-2.197265625
 42
-0.001485278927
  0
VERTEX
  8
Standard
 10
11.8330078125
 20
6.1767578125
 42
-0.0743067331684
  0
VERTEX
  8
Standard
 10
-0.4140468754878
 20
0.7236376888907
 42
-0.1422487305446
  0
VERTEX
  8
Standard
 10
-8.2263451456925
 20
0.6240531845471
 42
-0.3481260827628
  0
VERTEX
  8
Standard
 10
-11.8559139981247
 20
6.1148511054458
 42
-0.1366862919291
  0
VERTEX
  8
Standard
 10
-7.5417459098647
 20
16.8171437033381
 42
-0.0475594288888
  0
VERTEX
  8
Standard
 10
-2.400390625
 20
23.0224609375
 42
0.0
  0
VERTEX
  8
Standard
 10
-2.400390625
 20
22.998046875
 42
-0.1227387403612
  0
VERTEX
  8
Standard
 10
18.2450308243692
 20
36.2722935798511
 42
-0.126147151398
  0
VERTEX
  8
Standard
 10
27.6012811244522
 20
37.186318267013
 42
-0.6693234130957
  0
VERTEX
  8
Standard
 10
29.618615968351
 20
31.5199366196718
 42
-0.2080381668792
  0
VERTEX
  8
Standard
 10
25.1142578125
 20
28.1982421875
 42
-0.4367291719706
  0
VERTEX
  8
Standard
 10
23.673828125
 20
29.833984375
 42
0.472952609946
  0
VERTEX
  8
Standard
 10
21.5498046875
 20
31.8359375
 42
0.1132848827378
  0
VERTEX
  8
Standard
 10
11.80859375
 20
28.173828125
 42
0.1049954332943
  0
VERTEX
  8
Standard
 10
-2.4551800519829
 20
15.0924000417089
 42
0.1119425139717
  0
VERTEX
  8
Standard
 10
-5.4663324917173
 20
8.4301612574169
 42
0.5613685198582
  0
VERTEX
  8
Standard
 10
-2.595703125
 20
5.224609375
 42
0.1498460224216
  0
VERTEX
  8
Standard
 10
14.6236807217413
 20
12.7329070275786
 42
0.1016120781442
  0
VERTEX
  8
Standard
 10
18.25390625
 20
18.2861328125
 42
-0.3322638938669
  0
VERTEX
  8
Standard
 10
22.2578125
 20
20.556640625
 42
-0.3697852781586
  0
VERTEX
  8
Standard
 10
24.8150277669224
 20
19.420869388762
 42
-0.141493431401
  0
VERTEX
  8
Standard
 10
22.94140625
 20
15.6005859375
 42
0.030807245879
  0
SEQEND
  0
POLYLINE
  8
Standard
 66
     1
 10
0.0
 20
0.0
 30
0.0
 70
     1
  0
VERTEX
  8
Standard
 10
49.1376953125
 20
8.3984375
 42
-0.1218721648104
  0
VERTEX
  8
Standard
 10
42.814453125
 20
2.3193359375
 42
-0.1450204323281
  0
VERTEX
  8
Standard
 10
31.974609375
 20
-1.1962890625
 42
-0.5137403007354
  0
VERTEX
  8
Standard
 10
25.6610102632903
 20
5.0271526139762
 42
-0.1766592137586
  0
VERTEX
  8
Standard
 10
35.63671875
 20
21.4599609375
 42
-0.1082252558715
  0
VERTEX
  8
Standard
 10
44.5260664283555
 20
26.8892482534137
 42
-0.1629419697821
  0
VERTEX
  8
Standard
 10
50.1270676440857
 20
27.0856305311375
 42
-0.3948053330869
  0
VERTEX
  8
Standard
 10
52.0673828125
 20
21.58203125
 42
-0.1527424532832
  0
VERTEX
  8
Standard
 10
45.2314453125
 20
13.4765625
 42
-0.1038648724339
  0
VERTEX
  8
Standard
 10
32.9755859375
 20
8.1787109375
 42
0.7884524825658
  0
VERTEX
  8
Standard
 10
34.6357421875
 20
4.00390625
 42
0.1447108836481
  0
VERTEX
  8
Standard
 10
46.1103515625
 20
9.0576171875
 42
-0.3037583175651
  0
VERTEX
  8
Standard
 10
48.8196385263621
 20
9.9404185616121
 42
-0.1554986227037
  0
SEQEND
  0
POLYLINE
  8
Standard
 66
     1
 10
0.0
 20
0.0
 30
0.0
 70
     1
  0
VERTEX
  8
Standard
 10
34.2451171875
 20
12.7197265625
 42
0.1752988195188
  0
VERTEX
  8
Standard
 10
45.8335429030713
 20
19.1656166888855
 42
0.2670155382293
  0
VERTEX
  8
Standard
 10
46.6474609375
 20
21.923828125
 42
0.3955425276321
  0
VERTEX
  8
Standard
 10
44.0603101359354
 20
22.1189232663575
 42
0.1399387891949
  0
SEQEND
  0
POLYLINE
  8
Standard
 66
     1
 10
0.0
 20
0.0
 30
0.0
 70
     1
  0
VERTEX
  8
Standard
 10
73.33203125
 20
41.3330078125
 42
-0.6244333707717
  0
VERTEX
  8
Standard
 10
74.9921875
 20
38.4521484375
 42
-0.052441625329
  0
VERTEX
  8
Standard
 10
69.083984375
 20
28.0517578125
 42
0.0877307744247
  0
VERTEX
  8
Standard
 10
58.6103515625
 20
3.076171875
 42
-0.3694088864774
  0
VERTEX
  8
Standard
 10
53.6298828125
 20
-1.9287109375
 42
-0.495235871627
  0
VERTEX
  8
Standard
 10
51.8101517020963
 20
1.1498901172352
 42
-0.0563163294344
  0
VERTEX
  8
Standard
 10
57.0214675888683
 20
15.5737295504924
 42
-0.0450967359289
  0
VERTEX
  8
Standard
 10
68.5622434887827
 20
37.6524787944945
 42
-0.2377142365788
  0
SEQEND
  0
POLYLINE
  8
Standard
 66
     1
 10
0.0
 20
0.0
 30
0.0
 70
     1
  0
VERTEX
  8
Standard
 10
90.421875
 20
36.279296875
 42
-0.2511563644605
  0
VERTEX
  8
Standard
 10
84.66015625
 20
31.93359375
 42
-0.5106540142334
  0
VERTEX
  8
Standard
 10
82.169921875
 20
35.595703125
 42
-0.3984715354999
  0
VERTEX
  8
Standard
 10
89.1400416097687
 20
39.3277802504684
 42
-0.4348459681396
  0
SEQEND
  0
POLYLINE
  8
Standard
 66
     1
 10
0.0
 20
0.0
 30
0.0
 70
     1
  0
VERTEX
  8
Standard
 10
71.7939453125
 20
16.2109375
 42
0.0
  0
VERTEX
  8
Standard
 10
71.7939453125
 20
16.1865234375
 42
-0.0391450482256
  0
VERTEX
  8
Standard
 10
76.115234375
 20
24.2919921875
 42
-0.4255790576773
  0
VERTEX
  8
Standard
 10
81.0712890625
 20
24.7314453125
 42
-0.3375240958119
  0
VERTEX
  8
Standard
 10
80.3357387966823
 20
20.9130736614128
 42
0.0718054399288
  0
VERTEX
  8
Standard
 10
72.6728515625
 20
5.908203125
 42
-0.0088600639176
  0
VERTEX
  8
Standard
 10
71.6474609375
 20
1.1962890625
 42
-0.2338752800435
  0
VERTEX
  8
Standard
 10
67.47265625
 20
-1.26953125
 42
-0.5307214761074
  0
VERTEX
  8
Standard
 10
65.461046705716
 20
1.9633822119898
 42
-0.0533261751855
  0
VERTEX
  8
Standard
 10
70.5244140625
 20
13.720703125
 42
0.0036512084095
  0
SEQEND
  0
POLYLINE
  8
Standard
 66
     1
 10
0.0
 20
0.0
 30
0.0
 70
     1
  0
VERTEX
  8
Standard
 10
116.319092641068
 20
12.1337890625
 42
-0.18115021034
  0
VERTEX
  8
Standard
 10
111.070069203568
 20
11.4013671875
 42
0.0397100102591
  0
VERTEX
  8
Standard
 10
104.551514516068
 20
11.572265625
 42
0.0113713748471
  0
VERTEX
  8
Standard
 10
101.572998891068
 20
4.0283203125
 42
-0.3731832009527
  0
VERTEX
  8
Standard
 10
98.570069203568
 20
1.9287109375
 42
-0.6989161805984
  0
VERTEX
  8
Standard
 10
96.6061661659881
 20
3.4327962991824
 42
-0.0391450467769
  0
VERTEX
  8
Standard
 10
96.861084828568
 20
4.39453125
 42
0.0
  0
VERTEX
  8
Standard
 10
100.034912953568
 20
11.5966796875
 42
0.0827625302982
  0
VERTEX
  8
Standard
 10
93.784912953568
 20
11.23046875
 42
-0.7749001686395
  0
VERTEX
  8
Standard
 10
93.076905141068
 20
14.9658203125
 42
-0.2725539782809
  0
VERTEX
  8
Standard
 10
97.373780141068
 20
15.478515625
 42
-0.0237960416286
  0
VERTEX
  8
Standard
 10
101.768311391068
 20
15.6494140625
 42
0.0205062567036
  0
VERTEX
  8
Standard
 10
103.819092641068
 20
22.3388671875
 42
-0.3755760587853
  0
VERTEX
  8
Standard
 10
107.871827016068
 20
26.3671875
 42
-0.4394234320038
  0
VERTEX
  8
Standard
 10
109.165772328568
 20
23.681640625
 42
0.0661218529382
  0
VERTEX
  8
Standard
 10
106.138428578568
 20
15.8203125
 42
-0.0326565802754
  0
VERTEX
  8
Standard
 10
115.065650855331
 20
15.8022424441312
 42
-0.5919864325023
  0
VERTEX
  8
Standard
 10
116.946520756771
 20
13.5786773005592
 42
-0.1726909586393
  0
SEQEND
  0
POLYLINE
  8
Standard
 66
     1
 10
0.0
 20
0.0
 30
0.0
 70
     1
  0
VERTEX
  8
Standard
 10
139.359864969636
 20
13.720703125
 42
0.0684344294152
  0
VERTEX
  8
Standard
 10
135.941896219636
 20
6.4453125
 42
-0.1161049383663
  0
VERTEX
  8
Standard
 10
131.733945736672
 20
-0.8787818405835
 42
-0.743444779488
  0
VERTEX
  8
Standard
 10
127.368397341576
 20
0.6259822880673
 42
-0.0851726555905
  0
VERTEX
  8
Standard
 10
129.887208719636
 20
6.4697265625
 42
0.0195383061081
  0
VERTEX
  8
Standard
 10
142.484864969636
 20
33.251953125
 42
-0.4098071480352
  0
VERTEX
  8
Standard
 10
147.475458270326
 20
35.3442208630907
 42
-0.311086225355
  0
VERTEX
  8
Standard
 10
147.978029032136
 20
31.6162109375
 42
0.0212842005963
  0
VERTEX
  8
Standard
 10
142.191896219636
 20
19.287109375
 42
0.1742622766505
  0
VERTEX
  8
Standard
 10
143.876466532136
 20
19.04296875
 42
0.0520569607981
  0
VERTEX
  8
Standard
 10
159.239728991767
 20
20.2911825389022
 42
0.3158759022389
  0
VERTEX
  8
Standard
 10
161.739618187255
 20
22.1431729315499
 42
0.0421780565933
  0
VERTEX
  8
Standard
 10
167.118654032136
 20
34.619140625
 42
-0.3825472193306
  0
VERTEX
  8
Standard
 10
172.318414431569
 20
37.0511958359874
 42
-0.4362517546015
  0
VERTEX
  8
Standard
 10
173.344239969636
 20
34.2529296875
 42
0.0288891104855
  0
VERTEX
  8
Standard
 10
159.257325907136
 20
2.5390625
 42
-0.2439802792124
  0
VERTEX
  8
Standard
 10
154.374513407136
 20
-1.3671875
 42
-0.561081407407
  0
VERTEX
  8
Standard
 10
152.299318094636
 20
1.513671875
 42
0.0193647124424
  0
VERTEX
  8
Standard
 10
157.792482157136
 20
13.8427734375
 42
0.5384493261965
  0
VERTEX
  8
Standard
 10
157.743654032136
 20
15.0146484375
 42
0.0198851403147
  0
VERTEX
  8
Standard
 10
140.38661449543
 20
13.9191049401607
 42
0.0576939329837
  0
SEQEND
  0
POLYLINE
  8
Standard
 66
     1
 10
0.0
 20
0.0
 30
0.0
 70
     1
  0
VERTEX
  8
Standard
 10
191.117677469636
 20
8.3984375
 42
-0.1218721648104
  0
VERTEX
  8
Standard
 10
184.794435282136
 20
2.3193359375
 42
-0.1450204323281
  0
VERTEX
  8
Standard
 10
173.954591532136
 20
-1.1962890625
 42
-0.5137403007354
  0
VERTEX
  8
Standard
 10
167.640992420426
 20
5.0271526139762
 42
-0.1766592137586
  0
VERTEX
  8
Standard
 10
177.616700907136
 20
21.4599609375
 42
-0.1082252558715
  0
VERTEX
  8
Standard
 10
186.506048585492
 20
26.8892482534137
 42
-0.1629419697821
  0
VERTEX
  8
Standard
 10
192.107049801222
 20
27.0856305311375
 42
-0.3948053330869
  0
VERTEX
  8
Standard
 10
194.047364969636
 20
21.58203125
 42
-0.1527424532832
  0
VERTEX
  8
Standard
 10
187.211427469636
 20
13.4765625
 42
-0.1038648724339
  0
VERTEX
  8
Standard
 10
174.955568094636
 20
8.1787109375
 42
0.7884524825658
  0
VERTEX
  8
Standard
 10
176.615724344636
 20
4.00390625
 42
0.1447108836481
  0
VERTEX
  8
Standard
 10
188.090333719636
 20
9.0576171875
 42
-0.3037583175652
  0
VERTEX
  8
Standard
 10
190.799620683498
 20
9.9404185616121
 42
-0.1554986227037
  0
SEQEND
  0
POLYLINE
  8
Standard
 66
     1
 10
0.0
 20
0.0
 30
0.0
 70
     1
  0
VERTEX
  8
Standard
 10
176.225099344636
 20
12.7197265625
 42
0.1752988195188
  0
VERTEX
  8
Standard
 10
187.813525060207
 20
19.1656166888855
 42
0.2670155382293
  0
VERTEX
  8
Standard
 10
188.627443094636
 20
21.923828125
 42
0.395542527632
  0
VERTEX
  8
Standard
 10
186.040292293071
 20
22.1189232663575
 42
0.1399387891949
  0
SEQEND
  0
POLYLINE
  8
Standard
 66
     1
 10
0.0
 20
0.0
 30
0.0
 70
     1
  0
VERTEX
  8
Standard
 10
202.812013407136
 20
23.7060546875
 42
-0.0392143569796
  0
VERTEX
  8
Standard
 10
211.869630594636
 20
40.33203125
 42
-0.2460032271469
  0
VERTEX
  8
Standard
 10
216.386232157136
 20
42.919921875
 42
-0.4804852572328
  0
VERTEX
  8
Standard
 10
217.513708167227
 20
40.5153394576554
 42
-0.0681314645555
  0
VERTEX
  8
Standard
 10
211.771974344636
 20
29.345703125
 42
0.0133812411737
  0
VERTEX
  8
Standard
 10
205.375489969636
 20
17.96875
 42
-0.0945284235199
  0
VERTEX
  8
Standard
 10
217.656567799968
 20
26.155180583441
 42
-0.2336843009039
  0
VERTEX
  8
Standard
 10
223.314546624563
 20
26.50526289076
 42
-0.3133322665299
  0
VERTEX
  8
Standard
 10
224.516114969636
 20
20.3857421875
 42
-0.1392027491283
  0
VERTEX
  8
Standard
 10
213.944825907136
 20
6.25
 42
-0.1064576389728
  0
VERTEX
  8
Standard
 10
203.447686567836
 20
0.2276269989112
 42
-0.2324795722284
  0
VERTEX
  8
Standard
 10
196.146974344636
 20
0.68359375
 42
-0.2693667270236
  0
VERTEX
  8
Standard
 10
195.280597590028
 20
4.0126122988816
 42
-0.0444945350606
  0
VERTEX
  8
Standard
 10
194.642000202734
 20
6.271756225825
 42
-0.0307606421828
  0
SEQEND
  0
POLYLINE
  8
Standard
 66
     1
 10
0.0
 20
0.0
 30
0.0
 70
     1
  0
VERTEX
  8
Standard
 10
199.809083719636
 20
6.3720703125
 42
0.3654835220342
  0
VERTEX
  8
Standard
 10
201.518068094636
 20
4.6630859375
 42
0.1463680859504
  0
VERTEX
  8
Standard
 10
210.997391083946
 20
9.4795612963111
 42
0.1178695647518
  0
VERTEX
  8
Standard
 10
218.437013407136
 20
19.091796875
 42
0.1959789556603
  0
VERTEX
  8
Standard
 10
218.814148083608
 20
21.3092862714762
 42
0.3282514260689
  0
VERTEX
  8
Standard
 10
218.510255594636
 20
21.5087890625
 42
0.1451223991176
  0
VERTEX
  8
Standard
 10
211.502900468049
 20
18.6119426081482
 42
0.0855290498901
  0
VERTEX
  8
Standard
 10
201.30088789216
 20
9.1341383582322
 42
0.0703727703214
  0
SEQEND
  0
POLYLINE
  8
Standard
 66
     1
 10
0.0
 20
0.0
 30
0.0
 70
     1
  0
VERTEX
  8
Standard
 10
231.815919657136
 20
23.7060546875
 42
-0.0392143569796
  0
VERTEX
  8
Standard
 10
240.873536844636
 20
40.33203125
 42
-0.2460032271469
  0
VERTEX
  8
Standard
 10
245.390138407136
 20
42.919921875
 42
-0.4804852572321
  0
VERTEX
  8
Standard
 10
246.517614417227
 20
40.5153394576554
 42
-0.0681314645555
  0
VERTEX
  8
Standard
 10
240.775880594636
 20
29.345703125
 42
0.0133812411737
  0
VERTEX
  8
Standard
 10
234.379396219636
 20
17.96875
 42
-0.0945284235199
  0
VERTEX
  8
Standard
 10
246.660474049968
 20
26.155180583441
 42
-0.2336843009038
  0
VERTEX
  8
Standard
 10
252.318452874563
 20
26.50526289076
 42
-0.3133322665299
  0
VERTEX
  8
Standard
 10
253.520021219636
 20
20.3857421875
 42
-0.1392027491283
  0
VERTEX
  8
Standard
 10
242.948732157136
 20
6.25
 42
-0.1064576389728
  0
VERTEX
  8
Standard
 10
232.451592817836
 20
0.2276269989112
 42
-0.2324795722284
  0
VERTEX
  8
Standard
 10
225.150880594636
 20
0.68359375
 42
-0.2693667270236
  0
VERTEX
  8
Standard
 10
224.284503840028
 20
4.0126122988816
 42
-0.0444945350606
  0
VERTEX
  8
Standard
 10
223.645906452734
 20
6.271756225825
 42
-0.0307606421828
  0
SEQEND
  0
POLYLINE
  8
Standard
 66
     1
 10
0.0
 20
0.0
 30
0.0
 70
     1
  0
VERTEX
  8
Standard
 10
228.812989969636
 20
6.3720703125
 42
0.3654835220342
  0
VERTEX
  8
Standard
 10
230.521974344636
 20
4.6630859375
 42
0.1463680859504
  0
VERTEX
  8
Standard
 10
240.001297333946
 20
9.4795612963111
 42
0.1178695647518
  0
VERTEX
  8
Standard
 10
247.440919657136
 20
19.091796875
 42
0.1959789556604
  0
VERTEX
  8
Standard
 10
247.818054333608
 20
21.3092862714762
 42
0.3282514260689
  0
VERTEX
  8
Standard
 10
247.514161844636
 20
21.5087890625
 42
0.1451223991176
  0
VERTEX
  8
Standard
 10
240.506806718049
 20
18.6119426081482
 42
0.0855290498901
  0
VERTEX
  8
Standard
 10
230.30479414216
 20
9.1341383582322
 42
0.0703727703214
  0
SEQEND
  0
POLYLINE
  8
Standard
 66
     1
 10
0.0
 20
0.0
 30
0.0
 70
     1
  0
VERTEX
  8
Standard
 10
276.200685282136
 20
36.279296875
 42
-0.2511563644605
  0
VERTEX
  8
Standard
 10
270.438966532136
 20
31.93359375
 42
-0.5106540142333
  0
VERTEX
  8
Standard
 10
267.948732157136
 20
35.595703125
 42
-0.3984715354999
  0
VERTEX
  8
Standard
 10
274.918851891905
 20
39.3277802504684
 42
-0.4348459681396
  0
SEQEND
  0
POLYLINE
  8
Standard
 66
     1
 10
0.0
 20
0.0
 30
0.0
 70
     1
  0
VERTEX
  8
Standard
 10
257.572755594636
 20
16.2109375
 42
0.0
  0
VERTEX
  8
Standard
 10
257.572755594636
 20
16.1865234375
 42
-0.0391450482256
  0
VERTEX
  8
Standard
 10
261.894044657136
 20
24.2919921875
 42
-0.4255790576773
  0
VERTEX
  8
Standard
 10
266.850099344636
 20
24.7314453125
 42
-0.337524095812
  0
VERTEX
  8
Standard
 10
266.114549078818
 20
20.9130736614128
 42
0.0718054399288
  0
VERTEX
  8
Standard
 10
258.451661844636
 20
5.908203125
 42
-0.0088600639176
  0
VERTEX
  8
Standard
 10
257.426271219636
 20
1.1962890625
 42
-0.2338752800435
  0
VERTEX
  8
Standard
 10
253.251466532136
 20
-1.26953125
 42
-0.5307214761074
  0
VERTEX
  8
Standard
 10
251.239856987852
 20
1.9633822119898
 42
-0.0533261751855
  0
VERTEX
  8
Standard
 10
256.303224344636
 20
13.720703125
 42
0.0036512084095
  0
SEQEND
  0
ENDSEC
  0
EOF
