999
"DXF R12 Output" (www.mydxf.blogspot.com)
 0 
SECTION
 2 
HEADER
 9 
$ACADVER
 1 
AC1009
 9 
$EXTMIN
 10 
 0 
 20 
 0 
 9 
$EXTMAX
 10 
 8.5 
 20 
 11 
 0 
ENDSEC
 0 
SECTION
 2 
ENTITIES
0
LINE
8
Image
10
833.690423
20
-242.215950
11
831.328615
21
-239.461421
0
LINE
8
Image
10
831.328615
20
-239.461421
11
829.139958
21
-236.386380
0
LINE
8
Image
10
829.139958
20
-236.386380
11
827.130091
21
-233.003280
0
LINE
8
Image
10
827.130091
20
-233.003280
11
825.304654
21
-229.324574
0
LINE
8
Image
10
825.304654
20
-229.324574
11
823.669286
21
-225.362715
0
LINE
8
Image
10
823.669286
20
-225.362715
11
822.229627
21
-221.130157
0
LINE
8
Image
10
822.229627
20
-221.130157
11
820.991316
21
-216.639353
0
LINE
8
Image
10
820.991316
20
-216.639353
11
819.959994
21
-211.902755
0
LINE
8
Image
10
819.959994
20
-211.902755
11
819.058462
21
-206.829153
0
LINE
8
Image
10
819.058462
20
-206.829153
11
818.403263
21
-202.285562
0
LINE
8
Image
10
818.403263
20
-202.285562
11
817.993054
21
-198.162298
0
LINE
8
Image
10
817.993054
20
-198.162298
11
817.826490
21
-194.349678
0
LINE
8
Image
10
817.826490
20
-194.349678
11
817.902227
21
-190.738017
0
LINE
8
Image
10
817.902227
20
-190.738017
11
818.218923
21
-187.217633
0
LINE
8
Image
10
818.218923
20
-187.217633
11
818.775233
21
-183.678841
0
LINE
8
Image
10
818.775233
20
-183.678841
11
819.569814
21
-180.011958
0
LINE
8
Image
10
819.569814
20
-180.011958
11
820.451901
21
-176.738892
0
LINE
8
Image
10
820.451901
20
-176.738892
11
821.449779
21
-173.789876
0
LINE
8
Image
10
821.449779
20
-173.789876
11
822.592308
21
-171.151013
0
LINE
8
Image
10
822.592308
20
-171.151013
11
823.908349
21
-168.808411
0
LINE
8
Image
10
823.908349
20
-168.808411
11
825.426766
21
-166.748175
0
LINE
8
Image
10
825.426766
20
-166.748175
11
827.176419
21
-164.956411
0
LINE
8
Image
10
827.176419
20
-164.956411
11
829.186171
21
-163.419224
0
LINE
8
Image
10
829.186171
20
-163.419224
11
831.484882
21
-162.122721
0
LINE
8
Image
10
831.484882
20
-162.122721
11
834.101416
21
-161.053006
0
LINE
8
Image
10
834.101416
20
-161.053006
11
837.064633
21
-160.196186
0
LINE
8
Image
10
837.064633
20
-160.196186
11
840.403395
21
-159.538367
0
LINE
8
Image
10
840.403395
20
-159.538367
11
844.146564
21
-159.065653
0
LINE
8
Image
10
844.146564
20
-159.065653
11
848.323001
21
-158.764152
0
LINE
8
Image
10
848.323001
20
-158.764152
11
852.961569
21
-158.619969
0
LINE
8
Image
10
852.961569
20
-158.619969
11
863.740543
21
-158.747978
0
LINE
8
Image
10
863.740543
20
-158.747978
11
874.761911
21
-159.226334
0
LINE
8
Image
10
874.761911
20
-159.226334
11
878.735678
21
-159.561386
0
LINE
8
Image
10
878.735678
20
-159.561386
11
881.991310
21
-160.014550
0
LINE
8
Image
10
881.991310
20
-160.014550
11
884.758663
21
-160.626474
0
LINE
8
Image
10
884.758663
20
-160.626474
11
887.267595
21
-161.437805
0
LINE
8
Image
10
887.267595
20
-161.437805
11
889.747962
21
-162.489190
0
LINE
8
Image
10
889.747962
20
-162.489190
11
892.429622
21
-163.821277
0
LINE
8
Image
10
892.429622
20
-163.821277
11
895.673243
21
-165.610152
0
LINE
8
Image
10
895.673243
20
-165.610152
11
898.305505
21
-167.317654
0
LINE
8
Image
10
898.305505
20
-167.317654
11
900.380719
21
-169.017786
0
LINE
8
Image
10
900.380719
20
-169.017786
11
901.953198
21
-170.784550
0
LINE
8
Image
10
901.953198
20
-170.784550
11
903.077254
21
-172.691947
0
LINE
8
Image
10
903.077254
20
-172.691947
11
903.807201
21
-174.813980
0
LINE
8
Image
10
903.807201
20
-174.813980
11
904.197351
21
-177.224651
0
LINE
8
Image
10
904.197351
20
-177.224651
11
904.302017
21
-179.997961
0
LINE
8
Image
10
904.302017
20
-179.997961
11
904.214438
21
-181.684294
0
LINE
8
Image
10
904.214438
20
-181.684294
11
903.971162
21
-183.285429
0
LINE
8
Image
10
903.971162
20
-183.285429
11
903.566440
21
-184.806162
0
LINE
8
Image
10
903.566440
20
-184.806162
11
902.994520
21
-186.251292
0
LINE
8
Image
10
902.994520
20
-186.251292
11
902.249649
21
-187.625615
0
LINE
8
Image
10
902.249649
20
-187.625615
11
901.326078
21
-188.933931
0
LINE
8
Image
10
901.326078
20
-188.933931
11
900.218056
21
-190.181035
0
LINE
8
Image
10
900.218056
20
-190.181035
11
898.919830
21
-191.371726
0
LINE
8
Image
10
898.919830
20
-191.371726
11
897.425649
21
-192.510802
0
LINE
8
Image
10
897.425649
20
-192.510802
11
895.729764
21
-193.603059
0
LINE
8
Image
10
895.729764
20
-193.603059
11
891.709871
21
-195.666310
0
LINE
8
Image
10
891.709871
20
-195.666310
11
886.814142
21
-197.599859
0
LINE
8
Image
10
886.814142
20
-197.599859
11
880.996567
21
-199.442087
0
LINE
8
Image
10
880.996567
20
-199.442087
11
877.449795
21
-200.637662
0
LINE
8
Image
10
877.449795
20
-200.637662
11
874.366770
21
-202.113701
0
LINE
8
Image
10
874.366770
20
-202.113701
11
871.637546
21
-203.994636
0
LINE
8
Image
10
871.637546
20
-203.994636
11
869.152178
21
-206.404903
0
LINE
8
Image
10
869.152178
20
-206.404903
11
866.800721
21
-209.468934
0
LINE
8
Image
10
866.800721
20
-209.468934
11
864.473228
21
-213.311165
0
LINE
8
Image
10
864.473228
20
-213.311165
11
862.059755
21
-218.056029
0
LINE
8
Image
10
862.059755
20
-218.056029
11
859.450356
21
-223.827961
0
LINE
8
Image
10
859.450356
20
-223.827961
11
857.004857
21
-229.172035
0
LINE
8
Image
10
857.004857
20
-229.172035
11
854.610101
21
-233.811149
0
LINE
8
Image
10
854.610101
20
-233.811149
11
852.267935
21
-237.742967
0
LINE
8
Image
10
852.267935
20
-237.742967
11
849.980207
21
-240.965151
0
LINE
8
Image
10
849.980207
20
-240.965151
11
847.748761
21
-243.475363
0
LINE
8
Image
10
847.748761
20
-243.475363
11
845.575444
21
-245.271265
0
LINE
8
Image
10
845.575444
20
-245.271265
11
844.511161
21
-245.900620
0
LINE
8
Image
10
844.511161
20
-245.900620
11
843.462103
21
-246.350521
0
LINE
8
Image
10
843.462103
20
-246.350521
11
842.428501
21
-246.620676
0
LINE
8
Image
10
842.428501
20
-246.620676
11
841.410585
21
-246.710792
0
LINE
8
Image
10
841.410585
20
-246.710792
11
839.726449
21
-246.356120
0
LINE
8
Image
10
839.726449
20
-246.356120
11
837.709482
21
-245.390430
0
LINE
8
Image
10
837.709482
20
-245.390430
11
835.613026
21
-243.961211
0
LINE
8
Image
10
835.613026
20
-243.961211
11
833.690423
21
-242.215950
0
LINE
8
Image
10
833.690423
20
-242.215950
11
833.690423
21
-242.215950
0
LINE
8
Image
10
682.286215
20
-227.083681
11
680.388781
21
-224.921067
0
LINE
8
Image
10
680.388781
20
-224.921067
11
678.583049
21
-222.343615
0
LINE
8
Image
10
678.583049
20
-222.343615
11
676.879650
21
-219.397684
0
LINE
8
Image
10
676.879650
20
-219.397684
11
675.289218
21
-216.129630
0
LINE
8
Image
10
675.289218
20
-216.129630
11
673.822386
21
-212.585809
0
LINE
8
Image
10
673.822386
20
-212.585809
11
672.489789
21
-208.812579
0
LINE
8
Image
10
672.489789
20
-208.812579
11
671.302058
21
-204.856296
0
LINE
8
Image
10
671.302058
20
-204.856296
11
670.269827
21
-200.763318
0
LINE
8
Image
10
670.269827
20
-200.763318
11
669.403730
21
-196.580001
0
LINE
8
Image
10
669.403730
20
-196.580001
11
668.714400
21
-192.352702
0
LINE
8
Image
10
668.714400
20
-192.352702
11
668.212469
21
-188.127778
0
LINE
8
Image
10
668.212469
20
-188.127778
11
667.908573
21
-183.951585
0
LINE
8
Image
10
667.908573
20
-183.951585
11
667.813343
21
-179.870481
0
LINE
8
Image
10
667.813343
20
-179.870481
11
667.937412
21
-175.930822
0
LINE
8
Image
10
667.937412
20
-175.930822
11
668.291416
21
-172.178965
0
LINE
8
Image
10
668.291416
20
-172.178965
11
668.885985
21
-168.661268
0
LINE
8
Image
10
668.885985
20
-168.661268
11
670.049380
21
-163.745843
0
LINE
8
Image
10
670.049380
20
-163.745843
11
671.315598
21
-159.619768
0
LINE
8
Image
10
671.315598
20
-159.619768
11
672.748399
21
-156.192942
0
LINE
8
Image
10
672.748399
20
-156.192942
11
674.411543
21
-153.375259
0
LINE
8
Image
10
674.411543
20
-153.375259
11
676.368788
21
-151.076618
0
LINE
8
Image
10
676.368788
20
-151.076618
11
678.683894
21
-149.206915
0
LINE
8
Image
10
678.683894
20
-149.206915
11
681.420619
21
-147.676047
0
LINE
8
Image
10
681.420619
20
-147.676047
11
684.642723
21
-146.393910
0
LINE
8
Image
10
684.642723
20
-146.393910
11
686.941326
21
-145.712933
0
LINE
8
Image
10
686.941326
20
-145.712933
11
689.525494
21
-145.130252
0
LINE
8
Image
10
689.525494
20
-145.130252
11
695.399807
21
-144.257871
0
LINE
8
Image
10
695.399807
20
-144.257871
11
701.964235
21
-143.772948
0
LINE
8
Image
10
701.964235
20
-143.772948
11
708.917347
21
-143.671665
0
LINE
8
Image
10
708.917347
20
-143.671665
11
715.957714
21
-143.950204
0
LINE
8
Image
10
715.957714
20
-143.950204
11
722.783908
21
-144.604748
0
LINE
8
Image
10
722.783908
20
-144.604748
11
729.094498
21
-145.631480
0
LINE
8
Image
10
729.094498
20
-145.631480
11
731.962245
21
-146.283223
0
LINE
8
Image
10
731.962245
20
-146.283223
11
734.588056
21
-147.026580
0
LINE
8
Image
10
734.588056
20
-147.026580
11
741.779171
21
-149.515567
0
LINE
8
Image
10
741.779171
20
-149.515567
11
744.420720
21
-150.676848
0
LINE
8
Image
10
744.420720
20
-150.676848
11
746.590308
21
-151.887446
0
LINE
8
Image
10
746.590308
20
-151.887446
11
748.410970
21
-153.225958
0
LINE
8
Image
10
748.410970
20
-153.225958
11
750.005737
21
-154.770976
0
LINE
8
Image
10
750.005737
20
-154.770976
11
751.497645
21
-156.601097
0
LINE
8
Image
10
751.497645
20
-156.601097
11
753.009727
21
-158.794915
0
LINE
8
Image
10
753.009727
20
-158.794915
11
754.427430
21
-161.294624
0
LINE
8
Image
10
754.427430
20
-161.294624
11
754.825798
21
-162.394779
0
LINE
8
Image
10
754.825798
20
-162.394779
11
755.025456
21
-163.484705
0
LINE
8
Image
10
755.025456
20
-163.484705
11
755.032610
21
-164.631578
0
LINE
8
Image
10
755.032610
20
-164.631578
11
754.853470
21
-165.902576
0
LINE
8
Image
10
754.853470
20
-165.902576
11
753.961141
21
-169.085659
0
LINE
8
Image
10
753.961141
20
-169.085659
11
752.895372
21
-171.546948
0
LINE
8
Image
10
752.895372
20
-171.546948
11
751.360454
21
-173.847282
0
LINE
8
Image
10
751.360454
20
-173.847282
11
749.326506
21
-176.007607
0
LINE
8
Image
10
749.326506
20
-176.007607
11
746.763643
21
-178.048868
0
LINE
8
Image
10
746.763643
20
-178.048868
11
743.641984
21
-179.992010
0
LINE
8
Image
10
743.641984
20
-179.992010
11
739.931645
21
-181.857979
0
LINE
8
Image
10
739.931645
20
-181.857979
11
735.602743
21
-183.667721
0
LINE
8
Image
10
735.602743
20
-183.667721
11
730.625396
21
-185.442180
0
LINE
8
Image
10
730.625396
20
-185.442180
11
726.717371
21
-186.922404
0
LINE
8
Image
10
726.717371
20
-186.922404
11
723.060135
21
-188.633719
0
LINE
8
Image
10
723.060135
20
-188.633719
11
720.063457
21
-190.364173
0
LINE
8
Image
10
720.063457
20
-190.364173
11
718.137105
21
-191.901815
0
LINE
8
Image
10
718.137105
20
-191.901815
11
716.477240
21
-194.316103
0
LINE
8
Image
10
716.477240
20
-194.316103
11
714.206043
21
-198.433463
0
LINE
8
Image
10
714.206043
20
-198.433463
11
711.622497
21
-203.677402
0
LINE
8
Image
10
711.622497
20
-203.677402
11
709.025581
21
-209.471423
0
LINE
8
Image
10
709.025581
20
-209.471423
11
705.484654
21
-217.204653
0
LINE
8
Image
10
705.484654
20
-217.204653
11
703.788196
21
-220.443850
0
LINE
8
Image
10
703.788196
20
-220.443850
11
702.130258
21
-223.271893
0
LINE
8
Image
10
702.130258
20
-223.271893
11
700.502726
21
-225.694126
0
LINE
8
Image
10
700.502726
20
-225.694126
11
698.897487
21
-227.715895
0
LINE
8
Image
10
698.897487
20
-227.715895
11
697.306427
21
-229.342542
0
LINE
8
Image
10
697.306427
20
-229.342542
11
695.721432
21
-230.579411
0
LINE
8
Image
10
695.721432
20
-230.579411
11
694.134389
21
-231.431848
0
LINE
8
Image
10
694.134389
20
-231.431848
11
692.537185
21
-231.905196
0
LINE
8
Image
10
692.537185
20
-231.905196
11
690.921706
21
-232.004798
0
LINE
8
Image
10
690.921706
20
-232.004798
11
689.279838
21
-231.736000
0
LINE
8
Image
10
689.279838
20
-231.736000
11
687.603469
21
-231.104146
0
LINE
8
Image
10
687.603469
20
-231.104146
11
685.884484
21
-230.114578
0
LINE
8
Image
10
685.884484
20
-230.114578
11
684.114771
21
-228.772642
0
LINE
8
Image
10
684.114771
20
-228.772642
11
682.286215
21
-227.083681
0
LINE
8
Image
10
682.286215
20
-227.083681
11
682.286215
21
-227.083681
0
LINE
8
Image
10
783.182190
20
-224.049920
11
780.041495
21
-221.939498
0
LINE
8
Image
10
780.041495
20
-221.939498
11
777.305660
21
-219.833016
0
LINE
8
Image
10
777.305660
20
-219.833016
11
774.934694
21
-217.681827
0
LINE
8
Image
10
774.934694
20
-217.681827
11
772.888602
21
-215.437283
0
LINE
8
Image
10
772.888602
20
-215.437283
11
771.127391
21
-213.050739
0
LINE
8
Image
10
771.127391
20
-213.050739
11
769.611069
21
-210.473549
0
LINE
8
Image
10
769.611069
20
-210.473549
11
768.299642
21
-207.657064
0
LINE
8
Image
10
768.299642
20
-207.657064
11
767.153117
21
-204.552640
0
LINE
8
Image
10
767.153117
20
-204.552640
11
766.371537
21
-201.801878
0
LINE
8
Image
10
766.371537
20
-201.801878
11
765.917370
21
-199.244701
0
LINE
8
Image
10
765.917370
20
-199.244701
11
765.796333
21
-196.848576
0
LINE
8
Image
10
765.796333
20
-196.848576
11
766.014140
21
-194.580969
0
LINE
8
Image
10
766.014140
20
-194.580969
11
766.576509
21
-192.409347
0
LINE
8
Image
10
766.576509
20
-192.409347
11
767.489155
21
-190.301174
0
LINE
8
Image
10
767.489155
20
-190.301174
11
768.757796
21
-188.223918
0
LINE
8
Image
10
768.757796
20
-188.223918
11
770.388147
21
-186.145045
0
LINE
8
Image
10
770.388147
20
-186.145045
11
771.449421
21
-185.009762
0
LINE
8
Image
10
771.449421
20
-185.009762
11
772.499151
21
-184.111156
0
LINE
8
Image
10
772.499151
20
-184.111156
11
773.619279
21
-183.424592
0
LINE
8
Image
10
773.619279
20
-183.424592
11
774.891750
21
-182.925433
0
LINE
8
Image
10
774.891750
20
-182.925433
11
776.398506
21
-182.589046
0
LINE
8
Image
10
776.398506
20
-182.589046
11
778.221493
21
-182.390793
0
LINE
8
Image
10
778.221493
20
-182.390793
11
783.143931
21
-182.310152
0
LINE
8
Image
10
783.143931
20
-182.310152
11
788.022647
21
-182.581196
0
LINE
8
Image
10
788.022647
20
-182.581196
11
790.085169
21
-182.894698
0
LINE
8
Image
10
790.085169
20
-182.894698
11
791.990879
21
-183.354379
0
LINE
8
Image
10
791.990879
20
-183.354379
11
793.810589
21
-183.980885
0
LINE
8
Image
10
793.810589
20
-183.980885
11
795.615110
21
-184.794861
0
LINE
8
Image
10
795.615110
20
-184.794861
11
799.461823
21
-187.067804
0
LINE
8
Image
10
799.461823
20
-187.067804
11
802.019370
21
-188.934014
0
LINE
8
Image
10
802.019370
20
-188.934014
11
804.377819
21
-191.000408
0
LINE
8
Image
10
804.377819
20
-191.000408
11
806.527894
21
-193.237635
0
LINE
8
Image
10
806.527894
20
-193.237635
11
808.460320
21
-195.616345
0
LINE
8
Image
10
808.460320
20
-195.616345
11
810.165819
21
-198.107188
0
LINE
8
Image
10
810.165819
20
-198.107188
11
811.635116
21
-200.680811
0
LINE
8
Image
10
811.635116
20
-200.680811
11
812.858936
21
-203.307865
0
LINE
8
Image
10
812.858936
20
-203.307865
11
813.828002
21
-205.958997
0
LINE
8
Image
10
813.828002
20
-205.958997
11
814.533038
21
-208.604859
0
LINE
8
Image
10
814.533038
20
-208.604859
11
814.964769
21
-211.216097
0
LINE
8
Image
10
814.964769
20
-211.216097
11
815.113918
21
-213.763363
0
LINE
8
Image
10
815.113918
20
-213.763363
11
814.971209
21
-216.217304
0
LINE
8
Image
10
814.971209
20
-216.217304
11
814.527366
21
-218.548570
0
LINE
8
Image
10
814.527366
20
-218.548570
11
813.773114
21
-220.727809
0
LINE
8
Image
10
813.773114
20
-220.727809
11
812.699176
21
-222.725672
0
LINE
8
Image
10
812.699176
20
-222.725672
11
811.296277
21
-224.512808
0
LINE
8
Image
10
811.296277
20
-224.512808
11
810.137969
21
-225.593700
0
LINE
8
Image
10
810.137969
20
-225.593700
11
808.841896
21
-226.525662
0
LINE
8
Image
10
808.841896
20
-226.525662
11
807.420471
21
-227.308898
0
LINE
8
Image
10
807.420471
20
-227.308898
11
805.886104
21
-227.943612
0
LINE
8
Image
10
805.886104
20
-227.943612
11
804.251208
21
-228.430009
0
LINE
8
Image
10
804.251208
20
-228.430009
11
802.528194
21
-228.768294
0
LINE
8
Image
10
802.528194
20
-228.768294
11
800.729474
21
-228.958670
0
LINE
8
Image
10
800.729474
20
-228.958670
11
798.867461
21
-229.001342
0
LINE
8
Image
10
798.867461
20
-229.001342
11
795.003199
21
-228.644394
0
LINE
8
Image
10
795.003199
20
-228.644394
11
791.034704
21
-227.699083
0
LINE
8
Image
10
791.034704
20
-227.699083
11
787.061269
21
-226.167047
0
LINE
8
Image
10
787.061269
20
-226.167047
11
783.182190
21
-224.049920
0
LINE
8
Image
10
783.182190
20
-224.049920
11
783.182190
21
-224.049920
0
LINE
8
Image
10
636.755846
20
-212.334766
11
634.281118
21
-210.948977
0
LINE
8
Image
10
634.281118
20
-210.948977
11
631.892527
21
-209.359654
0
LINE
8
Image
10
631.892527
20
-209.359654
11
629.605176
21
-207.590852
0
LINE
8
Image
10
629.605176
20
-207.590852
11
627.434167
21
-205.666623
0
LINE
8
Image
10
627.434167
20
-205.666623
11
625.394605
21
-203.611020
0
LINE
8
Image
10
625.394605
20
-203.611020
11
623.501592
21
-201.448096
0
LINE
8
Image
10
623.501592
20
-201.448096
11
621.770232
21
-199.201903
0
LINE
8
Image
10
621.770232
20
-199.201903
11
620.215628
21
-196.896494
0
LINE
8
Image
10
620.215628
20
-196.896494
11
618.852884
21
-194.555922
0
LINE
8
Image
10
618.852884
20
-194.555922
11
617.697102
21
-192.204240
0
LINE
8
Image
10
617.697102
20
-192.204240
11
616.763386
21
-189.865500
0
LINE
8
Image
10
616.763386
20
-189.865500
11
616.066839
21
-187.563755
0
LINE
8
Image
10
616.066839
20
-187.563755
11
615.622565
21
-185.323059
0
LINE
8
Image
10
615.622565
20
-185.323059
11
615.445666
21
-183.167463
0
LINE
8
Image
10
615.445666
20
-183.167463
11
615.551247
21
-181.121020
0
LINE
8
Image
10
615.551247
20
-181.121020
11
615.954410
21
-179.207784
0
LINE
8
Image
10
615.954410
20
-179.207784
11
616.927943
21
-176.613136
0
LINE
8
Image
10
616.927943
20
-176.613136
11
618.170917
21
-174.375436
0
LINE
8
Image
10
618.170917
20
-174.375436
11
619.688160
21
-172.491296
0
LINE
8
Image
10
619.688160
20
-172.491296
11
621.484499
21
-170.957326
0
LINE
8
Image
10
621.484499
20
-170.957326
11
623.564762
21
-169.770137
0
LINE
8
Image
10
623.564762
20
-169.770137
11
625.933777
21
-168.926341
0
LINE
8
Image
10
625.933777
20
-168.926341
11
628.596371
21
-168.422549
0
LINE
8
Image
10
628.596371
20
-168.422549
11
631.557372
21
-168.255371
0
LINE
8
Image
10
631.557372
20
-168.255371
11
635.081653
21
-168.346505
0
LINE
8
Image
10
635.081653
20
-168.346505
11
638.190189
21
-168.648374
0
LINE
8
Image
10
638.190189
20
-168.648374
11
640.989589
21
-169.203673
0
LINE
8
Image
10
640.989589
20
-169.203673
11
643.586460
21
-170.055101
0
LINE
8
Image
10
643.586460
20
-170.055101
11
646.087408
21
-171.245354
0
LINE
8
Image
10
646.087408
20
-171.245354
11
648.599042
21
-172.817130
0
LINE
8
Image
10
648.599042
20
-172.817130
11
651.227968
21
-174.813125
0
LINE
8
Image
10
651.227968
20
-174.813125
11
654.080794
21
-177.276037
0
LINE
8
Image
10
654.080794
20
-177.276037
11
656.217600
21
-179.377977
0
LINE
8
Image
10
656.217600
20
-179.377977
11
658.140311
21
-181.614025
0
LINE
8
Image
10
658.140311
20
-181.614025
11
659.844265
21
-183.956909
0
LINE
8
Image
10
659.844265
20
-183.956909
11
661.324802
21
-186.379362
0
LINE
8
Image
10
661.324802
20
-186.379362
11
662.577262
21
-188.854112
0
LINE
8
Image
10
662.577262
20
-188.854112
11
663.596984
21
-191.353891
0
LINE
8
Image
10
663.596984
20
-191.353891
11
664.379307
21
-193.851427
0
LINE
8
Image
10
664.379307
20
-193.851427
11
664.919572
21
-196.319452
0
LINE
8
Image
10
664.919572
20
-196.319452
11
665.213117
21
-198.730695
0
LINE
8
Image
10
665.213117
20
-198.730695
11
665.255283
21
-201.057886
0
LINE
8
Image
10
665.255283
20
-201.057886
11
665.041409
21
-203.273757
0
LINE
8
Image
10
665.041409
20
-203.273757
11
664.566834
21
-205.351036
0
LINE
8
Image
10
664.566834
20
-205.351036
11
663.826899
21
-207.262454
0
LINE
8
Image
10
663.826899
20
-207.262454
11
662.816941
21
-208.980742
0
LINE
8
Image
10
662.816941
20
-208.980742
11
661.532302
21
-210.478629
0
LINE
8
Image
10
661.532302
20
-210.478629
11
659.968321
21
-211.728845
0
LINE
8
Image
10
659.968321
20
-211.728845
11
657.403602
21
-213.150763
0
LINE
8
Image
10
657.403602
20
-213.150763
11
654.659884
21
-214.190219
0
LINE
8
Image
10
654.659884
20
-214.190219
11
651.778546
21
-214.846134
0
LINE
8
Image
10
651.778546
20
-214.846134
11
648.800967
21
-215.117426
0
LINE
8
Image
10
648.800967
20
-215.117426
11
645.768528
21
-215.003015
0
LINE
8
Image
10
645.768528
20
-215.003015
11
642.722608
21
-214.501822
0
LINE
8
Image
10
642.722608
20
-214.501822
11
639.704588
21
-213.612766
0
LINE
8
Image
10
639.704588
20
-213.612766
11
636.755846
21
-212.334766
0
LINE
8
Image
10
636.755846
20
-212.334766
11
636.755846
21
-212.334766
0
LINE
8
Image
10
793.193190
20
-180.238494
11
790.432918
21
-179.210070
0
LINE
8
Image
10
790.432918
20
-179.210070
11
787.807220
21
-178.053166
0
LINE
8
Image
10
787.807220
20
-178.053166
11
785.321818
21
-176.774292
0
LINE
8
Image
10
785.321818
20
-176.774292
11
782.982434
21
-175.379957
0
LINE
8
Image
10
782.982434
20
-175.379957
11
780.794791
21
-173.876672
0
LINE
8
Image
10
780.794791
20
-173.876672
11
778.764611
21
-172.270946
0
LINE
8
Image
10
778.764611
20
-172.270946
11
776.897615
21
-170.569290
0
LINE
8
Image
10
776.897615
20
-170.569290
11
775.199526
21
-168.778213
0
LINE
8
Image
10
775.199526
20
-168.778213
11
773.676065
21
-166.904226
0
LINE
8
Image
10
773.676065
20
-166.904226
11
772.332956
21
-164.953837
0
LINE
8
Image
10
772.332956
20
-164.953837
11
771.175919
21
-162.933558
0
LINE
8
Image
10
771.175919
20
-162.933558
11
770.210678
21
-160.849897
0
LINE
8
Image
10
770.210678
20
-160.849897
11
769.442954
21
-158.709365
0
LINE
8
Image
10
769.442954
20
-158.709365
11
768.878469
21
-156.518472
0
LINE
8
Image
10
768.878469
20
-156.518472
11
768.522945
21
-154.283728
0
LINE
8
Image
10
768.522945
20
-154.283728
11
768.382105
21
-152.011642
0
LINE
8
Image
10
768.382105
20
-152.011642
11
768.478930
21
-149.060213
0
LINE
8
Image
10
768.478930
20
-149.060213
11
768.864166
21
-146.429005
0
LINE
8
Image
10
768.864166
20
-146.429005
11
769.550924
21
-144.096328
0
LINE
8
Image
10
769.550924
20
-144.096328
11
770.552314
21
-142.040494
0
LINE
8
Image
10
770.552314
20
-142.040494
11
771.881445
21
-140.239813
0
LINE
8
Image
10
771.881445
20
-140.239813
11
773.551427
21
-138.672595
0
LINE
8
Image
10
773.551427
20
-138.672595
11
775.575371
21
-137.317153
0
LINE
8
Image
10
775.575371
20
-137.317153
11
777.966386
21
-136.151796
0
LINE
8
Image
10
777.966386
20
-136.151796
11
780.570464
21
-135.248915
0
LINE
8
Image
10
780.570464
20
-135.248915
11
783.171694
21
-134.730924
0
LINE
8
Image
10
783.171694
20
-134.730924
11
785.804155
21
-134.603658
0
LINE
8
Image
10
785.804155
20
-134.603658
11
788.501926
21
-134.872954
0
LINE
8
Image
10
788.501926
20
-134.872954
11
791.299085
21
-135.544648
0
LINE
8
Image
10
791.299085
20
-135.544648
11
794.229711
21
-136.624577
0
LINE
8
Image
10
794.229711
20
-136.624577
11
797.327884
21
-138.118578
0
LINE
8
Image
10
797.327884
20
-138.118578
11
800.627682
21
-140.032488
0
LINE
8
Image
10
800.627682
20
-140.032488
11
803.497949
21
-142.024767
0
LINE
8
Image
10
803.497949
20
-142.024767
11
806.091770
21
-144.232637
0
LINE
8
Image
10
806.091770
20
-144.232637
11
808.401400
21
-146.621014
0
LINE
8
Image
10
808.401400
20
-146.621014
11
810.419092
21
-149.154819
0
LINE
8
Image
10
810.419092
20
-149.154819
11
812.137101
21
-151.798969
0
LINE
8
Image
10
812.137101
20
-151.798969
11
813.547680
21
-154.518383
0
LINE
8
Image
10
813.547680
20
-154.518383
11
814.643084
21
-157.277980
0
LINE
8
Image
10
814.643084
20
-157.277980
11
815.415566
21
-160.042678
0
LINE
8
Image
10
815.415566
20
-160.042678
11
815.857381
21
-162.777397
0
LINE
8
Image
10
815.857381
20
-162.777397
11
815.960783
21
-165.447054
0
LINE
8
Image
10
815.960783
20
-165.447054
11
815.718025
21
-168.016569
0
LINE
8
Image
10
815.718025
20
-168.016569
11
815.121361
21
-170.450860
0
LINE
8
Image
10
815.121361
20
-170.450860
11
814.163046
21
-172.714846
0
LINE
8
Image
10
814.163046
20
-172.714846
11
812.835334
21
-174.773446
0
LINE
8
Image
10
812.835334
20
-174.773446
11
811.130478
21
-176.591577
0
LINE
8
Image
10
811.130478
20
-176.591577
11
809.040733
21
-178.134159
0
LINE
8
Image
10
809.040733
20
-178.134159
11
807.118620
21
-179.179715
0
LINE
8
Image
10
807.118620
20
-179.179715
11
805.149785
21
-180.005667
0
LINE
8
Image
10
805.149785
20
-180.005667
11
803.149184
21
-180.610029
0
LINE
8
Image
10
803.149184
20
-180.610029
11
801.131775
21
-180.990816
0
LINE
8
Image
10
801.131775
20
-180.990816
11
799.112514
21
-181.146041
0
LINE
8
Image
10
799.112514
20
-181.146041
11
797.106359
21
-181.073719
0
LINE
8
Image
10
797.106359
20
-181.073719
11
795.128265
21
-180.771866
0
LINE
8
Image
10
795.128265
20
-180.771866
11
793.193190
21
-180.238494
0
LINE
8
Image
10
793.193190
20
-180.238494
11
793.193190
21
-180.238494
0
LINE
8
Image
10
637.099592
20
-164.352798
11
634.346945
21
-162.830246
0
LINE
8
Image
10
634.346945
20
-162.830246
11
631.473656
21
-160.671422
0
LINE
8
Image
10
631.473656
20
-160.671422
11
628.597984
21
-158.015987
0
LINE
8
Image
10
628.597984
20
-158.015987
11
625.838186
21
-155.003602
0
LINE
8
Image
10
625.838186
20
-155.003602
11
623.312518
21
-151.773930
0
LINE
8
Image
10
623.312518
20
-151.773930
11
621.139239
21
-148.466633
0
LINE
8
Image
10
621.139239
20
-148.466633
11
619.436607
21
-145.221370
0
LINE
8
Image
10
619.436607
20
-145.221370
11
618.322877
21
-142.177806
0
LINE
8
Image
10
618.322877
20
-142.177806
11
617.538265
21
-138.630108
0
LINE
8
Image
10
617.538265
20
-138.630108
11
617.382011
21
-137.141388
0
LINE
8
Image
10
617.382011
20
-137.141388
11
617.388622
21
-135.759889
0
LINE
8
Image
10
617.388622
20
-135.759889
11
617.562217
21
-134.423463
0
LINE
8
Image
10
617.562217
20
-134.423463
11
617.906918
21
-133.069960
0
LINE
8
Image
10
617.906918
20
-133.069960
11
619.126125
21
-130.063132
0
LINE
8
Image
10
619.126125
20
-130.063132
11
620.529518
21
-127.504752
0
LINE
8
Image
10
620.529518
20
-127.504752
11
622.117639
21
-125.402084
0
LINE
8
Image
10
622.117639
20
-125.402084
11
623.933433
21
-123.734947
0
LINE
8
Image
10
623.933433
20
-123.734947
11
626.019842
21
-122.483160
0
LINE
8
Image
10
626.019842
20
-122.483160
11
628.419809
21
-121.626541
0
LINE
8
Image
10
628.419809
20
-121.626541
11
631.176277
21
-121.144908
0
LINE
8
Image
10
631.176277
20
-121.144908
11
634.332189
21
-121.018080
0
LINE
8
Image
10
634.332189
20
-121.018080
11
637.930489
21
-121.225875
0
LINE
8
Image
10
637.930489
20
-121.225875
11
640.538202
21
-121.601083
0
LINE
8
Image
10
640.538202
20
-121.601083
11
643.085327
21
-122.212178
0
LINE
8
Image
10
643.085327
20
-122.212178
11
645.559252
21
-123.046601
0
LINE
8
Image
10
645.559252
20
-123.046601
11
647.947365
21
-124.091792
0
LINE
8
Image
10
647.947365
20
-124.091792
11
650.237051
21
-125.335190
0
LINE
8
Image
10
650.237051
20
-125.335190
11
652.415700
21
-126.764237
0
LINE
8
Image
10
652.415700
20
-126.764237
11
654.470698
21
-128.366371
0
LINE
8
Image
10
654.470698
20
-128.366371
11
656.389432
21
-130.129033
0
LINE
8
Image
10
656.389432
20
-130.129033
11
658.159292
21
-132.039663
0
LINE
8
Image
10
658.159292
20
-132.039663
11
659.767663
21
-134.085701
0
LINE
8
Image
10
659.767663
20
-134.085701
11
661.201933
21
-136.254587
0
LINE
8
Image
10
661.201933
20
-136.254587
11
662.449489
21
-138.533760
0
LINE
8
Image
10
662.449489
20
-138.533760
11
663.497720
21
-140.910662
0
LINE
8
Image
10
663.497720
20
-140.910662
11
664.334013
21
-143.372731
0
LINE
8
Image
10
664.334013
20
-143.372731
11
664.945754
21
-145.907408
0
LINE
8
Image
10
664.945754
20
-145.907408
11
665.320332
21
-148.502133
0
LINE
8
Image
10
665.320332
20
-148.502133
11
665.602371
21
-153.049449
0
LINE
8
Image
10
665.602371
20
-153.049449
11
665.500163
21
-154.727408
0
LINE
8
Image
10
665.500163
20
-154.727408
11
665.188114
21
-156.157641
0
LINE
8
Image
10
665.188114
20
-156.157641
11
664.630456
21
-157.452200
0
LINE
8
Image
10
664.630456
20
-157.452200
11
663.791423
21
-158.723141
0
LINE
8
Image
10
663.791423
20
-158.723141
11
661.126163
21
-161.642383
0
LINE
8
Image
10
661.126163
20
-161.642383
11
658.344203
21
-164.125136
0
LINE
8
Image
10
658.344203
20
-164.125136
11
657.050527
21
-164.989776
0
LINE
8
Image
10
657.050527
20
-164.989776
11
655.739058
21
-165.636968
0
LINE
8
Image
10
655.739058
20
-165.636968
11
654.347798
21
-166.091995
0
LINE
8
Image
10
654.347798
20
-166.091995
11
652.814751
21
-166.380139
0
LINE
8
Image
10
652.814751
20
-166.380139
11
649.075307
21
-166.556907
0
LINE
8
Image
10
649.075307
20
-166.556907
11
645.942368
21
-166.363214
0
LINE
8
Image
10
645.942368
20
-166.363214
11
642.640132
21
-165.883070
0
LINE
8
Image
10
642.640132
20
-165.883070
11
639.561555
21
-165.188817
0
LINE
8
Image
10
639.561555
20
-165.188817
11
637.099592
21
-164.352798
0
LINE
8
Image
10
637.099592
20
-164.352798
11
637.099592
21
-164.352798
0
LINE
8
Image
10
815.597894
20
-147.527621
11
813.524953
21
-145.937073
0
LINE
8
Image
10
813.524953
20
-145.937073
11
811.587176
21
-144.217603
0
LINE
8
Image
10
811.587176
20
-144.217603
11
809.789982
21
-142.382295
0
LINE
8
Image
10
809.789982
20
-142.382295
11
808.138790
21
-140.444231
0
LINE
8
Image
10
808.138790
20
-140.444231
11
806.639017
21
-138.416496
0
LINE
8
Image
10
806.639017
20
-138.416496
11
805.296083
21
-136.312173
0
LINE
8
Image
10
805.296083
20
-136.312173
11
804.115407
21
-134.144346
0
LINE
8
Image
10
804.115407
20
-134.144346
11
803.102406
21
-131.926098
0
LINE
8
Image
10
803.102406
20
-131.926098
11
802.262499
21
-129.670512
0
LINE
8
Image
10
802.262499
20
-129.670512
11
801.601106
21
-127.390672
0
LINE
8
Image
10
801.601106
20
-127.390672
11
801.123644
21
-125.099661
0
LINE
8
Image
10
801.123644
20
-125.099661
11
800.835532
21
-122.810564
0
LINE
8
Image
10
800.835532
20
-122.810564
11
800.742188
21
-120.536463
0
LINE
8
Image
10
800.742188
20
-120.536463
11
800.849032
21
-118.290442
0
LINE
8
Image
10
800.849032
20
-118.290442
11
801.161481
21
-116.085584
0
LINE
8
Image
10
801.161481
20
-116.085584
11
801.684955
21
-113.934973
0
LINE
8
Image
10
801.684955
20
-113.934973
11
802.433092
21
-111.768565
0
LINE
8
Image
10
802.433092
20
-111.768565
11
803.323467
21
-109.806433
0
LINE
8
Image
10
803.323467
20
-109.806433
11
804.350356
21
-108.050580
0
LINE
8
Image
10
804.350356
20
-108.050580
11
805.508033
21
-106.503006
0
LINE
8
Image
10
805.508033
20
-106.503006
11
806.790771
21
-105.165713
0
LINE
8
Image
10
806.790771
20
-105.165713
11
808.192846
21
-104.040701
0
LINE
8
Image
10
808.192846
20
-104.040701
11
809.708531
21
-103.129972
0
LINE
8
Image
10
809.708531
20
-103.129972
11
811.332101
21
-102.435528
0
LINE
8
Image
10
811.332101
20
-102.435528
11
813.057831
21
-101.959368
0
LINE
8
Image
10
813.057831
20
-101.959368
11
814.879994
21
-101.703496
0
LINE
8
Image
10
814.879994
20
-101.703496
11
816.792865
21
-101.669911
0
LINE
8
Image
10
816.792865
20
-101.669911
11
818.790718
21
-101.860614
0
LINE
8
Image
10
818.790718
20
-101.860614
11
820.867827
21
-102.277608
0
LINE
8
Image
10
820.867827
20
-102.277608
11
823.018467
21
-102.922894
0
LINE
8
Image
10
823.018467
20
-102.922894
11
825.236913
21
-103.798471
0
LINE
8
Image
10
825.236913
20
-103.798471
11
827.517437
21
-104.906343
0
LINE
8
Image
10
827.517437
20
-104.906343
11
829.323946
21
-105.955774
0
LINE
8
Image
10
829.323946
20
-105.955774
11
831.045226
21
-107.139605
0
LINE
8
Image
10
831.045226
20
-107.139605
11
832.677043
21
-108.450378
0
LINE
8
Image
10
832.677043
20
-108.450378
11
834.215166
21
-109.880634
0
LINE
8
Image
10
834.215166
20
-109.880634
11
836.993403
21
-113.069756
0
LINE
8
Image
10
836.993403
20
-113.069756
11
839.346083
21
-116.647299
0
LINE
8
Image
10
839.346083
20
-116.647299
11
841.239351
21
-120.553591
0
LINE
8
Image
10
841.239351
20
-120.553591
11
842.639353
21
-124.728959
0
LINE
8
Image
10
842.639353
20
-124.728959
11
843.512233
21
-129.113730
0
LINE
8
Image
10
843.512233
20
-129.113730
11
843.824137
21
-133.648232
0
LINE
8
Image
10
843.824137
20
-133.648232
11
843.673810
21
-138.330445
0
LINE
8
Image
10
843.673810
20
-138.330445
11
843.419739
21
-140.116964
0
LINE
8
Image
10
843.419739
20
-140.116964
11
843.003870
21
-141.654729
0
LINE
8
Image
10
843.003870
20
-141.654729
11
842.394310
21
-143.034464
0
LINE
8
Image
10
842.394310
20
-143.034464
11
841.559162
21
-144.346896
0
LINE
8
Image
10
841.559162
20
-144.346896
11
840.466534
21
-145.682752
0
LINE
8
Image
10
840.466534
20
-145.682752
11
839.084530
21
-147.132758
0
LINE
8
Image
10
839.084530
20
-147.132758
11
836.600396
21
-149.227820
0
LINE
8
Image
10
836.600396
20
-149.227820
11
833.937897
21
-150.739224
0
LINE
8
Image
10
833.937897
20
-150.739224
11
832.547466
21
-151.275925
0
LINE
8
Image
10
832.547466
20
-151.275925
11
831.121689
21
-151.666555
0
LINE
8
Image
10
831.121689
20
-151.666555
11
828.176424
21
-152.009399
0
LINE
8
Image
10
828.176424
20
-152.009399
11
825.126758
21
-151.767342
0
LINE
8
Image
10
825.126758
20
-151.767342
11
821.997345
21
-150.939970
0
LINE
8
Image
10
821.997345
20
-150.939970
11
818.812839
21
-149.526867
0
LINE
8
Image
10
818.812839
20
-149.526867
11
815.597894
21
-147.527621
0
LINE
8
Image
10
815.597894
20
-147.527621
11
815.597894
21
-147.527621
0
LINE
8
Image
10
862.833738
20
-148.486999
11
861.166197
21
-147.011380
0
LINE
8
Image
10
861.166197
20
-147.011380
11
859.612255
21
-145.312175
0
LINE
8
Image
10
859.612255
20
-145.312175
11
858.179189
21
-143.417517
0
LINE
8
Image
10
858.179189
20
-143.417517
11
856.874278
21
-141.355539
0
LINE
8
Image
10
856.874278
20
-141.355539
11
855.704799
21
-139.154373
0
LINE
8
Image
10
855.704799
20
-139.154373
11
854.678031
21
-136.842152
0
LINE
8
Image
10
854.678031
20
-136.842152
11
853.801251
21
-134.447010
0
LINE
8
Image
10
853.801251
20
-134.447010
11
853.081738
21
-131.997079
0
LINE
8
Image
10
853.081738
20
-131.997079
11
852.526768
21
-129.520492
0
LINE
8
Image
10
852.526768
20
-129.520492
11
852.143621
21
-127.045381
0
LINE
8
Image
10
852.143621
20
-127.045381
11
851.939574
21
-124.599881
0
LINE
8
Image
10
851.939574
20
-124.599881
11
851.921904
21
-122.212123
0
LINE
8
Image
10
851.921904
20
-122.212123
11
852.097891
21
-119.910240
0
LINE
8
Image
10
852.097891
20
-119.910240
11
852.474811
21
-117.722366
0
LINE
8
Image
10
852.474811
20
-117.722366
11
853.059943
21
-115.676632
0
LINE
8
Image
10
853.059943
20
-115.676632
11
853.860564
21
-113.801173
0
LINE
8
Image
10
853.860564
20
-113.801173
11
854.800224
21
-112.156203
0
LINE
8
Image
10
854.800224
20
-112.156203
11
855.851456
21
-110.668353
0
LINE
8
Image
10
855.851456
20
-110.668353
11
857.005718
21
-109.339866
0
LINE
8
Image
10
857.005718
20
-109.339866
11
858.254467
21
-108.172986
0
LINE
8
Image
10
858.254467
20
-108.172986
11
859.589161
21
-107.169958
0
LINE
8
Image
10
859.589161
20
-107.169958
11
861.001259
21
-106.333023
0
LINE
8
Image
10
861.001259
20
-106.333023
11
862.482218
21
-105.664427
0
LINE
8
Image
10
862.482218
20
-105.664427
11
864.023495
21
-105.166411
0
LINE
8
Image
10
864.023495
20
-105.166411
11
865.616549
21
-104.841221
0
LINE
8
Image
10
865.616549
20
-104.841221
11
867.252837
21
-104.691099
0
LINE
8
Image
10
867.252837
20
-104.691099
11
868.923818
21
-104.718289
0
LINE
8
Image
10
868.923818
20
-104.718289
11
870.620949
21
-104.925034
0
LINE
8
Image
10
870.620949
20
-104.925034
11
872.335688
21
-105.313579
0
LINE
8
Image
10
872.335688
20
-105.313579
11
874.059492
21
-105.886166
0
LINE
8
Image
10
874.059492
20
-105.886166
11
875.783820
21
-106.645039
0
LINE
8
Image
10
875.783820
20
-106.645039
11
877.500129
21
-107.592442
0
LINE
8
Image
10
877.500129
20
-107.592442
11
879.937336
21
-109.365621
0
LINE
8
Image
10
879.937336
20
-109.365621
11
882.058389
21
-111.516862
0
LINE
8
Image
10
882.058389
20
-111.516862
11
883.860573
21
-114.039843
0
LINE
8
Image
10
883.860573
20
-114.039843
11
885.341175
21
-116.928243
0
LINE
8
Image
10
885.341175
20
-116.928243
11
886.497480
21
-120.175742
0
LINE
8
Image
10
886.497480
20
-120.175742
11
887.326773
21
-123.776018
0
LINE
8
Image
10
887.326773
20
-123.776018
11
887.826339
21
-127.722750
0
LINE
8
Image
10
887.826339
20
-127.722750
11
887.993465
21
-132.009617
0
LINE
8
Image
10
887.993465
20
-132.009617
11
887.828306
21
-137.205299
0
LINE
8
Image
10
887.828306
20
-137.205299
11
887.584615
21
-139.215575
0
LINE
8
Image
10
887.584615
20
-139.215575
11
887.200413
21
-140.950485
0
LINE
8
Image
10
887.200413
20
-140.950485
11
886.650873
21
-142.497286
0
LINE
8
Image
10
886.650873
20
-142.497286
11
885.911165
21
-143.943236
0
LINE
8
Image
10
885.911165
20
-143.943236
11
884.956462
21
-145.375593
0
LINE
8
Image
10
884.956462
20
-145.375593
11
883.761936
21
-146.881615
0
LINE
8
Image
10
883.761936
20
-146.881615
11
881.634735
21
-148.956692
0
LINE
8
Image
10
881.634735
20
-148.956692
11
879.229933
21
-150.506806
0
LINE
8
Image
10
879.229933
20
-150.506806
11
876.616500
21
-151.526667
0
LINE
8
Image
10
876.616500
20
-151.526667
11
873.863403
21
-152.010983
0
LINE
8
Image
10
873.863403
20
-152.010983
11
871.039610
21
-151.954466
0
LINE
8
Image
10
871.039610
20
-151.954466
11
868.214089
21
-151.351822
0
LINE
8
Image
10
868.214089
20
-151.351822
11
865.455809
21
-150.197764
0
LINE
8
Image
10
865.455809
20
-150.197764
11
862.833738
21
-148.486999
0
LINE
8
Image
10
862.833738
20
-148.486999
11
862.833738
21
-148.486999
0
LINE
8
Image
10
670.618263
20
-136.230880
11
668.350768
21
-135.158687
0
LINE
8
Image
10
668.350768
20
-135.158687
11
666.202880
21
-133.962994
0
LINE
8
Image
10
666.202880
20
-133.962994
11
664.178088
21
-132.648885
0
LINE
8
Image
10
664.178088
20
-132.648885
11
662.279880
21
-131.221450
0
LINE
8
Image
10
662.279880
20
-131.221450
11
660.511745
21
-129.685774
0
LINE
8
Image
10
660.511745
20
-129.685774
11
658.877172
21
-128.046945
0
LINE
8
Image
10
658.877172
20
-128.046945
11
657.379649
21
-126.310050
0
LINE
8
Image
10
657.379649
20
-126.310050
11
656.022664
21
-124.480176
0
LINE
8
Image
10
656.022664
20
-124.480176
11
654.809707
21
-122.562411
0
LINE
8
Image
10
654.809707
20
-122.562411
11
653.744266
21
-120.561840
0
LINE
8
Image
10
653.744266
20
-120.561840
11
652.829829
21
-118.483552
0
LINE
8
Image
10
652.829829
20
-118.483552
11
652.069886
21
-116.332633
0
LINE
8
Image
10
652.069886
20
-116.332633
11
651.467924
21
-114.114170
0
LINE
8
Image
10
651.467924
20
-114.114170
11
651.027432
21
-111.833251
0
LINE
8
Image
10
651.027432
20
-111.833251
11
650.751899
21
-109.494963
0
LINE
8
Image
10
650.751899
20
-109.494963
11
650.644813
21
-107.104392
0
LINE
8
Image
10
650.644813
20
-107.104392
11
650.791930
21
-102.736328
0
LINE
8
Image
10
650.791930
20
-102.736328
11
651.360900
21
-99.165543
0
LINE
8
Image
10
651.360900
20
-99.165543
11
651.822622
21
-97.601723
0
LINE
8
Image
10
651.822622
20
-97.601723
11
652.412658
21
-96.144335
0
LINE
8
Image
10
652.412658
20
-96.144335
11
654.008139
21
-93.425001
0
LINE
8
Image
10
654.008139
20
-93.425001
11
655.144687
21
-91.993124
0
LINE
8
Image
10
655.144687
20
-91.993124
11
656.368204
21
-90.756615
0
LINE
8
Image
10
656.368204
20
-90.756615
11
657.670621
21
-89.710291
0
LINE
8
Image
10
657.670621
20
-89.710291
11
659.043868
21
-88.848967
0
LINE
8
Image
10
659.043868
20
-88.848967
11
660.479876
21
-88.167459
0
LINE
8
Image
10
660.479876
20
-88.167459
11
661.970575
21
-87.660580
0
LINE
8
Image
10
661.970575
20
-87.660580
11
663.507896
21
-87.323148
0
LINE
8
Image
10
663.507896
20
-87.323148
11
665.083769
21
-87.149977
0
LINE
8
Image
10
665.083769
20
-87.149977
11
666.690124
21
-87.135882
0
LINE
8
Image
10
666.690124
20
-87.135882
11
668.318892
21
-87.275678
0
LINE
8
Image
10
668.318892
20
-87.275678
11
671.611389
21
-87.996208
0
LINE
8
Image
10
671.611389
20
-87.996208
11
674.896702
21
-89.270087
0
LINE
8
Image
10
674.896702
20
-89.270087
11
678.110275
21
-91.055839
0
LINE
8
Image
10
678.110275
20
-91.055839
11
681.187551
21
-93.311986
0
LINE
8
Image
10
681.187551
20
-93.311986
11
684.063974
21
-95.997051
0
LINE
8
Image
10
684.063974
20
-95.997051
11
686.674988
21
-99.069554
0
LINE
8
Image
10
686.674988
20
-99.069554
11
688.956035
21
-102.488020
0
LINE
8
Image
10
688.956035
20
-102.488020
11
690.842558
21
-106.210970
0
LINE
8
Image
10
690.842558
20
-106.210970
11
692.270003
21
-110.196927
0
LINE
8
Image
10
692.270003
20
-110.196927
11
693.173811
21
-114.404413
0
LINE
8
Image
10
693.173811
20
-114.404413
11
693.409177
21
-116.578267
0
LINE
8
Image
10
693.409177
20
-116.578267
11
693.489426
21
-118.791950
0
LINE
8
Image
10
693.489426
20
-118.791950
11
693.353703
21
-121.955096
0
LINE
8
Image
10
693.353703
20
-121.955096
11
692.936367
21
-124.788431
0
LINE
8
Image
10
692.936367
20
-124.788431
11
692.222168
21
-127.319272
0
LINE
8
Image
10
692.222168
20
-127.319272
11
691.195855
21
-129.574937
0
LINE
8
Image
10
691.195855
20
-129.574937
11
689.842178
21
-131.582744
0
LINE
8
Image
10
689.842178
20
-131.582744
11
688.145886
21
-133.370011
0
LINE
8
Image
10
688.145886
20
-133.370011
11
686.091728
21
-134.964055
0
LINE
8
Image
10
686.091728
20
-134.964055
11
683.664454
21
-136.392196
0
LINE
8
Image
10
683.664454
20
-136.392196
11
680.227324
21
-138.049021
0
LINE
8
Image
10
680.227324
20
-138.049021
11
678.919949
21
-138.457686
0
LINE
8
Image
10
678.919949
20
-138.457686
11
677.690811
21
-138.584097
0
LINE
8
Image
10
677.690811
20
-138.584097
11
676.392992
21
-138.426437
0
LINE
8
Image
10
676.392992
20
-138.426437
11
674.879572
21
-137.982887
0
LINE
8
Image
10
674.879572
20
-137.982887
11
670.618263
21
-136.230853
0
LINE
8
Image
10
670.618263
20
-136.230853
11
670.618263
21
-136.230880
0
LINE
8
Image
10
717.108407
20
-136.535521
11
715.104906
21
-135.552649
0
LINE
8
Image
10
715.104906
20
-135.552649
11
713.227097
21
-134.408097
0
LINE
8
Image
10
713.227097
20
-134.408097
11
711.478625
21
-133.109407
0
LINE
8
Image
10
711.478625
20
-133.109407
11
709.863135
21
-131.664126
0
LINE
8
Image
10
709.863135
20
-131.664126
11
708.384273
21
-130.079796
0
LINE
8
Image
10
708.384273
20
-130.079796
11
707.045683
21
-128.363963
0
LINE
8
Image
10
707.045683
20
-128.363963
11
705.851012
21
-126.524170
0
LINE
8
Image
10
705.851012
20
-126.524170
11
704.803905
21
-124.567962
0
LINE
8
Image
10
704.803905
20
-124.567962
11
703.908006
21
-122.502883
0
LINE
8
Image
10
703.908006
20
-122.502883
11
703.166962
21
-120.336478
0
LINE
8
Image
10
703.166962
20
-120.336478
11
702.584417
21
-118.076291
0
LINE
8
Image
10
702.584417
20
-118.076291
11
702.164017
21
-115.729866
0
LINE
8
Image
10
702.164017
20
-115.729866
11
701.909407
21
-113.304748
0
LINE
8
Image
10
701.909407
20
-113.304748
11
701.824232
21
-110.808480
0
LINE
8
Image
10
701.824232
20
-110.808480
11
701.912138
21
-108.248608
0
LINE
8
Image
10
701.912138
20
-108.248608
11
702.176771
21
-105.632676
0
LINE
8
Image
10
702.176771
20
-105.632676
11
702.887121
21
-102.495558
0
LINE
8
Image
10
702.887121
20
-102.495558
11
704.110061
21
-99.548812
0
LINE
8
Image
10
704.110061
20
-99.548812
11
705.774389
21
-96.862686
0
LINE
8
Image
10
705.774389
20
-96.862686
11
707.808903
21
-94.507424
0
LINE
8
Image
10
707.808903
20
-94.507424
11
710.142399
21
-92.553273
0
LINE
8
Image
10
710.142399
20
-92.553273
11
712.703676
21
-91.070480
0
LINE
8
Image
10
712.703676
20
-91.070480
11
715.421531
21
-90.129290
0
LINE
8
Image
10
715.421531
20
-90.129290
11
716.816924
21
-89.883748
0
LINE
8
Image
10
716.816924
20
-89.883748
11
718.224762
21
-89.799950
0
LINE
8
Image
10
718.224762
20
-89.799950
11
720.220061
21
-90.016441
0
LINE
8
Image
10
720.220061
20
-90.016441
11
722.235947
21
-90.640336
0
LINE
8
Image
10
722.235947
20
-90.640336
11
724.247213
21
-91.633267
0
LINE
8
Image
10
724.247213
20
-91.633267
11
726.228649
21
-92.956865
0
LINE
8
Image
10
726.228649
20
-92.956865
11
728.155049
21
-94.572762
0
LINE
8
Image
10
728.155049
20
-94.572762
11
730.001205
21
-96.442591
0
LINE
8
Image
10
730.001205
20
-96.442591
11
731.741909
21
-98.527982
0
LINE
8
Image
10
731.741909
20
-98.527982
11
733.351954
21
-100.790569
0
LINE
8
Image
10
733.351954
20
-100.790569
11
734.806131
21
-103.191982
0
LINE
8
Image
10
734.806131
20
-103.191982
11
736.079234
21
-105.693854
0
LINE
8
Image
10
736.079234
20
-105.693854
11
737.146054
21
-108.257816
0
LINE
8
Image
10
737.146054
20
-108.257816
11
737.981384
21
-110.845500
0
LINE
8
Image
10
737.981384
20
-110.845500
11
738.560016
21
-113.418538
0
LINE
8
Image
10
738.560016
20
-113.418538
11
738.856742
21
-115.938563
0
LINE
8
Image
10
738.856742
20
-115.938563
11
738.846355
21
-118.367205
0
LINE
8
Image
10
738.846355
20
-118.367205
11
738.503646
21
-120.666097
0
LINE
8
Image
10
738.503646
20
-120.666097
11
737.696889
21
-123.799667
0
LINE
8
Image
10
737.696889
20
-123.799667
11
736.818515
21
-126.556327
0
LINE
8
Image
10
736.818515
20
-126.556327
11
735.855216
21
-128.958910
0
LINE
8
Image
10
735.855216
20
-128.958910
11
734.793687
21
-131.030253
0
LINE
8
Image
10
734.793687
20
-131.030253
11
733.620619
21
-132.793191
0
LINE
8
Image
10
733.620619
20
-132.793191
11
732.322707
21
-134.270559
0
LINE
8
Image
10
732.322707
20
-134.270559
11
730.886643
21
-135.485193
0
LINE
8
Image
10
730.886643
20
-135.485193
11
729.299121
21
-136.459929
0
LINE
8
Image
10
729.299121
20
-136.459929
11
725.969719
21
-138.059863
0
LINE
8
Image
10
725.969719
20
-138.059863
11
724.702716
21
-138.462540
0
LINE
8
Image
10
724.702716
20
-138.462540
11
723.526304
21
-138.601437
0
LINE
8
Image
10
723.526304
20
-138.601437
11
722.309574
21
-138.477366
0
LINE
8
Image
10
722.309574
20
-138.477366
11
720.921619
21
-138.091135
0
LINE
8
Image
10
720.921619
20
-138.091135
11
717.108407
21
-136.535441
0
LINE
8
Image
10
717.108407
20
-136.535441
11
717.108407
21
-136.535521
0
LINE
8
Image
10
206.227142
20
35.158066
11
200.304087
21
37.018248
0
LINE
8
Image
10
200.304087
20
37.018248
11
194.764641
21
39.226648
0
LINE
8
Image
10
194.764641
20
39.226648
11
189.608602
21
41.783565
0
LINE
8
Image
10
189.608602
20
41.783565
11
184.835764
21
44.689298
0
LINE
8
Image
10
184.835764
20
44.689298
11
180.445925
21
47.944146
0
LINE
8
Image
10
180.445925
20
47.944146
11
176.438880
21
51.548408
0
LINE
8
Image
10
176.438880
20
51.548408
11
172.814426
21
55.502383
0
LINE
8
Image
10
172.814426
20
55.502383
11
169.572359
21
59.806369
0
LINE
8
Image
10
169.572359
20
59.806369
11
166.712475
21
64.460667
0
LINE
8
Image
10
166.712475
20
64.460667
11
164.234570
21
69.465575
0
LINE
8
Image
10
164.234570
20
69.465575
11
162.138440
21
74.821391
0
LINE
8
Image
10
162.138440
20
74.821391
11
160.423882
21
80.528416
0
LINE
8
Image
10
160.423882
20
80.528416
11
159.090692
21
86.586947
0
LINE
8
Image
10
159.090692
20
86.586947
11
158.138666
21
92.997284
0
LINE
8
Image
10
158.138666
20
92.997284
11
157.567599
21
99.759726
0
LINE
8
Image
10
157.567599
20
99.759726
11
157.377289
21
106.874572
0
LINE
8
Image
10
157.377289
20
106.874572
11
157.377289
21
122.466345
0
LINE
8
Image
10
157.377289
20
122.466345
11
152.882447
21
122.983530
0
LINE
8
Image
10
152.882447
20
122.983530
11
150.796156
21
123.424453
0
LINE
8
Image
10
150.796156
20
123.424453
11
149.982239
21
123.778288
0
LINE
8
Image
10
149.982239
20
123.778288
11
149.309889
21
124.230415
0
LINE
8
Image
10
149.309889
20
124.230415
11
148.770665
21
124.787868
0
LINE
8
Image
10
148.770665
20
124.787868
11
148.356128
21
125.457679
0
LINE
8
Image
10
148.356128
20
125.457679
11
147.867356
21
127.162505
0
LINE
8
Image
10
147.867356
20
127.162505
11
147.803400
21
128.136217
0
LINE
8
Image
10
147.803400
20
128.136217
11
147.896662
21
129.034682
0
LINE
8
Image
10
147.896662
20
129.034682
11
148.143966
21
129.856734
0
LINE
8
Image
10
148.143966
20
129.856734
11
148.542137
21
130.601206
0
LINE
8
Image
10
148.542137
20
130.601206
11
149.087999
21
131.266934
0
LINE
8
Image
10
149.087999
20
131.266934
11
149.778374
21
131.852752
0
LINE
8
Image
10
149.778374
20
131.852752
11
151.579965
21
132.779990
0
LINE
8
Image
10
151.579965
20
132.779990
11
153.921500
21
133.373594
0
LINE
8
Image
10
153.921500
20
133.373594
11
156.777573
21
133.624238
0
LINE
8
Image
10
156.777573
20
133.624238
11
160.122775
21
133.522593
0
LINE
8
Image
10
160.122775
20
133.522593
11
163.931698
21
133.059332
0
LINE
8
Image
10
163.931698
20
133.059332
11
172.568481
21
131.673153
0
LINE
8
Image
10
172.568481
20
131.673153
11
172.793932
21
116.962761
0
LINE
8
Image
10
172.793932
20
116.962761
11
173.079672
21
109.212505
0
LINE
8
Image
10
173.079672
20
109.212505
11
173.368420
21
106.105957
0
LINE
8
Image
10
173.368420
20
106.105957
11
173.785844
21
103.342765
0
LINE
8
Image
10
173.785844
20
103.342765
11
174.355509
21
100.796157
0
LINE
8
Image
10
174.355509
20
100.796157
11
175.100984
21
98.339360
0
LINE
8
Image
10
175.100984
20
98.339360
11
176.045836
21
95.845601
0
LINE
8
Image
10
176.045836
20
95.845601
11
177.213632
21
93.188108
0
LINE
8
Image
10
177.213632
20
93.188108
11
179.449631
21
88.756002
0
LINE
8
Image
10
179.449631
20
88.756002
11
181.894809
21
84.668548
0
LINE
8
Image
10
181.894809
20
84.668548
11
184.544177
21
80.931167
0
LINE
8
Image
10
184.544177
20
80.931167
11
187.392749
21
77.549281
0
LINE
8
Image
10
187.392749
20
77.549281
11
190.435535
21
74.528309
0
LINE
8
Image
10
190.435535
20
74.528309
11
193.667550
21
71.873674
0
LINE
8
Image
10
193.667550
20
71.873674
11
197.083805
21
69.590796
0
LINE
8
Image
10
197.083805
20
69.590796
11
200.679313
21
67.685096
0
LINE
8
Image
10
200.679313
20
67.685096
11
203.140192
21
66.625508
0
LINE
8
Image
10
203.140192
20
66.625508
11
205.580316
21
65.744859
0
LINE
8
Image
10
205.580316
20
65.744859
11
207.995545
21
65.039832
0
LINE
8
Image
10
207.995545
20
65.039832
11
210.381739
21
64.507109
0
LINE
8
Image
10
210.381739
20
64.507109
11
212.734758
21
64.143374
0
LINE
8
Image
10
212.734758
20
64.143374
11
215.050462
21
63.945309
0
LINE
8
Image
10
215.050462
20
63.945309
11
217.324711
21
63.909597
0
LINE
8
Image
10
217.324711
20
63.909597
11
219.553365
21
64.032921
0
LINE
8
Image
10
219.553365
20
64.032921
11
221.732284
21
64.311965
0
LINE
8
Image
10
221.732284
20
64.311965
11
223.857329
21
64.743411
0
LINE
8
Image
10
223.857329
20
64.743411
11
225.924359
21
65.323942
0
LINE
8
Image
10
225.924359
20
65.323942
11
227.929234
21
66.050241
0
LINE
8
Image
10
227.929234
20
66.050241
11
229.867814
21
66.918991
0
LINE
8
Image
10
229.867814
20
66.918991
11
231.735959
21
67.926874
0
LINE
8
Image
10
231.735959
20
67.926874
11
233.529530
21
69.070575
0
LINE
8
Image
10
233.529530
20
69.070575
11
235.244387
21
70.346775
0
LINE
8
Image
10
235.244387
20
70.346775
11
236.876388
21
71.752158
0
LINE
8
Image
10
236.876388
20
71.752158
11
238.421395
21
73.283406
0
LINE
8
Image
10
238.421395
20
73.283406
11
241.233866
21
76.710232
0
LINE
8
Image
10
241.233866
20
76.710232
11
243.648679
21
80.600715
0
LINE
8
Image
10
243.648679
20
80.600715
11
245.632714
21
84.928319
0
LINE
8
Image
10
245.632714
20
84.928319
11
247.152851
21
89.666508
0
LINE
8
Image
10
247.152851
20
89.666508
11
248.175971
21
94.788745
0
LINE
8
Image
10
248.175971
20
94.788745
11
248.668955
21
100.268493
0
LINE
8
Image
10
248.668955
20
100.268493
11
248.598681
21
106.079217
0
LINE
8
Image
10
248.598681
20
106.079217
11
248.029502
21
111.230044
0
LINE
8
Image
10
248.029502
20
111.230044
11
246.968616
21
116.413346
0
LINE
8
Image
10
246.968616
20
116.413346
11
245.454485
21
121.540705
0
LINE
8
Image
10
245.454485
20
121.540705
11
243.525573
21
126.523706
0
LINE
8
Image
10
243.525573
20
126.523706
11
241.220342
21
131.273932
0
LINE
8
Image
10
241.220342
20
131.273932
11
238.577255
21
135.702966
0
LINE
8
Image
10
238.577255
20
135.702966
11
235.634775
21
139.722393
0
LINE
8
Image
10
235.634775
20
139.722393
11
232.431363
21
143.243796
0
LINE
8
Image
10
232.431363
20
143.243796
11
229.944203
21
145.828764
0
LINE
8
Image
10
229.944203
20
145.828764
11
227.907427
21
148.243197
0
LINE
8
Image
10
227.907427
20
148.243197
11
226.531225
21
150.216862
0
LINE
8
Image
10
226.531225
20
150.216862
11
226.156522
21
150.953959
0
LINE
8
Image
10
226.156522
20
150.953959
11
226.025782
21
151.479527
0
LINE
8
Image
10
226.025782
20
151.479527
11
226.205710
21
152.222901
0
LINE
8
Image
10
226.205710
20
152.222901
11
226.717913
21
153.101662
0
LINE
8
Image
10
226.717913
20
153.101662
11
228.573680
21
155.156430
0
LINE
8
Image
10
228.573680
20
155.156430
11
231.262142
21
157.425999
0
LINE
8
Image
10
231.262142
20
157.425999
11
234.452361
21
159.692535
0
LINE
8
Image
10
234.452361
20
159.692535
11
237.813397
21
161.738206
0
LINE
8
Image
10
237.813397
20
161.738206
11
241.014311
21
163.345178
0
LINE
8
Image
10
241.014311
20
163.345178
11
243.724164
21
164.295619
0
LINE
8
Image
10
243.724164
20
164.295619
11
244.791523
21
164.456568
0
LINE
8
Image
10
244.791523
20
164.456568
11
245.612015
21
164.371696
0
LINE
8
Image
10
245.612015
20
164.371696
11
246.898830
21
163.735653
0
LINE
8
Image
10
246.898830
20
163.735653
11
247.868414
21
162.806486
0
LINE
8
Image
10
247.868414
20
162.806486
11
248.510640
21
161.679564
0
LINE
8
Image
10
248.510640
20
161.679564
11
248.815378
21
160.450260
0
LINE
8
Image
10
248.815378
20
160.450260
11
248.772500
21
159.213944
0
LINE
8
Image
10
248.772500
20
159.213944
11
248.371877
21
158.065989
0
LINE
8
Image
10
248.371877
20
158.065989
11
247.603380
21
157.101764
0
LINE
8
Image
10
247.603380
20
157.101764
11
246.456882
21
156.416643
0
LINE
8
Image
10
246.456882
20
156.416643
11
245.279024
21
155.802124
0
LINE
8
Image
10
245.279024
20
155.802124
11
244.524274
21
155.011745
0
LINE
8
Image
10
244.524274
20
155.011745
11
244.197077
21
154.027470
0
LINE
8
Image
10
244.197077
20
154.027470
11
244.301876
21
152.831260
0
LINE
8
Image
10
244.301876
20
152.831260
11
244.843117
21
151.405077
0
LINE
8
Image
10
244.843117
20
151.405077
11
245.825245
21
149.730882
0
LINE
8
Image
10
245.825245
20
149.730882
11
247.252703
21
147.790639
0
LINE
8
Image
10
247.252703
20
147.790639
11
249.129937
21
145.566308
0
LINE
8
Image
10
249.129937
20
145.566308
11
255.928620
21
137.673199
0
LINE
8
Image
10
255.928620
20
137.673199
11
261.389059
21
130.748226
0
LINE
8
Image
10
261.389059
20
130.748226
11
263.659359
21
127.559494
0
LINE
8
Image
10
263.659359
20
127.559494
11
265.645406
21
124.505639
0
LINE
8
Image
10
265.645406
20
124.505639
11
267.363968
21
121.550943
0
LINE
8
Image
10
267.363968
20
121.550943
11
268.831814
21
118.659687
0
LINE
8
Image
10
268.831814
20
118.659687
11
270.065714
21
115.796152
0
LINE
8
Image
10
270.065714
20
115.796152
11
271.082435
21
112.924620
0
LINE
8
Image
10
271.082435
20
112.924620
11
271.898748
21
110.009372
0
LINE
8
Image
10
271.898748
20
110.009372
11
272.531421
21
107.014689
0
LINE
8
Image
10
272.531421
20
107.014689
11
272.997223
21
103.904852
0
LINE
8
Image
10
272.997223
20
103.904852
11
273.312923
21
100.644142
0
LINE
8
Image
10
273.312923
20
100.644142
11
273.561095
21
93.527230
0
LINE
8
Image
10
273.561095
20
93.527230
11
273.472423
21
88.137861
0
LINE
8
Image
10
273.472423
20
88.137861
11
273.148981
21
83.283689
0
LINE
8
Image
10
273.148981
20
83.283689
11
272.563657
21
78.860002
0
LINE
8
Image
10
272.563657
20
78.860002
11
271.689339
21
74.762083
0
LINE
8
Image
10
271.689339
20
74.762083
11
270.498914
21
70.885218
0
LINE
8
Image
10
270.498914
20
70.885218
11
268.965270
21
67.124692
0
LINE
8
Image
10
268.965270
20
67.124692
11
267.061294
21
63.375792
0
LINE
8
Image
10
267.061294
20
63.375792
11
264.759874
21
59.533802
0
LINE
8
Image
10
264.759874
20
59.533802
11
263.206023
21
57.245414
0
LINE
8
Image
10
263.206023
20
57.245414
11
261.523978
21
55.035597
0
LINE
8
Image
10
261.523978
20
55.035597
11
257.799340
21
50.867908
0
LINE
8
Image
10
257.799340
20
50.867908
11
253.634024
21
47.063203
0
LINE
8
Image
10
253.634024
20
47.063203
11
249.076096
21
43.653950
0
LINE
8
Image
10
249.076096
20
43.653950
11
244.173623
21
40.672618
0
LINE
8
Image
10
244.173623
20
40.672618
11
238.974669
21
38.151677
0
LINE
8
Image
10
238.974669
20
38.151677
11
233.527301
21
36.123594
0
LINE
8
Image
10
233.527301
20
36.123594
11
227.879583
21
34.620838
0
LINE
8
Image
10
227.879583
20
34.620838
11
221.553112
21
33.401313
0
LINE
8
Image
10
221.553112
20
33.401313
11
219.105505
21
33.117918
0
LINE
8
Image
10
219.105505
20
33.117918
11
216.875097
21
33.058550
0
LINE
8
Image
10
216.875097
20
33.058550
11
214.666971
21
33.228045
0
LINE
8
Image
10
214.666971
20
33.228045
11
212.286214
21
33.631239
0
LINE
8
Image
10
212.286214
20
33.631239
11
206.227142
21
35.158066
0
LINE
8
Image
10
206.227142
20
35.158066
11
206.227142
21
35.158066
0
LINE
8
Image
10
237.295272
20
49.741585
11
237.892363
21
50.625077
0
LINE
8
Image
10
237.892363
20
50.625077
11
238.263267
21
51.537345
0
LINE
8
Image
10
238.263267
20
51.537345
11
238.426197
21
52.460176
0
LINE
8
Image
10
238.426197
20
52.460176
11
238.399363
21
53.375360
0
LINE
8
Image
10
238.399363
20
53.375360
11
238.200978
21
54.264683
0
LINE
8
Image
10
238.200978
20
54.264683
11
237.849253
21
55.109936
0
LINE
8
Image
10
237.849253
20
55.109936
11
236.758628
21
56.595383
0
LINE
8
Image
10
236.758628
20
56.595383
11
235.273182
21
57.686008
0
LINE
8
Image
10
235.273182
20
57.686008
11
234.427929
21
58.037732
0
LINE
8
Image
10
234.427929
20
58.037732
11
233.538606
21
58.236117
0
LINE
8
Image
10
233.538606
20
58.236117
11
232.623423
21
58.262950
0
LINE
8
Image
10
232.623423
20
58.262950
11
231.700592
21
58.100020
0
LINE
8
Image
10
231.700592
20
58.100020
11
230.788325
21
57.729115
0
LINE
8
Image
10
230.788325
20
57.729115
11
229.904834
21
57.132023
0
LINE
8
Image
10
229.904834
20
57.132023
11
229.101356
21
56.277839
0
LINE
8
Image
10
229.101356
20
56.277839
11
228.468239
21
55.229658
0
LINE
8
Image
10
228.468239
20
55.229658
11
228.014461
21
54.053909
0
LINE
8
Image
10
228.014461
20
54.053909
11
227.749002
21
52.817022
0
LINE
8
Image
10
227.749002
20
52.817022
11
227.680840
21
51.585428
0
LINE
8
Image
10
227.680840
20
51.585428
11
227.818954
21
50.425554
0
LINE
8
Image
10
227.818954
20
50.425554
11
228.172325
21
49.403833
0
LINE
8
Image
10
228.172325
20
49.403833
11
228.749929
21
48.586693
0
LINE
8
Image
10
228.749929
20
48.586693
11
229.567069
21
48.009089
0
LINE
8
Image
10
229.567069
20
48.009089
11
230.588791
21
47.655717
0
LINE
8
Image
10
230.588791
20
47.655717
11
231.748666
21
47.517599
0
LINE
8
Image
10
231.748666
20
47.517599
11
232.980264
21
47.585757
0
LINE
8
Image
10
232.980264
20
47.585757
11
234.217154
21
47.851213
0
LINE
8
Image
10
234.217154
20
47.851213
11
235.392905
21
48.304988
0
LINE
8
Image
10
235.392905
20
48.304988
11
236.441088
21
48.938105
0
LINE
8
Image
10
236.441088
20
48.938105
11
237.295272
21
49.741585
0
LINE
8
Image
10
237.295272
20
49.741585
11
237.295272
21
49.741585
0
LINE
8
Image
10
185.277275
20
63.161668
11
186.177626
21
64.506303
0
LINE
8
Image
10
186.177626
20
64.506303
11
186.544744
21
65.781078
0
LINE
8
Image
10
186.544744
20
65.781078
11
186.385779
21
67.074170
0
LINE
8
Image
10
186.385779
20
67.074170
11
185.707884
21
68.473754
0
LINE
8
Image
10
185.707884
20
68.473754
11
184.773331
21
69.612744
0
LINE
8
Image
10
184.773331
20
69.612744
11
183.650948
21
70.430515
0
LINE
8
Image
10
183.650948
20
70.430515
11
182.403739
21
70.926485
0
LINE
8
Image
10
182.403739
20
70.926485
11
181.094711
21
71.100070
0
LINE
8
Image
10
181.094711
20
71.100070
11
179.786870
21
70.950688
0
LINE
8
Image
10
179.786870
20
70.950688
11
178.543222
21
70.477756
0
LINE
8
Image
10
178.543222
20
70.477756
11
177.426772
21
69.680690
0
LINE
8
Image
10
177.426772
20
69.680690
11
176.500528
21
68.558908
0
LINE
8
Image
10
176.500528
20
68.558908
11
175.904346
21
67.416600
0
LINE
8
Image
10
175.904346
20
67.416600
11
175.564066
21
66.318117
0
LINE
8
Image
10
175.564066
20
66.318117
11
175.457557
21
65.277067
0
LINE
8
Image
10
175.457557
20
65.277067
11
175.562692
21
64.307059
0
LINE
8
Image
10
175.562692
20
64.307059
11
175.857339
21
63.421701
0
LINE
8
Image
10
175.857339
20
63.421701
11
176.319369
21
62.634601
0
LINE
8
Image
10
176.319369
20
62.634601
11
176.926654
21
61.959368
0
LINE
8
Image
10
176.926654
20
61.959368
11
177.657063
21
61.409610
0
LINE
8
Image
10
177.657063
20
61.409610
11
178.488467
21
60.998937
0
LINE
8
Image
10
178.488467
20
60.998937
11
179.398737
21
60.740955
0
LINE
8
Image
10
179.398737
20
60.740955
11
180.365742
21
60.649273
0
LINE
8
Image
10
180.365742
20
60.649273
11
181.367354
21
60.737501
0
LINE
8
Image
10
181.367354
20
60.737501
11
182.381443
21
61.019246
0
LINE
8
Image
10
182.381443
20
61.019246
11
183.385879
21
61.508116
0
LINE
8
Image
10
183.385879
20
61.508116
11
184.358533
21
62.217721
0
LINE
8
Image
10
184.358533
20
62.217721
11
185.277275
21
63.161668
0
LINE
8
Image
10
185.277275
20
63.161668
11
185.277275
21
63.161668
0
LINE
8
Image
10
266.567769
20
93.462502
11
266.595622
21
95.055248
0
LINE
8
Image
10
266.595622
20
95.055248
11
266.307064
21
96.431484
0
LINE
8
Image
10
266.307064
20
96.431484
11
265.732954
21
97.567345
0
LINE
8
Image
10
265.732954
20
97.567345
11
264.904151
21
98.438966
0
LINE
8
Image
10
264.904151
20
98.438966
11
263.851513
21
99.022480
0
LINE
8
Image
10
263.851513
20
99.022480
11
262.605899
21
99.294022
0
LINE
8
Image
10
262.605899
20
99.294022
11
261.198167
21
99.229726
0
LINE
8
Image
10
261.198167
20
99.229726
11
259.659177
21
98.805727
0
LINE
8
Image
10
259.659177
20
98.805727
11
258.613612
21
98.295248
0
LINE
8
Image
10
258.613612
20
98.295248
11
257.764873
21
97.659183
0
LINE
8
Image
10
257.764873
20
97.659183
11
257.106011
21
96.920962
0
LINE
8
Image
10
257.106011
20
96.920962
11
256.630080
21
96.104016
0
LINE
8
Image
10
256.630080
20
96.104016
11
256.330132
21
95.231776
0
LINE
8
Image
10
256.330132
20
95.231776
11
256.199221
21
94.327673
0
LINE
8
Image
10
256.199221
20
94.327673
11
256.230399
21
93.415137
0
LINE
8
Image
10
256.230399
20
93.415137
11
256.416718
21
92.517601
0
LINE
8
Image
10
256.416718
20
92.517601
11
256.751233
21
91.658494
0
LINE
8
Image
10
256.751233
20
91.658494
11
257.226995
21
90.861247
0
LINE
8
Image
10
257.226995
20
90.861247
11
257.837058
21
90.149292
0
LINE
8
Image
10
257.837058
20
90.149292
11
258.574474
21
89.546059
0
LINE
8
Image
10
258.574474
20
89.546059
11
259.432296
21
89.074980
0
LINE
8
Image
10
259.432296
20
89.074980
11
260.403577
21
88.759484
0
LINE
8
Image
10
260.403577
20
88.759484
11
261.481370
21
88.623004
0
LINE
8
Image
10
261.481370
20
88.623004
11
262.658728
21
88.688970
0
LINE
8
Image
10
262.658728
20
88.688970
11
264.194613
21
89.166631
0
LINE
8
Image
10
264.194613
20
89.166631
11
264.819870
21
89.580695
0
LINE
8
Image
10
264.819870
20
89.580695
11
265.351619
21
90.113553
0
LINE
8
Image
10
265.351619
20
90.113553
11
266.139439
21
91.541567
0
LINE
8
Image
10
266.139439
20
91.541567
11
266.567769
21
93.462502
0
LINE
8
Image
10
266.567769
20
93.462502
11
266.567769
21
93.462502
0
LINE
8
Image
10
69.932184
20
50.234125
11
66.588719
21
51.763270
0
LINE
8
Image
10
66.588719
20
51.763270
11
63.101946
21
53.608784
0
LINE
8
Image
10
63.101946
20
53.608784
11
59.564609
21
55.707075
0
LINE
8
Image
10
59.564609
20
55.707075
11
56.069450
21
57.994551
0
LINE
8
Image
10
56.069450
20
57.994551
11
52.709215
21
60.407619
0
LINE
8
Image
10
52.709215
20
60.407619
11
49.576645
21
62.882689
0
LINE
8
Image
10
49.576645
20
62.882689
11
46.764484
21
65.356168
0
LINE
8
Image
10
46.764484
20
65.356168
11
44.365476
21
67.764465
0
LINE
8
Image
10
44.365476
20
67.764465
11
42.149261
21
70.501123
0
LINE
8
Image
10
42.149261
20
70.501123
11
39.760895
21
73.991845
0
LINE
8
Image
10
39.760895
20
73.991845
11
37.344516
21
77.961734
0
LINE
8
Image
10
37.344516
20
77.961734
11
35.044260
21
82.135889
0
LINE
8
Image
10
35.044260
20
82.135889
11
33.004266
21
86.239415
0
LINE
8
Image
10
33.004266
20
86.239415
11
31.368671
21
89.997411
0
LINE
8
Image
10
31.368671
20
89.997411
11
30.281613
21
93.134980
0
LINE
8
Image
10
30.281613
20
93.134980
11
29.887230
21
95.377223
0
LINE
8
Image
10
29.887230
20
95.377223
11
29.763479
21
97.096531
0
LINE
8
Image
10
29.763479
20
97.096531
11
29.426538
21
99.392387
0
LINE
8
Image
10
29.426538
20
99.392387
11
28.318940
21
104.514470
0
LINE
8
Image
10
28.318940
20
104.514470
11
26.935542
21
110.459935
0
LINE
8
Image
10
26.935542
20
110.459935
11
25.811778
21
116.454717
0
LINE
8
Image
10
25.811778
20
116.454717
11
25.148750
21
119.674017
0
LINE
8
Image
10
25.148750
20
119.674017
11
24.716788
21
120.759760
0
LINE
8
Image
10
24.716788
20
120.759760
11
24.153319
21
121.564342
0
LINE
8
Image
10
24.153319
20
121.564342
11
23.409937
21
122.138842
0
LINE
8
Image
10
23.409937
20
122.138842
11
22.438236
21
122.534343
0
LINE
8
Image
10
22.438236
20
122.534343
11
19.616250
21
122.992672
0
LINE
8
Image
10
19.616250
20
122.992672
11
16.965475
21
123.408576
0
LINE
8
Image
10
16.965475
20
123.408576
11
16.047362
21
123.730070
0
LINE
8
Image
10
16.047362
20
123.730070
11
15.361768
21
124.160470
0
LINE
8
Image
10
15.361768
20
124.160470
11
14.879444
21
124.724687
0
LINE
8
Image
10
14.879444
20
124.724687
11
14.571139
21
125.447630
0
LINE
8
Image
10
14.571139
20
125.447630
11
14.359594
21
127.469331
0
LINE
8
Image
10
14.359594
20
127.469331
11
14.475072
21
128.929879
0
LINE
8
Image
10
14.475072
20
128.929879
11
14.895991
21
130.130065
0
LINE
8
Image
10
14.895991
20
130.130065
11
15.734081
21
131.121698
0
LINE
8
Image
10
15.734081
20
131.121698
11
17.101071
21
131.956588
0
LINE
8
Image
10
17.101071
20
131.956588
11
19.108691
21
132.686548
0
LINE
8
Image
10
19.108691
20
132.686548
11
21.868670
21
133.363385
0
LINE
8
Image
10
21.868670
20
133.363385
11
30.092625
21
134.764938
0
LINE
8
Image
10
30.092625
20
134.764938
11
37.588923
21
135.889087
0
LINE
8
Image
10
37.588923
20
135.889087
11
38.533617
21
126.735939
0
LINE
8
Image
10
38.533617
20
126.735939
11
39.198367
21
122.717199
0
LINE
8
Image
10
39.198367
20
122.717199
11
40.365704
21
118.242285
0
LINE
8
Image
10
40.365704
20
118.242285
11
41.948021
21
113.514163
0
LINE
8
Image
10
41.948021
20
113.514163
11
43.857711
21
108.735796
0
LINE
8
Image
10
43.857711
20
108.735796
11
46.007167
21
104.110150
0
LINE
8
Image
10
46.007167
20
104.110150
11
48.308781
21
99.840189
0
LINE
8
Image
10
48.308781
20
99.840189
11
50.674946
21
96.128878
0
LINE
8
Image
10
50.674946
20
96.128878
11
53.018054
21
93.179181
0
LINE
8
Image
10
53.018054
20
93.179181
11
56.090499
21
90.071479
0
LINE
8
Image
10
56.090499
20
90.071479
11
59.290650
21
87.273311
0
LINE
8
Image
10
59.290650
20
87.273311
11
62.598404
21
84.788599
0
LINE
8
Image
10
62.598404
20
84.788599
11
65.993654
21
82.621264
0
LINE
8
Image
10
65.993654
20
82.621264
11
69.456295
21
80.775229
0
LINE
8
Image
10
69.456295
20
80.775229
11
72.966223
21
79.254415
0
LINE
8
Image
10
72.966223
20
79.254415
11
76.503332
21
78.062746
0
LINE
8
Image
10
76.503332
20
78.062746
11
80.047516
21
77.204142
0
LINE
8
Image
10
80.047516
20
77.204142
11
83.578672
21
76.682526
0
LINE
8
Image
10
83.578672
20
76.682526
11
87.076693
21
76.501821
0
LINE
8
Image
10
87.076693
20
76.501821
11
90.521474
21
76.665946
0
LINE
8
Image
10
90.521474
20
76.665946
11
93.892911
21
77.178826
0
LINE
8
Image
10
93.892911
20
77.178826
11
97.170897
21
78.044382
0
LINE
8
Image
10
97.170897
20
78.044382
11
100.335329
21
79.266536
0
LINE
8
Image
10
100.335329
20
79.266536
11
103.366100
21
80.849210
0
LINE
8
Image
10
103.366100
20
80.849210
11
106.243105
21
82.796325
0
LINE
8
Image
10
106.243105
20
82.796325
11
108.095749
21
84.367936
0
LINE
8
Image
10
108.095749
20
84.367936
11
109.834076
21
86.157961
0
LINE
8
Image
10
109.834076
20
86.157961
11
111.451113
21
88.143912
0
LINE
8
Image
10
111.451113
20
88.143912
11
112.939885
21
90.303297
0
LINE
8
Image
10
112.939885
20
90.303297
11
114.293420
21
92.613628
0
LINE
8
Image
10
114.293420
20
92.613628
11
115.504743
21
95.052415
0
LINE
8
Image
10
115.504743
20
95.052415
11
116.566881
21
97.597167
0
LINE
8
Image
10
116.566881
20
97.597167
11
117.472861
21
100.225395
0
LINE
8
Image
10
117.472861
20
100.225395
11
118.215709
21
102.914610
0
LINE
8
Image
10
118.215709
20
102.914610
11
118.788450
21
105.642321
0
LINE
8
Image
10
118.788450
20
105.642321
11
119.184113
21
108.386040
0
LINE
8
Image
10
119.184113
20
108.386040
11
119.395722
21
111.123275
0
LINE
8
Image
10
119.395722
20
111.123275
11
119.416305
21
113.831537
0
LINE
8
Image
10
119.416305
20
113.831537
11
119.238888
21
116.488337
0
LINE
8
Image
10
119.238888
20
116.488337
11
118.856497
21
119.071184
0
LINE
8
Image
10
118.856497
20
119.071184
11
118.262158
21
121.557589
0
LINE
8
Image
10
118.262158
20
121.557589
11
116.237107
21
127.746569
0
LINE
8
Image
10
116.237107
20
127.746569
11
113.861028
21
133.451379
0
LINE
8
Image
10
113.861028
20
133.451379
11
111.086456
21
138.737582
0
LINE
8
Image
10
111.086456
20
138.737582
11
107.865925
21
143.670743
0
LINE
8
Image
10
107.865925
20
143.670743
11
104.151970
21
148.316425
0
LINE
8
Image
10
104.151970
20
148.316425
11
99.897126
21
152.740191
0
LINE
8
Image
10
99.897126
20
152.740191
11
95.053926
21
157.007606
0
LINE
8
Image
10
95.053926
20
157.007606
11
89.574905
21
161.184233
0
LINE
8
Image
10
89.574905
20
161.184233
11
84.873213
21
164.543498
0
LINE
8
Image
10
84.873213
20
164.543498
11
91.900855
21
173.851514
0
LINE
8
Image
10
91.900855
20
173.851514
11
94.718371
21
177.465645
0
LINE
8
Image
10
94.718371
20
177.465645
11
97.194787
21
180.425303
0
LINE
8
Image
10
97.194787
20
180.425303
11
99.062570
21
182.425071
0
LINE
8
Image
10
99.062570
20
182.425071
11
100.054191
21
183.159531
0
LINE
8
Image
10
100.054191
20
183.159531
11
100.738117
21
182.979037
0
LINE
8
Image
10
100.738117
20
182.979037
11
101.768147
21
182.487595
0
LINE
8
Image
10
101.768147
20
182.487595
11
104.308157
21
180.872097
0
LINE
8
Image
10
104.308157
20
180.872097
11
105.938443
21
179.507763
0
LINE
8
Image
10
105.938443
20
179.507763
11
106.375455
21
178.891009
0
LINE
8
Image
10
106.375455
20
178.891009
11
106.568814
21
178.238897
0
LINE
8
Image
10
106.568814
20
178.238897
11
106.524844
21
177.492204
0
LINE
8
Image
10
106.524844
20
177.492204
11
106.249870
21
176.591704
0
LINE
8
Image
10
106.249870
20
176.591704
11
105.032215
21
174.092385
0
LINE
8
Image
10
105.032215
20
174.092385
11
104.273491
21
172.619745
0
LINE
8
Image
10
104.273491
20
172.619745
11
103.799476
21
171.425353
0
LINE
8
Image
10
103.799476
20
171.425353
11
103.664560
21
170.395109
0
LINE
8
Image
10
103.664560
20
170.395109
11
103.923136
21
169.414911
0
LINE
8
Image
10
103.923136
20
169.414911
11
104.629594
21
168.370658
0
LINE
8
Image
10
104.629594
20
168.370658
11
105.838326
21
167.148249
0
LINE
8
Image
10
105.838326
20
167.148249
11
109.980181
21
163.712559
0
LINE
8
Image
10
109.980181
20
163.712559
11
113.621981
21
160.646380
0
LINE
8
Image
10
113.621981
20
160.646380
11
118.102830
21
156.650184
0
LINE
8
Image
10
118.102830
20
156.650184
11
127.307457
21
147.938115
0
LINE
8
Image
10
127.307457
20
147.938115
11
131.417761
21
143.556991
0
LINE
8
Image
10
131.417761
20
143.556991
11
134.929075
21
139.123521
0
LINE
8
Image
10
134.929075
20
139.123521
11
137.878620
21
134.553349
0
LINE
8
Image
10
137.878620
20
134.553349
11
140.303612
21
129.762121
0
LINE
8
Image
10
140.303612
20
129.762121
11
142.241272
21
124.665482
0
LINE
8
Image
10
142.241272
20
124.665482
11
143.728816
21
119.179077
0
LINE
8
Image
10
143.728816
20
119.179077
11
144.803464
21
113.218551
0
LINE
8
Image
10
144.803464
20
113.218551
11
145.502433
21
106.699550
0
LINE
8
Image
10
145.502433
20
106.699550
11
145.831975
21
100.066699
0
LINE
8
Image
10
145.831975
20
100.066699
11
145.755243
21
97.374379
0
LINE
8
Image
10
145.755243
20
97.374379
11
145.482348
21
94.869618
0
LINE
8
Image
10
145.482348
20
94.869618
11
144.986920
21
92.381033
0
LINE
8
Image
10
144.986920
20
92.381033
11
144.242586
21
89.737239
0
LINE
8
Image
10
144.242586
20
89.737239
11
141.901723
21
83.298491
0
LINE
8
Image
10
141.901723
20
83.298491
11
139.690118
21
78.358180
0
LINE
8
Image
10
139.690118
20
78.358180
11
137.033290
21
73.640317
0
LINE
8
Image
10
137.033290
20
73.640317
11
133.968825
21
69.186394
0
LINE
8
Image
10
133.968825
20
69.186394
11
130.534312
21
65.037905
0
LINE
8
Image
10
130.534312
20
65.037905
11
126.767337
21
61.236344
0
LINE
8
Image
10
126.767337
20
61.236344
11
122.705487
21
57.823204
0
LINE
8
Image
10
122.705487
20
57.823204
11
118.386349
21
54.839979
0
LINE
8
Image
10
118.386349
20
54.839979
11
113.847512
21
52.328161
0
LINE
8
Image
10
113.847512
20
52.328161
11
111.735185
21
51.415708
0
LINE
8
Image
10
111.735185
20
51.415708
11
109.357259
21
50.598820
0
LINE
8
Image
10
109.357259
20
50.598820
11
103.959992
21
49.259151
0
LINE
8
Image
10
103.959992
20
49.259151
11
97.966479
21
48.323974
0
LINE
8
Image
10
97.966479
20
48.323974
11
91.687491
21
47.808107
0
LINE
8
Image
10
91.687491
20
47.808107
11
85.433798
21
47.726370
0
LINE
8
Image
10
85.433798
20
47.726370
11
79.516170
21
48.093581
0
LINE
8
Image
10
79.516170
20
48.093581
11
76.780495
21
48.450173
0
LINE
8
Image
10
76.780495
20
48.450173
11
74.245375
21
48.924560
0
LINE
8
Image
10
74.245375
20
48.924560
11
71.949656
21
49.518593
0
LINE
8
Image
10
71.949656
20
49.518593
11
69.932184
21
50.234125
0
LINE
8
Image
10
69.932184
20
50.234125
11
69.932184
21
50.234125
0
LINE
8
Image
10
115.697846
20
68.745370
11
115.497122
21
70.774935
0
LINE
8
Image
10
115.497122
20
70.774935
11
115.216141
21
71.518698
0
LINE
8
Image
10
115.216141
20
71.518698
11
114.788012
21
72.109164
0
LINE
8
Image
10
114.788012
20
72.109164
11
114.192684
21
72.566868
0
LINE
8
Image
10
114.192684
20
72.566868
11
113.410108
21
72.912347
0
LINE
8
Image
10
113.410108
20
72.912347
11
111.203005
21
73.348773
0
LINE
8
Image
10
111.203005
20
73.348773
11
108.898211
21
73.467222
0
LINE
8
Image
10
108.898211
20
73.467222
11
108.111564
21
73.337399
0
LINE
8
Image
10
108.111564
20
73.337399
11
107.531161
21
73.053071
0
LINE
8
Image
10
107.531161
20
73.053071
11
107.128812
21
72.592883
0
LINE
8
Image
10
107.128812
20
72.592883
11
106.876323
21
71.935478
0
LINE
8
Image
10
106.876323
20
71.935478
11
106.708163
21
69.943597
0
LINE
8
Image
10
106.708163
20
69.943597
11
106.777298
21
68.257128
0
LINE
8
Image
10
106.777298
20
68.257128
11
106.995674
21
66.880267
0
LINE
8
Image
10
106.995674
20
66.880267
11
107.379750
21
65.796242
0
LINE
8
Image
10
107.379750
20
65.796242
11
107.945981
21
64.988280
0
LINE
8
Image
10
107.945981
20
64.988280
11
108.710826
21
64.439606
0
LINE
8
Image
10
108.710826
20
64.439606
11
109.690742
21
64.133449
0
LINE
8
Image
10
109.690742
20
64.133449
11
110.902185
21
64.053034
0
LINE
8
Image
10
110.902185
20
64.053034
11
112.361614
21
64.181588
0
LINE
8
Image
10
112.361614
20
64.181588
11
113.870768
21
64.632768
0
LINE
8
Image
10
113.870768
20
64.632768
11
114.446247
21
65.016675
0
LINE
8
Image
10
114.446247
20
65.016675
11
114.907835
21
65.513660
0
LINE
8
Image
10
114.907835
20
65.513660
11
115.505849
21
66.869462
0
LINE
8
Image
10
115.505849
20
66.869462
11
115.697846
21
68.745370
0
LINE
8
Image
10
115.697846
20
68.745370
11
115.697846
21
68.745370
0
LINE
8
Image
10
63.484376
20
70.663935
11
63.676760
21
72.073395
0
LINE
8
Image
10
63.676760
20
72.073395
11
63.436335
21
73.514228
0
LINE
8
Image
10
63.436335
20
73.514228
11
62.836930
21
74.901618
0
LINE
8
Image
10
62.836930
20
74.901618
11
61.952371
21
76.150751
0
LINE
8
Image
10
61.952371
20
76.150751
11
60.856484
21
77.176813
0
LINE
8
Image
10
60.856484
20
77.176813
11
59.623098
21
77.894990
0
LINE
8
Image
10
59.623098
20
77.894990
11
58.326039
21
78.220465
0
LINE
8
Image
10
58.326039
20
78.220465
11
57.039134
21
78.068425
0
LINE
8
Image
10
57.039134
20
78.068425
11
56.045202
21
77.563720
0
LINE
8
Image
10
56.045202
20
77.563720
11
55.142512
21
76.778957
0
LINE
8
Image
10
55.142512
20
76.778957
11
54.360232
21
75.778345
0
LINE
8
Image
10
54.360232
20
75.778345
11
53.727530
21
74.626089
0
LINE
8
Image
10
53.727530
20
74.626089
11
53.273574
21
73.386397
0
LINE
8
Image
10
53.273574
20
73.386397
11
53.027533
21
72.123476
0
LINE
8
Image
10
53.027533
20
72.123476
11
53.018573
21
70.901532
0
LINE
8
Image
10
53.018573
20
70.901532
11
53.275864
21
69.784774
0
LINE
8
Image
10
53.275864
20
69.784774
11
53.630936
21
69.082016
0
LINE
8
Image
10
53.630936
20
69.082016
11
54.103608
21
68.487165
0
LINE
8
Image
10
54.103608
20
68.487165
11
55.333289
21
67.615284
0
LINE
8
Image
10
55.333289
20
67.615284
11
56.827986
21
67.157339
0
LINE
8
Image
10
56.827986
20
67.157339
11
58.450773
21
67.101539
0
LINE
8
Image
10
58.450773
20
67.101539
11
60.064730
21
67.436090
0
LINE
8
Image
10
60.064730
20
67.436090
11
61.532931
21
68.149201
0
LINE
8
Image
10
61.532931
20
68.149201
11
62.718454
21
69.229080
0
LINE
8
Image
10
62.718454
20
69.229080
11
63.162423
21
69.902873
0
LINE
8
Image
10
63.162423
20
69.902873
11
63.484376
21
70.663935
0
LINE
8
Image
10
63.484376
20
70.663935
11
63.484376
21
70.663935
0
LINE
8
Image
10
136.770983
20
113.380898
11
137.526622
21
114.938541
0
LINE
8
Image
10
137.526622
20
114.938541
11
137.650441
21
115.595600
0
LINE
8
Image
10
137.650441
20
115.595600
11
137.597094
21
116.203696
0
LINE
8
Image
10
137.597094
20
116.203696
11
137.360704
21
116.786990
0
LINE
8
Image
10
137.360704
20
116.786990
11
136.935397
21
117.369641
0
LINE
8
Image
10
136.935397
20
117.369641
11
135.494529
21
118.629650
0
LINE
8
Image
10
135.494529
20
118.629650
11
134.423448
21
119.299727
0
LINE
8
Image
10
134.423448
20
119.299727
11
133.352582
21
119.738960
0
LINE
8
Image
10
133.352582
20
119.738960
11
132.299695
21
119.964975
0
LINE
8
Image
10
132.299695
20
119.964975
11
131.282550
21
119.995402
0
LINE
8
Image
10
131.282550
20
119.995402
11
130.318914
21
119.847868
0
LINE
8
Image
10
130.318914
20
119.847868
11
129.426550
21
119.540002
0
LINE
8
Image
10
129.426550
20
119.540002
11
128.623223
21
119.089431
0
LINE
8
Image
10
128.623223
20
119.089431
11
127.926697
21
118.513784
0
LINE
8
Image
10
127.926697
20
118.513784
11
127.354738
21
117.830690
0
LINE
8
Image
10
127.354738
20
117.830690
11
126.925110
21
117.057775
0
LINE
8
Image
10
126.925110
20
117.057775
11
126.655577
21
116.212669
0
LINE
8
Image
10
126.655577
20
116.212669
11
126.563904
21
115.312998
0
LINE
8
Image
10
126.563904
20
115.312998
11
126.667855
21
114.376393
0
LINE
8
Image
10
126.667855
20
114.376393
11
126.985196
21
113.420480
0
LINE
8
Image
10
126.985196
20
113.420480
11
127.533690
21
112.462888
0
LINE
8
Image
10
127.533690
20
112.462888
11
128.331103
21
111.521244
0
LINE
8
Image
10
128.331103
20
111.521244
11
129.353816
21
110.696470
0
LINE
8
Image
10
129.353816
20
110.696470
11
130.437736
21
110.185216
0
LINE
8
Image
10
130.437736
20
110.185216
11
131.556871
21
109.981756
0
LINE
8
Image
10
131.556871
20
109.981756
11
132.685226
21
110.080362
0
LINE
8
Image
10
132.685226
20
110.080362
11
133.796808
21
110.475307
0
LINE
8
Image
10
133.796808
20
110.475307
11
134.865624
21
111.160862
0
LINE
8
Image
10
134.865624
20
111.160862
11
135.865680
21
112.131302
0
LINE
8
Image
10
135.865680
20
112.131302
11
136.770983
21
113.380898
0
LINE
8
Image
10
136.770983
20
113.380898
11
136.770983
21
113.380898
 0 
ENDSEC
 0 
EOF