0
SECTION
2
HEADER
9
$INSUNITS
70
4
9
$ACADVER
1
AC1014
9
$HANDSEED
5
FFFF
0
ENDSEC
0
SECTION
2
TABLES
0
TABLE
2
VPORT
5
8
100
AcDbSymbolTable
0
ENDTAB
0
TABLE
2
LTYPE
5
5
100
AcDbSymbolTable
0
LTYPE
5
14
100
AcDbSymbolTableRecord
100
AcDbLinetypeTableRecord
2
BYBLOCK
70
0
0
LTYPE
5
15
100
AcDbSymbolTableRecord
100
AcDbLinetypeTableRecord
2
BYLAYER
70
0
0
ENDTAB
0
TABLE
2
LAYER
5
2
100
AcDbSymbolTable
70
2
0
LAYER
5
50
100
AcDbSymbolTableRecord
100
AcDbLayerTableRecord
2
0
70
0
6
CONTINUOUS
0
ENDTAB
0
TABLE
2
STYLE
5
3
100
AcDbSymbolTable
70
1
0
STYLE
5
11
100
AcDbSymbolTableRecord
100
AcDbTextStyleTableRecord
2
STANDARD
70
0
0
ENDTAB
0
TABLE
2
VIEW
5
6
100
AcDbSymbolTable
70
0
0
ENDTAB
0
TABLE
2
UCS
5
7
100
AcDbSymbolTable
70
0
0
ENDTAB
0
TABLE
2
APPID
5
9
100
AcDbSymbolTable
70
2
0
APPID
5
12
100
AcDbSymbolTableRecord
100
AcDbRegAppTableRecord
2
ACAD
70
0
0
ENDTAB
0
TABLE
2
DIMSTYLE
5
A
100
AcDbSymbolTable
70
1
0
ENDTAB
0
TABLE
2
BLOCK_RECORD
5
1
100
AcDbSymbolTable
70
1
0
BLOCK_RECORD
5
1F
100
AcDbSymbolTableRecord
100
AcDbBlockTableRecord
2
*MODEL_SPACE
0
BLOCK_RECORD
5
1B
100
AcDbSymbolTableRecord
100
AcDbBlockTableRecord
2
*PAPER_SPACE
0
ENDTAB
0
ENDSEC
0
SECTION
2
BLOCKS
0
BLOCK
5
20
100
AcDbEntity
100
AcDbBlockBegin
2
*MODEL_SPACE
0
ENDBLK
5
21
100
AcDbEntity
100
AcDbBlockEnd
0
BLOCK
5
1C
100
AcDbEntity
100
AcDbBlockBegin
2
*PAPER_SPACE
0
ENDBLK
5
1D
100
AcDbEntity
100
AcDbBlockEnd
0
ENDSEC
0
SECTION
2
ENTITIES
0
ELLIPSE
5
100
100
AcDbEntity
8
0
100
AcDbEllipse
10
0
20
0
30
0
11
5.8860273576365439e-13
21
-80.534320151506591
31
0.0
40
0.67158248343831528
41
-1.5707963267948966
42
4.7123889803846897
0
LINE
5
101
100
AcDbEntity
8
0
100
AcDbLine
10
-5.8343127201053089e-13
20
80.534320151506591
30
0
11
-5.9009142318957112e-13
21
-80.534320151506591
31
0
0
ELLIPSE
5
102
100
AcDbEntity
8
0
100
AcDbEllipse
10
0
20
0
30
0
11
6.0395104618309176e-13
21
-82.634320151506586
31
0.0
40
0.67992861351495937
41
-1.5707963267948966
42
4.7123889803846897
0
ELLIPSE
5
103
100
AcDbEntity
8
0
100
AcDbEllipse
10
0
20
0
30
0
11
6.3364625804258833e-13
21
-86.697304493155627
31
0.0
40
0.69492844585232205
41
-1.5707963267948966
42
4.7123889803846897
0
ELLIPSE
5
104
100
AcDbEntity
8
0
100
AcDbEllipse
10
0
20
0
30
0
11
6.7749857352669508e-13
21
-92.697304493155613
31
0.0
40
0.71467475169038686
41
-1.5707963267948966
42
4.7123889803846897
0
LINE
5
105
100
AcDbEntity
8
0
100
AcDbLine
10
24.755937207234457
20
69.096584991193026
30
0
11
-26.693588664170598
21
-67.436596219461109
31
0
0
ELLIPSE
5
106
100
AcDbEntity
8
0
100
AcDbEllipse
10
0
20
0
30
0
11
5.7398529726895191e-13
21
-78.534320151506577
31
0.0
40
0.6632188147663739
41
2.6462936074740462
42
5.7450960593130613
0
LWPOLYLINE
5
107
100
AcDbEntity
8
0
100
AcDbPolyline
90
4
70
1
43
0.0
10
39.25651066943437
20
-17.324389560925738
10
43.33252950456432
20
-17.324389560925738
42
5.5517413114027097
10
44.330770953674886
20
-35.072173005242647
10
40.454630653463653
20
-35.072173005242639
42
-4.6887636476229799
0
LINE
5
108
100
AcDbEntity
8
0
100
AcDbLine
10
25.508862468006694
20
-16.639124542343307
30
0
11
28.495721472728206
21
-15.13463259922432
31
0
0
LINE
5
109
100
AcDbEntity
8
0
100
AcDbLine
10
7.4770840320953402
20
-36.241769565923015
30
0
11
10.751566496530776
21
-35.113400608583774
31
0
0
LINE
5
110
100
AcDbEntity
8
0
100
AcDbLine
10
32.234145955775503
20
-18.126196393019288
30
0
11
16.174449417792665
21
-18.126196393019288
31
0
0
LINE
5
111
100
AcDbEntity
8
0
100
AcDbLine
10
16.121464117089854
20
-46.877730777524498
30
0
11
19.167861370759983
21
-46.883344887449461
31
0
0
LINE
5
112
100
AcDbEntity
8
0
100
AcDbLine
10
19.16457517243964
20
-21.275767947070293
30
0
11
32.265341622200282
21
-21.274086736981474
31
0
0
LINE
5
113
100
AcDbEntity
8
0
100
AcDbLine
10
32.265341622200282
20
-21.274086736981474
30
0
11
32.234145955775503
21
-18.126196393019288
31
0
0
LINE
5
114
100
AcDbEntity
8
0
100
AcDbLine
10
31.828739341970895
20
-29.849708878291629
30
0
11
31.829147734644355
21
-33.03209344188155
31
0
0
SPLINE
5
115
100
AcDbEntity
8
0
100
AcDbSpline
70
1064
71
5
72
39
73
33
74
0
42
0.000000001
43
0.0000000001
44
0.0000000001
40
0.68042557479320942
40
0.68042557479320942
40
0.68042557479320942
40
0.68042557479320942
40
0.68042557479320942
40
0.68042557479320942
40
0.68235294117647038
40
0.69411764705882328
40
0.70588235294117618
40
0.71764705882352908
40
0.72941176470588198
40
0.74117647058823488
40
0.75294117647058778
40
0.76470588235294068
40
0.77647058823529358
40
0.78823529411764648
40
0.79999999999999938
40
0.81176470588235228
40
0.82352941176470518
40
0.83529411764705808
40
0.84705882352941098
40
0.85882352941176388
40
0.87058823529411677
40
0.88235294117646967
40
0.89411764705882257
40
0.90588235294117547
40
0.91764705882352837
40
0.92941176470588127
40
0.94117647058823417
40
0.95294117647058707
40
0.96470588235293997
40
0.97647058823529287
40
0.98823529411764577
40
1
40
1
40
1
40
1
40
1
40
1
10
16.166793988387308
20
-22.280279462443037
30
0
10
16.148095229553885
20
-22.267561924372863
30
0
10
16.01557577795413
20
-22.176771678771296
30
0
10
15.77337211977984
20
-22.002037418668788
30
0
10
15.430622049170433
20
-21.729204337998507
30
0
10
15.006011342179056
20
-21.33271726182609
30
0
10
14.555031220081018
20
-20.794505296457988
30
0
10
14.184645432654097
20
-20.19405062541059
30
0
10
13.91306160856476
20
-19.538361090323679
30
0
10
13.7485987014625
20
-18.843610220578743
30
0
10
13.69283998936686
20
-18.130787553629069
30
0
10
13.744035602228465
20
-17.421107591160446
30
0
10
13.900191861604124
20
-16.731832746191039
30
0
10
14.162845822914241
20
-16.071083516268281
30
0
10
14.53521986722844
20
-15.441201510298679
30
0
10
15.019222358845699
20
-14.843967789637398
30
0
10
15.613120728585439
20
-14.28458432706266
30
0
10
16.308278587582777
20
-13.777585879811697
30
0
10
17.088957105987152
20
-13.346171436801439
30
0
10
17.934683159691637
20
-13.016084801023275
30
0
10
18.821929998839565
20
-12.810781220539276
30
0
10
19.726002093030207
20
-12.746593034145338
30
0
10
20.62301084826737
20
-12.826606472814239
30
0
10
21.491130602311742
20
-13.039889792372836
30
0
10
22.310883630837168
20
-13.367189969604542
30
0
10
23.065714868236849
20
-13.785093309024193
30
0
10
23.742378434437835
20
-14.270488579452515
30
0
10
24.331584325158957
20
-14.805665954948356
30
0
10
24.827905410014953
20
-15.380399318352641
30
0
10
25.148497492321521
20
-15.867610667417933
30
0
10
25.345550884593059
20
-16.247672780575947
30
0
10
25.457638757453068
20
-16.507555795321817
30
0
10
25.508862468006694
20
-16.639124542343307
30
0
0
LINE
5
116
100
AcDbEntity
8
0
100
AcDbLine
10
16.174449417792665
20
-18.126196393019288
30
0
11
16.166793988387308
21
-22.280279462443037
31
0
0
SPLINE
5
117
100
AcDbEntity
8
0
100
AcDbSpline
70
1064
71
5
72
50
73
44
74
0
42
0.000000001
43
0.0000000001
44
0.0000000001
40
0
40
0
40
0
40
0
40
0
40
0
40
0.011111111111111112
40
0.022222222222222223
40
0.033333333333333333
40
0.044444444444444446
40
0.055555555555555559
40
0.066666666666666666
40
0.077777777777777779
40
0.088888888888888892
40
0.10000000000000001
40
0.11111111111111112
40
0.12222222222222223
40
0.13333333333333333
40
0.14444444444444443
40
0.15555555555555553
40
0.16666666666666663
40
0.17777777777777773
40
0.18888888888888883
40
0.19999999999999993
40
0.21111111111111103
40
0.22222222222222213
40
0.23333333333333323
40
0.24444444444444433
40
0.25555555555555542
40
0.26666666666666655
40
0.27777777777777768
40
0.28888888888888881
40
0.29999999999999993
40
0.31111111111111106
40
0.32222222222222219
40
0.33333333333333331
40
0.34444444444444444
40
0.35555555555555557
40
0.3666666666666667
40
0.37777777777777782
40
0.38888888888888895
40
0.40000000000000008
40
0.4111111111111112
40
0.42222222222222233
40
0.43167137686101686
40
0.43167137686101686
40
0.43167137686101686
40
0.43167137686101686
40
0.43167137686101686
40
0.43167137686101686
10
28.495721472728206
20
-15.13463259922432
30
0
10
28.42368863194978
20
-14.997281566960044
30
0
10
28.275090207858081
20
-14.72529222423489
30
0
10
28.038594448466057
20
-14.325446292153734
30
0
10
27.696064153045388
20
-13.808598539850545
30
0
10
27.222232744799246
20
-13.190196396947048
30
0
10
26.701777970344519
20
-12.601004671651035
30
0
10
26.132860441497236
20
-12.044081685042551
30
0
10
25.512384713917321
20
-11.524556886102388
30
0
10
24.835941954347682
20
-11.049946343071573
30
0
10
24.099514721288038
20
-10.62907035100384
30
0
10
23.300956663146714
20
-10.271145369274722
30
0
10
22.441585133206257
20
-9.9848003534102432
30
0
10
21.527671818890845
20
-9.7771447102295017
30
0
10
20.572134720266856
20
-9.6527589591568415
30
0
10
19.59250048026091
20
-9.6140046284836274
30
0
10
18.608671063874542
20
-9.6614040175921172
30
0
10
17.640748191331113
20
-9.7939936104559528
30
0
10
16.7068695418542
20
-10.00968541605145
30
0
10
15.820954814379046
20
-10.305627380559548
30
0
10
14.990728279424026
20
-10.678553038368081
30
0
10
14.219558515455994
20
-11.125019721793256
30
0
10
13.508028185268742
20
-11.641636972188964
30
0
10
12.855653680669082
20
-12.225332177324479
30
0
10
12.262424498541083
20
-12.87352326809839
30
0
10
11.730708593965451
20
-13.584524947793678
30
0
10
11.265651999335047
20
-14.356952471178079
30
0
10
10.874642511597504
20
-15.188502849515082
30
0
10
10.567061949666032
20
-16.074916132656682
30
0
10
10.353910121649355
20
-17.008876457981451
30
0
10
10.247510037354575
20
-17.978899283616936
30
0
10
10.261108214543547
20
-18.968325991318704
30
0
10
10.406443910798597
20
-19.957250988307774
30
0
10
10.691407241642263
20
-20.924327340938653
30
0
10
11.117629939158913
20
-21.848625408273371
30
0
10
11.678170349410555
20
-22.71144884777307
30
0
10
12.354982848243651
20
-23.498218015613539
30
0
10
13.116952503058265
20
-24.200192484646379
30
0
10
13.92622762006104
20
-24.813975516429242
30
0
10
14.719513965972901
20
-25.325369999018793
30
0
10
15.330564713406439
20
-25.671683946299005
30
0
10
15.763833938864995
20
-25.89934197257157
30
0
10
16.036345033944713
20
-26.036496324252699
30
0
10
16.159757750810705
20
-26.097440110823488
30
0
0
LINE
5
118
100
AcDbEntity
8
0
100
AcDbLine
10
19.164884686767969
20
-23.687020073116219
30
0
11
19.16457517243964
21
-21.275767947070293
31
0
0
SPLINE
5
119
100
AcDbEntity
8
0
100
AcDbSpline
70
1064
71
5
72
44
73
38
74
0
42
0.000000001
43
0.0000000001
44
0.0000000001
40
0.48163124477397445
40
0.48163124477397445
40
0.48163124477397445
40
0.48163124477397445
40
0.48163124477397445
40
0.48163124477397445
40
0.48888888888888909
40
0.50000000000000022
40
0.51111111111111129
40
0.52222222222222237
40
0.53333333333333344
40
0.54444444444444451
40
0.55555555555555558
40
0.56666666666666665
40
0.57777777777777772
40
0.5888888888888888
40
0.59999999999999987
40
0.61111111111111094
40
0.62222222222222201
40
0.63333333333333308
40
0.64444444444444415
40
0.65555555555555522
40
0.6666666666666663
40
0.67777777777777737
40
0.68888888888888844
40
0.69999999999999951
40
0.71111111111111058
40
0.72222222222222165
40
0.73333333333333273
40
0.7444444444444438
40
0.75555555555555487
40
0.76666666666666594
40
0.77777777777777701
40
0.78888888888888808
40
0.79999999999999916
40
0.81111111111111023
40
0.8222222222222213
40
0.83333333333333237
40
0.83701354329097999
40
0.83701354329097999
40
0.83701354329097999
40
0.83701354329097999
40
0.83701354329097999
40
0.83701354329097999
10
19.165357378327258
20
-27.371065876505867
30
0
10
19.254682622971121
20
-27.40463184254083
30
0
10
19.482443168741202
20
-27.489744052806977
30
0
10
19.854859204339569
20
-27.627088112372459
30
0
10
20.381433028209326
20
-27.817733339244469
30
0
10
21.061241729745671
20
-28.058915841167508
30
0
10
21.775513868949655
20
-28.309993828651926
30
0
10
22.448336224436499
20
-28.551509461523036
30
0
10
23.065537027573647
20
-28.792019657534436
30
0
10
23.633373220757818
20
-29.055597581141424
30
0
10
24.16903126396744
20
-29.373262814345146
30
0
10
24.690386190375698
20
-29.773857712320936
30
0
10
25.206442206375126
20
-30.27548575580116
30
0
10
25.70643120899512
20
-30.87577304888805
30
0
10
26.16609708362008
20
-31.557391618734929
30
0
10
26.555562644802912
20
-32.294988894952283
30
0
10
26.846544248106529
20
-33.06153737031935
30
0
10
27.020022574480066
20
-33.835080320522493
30
0
10
27.073217989326899
20
-34.604878930213005
30
0
10
27.01451574126175
20
-35.367351308792834
30
0
10
26.858747920406962
20
-36.122296344364059
30
0
10
26.622624278031914
20
-36.869278076048857
30
0
10
26.319454207158444
20
-37.603322865570547
30
0
10
25.956272440891794
20
-38.312915104474754
30
0
10
25.536742676827973
20
-38.983496541821083
30
0
10
25.063025370124663
20
-39.599992975837026
30
0
10
24.537839212597142
20
-40.149491396912715
30
0
10
23.966964944768648
20
-40.624424433479462
30
0
10
23.35957754178402
20
-41.023385785861855
30
0
10
22.725915687365969
20
-41.349058803846802
30
0
10
22.075645077290996
20
-41.606899537054751
30
0
10
21.415947694645546
20
-41.803522758739433
30
0
10
20.749701710985939
20
-41.945198787750726
30
0
10
20.166950088193531
20
-42.024650508620311
30
0
10
19.71450381953268
20
-42.059553028746713
30
0
10
19.395605724384133
20
-42.07107124627008
30
0
10
19.212777711104341
20
-42.073312116534403
30
0
10
19.167244109596055
20
-42.073598849706784
30
0
0
SPLINE
5
120
100
AcDbEntity
8
0
100
AcDbSpline
70
1064
71
5
72
22
73
16
74
0
42
0.000000001
43
0.0000000001
44
0.0000000001
40
0.88547724457047272
40
0.88547724457047272
40
0.88547724457047272
40
0.88547724457047272
40
0.88547724457047272
40
0.88547724457047272
40
0.88888888888888773
40
0.8999999999999988
40
0.91111111111110987
40
0.92222222222222094
40
0.93333333333333202
40
0.94444444444444309
40
0.95555555555555416
40
0.96666666666666523
40
0.9777777777777763
40
0.98888888888888737
40
1
40
1
40
1
40
1
40
1
40
1
10
16.131314790500806
20
-41.532477772566182
30
0
10
16.088929346797535
20
-41.515568355074208
30
0
10
15.908729260384536
20
-41.44202360786587
30
0
10
15.592474906026812
20
-41.300415576681431
30
0
10
15.144897974053467
20
-41.06725224204078
30
0
10
14.576753318856708
20
-40.707867886016842
30
0
10
13.945278500127113
20
-40.216560157946944
30
0
10
13.348742063732846
20
-39.657036075693405
30
0
10
12.793103954246249
20
-39.03557736969438
30
0
10
12.282881435075614
20
-38.357337405485026
30
0
10
11.821005287987976
20
-37.625655989603132
30
0
10
11.409227878854537
20
-36.842604361848402
30
0
10
11.120561007428375
20
-36.175899604677774
30
0
10
10.927104331402816
20
-35.653390914638095
30
0
10
10.808372546749505
20
-35.295062281603613
30
0
10
10.751566496530776
20
-35.113400608583774
30
0
0
LINE
5
121
100
AcDbEntity
8
0
100
AcDbLine
10
16.159757750810705
20
-26.097440110823488
30
0
11
16.131314790500806
21
-41.532477772566182
31
0
0
LINE
5
122
100
AcDbEntity
8
0
100
AcDbLine
10
16.125172422464491
20
-44.865362877398525
30
0
11
16.121464117089854
21
-46.877730777524498
31
0
0
SPLINE
5
123
100
AcDbEntity
8
0
100
AcDbSpline
70
1064
71
5
72
26
73
20
74
0
42
0.000000001
43
0.0000000001
44
0.0000000001
40
0
40
0
40
0
40
0
40
0
40
0
40
0.011764705882352941
40
0.023529411764705882
40
0.035294117647058823
40
0.047058823529411764
40
0.058823529411764705
40
0.070588235294117646
40
0.082352941176470587
40
0.094117647058823528
40
0.10588235294117647
40
0.11764705882352941
40
0.12941176470588234
40
0.14117647058823529
40
0.15294117647058825
40
0.1647058823529412
40
0.17446828252432797
40
0.17446828252432797
40
0.17446828252432797
40
0.17446828252432797
40
0.17446828252432797
40
0.17446828252432797
10
7.4770840320953402
20
-36.241769565923015
30
0
10
7.495940555836885
20
-36.348178075227807
30
0
10
7.541069555458737
20
-36.566833086629742
30
0
10
7.6310106969036458
20
-36.912330086154931
30
0
10
7.7954393866226965
20
-37.40802524304722
30
0
10
8.0754562652894855
20
-38.084079312907086
30
0
10
8.4307957762196253
20
-38.810549479842194
30
0
10
8.8630043004203038
20
-39.575479777075053
30
0
10
9.3747474508607773
20
-40.358514901460779
30
0
10
9.9679691937229613
20
-41.133934217555499
30
0
10
10.641804546726163
20
-41.874419056461889
30
0
10
11.390425056655918
20
-42.554674229655525
30
0
10
12.201249518756914
20
-43.154853298058732
30
0
10
13.052172061423295
20
-43.664693581177815
30
0
10
13.911824264549084
20
-44.085365612528598
30
0
10
14.719482086056077
20
-44.413552068747187
30
0
10
15.323441054152172
20
-44.62332307326637
30
0
10
15.744944024596354
20
-44.755432562742499
30
0
10
16.007799095120269
20
-44.832239057484458
30
0
10
16.125172422464495
20
-44.865362877398525
30
0
0
SPLINE
5
124
100
AcDbEntity
8
0
100
AcDbSpline
70
1064
71
5
72
46
73
40
74
0
42
0.000000001
43
0.0000000001
44
0.0000000001
40
0.2253344512576832
40
0.2253344512576832
40
0.2253344512576832
40
0.2253344512576832
40
0.2253344512576832
40
0.2253344512576832
40
0.23529411764705893
40
0.24705882352941189
40
0.25882352941176484
40
0.2705882352941178
40
0.28235294117647075
40
0.29411764705882371
40
0.30588235294117666
40
0.31764705882352962
40
0.32941176470588257
40
0.34117647058823553
40
0.35294117647058848
40
0.36470588235294144
40
0.37647058823529439
40
0.38823529411764734
40
0.4000000000000003
40
0.41176470588235325
40
0.42352941176470621
40
0.43529411764705916
40
0.44705882352941212
40
0.45882352941176507
40
0.47058823529411803
40
0.48235294117647098
40
0.49411764705882394
40
0.50588235294117689
40
0.51764705882352979
40
0.52941176470588269
40
0.54117647058823559
40
0.55294117647058849
40
0.56470588235294139
40
0.57647058823529429
40
0.58823529411764719
40
0.60000000000000009
40
0.61176470588235299
40
0.62352941176470589
40
0.62859171895648958
40
0.62859171895648958
40
0.62859171895648958
40
0.62859171895648958
40
0.62859171895648958
40
0.62859171895648958
10
19.16765511058496
20
-45.276068684948285
30
0
10
19.308078619487198
20
-45.272369846425455
30
0
10
19.62279289321598
20
-45.259235373079733
30
0
10
20.13730529543453
20
-45.221224988721673
30
0
10
20.894497338314977
20
-45.129403886684223
30
0
10
21.935955489081593
20
-44.935636373184629
30
0
10
23.067385035200473
20
-44.642470221930672
30
0
10
24.209441166698479
20
-44.24845415569294
30
0
10
25.313743698760298
20
-43.74900738414933
30
0
10
26.336582816950198
20
-43.143502655674865
30
0
10
27.247414002772206
20
-42.436565837364526
30
0
10
28.030637980958399
20
-41.638028464054706
30
0
10
28.681740301656031
20
-40.761744163894818
30
0
10
29.205050981276845
20
-39.824724572894731
30
0
10
29.610812769713007
20
-38.846160446853034
30
0
10
29.912635910327371
20
-37.846464967169993
30
0
10
30.12458956434196
20
-36.846380860790234
30
0
10
30.259116512678869
20
-35.865820656079748
30
0
10
30.326592604798282
20
-34.922060376025101
30
0
10
30.33456787890502
20
-34.02810371252037
30
0
10
30.287100154874249
20
-33.190892280676096
30
0
10
30.18412033952135
20
-32.409767089382193
30
0
10
30.020583436014206
20
-31.674304153059918
30
0
10
29.787896197186154
20
-30.96828451062715
30
0
10
29.475694340209792
20
-30.27475056506297
30
0
10
29.073464697628204
20
-29.580297186354908
30
0
10
28.572301691750472
20
-28.880579476891604
30
0
10
27.96637685682985
20
-28.182280133432446
30
0
10
27.253968465638955
20
-27.498546820444108
30
0
10
26.438534872889413
20
-26.845915504896318
30
0
10
25.529890664551019
20
-26.240527474867854
30
0
10
24.545078203390585
20
-25.694914911591688
30
0
10
23.510061956133278
20
-25.213857209649181
30
0
10
22.456955321585159
20
-24.794706286719826
30
0
10
21.419507937806227
20
-24.429348873605882
30
0
10
20.542117011388605
20
-24.14249890694494
30
0
10
19.905268249864712
20
-23.936318312503136
30
0
10
19.47898077669252
20
-23.794531365577051
30
0
10
19.236911368978337
20
-23.711846063781486
30
0
10
19.164884686767969
20
-23.687020073116216
30
0
0
LINE
5
125
100
AcDbEntity
8
0
100
AcDbLine
10
19.167861370759983
20
-46.883344887449461
30
0
11
19.16765511058496
21
-45.276068684948285
31
0
0
LINE
5
126
100
AcDbEntity
8
0
100
AcDbLine
10
19.167244109596055
20
-42.073598849706791
30
0
11
19.166084060117235
21
-33.033718481949748
31
0
0
LINE
5
127
100
AcDbEntity
8
0
100
AcDbLine
10
19.165675663569541
20
-29.851333918360325
30
0
11
19.165357378327258
21
-27.371065876505867
31
0
0
LINE
5
128
100
AcDbEntity
8
0
100
AcDbLine
10
19.16457517243964
20
-29.851334059585405
30
0
11
24.74744420154645
21
-29.850617615047462
31
0
0
LINE
5
129
100
AcDbEntity
8
0
100
AcDbLine
10
29.217395590459052
20
-29.850043989788119
30
0
11
31.828739341970895
21
-29.849708878291629
31
0
0
LINE
5
130
100
AcDbEntity
8
0
100
AcDbLine
10
31.829147734644355
20
-33.03209344188155
30
0
11
30.255686266167814
21
-33.032296573576929
31
0
0
LINE
5
131
100
AcDbEntity
8
0
100
AcDbLine
10
26.807989385223877
20
-33.032737802815355
30
0
11
19.166084060117235
21
-33.033718481949748
31
0
0
SPLINE
5
132
100
AcDbEntity
8
0
100
AcDbSpline
70
1064
71
5
72
821
73
815
74
0
42
0.000000001
43
0.0000000001
44
0.0000000001
40
0
40
0
40
0
40
0
40
0
40
0
40
0.0012345679012345679
40
0.0024691358024691358
40
0.0037037037037037038
40
0.0049382716049382715
40
0.0061728395061728392
40
0.0074074074074074068
40
0.0086419753086419745
40
0.009876543209876543
40
0.011111111111111112
40
0.01234567901234568
40
0.013580246913580249
40
0.014814814814814817
40
0.016049382716049384
40
0.017283950617283952
40
0.018518518518518521
40
0.019753086419753089
40
0.020987654320987658
40
0.022222222222222227
40
0.023456790123456795
40
0.024691358024691364
40
0.025925925925925932
40
0.027160493827160501
40
0.028395061728395069
40
0.029629629629629638
40
0.030864197530864206
40
0.032098765432098775
40
0.03333333333333334
40
0.034567901234567905
40
0.03580246913580247
40
0.037037037037037035
40
0.0382716049382716
40
0.039506172839506165
40
0.04074074074074073
40
0.041975308641975295
40
0.04320987654320986
40
0.044444444444444425
40
0.04567901234567899
40
0.046913580246913555
40
0.04814814814814812
40
0.049382716049382686
40
0.050617283950617251
40
0.051851851851851816
40
0.053086419753086381
40
0.054320987654320946
40
0.055555555555555511
40
0.056790123456790076
40
0.058024691358024641
40
0.059259259259259206
40
0.060493827160493771
40
0.061728395061728336
40
0.062962962962962901
40
0.064197530864197466
40
0.065432098765432031
40
0.066666666666666596
40
0.067901234567901161
40
0.069135802469135726
40
0.070370370370370292
40
0.071604938271604857
40
0.072839506172839422
40
0.074074074074073987
40
0.075308641975308552
40
0.076543209876543117
40
0.077777777777777682
40
0.079012345679012247
40
0.080246913580246812
40
0.081481481481481377
40
0.082716049382715942
40
0.083950617283950507
40
0.085185185185185072
40
0.086419753086419637
40
0.087654320987654202
40
0.088888888888888767
40
0.090123456790123332
40
0.091358024691357897
40
0.092592592592592463
40
0.093827160493827028
40
0.095061728395061593
40
0.096296296296296158
40
0.097530864197530723
40
0.098765432098765288
40
0.099999999999999853
40
0.10123456790123442
40
0.10246913580246898
40
0.10370370370370355
40
0.10493827160493811
40
0.10617283950617268
40
0.10740740740740724
40
0.10864197530864181
40
0.10987654320987637
40
0.11111111111111094
40
0.1123456790123455
40
0.11358024691358007
40
0.11481481481481463
40
0.1160493827160492
40
0.11728395061728376
40
0.11851851851851833
40
0.11975308641975289
40
0.12098765432098746
40
0.12222222222222202
40
0.12345679012345659
40
0.12469135802469115
40
0.12592592592592572
40
0.1271604938271603
40
0.12839506172839488
40
0.12962962962962946
40
0.13086419753086403
40
0.13209876543209861
40
0.13333333333333319
40
0.13456790123456777
40
0.13580246913580235
40
0.13703703703703693
40
0.13827160493827151
40
0.13950617283950609
40
0.14074074074074067
40
0.14197530864197525
40
0.14320987654320982
40
0.1444444444444444
40
0.14567901234567898
40
0.14691358024691356
40
0.14814814814814814
40
0.14938271604938272
40
0.1506172839506173
40
0.15185185185185188
40
0.15308641975308646
40
0.15432098765432103
40
0.15555555555555561
40
0.15679012345679019
40
0.15802469135802477
40
0.15925925925925935
40
0.16049382716049393
40
0.16172839506172851
40
0.16296296296296309
40
0.16419753086419767
40
0.16543209876543225
40
0.16666666666666682
40
0.1679012345679014
40
0.16913580246913598
40
0.17037037037037056
40
0.17160493827160514
40
0.17283950617283972
40
0.1740740740740743
40
0.17530864197530888
40
0.17654320987654346
40
0.17777777777777803
40
0.17901234567901261
40
0.18024691358024719
40
0.18148148148148177
40
0.18271604938271635
40
0.18395061728395093
40
0.18518518518518551
40
0.18641975308642009
40
0.18765432098765467
40
0.18888888888888924
40
0.19012345679012382
40
0.1913580246913584
40
0.19259259259259298
40
0.19382716049382756
40
0.19506172839506214
40
0.19629629629629672
40
0.1975308641975313
40
0.19876543209876588
40
0.20000000000000046
40
0.20123456790123503
40
0.20246913580246961
40
0.20370370370370419
40
0.20493827160493877
40
0.20617283950617335
40
0.20740740740740793
40
0.20864197530864251
40
0.20987654320987709
40
0.21111111111111167
40
0.21234567901234624
40
0.21358024691358082
40
0.2148148148148154
40
0.21604938271604998
40
0.21728395061728456
40
0.21851851851851914
40
0.21975308641975372
40
0.2209876543209883
40
0.22222222222222288
40
0.22345679012345745
40
0.22469135802469203
40
0.22592592592592661
40
0.22716049382716119
40
0.22839506172839577
40
0.22962962962963035
40
0.23086419753086493
40
0.23209876543209951
40
0.23333333333333409
40
0.23456790123456867
40
0.23580246913580324
40
0.23703703703703782
40
0.2382716049382724
40
0.23950617283950698
40
0.24074074074074156
40
0.24197530864197614
40
0.24320987654321072
40
0.2444444444444453
40
0.24567901234567988
40
0.24691358024691445
40
0.24814814814814903
40
0.24938271604938361
40
0.25061728395061816
40
0.25185185185185271
40
0.25308641975308727
40
0.25432098765432182
40
0.25555555555555637
40
0.25679012345679092
40
0.25802469135802547
40
0.25925925925926002
40
0.26049382716049457
40
0.26172839506172912
40
0.26296296296296368
40
0.26419753086419823
40
0.26543209876543278
40
0.26666666666666733
40
0.26790123456790188
40
0.26913580246913643
40
0.27037037037037098
40
0.27160493827160553
40
0.27283950617284008
40
0.27407407407407464
40
0.27530864197530919
40
0.27654320987654374
40
0.27777777777777829
40
0.27901234567901284
40
0.28024691358024739
40
0.28148148148148194
40
0.28271604938271649
40
0.28395061728395105
40
0.2851851851851856
40
0.28641975308642015
40
0.2876543209876547
40
0.28888888888888925
40
0.2901234567901238
40
0.29135802469135835
40
0.2925925925925929
40
0.29382716049382746
40
0.29506172839506201
40
0.29629629629629656
40
0.29753086419753111
40
0.29876543209876566
40
0.30000000000000021
40
0.30123456790123476
40
0.30246913580246931
40
0.30370370370370386
40
0.30493827160493842
40
0.30617283950617297
40
0.30740740740740752
40
0.30864197530864207
40
0.30987654320987662
40
0.31111111111111117
40
0.31234567901234572
40
0.31358024691358027
40
0.31481481481481483
40
0.31604938271604938
40
0.31728395061728393
40
0.31851851851851848
40
0.31975308641975303
40
0.32098765432098758
40
0.32222222222222213
40
0.32345679012345668
40
0.32469135802469123
40
0.32592592592592579
40
0.32716049382716034
40
0.32839506172839489
40
0.32962962962962944
40
0.33086419753086399
40
0.33209876543209854
40
0.33333333333333309
40
0.33456790123456764
40
0.3358024691358022
40
0.33703703703703675
40
0.3382716049382713
40
0.33950617283950585
40
0.3407407407407404
40
0.34197530864197495
40
0.3432098765432095
40
0.34444444444444405
40
0.3456790123456786
40
0.34691358024691316
40
0.34814814814814771
40
0.34938271604938226
40
0.35061728395061681
40
0.35185185185185136
40
0.35308641975308591
40
0.35432098765432046
40
0.35555555555555501
40
0.35679012345678957
40
0.35802469135802412
40
0.35925925925925867
40
0.36049382716049322
40
0.36172839506172777
40
0.36296296296296232
40
0.36419753086419687
40
0.36543209876543142
40
0.36666666666666597
40
0.36790123456790053
40
0.36913580246913508
40
0.37037037037036963
40
0.37160493827160418
40
0.37283950617283873
40
0.37407407407407328
40
0.37530864197530783
40
0.37654320987654238
40
0.37777777777777694
40
0.37901234567901149
40
0.38024691358024604
40
0.38148148148148059
40
0.38271604938271514
40
0.38395061728394969
40
0.38518518518518424
40
0.38641975308641879
40
0.38765432098765334
40
0.3888888888888879
40
0.39012345679012245
40
0.391358024691357
40
0.39259259259259155
40
0.3938271604938261
40
0.39506172839506065
40
0.3962962962962952
40
0.39753086419752975
40
0.39876543209876431
40
0.39999999999999886
40
0.40123456790123341
40
0.40246913580246796
40
0.40370370370370251
40
0.40493827160493706
40
0.40617283950617161
40
0.40740740740740616
40
0.40864197530864071
40
0.40987654320987527
40
0.41111111111110982
40
0.41234567901234437
40
0.41358024691357892
40
0.41481481481481347
40
0.41604938271604802
40
0.41728395061728257
40
0.41851851851851712
40
0.41975308641975168
40
0.42098765432098623
40
0.42222222222222078
40
0.42345679012345533
40
0.42469135802468988
40
0.42592592592592443
40
0.42716049382715898
40
0.42839506172839353
40
0.42962962962962808
40
0.43086419753086264
40
0.43209876543209719
40
0.43333333333333174
40
0.43456790123456629
40
0.43580246913580084
40
0.43703703703703539
40
0.43827160493826994
40
0.43950617283950449
40
0.44074074074073905
40
0.4419753086419736
40
0.44320987654320815
40
0.4444444444444427
40
0.44567901234567725
40
0.4469135802469118
40
0.44814814814814635
40
0.4493827160493809
40
0.45061728395061545
40
0.45185185185185001
40
0.45308641975308456
40
0.45432098765431911
40
0.45555555555555366
40
0.45679012345678821
40
0.45802469135802276
40
0.45925925925925731
40
0.46049382716049186
40
0.46172839506172642
40
0.46296296296296097
40
0.46419753086419552
40
0.46543209876543007
40
0.46666666666666462
40
0.46790123456789917
40
0.46913580246913372
40
0.47037037037036827
40
0.47160493827160282
40
0.47283950617283738
40
0.47407407407407193
40
0.47530864197530648
40
0.47654320987654103
40
0.47777777777777558
40
0.47901234567901013
40
0.48024691358024468
40
0.48148148148147923
40
0.48271604938271379
40
0.48395061728394834
40
0.48518518518518289
40
0.48641975308641744
40
0.48765432098765199
40
0.48888888888888654
40
0.49012345679012109
40
0.49135802469135564
40
0.49259259259259019
40
0.49382716049382475
40
0.4950617283950593
40
0.49629629629629385
40
0.4975308641975284
40
0.49876543209876295
40
0.4999999999999975
40
0.50123456790123211
40
0.50246913580246666
40
0.50370370370370121
40
0.50493827160493576
40
0.50617283950617031
40
0.50740740740740486
40
0.50864197530863942
40
0.50987654320987397
40
0.51111111111110852
40
0.51234567901234307
40
0.51358024691357762
40
0.51481481481481217
40
0.51604938271604672
40
0.51728395061728127
40
0.51851851851851583
40
0.51975308641975038
40
0.52098765432098493
40
0.52222222222221948
40
0.52345679012345403
40
0.52469135802468858
40
0.52592592592592313
40
0.52716049382715768
40
0.52839506172839223
40
0.52962962962962679
40
0.53086419753086134
40
0.53209876543209589
40
0.53333333333333044
40
0.53456790123456499
40
0.53580246913579954
40
0.53703703703703409
40
0.53827160493826864
40
0.5395061728395032
40
0.54074074074073775
40
0.5419753086419723
40
0.54320987654320685
40
0.5444444444444414
40
0.54567901234567595
40
0.5469135802469105
40
0.54814814814814505
40
0.5493827160493796
40
0.55061728395061416
40
0.55185185185184871
40
0.55308641975308326
40
0.55432098765431781
40
0.55555555555555236
40
0.55679012345678691
40
0.55802469135802146
40
0.55925925925925601
40
0.56049382716049057
40
0.56172839506172512
40
0.56296296296295967
40
0.56419753086419422
40
0.56543209876542877
40
0.56666666666666332
40
0.56790123456789787
40
0.56913580246913242
40
0.57037037037036697
40
0.57160493827160153
40
0.57283950617283608
40
0.57407407407407063
40
0.57530864197530518
40
0.57654320987653973
40
0.57777777777777428
40
0.57901234567900883
40
0.58024691358024338
40
0.58148148148147794
40
0.58271604938271249
40
0.58395061728394704
40
0.58518518518518159
40
0.58641975308641614
40
0.58765432098765069
40
0.58888888888888524
40
0.59012345679011979
40
0.59135802469135434
40
0.5925925925925889
40
0.59382716049382345
40
0.595061728395058
40
0.59629629629629255
40
0.5975308641975271
40
0.59876543209876165
40
0.5999999999999962
40
0.60123456790123075
40
0.60246913580246531
40
0.60370370370369986
40
0.60493827160493441
40
0.60617283950616896
40
0.60740740740740351
40
0.60864197530863806
40
0.60987654320987261
40
0.61111111111110716
40
0.61234567901234171
40
0.61358024691357627
40
0.61481481481481082
40
0.61604938271604537
40
0.61728395061727992
40
0.61851851851851447
40
0.61975308641974902
40
0.62098765432098357
40
0.62222222222221812
40
0.62345679012345268
40
0.62469135802468723
40
0.62592592592592178
40
0.62716049382715633
40
0.62839506172839088
40
0.62962962962962543
40
0.63086419753085998
40
0.63209876543209453
40
0.63333333333332908
40
0.63456790123456364
40
0.63580246913579819
40
0.63703703703703274
40
0.63827160493826729
40
0.63950617283950184
40
0.64074074074073639
40
0.64197530864197094
40
0.64320987654320549
40
0.64444444444444005
40
0.6456790123456746
40
0.64691358024690915
40
0.6481481481481437
40
0.64938271604937825
40
0.6506172839506128
40
0.65185185185184735
40
0.6530864197530819
40
0.65432098765431645
40
0.65555555555555101
40
0.65679012345678556
40
0.65802469135802011
40
0.65925925925925466
40
0.66049382716048921
40
0.66172839506172376
40
0.66296296296295831
40
0.66419753086419286
40
0.66543209876542742
40
0.66666666666666197
40
0.66790123456789652
40
0.66913580246913107
40
0.67037037037036562
40
0.67160493827160017
40
0.67283950617283472
40
0.67407407407406927
40
0.67530864197530382
40
0.67654320987653838
40
0.67777777777777293
40
0.67901234567900748
40
0.68024691358024203
40
0.68148148148147658
40
0.68271604938271113
40
0.68395061728394568
40
0.68518518518518023
40
0.68641975308641479
40
0.68765432098764934
40
0.68888888888888389
40
0.69012345679011844
40
0.69135802469135299
40
0.69259259259258754
40
0.69382716049382209
40
0.69506172839505664
40
0.6962962962962912
40
0.69753086419752575
40
0.6987654320987603
40
0.69999999999999485
40
0.7012345679012294
40
0.70246913580246395
40
0.7037037037036985
40
0.70493827160493305
40
0.7061728395061676
40
0.70740740740740216
40
0.70864197530863671
40
0.70987654320987126
40
0.71111111111110581
40
0.71234567901234036
40
0.71358024691357491
40
0.71481481481480946
40
0.71604938271604401
40
0.71728395061727857
40
0.71851851851851312
40
0.71975308641974767
40
0.72098765432098222
40
0.72222222222221677
40
0.72345679012345132
40
0.72469135802468587
40
0.72592592592592042
40
0.72716049382715497
40
0.72839506172838953
40
0.72962962962962408
40
0.73086419753085863
40
0.73209876543209318
40
0.73333333333332773
40
0.73456790123456228
40
0.73580246913579683
40
0.73703703703703138
40
0.73827160493826594
40
0.73950617283950049
40
0.74074074074073504
40
0.74197530864196959
40
0.74320987654320414
40
0.74444444444443869
40
0.74567901234567324
40
0.74691358024690779
40
0.74814814814814234
40
0.7493827160493769
40
0.75061728395061145
40
0.751851851851846
40
0.75308641975308055
40
0.7543209876543151
40
0.75555555555554965
40
0.7567901234567842
40
0.75802469135801875
40
0.75925925925925331
40
0.76049382716048786
40
0.76172839506172241
40
0.76296296296295696
40
0.76419753086419151
40
0.76543209876542606
40
0.76666666666666061
40
0.76790123456789516
40
0.76913580246912971
40
0.77037037037036427
40
0.77160493827159882
40
0.77283950617283337
40
0.77407407407406792
40
0.77530864197530247
40
0.77654320987653702
40
0.77777777777777157
40
0.77901234567900612
40
0.78024691358024068
40
0.78148148148147523
40
0.78271604938270978
40
0.78395061728394433
40
0.78518518518517888
40
0.78641975308641343
40
0.78765432098764798
40
0.78888888888888253
40
0.79012345679011708
40
0.79135802469135164
40
0.79259259259258619
40
0.79382716049382074
40
0.79506172839505529
40
0.79629629629628984
40
0.79753086419752439
40
0.79876543209875894
40
0.79999999999999349
40
0.80123456790122805
40
0.8024691358024626
40
0.80370370370369715
40
0.8049382716049317
40
0.80617283950616625
40
0.8074074074074008
40
0.80864197530863535
40
0.8098765432098699
40
0.81111111111110445
40
0.81234567901233901
40
0.81358024691357356
40
0.81481481481480811
40
0.81604938271604266
40
0.81728395061727721
40
0.81851851851851176
40
0.81975308641974631
40
0.82098765432098086
40
0.82222222222221542
40
0.82345679012344997
40
0.82469135802468452
40
0.82592592592591907
40
0.82716049382715362
40
0.82839506172838817
40
0.82962962962962272
40
0.83086419753085727
40
0.83209876543209182
40
0.83333333333332638
40
0.83456790123456093
40
0.83580246913579548
40
0.83703703703703003
40
0.83827160493826458
40
0.83950617283949913
40
0.84074074074073368
40
0.84197530864196823
40
0.84320987654320279
40
0.84444444444443734
40
0.84567901234567189
40
0.84691358024690644
40
0.84814814814814099
40
0.84938271604937554
40
0.85061728395061009
40
0.85185185185184464
40
0.85308641975307919
40
0.85432098765431375
40
0.8555555555555483
40
0.85679012345678285
40
0.8580246913580174
40
0.85925925925925195
40
0.8604938271604865
40
0.86172839506172105
40
0.8629629629629556
40
0.86419753086419016
40
0.86543209876542471
40
0.86666666666665926
40
0.86790123456789381
40
0.86913580246912836
40
0.87037037037036291
40
0.87160493827159746
40
0.87283950617283201
40
0.87407407407406656
40
0.87530864197530112
40
0.87654320987653567
40
0.87777777777777022
40
0.87901234567900477
40
0.88024691358023932
40
0.88148148148147387
40
0.88271604938270842
40
0.88395061728394297
40
0.88518518518517753
40
0.88641975308641208
40
0.88765432098764663
40
0.88888888888888118
40
0.89012345679011573
40
0.89135802469135028
40
0.89259259259258483
40
0.89382716049381938
40
0.89506172839505393
40
0.89629629629628849
40
0.89753086419752304
40
0.89876543209875759
40
0.89999999999999214
40
0.90123456790122669
40
0.90246913580246124
40
0.90370370370369579
40
0.90493827160493034
40
0.9061728395061649
40
0.90740740740739945
40
0.908641975308634
40
0.90987654320986855
40
0.9111111111111031
40
0.91234567901233765
40
0.9135802469135722
40
0.91481481481480675
40
0.9160493827160413
40
0.91728395061727586
40
0.91851851851851041
40
0.91975308641974496
40
0.92098765432097951
40
0.92222222222221406
40
0.92345679012344861
40
0.92469135802468316
40
0.92592592592591771
40
0.92716049382715227
40
0.92839506172838682
40
0.92962962962962137
40
0.93086419753085592
40
0.93209876543209047
40
0.93333333333332502
40
0.93456790123455957
40
0.93580246913579412
40
0.93703703703702868
40
0.93827160493826323
40
0.93950617283949778
40
0.94074074074073233
40
0.94197530864196688
40
0.94320987654320143
40
0.94444444444443598
40
0.94567901234567053
40
0.94691358024690508
40
0.94814814814813964
40
0.94938271604937419
40
0.95061728395060874
40
0.95185185185184329
40
0.95308641975307784
40
0.95432098765431239
40
0.95555555555554694
40
0.95679012345678149
40
0.95802469135801605
40
0.9592592592592506
40
0.96049382716048515
40
0.9617283950617197
40
0.96296296296295425
40
0.9641975308641888
40
0.96543209876542335
40
0.9666666666666579
40
0.96790123456789245
40
0.96913580246912701
40
0.97037037037036156
40
0.97160493827159611
40
0.97283950617283066
40
0.97407407407406521
40
0.97530864197529976
40
0.97654320987653431
40
0.97777777777776886
40
0.97901234567900342
40
0.98024691358023797
40
0.98148148148147252
40
0.98271604938270707
40
0.98395061728394162
40
0.98518518518517617
40
0.98641975308641072
40
0.98765432098764527
40
0.98888888888887982
40
0.99012345679011438
40
0.99135802469134893
40
0.99259259259258348
40
0.99382716049381803
40
0.99506172839505258
40
0.99629629629628713
40
0.99753086419752168
40
0.99876543209875623
40
1
40
1
40
1
40
1
40
1
40
1
10
-26.248417474512532
20
57.121632752684938
30
0
10
-26.204896912313593
20
57.130722119497719
30
0
10
-26.113783700268893
20
57.144187102906905
30
0
10
-25.963226464815023
20
57.15015087879631
30
0
10
-25.731418311792918
20
57.132160764891317
30
0
10
-25.392451387461179
20
57.081552634452571
30
0
10
-25.011430379207361
20
57.021102086685495
30
0
10
-24.5931171628845
20
56.965960529428877
30
0
10
-24.135751068059626
20
56.924189824810661
30
0
10
-23.634420297039149
20
56.898906950582031
30
0
10
-23.08300689457397
20
56.889264111600816
30
0
10
-22.476679306519838
20
56.891885506863588
30
0
10
-21.814193924248222
20
56.902121789773517
30
0
10
-21.100178050859462
20
56.915353055885582
30
0
10
-20.347693090785857
20
56.928351574573526
30
0
10
-19.575886829945706
20
56.939205340746952
30
0
10
-18.80723083252208
20
56.947117491289809
30
0
10
-18.064924262316218
20
56.952250768094714
30
0
10
-17.370190811295871
20
56.955553350981432
30
0
10
-16.73970626202447
20
56.958591776922624
30
0
10
-16.182772950235403
20
56.963382975046869
30
0
10
-15.699064036289858
20
56.972221634431932
30
0
10
-15.274963635380914
20
56.987522216281654
30
0
10
-14.885947942092832
20
57.011597481469948
30
0
10
-14.502518362771413
20
57.046406690574969
30
0
10
-14.095263285807601
20
57.093299156702805
30
0
10
-13.639825280620565
20
57.152790356339437
30
0
10
-13.12303278533232
20
57.224248367549507
30
0
10
-12.543772916109099
20
57.305939407869701
30
0
10
-11.909496021730972
20
57.395365751138016
30
0
10
-11.233976412173224
20
57.489519570925353
30
0
10
-10.534550937695615
20
57.585172347140023
30
0
10
-9.8295946250496282
20
57.679146680867774
30
0
10
-9.1358635174696694
20
57.768601139311158
30
0
10
-8.465967388541852
20
57.851296604712623
30
0
10
-7.8255898519622207
20
57.925905403999678
30
0
10
-7.2146218373654314
20
57.991633478262806
30
0
10
-6.6285680761846733
20
58.047796200296375
30
0
10
-6.0598619177587256
20
58.093405946106714
30
0
10
-5.4992033945528265
20
58.12676593251939
30
0
10
-4.9369229812922013
20
58.145035345840832
30
0
10
-4.3642505431541307
20
58.143867818943384
30
0
10
-3.7748392194769504
20
58.116862328746421
30
0
10
-3.1649616188309011
20
58.055982813583647
30
0
10
-2.533162501620096
20
57.95237523389013
30
0
10
-1.8800868365310766
20
57.797053802718487
30
0
10
-1.2082352934748266
20
57.581647194283292
30
0
10
-0.52174979435429925
20
57.299106379162623
30
0
10
0.17381129548778818
20
56.94445835356084
30
0
10
0.87169950882442304
20
56.515471208157649
30
0
10
1.5641865205365195
20
56.013534280504004
30
0
10
2.2428735372147086
20
55.443388815173158
30
0
10
2.8990385875104847
20
54.812431378235416
30
0
10
3.5239711338933772
20
54.130157067931606
30
0
10
4.1093125147238823
20
53.407543961332081
30
0
10
4.6473926419647711
20
52.656463883562353
30
0
10
5.1315712055038967
20
51.889079342649495
30
0
10
5.5565702383940767
20
51.117252268252457
30
0
10
5.9188260021656944
20
50.351934092611444
30
0
10
6.2167962217872743
20
49.602595511677336
30
0
10
6.4513744368208092
20
48.876562636983884
30
0
10
6.6259717050361058
20
48.17864266364478
30
0
10
6.7457974908561322
20
47.511442178140307
30
0
10
6.8173004496276572
20
46.87555126681535
30
0
10
6.8475397954346047
20
46.269777429975399
30
0
10
6.8435997477030988
20
45.691366252077401
30
0
10
6.8119542844675705
20
45.136209091613075
30
0
10
6.7579262096403081
20
44.59910001484721
30
0
10
6.6849231984997974
20
44.073862227138704
30
0
10
6.5945770875461029
20
43.554015839121767
30
0
10
6.4875347718379732
20
43.033843888209006
30
0
10
6.3640541773570583
20
42.509329620115167
30
0
10
6.2246888794425743
20
41.979172787754422
30
0
10
6.0709154890576187
20
41.445712198501219
30
0
10
5.9058314688224511
20
40.916031380156141
30
0
10
5.7346894564250821
20
40.402567392621407
30
0
10
5.5640288974124532
20
39.919155414922045
30
0
10
5.4009357911140334
20
39.477565853151248
30
0
10
5.2522384262140669
20
39.083656423868945
30
0
10
5.1237647946701745
20
38.734136574948373
30
0
10
5.019490504190677
20
38.411990199796591
30
0
10
4.9410005334214153
20
38.085901808364049
30
0
10
4.8878076584922283
20
37.72006448848137
30
0
10
4.8574954128475287
20
37.282492729473191
30
0
10
4.8459673186959176
20
36.753033889678761
30
0
10
4.8475592221513626
20
36.133727643385619
30
0
10
4.8556570635787688
20
35.447292670005865
30
0
10
4.8635800954199606
20
34.72886777614027
30
0
10
4.8653914087764303
20
34.019811345455857
30
0
10
4.8567198776236378
20
33.360707857012372
30
0
10
4.8356202678725753
20
32.784575677745487
30
0
10
4.8033167202399865
20
32.310311285927028
30
0
10
4.7652368730038477
20
31.935259435239413
30
0
10
4.7311848269361878
20
31.630458333730459
30
0
10
4.7080035229088466
20
31.356674906675362
30
0
10
4.693745582769151
20
31.077508508455885
30
0
10
4.6696904613200019
20
30.775328872250817
30
0
10
4.5983394084143878
20
30.460798446605303
30
0
10
4.4491086452559392
20
30.159633244050589
30
0
10
4.2141170481972638
20
29.903682491143982
30
0
10
3.9399108384016812
20
29.718655923308305
30
0
10
3.7101273383621782
20
29.619297554873505
30
0
10
3.5843268375210098
20
29.611974885911042
30
0
10
3.5269787517756312
20
29.696396265488477
30
0
10
3.4105035122043956
20
29.863971165122592
30
0
10
3.2015118427891003
20
30.08164610034494
30
0
10
2.9344424062841412
20
30.306849625711742
30
0
10
2.6695957099633896
20
30.503953368384455
30
0
10
2.4492190732344592
20
30.665876940603837
30
0
10
2.27404021362574
20
30.816205955378386
30
0
10
2.1279179974501568
20
30.973711104749579
30
0
10
1.9948390004030507
20
31.117322158177213
30
0
10
1.8718244898823699
20
31.172735067605821
30
0
10
1.7495480348235035
20
31.096834613446948
30
0
10
1.6047897418879973
20
30.923245438401146
30
0
10
1.4216707590726778
20
30.701841101254082
30
0
10
1.2079059321560641
20
30.454500918534826
30
0
10
0.98416057609097529
20
30.184891850642789
30
0
10
0.77476435982255842
20
29.886716100073141
30
0
10
0.59740435408975134
20
29.552808735597438
30
0
10
0.45476617313696976
20
29.182817627994083
30
0
10
0.3402356833473586
20
28.780972085908441
30
0
10
0.24239555806842114
20
28.354738158518057
30
0
10
0.14981250989571981
20
27.91316456502247
30
0
10
0.05609733729116112
20
27.465292917355836
30
0
10
-0.036335163943643473
20
27.018740130832242
30
0
10
-0.1200736475525303
20
26.579555828898179
30
0
10
-0.18552828601539254
20
26.151923087453142
30
0
10
-0.22421548385448367
20
25.737900848598684
30
0
10
-0.23165249394669282
20
25.337193566845734
30
0
10
-0.21092896563447239
20
24.946789112737889
30
0
10
-0.17022988507054465
20
24.562025605895567
30
0
10
-0.11943654566872104
20
24.177894998235793
30
0
10
-0.067192146764464167
20
23.790207335086695
30
0
10
-0.017448849152096761
20
23.396941654214846
30
0
10
0.032822503998535271
20
22.999145512445356
30
0
10
0.089236522239703256
20
22.599237415504728
30
0
10
0.15610784726017593
20
22.199478628327348
30
0
10
0.2328136095675038
20
21.800613473910182
30
0
10
0.30900079974343675
20
21.399886014373564
30
0
10
0.36366273895914208
20
20.991092679438488
30
0
10
0.37354257490730286
20
20.569439664402967
30
0
10
0.32011385791080876
20
20.135757916498154
30
0
10
0.19630976874394204
20
19.70036305128454
30
0
10
0.015298681115047421
20
19.288516091974692
30
0
10
-0.1878009889748597
20
18.940571586296041
30
0
10
-0.37624311879418426
20
18.695569737620239
30
0
10
-0.52724951740049097
20
18.578453112873291
30
0
10
-0.65124358817985084
20
18.584366596417002
30
0
10
-0.80330689368470987
20
18.669096567951343
30
0
10
-1.0102732478310603
20
18.795746104577397
30
0
10
-1.2428053323346209
20
18.956055855221805
30
0
10
-1.45606796314642
20
19.154401298801965
30
0
10
-1.6200670563267072
20
19.398527008429379
30
0
10
-1.7441943479332267
20
19.689541517481228
30
0
10
-1.8559526023707358
20
20.020841867633909
30
0
10
-1.9883890376155895
20
20.375807191944205
30
0
10
-2.1621405565302956
20
20.724896455612413
30
0
10
-2.3758708064286891
20
21.026537189637491
30
0
10
-2.6161153724672221
20
21.241043144992744
30
0
10
-2.8633936273574063
20
21.340621685211406
30
0
10
-3.1005005339644933
20
21.32416997690077
30
0
10
-3.3176056299792203
20
21.220070590256586
30
0
10
-3.5104522015310975
20
21.063007741381835
30
0
10
-3.6799978617499853
20
20.870787824792359
30
0
10
-3.8307732162384589
20
20.637779293728087
30
0
10
-3.9686136367177482
20
20.349688127994394
30
0
10
-4.0984325715722756
20
19.992996517197096
30
0
10
-4.2222199532387847
20
19.565448891821926
30
0
10
-4.3397955678143596
20
19.072597998704939
30
0
10
-4.4493329814441864
20
18.525824685398227
30
0
10
-4.5479704931161082
20
17.939781693209117
30
0
10
-4.6323872078297033
20
17.33006644464237
30
0
10
-4.6993890446490152
20
16.710835165353174
30
0
10
-4.7465043186576992
20
16.092333712434581
30
0
10
-4.7721594733626223
20
15.481638911184776
30
0
10
-4.7758325077187154
20
14.883548771563328
30
0
10
-4.7582187030417016
20
14.301425709288493
30
0
10
-4.7213819932693477
20
13.738041792701814
30
0
10
-4.6689337542742519
20
13.196464482339447
30
0
10
-4.6061498300727859
20
12.680827577786138
30
0
10
-4.5402459437313478
20
12.19740806206155
30
0
10
-4.4790461348822337
20
11.752594247364673
30
0
10
-4.4295338804628175
20
11.350639474414503
30
0
10
-4.3962980913885898
20
10.991183557251025
30
0
10
-4.3803560058875615
20
10.667571153006438
30
0
10
-4.3769723559163882
20
10.363054177404027
30
0
10
-4.3782339890373896
20
10.057141832223177
30
0
10
-4.378550164677387
20
9.7385729572458004
30
0
10
-4.3786292529783877
20
9.4142926622021204
30
0
10
-4.3916032430189356
20
9.1248193005442744
30
0
10
-4.4352206210552474
20
8.9186406147320767
30
0
10
-4.5229758086436638
20
8.8260340312692396
30
0
10
-4.6529445833767866
20
8.8200798806940099
30
0
10
-4.8143211373815769
20
8.8594346621922107
30
0
10
-4.9978641745184325
20
8.9367018513986451
30
0
10
-5.1991169594182889
20
9.0470644691258624
30
0
10
-5.4228675681919629
20
9.1715489444364682
30
0
10
-5.6729540722862906
20
9.2848670617612878
30
0
10
-5.9429744137516503
20
9.3647262248610819
30
0
10
-6.2060212629871527
20
9.4007446823047633
30
0
10
-6.431763294484818
20
9.3905662954805251
30
0
10
-6.6037830070212635
20
9.3356053048966388
30
0
10
-6.7378140227598058
20
9.2367269543393018
30
0
10
-6.863400005569944
20
9.0915413781530869
30
0
10
-6.999889845974514
20
8.8906706036387835
30
0
10
-7.1553167789203247
20
8.6206675604185481
30
0
10
-7.3312129548904901
20
8.2685584078573982
30
0
10
-7.5258313324345369
20
7.8264692588418221
30
0
10
-7.7368335028305788
20
7.2941699956003294
30
0
10
-7.9609932272074246
20
6.6770254875681436
30
0
10
-8.1946264862205922
20
5.9849690424484878
30
0
10
-8.4337251953107284
20
5.2310679939802132
30
0
10
-8.6742191418939054
20
4.4302565533897793
30
0
10
-8.9121795671056638
20
3.5980132885391498
30
0
10
-9.1440552592775663
20
2.749023926327796
30
0
10
-9.3668772989228941
20
1.8959409885987668
30
0
10
-9.5785222424474377
20
1.0478673233176203
30
0
10
-9.7776453423816374
20
0.21054839292109215
30
0
10
-9.9635170171190239
20
-0.61292553397738248
30
0
10
-10.135891695598051
20
-1.4215881728073381
30
0
10
-10.294863017562466
20
-2.2159942569400979
30
0
10
-10.440725144942338
20
-2.9976479347901632
30
0
10
-10.573830866482229
20
-3.7684164293484272
30
0
10
-10.694452428601007
20
-4.5299529505290739
30
0
10
-10.802638064117405
20
-5.2831088724057027
30
0
10
-10.898077762962279
20
-6.0273664776850815
30
0
10
-10.979944944491182
20
-6.7602194429055107
30
0
10
-11.04723885746453
20
-7.4776308701500307
30
0
10
-11.099155382656814
20
-8.1745515550910142
30
0
10
-11.135446211958421
20
-8.8454151226793538
30
0
10
-11.156785871626376
20
-9.4846456950394646
30
0
10
-11.165128609647626
20
-10.087153777779548
30
0
10
-11.164085409636915
20
-10.648852088795513
30
0
10
-11.159255181760845
20
-11.167127751939514
30
0
10
-11.158675835918624
20
-11.641427027976812
30
0
10
-11.171682860187104
20
-12.072406161536065
30
0
10
-11.20760637919018
20
-12.460966992401888
30
0
10
-11.27454329009044
20
-12.807292416018015
30
0
10
-11.378059319461236
20
-13.109976290602019
30
0
10
-11.520005541357769
20
-13.364866850817336
30
0
10
-11.697289358813968
20
-13.565846041529458
30
0
10
-11.901575863849242
20
-13.706261715814374
30
0
10
-12.116930545990044
20
-13.779929752007442
30
0
10
-12.32411522281955
20
-13.782968822717434
30
0
10
-12.512391775871457
20
-13.716074341749099
30
0
10
-12.692327267026474
20
-13.5875669240561
30
0
10
-12.885918739289446
20
-13.409217822184516
30
0
10
-13.111394935820988
20
-13.190494972225386
30
0
10
-13.370050716308571
20
-12.933426703519736
30
0
10
-13.651134522820138
20
-12.635015862320193
30
0
10
-13.936992638641929
20
-12.289730891250914
30
0
10
-14.207919314003304
20
-11.891865924361881
30
0
10
-14.447550688332136
20
-11.438182452103876
30
0
10
-14.646740403152286
20
-10.929736495152468
30
0
10
-14.801806231778244
20
-10.370665581041688
30
0
10
-14.913646275003247
20
-9.7674452418974287
30
0
10
-14.986516857115095
20
-9.127964352429963
30
0
10
-15.026949978390608
20
-8.460671658586401
30
0
10
-15.042621662951065
20
-7.7737057534958174
30
0
10
-15.041215552910112
20
-7.0739987500090802
30
0
10
-15.029362864442779
20
-6.3664870262586115
30
0
10
-15.012661281702178
20
-5.6546998981984746
30
0
10
-14.995618556921537
20
-4.9412566787224881
30
0
10
-14.98162680114887
20
-4.2283947030338034
30
0
10
-14.972919143538057
20
-3.5184929238582763
30
0
10
-14.970544563297029
20
-2.8145771852887416
30
0
10
-14.974310245481172
20
-2.1208803914887899
30
0
10
-14.982795616771444
20
-1.4432689600812072
30
0
10
-14.993190206194702
20
-0.79000418707029796
30
0
10
-15.001897997684326
20
-0.17103712780728728
30
0
10
-15.00559270236077
20
0.4035738327008902
30
0
10
-15.002145754439004
20
0.92497491678412136
30
0
10
-14.991585060830523
20
1.3869483197258843
30
0
10
-14.977091071140267
20
1.7872750965318749
30
0
10
-14.965859943081927
20
2.1291678409997847
30
0
10
-14.97028869470374
20
2.4225760599475969
30
0
10
-15.000999421054114
20
2.6816136320582151
30
0
10
-15.061941180033516
20
2.9215165415715831
30
0
10
-15.140569026087684
20
3.1567757303273503
30
0
10
-15.21426437412018
20
3.3956208920606166
30
0
10
-15.270951584372668
20
3.6333215170963666
30
0
10
-15.334877892073422
20
3.8409697258959707
30
0
10
-15.460747566855977
20
3.9723525638900119
30
0
10
-15.682632910545525
20
3.9954072495459689
30
0
10
-15.973538419729751
20
3.9179478716076845
30
0
10
-16.276730341867033
20
3.7693556620424595
30
0
10
-16.535996689340855
20
3.5828405303960453
30
0
10
-16.733140376663037
20
3.3737900145685877
30
0
10
-16.884780920249437
20
3.1401613900913778
30
0
10
-17.022138937569476
20
2.8721383310183142
30
0
10
-17.175396411520371
20
2.5592150504111952
30
0
10
-17.358720967517073
20
2.1971818172253057
30
0
10
-17.57552510253381
20
1.7858052392080062
30
0
10
-17.821122122281828
20
1.3277346568576356
30
0
10
-18.086505181776499
20
0.82687430527611494
30
0
10
-18.361417597681612
20
0.28710041850259671
30
0
10
-18.638294240570332
20
-0.28945851850879245
30
0
10
-18.913610569840959
20
-0.90282385360667661
30
0
10
-19.186667848432567
20
-1.5542617117741746
30
0
10
-19.45906074518205
20
-2.2457256946146229
30
0
10
-19.733867689823764
20
-2.9791590591660522
30
0
10
-20.014957669229414
20
-3.7558540959850473
30
0
10
-20.306252227280499
20
-4.5757937769366643
30
0
10
-20.610994439943028
20
-5.4369850216711093
30
0
10
-20.931043567633662
20
-6.3348328310256194
30
0
10
-21.266090047052217
20
-7.2614076629885913
30
0
10
-21.613109980925522
20
-8.2050254120562816
30
0
10
-21.967086764123358
20
-9.1514729687946321
30
0
10
-22.321573508497551
20
-10.085027482848925
30
0
10
-22.669316512914968
20
-10.989554168893012
30
0
10
-23.002854189184117
20
-11.849573810491936
30
0
10
-23.315123158989675
20
-12.651336004790355
30
0
10
-23.600069116544404
20
-13.383906890222104
30
0
10
-23.85323741363387
20
-14.040211320124019
30
0
10
-24.072414780071124
20
-14.618186152355552
30
0
10
-24.258149663825375
20
-15.121671302132377
30
0
10
-24.414577414162309
20
-15.561958688474993
30
0
10
-24.548776041768726
20
-15.956170986485073
30
0
10
-24.669455357061242
20
-16.324203258421875
30
0
10
-24.785826379925531
20
-16.686051448267982
30
0
10
-24.906464875658049
20
-17.059132851330141
30
0
10
-25.038007947503456
20
-17.455235120024529
30
0
10
-25.184589535087841
20
-17.879099870965401
30
0
10
-25.348045347863316
20
-18.328701535650897
30
0
10
-25.527912245797118
20
-18.795081366508068
30
0
10
-25.721504204072076
20
-19.262329519849736
30
0
10
-25.92397318587453
20
-19.707583219755264
30
0
10
-26.128320154268366
20
-20.100785312449354
30
0
10
-26.327524546494775
20
-20.411297878147657
30
0
10
-26.517156200518084
20
-20.615675158366283
30
0
10
-26.697160026830019
20
-20.703671638827771
30
0
10
-26.87557794471676
20
-20.688250213244729
30
0
10
-27.064486534489617
20
-20.600084767307347
30
0
10
-27.266203656045146
20
-20.465027114092393
30
0
10
-27.467465921497102
20
-20.292262165492339
30
0
10
-27.650432610684625
20
-20.081428706084221
30
0
10
-27.801797567424398
20
-19.827191421830143
30
0
10
-27.920669956312839
20
-19.524160849918882
30
0
10
-28.013274790289188
20
-19.167232491305082
30
0
10
-28.089327532927975
20
-18.752629829978616
30
0
10
-28.157846361181885
20
-18.278640955142414
30
0
10
-28.222956598537184
20
-17.746553886029673
30
0
10
-28.284633449258546
20
-17.160155374823152
30
0
10
-28.339845175615544
20
-16.525156855218373
30
0
10
-28.383552819246653
20
-15.848643152502129
30
0
10
-28.409759134411043
20
-15.138516445881081
30
0
10
-28.412563072536727
20
-14.402931230780698
30
0
10
-28.387149583950418
20
-13.649758913272452
30
0
10
-28.330957879828841
20
-12.88597738075577
30
0
10
-28.244281083138798
20
-12.117296203436291
30
0
10
-28.129513994649635
20
-11.348340716234732
30
0
10
-27.990667656443765
20
-10.582725679451279
30
0
10
-27.832778477362588
20
-9.8231729439220619
30
0
10
-27.661360890393141
20
-9.0716100864231279
30
0
10
-27.481844777488028
20
-8.3292777550706099
30
0
10
-27.299011350274576
20
-7.5968320217119043
30
0
10
-27.116448559196535
20
-6.8744517540554
30
0
10
-26.935953114160395
20
-6.1619369683296386
30
0
10
-26.757086564970102
20
-5.4588309769418428
30
0
10
-26.5779552570337
20
-4.7647254275837438
30
0
10
-26.395877531599119
20
-4.0795500546001637
30
0
10
-26.208089418095568
20
-3.4038645424833054
30
0
10
-26.012444639366493
20
-2.7391580062079388
30
0
10
-25.808092312505302
20
-2.0881254907248357
30
0
10
-25.596221799362993
20
-1.4550001970592488
30
0
10
-25.380643675979261
20
-0.84575422742192385
30
0
10
-25.168786503347583
20
-0.2686308525895178
30
0
10
-24.970577312299636
20
0.2670076454290089
30
0
10
-24.796345138115004
20
0.75260725338621948
30
0
10
-24.655146389779734
20
1.1820184732234682
30
0
10
-24.552674223901576
20
1.5534130811106441
30
0
10
-24.489904736575724
20
1.8706388117271364
30
0
10
-24.460042392562656
20
2.1458738583640935
30
0
10
-24.45194034748463
20
2.3971768174458967
30
0
10
-24.457469326803917
20
2.6422157948541836
30
0
10
-24.479351391291708
20
2.8929510561758449
30
0
10
-24.534078672054967
20
3.1504462796465256
30
0
10
-24.639358823224491
20
3.4028987246595443
30
0
10
-24.803425461512916
20
3.6218252818691177
30
0
10
-25.016022419354591
20
3.762083533399474
30
0
10
-25.258855109428204
20
3.7830095026512138
30
0
10
-25.514769957885601
20
3.6703735084505036
30
0
10
-25.775190816711859
20
3.4501975892667014
30
0
10
-26.037443500167203
20
3.1672538214545209
30
0
10
-26.303744876469107
20
2.8698984175301594
30
0
10
-26.579517587929434
20
2.5907285297962006
30
0
10
-26.872044047684529
20
2.3341119467837008
30
0
10
-27.189253411033995
20
2.0865141478671432
30
0
10
-27.538507308286238
20
1.8235633737067753
30
0
10
-27.925414440094471
20
1.5182296071747128
30
0
10
-28.35256175007682
20
1.1488914934433652
30
0
10
-28.818488945365051
20
0.70639526575318112
30
0
10
-29.318569253339362
20
0.19131165717091667
30
0
10
-29.845708083507276
20
-0.38783793830804414
30
0
10
-30.391111760485984
20
-1.0167296154888548
30
0
10
-30.945025784630495
20
-1.677223964921055
30
0
10
-31.497487696546735
20
-2.3494264896550723
30
0
10
-32.03907013789388
20
-3.0137067428312876
30
0
10
-32.561636306490151
20
-3.6527576827915742
30
0
10
-33.059070787887926
20
-4.2535847087504326
30
0
10
-33.528073347635797
20
-4.8096687372287503
30
0
10
-33.967815044225908
20
-5.3200133064249444
30
0
10
-34.379520372930315
20
-5.7879924228335398
30
0
10
-34.766077211216533
20
-6.2202674076101498
30
0
10
-35.131632833770567
20
-6.6256819005587655
30
0
10
-35.481201031100021
20
-7.0141494533608757
30
0
10
-35.820252551326114
20
-7.3955835928051803
30
0
10
-36.15434181918323
20
-7.7787136248315534
30
0
10
-36.488614402111153
20
-8.1702927190368548
30
0
10
-36.827142796875549
20
-8.5748852666259019
30
0
10
-37.172299848454358
20
-8.9945137877985797
30
0
10
-37.524124588970189
20
-9.4283651067214347
30
0
10
-37.879673752902761
20
-9.8724652965788415
30
0
10
-38.23242068399388
20
-10.319381842453836
30
0
10
-38.57152478297062
20
-10.757876269711243
30
0
10
-38.88488017952308
20
-11.174164487547976
30
0
10
-39.162125709526116
20
-11.55322105642113
30
0
10
-39.397962910006918
20
-11.880073808508316
30
0
10
-39.594679211944921
20
-12.141087993383458
30
0
10
-39.766591328950007
20
-12.325289807785367
30
0
10
-39.939045001455867
20
-12.42556392063692
30
0
10
-40.133141949786705
20
-12.439350172159694
30
0
10
-40.347616664450314
20
-12.369453279533518
30
0
10
-40.559469496742651
20
-12.224560524819118
30
0
10
-40.74265993650662
20
-12.018792227428731
30
0
10
-40.884957073270016
20
-11.772645248323748
30
0
10
-40.98676616733173
20
-11.507027803421545
30
0
10
-41.053196177009085
20
-11.236155353201546
30
0
10
-41.087398222634363
20
-10.958960179559652
30
0
10
-41.087012825944889
20
-10.657502909039087
30
0
10
-41.047508196349568
20
-10.307040749663898
30
0
10
-40.963645923737673
20
-9.8826968460390781
30
0
10
-40.832046168592413
20
-9.3688834358962634
30
0
10
-40.651980533178431
20
-8.762237217796482
30
0
10
-40.424736947405208
20
-8.0684111805884289
30
0
10
-40.153344934312344
20
-7.3004737771557648
30
0
10
-39.842155052056455
20
-6.4766540190432673
30
0
10
-39.496480815328113
20
-5.6183672365821735
30
0
10
-39.122213558951884
20
-4.7481186658882146
30
0
10
-38.725449387178763
20
-3.8874629931158462
30
0
10
-38.312109925268246
20
-3.0549320361896859
30
0
10
-37.887568099234279
20
-2.2639944945245474
30
0
10
-37.456265244668657
20
-1.5209512873071962
30
0
10
-37.021757181692969
20
-0.82614631771401814
30
0
10
-36.58676842951153
20
-0.17523871456302823
30
0
10
-36.153243143928051
20
0.43954583403918057
30
0
10
-35.722398069881287
20
1.0281588459925681
30
0
10
-35.294773145883674
20
1.6014659038894345
30
0
10
-34.870286534625173
20
2.1700074914585539
30
0
10
-34.448279784117403
20
2.74270070826881
30
0
10
-34.027585899713692
20
3.325680912441547
30
0
10
-33.606539828164557
20
3.9207904535665254
30
0
10
-33.183284151684504
20
4.5258774585288775
30
0
10
-32.756196426147866
20
5.1358399676471667
30
0
10
-32.324277108145438
20
5.7434295184441995
30
0
10
-31.887554289427165
20
6.3401551070598963
30
0
10
-31.44748033909222
20
6.9171435939869603
30
0
10
-31.007334107515881
20
7.4660199303691863
30
0
10
-30.572615949215422
20
7.9797763399731121
30
0
10
-30.15145724303671
20
8.4536522294770826
30
0
10
-29.754992048964951
20
8.8859927524534292
30
0
10
-29.395526175118537
20
9.2778782499990449
30
0
10
-29.084737036767656
20
9.632776472458394
30
0
10
-28.831870621962988
20
9.9561797125752491
30
0
10
-28.641920303357242
20
10.25526335080372
30
0
10
-28.513857091710911
20
10.538500942537416
30
0
10
-28.438762816416091
20
10.81536734818933
30
0
10
-28.40707296017888
20
11.092406136548597
30
0
10
-28.414105683320937
20
11.370228402026507
30
0
10
-28.469415403083275
20
11.638375048451003
30
0
10
-28.59231531835713
20
11.877977574866716
30
0
10
-28.79672744985243
20
12.070633874161494
30
0
10
-29.075874080033905
20
12.20702611475032
30
0
10
-29.396757156554777
20
12.291094375564393
30
0
10
-29.722160179814576
20
12.331513122039009
30
0
10
-30.024899769542778
20
12.336501963585441
30
0
10
-30.309821612579888
20
12.30573980377484
30
0
10
-30.612064902407646
20
12.230382924063353
30
0
10
-30.979227159605539
20
12.098429035363527
30
0
10
-31.458673533791817
20
11.898399674081423
30
0
10
-32.08168283741113
20
11.624018707530269
30
0
10
-32.852061756746231
20
11.277558013095403
30
0
10
-33.752835479716893
20
10.867935496071139
30
0
10
-34.750712214666628
20
10.40945515460448
30
0
10
-35.801401312704911
20
9.920301108447573
30
0
10
-36.854575866609977
20
9.4211343708261666
30
0
10
-37.858970045098701
20
8.9336500394608542
30
0
10
-38.767460375902708
20
8.4791409247142138
30
0
10
-39.542056465371488
20
8.0770830688805635
30
0
10
-40.159157309319994
20
7.7436545294580892
30
0
10
-40.614165699736105
20
7.490416343672389
30
0
10
-40.927642030043508
20
7.3226041141706775
30
0
10
-41.146994417552676
20
7.2385505545532212
30
0
10
-41.321783764104048
20
7.2358502235092814
30
0
10
-41.483115777113881
20
7.3164439273230446
30
0
10
-41.619229806701654
20
7.4927889915298262
30
0
10
-41.694839174308015
20
7.7798603922496223
30
0
10
-41.677001085719006
20
8.1845693796162173
30
0
10
-41.550673422643726
20
8.6998815305280246
30
0
10
-41.313044334648261
20
9.309049449020856
30
0
10
-40.971887546821897
20
9.987910101329442
30
0
10
-40.542328198296801
20
10.707945425042455
30
0
10
-40.044280988212449
20
11.439024517592998
30
0
10
-39.499613295816346
20
12.152265578138497
30
0
10
-38.929393863762549
20
12.822886310201273
30
0
10
-38.351182247490684
20
13.432964865655082
30
0
10
-37.776091303430647
20
13.974494248882943
30
0
10
-37.209552144535024
20
14.447920121169162
30
0
10
-36.652391075923241
20
14.860300819420933
30
0
10
-36.10179150447599
20
15.223608407922249
30
0
10
-35.552309576110368
20
15.552959554823351
30
0
10
-34.99685467521325
20
15.864901328363246
30
0
10
-34.427712949548315
20
16.175615933391686
30
0
10
-33.837487023405281
20
16.499294642310915
30
0
10
-33.22023352914514
20
16.846106136317211
30
0
10
-32.571863098777612
20
17.221681558855146
30
0
10
-31.889848687298393
20
17.628022777885878
30
0
10
-31.173124448207346
20
18.064018497711913
30
0
10
-30.421906623075611
20
18.526120900708545
30
0
10
-29.6375478588294
20
19.008953396041022
30
0
10
-28.822377130733546
20
19.505948235874577
30
0
10
-27.979545923150887
20
20.00997069815185
30
0
10
-27.112871610503504
20
20.513950344306458
30
0
10
-26.226682318149884
20
21.011506206270973
30
0
10
-25.325660519312535
20
21.497581762355967
30
0
10
-24.414688953178146
20
21.969055610122332
30
0
10
-23.498775470778664
20
22.424453589197064
30
0
10
-22.582975991318676
20
22.86368316897482
30
0
10
-21.67231810638167
20
23.287759426683596
30
0
10
-20.77172453856415
20
23.698534840858049
30
0
10
-19.885936362905195
20
24.098426905586699
30
0
10
-19.019437022736959
20
24.490147963842084
30
0
10
-18.176374389238006
20
24.876431130567195
30
0
10
-17.360487403407991
20
25.259764772581054
30
0
10
-16.575022041979611
20
25.64210733326285
30
0
10
-15.822672190996377
20
26.024647910692313
30
0
10
-15.105459985466563
20
26.407455701268198
30
0
10
-14.4248246982895
20
26.789512265830787
30
0
10
-13.781988295279231
20
27.169251438272308
30
0
10
-13.178251419710424
20
27.544971856608772
30
0
10
-12.615319056194661
20
27.915303247092062
30
0
10
-12.095610097718012
20
28.27964482582879
30
0
10
-11.622581735609387
20
28.638627037031817
30
0
10
-11.201029109128998
20
28.994536872212919
30
0
10
-10.837439369017968
20
29.351821750857809
30
0
10
-10.540195457226073
20
29.717376672236504
30
0
10
-10.317860106814994
20
30.098019004213814
30
0
10
-10.177628724417868
20
30.498226409461779
30
0
10
-10.123639587232738
20
30.917628193702178
30
0
10
-10.155525077594977
20
31.348938216324463
30
0
10
-10.266390260454877
20
31.774822618099549
30
0
10
-10.444579316426994
20
32.171826694515396
30
0
10
-10.67636118463134
20
32.516003737593245
30
0
10
-10.948333907985068
20
32.788045208937795
30
0
10
-11.249875456902014
20
32.978437267866326
30
0
10
-11.57576849113568
20
33.093103616655029
30
0
10
-11.924787611203113
20
33.148496506080825
30
0
10
-12.29792584114335
20
33.165688826622649
30
0
10
-12.696873429934328
20
33.165270774734033
30
0
10
-13.122092854756795
20
33.160822063575637
30
0
10
-13.572569991398991
20
33.158479314033507
30
0
10
-14.046410526014245
20
33.159595406144518
30
0
10
-14.541176496324493
20
33.16244935997635
30
0
10
-15.054324251779686
20
33.164321792724259
30
0
10
-15.583613888272154
20
33.163480124663351
30
0
10
-16.127488082961428
20
33.161012059156924
30
0
10
-16.684833047310626
20
33.159920460194662
30
0
10
-17.254783408887985
20
33.164410212576279
30
0
10
-17.836512345025092
20
33.179111498561859
30
0
10
-18.42902319571618
20
33.208307496864023
30
0
10
-19.030951589774606
20
33.255212789371249
30
0
10
-19.640336153621337
20
33.32110306200758
30
0
10
-20.254488859592328
20
33.40491522943789
30
0
10
-20.870136866675047
20
33.504130013700752
30
0
10
-21.483514062228565
20
33.615415651052437
30
0
10
-22.090472534899263
20
33.735369001109028
30
0
10
-22.686585489947369
20
33.861208610648909
30
0
10
-23.267253950360846
20
33.991503475238538
30
0
10
-23.827811573753763
20
34.126850988348266
30
0
10
-24.363630914937872
20
34.270672297764435
30
0
10
-24.870222305903702
20
34.428340802382934
30
0
10
-25.343334162840453
20
34.606176500639933
30
0
10
-25.779049186086599
20
34.81048013130976
30
0
10
-26.173890374013695
20
35.046569598156012
30
0
10
-26.524903901746789
20
35.317770903198202
30
0
10
-26.829801452901059
20
35.624540644202817
30
0
10
-27.086716657934669
20
35.962888424273928
30
0
10
-27.293822577438831
20
36.322811148293638
30
0
10
-27.449045839585537
20
36.68634456534533
30
0
10
-27.549627999179954
20
37.026627893154227
30
0
10
-27.592037381458919
20
37.304336457204116
30
0
10
-27.569667606565368
20
37.482824996237973
30
0
10
-27.470572331690541
20
37.545258444849935
30
0
10
-27.274157032714463
20
37.514785071693566
30
0
10
-26.959266654773465
20
37.437580437788426
30
0
10
-26.517144304209673
20
37.353324742259218
30
0
10
-25.954599024981807
20
37.285423458615277
30
0
10
-25.288982497979472
20
37.24626728993416
30
0
10
-24.545368097062706
20
37.238544860720637
30
0
10
-23.752805067196032
20
37.258173374843501
30
0
10
-22.941031351737294
20
37.296504703122764
30
0
10
-22.136843733191679
20
37.342917442473151
30
0
10
-21.360955091416415
20
37.387069313118836
30
0
10
-20.623804469086636
20
37.421723503707426
30
0
10
-19.925050671632135
20
37.443677077476075
30
0
10
-19.257058113551853
20
37.452659724857455
30
0
10
-18.607319300832913
20
37.450769355602532
30
0
10
-17.961327451542999
20
37.441685978998841
30
0
10
-17.305217895976615
20
37.429987372073313
30
0
10
-16.628598237065397
20
37.420405069745513
30
0
10
-15.927089233485852
20
37.417143080448291
30
0
10
-15.205490918835032
20
37.423080505509311
30
0
10
-14.479104989506812
20
37.43930390192407
30
0
10
-13.769232782744007
20
37.465665633631929
30
0
10
-13.099703110010088
20
37.501168470191047
30
0
10
-12.492921389564719
20
37.544416014160987
30
0
10
-11.96629002471459
20
37.59404091977035
30
0
10
-11.528081368594499
20
37.649129037521348
30
0
10
-11.174456389953866
20
37.709677104690876
30
0
10
-10.883646138044378
20
37.77695875346727
30
0
10
-10.627458991834906
20
37.854267845585248
30
0
10
-10.385894432859953
20
37.947426977145831
30
0
10
-10.163377245731793
20
38.065986109403568
30
0
10
-9.9968139050418507
20
38.222460580920107
30
0
10
-9.9293225590721352
20
38.425180575310321
30
0
10
-9.9833778427208664
20
38.669870487809959
30
0
10
-10.151595048023554
20
38.938716851301372
30
0
10
-10.413352551805509
20
39.209650858847603
30
0
10
-10.744699722045365
20
39.462991899409573
30
0
10
-11.131122632982578
20
39.689249252939753
30
0
10
-11.565020926925813
20
39.886772615839277
30
0
10
-12.043543530240754
20
40.059502512189908
30
0
10
-12.566245263793419
20
40.214657697721861
30
0
10
-13.132857163957032
20
40.360482146207104
30
0
10
-13.740921783392752
20
40.503889916021826
30
0
10
-14.383734198845229
20
40.648373952429068
30
0
10
-15.051515843391275
20
40.794787024182952
30
0
10
-15.732353251830506
20
40.941914003096464
30
0
10
-16.413229916108882
20
41.087124083299585
30
0
10
-17.081009804560846
20
41.226987531843371
30
0
10
-17.723461973808185
20
41.357911129962403
30
0
10
-18.330220190590435
20
41.476757542239525
30
0
10
-18.893883712005291
20
41.581490512403576
30
0
10
-19.410717881558465
20
41.671758676668475
30
0
10
-19.878263984822688
20
41.749285840133219
30
0
10
-20.293437042683664
20
41.81815555214137
30
0
10
-20.650092660589525
20
41.885391153893572
30
0
10
-20.937606757866114
20
41.960825937035267
30
0
10
-21.137048403135612
20
42.05874700570277
30
0
10
-21.227313493729159
20
42.191988509932585
30
0
10
-21.1993014347049
20
42.359349116762878
30
0
10
-21.066109995285146
20
42.537200726655371
30
0
10
-20.851507277461735
20
42.697416823802797
30
0
10
-20.577906914743728
20
42.827428620399523
30
0
10
-20.263321668767055
20
42.928527325871244
30
0
10
-19.920972356360188
20
43.008011253001371
30
0
10
-19.557966659835511
20
43.073391905223673
30
0
10
-19.174419411901368
20
43.125846125251044
30
0
10
-18.766351420631999
20
43.162641155024602
30
0
10
-18.328610567629802
20
43.179278758366664
30
0
10
-17.857763723353173
20
43.171741827168489
30
0
10
-17.355039946732198
20
43.138723892947432
30
0
10
-16.829144434287507
20
43.083791778237298
30
0
10
-16.293485679401133
20
43.013685651333574
30
0
10
-15.763495516366334
20
42.936685475928577
30
0
10
-15.253959584831605
20
42.860987191769553
30
0
10
-14.776241315321531
20
42.792996114001014
30
0
10
-14.335791343425257
20
42.735840682069494
30
0
10
-13.928898974461257
20
42.687301194396568
30
0
10
-13.54619576612588
20
42.642981674705666
30
0
10
-13.177318234325824
20
42.600410658139801
30
0
10
-12.815072568560659
20
42.562691868338433
30
0
10
-12.460020249604057
20
42.542631685104894
30
0
10
-12.124270835194828
20
42.565813941386956
30
0
10
-11.825938692882394
20
42.659591181610288
30
0
10
-11.584462222494132
20
42.843781762151878
30
0
10
-11.415097221609793
20
43.119143783900718
30
0
10
-11.325286002689863
20
43.461635247240721
30
0
10
-11.316865120288636
20
43.835801606515091
30
0
10
-11.387287283082088
20
44.204439623829472
30
0
10
-11.531280342396569
20
44.540907807805837
30
0
10
-11.742165308523838
20
44.836706564499039
30
0
10
-12.012574494984499
20
45.094664143350883
30
0
10
-12.335279090172977
20
45.324253185321297
30
0
10
-12.703908682725677
20
45.53633846020378
30
0
10
-13.113887469877298
20
45.737488646230062
30
0
10
-13.561869972091747
20
45.930039102546743
30
0
10
-14.044839594140917
20
46.113529573647611
30
0
10
-14.559343444594949
20
46.285648995531396
30
0
10
-15.100623975421508
20
46.443419346468232
30
0
10
-15.661902470228275
20
46.584202340123255
30
0
10
-16.233317974078155
20
46.706975630456434
30
0
10
-16.802982333564778
20
46.812133329249768
30
0
10
-17.358639904249497
20
46.900878336156623
30
0
10
-17.88910039480389
20
46.974760709788285
30
0
10
-18.385818860483482
20
47.035134347088992
30
0
10
-18.844291653624943
20
47.082696438076013
30
0
10
-19.265821853100416
20
47.116876822332841
30
0
10
-19.65822537721747
20
47.135645679213539
30
0
10
-20.033100533591455
20
47.136643704907868
30
0
10
-20.403580985489388
20
47.118151615128603
30
0
10
-20.782072467009751
20
47.080003422496446
30
0
10
-21.177575212678754
20
47.024813076120957
30
0
10
-21.594821066214834
20
46.957944125410116
30
0
10
-22.035378940593098
20
46.886147180766471
30
0
10
-22.498239386518559
20
46.816531229851051
30
0
10
-22.980595199056246
20
46.755448665002845
30
0
10
-23.478577608038869
20
46.707298488297639
30
0
10
-23.987889653127368
20
46.673730873466546
30
0
10
-24.5038933661837
20
46.654454491705842
30
0
10
-25.021787198187802
20
46.647787677358245
30
0
10
-25.536747167332582
20
46.651316006389933
30
0
10
-26.044084943748782
20
46.662491034817819
30
0
10
-26.539395149905364
20
46.679286337099199
30
0
10
-27.018718225318953
20
46.700735940632754
30
0
10
-27.478887232921778
20
46.726296945964194
30
0
10
-27.917838992546784
20
46.755319784594448
30
0
10
-28.334982996410226
20
46.786440068048165
30
0
10
-28.731444584786956
20
46.817089564027121
30
0
10
-29.110616329546801
20
46.842740584349087
30
0
10
-29.477379587458042
20
46.857275696825617
30
0
10
-29.836457842814873
20
46.854075601749763
30
0
10
-30.191090009638412
20
46.82686384003653
30
0
10
-30.541440681580006
20
46.770712017459104
30
0
10
-30.883504778463184
20
46.682801125105833
30
0
10
-31.210940484692124
20
46.561847497611652
30
0
10
-31.516608826710897
20
46.40765967014638
30
0
10
-31.79419562044664
20
46.22065994710578
30
0
10
-32.039878916485158
20
46.001381569655635
30
0
10
-32.251594808850562
20
45.751139615832905
30
0
10
-32.428190309451878
20
45.472756038357815
30
0
10
-32.568612027728165
20
45.171268930518728
30
0
10
-32.671094817711086
20
44.854636549592321
30
0
10
-32.733523374310174
20
44.532590543591951
30
0
10
-32.753819267036413
20
44.215523036377007
30
0
10
-32.73023611665414
20
43.913329635392728
30
0
10
-32.662009904697449
20
43.634361552937747
30
0
10
-32.558605701533679
20
43.385544450499729
30
0
10
-32.446056166706839
20
43.172348233486346
30
0
10
-32.379519503506437
20
42.998951774707464
30
0
10
-32.417828795657428
20
42.867082451794083
30
0
10
-32.567768050793632
20
42.77325362863283
30
0
10
-32.781557025715514
20
42.709619499776153
30
0
10
-33.024615859940432
20
42.66997427069505
30
0
10
-33.30098024955214
20
42.652591011819027
30
0
10
-33.627456804999156
20
42.659300773682475
30
0
10
-34.017785013237855
20
42.695197565083362
30
0
10
-34.461254286387032
20
42.768239207233222
30
0
10
-34.930068482318376
20
42.886874429043303
30
0
10
-35.388158946813306
20
43.057575726398781
30
0
10
-35.799934465244846
20
43.282155782974108
30
0
10
-36.138123882737339
20
43.555750132632475
30
0
10
-36.394322421674545
20
43.863083087302329
30
0
10
-36.578476163244574
20
44.181644625314448
30
0
10
-36.709215060137964
20
44.490800879466221
30
0
10
-36.807196021089069
20
44.778597728157415
30
0
10
-36.886341197373802
20
45.050880659111883
30
0
10
-36.948656212314226
20
45.335180117564732
30
0
10
-36.990606312525991
20
45.665702517524295
30
0
10
-37.007350688583045
20
46.072206883607969
30
0
10
-36.998604625449254
20
46.565352817994146
30
0
10
-36.971260749118876
20
47.130015282653758
30
0
10
-36.935378680460339
20
47.735563341407413
30
0
10
-36.901431887559752
20
48.342865653712927
30
0
10
-36.877140248562768
20
48.912445808067304
30
0
10
-36.864286163489218
20
49.412490478505973
30
0
10
-36.855991642896939
20
49.826113595774693
30
0
10
-36.832607632454661
20
50.161054893872574
30
0
10
-36.767617347501357
20
50.441639929902173
30
0
10
-36.636170263408786
20
50.696134000521333
30
0
10
-36.422295387111305
20
50.946302582952406
30
0
10
-36.127745526330301
20
51.194432005531844
30
0
10
-35.768193686766942
20
51.429391865361296
30
0
10
-35.367702671769415
20
51.635309072717192
30
0
10
-34.953817704407932
20
51.799236601540386
30
0
10
-34.552354001348974
20
51.919456731391463
30
0
10
-34.182439963941917
20
52.012934336350796
30
0
10
-33.856452555337768
20
52.10590878202099
30
0
10
-33.579687050408431
20
52.224528877789702
30
0
10
-33.350379738838399
20
52.386408657096425
30
0
10
-33.158950549394795
20
52.589450215057596
30
0
10
-32.991252722062285
20
52.816475566837269
30
0
10
-32.83246486187457
20
53.044435274464149
30
0
10
-32.671975228265254
20
53.253246133316054
30
0
10
-32.504038699125964
20
53.431004238394664
30
0
10
-32.322440352448538
20
53.571497503541153
30
0
10
-32.114425537190876
20
53.673389419562028
30
0
10
-31.861181439554635
20
53.739117489868804
30
0
10
-31.552662586464461
20
53.774968609716069
30
0
10
-31.201127972615261
20
53.790966202985501
30
0
10
-30.850371805822775
20
53.800472983220146
30
0
10
-30.547862580680622
20
53.816482309582767
30
0
10
-30.325221750911055
20
53.848940159690322
30
0
10
-30.167558718047754
20
53.900349578634689
30
0
10
-30.0152795988291
20
53.966784696541225
30
0
10
-29.824107537873068
20
54.049285194142158
30
0
10
-29.601673431612056
20
54.160353257297082
30
0
10
-29.37732321178683
20
54.314226151851948
30
0
10
-29.173466681924396
20
54.517150590199236
30
0
10
-28.986517648252395
20
54.761485577236478
30
0
10
-28.801543672677798
20
55.032507431201765
30
0
10
-28.599753977015805
20
55.312490611028025
30
0
10
-28.370641952297277
20
55.586654829634853
30
0
10
-28.114661493197481
20
55.845077303641773
30
0
10
-27.839433900340694
20
56.081813673746723
30
0
10
-27.557676641730367
20
56.29470784478373
30
0
10
-27.284544623479849
20
56.485101899760522
30
0
10
-27.034794184572405
20
56.656976876406652
30
0
10
-26.817031399529018
20
56.812999629376542
30
0
10
-26.629682100505928
20
56.951914174418405
30
0
10
-26.488815516571094
20
57.041263366536384
30
0
10
-26.374907073463163
20
57.08965090203003
30
0
10
-26.291938036711805
20
57.112543385872101
30
0
10
-26.248417474512532
20
57.121632752684938
30
0
0
SPLINE
5
133
100
AcDbEntity
8
0
100
AcDbSpline
70
1064
71
5
72
81
73
75
74
0
42
0.000000001
43
0.0000000001
44
0.0000000001
40
0
40
0
40
0
40
0
40
0
40
0
40
0.014285714285714285
40
0.028571428571428571
40
0.042857142857142858
40
0.057142857142857141
40
0.071428571428571425
40
0.085714285714285715
40
0.10000000000000001
40
0.1142857142857143
40
0.12857142857142859
40
0.14285714285714288
40
0.15714285714285717
40
0.17142857142857146
40
0.18571428571428575
40
0.20000000000000004
40
0.21428571428571433
40
0.22857142857142862
40
0.24285714285714291
40
0.25714285714285717
40
0.27142857142857146
40
0.28571428571428575
40
0.30000000000000004
40
0.31428571428571433
40
0.32857142857142863
40
0.34285714285714292
40
0.35714285714285721
40
0.3714285714285715
40
0.38571428571428579
40
0.40000000000000008
40
0.41428571428571437
40
0.42857142857142866
40
0.44285714285714295
40
0.45714285714285724
40
0.47142857142857153
40
0.48571428571428582
40
0.50000000000000011
40
0.51428571428571435
40
0.52857142857142858
40
0.54285714285714282
40
0.55714285714285705
40
0.57142857142857129
40
0.58571428571428552
40
0.59999999999999976
40
0.61428571428571399
40
0.62857142857142823
40
0.64285714285714246
40
0.6571428571428567
40
0.67142857142857093
40
0.68571428571428517
40
0.6999999999999994
40
0.71428571428571364
40
0.72857142857142787
40
0.74285714285714211
40
0.75714285714285634
40
0.77142857142857058
40
0.78571428571428481
40
0.79999999999999905
40
0.81428571428571328
40
0.82857142857142752
40
0.84285714285714175
40
0.85714285714285599
40
0.87142857142857022
40
0.88571428571428445
40
0.89999999999999869
40
0.91428571428571292
40
0.92857142857142716
40
0.94285714285714139
40
0.95714285714285563
40
0.97142857142856986
40
0.9857142857142841
40
1
40
1
40
1
40
1
40
1
40
1
10
-18.302512242571385
20
22.053748423462363
30
0
10
-18.361182657116174
20
22.039833718639223
30
0
10
-18.486151705962218
20
22.006478192820961
30
0
10
-18.696957378693483
20
21.941240606800218
30
0
10
-19.025878807280769
20
21.828184499146154
30
0
10
-19.516371619016759
20
21.649433824890266
30
0
10
-20.082700010773429
20
21.436042790619588
30
0
10
-20.71850567864923
20
21.188882969497943
30
0
10
-21.414779264641787
20
20.908346556115923
30
0
10
-22.160087252911701
20
20.595702425114087
30
0
10
-22.940758254944061
20
20.2545669408218
30
0
10
-23.741726454221151
20
19.890386442027278
30
0
10
-24.547408080052655
20
19.509818501622174
30
0
10
-25.342563680553493
20
19.120152347213416
30
0
10
-26.113168882714461
20
18.728712777699464
30
0
10
-26.847277275638184
20
18.342274430219589
30
0
10
-27.535902501599679
20
17.966464428348662
30
0
10
-28.173865720155792
20
17.605184137448681
30
0
10
-28.760735776991631
20
17.259983518097968
30
0
10
-29.301528014732824
20
16.929559041635336
30
0
10
-29.80484545932589
20
16.61057493343073
30
0
10
-30.281204545722904
20
16.298381647498452
30
0
10
-30.741319915699748
20
15.987772391287539
30
0
10
-31.194349323309627
20
15.673719804913713
30
0
10
-31.646291062872493
20
15.352126974115862
30
0
10
-32.09796774541396
20
15.020557778809213
30
0
10
-32.544828209711092
20
14.679072592488438
30
0
10
-32.977804952257756
20
14.331193206190729
30
0
10
-33.383865349805376
20
13.984724716306886
30
0
10
-33.746635056403889
20
13.65287976701296
30
0
10
-34.047099501529608
20
13.354727700028297
30
0
10
-34.263972266521286
20
13.117354676657921
30
0
10
-34.376371057323723
20
12.967896879657509
30
0
10
-34.367054442691256
20
12.924542792194982
30
0
10
-34.225546863045061
20
12.984869711366454
30
0
10
-33.951048890928718
20
13.127807729029236
30
0
10
-33.555261066432386
20
13.326602734841277
30
0
10
-33.064932578232572
20
13.558212380763377
30
0
10
-32.515127864693
20
13.803925211404627
30
0
10
-31.942831848741214
20
14.049778366436897
30
0
10
-31.38044720566754
20
14.287085301496699
30
0
10
-30.849301549713548
20
14.512928570859554
30
0
10
-30.353214066043943
20
14.730661399770625
30
0
10
-29.871797934514809
20
14.950456224265601
30
0
10
-29.368507495672187
20
15.186535373821945
30
0
10
-28.799169178406295
20
15.454244511834228
30
0
10
-28.119949114982393
20
15.767362146531504
30
0
10
-27.296395642914952
20
16.13491166696156
30
0
10
-26.310088310405312
20
16.559098629359056
30
0
10
-25.170847547308128
20
17.030624500141734
30
0
10
-23.916079689595946
20
17.53007790639429
30
0
10
-22.640903538701718
20
18.014789318005281
30
0
10
-21.437904983899031
20
18.44839198912376
30
0
10
-20.363658406866044
20
18.815128516540018
30
0
10
-19.455895621698016
20
19.110281015909223
30
0
10
-18.730607342089804
20
19.340080523523852
30
0
10
-18.18765283093051
20
19.517570640247918
30
0
10
-17.812742231272882
20
19.660260840945504
30
0
10
-17.58081967048399
20
19.786930638170848
30
0
10
-17.459150118866955
20
19.915004698863331
30
0
10
-17.40969398712577
20
20.057184650012267
30
0
10
-17.395689298223694
20
20.220328086514094
30
0
10
-17.394760613064669
20
20.4056462366594
30
0
10
-17.40530554271934
20
20.609545614281124
30
0
10
-17.433178562932568
20
20.827150773704165
30
0
10
-17.477343322547412
20
21.057499386809102
30
0
10
-17.528907104782622
20
21.300805735344742
30
0
10
-17.581239726316927
20
21.551057706713372
30
0
10
-17.63933246920449
20
21.786307195146467
30
0
10
-17.720328429886511
20
21.973250475409365
30
0
10
-17.844679846197998
20
22.083577741526227
30
0
10
-17.991977523733627
20
22.105468962187995
30
0
10
-18.134129218693491
20
22.089966421759783
30
0
10
-18.243841828026589
20
22.067663128285503
30
0
10
-18.302512242571385
20
22.053748423462363
30
0
0
SPLINE
5
134
100
AcDbEntity
8
0
100
AcDbSpline
70
1064
71
5
72
96
73
90
74
0
42
0.000000001
43
0.0000000001
44
0.0000000001
40
0
40
0
40
0
40
0
40
0
40
0
40
0.011764705882352941
40
0.023529411764705882
40
0.035294117647058823
40
0.047058823529411764
40
0.058823529411764705
40
0.070588235294117646
40
0.082352941176470587
40
0.094117647058823528
40
0.10588235294117647
40
0.11764705882352941
40
0.12941176470588234
40
0.14117647058823529
40
0.15294117647058825
40
0.1647058823529412
40
0.17647058823529416
40
0.18823529411764711
40
0.20000000000000007
40
0.21176470588235302
40
0.22352941176470598
40
0.23529411764705893
40
0.24705882352941189
40
0.25882352941176484
40
0.2705882352941178
40
0.28235294117647075
40
0.29411764705882371
40
0.30588235294117666
40
0.31764705882352962
40
0.32941176470588257
40
0.34117647058823553
40
0.35294117647058848
40
0.36470588235294144
40
0.37647058823529439
40
0.38823529411764734
40
0.4000000000000003
40
0.41176470588235325
40
0.42352941176470621
40
0.43529411764705916
40
0.44705882352941212
40
0.45882352941176507
40
0.47058823529411803
40
0.48235294117647098
40
0.49411764705882394
40
0.50588235294117689
40
0.51764705882352979
40
0.52941176470588269
40
0.54117647058823559
40
0.55294117647058849
40
0.56470588235294139
40
0.57647058823529429
40
0.58823529411764719
40
0.60000000000000009
40
0.61176470588235299
40
0.62352941176470589
40
0.63529411764705879
40
0.64705882352941169
40
0.65882352941176459
40
0.67058823529411749
40
0.68235294117647038
40
0.69411764705882328
40
0.70588235294117618
40
0.71764705882352908
40
0.72941176470588198
40
0.74117647058823488
40
0.75294117647058778
40
0.76470588235294068
40
0.77647058823529358
40
0.78823529411764648
40
0.79999999999999938
40
0.81176470588235228
40
0.82352941176470518
40
0.83529411764705808
40
0.84705882352941098
40
0.85882352941176388
40
0.87058823529411677
40
0.88235294117646967
40
0.89411764705882257
40
0.90588235294117547
40
0.91764705882352837
40
0.92941176470588127
40
0.94117647058823417
40
0.95294117647058707
40
0.96470588235293997
40
0.97647058823529287
40
0.98823529411764577
40
1
40
1
40
1
40
1
40
1
40
1
10
-19.697867681445153
20
16.417138437409154
30
0
10
-19.73438140503097
20
16.438832851328041
30
0
10
-19.807038490371301
20
16.481399982355008
30
0
10
-19.915796979649148
20
16.540818763236352
30
0
10
-20.061029481666143
20
16.593889392168613
30
0
10
-20.235483938281313
20
16.571869661640051
30
0
10
-20.392067869461343
20
16.479640091685223
30
0
10
-20.526637135675799
20
16.379421355544203
30
0
10
-20.662143268898699
20
16.28908243072226
30
0
10
-20.848089499761219
20
16.162499534968649
30
0
10
-21.132200894305203
20
15.941040250179094
30
0
10
-21.536075871542376
20
15.593428526314831
30
0
10
-22.057273615380669
20
15.115892665438288
30
0
10
-22.676188723532068
20
14.523855251098938
30
0
10
-23.361117599053461
20
13.84685372332871
30
0
10
-24.074088020565817
20
13.122093755189198
30
0
10
-24.776329399193855
20
12.388624464334999
30
0
10
-25.433949210722531
20
11.681192941058656
30
0
10
-26.023396148631186
20
11.024368414250363
30
0
10
-26.537370878190906
20
10.426177759871134
30
0
10
-26.981644941834091
20
9.8812899878521172
30
0
10
-27.371419935589433
20
9.3746797472080452
30
0
10
-27.727864921449807
20
8.8851056824919858
30
0
10
-28.074582284236893
20
8.388662960033912
30
0
10
-28.434115169679895
20
7.862293165621046
30
0
10
-28.824419737111956
20
7.2873290977010194
30
0
10
-29.255397457594551
20
6.6529811423022114
30
0
10
-29.730088432840081
20
5.9553225296781607
30
0
10
-30.245804881438396
20
5.1963323993674857
30
0
10
-30.795281900104015
20
4.3829227626935738
30
0
10
-31.367814219058623
20
3.5259788086146808
30
0
10
-31.950399400344388
20
2.6393948010129749
30
0
10
-32.528865872536151
20
1.7391221464050948
30
0
10
-33.089028656926011
20
0.84219850009160013
30
0
10
-33.617779471671454
20
-0.034175678677963374
30
0
10
-34.104346101511801
20
-0.87368002529835465
30
0
10
-34.540266221709295
20
-1.6610118495391382
30
0
10
-34.919093905318398
20
-2.3818430731203484
30
0
10
-35.236212542274352
20
-3.0228347404662692
30
0
10
-35.488578243934541
20
-3.5716416656697252
30
0
10
-35.67455691368427
20
-4.0168921023267963
30
0
10
-35.793577643917693
20
-4.3482504354943439
30
0
10
-35.846227394863412
20
-4.5562716559996339
30
0
10
-35.832703911203289
20
-4.6329761274940031
30
0
10
-35.748009596603978
20
-4.5733416461651588
30
0
10
-35.579661482310591
20
-4.3766289757157386
30
0
10
-35.315937705025114
20
-4.0475403146443547
30
0
10
-34.954569168095425
20
-3.5978137249491033
30
0
10
-34.502713050712728
20
-3.0450248683712449
30
0
10
-33.974036363319264
20
-2.4105452456885947
30
0
10
-33.386795680172938
20
-1.7177929967222816
30
0
10
-32.761491918733427
20
-0.99035204751156614
30
0
10
-32.118739460831435
20
-0.25017634258037652
30
0
10
-31.476976978729553
20
0.48430767351426929
30
0
10
-30.850402372626654
20
1.1999065772391653
30
0
10
-30.246397675356018
20
1.8908462702703948
30
0
10
-29.666257119760932
20
2.5577925030196269
30
0
10
-29.106736228980651
20
3.2060816496849576
30
0
10
-28.561315722200987
20
3.8442269302984688
30
0
10
-28.021585029722441
20
4.4823078178245686
30
0
10
-27.478563759210015
20
5.1304229116466331
30
0
10
-26.924068423875674
20
5.7970897760128812
30
0
10
-26.352014605498887
20
6.4877275338925386
30
0
10
-25.759857204915257
20
7.2029554481386624
30
0
10
-25.149651067059359
20
7.937400270543665
30
0
10
-24.526968214932698
20
8.6813777964208239
30
0
10
-23.900073546549994
20
9.4222297452670087
30
0
10
-23.279004778731501
20
10.145785391648941
30
0
10
-22.674691989696885
20
10.837780350626648
30
0
10
-22.098068551873261
20
11.485265208173034
30
0
10
-21.559169000730538
20
12.078084804826275
30
0
10
-21.066271438133846
20
12.610177202552666
30
0
10
-20.62492373596389
20
13.08132146631165
30
0
10
-20.237321825732906
20
13.497518935325612
30
0
10
-19.902617078340096
20
13.867674523063025
30
0
10
-19.617071378423169
20
14.200981514036171
30
0
10
-19.374221912845361
20
14.503999574021936
30
0
10
-19.165147476398076
20
14.777928724335416
30
0
10
-18.978446053763179
20
15.015651816860235
30
0
10
-18.810796751931026
20
15.211599691667438
30
0
10
-18.675458754730098
20
15.370096871896934
30
0
10
-18.616153359311433
20
15.51755101860879
30
0
10
-18.679175612475539
20
15.685325184154424
30
0
10
-18.855881110901191
20
15.872362476059408
30
0
10
-19.088615157694214
20
16.050185957887894
30
0
10
-19.31602256360858
20
16.192781533967576
30
0
10
-19.475864403058456
20
16.284419446630903
30
0
10
-19.587956148856435
20
16.351233498841676
30
0
10
-19.661353957859337
20
16.39544402349026
30
0
10
-19.697867681445153
20
16.417138437409154
30
0
0
SPLINE
5
135
100
AcDbEntity
8
0
100
AcDbSpline
70
1064
71
5
72
106
73
100
74
0
42
0.000000001
43
0.0000000001
44
0.0000000001
40
0
40
0
40
0
40
0
40
0
40
0
40
0.010526315789473684
40
0.021052631578947368
40
0.031578947368421054
40
0.042105263157894736
40
0.052631578947368418
40
0.063157894736842107
40
0.073684210526315796
40
0.084210526315789486
40
0.094736842105263175
40
0.10526315789473686
40
0.11578947368421055
40
0.12631578947368424
40
0.13684210526315793
40
0.14736842105263162
40
0.15789473684210531
40
0.168421052631579
40
0.17894736842105269
40
0.18947368421052638
40
0.20000000000000007
40
0.21052631578947376
40
0.22105263157894744
40
0.23157894736842113
40
0.24210526315789482
40
0.25263157894736848
40
0.26315789473684215
40
0.27368421052631581
40
0.28421052631578947
40
0.29473684210526313
40
0.30526315789473679
40
0.31578947368421045
40
0.32631578947368411
40
0.33684210526315778
40
0.34736842105263144
40
0.3578947368421051
40
0.36842105263157876
40
0.37894736842105242
40
0.38947368421052608
40
0.39999999999999974
40
0.41052631578947341
40
0.42105263157894707
40
0.43157894736842073
40
0.44210526315789439
40
0.45263157894736805
40
0.46315789473684171
40
0.47368421052631537
40
0.48421052631578904
40
0.4947368421052627
40
0.50526315789473641
40
0.51578947368421013
40
0.52631578947368385
40
0.53684210526315757
40
0.54736842105263128
40
0.557894736842105
40
0.56842105263157872
40
0.57894736842105243
40
0.58947368421052615
40
0.59999999999999987
40
0.61052631578947358
40
0.6210526315789473
40
0.63157894736842102
40
0.64210526315789473
40
0.65263157894736845
40
0.66315789473684217
40
0.67368421052631589
40
0.6842105263157896
40
0.69473684210526332
40
0.70526315789473704
40
0.71578947368421075
40
0.72631578947368447
40
0.73684210526315819
40
0.7473684210526319
40
0.75789473684210562
40
0.76842105263157934
40
0.77894736842105305
40
0.78947368421052677
40
0.80000000000000049
40
0.81052631578947421
40
0.82105263157894792
40
0.83157894736842164
40
0.84210526315789536
40
0.85263157894736907
40
0.86315789473684279
40
0.87368421052631651
40
0.88421052631579022
40
0.89473684210526394
40
0.90526315789473766
40
0.91578947368421137
40
0.92631578947368509
40
0.93684210526315881
40
0.94736842105263253
40
0.95789473684210624
40
0.96842105263157996
40
0.97894736842105368
40
0.98947368421052739
40
1
40
1
40
1
40
1
40
1
40
1
10
-16.096194027682426
20
14.419487313446409
30
0
10
-16.125760743497583
20
14.438119632126424
30
0
10
-16.184522382496137
20
14.473353458190967
30
0
10
-16.273195549207976
20
14.519560538706957
30
0
10
-16.401388991435681
20
14.56998503382292
30
0
10
-16.592805792148436
20
14.621450890507056
30
0
10
-16.795998206572797
20
14.641921763432929
30
0
10
-16.972643826798169
20
14.601949211685916
30
0
10
-17.10152281693496
20
14.505208099803614
30
0
10
-17.193753620575983
20
14.395641265560641
30
0
10
-17.277614630920159
20
14.286052178849765
30
0
10
-17.388649551409031
20
14.126144665582883
30
0
10
-17.556877267104174
20
13.854747891521564
30
0
10
-17.793532072133857
20
13.445325172449326
30
0
10
-18.093753376405132
20
12.903932369917207
30
0
10
-18.441748344649657
20
12.258080391519739
30
0
10
-18.815030392564797
20
11.549025817840487
30
0
10
-19.189096270391953
20
10.822519708971118
30
0
10
-19.541785132465748
20
10.120462982242906
30
0
10
-19.858077900837444
20
9.4716026012164107
30
0
10
-20.133818397924969
20
8.8843089608796912
30
0
10
-20.372735733237487
20
8.3519045670984919
30
0
10
-20.584196956390958
20
7.856630328971753
30
0
10
-20.780696878912419
20
7.3741051338537513
30
0
10
-20.975431977651056
20
6.8776182100550116
30
0
10
-21.179911784650734
20
6.3423755352933453
30
0
10
-21.401358675828902
20
5.7500754520797024
30
0
10
-21.643105190306681
20
5.0887332084671115
30
0
10
-21.905288411682985
20
4.3520343571941789
30
0
10
-22.18543445959428
20
3.5388611498032683
30
0
10
-22.47908862342203
20
2.6527519253591518
30
0
10
-22.780420806960542
20
1.7013891536673651
30
0
10
-23.082848160511812
20
0.69608799219872375
30
0
10
-23.37963139237635
20
-0.34873412105963275
30
0
10
-23.664525879817482
20
-1.4160245336414456
30
0
10
-23.932271779890417
20
-2.4867530700517788
30
0
10
-24.178589530033221
20
-3.5411701760120113
30
0
10
-24.400260502248639
20
-4.5599568960657306
30
0
10
-24.595176658926519
20
-5.5254254645583076
30
0
10
-24.762400375197331
20
-6.4226813746115905
30
0
10
-24.902230002655941
20
-7.2408456862091626
30
0
10
-25.016242676517471
20
-7.9741575882481168
30
0
10
-25.107397443302464
20
-8.6233573565393939
30
0
10
-25.17999747735319
20
-9.1964258358512296
30
0
10
-25.240009593777181
20
-9.7109517829872853
30
0
10
-25.293556350090359
20
-10.188131347741775
30
0
10
-25.344861526636436
20
-10.644153516934146
30
0
10
-25.394116164665419
20
-11.081453756176385
30
0
10
-25.435948034819219
20
-11.482205846299969
30
0
10
-25.456207442261931
20
-11.795403051894095
30
0
10
-25.435730246841914
20
-11.950640601015818
30
0
10
-25.358138363767733
20
-11.887436160420723
30
0
10
-25.21765312112041
20
-11.584445182917946
30
0
10
-25.018424678707976
20
-11.057161893044938
30
0
10
-24.771300759490277
20
-10.346062084025608
30
0
10
-24.491489352158268
20
-9.5080853721827161
30
0
10
-24.195855247325611
20
-8.6067487530391045
30
0
10
-23.900362657066168
20
-7.7028084695673193
30
0
10
-23.617486074850532
20
-6.8447978824210587
30
0
10
-23.353547280302195
20
-6.0593050932582742
30
0
10
-23.10977102678121
20
-5.354590661389139
30
0
10
-22.883450204672794
20
-4.7245997788510321
30
0
10
-22.669072494035056
20
-4.152833750520398
30
0
10
-22.459449171317026
20
-3.6162338799026923
30
0
10
-22.246868510626484
20
-3.0891421744120469
30
0
10
-22.024174253160286
20
-2.5470186940379143
30
0
10
-21.786041001397528
20
-1.9707991751950775
30
0
10
-21.529084184095186
20
-1.347458617797779
30
0
10
-21.251605525252746
20
-0.66938897668638464
30
0
10
-20.953460772283286
20
0.065827161011492358
30
0
10
-20.635878623527578
20
0.85579716385314231
30
0
10
-20.301299309990789
20
1.6936453593965335
30
0
10
-19.953211416325367
20
2.5683209217284029
30
0
10
-19.595976983207123
20
3.4650012216794499
30
0
10
-19.234697417937912
20
4.3652126404435982
30
0
10
-18.874803792315589
20
5.2488647056579651
30
0
10
-18.52154793129116
20
6.0970219764674214
30
0
10
-18.179564333837121
20
6.8940778533864409
30
0
10
-17.852318682563027
20
7.6309601804522664
30
0
10
-17.541796788017884
20
8.3060985575089425
30
0
10
-17.247641879632422
20
8.9315395649089542
30
0
10
-16.967569596522274
20
9.5271162438530581
30
0
10
-16.694727492472378
20
10.143179147854553
30
0
10
-16.424145726222203
20
10.798157149466412
30
0
10
-16.156002797624897
20
11.463622703307543
30
0
10
-15.894215111035999
20
12.093494762605042
30
0
10
-15.646802762553493
20
12.635010198744192
30
0
10
-15.425709089846846
20
13.04882198192988
30
0
10
-15.246368026046094
20
13.32202569947488
30
0
10
-15.12863177822859
20
13.492267040164341
30
0
10
-15.090468597495047
20
13.624699501301738
30
0
10
-15.137650962305722
20
13.764532246410081
30
0
10
-15.255514403361001
20
13.900948148262369
30
0
10
-15.418882987018232
20
14.011154149578125
30
0
10
-15.601878774766544
20
14.105226756404004
30
0
10
-15.782619906399686
20
14.206525738241345
30
0
10
-15.915102787178139
20
14.297075163908993
30
0
10
-16.007122087605218
20
14.361559546110874
30
0
10
-16.066627311867272
20
14.400854994766393
30
0
10
-16.096194027682426
20
14.419487313446409
30
0
0
SPLINE
5
136
100
AcDbEntity
8
0
100
AcDbSpline
70
1064
71
5
72
101
73
95
74
0
42
0.000000001
43
0.0000000001
44
0.0000000001
40
0
40
0
40
0
40
0
40
0
40
0
40
0.011111111111111112
40
0.022222222222222223
40
0.033333333333333333
40
0.044444444444444446
40
0.055555555555555559
40
0.066666666666666666
40
0.077777777777777779
40
0.088888888888888892
40
0.10000000000000001
40
0.11111111111111112
40
0.12222222222222223
40
0.13333333333333333
40
0.14444444444444443
40
0.15555555555555553
40
0.16666666666666663
40
0.17777777777777773
40
0.18888888888888883
40
0.19999999999999993
40
0.21111111111111103
40
0.22222222222222213
40
0.23333333333333323
40
0.24444444444444433
40
0.25555555555555542
40
0.26666666666666655
40
0.27777777777777768
40
0.28888888888888881
40
0.29999999999999993
40
0.31111111111111106
40
0.32222222222222219
40
0.33333333333333331
40
0.34444444444444444
40
0.35555555555555557
40
0.3666666666666667
40
0.37777777777777782
40
0.38888888888888895
40
0.40000000000000008
40
0.4111111111111112
40
0.42222222222222233
40
0.43333333333333346
40
0.44444444444444459
40
0.45555555555555571
40
0.46666666666666684
40
0.47777777777777797
40
0.48888888888888909
40
0.50000000000000022
40
0.51111111111111129
40
0.52222222222222237
40
0.53333333333333344
40
0.54444444444444451
40
0.55555555555555558
40
0.56666666666666665
40
0.57777777777777772
40
0.5888888888888888
40
0.59999999999999987
40
0.61111111111111094
40
0.62222222222222201
40
0.63333333333333308
40
0.64444444444444415
40
0.65555555555555522
40
0.6666666666666663
40
0.67777777777777737
40
0.68888888888888844
40
0.69999999999999951
40
0.71111111111111058
40
0.72222222222222165
40
0.73333333333333273
40
0.7444444444444438
40
0.75555555555555487
40
0.76666666666666594
40
0.77777777777777701
40
0.78888888888888808
40
0.79999999999999916
40
0.81111111111111023
40
0.8222222222222213
40
0.83333333333333237
40
0.84444444444444344
40
0.85555555555555451
40
0.86666666666666559
40
0.87777777777777666
40
0.88888888888888773
40
0.8999999999999988
40
0.91111111111110987
40
0.92222222222222094
40
0.93333333333333202
40
0.94444444444444309
40
0.95555555555555416
40
0.96666666666666523
40
0.9777777777777763
40
0.98888888888888737
40
1
40
1
40
1
40
1
40
1
40
1
10
-10.513688240909227
20
16.574604535895759
30
0
10
-10.5630333646899
20
16.58621089766514
30
0
10
-10.659683376932765
20
16.606911674071142
30
0
10
-10.79766228836791
20
16.629728047681311
30
0
10
-10.969233048447473
20
16.645429670079984
30
0
10
-11.176483227921443
20
16.652901841781471
30
0
10
-11.385004620562933
20
16.655669571314064
30
0
10
-11.580393476641621
20
16.640103990513357
30
0
10
-11.738485430618503
20
16.582487707110094
30
0
10
-11.844529486628577
20
16.465232074647389
30
0
10
-11.907938003250871
20
16.289278808191831
30
0
10
-11.949547079422551
20
16.063451607330386
30
0
10
-11.988561446329147
20
15.793256934151309
30
0
10
-12.03512669695424
20
15.475330239719627
30
0
10
-12.093960129301999
20
15.102712907269471
30
0
10
-12.165471481055652
20
14.667747916849525
30
0
10
-12.24781549085729
20
14.165711216380929
30
0
10
-12.338739080461615
20
13.598704500185361
30
0
10
-12.43594414581419
20
12.974822886719757
30
0
10
-12.536990691741199
20
12.306131769928694
30
0
10
-12.639364927497871
20
11.607070246821685
30
0
10
-12.740476943600012
20
10.892661078672292
30
0
10
-12.837690239357221
20
10.176843286505257
30
0
10
-12.928333629895958
20
9.4706621267129556
30
0
10
-13.00972976704511
20
8.7807279231312254
30
0
10
-13.079193597569096
20
8.1070254734470097
30
0
10
-13.134159229176014
20
7.4436700992383562
30
0
10
-13.172373189016053
20
6.7812055085984042
30
0
10
-13.192067488032603
20
6.1084197848897173
30
0
10
-13.192141095377018
20
5.4143567819355898
30
0
10
-13.172339252589957
20
4.6902492150243731
30
0
10
-13.13343243192972
20
3.931473440071469
30
0
10
-13.077401041129345
20
3.1395293234274608
30
0
10
-13.007607584957023
20
2.3239401873033172
30
0
10
-12.929005803578539
20
1.5043958518320741
30
0
10
-12.847444013029888
20
0.70686925543044055
30
0
10
-12.768925714438641
20
-0.040551386102767879
30
0
10
-12.698890297782555
20
-0.71169633238091556
30
0
10
-12.641475478473861
20
-1.2864678139474042
30
0
10
-12.598808544998912
20
-1.754802190888026
30
0
10
-12.570232685255254
20
-2.1210576372053809
30
0
10
-12.551679062647775
20
-2.4074402652547096
30
0
10
-12.53465422442633
20
-2.6599548241712982
30
0
10
-12.509474440365342
20
-2.9267564815459406
30
0
10
-12.468884173706101
20
-3.2341993043056005
30
0
10
-12.411725005110227
20
-3.56210635921471
30
0
10
-12.346071235060121
20
-3.8237555308147453
30
0
10
-12.283630443183821
20
-3.9222322454822516
30
0
10
-12.234760359065149
20
-3.8008961312332961
30
0
10
-12.203071296180214
20
-3.4988967605111054
30
0
10
-12.186992863535382
20
-3.1080512858531288
30
0
10
-12.181496897869987
20
-2.7288722680682471
30
0
10
-12.179816265652736
20
-2.4229624385960387
30
0
10
-12.175009542075088
20
-2.1785363918091463
30
0
10
-12.160754282469766
20
-1.9449324019667049
30
0
10
-12.132160082846401
20
-1.6559879323856539
30
0
10
-12.086760821576215
20
-1.2619262331119343
30
0
10
-12.024764107109206
20
-0.742531127427696
30
0
10
-11.948285311055656
20
-0.098186315704211283
30
0
10
-11.860836583250249
20
0.65368017253903643
30
0
10
-11.766715608906297
20
1.4843068817901366
30
0
10
-11.670433936845368
20
2.3584057624931249
30
0
10
-11.576138374504133
20
3.2392826980610607
30
0
10
-11.487012566351989
20
4.0939788805639115
30
0
10
-11.404739673203485
20
4.8980321699103637
30
0
10
-11.328798845312249
20
5.6413796685112025
30
0
10
-11.25686689644211
20
6.3265334407381513
30
0
10
-11.1855031290734
20
6.9647755993255478
30
0
10
-11.11073339830863
20
7.5730500289156062
30
0
10
-11.028683632878044
20
8.1705335489105462
30
0
10
-10.936173958789295
20
8.7754268759712488
30
0
10
-10.831372259989525
20
9.4014669384137033
30
0
10
-10.714324864142956
20
10.054986860429548
30
0
10
-10.587786765427916
20
10.730660614236333
30
0
10
-10.456872668173443
20
11.412416442401796
30
0
10
-10.327794146480255
20
12.078358703878074
30
0
10
-10.206856127889125
20
12.704544456064855
30
0
10
-10.099358522615988
20
13.26919398048827
30
0
10
-10.008511485593397
20
13.756795488499785
30
0
10
-9.9344047090398018
20
14.162075447066712
30
0
10
-9.8728047912578489
20
14.494473335642329
30
0
10
-9.8144438386159791
20
14.781152353117919
30
0
10
-9.7499190989949334
20
15.053451518504417
30
0
10
-9.674177651826664
20
15.334474701303215
30
0
10
-9.5911848338058014
20
15.626356314044347
30
0
10
-9.5184467858097417
20
15.89746286124231
30
0
10
-9.4799044768210319
20
16.108674964992723
30
0
10
-9.4993206512954522
20
16.235206042389368
30
0
10
-9.5927706677410693
20
16.298683895793292
30
0
10
-9.7638347157713987
20
16.35215522420582
30
0
10
-9.9969205888496226
20
16.424951594364224
30
0
10
-10.207271604921672
20
16.491849605609342
30
0
10
-10.363612634248714
20
16.537273503454848
30
0
10
-10.464343117128546
20
16.562998174126378
30
0
10
-10.513688240909227
20
16.574604535895759
30
0
0
SPLINE
5
137
100
AcDbEntity
8
0
100
AcDbSpline
70
1064
71
5
72
76
73
70
74
0
42
0.000000001
43
0.0000000001
44
0.0000000001
40
0
40
0
40
0
40
0
40
0
40
0
40
0.015384615384615385
40
0.030769230769230771
40
0.046153846153846156
40
0.061538461538461542
40
0.076923076923076927
40
0.092307692307692313
40
0.1076923076923077
40
0.12307692307692308
40
0.13846153846153847
40
0.15384615384615385
40
0.16923076923076924
40
0.18461538461538463
40
0.20000000000000001
40
0.2153846153846154
40
0.23076923076923078
40
0.24615384615384617
40
0.26153846153846155
40
0.27692307692307694
40
0.29230769230769232
40
0.30769230769230771
40
0.32307692307692309
40
0.33846153846153848
40
0.35384615384615387
40
0.36923076923076925
40
0.38461538461538464
40
0.40000000000000002
40
0.41538461538461541
40
0.43076923076923079
40
0.44615384615384618
40
0.46153846153846156
40
0.47692307692307695
40
0.49230769230769234
40
0.50769230769230766
40
0.52307692307692299
40
0.53846153846153832
40
0.55384615384615365
40
0.56923076923076898
40
0.58461538461538431
40
0.59999999999999964
40
0.61538461538461497
40
0.6307692307692303
40
0.64615384615384563
40
0.66153846153846096
40
0.67692307692307629
40
0.69230769230769162
40
0.70769230769230695
40
0.72307692307692228
40
0.73846153846153761
40
0.75384615384615294
40
0.76923076923076827
40
0.7846153846153836
40
0.79999999999999893
40
0.81538461538461426
40
0.83076923076922959
40
0.84615384615384492
40
0.86153846153846025
40
0.87692307692307558
40
0.89230769230769091
40
0.90769230769230624
40
0.92307692307692157
40
0.9384615384615369
40
0.95384615384615223
40
0.96923076923076756
40
0.98461538461538289
40
1
40
1
40
1
40
1
40
1
40
1
10
-7.7541873146353391
20
29.365640624395873
30
0
10
-7.7887497798717975
20
29.347875816019069
30
0
10
-7.8592536993816653
20
29.310221416319365
30
0
10
-7.9683096145542729
20
29.248752345205553
30
0
10
-8.1137826479134123
20
29.165006664921567
30
0
10
-8.2713793875549175
20
29.078984836046601
30
0
10
-8.3803251304305064
20
29.021376134987523
30
0
10
-8.4238940316433695
20
28.979451068931855
30
0
10
-8.4014574166375393
20
28.90123603972804
30
0
10
-8.324665303026288
20
28.732874846211288
30
0
10
-8.2119367748676648
20
28.442843718927232
30
0
10
-8.0851160191235358
20
28.086546590679859
30
0
10
-7.9581453658517534
20
27.708077675047853
30
0
10
-7.8385794450094508
20
27.329905702369352
30
0
10
-7.7290383342945637
20
26.963249477025599
30
0
10
-7.6286019275043992
20
26.6089763577558
30
0
10
-7.5342118416391557
20
26.262547290553631
30
0
10
-7.4420997656427055
20
25.917301633357383
30
0
10
-7.3491220801078958
20
25.56822870094841
30
0
10
-7.2543463687529002
20
25.216116260212726
30
0
10
-7.1587051884732897
20
24.866476909488924
30
0
10
-7.0642588164327025
20
24.527329627332133
30
0
10
-6.9735954260464457
20
24.207387886485986
30
0
10
-6.8891742781593477
20
23.914076574144335
30
0
10
-6.8126944102947053
20
23.651625943084497
30
0
10
-6.744449189301168
20
23.419116760217456
30
0
10
-6.6826894777348702
20
23.208562673713541
30
0
10
-6.6246725530285042
20
23.009652806591603
30
0
10
-6.5677614365991026
20
22.814733484941499
30
0
10
-6.5104117031872892
20
22.62325777780854
30
0
10
-6.4534259271825611
20
22.447511660300364
30
0
10
-6.4004135751803473
20
22.314568358249538
30
0
10
-6.354849324530508
20
22.252346944795125
30
0
10
-6.3179086284741857
20
22.279111421496076
30
0
10
-6.2853934702007921
20
22.389237595922054
30
0
10
-6.2502746194550349
20
22.561479499223719
30
0
10
-6.2058456929446448
20
22.769990983604757
30
0
10
-6.1493365990337079
20
22.996402220128701
30
0
10
-6.0827455081611177
20
23.233669890977033
30
0
10
-6.0108402205665854
20
23.481359428094869
30
0
10
-5.9399416626700994
20
23.743307679635294
30
0
10
-5.8764089986680199
20
24.024358147227698
30
0
10
-5.8252086283677524
20
24.327400690034182
30
0
10
-5.7885732044367622
20
24.650552143785937
30
0
10
-5.7666744612934329
20
24.988664683244956
30
0
10
-5.7581600891636056
20
25.33453976749535
30
0
10
-5.7607345416142328
20
25.680230677113865
30
0
10
-5.771731321864273
20
26.018352447435031
30
0
10
-5.7886596856127612
20
26.343279389531542
30
0
10
-5.8098305956503307
20
26.65265840795
30
0
10
-5.8347245932207841
20
26.947915565031629
30
0
10
-5.8637842942741489
20
27.23248507783989
30
0
10
-5.8983204183640598
20
27.510528276370465
30
0
10
-5.9403842159551274
20
27.785409279686746
30
0
10
-5.9926319430662467
20
28.058388631395292
30
0
10
-6.0582503787195421
20
28.326944972918611
30
0
10
-6.1406769620259425
20
28.584123725169299
30
0
10
-6.2426819698981717
20
28.820911508703716
30
0
10
-6.3655760660733094
20
29.028058285970761
30
0
10
-6.5083383972795197
20
29.198151781142279
30
0
10
-6.6668397015097502
20
29.327504038319159
30
0
10
-6.8328396714979949
20
29.418351198853255
30
0
10
-6.9969298571080678
20
29.476306382154959
30
0
10
-7.1519940331196548
20
29.507286862667943
30
0
10
-7.296057356586557
20
29.514976225363743
30
0
10
-7.4364821964392434
20
29.497188210730506
30
0
10
-7.5552338941073662
20
29.459156291119911
30
0
10
-7.6518789079629057
20
29.416810266580136
30
0
10
-7.7196248493988762
20
29.383405432772669
30
0
10
-7.7541873146353391
20
29.365640624395873
30
0
0
SPLINE
5
138
100
AcDbEntity
8
0
100
AcDbSpline
70
1064
71
5
72
86
73
80
74
0
42
0.000000001
43
0.0000000001
44
0.0000000001
40
0
40
0
40
0
40
0
40
0
40
0
40
0.013333333333333334
40
0.026666666666666668
40
0.040000000000000001
40
0.053333333333333337
40
0.066666666666666666
40
0.080000000000000002
40
0.093333333333333338
40
0.10666666666666667
40
0.12000000000000001
40
0.13333333333333333
40
0.14666666666666667
40
0.16
40
0.17333333333333334
40
0.18666666666666668
40
0.20000000000000001
40
0.21333333333333335
40
0.22666666666666668
40
0.24000000000000002
40
0.25333333333333335
40
0.26666666666666666
40
0.27999999999999997
40
0.29333333333333328
40
0.30666666666666659
40
0.3199999999999999
40
0.3333333333333332
40
0.34666666666666651
40
0.35999999999999982
40
0.37333333333333313
40
0.38666666666666644
40
0.39999999999999974
40
0.41333333333333305
40
0.42666666666666636
40
0.43999999999999967
40
0.45333333333333298
40
0.46666666666666629
40
0.47999999999999959
40
0.4933333333333329
40
0.50666666666666627
40
0.51999999999999957
40
0.53333333333333288
40
0.54666666666666619
40
0.5599999999999995
40
0.57333333333333281
40
0.58666666666666611
40
0.59999999999999942
40
0.61333333333333273
40
0.62666666666666604
40
0.63999999999999935
40
0.65333333333333266
40
0.66666666666666596
40
0.67999999999999927
40
0.69333333333333258
40
0.70666666666666589
40
0.7199999999999992
40
0.7333333333333325
40
0.74666666666666581
40
0.75999999999999912
40
0.77333333333333243
40
0.78666666666666574
40
0.79999999999999905
40
0.81333333333333235
40
0.82666666666666566
40
0.83999999999999897
40
0.85333333333333228
40
0.86666666666666559
40
0.87999999999999889
40
0.8933333333333322
40
0.90666666666666551
40
0.91999999999999882
40
0.93333333333333213
40
0.94666666666666544
40
0.95999999999999874
40
0.97333333333333205
40
0.98666666666666536
40
1
40
1
40
1
40
1
40
1
40
1
10
-4.0660239736968684
20
36.034383118017601
30
0
10
-4.0695199480895994
20
36.010417521632078
30
0
10
-4.0735315459108632
20
35.958941824223125
30
0
10
-4.0702119543867141
20
35.870469668371825
30
0
10
-4.0468231809323685
20
35.729177911873101
30
0
10
-3.9899830534140355
20
35.517713282349106
30
0
10
-3.9126330017918449
20
35.27923780353342
30
0
10
-3.823232075430818
20
35.023012045964919
30
0
10
-3.73004210072299
20
34.757585613067519
30
0
10
-3.6391953388346221
20
34.488077976320568
30
0
10
-3.5540795222514019
20
34.215561996685622
30
0
10
-3.4761189372911181
20
33.938675826614315
30
0
10
-3.4051838325258621
20
33.654647412172281
30
0
10
-3.3401446468905664
20
33.360537575259556
30
0
10
-3.2793735600302121
20
33.054432468317614
30
0
10
-3.2212426844775601
20
32.736557174665222
30
0
10
-3.1646841748815815
20
32.410670112445118
30
0
10
-3.1095312462586082
20
32.084564222704799
30
0
10
-3.0562144551103638
20
31.767998273424574
30
0
10
-3.005574981890105
20
31.471074407640785
30
0
10
-2.9586324474752237
20
31.202479923069998
30
0
10
-2.9163718573967463
20
30.967695122569296
30
0
10
-2.8795236601918055
20
30.76742313688429
30
0
10
-2.8483432410618854
20
30.595414326727358
30
0
10
-2.8224022366467096
20
30.438060289041999
30
0
10
-2.8004893462593805
20
30.28067428130591
30
0
10
-2.7804523206018179
20
30.113255127553423
30
0
10
-2.7591486260619975
20
29.935477524851159
30
0
10
-2.7321336049212648
20
29.764443028959576
30
0
10
-2.694482070061877
20
29.629861877533415
30
0
10
-2.6424163640423619
20
29.560586418520263
30
0
10
-2.5745490569259761
20
29.574736839362114
30
0
10
-2.4936425119415735
20
29.665903264517077
30
0
10
-2.4053396619876759
20
29.810209947355474
30
0
10
-2.3161718304936616
20
29.978209214881378
30
0
10
-2.2318952336948725
20
30.144644574811089
30
0
10
-2.1554814142184848
20
30.300350254552981
30
0
10
-2.0876601055998072
20
30.448871413285644
30
0
10
-2.0277976255917594
20
30.601089816722595
30
0
10
-1.9746298402277851
20
30.770716682208587
30
0
10
-1.9271159966353226
20
30.969053531872817
30
0
10
-1.8850560096946187
20
31.201196965981204
30
0
10
-1.8488180510259358
20
31.467693946440015
30
0
10
-1.8191932063657066
20
31.765417378128106
30
0
10
-1.7972024606239221
20
32.088731303225977
30
0
10
-1.7839214819798221
20
32.430549246516385
30
0
10
-1.7803044216504769
20
32.783389090624034
30
0
10
-1.7869921556350556
20
33.14054186814716
30
0
10
-1.804177205565326
20
33.496831271319017
30
0
10
-1.8316360043996034
20
33.848167437041766
30
0
10
-1.868731064366008
20
34.191321019748933
30
0
10
-1.9144230964676636
20
34.523609003990408
30
0
10
-1.967281510666151
20
34.84262423368623
30
0
10
-2.0254876872858656
20
35.145934534627102
30
0
10
-2.0868580445181331
20
35.430823273425787
30
0
10
-2.1488167296223604
20
35.693944183835946
30
0
10
-2.2085181353543342
20
35.931222431124311
30
0
10
-2.2635765335419062
20
36.138728726786759
30
0
10
-2.3126757257087238
20
36.313374189812023
30
0
10
-2.3562831148631984
20
36.453739050101873
30
0
10
-2.3971912323487823
20
36.560701542714241
30
0
10
-2.4414720292763796
20
36.63852736120468
30
0
10
-2.496825975668524
20
36.693157686912208
30
0
10
-2.5704264073561345
20
36.730079705122229
30
0
10
-2.6666538245190257
20
36.751795949237078
30
0
10
-2.7863053802610853
20
36.758132500549713
30
0
10
-2.9267211387831429
20
36.747991715844542
30
0
10
-3.0814446254557537
20
36.720743883279702
30
0
10
-3.2405536330478335
20
36.677484124148172
30
0
10
-3.3933442446071256
20
36.620641274796085
30
0
10
-3.5308132680535422
20
36.553882293450712
30
0
10
-3.647989603696014
20
36.481814672265159
30
0
10
-3.7469267183395694
20
36.409997206822531
30
0
10
-3.8332375886457593
20
36.342731102016245
30
0
10
-3.9120495827771418
20
36.280846251506205
30
0
10
-3.9835026157422737
20
36.218908102788717
30
0
10
-4.0290521323936463
20
36.159307016582439
30
0
10
-4.0525556995544676
20
36.102735402536183
30
0
10
-4.0625279993041366
20
36.058348714403131
30
0
10
-4.0660239736968684
20
36.034383118017601
30
0
0
SPLINE
5
139
100
AcDbEntity
8
0
100
AcDbSpline
70
1064
71
5
72
111
73
105
74
0
42
0.000000001
43
0.0000000001
44
0.0000000001
40
0
40
0
40
0
40
0
40
0
40
0
40
0.01
40
0.02
40
0.029999999999999999
40
0.040000000000000001
40
0.050000000000000003
40
0.060000000000000005
40
0.070000000000000007
40
0.080000000000000002
40
0.089999999999999997
40
0.099999999999999992
40
0.10999999999999999
40
0.11999999999999998
40
0.12999999999999998
40
0.13999999999999999
40
0.14999999999999999
40
0.16
40
0.17000000000000001
40
0.18000000000000002
40
0.19000000000000003
40
0.20000000000000004
40
0.21000000000000005
40
0.22000000000000006
40
0.23000000000000007
40
0.24000000000000007
40
0.25000000000000006
40
0.26000000000000006
40
0.27000000000000007
40
0.28000000000000008
40
0.29000000000000009
40
0.3000000000000001
40
0.31000000000000011
40
0.32000000000000012
40
0.33000000000000013
40
0.34000000000000014
40
0.35000000000000014
40
0.36000000000000015
40
0.37000000000000016
40
0.38000000000000017
40
0.39000000000000018
40
0.40000000000000019
40
0.4100000000000002
40
0.42000000000000021
40
0.43000000000000022
40
0.44000000000000022
40
0.45000000000000023
40
0.46000000000000024
40
0.47000000000000025
40
0.48000000000000026
40
0.49000000000000027
40
0.50000000000000022
40
0.51000000000000023
40
0.52000000000000024
40
0.53000000000000025
40
0.54000000000000026
40
0.55000000000000027
40
0.56000000000000028
40
0.57000000000000028
40
0.58000000000000029
40
0.5900000000000003
40
0.60000000000000031
40
0.61000000000000032
40
0.62000000000000033
40
0.63000000000000034
40
0.64000000000000035
40
0.65000000000000036
40
0.66000000000000036
40
0.67000000000000037
40
0.68000000000000038
40
0.69000000000000039
40
0.7000000000000004
40
0.71000000000000041
40
0.72000000000000042
40
0.73000000000000043
40
0.74000000000000044
40
0.75000000000000044
40
0.76000000000000045
40
0.77000000000000046
40
0.78000000000000047
40
0.79000000000000048
40
0.80000000000000049
40
0.8100000000000005
40
0.82000000000000051
40
0.83000000000000052
40
0.84000000000000052
40
0.85000000000000053
40
0.86000000000000054
40
0.87000000000000055
40
0.88000000000000056
40
0.89000000000000057
40
0.90000000000000058
40
0.91000000000000059
40
0.9200000000000006
40
0.9300000000000006
40
0.94000000000000061
40
0.95000000000000062
40
0.96000000000000063
40
0.97000000000000064
40
0.98000000000000065
40
0.99000000000000066
40
1
40
1
40
1
40
1
40
1
40
1
10
1.08003643684773
20
44.57942491369775
30
0
10
1.0559317386102316
20
44.578427269368632
30
0
10
1.0082102550162872
20
44.576142214616034
30
0
10
0.93843000429272905
20
44.571999299037337
30
0
10
0.84999523338226268
20
44.565355775092435
30
0
10
0.74805884600521055
20
44.554918747242439
30
0
10
0.65427370957835596
20
44.541540561460295
30
0
10
0.56701474916929584
20
44.524336162234306
30
0
10
0.48360390667191455
20
44.502895136867686
30
0
10
0.40163499472679765
20
44.476722120561021
30
0
10
0.32021341134892922
20
44.444678280228736
30
0
10
0.24158295425423043
20
44.404250478106604
30
0
10
0.17144086601448974
20
44.351448077520502
30
0
10
0.1160971207110085
20
44.28223671577981
30
0
10
0.080484861327975304
20
44.193547111442292
30
0
10
0.065342329481269473
20
44.084715185591079
30
0
10
0.067793588336012137
20
43.957108287906649
30
0
10
0.08301324330309888
20
43.813167166211649
30
0
10
0.10550160888145892
20
43.655661379939772
30
0
10
0.13059994799614305
20
43.486806551112835
30
0
10
0.15567365558084145
20
43.307585660445334
30
0
10
0.17954444208038084
20
43.118178523992221
30
0
10
0.20209873749701468
20
42.918279689987777
30
0
10
0.22383739098077518
20
42.707452282511397
30
0
10
0.24543307258971578
20
42.485480873507086
30
0
10
0.26732606662391933
20
42.252691127802031
30
0
10
0.28919989652958478
20
42.010368310034316
30
0
10
0.30995838296238359
20
41.760767908428633
30
0
10
0.32808531646717992
20
41.50681620187035
30
0
10
0.34189082820418415
20
41.251901844145252
30
0
10
0.34980809562612769
20
40.999629402391299
30
0
10
0.35065962716124727
20
40.75359158817065
30
0
10
0.3439574820399513
20
40.517128416743155
30
0
10
0.33014101600926332
20
40.293103715844907
30
0
10
0.31096395273804694
20
40.083644065864817
30
0
10
0.28923127713920899
20
39.890033800889952
30
0
10
0.26814080217558328
20
39.712693750053148
30
0
10
0.25076532819922431
20
39.551146187215863
30
0
10
0.23943331352337974
20
39.403957820664139
30
0
10
0.23525322953259573
20
39.268754240965286
30
0
10
0.23732511079117496
20
39.142046856208005
30
0
10
0.24314514086887346
20
39.019800851306876
30
0
10
0.2499726310500292
20
38.898605632093336
30
0
10
0.25592217818521129
20
38.776672788256185
30
0
10
0.26116836534294469
20
38.654906740782771
30
0
10
0.26910975041535373
20
38.537948911154849
30
0
10
0.28404965293867646
20
38.431415203419597
30
0
10
0.30868166076267289
20
38.338898309501552
30
0
10
0.34194619185707698
20
38.259434414820589
30
0
10
0.37596672406828963
20
38.183809187400605
30
0
10
0.40043096664405275
20
38.100230146110285
30
0
10
0.40783449976412689
20
38.0010464866779
30
0
10
0.39916649812261262
20
37.890111708664904
30
0
10
0.38718723146513101
20
37.786855907910713
30
0
10
0.38875369348736322
20
37.715360793503933
30
0
10
0.41941644497409347
20
37.696637863015809
30
0
10
0.48579400295054054
20
37.737610130438867
30
0
10
0.58554003340955219
20
37.831672512999418
30
0
10
0.71094160217736846
20
37.964822397921239
30
0
10
0.85142494933928603
20
38.120126745613568
30
0
10
0.99644137924244358
20
38.282735971589752
30
0
10
1.1383765435880899
20
38.445036735594655
30
0
10
1.2723166531113026
20
38.605496458257733
30
0
10
1.3955039566256215
20
38.766904991063583
30
0
10
1.5069083391960747
20
38.934841206096827
30
0
10
1.606750752981696
20
39.116044947658779
30
0
10
1.6960490921631879
20
39.316834837814696
30
0
10
1.7761533100601554
20
39.541496802103033
30
0
10
1.848290447038796
20
39.790710748624754
30
0
10
1.9135263468493773
20
40.062239336383627
30
0
10
1.9727224223809283
20
40.351585992283255
30
0
10
2.0264940206694608
20
40.652662826707726
30
0
10
2.0751681550144676
20
40.958452627984244
30
0
10
2.1187408774884227
20
41.261673635547467
30
0
10
2.1568356366704537
20
41.555440353282421
30
0
10
2.1886585411737074
20
41.83393185298933
30
0
10
2.2129604350534744
20
42.093044114754584
30
0
10
2.2279797412422435
20
42.331086912672085
30
0
10
2.2319602898263984
20
42.548260241745758
30
0
10
2.2237030224378325
20
42.746079020167983
30
0
10
2.2030848779007877
20
42.92682475085865
30
0
10
2.1716389600559967
20
43.092970587344809
30
0
10
2.1330009218856998
20
43.246654972252003
30
0
10
2.0936741176397247
20
43.389045919476324
30
0
10
2.062871104670255
20
43.52002239441213
30
0
10
2.04928753626091
20
43.638962048133564
30
0
10
2.0580924498236302
20
43.74539928777623
30
0
10
2.0883870100118291
20
43.839641210688782
30
0
10
2.1290785329006594
20
43.923633345742026
30
0
10
2.1625067597756695
20
44.00052944621131
30
0
10
2.1717387910723742
20
44.073631092568498
30
0
10
2.1470359517573447
20
44.145490008231071
30
0
10
2.0917523283104957
20
44.217040573601423
30
0
10
2.0158741115808625
20
44.287872832910615
30
0
10
1.9311080139050241
20
44.356433671679568
30
0
10
1.844290873259343
20
44.420190909341379
30
0
10
1.7554899406993294
20
44.476055588493352
30
0
10
1.6617774618542078
20
44.521213205485061
30
0
10
1.5593636372751196
20
44.553766714988569
30
0
10
1.4468635551718974
20
44.573643979285066
30
0
10
1.3264519310518332
20
44.582742580684624
30
0
10
1.2270099110930568
20
44.583663101268101
30
0
10
1.1528384444412743
20
44.58212808059082
30
0
10
1.104141135085227
20
44.580422558026875
30
0
10
1.08003643684773
20
44.57942491369775
30
0
0
SPLINE
5
140
100
AcDbEntity
8
0
100
AcDbSpline
70
1064
71
5
72
86
73
80
74
0
42
0.000000001
43
0.0000000001
44
0.0000000001
40
0
40
0
40
0
40
0
40
0
40
0
40
0.013333333333333334
40
0.026666666666666668
40
0.040000000000000001
40
0.053333333333333337
40
0.066666666666666666
40
0.080000000000000002
40
0.093333333333333338
40
0.10666666666666667
40
0.12000000000000001
40
0.13333333333333333
40
0.14666666666666667
40
0.16
40
0.17333333333333334
40
0.18666666666666668
40
0.20000000000000001
40
0.21333333333333335
40
0.22666666666666668
40
0.24000000000000002
40
0.25333333333333335
40
0.26666666666666666
40
0.27999999999999997
40
0.29333333333333328
40
0.30666666666666659
40
0.3199999999999999
40
0.3333333333333332
40
0.34666666666666651
40
0.35999999999999982
40
0.37333333333333313
40
0.38666666666666644
40
0.39999999999999974
40
0.41333333333333305
40
0.42666666666666636
40
0.43999999999999967
40
0.45333333333333298
40
0.46666666666666629
40
0.47999999999999959
40
0.4933333333333329
40
0.50666666666666627
40
0.51999999999999957
40
0.53333333333333288
40
0.54666666666666619
40
0.5599999999999995
40
0.57333333333333281
40
0.58666666666666611
40
0.59999999999999942
40
0.61333333333333273
40
0.62666666666666604
40
0.63999999999999935
40
0.65333333333333266
40
0.66666666666666596
40
0.67999999999999927
40
0.69333333333333258
40
0.70666666666666589
40
0.7199999999999992
40
0.7333333333333325
40
0.74666666666666581
40
0.75999999999999912
40
0.77333333333333243
40
0.78666666666666574
40
0.79999999999999905
40
0.81333333333333235
40
0.82666666666666566
40
0.83999999999999897
40
0.85333333333333228
40
0.86666666666666559
40
0.87999999999999889
40
0.8933333333333322
40
0.90666666666666551
40
0.91999999999999882
40
0.93333333333333213
40
0.94666666666666544
40
0.95999999999999874
40
0.97333333333333205
40
0.98666666666666536
40
1
40
1
40
1
40
1
40
1
40
1
10
-11.703939767942888
20
51.962009002523295
30
0
10
-11.711644761272094
20
51.953208193048717
30
0
10
-11.724255670175815
20
51.933613703608643
30
0
10
-11.73506865282949
20
51.898042496345084
30
0
10
-11.735322988602931
20
51.838048477166538
30
0
10
-11.719452120503778
20
51.743873741859119
30
0
10
-11.694984543569813
20
51.633831184128539
30
0
10
-11.667780874455854
20
51.512103842917114
30
0
10
-11.63950037404399
20
51.382969354606871
30
0
10
-11.608154047721007
20
51.250506011103255
30
0
10
-11.56977497630486
20
51.118476103176434
30
0
10
-11.519721061569957
20
50.99015095798292
30
0
10
-11.454128990020308
20
50.868159894326617
30
0
10
-11.37130584977626
20
50.754327851157754
30
0
10
-11.273143811045848
20
50.649517828772723
30
0
10
-11.163946089150699
20
50.553886210454607
30
0
10
-11.049278283317792
20
50.467134936891973
30
0
10
-10.934793993073285
20
50.388767855200328
30
0
10
-10.825112558161639
20
50.318336467283984
30
0
10
-10.7225770034948
20
50.255710220906465
30
0
10
-10.626342931257275
20
50.201277872612977
30
0
10
-10.533744166318989
20
50.155673325510463
30
0
10
-10.441459450842101
20
50.119543866058564
30
0
10
-10.346680828889724
20
50.093315470660471
30
0
10
-10.248454169692472
20
50.076927846072834
30
0
10
-10.148420122353471
20
50.069677797537331
30
0
10
-10.049357451247221
20
50.070469941520635
30
0
10
-9.9539955595996723
20
50.0780102559116
30
0
10
-9.8638833055237178
20
50.091006371994482
30
0
10
-9.7778339642811538
20
50.108402661407794
30
0
10
-9.692398047529414
20
50.129427017697921
30
0
10
-9.6037163432770605
20
50.153512898506818
30
0
10
-9.508886042214316
20
50.180256566302461
30
0
10
-9.4076875241144062
20
50.209366038703863
30
0
10
-9.3036997746587762
20
50.240596854913271
30
0
10
-9.2021362781456855
20
50.273589879797981
30
0
10
-9.1079126943640336
20
50.307700256241475
30
0
10
-9.0238648790212075
20
50.341870960936753
30
0
10
-8.9483318613072598
20
50.374387842666636
30
0
10
-8.8749668906995112
20
50.403026730872291
30
0
10
-8.7966644503341946
20
50.42592414786548
30
0
10
-8.7084357025477406
20
50.442255745148202
30
0
10
-8.6109843044789045
20
50.453059544403345
30
0
10
-8.513196352610187
20
50.461808177881871
30
0
10
-8.4276815699606153
20
50.473281089828333
30
0
10
-8.3668580441475875
20
50.492582388415585
30
0
10
-8.3390435387781778
20
50.524133924229425
30
0
10
-8.3439892062674339
20
50.570599061086099
30
0
10
-8.3757735084121041
20
50.632955447894751
30
0
10
-8.4262228857609465
20
50.710712262407888
30
0
10
-8.4887085980763661
20
50.802041719776994
30
0
10
-8.5596863673802464
20
50.904062760688255
30
0
10
-8.6374719659199766
20
51.013268549896146
30
0
10
-8.7217519094510525
20
51.125915504498394
30
0
10
-8.8127908910120194
20
51.238430749607687
30
0
10
-8.9107822962527834
20
51.347803955072195
30
0
10
-9.015103833629988
20
51.452007630955272
30
0
10
-9.1245907004557658
20
51.549785689628408
30
0
10
-9.2378441354516028
20
51.640413727206649
30
0
10
-9.3535251654365368
20
51.723472133098767
30
0
10
-9.4706593957983713
20
51.798610203158418
30
0
10
-9.5889259092586769
20
51.865323911656908
30
0
10
-9.7089847072643138
20
51.922701943590525
30
0
10
-9.8321516904337525
20
51.969704352676295
30
0
10
-9.9600338026084465
20
52.005470146970694
30
0
10
-10.094174044631741
20
52.029626169746173
30
0
10
-10.235703620869874
20
52.042569798272524
30
0
10
-10.384963650696822
20
52.045826374160427
30
0
10
-10.541222120496151
20
52.042184052657618
30
0
10
-10.702770720343246
20
52.0349724116533
30
0
10
-10.866958247128714
20
52.027464424757717
30
0
10
-11.030256683764863
20
52.022246699990689
30
0
10
-11.188291604662787
20
52.020565245400476
30
0
10
-11.335935203184581
20
52.021768002905723
30
0
10
-11.467246235889339
20
52.022476576786588
30
0
10
-11.576325579145461
20
52.017412359744185
30
0
10
-11.642021027734168
20
52.00405393321013
30
0
10
-11.678025710200586
20
51.986418560456151
30
0
10
-11.696234774613682
20
51.970809811997903
30
0
10
-11.703939767942888
20
51.962009002523295
30
0
0
SPLINE
5
141
100
AcDbEntity
8
0
100
AcDbSpline
70
1064
71
5
72
66
73
60
74
0
42
0.000000001
43
0.0000000001
44
0.0000000001
40
0
40
0
40
0
40
0
40
0
40
0
40
0.018181818181818181
40
0.036363636363636362
40
0.054545454545454543
40
0.072727272727272724
40
0.090909090909090912
40
0.1090909090909091
40
0.12727272727272729
40
0.14545454545454548
40
0.16363636363636366
40
0.18181818181818185
40
0.20000000000000004
40
0.21818181818181823
40
0.23636363636363641
40
0.25454545454545457
40
0.27272727272727276
40
0.29090909090909095
40
0.30909090909090914
40
0.32727272727272733
40
0.34545454545454551
40
0.3636363636363637
40
0.38181818181818189
40
0.40000000000000008
40
0.41818181818181827
40
0.43636363636363645
40
0.45454545454545464
40
0.47272727272727283
40
0.49090909090909102
40
0.50909090909090915
40
0.52727272727272734
40
0.54545454545454553
40
0.56363636363636371
40
0.5818181818181819
40
0.60000000000000009
40
0.61818181818181828
40
0.63636363636363646
40
0.65454545454545465
40
0.67272727272727284
40
0.69090909090909103
40
0.70909090909090922
40
0.7272727272727274
40
0.74545454545454559
40
0.76363636363636378
40
0.78181818181818197
40
0.80000000000000016
40
0.81818181818181834
40
0.83636363636363653
40
0.85454545454545472
40
0.87272727272727291
40
0.89090909090909109
40
0.90909090909090928
40
0.92727272727272747
40
0.94545454545454566
40
0.96363636363636385
40
0.98181818181818203
40
1
40
1
40
1
40
1
40
1
40
1
10
-12.093110410739492
20
52.647287743099923
30
0
10
-12.135146538760061
20
52.617326481004703
30
0
10
-12.217376626127708
20
52.555635377451807
30
0
10
-12.334994203894619
20
52.45827370522391
30
0
10
-12.479569701704831
20
52.321571379325242
30
0
10
-12.638295802257316
20
52.147628012055023
30
0
10
-12.774258724827597
20
51.977631614696207
30
0
10
-12.887761127752917
20
51.814766324099473
30
0
10
-12.980811862604881
20
51.654765177652706
30
0
10
-13.056064016577301
20
51.487684223026847
30
0
10
-13.114734182876955
20
51.302761916759025
30
0
10
-13.154981804231607
20
51.092106261891168
30
0
10
-13.169721093509368
20
50.855413178195981
30
0
10
-13.148685729437279
20
50.59850218676543
30
0
10
-13.081199997953139
20
50.330967594434661
30
0
10
-12.958527410726461
20
50.064234968523927
30
0
10
-12.77680742039178
20
49.809243135253581
30
0
10
-12.538408426964381
20
49.574978665220719
30
0
10
-12.249901521779822
20
49.36872211131805
30
0
10
-11.920758711109176
20
49.195951263860245
30
0
10
-11.561717111998519
20
49.06036228598041
30
0
10
-11.183414380334417
20
48.963868249668167
30
0
10
-10.794603147197551
20
48.906522309438756
30
0
10
-10.401767099049831
20
48.886789782896116
30
0
10
-10.01005964065088
20
48.902174248177836
30
0
10
-9.6238753177530842
20
48.949740036634751
30
0
10
-9.2475773195950239
20
49.026681779423818
30
0
10
-8.8861389596020075
20
49.130857705807969
30
0
10
-8.5458670261714875
20
49.261375649216241
30
0
10
-8.2349643619787418
20
49.419052096439877
30
0
10
-7.9621609661068158
20
49.605251579441969
30
0
10
-7.7355164441903668
20
49.820875260801429
30
0
10
-7.5610722493575091
20
50.065212992592208
30
0
10
-7.4417547677019904
20
50.33503037317152
30
0
10
-7.3756867497444496
20
50.62310032586808
30
0
10
-7.3567925174565012
20
50.91889426373784
30
0
10
-7.3770710051806532
20
51.210837338603135
30
0
10
-7.4284819587755146
20
51.488214407125206
30
0
10
-7.5047634632387608
20
51.742983742708262
30
0
10
-7.6038388920654301
20
51.972220330418878
30
0
10
-7.727589909810276
20
52.177794662644089
30
0
10
-7.8794901954908934
20
52.363810449748165
30
0
10
-8.0628877080505461
20
52.534725292986153
30
0
10
-8.2789601814484524
20
52.693125841891117
30
0
10
-8.5249767742385227
20
52.837837910771093
30
0
10
-8.7955550834578062
20
52.965376623748888
30
0
10
-9.0837585987314924
20
53.071217653623954
30
0
10
-9.3822556028294564
20
53.151142942760373
30
0
10
-9.6844342791823799
20
53.202530291951518
30
0
10
-9.9855799338405919
20
53.225737250545244
30
0
10
-10.282482625420773
20
53.223106817041703
30
0
10
-10.572999255413635
20
53.197919391659198
30
0
10
-10.855625559803803
20
53.153322085738644
30
0
10
-11.129087077305718
20
53.09137209016783
30
0
10
-11.391867509741411
20
53.011759811255047
30
0
10
-11.642197929006175
20
52.91278460132186
30
0
10
-11.830962762173202
20
52.816847407977328
30
0
10
-11.965159858004256
20
52.735402950023001
30
0
10
-12.051074282718924
20
52.677249005195122
30
0
10
-12.093110410739492
20
52.647287743099923
30
0
0
SPLINE
5
142
100
AcDbEntity
8
0
100
AcDbSpline
70
1064
71
5
72
151
73
145
74
0
42
0.000000001
43
0.0000000001
44
0.0000000001
40
0
40
0
40
0
40
0
40
0
40
0
40
0.0071428571428571426
40
0.014285714285714285
40
0.021428571428571429
40
0.028571428571428571
40
0.035714285714285712
40
0.042857142857142858
40
0.050000000000000003
40
0.057142857142857148
40
0.064285714285714293
40
0.071428571428571438
40
0.078571428571428584
40
0.085714285714285729
40
0.092857142857142874
40
0.10000000000000002
40
0.10714285714285716
40
0.11428571428571431
40
0.12142857142857146
40
0.12857142857142859
40
0.13571428571428573
40
0.14285714285714288
40
0.15000000000000002
40
0.15714285714285717
40
0.16428571428571431
40
0.17142857142857146
40
0.1785714285714286
40
0.18571428571428575
40
0.19285714285714289
40
0.20000000000000004
40
0.20714285714285718
40
0.21428571428571433
40
0.22142857142857147
40
0.22857142857142862
40
0.23571428571428577
40
0.24285714285714291
40
0.25000000000000006
40
0.25714285714285717
40
0.26428571428571429
40
0.27142857142857141
40
0.27857142857142853
40
0.28571428571428564
40
0.29285714285714276
40
0.29999999999999988
40
0.307142857142857
40
0.31428571428571411
40
0.32142857142857123
40
0.32857142857142835
40
0.33571428571428547
40
0.34285714285714258
40
0.3499999999999997
40
0.35714285714285682
40
0.36428571428571394
40
0.37142857142857105
40
0.37857142857142817
40
0.38571428571428529
40
0.39285714285714241
40
0.39999999999999952
40
0.40714285714285664
40
0.41428571428571376
40
0.42142857142857088
40
0.42857142857142799
40
0.43571428571428511
40
0.44285714285714223
40
0.44999999999999934
40
0.45714285714285646
40
0.46428571428571358
40
0.4714285714285707
40
0.47857142857142781
40
0.48571428571428493
40
0.49285714285714205
40
0.49999999999999917
40
0.50714285714285634
40
0.51428571428571346
40
0.52142857142857058
40
0.52857142857142769
40
0.53571428571428481
40
0.54285714285714193
40
0.54999999999999905
40
0.55714285714285616
40
0.56428571428571328
40
0.5714285714285704
40
0.57857142857142752
40
0.58571428571428463
40
0.59285714285714175
40
0.59999999999999887
40
0.60714285714285599
40
0.6142857142857131
40
0.62142857142857022
40
0.62857142857142734
40
0.63571428571428445
40
0.64285714285714157
40
0.64999999999999869
40
0.65714285714285581
40
0.66428571428571292
40
0.67142857142857004
40
0.67857142857142716
40
0.68571428571428428
40
0.69285714285714139
40
0.69999999999999851
40
0.70714285714285563
40
0.71428571428571275
40
0.72142857142856986
40
0.72857142857142698
40
0.7357142857142841
40
0.74285714285714122
40
0.74999999999999833
40
0.75714285714285545
40
0.76428571428571257
40
0.77142857142856969
40
0.7785714285714268
40
0.78571428571428392
40
0.79285714285714104
40
0.79999999999999816
40
0.80714285714285527
40
0.81428571428571239
40
0.82142857142856951
40
0.82857142857142663
40
0.83571428571428374
40
0.84285714285714086
40
0.84999999999999798
40
0.8571428571428551
40
0.86428571428571221
40
0.87142857142856933
40
0.87857142857142645
40
0.88571428571428357
40
0.89285714285714068
40
0.8999999999999978
40
0.90714285714285492
40
0.91428571428571204
40
0.92142857142856915
40
0.92857142857142627
40
0.93571428571428339
40
0.94285714285714051
40
0.94999999999999762
40
0.95714285714285474
40
0.96428571428571186
40
0.97142857142856898
40
0.97857142857142609
40
0.98571428571428321
40
0.99285714285714033
40
1
40
1
40
1
40
1
40
1
40
1
10
-32.309816477266004
20
50.898088180383844
30
0
10
-32.323841324706095
20
50.901089574611603
30
0
10
-32.355064372247796
20
50.904691240020234
30
0
10
-32.412151153453458
20
50.902920839088559
30
0
10
-32.509586847859701
20
50.886980088989745
30
0
10
-32.661410895286018
20
50.848508360696172
30
0
10
-32.833459092498828
20
50.796648472586732
30
0
10
-33.014622844685427
20
50.736600164062367
30
0
10
-33.19594727225757
20
50.672423220011851
30
0
10
-33.372752415618656
20
50.606311520843846
30
0
10
-33.543174331202607
20
50.539091416115049
30
0
10
-33.707385390719693
20
50.47048963875941
30
0
10
-33.866513398111628
20
50.399499049264229
30
0
10
-34.021765830177351
20
50.324686221899654
30
0
10
-34.173279268743038
20
50.244563366306274
30
0
10
-34.319784343375133
20
50.157784865491038
30
0
10
-34.459232846985444
20
50.063140863340365
30
0
10
-34.589181909158768
20
49.959602458174118
30
0
10
-34.707273298614048
20
49.846345466064051
30
0
10
-34.81167976307519
20
49.722784742508061
30
0
10
-34.901543752395931
20
49.58860022836528
30
0
10
-34.976768824725546
20
49.443637856339286
30
0
10
-35.037840725102704
20
49.287818131321401
30
0
10
-35.085632870312246
20
49.121034747615624
30
0
10
-35.121228892656063
20
48.943073821320702
30
0
10
-35.145711662736517
20
48.753482301191227
30
0
10
-35.160124597784133
20
48.551709799301705
30
0
10
-35.165495759398546
20
48.337350679836931
30
0
10
-35.162841509235747
20
48.110354091437273
30
0
10
-35.153178551227946
20
47.871245928978155
30
0
10
-35.137532701996086
20
47.62134945708938
30
0
10
-35.116948307646631
20
47.362998288539785
30
0
10
-35.092499488288894
20
47.099776069907662
30
0
10
-35.065246893209988
20
46.836169740909661
30
0
10
-35.036191037863212
20
46.577192086825328
30
0
10
-35.006227565850452
20
46.328014393019188
30
0
10
-34.976100115848482
20
46.09359784270481
30
0
10
-34.946357755750455
20
45.878318654916058
30
0
10
-34.917302032442223
20
45.685611522233671
30
0
10
-34.888958448839659
20
45.517566273481201
30
0
10
-34.860975261218428
20
45.374681146176087
30
0
10
-34.832447654689851
20
45.255991346051239
30
0
10
-34.801682845701059
20
45.159031299790271
30
0
10
-34.766149121748555
20
45.080043838758186
30
0
10
-34.721945547185072
20
45.013633443680177
30
0
10
-34.665842605748466
20
44.955266431977151
30
0
10
-34.597437445307335
20
44.903801790838862
30
0
10
-34.522469718244928
20
44.865511504335778
30
0
10
-34.450651747659009
20
44.851240543720039
30
0
10
-34.390511242102676
20
44.869909813097266
30
0
10
-34.343754538636354
20
44.921291116658665
30
0
10
-34.305792372690775
20
44.99698493282569
30
0
10
-34.270155462327523
20
45.086508461233485
30
0
10
-34.232397716458784
20
45.182768242213484
30
0
10
-34.190839959485963
20
45.283085306103281
30
0
10
-34.145235487577324
20
45.387340791499035
30
0
10
-34.096138131608718
20
45.497091748396826
30
0
10
-34.043920751850024
20
45.614208075593652
30
0
10
-33.988560161458018
20
45.740535177842702
30
0
10
-33.929450008731521
20
45.877597561501801
30
0
10
-33.865228334033596
20
46.026309031082477
30
0
10
-33.79355059376833
20
46.186643621115415
30
0
10
-33.71103267217309
20
46.35743368489144
30
0
10
-33.613821637708071
20
46.536644693015646
30
0
10
-33.498073501899107
20
46.721575811358839
30
0
10
-33.360455866662491
20
46.909087533134652
30
0
10
-33.198666401565426
20
47.095821669540634
30
0
10
-33.011883372793854
20
47.27841500117718
30
0
10
-32.801400062369396
20
47.453739516880489
30
0
10
-32.570477501084866
20
47.619022353808873
30
0
10
-32.323676211720162
20
47.771884877440023
30
0
10
-32.066344522225407
20
47.91040590783701
30
0
10
-31.804041191255187
20
48.033175475019334
30
0
10
-31.541989531142306
20
48.139352033226992
30
0
10
-31.284510505267292
20
48.228720210226264
30
0
10
-31.034481873744909
20
48.301744312811678
30
0
10
-30.792744560578392
20
48.359634000804846
30
0
10
-30.557650459881547
20
48.404375626290189
30
0
10
-30.325870802833407
20
48.438451413827188
30
0
10
-30.093092608590865
20
48.464587389508907
30
0
10
-29.854763517293019
20
48.485487027004368
30
0
10
-29.60680217737729
20
48.50357873613121
30
0
10
-29.346355328088695
20
48.52073937522367
30
0
10
-29.072460865395119
20
48.538069874091221
30
0
10
-28.786935257948564
20
48.55554461734549
30
0
10
-28.494453569869354
20
48.572117842603895
30
0
10
-28.201774007991691
20
48.586320049281035
30
0
10
-27.917188488543378
20
48.596717444332135
30
0
10
-27.649887104495853
20
48.602440771609125
30
0
10
-27.409347186251001
20
48.603653454763567
30
0
10
-27.204741317833783
20
48.602118417565841
30
0
10
-27.044268594400016
20
48.601554205935535
30
0
10
-26.934685246201305
20
48.608496703773469
30
0
10
-26.880166719382785
20
48.631393873875453
30
0
10
-26.88078768288068
20
48.677970895653935
30
0
10
-26.93056895295399
20
48.752698979710729
30
0
10
-27.017385142654042
20
48.855337551791948
30
0
10
-27.126329750942769
20
48.981896765971612
30
0
10
-27.242382346566728
20
49.125017110127061
30
0
10
-27.353191563358102
20
49.27463999496333
30
0
10
-27.452234634276
20
49.418404118887281
30
0
10
-27.5381839041574
20
49.543458969275456
30
0
10
-27.613458827039914
20
49.638577581593637
30
0
10
-27.683057304462238
20
49.696107214065322
30
0
10
-27.753283012339303
20
49.714128002272886
30
0
10
-27.830480620636031
20
49.6981245637214
30
0
10
-27.919133260426918
20
49.65734714433961
30
0
10
-28.020067511663193
20
49.601611199772215
30
0
10
-28.128486383229987
20
49.53780689915466
30
0
10
-28.236752347711231
20
49.470612994190397
30
0
10
-28.337484951599844
20
49.403384317645717
30
0
10
-28.426293454105924
20
49.338910357945636
30
0
10
-28.505298132872781
20
49.280396532691555
30
0
10
-28.581195439939634
20
49.231005222554607
30
0
10
-28.662300633584771
20
49.193151582176512
30
0
10
-28.755669095450315
20
49.167771045933215
30
0
10
-28.865015923883995
20
49.153941036572625
30
0
10
-28.991590769197305
20
49.149741238857999
30
0
10
-29.134517253827646
20
49.152861957551757
30
0
10
-29.291337696374104
20
49.161375124265909
30
0
10
-29.45848966634918
20
49.174240050915813
30
0
10
-29.631903691083362
20
49.191134282187036
30
0
10
-29.80755897083079
20
49.212396305165392
30
0
10
-29.982078472232313
20
49.238928533180911
30
0
10
-30.153255896389716
20
49.272108411693985
30
0
10
-30.320746745426895
20
49.313719746867847
30
0
10
-30.485595323778636
20
49.365685285761217
30
0
10
-30.64951020445347
20
49.429755642107693
30
0
10
-30.814217701047703
20
49.507208713840136
30
0
10
-30.980802036418101
20
49.598554849819664
30
0
10
-31.14900512814501
20
49.703214858729659
30
0
10
-31.316677956393605
20
49.819280953135703
30
0
10
-31.480377165746813
20
49.943885370113222
30
0
10
-31.635845197791149
20
50.073507695705729
30
0
10
-31.778534027522291
20
50.204304527173164
30
0
10
-31.904112147663053
20
50.332431660923817
30
0
10
-32.008974414996743
20
50.454364263488429
30
0
10
-32.090757425219451
20
50.567233406435584
30
0
10
-32.149450451484952
20
50.668549148055384
30
0
10
-32.188743903248216
20
50.755844653223576
30
0
10
-32.216887365536948
20
50.826444366801596
30
0
10
-32.242388680149936
20
50.866843167839789
30
0
10
-32.270915287607252
20
50.886682874653701
30
0
10
-32.295791629825914
20
50.895086786156085
30
0
10
-32.309816477266004
20
50.898088180383844
30
0
0
SPLINE
5
143
100
AcDbEntity
8
0
100
AcDbSpline
70
1064
71
5
72
81
73
75
74
0
42
0.000000001
43
0.0000000001
44
0.0000000001
40
0
40
0
40
0
40
0
40
0
40
0
40
0.014285714285714285
40
0.028571428571428571
40
0.042857142857142858
40
0.057142857142857141
40
0.071428571428571425
40
0.085714285714285715
40
0.10000000000000001
40
0.1142857142857143
40
0.12857142857142859
40
0.14285714285714288
40
0.15714285714285717
40
0.17142857142857146
40
0.18571428571428575
40
0.20000000000000004
40
0.21428571428571433
40
0.22857142857142862
40
0.24285714285714291
40
0.25714285714285717
40
0.27142857142857146
40
0.28571428571428575
40
0.30000000000000004
40
0.31428571428571433
40
0.32857142857142863
40
0.34285714285714292
40
0.35714285714285721
40
0.3714285714285715
40
0.38571428571428579
40
0.40000000000000008
40
0.41428571428571437
40
0.42857142857142866
40
0.44285714285714295
40
0.45714285714285724
40
0.47142857142857153
40
0.48571428571428582
40
0.50000000000000011
40
0.51428571428571435
40
0.52857142857142858
40
0.54285714285714282
40
0.55714285714285705
40
0.57142857142857129
40
0.58571428571428552
40
0.59999999999999976
40
0.61428571428571399
40
0.62857142857142823
40
0.64285714285714246
40
0.6571428571428567
40
0.67142857142857093
40
0.68571428571428517
40
0.6999999999999994
40
0.71428571428571364
40
0.72857142857142787
40
0.74285714285714211
40
0.75714285714285634
40
0.77142857142857058
40
0.78571428571428481
40
0.79999999999999905
40
0.81428571428571328
40
0.82857142857142752
40
0.84285714285714175
40
0.85714285714285599
40
0.87142857142857022
40
0.88571428571428445
40
0.89999999999999869
40
0.91428571428571292
40
0.92857142857142716
40
0.94285714285714139
40
0.95714285714285563
40
0.97142857142856986
40
0.9857142857142841
40
1
40
1
40
1
40
1
40
1
40
1
10
-30.512731152877276
20
52.196560235578026
30
0
10
-30.526684966328219
20
52.187935983682308
30
0
10
-30.554917204082805
20
52.170967949472299
30
0
10
-30.598112521335764
20
52.14637765273104
30
0
10
-30.656511222002006
20
52.114915912507882
30
0
10
-30.727401057432495
20
52.075328053568846
30
0
10
-30.792169469034349
20
52.032435606602007
30
0
10
-30.846934123525116
20
51.983569370426864
30
0
10
-30.888570014476855
20
51.927268450105331
30
0
10
-30.915505661303424
20
51.864408380673261
30
0
10
-30.927551293012691
20
51.797644472055147
30
0
10
-30.925410822767461
20
51.730304038326089
30
0
10
-30.910300345597665
20
51.665463336163228
30
0
10
-30.883522558729773
20
51.604945738963401
30
0
10
-30.846062027664352
20
51.548356990682393
30
0
10
-30.798673355389369
20
51.493892801403398
30
0
10
-30.741970516346527
20
51.43913822880738
30
0
10
-30.676515994360571
20
51.381880840242609
30
0
10
-30.602908604966345
20
51.320889872629898
30
0
10
-30.521875585906169
20
51.256786762332844
30
0
10
-30.434307344871211
20
51.191600526562155
30
0
10
-30.341289838675888
20
51.128207400533142
30
0
10
-30.244133634686762
20
51.069822928382521
30
0
10
-30.144414787248266
20
51.019451347471126
30
0
10
-30.04398758291568
20
50.979402730007735
30
0
10
-29.945068053503135
20
50.950657266825708
30
0
10
-29.850046524529169
20
50.932799311848989
30
0
10
-29.76105412094709
20
50.924452730166479
30
0
10
-29.679607775437699
20
50.923573913954385
30
0
10
-29.60620083096185
20
50.927803477242804
30
0
10
-29.539965735239946
20
50.934788770848272
30
0
10
-29.478170064666415
20
50.942527453396771
30
0
10
-29.417302266870827
20
50.94962521002482
30
0
10
-29.354422891478333
20
50.955559139689527
30
0
10
-29.288352781458691
20
50.960912387588252
30
0
10
-29.221092477863387
20
50.96768602599947
30
0
10
-29.15867976807629
20
50.979395463612434
30
0
10
-29.108595776081657
20
50.999831772284523
30
0
10
-29.077435886221735
20
51.031907089244164
30
0
10
-29.068694407178356
20
51.076589310644081
30
0
10
-29.079945172319714
20
51.131482977526787
30
0
10
-29.104416359656604
20
51.191922695769783
30
0
10
-29.133801467719657
20
51.252789094213462
30
0
10
-29.160484528901872
20
51.309951586114586
30
0
10
-29.180386369665996
20
51.362160871489252
30
0
10
-29.194346666682094
20
51.411816821177247
30
0
10
-29.205966679628489
20
51.462992097512924
30
0
10
-29.22007966016292
20
51.519926359652423
30
0
10
-29.241056605583129
20
51.585434431792677
30
0
10
-29.270970739960852
20
51.659091628019588
30
0
10
-29.309855781819628
20
51.737978799505136
30
0
10
-29.356348345061601
20
51.817868750919175
30
0
10
-29.408202627009178
20
51.894295869112227
30
0
10
-29.462834274653321
20
51.96358225364331
30
0
10
-29.517906936466616
20
52.024105673054322
30
0
10
-29.57170705721304
20
52.07670251760851
30
0
10
-29.623116277351823
20
52.123549788787301
30
0
10
-29.671686100261866
20
52.167365739589968
30
0
10
-29.71765085831608
20
52.210540252349418
30
0
10
-29.762019288153748
20
52.254159713335973
30
0
10
-29.806465701960654
20
52.29752383035914
30
0
10
-29.852829825085209
20
52.338786669516438
30
0
10
-29.90266963355818
20
52.375367401798925
30
0
10
-29.956850955364413
20
52.404440715457376
30
0
10
-30.014974660802753
20
52.423420587586953
30
0
10
-30.075662015219446
20
52.430300788391691
30
0
10
-30.137247031797276
20
52.423925826708938
30
0
10
-30.19831845570506
20
52.404268581842658
30
0
10
-30.258369677085717
20
52.372746112225613
30
0
10
-30.318272143742711
20
52.332406766798599
30
0
10
-30.379549484753593
20
52.287061852380603
30
0
10
-30.430920503736949
20
52.249827983714425
30
0
10
-30.471194323377162
20
52.22271346084645
30
0
10
-30.498777339426333
20
52.20518448747373
30
0
10
-30.512731152877276
20
52.196560235578026
30
0
0
ENDSEC
0
SECTION
2
OBJECTS
0
DICTIONARY
5
C
100
AcDbDictionary
3
ACAD_GROUP
350
D
3
ACAD_MLINESTYLE
350
17
0
DICTIONARY
5
D
100
AcDbDictionary
0
DICTIONARY
5
1A
330
C
100
AcDbDictionary
0
DICTIONARY
5
17
100
AcDbDictionary
0
ENDSEC
0
EOF
