0
SECTION
2
HEADER
9
$INSUNITS
70
4
9
$ACADVER
1
AC1014
9
$HANDSEED
5
FFFF
0
ENDSEC
0
SECTION
2
TABLES
0
TABLE
2
VPORT
5
8
100
AcDbSymbolTable
0
ENDTAB
0
TABLE
2
LTYPE
5
5
100
AcDbSymbolTable
0
LTYPE
5
14
100
AcDbSymbolTableRecord
100
AcDbLinetypeTableRecord
2
BYBLOCK
70
0
0
LTYPE
5
15
100
AcDbSymbolTableRecord
100
AcDbLinetypeTableRecord
2
BYLAYER
70
0
0
ENDTAB
0
TABLE
2
LAYER
5
2
100
AcDbSymbolTable
70
2
0
LAYER
5
50
100
AcDbSymbolTableRecord
100
AcDbLayerTableRecord
2
0
70
0
6
CONTINUOUS
0
ENDTAB
0
TABLE
2
STYLE
5
3
100
AcDbSymbolTable
70
1
0
STYLE
5
11
100
AcDbSymbolTableRecord
100
AcDbTextStyleTableRecord
2
STANDARD
70
0
0
ENDTAB
0
TABLE
2
VIEW
5
6
100
AcDbSymbolTable
70
0
0
ENDTAB
0
TABLE
2
UCS
5
7
100
AcDbSymbolTable
70
0
0
ENDTAB
0
TABLE
2
APPID
5
9
100
AcDbSymbolTable
70
2
0
APPID
5
12
100
AcDbSymbolTableRecord
100
AcDbRegAppTableRecord
2
ACAD
70
0
0
ENDTAB
0
TABLE
2
DIMSTYLE
5
A
100
AcDbSymbolTable
70
1
0
ENDTAB
0
TABLE
2
BLOCK_RECORD
5
1
100
AcDbSymbolTable
70
1
0
BLOCK_RECORD
5
1F
100
AcDbSymbolTableRecord
100
AcDbBlockTableRecord
2
*MODEL_SPACE
0
BLOCK_RECORD
5
1B
100
AcDbSymbolTableRecord
100
AcDbBlockTableRecord
2
*PAPER_SPACE
0
ENDTAB
0
ENDSEC
0
SECTION
2
BLOCKS
0
BLOCK
5
20
100
AcDbEntity
100
AcDbBlockBegin
2
*MODEL_SPACE
0
ENDBLK
5
21
100
AcDbEntity
100
AcDbBlockEnd
0
BLOCK
5
1C
100
AcDbEntity
100
AcDbBlockBegin
2
*PAPER_SPACE
0
ENDBLK
5
1D
100
AcDbEntity
100
AcDbBlockEnd
0
ENDSEC
0
SECTION
2
ENTITIES
0
LINE
5
100
100
AcDbEntity
8
0
100
AcDbLine
10
-24.999999999999982
20
-239.99986289528661
30
0
11
-24.999999999999982
21
-240
31
0
0
LINE
5
101
100
AcDbEntity
8
0
100
AcDbLine
10
-24.999999999999982
20
-240
30
0
11
24.999999999999982
21
-240
31
0
0
LINE
5
102
100
AcDbEntity
8
0
100
AcDbLine
10
23.950425072526613
20
-240.12952219147365
30
0
11
23.950424778911984
21
-240.1296592958727
31
0
0
ARC
5
103
100
AcDbEntity
8
0
100
AcDbCircle
10
0
20
-240
30
0
40
24.999999999999982
100
AcDbArc
50
-180
51
0
0
LWPOLYLINE
5
104
100
AcDbEntity
8
0
100
AcDbPolyline
90
4
70
1
43
0.0
10
-83.799999999999983
20
11.200000000000001
10
-106.20000000000002
20
11.200000000000001
10
-106.20000000000002
20
-11.200000000000001
10
-83.799999999999983
20
-11.200000000000001
0
LINE
5
105
100
AcDbEntity
8
0
100
AcDbLine
10
-24.999999999999982
20
-239.99986289528661
30
0
11
-24.999999999999982
21
-146.39622258018821
31
0
0
SPLINE
5
106
100
AcDbEntity
8
0
100
AcDbSpline
70
1064
71
5
72
21
73
15
74
0
42
0.000000001
43
0.0000000001
44
0.0000000001
40
0
40
0
40
0
40
0
40
0
40
0
40
0.10000000000000001
40
0.20000000000000001
40
0.30000000000000004
40
0.40000000000000002
40
0.5
40
0.59999999999999998
40
0.69999999999999996
40
0.79999999999999993
40
0.89999999999999991
40
1
40
1
40
1
40
1
40
1
40
1
10
-24.999999999999982
20
-146.39622258018821
30
0
10
-25.013428202174982
20
-145.91484235200841
30
0
10
-25.062265515370044
20
-144.96094882823462
30
0
10
-25.201464728712818
20
-143.55670954889152
30
0
10
-25.52111543913955
20
-141.73846597685088
30
0
10
-26.158840660955388
20
-139.56173419647791
30
0
10
-27.054352186076365
20
-137.48899146353207
30
0
10
-28.226115498882809
20
-135.52768661491115
30
0
10
-29.679412626686425
20
-133.67995038052041
30
0
10
-31.398180271875667
20
-131.939302947437
30
0
10
-33.360221381474339
20
-130.29679019215914
30
0
10
-35.107461590055564
20
-129.05442543949823
30
0
10
-36.511283449993364
20
-128.16032538268672
30
0
10
-37.487990133054296
20
-127.58072735348532
30
0
10
-37.986550432348558
20
-127.29504574854003
30
0
0
ELLIPSE
5
107
100
AcDbEntity
8
0
100
AcDbEllipse
10
0
20
0
30
0
11
0
21
-134.19617882797178
31
0.0
40
0.89421324100315791
41
0.32209507368314516
42
5.9610902334964413
0
LINE
5
108
100
AcDbEntity
8
0
100
AcDbLine
10
24.999999999999982
20
-239.99986289528661
30
0
11
24.999999999999982
21
-146.39622258018821
31
0
0
SPLINE
5
109
100
AcDbEntity
8
0
100
AcDbSpline
70
1064
71
5
72
21
73
15
74
0
42
0.000000001
43
0.0000000001
44
0.0000000001
40
0
40
0
40
0
40
0
40
0
40
0
40
0.10000000000000001
40
0.20000000000000001
40
0.30000000000000004
40
0.40000000000000002
40
0.5
40
0.59999999999999998
40
0.69999999999999996
40
0.79999999999999993
40
0.89999999999999991
40
1
40
1
40
1
40
1
40
1
40
1
10
24.999999999999982
20
-146.39622258018821
30
0
10
25.013428202174982
20
-145.91484235200841
30
0
10
25.062265515370044
20
-144.96094882823462
30
0
10
25.201464728712818
20
-143.55670954889152
30
0
10
25.52111543913955
20
-141.73846597685088
30
0
10
26.158840660955388
20
-139.56173419647791
30
0
10
27.054352186076365
20
-137.48899146353207
30
0
10
28.226115498882809
20
-135.52768661491115
30
0
10
29.679412626686425
20
-133.67995038052041
30
0
10
31.398180271875667
20
-131.939302947437
30
0
10
33.360221381474339
20
-130.29679019215914
30
0
10
35.107461590055564
20
-129.05442543949823
30
0
10
36.511283449993364
20
-128.16032538268672
30
0
10
37.487990133054296
20
-127.58072735348532
30
0
10
37.986550432348558
20
-127.29504574854003
30
0
0
CIRCLE
5
110
100
AcDbEntity
8
0
100
AcDbCircle
10
0
20
-240
30
0
40
4.999999999999984
0
LWPOLYLINE
5
111
100
AcDbEntity
8
0
100
AcDbPolyline
90
4
70
1
43
0.0
10
-89.846219543231314
20
64.805385068802522
10
-70.447250498459894
20
53.605385068802519
10
-81.647250498459897
20
34.206416024031085
10
-101.04621954323133
20
45.406416024031095
0
LWPOLYLINE
5
112
100
AcDbEntity
8
0
100
AcDbPolyline
90
4
70
1
43
0.0
10
-39.121816819113135
20
90.160974415106807
10
-50.321816819113145
20
109.55994345987821
10
-69.720785863884601
20
98.35994345987821
10
-58.520785863884583
20
78.96097441510679
0
LWPOLYLINE
5
113
100
AcDbEntity
8
0
100
AcDbPolyline
90
4
70
1
43
0.0
10
11.199999999999967
20
126.20000000000002
10
-11.199999999999976
20
126.20000000000002
10
-11.199999999999976
20
103.79999999999998
10
11.199999999999967
20
103.79999999999998
0
LWPOLYLINE
5
114
100
AcDbEntity
8
0
100
AcDbPolyline
90
4
70
1
43
0.0
10
39.121816819113249
20
-90.160974415106736
10
58.520785863884711
20
-78.960974415106733
10
69.720785863884686
20
-98.35994345987821
10
50.321816819113245
20
-109.55994345987821
0
LWPOLYLINE
5
115
100
AcDbEntity
8
0
100
AcDbPolyline
90
4
70
1
43
0.0
10
89.846219543231427
20
-64.805385068802508
10
101.04621954323143
20
-45.40641602403106
10
81.647250498459982
20
-34.206416024031043
10
70.447250498459951
20
-53.605385068802455
0
LWPOLYLINE
5
116
100
AcDbEntity
8
0
100
AcDbPolyline
90
4
70
1
43
0.0
10
81.647249065307804
20
33.9054517151691
10
70.447249065307773
20
53.304420759940506
10
89.846218110079249
20
64.504420759940558
10
101.04621811007925
20
45.10545171516911
0
LWPOLYLINE
5
117
100
AcDbEntity
8
0
100
AcDbPolyline
90
4
70
1
43
0.0
10
58.52078500613203
20
79.307399829188924
10
69.720785006132033
20
98.7063688739604
10
50.321815961360585
20
109.90636887396042
10
39.121815961360589
20
90.507399829188927
0
LWPOLYLINE
5
118
100
AcDbEntity
8
0
100
AcDbPolyline
90
4
70
1
43
0.0
10
-101.04621954323133
20
-45.40641602403106
10
-89.846219543231314
20
-64.805385068802508
10
-70.447250498459908
20
-53.605385068802498
10
-81.647250498459911
20
-34.206416024031057
0
LWPOLYLINE
5
119
100
AcDbEntity
8
0
100
AcDbPolyline
90
4
70
1
43
0.0
10
-50.321816819113174
20
-109.55994345987821
10
-69.720785863884601
20
-98.359943459878252
10
-58.520785863884591
20
-78.96097441510679
10
-39.121816819113164
20
-90.160974415106807
0
LWPOLYLINE
5
120
100
AcDbEntity
8
0
100
AcDbPolyline
90
4
70
1
43
0.0
10
11.199999999999974
20
-126.20000000000002
10
-11.199999999999974
20
-126.20000000000002
10
-11.199999999999974
20
-103.79999999999998
10
11.199999999999974
20
-103.79999999999998
0
LWPOLYLINE
5
121
100
AcDbEntity
8
0
100
AcDbPolyline
90
4
70
1
43
0.0
10
106.20000000000002
20
-11.200000000000045
10
83.799999999999983
20
-11.200000000000045
10
83.799999999999983
20
11.199999999999974
10
106.20000000000002
20
11.199999999999957
0
ENDSEC
0
SECTION
2
OBJECTS
0
DICTIONARY
5
C
100
AcDbDictionary
3
ACAD_GROUP
350
D
3
ACAD_MLINESTYLE
350
17
0
DICTIONARY
5
D
100
AcDbDictionary
0
DICTIONARY
5
1A
330
C
100
AcDbDictionary
0
DICTIONARY
5
17
100
AcDbDictionary
0
ENDSEC
0
EOF
