<?xml version="1.0" standalone="yes"?>
<svg xmlns="http://www.w3.org/2000/svg" width="411" height="483">
<path style="fill:#000000; stroke:none;" d="M0 0L0 367C5.24558 366.209 9.79455 368.576 15 368.74C21.3133 368.939 27.6534 367.053 34 367C31.453 361.655 25.8446 357.664 20 356.39C14.5229 355.197 10.0032 356.723 7 351C12.9066 352.949 19.4503 352.631 25 355.377C31.1819 358.436 36.7299 365.137 44 365.208C61.6081 365.377 72.7126 345.136 83.9961 334.015C90.4384 327.665 97.7812 322.492 103 315C94.8578 316.512 86.9709 315.821 79 313.572C74.7647 312.377 69.4662 308.795 65 309.758C60.0861 310.817 56.4625 315.699 53 318.957C48.0518 323.613 42.2028 327.644 37 332C39.403 320.19 57.176 317.902 61 306C57.1054 305.099 53.0479 303.101 49 303.279C34.8825 303.897 28.645 317.601 19 325C20.2706 318.615 24.6904 313.373 30.0147 309.786C34.8798 306.509 40.0169 302.099 46 301.214C61.2829 298.952 74.6676 312.682 90 313C88.406 308.788 85.8386 303.553 82.3202 300.599C76.9237 296.067 72.3005 295.745 70 288C72.393 290.034 73.9423 293.253 76.5285 294.977C79.2282 296.777 82.2159 296.578 84.6103 299.148C89.1656 304.038 91.6062 313.186 100 312.667C106.864 312.244 113.453 305.47 118 301.003C123.351 295.746 128.619 291.754 136 290C133.571 287.729 128.628 281.571 136.008 282.408C141.769 283.061 144.971 288.206 149.285 291.262C152.899 293.822 164.627 297.611 168.998 296.883C171.566 296.456 173.874 294.375 176 293C175.266 288.101 173.022 284.479 171.023 280.039C168.718 274.921 168.897 270.119 161.999 269.229C154.993 268.325 149.361 272.748 142 271C145.8 269.421 150.013 269.253 154 268L154 266C149.83 263.189 145.27 260.843 142 257C148.164 258.554 154.309 262.047 160 264.896C163.028 266.411 166.368 268.683 169.907 267.381C174.646 265.638 175.675 259.453 180 257C178.389 262.045 174.339 265.86 173.073 271C170.911 279.774 177.752 291.133 186 293.805C192.004 295.749 194.301 294.401 199.981 292.757C201.264 292.385 203.035 292.126 203.824 293.542C205.607 296.742 200.126 300.191 198.588 302.285C195.992 305.82 196.176 310.805 196 315C199.942 313.791 202.82 312.282 207 313C204.75 318.369 199.741 323.301 198.647 329C197.778 333.532 199.615 345.136 206.015 344.353C208.864 344.004 211.585 341.823 214 340.424C220.735 336.525 226.148 332.22 232 327.132C234.513 324.948 238.206 323.799 240.397 321.352C244.918 316.3 239.462 307.652 243.579 302.05C247.105 297.253 255.603 295 257.403 289.207C260.331 279.781 253.874 276.684 246 274.427C243.301 273.654 239.833 272.279 237 272.903C233.563 273.66 231.522 277.187 228 277.729C225.611 278.097 223.18 276.837 221 276.052C215.652 274.127 210.115 272.429 205.049 269.81C203.617 269.07 200.839 267.743 202.037 265.684C204.791 260.952 213.502 265.729 217 266.921C220.475 268.106 224.321 269.288 228 268.427C231.149 267.691 233.757 265.512 237 265.1C242.501 264.4 248.424 266.885 254 267C250.158 256.216 232.798 253.218 223 250.421C215.581 248.304 207.923 246.093 201 242.63C197.227 240.742 193.323 236.943 189 236.603C185.368 236.316 181.702 238.017 178 237.946C172.672 237.843 167.315 235.258 162 236.561C155.116 238.249 150.428 242.825 143 243L143 241C149.681 240.653 155.079 236.819 161 234C158.941 231.771 156.766 230.155 153.999 228.824C152.081 227.901 150.085 227.249 148 226.823C131.592 223.477 131.92 244.26 122 252L121 249C126.525 245.805 127.037 240.302 129.825 235C131.748 231.343 134.656 228.37 137 225C127.128 227.346 121.071 234.342 116.312 243C112.086 250.689 108.539 260.075 99 262C101.525 259.143 104.718 256.943 107.062 253.91C111.574 248.071 115.083 239.77 118 233C108.249 234.739 105.014 242.917 96.9961 246.972C94.0144 248.48 90.2369 248 87 248C89.9863 244.95 93.5468 245.641 96.9606 243.397C100.358 241.164 102.607 237.546 106.015 235.249C110.772 232.043 116.832 230.205 122 227.666C126.809 225.303 132.914 224.707 136 220C133.259 219.069 131.896 218.181 130 216C134.236 217.159 137.889 219.392 142 220.799C145.502 221.996 149.382 221.783 153 222.46C158.688 223.524 164.179 225.697 170 225.961C173.249 226.108 176.853 226.284 180 225.352C183.747 224.242 186.868 221.341 191 221.978C196.993 222.902 201.666 228.155 207 230.673C216.903 235.348 229.33 238.554 240 241C237.629 237.617 232.439 233.617 233.801 229C235.419 223.514 250.022 216.081 242.566 209.743C239.544 207.175 235.224 208.513 232 209.88C224.958 212.865 217.242 220.292 210 214C220.9 213.993 228.884 208.297 239 205C232.064 200.341 224.936 200.812 217 202C225.028 194.478 248.98 200.867 247.567 213.999C246.786 221.262 232.869 225.705 237.333 233.815C239.562 237.864 250.406 246.025 254.999 246.597C264.596 247.793 258.634 236.468 256 233C262.269 235.959 262.298 239.815 263 246C270.577 240.419 271.115 235.356 268 227C269.054 228.052 269.932 228.789 270.628 230.138C275.577 239.738 266.465 241.81 264.367 250C262.94 255.573 268.82 265.258 269.996 271C270.433 273.135 270.438 276.671 272.013 278.342C274.21 280.672 278.002 277.623 280 276.444C283.38 274.451 286.897 272.568 288.836 268.985C290.474 265.957 290.143 261.948 292.564 259.323C296.812 254.716 300.409 261.873 305.015 259.914C307.351 258.92 309.234 256.745 310.996 254.995C315.64 250.385 323.417 243.544 325.102 237C326.129 233.011 324.176 228.09 324 224C314.914 224.22 309.903 231.55 302 235C306.631 229.064 313.203 225.673 319 221C312.225 216.935 303.537 218.465 296 217.91C289.739 217.448 285.352 215.981 279 217C284.847 211.351 290.07 215.073 297 215.826C304.608 216.653 311.64 215.318 319 218C315.78 211.807 308.311 211.363 303.043 207.363C296.56 202.44 295.239 195.088 287 192C296.378 190.195 298.657 200.283 304.326 205.468C308.825 209.583 316.321 211.968 322 214C320.991 205.379 320.125 196.059 314.471 189.039C310.775 184.452 305.449 181.357 301.004 177.561C297.835 174.855 294.986 170.056 290.961 168.657C285.239 166.67 277.182 169.457 271 168.572C264.064 167.579 254.911 164.437 248 165.698C243.58 166.505 239.195 168.755 235 170.319C225.922 173.706 215.857 177.283 208.001 183.029C202.737 186.879 199.156 192.195 194 196C197.015 191.115 201.219 186.945 204 182C194.424 182.126 183.815 182.555 175 186C179.59 180.21 185.192 181.158 191.961 180.949C200.076 180.699 209.877 179.99 217 176L217 174C213.06 172.16 209.31 169.299 205 168.394C195.075 166.309 183.841 170.846 174 171.829C169.081 172.321 163.771 170.667 159 171.829C153.953 173.058 150.068 177.228 145 178.269C139.939 179.308 135.832 175.322 131 174.823C128.108 174.524 125.461 175.977 123 177.312C108.701 185.071 95.9071 195.995 81 202.576C74.9454 205.249 70.7952 208.916 64 207C73.8665 203.368 88.6795 197.733 95 189C89.0981 188.951 82.8232 187.023 77.0039 188.558C68.5971 190.775 64.3438 197.49 55 193C59.0625 191.999 63.0893 191.35 67 189.792C71.2765 188.089 75.3486 185.384 80 184.84C85.9805 184.141 92.0149 186.802 98 186.867C104.876 186.942 116.684 179.887 120 174C111.572 173.434 104.446 172.569 96 173.127C92.1911 173.378 89.642 172.431 86 174C86 172.203 85.9857 172.479 85 171C94.6346 168.25 105.251 169.855 115 170.829C119.643 171.294 124.385 170.555 129 171.326C133.715 172.113 138.202 175.349 143 175.343C147.956 175.336 152.455 171.67 157 170.094C161.524 168.526 165.428 169.095 170 170C166.773 164.973 159.896 163.199 155 160C163.416 160.298 169.756 166.81 178 167.814C186.865 168.894 196.256 164.792 205.001 166.394C210.132 167.333 214.779 172.354 220 172.191C223.742 172.074 227.1 168.745 230 166.72C236.145 162.429 243.322 157.056 251 156.189C264.64 154.648 278.059 160.257 291 153C282.412 140.909 267.788 136.875 254 133.997C250.269 133.218 244.733 130.137 241 131.356C234.399 133.513 230.167 142.422 224 146C226.636 142.243 229.876 139.096 232 135C223.891 137.403 218.888 143.426 213 149C216.286 140.45 223.135 136.455 231 132.522C233.568 131.238 236.141 129.167 239 128.614C242.195 127.996 245.792 129.681 249 130C244.829 119.361 234.324 123.611 226 126.681C219.402 129.115 212.793 133.769 206 135.319C202.616 136.092 199.246 133.811 196 135.132C192.455 136.575 189.793 140.338 187 142.826C183.08 146.319 178.827 148.977 174 151C179.526 143.796 187.784 140.524 192 132C184.299 134.803 175.775 139.09 169.015 143.749C164.865 146.61 162.017 150.859 157 152C163.259 143.79 171.464 141.244 179 135C170.183 132.395 162.716 137.602 154 138C163.607 131.91 172.169 131.732 183 131.505C186.072 131.441 188.9 130.059 192 130.137C196.461 130.249 200.512 133.002 205 132.578C213.23 131.8 221.234 125.644 229 123C224.695 119.797 220.073 119.796 215 121C220.42 114.879 229.749 119.317 237 119.914C239.852 120.149 242.481 120.169 244.996 121.742C249.188 124.364 251.144 129.495 255.3 131.976C259.38 134.411 265.485 134.19 270 136.015C280.478 140.251 288.537 146.802 296.17 154.986C301.198 160.378 307.405 164.408 314 167.625C316.196 168.696 319.222 170.781 321.791 170.173C325.51 169.292 328.45 162.792 330.666 160C336 153.276 342.004 147.135 347.985 141C351.489 137.407 355.812 133.202 356.617 128C357.11 124.818 356.331 119.046 353.487 117.028C351.459 115.589 348.34 116.005 346 116C340.158 115.988 333.192 114.869 328 118.018C320.052 122.838 315.916 130.37 309 136C311.063 131.128 314.639 126.932 318.282 123.104C319.942 121.36 323.525 119.397 323.94 116.831C324.434 113.772 320.553 111.62 317.999 111.411C313.227 111.021 306.503 115.319 302 117C304.351 112.933 314.155 107.972 319 108.94C322.623 109.664 325.329 112.773 329 113.606C332.255 114.344 335.696 113.773 339 114C335.724 108.028 328.617 107.481 324 103C333.97 104.777 341.648 114.442 352 113C351.465 106.914 348.877 99.5406 343.815 95.7029C339.083 92.1162 331.664 91.7358 326 90.75C313.266 88.5334 299.943 85.2672 287 85C285.22 92.668 281.075 98.393 273 100C278.552 94.9172 283.795 93.4418 284 85C275.89 85.6409 269.618 89.0879 262 91C264.905 88.1465 269.01 85.5599 272.961 84.3781C275.929 83.4902 279.957 84.2008 282.386 81.9074C285.261 79.1924 282.652 72.7781 279.772 71.0278C277.062 69.3803 273.027 70 270 70C254.349 70 238.7 72.1585 224 77.6844C219.97 79.1991 211.349 85.3997 208 82C215.161 80.7234 221.047 76.0031 228 74C225.666 70.696 221.849 70.6906 218 71.3256C209.613 72.7096 200.989 76.185 193 79C197.49 73.3309 204.454 73.0794 211 71L211 69C207.83 68.0713 205.403 67.2833 203 65C212.856 66.4501 222.935 70.3577 233 70.2114C242.572 70.0723 253.733 66.3987 263 64C257.926 60.3801 248.25 56.9706 242 57.0193C237.24 57.0563 232.722 58.6143 228 59L228 57C234.093 56.7216 239.813 54.272 246 55.213C253.224 56.3115 259.542 60.7391 267 61.7106C272.52 62.4298 279.714 60.466 284.892 62.6034C291.276 65.2387 288.748 74.6415 294.228 77.9722C296.994 79.6537 300.918 78.8763 304 79.1698C313.352 80.0604 322.588 81 332 81C321.957 66.7517 303.278 56.5228 288 48.7562C281.972 45.6919 275.976 42.075 269 42.1844C250.207 42.4792 231.717 52.0169 213 51.8171C205.886 51.7412 199.055 47.588 192 47.24C184.072 46.849 176.839 55.2351 169 56.7261C165.537 57.3847 160.377 56.0201 158.028 59.4337C155.901 62.524 157 68.4197 157 72C154.213 69.2714 154.044 66.8267 154 63C150.594 63.4305 145.32 63.1725 142.39 65.0278C139.38 66.9338 138.318 70.2767 135 72C136.197 68.5491 137.563 64.095 141.185 62.4606C143.915 61.2288 147.169 61.6782 150 60.466C153.206 59.0931 155.815 56.6735 159 55.2778C162.137 53.9028 165.709 54.6248 168 52C162.495 53.0219 157.504 52.3864 152 52.5941C147.287 52.772 142.701 54.0446 138 54C153.176 44.0398 174.2 55.54 188 44C175.415 35.778 159.787 32.6214 145 35.5432C140.055 36.5203 135.693 39.4456 131 41.1759C123.761 43.8451 113.525 47.5161 108.993 54.0154C104.398 60.605 106.29 67.7523 104.606 74.9962C102.952 82.1087 96.3127 86.0694 95.3642 94C94.3877 102.165 99.6342 108.427 101 116C97.1964 113.013 95.5426 109.521 94 105C89.9944 111.334 88.2378 118.332 82.9066 123.985C75.8608 131.458 67.4812 134.883 61.814 144C57.1566 151.493 54.912 163.76 44 164C53.5322 154.441 59.6035 142.229 67 131C60.554 131.66 55.3236 135.831 49 136.787C39.384 138.241 28.7238 137 19 137C27.3669 131.478 37.5925 135.319 47 134.162C52.9743 133.428 58.1318 129.75 64 128.425C72.0116 126.617 79.2024 126.257 83 118C74.9577 119.017 67.1237 120 59 120C64.2201 115.109 73.3196 117.228 80 115.215C89.4298 112.372 93.9523 97.0383 92 88C84.9973 92.9361 80.443 104.068 72 106C76.7803 99.7032 83.9663 93.8206 86 86C76.1203 88.3026 65.1541 95.4147 55 95C59.6229 91.2716 64.6697 90.2939 70 88L62 82C65.9759 82.2062 69.1648 83.936 73 84.571C76.0714 85.0795 79.0164 84.0176 82 83.4599C88.0512 82.3288 96.4141 82.9185 100.059 76.946C102.911 72.2723 101.483 66.1438 102.189 61C102.768 56.781 105.184 53.1346 108.174 50.1852C117.315 41.1709 131.198 39.2812 142 33L142 31C130.596 27.8171 113.227 25.6312 103.104 33.5131C98.2511 37.2917 95.6559 44.5505 93.1782 50C90.8414 55.1396 88.3242 60.6289 86.6011 65.9992C84.9131 71.2599 85.5092 75.2872 80 78L82 65C75.6094 67.9872 65.4056 76.3524 59 70C67.5819 68.8434 78.6686 65.8768 80 56C75.0302 57.1832 70.0815 57 65 57L65 55C72.2441 54.4235 82.2592 53.4669 87.787 48.3658C95.6693 41.092 96.1734 30.843 108 28C105.572 24.4523 100.915 23.5102 97 22C103.052 18.1388 110.412 22.7495 117 24.2546C123.207 25.6728 129.728 25.4477 136 26.5833C143.762 27.9888 148.934 30.6312 157 30C150.552 22.2179 139.76 20.7722 133 14C141.626 13.8867 147.052 18.9901 154 23.2932C160.003 27.0109 167.947 30.3803 175 31C171.469 21.3185 168.757 14.1576 158 11C163.422 8.84076 167.142 11.4535 172 14C174.549 8.4567 171.517 5.45535 171 0L0 0z"/>
<path style="fill:#ffffff; stroke:none;" d="M170 1C172.171 5.81332 173.663 8.77344 172 14C167.69 10.959 163.308 8.62177 158 10C161.879 13.2428 166.253 14.883 169.507 19.0903C172.316 22.7222 173.018 26.999 175 31C168.286 29.9936 160.77 26.8622 155 23.2932C147.793 18.8354 141.992 13.4601 133 14C135.381 17.6039 139.367 18.1529 143 20.2091C147.897 22.9808 152.721 26.3617 157 30C148.62 30.3358 142.169 27.4789 134 26.0108C128.699 25.0582 123.244 25.4524 118 24.2546C111.266 22.7167 103.547 18.1616 97 21C100.256 24.1497 104.744 24.8503 108 28C95.9509 29.8178 95.3488 40.199 87.787 47.5563C82.0293 53.1583 72.6524 54.0117 65 55L65 57C70.0357 57 75.1468 57.4345 80 56C77.7271 65.4798 67.4913 68.2427 59 70C63.722 77.2556 76.9122 68.3661 82 65C81.1636 69.3248 80.3427 73.6037 80 78C86.1099 76.1613 85.0772 71.0993 86.9545 65.9854C90.2812 56.9229 94.1099 47.1915 99.2716 39.0008C108.143 24.9227 128.277 28.2752 142 31L142 33C130.222 37.897 112.598 42.0449 104.993 53.0146C99.3631 61.136 105.373 74.291 95.9807 80.142C91.2657 83.0793 79.5063 85.0089 74 84.4367C69.8438 84.0049 66.3147 82.1014 62 82C64.2904 84.8287 66.8374 86.2364 70 88C64.5553 89.741 58.8797 90.558 55 95C64.4091 95.834 77.202 89.3308 86 86C82.7703 93.63 75.7734 98.7169 72 106C79.5983 106.114 86.8554 93.1479 92 88C93.0712 97.8428 89.3061 112.112 79 115.215C73.2321 116.951 62.5985 114.907 59 120C67.1413 120 74.9822 119.494 83 118C76.8736 127.218 68.576 126.346 59 129.468C54.3878 130.971 50.3991 133.812 45.4244 134.112C36.7585 134.634 27.0357 132.133 19 136C22.4346 137.441 26.2976 137 30 137C36.9516 137 45.2579 138.223 52 136.366C57.1746 134.94 61.6709 131.947 67 131C60.9064 137.676 57.6147 145.489 52.8148 153C50.2704 156.981 46.7115 160.147 44 164C54.2825 165.538 57.2759 152.896 61.2099 146C70.3235 130.024 89.996 125.042 93 105C95.3108 109.334 96.4498 113.635 101 116C100.241 108.632 94.9786 102.739 95.4946 95C95.9954 87.4897 101.283 84.1664 103.991 77.9105C107.2 70.4964 104.023 62.2597 108.993 55.0038C113.233 48.8144 121.293 45.6447 128 42.7423C133.323 40.4387 139.34 37.0265 145 35.8495C160.864 32.5508 173.872 37.435 188 44C184.931 45.8077 181.673 48.0042 178.17 48.8411C164.932 52.0032 151.001 46.5987 138 53C141.269 55.0719 144.302 53.4356 148 53.0687C154.729 52.401 161.355 53.5821 168 52C165.189 54.1319 162.251 53.7152 159 54.8788C155.371 56.1777 152.557 58.999 149 60.4521C146.444 61.4965 143.702 60.9958 141.185 61.8974C137.155 63.3409 135.887 68.2996 135 72C139.104 70.7169 139.736 67.0735 143.213 65.0278C146.115 63.3204 150.707 63.6113 154 63C154.013 66.7688 153.648 69.8271 157 72C157 68.257 155.954 62.4823 158.603 59.4337C161.461 56.145 166.234 57.4423 170 56.7261C177.396 55.3193 184.617 47.1356 192 47.4622C198.667 47.7571 205.246 51.5127 212 51.892C218.157 52.2377 225.013 50.1981 231 48.8835C242.92 46.266 256.764 42.3701 268.985 42.4305C276.882 42.4696 284.285 47.1364 291 50.8611C306.045 59.2056 319.804 68.8122 332 81C322.933 81 314.01 80.0277 305 79.1698C301.489 78.8354 297.223 79.6956 294.228 77.3966C289.584 73.8329 291.311 65.0623 285.775 62.6034C280.778 60.3837 273.389 62.4126 268 61.7106C260.542 60.739 254.224 56.3143 247 55.213C240.403 54.2072 234.441 56.4384 228 57L228 59C233.341 58.7671 238.644 56.5335 244 57.1366C250.355 57.8521 256.604 61.6763 263 63C256.56 66.1524 249.005 66.951 242 68.2608C238.871 68.8459 235.635 70.1136 232.424 70.0224C222.509 69.7405 212.804 65.8549 203 65C204.988 67.8504 207.674 68.3003 211 69L211 71C204.765 72.4261 196.205 72.8874 193 79C202.451 76.9194 219.753 66.2729 228 74C220.839 75.2766 214.953 79.9969 208 82C208 83.7969 208.014 83.5214 209 85C227.26 76.515 244.673 70.8634 265 70.0386C271.028 69.794 285.915 69.1666 283.096 79.7747C282.118 83.4525 276.948 83.2585 274 83.8727C269.593 84.791 264.529 87.2475 262 91C269.486 89.9283 276.214 85.9891 284 85C283.543 93.3235 277.206 94.1833 273 100C281.527 99.056 285.807 93.0693 287 85C299.645 85.543 312.543 88.5817 325 90.75C330.755 91.7517 338.032 92.1801 342.907 95.7029C348.162 99.5009 351.072 106.807 352 113C341.549 113.38 334.31 104.056 324 103C327.444 108.049 334.894 109.045 339 114C336.033 113.673 332.931 114.24 330 113.602C326.253 112.786 323.598 109.831 320 108.77C315.023 107.302 303.678 112.178 302 117C306.635 115.76 313.343 111.283 317.998 111.789C320.272 112.035 323.645 114.161 323.218 116.831C322.855 119.099 319.772 120.72 318.282 122.209C314.381 126.11 310.4 130.615 309 136C313.526 133.561 315.497 128.914 319.184 125.464C326.769 118.368 332.87 115.999 343 116C345.77 116 349.254 115.495 351.867 116.603C356.872 118.726 357.389 126.802 355.228 131C349.981 141.193 338.722 149.13 331.463 158C328.968 161.049 325.712 168.35 321.791 169.557C319.541 170.249 316.94 168.558 315 167.624C310.018 165.226 305.208 162.304 301.001 158.699C293.181 151.999 287.37 144.147 278 139.262C274.182 137.272 270.17 135.409 266 134.289C262.876 133.45 259.011 133.603 256.174 131.976C251.971 129.567 250.131 124.369 245.985 121.742C241.156 118.682 233.528 119.639 228 118.679C225.375 118.223 222.726 117.05 220.019 117.32C217.34 117.588 216.247 118.866 215 121C220.144 120.059 223.976 120.852 229 122C222.18 125.636 212.754 131.45 205 132.286C200.613 132.76 196.419 130.143 192 130.056C179.011 129.799 165.869 131.449 154 137C161.659 140.123 170.459 132.972 179 135C170.686 139.853 161.692 142.962 157 152C162.204 152.082 164.98 147.343 169.015 144.44C176.003 139.411 184.392 136.003 192 132C189.837 135.024 187.735 138.185 184.946 140.676C181.035 144.168 176.439 146.198 174 151C183.083 148.377 187.499 141.342 195 136.422C198.913 133.855 203.64 136.526 208 135.033C219.864 130.973 239.964 114.552 249 130C245.765 129.452 242.315 127.837 239 128.321C236.055 128.751 233.579 130.684 231 132.023C223.072 136.14 215.405 139.694 213 149C219.724 144.762 224.37 138.335 232 135C229.219 138.653 225.942 141.829 224 146C231.252 143.172 234.494 133.801 241.576 131.556C244.866 130.513 250.647 133.515 254 134.199C268.696 137.197 280.243 142.332 291 153C281.72 156.782 272.974 157.397 263 156.961C257.173 156.705 251.748 155.184 246 157.105C239.836 159.165 234.282 163.033 229 166.72C226.111 168.736 222.806 172.015 219 171.612C213.702 171.051 209.547 166.568 204.004 166.115C195.183 165.394 185.702 169.428 177 167.47C169.481 165.777 162.928 159.022 155 160C159.492 164.167 165.68 165.546 170 170C164.575 168.491 160.333 168.382 155 170.464C151.152 171.966 147.264 174.927 143 174.942C138.545 174.958 134.372 172.056 130 171.326C119.255 169.531 107.156 169.354 96.4244 170.058C92.17 170.337 89.076 169.213 85 171L86 174C97.2763 171.012 108.611 173.702 120 174C115.636 179.128 104.987 186.698 98 186.725C91.9936 186.749 85.9882 183.886 80 184.554C71.9049 185.457 62.8491 190.513 55 193C63.497 198.805 70.1664 190.597 78.0008 188.558C83.3912 187.155 89.4847 188.985 95 189C87.3865 195.965 74.3655 204.493 64 206C69.1132 210.64 73.8194 206.41 79 203.9C91.7937 197.699 104.129 190.232 116 182.333C119.965 179.695 125.008 175.388 130 175.247C135.253 175.098 139.565 179.485 145 178.569C150.485 177.645 154.545 173.008 160 171.959C165.161 170.967 170.734 172.395 176 171.711C184.783 170.57 195.098 166.847 204.001 168.429C208.639 169.253 212.53 172.585 217 174L217 176C208.56 179.438 199.123 180.629 190 180.964C184.04 181.183 178.165 179.968 175 186C184.409 183.671 194.132 182.372 204 182C200.235 186.488 196.303 190.524 194 196C200.407 192.869 204.852 185.7 211 181.597C221.045 174.895 235.32 169.372 247 166.322C253.938 164.51 263.003 167.57 270 168.572C276.169 169.455 285.387 166.683 290.975 169.187C294.589 170.805 297.06 175.005 300.015 177.561C305.747 182.52 312.535 186.331 316.518 193C320.411 199.52 320.436 206.831 322 214C316.573 211.224 309.822 209.49 305.184 205.468C298.376 199.562 297.311 191.536 287 191C289.615 193.487 292.78 195.225 295.073 198.094C297.52 201.158 298.967 204.873 302.105 207.363C307.572 211.701 314.532 212.31 319 218C312.332 214.791 305.142 216.603 298 215.826C294.245 215.418 290.746 213.521 287 213.302C283.594 213.104 280.862 214.283 279 217C285.147 216.438 289.921 217.684 296 217.961C303.917 218.321 311.529 217.843 319 221C312.823 224.508 305.395 228.61 302 235C310.259 232.743 315.116 224.486 324 224C324.079 227.829 325.588 232.259 324.833 236C323.506 242.58 315.544 249.431 310.996 253.999C309.21 255.794 307.323 258.107 305.015 259.249C300.659 261.404 296.889 254.596 292.564 258.604C290.041 260.942 290.378 265.098 288.836 267.996C286.708 271.994 282.794 274.263 279 276.44C277.053 277.557 273.965 279.855 272.013 277.549C270.642 275.928 270.591 272.991 270.196 271C269.315 266.561 268.163 262.241 266.575 258C265.731 255.747 264.024 252.916 264.598 250.424C265.342 247.195 268.801 244.649 270.606 242C273.949 237.092 273.011 230.311 268 227C270.377 235.897 269.547 239.153 263 246C262.603 239.841 262.968 234.979 256 233C257.094 234.975 258.516 236.928 259.402 239.005C261.08 242.938 258.802 247.516 254.035 246.049C251.187 245.172 249.207 242.526 246.91 240.781C243.978 238.552 239.98 237.034 237.938 233.815C233.304 226.511 247.277 221.117 247.802 213.999C248.605 203.092 235.532 199.028 227 199.001C223.076 198.988 219.408 198.592 217 202C220.904 201.764 225.116 200.731 229 201.228C232.438 201.667 235.577 203.392 239 204C230.129 208.675 220.139 213.971 210 214C215.821 221.646 226.808 212.475 233 209.88C236.16 208.556 239.851 207.665 242.551 210.438C248.253 216.293 236.468 222.367 234.18 227C231.288 232.855 236.21 237.165 240 241C229.828 237.746 218.789 235.357 209 231.12C203.098 228.566 198.354 223.336 192 221.829C187.361 220.729 184.12 223.5 180 225.009C176.849 226.164 173.313 226.151 170 225.91C164.548 225.512 159.348 223.468 154 222.46C150.281 221.759 146.164 221.897 142.576 220.658C138.226 219.156 134.625 216.796 130 216C131.573 218.719 132.925 219.373 136 220C129.201 226.866 116.658 229.346 108.001 233.542C103.091 235.922 100.43 240.532 95.9853 243.397C92.6925 245.52 89.246 244.535 87 248C90.4985 248 94.771 248.618 97.9853 246.972C100.936 245.461 102.808 242.52 105.17 240.301C108.863 236.83 113.16 234.397 118 233C114.26 239.11 111.781 246.107 107.755 251.985C105.197 255.719 101.268 258.134 99 262C109.244 260.859 112.388 250.839 116.873 243C121.675 234.607 127.749 228.156 137 225C131.497 230.636 129.462 236.119 126.085 242.985C124.447 246.315 121.902 248.223 122 252C132.634 246.351 130.865 225.104 146 226.712C147.703 226.893 149.401 227.349 151 227.954C154.488 229.276 157.627 231.425 161 233C155.602 236.437 149.442 240.337 143 241L143 243C151.295 242.926 157.193 236.618 165 236.359C169.676 236.203 174.261 238.043 179 237.981C182.547 237.935 186.535 236.313 190 237.224C194.243 238.339 197.981 241.777 202 243.561C209.712 246.984 217.906 249.268 226 251.579C235.649 254.333 248.878 257.579 254 267C248.359 266.757 242.619 264.384 237 264.706C233.305 264.917 230.567 267.685 227 268.352C222.598 269.174 218.03 266.88 214 265.435C210.955 264.344 203.01 261.135 201.461 266.016C200.743 268.281 203.459 269.48 205.045 270.265C209.195 272.321 213.638 273.815 218 275.343C221.039 276.409 224.693 278.564 228 278.238C231.921 277.851 234.161 273.878 238 273.269C242.632 272.533 254.501 276.046 256.936 280.275C258.138 282.363 257.658 285.544 257.285 287.816C256.168 294.634 246.33 296.363 242.952 302.09C239.628 307.726 244.486 315.569 240.397 320.606C238.299 323.191 234.569 324.205 232 326.275C225.631 331.405 220.143 336.291 213 340.424C206.111 344.41 201.464 345.01 199.433 336C199.069 334.384 198.718 332.666 198.779 331C199.017 324.56 205.21 319.2 207 313C202.699 311.856 199.955 313.247 196 315C196.36 311.537 196.267 307.187 198.002 304.09C199.717 301.029 206.058 297.687 204.338 293.449C203.593 291.614 201.567 291.712 199.981 292.182C193.358 294.145 189.8 295.742 183.019 292.28C176.981 289.198 171.511 277.658 173.38 271C174.82 265.871 178.961 262.371 180 257C174.827 258.766 174.282 265.821 168.96 267.289C165.766 268.169 162.709 265.682 160 264.394C154.273 261.672 148.288 257.981 142 257C144.473 261.391 149.521 263.882 154 266L154 268L142 270C148.645 275.034 155.006 268.216 161.999 269.438C168.106 270.504 168.598 275.199 170.553 280C172.375 284.474 174.867 288.232 176 293C173.615 294.05 171.025 296.321 168.424 296.654C164.313 297.179 153.558 293.602 150.17 291.262C145.455 288.007 142.233 282.758 136.005 281.937C129.254 281.046 131.522 287.383 136 289C130.631 291.392 125.512 293.237 121 297.185C115.491 302.006 107.429 313.034 99 312.357C91.7564 311.774 89.326 303.764 85.3657 299.148C83.0392 296.436 80.1135 296.719 77.3287 294.977C74.3526 293.115 73.1275 289.761 70 288C71.4659 296.093 76.0327 296.199 81.5324 300.599C85.2412 303.566 87.7317 308.91 90 313C74.1496 312.309 60.178 297.873 44 301.39C38.7783 302.526 34.3426 306.216 30.0147 309.14C24.3842 312.943 19.7697 318.047 19 325C23.4054 322.763 25.0483 318.772 28.3758 315.325C33.2012 310.326 40.9443 304.649 48 303.622C52.323 302.993 56.7523 305.373 61 306C58.1082 311.417 51.968 316.763 47 320.366C42.0554 323.952 37.7456 325.361 37 332C39.5494 330.578 40.9578 328.466 43.2091 326.633C46.6805 323.806 50.6794 322.081 54 318.957C57.1882 315.957 60.5441 311.352 65 310.222C69.0967 309.183 74.1093 312.474 78 313.572C86.0466 315.843 94.8013 316.952 103 315C91.3819 326.855 79.1871 337.919 67.841 350.09C60.9251 357.508 55.3124 365.181 44.1698 365.058C37.3764 364.983 31.8037 358.251 26 355.377C20.437 352.623 13.0667 352.29 7 351C9.01252 357.372 14.7569 355.131 20 356.638C25.7101 358.28 30.6005 362.277 34 367C27.6485 367.018 21.3175 368.762 15 368.541C11.1402 368.406 6.94469 365.94 3.14815 366.501C0.58492 366.88 0.354007 368.88 0 371C5.37087 370.048 9.70042 371.538 15 372C12.6379 376.092 9.27552 379.411 8 384C14.6698 382.112 17.0936 375.205 23 371.988C29.8589 368.253 42.219 368.294 50 368C44.6921 375.358 36.8221 375.594 30.213 380.85C24.9228 385.058 23.0572 392.605 23 399C28.5271 395.631 28.0299 387.676 33.0579 383.39C37.7097 379.426 44.0459 378.653 49 375.2C61.2924 366.631 71.8294 355.573 84 347C84.4671 350.008 84.6148 353.087 85.5586 356C86.5736 359.132 88.9788 362.553 88.0725 365.985C87.1508 369.476 83.6135 371.41 80.9992 373.514C77.5404 376.297 74.5483 379.383 72 383C78.5177 383.613 81.0373 376.688 87 375C85.4395 377.974 84.4974 380.677 84 384C89.2547 380.962 92.3131 368.894 91.2978 363C89.9233 355.02 84.7128 349.758 90.6381 342.093C95.0124 336.435 102.504 332.892 108 328.384C117.412 320.665 125.77 308.652 138 305.145C145.288 303.055 154.78 308.891 162 310.333C168.265 311.585 174.338 306.367 179.945 307.927C183.504 308.918 184.643 312.898 185.655 316C188.311 324.14 189.572 331.531 188 340C179.797 333.958 169.852 313.647 157.04 323.434C155.387 324.696 153.998 326.314 152.8 328.004C148.89 333.521 149.186 341.97 142.956 345.583C135.527 349.891 118.101 347.428 115 357C124.848 354.312 133.943 351.075 144 349C142.127 354.103 137.762 360.335 132 361.44C128.941 362.026 126.03 360.261 123 360.069C117.394 359.715 105.637 364.381 104 370C109.7 368.646 114.375 364.533 120 363.408C124.96 362.416 129.991 364.935 135 363.566C144.324 361.019 148.08 349.299 150 341L152 341C154.149 345.513 160.909 348.824 161.268 353.96C161.416 356.083 159.874 358.166 159 360C173.584 355.67 154.553 343.313 153.106 337C151.864 331.579 158.442 323.279 164 323.488C170.356 323.728 175.131 330.299 178.329 335C185.231 345.143 193.408 357.121 183.581 368.895C177.346 376.366 165.292 375.315 160.274 385C157.465 390.421 163.456 394.902 163.972 400C164.288 403.119 162.236 405.896 162.333 409C162.593 417.267 174.298 421.485 178.039 427.843C180.032 431.23 178.82 437.013 180.429 441C182.053 445.023 186.024 451.748 180.941 455.045C177.462 457.301 168.826 451.602 166.318 449.211C163.863 446.871 164.392 442.987 161.682 440.938C157.609 437.859 151.639 439.618 147 438.61C140.923 437.288 136.297 432.947 130 432C131.723 435.042 134.577 436.53 137 439C133.058 439 127.627 439.771 124.318 437.142C120.111 433.801 120.925 422.677 126.059 420.603C129.258 419.311 133.619 420 137 420C145.312 420 155.001 421.364 163 419C157.538 416.708 149.887 418 144 418C139.669 418 135.33 418.083 131 417.985C127.984 417.917 124.075 416.831 121.514 418.933C117.77 422.005 117.653 435.753 120.828 439.258C123.197 441.872 129.723 441.817 133 441.961C140.963 442.309 145.916 442.65 153 446.72C156.442 448.697 161.457 451.179 160.508 455.985C159.411 461.541 153.343 460.998 149 461L128 461C125.043 461.001 121.022 460.418 118.434 462.177C116.393 463.565 116.253 465.781 116 468L95 468C98.1493 472.858 106.785 471 112 471C127.652 471 143.353 470.631 159 471.015C167.014 471.211 174.935 472 183 472C187.818 472 193.754 471.018 198.424 472.252C206.495 474.384 213.397 482.801 222 482.79C231.142 482.778 237.905 473.01 247 472.105C260.706 470.742 275.229 471.9 289 471.997C305.397 472.113 321.637 471 338 471C334.112 468.055 328.716 469 324 469L293 469C286.928 469 279.49 470.771 277 464C286.005 463.388 294.954 463 304 463C307.854 463 313.33 463.925 316.772 461.821C321.554 458.897 321.186 444.363 317.397 440.603C314.797 438.023 309.334 439 306 439C307.802 437.334 308.89 436.154 310 434C300.481 435.245 293.345 441.58 283.019 438.196C276.945 436.205 275.416 424.422 281.148 421.028C284.351 419.131 289.433 420 293 420L318 420L318 418L291 418C287.119 418 281.881 417.158 278.279 418.894C273.292 421.296 273.769 435.929 277.472 439.258C280.697 442.157 287.869 441.233 292 442C282.409 447.87 271.859 454.872 261 458C258.494 445.583 245.834 447.572 238.043 440.772C232.237 435.705 231.243 427.46 225.787 422.275C223.064 419.687 210.785 416.975 211.631 412.235C211.969 410.345 214.44 409.674 216.005 409.344C219.996 408.503 227.048 407.356 231 408.293C237.178 409.758 241.081 417.043 248 416.424C251.407 416.12 254.936 413.938 258 412.525C266.108 408.788 274.283 403.535 283 401.347C288.681 399.922 297.313 401.673 300 407C294.971 407.892 289.902 406.301 285 407.395C281.342 408.212 278.633 411.252 275.002 411.948C272.704 412.389 270.225 411.489 268 411C272.053 417.937 279.733 413.073 285 410L284 415C287.05 413.652 289.761 411.313 293 410.432C295.489 409.755 298.442 410.326 300.681 408.821C303.387 407.003 303.136 402.996 300.566 401.175C298.23 399.52 294.62 399.268 292 398C298.733 394.475 301.545 388.534 300.829 381C300.508 377.622 298.588 373.335 300.693 370.225C303.272 366.413 307.987 366.568 312 366.845C314.969 367.05 318.102 366.719 321 367.498C325.278 368.648 328.44 370.763 333 371L330 367C332.868 367.233 334.259 367.327 336 365L319 365C321.931 358.069 319.802 351.666 313 348C314.085 351.111 317.63 355.655 317.094 358.941C316.358 363.452 301.963 366.299 298.17 365.224C292.703 363.675 290.607 357.787 284 358.228C274.119 358.889 266.036 367.697 256 367.718C251.394 367.728 247.335 364.275 243 363C243.973 365.884 245.253 366.706 248 368C244.839 372.329 242.288 373.497 237 373C240.773 379.144 246.071 374.712 250 371C248.815 375.865 236.671 388.076 244 391C245.028 385.685 249.768 375.776 255.104 373.603C259.125 371.966 264.674 372.871 269 371.996C273.617 371.062 279.393 368.686 283.895 371.179C291.487 375.382 289.589 386.002 282.985 389.911C277.529 393.14 270.754 392.571 265 395C270.026 389.096 275.522 381.884 266 377L267 382C263.879 382.214 261.019 382.127 258 383C259.888 384.292 265.9 384.83 266.369 387.225C266.814 389.497 263.465 391.344 261.995 392.42C257.744 395.53 252.498 398.617 247 398.475C241.426 398.332 236.434 393.38 231 392.043C228.307 391.38 221.55 392.418 219.752 390.308C218.337 388.648 219.943 386.572 221.167 385.393C224.854 381.843 229.038 381.447 230.695 375.995C231.59 373.052 231.565 369.761 233.013 367C235.036 363.143 238.867 360.234 241.715 357C249.28 348.407 256.841 340.053 265 332.004C269.282 327.78 277.938 324.254 280.541 318.896C282.041 315.809 281.459 312.247 281 309C277.79 308.962 271.308 308.897 271.921 303.985C272.429 299.92 278.252 296.534 281 293.975C286.228 289.106 292.74 285.628 297.787 280.674C302.623 275.928 304.801 270.457 311 266.88C326.492 257.939 347.08 257.976 364 262.746C369.588 264.322 374.344 267.644 380 269C380 266.211 386.361 264.966 388.833 266.5C390.674 267.642 391.227 270.22 392.167 272C394.768 276.929 398.835 281.726 400.667 287C401.219 288.592 401.783 291.743 400.667 293.167C397.648 297.015 389.408 297.415 385 298.333C373.779 300.671 362.935 302.779 351.667 304.333C347.947 304.846 341.664 306.659 338 305.833C334.023 304.937 330.287 299.253 327 296.833C323.153 294.001 312.239 288.079 310 295C318.215 294.106 323.396 298.515 329 304C324.432 303.993 321.33 301.436 317 300.647C311.155 299.583 300.904 303.974 298 309C303.739 308.412 308.461 303.714 314 303.488C318.402 303.308 323.346 306.867 327 309C321.251 311.477 315.935 313.974 310 316C315.187 319.343 321.115 314.528 326 312.312C334.317 308.54 343.919 307.025 353 307C347.661 311.663 339.947 316.209 340 324C346.456 320.097 350.102 312.718 357 308.905C367.073 303.337 378.948 302.13 390 299.789C394.101 298.921 400.523 298.217 402.397 293.811C405.851 285.689 396.836 274.566 393 268C400.119 266.457 410.642 273.759 411 263C401.421 260.784 391.468 259.837 382 257.598C372.881 255.441 364.183 251.632 355 249.576C350.014 248.46 345.043 247.662 340 246.865C337.918 246.536 335.122 246.225 333.708 244.436C331.251 241.326 335.407 235.253 336.239 232C337.388 227.508 335.531 222.012 339.188 218.532C345.296 212.721 353.909 214.578 360.941 211.297C365.393 209.22 365.461 204.747 362.682 201.209C361.722 199.986 360.266 199.061 358.997 198.198C356.726 196.652 354.627 195.676 352 195C353.468 197.306 354.433 198.051 357 199L357 201C353.844 201.372 351.05 201.444 349 204C352.007 203.753 354.248 203.726 357 205L353 207C356.509 208.035 359.677 206.28 363 205C358.576 210.598 353.368 210.203 347 211.927C342.897 213.039 339.152 215.014 335 216C333.791 207.774 330.843 199.583 330.927 191.17C331.065 177.577 339.178 165.698 347.834 156C351.326 152.087 354.876 146.493 360 144.603C364.622 142.899 370.288 144.38 375 144.83C383 145.595 391.055 145.63 399 147C401.42 138.576 397.142 127.437 395.399 119C394.624 115.249 393.855 111.508 389.945 109.894C383.375 107.18 372.065 112.281 366.649 107.397C362.826 103.949 361.271 96.5016 358.822 92C355.355 85.6284 349.146 79.771 346.728 73C342.121 60.0996 349.56 46.9468 353 35C345.179 38.8469 345.122 48.4501 343 56C341.134 53.8497 338.245 51.6634 337.208 48.9606C336.088 46.0411 337.933 43.0049 337.516 40.0008C336.632 33.6203 329.849 27.6411 324 26C326.489 30.7989 331.712 34.0728 333.717 39C335.336 42.9778 332.097 46.9322 334.028 51C337.621 58.5725 343.785 61.8638 344 71C332.231 63.671 321.606 53.9635 309 48L314 31C309.239 32.6306 308.406 37.382 308 42C303.537 37.1302 300.87 31.8715 294 30C296.491 35.3058 301.426 38.635 304 44C294.875 40.2008 286.789 33.7536 277 31.669C269.726 30.1198 261.972 33.2834 255 29.6829C249.905 27.0516 243.009 21.6408 239.649 16.9846C236.363 12.4305 235.948 7.71054 230 6C232.361 11.9117 234.951 18.0596 239 23C231.615 20.3418 216.623 11.8342 212 21C219.585 19.8941 231.325 21.3369 237 27C230.445 27.0543 224.54 28.2142 218 27C222.371 33.935 236.71 29.5294 244 30.6844C247.807 31.2875 251.186 33.3222 255 34C246.17 38.4374 235.541 40.8191 226 43.3742C222.458 44.3227 218.689 46.1873 215 46.3194C211.542 46.4433 208.164 44.4992 205 43.3195C196.9 40.2992 187.288 38.2854 181.056 31.9568C173.902 24.6931 178.386 17.6664 177.066 9C176.405 4.66537 174.555 0.928253 170 1z"/>
<path style="fill:#000000; stroke:none;" d="M173 0C174.679 3.28516 176.845 6.78903 177.019 10.5756C177.302 16.7654 174.465 23.0955 177.883 28.9992C181.75 35.679 189.185 37.955 196 40.3434C201.535 42.2829 208.119 46.3631 214 46.6134C218.055 46.786 222.159 44.6897 226 43.6396C235.734 40.9791 245.294 37.7543 255 35C248.453 30.6012 241.686 30.0205 234 30.0146C227.935 30.01 222.622 31.8546 218 27C224.507 28.5492 230.454 27.1351 237 27C232.901 20.8204 218.593 19.3146 212 21C218.365 12.6718 230.55 20.8939 239 23L230 6C235.602 8.677 236.21 13.3203 239.649 17.9568C242.742 22.1273 248.589 26.3972 253 29.1073C260.496 33.7126 269.068 29.986 277 31.8997C286.755 34.2532 294.428 41.2426 304 44C302.127 38.1837 297.435 34.8553 294 30C300.234 32.7784 302.865 38.2881 308 42C308.686 37.4228 309.833 33.3711 314 31C311.665 36.694 310.14 41.9517 309 48C316.282 52.9125 323.76 57.5356 331 62.5077C335.301 65.4614 339.174 68.9599 344 71C343.912 61.2096 337.601 58.1743 334.067 50C332.47 46.3054 335.437 42.7462 334.215 39C332.6 34.0535 327.115 30.0878 324 26C329.093 28.3719 335.323 33.3216 336.937 39.0038C337.828 42.1426 336.089 44.9055 336.502 47.9854C336.979 51.5329 340.438 53.8872 343 56C345.955 48.124 345.688 40.4335 353 35C348.171 46.6132 342.172 61.2435 346.728 74C349.03 80.4457 354.923 85.9816 358.269 92C360.681 96.3385 362.584 105.069 366.649 107.972C372.264 111.983 382.527 107.329 388.981 109.894C393.042 111.507 394.334 115.035 395.195 119C397.062 127.591 400.891 138.302 399 147C391.575 144.992 383.603 145.556 376 144.83C370.753 144.329 364.131 142.711 359 144.603C353.896 146.486 350.432 152.127 346.925 156C338.424 165.389 331.5 177.009 330.799 190C330.335 198.602 333.104 207.703 335 216C339.616 215.308 343.538 213.136 348 211.927C353.894 210.331 359.818 211.083 363 205L353 208L357 205C354.279 203.31 352.132 203.474 349 204C351.446 202.001 353.946 201.679 357 201L357 199C354.88 197.838 353.635 196.795 352 195C354.151 195.893 356.064 196.877 358.004 198.198C359.321 199.095 360.775 200.016 361.851 201.209C365.258 204.986 364.909 209.102 359.981 211.297C353.086 214.368 344.021 212.554 338.333 218.532C335.16 221.867 337.192 227.765 335.957 232C335.014 235.232 330.927 241.167 333.071 244.436C334.28 246.28 337.033 246.552 339.001 246.865C343.701 247.612 348.354 248.298 353 249.35C362.861 251.581 372.211 255.716 382 258.01C386.483 259.06 391.408 258.658 396 259.435C401.097 260.298 405.9 262.247 411 263L411 0L173 0M239 23L240 24L239 23M222 47C226.33 48.6901 231.561 46.6879 236 45.8002C246.274 43.7455 257.524 40.0703 268 39.8642C276.243 39.702 282.914 43.9259 290 47.5903C306.943 56.3515 326.852 68.1748 338 84C329.907 84.417 322.052 82.392 314 82.0394C307.823 81.7689 299.91 83.1358 294.094 80.5502C287.683 77.6999 289.701 69.7196 285.297 65.6072C281.579 62.1358 271.66 65.7999 267 66C271.883 68.0497 277.474 66.363 281.787 70.3032C285.673 73.8525 285.809 80.5767 291.058 82.4668C301.846 86.3516 315.636 87.0537 327 88.7284C332.682 89.5658 339.194 89.996 343.985 93.51C349.921 97.864 353.262 106.341 355.91 113C363.998 133.341 346.075 143.889 334.464 158C329.052 164.576 320.639 173.98 331 180C332.754 168.3 341.559 158.341 349.845 150.438C352.832 147.589 355.995 143.969 360 142.589C366.963 140.189 379.468 146.991 384 140C377.025 138.974 370.633 136.211 364 134C365.921 131.283 368.352 128.445 368.679 125C369.006 121.559 367.233 118.106 366 115C363.569 108.88 361.196 102.898 358.247 97C346.187 72.881 324.673 59.9583 302 46.9992C293.946 42.3956 285.466 35.3324 276 34.1844C258.202 32.0259 239.129 43.4551 222 47z"/>
<path style="fill:#252525; stroke:none;" d="M251.667 46.3333C251.222 46.7779 252.278 46.7221 252.333 46.6667C252.778 46.2224 251.722 46.2777 251.667 46.3333z"/>
<path style="fill:#000000; stroke:none;" d="M220 48L221 49L220 48z"/>
<path style="fill:#d3d3d3; stroke:none;" d="M166 50L167 51L166 50z"/>
<path style="fill:#303030; stroke:none;" d="M209 53L210 54L209 53z"/>
<path style="fill:#e7e7e7; stroke:none;" d="M75.6667 54.3333C75.2223 54.7777 76.2778 54.7222 76.3333 54.6667C76.7778 54.2222 75.7222 54.2778 75.6667 54.3333z"/>
<path style="fill:#000000; stroke:none;" d="M81 59C82.4567 57.8965 82.8965 57.4567 84 56C81.636 56.4825 81.4824 56.636 81 59z"/>
<path style="fill:#313131; stroke:none;" d="M283 66L284 67L283 66z"/>
<path style="fill:#181818; stroke:none;" d="M349.333 85.6667C349.278 85.7223 349.222 86.7777 349.667 86.3333C349.722 86.2778 349.778 85.2222 349.333 85.6667z"/>
<path style="fill:#000000; stroke:none;" d="M368 111C368.61 115.07 370.638 118.895 370.877 123C371.096 126.758 369.45 130.311 369 134C378.412 136.177 387.692 139.378 397 142C396.679 134.555 394.668 127.233 393.011 120C392.432 117.473 392.123 113.748 389.57 112.349C387.448 111.185 384.305 111.942 382 111.986C377.235 112.078 372.686 111.87 368 111z"/>
<path style="fill:#343434; stroke:none;" d="M225 115L226 116L225 115z"/>
<path style="fill:#131313; stroke:none;" d="M210 118L210 122C210.71 120.24 210.71 119.759 210 118z"/>
<path style="fill:#000000; stroke:none;" d="M385 142C386.506 142.683 387.315 142.826 389 143C387.494 142.317 386.685 142.174 385 142z"/>
<path style="fill:#191919; stroke:none;" d="M301.667 153.333C301.222 153.778 302.278 153.722 302.333 153.667C302.778 153.222 301.722 153.278 301.667 153.333z"/>
<path style="fill:#353535; stroke:none;" d="M257 154L258 155L257 154z"/>
<path style="fill:#000000; stroke:none;" d="M232 169C238.252 167.553 244.556 163.512 251 163.354C259.095 163.155 266.97 166.882 275 167.482C280.094 167.863 286.113 164.935 291 166.618C295.793 168.269 299.37 173.695 303.039 177C307.808 181.296 313.519 184.804 317.387 190.004C322.525 196.91 323.088 205.768 324.41 214C325.469 220.589 329.45 232.79 326.607 239.015C323.544 245.723 316.362 252.883 310.985 257.829C309.088 259.576 306.615 262.122 304 262.698C300.816 263.398 297.471 258.799 294.603 260.832C292.798 262.111 293.01 265.139 292.262 267C291.334 269.31 289.715 271.182 287.956 272.907C279.886 280.82 269.001 282.472 273 296C290.989 289.031 298.92 267.317 317 261.359C329.789 257.144 343.858 257.034 357 259.424C362.752 260.471 368.249 262.735 374 263.675C380.249 264.696 386.712 263.541 393 264.171C398.424 264.713 403.589 267.348 409 267C401.703 259.921 391.978 262.397 383 260.482C377.806 259.375 373.057 256.758 368 255.205C355.341 251.318 341.264 248.009 328 248C329.461 241.689 333.835 235.357 334.426 229C334.859 224.347 332.68 218.632 331.92 214C330.667 206.364 329.689 198.662 328.579 191C327.909 186.371 327.681 182.052 324.891 178.09C319.916 171.024 310.674 168.529 304 163.475C300.358 160.717 296.916 156.583 292 156.398C284.996 156.134 278.236 160.327 271 159.816C257.036 158.829 241.705 156.425 232 169z"/>
<path style="fill:#2c2c2c; stroke:none;" d="M291 171L292 172L291 171z"/>
<path style="fill:#1a1a1a; stroke:none;" d="M186.667 178.333C186.222 178.778 187.278 178.722 187.333 178.667C187.778 178.222 186.722 178.278 186.667 178.333z"/>
<path style="fill:#2c2c2c; stroke:none;" d="M197 178L198 179L197 178z"/>
<path style="fill:#2b2b2b; stroke:none;" d="M65 187L66 188L65 187z"/>
<path style="fill:#131313; stroke:none;" d="M274 214L274 218C274.71 216.24 274.71 215.76 274 214z"/>
<path style="fill:#2f2f2f; stroke:none;" d="M330 217L331 218L330 217z"/>
<path style="fill:#000000; stroke:none;" d="M159 227L159 229C164.82 232.397 171.09 235.834 178 235.945C182.375 236.016 186.684 233.449 191 234.668C196.095 236.108 200.117 240.547 205 242.662C214.304 246.691 224.547 248.242 234 252C242.109 255.223 257.418 258.812 256 270C250.19 268.601 241.947 266.388 236 267.317C232.069 267.931 229.135 270.877 225 270.852C217.81 270.808 211.279 266.333 204 266C208.58 270.122 221.619 276.313 227.961 275.498C231.179 275.085 232.992 271.939 236.039 271.063C240.98 269.644 246.365 272.992 251 274.243C253.149 274.823 255.798 274.887 257.682 276.175C262.946 279.774 259.721 293.954 258.36 299C255.972 307.852 251.916 318.014 243.999 323.297C241.198 325.166 237.797 325.69 235 327.559C231.143 330.138 227.859 333.536 224 336.164C218.152 340.145 213.366 342.719 212 350C209.007 349.26 205.654 348.967 203.019 347.258C197.214 343.496 194.732 333.455 197.008 327C198.498 322.778 201.452 319.228 203 315C201.235 315.716 197.841 318.168 195.894 317.392C192.403 316 193.739 305.532 195.028 303.015C196.832 299.491 200.609 297.127 203 294C199.825 295.044 196.751 297.611 193.424 297.967C188.855 298.456 184.612 295.068 180 295.202C175.832 295.323 172.982 298.645 169 299.247C164.192 299.974 154.563 296.214 150.001 294.411C143.741 291.937 140.978 285.765 134 284C135.091 285.636 138.78 287.836 138.37 289.985C137.813 292.902 133.201 293.28 131 294.129C126.219 295.973 121.726 299.448 118.17 303.09C110.379 311.069 103.311 319.323 95 326.83C84.9042 335.949 72.2809 345.696 66 358C74.7603 352.205 81.8977 344.257 90 337.616C96.442 332.336 103.873 328.596 110 322.91C118.071 315.422 128.458 303.433 140 301.62C147.793 300.395 154.581 307.22 162 308.529C170.244 309.983 180.056 299.945 185.995 309.045C194.219 321.646 191.274 340.029 189.424 354C188.788 358.806 189.718 363.69 187.041 368C185.106 371.115 182.277 374.012 179 375.697C176.259 377.106 172.702 377.216 170.453 379.512C167.375 382.655 169.816 385.024 173 386L172 389L167.96 386.913C157.553 382.115 166.223 395.84 166.792 399C167.48 402.818 163.931 406.153 164.816 409.816C165.386 412.177 167.932 413.653 169.491 415.325C172.898 418.98 177.387 422.628 180.393 426.514C182.807 429.635 180.829 433.461 181.597 437C182.517 441.242 186.26 444.419 186.871 448.715C187.414 452.53 184.256 456.544 183 460C188.98 462.503 198.266 471.152 205 467.958C207.797 466.63 210.59 463.766 211.961 461.004C214.156 456.585 212.999 451.366 220 451.362C225.229 451.359 225.953 456.561 229.299 459.272C232.448 461.825 241.046 464.927 245 465.814C249.485 466.82 259.616 462.687 258.164 456.985C255.43 446.251 242.004 448.454 235.185 442.581C229.211 437.436 229.245 428.582 222.907 423.637C219.498 420.978 206.763 417.911 208.346 412.005C208.912 409.892 211.068 408.336 213.005 407.603C217.35 405.96 227.509 404.488 232 405.692C237.532 407.175 241.04 413.075 247 413.475C251.522 413.778 256.117 410.52 260 408.587C267.167 405.019 274.5 401.853 282 399.05C286.723 397.285 292.29 396.083 295.566 391.942C301.346 384.638 297.131 366.316 288.96 362.028C282.505 358.64 269.638 364.446 266 370C271.67 369.741 278.572 365.793 283.996 368.333C293.775 372.912 293.349 387.512 283.96 392.232C276.116 396.176 265.527 397.155 257 399.119C253.327 399.965 248.786 401.796 245 401.258C239.728 400.508 236.179 395.576 231 394.394C221.487 392.224 211.329 395.852 209 383C211.553 384.533 212.52 386.407 214 389C215.964 386.832 217.672 384.415 220.042 382.647C222.328 380.943 225.244 380.095 226.991 377.725C230.005 373.636 228.252 368.284 231.123 363.965C234.252 359.258 239.07 356.072 242.91 351.996C247.792 346.816 251.98 341.061 257.004 336.001C261.633 331.338 266.593 326.97 271.999 323.219C274.478 321.5 277.904 320.129 278.663 316.9C280.31 309.887 269.942 311.954 269.187 304.996C268.863 302.015 269.888 298.985 269.946 296C270.138 286.028 268.807 274.655 266.265 265C265.319 261.403 264.555 257.148 262.297 254.108C257.078 247.079 243.804 245.493 236 242.576C226.49 239.02 216.235 236.681 207 232.482C201.672 230.06 197.048 225.017 191 224.423C184.812 223.815 179.195 228.392 173 228.4C168.074 228.406 163.948 225.942 159 227z"/>
<path style="fill:#e7e7e7; stroke:none;" d="M147.667 225.333C147.222 225.778 148.278 225.722 148.333 225.667C148.778 225.222 147.722 225.278 147.667 225.333z"/>
<path style="fill:#000000; stroke:none;" d="M281 309C281.167 311.902 281.79 315.407 280.48 318.13C278.046 323.192 271.035 325.451 267 329.104C258.185 337.085 250.332 346.021 242.575 355C239.696 358.332 235.985 361.29 233.6 365C231.091 368.901 231.776 373.91 229.547 377.945C227.226 382.146 218.636 383.595 218.636 388.867C218.636 392.836 224.622 391.304 227 391.529C235.783 392.36 241.954 400.146 251 398.11C255.93 397.001 259.989 394.849 263.941 391.705C265.303 390.621 268.046 388.649 266.824 386.562C265.636 384.534 260.114 384.019 258 383L267 382L266 377C274.625 383.686 269.117 387.757 265 395C270.248 393.337 275.835 393.09 280.999 391.235C288.504 388.54 293.178 376.16 284.786 371.179C280.191 368.452 273.755 370.786 269 371.789C264.475 372.744 258.359 371.817 254.21 373.603C248.914 375.884 244.581 385.653 244 391L241 390C243.118 383.098 248.708 378.136 250 371C245.346 374.153 241.688 377.912 237 373C242.374 373.934 245.53 373.124 248 368C245.708 366.451 244.334 365.396 243 363C246.9 364.68 250.653 367.587 255 367.853C265.587 368.499 273.834 359.188 284 358.434C290.039 357.986 292.324 363.569 297.285 365.358C301.313 366.81 309.946 364.018 313.941 362.721C315.465 362.227 316.794 361.457 317.339 359.852C318.601 356.134 314.576 351.192 313 348C319.043 352.92 321.295 357.562 319 365L336 365C333.986 366.884 332.754 367.062 330 367C330.901 368.922 331.076 368.999 333 370C323.918 371.749 310.151 360.784 301.322 368.703C297.202 372.398 301.046 379.328 300.867 384C300.626 390.3 296.723 394.368 292 398C294.588 399.778 298.212 399.677 300.562 401.742C303.014 403.896 302.588 407.171 299.848 408.821C297.469 410.253 294.577 409.729 292 410.432C289.021 411.245 286.548 413.344 284 415L285 410C278.836 412.566 273.361 417.053 268 411C270.582 411.811 273.264 412.925 276 412.18C279.611 411.196 282.25 408.172 286 407.409C290.66 406.46 295.214 408.126 300 407C298.341 401.534 293.892 402.232 289 401.154C274.49 397.957 261.857 414.615 248 416.033C241.15 416.734 237.305 408.846 231 407.802C226.742 407.098 219.276 408.428 215.019 409.344C213.45 409.682 211.222 410.359 210.921 412.235C210.13 417.165 222.019 419.706 224.895 422.275C230.548 427.323 231.507 435.666 237.105 440.772C245.086 448.053 256.865 445.837 261 458C272.141 456.014 281.883 447.723 292 443C287.65 440.029 281.365 442.488 277.523 438.656C273.604 434.746 273.584 421.333 279.133 418.894C282.899 417.238 287.991 418 292 418L318 418L318 420L291 420C287.844 420 283.088 419.179 280.318 421.028C275.744 424.08 276.862 436.411 282.059 438.196C292.433 441.759 300.494 436.175 310 434C308.701 435.617 307.61 436.672 306 438C309.331 439.398 313.784 438.167 316.682 440.603C321.71 444.83 321.399 459.632 314.956 462.258C311.157 463.806 306.019 463 302 463C293.666 463 285.271 463.053 277 464C278.517 470.952 286.273 469 292 469C306.646 469 323.728 466.602 338 470C332.764 471.548 327.398 470.72 322 471.09C304.368 472.297 286.672 472 269 472C261.078 472 251.747 470.654 244 472.394C237.297 473.898 231.193 479.109 225 482C230.216 484.189 237.381 483 243 483L280 483L411 483L411 269C404.765 269.317 399.11 266.245 393 268C395.816 274.762 405.395 285.213 402.393 292.906C399.454 300.435 384.67 300.495 378 301.804C369.259 303.519 359.161 306.012 352 311.529C347.332 315.126 344.281 320.091 340 324C340.479 316.304 348.578 312.483 353 307C344.954 307.005 336.627 308 329 310.699C322.421 313.028 317.226 317.298 310 317C315.511 313.942 321.504 312.361 327 309C323.434 306.045 317.845 302.659 313 303.318C307.717 304.036 303.352 308.046 298 309C301.662 304.804 310.199 300.231 316 300.858C320.82 301.379 323.944 304.734 329 304C324.552 297.82 317.819 293.311 310 295C318.258 285.621 329.121 301.723 336 305.106C339.675 306.914 345.035 305.205 348.94 304.926C361.573 304.022 373.599 300.886 386 298.398C390.178 297.56 399.771 296.923 401.111 291.921C402.722 285.908 396.195 277.873 393.412 273C392.3 271.054 391.338 268.219 389.435 266.889C386.796 265.044 380.496 265.86 380 269C374.851 267.215 370.265 264.231 365 262.746C347.422 257.79 324.879 257.607 309.001 267.468C303.459 270.91 301.486 276.433 296.895 280.674C291.004 286.116 283.999 290.395 278.001 295.831C275.738 297.881 272.572 299.918 271.662 303.01C269.898 309.002 277.19 308.987 281 309z"/>
<path style="fill:#202020; stroke:none;" d="M145.667 265.333C145.222 265.778 146.278 265.722 146.333 265.667C146.778 265.222 145.722 265.278 145.667 265.333z"/>
<path style="fill:#121212; stroke:none;" d="M234 276C233.014 277.479 233 277.203 233 279C234.289 277.557 234.401 277.766 234 276z"/>
<path style="fill:#323232; stroke:none;" d="M310 290L311 291L310 290z"/>
<path style="fill:#2b2b2b; stroke:none;" d="M261 292L262 293L261 292z"/>
<path style="fill:#000000; stroke:none;" d="M245 319C252.206 313.646 254.079 304.379 256 296C250.435 297.323 244.164 301.818 243.515 308C243.139 311.575 244.543 315.459 245 319z"/>
<path style="fill:#373737; stroke:none;" d="M241 298L242 299L241 298z"/>
<path style="fill:#1b1b1b; stroke:none;" d="M79.6667 301.333C79.2222 301.778 80.2778 301.722 80.3333 301.667C80.7778 301.222 79.7222 301.278 79.6667 301.333z"/>
<path style="fill:#000000; stroke:none;" d="M84 384C84.7395 380.882 85.8486 377.987 87 375C80.7119 375.978 78.3358 382.353 72 383C76.4268 378.574 86.1546 372.854 88.2176 366.96C89.6517 362.863 86.7702 358.802 85.5841 355.039C84.7545 352.407 84.7481 349.648 84 347C78.9146 349.372 75.2371 353.79 71 357.421C63.7189 363.659 55.8528 369.726 48 375.2C42.8099 378.818 35.7063 379.422 31.3025 384.213C27.3132 388.553 27.4292 394.922 23 399C23.1612 392.142 26.0134 384.103 32.0432 380.214C38.5316 376.029 46.3552 375.632 50 368C41.9899 368.105 29.0671 368.127 22.0008 371.988C16.4225 375.036 13.8329 381.257 8 384C9.95889 379.722 13.2869 376.423 15 372C11.2884 371.454 3.98552 368.096 1.02778 371.742C-0.625215 373.78 0.00109251 377.574 0 380L0 401L0 483L219 483C213.774 478.666 204.788 473.048 198 471.923C189.48 470.51 179.675 472.198 171 471.985C157.343 471.651 143.72 471 130 471L107 471C102.339 471 98.4132 471.485 95 468L116 468C118.35 456.636 140.009 461.001 149 461C153.113 461 159.138 462.015 160.562 456.942C162.174 451.194 157.211 448.557 153 446.15C149.418 444.103 146.201 442.286 142 442.043C136.214 441.71 126.328 443.362 121.523 439.347C117.671 436.129 117.948 422.947 121.514 419.662C124.017 417.356 127.887 417.98 131 417.997L144 418L163 418C155.303 422.107 143.582 420 135 420C131.978 420 127.986 419.364 125.148 420.603C120.869 422.472 120.409 434.13 123.603 437.142C126.705 440.066 133.106 439 137 439C135.165 436.184 132.193 434.572 130 432C135.719 433.371 140.322 437.375 146 438.61C150.825 439.659 156.484 438.001 160.852 440.938C164.386 443.314 163.686 447.988 167.148 450.532C170.165 452.75 177.883 457.794 181.566 455.153C187.481 450.911 180.306 441.2 179.179 436.289C178.515 433.394 179.851 429.803 178.206 427.22C174.401 421.246 165.955 417.771 163.121 410.999C161.426 406.948 165.096 403.143 164.247 399C163.423 394.982 159.134 391.35 159.909 387.004C161.521 377.96 174.792 375.982 180.956 371.995C185.371 369.139 186.983 363.97 187.7 359C189.286 348 183.633 341.589 177.652 333.001C174.374 328.295 169.364 322.797 163 323.242C156.984 323.664 151.049 332.184 152.937 338C155.308 345.304 171.912 353.871 159 360C164.899 351.256 156.859 347.756 152 341L150 341C147.292 349.323 143.659 360.97 134 363.566C128.708 364.988 123.337 362.057 118 363.649C113.131 365.102 108.866 368.341 104 370C106.73 365.485 115.69 360.772 121 360.256C124.465 359.92 127.568 361.863 131 361.707C137.749 361.4 142.447 354.947 144 349C133.729 350.383 124.637 353.283 115 357C120.217 347.306 135.575 350.665 143.891 345.583C149.555 342.121 149.565 333.138 153.532 328.004C156.302 324.419 160.111 320.746 165 321.384C175.848 322.801 179.173 335.696 188 340C189.958 331.777 188.455 323.949 185.975 316C184.938 312.678 183.888 308.343 179.945 307.527C174.22 306.342 169.054 311.4 163 310.319C155.279 308.941 145.814 302.787 138 304.803C125.676 307.983 117.264 319.756 108 327.561C102.565 332.14 95.1147 335.644 90.6381 341.184C84.3749 348.936 89.4573 354.84 90.9144 363C92.0585 369.407 88.8074 379.801 84 384z"/>
<path style="fill:#212121; stroke:none;" d="M119.667 306.333C119.222 306.778 120.278 306.722 120.333 306.667C120.778 306.222 119.722 306.278 119.667 306.333z"/>
<path style="fill:#1b1b1b; stroke:none;" d="M194.667 322.333C194.222 322.778 195.278 322.722 195.333 322.667C195.778 322.222 194.722 322.278 194.667 322.333z"/>
<path style="fill:#2f2f2f; stroke:none;" d="M94 341L95 342L94 341z"/>
<path style="fill:#323232; stroke:none;" d="M129 346L130 347L129 346z"/>
<path style="fill:#2c2c2c; stroke:none;" d="M252 347L253 348L252 347z"/>
<path style="fill:#d0d0d0; stroke:none;" d="M230 370L231 371L230 370z"/>
<path style="fill:#1c1c1c; stroke:none;" d="M267.667 373.333C267.222 373.778 268.278 373.722 268.333 373.667C268.778 373.222 267.722 373.278 267.667 373.333z"/>
<path style="fill:#d4d4d4; stroke:none;" d="M210 385L211 386L210 385z"/>
<path style="fill:#1a1a1a; stroke:none;" d="M241.333 405.667C241.278 405.722 241.222 406.778 241.667 406.333C241.722 406.278 241.778 405.222 241.333 405.667z"/>
<path style="fill:#000000; stroke:none;" d="M264 462C265.973 466.128 268.514 468.094 273 469C273.699 466.62 274.215 463.52 276.43 462.028C279.015 460.286 283.061 461.09 286 460.961C292.039 460.696 297.92 460 304 460C307.151 460 313.739 461.216 315.972 458.397C317.3 456.72 316.989 453.99 316.999 452C317.012 449.47 317.509 445.735 315.821 443.603C313.489 440.659 305.317 441.779 302 442.105C297.14 442.582 293.172 445.403 289 447.694C280.603 452.306 272.002 456.722 264 462M164 453C163.792 456.069 163.848 460.279 161.312 462.489C158.639 464.818 153.356 464.602 150 464.855C140.222 465.593 128.217 462.507 119 466C122.888 468.945 128.284 468 133 468C139.94 468 147.088 467.512 154 468.17C159.824 468.724 167.233 470.421 172.852 467.968C176.409 466.415 176.855 461.433 174.397 458.637C171.958 455.864 167.378 454.229 164 453M210 467C218.941 471.014 231.387 469 241 469C236.892 461.171 226.153 464.639 224 454C221.804 454.008 218.618 453.541 216.767 455.013C215.201 456.259 215.313 458.552 214.712 460.285C213.749 463.067 212.11 465.047 210 467z"/>
<path style="fill:#1b1b1b; stroke:none;" d="M112.667 461.333C112.222 461.778 113.278 461.722 113.333 461.667C113.778 461.222 112.722 461.278 112.667 461.333z"/>
<path style="fill:#000000; stroke:none;" d="M179 465C181.58 469.679 186.77 469.89 191 467C186.742 464.53 183.705 462.98 179 465M252 468C255.697 469.552 260.017 469 264 469L264 467C258.987 465.898 256.766 465.614 252 468z"/>
<path style="fill:#2b2b2b; stroke:none;" d="M185 466L186 467L185 466z"/>
<path style="fill:#000000; stroke:none;" d="M208 472C211.258 475.293 218.104 479.868 223 479.289C227.204 478.791 231.56 475.269 235 473C227.591 469.891 216.025 472 208 472z"/>
</svg>
