0
SECTION
2
HEADER
9
$INSUNITS
70
4
9
$ACADVER
1
AC1014
9
$HANDSEED
5
FFFF
0
ENDSEC
0
SECTION
2
TABLES
0
TABLE
2
VPORT
5
8
100
AcDbSymbolTable
0
ENDTAB
0
TABLE
2
LTYPE
5
5
100
AcDbSymbolTable
0
LTYPE
5
14
100
AcDbSymbolTableRecord
100
AcDbLinetypeTableRecord
2
BYBLOCK
70
0
0
LTYPE
5
15
100
AcDbSymbolTableRecord
100
AcDbLinetypeTableRecord
2
BYLAYER
70
0
0
ENDTAB
0
TABLE
2
LAYER
5
2
100
AcDbSymbolTable
70
2
0
LAYER
5
50
100
AcDbSymbolTableRecord
100
AcDbLayerTableRecord
2
0
70
0
6
CONTINUOUS
0
ENDTAB
0
TABLE
2
STYLE
5
3
100
AcDbSymbolTable
70
1
0
STYLE
5
11
100
AcDbSymbolTableRecord
100
AcDbTextStyleTableRecord
2
STANDARD
70
0
0
ENDTAB
0
TABLE
2
VIEW
5
6
100
AcDbSymbolTable
70
0
0
ENDTAB
0
TABLE
2
UCS
5
7
100
AcDbSymbolTable
70
0
0
ENDTAB
0
TABLE
2
APPID
5
9
100
AcDbSymbolTable
70
2
0
APPID
5
12
100
AcDbSymbolTableRecord
100
AcDbRegAppTableRecord
2
ACAD
70
0
0
ENDTAB
0
TABLE
2
DIMSTYLE
5
A
100
AcDbSymbolTable
70
1
0
ENDTAB
0
TABLE
2
BLOCK_RECORD
5
1
100
AcDbSymbolTable
70
1
0
BLOCK_RECORD
5
1F
100
AcDbSymbolTableRecord
100
AcDbBlockTableRecord
2
*MODEL_SPACE
0
BLOCK_RECORD
5
1B
100
AcDbSymbolTableRecord
100
AcDbBlockTableRecord
2
*PAPER_SPACE
0
ENDTAB
0
ENDSEC
0
SECTION
2
BLOCKS
0
BLOCK
5
20
100
AcDbEntity
100
AcDbBlockBegin
2
*MODEL_SPACE
0
ENDBLK
5
21
100
AcDbEntity
100
AcDbBlockEnd
0
BLOCK
5
1C
100
AcDbEntity
100
AcDbBlockBegin
2
*PAPER_SPACE
0
ENDBLK
5
1D
100
AcDbEntity
100
AcDbBlockEnd
0
ENDSEC
0
SECTION
2
ENTITIES
0
LWPOLYLINE
5
100
100
AcDbEntity
8
0
100
AcDbPolyline
90
1369
70
1
43
0.0
10
30.93391474967893
20
-57.563321011229277
42
0.03191747262748746
10
29.895369461544135
20
-57.212840318974258
42
-0.07759149009009475
10
29.120444712773327
20
-56.861607864964292
42
0.016827562289900622
10
29.766869366995831
20
-56.331274377905274
42
0.072742093810994238
10
30.889992386288224
20
-55.044975698462295
42
0.16862135269890116
10
31.440910753814926
20
-52.671516875518272
42
0.019613188428902553
10
31.198737877537511
20
-51.395943954646071
42
-0.084745352499498508
10
31.114840857175533
20
-49.981221011821063
42
-0.1724100946379177
10
31.586888156071634
20
-49.110110723443782
42
-0.15206267667559659
10
33.164974543106915
20
-48.379628583269763
42
-0.090227403748107088
10
34.964686312749905
20
-48.480701285998073
42
-0.02027465262789846
10
37.083017114447529
20
-49.056719294716785
42
0.034612541840305704
10
38.759849348069714
20
-49.455553886361571
42
0.073093619906899401
10
39.968361379439926
20
-49.453274531630584
42
-0.094503867246706161
10
39.387370929311928
20
-49.052345067578784
42
-0.042001540049933471
10
39.174611379439874
20
-48.659524531630574
42
0.010639199925297832
10
39.498464886492911
20
-48.660876505620003
42
0.21176105929599742
10
40.762111379439929
20
-48.130357864963983
10
36.264194712773218
20
-48.13035786496399
42
0.061909661625692274
10
36.494739219920532
20
-46.878554939616564
42
0.17114961772459814
10
35.886615907350347
20
-44.87151035300635
42
0.072198319568000255
10
34.676694712773227
20
-43.632441198297258
42
0.019476453935208672
10
34.956209277461511
20
-44.134481415657675
42
-0.027369489171107493
10
35.643120401388018
20
-45.384183415291176
42
-0.089736221547916661
10
35.888313411342345
20
-46.337570738382254
42
-0.19974441986561253
10
35.598530598830429
20
-47.144858212290082
42
-0.11306265646848174
10
34.997774125861653
20
-47.502985893005764
42
-0.022478151268908626
10
32.939504456585716
20
-48.101118964920069
42
-0.049726816919711841
10
31.32450788285972
20
-48.33266948381138
42
-0.091903090484200908
10
30.518768598373018
20
-48.22507915046608
42
-0.091505978311006694
10
29.412794341572624
20
-47.541193858262986
42
0.029923066915289603
10
28.349728088485339
20
-46.719714862979473
42
0.15695705171870034
10
27.003778046106621
20
-46.393101179071188
42
0.088475836266500102
10
24.695631324062536
20
-47.048999827250782
42
0.01651916584670211
10
23.209826500405143
20
-47.777693937836077
42
-0.029272842110799436
10
21.357357867202225
20
-48.588028427970983
42
-0.088463958528900377
10
19.330861379439927
20
-48.885213275221986
42
-0.10191761941500066
10
17.714762677557868
20
-48.391240948434977
42
0.0052354442659892572
10
16.155861379439923
20
-47.601191198297279
42
0.050795115570021046
10
16.524505639375722
20
-48.138999878785484
42
0.066637253063303564
10
17.47877804610664
20
-48.924107864963993
42
-0.058663032113899331
10
17.007200220284929
20
-49.671603272167893
42
-0.20735422315709701
10
15.714093466328221
20
-50.325335858911266
42
-0.068720698437696168
10
14.568361379439924
20
-50.247024531630672
42
0.027125376664271249
10
14.842296281015724
20
-50.501137237365093
42
0.18764957684099312
10
15.880011124476427
20
-50.870479927142689
42
0.12550306820539422
10
16.954295094588868
20
-50.447009705422651
42
0.018761904678996116
10
18.007944712773231
20
-49.717857864963968
42
-0.09169508671410101
10
17.20290753370768
20
-51.743228944705599
42
-0.0016939840221048136
10
16.329328078528938
20
-53.200559929254261
42
0.053234591774598855
10
15.626694712773226
20
-54.744941198297283
10
16.420444712773232
20
-55.009524531630269
42
-0.069737020462598526
10
16.858864938381725
20
-53.369377447619257
42
-0.10046883894519763
10
18.315389660438033
20
-50.983404170729273
42
-0.17234551636419052
10
19.851280403499338
20
-50.19655067732927
42
-0.03225546294609162
10
21.110160826605927
20
-50.081296159471705
42
0.020030906049896376
10
22.677299874541006
20
-49.9869733586157
42
0.036145316548996116
10
23.878242307325021
20
-49.728402248578561
42
-0.037686737945492411
10
25.398649786240842
20
-49.446895744119189
42
-0.098512096301407531
10
26.715871663418838
20
-49.548277826823991
42
-0.32930229569320379
10
28.393932225978034
20
-51.819638400790282
42
-0.13761345006419062
10
27.869868014641828
20
-53.631890549590281
42
-0.19099918859040504
10
26.012466058459729
20
-55.139454400037273
42
-0.040344171769594067
10
24.164132396811727
20
-55.577179580187277
42
0.025968994501503698
10
21.976694712773146
20
-56.067857864964395
42
-0.0086430434060014924
10
22.964655597928541
20
-54.496686132184287
42
0.067775905533113565
10
23.377343546591835
20
-53.617222495699281
42
0.23175351292740182
10
23.163732093024617
20
-52.246937625992274
42
0.082076036909199637
10
22.241278046106636
20
-51.305357864963966
10
22.505861379439924
20
-52.628274531630268
10
20.124611379439926
20
-52.892857864964284
42
0.036692507055276873
10
20.40549055552215
20
-52.999265625343142
42
0.0055613123757140169
10
21.627232175904926
20
-53.337693694070261
42
-0.11218743589229452
10
22.357307861901624
20
-53.708517660340263
42
-0.22626317437309174
10
22.538136075563337
20
-54.168448776297282
42
-0.14783788730959266
10
22.286495450088331
20
-54.672843386480281
42
-0.051038784507483129
10
21.696503481999315
20
-55.196052228876269
42
-0.10980345476949734
10
18.272528046106629
20
-56.890708155898281
42
-0.068078880175689319
10
17.308991313191218
20
-56.976378169261267
42
-0.082617834636892401
10
15.745743467978643
20
-56.603519842298297
42
-0.025295360333492993
10
14.382082849188942
20
-55.968396011737269
42
0.03800140882099904
10
12.739841024868818
20
-55.302686713868283
42
0.10542972822579982
10
11.221015531818139
20
-55.166881146873266
42
-0.057928332066695606
10
10.210125709521922
20
-55.10400978057929
42
-0.35749896031558653
10
9.7095534659776366
20
-54.445169444350299
42
-0.20309645850660946
10
10.111649254686421
20
-53.52072822361329
42
-0.066994112305907627
10
10.944137962993143
20
-52.880446331833262
42
0.018174300922690938
10
11.92441440614072
20
-52.252147999192289
42
0.10565489753320655
10
12.596421020960129
20
-51.555391052830188
42
0.053659536244002215
10
12.872758927006737
20
-50.881410255599455
42
0.021783061258800092
10
13.155082126171534
20
-49.56873207484486
42
-0.092589924846696092
10
13.668779660995131
20
-48.130357864963969
42
-0.066133245740398264
10
14.96641247335485
20
-46.608361548747482
42
0.015707503297798069
10
16.043412655328403
20
-45.484524531631351
42
-0.0054619093220996482
10
18.569571265294289
20
-42.614386143611
42
-0.022077324529299971
10
22.505861379439924
20
-38.63287556515926
42
-0.048516366024811498
10
23.839585782091465
20
-37.700388399857331
42
0.024444503528497308
10
25.072548842279932
20
-36.883130633123571
42
0.10808666919459957
10
26.072447619572632
20
-35.729338323541469
42
0.11796410929639579
10
26.286053061156526
20
-34.438325438496335
42
0.016818233232197596
10
26.210028046106622
20
-33.313691198297278
42
-0.040836185902688595
10
24.806577879890636
20
-33.218247560385549
42
-0.093138407912379345
10
24.113104472075435
20
-32.968129722791673
42
-0.3178839806934991
10
23.678217480959624
20
-32.014852486722774
42
-0.17751787759619966
10
24.327090564717608
20
-30.792786331038787
42
-0.030578112322896079
10
25.296870061436913
20
-29.935296800487613
42
-0.010451922043801824
10
26.397298328506569
20
-28.997375912178388
42
-0.011283798624197141
10
28.615050810965847
20
-27.305121874502966
42
0.04291280187230008
10
30.927813189671284
20
-25.2863584964621
42
0.017554402032593869
10
32.038331098043209
20
-23.840623326521069
42
-0.081974301919498505
10
33.618627836043906
20
-22.325012774733683
42
-0.048172721879797618
10
35.789435579529815
20
-21.259041941862478
42
-0.089001683450301322
10
41.848240198851727
20
-20.196387478614859
42
-0.070617998441501309
10
48.435028046106616
20
-21.075654279657172
42
-0.042277587183896806
10
50.409699005521716
20
-21.863236063825578
42
0.022708353921801785
10
52.403778046106922
20
-22.730357864963967
42
-0.0975685417622187
10
52.486428051349911
20
-22.500143341500191
42
-0.17480365878891543
10
53.055607861291918
20
-22.064319160693181
42
-0.16453092868880242
10
54.583075110813937
20
-22.016563198705981
42
-0.16274371650999525
10
55.241642612489926
20
-22.508357991438061
42
-0.044486516857218494
10
55.648671839183933
20
-23.194814095789376
42
0.021328072276598983
10
56.132531709266047
20
-24.09086302315464
42
-0.0035586923420015413
10
57.264659750420947
20
-25.917729370890768
42
-0.053399942632094854
10
57.947872595248938
20
-27.497339287683474
42
-0.12879042453899253
10
57.989394793644912
20
-28.794869799880058
42
-0.11392288057451319
10
57.725445405460938
20
-29.282186910413767
42
-0.1169718884296938
10
56.780622356787944
20
-29.892826961193979
42
-0.056310773570698844
10
55.023294898211915
20
-30.334940266413135
42
0.013335399881698641
10
53.308477881412159
20
-30.648069611783232
42
0.00018296484614983185
10
49.239402163095207
20
-31.504062764056997
42
-0.024763053058401114
10
44.8067772274809
20
-32.184563570313273
42
0.0137960765019961
10
43.714675140920001
20
-32.28775600697108
42
-0.018376674844098141
10
42.001014099883335
20
-32.497994538957073
42
-0.16281333685239527
10
40.480999446939343
20
-32.124901985656379
42
-0.045094798794592876
10
39.191654302877495
20
-31.108573008754234
42
0.016766566469600803
10
37.587150896189016
20
-29.772715795075079
42
0.075112862495298402
10
36.026635771636833
20
-28.934095165279977
42
0.16623134643519163
10
34.727759814918628
20
-28.976646682549575
42
0.11569128150089299
10
33.882944712773231
20
-29.609524531630562
42
-0.20277380409069806
10
37.071487017656835
20
-30.215489355029366
42
-0.097000006671605563
10
38.910028046106632
20
-31.990774531630684
42
-0.063308675728109623
10
38.24591205005342
20
-32.002757330328677
42
-0.066580235282687431
10
37.182055207864799
20
-31.70576025012997
42
0.013447332450411589
10
36.335190106241221
20
-31.366766331256976
42
0.13826495913328982
10
34.586896418767225
20
-31.194364177575071
42
0.096670467296296553
10
32.137815871148213
20
-32.159379376442359
42
0.075849411581402029
10
30.707944712773219
20
-33.313691198297278
42
0.073617259563601961
10
32.3529207533213
20
-32.711127082211576
42
-0.026176258112904083
10
33.932971810249128
20
-31.991034778745675
42
-0.11743439434408744
10
35.41447926214444
20
-31.817428632843576
42
-0.068638564349201486
10
36.588678093410735
20
-32.172916982363176
42
-0.068218311364702119
10
38.380861379439907
20
-33.313691198297278
42
-0.01888415497227636
10
37.741790431938675
20
-33.672929010316864
42
-0.023978223756399804
10
35.703034329999227
20
-34.581133142673366
42
0.027854709393999488
10
33.882944712773231
20
-35.430357864963973
42
0.078834667907699579
10
35.390420258686348
20
-35.247905832699274
42
0.037087280341301605
10
36.501256653362134
20
-34.839628806102901
42
0.0038633279462916333
10
37.780373446054725
20
-34.237548861018183
42
-0.068515401422695854
10
41.371759219556658
20
-33.11643613914336
42
-0.047414927301699619
10
45.260028046106626
20
-32.784524531630566
42
-0.019861298115103794
10
44.88174374678109
20
-33.209136332688395
42
-0.019869699070794472
10
43.545904061933513
20
-34.439379660034575
42
0.045950892687703575
10
42.522050518727035
20
-35.515779435209474
42
0.14615636481130587
10
41.82044471277333
20
-37.282441198297271
42
0.022551250708000004
10
42.507621114637601
20
-36.58927591224861
42
0.007001395048096928
10
43.847628709156425
20
-35.061300221266784
42
-0.089021833707300921
10
46.176168269526428
20
-33.220046414600674
42
-0.048342007433797907
10
48.685735187608955
20
-32.186482674246065
42
-0.032832075461899819
10
52.15457293185306
20
-31.360017057439951
42
-0.013018042231399246
10
53.835679492056926
20
-31.133801500035286
42
0.028839887593999414
10
55.99964208320894
20
-30.714530379123673
42
0.069959091815798444
10
57.499449940814941
20
-30.052219653309862
42
0.14521548584290003
10
58.328594050541938
20
-29.055488581923576
42
0.15346231083391104
10
58.38386215565896
20
-27.434399071687857
42
0.06348140139090061
10
57.768516045321917
20
-25.868446756541278
42
0.017520605429395108
10
56.740174389004927
20
-24.099282808835589
42
-0.02697111447140773
10
55.843361379439926
20
-22.465774531630576
42
-0.10980540281479892
10
57.730225485481945
20
-22.380759203786361
42
-0.01406614242920632
10
59.153527190957931
20
-22.622160759188979
42
0.044598543304695322
10
60.605861379439929
20
-22.73035786496397
42
0.1356036788392492
10
60.702727690955939
20
-22.778449522812863
42
0.10080124503351583
10
61.419763813230936
20
-22.751806487124991
42
0.098032629059497819
10
62.10013751595794
20
-22.519119447832875
42
0.48597543415789418
10
62.144716715627922
20
-22.155084554373772
42
0.10103065938658384
10
61.734274000240916
20
-21.83436380560256
42
0.037092903213000426
10
60.674843606635953
20
-21.344325795822176
42
0.029657103626403079
10
57.883133071673932
20
-20.446337669219776
42
0.034325851240208732
10
56.637111379439922
20
-20.199617635675171
42
0.029631849837196328
10
55.433733069738203
20
-20.074253778405197
42
-0.0063515448453025855
10
53.852913579355921
20
-19.971006690975276
42
-0.048870851334302988
10
51.66685546956603
20
-19.489014951726627
42
-0.010508607496899958
10
48.62368483584661
20
-18.510969621664856
42
0.023510736279099938
10
45.26002804610669
20
-17.531296979852481
42
0.017889023222499145
10
41.209468866220348
20
-16.819643197543371
42
-0.087387700784002334
10
40.305543331812842
20
-16.532918211255762
42
-0.20105541609628463
10
39.86385014632225
20
-15.951546873408677
42
-0.13529789234550138
10
39.909912145663014
20
-15.049582233687577
42
-0.049809800075407279
10
40.531885752176734
20
-13.503940412897279
42
0.059807849785586994
10
40.823382650686128
20
-12.603868732325376
42
0.04185618520519014
10
40.871998710894019
20
-11.578753644623268
42
-0.024069911330903141
10
40.910108063867426
20
-10.487425582303276
42
-0.15220035220068803
10
41.379386363163945
20
-9.3773655846396853
42
-0.1238358841011078
10
42.891123306441507
20
-8.4351703674195768
42
-0.049960223253405253
10
44.676846895195524
20
-8.0415747523314707
42
0.024000826148997102
10
46.389004053422823
20
-7.7165258570780626
42
0.097421885461401916
10
47.640137877981431
20
-7.1482657933662708
42
0.19536178570121254
10
48.181177407474621
20
-6.2872936569889761
42
0.14661766690482489
10
48.036745348980517
20
-5.4309144165487684
42
0.11678247700991007
10
47.24490787362322
20
-4.4644643766140657
42
0.061535062811101146
10
44.995444712773242
20
-3.1511911982972767
42
0.083306033152098516
10
46.318361379439921
20
-4.2095245316305707
10
46.318361379439921
20
-4.7386911982973121
42
-0.00090960487916540318
10
45.691085709749935
20
-4.8746498395240714
42
0.11868606833159667
10
44.201694712773303
20
-5.5324411982972688
42
-0.018204217889790368
10
44.810392327822726
20
-5.4495676938007733
42
-0.16470954333159943
10
46.318361379439921
20
-5.7970245316305746
10
45.260028046106626
20
-6.5907745316305721
10
47.905861379439941
20
-5.7970245316306768
42
-0.2209730128541017
10
46.191968086036745
20
-7.1581887623484679
42
-0.033198385235802354
10
45.047635823009806
20
-7.4001277928100704
42
0.019007237373498947
10
43.937111379439983
20
-7.6297937983949531
42
0.021832043517596787
10
42.157907779018863
20
-8.2473567631798765
42
-0.043652569335201168
10
40.497528046106623
20
-8.7074411982972109
42
0.0045565287614000704
10
40.072831285345842
20
-6.9344887466429377
42
-0.022456563996897189
10
39.542339884691515
20
-4.3675115832058706
42
-0.10064064055509958
10
39.67823950635713
20
0.1604356607315266
42
-0.062395611166798273
10
40.877464892878223
20
3.2823072589990261
42
-0.066534990262402546
10
43.652681066329642
20
7.167558801702727
10
46.847528046106618
20
10.183015891444725
42
0.045856054324281303
10
47.240830151083443
20
10.885213515768763
42
0.030891580084403045
10
48.167933659256335
20
13.263566972279419
42
0.035762871048996961
10
48.95497591398744
20
16.307657773573435
42
0.071416655568306356
10
49.008642416704632
20
18.555168835156422
42
0.067978672310807772
10
48.436364583976292
20
20.465948402944512
42
0.020635126725797655
10
47.072330656847271
20
23.292114259296341
42
0.046165298980203752
10
46.003008836395296
20
25.117859040217105
42
0.0002422940200947639
10
44.785622155633433
20
26.765616396765832
42
-0.067645765838595273
10
43.600560539697923
20
28.863392135036023
42
-0.10748302355279654
10
43.206610727725717
20
32.302942030110515
42
-0.051058969111903801
10
43.763724164815926
20
35.149974238338345
42
-0.027925573136601656
10
45.260028046106626
20
39.182142135036031
42
0.11866716880660096
10
43.877779414566518
20
37.545901361231223
42
0.028783802310910794
10
43.590188067997019
20
36.886391772759637
42
0.023786048406803723
10
43.084257554785921
20
35.166739489168691
42
-0.024473283779701323
10
42.614194712772992
20
33.625892135036231
42
0.0025001996030365654
10
42.161938286759224
20
33.991552181097433
42
-0.056146346663601195
10
41.30850667032901
20
34.819608716023829
42
-0.18881401949870161
10
40.884525381027537
20
36.188332665392728
42
-0.023790832640305206
10
41.026978785270515
20
37.081483876852232
42
0.18008347061940308
10
40.781364407582927
20
38.705336942366827
42
0.091100661938994118
10
39.63596701100694
20
40.178820335976226
42
0.076959717219200557
10
37.587111379439918
20
41.563392135036025
42
0.025277320410507391
10
38.093936351465317
20
40.969480053260163
42
0.0054170539332054467
10
39.187887406396314
20
39.818990163286145
42
-0.050984797970890582
10
40.06983799228783
20
38.631146097940132
42
-0.12003058646228926
10
40.369023805998836
20
37.663090611295125
42
-0.064419999570608025
10
40.196053937947042
20
36.48547227785933
42
0.1532240160314948
10
40.25066811416081
20
35.213392135036038
42
0.057529485296707483
10
41.260319127897212
20
33.501403743498159
42
-0.023223458198598793
10
42.348623277011832
20
31.860422132207926
42
-0.12063269274839501
10
42.878778046106625
20
29.657142135036029
42
-0.062469517764396645
10
40.739267344103951
20
30.956374068961708
42
0.017572417441993997
10
37.487628203292253
20
33.207668776234556
42
-0.0007742292676043087
10
33.618361379439918
20
35.742558801702742
42
-0.051950797924599598
10
34.941278046106618
20
40.240475468369432
42
0.17308567338840186
10
33.707639935314418
20
38.786432660169737
42
0.058054761267000404
10
33.35377804610664
20
37.330058801702734
42
-0.045575645423706575
10
32.443242192019881
20
38.127506482934891
42
-0.0067790197701001953
10
31.318034771423839
20
39.310081361929733
42
0.082628534295798792
10
29.649611379439918
20
40.505058801702731
42
0.023862690436194371
10
30.172621195917412
20
39.837116459049611
42
-0.0054465927194889373
10
31.304457644020516
20
38.534858466561623
42
-0.092725541812300888
10
32.295444712773353
20
36.800892135036023
42
-0.029490823044003911
10
31.152426051609602
20
37.211109327902236
42
-0.026087719705000015
10
28.849336227595813
20
38.382452511051554
42
0.026875430795101692
10
26.584283402884523
20
39.524967421922824
42
0.064563565194600075
10
24.559617439552824
20
40.108257065893937
42
0.041299189740598451
10
23.010232647923988
20
40.148124863455024
42
-0.012941744785397067
10
20.901434208027219
20
40.117898309951237
42
-0.068901332662100259
10
19.536239953460822
20
40.388173379052432
42
-0.057728700279998046
10
18.401546916015732
20
40.99402389921962
42
-0.044281518285799078
10
15.976680272849128
20
42.891001542452827
42
-0.077884948883900532
10
14.685646284754782
20
44.620398694461755
42
0.012895555872104175
10
14.071946039353126
20
45.676810988567134
42
0.13920868034489856
10
12.716278046106641
20
46.855058801702697
42
-0.011761169839901083
10
13.799524480756439
20
44.842100942065592
42
0.020482971983001856
10
15.362111379439931
20
42.092558801702744
42
-0.012606116229697022
10
13.573303206216522
20
42.865976789975235
42
0.044288719615197411
10
11.019962922362334
20
43.740400337198828
42
0.080410997106400928
10
9.5957806713388312
20
43.820140591377921
42
0.20818708807970043
10
7.9537780461066223
20
42.886308801702739
42
-0.051408389244100905
10
8.9856567483148169
20
43.037859472714345
42
-0.076856608413100366
10
12.087500230933921
20
42.743085386232728
42
-0.06425909343740073
10
13.611563455456029
20
42.146130213174828
42
-0.11914627931289987
10
14.56836137943991
20
41.298808801702769
42
0.012708449241698486
10
13.677669053659766
20
41.255369976075507
42
-0.0014729214974023559
10
11.825614595964037
20
41.120412469263137
42
-0.068777552114600196
10
9.5412780461066244
20
41.298808801702727
42
0.19934150340959997
10
11.431494820921145
20
40.424142754059943
42
0.03399256008799903
10
12.755699740933215
20
40.455830919358824
42
-0.047550722963600141
10
16.062147175315143
20
40.377967407223721
42
-0.11395042115249912
10
19.330861379440467
20
39.18214213503623
42
0.0027513678042012987
10
18.31726353767759
20
38.88813346365157
42
0.0020221268923991992
10
13.199133041115477
20
37.33455324122319
42
0.00049438308593511334
10
11.032091823396378
20
36.700488879920847
42
-0.014057550219301026
10
9.7955019265216254
20
36.293329631014331
42
-0.068624093917902251
10
8.4829447127732323
20
36.109430182508724
42
-0.076925698271100962
10
6.7462161963130978
20
36.503243748555548
42
-0.020343780671203505
10
5.0509676573202391
20
37.218566603410316
42
0.024811580128797511
10
3.7204447127732525
20
37.768367803625317
42
-0.015312290801393454
10
1.5829509057895277
20
38.573446256373828
42
-0.073029927418601454
10
-0.15079044910767897
20
39.648400651608526
42
-0.15890674887109985
10
-1.4268622880704751
20
41.673995158539832
42
-0.082801470331802074
10
-1.4632051766155709
20
43.546279276143594
42
0.0078724845126958865
10
-1.307386005097273
20
45.028798515081135
42
0.14068923020929866
10
-1.7332858872994934
20
47.203178371958181
42
0.019521465078400663
10
-2.3649719538933662
20
48.442558801702717
42
0.0082576890075986183
10
-2.6646490852789722
20
48.86870391971523
42
0.049067674963610294
10
-3.0496024528694656
20
49.310806642505028
42
0.6682637472748022
10
-3.1234131699269678
20
49.289885911721932
42
0.077143558354144576
10
-3.1185432656660788
20
49.178841340835035
42
0.054974070451695514
10
-2.8941386205600779
20
48.442558801702731
42
0.036103118620088609
10
-2.761635791588712
20
47.692431497369803
42
0.0023335278037798961
10
-2.4220111871884717
20
46.435681920884527
42
-0.16952840443300221
10
-2.6295552872267702
20
44.73839213503603
10
-3.3781848219044743
20
45.138482597598532
42
0.045232818930098576
10
-4.365148244839574
20
45.582423805984327
42
0.1873070864803984
10
-6.3337219538933702
20
45.532142135036025
42
-0.12749302766919932
10
-3.9071450595005675
20
44.167090099384929
42
-0.090136261739597379
10
-2.6518580237792788
20
42.292768028127632
42
-0.02446531768790846
10
-1.8358052872267767
20
40.240475468369432
42
-0.068252080082601044
10
-4.7256450842904876
20
40.955527478617938
42
-0.057616958641399277
10
-8.2531432055641343
20
42.838814533564417
42
0.021026959084800893
10
-9.9474205844915726
20
43.916272282948334
42
0.13130749484400009
10
-12.948305287226775
20
44.738392135036023
42
0.043811051022197629
10
-12.069331204587572
20
44.010105686374231
42
0.032662455175597703
10
-10.476642105750573
20
43.089943209602595
42
-0.019705200872601338
10
-8.2452041595476828
20
41.903138830034536
42
-0.078431103523297824
10
-6.5983052872267773
20
40.505058801702731
42
-0.065985817984199446
10
-8.7526489235787253
20
40.619641056118532
42
-0.021403918289204616
10
-10.833581372355162
20
41.116311533191123
42
0.034803890377201281
10
-13.281311555846948
20
41.566067306765014
42
0.0025763888709865951
10
-15.170081072005177
20
41.731787817384934
42
-0.034259548495299628
10
-17.448284720992756
20
42.091708577831817
42
-0.020978809446201039
10
-19.129653121879372
20
42.635661433543234
42
0.047024429083699977
10
-20.713129655395072
20
43.00431366186784
42
0.16481743050680159
10
-22.473305287226761
20
42.621725468369426
42
0.0082231297825085259
10
-22.042842322488283
20
42.465302689440534
42
-0.023759543964400404
10
-20.704624973474175
20
41.953252696889329
42
-0.12984368467499996
10
-19.562888620560077
20
41.034225468369428
42
0.15807914998380129
10
-21.989958903790473
20
39.608733511512831
42
0.046590752995398013
10
-23.220344705106672
20
37.847804286321029
42
-0.041307713035902673
10
-24.478572702452475
20
36.08419038356633
42
-0.062279299860501749
10
-25.479235296401875
20
35.209501260193228
42
-0.08431185257149855
10
-27.546163161729584
20
34.369638994265529
42
-0.046183515236698426
10
-30.939971953893377
20
33.890475468369424
10
-30.939971953892194
20
33.36130880170272
42
0.002432997312181032
10
-29.818923356215269
20
33.358904968641824
42
0.055365875884900627
10
-26.971221953893373
20
33.625892135036032
42
-0.17301419560600023
10
-27.960919936964679
20
31.668245166422537
42
-0.09362234061309907
10
-29.520262881975071
20
30.675864224747926
42
-0.067282284167599501
10
-32.527471953893382
20
29.921725468369431
42
0.18602157497740054
10
-31.193449526369072
20
29.313028142356927
42
0.044839535995799491
10
-30.695683534832771
20
29.32571025613813
42
0.076287988327001344
10
-29.233665909307387
20
29.762076059474325
42
0.030116800237900782
10
-27.813272418399304
20
30.499058904517913
42
-0.01647031191050273
10
-26.442055287226776
20
31.244642135036031
10
-26.971221953893373
20
27.805058801702728
42
0.21756566424250029
10
-25.674888018336716
20
29.264333165887457
42
0.004865317414909677
10
-25.224681677683868
20
30.98027075581955
42
-0.023440729572901588
10
-24.288023717468686
20
33.417768544885455
42
-0.0042915232958022093
10
-23.057860895025971
20
36.181861601138927
42
-0.036495352607097027
10
-22.014181419637374
20
38.242778711064432
42
-0.14352971199080075
10
-19.992368045489478
20
40.128025039070636
42
-0.085540042239899125
10
-17.49223437988508
20
40.889070277668637
42
-0.053173992758800227
10
-14.668843503283988
20
40.96723644580053
42
-0.052607124784200689
10
-10.567055287226776
20
40.240475468369432
10
-10.567055287226761
20
39.711308801702742
42
-0.042466144378800148
10
-13.301903445076036
20
38.44767160348254
42
0.00033262816159493222
10
-15.680206470719657
20
37.515840930793246
42
0.038875322979700019
10
-18.09215457787268
20
36.292509605414025
42
0.089764424479001459
10
-20.277601035674479
20
34.278325749939135
42
0.17100691157590051
10
-21.15950960571989
20
31.390401151356837
42
-0.0051059160852222184
10
-21.183914986129878
20
29.838738586992129
42
-0.076056344888601135
10
-21.428176837740274
20
28.571264542438037
42
-0.23295177085350149
10
-23.129921864803869
20
26.94039095862032
42
-0.059145770044096449
10
-24.771860302556728
20
26.58051139816277
42
0.004968827428086635
10
-26.282399840535824
20
26.388550236292836
42
0.019040924754804317
10
-27.557570324459178
20
26.12008797404863
42
-0.077750050094803097
10
-28.823305287226763
20
26.066481944453834
42
-0.034362260208201677
10
-30.158557860923473
20
26.416798360317127
42
0.050197561543398078
10
-31.733721953893379
20
26.74672546836943
10
-29.617055287226577
20
25.159225468369506
42
-0.0062526283111101763
10
-31.74849954462417
20
24.344654884797734
42
0.072961261509601139
10
-33.585805287226776
20
23.307142135036027
42
0.045949306742603849
10
-32.439597954578794
20
23.370125709612338
42
0.049217710598800792
10
-30.183585021386069
20
23.959943092964174
42
0.012952578165800024
10
-27.554181812569183
20
24.980810466278225
42
-0.029744902776201385
10
-25.383721953893378
20
25.68839213503604
42
-0.08740385191500076
10
-26.322152253269678
20
23.737831285107625
42
-0.030852186302399203
10
-27.535754386200022
20
22.218941332187498
42
0.011742001603603638
10
-29.087888620560072
20
20.396725468369429
42
0.064282295706002635
10
-28.297960373418981
20
20.693074288179623
42
0.078553254062200373
10
-26.95342355120561
20
21.749770409576197
42
0.0215840566097989
10
-25.201331921843469
20
23.807831587694626
42
-0.052680719248799857
10
-23.796221953893379
20
25.159225468369435
42
-0.049801780567699266
10
-23.678781825265872
20
24.065242723277123
42
-0.098184163965899587
10
-24.294081379022678
20
20.844044854510337
42
-0.084249205588501117
10
-25.338478779711075
20
19.077957863841931
42
-0.18127721916470199
10
-27.480851760126079
20
17.835757513397127
42
-0.039719651020999634
10
-29.145143179880574
20
17.664957007298231
42
0.028299004117296658
10
-30.747056612889772
20
17.500674635820825
42
0.13530764417479843
10
-32.527471953893468
20
16.692558801702724
42
0.0189175815342034
10
-30.240919919405055
20
16.781150382130715
42
0.012713297889299213
10
-26.177471953893377
20
17.221725468369424
42
-0.1476829421720029
10
-27.660467951490769
20
15.509130521883236
42
-0.077216248090702086
10
-29.318958725070402
20
14.870816574861525
42
-0.010284072696601233
10
-30.847630526225885
20
14.541268236964237
42
0.060005324596800344
10
-33.132968047692472
20
13.778283357799729
42
-0.015970749888195863
10
-34.543977091673675
20
13.217714767290833
42
-0.085237569487300019
10
-36.704550637746465
20
12.884629560793005
42
-0.015265345330204355
10
-39.175291928153676
20
12.991384046160929
42
0.037619217382402231
10
-41.069770263835778
20
12.934547882681127
42
0.11157556264750068
10
-43.11080528722723
20
12.194642135036048
42
-0.0081367190205079622
10
-41.744599983569479
20
12.170195968461798
42
0.0005192158645155805
10
-38.450560644539713
20
12.066071401648726
42
0.035481168318402437
10
-35.419418580781382
20
12.216085161406838
42
0.052436416159098012
10
-34.143472944730419
20
12.509236750661582
42
0.013078823782402785
10
-32.203842064363386
20
13.296499613852333
42
-0.063718035070002163
10
-30.410805287226701
20
13.782142135036148
42
0.0092462227925980203
10
-31.589791249789002
20
11.9162592925464
42
-0.015011725106202004
10
-34.162835070772275
20
7.8769022794679362
42
-0.043924307116602369
10
-36.496221953893382
20
5.0508921350360314
42
0.085347468405098006
10
-35.373534940757878
20
5.2666530436037187
42
0.13467874907159932
10
-33.89060542693047
20
6.438813175239928
42
0.038370402529504202
10
-33.206963938580486
20
7.5203946615744091
42
0.012803612458696014
10
-32.247328146937079
20
9.4955677971374293
42
-0.062794570423102283
10
-30.902193796020377
20
11.522318944358535
42
-0.044307504580198068
10
-28.996803384361925
20
13.258387942651467
42
0.0234878810012977
10
-26.621562039707673
20
15.215644426179132
42
0.075479548031500587
10
-25.010873352917578
20
17.301892064376688
42
0.020043652798898044
10
-24.22354128089318
20
18.867585376988409
42
-0.031317027287197756
10
-23.267055287226775
20
20.661308801702742
42
0.017825284817499943
10
-22.959696335270682
20
19.842931878825119
42
0.13054351710439921
10
-21.414971953893378
20
17.75089213503604
42
0.03483743471230262
10
-21.66500922349837
20
18.716096638903725
42
0.0237673020866985
10
-22.30012106917107
20
20.365663143475935
42
-0.049770093517000895
10
-22.85560184154307
20
22.150623269897025
42
-0.13589680023109887
10
-22.659712686286969
20
24.564642906712926
42
-0.057225376612297277
10
-21.832555549902501
20
26.052062062080793
42
0.014357530924005097
10
-20.955255169645376
20
27.379792531198028
42
0.080611493933396602
10
-20.431239346672481
20
28.733776401931543
42
0.045169403220900059
10
-20.236204265576877
20
30.433888465112531
42
-0.028408660335400567
10
-20.048694399733279
20
32.331128262141135
42
-0.1637033135797997
10
-18.608002980354179
20
34.930182683109734
42
-0.073359390367298993
10
-16.377786449297947
20
36.368974652887644
42
-0.026710868971198513
10
-13.477471953893334
20
37.548102057508743
42
0.020633938462496931
10
-11.489860672137182
20
38.44206285024633
42
-0.05605343633089923
10
-9.7733052872267816
20
39.03842008564083
42
-0.19544816407540028
10
1.60377804610662
20
36.800892135036037
42
-0.059792245943899487
10
0.46438761913093041
20
36.060839383035336
42
-0.078426085090900752
10
-1.703646710604563
20
35.429186055101241
42
-0.031272294785499595
10
-3.5919273268148961
20
35.308259375456899
42
-0.0072433119472903335
10
-5.9560738060497869
20
35.342427527274737
42
0.030847136476399192
10
-8.3404420536953676
20
35.255157910424835
42
0.11140759739980025
10
-11.625388620560063
20
34.155058801702729
42
0.042817511249598442
10
-9.7919551075343723
20
34.316457198151028
42
-0.022537767808900988
10
-7.9212219538934114
20
34.527036258113434
42
-0.017875372586497532
10
-5.9308103279572837
20
34.52537399492514
42
0.041165062078100612
10
-3.6878886205600701
20
34.684225468369426
42
-0.092285123463799093
10
-4.0956640406584723
20
34.358428553118031
42
-0.080860596736297044
10
-5.1188371904124725
20
34.066716911350326
42
0.046736309091104995
10
-5.9205616045327805
20
33.876069809501729
42
0.060533543296402377
10
-6.8614126690999662
20
33.384685516626021
42
-0.012250868137400634
10
-7.8392549180666737
20
32.759892527019026
42
-0.099633648081202231
10
-9.0987933191734847
20
32.259129727935743
42
0.0087564176035975147
10
-10.209887655922278
20
32.093204977407424
42
0.15279485857159991
10
-11.322143616978778
20
31.545534721222232
42
0.084951502673302218
10
-11.936376540913169
20
30.648659135955555
42
0.030726049686198499
10
-12.419138620560073
20
29.392558801702727
42
0.10443457838849948
10
-11.467273421910498
20
30.2283787926117
42
-0.011123923803306169
10
-10.97974718016718
20
30.802699441077031
42
-0.12011681602430113
10
-10.131071135611275
20
31.402580097507919
42
-0.075058673634097559
10
-8.8354814125032917
20
31.660606738694661
42
-0.0025732071661927355
10
-7.3920552872267828
20
31.773808801702728
42
0.039323126693299029
10
-7.3223815635994765
20
30.719441952719329
42
0.16911246237069757
10
-6.5983052872267827
20
29.392558801703103
42
0.004723158023394217
10
-6.6725405311943664
20
31.015674414919832
42
-0.07183304610320157
10
-6.5154902607101732
20
32.334452755449533
42
-0.23941034859789717
10
-5.6572488075925706
20
33.217598271473733
42
-0.089835921666400156
10
-4.5592347152763839
20
33.369167330972324
42
0.026806334110902576
10
-3.4233052872267762
20
33.433777932854539
42
0.082101096307301835
10
-1.6352677396245474
20
34.144744870506038
42
0.011067051418704191
10
-0.30883960508247571
20
34.922929577140224
42
-0.058814401181202097
10
1.4768869094511314
20
35.777340863149831
42
-0.090358068387600562
10
2.6621113794399194
20
35.943641690941732
42
-0.058503193084496558
10
4.2884071893101083
20
35.656577097014839
42
-0.0081629732395080753
10
6.134653547584433
20
35.097640868468929
42
0.060830196463198788
10
8.2183613794399371
20
34.732617621155633
42
0.056274469939099438
10
12.385371479129885
20
35.187620614537437
42
0.013447739786002028
10
15.559921198217371
20
35.942629926471042
42
-0.0064001225587967904
10
18.834351086619627
20
36.742309798424635
42
-0.040355280853497523
10
22.563857858353931
20
37.266706753579335
42
-0.056214164447298709
10
24.073620430092429
20
37.196529532417429
42
-0.065653968328700671
10
26.188791693286838
20
36.488439448924581
42
-0.01367449125939809
10
28.062111379439983
20
35.542481180560614
42
-0.01816458537869858
10
33.018029702040209
20
32.813601058042053
42
-0.034217060583201717
10
36.782515503523342
20
30.127180945245932
42
-0.061331221825502616
10
39.703778046106436
20
27.011308801702732
42
-0.010616801955297172
10
37.962621443578485
20
27.048780539800845
42
-0.014419647282598676
10
33.219594382427211
20
27.407321679407527
42
0.039003379644897147
10
31.304945433399517
20
27.512600649439833
42
-0.048582251218200978
10
30.286726051585333
20
27.590671184932731
42
-0.16648109587590132
10
29.290876527637835
20
28.170421364288426
42
-0.085307127671793742
10
28.847412020776328
20
28.97107791096364
42
-0.021532546703200008
10
28.538599737963629
20
30.008297599657535
42
0.054467371008500583
10
28.10142925183413
20
31.129070342219826
42
0.21396277648070325
10
26.860481161760529
20
32.005620165692726
42
0.07461973765480262
10
25.32333641633446
20
32.150381009854534
42
0.012142582284201949
10
23.618893559775437
20
32.075762361510229
42
-0.078094544811300556
10
21.569561501732849
20
32.303909435045213
42
-0.031478382864798662
10
19.416434233772655
20
33.077097443847919
42
0.026776314796398918
10
17.663269977900828
20
33.685503140475433
42
0.10634287949020044
10
15.218217903392098
20
33.822728224597725
42
0.015024079117894638
10
13.854819636310015
20
33.587000707720229
42
-0.030785766780199574
10
12.18711137943993
20
33.361308801702727
10
12.187111379439944
20
32.832142135036037
42
0.023309264563298078
10
13.430522956980495
20
33.01262668238553
42
-0.012041707344297239
10
15.126919780400431
20
33.305949670672433
42
-0.065659559775000056
10
16.830958389157718
20
33.28356487655843
42
-0.059572810210200118
10
19.543560389954532
20
32.514653461605029
42
-0.056951264362502002
10
21.447528046106047
20
31.509225468369277
42
0.0043948545242089524
10
19.823990489125102
20
31.070758982092649
42
-0.014049022388104911
10
16.317077067501046
20
30.200054457486534
42
-0.040205904386999031
10
13.510028046106619
20
29.865791786245531
42
-0.059106499778098287
10
10.364951495313125
20
30.214077954486825
42
-0.011962556552995161
10
7.9264251982922787
20
30.772007312857525
42
0.017592969880198185
10
5.5725280461066244
20
31.244642135036024
42
0.056941529001299479
10
6.1994999238679238
20
30.767003409600928
42
0.063766618921902968
10
7.6891947127732241
20
30.186308801702726
10
7.6891947127732161
20
29.657142135036029
42
-0.013127478791403507
10
6.7841542174936729
20
29.405053345506644
42
0.026330401184000186
10
4.82173259918632
20
28.855666529104926
42
0.13916678576679925
10
2.9266947127727851
20
27.540475468369266
42
0.0021205685307961524
10
4.8411033069595497
20
28.228624522111648
42
-0.016318739374101967
10
7.6924999811917063
20
29.156117166409427
42
-0.04584081685789989
10
10.145675297522327
20
29.645656985670733
42
-0.083873933527500749
10
11.155409000422924
20
29.576036794229829
42
-0.18311871821589909
10
12.187111379439926
20
28.86339213503603
42
0.045872248751000322
10
10.415953340500801
20
28.152854780011815
42
-0.0037213391675918498
10
8.4958633241618298
20
27.239915560650829
42
-0.050991755753498846
10
6.8954447127732266
20
26.74672546836943
42
0.20887839153590579
10
7.6276334780267243
20
26.48114963389213
42
0.067760909375096198
10
8.2776588317134081
20
26.58781253217462
42
0.049836746584704723
10
9.6633809742901313
20
27.168496893009237
42
-0.02218851095750117
10
11.128778046106545
20
27.888560649287705
42
-0.021976263790398368
10
13.550558472230936
20
28.67824507572443
42
-0.058179414065498973
10
21.410721370152142
20
29.880951615964729
42
-0.0021070205032273381
10
24.082654261731022
20
29.945596194001133
42
-0.093107700322399206
10
25.585796946982633
20
29.792249153658226
42
-0.18255824643319388
10
26.452312045614235
20
29.059483607094837
42
-0.16147032411249757
10
26.897770610207029
20
27.468275188162629
42
-0.30664625126849887
10
26.100877873473721
20
26.474073736873031
42
-0.069485085471998859
10
24.964405642580125
20
26.259389889478729
42
0.051376084799298491
10
24.083042241866721
20
26.117520495784333
42
0.11946848321460025
10
21.182944712773324
20
24.365475468369429
42
0.019628278533000563
10
22.464254650599518
20
24.744046194140296
42
-0.0037753247722736678
10
24.279655228457734
20
25.362810893580523
42
-0.053742799741097261
10
27.003778046106621
20
25.952975468369424
42
-0.044742855034994936
10
26.91620871144562
20
25.161713165215037
42
-0.13752468581599944
10
26.16929067405373
20
23.729742954377336
42
-0.042509786870598039
10
25.386359985485019
20
23.033414517364733
42
0.015777850046197282
10
24.093361379439926
20
21.984225468369427
42
0.20424889988879916
10
26.942872334112934
20
23.857713315924922
42
0.088331460276796822
10
27.79752804610666
20
25.952975468369427
42
-0.017757270703997404
10
29.665456735688171
20
25.842947282114554
42
-0.024916599452301107
10
33.709270200759043
20
25.256084273738079
42
-0.0018988656119262805
10
38.116278046105869
20
24.431621301702855
42
0.004960096612804255
10
40.094107605377033
20
24.125374405347834
42
-0.057175860086299803
10
42.061603333570417
20
23.570670413759835
42
-0.098415831820605829
10
43.314857383805716
20
22.685143788093928
42
-0.08924839986470641
10
44.365612601236428
20
21.047234449909531
42
-0.079267962401406294
10
44.995444712773235
20
18.544642135036032
42
-0.069962731215003807
10
43.863738221821514
20
18.54603250669523
42
-0.076125441134400978
10
42.03020492294818
20
19.143733200249859
42
-0.013015742409096961
10
39.915172794169436
20
20.295612437189028
42
0.073103534797499578
10
37.587111379439932
20
21.190475468369428
42
0.07404459832100474
10
38.999305813903845
20
20.243034268794766
42
-0.0089115941452006242
10
40.021340695918219
20
19.711789260734832
42
-0.14282856077369996
10
41.555861379439911
20
18.280058801702729
42
0.022553277278291581
10
40.944205684375078
20
18.294742837932031
42
-0.016496995726704638
10
39.567427199710522
20
18.293854131566228
42
-0.14135230091459991
10
37.820373867871865
20
18.867744733283377
42
0.0095726990475943491
10
36.97492698748944
20
19.361376743596431
42
0.11417104125960321
10
35.890569722205427
20
19.65121235479263
42
0.073910785491206707
10
34.787774213538128
20
19.457394029806935
42
0.094463910433897277
10
32.38334376576843
20
18.174353300397623
42
0.087856688147997686
10
31.766278046106635
20
17.486308801702734
42
0.013338315056882964
10
32.154616852969596
20
17.644841342188961
42
0.0053040804318945185
10
33.80371873272734
20
18.408252916827919
42
-0.052315142229903112
10
35.400943806826447
20
18.934442635279424
42
-0.15549551341379877
10
36.63046201353103
20
18.79768004567153
42
-0.16222838288311206
10
37.462188419990717
20
18.113788481260325
42
-0.28383186056009707
10
37.430552212721025
20
17.166287607263421
42
-0.085305164287189622
10
36.745363434748654
20
16.447779246808352
42
0.015627578037709498
10
36.074227303003539
20
15.871293120118038
42
0.020806770631006773
10
35.019963859383125
20
14.689482915016034
42
0.073002939049794449
10
33.618361379439904
20
12.459225468369411
42
0.023157665610903922
10
34.376456385437784
20
13.138326134268979
42
0.016471851182803383
10
36.254656322788016
20
15.164546827137332
42
-0.068968793232902809
10
38.645444712773234
20
17.216963565878135
42
-0.075256724077807632
10
39.656859506181199
20
17.629540681548029
42
-0.067716070463499742
10
41.865918676830127
20
17.797095936451633
42
0.019889321821299294
10
43.9777688040719
20
17.762996415612832
42
-0.06930717234920411
10
44.922994470823916
20
17.68628970732053
42
-0.22776055696320521
10
45.834877856851826
20
16.953779706779635
42
-0.13113917973050615
10
46.251394852692833
20
14.963620245050336
42
-0.10298179101979554
10
45.953736408777232
20
13.705192197339926
42
-0.073956249497205098
10
44.92122567680272
20
12.180264089384615
42
-0.011341470808588827
10
42.906666066864801
20
10.080604755237211
42
0.021395801664894999
10
39.417059794257021
20
6.192451863720839
42
0.041403001984796968
10
38.720204064505218
20
5.1663166833039309
42
-0.04247090597380225
10
37.792689490561941
20
3.9206630034207253
42
-0.11683624410229169
10
37.002642855778646
20
3.4176181202452276
42
-0.14789237664819643
10
36.075520424257931
20
3.5312407626261204
42
-0.03694856623419715
10
35.002775389407105
20
4.0612329799513889
42
-0.012669705766608469
10
33.676665499452625
20
4.760352229503237
42
-0.073019506411698923
10
30.223760765528031
20
7.4358483041644163
42
0.021664550476804559
10
28.500015631879322
20
9.139463014427939
42
0.088036339287898793
10
23.299611379439934
20
12.455256879858226
42
0.048839150102496343
10
21.918380286169356
20
12.819146083744226
42
-0.018180750746597533
10
20.285672207070146
20
13.158747416222827
42
-0.077215674522204333
10
19.267771459149536
20
13.614921687364534
42
-0.083599938302897303
10
18.286100975081148
20
14.571635759125206
42
0.0096488429361064713
10
17.378860526692431
20
15.654728520428129
42
0.11752152901789947
10
16.124636562206327
20
16.492476205204429
42
0.055825981632804222
10
15.113665245133532
20
16.672901422661027
42
-0.022241186661399237
10
14.023124867725748
20
16.78221549169492
42
-0.016740129194901376
10
12.415799252846531
20
17.092054716114628
42
0.059376887738802314
10
10.552603955105724
20
17.264246622371232
42
0.19803563080569997
10
8.7475280461066252
20
16.427975468369432
42
-0.061088554412001034
10
10.363561133073524
20
16.621965881600623
42
-0.1569228548887015
10
12.45169471277322
20
15.898808801702724
42
0.0236030148001986
10
11.430217072895054
20
15.487542800763929
42
0.0055920294743117601
10
8.9053560931887468
20
14.245623798247731
42
-0.041181651251896982
10
6.949929375504631
20
13.51238994220013
42
-0.10190693065449893
10
5.3992819199155306
20
13.386161007067232
42
-0.037350921973599356
10
4.1833102887695253
20
13.69446366677453
42
0.064828195624600279
10
2.6621113794399234
20
14.010479295782332
42
0.063988751231503646
10
1.4876769527576259
20
13.847997624931123
42
-0.04507248437249621
10
0.28086137943993172
20
13.648526259791929
10
-0.62287483368811347
20
13.627667644322933
42
0.02851564150760082
10
-3.3873077803346705
20
13.418940869144924
42
0.10637434734950187
10
-7.3920552872267917
20
11.930058801702719
42
0.05579854797400071
10
-5.2580199573557724
20
12.312378119430123
42
-0.021224314071897239
10
-3.0825626541844748
20
12.837819897242733
42
-0.10896881324400025
10
-0.77747195389336887
20
12.723808801702718
42
-0.030004989546299477
10
-2.3044482306645628
20
11.623591279641355
42
-0.0018289137941836938
10
-4.0854875546255869
20
10.49205856926652
42
0.08364869113189996
10
-6.5983052872267764
20
8.2258921350360197
42
0.097919486182205473
10
-5.4052322135446706
20
8.7736609823255343
42
0.03447960864470382
10
-4.4011744351625657
20
9.6053295075541261
42
-0.038241413985697317
10
-3.0198149348699976
20
10.67765458169832
42
-0.057952273193100583
10
2.6621113794399287
20
13.517558801702734
42
-0.096496923112302901
10
0.96658206512785005
20
11.360750949078859
42
-0.016078264494897892
10
-0.56958138671128644
20
10.049370973748722
42
0.048839944860801621
10
-2.1003886205600732
20
8.4904754683694268
42
0.11397478723090099
10
2.3153853367262296
20
11.635002325270731
42
-0.052697690841100389
10
3.3669285312503314
20
12.511564352587936
42
-0.13655399037849869
10
4.2867353855292176
20
12.799840043786633
42
-0.043996145964497552
10
5.4546538387770305
20
12.641930496270522
42
0.10195233514499656
10
6.3662780461066184
20
12.639406653773829
42
0.041767611240397483
10
7.8176432189766203
20
13.125714590076722
42
0.024125780652102965
10
9.8287583385982913
20
14.096666107772919
42
-0.029880396469898242
10
11.984906199451775
20
15.045778160251311
42
-0.021015895414999299
10
13.806473819801525
20
15.643909084027429
42
-0.059538677774801901
10
15.327674799962132
20
15.846083114652831
42
-0.14154323820719725
10
16.758249420688429
20
15.405040479014627
42
-0.14751753412110197
10
17.743361379439914
20
14.046725468369431
42
-0.035092953703404851
10
16.451125957921416
20
14.315778425303423
42
0.092860470943998213
10
15.097528046106641
20
14.413438388240431
42
0.083756945744000236
10
13.848739479622523
20
13.875771397454423
42
-0.024720303444197088
10
12.192334082060645
20
12.97438893157873
42
0.039122677115902803
10
10.279134353899126
20
11.76554092916053
42
0.1309590436872019
10
8.2183613794399353
20
9.0196421350360243
42
0.0050098342099966281
10
9.0006415816876935
20
9.7796290259251037
42
-0.027775977688900791
10
10.815266046566025
20
11.431317271507837
42
-0.094350077530999485
10
13.245444712773232
20
12.723808801702724
42
-0.051388077914898508
10
12.219828878846727
20
11.212231219633145
42
0.0064465362066025798
10
11.128778046106625
20
9.8133921350360307
42
0.043388948710703444
10
11.770127904976036
20
10.270840034599447
42
0.036014025759897296
10
13.013296556990133
20
11.532731510824936
42
-0.03239387318089814
10
14.419789127007625
20
12.97763839327683
42
-0.0948776856348994
10
15.626694712773226
20
13.687949725520625
42
-0.096342087328204318
10
16.386228964055427
20
13.749852664553725
42
-0.053989710127595875
10
17.745561070684946
20
13.406159223689611
42
0.017961926809497989
10
19.066278046106508
20
12.989187467626852
42
-0.01179719967590228
10
21.305408206552322
20
12.470968706875425
42
-0.053430840271499476
10
25.08791718892784
20
11.099447678184024
42
-0.12273584669339943
10
28.855861379439936
20
7.9613088017027236
42
-0.051553179097093692
10
27.454527548133516
20
7.3542705466385243
42
-0.079647065118900059
10
24.384686344882741
20
6.9515324906206182
42
-0.013727781096403541
10
20.968989230010244
20
7.1512828207307351
42
0.041645423226400032
10
18.272528046106629
20
7.1175537790180332
42
0.061866701242995162
10
16.798858550116236
20
6.7536035841308406
42
0.054439210732796069
10
14.732698036264686
20
5.7011736306606018
42
0.023569729362299192
10
12.11458444107453
20
3.8804484447078416
42
-0.044383567580902353
10
11.076884825866422
20
3.1799241753119318
42
-0.20395179271949546
10
9.3740068927860172
20
2.9695515357052149
42
-0.054258363249091203
10
8.2976051606209822
20
3.4218485116756634
42
0.0021332121662878257
10
7.0815420966354292
20
4.0761029888550331
42
0.12250515941400301
10
5.039830521183621
20
4.5162205257041297
42
0.042596904093298485
10
2.5446367372908094
20
4.2818389403014265
42
-0.027528221160898203
10
0.14389287790342514
20
3.9999346558257285
42
-0.079119318133302252
10
-2.0079945611208729
20
4.2538057234073277
42
-0.037142451123195974
10
-3.6882621386944745
20
4.9599467826854324
42
0.02015285447460138
10
-5.495348375876679
20
5.7730598006303335
42
0.076806400918603621
10
-7.1274719538933855
20
6.1092254683694396
42
0.024937322088002072
10
-6.3202952596619335
20
5.6475890379726179
42
-0.017778399932903095
10
-4.4681038311931758
20
4.6743736852924398
42
-0.10302801091180377
10
-3.1587219538933771
20
3.4633921350360293
42
0.02886945028659698
10
-4.5681052864926786
20
3.6792346433814331
42
0.099776984267201385
10
-6.5983052872267676
20
3.4385228519957272
42
0.035966982595294732
10
-7.8772949865149684
20
2.8549802036071386
42
-0.037863039918204125
10
-9.379462727319174
20
2.1967021193241303
42
-0.13416169127320141
10
-11.027545139088355
20
2.1334418295917272
42
-0.041818984095399817
10
-12.647647611577673
20
2.6947993209024257
42
0.038859035211901233
10
-13.887754072573381
20
3.0907612471232335
42
0.056933365109102171
10
-15.469757401503568
20
3.2115377986191329
42
-0.010050584957498745
10
-17.479824583519697
20
3.2245182872775406
42
-0.0097363419605034657
10
-19.417390642634555
20
3.4219197071601299
42
0.021642338241799765
10
-22.374618966454285
20
3.6036203982951265
42
0.065071547289902082
10
-25.648305287226773
20
3.1988088017027301
42
-0.019115196122392052
10
-25.426366944421773
20
2.853728521190932
42
-0.11092231672238752
10
-25.383721953893378
20
2.4050588017027237
42
-0.10826975849449597
10
-23.971939339353373
20
2.6498380818077183
42
0.012300724564508723
10
-22.737888620560138
20
2.6360403423826417
42
-0.033199180118001291
10
-19.202116949494112
20
2.6106154488287094
42
-0.0032943652316933169
10
-16.387888620560073
20
2.4050588017027246
42
-0.07634294091309976
10
-17.324911416703177
20
1.291233096159631
42
-0.090312443098700387
10
-20.484081274598772
20
-0.63278914628897343
42
-0.085557426483095916
10
-22.208721953893363
20
-0.99933611101698383
42
-0.045817448087602415
10
-24.404659087138686
20
-0.69197917081976301
42
0.038066064158401941
10
-26.238503524213375
20
-0.4351004519587669
42
0.090698190237204213
10
-27.858941857406087
20
-0.66194554913838188
42
0.033211739882296164
10
-29.568332586795268
20
-1.3983123709321665
42
-0.047278684182502917
10
-31.340074633697125
20
-2.0855631731990401
42
-0.010648084552302156
10
-33.585805287226769
20
-2.6220245316305784
42
0.032122196737590807
10
-33.001221299266774
20
-2.8574753337369785
42
0.15255097500470349
10
-31.134294428882182
20
-2.897692994867775
42
0.038589791149506981
10
-30.411498807382475
20
-2.6245929419365739
42
0.015695770960490719
10
-29.230890253488376
20
-2.0280838482436625
42
-0.089815918351096841
10
-26.98171797089698
20
-1.3131911717751694
42
-0.052296677107098628
10
-25.016157289664523
20
-1.3878343266345587
42
0.024258626323399566
10
-23.002471953893362
20
-1.5636911982972601
42
-0.066747757962702367
10
-24.191361842194262
20
-2.8079327919550616
42
-0.060818485710600008
10
-27.328185700129524
20
-4.7381205977446026
42
-0.024892652152299938
10
-31.204555287226775
20
-6.3261911982972645
42
0.1554227724843
10
-29.132682484919471
20
-6.284818689296773
42
0.038591492159895928
10
-27.932792462255435
20
-5.7594777779832516
42
-0.012201026227695522
10
-26.70663862056006
20
-5.1556755974570674
42
0.039654832595499186
10
-22.063538722874391
20
-2.5664010048528727
42
0.0038850018580181365
10
-18.928597043787509
20
-0.49863691064857996
42
-0.017921589674003261
10
-15.594138620560077
20
1.5287597383380169
42
-0.053943068321798834
10
-14.33706743105958
20
2.0997125748912282
42
-0.16781104649330184
10
-12.757540567422678
20
2.0246365878160693
42
-0.011818179263206644
10
-11.494921092735172
20
1.517316821521931
42
0.14325753381819545
10
-9.7733052872267727
20
1.2755532945514261
42
0.083461097915196528
10
-8.2053470872734717
20
1.9406171249975224
42
-0.025196929210102064
10
-6.660460231802575
20
2.7822569087107207
42
-0.1017891762172025
10
-5.144027990808409
20
3.0901327675749393
42
-0.022598976708706867
10
-3.4830558440100798
20
2.9942639714991226
42
0.045796279686195561
10
-1.8588154691283405
20
3.0060948250709361
42
0.028331595542401947
10
0.57577704599873658
20
3.4481927042271163
42
-0.02448897794340215
10
3.6711840494118242
20
3.9850957777611287
42
-0.072034943211501695
10
6.1016947127732246
20
3.8883137112181236
42
-0.074548147666100684
10
7.848594479309245
20
3.1728577203481922
42
0.005675124522691595
10
9.276694712773228
20
2.4050588017027152
10
9.2766947127732298
20
1.8758921350360329
42
-0.040307134399694522
10
8.2046872246181266
20
1.3887067077759305
42
-0.058067253016499995
10
5.3757499072783759
20
0.7528033788540357
42
-0.028159708855196152
10
1.9068493459559124
20
0.55544446959752136
42
0.027186430508595958
10
0.300353794464919
20
0.4703910401049316
42
0.20008687781749987
10
-1.8358052872267998
20
-0.76994119829728169
42
-0.025549844743300836
10
-0.74038361878030345
20
-0.40663934547407254
42
-0.044838365529497964
10
2.2909815400699767
20
0.12660213432012341
42
-0.0216568105154035
10
5.8371113794399241
20
0.28839213503601291
42
-0.016151521180280168
10
5.6090201521850345
20
-0.093211252006878131
42
-0.030391562077599906
10
4.3792469971704078
20
-1.7717491177494078
42
0.020563170449799512
10
3.1912780461066208
20
-3.4157745316305754
42
0.027528592623596977
10
3.9289113801086955
20
-2.8047141141326937
42
0.013815955634901546
10
5.6045359172127274
20
-1.117533390182484
42
-0.076020855248198502
10
8.5535277943805195
20
1.058310975893721
42
-0.03089697420410072
10
11.841000839383572
20
2.549134156023261
42
0.0028046394803190032
10
14.682644326854685
20
3.6329618486172199
42
-0.016509278036594754
10
16.592762631910929
20
4.3751081195871224
42
-0.083682151229204915
10
18.410294593055532
20
4.6794306384858384
42
-0.050010374707599954
10
20.777707904965887
20
4.3952909839668139
42
0.00074093131700474408
10
22.806616613828233
20
3.9715578434553263
42
0.081547095148699775
10
25.102291575098207
20
3.8294501514304526
42
-0.00075832794449117054
10
26.99874333268113
20
3.9984283452381164
42
-0.085313446224297471
10
28.845542241866724
20
3.8187281653603202
42
-0.11270505482540077
10
30.025036166178623
20
3.0106944555327173
42
-0.021993712782588541
10
30.860229937433719
20
2.1066917695700207
42
0.05702073762210208
10
32.339188108226665
20
0.79526244653797051
42
-0.011758771028298157
10
33.852522896074213
20
-0.37253834250666362
42
-0.10464767397789726
10
35.82074187053184
20
-2.752835407467471
42
-0.066077525336799781
10
36.642691357796117
20
-5.2541274138628484
42
-0.021801526421904263
10
37.057944712773704
20
-8.1782745316306986
42
-0.0083225068685038855
10
35.166472413137214
20
-7.489100631952768
42
-0.04106367478390064
10
33.158308991094017
20
-6.5077741574270771
42
-0.086299325307507307
10
31.840525804819841
20
-5.3353092081132658
42
-0.013448062909595482
10
30.793088647136734
20
-3.8790083838765717
42
0.052441366205804481
10
29.869937625764528
20
-2.8524331428448759
42
0.23617479003830266
10
27.797528046106628
20
-2.3574411982972694
42
-0.14409749663479759
10
29.97292920654192
20
-4.0514921220807629
42
-0.0048457310990156011
10
30.827546673808413
20
-5.1841050885302735
42
0.059259003183907338
10
32.042238268986615
20
-6.4222366923768694
42
0.058227760055700864
10
33.398112436980576
20
-7.1827976631841883
42
-0.023179042278397923
10
35.032987993566529
20
-7.9716008526854774
42
-0.13419914905430758
10
36.264194712773225
20
-9.2366078649639718
42
0.075770468441202457
10
33.871861263912216
20
-8.7856771381934671
42
0.010984476218298162
10
31.906608680627208
20
-8.7434066551702809
42
-0.052254402983401692
10
29.705792609797715
20
-8.5420763710881822
42
-0.0032946571277861852
10
28.327311039176422
20
-8.2367215615966654
42
0.080759336604993445
10
27.214190937331217
20
-8.1804958344732732
42
0.16181849301179971
10
25.680861379439929
20
-8.9720245316305718
42
-0.040062254049806276
10
26.818036643417518
20
-8.8787831884527684
42
-0.033865450085002795
10
28.711250851928899
20
-9.0445391020550794
42
0.025465105471898238
10
30.825072793550177
20
-9.2433901483684657
42
0.0075487345802048708
10
32.807069725691214
20
-9.256722496146562
42
-0.050154655628502624
10
34.839220114123336
20
-9.4699119512166625
42
-0.078176197476994572
10
36.264194712773268
20
-10.030357864963936
42
-0.015363157840099449
10
35.305369112424515
20
-10.753747004868755
42
0.0023287992531616053
10
33.546760998011123
20
-12.022962277971374
42
0.056036809952094882
10
31.766278046106613
20
-13.73452453163058
42
0.030112478936599782
10
32.508182753095817
20
-13.355571761987193
42
0.023893589076599747
10
33.864492246039731
20
-12.448345137995659
42
-0.02527525774510014
10
35.411935159277213
20
-11.434703322397668
42
-0.11671159404950167
10
37.587111379439918
20
-10.824107864963963
42
0.025601104450082329
10
37.654745070576261
20
-11.453889221436324
42
-0.0056981130009064202
10
37.91894176218802
20
-13.003740553485271
42
-0.083906747162203851
10
37.90325349113143
20
-14.157428473437871
42
-0.082865884170400389
10
37.473040929362028
20
-15.243220021985875
42
-0.064243708935698987
10
35.812428146285335
20
-17.373476242525363
42
-0.0045082365723881071
10
33.801509260104631
20
-19.374384866461273
42
-0.043689968132995805
10
33.013300787741343
20
-20.072372414121574
42
-0.16883653820339606
10
32.064270492186523
20
-20.417280789831167
42
-0.10206432772069036
10
31.13617301998902
20
-20.111817629754469
42
0.04019529584589554
10
30.33242319695723
20
-19.779520040961284
42
0.19153754517369054
10
29.624720196116332
20
-19.879048531584775
42
0.17540914763089827
10
28.86855471753482
20
-20.843655447421376
42
0.046223972333709465
10
28.595896245243431
20
-21.835212052486668
42
-0.13605189049379643
10
27.842878845420241
20
-23.343547711544865
42
-0.072928427351301769
10
26.560257959620863
20
-24.336367441667033
42
0.0037443382199980374
10
25.218056701249427
20
-25.147313310151862
42
-0.095452929018415456
10
24.386859347109223
20
-25.427746653920483
42
-0.2241273684419143
10
23.832217758631025
20
-25.202098142572176
42
-0.08574101761758969
10
23.620588095433011
20
-24.868239536732077
42
-0.069438619089798426
10
23.39581711914483
20
-23.916852459516683
42
0.036271500410992336
10
23.176474182054847
20
-22.792189783554207
42
0.021668634559400522
10
22.675098193009404
20
-21.433471969751352
42
-0.030986261285096121
10
21.851905335856134
20
-19.041018059137578
42
-0.11134991076710722
10
21.809214625493031
20
-17.703274531630569
42
-0.10100567337069759
10
22.57998068123544
20
-16.197324550873613
42
-0.0020593783671932751
10
23.340383349075928
20
-15.210313091735479
42
0.1499918877384967
10
23.850100242358007
20
-13.794290502151068
42
0.15210097170760001
10
23.242309978120133
20
-12.106809629777286
42
0.022052499159912718
10
22.770444712773216
20
-11.617857864963932
42
-0.014997585219296046
10
22.942028762207933
20
-12.109802525314471
42
-0.067942892571302996
10
23.242434240952221
20
-13.67270110836877
42
-0.14824237637660284
10
22.817981046029221
20
-15.254977451432667
42
-0.10255749153120113
10
21.447528046106644
20
-16.644941198297346
42
0.012255847051195444
10
21.299006392838223
20
-15.440672982857267
42
0.086199882522198068
10
20.895917938075321
20
-14.259545713201476
42
0.14517449678439842
10
19.595444712773229
20
-13.205357864963963
42
-0.068421865835001594
10
20.519021087318826
20
-14.915479219744672
42
-0.091569263692098946
10
20.722010378906425
20
-15.914435913817773
42
-0.29866465866918568
10
20.274396073066725
20
-16.712857420514769
42
-0.15028237725380222
10
19.330594922835918
20
-16.802897480595075
42
-0.091719550186002877
10
18.297117111663521
20
-16.427571104241562
42
-0.056513376427497909
10
16.241748426261523
20
-15.059082231698069
42
-0.051913352056601046
10
14.914566789270534
20
-13.792691851160473
42
-0.14891287572590275
10
14.427755404710229
20
-12.698439498056075
42
-0.16915452569030229
10
14.804911886131634
20
-11.509578193172366
42
-0.052732042761603357
10
16.004806941222036
20
-10.213307807335068
42
0.033621223961903868
10
16.94419282220203
20
-9.1805997600595646
42
0.13409889161829971
10
17.364213818048732
20
-8.17800807502657
42
0.20505101633170114
10
16.728335929298122
20
-6.133412331825669
42
0.093733147384203575
10
15.425717293783725
20
-5.061123581700075
42
0.11524405589820039
10
12.417044490534829
20
-4.1708489957828725
42
0.096038662816403095
10
10.345928731896521
20
-4.3919685374847708
42
0.10711160804969878
10
9.2766947127732262
20
-5.0032745316305753
42
-0.050112368385199099
10
12.146205882262722
20
-4.8092143966701677
42
-0.12915201993159939
10
15.097528046106667
20
-5.7970245316305657
42
0.026124782006496421
10
13.132447264434848
20
-6.5550148775336652
42
-0.0094330162990962866
10
10.861565747673726
20
-7.4970052163555687
42
-0.083380048738997986
10
7.4246113794399271
20
-8.1782745316305743
42
0.19221619459180003
10
9.1949153023291323
20
-8.8253409701731673
42
0.093507354656899508
10
10.630773165401042
20
-8.4388185779394682
42
0.028390437004498677
10
11.920510661132035
20
-7.7694085204681667
42
-0.024950382061705426
10
13.388080976023423
20
-7.029012896760074
42
-0.0729530834752012
10
14.830171234634024
20
-6.6682617419006647
42
-0.23844592168279891
10
16.267389113962324
20
-7.2738358335179694
42
-0.28617444864449615
10
16.511583690743532
20
-8.5624461941324679
42
-0.091736166605208433
10
15.819206686801518
20
-9.6410035722808871
42
-0.022797959413796635
10
14.632483297279427
20
-10.879791946431478
42
0.043636765934197908
10
13.872315159339729
20
-11.812133076594176
42
0.16038345073349866
10
13.667247811415933
20
-12.67148362113967
42
0.10570696286360794
10
13.943729243369326
20
-13.500810100596979
42
0.048302172041995446
10
14.579899492851361
20
-14.374776949515837
42
-0.013609829804107328
10
15.362111379439771
20
-15.322024531630554
42
-0.015472838969602021
10
10.69116883026982
20
-14.108082393381064
42
-0.026798902288398277
10
7.1524596216509151
20
-12.827102957223062
42
-0.047415650827501897
10
5.7262180465813239
20
-12.069392247644831
42
0.0054245857561012779
10
4.2891981649798163
20
-11.090110501406567
42
0.063642334746202858
10
2.9889972582452282
20
-10.434920448330072
42
0.17137177357409461
10
1.3374103579436281
20
-10.393086290886664
42
0.037797046036391682
10
0.45896619960812457
20
-10.772831487481369
42
-0.09809854789089871
10
-1.3342457273177737
20
-11.337528908242167
42
-0.05877779451119769
10
-4.2179531642727852
20
-11.22281448258466
42
-0.018588548683493598
10
-5.7017371688117535
20
-10.887219817980881
42
0.019550926308702466
10
-7.8354838750486602
20
-10.385899254277177
42
0.020265879140091356
10
-9.578263237514177
20
-10.196884929806771
42
-0.083498879572196941
10
-11.406437217960177
20
-9.6466781024451738
42
0.029775672962499496
10
-13.742055287226787
20
-8.7074411982972553
42
0.010090900833587109
10
-13.559122832444874
20
-8.9089492302278721
42
0.13346439824340084
10
-12.154555287226774
20
-9.7657745316305711
42
-0.10510147194350039
10
-12.988600241360471
20
-10.580722462441761
42
-0.056891781348298608
10
-14.074061400810074
20
-11.106623575353236
42
-0.0017738929439552432
10
-15.370891529514022
20
-11.579748336045483
42
0.0047301788575984452
10
-16.904104426964636
20
-12.265194110167641
42
0.015482074120900123
10
-19.072314426942082
20
-13.215373936290579
42
0.072545557941397054
10
-20.600098103697192
20
-14.203870054878688
42
0.014823975275201361
10
-21.63593148065527
20
-15.24242463376507
42
-0.093120473432494619
10
-22.928217115402187
20
-16.192545139142279
42
-0.029838348042901437
10
-23.909784593837475
20
-16.504526476354471
42
0.1186584759247989
10
-25.119138620560072
20
-17.174107864963979
10
-24.964331491864474
20
-17.175326336808986
42
0.0069564184847030509
10
-23.704080118860379
20
-17.184677919533272
42
0.10004102343370197
10
-22.474336797261977
20
-16.902116230595063
42
0.071203556376997074
10
-20.812835363848574
20
-15.705478368651599
42
-0.011320338497801449
10
-19.257199867546881
20
-14.300156985502568
42
-0.11941781538830019
10
-16.917055287226844
20
-13.205357864964189
42
-0.0048758990000992196
10
-17.751637912984272
20
-15.106820460251182
42
-0.035887239332299203
10
-19.422596673901467
20
-18.19982976440906
42
-0.069687189969195706
10
-20.922096785216262
20
-19.882506068828771
42
0.024308174350199829
10
-21.944138620560075
20
-20.878274531630669
42
0.082995567821799385
10
-20.689496959821476
20
-20.405064883600275
42
0.12021193201999998
10
-18.793361904798264
20
-18.449494734779158
42
0.018442341373398747
10
-17.950494116184071
20
-16.96057803531216
42
-0.024067427863195479
10
-16.652150995700474
20
-14.670068703943866
42
-0.056504511742598143
10
-15.192549459052971
20
-12.898808425796988
42
-0.13270334730720085
10
-11.889971953893477
20
-11.088691198297404
42
-0.010157328826396451
10
-13.108275103061672
20
-12.68122260748877
42
0.067333779228503601
10
-14.173027844175973
20
-14.574634337112775
42
-0.014778167988605248
10
-14.799254171269878
20
-16.023755611759178
42
-0.14563769302800275
10
-16.123305287226778
20
-17.438691198297267
10
-15.858721953893378
20
-18.23244119829727
42
0.091861141718899017
10
-14.543517500506184
20
-16.653854002627089
42
0.024724724996602686
10
-13.83400103054454
20
-15.318602892263106
42
-0.012929443813803638
10
-12.965933004386175
20
-13.631598815750365
42
-0.071284608791600909
10
-11.959188212758075
20
-12.301003351707569
42
-0.21447924729139931
10
-9.6515731399632827
20
-11.481546555825268
42
-0.18820848110240049
10
-5.5399719538893963
20
-13.469941198295208
42
0.0020710038259107388
10
-7.6532762572901927
20
-14.550264085531278
42
-0.093581554616102403
10
-10.302471953893374
20
-15.322024531630571
10
-10.302471953893374
20
-15.851191198297244
42
0.10263994458120392
10
-8.0988166734744951
20
-15.313364264434435
42
0.0012619829432298823
10
-6.4681166966682824
20
-14.558782085234972
42
-0.071919917330697108
10
-4.7387562675621808
20
-14.06248514949457
42
-0.064448002851100916
10
-3.3569316821169437
20
-14.156028050933076
42
-0.0028382929774863424
10
-1.8049263016325787
20
-14.44512169577788
42
0.085861303954601703
10
-0.094227747481442914
20
-14.41866314840318
42
-0.0056164917563060407
10
1.1340049056319212
20
-14.186336014945979
42
-0.14192817251360212
10
2.657791298773823
20
-14.355431509536164
42
-0.048816658429996364
10
4.0906978323160246
20
-15.177377692191376
42
0.062972585914798346
10
6.8231541905979238
20
-16.529737961950623
42
0.022407996151197949
10
10.864194712773973
20
-17.814665503768328
42
-0.0041277495185268716
10
14.032495922071524
20
-18.681937295115475
42
-0.040195637953200601
10
16.415190139621028
20
-19.60150549374266
42
-0.062225485831400799
10
17.915701487295827
20
-20.578494378602276
42
-0.12180462393150038
10
19.066278046106628
20
-22.20119119829727
42
-0.04211207670639984
10
16.926697445725239
20
-21.891506243508978
42
0.043389444107901
10
15.136102157040225
20
-21.665719399097867
42
0.13530556321090012
10
13.379449697417451
20
-22.101238131267166
42
-0.033685233179706613
10
12.187111379439932
20
-22.578752131728272
42
-0.10892882557039839
10
10.618967115971136
20
-22.564932469264679
42
-0.04878969863169922
10
8.8817181867521597
20
-22.028786999904476
42
0.015254259404595879
10
7.6466036911118263
20
-21.552851337793271
42
0.097066546833001227
10
6.1726657526207251
20
-21.323389835672664
42
0.24640483123499918
10
5.3177349743597135
20
-21.852997012404568
42
0.27853609122948519
10
5.2978151894337335
20
-22.331936279905182
42
0.15018225004551111
10
5.7921057668554177
20
-22.771851051702466
42
0.044999244978101108
10
8.3607256614109211
20
-23.899395300184828
42
0.0016934367004966724
10
11.351356750596622
20
-24.96522304073148
42
0.10441038360760155
10
12.18711137943993
20
-25.039906815159277
42
0.11429698490849553
10
13.065612495341874
20
-24.656599826776471
42
0.0063651674323078828
10
13.730745669191924
20
-24.167421987591773
42
-0.10550325117429818
10
14.568361379439921
20
-23.763030619887481
42
-0.11491140526380127
10
15.768062908116423
20
-23.825050452359065
42
-0.025883707752904848
10
16.949611379439936
20
-24.166252131728271
42
-0.065325053725102236
10
18.929505291205416
20
-24.949549633132872
42
-0.17132079522679602
10
20.027683509483431
20
-26.179118548548974
42
-0.1223370438732084
10
20.128466849649527
20
-27.364240305796557
42
-0.19876674004409967
10
19.132283627820229
20
-29.256192966327777
42
-0.037324864753794394
10
17.968221963794107
20
-30.101809645055368
42
0.03177962250670472
10
16.733322634157709
20
-31.009959253923366
42
0.20383741708240122
10
15.889769041766213
20
-32.669259049238079
42
0.043236049001090252
10
15.900389424570125
20
-33.732690911092497
42
-0.044316445978500527
10
15.947845637521628
20
-35.447579637389367
42
-0.15634805772309934
10
15.467151802515328
20
-36.581821818617883
42
-0.082052564448199389
10
14.372701650104229
20
-37.381466544517693
42
0.040900751105798966
10
13.245444712773098
20
-38.111113162306992
42
-0.0063956737095047511
10
12.400381652821434
20
-38.833187961442462
42
-0.039624320097900553
10
8.4829447127732038
20
-41.627960836358788
42
0.011725651806216257
10
7.9873042325339307
20
-41.934814063986963
42
-0.032609320578485791
10
6.9437261789567186
20
-42.512082334857183
42
-0.18010522382340796
10
5.8386825833079214
20
-42.618607139569882
42
-0.1487347286395975
10
5.1395077419675239
20
-42.082819094287359
42
-0.082690763825801969
10
4.656698002879029
20
-41.111222404507984
42
-0.078838294460608568
10
4.367613572973033
20
-39.210268440908379
42
-0.11629419611940046
10
4.7351726318165177
20
-37.654291019561789
42
-0.036231122808000928
10
5.777175779955531
20
-35.890515097890855
42
0.045744362755405117
10
6.6308613794399225
20
-34.372024531630586
42
0.11182803520151202
10
5.1125006598211185
20
-34.455570655849954
42
0.014241978099300022
10
3.7204447127732121
20
-34.901191198298058
42
0.0030812566480631479
10
3.7412261078262219
20
-34.283515062126682
42
-0.03230416812540237
10
3.8888653078531279
20
-32.766656388864476
42
-0.1083495036994044
10
4.4051857011867295
20
-31.537015083897067
42
-0.050411121660694121
10
5.1089914196032291
20
-30.821953786659975
42
0.053380199425103324
10
5.6938156720068269
20
-30.139699236593973
42
0.13331043330270928
10
5.8837414160931374
20
-29.587137931137679
42
0.28389862468621146
10
5.5624698270556303
20
-29.004146299217872
42
0.18669138503700136
10
4.7737517056184311
20
-29.016061078974626
42
-0.0022413526826087988
10
3.3975984630208256
20
-29.421787572937568
42
-0.12261761786199586
10
1.5322642872105372
20
-29.424435238058983
42
-0.14717317614459902
10
-0.69816387347897402
20
-28.154003348946183
42
-0.14379248052340077
10
-2.3568510997858705
20
-25.09521285575218
42
-0.15993810330290126
10
-2.0934168096856802
20
-22.537680154242182
42
-0.03339166589680214
10
-1.2931503988965698
20
-21.121739661815671
42
0.05068980687970092
10
-0.512888620560074
20
-19.55535786496397
42
0.10054638366781006
10
-1.3169007012461269
20
-20.294602586726814
42
0.015182468441998845
10
-2.0183284671827861
20
-21.305018725258162
42
-0.065404565262993777
10
-2.7074576561196757
20
-22.043749123371068
42
-0.22632744645739564
10
-4.2444264335777762
20
-22.343645834147871
42
-0.062246982142103696
10
-5.1920553391832041
20
-21.963064436499351
42
0.0076554116177911923
10
-8.2636626336059678
20
-20.412999939377478
42
0.044647376677304562
10
-10.567055287226786
20
-19.555357864963966
42
0.070956241241298554
10
-8.8290744668202308
20
-21.009536127456563
42
0.0024645399088138258
10
-7.392055287226782
20
-21.936607864963982
10
-7.3920552872267962
20
-22.465774531630579
42
-0.036186653837396755
10
-9.0501047555083556
20
-22.840502784470363
42
0.046461629434406439
10
-10.567055287226779
20
-23.259524531630582
42
0.11649911171500009
10
-8.4398629011321447
20
-23.234338522805462
42
0.0095900020587988445
10
-7.1380561934016864
20
-22.93053360321387
42
-0.081155881136495564
10
-5.2756550771640773
20
-22.790948481825978
42
-0.16220450222979221
10
-3.9792590005299786
20
-23.337886012653062
42
-0.1124560995775105
10
-3.4029550482758921
20
-24.281329099110572
42
-0.0020810171954007768
10
-2.9843580958156672
20
-25.425573448928496
42
0.019845966271201557
10
-2.3045193161147726
20
-26.880140734173676
42
-0.066336211710301976
10
-1.5712219538933925
20
-29.080357864963986
42
0.011606471984284914
10
-1.9417407384501688
20
-29.335291018435075
42
-0.042189300382597814
10
-2.9144631138361721
20
-29.945067091274467
42
-0.11850907585589684
10
-3.7530548421674679
20
-30.131873789573682
42
-0.046405051690804534
10
-4.7354523140768547
20
-30.026929989293688
42
-0.037428035735104191
10
-6.8458969432822663
20
-29.449477780327275
42
-0.061202228735301213
10
-8.6395647349602882
20
-28.62051028755106
42
-0.033136743094296227
10
-9.9833146677433788
20
-27.447923943728473
42
0.054277980696897071
10
-11.124839317093574
20
-26.601092410323979
42
0.16065676757769698
10
-12.796243867869874
20
-26.286814892372679
42
0.42849740049200402
10
-13.176075816887575
20
-26.781473094016981
42
0.098945897516102541
10
-12.97490755670227
20
-27.288905194137062
42
0.066877797558994784
10
-12.154555287226776
20
-28.286607864963965
42
0.054658505494899111
10
-13.801057103588676
20
-28.868774871498985
42
0.079631387606000317
10
-16.66350302562288
20
-30.952245072233545
42
-0.00049499907980467002
10
-17.966143527593164
20
-32.211869181767248
42
-0.071676693774497258
10
-20.241798966416571
20
-33.87484146481497
42
-0.096167977487905301
10
-21.679555287226769
20
-34.283916214573367
42
-0.15474836666260763
10
-23.102967405335875
20
-33.953294786053867
42
-0.084746192649201205
10
-23.962692537879683
20
-33.196073907065966
42
-0.028728093208896917
10
-24.751697294349274
20
-32.089140224684272
42
0.035930896852998981
10
-25.751413899923079
20
-30.70701891130998
42
0.10458360420810148
10
-26.534035553204024
20
-30.17778997059024
42
0.010607408203988972
10
-27.351443951748372
20
-29.877974121868263
42
-0.096684376995093607
10
-28.167792767488876
20
-29.385653340592356
42
-0.047128139210695939
10
-28.866567262325077
20
-28.592048767506473
42
0.038406370431392847
10
-29.617055287226776
20
-27.757441198297279
42
0.061736465582799417
10
-29.195306641982278
20
-28.752659949332266
42
0.11621364803780256
10
-27.918029234056021
20
-30.008500199864731
42
-0.0098858981747039724
10
-26.699458812742471
20
-30.82027845979697
42
-0.091176386955298616
10
-25.387925777454981
20
-32.221910086658461
42
-0.052193792197095516
10
-24.325388620560069
20
-34.372024531630586
42
-0.021913252864016349
10
-24.891926843464876
20
-34.337666640942771
42
-0.064340416091406435
10
-27.277626664499696
20
-33.768513230940663
42
-0.021824883698295789
10
-29.749605050887702
20
-32.736290300684502
42
0.017523344019604994
10
-32.049447997593582
20
-31.778747094204284
42
0.062416492303599615
10
-34.435987149932771
20
-31.215561104105689
42
0.12007980093740131
10
-36.956628397775276
20
-31.521008481095976
42
0.053335582060302929
10
-38.615548374796987
20
-32.421497942384498
42
0.0087508161762984062
10
-40.196499262516376
20
-33.521656540501077
42
0.09442686397220168
10
-42.23650383350558
20
-35.508349452650677
42
0.10069046956369873
10
-43.110805287226754
20
-37.547024531630612
42
0.040517549171599478
10
-41.479971430442333
20
-36.018745056094417
42
0.0025331609776186544
10
-40.180269556513757
20
-34.608405106411553
42
-0.036681197895705037
10
-38.485524735824079
20
-33.045259243046573
42
-0.15051309323189593
10
-35.173305287226775
20
-31.800007752048867
42
-0.057644297453917526
10
-34.302042114902662
20
-31.87150017331588
42
-0.023935864233803793
10
-33.343437090116936
20
-32.121640331890362
42
0.010547499728402118
10
-31.998305287226778
20
-32.519941198297282
42
-0.066136622276596876
10
-32.455430418781773
20
-33.472917844464064
42
-0.074099007756903326
10
-33.681741953925176
20
-34.79232104979728
42
-0.024364621249400122
10
-35.738947997151378
20
-36.258551192528962
42
0.036738899578004899
10
-37.247321370167576
20
-37.466028990032981
42
0.14902768703229866
10
-38.348305287226985
20
-39.39910786496413
42
-0.0034332031748876089
10
-38.020583712611234
20
-39.12868839195562
42
-0.0070426158515063276
10
-35.876933151314581
20
-37.444548295743296
42
0.021768738379104164
10
-33.917391275617511
20
-35.756875547374804
42
-0.0010721601110105284
10
-32.760375576406879
20
-34.594249594881184
42
-0.072872096144994097
10
-31.42607919599498
20
-33.669808705593475
42
-0.18394456049330862
10
-29.756874564756181
20
-33.578312490919281
42
-0.042141254508190618
10
-28.454572647231142
20
-34.054814012887995
42
0.020602076920596277
10
-27.235805287226761
20
-34.523363808262289
42
0.023592101987108236
10
-25.674055624317891
20
-34.88658921113867
42
0.0910395964604995
10
-20.885805287226759
20
-34.901191198297255
42
-0.046855900047098616
10
-22.602470569283
20
-36.890177392114119
42
-0.014129180712599568
10
-24.865751798998957
20
-38.951213093358149
42
0.029829214519800255
10
-27.06283176770021
20
-41.165646382143635
42
0.0056484119109999099
10
-28.911594882024005
20
-43.345812152094524
42
-0.032321512866798886
10
-31.343936501736877
20
-45.907949134635174
42
-0.056933115847199726
10
-33.350391995514777
20
-47.357753738733578
42
-0.12952768113479932
10
-36.496221953893375
20
-48.185393265354577
42
-0.11924613882330097
10
-38.263957145498885
20
-47.696629949519775
42
-0.034010624339105101
10
-39.410821309960923
20
-46.979211439946212
42
0.013945246627100711
10
-40.903543074585883
20
-45.935861284489476
42
0.06708583448640433
10
-42.268112827697372
20
-45.28501869885757
42
0.04185392859720475
10
-44.39606825775698
20
-44.841109378208664
42
-0.033294558236404113
10
-46.285805287226779
20
-44.426191198297275
42
0.15226340849171302
10
-45.408539615970682
20
-45.374920033275679
42
0.095256006788093581
10
-44.433550873988381
20
-45.652733492356077
42
0.010148527923598374
10
-43.532024913458287
20
-45.744086537681369
42
-0.14610981341669654
10
-40.442917927398682
20
-47.027804145227179
42
-0.1079560815802028
10
-39.142055287226782
20
-48.659524531630574
42
0.029416604758001612
10
-40.735192619373407
20
-48.785643797286127
42
-0.0035367326407913491
10
-42.906811410298566
20
-49.071362676603556
42
-0.072222685514203397
10
-44.996911392224277
20
-49.032019069889088
42
-0.013214618373598757
10
-46.390578048691076
20
-48.746149946268574
42
0.085076410033194785
10
-48.137888620560076
20
-48.659524531630581
42
0.13835072359309519
10
-48.32806564167457
20
-48.814174668228262
42
0.10592068673049661
10
-48.623028645193578
20
-49.407753096805479
42
0.051262283679198349
10
-49.020372970694979
20
-51.187715247639183
42
0.45204724495932475
10
-48.998995753010981
20
-51.265306456708075
42
0.10104241813819892
10
-48.915201584612774
20
-51.159424072659689
42
-0.069217998343505019
10
-47.865955147410176
20
-49.914179861016983
42
-0.12122283137707854
10
-47.449742728796977
20
-49.599214813859064
42
-0.11084350312311522
10
-46.594503248075078
20
-49.474551128084201
42
-0.051485613413609077
10
-45.388857538657462
20
-49.686491134089366
42
0.013320441074996484
10
-44.169138620560069
20
-49.982441198297288
42
-0.032751461652305629
10
-44.486789837391889
20
-50.654695918048205
42
-0.02176304786839715
10
-45.308080771801578
20
-51.935792457699293
42
0.041131635141403354
10
-46.021221953893374
20
-53.157441198297263
42
0.059929025752707261
10
-45.218285232470983
20
-52.652293077252281
42
0.031420673946108993
10
-44.435734091029971
20
-51.915240146640457
42
-0.0028199933835944086
10
-43.263169951625073
20
-50.678339210971885
42
-0.12606817021450251
10
-41.21298854989908
20
-49.532150665766288
42
-0.054087359094904648
10
-38.216830123427584
20
-49.036295982384878
42
-0.017206959062996213
10
-34.908721953893377
20
-48.924107864963986
42
-0.11863514970400291
10
-35.981199314470771
20
-50.261344216236274
42
-0.06863372910629402
10
-37.531385776563248
20
-51.124844095563901
42
0.0076548291742067178
10
-39.028196161650776
20
-51.794935786507281
42
0.071608763286106533
10
-40.226559282111971
20
-52.597392922661257
42
0.10416034164229604
10
-41.443618441522275
20
-54.358161855668286
42
0.096695972098803332
10
-42.052471953893374
20
-57.126191198297278
42
0.10060149253979916
10
-41.202279935194269
20
-55.899647963687258
42
0.016090856703893538
10
-40.788701171460076
20
-54.881152387427278
42
-0.092199474483402044
10
-39.855768889451674
20
-53.213800807265272
42
-0.093100525028704292
10
-38.520047047000133
20
-52.255925345852262
42
-0.023429007135400033
10
-36.966261483341484
20
-51.603879753816287
42
0.0503592500574064
10
-35.437888620559988
20
-50.829111094740938
42
0.024677779190899016
10
-29.352471953893364
20
-46.125078133213478
42
0.014804757006100804
10
-27.844725177124772
20
-44.736465893415968
42
-0.069076048863300321
10
-25.912888620560075
20
-43.367857864963966
42
-0.037876329324200084
10
-25.704551347257375
20
-44.479379684803675
42
0.067491320134704116
10
-25.280342478035376
20
-46.062905009443682
42
-0.024810588742794466
10
-24.82689863105357
20
-47.219257627271872
42
-0.24544737591720139
10
-25.119009137458868
20
-49.275064469513069
42
-0.048029813494205702
10
-25.877735793664481
20
-50.168220279211376
42
-0.033182114784400502
10
-27.471057361905274
20
-51.535344748937675
42
0.019258942486899498
10
-29.087888620560072
20
-52.892857864964284
42
0.13460396778579864
10
-27.67436929088619
20
-52.318955353295287
42
0.01854108125919161
10
-26.481841559593175
20
-51.377794235216996
42
-0.11586708783720442
10
-25.119138620560069
20
-50.776191198297262
42
0.034162195084600007
10
-25.912888620560079
20
-53.157441198297271
42
0.050960859641494029
10
-25.400250656044278
20
-52.595600721623285
42
0.097667403161096816
10
-24.274676809496665
20
-50.145255705035972
42
0.10155665347300032
10
-24.083454098567074
20
-47.601191198297279
42
0.030172878673599825
10
-24.496779505695571
20
-46.057462599311677
42
-0.043822199517296052
10
-24.948126768952378
20
-44.249241195417483
42
-0.096457768954805539
10
-24.847267806782082
20
-43.090738278666265
42
-0.10017626873320118
10
-24.156558082764072
20
-41.829038679071182
42
-0.069142106624597674
10
-22.24495297013037
20
-40.134379287306928
42
-0.0040512299679168837
10
-20.266271726957051
20
-38.771417230625751
42
0.042435994560697778
10
-18.188757874154209
20
-36.96365422723958
42
-0.0051191653499068823
10
-15.89406837227417
20
-34.75173683974036
42
-0.047524765236096382
10
-13.79276285280458
20
-33.144372189593767
42
-0.074180908928405689
10
-11.625388620560068
20
-32.203237338332272
42
-0.063320284097002091
10
-10.740255773073976
20
-32.096904261041779
42
-0.060145777157207481
10
-9.2718421452420081
20
-32.305954333631249
42
-0.028757516771092912
10
-6.9271109573575673
20
-33.094051312047085
42
0.034097614898401379
10
-5.1155203815416703
20
-33.642977126235486
42
0.076462252342409651
10
-4.2517614274646736
20
-33.687980708733193
42
0.04750376026899638
10
-3.2993835906541804
20
-33.475669881831891
42
-0.0030525400824930353
10
-2.0252535097112738
20
-33.045005773900975
42
-0.061548245120783017
10
-1.1022072317372795
20
-32.877868726910563
42
-0.15071672139098605
10
-0.048560663972967849
20
-33.114790804131559
42
-0.12878777710000322
10
0.57344813482053991
20
-33.823416959118468
42
-0.054328802611308347
10
1.0679984109951335
20
-35.165774531630575
42
-0.036822683750699511
10
1.7174840017425232
20
-37.86307522661447
42
-0.093958448303599382
10
1.6037780461066236
20
-41.515774531630676
42
-0.04811523951239155
10
0.91451279273363983
20
-41.089724471832874
42
-0.046457699692805526
10
-0.068811501974762879
20
-40.166130830848573
42
-0.015771014331393478
10
-1.1999039958866757
20
-38.812789579875073
42
0.040705696944204145
10
-2.5201654472638682
20
-37.456882496120357
42
0.13031360623369398
10
-4.4816386205600711
20
-36.590291908848286
42
0.15728195058610062
10
-5.8951727238214673
20
-36.859555256769184
42
0.080907603342103687
10
-6.9229204380162717
20
-37.652856506710471
42
0.090424487982206966
10
-7.9965737430904538
20
-39.161715865146533
42
0.018993763219504217
10
-8.6107592569329814
20
-40.799684597102058
42
-0.053864106537998939
10
-9.1921927584523804
20
-42.084922998741362
42
-0.11899824288059936
10
-10.066726492111576
20
-42.992945348687854
42
-0.085042456643692227
10
-11.782304445021312
20
-43.625968939071164
42
-0.020599916216605282
10
-13.569281281970282
20
-43.939549655222677
42
0.069604896874596797
10
-16.26492828025247
20
-44.659292091504874
42
0.15928175756220095
10
-17.710805287226485
20
-46.013691198297181
42
-0.0083661597458981763
10
-15.838904242578081
20
-45.326604538762076
42
-0.049062933525598429
10
-10.037888620560071
20
-43.897024531630663
42
-0.06501592592150704
10
-10.579516843050577
20
-45.224139470097867
42
-0.14395710576780971
10
-12.237428156936572
20
-46.917052117126978
42
-0.17346035146409322
10
-14.095024375263561
20
-47.213072129270195
42
-0.010825280631295963
10
-15.098615050727576
20
-46.974051479856357
42
0.074222532680490449
10
-16.123305287226778
20
-46.875177696812074
42
0.049190649382401516
10
-17.011344158859075
20
-47.065456310488358
42
0.10175593069409858
10
-19.949626716541385
20
-48.684304042819271
42
0.075590519206212403
10
-20.621221953893372
20
-49.453274531630584
42
0.037741977156206183
10
-18.550743860670977
20
-48.478357238419179
42
-0.045477241626595735
10
-16.91705528722677
20
-47.772902293471461
42
-0.10453943560230518
10
-15.251065425079251
20
-47.688103792319595
42
0.0037706571084212335
10
-13.825138932900272
20
-47.849865514090567
42
0.16039766734449648
10
-11.653414112722471
20
-47.301728349039877
42
0.092424694080699449
10
-10.346380288149071
20
-46.055952545038181
42
0.067652843263501725
10
-9.1322484838865563
20
-43.746838912019619
42
0.019176970593499331
10
-8.4503886205600764
20
-41.780357864963982
10
-7.9212219538933759
20
-41.780357864963975
42
0.030000232418998393
10
-6.41470784566887
20
-43.48328816165867
42
-0.0729875239353939
10
-5.7227761219607878
20
-44.451492424200367
42
-0.14439431984880446
10
-5.5306933066177821
20
-45.502639498612965
42
-0.12075949475460034
10
-6.0691386205600741
20
-46.807441198297269
42
0.11086454076909394
10
-5.0557609228066713
20
-46.08376697578548
42
0.22043064183480288
10
-4.7967041902021785
20
-45.15454621993085
42
0.087899210632397945
10
-5.0374633261043744
20
-44.499545279233985
42
0.046999598770206243
10
-5.6144221585401501
20
-43.683883139336899
42
0.0080356237269044502
10
-6.8431249474362748
20
-42.291436151594688
42
-0.089062627815204534
10
-7.673308307195386
20
-40.986607864963972
42
-0.15662536587300391
10
-7.6208856415493749
20
-39.490422900098849
42
-0.16008496953639462
10
-6.1519049090786737
20
-37.511259699532985
42
-0.22422401231529876
10
-4.1742078150026805
20
-37.151635381238982
42
-0.095859553594788621
10
-2.9161001738428807
20
-37.749997354539168
42
-0.070236844980589921
10
-1.5721980257711894
20
-39.073847207285503
42
-0.014722735051701767
10
-0.33508834769847784
20
-40.793702685383558
42
-0.02902466366689492
10
0.85253345683222836
20
-42.677265494133358
42
-0.16254575281640307
10
1.524402238662331
20
-46.542857864963963
42
-0.084284762808501626
10
0.89442812480352596
20
-48.684514695193862
42
-0.15440368967960166
10
-0.54269464584106442
20
-50.14932356940669
42
-0.039275418002596707
10
-2.0985616715779813
20
-50.850665696301576
42
0.013701923171205204
10
-3.5498504622737781
20
-51.49180644964779
42
0.071281133064500707
10
-5.0265228216822857
20
-52.488752932528286
42
0.15883728466429209
10
-5.8286332748976788
20
-53.952248950270274
42
0.13376585932019641
10
-5.7236717069853738
20
-54.913050816379283
42
0.048059113353793176
10
-5.2786519680568675
20
-55.810263811796254
42
-0.038015606232309103
10
-4.806175448627573
20
-56.71922597672328
42
-0.11893445215129715
10
-4.6511217181144717
20
-57.605949296233291
42
-0.052857487888986969
10
-4.8121269799563668
20
-58.389311661017267
42
0.040165489048897794
10
-5.0889271245406729
20
-59.497180283336277
42
0.12673857742529315
10
-4.9787901225335753
20
-60.300924741693265
42
0.058679904445597987
10
-4.5501378833735497
20
-61.053727585965248
42
0.058376315352501394
10
-3.3177705815407101
20
-62.324379880648976
42
-0.0013196501357752607
10
-2.02606712728468
20
-63.419685972215269
42
-0.057143020156090504
10
-0.98755280004406487
20
-64.592733187941263
42
-0.07144494035459821
10
0.51837535032183191
20
-66.897303636013277
42
-0.14661406896909682
10
0.97236551742493516
20
-70.288217542735282
42
-0.12973068902839871
10
-0.53051851198827915
20
-73.605239987268277
42
-0.1182664597567015
10
-1.7935029553947788
20
-74.536481748991292
42
-0.07058935161129691
10
-3.3784353581025584
20
-74.812811879450351
42
-0.013679464822704102
10
-5.2484918822333615
20
-74.888630579707169
42
0.0071539170719920921
10
-17.446221953893378
20
-75.382441198297272
10
-23.002471953893373
20
-75.382441198297272
42
0.15113099118039133
10
-21.742415434039778
20
-76.086418611680273
42
0.035512309431997506
10
-21.260754929877976
20
-76.158756655478271
42
0.022059953883706573
10
-19.827471953892957
20
-76.176191198297289
42
-0.0044342203371055674
10
-11.478492917026452
20
-76.196265861604104
42
-0.0040950818117952686
10
-4.2500547673276037
20
-76.400196719921297
42
0.023843683250594876
10
-0.93856749855959487
20
-76.396338800750257
42
-0.0034249532949024298
10
1.76532391514613
20
-76.272956848413287
42
-0.03964191347979671
10
4.2496113794399273
20
-76.420402713088279
42
0.072473816386846093
10
4.5391362093775287
20
-76.541916084338268
42
0.057541557660091738
10
5.6808178857756042
20
-76.718119057300257
42
0.022914002582589379
10
8.118383760913602
20
-76.813422321653277
42
0.017759117241199843
10
15.951642337460328
20
-76.612028853194275
42
0.082292247679972827
10
16.420444712773321
20
-76.545023659336294
42
-0.036195983157297995
10
17.784022137819125
20
-76.350308743402266
42
-0.03562867421280768
10
20.319305279876545
20
-76.341822371153157
42
0.0095600496531012252
10
23.035028046104919
20
-76.440774531630154
42
0.0025658889215974404
10
29.858302156626927
20
-76.441723234528297
42
0.013802340240898868
10
37.216214806596234
20
-76.190402358490275
42
-0.02028410104388945
10
39.020423259032412
20
-76.174080497388289
42
0.064717953404499651
10
41.291278046106669
20
-75.911607864964282
42
0.015282552074294291
10
40.380700002200534
20
-75.725761135966266
42
0.041369170616902956
10
37.03331106873798
20
-75.436560706881238
42
0.016217986505901619
10
33.436879090020028
20
-75.503803988471205
42
-0.0049772958812943696
10
28.574958448432142
20
-75.66799877239427
42
-0.015060904306902149
10
26.380499545238486
20
-75.59789755784125
42
0.0059799303202938206
10
23.382199533845132
20
-75.524154779795282
42
-0.048954151874510347
10
22.129189883373712
20
-75.346018753314269
42
-0.12971343199550212
10
21.552649832142023
20
-74.998081105623285
42
-0.15362317690720015
10
21.190623993323413
20
-74.149602582880263
42
-0.0074764743777835374
10
21.046051100641915
20
-73.241819889092284
42
0.19536165898710331
10
19.347691930039627
20
-70.61011833559526
42
0.055551340453194792
10
17.851671782988788
20
-69.855940427819775
42
-0.0030033745783075052
10
16.306928833875219
20
-69.244572517148285
42
-0.073502116854904778
10
14.596141499018039
20
-68.178367038039255
42
-0.08720342715549434
10
13.374585338935265
20
-66.497414070494131
42
0.0048490346622057662
10
12.392228840558525
20
-64.587301348620301
42
0.076127837080398081
10
11.365581259861932
20
-63.284366666742272
42
0.073017743518817374
10
10.774412357135203
20
-62.923131605725253
42
0.015618920635986803
10
9.7280857334882214
20
-62.454756303534289
42
-0.042642378860788741
10
8.2446369681681251
20
-61.65901365336326
42
-0.097004340730492661
10
7.7997333599648346
20
-61.204609741569264
42
-0.34211263198870279
10
7.8465778343863288
20
-60.273702470571273
42
-0.1509190154321968
10
8.7525543865912248
20
-59.863039648004275
42
-0.021484264674196556
10
10.819968922812118
20
-59.504090186093279
42
-0.036932239966503529
10
12.448930556695927
20
-59.406214121995276
42
-0.15340255094149963
10
14.126426815182036
20
-59.93398822903729
42
-0.025759857910899062
10
15.220755109808625
20
-60.751782153869271
42
0.053934278980502987
10
16.302986296785818
20
-61.435302143378294
42
0.13210048918749601
10
17.478778046106637
20
-61.632836337355279
42
0.083442200196506805
10
19.606674569724241
20
-61.015987024435276
42
0.033443344634097261
10
21.946402625381189
20
-59.739011462373227
42
-0.014553490184302745
10
24.10237553543994
20
-58.507041896710277
42
-0.062468516671696644
10
26.206144182467135
20
-57.714893519269275
42
-0.1075728089118967
10
28.326694712773225
20
-57.696101502049288
42
0.016876993235284909
10
28.865441050477823
20
-57.794608516856265
42
-0.030289182873086355
10
30.020692533918918
20
-58.008263448454258
42
-0.27993477221280788
10
31.23711137943992
20
-59.242857864964293
42
-0.077335760107391849
10
29.54703579714073
20
-59.326031686351264
42
0.017185518117500246
10
28.196140148461328
20
-59.274406600062278
42
0.12236887965929985
10
26.588408011968756
20
-59.726870722188103
42
0.0024030191444026176
10
25.566584754127426
20
-60.333368341487272
42
-0.15252457033250647
10
24.221968072831828
20
-60.672216231714273
42
-0.060530620007407616
10
22.77044471277323
20
-60.301191198297275
42
0.076481707789513242
10
23.391310647820017
20
-60.832900832298293
42
0.18335023081900073
10
24.714377992972221
20
-61.07005442369028
42
0.062270074577893492
10
25.89225635411411
20
-60.674874844705123
42
0.0006429877528735566
10
27.268361379439927
20
-60.036607864964267
10
27.003778046107708
20
-61.35952453162956
42
0.0023879418892014006
10
28.146432060758329
20
-60.592439571347271
42
-0.10769724429189867
10
29.562420858780921
20
-60.068459436789283
42
0.02453477767900197
10
30.701410458424832
20
-59.925296879101282
42
0.15103790581689516
10
31.51803313084671
20
-59.462549720984271
42
0.30035251248730549
10
31.719117802982844
20
-58.293520032440284
42
0.18018199109109964
0
LWPOLYLINE
5
101
100
AcDbEntity
8
0
100
AcDbPolyline
90
28
70
1
43
0.0
10
31.090723744554062
20
-79.431175207960393
10
24.490723744546084
20
-79.431175207960393
10
23.690723729942036
20
-79.431175207960393
42
0.41421356237309503
10
22.090723729942031
20
-81.031175207960402
10
22.090723729942027
20
-84.231175278617357
42
0.41421356237309503
10
23.690723729942043
20
-85.83117527861738
10
24.490723744546084
20
-85.83117527861738
10
29.090723859458222
20
-85.83117527861738
42
-0.41421356686533184
10
30.090723859458226
20
-86.831175293954828
10
30.090723834918318
20
-88.431174995746034
42
-0.41421355788085823
10
29.090723834918304
20
-89.431174980408599
10
24.166406136694192
20
-89.431174980408599
10
22.490729558351298
20
-89.431174980408343
42
0.41421356237289669
10
22.090729558351292
20
-89.831174980408349
10
22.090729558351292
20
-90.431174969686339
42
0.41421356237324464
10
22.490729558351312
20
-90.831174969686373
10
23.886406136694085
20
-90.831174969686614
10
29.890723824346725
20
-90.831174969686614
42
0.4142135578808589
10
31.490723824346727
20
-89.231174994226535
10
31.490723873426568
20
-86.031175302279408
42
0.41421356686533528
10
29.890723873426559
20
-84.43117527773947
10
24.490723730037782
20
-84.43117527773947
42
-0.41421356237309503
10
23.490723730037786
20
-83.43117527773947
10
23.490723730037786
20
-81.831175207952782
42
-0.41421356237309503
10
24.490723730037782
20
-80.831175207952782
10
31.090723744554154
20
-80.831175207952782
42
0.41421356237313406
10
31.490723744554153
20
-80.43117520795272
10
31.490723744554053
20
-79.831175207960314
42
0.41421356237304302
0
LWPOLYLINE
5
102
100
AcDbEntity
8
0
100
AcDbPolyline
90
28
70
1
43
0.0
10
-6.1092762293768654
20
-90.831175207973317
10
-12.113593863305919
20
-90.831175207973317
10
-13.509261562059303
20
-90.831175207973303
42
-0.41421356237309176
10
-13.909261562059299
20
-90.431175207973311
10
-13.909261562059299
20
-89.831175207973303
42
-0.4142135623731113
10
-13.509261562059303
20
-89.431175207973297
10
-11.833593863305808
20
-89.431175207973325
10
-6.9092762163384291
20
-89.431175207973325
42
0.41421355759947887
10
-5.9092762163384238
20
-88.43117522427147
10
-5.9092761902613944
20
-86.83117529877731
42
0.4142135671467112
10
-6.9092761902613997
20
-85.831175282479137
10
-11.509276255453917
20
-85.831175282479137
10
-12.309276270355154
20
-85.831175282479137
42
-0.41421356237309176
10
-13.90927627035515
20
-84.231175282479128
10
-13.909276270355138
20
-81.031175207973348
42
-0.41421356237309503
10
-12.309276270355136
20
-79.431175207973354
10
-11.509276255453917
20
-79.431175207973354
10
-4.9092762554539231
20
-79.43117520797334
42
-0.41421356237309664
10
-4.5092762554539227
20
-79.831175207973345
10
-4.5092762554539201
20
-80.431175207973354
42
-0.41421356237309503
10
-4.9092762554539116
20
-80.831175207973331
10
-11.509276270355148
20
-80.831175207973331
42
0.41421356237309503
10
-12.509276270355144
20
-81.831175207973331
10
-12.509276270355144
20
-83.431175282479145
42
0.41421356237309503
10
-11.509276270355148
20
-84.431175282479131
10
-6.1092761772228137
20
-84.431175282479131
42
-0.41421356714670993
10
-4.5092761772228007
20
-86.031175308556186
10
-4.509276229376864
20
-89.231175234050369
42
-0.41421355759947692
0
LWPOLYLINE
5
103
100
AcDbEntity
8
0
100
AcDbPolyline
90
16
70
1
43
0.0
10
8.4899828618394917
20
-89.320559057647571
10
0.13960248668849856
20
-78.196226964807494
42
0.2359597287204302
10
-0.10032366634505602
20
-78.07632538537392
10
-1.100631456744362
20
-78.07632538537392
42
0.61817570065208849
10
-1.3405576097779148
20
-78.556423805940341
10
7.7903417052393902
20
-90.720559057647577
42
0.2359597287204771
10
8.0302678582729392
20
-90.840460637081151
10
9.9697324099479623
20
-90.840460637081151
42
0.23595972872047791
10
10.209658562981513
20
-90.720559057647577
10
19.340557877998815
20
-78.556423805940341
42
0.6181757006520886
10
19.100631724965265
20
-78.07632538537392
10
18.100323934565957
20
-78.07632538537392
42
0.23595972872043575
10
17.860397781532402
20
-78.196226964807494
10
9.5100174063814134
20
-89.320559057647586
42
-0.23595972872046425
10
9.2700912533478572
20
-89.440460637081145
10
8.7299090148730425
20
-89.440460637081145
42
-0.23595972872047632
0
ENDSEC
0
SECTION
2
OBJECTS
0
DICTIONARY
5
C
100
AcDbDictionary
3
ACAD_GROUP
350
D
3
ACAD_MLINESTYLE
350
17
0
DICTIONARY
5
D
100
AcDbDictionary
0
DICTIONARY
5
1A
330
C
100
AcDbDictionary
0
DICTIONARY
5
17
100
AcDbDictionary
0
ENDSEC
0
EOF
