<?xml version="1.0" standalone="yes"?>
<svg xmlns="http://www.w3.org/2000/svg" width="411" height="483">
<path style="fill:#010101; stroke:none;" d="M0 0L0 367C5.24558 366.209 9.79455 368.576 15 368.74C21.3133 368.939 27.6534 367.053 34 367C31.453 361.655 25.8446 357.664 20 356.39C14.5229 355.197 10.0032 356.723 7 351C12.9066 352.949 19.4503 352.631 25 355.377C31.1819 358.436 36.7299 365.137 44 365.208C61.6081 365.377 72.7126 345.136 83.9961 334.015C90.4384 327.665 97.7812 322.492 103 315C94.8578 316.512 86.9709 315.821 79 313.572C74.7647 312.377 69.4662 308.795 65 309.758C60.0861 310.817 56.4625 315.699 53 318.957C48.0518 323.613 42.2028 327.644 37 332C39.403 320.19 57.176 317.902 61 306C57.1054 305.099 53.0479 303.101 49 303.279C34.8825 303.897 28.645 317.601 19 325C20.2706 318.615 24.6904 313.373 30.0147 309.786C34.8798 306.509 40.0169 302.099 46 301.214C61.2829 298.952 74.6676 312.682 90 313C88.406 308.788 85.8386 303.553 82.3202 300.599C76.9237 296.067 72.3005 295.745 70 288C72.393 290.034 73.9423 293.253 76.5285 294.977C79.2282 296.777 82.2159 296.578 84.6103 299.148C89.1656 304.038 91.6062 313.186 100 312.667C106.864 312.244 113.453 305.47 118 301.003C123.351 295.746 128.619 291.754 136 290C133.571 287.729 128.628 281.571 136.008 282.408C141.769 283.061 144.971 288.206 149.285 291.262C152.899 293.822 164.627 297.611 168.998 296.883C171.566 296.456 173.874 294.375 176 293C175.266 288.101 173.022 284.479 171.023 280.039C168.718 274.921 168.897 270.119 161.999 269.229C154.993 268.325 149.361 272.748 142 271C145.8 269.421 150.013 269.253 154 268L154 266C149.83 263.189 145.27 260.843 142 257C148.164 258.554 154.309 262.047 160 264.896C163.028 266.411 166.368 268.683 169.907 267.381C174.646 265.638 175.675 259.453 180 257C178.389 262.045 174.339 265.86 173.073 271C170.911 279.774 177.752 291.133 186 293.805C192.004 295.749 194.301 294.401 199.981 292.757C201.264 292.385 203.035 292.126 203.824 293.542C205.607 296.742 200.126 300.191 198.588 302.285C195.992 305.82 196.176 310.805 196 315C199.942 313.791 202.82 312.282 207 313C204.75 318.369 199.741 323.301 198.647 329C197.778 333.532 199.615 345.136 206.015 344.353C208.864 344.004 211.585 341.823 214 340.424C220.735 336.525 226.148 332.22 232 327.132C234.513 324.948 238.206 323.799 240.397 321.352C244.918 316.3 239.462 307.652 243.579 302.05C247.105 297.253 255.603 295 257.403 289.207C260.331 279.781 253.874 276.684 246 274.427C243.301 273.654 239.833 272.279 237 272.903C233.563 273.66 231.522 277.187 228 277.729C225.611 278.097 223.18 276.837 221 276.052C215.652 274.127 210.115 272.429 205.049 269.81C203.617 269.07 200.839 267.743 202.037 265.684C204.791 260.952 213.502 265.729 217 266.921C220.475 268.106 224.321 269.288 228 268.427C231.149 267.691 233.757 265.512 237 265.1C242.501 264.4 248.424 266.885 254 267C250.158 256.216 232.798 253.218 223 250.421C215.581 248.304 207.923 246.093 201 242.63C197.227 240.742 193.323 236.943 189 236.603C185.368 236.316 181.702 238.017 178 237.946C172.672 237.843 167.315 235.258 162 236.561C155.116 238.249 150.428 242.825 143 243L143 241C149.681 240.653 155.079 236.819 161 234C158.941 231.771 156.766 230.155 153.999 228.824C152.081 227.901 150.085 227.249 148 226.823C131.592 223.477 131.92 244.26 122 252L121 249C126.525 245.805 127.037 240.302 129.825 235C131.748 231.343 134.656 228.37 137 225C127.128 227.346 121.071 234.342 116.312 243C112.086 250.689 108.539 260.075 99 262C101.525 259.143 104.718 256.943 107.062 253.91C111.574 248.071 115.083 239.77 118 233C108.249 234.739 105.014 242.917 96.9961 246.972C94.0144 248.48 90.2369 248 87 248C89.9863 244.95 93.5468 245.641 96.9606 243.397C100.358 241.164 102.607 237.546 106.015 235.249C110.772 232.043 116.832 230.205 122 227.666C126.809 225.303 132.914 224.707 136 220C133.259 219.069 131.896 218.181 130 216C134.236 217.159 137.889 219.392 142 220.799C145.502 221.996 149.382 221.783 153 222.46C158.688 223.524 164.179 225.697 170 225.961C173.249 226.108 176.853 226.284 180 225.352C183.747 224.242 186.868 221.341 191 221.978C196.993 222.902 201.666 228.155 207 230.673C216.903 235.348 229.33 238.554 240 241C237.629 237.617 232.439 233.617 233.801 229C235.419 223.514 250.022 216.081 242.566 209.743C239.544 207.175 235.224 208.513 232 209.88C224.958 212.865 217.242 220.292 210 214C220.9 213.993 228.884 208.297 239 205C232.064 200.341 224.936 200.812 217 202C225.028 194.478 248.98 200.867 247.567 213.999C246.786 221.262 232.869 225.705 237.333 233.815C239.562 237.864 250.406 246.025 254.999 246.597C264.596 247.793 258.634 236.468 256 233C262.269 235.959 262.298 239.815 263 246C270.577 240.419 271.115 235.356 268 227C269.054 228.052 269.932 228.789 270.628 230.138C275.577 239.738 266.465 241.81 264.367 250C262.94 255.573 268.82 265.258 269.996 271C270.433 273.135 270.438 276.671 272.013 278.342C274.21 280.672 278.002 277.623 280 276.444C283.38 274.451 286.897 272.568 288.836 268.985C290.474 265.957 290.143 261.948 292.564 259.323C296.812 254.716 300.409 261.873 305.015 259.914C307.351 258.92 309.234 256.745 310.996 254.995C315.64 250.385 323.417 243.544 325.102 237C326.129 233.011 324.176 228.09 324 224C314.914 224.22 309.903 231.55 302 235C306.631 229.064 313.203 225.673 319 221C312.225 216.935 303.537 218.465 296 217.91C289.739 217.448 285.352 215.981 279 217C284.847 211.351 290.07 215.073 297 215.826C304.608 216.653 311.64 215.318 319 218C315.78 211.807 308.311 211.363 303.043 207.363C296.56 202.44 295.239 195.088 287 192C296.378 190.195 298.657 200.283 304.326 205.468C308.825 209.583 316.321 211.968 322 214C320.991 205.379 320.125 196.059 314.471 189.039C310.775 184.452 305.449 181.357 301.004 177.561C297.835 174.855 294.986 170.056 290.961 168.657C285.239 166.67 277.182 169.457 271 168.572C264.064 167.579 254.911 164.437 248 165.698C243.58 166.505 239.195 168.755 235 170.319C225.922 173.706 215.857 177.283 208.001 183.029C202.737 186.879 199.156 192.195 194 196C197.015 191.115 201.219 186.945 204 182C194.424 182.126 183.815 182.555 175 186C179.59 180.21 185.192 181.158 191.961 180.949C200.076 180.699 209.877 179.99 217 176L217 174C213.06 172.16 209.31 169.299 205 168.394C195.075 166.309 183.841 170.846 174 171.829C169.081 172.321 163.771 170.667 159 171.829C153.953 173.058 150.068 177.228 145 178.269C139.939 179.308 135.832 175.322 131 174.823C128.108 174.524 125.461 175.977 123 177.312C108.701 185.071 95.9071 195.995 81 202.576C74.9454 205.249 70.7952 208.916 64 207C73.8665 203.368 88.6795 197.733 95 189C89.0981 188.951 82.8232 187.023 77.0039 188.558C68.5971 190.775 64.3438 197.49 55 193C59.0625 191.999 63.0893 191.35 67 189.792C71.2765 188.089 75.3486 185.384 80 184.84C85.9805 184.141 92.0149 186.802 98 186.867C104.876 186.942 116.684 179.887 120 174C111.572 173.434 104.446 172.569 96 173.127C92.1911 173.378 89.642 172.431 86 174C86 172.203 85.9857 172.479 85 171C94.6346 168.25 105.251 169.855 115 170.829C119.643 171.294 124.385 170.555 129 171.326C133.715 172.113 138.202 175.349 143 175.343C147.956 175.336 152.455 171.67 157 170.094C161.524 168.526 165.428 169.095 170 170C166.773 164.973 159.896 163.199 155 160C163.416 160.298 169.756 166.81 178 167.814C186.865 168.894 196.256 164.792 205.001 166.394C210.132 167.333 214.779 172.354 220 172.191C223.742 172.074 227.1 168.745 230 166.72C236.145 162.429 243.322 157.056 251 156.189C264.64 154.648 278.059 160.257 291 153C282.412 140.909 267.788 136.875 254 133.997C250.269 133.218 244.733 130.137 241 131.356C234.399 133.513 230.167 142.422 224 146C226.636 142.243 229.876 139.096 232 135C223.891 137.403 218.888 143.426 213 149C216.286 140.45 223.135 136.455 231 132.522C233.568 131.238 236.141 129.167 239 128.614C242.195 127.996 245.792 129.681 249 130C244.829 119.361 234.324 123.611 226 126.681C219.402 129.115 212.793 133.769 206 135.319C202.616 136.092 199.246 133.811 196 135.132C192.455 136.575 189.793 140.338 187 142.826C183.08 146.319 178.827 148.977 174 151C179.526 143.796 187.784 140.524 192 132C184.299 134.803 175.775 139.09 169.015 143.749C164.865 146.61 162.017 150.859 157 152C163.259 143.79 171.464 141.244 179 135C170.183 132.395 162.716 137.602 154 138C163.607 131.91 172.169 131.732 183 131.505C186.072 131.441 188.9 130.059 192 130.137C196.461 130.249 200.512 133.002 205 132.578C213.23 131.8 221.234 125.644 229 123C224.695 119.797 220.073 119.796 215 121C220.42 114.879 229.749 119.317 237 119.914C239.852 120.149 242.481 120.169 244.996 121.742C249.188 124.364 251.144 129.495 255.3 131.976C259.38 134.411 265.485 134.19 270 136.015C280.478 140.251 288.537 146.802 296.17 154.986C301.198 160.378 307.405 164.408 314 167.625C316.196 168.696 319.222 170.781 321.791 170.173C325.51 169.292 328.45 162.792 330.666 160C336 153.276 342.004 147.135 347.985 141C351.489 137.407 355.812 133.202 356.617 128C357.11 124.818 356.331 119.046 353.487 117.028C351.459 115.589 348.34 116.005 346 116C340.158 115.988 333.192 114.869 328 118.018C320.052 122.838 315.916 130.37 309 136C311.063 131.128 314.639 126.932 318.282 123.104C319.942 121.36 323.525 119.397 323.94 116.831C324.434 113.772 320.553 111.62 317.999 111.411C313.227 111.021 306.503 115.319 302 117C304.351 112.933 314.155 107.972 319 108.94C322.623 109.664 325.329 112.773 329 113.606C332.255 114.344 335.696 113.773 339 114C335.724 108.028 328.617 107.481 324 103C333.97 104.777 341.648 114.442 352 113C351.465 106.914 348.877 99.5406 343.815 95.7029C339.083 92.1162 331.664 91.7358 326 90.75C313.266 88.5334 299.943 85.2672 287 85C285.22 92.668 281.075 98.393 273 100C278.552 94.9172 283.795 93.4418 284 85C275.89 85.6409 269.618 89.0879 262 91C264.905 88.1465 269.01 85.5599 272.961 84.3781C275.929 83.4902 279.957 84.2008 282.386 81.9074C285.261 79.1924 282.652 72.7781 279.772 71.0278C277.062 69.3803 273.027 70 270 70C254.349 70 238.7 72.1585 224 77.6844C219.97 79.1991 211.349 85.3997 208 82C215.161 80.7234 221.047 76.0031 228 74C225.666 70.696 221.849 70.6906 218 71.3256C209.613 72.7096 200.989 76.185 193 79C197.49 73.3309 204.454 73.0794 211 71L211 69C207.83 68.0713 205.403 67.2833 203 65C212.856 66.4501 222.935 70.3577 233 70.2114C242.572 70.0723 253.733 66.3987 263 64C257.926 60.3801 248.25 56.9706 242 57.0193C237.24 57.0563 232.722 58.6143 228 59L228 57C234.093 56.7216 239.813 54.272 246 55.213C253.224 56.3115 259.542 60.7391 267 61.7106C272.52 62.4298 279.714 60.466 284.892 62.6034C291.276 65.2387 288.748 74.6415 294.228 77.9722C296.994 79.6537 300.918 78.8763 304 79.1698C313.352 80.0604 322.588 81 332 81C321.957 66.7517 303.278 56.5228 288 48.7562C281.972 45.6919 275.976 42.075 269 42.1844C250.207 42.4792 231.717 52.0169 213 51.8171C205.886 51.7412 199.055 47.588 192 47.24C184.072 46.849 176.839 55.2351 169 56.7261C165.537 57.3847 160.377 56.0201 158.028 59.4337C155.901 62.524 157 68.4197 157 72C154.213 69.2714 154.044 66.8267 154 63C150.594 63.4305 145.32 63.1725 142.39 65.0278C139.38 66.9338 138.318 70.2767 135 72C136.197 68.5491 137.563 64.095 141.185 62.4606C143.915 61.2288 147.169 61.6782 150 60.466C153.206 59.0931 155.815 56.6735 159 55.2778C162.137 53.9028 165.709 54.6248 168 52C162.495 53.0219 157.504 52.3864 152 52.5941C147.287 52.772 142.701 54.0446 138 54C153.176 44.0398 174.2 55.54 188 44C175.415 35.778 159.787 32.6214 145 35.5432C140.055 36.5203 135.693 39.4456 131 41.1759C123.761 43.8451 113.525 47.5161 108.993 54.0154C104.398 60.605 106.29 67.7523 104.606 74.9962C102.952 82.1087 96.3127 86.0694 95.3642 94C94.3877 102.165 99.6342 108.427 101 116C97.1964 113.013 95.5426 109.521 94 105C89.9944 111.334 88.2378 118.332 82.9066 123.985C75.8608 131.458 67.4812 134.883 61.814 144C57.1566 151.493 54.912 163.76 44 164C53.5322 154.441 59.6035 142.229 67 131C60.554 131.66 55.3236 135.831 49 136.787C39.384 138.241 28.7238 137 19 137C27.3669 131.478 37.5925 135.319 47 134.162C52.9743 133.428 58.1318 129.75 64 128.425C72.0116 126.617 79.2024 126.257 83 118C74.9577 119.017 67.1237 120 59 120C64.2201 115.109 73.3196 117.228 80 115.215C89.4298 112.372 93.9523 97.0383 92 88C84.9973 92.9361 80.443 104.068 72 106C76.7803 99.7032 83.9663 93.8206 86 86C76.1203 88.3026 65.1541 95.4147 55 95C59.6229 91.2716 64.6697 90.2939 70 88L62 82C65.9759 82.2062 69.1648 83.936 73 84.571C76.0714 85.0795 79.0164 84.0176 82 83.4599C88.0512 82.3288 96.4141 82.9185 100.059 76.946C102.911 72.2723 101.483 66.1438 102.189 61C102.768 56.781 105.184 53.1346 108.174 50.1852C117.315 41.1709 131.198 39.2812 142 33L142 31C130.596 27.8171 113.227 25.6312 103.104 33.5131C98.2511 37.2917 95.6559 44.5505 93.1782 50C90.8414 55.1396 88.3242 60.6289 86.6011 65.9992C84.9131 71.2599 85.5092 75.2872 80 78L82 65C75.6094 67.9872 65.4056 76.3524 59 70C67.5819 68.8434 78.6686 65.8768 80 56C75.0302 57.1832 70.0815 57 65 57L65 55C72.2441 54.4235 82.2592 53.4669 87.787 48.3658C95.6693 41.092 96.1734 30.843 108 28C105.572 24.4523 100.915 23.5102 97 22C103.052 18.1388 110.412 22.7495 117 24.2546C123.207 25.6728 129.728 25.4477 136 26.5833C143.762 27.9888 148.934 30.6312 157 30C150.552 22.2179 139.76 20.7722 133 14C141.626 13.8867 147.052 18.9901 154 23.2932C160.003 27.0109 167.947 30.3803 175 31C171.469 21.3185 168.757 14.1576 158 11C163.422 8.84076 167.142 11.4535 172 14C174.549 8.4567 171.517 5.45535 171 0L0 0M173 0C174.679 3.28516 176.845 6.78903 177.019 10.5756C177.302 16.7654 174.465 23.0955 177.883 28.9992C181.75 35.679 189.185 37.955 196 40.3434C201.535 42.2829 208.119 46.3631 214 46.6134C218.055 46.786 222.159 44.6897 226 43.6396C235.734 40.9791 245.294 37.7543 255 35C248.453 30.6012 241.686 30.0205 234 30.0146C227.935 30.01 222.622 31.8546 218 27C224.507 28.5492 230.454 27.1351 237 27C232.901 20.8204 218.593 19.3146 212 21C218.356 12.683 231.898 20.813 240 24C236.187 18.1554 233.451 12.039 230 6C235.602 8.677 236.21 13.3203 239.649 17.9568C242.742 22.1273 248.589 26.3972 253 29.1073C260.496 33.7126 269.068 29.986 277 31.8997C286.755 34.2532 294.428 41.2426 304 44C302.127 38.1837 297.435 34.8553 294 30C300.234 32.7784 302.865 38.2881 308 42C308.686 37.4228 309.833 33.3711 314 31C311.665 36.694 310.14 41.9517 309 48C316.282 52.9125 323.76 57.5356 331 62.5077C335.301 65.4614 339.174 68.9599 344 71C343.912 61.2096 337.601 58.1743 334.067 50C332.47 46.3054 335.437 42.7462 334.215 39C332.6 34.0535 327.115 30.0878 324 26C329.093 28.3719 335.323 33.3216 336.937 39.0038C337.828 42.1426 336.089 44.9055 336.502 47.9854C336.979 51.5329 340.438 53.8872 343 56C345.955 48.124 345.688 40.4335 353 35C348.171 46.6132 342.172 61.2435 346.728 74C349.03 80.4457 354.923 85.9816 358.269 92C360.681 96.3385 362.584 105.069 366.649 107.972C372.264 111.983 382.527 107.329 388.981 109.894C393.042 111.507 394.334 115.035 395.195 119C397.062 127.591 400.891 138.302 399 147C391.575 144.992 383.603 145.556 376 144.83C370.753 144.329 364.131 142.711 359 144.603C353.896 146.486 350.432 152.127 346.925 156C338.424 165.389 331.5 177.009 330.799 190C330.335 198.602 333.104 207.703 335 216C339.616 215.308 343.538 213.136 348 211.927C353.894 210.331 359.818 211.083 363 205L353 208L357 205C354.279 203.31 352.132 203.474 349 204C351.446 202.001 353.946 201.679 357 201L357 199C354.88 197.838 353.635 196.795 352 195C354.151 195.893 356.064 196.877 358.004 198.198C359.321 199.095 360.775 200.016 361.851 201.209C365.258 204.986 364.909 209.102 359.981 211.297C353.086 214.368 344.021 212.554 338.333 218.532C335.16 221.867 337.192 227.765 335.957 232C335.014 235.232 330.927 241.167 333.071 244.436C334.28 246.28 337.033 246.552 339.001 246.865C343.701 247.612 348.354 248.298 353 249.35C362.861 251.581 372.211 255.716 382 258.01C386.483 259.06 391.408 258.658 396 259.435C401.097 260.298 405.9 262.247 411 263L411 0L173 0M222 47C226.33 48.6901 231.561 46.6879 236 45.8002C246.274 43.7455 257.524 40.0703 268 39.8642C276.243 39.702 282.914 43.9259 290 47.5903C306.943 56.3515 326.852 68.1748 338 84C329.907 84.417 322.052 82.392 314 82.0394C307.823 81.7689 299.91 83.1358 294.094 80.5502C287.683 77.6999 289.701 69.7196 285.297 65.6072C281.579 62.1358 271.66 65.7999 267 66C271.883 68.0497 277.474 66.363 281.787 70.3032C285.673 73.8525 285.809 80.5767 291.058 82.4668C301.846 86.3516 315.636 87.0537 327 88.7284C332.682 89.5658 339.194 89.996 343.985 93.51C349.921 97.864 353.262 106.341 355.91 113C363.998 133.341 346.075 143.889 334.464 158C329.052 164.576 320.639 173.98 331 180C332.754 168.3 341.559 158.341 349.845 150.438C352.832 147.589 355.995 143.969 360 142.589C366.963 140.189 379.468 146.991 384 140C377.025 138.974 370.633 136.211 364 134C365.921 131.283 368.352 128.445 368.679 125C369.006 121.559 367.233 118.106 366 115C363.569 108.88 361.196 102.898 358.247 97C346.187 72.881 324.673 59.9583 302 46.9992C293.946 42.3956 285.466 35.3324 276 34.1844C258.202 32.0259 239.129 43.4551 222 47M220 48L221 49L220 48M81 59C82.4567 57.8965 82.8965 57.4567 84 56C81.636 56.4825 81.4824 56.636 81 59M368 111C368.61 115.07 370.638 118.895 370.877 123C371.096 126.758 369.45 130.311 369 134C378.412 136.177 387.692 139.378 397 142C396.679 134.555 394.668 127.233 393.011 120C392.432 117.473 392.123 113.748 389.57 112.349C387.448 111.185 384.305 111.942 382 111.986C377.235 112.078 372.686 111.87 368 111M385 142C386.506 142.683 387.315 142.826 389 143C387.494 142.317 386.685 142.174 385 142M232 169C238.252 167.553 244.556 163.512 251 163.354C259.095 163.155 266.97 166.882 275 167.482C280.094 167.863 286.113 164.935 291 166.618C295.793 168.269 299.37 173.695 303.039 177C307.808 181.296 313.519 184.804 317.387 190.004C322.525 196.91 323.088 205.768 324.41 214C325.469 220.589 329.45 232.79 326.607 239.015C323.544 245.723 316.362 252.883 310.985 257.829C309.088 259.576 306.615 262.122 304 262.698C300.816 263.398 297.471 258.799 294.603 260.832C292.798 262.111 293.01 265.139 292.262 267C291.334 269.31 289.715 271.182 287.956 272.907C279.886 280.82 269.001 282.472 273 296C290.989 289.031 298.92 267.317 317 261.359C329.789 257.144 343.858 257.034 357 259.424C362.752 260.471 368.249 262.735 374 263.675C380.249 264.696 386.712 263.541 393 264.171C398.424 264.713 403.589 267.348 409 267C401.703 259.921 391.978 262.397 383 260.482C377.806 259.375 373.057 256.758 368 255.205C355.341 251.318 341.264 248.009 328 248C329.461 241.689 333.835 235.357 334.426 229C334.859 224.347 332.68 218.632 331.92 214C330.667 206.364 329.689 198.662 328.579 191C327.909 186.371 327.681 182.052 324.891 178.09C319.916 171.024 310.674 168.529 304 163.475C300.358 160.717 296.916 156.583 292 156.398C284.996 156.134 278.236 160.327 271 159.816C257.036 158.829 241.705 156.425 232 169M159 227L159 229C164.82 232.397 171.09 235.834 178 235.945C182.375 236.016 186.684 233.449 191 234.668C196.095 236.108 200.117 240.547 205 242.662C214.304 246.691 224.547 248.242 234 252C242.109 255.223 257.418 258.812 256 270C250.19 268.601 241.947 266.388 236 267.317C232.069 267.931 229.135 270.877 225 270.852C217.81 270.808 211.279 266.333 204 266C208.58 270.122 221.619 276.313 227.961 275.498C231.179 275.085 232.992 271.939 236.039 271.063C240.98 269.644 246.365 272.992 251 274.243C253.149 274.823 255.798 274.887 257.682 276.175C262.946 279.774 259.721 293.954 258.36 299C255.972 307.852 251.916 318.014 243.999 323.297C241.198 325.166 237.797 325.69 235 327.559C231.143 330.138 227.859 333.536 224 336.164C218.152 340.145 213.366 342.719 212 350C209.007 349.26 205.654 348.967 203.019 347.258C197.214 343.496 194.732 333.455 197.008 327C198.498 322.778 201.452 319.228 203 315C201.235 315.716 197.841 318.168 195.894 317.392C192.403 316 193.739 305.532 195.028 303.015C196.832 299.491 200.609 297.127 203 294C199.825 295.044 196.751 297.611 193.424 297.967C188.855 298.456 184.612 295.068 180 295.202C175.832 295.323 172.982 298.645 169 299.247C164.192 299.974 154.563 296.214 150.001 294.411C143.741 291.937 140.978 285.765 134 284C135.091 285.636 138.78 287.836 138.37 289.985C137.813 292.902 133.201 293.28 131 294.129C126.219 295.973 121.726 299.448 118.17 303.09C110.379 311.069 103.311 319.323 95 326.83C84.9042 335.949 72.2809 345.696 66 358C74.7603 352.205 81.8977 344.257 90 337.616C96.442 332.336 103.873 328.596 110 322.91C118.071 315.422 128.458 303.433 140 301.62C147.793 300.395 154.581 307.22 162 308.529C170.244 309.983 180.056 299.945 185.995 309.045C194.219 321.646 191.274 340.029 189.424 354C188.788 358.806 189.718 363.69 187.041 368C185.106 371.115 182.277 374.012 179 375.697C176.259 377.106 172.702 377.216 170.453 379.512C167.375 382.655 169.816 385.024 173 386L172 389L167.96 386.913C157.553 382.115 166.223 395.84 166.792 399C167.48 402.818 163.931 406.153 164.816 409.816C165.386 412.177 167.932 413.653 169.491 415.325C172.898 418.98 177.387 422.628 180.393 426.514C182.807 429.635 180.829 433.461 181.597 437C182.517 441.242 186.26 444.419 186.871 448.715C187.414 452.53 184.256 456.544 183 460C188.98 462.503 198.266 471.152 205 467.958C207.797 466.63 210.59 463.766 211.961 461.004C214.156 456.585 212.999 451.366 220 451.362C225.229 451.359 225.953 456.561 229.299 459.272C232.448 461.825 241.046 464.927 245 465.814C249.485 466.82 259.616 462.687 258.164 456.985C255.43 446.251 242.004 448.454 235.185 442.581C229.211 437.436 229.245 428.582 222.907 423.637C219.498 420.978 206.763 417.911 208.346 412.005C208.912 409.892 211.068 408.336 213.005 407.603C217.35 405.96 227.509 404.488 232 405.692C237.532 407.175 241.04 413.075 247 413.475C251.522 413.778 256.117 410.52 260 408.587C267.167 405.019 274.5 401.853 282 399.05C286.723 397.285 292.29 396.083 295.566 391.942C301.346 384.638 297.131 366.316 288.96 362.028C282.505 358.64 269.638 364.446 266 370C271.67 369.741 278.572 365.793 283.996 368.333C293.775 372.912 293.349 387.512 283.96 392.232C276.116 396.176 265.527 397.155 257 399.119C253.327 399.965 248.786 401.796 245 401.258C239.728 400.508 236.179 395.576 231 394.394C221.487 392.224 211.329 395.852 209 383C211.553 384.533 212.52 386.407 214 389C215.964 386.832 217.672 384.415 220.042 382.647C222.328 380.943 225.244 380.095 226.991 377.725C230.005 373.636 228.252 368.284 231.123 363.965C234.252 359.258 239.07 356.072 242.91 351.996C247.792 346.816 251.98 341.061 257.004 336.001C261.633 331.338 266.593 326.97 271.999 323.219C274.478 321.5 277.904 320.129 278.663 316.9C280.31 309.887 269.942 311.954 269.187 304.996C268.863 302.015 269.888 298.985 269.946 296C270.138 286.028 268.807 274.655 266.265 265C265.319 261.403 264.555 257.148 262.297 254.108C257.078 247.079 243.804 245.493 236 242.576C226.49 239.02 216.235 236.681 207 232.482C201.672 230.06 197.048 225.017 191 224.423C184.812 223.815 179.195 228.392 173 228.4C168.074 228.406 163.948 225.942 159 227M281 309C281.167 311.902 281.79 315.407 280.48 318.13C278.046 323.192 271.035 325.451 267 329.104C258.185 337.085 250.332 346.021 242.575 355C239.696 358.332 235.985 361.29 233.6 365C231.091 368.901 231.776 373.91 229.547 377.945C227.226 382.146 218.636 383.595 218.636 388.867C218.636 392.836 224.622 391.304 227 391.529C235.783 392.36 241.954 400.146 251 398.11C255.93 397.001 259.989 394.849 263.941 391.705C265.303 390.621 268.046 388.649 266.824 386.562C265.636 384.534 260.114 384.019 258 383L267 382L266 377C274.625 383.686 269.117 387.757 265 395C270.248 393.337 275.835 393.09 280.999 391.235C288.504 388.54 293.178 376.16 284.786 371.179C280.191 368.452 273.755 370.786 269 371.789C264.475 372.744 258.359 371.817 254.21 373.603C248.914 375.884 244.581 385.653 244 391L241 390C243.118 383.098 248.708 378.136 250 371C245.346 374.153 241.688 377.912 237 373C242.374 373.934 245.53 373.124 248 368C245.708 366.451 244.334 365.396 243 363C246.9 364.68 250.653 367.587 255 367.853C265.587 368.499 273.834 359.188 284 358.434C290.039 357.986 292.324 363.569 297.285 365.358C301.313 366.81 309.946 364.018 313.941 362.721C315.465 362.227 316.794 361.457 317.339 359.852C318.601 356.134 314.576 351.192 313 348C319.043 352.92 321.295 357.562 319 365L336 365C333.986 366.884 332.754 367.062 330 367C330.901 368.922 331.076 368.999 333 370C323.918 371.749 310.151 360.784 301.322 368.703C297.202 372.398 301.046 379.328 300.867 384C300.626 390.3 296.723 394.368 292 398C294.588 399.778 298.212 399.677 300.562 401.742C303.014 403.896 302.588 407.171 299.848 408.821C297.469 410.253 294.577 409.729 292 410.432C289.021 411.245 286.548 413.344 284 415L285 410C278.836 412.566 273.361 417.053 268 411C270.582 411.811 273.264 412.925 276 412.18C279.611 411.196 282.25 408.172 286 407.409C290.66 406.46 295.214 408.126 300 407C298.341 401.534 293.892 402.232 289 401.154C274.49 397.957 261.857 414.615 248 416.033C241.15 416.734 237.305 408.846 231 407.802C226.742 407.098 219.276 408.428 215.019 409.344C213.45 409.682 211.222 410.359 210.921 412.235C210.13 417.165 222.019 419.706 224.895 422.275C230.548 427.323 231.507 435.666 237.105 440.772C245.086 448.053 256.865 445.837 261 458C272.141 456.014 281.883 447.723 292 443C287.65 440.029 281.365 442.488 277.523 438.656C273.604 434.746 273.584 421.333 279.133 418.894C282.899 417.238 287.991 418 292 418L318 418L318 420L291 420C287.844 420 283.088 419.179 280.318 421.028C275.744 424.08 276.862 436.411 282.059 438.196C292.433 441.759 300.494 436.175 310 434C308.701 435.617 307.61 436.672 306 438C309.331 439.398 313.784 438.167 316.682 440.603C321.71 444.83 321.399 459.632 314.956 462.258C311.157 463.806 306.019 463 302 463C293.666 463 285.271 463.053 277 464C278.517 470.952 286.273 469 292 469C306.646 469 323.728 466.602 338 470C332.764 471.548 327.398 470.72 322 471.09C304.368 472.297 286.672 472 269 472C261.078 472 251.747 470.654 244 472.394C237.297 473.898 231.193 479.109 225 482C230.216 484.189 237.381 483 243 483L280 483L411 483L411 269C404.765 269.317 399.11 266.245 393 268C395.816 274.762 405.395 285.213 402.393 292.906C399.454 300.435 384.67 300.495 378 301.804C369.259 303.519 359.161 306.012 352 311.529C347.332 315.126 344.281 320.091 340 324C340.479 316.304 348.578 312.483 353 307C344.954 307.005 336.627 308 329 310.699C322.421 313.028 317.226 317.298 310 317C315.511 313.942 321.504 312.361 327 309C323.434 306.045 317.845 302.659 313 303.318C307.717 304.036 303.352 308.046 298 309C301.662 304.804 310.199 300.231 316 300.858C320.82 301.379 323.944 304.734 329 304C324.552 297.82 317.819 293.311 310 295C318.258 285.621 329.121 301.723 336 305.106C339.675 306.914 345.035 305.205 348.94 304.926C361.573 304.022 373.599 300.886 386 298.398C390.178 297.56 399.771 296.923 401.111 291.921C402.722 285.908 396.195 277.873 393.412 273C392.3 271.054 391.338 268.219 389.435 266.889C386.796 265.044 380.496 265.86 380 269C374.851 267.215 370.265 264.231 365 262.746C347.422 257.79 324.879 257.607 309.001 267.468C303.459 270.91 301.486 276.433 296.895 280.674C291.004 286.116 283.999 290.395 278.001 295.831C275.738 297.881 272.572 299.918 271.662 303.01C269.898 309.002 277.19 308.987 281 309M245 319C252.206 313.646 254.079 304.379 256 296C250.435 297.323 244.164 301.818 243.515 308C243.139 311.575 244.543 315.459 245 319M84 384C84.7395 380.882 85.8486 377.987 87 375C80.7119 375.978 78.3358 382.353 72 383C76.4268 378.574 86.1546 372.854 88.2176 366.96C89.6517 362.863 86.7702 358.802 85.5841 355.039C84.7545 352.407 84.7481 349.648 84 347C78.9146 349.372 75.2371 353.79 71 357.421C63.7189 363.659 55.8528 369.726 48 375.2C42.8099 378.818 35.7063 379.422 31.3025 384.213C27.3132 388.553 27.4292 394.922 23 399C23.1612 392.142 26.0134 384.103 32.0432 380.214C38.5316 376.029 46.3552 375.632 50 368C41.9899 368.105 29.0671 368.127 22.0008 371.988C16.4225 375.036 13.8329 381.257 8 384C9.95889 379.722 13.2869 376.423 15 372C11.2884 371.454 3.98552 368.096 1.02778 371.742C-0.625215 373.78 0.00109251 377.574 0 380L0 401L0 483L219 483C213.774 478.666 204.788 473.048 198 471.923C189.48 470.51 179.675 472.198 171 471.985C157.343 471.651 143.72 471 130 471L107 471C102.339 471 98.4132 471.485 95 468L116 468C118.35 456.636 140.009 461.001 149 461C153.113 461 159.138 462.015 160.562 456.942C162.174 451.194 157.211 448.557 153 446.15C149.418 444.103 146.201 442.286 142 442.043C136.214 441.71 126.328 443.362 121.523 439.347C117.671 436.129 117.948 422.947 121.514 419.662C124.017 417.356 127.887 417.98 131 417.997L144 418L163 418C155.303 422.107 143.582 420 135 420C131.978 420 127.986 419.364 125.148 420.603C120.869 422.472 120.409 434.13 123.603 437.142C126.705 440.066 133.106 439 137 439C135.165 436.184 132.193 434.572 130 432C135.719 433.371 140.322 437.375 146 438.61C150.825 439.659 156.484 438.001 160.852 440.938C164.386 443.314 163.686 447.988 167.148 450.532C170.165 452.75 177.883 457.794 181.566 455.153C187.481 450.911 180.306 441.2 179.179 436.289C178.515 433.394 179.851 429.803 178.206 427.22C174.401 421.246 165.955 417.771 163.121 410.999C161.426 406.948 165.096 403.143 164.247 399C163.423 394.982 159.134 391.35 159.909 387.004C161.521 377.96 174.792 375.982 180.956 371.995C185.371 369.139 186.983 363.97 187.7 359C189.286 348 183.633 341.589 177.652 333.001C174.374 328.295 169.364 322.797 163 323.242C156.984 323.664 151.049 332.184 152.937 338C155.308 345.304 171.912 353.871 159 360C164.899 351.256 156.859 347.756 152 341L150 341C147.292 349.323 143.659 360.97 134 363.566C128.708 364.988 123.337 362.057 118 363.649C113.131 365.102 108.866 368.341 104 370C106.73 365.485 115.69 360.772 121 360.256C124.465 359.92 127.568 361.863 131 361.707C137.749 361.4 142.447 354.947 144 349C133.729 350.383 124.637 353.283 115 357C120.217 347.306 135.575 350.665 143.891 345.583C149.555 342.121 149.565 333.138 153.532 328.004C156.302 324.419 160.111 320.746 165 321.384C175.848 322.801 179.173 335.696 188 340C189.958 331.777 188.455 323.949 185.975 316C184.938 312.678 183.888 308.343 179.945 307.527C174.22 306.342 169.054 311.4 163 310.319C155.279 308.941 145.814 302.787 138 304.803C125.676 307.983 117.264 319.756 108 327.561C102.565 332.14 95.1147 335.644 90.6381 341.184C84.3749 348.936 89.4573 354.84 90.9144 363C92.0585 369.407 88.8074 379.801 84 384M264 462C265.973 466.128 268.514 468.094 273 469C273.699 466.62 274.215 463.52 276.43 462.028C279.015 460.286 283.061 461.09 286 460.961C292.039 460.696 297.92 460 304 460C307.151 460 313.739 461.216 315.972 458.397C317.3 456.72 316.989 453.99 316.999 452C317.012 449.47 317.509 445.735 315.821 443.603C313.489 440.659 305.317 441.779 302 442.105C297.14 442.582 293.172 445.403 289 447.694C280.603 452.306 272.002 456.722 264 462M164 453C163.792 456.069 163.848 460.279 161.312 462.489C158.639 464.818 153.356 464.602 150 464.855C140.222 465.593 128.217 462.507 119 466C122.888 468.945 128.284 468 133 468C139.94 468 147.088 467.512 154 468.17C159.824 468.724 167.233 470.421 172.852 467.968C176.409 466.415 176.855 461.433 174.397 458.637C171.958 455.864 167.378 454.229 164 453M210 467C218.941 471.014 231.387 469 241 469C236.892 461.171 226.153 464.639 224 454C221.804 454.008 218.618 453.541 216.767 455.013C215.201 456.259 215.313 458.552 214.712 460.285C213.749 463.067 212.11 465.047 210 467M179 465C181.58 469.679 186.77 469.89 191 467C186.742 464.53 183.705 462.98 179 465M252 468C255.697 469.552 260.017 469 264 469L264 467C258.987 465.898 256.766 465.614 252 468M208 472C211.258 475.293 218.104 479.868 223 479.289C227.204 478.791 231.56 475.269 235 473C227.591 469.891 216.025 472 208 472z"/>
</svg>
