0
SECTION
2
HEADER
9
$INSUNITS
70
4
9
$ACADVER
1
AC1014
9
$HANDSEED
5
FFFF
0
ENDSEC
0
SECTION
2
TABLES
0
TABLE
2
VPORT
5
8
100
AcDbSymbolTable
0
ENDTAB
0
TABLE
2
LTYPE
5
5
100
AcDbSymbolTable
0
LTYPE
5
14
100
AcDbSymbolTableRecord
100
AcDbLinetypeTableRecord
2
BYBLOCK
70
0
0
LTYPE
5
15
100
AcDbSymbolTableRecord
100
AcDbLinetypeTableRecord
2
BYLAYER
70
0
0
ENDTAB
0
TABLE
2
LAYER
5
2
100
AcDbSymbolTable
70
2
0
LAYER
5
50
100
AcDbSymbolTableRecord
100
AcDbLayerTableRecord
2
0
70
0
6
CONTINUOUS
0
ENDTAB
0
TABLE
2
STYLE
5
3
100
AcDbSymbolTable
70
1
0
STYLE
5
11
100
AcDbSymbolTableRecord
100
AcDbTextStyleTableRecord
2
STANDARD
70
0
0
ENDTAB
0
TABLE
2
VIEW
5
6
100
AcDbSymbolTable
70
0
0
ENDTAB
0
TABLE
2
UCS
5
7
100
AcDbSymbolTable
70
0
0
ENDTAB
0
TABLE
2
APPID
5
9
100
AcDbSymbolTable
70
2
0
APPID
5
12
100
AcDbSymbolTableRecord
100
AcDbRegAppTableRecord
2
ACAD
70
0
0
ENDTAB
0
TABLE
2
DIMSTYLE
5
A
100
AcDbSymbolTable
70
1
0
ENDTAB
0
TABLE
2
BLOCK_RECORD
5
1
100
AcDbSymbolTable
70
1
0
BLOCK_RECORD
5
1F
100
AcDbSymbolTableRecord
100
AcDbBlockTableRecord
2
*MODEL_SPACE
0
BLOCK_RECORD
5
1B
100
AcDbSymbolTableRecord
100
AcDbBlockTableRecord
2
*PAPER_SPACE
0
ENDTAB
0
ENDSEC
0
SECTION
2
BLOCKS
0
BLOCK
5
20
100
AcDbEntity
100
AcDbBlockBegin
2
*MODEL_SPACE
0
ENDBLK
5
21
100
AcDbEntity
100
AcDbBlockEnd
0
BLOCK
5
1C
100
AcDbEntity
100
AcDbBlockBegin
2
*PAPER_SPACE
0
ENDBLK
5
1D
100
AcDbEntity
100
AcDbBlockEnd
0
ENDSEC
0
SECTION
2
ENTITIES
0
LINE
5
100
100
AcDbEntity
8
0
100
AcDbLine
10
11.285798425968526
20
-122.24582730241805
30
0
11
-11.114201574031465
21
-122.24582730241805
31
0
0
LINE
5
101
100
AcDbEntity
8
0
100
AcDbLine
10
-11.114201574031465
20
-122.24582730241805
30
0
11
-11.114201574031469
21
-99.845827302418044
31
0
0
LINE
5
102
100
AcDbEntity
8
0
100
AcDbLine
10
-11.114201574031469
20
-99.845827302418044
30
0
11
11.285798425968526
21
-99.845827302418044
31
0
0
LINE
5
103
100
AcDbEntity
8
0
100
AcDbLine
10
11.285798425968526
20
-99.845827302418044
30
0
11
11.285798425968526
21
-122.24582730241805
31
0
0
LINE
5
104
100
AcDbEntity
8
0
100
AcDbLine
10
11.285798425968526
20
-122.24582730241805
30
0
11
-11.114201574031469
21
-99.845827302418044
31
0
0
LINE
5
105
100
AcDbEntity
8
0
100
AcDbLine
10
-11.114201574031465
20
-122.24582730241805
30
0
11
11.285798425968526
21
-99.845827302418044
31
0
0
LINE
5
106
100
AcDbEntity
8
0
100
AcDbLine
10
48.636062073221744
20
-87.926628172730489
30
0
11
57.208170958199759
21
-108.6215297009833
31
0
0
LINE
5
107
100
AcDbEntity
8
0
100
AcDbLine
10
36.513269429946938
20
-117.19363858596131
30
0
11
48.636062073221744
21
-87.926628172730489
31
0
0
LINE
5
108
100
AcDbEntity
8
0
100
AcDbLine
10
36.513269429946938
20
-117.19363858596131
30
0
11
27.941160544968927
21
-96.498737057708496
31
0
0
LINE
5
109
100
AcDbEntity
8
0
100
AcDbLine
10
57.208170958199759
20
-108.6215297009833
30
0
11
27.941160544968927
21
-96.498737057708496
31
0
0
LINE
5
110
100
AcDbEntity
8
0
100
AcDbLine
10
57.208170958199759
20
-108.6215297009833
30
0
11
36.513269429946938
21
-117.19363858596131
31
0
0
LINE
5
111
100
AcDbEntity
8
0
100
AcDbLine
10
27.941160544968927
20
-96.498737057708496
30
0
11
48.636062073221744
21
-87.926628172730489
31
0
0
LINE
5
112
100
AcDbEntity
8
0
100
AcDbLine
10
78.581926156827535
20
-62.621396960613907
30
0
11
94.421118055406197
21
-78.460588859192583
31
0
0
LINE
5
113
100
AcDbEntity
8
0
100
AcDbLine
10
78.581926156827549
20
-94.299780757771259
30
0
11
78.581926156827535
21
-62.621396960613907
31
0
0
LINE
5
114
100
AcDbEntity
8
0
100
AcDbLine
10
78.581926156827549
20
-94.299780757771259
30
0
11
62.742734258248881
21
-78.460588859192569
31
0
0
LINE
5
115
100
AcDbEntity
8
0
100
AcDbLine
10
94.421118055406197
20
-78.460588859192583
30
0
11
62.742734258248881
21
-78.460588859192569
31
0
0
LINE
5
116
100
AcDbEntity
8
0
100
AcDbLine
10
94.421118055406197
20
-78.460588859192583
30
0
11
78.581926156827549
21
-94.299780757771259
31
0
0
LINE
5
117
100
AcDbEntity
8
0
100
AcDbLine
10
62.742734258248881
20
-78.460588859192569
30
0
11
78.581926156827535
21
-62.621396960613907
31
0
0
LINE
5
118
100
AcDbEntity
8
0
100
AcDbLine
10
96.564404329990793
20
-27.782625725620917
30
0
11
117.25930585824364
21
-36.354734610598939
31
0
0
LINE
5
119
100
AcDbEntity
8
0
100
AcDbLine
10
108.68719697326563
20
-57.049636138851753
30
0
11
96.564404329990793
21
-27.782625725620917
31
0
0
LINE
5
120
100
AcDbEntity
8
0
100
AcDbLine
10
108.68719697326563
20
-57.049636138851753
30
0
11
87.992295445012786
21
-48.477527253873731
31
0
0
LINE
5
121
100
AcDbEntity
8
0
100
AcDbLine
10
117.25930585824364
20
-36.354734610598939
30
0
11
87.992295445012786
21
-48.477527253873731
31
0
0
LINE
5
122
100
AcDbEntity
8
0
100
AcDbLine
10
117.25930585824364
20
-36.354734610598939
30
0
11
108.68719697326563
21
-57.049636138851753
31
0
0
LINE
5
123
100
AcDbEntity
8
0
100
AcDbLine
10
87.992295445012786
20
-48.477527253873731
30
0
11
96.564404329990793
21
-27.782625725620917
31
0
0
LINE
5
124
100
AcDbEntity
8
0
100
AcDbLine
10
99.845827302418058
20
11.285798425968549
30
0
11
122.24582730241808
21
11.285798425968554
31
0
0
LINE
5
125
100
AcDbEntity
8
0
100
AcDbLine
10
122.24582730241808
20
-11.114201574031441
30
0
11
99.845827302418058
21
11.285798425968549
31
0
0
LINE
5
126
100
AcDbEntity
8
0
100
AcDbLine
10
122.24582730241808
20
-11.114201574031441
30
0
11
99.845827302418058
21
-11.114201574031448
31
0
0
LINE
5
127
100
AcDbEntity
8
0
100
AcDbLine
10
122.24582730241808
20
11.285798425968554
30
0
11
99.845827302418058
21
-11.114201574031448
31
0
0
LINE
5
128
100
AcDbEntity
8
0
100
AcDbLine
10
122.24582730241808
20
11.285798425968554
30
0
11
122.24582730241808
21
-11.114201574031441
31
0
0
LINE
5
129
100
AcDbEntity
8
0
100
AcDbLine
10
99.845827302418058
20
-11.114201574031448
30
0
11
99.845827302418058
21
11.285798425968549
31
0
0
LINE
5
130
100
AcDbEntity
8
0
100
AcDbLine
10
87.926628172730489
20
48.636062073221751
30
0
11
108.62152970098333
21
57.208170958199759
31
0
0
LINE
5
131
100
AcDbEntity
8
0
100
AcDbLine
10
117.19363858596132
20
36.513269429946945
30
0
11
87.926628172730489
21
48.636062073221751
31
0
0
LINE
5
132
100
AcDbEntity
8
0
100
AcDbLine
10
117.19363858596132
20
36.513269429946945
30
0
11
96.49873705770851
21
27.941160544968934
31
0
0
LINE
5
133
100
AcDbEntity
8
0
100
AcDbLine
10
108.62152970098333
20
57.208170958199759
30
0
11
96.49873705770851
21
27.941160544968934
31
0
0
LINE
5
134
100
AcDbEntity
8
0
100
AcDbLine
10
108.62152970098333
20
57.208170958199759
30
0
11
117.19363858596132
21
36.513269429946945
31
0
0
LINE
5
135
100
AcDbEntity
8
0
100
AcDbLine
10
96.49873705770851
20
27.941160544968934
30
0
11
87.926628172730489
21
48.636062073221751
31
0
0
LINE
5
136
100
AcDbEntity
8
0
100
AcDbLine
10
62.621396960613929
20
78.581926156827535
30
0
11
78.460588859192612
21
94.421118055406197
31
0
0
LINE
5
137
100
AcDbEntity
8
0
100
AcDbLine
10
94.299780757771259
20
78.581926156827549
30
0
11
62.621396960613929
21
78.581926156827535
31
0
0
LINE
5
138
100
AcDbEntity
8
0
100
AcDbLine
10
94.299780757771259
20
78.581926156827549
30
0
11
78.460588859192598
21
62.742734258248873
31
0
0
LINE
5
139
100
AcDbEntity
8
0
100
AcDbLine
10
78.460588859192612
20
94.421118055406197
30
0
11
78.460588859192598
21
62.742734258248873
31
0
0
LINE
5
140
100
AcDbEntity
8
0
100
AcDbLine
10
78.460588859192612
20
94.421118055406197
30
0
11
94.299780757771259
21
78.581926156827549
31
0
0
LINE
5
141
100
AcDbEntity
8
0
100
AcDbLine
10
78.460588859192598
20
62.742734258248873
30
0
11
62.621396960613929
21
78.581926156827535
31
0
0
LINE
5
142
100
AcDbEntity
8
0
100
AcDbLine
10
27.782625725620921
20
96.564404329990822
30
0
11
36.354734610598939
21
117.25930585824364
31
0
0
LINE
5
143
100
AcDbEntity
8
0
100
AcDbLine
10
57.04963613885176
20
108.68719697326561
30
0
11
27.782625725620921
21
96.564404329990822
31
0
0
LINE
5
144
100
AcDbEntity
8
0
100
AcDbLine
10
57.04963613885176
20
108.68719697326561
30
0
11
48.477527253873738
21
87.9922954450128
31
0
0
LINE
5
145
100
AcDbEntity
8
0
100
AcDbLine
10
36.354734610598939
20
117.25930585824364
30
0
11
48.477527253873738
21
87.9922954450128
31
0
0
LINE
5
146
100
AcDbEntity
8
0
100
AcDbLine
10
36.354734610598939
20
117.25930585824364
30
0
11
57.04963613885176
21
108.68719697326561
31
0
0
LINE
5
147
100
AcDbEntity
8
0
100
AcDbLine
10
48.477527253873738
20
87.9922954450128
30
0
11
27.782625725620921
21
96.564404329990822
31
0
0
LINE
5
148
100
AcDbEntity
8
0
100
AcDbLine
10
-11.285798425968512
20
99.845827302418044
30
0
11
-11.28579842596851
21
122.24582730241805
31
0
0
LINE
5
149
100
AcDbEntity
8
0
100
AcDbLine
10
11.114201574031481
20
122.24582730241805
30
0
11
-11.285798425968512
21
99.845827302418044
31
0
0
LINE
5
150
100
AcDbEntity
8
0
100
AcDbLine
10
11.114201574031481
20
122.24582730241805
30
0
11
11.114201574031481
21
99.845827302418044
31
0
0
LINE
5
151
100
AcDbEntity
8
0
100
AcDbLine
10
-11.28579842596851
20
122.24582730241805
30
0
11
11.114201574031481
21
99.845827302418044
31
0
0
LINE
5
152
100
AcDbEntity
8
0
100
AcDbLine
10
-11.28579842596851
20
122.24582730241805
30
0
11
11.114201574031481
21
122.24582730241805
31
0
0
LINE
5
153
100
AcDbEntity
8
0
100
AcDbLine
10
11.114201574031481
20
99.845827302418044
30
0
11
-11.285798425968512
21
99.845827302418044
31
0
0
LINE
5
154
100
AcDbEntity
8
0
100
AcDbLine
10
-48.636062073221723
20
87.926628172730489
30
0
11
-57.208170958199744
21
108.6215297009833
31
0
0
LINE
5
155
100
AcDbEntity
8
0
100
AcDbLine
10
-36.513269429946924
20
117.19363858596131
30
0
11
-48.636062073221723
21
87.926628172730489
31
0
0
LINE
5
156
100
AcDbEntity
8
0
100
AcDbLine
10
-36.513269429946924
20
117.19363858596131
30
0
11
-27.941160544968913
21
96.498737057708496
31
0
0
LINE
5
157
100
AcDbEntity
8
0
100
AcDbLine
10
-57.208170958199744
20
108.6215297009833
30
0
11
-27.941160544968913
21
96.498737057708496
31
0
0
LINE
5
158
100
AcDbEntity
8
0
100
AcDbLine
10
-57.208170958199744
20
108.6215297009833
30
0
11
-36.513269429946924
21
117.19363858596131
31
0
0
LINE
5
159
100
AcDbEntity
8
0
100
AcDbLine
10
-27.941160544968913
20
96.498737057708496
30
0
11
-48.636062073221723
21
87.926628172730489
31
0
0
LINE
5
160
100
AcDbEntity
8
0
100
AcDbLine
10
-78.581926156827535
20
62.621396960613907
30
0
11
-94.421118055406197
21
78.460588859192598
31
0
0
LINE
5
161
100
AcDbEntity
8
0
100
AcDbLine
10
-78.581926156827549
20
94.299780757771259
30
0
11
-78.581926156827535
21
62.621396960613907
31
0
0
LINE
5
162
100
AcDbEntity
8
0
100
AcDbLine
10
-78.581926156827549
20
94.299780757771259
30
0
11
-62.742734258248873
21
78.460588859192569
31
0
0
LINE
5
163
100
AcDbEntity
8
0
100
AcDbLine
10
-94.421118055406197
20
78.460588859192598
30
0
11
-62.742734258248873
21
78.460588859192569
31
0
0
LINE
5
164
100
AcDbEntity
8
0
100
AcDbLine
10
-94.421118055406197
20
78.460588859192598
30
0
11
-78.581926156827549
21
94.299780757771259
31
0
0
LINE
5
165
100
AcDbEntity
8
0
100
AcDbLine
10
-62.742734258248873
20
78.460588859192569
30
0
11
-78.581926156827535
21
62.621396960613907
31
0
0
LINE
5
166
100
AcDbEntity
8
0
100
AcDbLine
10
-96.564404329990779
20
27.782625725620946
30
0
11
-117.25930585824359
21
36.35473461059896
31
0
0
LINE
5
167
100
AcDbEntity
8
0
100
AcDbLine
10
-108.68719697326557
20
57.049636138851767
30
0
11
-96.564404329990779
21
27.782625725620946
31
0
0
LINE
5
168
100
AcDbEntity
8
0
100
AcDbLine
10
-108.68719697326557
20
57.049636138851767
30
0
11
-87.992295445012758
21
48.477527253873745
31
0
0
LINE
5
169
100
AcDbEntity
8
0
100
AcDbLine
10
-117.25930585824359
20
36.35473461059896
30
0
11
-87.992295445012758
21
48.477527253873745
31
0
0
LINE
5
170
100
AcDbEntity
8
0
100
AcDbLine
10
-117.25930585824359
20
36.35473461059896
30
0
11
-108.68719697326557
21
57.049636138851767
31
0
0
LINE
5
171
100
AcDbEntity
8
0
100
AcDbLine
10
-87.992295445012758
20
48.477527253873745
30
0
11
-96.564404329990779
21
27.782625725620946
31
0
0
LINE
5
172
100
AcDbEntity
8
0
100
AcDbLine
10
-99.845827302418044
20
-11.285798425968503
30
0
11
-122.24582730241805
21
-11.285798425968498
31
0
0
LINE
5
173
100
AcDbEntity
8
0
100
AcDbLine
10
-122.24582730241805
20
11.114201574031492
30
0
11
-99.845827302418044
21
-11.285798425968503
31
0
0
LINE
5
174
100
AcDbEntity
8
0
100
AcDbLine
10
-122.24582730241805
20
11.114201574031492
30
0
11
-99.845827302418044
21
11.11420157403149
31
0
0
LINE
5
175
100
AcDbEntity
8
0
100
AcDbLine
10
-122.24582730241805
20
-11.285798425968498
30
0
11
-99.845827302418044
21
11.11420157403149
31
0
0
LINE
5
176
100
AcDbEntity
8
0
100
AcDbLine
10
-122.24582730241805
20
-11.285798425968498
30
0
11
-122.24582730241805
21
11.114201574031492
31
0
0
LINE
5
177
100
AcDbEntity
8
0
100
AcDbLine
10
-99.845827302418044
20
11.11420157403149
30
0
11
-99.845827302418044
21
-11.285798425968503
31
0
0
LINE
5
178
100
AcDbEntity
8
0
100
AcDbLine
10
-87.926628172730489
20
-48.636062073221751
30
0
11
-108.62152970098333
21
-57.208170958199759
31
0
0
LINE
5
179
100
AcDbEntity
8
0
100
AcDbLine
10
-117.19363858596132
20
-36.513269429946945
30
0
11
-87.926628172730489
21
-48.636062073221751
31
0
0
LINE
5
180
100
AcDbEntity
8
0
100
AcDbLine
10
-117.19363858596132
20
-36.513269429946945
30
0
11
-96.49873705770851
21
-27.941160544968934
31
0
0
LINE
5
181
100
AcDbEntity
8
0
100
AcDbLine
10
-108.62152970098333
20
-57.208170958199759
30
0
11
-96.49873705770851
21
-27.941160544968934
31
0
0
LINE
5
182
100
AcDbEntity
8
0
100
AcDbLine
10
-108.62152970098333
20
-57.208170958199759
30
0
11
-117.19363858596132
21
-36.513269429946945
31
0
0
LINE
5
183
100
AcDbEntity
8
0
100
AcDbLine
10
-96.49873705770851
20
-27.941160544968934
30
0
11
-87.926628172730489
21
-48.636062073221751
31
0
0
LINE
5
184
100
AcDbEntity
8
0
100
AcDbLine
10
-62.621396960613936
20
-78.581926156827521
30
0
11
-78.460588859192612
21
-94.421118055406183
31
0
0
LINE
5
185
100
AcDbEntity
8
0
100
AcDbLine
10
-94.299780757771259
20
-78.581926156827521
30
0
11
-62.621396960613936
21
-78.581926156827521
31
0
0
LINE
5
186
100
AcDbEntity
8
0
100
AcDbLine
10
-94.299780757771259
20
-78.581926156827521
30
0
11
-78.460588859192598
21
-62.742734258248866
31
0
0
LINE
5
187
100
AcDbEntity
8
0
100
AcDbLine
10
-78.460588859192612
20
-94.421118055406183
30
0
11
-78.460588859192598
21
-62.742734258248866
31
0
0
LINE
5
188
100
AcDbEntity
8
0
100
AcDbLine
10
-78.460588859192612
20
-94.421118055406183
30
0
11
-94.299780757771259
21
-78.581926156827521
31
0
0
LINE
5
189
100
AcDbEntity
8
0
100
AcDbLine
10
-78.460588859192598
20
-62.742734258248866
30
0
11
-62.621396960613936
21
-78.581926156827521
31
0
0
LINE
5
190
100
AcDbEntity
8
0
100
AcDbLine
10
-27.782625725620985
20
-96.564404329990793
30
0
11
-36.35473461059901
21
-117.25930585824361
31
0
0
LINE
5
191
100
AcDbEntity
8
0
100
AcDbLine
10
-57.049636138851824
20
-108.6871969732656
30
0
11
-27.782625725620985
21
-96.564404329990793
31
0
0
LINE
5
192
100
AcDbEntity
8
0
100
AcDbLine
10
-57.049636138851824
20
-108.6871969732656
30
0
11
-48.477527253873795
21
-87.992295445012786
31
0
0
LINE
5
193
100
AcDbEntity
8
0
100
AcDbLine
10
-36.35473461059901
20
-117.25930585824361
30
0
11
-48.477527253873795
21
-87.992295445012786
31
0
0
LINE
5
194
100
AcDbEntity
8
0
100
AcDbLine
10
-36.35473461059901
20
-117.25930585824361
30
0
11
-57.049636138851824
21
-108.6871969732656
31
0
0
LINE
5
195
100
AcDbEntity
8
0
100
AcDbLine
10
-48.477527253873795
20
-87.992295445012786
30
0
11
-27.782625725620985
21
-96.564404329990793
31
0
0
LINE
5
196
100
AcDbEntity
8
0
100
AcDbLine
10
0
20
250
30
0
11
-0.085798425968521608
21
169.87214656346555
31
0
0
SPLINE
5
197
100
AcDbEntity
8
0
100
AcDbSpline
70
1064
71
5
72
61
73
55
74
0
42
0.000000001
43
0.0000000001
44
0.0000000001
40
0
40
0
40
0
40
0
40
0
40
0
40
0.02
40
0.040000000000000001
40
0.059999999999999998
40
0.080000000000000002
40
0.10000000000000001
40
0.12000000000000001
40
0.14000000000000001
40
0.16
40
0.17999999999999999
40
0.19999999999999998
40
0.21999999999999997
40
0.23999999999999996
40
0.25999999999999995
40
0.27999999999999997
40
0.29999999999999999
40
0.32000000000000001
40
0.34000000000000002
40
0.36000000000000004
40
0.38000000000000006
40
0.40000000000000008
40
0.4200000000000001
40
0.44000000000000011
40
0.46000000000000013
40
0.48000000000000015
40
0.50000000000000011
40
0.52000000000000013
40
0.54000000000000015
40
0.56000000000000016
40
0.58000000000000018
40
0.6000000000000002
40
0.62000000000000022
40
0.64000000000000024
40
0.66000000000000025
40
0.68000000000000027
40
0.70000000000000029
40
0.72000000000000031
40
0.74000000000000032
40
0.76000000000000034
40
0.78000000000000036
40
0.80000000000000038
40
0.8200000000000004
40
0.84000000000000041
40
0.86000000000000043
40
0.88000000000000045
40
0.90000000000000047
40
0.92000000000000048
40
0.9400000000000005
40
0.96000000000000052
40
0.98000000000000054
40
1
40
1
40
1
40
1
40
1
40
1
10
-0.11496830048429704
20
142.62987028249017
30
0
10
2.2197233245509915
20
142.69901813832098
30
0
10
6.8311984159784478
20
142.74201914036661
30
0
10
13.574706488113062
20
142.52066455436102
30
0
10
22.226431276288782
20
141.64860180133806
30
0
10
32.529051729169325
20
139.57394130547496
30
0
10
42.398882906621253
20
136.49071180781726
30
0
10
51.940461071243206
20
132.39616994477342
30
0
10
61.263221214452813
20
127.3020602135995
30
0
10
70.508926632348235
20
121.29557957727241
30
0
10
79.753253935847951
20
114.42227764707765
30
0
10
88.921302772960544
20
106.57356350851705
30
0
10
97.85349279796273
20
97.587121298021231
30
0
10
106.31688818861478
20
87.270505907925326
30
0
10
114.03913875014229
20
75.456244839160917
30
0
10
120.7331004320727
20
62.045474820435629
30
0
10
126.12419160009668
20
47.051984703079711
30
0
10
129.97976718708483
20
30.658495669027324
30
0
10
132.11962691192173
20
13.198777952476844
30
0
10
132.41835941077565
20
-4.890733303596547
30
0
10
130.81058291615972
20
-23.109134814699118
30
0
10
127.29511496924701
20
-40.933133263146985
30
0
10
121.94000329263181
20
-57.857666345644461
30
0
10
114.88703008377881
20
-73.43644488249619
30
0
10
106.3576259771871
20
-87.324375401151698
30
0
10
96.656280354087372
20
-99.315500905233606
30
0
10
86.180538323702947
20
-109.39284168631869
30
0
10
75.411228470308856
20
-117.74212876055637
30
0
10
64.859060167344651
20
-124.68512391839985
30
0
10
55.019536095013891
20
-130.62919350257306
30
0
10
46.32591307225988
20
-136.01172412769532
30
0
10
39.099707788702439
20
-141.24460133869795
30
0
10
33.509296856109884
20
-146.66403755567947
30
0
10
29.506163531245662
20
-152.46442908926784
30
0
10
26.855250204524342
20
-158.70066478821403
30
0
10
25.231456922157935
20
-165.33712889458243
30
0
10
24.290285551590113
20
-172.28072642237174
30
0
10
23.762805736878924
20
-179.42449737865974
30
0
10
23.473344869687409
20
-186.66671032292288
30
0
10
23.319881572597883
20
-193.92081334463853
30
0
10
23.263053381687676
20
-201.12495852060985
30
0
10
23.318744551435739
20
-208.25922361296588
30
0
10
23.518660575560016
20
-215.32834382621672
30
0
10
23.824390569964319
20
-222.30480221934684
30
0
10
24.074939868919859
20
-229.09312295093702
30
0
10
23.872948127211192
20
-235.46177597565031
30
0
10
22.672817894129164
20
-241.07671656754349
30
0
10
20.069425586010958
20
-245.63710564330248
30
0
10
16.065458583150424
20
-248.99645080334449
30
0
10
11.265651539866884
20
-251.25753902917637
30
0
10
6.4754070503704222
20
-252.62714116512581
30
0
10
3.1496375128303029
20
-253.15127716272588
30
0
10
1.0215481318319806
20
-253.24598252106182
30
0
10
-0.233272300377317
20
-253.17699503248338
30
0
10
-0.81977718061487803
20
-253.10944666211037
30
0
0
SPLINE
5
198
100
AcDbEntity
8
0
100
AcDbSpline
70
1064
71
5
72
61
73
55
74
0
42
0.000000001
43
0.0000000001
44
0.0000000001
40
0
40
0
40
0
40
0
40
0
40
0
40
0.02
40
0.040000000000000001
40
0.059999999999999998
40
0.080000000000000002
40
0.10000000000000001
40
0.12000000000000001
40
0.14000000000000001
40
0.16
40
0.17999999999999999
40
0.19999999999999998
40
0.21999999999999997
40
0.23999999999999996
40
0.25999999999999995
40
0.27999999999999997
40
0.29999999999999999
40
0.32000000000000001
40
0.34000000000000002
40
0.36000000000000004
40
0.38000000000000006
40
0.40000000000000008
40
0.4200000000000001
40
0.44000000000000011
40
0.46000000000000013
40
0.48000000000000015
40
0.50000000000000011
40
0.52000000000000013
40
0.54000000000000015
40
0.56000000000000016
40
0.58000000000000018
40
0.6000000000000002
40
0.62000000000000022
40
0.64000000000000024
40
0.66000000000000025
40
0.68000000000000027
40
0.70000000000000029
40
0.72000000000000031
40
0.74000000000000032
40
0.76000000000000034
40
0.78000000000000036
40
0.80000000000000038
40
0.8200000000000004
40
0.84000000000000041
40
0.86000000000000043
40
0.88000000000000045
40
0.90000000000000047
40
0.92000000000000048
40
0.9400000000000005
40
0.96000000000000052
40
0.98000000000000054
40
1
40
1
40
1
40
1
40
1
40
1
10
-0.1148932895358698
20
142.62986788089509
30
0
10
-2.4494334925551358
20
142.70401673215008
30
0
10
-7.0608099630366326
20
142.75689578184577
30
0
10
-13.804782712923993
20
142.54998648014177
30
0
10
-22.458363322819462
20
141.69645726330501
30
0
10
-32.765412596109996
20
139.64386818143132
30
0
10
-42.64183211160465
20
136.58178465115935
30
0
10
-52.192163159354465
20
132.50768746128745
30
0
10
-61.52581503590114
20
127.43355576043751
30
0
10
-70.784364219443717
20
121.44688992822914
30
0
10
-80.043390794584113
20
114.59340228259849
30
0
10
-89.228227756300726
20
106.76434201301922
30
0
10
-98.179643246666487
20
97.797051973861699
30
0
10
-106.66511437321509
20
87.498588519335101
30
0
10
-114.41265033829217
20
75.700896001726619
30
0
10
-121.13531945181258
20
62.304496045023512
30
0
10
-126.55851106095847
20
47.322588955034995
30
0
10
-130.44918914501562
20
30.937396782276679
30
0
10
-132.62643888322449
20
13.482302826303661
30
0
10
-132.96391438129979
20
-4.6065274631650164
30
0
10
-131.3951611480251
20
-22.828331939320975
30
0
10
-127.91787590949531
20
-40.65982087391081
30
0
10
-122.59902446497648
20
-57.59578715356384
30
0
10
-115.57943279609837
20
-73.189638676442684
30
0
10
-107.0797918639025
20
-87.095808186949597
30
0
10
-97.404149173962779
20
-99.107686692486823
30
0
10
-86.950012450109455
20
-109.20744273121176
30
0
10
-76.198606921550123
20
-117.57977691409965
30
0
10
-65.661329952906414
20
-124.54535648093176
30
0
10
-55.834555653153473
20
-130.51048571717917
30
0
10
-47.152476764731944
20
-135.91162251612562
30
0
10
-39.937491588232923
20
-141.15996313080859
30
0
10
-34.358696669895814
20
-146.59135887243502
30
0
10
-30.367992001372315
20
-152.40030977807311
30
0
10
-27.730438180619522
20
-158.64220810144292
30
0
10
-26.120859728390897
20
-165.28213445323149
30
0
10
-25.194559825394975
20
-172.22773182318534
30
0
10
-24.68237949733944
20
-179.3726163573337
30
0
10
-24.408428559681173
20
-186.61543302971509
30
0
10
-24.270500424317415
20
-193.86984857721683
30
0
10
-24.229100209982608
20
-201.07409947968409
30
0
10
-24.300069433176176
20
-208.20822948791823
30
0
10
-24.515123685399779
20
-215.27690590274085
30
0
10
-24.835793307583533
20
-222.25269413427196
30
0
10
-25.100879612558764
20
-229.04046337560985
30
0
10
-24.912527412877278
20
-235.40953511722631
30
0
10
-23.724425010857569
20
-241.0270337568233
30
0
10
-21.130805301458789
20
-245.59298839061569
30
0
10
-17.13404170722422
20
-248.96090107764894
30
0
10
-12.339087613872339
20
-251.23226346735646
30
0
10
-7.5517867463657398
20
-252.61212116715225
30
0
10
-4.2271469947226041
20
-253.14337830821856
30
0
10
-2.0992651370548474
20
-253.24264085589215
30
0
10
-0.84429975116551814
20
-253.17634076795821
30
0
10
-0.25765151823375027
20
-253.11004856887513
30
0
0
ENDSEC
0
SECTION
2
OBJECTS
0
DICTIONARY
5
C
100
AcDbDictionary
3
ACAD_GROUP
350
D
3
ACAD_MLINESTYLE
350
17
0
DICTIONARY
5
D
100
AcDbDictionary
0
DICTIONARY
5
1A
330
C
100
AcDbDictionary
0
DICTIONARY
5
17
100
AcDbDictionary
0
ENDSEC
0
EOF
