  0
SECTION
  2
HEADER
  9
$ACADVER
  1
AC1009
  9
$EXTMAX
 10
475.0
 20
750.0
 30
0.0
  9
$EXTMIN
 10
-475.0
 20
0.0
 30
0.0
  9
$INSUNITS
 70
     4
  9
$LUNITS
 70
     2
  9
$LUPREC
 70
     4
  9
$MEASUREMENT
 70
     1
  0
ENDSEC
  0
SECTION
  2
TABLES
  0
TABLE
  2
LAYER
 70
     1
  0
LAYER
  2
0
 70
     0
 62
     7
  6
Continuous
  0
LAYER
  2
Werkstueck
 70
     0
 62
    70
  6
Continuous
  0
LAYER
  2
Rahmen
 70
     0
 62
     7
  6
Continuous
  0
LAYER
  2
Bollenhut
 70
     0
 62
     7
  6
Continuous
  0
LAYER
  2
Willkommen
 70
     0
 62
    70
  6
Continuous
  0
LAYER
  2
Wiedersehen
 70
     0
 62
    70
  6
Continuous
  0
LAYER
  2
in
 70
     0
 62
    70
  6
Continuous
  0
LAYER
  2
Hofsgrund
 70
     0
 62
    70
  6
Continuous
  0
ENDTAB
  0
TABLE
  2
APPID
 70
     1
  0
APPID
  2
ACAD
 70
     0
  0
ENDTAB
  0
ENDSEC
  0
SECTION
  2
ENTITIES
  0
LINE
  8
Werkstueck
 10
-475.0
 20
540.0
 30
0.0
 11
-475.0
 21
0.0
 31
0.0
  0
LINE
  8
Werkstueck
 10
0.0
 20
750.0
 30
0.0
 11
475.0
 21
540.0
 31
0.0
  0
LINE
  8
Werkstueck
 10
-475.0
 20
0.0
 30
0.0
 11
475.0
 21
0.0
 31
0.0
  0
LINE
  8
Werkstueck
 10
475.0
 20
0.0
 30
0.0
 11
475.0
 21
540.0
 31
0.0
  0
LINE
  8
Werkstueck
 10
-475.0
 20
540.0
 30
0.0
 11
0.0
 21
750.0
 31
0.0
  0
POLYLINE
  8
Rahmen
 66
     1
 10
0.0
 20
0.0
 30
0.0
 70
     1
  0
VERTEX
  8
Rahmen
 10
9.7044278511634
 20
723.842229540195
 42
0.2111931237293
  0
VERTEX
  8
Rahmen
 10
-9.7044278511633
 20
723.842229540195
 42
0.0
  0
VERTEX
  8
Rahmen
 10
-440.704427851163
 20
533.294861119143
 42
0.2969233087501
  0
VERTEX
  8
Rahmen
 10
-455.0
 20
511.344369551035
 42
0.0
  0
VERTEX
  8
Rahmen
 10
-455.0
 20
44.0
 42
0.4142135623731
  0
VERTEX
  8
Rahmen
 10
-431.0
 20
20.0
 42
0.0
  0
VERTEX
  8
Rahmen
 10
431.0
 20
20.0
 42
0.4142135623731
  0
VERTEX
  8
Rahmen
 10
455.0
 20
44.0
 42
0.0
  0
VERTEX
  8
Rahmen
 10
455.0
 20
511.344369551035
 42
0.2969233087501
  0
VERTEX
  8
Rahmen
 10
440.704427851163
 20
533.294861119143
 42
0.0
  0
SEQEND
  0
POLYLINE
  8
Rahmen
 66
     1
 10
0.0
 20
0.0
 30
0.0
 70
     1
  0
VERTEX
  8
Rahmen
 10
443.0
 20
511.344369551035
 42
0.2969233087501
  0
VERTEX
  8
Rahmen
 10
435.852213925582
 20
522.319615335089
 42
0.0
  0
VERTEX
  8
Rahmen
 10
4.8522139255818
 20
712.866983756142
 42
0.2111931237293
  0
VERTEX
  8
Rahmen
 10
-4.8522139255816
 20
712.866983756142
 42
0.0
  0
VERTEX
  8
Rahmen
 10
-435.852213925582
 20
522.319615335089
 42
0.2969233087501
  0
VERTEX
  8
Rahmen
 10
-443.0
 20
511.344369551035
 42
0.0
  0
VERTEX
  8
Rahmen
 10
-443.0
 20
44.0
 42
0.4142135623731
  0
VERTEX
  8
Rahmen
 10
-431.0
 20
32.0
 42
0.0
  0
VERTEX
  8
Rahmen
 10
431.0
 20
32.0
 42
0.4142135623731
  0
VERTEX
  8
Rahmen
 10
443.0
 20
44.0
 42
0.0
  0
SEQEND
  0
POLYLINE
  8
Bollenhut
 66
     1
 10
0.0
 20
0.0
 30
0.0
 70
     1
  0
VERTEX
  8
Bollenhut
 10
-53.242920529135
 20
579.640162239554
 42
-0.0752679822385
  0
VERTEX
  8
Bollenhut
 10
-40.1756957584742
 20
568.788721932811
 42
-0.0185897980092
  0
VERTEX
  8
Bollenhut
 10
-38.6545980379785
 20
566.941282975687
 42
-0.1084238759661
  0
VERTEX
  8
Bollenhut
 10
-13.2357470350238
 20
585.601770260228
 42
-0.0922984572848
  0
VERTEX
  8
Bollenhut
 10
8.8393025816855
 20
590.438043473702
 42
-0.0858908442568
  0
VERTEX
  8
Bollenhut
 10
30.5323664122634
 20
588.070090154034
 42
-0.0574767649802
  0
VERTEX
  8
Bollenhut
 10
48.1076699982849
 20
579.769172482988
 42
-0.0239598955093
  0
VERTEX
  8
Bollenhut
 10
52.8551851201452
 20
576.557720326396
 42
0.1288724147221
  0
VERTEX
  8
Bollenhut
 10
52.4816624661714
 20
610.042046882298
 42
0.1884970418973
  0
VERTEX
  8
Bollenhut
 10
33.5670584968427
 20
636.168125304655
 42
0.1209343331719
  0
VERTEX
  8
Bollenhut
 10
3.3761949606834
 20
645.806345493461
 42
0.1127808421321
  0
VERTEX
  8
Bollenhut
 10
-22.7677159014409
 20
642.355648153855
 42
0.1510039838537
  0
VERTEX
  8
Bollenhut
 10
-46.9194709544888
 20
623.189828914601
 42
0.0942428083451
  0
VERTEX
  8
Bollenhut
 10
-59.4182741401711
 20
593.001441367506
 42
0.0186968835621
  0
VERTEX
  8
Bollenhut
 10
-60.9813676086696
 20
584.121822415337
 42
-0.0272429152759
  0
SEQEND
  0
POLYLINE
  8
Bollenhut
 66
     1
 10
0.0
 20
0.0
 30
0.0
 70
     1
  0
VERTEX
  8
Bollenhut
 10
51.8940540910348
 20
508.214218936314
 42
0.055509731403
  0
VERTEX
  8
Bollenhut
 10
-8.4341330138786
 20
524.046077484569
 42
0.0810343762597
  0
VERTEX
  8
Bollenhut
 10
-86.0087128746769
 20
521.876916759432
 42
0.0263475755816
  0
VERTEX
  8
Bollenhut
 10
-117.06582452493
 20
514.628910981786
 42
0.0171338266754
  0
VERTEX
  8
Bollenhut
 10
-143.967836540667
 20
504.952171743539
 42
0.0364658778944
  0
VERTEX
  8
Bollenhut
 10
-154.677090169195
 20
500.352965410873
 42
-0.0148774658712
  0
VERTEX
  8
Bollenhut
 10
-162.78964730004
 20
495.589414711207
 42
-0.1241509625191
  0
VERTEX
  8
Bollenhut
 10
-166.698826119034
 20
494.273785185475
 42
-0.1916652499233
  0
VERTEX
  8
Bollenhut
 10
-168.992961197174
 20
495.017459094905
 42
-0.041058253721
  0
VERTEX
  8
Bollenhut
 10
-132.107298265422
 20
516.453007864908
 42
-0.0685189880313
  0
VERTEX
  8
Bollenhut
 10
-88.1885403062833
 20
530.758436898142
 42
-0.0319122441484
  0
VERTEX
  8
Bollenhut
 10
-43.6666354670442
 20
536.200531818331
 42
-0.0414462049867
  0
VERTEX
  8
Bollenhut
 10
-3.4838792792118
 20
535.652147521573
 42
-0.0397931940283
  0
VERTEX
  8
Bollenhut
 10
28.3031207164636
 20
529.458535354033
 42
-0.0139332694974
  0
VERTEX
  8
Bollenhut
 10
74.2353789319852
 20
515.834651842234
 42
-0.0124369052591
  0
VERTEX
  8
Bollenhut
 10
105.052873686651
 20
504.41749009289
 42
0.041012343562
  0
VERTEX
  8
Bollenhut
 10
128.214508099415
 20
496.692818913425
 42
0.0991899212756
  0
VERTEX
  8
Bollenhut
 10
150.509171233212
 20
495.029116554644
 42
0.1005635775286
  0
VERTEX
  8
Bollenhut
 10
160.58783795575
 20
497.910684249223
 42
0.0727515380625
  0
VERTEX
  8
Bollenhut
 10
164.408550562158
 20
500.736601852082
 42
-0.0556496825313
  0
VERTEX
  8
Bollenhut
 10
168.493311964176
 20
496.679853105391
 42
-0.091040390768
  0
VERTEX
  8
Bollenhut
 10
173.617732081176
 20
488.617197773717
 42
-0.1818761277942
  0
VERTEX
  8
Bollenhut
 10
173.568665471316
 20
479.040209722367
 42
-0.2305959759341
  0
VERTEX
  8
Bollenhut
 10
160.399723688577
 20
465.284209172725
 42
-0.1594455743273
  0
VERTEX
  8
Bollenhut
 10
140.600529987622
 20
464.68406980155
 42
-0.0627575752406
  0
VERTEX
  8
Bollenhut
 10
106.369737733689
 20
480.246387253942
 42
0.0506553960156
  0
SEQEND
  0
POLYLINE
  8
Bollenhut
 66
     1
 10
0.0
 20
0.0
 30
0.0
 70
     1
  0
VERTEX
  8
Bollenhut
 10
49.6492854107156
 20
503.234027926824
 42
0.0082070767046
  0
VERTEX
  8
Bollenhut
 10
41.919166104732
 20
506.081244522265
 42
0.0301412273061
  0
VERTEX
  8
Bollenhut
 10
22.6925178696393
 20
504.664590210458
 42
0.0293028189984
  0
VERTEX
  8
Bollenhut
 10
-4.6054981078179
 20
500.024799490284
 42
0.0172314850161
  0
VERTEX
  8
Bollenhut
 10
-26.9583701101869
 20
493.296585683242
 42
0.0523002842209
  0
VERTEX
  8
Bollenhut
 10
-68.9914892601987
 20
475.154524911648
 42
0.0013659070087
  0
VERTEX
  8
Bollenhut
 10
-103.934319365328
 20
454.519304751554
 42
-0.0240178692787
  0
VERTEX
  8
Bollenhut
 10
-130.762834629458
 20
439.660369207496
 42
-0.0613487685612
  0
VERTEX
  8
Bollenhut
 10
-153.407573442274
 20
431.093365409663
 42
-0.1720366108564
  0
VERTEX
  8
Bollenhut
 10
-176.841453393128
 20
432.674982810224
 42
-0.2837962187638
  0
VERTEX
  8
Bollenhut
 10
-195.166962018846
 20
458.286991019204
 42
-0.1837817458113
  0
VERTEX
  8
Bollenhut
 10
-187.382674579682
 20
482.960512132034
 42
-0.0137522128382
  0
VERTEX
  8
Bollenhut
 10
-185.601187227584
 20
485.090996117093
 42
-0.1481339380589
  0
VERTEX
  8
Bollenhut
 10
-192.542060967529
 20
494.572625480444
 42
-0.2649152290114
  0
VERTEX
  8
Bollenhut
 10
-183.88056497258
 20
537.759319542942
 42
-0.1373497001911
  0
VERTEX
  8
Bollenhut
 10
-152.228852202541
 20
558.023319752513
 42
-0.0172934155863
  0
VERTEX
  8
Bollenhut
 10
-148.759069809655
 20
558.941299816403
 42
-0.1622616754174
  0
VERTEX
  8
Bollenhut
 10
-127.6344438028
 20
583.066171410014
 42
-0.0450901945404
  0
VERTEX
  8
Bollenhut
 10
-119.566531845596
 20
586.81228349526
 42
-0.1008972907178
  0
VERTEX
  8
Bollenhut
 10
-116.533700829007
 20
600.159482274926
 42
-0.1380792975343
  0
VERTEX
  8
Bollenhut
 10
-100.034747140648
 20
619.972346247326
 42
-0.1262661214601
  0
VERTEX
  8
Bollenhut
 10
-76.3784820220735
 20
629.879618764814
 42
-0.161319206579
  0
VERTEX
  8
Bollenhut
 10
-55.898139192372
 20
626.45498102812
 42
-0.0124538862133
  0
VERTEX
  8
Bollenhut
 10
-54.3130772956804
 20
625.580398127101
 42
-0.1234958717855
  0
VERTEX
  8
Bollenhut
 10
-29.2358849411761
 20
645.408456926638
 42
-0.1611218192235
  0
VERTEX
  8
Bollenhut
 10
16.0608586879108
 20
650.765152890959
 42
-0.1568213656336
  0
VERTEX
  8
Bollenhut
 10
47.0365200734259
 20
633.946877416526
 42
-0.066426353759
  0
VERTEX
  8
Bollenhut
 10
55.0168980603387
 20
622.846088686307
 42
-0.1027929171404
  0
VERTEX
  8
Bollenhut
 10
71.7076401256281
 20
627.878008905416
 42
-0.1602500100519
  0
VERTEX
  8
Bollenhut
 10
101.108377945697
 20
622.056160626977
 42
-0.1950610312635
  0
VERTEX
  8
Bollenhut
 10
123.748139519191
 20
593.816940210008
 42
-0.0947497724461
  0
VERTEX
  8
Bollenhut
 10
125.190826642635
 20
579.400632871226
 42
-0.0522863024924
  0
VERTEX
  8
Bollenhut
 10
140.826216584628
 20
577.495106877181
 42
-0.1237895231691
  0
VERTEX
  8
Bollenhut
 10
156.786463132702
 20
568.86901689861
 42
-0.1125061726482
  0
VERTEX
  8
Bollenhut
 10
171.221628299066
 20
548.783034205703
 42
-0.1351030868491
  0
VERTEX
  8
Bollenhut
 10
173.980536966664
 20
524.599206881591
 42
-0.0625797910207
  0
VERTEX
  8
Bollenhut
 10
167.544618921416
 20
503.341911977506
 42
-0.0811000715935
  0
VERTEX
  8
Bollenhut
 10
177.614118176799
 20
491.777205076078
 42
-0.2212976115592
  0
VERTEX
  8
Bollenhut
 10
179.790596083361
 20
473.37158115179
 42
-0.3582290837457
  0
VERTEX
  8
Bollenhut
 10
148.790021004999
 20
452.683445590886
 42
-0.0623551658495
  0
VERTEX
  8
Bollenhut
 10
135.174642630651
 20
456.475464147674
 42
-0.0291206411879
  0
VERTEX
  8
Bollenhut
 10
114.2635454103
 20
466.412761211012
 42
-0.0219024775209
  0
VERTEX
  8
Bollenhut
 10
96.7245000658454
 20
477.95383034829
 42
0.0468828664217
  0
VERTEX
  8
Bollenhut
 10
61.1677441392659
 20
498.332280503413
 42
0.0149253656912
  0
SEQEND
  0
POLYLINE
  8
Bollenhut
 66
     1
 10
0.0
 20
0.0
 30
0.0
 70
     1
  0
VERTEX
  8
Bollenhut
 10
42.1836896626851
 20
529.954067106551
 42
-0.0044534846607
  0
VERTEX
  8
Bollenhut
 10
70.5799444556292
 20
521.001964502993
 42
0.1030093431233
  0
VERTEX
  8
Bollenhut
 10
69.2695178676268
 20
540.72313488813
 42
0.1683666588878
  0
VERTEX
  8
Bollenhut
 10
45.4163052986927
 20
575.126511421949
 42
0.1812978500122
  0
VERTEX
  8
Bollenhut
 10
8.0507292667852
 20
586.161318180896
 42
0.1261996931928
  0
VERTEX
  8
Bollenhut
 10
-19.5368977236168
 20
577.65645682286
 42
0.0776439085939
  0
VERTEX
  8
Bollenhut
 10
-36.5531243579242
 20
562.269448223567
 42
0.0742805518341
  0
VERTEX
  8
Bollenhut
 10
-50.890623374301
 20
539.13060023353
 42
-0.0124872345342
  0
VERTEX
  8
Bollenhut
 10
-18.9754962527972
 20
539.995093283981
 42
-0.0530785494388
  0
VERTEX
  8
Bollenhut
 10
20.5729817585046
 20
535.622437082663
 42
-0.0196308594562
  0
SEQEND
  0
POLYLINE
  8
Bollenhut
 66
     1
 10
0.0
 20
0.0
 30
0.0
 70
     1
  0
VERTEX
  8
Bollenhut
 10
93.0279920109796
 20
621.501044145313
 42
0.1066648477496
  0
VERTEX
  8
Bollenhut
 10
72.1153055878647
 20
623.899448756435
 42
0.087451147415
  0
VERTEX
  8
Bollenhut
 10
60.7122569887486
 20
621.423516353698
 42
0.0964312087802
  0
VERTEX
  8
Bollenhut
 10
56.8877336065374
 20
618.985737694547
 42
-0.0900243404436
  0
VERTEX
  8
Bollenhut
 10
62.1827302287707
 20
593.11486746941
 42
-0.0776306901499
  0
VERTEX
  8
Bollenhut
 10
60.064745990459
 20
572.836098928339
 42
-0.0145059964167
  0
VERTEX
  8
Bollenhut
 10
59.4052375499639
 20
570.657368111026
 42
-0.0873153375668
  0
VERTEX
  8
Bollenhut
 10
71.0483035401771
 20
554.427854377338
 42
-0.049226332319
  0
VERTEX
  8
Bollenhut
 10
74.6231612695842
 20
544.561371778087
 42
-0.034078844377
  0
VERTEX
  8
Bollenhut
 10
81.0028319292795
 20
556.800011959387
 42
-0.0846115382743
  0
VERTEX
  8
Bollenhut
 10
94.2410070976581
 20
570.376491992837
 42
-0.0972864904176
  0
VERTEX
  8
Bollenhut
 10
110.749495410927
 20
577.868745320846
 42
-0.0471459252906
  0
VERTEX
  8
Bollenhut
 10
120.546572471662
 20
579.490168840888
 42
0.1152893889892
  0
VERTEX
  8
Bollenhut
 10
120.228502980523
 20
591.461198903198
 42
0.0938675999894
  0
VERTEX
  8
Bollenhut
 10
114.423146314028
 20
604.86521733949
 42
0.0603341544026
  0
VERTEX
  8
Bollenhut
 10
104.827713105563
 20
614.498727694286
 42
0.0887390186184
  0
SEQEND
  0
POLYLINE
  8
Bollenhut
 66
     1
 10
0.0
 20
0.0
 30
0.0
 70
     1
  0
VERTEX
  8
Bollenhut
 10
-135.194992594582
 20
518.981351138753
 42
-0.0661430661119
  0
VERTEX
  8
Bollenhut
 10
-86.8199494165455
 20
534.602359807403
 42
-0.0198617903992
  0
VERTEX
  8
Bollenhut
 10
-56.8290033999548
 20
538.732464910498
 42
-0.0418698880403
  0
VERTEX
  8
Bollenhut
 10
-43.2030255918618
 20
561.532807188601
 42
-0.0076050306712
  0
VERTEX
  8
Bollenhut
 10
-42.24057375643
 20
562.826615457985
 42
0.0766263071148
  0
VERTEX
  8
Bollenhut
 10
-50.1994686262274
 20
571.86559765144
 42
0.1504888657624
  0
VERTEX
  8
Bollenhut
 10
-82.8602267832208
 20
585.208287243106
 42
0.1174292436977
  0
VERTEX
  8
Bollenhut
 10
-116.230566221338
 20
580.73957017962
 42
0.2327859750986
  0
VERTEX
  8
Bollenhut
 10
-144.786776020062
 20
550.978218074952
 42
0.1196588104429
  0
VERTEX
  8
Bollenhut
 10
-146.930920541526
 20
529.360793135626
 42
0.1224507152498
  0
VERTEX
  8
Bollenhut
 10
-141.75712667286
 20
515.733384236371
 42
-0.0070848756027
  0
SEQEND
  0
POLYLINE
  8
Bollenhut
 66
     1
 10
0.0
 20
0.0
 30
0.0
 70
     1
  0
VERTEX
  8
Bollenhut
 10
169.05419475596
 20
537.104935887943
 42
0.1310857831413
  0
VERTEX
  8
Bollenhut
 10
157.604335561449
 20
561.360402437013
 42
0.1529073768204
  0
VERTEX
  8
Bollenhut
 10
135.09774395838
 20
574.867753818124
 42
0.2062525922885
  0
VERTEX
  8
Bollenhut
 10
98.3137342724951
 20
569.045372504326
 42
0.1658668166661
  0
VERTEX
  8
Bollenhut
 10
78.6761908010892
 20
544.068052499987
 42
0.0577452927711
  0
VERTEX
  8
Bollenhut
 10
76.4562311388112
 20
530.639089772412
 42
0.0182437560504
  0
VERTEX
  8
Bollenhut
 10
76.2280227346854
 20
519.028461452765
 42
0.0000140043919
  0
VERTEX
  8
Bollenhut
 10
106.846329432083
 20
508.420125302213
 42
0.0171712354378
  0
VERTEX
  8
Bollenhut
 10
125.978067562614
 20
501.711605503367
 42
0.1070798364603
  0
VERTEX
  8
Bollenhut
 10
149.273367457449
 20
499.267934885372
 42
0.0921264569072
  0
VERTEX
  8
Bollenhut
 10
160.330252865087
 20
502.541432536956
 42
0.1081130310533
  0
VERTEX
  8
Bollenhut
 10
165.508617559631
 20
510.664408089101
 42
0.0826748230912
  0
VERTEX
  8
Bollenhut
 10
169.525075266374
 20
530.712840956983
 42
0.0458133379707
  0
SEQEND
  0
POLYLINE
  8
Bollenhut
 66
     1
 10
0.0
 20
0.0
 30
0.0
 70
     1
  0
VERTEX
  8
Bollenhut
 10
-93.1706796598723
 20
619.71435626425
 42
0.15836945726
  0
VERTEX
  8
Bollenhut
 10
-112.787689781838
 20
598.954908667429
 42
0.1389300714813
  0
VERTEX
  8
Bollenhut
 10
-115.21575014445
 20
588.174858045367
 42
-0.0589075392624
  0
VERTEX
  8
Bollenhut
 10
-93.4753175555539
 20
590.654824173448
 42
-0.0576925823503
  0
VERTEX
  8
Bollenhut
 10
-74.3488553136524
 20
588.945638871692
 42
-0.0321046434811
  0
VERTEX
  8
Bollenhut
 10
-67.834129499853
 20
587.077852561207
 42
-0.0934383830883
  0
VERTEX
  8
Bollenhut
 10
-60.4385577200761
 20
615.393068227559
 42
-0.0320225023634
  0
VERTEX
  8
Bollenhut
 10
-56.5587878312023
 20
622.343737289749
 42
0.1314469442717
  0
VERTEX
  8
Bollenhut
 10
-63.0459700999144
 20
625.939172151625
 42
0.1367122074002
  0
VERTEX
  8
Bollenhut
 10
-81.4332092008437
 20
625.07516992662
 42
0.0474929655238
  0
SEQEND
  0
POLYLINE
  8
Bollenhut
 66
     1
 10
0.0
 20
0.0
 30
0.0
 70
     1
  0
VERTEX
  8
Bollenhut
 10
-173.571310276034
 20
540.157811769354
 42
0.1668864886976
  0
VERTEX
  8
Bollenhut
 10
-187.606904153468
 20
517.91825175415
 42
0.1641716419688
  0
VERTEX
  8
Bollenhut
 10
-186.250835304964
 20
496.932397731571
 42
0.1011189898367
  0
VERTEX
  8
Bollenhut
 10
-181.217797982134
 20
489.474385362542
 42
0.0082549563262
  0
VERTEX
  8
Bollenhut
 10
-172.727685926314
 20
497.531216124133
 42
-0.0374479449147
  0
VERTEX
  8
Bollenhut
 10
-152.218606889635
 20
510.13690294581
 42
0.0068823001599
  0
VERTEX
  8
Bollenhut
 10
-147.948785656202
 20
512.435091689741
 42
-0.1452807297373
  0
VERTEX
  8
Bollenhut
 10
-153.662430287282
 20
539.645488605932
 42
-0.0546919084981
  0
VERTEX
  8
Bollenhut
 10
-151.308478777364
 20
552.11752877236
 42
0.1098935893187
  0
SEQEND
  0
POLYLINE
  8
Bollenhut
 66
     1
 10
0.0
 20
0.0
 30
0.0
 70
     1
  0
VERTEX
  8
Bollenhut
 10
18.8304088592252
 20
508.21709031537
 42
0.0075733861807
  0
VERTEX
  8
Bollenhut
 10
33.9549545146752
 20
509.194058070619
 42
0.0381595561344
  0
VERTEX
  8
Bollenhut
 10
8.2645972172678
 20
516.646790783747
 42
0.063994134351
  0
VERTEX
  8
Bollenhut
 10
-46.0410924431427
 20
521.289220750558
 42
0.0500462425546
  0
VERTEX
  8
Bollenhut
 10
-96.5328601966448
 20
514.34896651743
 42
0.0357056883389
  0
VERTEX
  8
Bollenhut
 10
-132.609446504018
 20
503.687880838414
 42
0.0361296268218
  0
VERTEX
  8
Bollenhut
 10
-166.07568720022
 20
488.244265186672
 42
0.1074354696401
  0
VERTEX
  8
Bollenhut
 10
-178.320293630128
 20
478.614971869938
 42
0.1303740457697
  0
VERTEX
  8
Bollenhut
 10
-184.859970582825
 20
465.086303513298
 42
0.2184568687673
  0
VERTEX
  8
Bollenhut
 10
-179.506957622538
 20
445.721471422699
 42
0.2326883268875
  0
VERTEX
  8
Bollenhut
 10
-160.020287761132
 20
436.653818908846
 42
0.0584183037613
  0
VERTEX
  8
Bollenhut
 10
-145.709888249742
 20
439.51032905102
 42
0.0513488464009
  0
VERTEX
  8
Bollenhut
 10
-116.448118355893
 20
453.097087023493
 42
-0.0060741419829
  0
VERTEX
  8
Bollenhut
 10
-94.11210056165
 20
466.94410200585
 42
-0.0325568354823
  0
VERTEX
  8
Bollenhut
 10
-52.420018020444
 20
488.51621389995
 42
-0.0190183324755
  0
VERTEX
  8
Bollenhut
 10
-21.5100713365974
 20
499.891427238271
 42
-0.0646036952534
  0
VERTEX
  8
Bollenhut
 10
18.5733516797513
 20
508.197141981066
 42
-0.0002576470612
  0
SEQEND
  0
POLYLINE
  8
Willkommen
 66
     1
 10
0.0
 20
0.0
 30
0.0
 70
     1
  0
VERTEX
  8
Willkommen
 10
-271.90478515625
 20
292.220703125
 42
-0.1652273927275
  0
VERTEX
  8
Willkommen
 10
-275.85986328125
 20
293.490234375
 42
-0.2483295101801
  0
VERTEX
  8
Willkommen
 10
-277.81298828125
 20
297.103515625
 42
-0.0476923223786
  0
VERTEX
  8
Willkommen
 10
-280.64501953125
 20
306.72265625
 42
0.0039900268431
  0
VERTEX
  8
Willkommen
 10
-284.50244140625
 20
327.767578125
 42
-0.0192669572596
  0
VERTEX
  8
Willkommen
 10
-287.82275390625
 20
348.861328125
 42
-0.0378279357381
  0
VERTEX
  8
Willkommen
 10
-297.14892578125
 20
321.56640625
 42
0.0420842994471
  0
VERTEX
  8
Willkommen
 10
-304.61962890625
 20
301.302734375
 42
-0.397184690589
  0
VERTEX
  8
Willkommen
 10
-305.98681640625
 20
295.4921875
 42
-0.2149743400003
  0
VERTEX
  8
Willkommen
 10
-312.48077116196
 20
294.437294977805
 42
-0.391999618845
  0
VERTEX
  8
Willkommen
 10
-316.58251953125
 20
300.08203125
 42
-0.0102642784242
  0
VERTEX
  8
Willkommen
 10
-323.41845703125
 20
330.208984375
 42
0.015564551109
  0
VERTEX
  8
Willkommen
 10
-334.25830078125
 20
364.92578125
 42
-0.1655767646943
  0
VERTEX
  8
Willkommen
 10
-334.297245591501
 20
368.818002569547
 42
-0.3311695540478
  0
VERTEX
  8
Willkommen
 10
-329.47314453125
 20
371.419921875
 42
-0.3054283935359
  0
VERTEX
  8
Willkommen
 10
-324.59033203125
 20
367.953125
 42
-0.0373821952647
  0
VERTEX
  8
Willkommen
 10
-315.26416015625
 20
336.556640625
 42
0.0
  0
VERTEX
  8
Willkommen
 10
-310.52783203125
 20
314.974609375
 42
0.0285987317848
  0
VERTEX
  8
Willkommen
 10
-300.12744140625
 20
344.466796875
 42
-0.0182958756173
  0
VERTEX
  8
Willkommen
 10
-295.29345703125
 20
359.1640625
 42
-0.1003549318551
  0
VERTEX
  8
Willkommen
 10
-289.986443067313
 20
368.349780617159
 42
-0.5816596566367
  0
VERTEX
  8
Willkommen
 10
-281.91455078125
 20
366.48828125
 42
-0.0425346612939
  0
VERTEX
  8
Willkommen
 10
-280.5628423299
 20
361.576428376088
 42
-0.0200385462074
  0
VERTEX
  8
Willkommen
 10
-278.35009765625
 20
346.46875
 42
0.0203114334081
  0
VERTEX
  8
Willkommen
 10
-275.02978515625
 20
327.23046875
 42
0.0
  0
VERTEX
  8
Willkommen
 10
-270.83056640625
 20
308.041015625
 42
0.0099981326824
  0
VERTEX
  8
Willkommen
 10
-254.47314453125
 20
350.5703125
 42
0.0137206994035
  0
VERTEX
  8
Willkommen
 10
-252.03173828125
 20
359.798828125
 42
-0.0783963257841
  0
VERTEX
  8
Willkommen
 10
-248.56494140625
 20
368.685546875
 42
-0.338932685808
  0
VERTEX
  8
Willkommen
 10
-242.014009771692
 20
371.126332923822
 42
-0.3687772067438
  0
VERTEX
  8
Willkommen
 10
-239.04345703125
 20
366.48828125
 42
-0.0225051520639
  0
VERTEX
  8
Willkommen
 10
-242.55908203125
 20
356.33203125
 42
0.0
  0
VERTEX
  8
Willkommen
 10
-245.24462890625
 20
347.640625
 42
0.0
  0
VERTEX
  8
Willkommen
 10
-259.74658203125
 20
312.38671875
 42
-0.0181111400896
  0
VERTEX
  8
Willkommen
 10
-266.63134765625
 20
295.4921875
 42
-0.268282088632
  0
SEQEND
  0
POLYLINE
  8
Willkommen
 66
     1
 10
0.0
 20
0.0
 30
0.0
 70
     1
  0
VERTEX
  8
Willkommen
 10
-208.95849609375
 20
358.037109375
 42
-1.4971873668863
  0
VERTEX
  8
Willkommen
 10
-204.95458984375
 20
367.705078125
 42
-0.6631632102109
  0
SEQEND
  0
POLYLINE
  8
Willkommen
 66
     1
 10
0.0
 20
0.0
 30
0.0
 70
     1
  0
VERTEX
  8
Willkommen
 10
-206.76123046875
 20
318.388671875
 42
0.0028387708686
  0
VERTEX
  8
Willkommen
 10
-206.41943359375
 20
300.859375
 42
-0.4444065801839
  0
VERTEX
  8
Willkommen
 10
-211.20458984375
 20
295.9765625
 42
-0.4444065801837
  0
VERTEX
  8
Willkommen
 10
-215.98974609375
 20
300.859375
 42
-0.0028387708686
  0
VERTEX
  8
Willkommen
 10
-216.33154296875
 20
318.388671875
 42
0.0000907605729
  0
VERTEX
  8
Willkommen
 10
-215.35498046875
 20
341.2890625
 42
-0.4471103983139
  0
VERTEX
  8
Willkommen
 10
-210.56982421875
 20
346.220703125
 42
-0.4370315636688
  0
VERTEX
  8
Willkommen
 10
-205.78466796875
 20
341.2890625
 42
-0.0000907605729
  0
SEQEND
  0
POLYLINE
  8
Willkommen
 66
     1
 10
0.0
 20
0.0
 30
0.0
 70
     1
  0
VERTEX
  8
Willkommen
 10
-169.44677734375
 20
334.599609375
 42
-0.0021485900257
  0
VERTEX
  8
Willkommen
 10
-170.56982421875
 20
299.00390625
 42
-0.1539925905123
  0
VERTEX
  8
Willkommen
 10
-171.870412818467
 20
295.492351109751
 42
-0.2606190237427
  0
VERTEX
  8
Willkommen
 10
-177.309264939705
 20
294.386507462942
 42
-0.3552187232751
  0
VERTEX
  8
Willkommen
 10
-180.14013671875
 20
299.1015625
 42
0.0082014768088
  0
VERTEX
  8
Willkommen
 10
-178.82177734375
 20
352.2265625
 42
0.0060336050974
  0
VERTEX
  8
Willkommen
 10
-178.57763671875
 20
369.90234375
 42
-0.4943660267138
  0
VERTEX
  8
Willkommen
 10
-173.79248046875
 20
374.78515625
 42
-0.4903628281398
  0
VERTEX
  8
Willkommen
 10
-168.95849609375
 20
369.90234375
 42
-0.0000191267491
  0
SEQEND
  0
POLYLINE
  8
Willkommen
 66
     1
 10
0.0
 20
0.0
 30
0.0
 70
     1
  0
VERTEX
  8
Willkommen
 10
-133.83642578125
 20
334.599609375
 42
-0.0021485900257
  0
VERTEX
  8
Willkommen
 10
-134.95947265625
 20
299.00390625
 42
-0.1539925905123
  0
VERTEX
  8
Willkommen
 10
-136.260061255967
 20
295.492351109751
 42
-0.2606190237426
  0
VERTEX
  8
Willkommen
 10
-141.698913377205
 20
294.386507462942
 42
-0.3552187232752
  0
VERTEX
  8
Willkommen
 10
-144.52978515625
 20
299.1015625
 42
0.0082014768088
  0
VERTEX
  8
Willkommen
 10
-143.21142578125
 20
352.2265625
 42
0.0060336050974
  0
VERTEX
  8
Willkommen
 10
-142.96728515625
 20
369.90234375
 42
-0.4943660267137
  0
VERTEX
  8
Willkommen
 10
-138.18212890625
 20
374.78515625
 42
-0.4903628281396
  0
VERTEX
  8
Willkommen
 10
-133.34814453125
 20
369.90234375
 42
-0.0000191267491
  0
SEQEND
  0
POLYLINE
  8
Willkommen
 66
     1
 10
0.0
 20
0.0
 30
0.0
 70
     1
  0
VERTEX
  8
Willkommen
 10
-69.95458984375
 20
294.21875
 42
-0.3002318826753
  0
VERTEX
  8
Willkommen
 10
-74.10498046875
 20
297.05078125
 42
0.0414826826156
  0
VERTEX
  8
Willkommen
 10
-81.77099609375
 20
308.720703125
 42
0.0
  0
VERTEX
  8
Willkommen
 10
-90.41357421875
 20
320.48828125
 42
-0.0158417811588
  0
VERTEX
  8
Willkommen
 10
-99.20263671875
 20
314.189453125
 42
0.0176951928566
  0
VERTEX
  8
Willkommen
 10
-99.73974609375
 20
299.443359375
 42
-0.4370315636685
  0
VERTEX
  8
Willkommen
 10
-104.52490234375
 20
294.51171875
 42
-0.3603231506078
  0
VERTEX
  8
Willkommen
 10
-108.998631014868
 20
297.721928492949
 42
-0.0768795017735
  0
VERTEX
  8
Willkommen
 10
-109.45654296875
 20
301.15234375
 42
-0.0144357971711
  0
VERTEX
  8
Willkommen
 10
-108.91943359375
 20
313.26171875
 42
0.0156211344717
  0
VERTEX
  8
Willkommen
 10
-108.33349609375
 20
325.419921875
 42
-0.0014614981857
  0
VERTEX
  8
Willkommen
 10
-107.89404296875
 20
359.2578125
 42
-0.0047084954685
  0
VERTEX
  8
Willkommen
 10
-108.33349609375
 20
369.609375
 42
-0.4471103983139
  0
VERTEX
  8
Willkommen
 10
-103.54833984375
 20
374.541015625
 42
-0.4370315636686
  0
VERTEX
  8
Willkommen
 10
-98.76318359375
 20
369.609375
 42
0.0002119182748
  0
VERTEX
  8
Willkommen
 10
-98.27490234375
 20
359.013671875
 42
0.006557709364
  0
VERTEX
  8
Willkommen
 10
-98.76318359375
 20
326.298828125
 42
0.0311737800997
  0
VERTEX
  8
Willkommen
 10
-85.97021484375
 20
337.431640625
 42
0.0
  0
VERTEX
  8
Willkommen
 10
-75.22802734375
 20
348.515625
 42
-0.4607419469048
  0
VERTEX
  8
Willkommen
 10
-68.34326171875
 20
348.662109375
 42
-0.4386277396916
  0
VERTEX
  8
Willkommen
 10
-68.19677734375
 20
341.875
 42
-0.0299205321367
  0
VERTEX
  8
Willkommen
 10
-82.99169921875
 20
326.787109375
 42
-0.0153642397903
  0
VERTEX
  8
Willkommen
 10
-68.012065038014
 20
305.981890674248
 42
-0.0507677858253
  0
VERTEX
  8
Willkommen
 10
-65.3053106279072
 20
300.8871755666
 42
-0.3414860728359
  0
VERTEX
  8
Willkommen
 10
-66.43896484375
 20
295.634765625
 42
-0.2080830666644
  0
SEQEND
  0
POLYLINE
  8
Willkommen
 66
     1
 10
0.0
 20
0.0
 30
0.0
 70
     1
  0
VERTEX
  8
Willkommen
 10
-22.11279296875
 20
293.33984375
 42
-0.2106258790548
  0
VERTEX
  8
Willkommen
 10
-36.22412109375
 20
299.39453125
 42
-0.1926449679954
  0
VERTEX
  8
Willkommen
 10
-43.15771484375
 20
317.509765625
 42
-0.1641764212782
  0
VERTEX
  8
Willkommen
 10
-37.59130859375
 20
336.943359375
 42
-0.2625280212348
  0
VERTEX
  8
Willkommen
 10
-18.54833984375
 20
346.85546875
 42
-0.2920255501779
  0
VERTEX
  8
Willkommen
 10
-3.75341796875
 20
337.919921875
 42
-0.1312050542541
  0
VERTEX
  8
Willkommen
 10
0.10400390625
 20
320.537109375
 42
-0.1564634491311
  0
VERTEX
  8
Willkommen
 10
-5.56005859375
 20
302.03125
 42
-0.2505994772212
  0
SEQEND
  0
POLYLINE
  8
Willkommen
 66
     1
 10
0.0
 20
0.0
 30
0.0
 70
     1
  0
VERTEX
  8
Willkommen
 10
-19.18310546875
 20
336.943359375
 42
0.2885030862112
  0
VERTEX
  8
Willkommen
 10
-30.36474609375
 20
330.107421875
 42
0.1958514249081
  0
VERTEX
  8
Willkommen
 10
-32.7069538337216
 20
311.608691083505
 42
0.5941598953432
  0
VERTEX
  8
Willkommen
 10
-13.37255859375
 20
306.9140625
 42
0.1962723514782
  0
VERTEX
  8
Willkommen
 10
-8.97802734375
 20
317.998046875
 42
0.0675449198497
  0
VERTEX
  8
Willkommen
 10
-9.7603077429542
 20
328.307772767929
 42
0.1823271167948
  0
VERTEX
  8
Willkommen
 10
-14.184986267273
 20
335.568080267524
 42
0.1158857170898
  0
SEQEND
  0
POLYLINE
  8
Willkommen
 66
     1
 10
0.0
 20
0.0
 30
0.0
 70
     1
  0
VERTEX
  8
Willkommen
 10
89.95263671875
 20
292.16796875
 42
-0.4246144188627
  0
VERTEX
  8
Willkommen
 10
85.26513671875
 20
296.416015625
 42
-0.0163079047391
  0
VERTEX
  8
Willkommen
 10
83.50732421875
 20
311.552734375
 42
0.0
  0
VERTEX
  8
Willkommen
 10
81.84716796875
 20
326.689453125
 42
0.1000155843321
  0
VERTEX
  8
Willkommen
 10
78.922868283152
 20
335.924571477762
 42
0.4700455073379
  0
VERTEX
  8
Willkommen
 10
74.7578576535691
 20
337.234867197884
 42
0.0405673214279
  0
VERTEX
  8
Willkommen
 10
66.6155560063377
 20
332.523820623014
 42
0.0562002448457
  0
VERTEX
  8
Willkommen
 10
63.68310546875
 20
330.05859375
 42
0.0186131825527
  0
VERTEX
  8
Willkommen
 10
63.92724609375
 20
320.87890625
 42
0.0
  0
VERTEX
  8
Willkommen
 10
65.39208984375
 20
307.841796875
 42
-0.0282570183081
  0
VERTEX
  8
Willkommen
 10
66.31982421875
 20
295.09765625
 42
-1.0449728582675
  0
VERTEX
  8
Willkommen
 10
56.74951171875
 20
295.09765625
 42
0.0230248612152
  0
VERTEX
  8
Willkommen
 10
55.52880859375
 20
312.529296875
 42
-0.021984169211
  0
VERTEX
  8
Willkommen
 10
54.35693359375
 20
330.009765625
 42
0.1114355582432
  0
VERTEX
  8
Willkommen
 10
52.89208984375
 20
338.06640625
 42
0.0878677202096
  0
VERTEX
  8
Willkommen
 10
45.95849609375
 20
332.98828125
 42
0.0244725675873
  0
VERTEX
  8
Willkommen
 10
37.70654296875
 20
323.466796875
 42
-0.000715632969
  0
VERTEX
  8
Willkommen
 10
36.63232421875
 20
306.376953125
 42
0.0103873163433
  0
VERTEX
  8
Willkommen
 10
37.56005859375
 20
298.466796875
 42
-0.4069139924922
  0
VERTEX
  8
Willkommen
 10
32.57958984375
 20
293.73046875
 42
-0.2556791573441
  0
VERTEX
  8
Willkommen
 10
29.1893515948348
 20
295.533639766409
 42
-0.128675734912
  0
VERTEX
  8
Willkommen
 10
27.2444036901476
 20
302.130998709878
 42
-0.0527061914265
  0
VERTEX
  8
Willkommen
 10
27.59912109375
 20
315.01953125
 42
0.0621727657322
  0
VERTEX
  8
Willkommen
 10
27.64794921875
 20
331.5234375
 42
-0.0756074595525
  0
VERTEX
  8
Willkommen
 10
27.8155117012607
 20
345.724134873121
 42
-0.0988501961174
  0
VERTEX
  8
Willkommen
 10
29.1543487883965
 20
348.861713333004
 42
-0.4960564397504
  0
VERTEX
  8
Willkommen
 10
35.65576171875
 20
348.759765625
 42
-0.2005770956109
  0
VERTEX
  8
Willkommen
 10
37.26708984375
 20
345.146484375
 42
0.0511377804594
  0
VERTEX
  8
Willkommen
 10
36.87646484375
 20
334.16015625
 42
-0.1368172206692
  0
VERTEX
  8
Willkommen
 10
48.2030443713354
 20
346.386795722627
 42
-0.4883796674484
  0
VERTEX
  8
Willkommen
 10
63.29248046875
 20
340.21484375
 42
-0.2470837198033
  0
VERTEX
  8
Willkommen
 10
78.18505859375
 20
347.34375
 42
-0.2812082845774
  0
VERTEX
  8
Willkommen
 10
87.7472685798487
 20
342.012358952039
 42
-0.1182363828842
  0
VERTEX
  8
Willkommen
 10
89.9762786044325
 20
335.14940085472
 42
0.0030273018627
  0
VERTEX
  8
Willkommen
 10
93.2255441457509
 20
310.863312200917
 42
-0.0027929928351
  0
VERTEX
  8
Willkommen
 10
94.83544921875
 20
296.85546875
 42
-0.4385438169312
  0
SEQEND
  0
POLYLINE
  8
Willkommen
 66
     1
 10
0.0
 20
0.0
 30
0.0
 70
     1
  0
VERTEX
  8
Willkommen
 10
190.94384765625
 20
292.16796875
 42
-0.4246144188626
  0
VERTEX
  8
Willkommen
 10
186.25634765625
 20
296.416015625
 42
-0.0163079047391
  0
VERTEX
  8
Willkommen
 10
184.49853515625
 20
311.552734375
 42
0.0
  0
VERTEX
  8
Willkommen
 10
182.83837890625
 20
326.689453125
 42
0.1000155843321
  0
VERTEX
  8
Willkommen
 10
179.914079220652
 20
335.924571477762
 42
0.4700455073382
  0
VERTEX
  8
Willkommen
 10
175.749068591069
 20
337.234867197884
 42
0.0405673214279
  0
VERTEX
  8
Willkommen
 10
167.606766943838
 20
332.523820623014
 42
0.0562002448457
  0
VERTEX
  8
Willkommen
 10
164.67431640625
 20
330.05859375
 42
0.0186131825527
  0
VERTEX
  8
Willkommen
 10
164.91845703125
 20
320.87890625
 42
0.0
  0
VERTEX
  8
Willkommen
 10
166.38330078125
 20
307.841796875
 42
-0.0282570183081
  0
VERTEX
  8
Willkommen
 10
167.31103515625
 20
295.09765625
 42
-1.0449728582675
  0
VERTEX
  8
Willkommen
 10
157.74072265625
 20
295.09765625
 42
0.0230248612152
  0
VERTEX
  8
Willkommen
 10
156.52001953125
 20
312.529296875
 42
-0.021984169211
  0
VERTEX
  8
Willkommen
 10
155.34814453125
 20
330.009765625
 42
0.1114355582432
  0
VERTEX
  8
Willkommen
 10
153.88330078125
 20
338.06640625
 42
0.0878677202096
  0
VERTEX
  8
Willkommen
 10
146.94970703125
 20
332.98828125
 42
0.0244725675873
  0
VERTEX
  8
Willkommen
 10
138.69775390625
 20
323.466796875
 42
-0.000715632969
  0
VERTEX
  8
Willkommen
 10
137.62353515625
 20
306.376953125
 42
0.0103873163433
  0
VERTEX
  8
Willkommen
 10
138.55126953125
 20
298.466796875
 42
-0.406913992492
  0
VERTEX
  8
Willkommen
 10
133.57080078125
 20
293.73046875
 42
-0.2556791573441
  0
VERTEX
  8
Willkommen
 10
130.180562532335
 20
295.533639766409
 42
-0.128675734912
  0
VERTEX
  8
Willkommen
 10
128.235614627648
 20
302.130998709878
 42
-0.0527061914265
  0
VERTEX
  8
Willkommen
 10
128.59033203125
 20
315.01953125
 42
0.0621727657322
  0
VERTEX
  8
Willkommen
 10
128.63916015625
 20
331.5234375
 42
-0.0756074595525
  0
VERTEX
  8
Willkommen
 10
128.806722638761
 20
345.724134873121
 42
-0.0988501961174
  0
VERTEX
  8
Willkommen
 10
130.145559725897
 20
348.861713333004
 42
-0.4960564397502
  0
VERTEX
  8
Willkommen
 10
136.64697265625
 20
348.759765625
 42
-0.2005770956109
  0
VERTEX
  8
Willkommen
 10
138.25830078125
 20
345.146484375
 42
0.0511377804594
  0
VERTEX
  8
Willkommen
 10
137.86767578125
 20
334.16015625
 42
-0.1368172206692
  0
VERTEX
  8
Willkommen
 10
149.194255308835
 20
346.386795722627
 42
-0.4883796674484
  0
VERTEX
  8
Willkommen
 10
164.28369140625
 20
340.21484375
 42
-0.2470837198033
  0
VERTEX
  8
Willkommen
 10
179.17626953125
 20
347.34375
 42
-0.2812082845775
  0
VERTEX
  8
Willkommen
 10
188.738479517349
 20
342.012358952039
 42
-0.1182363828842
  0
VERTEX
  8
Willkommen
 10
190.967489541932
 20
335.14940085472
 42
0.0030273018627
  0
VERTEX
  8
Willkommen
 10
194.216755083251
 20
310.863312200917
 42
-0.0027929928351
  0
VERTEX
  8
Willkommen
 10
195.82666015625
 20
296.85546875
 42
-0.4385438169314
  0
SEQEND
  0
POLYLINE
  8
Willkommen
 66
     1
 10
0.0
 20
0.0
 30
0.0
 70
     1
  0
VERTEX
  8
Willkommen
 10
252.72607421875
 20
293.974609375
 42
-0.1733518655332
  0
VERTEX
  8
Willkommen
 10
234.85498046875
 20
299.4921875
 42
-0.2355636660756
  0
VERTEX
  8
Willkommen
 10
227.38427734375
 20
316.58203125
 42
-0.1586493061248
  0
VERTEX
  8
Willkommen
 10
233.53662109375
 20
337.87109375
 42
-0.2573712833584
  0
VERTEX
  8
Willkommen
 10
251.40771484375
 20
347.24609375
 42
-0.1204794973431
  0
VERTEX
  8
Willkommen
 10
264.64013671875
 20
344.51171875
 42
-0.4606074857129
  0
VERTEX
  8
Willkommen
 10
269.262783761192
 20
329.044630949088
 42
-0.0837415127081
  0
VERTEX
  8
Willkommen
 10
265.42138671875
 20
325.2734375
 42
-0.0334401143347
  0
VERTEX
  8
Willkommen
 10
255.06982421875
 20
319.8046875
 42
0.0
  0
VERTEX
  8
Willkommen
 10
236.41748046875
 20
310.966796875
 42
0.2661681000551
  0
VERTEX
  8
Willkommen
 10
252.72607421875
 20
302.8125
 42
0.097352466499
  0
VERTEX
  8
Willkommen
 10
264.689567353809
 20
305.576469173954
 42
0.1317298010625
  0
VERTEX
  8
Willkommen
 10
268.05810546875
 20
308.28125
 42
-0.249590793116
  0
VERTEX
  8
Willkommen
 10
271.62255859375
 20
310.91796875
 42
-0.5845306587992
  0
VERTEX
  8
Willkommen
 10
275.13893257282
 20
303.337220537526
 42
-0.1505746950461
  0
VERTEX
  8
Willkommen
 10
267.27685546875
 20
297.294921875
 42
-0.1082469248739
  0
SEQEND
  0
POLYLINE
  8
Willkommen
 66
     1
 10
0.0
 20
0.0
 30
0.0
 70
     1
  0
VERTEX
  8
Willkommen
 10
251.40771484375
 20
338.45703125
 42
0.23070749208
  0
VERTEX
  8
Willkommen
 10
241.49560546875
 20
333.818359375
 42
0.1204126509171
  0
VERTEX
  8
Willkommen
 10
235.58740234375
 20
319.951171875
 42
0.0
  0
VERTEX
  8
Willkommen
 10
250.57763671875
 20
327.080078125
 42
0.0539563296438
  0
VERTEX
  8
Willkommen
 10
263.17529296875
 20
334.55078125
 42
0.1911098476484
  0
SEQEND
  0
POLYLINE
  8
Willkommen
 66
     1
 10
0.0
 20
0.0
 30
0.0
 70
     1
  0
VERTEX
  8
Willkommen
 10
338.59521484375
 20
292.75390625
 42
-0.442272403056
  0
VERTEX
  8
Willkommen
 10
333.85888671875
 20
297.34375
 42
-0.0316725367957
  0
VERTEX
  8
Willkommen
 10
331.80810546875
 20
318.73046875
 42
-0.0052560238769
  0
VERTEX
  8
Willkommen
 10
332.14990234375
 20
328.0078125
 42
0.1174559086634
  0
VERTEX
  8
Willkommen
 10
330.784397489269
 20
336.792498508016
 42
0.29263160567
  0
VERTEX
  8
Willkommen
 10
328.24365234375
 20
338.5546875
 42
0.1564896348699
  0
VERTEX
  8
Willkommen
 10
322.268250293668
 20
336.515655277259
 42
0.1279222111512
  0
VERTEX
  8
Willkommen
 10
313.580604429761
 20
324.918412696668
 42
0.0385605852713
  0
VERTEX
  8
Willkommen
 10
310.76318359375
 20
317.119140625
 42
0.0149025473595
  0
VERTEX
  8
Willkommen
 10
310.03076171875
 20
307.59765625
 42
0.0215281376082
  0
VERTEX
  8
Willkommen
 10
310.32373046875
 20
303.203125
 42
-0.0215347935248
  0
VERTEX
  8
Willkommen
 10
310.61669921875
 20
298.80859375
 42
-0.6667442554457
  0
VERTEX
  8
Willkommen
 10
302.36474609375
 20
295.244140625
 42
-0.2002040906238
  0
VERTEX
  8
Willkommen
 10
301.04638671875
 20
298.80859375
 42
-0.0055267287506
  0
VERTEX
  8
Willkommen
 10
300.41162109375
 20
307.59765625
 42
-0.0173655750351
  0
VERTEX
  8
Willkommen
 10
301.09521484375
 20
321.513671875
 42
0.0184662046111
  0
VERTEX
  8
Willkommen
 10
301.82763671875
 20
335.478515625
 42
-0.0052560238769
  0
VERTEX
  8
Willkommen
 10
301.48583984375
 20
344.755859375
 42
-0.7474477800678
  0
VERTEX
  8
Willkommen
 10
310.153318061954
 20
347.429766541125
 42
-0.1116942918339
  0
VERTEX
  8
Willkommen
 10
311.25146484375
 20
343.193359375
 42
0.0
  0
VERTEX
  8
Willkommen
 10
311.39794921875
 20
337.48046875
 42
-0.0713201941488
  0
VERTEX
  8
Willkommen
 10
318.563214227997
 20
344.88612402378
 42
-0.1629080766818
  0
VERTEX
  8
Willkommen
 10
328.24365234375
 20
348.41796875
 42
-0.3240401744777
  0
VERTEX
  8
Willkommen
 10
339.13232421875
 20
341.533203125
 42
-0.0928658463063
  0
VERTEX
  8
Willkommen
 10
341.42724609375
 20
327.958984375
 42
-0.0053761886914
  0
VERTEX
  8
Willkommen
 10
341.37841796875
 20
318.486328125
 42
0.0368359158139
  0
VERTEX
  8
Willkommen
 10
342.40380859375
 20
307.98828125
 42
-0.0388124099838
  0
VERTEX
  8
Willkommen
 10
343.47802734375
 20
297.587890625
 42
-0.4009509530948
  0
SEQEND
  0
POLYLINE
  8
Wiedersehen
 66
     1
 10
0.0
 20
0.0
 30
0.0
 70
     1
  0
VERTEX
  8
Wiedersehen
 10
-354.048797329406
 20
333.2734375
 42
0.0
  0
VERTEX
  8
Wiedersehen
 10
-365.220672329406
 20
315.265625
 42
-0.0159765201568
  0
VERTEX
  8
Wiedersehen
 10
-350.884734829406
 20
318.1953125
 42
0.0
  0
SEQEND
  0
POLYLINE
  8
Wiedersehen
 66
     1
 10
0.0
 20
0.0
 30
0.0
 70
     1
  0
VERTEX
  8
Wiedersehen
 10
-340.259734829406
 20
288.625
 42
-0.2139239125529
  0
VERTEX
  8
Wiedersehen
 10
-342.888357554541
 20
289.991884193631
 42
-0.1000821804068
  0
VERTEX
  8
Wiedersehen
 10
-346.509734829406
 20
297.84375
 42
-0.0217045165011
  0
VERTEX
  8
Wiedersehen
 10
-349.048797329406
 20
310.1484375
 42
0.0093862033046
  0
VERTEX
  8
Wiedersehen
 10
-369.869109829406
 20
306.046875
 42
-0.0179948199333
  0
VERTEX
  8
Wiedersehen
 10
-376.548797329406
 20
291.0859375
 42
-1.0097238218464
  0
VERTEX
  8
Wiedersehen
 10
-383.506252734215
 20
294.723341361144
 42
-0.021455188051
  0
VERTEX
  8
Wiedersehen
 10
-378.072234829406
 20
307.1015625
 42
-0.5679045280322
  0
VERTEX
  8
Wiedersehen
 10
-374.908172329406
 20
313.5078125
 42
-0.0248153284237
  0
VERTEX
  8
Wiedersehen
 10
-358.506287164957
 20
340.603580601648
 42
-0.041101963243
  0
VERTEX
  8
Wiedersehen
 10
-354.118481709259
 20
346.20383885198
 42
-0.1483716900215
  0
VERTEX
  8
Wiedersehen
 10
-352.134734829406
 20
347.53125
 42
-0.2389060431334
  0
VERTEX
  8
Wiedersehen
 10
-349.254742270548
 20
346.139418992364
 42
-0.1028430424631
  0
VERTEX
  8
Wiedersehen
 10
-347.915984829406
 20
343.234375
 42
0.0
  0
VERTEX
  8
Wiedersehen
 10
-345.455047329406
 20
330.109375
 42
0.0
  0
VERTEX
  8
Wiedersehen
 10
-339.634734829406
 20
302.9609375
 42
-0.0126340873528
  0
VERTEX
  8
Wiedersehen
 10
-336.717950467899
 20
294.71293390757
 42
-0.5654070849031
  0
SEQEND
  0
POLYLINE
  8
Wiedersehen
 66
     1
 10
0.0
 20
0.0
 30
0.0
 70
     1
  0
VERTEX
  8
Wiedersehen
 10
-281.564422329406
 20
312.609375
 42
0.001222496743
  0
VERTEX
  8
Wiedersehen
 10
-281.525359829406
 20
304.171875
 42
0.0227526143021
  0
VERTEX
  8
Wiedersehen
 10
-281.212859829406
 20
290.5
 42
-0.9645419873594
  0
VERTEX
  8
Wiedersehen
 10
-288.947234829406
 20
290.3828125
 42
-0.1687071969181
  0
VERTEX
  8
Wiedersehen
 10
-304.605432364474
 20
288.340844095009
 42
-0.3187716756096
  0
VERTEX
  8
Wiedersehen
 10
-313.087859829406
 20
297.4140625
 42
-0.0358450212697
  0
VERTEX
  8
Wiedersehen
 10
-314.611297329406
 20
315.8515625
 42
-0.0416588744929
  0
VERTEX
  8
Wiedersehen
 10
-313.439422329406
 20
328.0390625
 42
-0.4241141359724
  0
VERTEX
  8
Wiedersehen
 10
-309.728484829406
 20
331.4375
 42
-0.4270103348867
  0
VERTEX
  8
Wiedersehen
 10
-305.783172329406
 20
327.609375
 42
0.0055145381794
  0
VERTEX
  8
Wiedersehen
 10
-306.915984829406
 20
315.8515625
 42
0.0664190375215
  0
VERTEX
  8
Wiedersehen
 10
-305.197234829406
 20
297.21875
 42
0.1332045624584
  0
VERTEX
  8
Wiedersehen
 10
-300.197234829406
 20
295.7734375
 42
0.0702209553876
  0
VERTEX
  8
Wiedersehen
 10
-289.142547329406
 20
297.453125
 42
0.0026914288076
  0
VERTEX
  8
Wiedersehen
 10
-289.259734829406
 20
312.9609375
 42
-0.0289493595314
  0
VERTEX
  8
Wiedersehen
 10
-288.517547329406
 20
327.609375
 42
-0.4421901978161
  0
VERTEX
  8
Wiedersehen
 10
-284.728484829406
 20
331.203125
 42
-0.4416484790279
  0
VERTEX
  8
Wiedersehen
 10
-280.861297329406
 20
327.375
 42
0.0
  0
SEQEND
  0
POLYLINE
  8
Wiedersehen
 66
     1
 10
0.0
 20
0.0
 30
0.0
 70
     1
  0
VERTEX
  8
Wiedersehen
 10
-237.267547329406
 20
344.71875
 42
0.362138344943
  0
VERTEX
  8
Wiedersehen
 10
-246.947871004635
 20
336.748930142036
 42
0.0628560448644
  0
VERTEX
  8
Wiedersehen
 10
-247.970672329406
 20
329.171875
 42
-0.0115156266452
  0
VERTEX
  8
Wiedersehen
 10
-239.376922329406
 20
329.640625
 42
-0.0935580268684
  0
VERTEX
  8
Wiedersehen
 10
-235.429052357474
 20
329.026914528669
 42
-0.5069545184676
  0
VERTEX
  8
Wiedersehen
 10
-233.981619959783
 20
323.400572185189
 42
-0.1937625452987
  0
VERTEX
  8
Wiedersehen
 10
-239.337859829406
 20
322.140625
 42
0.0181332748011
  0
VERTEX
  8
Wiedersehen
 10
-248.322234829406
 20
321.6328125
 42
0.0282952438882
  0
VERTEX
  8
Wiedersehen
 10
-248.478484829406
 20
305.4609375
 42
-0.0246394190167
  0
VERTEX
  8
Wiedersehen
 10
-248.482684172947
 20
292.433113628941
 42
-0.0344303100034
  0
VERTEX
  8
Wiedersehen
 10
-249.181609829406
 20
286.671875
 42
-0.4036424913671
  0
VERTEX
  8
Wiedersehen
 10
-252.814422329406
 20
283.546875
 42
-0.493150891131
  0
VERTEX
  8
Wiedersehen
 10
-256.603484829406
 20
287.9609375
 42
0.0398392103785
  0
VERTEX
  8
Wiedersehen
 10
-255.783172329406
 20
299.015625
 42
-0.0054943396276
  0
VERTEX
  8
Wiedersehen
 10
-255.900359829406
 20
321.0078125
 42
-0.0122356708047
  0
VERTEX
  8
Wiedersehen
 10
-262.072234829406
 20
320.6171875
 42
-0.496742828315
  0
VERTEX
  8
Wiedersehen
 10
-266.017547329406
 20
324.40625
 42
-0.3054694650572
  0
VERTEX
  8
Wiedersehen
 10
-263.972113145912
 20
327.538324981411
 42
-0.1015889501501
  0
VERTEX
  8
Wiedersehen
 10
-259.181609829406
 20
328.46875
 42
0.0
  0
VERTEX
  8
Wiedersehen
 10
-255.431609829406
 20
328.5859375
 42
-0.0489283087639
  0
VERTEX
  8
Wiedersehen
 10
-253.518112995332
 20
341.204693087719
 42
-0.0964949113194
  0
VERTEX
  8
Wiedersehen
 10
-250.470672329406
 20
347.296875
 42
-0.1414787007906
  0
VERTEX
  8
Wiedersehen
 10
-244.690270186158
 20
351.228975424793
 42
-0.1619619361686
  0
VERTEX
  8
Wiedersehen
 10
-234.130444945635
 20
351.619246757007
 42
-0.6934913559343
  0
VERTEX
  8
Wiedersehen
 10
-234.649887568326
 20
345.065135779338
 42
-0.0762017382846
  0
SEQEND
  0
POLYLINE
  8
Wiedersehen
 66
     1
 10
0.0
 20
0.0
 30
0.0
 70
     1
  0
VERTEX
  8
Wiedersehen
 10
-141.6015625
 20
286.046875
 42
-0.4021088479884
  0
VERTEX
  8
Wiedersehen
 10
-146.328125
 20
289.953125
 42
-0.0476923223786
  0
VERTEX
  8
Wiedersehen
 10
-148.59375
 20
297.6484375
 42
0.0039900268431
  0
VERTEX
  8
Wiedersehen
 10
-151.6796875
 20
314.484375
 42
-0.0192669572596
  0
VERTEX
  8
Wiedersehen
 10
-154.3359375
 20
331.359375
 42
-0.0378279357381
  0
VERTEX
  8
Wiedersehen
 10
-161.796875
 20
309.5234375
 42
0.0420842994471
  0
VERTEX
  8
Wiedersehen
 10
-167.7734375
 20
293.3125
 42
-0.3971846905889
  0
VERTEX
  8
Wiedersehen
 10
-168.8671875
 20
288.6640625
 42
-0.3820374382135
  0
VERTEX
  8
Wiedersehen
 10
-176.588143719861
 20
289.4348884823
 42
-0.1495331742304
  0
VERTEX
  8
Wiedersehen
 10
-177.34375
 20
292.3359375
 42
-0.0102642784242
  0
VERTEX
  8
Wiedersehen
 10
-182.8125
 20
316.4375
 42
0.015564551109
  0
VERTEX
  8
Wiedersehen
 10
-191.484375
 20
344.2109375
 42
-0.6011326541362
  0
VERTEX
  8
Wiedersehen
 10
-187.65625
 20
349.40625
 42
-0.3054283935359
  0
VERTEX
  8
Wiedersehen
 10
-183.75
 20
346.6328125
 42
-0.0373821952647
  0
VERTEX
  8
Wiedersehen
 10
-176.2890625
 20
321.515625
 42
0.0
  0
VERTEX
  8
Wiedersehen
 10
-172.5
 20
304.25
 42
0.0285987317848
  0
VERTEX
  8
Wiedersehen
 10
-164.1796875
 20
327.84375
 42
-0.0182958756173
  0
VERTEX
  8
Wiedersehen
 10
-160.3125
 20
339.6015625
 42
-0.1003549318551
  0
VERTEX
  8
Wiedersehen
 10
-156.066888828851
 20
346.950136993727
 42
-0.5816596566368
  0
VERTEX
  8
Wiedersehen
 10
-149.609375
 20
345.4609375
 42
-0.0425346612939
  0
VERTEX
  8
Wiedersehen
 10
-148.52800823892
 20
341.53145520087
 42
-0.0200385462074
  0
VERTEX
  8
Wiedersehen
 10
-146.7578125
 20
329.4453125
 42
0.0222678749608
  0
VERTEX
  8
Wiedersehen
 10
-140.7421875
 20
298.703125
 42
0.0099981326824
  0
VERTEX
  8
Wiedersehen
 10
-127.65625
 20
332.7265625
 42
-0.0175466349724
  0
VERTEX
  8
Wiedersehen
 10
-124.595080995103
 20
343.772775371035
 42
-0.1659421696524
  0
VERTEX
  8
Wiedersehen
 10
-121.382192152171
 20
348.785939960252
 42
-0.3946834043246
  0
VERTEX
  8
Wiedersehen
 10
-115.816557997449
 20
347.754347022739
 42
-0.2455319243077
  0
VERTEX
  8
Wiedersehen
 10
-115.850507814253
 20
343.479975271187
 42
0.0274411922461
  0
VERTEX
  8
Wiedersehen
 10
-120.2734375
 20
330.3828125
 42
0.0
  0
VERTEX
  8
Wiedersehen
 10
-131.875
 20
302.1796875
 42
-0.0181111400896
  0
VERTEX
  8
Wiedersehen
 10
-137.3828125
 20
288.6640625
 42
-0.268282088632
  0
SEQEND
  0
POLYLINE
  8
Wiedersehen
 66
     1
 10
0.0
 20
0.0
 30
0.0
 70
     1
  0
VERTEX
  8
Wiedersehen
 10
-84.5
 20
339.25
 42
-1.4971873668866
  0
VERTEX
  8
Wiedersehen
 10
-81.296875
 20
346.984375
 42
-0.6631632102109
  0
SEQEND
  0
POLYLINE
  8
Wiedersehen
 66
     1
 10
0.0
 20
0.0
 30
0.0
 70
     1
  0
VERTEX
  8
Wiedersehen
 10
-82.7421875
 20
307.53125
 42
0.0028387708686
  0
VERTEX
  8
Wiedersehen
 10
-82.46875
 20
293.5078125
 42
-0.6631579154746
  0
VERTEX
  8
Wiedersehen
 10
-89.0703125
 20
290.6953125
 42
-0.200655518475
  0
VERTEX
  8
Wiedersehen
 10
-90.125
 20
293.5078125
 42
-0.0028387708686
  0
VERTEX
  8
Wiedersehen
 10
-90.3984375
 20
307.53125
 42
0.0000907605729
  0
VERTEX
  8
Wiedersehen
 10
-89.6171875
 20
325.8515625
 42
-1.0446354539149
  0
VERTEX
  8
Wiedersehen
 10
-81.9609375
 20
325.8515625
 42
-0.0000907605729
  0
SEQEND
  0
POLYLINE
  8
Wiedersehen
 66
     1
 10
0.0
 20
0.0
 30
0.0
 70
     1
  0
VERTEX
  8
Wiedersehen
 10
-46.8125
 20
288.0
 42
-0.1733518655332
  0
VERTEX
  8
Wiedersehen
 10
-61.109375
 20
292.4140625
 42
-0.2355636660756
  0
VERTEX
  8
Wiedersehen
 10
-67.0859375
 20
306.0859375
 42
-0.1586493061248
  0
VERTEX
  8
Wiedersehen
 10
-62.1640625
 20
323.1171875
 42
-0.2573712833583
  0
VERTEX
  8
Wiedersehen
 10
-47.8671875
 20
330.6171875
 42
-0.1204794973431
  0
VERTEX
  8
Wiedersehen
 10
-37.28125
 20
328.4296875
 42
-0.4606074857128
  0
VERTEX
  8
Wiedersehen
 10
-33.5831323660464
 20
316.056017259271
 42
-0.1290680191509
  0
VERTEX
  8
Wiedersehen
 10
-40.7237254596886
 20
310.713099151597
 42
-0.0050588025236
  0
VERTEX
  8
Wiedersehen
 10
-59.859375
 20
301.59375
 42
0.2661681000551
  0
VERTEX
  8
Wiedersehen
 10
-46.8125
 20
295.0703125
 42
0.097352466499
  0
VERTEX
  8
Wiedersehen
 10
-37.2417054919528
 20
297.281487839163
 42
0.1317298010625
  0
VERTEX
  8
Wiedersehen
 10
-34.546875
 20
299.4453125
 42
-0.2495907931163
  0
VERTEX
  8
Wiedersehen
 10
-31.6953125
 20
301.5546875
 42
-0.5845306587995
  0
VERTEX
  8
Wiedersehen
 10
-28.8822133167442
 20
295.490088930021
 42
-0.1505746950461
  0
VERTEX
  8
Wiedersehen
 10
-35.171875
 20
290.65625
 42
-0.1082469248739
  0
SEQEND
  0
POLYLINE
  8
Wiedersehen
 66
     1
 10
0.0
 20
0.0
 30
0.0
 70
     1
  0
VERTEX
  8
Wiedersehen
 10
-47.8671875
 20
323.5859375
 42
0.23070749208
  0
VERTEX
  8
Wiedersehen
 10
-55.796875
 20
319.875
 42
0.1204126509171
  0
VERTEX
  8
Wiedersehen
 10
-60.5234375
 20
308.78125
 42
0.0187303670978
  0
VERTEX
  8
Wiedersehen
 10
-43.3309512313001
 20
317.200766683885
 42
0.0430782385194
  0
VERTEX
  8
Wiedersehen
 10
-38.453125
 20
320.4609375
 42
0.1911098476484
  0
SEQEND
  0
POLYLINE
  8
Wiedersehen
 66
     1
 10
0.0
 20
0.0
 30
0.0
 70
     1
  0
VERTEX
  8
Wiedersehen
 10
23.515625
 20
324.2890625
 42
0.0565848042339
  0
VERTEX
  8
Wiedersehen
 10
24.2578125
 20
293.15625
 42
-0.4868003241257
  0
VERTEX
  8
Wiedersehen
 10
20.703125
 20
288.6640625
 42
-0.3327701650054
  0
VERTEX
  8
Wiedersehen
 10
17.1484375
 20
292.1796875
 42
-0.2595762367454
  0
VERTEX
  8
Wiedersehen
 10
-2.2622713411386
 20
289.295842567722
 42
-0.3122096563988
  0
VERTEX
  8
Wiedersehen
 10
-13.8671875
 20
307.53125
 42
-0.1846694015981
  0
VERTEX
  8
Wiedersehen
 10
-8.359375
 20
324.25
 42
-0.2254628253252
  0
VERTEX
  8
Wiedersehen
 10
6.015625
 20
330.5390625
 42
-0.1234306277088
  0
VERTEX
  8
Wiedersehen
 10
13.0078125
 20
329.1328125
 42
0.0
  0
VERTEX
  8
Wiedersehen
 10
16.6796875
 20
326.4375
 42
-0.0174943125856
  0
VERTEX
  8
Wiedersehen
 10
17.96875
 20
348.5859375
 42
-0.4268360698015
  0
VERTEX
  8
Wiedersehen
 10
21.5234375
 20
352.0625
 42
-0.4820209214473
  0
VERTEX
  8
Wiedersehen
 10
25.078125
 20
348.2734375
 42
-0.0137195745132
  0
SEQEND
  0
POLYLINE
  8
Wiedersehen
 66
     1
 10
0.0
 20
0.0
 30
0.0
 70
     1
  0
VERTEX
  8
Wiedersehen
 10
6.171875
 20
323.2734375
 42
0.3930942268233
  0
VERTEX
  8
Wiedersehen
 10
-6.3153995742588
 20
313.809093232062
 42
0.0578087564857
  0
VERTEX
  8
Wiedersehen
 10
-6.953125
 20
307.6875
 42
0.2919281929896
  0
VERTEX
  8
Wiedersehen
 10
0.4222569286057
 20
296.324138572582
 42
0.2119622979175
  0
VERTEX
  8
Wiedersehen
 10
10.546875
 20
296.59375
 42
0.0885609712381
  0
VERTEX
  8
Wiedersehen
 10
16.015625
 20
301.046875
 42
-0.011934483847
  0
VERTEX
  8
Wiedersehen
 10
16.015625
 20
316.9453125
 42
0.3148862781472
  0
SEQEND
  0
POLYLINE
  8
Wiedersehen
 66
     1
 10
0.0
 20
0.0
 30
0.0
 70
     1
  0
VERTEX
  8
Wiedersehen
 10
62.171875
 20
288.0
 42
-0.1733518655332
  0
VERTEX
  8
Wiedersehen
 10
47.875
 20
292.4140625
 42
-0.2355636660756
  0
VERTEX
  8
Wiedersehen
 10
41.8984375
 20
306.0859375
 42
-0.1586493061248
  0
VERTEX
  8
Wiedersehen
 10
46.8203125
 20
323.1171875
 42
-0.2573712833584
  0
VERTEX
  8
Wiedersehen
 10
61.1171875
 20
330.6171875
 42
-0.1204794973431
  0
VERTEX
  8
Wiedersehen
 10
71.703125
 20
328.4296875
 42
-0.4606074857128
  0
VERTEX
  8
Wiedersehen
 10
75.4012426339536
 20
316.056017259271
 42
-0.1290680191509
  0
VERTEX
  8
Wiedersehen
 10
68.2606495403114
 20
310.713099151597
 42
-0.0050588025236
  0
VERTEX
  8
Wiedersehen
 10
49.125
 20
301.59375
 42
0.2661681000551
  0
VERTEX
  8
Wiedersehen
 10
62.171875
 20
295.0703125
 42
0.097352466499
  0
VERTEX
  8
Wiedersehen
 10
71.7426695080472
 20
297.281487839163
 42
0.1317298010625
  0
VERTEX
  8
Wiedersehen
 10
74.4375
 20
299.4453125
 42
-0.2495907931162
  0
VERTEX
  8
Wiedersehen
 10
77.2890625
 20
301.5546875
 42
-0.5845306587994
  0
VERTEX
  8
Wiedersehen
 10
80.1021616832558
 20
295.490088930021
 42
-0.1505746950461
  0
VERTEX
  8
Wiedersehen
 10
73.8125
 20
290.65625
 42
-0.1082469248739
  0
SEQEND
  0
POLYLINE
  8
Wiedersehen
 66
     1
 10
0.0
 20
0.0
 30
0.0
 70
     1
  0
VERTEX
  8
Wiedersehen
 10
61.1171875
 20
323.5859375
 42
0.23070749208
  0
VERTEX
  8
Wiedersehen
 10
53.1875
 20
319.875
 42
0.1204126509171
  0
VERTEX
  8
Wiedersehen
 10
48.4609375
 20
308.78125
 42
0.0187303670978
  0
VERTEX
  8
Wiedersehen
 10
65.6534237686999
 20
317.200766683885
 42
0.0430782385194
  0
VERTEX
  8
Wiedersehen
 10
70.53125
 20
320.4609375
 42
0.1911098476484
  0
SEQEND
  0
POLYLINE
  8
Wiedersehen
 66
     1
 10
0.0
 20
0.0
 30
0.0
 70
     1
  0
VERTEX
  8
Wiedersehen
 10
126.9140625
 20
318.6640625
 42
-0.1213355060236
  0
VERTEX
  8
Wiedersehen
 10
126.048439278135
 20
315.352654792529
 42
-0.3298114232232
  0
VERTEX
  8
Wiedersehen
 10
121.557703479227
 20
314.015499303387
 42
-0.3251612892734
  0
VERTEX
  8
Wiedersehen
 10
119.6484375
 20
317.6484375
 42
-0.0035659251091
  0
VERTEX
  8
Wiedersehen
 10
119.4140625
 20
323.6640625
 42
0.1278687733775
  0
VERTEX
  8
Wiedersehen
 10
109.53125
 20
320.1875
 42
0.1290712198682
  0
VERTEX
  8
Wiedersehen
 10
103.75
 20
312.53125
 42
0.0
  0
VERTEX
  8
Wiedersehen
 10
103.828125
 20
291.125
 42
-0.494341015911
  0
VERTEX
  8
Wiedersehen
 10
99.9609375
 20
287.1796875
 42
-0.4683155556159
  0
VERTEX
  8
Wiedersehen
 10
96.5234375
 20
291.125
 42
0.0
  0
VERTEX
  8
Wiedersehen
 10
96.5234375
 20
318.546875
 42
-0.0050472865282
  0
VERTEX
  8
Wiedersehen
 10
96.71875
 20
326.28125
 42
-0.1593336184604
  0
VERTEX
  8
Wiedersehen
 10
97.4649964015714
 20
329.101233915912
 42
-0.6597831644849
  0
VERTEX
  8
Wiedersehen
 10
103.710616492997
 20
326.83892603683
 42
-0.0543000617614
  0
VERTEX
  8
Wiedersehen
 10
104.0234375
 20
323.7421875
 42
-0.2004076279986
  0
VERTEX
  8
Wiedersehen
 10
120.6640625
 20
330.96875
 42
-0.2687822320669
  0
VERTEX
  8
Wiedersehen
 10
125.390625
 20
328.5859375
 42
-0.136205898625
  0
VERTEX
  8
Wiedersehen
 10
126.953125
 20
321.3984375
 42
-0.0536252945338
  0
SEQEND
  0
POLYLINE
  8
Wiedersehen
 66
     1
 10
0.0
 20
0.0
 30
0.0
 70
     1
  0
VERTEX
  8
Wiedersehen
 10
169.015625
 20
319.875
 42
-0.4312015443009
  0
VERTEX
  8
Wiedersehen
 10
165.347044504946
 20
323.392864149525
 42
-0.0173346844673
  0
VERTEX
  8
Wiedersehen
 10
164.9921875
 20
325.5390625
 42
0.0143494088005
  0
VERTEX
  8
Wiedersehen
 10
155.96875
 20
322.8046875
 42
0.1623950189528
  0
VERTEX
  8
Wiedersehen
 10
150.322606829242
 20
318.890076620484
 42
0.1408117104668
  0
VERTEX
  8
Wiedersehen
 10
149.640625
 20
316.6328125
 42
0.0452169299956
  0
VERTEX
  8
Wiedersehen
 10
151.9453125
 20
316.0078125
 42
-0.0904614666232
  0
VERTEX
  8
Wiedersehen
 10
165.3046875
 20
311.59375
 42
-0.384525227324
  0
VERTEX
  8
Wiedersehen
 10
170.291476604407
 20
294.12680657886
 42
-0.2108395930358
  0
VERTEX
  8
Wiedersehen
 10
160.557111905699
 20
288.022534005191
 42
-0.1355898057232
  0
VERTEX
  8
Wiedersehen
 10
144.8359375
 20
289.171875
 42
-0.1891478160398
  0
VERTEX
  8
Wiedersehen
 10
139.384873684056
 20
293.033584001824
 42
-0.5769408000159
  0
VERTEX
  8
Wiedersehen
 10
142.84375
 20
299.171875
 42
-0.163704600741
  0
VERTEX
  8
Wiedersehen
 10
145.96875
 20
297.296875
 42
0.1139209437471
  0
VERTEX
  8
Wiedersehen
 10
150.1875
 20
295.8125
 42
0.1206400146502
  0
VERTEX
  8
Wiedersehen
 10
160.3828125
 20
296.125
 42
0.0914501742408
  0
VERTEX
  8
Wiedersehen
 10
162.799191157754
 20
297.315380199569
 42
0.2385457987176
  0
VERTEX
  8
Wiedersehen
 10
164.015625
 20
299.71875
 42
0.2415805004842
  0
VERTEX
  8
Wiedersehen
 10
161.606289314688
 20
304.656545517197
 42
0.1031873998205
  0
VERTEX
  8
Wiedersehen
 10
156.59375
 20
306.90625
 42
-0.0210435879135
  0
VERTEX
  8
Wiedersehen
 10
148.725829808655
 20
308.815917592962
 42
-0.2227681586623
  0
VERTEX
  8
Wiedersehen
 10
142.70784259485
 20
313.350216712771
 42
-0.4116283422918
  0
VERTEX
  8
Wiedersehen
 10
149.6796875
 20
328.703125
 42
-0.0129929473411
  0
VERTEX
  8
Wiedersehen
 10
160.909528132713
 20
332.339619661003
 42
0.0257763427879
  0
VERTEX
  8
Wiedersehen
 10
164.5625
 20
333.703125
 42
-0.1047495749623
  0
VERTEX
  8
Wiedersehen
 10
168.0390625
 20
334.40625
 42
-0.4370315636687
  0
VERTEX
  8
Wiedersehen
 10
171.8671875
 20
330.4609375
 42
0.0057578364735
  0
VERTEX
  8
Wiedersehen
 10
172.84375
 20
323.8203125
 42
-0.4370315636682
  0
SEQEND
  0
POLYLINE
  8
Wiedersehen
 66
     1
 10
0.0
 20
0.0
 30
0.0
 70
     1
  0
VERTEX
  8
Wiedersehen
 10
207.625
 20
288.0
 42
-0.1733518655332
  0
VERTEX
  8
Wiedersehen
 10
193.328125
 20
292.4140625
 42
-0.2355636660756
  0
VERTEX
  8
Wiedersehen
 10
187.3515625
 20
306.0859375
 42
-0.1586493061248
  0
VERTEX
  8
Wiedersehen
 10
192.2734375
 20
323.1171875
 42
-0.2573712833584
  0
VERTEX
  8
Wiedersehen
 10
206.5703125
 20
330.6171875
 42
-0.1204794973431
  0
VERTEX
  8
Wiedersehen
 10
217.15625
 20
328.4296875
 42
-0.4606074857128
  0
VERTEX
  8
Wiedersehen
 10
220.854367633954
 20
316.056017259271
 42
-0.129068019151
  0
VERTEX
  8
Wiedersehen
 10
213.713774540311
 20
310.713099151597
 42
-0.0050588025236
  0
VERTEX
  8
Wiedersehen
 10
194.578125
 20
301.59375
 42
0.2661681000551
  0
VERTEX
  8
Wiedersehen
 10
207.625
 20
295.0703125
 42
0.0973524664989
  0
VERTEX
  8
Wiedersehen
 10
217.195794508047
 20
297.281487839163
 42
0.1317298010625
  0
VERTEX
  8
Wiedersehen
 10
219.890625
 20
299.4453125
 42
-0.2495907931163
  0
VERTEX
  8
Wiedersehen
 10
222.7421875
 20
301.5546875
 42
-0.5845306587997
  0
VERTEX
  8
Wiedersehen
 10
225.555286683256
 20
295.490088930021
 42
-0.1505746950461
  0
VERTEX
  8
Wiedersehen
 10
219.265625
 20
290.65625
 42
-0.1082469248739
  0
SEQEND
  0
POLYLINE
  8
Wiedersehen
 66
     1
 10
0.0
 20
0.0
 30
0.0
 70
     1
  0
VERTEX
  8
Wiedersehen
 10
206.5703125
 20
323.5859375
 42
0.23070749208
  0
VERTEX
  8
Wiedersehen
 10
198.640625
 20
319.875
 42
0.1204126509171
  0
VERTEX
  8
Wiedersehen
 10
193.9140625
 20
308.78125
 42
0.0187303670978
  0
VERTEX
  8
Wiedersehen
 10
211.1065487687
 20
317.200766683885
 42
0.0430782385194
  0
VERTEX
  8
Wiedersehen
 10
215.984375
 20
320.4609375
 42
0.1911098476484
  0
SEQEND
  0
POLYLINE
  8
Wiedersehen
 66
     1
 10
0.0
 20
0.0
 30
0.0
 70
     1
  0
VERTEX
  8
Wiedersehen
 10
274.671875
 20
287.375
 42
-0.3734073461384
  0
VERTEX
  8
Wiedersehen
 10
271.0390625
 20
290.34375
 42
-0.0514732930227
  0
VERTEX
  8
Wiedersehen
 10
268.6953125
 20
308.7421875
 42
-0.0063227822772
  0
VERTEX
  8
Wiedersehen
 10
268.890625
 20
314.9140625
 42
0.0658270180905
  0
VERTEX
  8
Wiedersehen
 10
268.410755160026
 20
319.263969992742
 42
0.3622137324653
  0
VERTEX
  8
Wiedersehen
 10
265.21875
 20
322.2578125
 42
0.2248728247922
  0
VERTEX
  8
Wiedersehen
 10
256.3515625
 20
317.765625
 42
0.0439345875657
  0
VERTEX
  8
Wiedersehen
 10
250.8828125
 20
308.9765625
 42
-0.0230587581042
  0
VERTEX
  8
Wiedersehen
 10
250.45424287871
 20
295.712794890526
 42
-0.0643247764091
  0
VERTEX
  8
Wiedersehen
 10
249.6328125
 20
291.359375
 42
-1.0249990627139
  0
VERTEX
  8
Wiedersehen
 10
242.5625
 20
294.40625
 42
0.0274733562564
  0
VERTEX
  8
Wiedersehen
 10
243.109375
 20
305.890625
 42
0.0
  0
VERTEX
  8
Wiedersehen
 10
243.2265625
 20
334.6015625
 42
0.0101676233482
  0
VERTEX
  8
Wiedersehen
 10
243.5
 20
341.125
 42
0.0546909746551
  0
VERTEX
  8
Wiedersehen
 10
243.109375
 20
344.875
 42
-0.0484225116652
  0
VERTEX
  8
Wiedersehen
 10
242.7578125
 20
348.5859375
 42
-0.6202204204202
  0
VERTEX
  8
Wiedersehen
 10
249.269404103067
 20
351.452987282507
 42
-0.1603713576841
  0
VERTEX
  8
Wiedersehen
 10
250.4140625
 20
348.9375
 42
-0.0616417345204
  0
VERTEX
  8
Wiedersehen
 10
250.765625
 20
333.546875
 42
0.0170967813968
  0
VERTEX
  8
Wiedersehen
 10
250.609375
 20
321.5546875
 42
-0.1004690823506
  0
VERTEX
  8
Wiedersehen
 10
257.4453125
 20
327.9609375
 42
-0.2234946594788
  0
VERTEX
  8
Wiedersehen
 10
270.260800858661
 20
329.243292009936
 42
-0.2396976524104
  0
VERTEX
  8
Wiedersehen
 10
275.092197817695
 20
323.50818449375
 42
-0.0579157205979
  0
VERTEX
  8
Wiedersehen
 10
276.078125
 20
315.890625
 42
0.0467907491637
  0
VERTEX
  8
Wiedersehen
 10
278.5
 20
292.2578125
 42
-0.4889331941
  0
SEQEND
  0
POLYLINE
  8
Wiedersehen
 66
     1
 10
0.0
 20
0.0
 30
0.0
 70
     1
  0
VERTEX
  8
Wiedersehen
 10
315.671875
 20
288.0
 42
-0.1733518655332
  0
VERTEX
  8
Wiedersehen
 10
301.375
 20
292.4140625
 42
-0.2355636660756
  0
VERTEX
  8
Wiedersehen
 10
295.3984375
 20
306.0859375
 42
-0.1586493061248
  0
VERTEX
  8
Wiedersehen
 10
300.3203125
 20
323.1171875
 42
-0.2573712833583
  0
VERTEX
  8
Wiedersehen
 10
314.6171875
 20
330.6171875
 42
-0.1204794973431
  0
VERTEX
  8
Wiedersehen
 10
325.203125
 20
328.4296875
 42
-0.4606074857128
  0
VERTEX
  8
Wiedersehen
 10
328.901242633954
 20
316.056017259271
 42
-0.1290680191509
  0
VERTEX
  8
Wiedersehen
 10
321.760649540311
 20
310.713099151597
 42
-0.0050588025236
  0
VERTEX
  8
Wiedersehen
 10
302.625
 20
301.59375
 42
0.2661681000551
  0
VERTEX
  8
Wiedersehen
 10
315.671875
 20
295.0703125
 42
0.0973524664989
  0
VERTEX
  8
Wiedersehen
 10
325.242669508047
 20
297.281487839163
 42
0.1317298010625
  0
VERTEX
  8
Wiedersehen
 10
327.9375
 20
299.4453125
 42
-0.2495907931165
  0
VERTEX
  8
Wiedersehen
 10
330.7890625
 20
301.5546875
 42
-0.5845306587998
  0
VERTEX
  8
Wiedersehen
 10
333.602161683256
 20
295.490088930021
 42
-0.1505746950461
  0
VERTEX
  8
Wiedersehen
 10
327.3125
 20
290.65625
 42
-0.1082469248739
  0
SEQEND
  0
POLYLINE
  8
Wiedersehen
 66
     1
 10
0.0
 20
0.0
 30
0.0
 70
     1
  0
VERTEX
  8
Wiedersehen
 10
314.6171875
 20
323.5859375
 42
0.23070749208
  0
VERTEX
  8
Wiedersehen
 10
306.6875
 20
319.875
 42
0.1204126509171
  0
VERTEX
  8
Wiedersehen
 10
301.9609375
 20
308.78125
 42
0.0187303670978
  0
VERTEX
  8
Wiedersehen
 10
319.1534237687
 20
317.200766683885
 42
0.0430782385194
  0
VERTEX
  8
Wiedersehen
 10
324.03125
 20
320.4609375
 42
0.1911098476484
  0
SEQEND
  0
POLYLINE
  8
Wiedersehen
 66
     1
 10
0.0
 20
0.0
 30
0.0
 70
     1
  0
VERTEX
  8
Wiedersehen
 10
379.984375
 20
287.0234375
 42
-0.4422724030565
  0
VERTEX
  8
Wiedersehen
 10
376.1953125
 20
290.6953125
 42
-0.0316725367957
  0
VERTEX
  8
Wiedersehen
 10
374.5546875
 20
307.8046875
 42
-0.0052560238769
  0
VERTEX
  8
Wiedersehen
 10
374.828125
 20
315.2265625
 42
0.1174559086634
  0
VERTEX
  8
Wiedersehen
 10
373.735721116415
 20
322.254311306413
 42
0.2926316056699
  0
VERTEX
  8
Wiedersehen
 10
371.703125
 20
323.6640625
 42
0.1564896348699
  0
VERTEX
  8
Wiedersehen
 10
366.922803359935
 20
322.032836721807
 42
0.1279222111512
  0
VERTEX
  8
Wiedersehen
 10
359.972686668809
 20
312.755042657334
 42
0.0385605852713
  0
VERTEX
  8
Wiedersehen
 10
357.71875
 20
306.515625
 42
0.0149025473595
  0
VERTEX
  8
Wiedersehen
 10
357.1328125
 20
298.8984375
 42
0.0215281376082
  0
VERTEX
  8
Wiedersehen
 10
357.3671875
 20
295.3828125
 42
-0.0215347935248
  0
VERTEX
  8
Wiedersehen
 10
357.6015625
 20
291.8671875
 42
-0.6667442554461
  0
VERTEX
  8
Wiedersehen
 10
351.0
 20
289.015625
 42
-0.2002040906238
  0
VERTEX
  8
Wiedersehen
 10
349.9453125
 20
291.8671875
 42
-0.0055267287506
  0
VERTEX
  8
Wiedersehen
 10
349.4375
 20
298.8984375
 42
-0.0173655750351
  0
VERTEX
  8
Wiedersehen
 10
349.984375
 20
310.03125
 42
0.0472751464496
  0
VERTEX
  8
Wiedersehen
 10
350.4140625
 20
324.9140625
 42
-0.0104133711785
  0
VERTEX
  8
Wiedersehen
 10
350.296875
 20
328.625
 42
-0.7474477800678
  0
VERTEX
  8
Wiedersehen
 10
357.230857574563
 20
330.7641257329
 42
-0.1116942918339
  0
VERTEX
  8
Wiedersehen
 10
358.109375
 20
327.375
 42
0.0
  0
VERTEX
  8
Wiedersehen
 10
358.2265625
 20
322.8046875
 42
-0.0713201941488
  0
VERTEX
  8
Wiedersehen
 10
363.958774507397
 20
328.729211719024
 42
-0.3094981273989
  0
VERTEX
  8
Wiedersehen
 10
376.950970231995
 20
330.212127964421
 42
-0.1519676310845
  0
VERTEX
  8
Wiedersehen
 10
380.4140625
 20
326.046875
 42
-0.0928658463063
  0
VERTEX
  8
Wiedersehen
 10
382.25
 20
315.1875
 42
-0.0053761886914
  0
VERTEX
  8
Wiedersehen
 10
382.2109375
 20
307.609375
 42
0.0368359158139
  0
VERTEX
  8
Wiedersehen
 10
383.03125
 20
299.2109375
 42
-0.0388124099838
  0
VERTEX
  8
Wiedersehen
 10
383.890625
 20
290.890625
 42
-0.4009509530949
  0
SEQEND
  0
POLYLINE
  8
in
 66
     1
 10
0.0
 20
0.0
 30
0.0
 70
     1
  0
VERTEX
  8
in
 10
-249.43115234375
 20
166.798828125
 42
0.0774520283966
  0
VERTEX
  8
in
 10
-250.16357421875
 20
160.79296875
 42
0.007372905434
  0
VERTEX
  8
in
 10
-250.06591796875
 20
156.447265625
 42
-0.0414224238052
  0
VERTEX
  8
in
 10
-250.84716796875
 20
137.55078125
 42
0.0526452802393
  0
VERTEX
  8
in
 10
-251.14013671875
 20
111.8671875
 42
-0.015698228139
  0
VERTEX
  8
in
 10
-250.60302734375
 20
100.685546875
 42
-1.0128380051664
  0
VERTEX
  8
in
 10
-259.97802734375
 20
100.685546875
 42
0.0001050962096
  0
VERTEX
  8
in
 10
-261.05224609375
 20
123.0
 42
-0.0166325263216
  0
VERTEX
  8
in
 10
-260.80810546875
 20
130.2265625
 42
0.0406430695046
  0
VERTEX
  8
in
 10
-281.46240234375
 20
127.736328125
 42
0.0
  0
VERTEX
  8
in
 10
-301.97021484375
 20
123.732421875
 42
-0.0240706729415
  0
VERTEX
  8
in
 10
-302.84912109375
 20
111.232421875
 42
0.024357638302
  0
VERTEX
  8
in
 10
-303.72802734375
 20
98.732421875
 42
-1.0233645453023
  0
VERTEX
  8
in
 10
-313.10302734375
 20
98.732421875
 42
-0.0175209110392
  0
VERTEX
  8
in
 10
-312.27294921875
 20
114.162109375
 42
0.0404285794057
  0
VERTEX
  8
in
 10
-311.58935546875
 20
137.74609375
 42
-0.033070346115
  0
VERTEX
  8
in
 10
-311.29638671875
 20
157.47265625
 42
0.0135355576975
  0
VERTEX
  8
in
 10
-310.80810546875
 20
169.09375
 42
-1.0231792190054
  0
VERTEX
  8
in
 10
-301.43310546875
 20
169.09375
 42
0.0019923359231
  0
VERTEX
  8
in
 10
-302.45849609375
 20
145.705078125
 42
0.0
  0
VERTEX
  8
in
 10
-302.16552734375
 20
133.3515625
 42
0.0
  0
VERTEX
  8
in
 10
-281.21826171875
 20
137.306640625
 42
-0.0413639623888
  0
VERTEX
  8
in
 10
-260.07568359375
 20
139.748046875
 42
0.0165885605568
  0
VERTEX
  8
in
 10
-259.53857421875
 20
160.79296875
 42
-0.1299800722051
  0
VERTEX
  8
in
 10
-256.844202713164
 20
171.61738207444
 42
-0.5141607983065
  0
VERTEX
  8
in
 10
-250.45654296875
 20
172.169921875
 42
-0.3237558054492
  0
SEQEND
  0
POLYLINE
  8
in
 66
     1
 10
0.0
 20
0.0
 30
0.0
 70
     1
  0
VERTEX
  8
in
 10
-195.57861328125
 20
95.119140625
 42
-0.2106258790548
  0
VERTEX
  8
in
 10
-209.68994140625
 20
101.173828125
 42
-0.1926449679954
  0
VERTEX
  8
in
 10
-216.62353515625
 20
119.2890625
 42
-0.1641764212782
  0
VERTEX
  8
in
 10
-211.05712890625
 20
138.72265625
 42
-0.2625280212348
  0
VERTEX
  8
in
 10
-192.01416015625
 20
148.634765625
 42
-0.2920255501779
  0
VERTEX
  8
in
 10
-177.21923828125
 20
139.69921875
 42
-0.1312050542541
  0
VERTEX
  8
in
 10
-173.36181640625
 20
122.31640625
 42
-0.1564634491311
  0
VERTEX
  8
in
 10
-179.02587890625
 20
103.810546875
 42
-0.2505994772212
  0
SEQEND
  0
POLYLINE
  8
in
 66
     1
 10
0.0
 20
0.0
 30
0.0
 70
     1
  0
VERTEX
  8
in
 10
-192.64892578125
 20
138.72265625
 42
0.2885030862112
  0
VERTEX
  8
in
 10
-203.83056640625
 20
131.88671875
 42
0.1958514249081
  0
VERTEX
  8
in
 10
-206.172774146222
 20
113.387987958505
 42
0.5941598953432
  0
VERTEX
  8
in
 10
-186.83837890625
 20
108.693359375
 42
0.1962723514782
  0
VERTEX
  8
in
 10
-182.44384765625
 20
119.77734375
 42
0.0675449198497
  0
VERTEX
  8
in
 10
-183.226128055454
 20
130.087069642929
 42
0.1823271167948
  0
VERTEX
  8
in
 10
-187.650806579773
 20
137.347377142524
 42
0.1158857170898
  0
SEQEND
  0
POLYLINE
  8
in
 66
     1
 10
0.0
 20
0.0
 30
0.0
 70
     1
  0
VERTEX
  8
in
 10
-112.71240234375
 20
166.65234375
 42
0.2398759629069
  0
VERTEX
  8
in
 10
-121.921803416098
 20
162.559337578959
 42
0.1428533198835
  0
VERTEX
  8
in
 10
-125.94482421875
 20
150.24609375
 42
0.0
  0
VERTEX
  8
in
 10
-126.09130859375
 20
147.21875
 42
-0.0115156266452
  0
VERTEX
  8
in
 10
-115.34912109375
 20
147.8046875
 42
-0.0935580268684
  0
VERTEX
  8
in
 10
-110.414283628835
 20
147.037549410836
 42
-0.5069545184676
  0
VERTEX
  8
in
 10
-108.604993131721
 20
140.004621481487
 42
-0.158702645752
  0
VERTEX
  8
in
 10
-111.39404296875
 20
138.673828125
 42
0.0131903297293
  0
VERTEX
  8
in
 10
-126.53076171875
 20
137.794921875
 42
0.0282952438882
  0
VERTEX
  8
in
 10
-126.72607421875
 20
117.580078125
 42
-0.0246394190167
  0
VERTEX
  8
in
 10
-126.731323398176
 20
101.295298286176
 42
-0.0344303100034
  0
VERTEX
  8
in
 10
-127.60498046875
 20
94.09375
 42
-0.4036424913678
  0
VERTEX
  8
in
 10
-132.14599609375
 20
90.1875
 42
-0.4931508911306
  0
VERTEX
  8
in
 10
-136.88232421875
 20
95.705078125
 42
0.0398392103785
  0
VERTEX
  8
in
 10
-135.85693359375
 20
109.5234375
 42
-0.0054943396276
  0
VERTEX
  8
in
 10
-136.00341796875
 20
137.013671875
 42
-0.0122356708047
  0
VERTEX
  8
in
 10
-143.71826171875
 20
136.525390625
 42
-0.4967428283149
  0
VERTEX
  8
in
 10
-148.64990234375
 20
141.26171875
 42
-0.3054694650566
  0
VERTEX
  8
in
 10
-146.093109614382
 20
145.176812476763
 42
-0.10158895015
  0
VERTEX
  8
in
 10
-140.10498046875
 20
146.33984375
 42
0.0
  0
VERTEX
  8
in
 10
-135.41748046875
 20
146.486328125
 42
-0.0489283087639
  0
VERTEX
  8
in
 10
-133.025609426157
 20
162.259772609648
 42
-0.0964949113194
  0
VERTEX
  8
in
 10
-129.21630859375
 20
169.875
 42
-0.1414787007906
  0
VERTEX
  8
in
 10
-121.99080591469
 20
174.790125530992
 42
-0.0825011608022
  0
VERTEX
  8
in
 10
-113.34716796875
 20
176.076171875
 42
-0.1056646293499
  0
VERTEX
  8
in
 10
-108.791024364036
 20
175.277964696259
 42
-0.3165501051685
  0
VERTEX
  8
in
 10
-106.36474609375
 20
171.33984375
 42
-0.3617206143915
  0
VERTEX
  8
in
 10
-109.4403276424
 20
167.085325974173
 42
-0.0762017382846
  0
SEQEND
  0
POLYLINE
  8
in
 66
     1
 10
0.0
 20
0.0
 30
0.0
 70
     1
  0
VERTEX
  8
in
 10
-46.48681640625
 20
135.59765625
 42
-0.2770685265743
  0
VERTEX
  8
in
 10
-50.24658203125
 20
137.404296875
 42
-0.0725123135822
  0
VERTEX
  8
in
 10
-51.51611328125
 20
142.677734375
 42
0.0143494088005
  0
VERTEX
  8
in
 10
-62.79541015625
 20
139.259765625
 42
0.0696040638196
  0
VERTEX
  8
in
 10
-67.84089301908
 20
136.520356748852
 42
0.2330890875464
  0
VERTEX
  8
in
 10
-70.70556640625
 20
131.544921875
 42
0.0452169299956
  0
VERTEX
  8
in
 10
-67.82470703125
 20
130.763671875
 42
-0.0904614666232
  0
VERTEX
  8
in
 10
-51.12548828125
 20
125.24609375
 42
-0.384525227324
  0
VERTEX
  8
in
 10
-44.8920019007417
 20
103.412414473575
 42
-0.1314541701112
  0
VERTEX
  8
in
 10
-50.05126953125
 20
98.390625
 42
-0.1312373531593
  0
VERTEX
  8
in
 10
-64.50439453125
 20
95.0703125
 42
-0.0894440180176
  0
VERTEX
  8
in
 10
-76.71142578125
 20
97.21875
 42
-0.0828441849604
  0
VERTEX
  8
in
 10
-81.6564061434744
 20
99.8573239621895
 42
-0.2336288440547
  0
VERTEX
  8
in
 10
-84.23095703125
 20
104.8359375
 42
-0.3988951625723
  0
VERTEX
  8
in
 10
-79.20166015625
 20
109.71875
 42
-0.1637046007411
  0
VERTEX
  8
in
 10
-75.29541015625
 20
107.375
 42
0.1139209437471
  0
VERTEX
  8
in
 10
-70.02197265625
 20
105.51953125
 42
0.1206400146502
  0
VERTEX
  8
in
 10
-57.27783203125
 20
105.91015625
 42
0.0914501742408
  0
VERTEX
  8
in
 10
-54.2573587090578
 20
107.398131499461
 42
0.2385457987176
  0
VERTEX
  8
in
 10
-52.73681640625
 20
110.40234375
 42
0.2415805004842
  0
VERTEX
  8
in
 10
-55.7484860128897
 20
116.574588146496
 42
0.1031873998205
  0
VERTEX
  8
in
 10
-62.01416015625
 20
119.38671875
 42
-0.0210435879135
  0
VERTEX
  8
in
 10
-71.8490603954315
 20
121.773803241203
 42
-0.0688353105667
  0
VERTEX
  8
in
 10
-76.32080078125
 20
123.830078125
 42
-0.2601093572143
  0
VERTEX
  8
in
 10
-80.27587890625
 20
132.08203125
 42
-0.3225935095738
  0
VERTEX
  8
in
 10
-70.65673828125
 20
146.6328125
 42
-0.0318487923301
  0
VERTEX
  8
in
 10
-61.28173828125
 20
149.7578125
 42
0.0307484303106
  0
VERTEX
  8
in
 10
-52.05322265625
 20
152.8828125
 42
-0.1047495749623
  0
VERTEX
  8
in
 10
-47.70751953125
 20
153.76171875
 42
-0.4370315636686
  0
VERTEX
  8
in
 10
-42.92236328125
 20
148.830078125
 42
0.045982151215
  0
VERTEX
  8
in
 10
-42.33642578125
 20
144.6796875
 42
-0.0496613659148
  0
VERTEX
  8
in
 10
-41.70166015625
 20
140.529296875
 42
-0.4370315636686
  0
SEQEND
  0
POLYLINE
  8
in
 66
     1
 10
0.0
 20
0.0
 30
0.0
 70
     1
  0
VERTEX
  8
in
 10
24.02587890625
 20
119.044921875
 42
0.0001876370455
  0
VERTEX
  8
in
 10
22.3554872292153
 20
94.5983939050355
 42
-0.1011794892895
  0
VERTEX
  8
in
 10
18.321500357467
 20
80.2728164012738
 42
-0.2274706847157
  0
VERTEX
  8
in
 10
5.7649386296096
 20
71.3621405345355
 42
-0.0913292230285
  0
VERTEX
  8
in
 10
-13.96240234375
 20
71.33984375
 42
-0.0883529402271
  0
VERTEX
  8
in
 10
-17.9528360195346
 20
72.7712441852098
 42
-0.4499819489031
  0
VERTEX
  8
in
 10
-19.0767265828045
 20
79.6524219269972
 42
-0.2049326109056
  0
VERTEX
  8
in
 10
-15.86669921875
 20
80.763671875
 42
-0.0400485334295
  0
VERTEX
  8
in
 10
-10.00732421875
 20
79.93359375
 42
0.057385834342
  0
VERTEX
  8
in
 10
-0.92529296875
 20
79.15234375
 42
0.3330820640321
  0
VERTEX
  8
in
 10
12.01416015625
 20
88.234375
 42
0.0727416878041
  0
VERTEX
  8
in
 10
14.2098954495019
 20
99.5948532660228
 42
0.0165383700527
  0
VERTEX
  8
in
 10
14.50439453125
 20
106.544921875
 42
-0.122177623246
  0
VERTEX
  8
in
 10
8.20556640625
 20
99.220703125
 42
-0.1528048111423
  0
VERTEX
  8
in
 10
-0.09521484375
 20
96.779296875
 42
-0.3357091306424
  0
VERTEX
  8
in
 10
-18.7615327285268
 20
110.092895136014
 42
-0.1500918154925
  0
VERTEX
  8
in
 10
-18.3117500253943
 20
129.819836207121
 42
-0.2303821771926
  0
VERTEX
  8
in
 10
-2.6912552559284
 20
146.124646893618
 42
-0.0878612621731
  0
VERTEX
  8
in
 10
8.84033203125
 20
148.0
 42
-0.0889950834353
  0
VERTEX
  8
in
 10
16.45751953125
 20
146.828125
 42
-0.154753688757
  0
VERTEX
  8
in
 10
21.14501953125
 20
143.3125
 42
-0.466735837553
  0
VERTEX
  8
in
 10
26.36962890625
 20
137.501953125
 42
-0.040132269718
  0
VERTEX
  8
in
 10
25.34423828125
 20
128.224609375
 42
0.0157744194005
  0
SEQEND
  0
POLYLINE
  8
in
 66
     1
 10
0.0
 20
0.0
 30
0.0
 70
     1
  0
VERTEX
  8
in
 10
8.35205078125
 20
140.1875
 42
0.3546206507259
  0
VERTEX
  8
in
 10
-9.5270277627136
 20
126.855256544637
 42
0.1125518138574
  0
VERTEX
  8
in
 10
-10.0285504089296
 20
113.61169330255
 42
0.4020366820022
  0
VERTEX
  8
in
 10
0.19775390625
 20
104.93359375
 42
0.1471686853877
  0
VERTEX
  8
in
 10
5.5981995581273
 20
106.658934916805
 42
0.2058625334398
  0
VERTEX
  8
in
 10
14.55322265625
 20
120.65625
 42
0.0187353384401
  0
VERTEX
  8
in
 10
16.75048828125
 20
137.208984375
 42
0.171196065582
  0
SEQEND
  0
POLYLINE
  8
in
 66
     1
 10
0.0
 20
0.0
 30
0.0
 70
     1
  0
VERTEX
  8
in
 10
90.82763671875
 20
134.083984375
 42
-0.1213355060236
  0
VERTEX
  8
in
 10
89.7456076914185
 20
129.944724740661
 42
-0.2761074325706
  0
VERTEX
  8
in
 10
85.94482421875
 20
127.98046875
 42
-0.3161372975017
  0
VERTEX
  8
in
 10
82.2005898597009
 20
130.155854737098
 42
-0.0634168203582
  0
VERTEX
  8
in
 10
81.59912109375
 20
136.232421875
 42
0.0
  0
VERTEX
  8
in
 10
81.45263671875
 20
140.333984375
 42
0.1278687733776
  0
VERTEX
  8
in
 10
69.09912109375
 20
135.98828125
 42
0.1290712198682
  0
VERTEX
  8
in
 10
61.87255859375
 20
126.41796875
 42
0.0
  0
VERTEX
  8
in
 10
61.97021484375
 20
99.66015625
 42
-0.4943410159109
  0
VERTEX
  8
in
 10
57.13623046875
 20
94.728515625
 42
-0.3152161626926
  0
VERTEX
  8
in
 10
53.3063779749184
 20
96.9444445772031
 42
-0.0993323875021
  0
VERTEX
  8
in
 10
52.83935546875
 20
99.66015625
 42
0.0
  0
VERTEX
  8
in
 10
52.83935546875
 20
133.9375
 42
-0.0050472865282
  0
VERTEX
  8
in
 10
53.08349609375
 20
143.60546875
 42
-0.1593336184604
  0
VERTEX
  8
in
 10
54.0163040957142
 20
147.13044864489
 42
-0.3686495671299
  0
VERTEX
  8
in
 10
59.9506375953685
 20
147.7128332845
 42
-0.1671379309999
  0
VERTEX
  8
in
 10
61.8233292099966
 20
144.302563796037
 42
-0.0543000617614
  0
VERTEX
  8
in
 10
62.21435546875
 20
140.431640625
 42
-0.2004076279986
  0
VERTEX
  8
in
 10
83.01513671875
 20
149.46484375
 42
-0.2687822320669
  0
VERTEX
  8
in
 10
88.92333984375
 20
146.486328125
 42
-0.136205898625
  0
VERTEX
  8
in
 10
90.87646484375
 20
137.501953125
 42
-0.0101019440951
  0
SEQEND
  0
POLYLINE
  8
in
 66
     1
 10
0.0
 20
0.0
 30
0.0
 70
     1
  0
VERTEX
  8
in
 10
155.14404296875
 20
126.515625
 42
0.001222496743
  0
VERTEX
  8
in
 10
155.19287109375
 20
115.96875
 42
0.0227526143021
  0
VERTEX
  8
in
 10
155.58349609375
 20
98.87890625
 42
-0.665218663947
  0
VERTEX
  8
in
 10
147.405442644897
 20
95.4819143359379
 42
-0.1257941293465
  0
VERTEX
  8
in
 10
145.91552734375
 20
98.732421875
 42
-0.1687071969181
  0
VERTEX
  8
in
 10
126.342780424915
 20
96.1799613687611
 42
-0.3187716756095
  0
VERTEX
  8
in
 10
115.73974609375
 20
107.521484375
 42
-0.0358450212697
  0
VERTEX
  8
in
 10
113.83544921875
 20
130.568359375
 42
-0.0416588744929
  0
VERTEX
  8
in
 10
115.30029296875
 20
145.802734375
 42
-0.4241141359725
  0
VERTEX
  8
in
 10
119.93896484375
 20
150.05078125
 42
-0.4270103348872
  0
VERTEX
  8
in
 10
124.87060546875
 20
145.265625
 42
-0.0305469294284
  0
VERTEX
  8
in
 10
124.13818359375
 20
138.087890625
 42
0.0303040741696
  0
VERTEX
  8
in
 10
123.45458984375
 20
130.568359375
 42
0.0222687523264
  0
VERTEX
  8
in
 10
123.99169921875
 20
116.603515625
 42
0.0479897635015
  0
VERTEX
  8
in
 10
125.60302734375
 20
107.27734375
 42
0.1332045624584
  0
VERTEX
  8
in
 10
131.85302734375
 20
105.470703125
 42
0.0702209553876
  0
VERTEX
  8
in
 10
145.67138671875
 20
107.5703125
 42
0.0026914288076
  0
VERTEX
  8
in
 10
145.52490234375
 20
126.955078125
 42
-0.0289493595314
  0
VERTEX
  8
in
 10
146.45263671875
 20
145.265625
 42
-0.4421901978159
  0
VERTEX
  8
in
 10
151.18896484375
 20
149.7578125
 42
-0.4416484790275
  0
VERTEX
  8
in
 10
156.02294921875
 20
144.97265625
 42
0.0
  0
SEQEND
  0
POLYLINE
  8
in
 66
     1
 10
0.0
 20
0.0
 30
0.0
 70
     1
  0
VERTEX
  8
in
 10
220.35400390625
 20
94.533203125
 42
-0.4422724030563
  0
VERTEX
  8
in
 10
215.61767578125
 20
99.123046875
 42
-0.0316725367957
  0
VERTEX
  8
in
 10
213.56689453125
 20
120.509765625
 42
-0.0052560238769
  0
VERTEX
  8
in
 10
213.90869140625
 20
129.787109375
 42
0.1174559086634
  0
VERTEX
  8
in
 10
212.543186551769
 20
138.571795383016
 42
0.2926316056698
  0
VERTEX
  8
in
 10
210.00244140625
 20
140.333984375
 42
0.1564896348699
  0
VERTEX
  8
in
 10
204.027039356168
 20
138.294952152259
 42
0.1279222111512
  0
VERTEX
  8
in
 10
195.339393492261
 20
126.697709571668
 42
0.0385605852713
  0
VERTEX
  8
in
 10
192.52197265625
 20
118.8984375
 42
0.0149025473595
  0
VERTEX
  8
in
 10
191.78955078125
 20
109.376953125
 42
0.0215281376082
  0
VERTEX
  8
in
 10
192.08251953125
 20
104.982421875
 42
-0.0215347935248
  0
VERTEX
  8
in
 10
192.37548828125
 20
100.587890625
 42
-0.6667442554459
  0
VERTEX
  8
in
 10
184.12353515625
 20
97.0234375
 42
-0.2002040906238
  0
VERTEX
  8
in
 10
182.80517578125
 20
100.587890625
 42
-0.0055267287506
  0
VERTEX
  8
in
 10
182.17041015625
 20
109.376953125
 42
-0.0173655750351
  0
VERTEX
  8
in
 10
182.85400390625
 20
123.29296875
 42
0.0184662046111
  0
VERTEX
  8
in
 10
183.58642578125
 20
137.2578125
 42
-0.0052560238769
  0
VERTEX
  8
in
 10
183.24462890625
 20
146.53515625
 42
-0.7474477800678
  0
VERTEX
  8
in
 10
191.912107124454
 20
149.209063416125
 42
-0.1116942918339
  0
VERTEX
  8
in
 10
193.01025390625
 20
144.97265625
 42
0.0
  0
VERTEX
  8
in
 10
193.15673828125
 20
139.259765625
 42
-0.0713201941488
  0
VERTEX
  8
in
 10
200.322003290497
 20
146.66542089878
 42
-0.1629080766818
  0
VERTEX
  8
in
 10
210.00244140625
 20
150.197265625
 42
-0.3240401744777
  0
VERTEX
  8
in
 10
220.89111328125
 20
143.3125
 42
-0.0928658463063
  0
VERTEX
  8
in
 10
223.18603515625
 20
129.73828125
 42
-0.0053761886914
  0
VERTEX
  8
in
 10
223.13720703125
 20
120.265625
 42
0.0368359158139
  0
VERTEX
  8
in
 10
224.16259765625
 20
109.767578125
 42
-0.0388124099838
  0
VERTEX
  8
in
 10
225.23681640625
 20
99.3671875
 42
-0.4009509530946
  0
SEQEND
  0
POLYLINE
  8
in
 66
     1
 10
0.0
 20
0.0
 30
0.0
 70
     1
  0
VERTEX
  8
in
 10
295.92041015625
 20
141.115234375
 42
0.0565848042339
  0
VERTEX
  8
in
 10
296.84814453125
 20
102.19921875
 42
-0.4868003241258
  0
VERTEX
  8
in
 10
292.40478515625
 20
96.583984375
 42
-0.2342724341538
  0
VERTEX
  8
in
 10
289.451920294958
 20
98.0419420049885
 42
-0.0927990254022
  0
VERTEX
  8
in
 10
287.96142578125
 20
100.978515625
 42
-0.2595762367454
  0
VERTEX
  8
in
 10
263.698039729827
 20
97.3737094596521
 42
-0.3122096563988
  0
VERTEX
  8
in
 10
249.19189453125
 20
120.16796875
 42
-0.1846694015981
  0
VERTEX
  8
in
 10
256.07666015625
 20
141.06640625
 42
-0.2254628253252
  0
VERTEX
  8
in
 10
274.04541015625
 20
148.927734375
 42
-0.1234306277088
  0
VERTEX
  8
in
 10
282.78564453125
 20
147.169921875
 42
0.0
  0
VERTEX
  8
in
 10
287.37548828125
 20
143.80078125
 42
-0.0174943125856
  0
VERTEX
  8
in
 10
288.98681640625
 20
171.486328125
 42
-0.4268360698015
  0
VERTEX
  8
in
 10
293.43017578125
 20
175.83203125
 42
-0.4820209214474
  0
VERTEX
  8
in
 10
297.87353515625
 20
171.095703125
 42
-0.0137195745132
  0
SEQEND
  0
POLYLINE
  8
in
 66
     1
 10
0.0
 20
0.0
 30
0.0
 70
     1
  0
VERTEX
  8
in
 10
274.24072265625
 20
139.845703125
 42
0.2272549281215
  0
VERTEX
  8
in
 10
261.93603515625
 20
134.962890625
 42
0.1179420618121
  0
VERTEX
  8
in
 10
258.631629438426
 20
128.015272790077
 42
0.0578087564857
  0
VERTEX
  8
in
 10
257.83447265625
 20
120.36328125
 42
0.2919281929896
  0
VERTEX
  8
in
 10
267.053700067007
 20
106.159079465728
 42
0.2119622979175
  0
VERTEX
  8
in
 10
279.70947265625
 20
106.49609375
 42
0.0885609712381
  0
VERTEX
  8
in
 10
286.54541015625
 20
112.0625
 42
-0.011934483847
  0
VERTEX
  8
in
 10
286.54541015625
 20
131.935546875
 42
0.3148862781472
  0
SEQEND
  0
POLYLINE
  8
Hofsgrund
 66
     1
 10
0.0
 20
0.0
 30
0.0
 70
     1
  0
VERTEX
  8
Hofsgrund
 10
-18.16259765625
 20
242.673828125
 42
-1.4971873668865
  0
VERTEX
  8
Hofsgrund
 10
-14.95947265625
 20
250.408203125
 42
-0.6631632102109
  0
SEQEND
  0
POLYLINE
  8
Hofsgrund
 66
     1
 10
0.0
 20
0.0
 30
0.0
 70
     1
  0
VERTEX
  8
Hofsgrund
 10
-16.40478515625
 20
210.955078125
 42
0.0028387708686
  0
VERTEX
  8
Hofsgrund
 10
-16.13134765625
 20
196.931640625
 42
-0.6631579154747
  0
VERTEX
  8
Hofsgrund
 10
-22.73291015625
 20
194.119140625
 42
-0.200655518475
  0
VERTEX
  8
Hofsgrund
 10
-23.78759765625
 20
196.931640625
 42
-0.0028387708686
  0
VERTEX
  8
Hofsgrund
 10
-24.06103515625
 20
210.955078125
 42
0.0000907605729
  0
VERTEX
  8
Hofsgrund
 10
-23.27978515625
 20
229.275390625
 42
-1.0446354539151
  0
VERTEX
  8
Hofsgrund
 10
-15.62353515625
 20
229.275390625
 42
-0.0000907605729
  0
SEQEND
  0
POLYLINE
  8
Hofsgrund
 66
     1
 10
0.0
 20
0.0
 30
0.0
 70
     1
  0
VERTEX
  8
Hofsgrund
 10
26.75927734375
 20
190.447265625
 42
-0.4422724030563
  0
VERTEX
  8
Hofsgrund
 10
22.97021484375
 20
194.119140625
 42
-0.0316725367957
  0
VERTEX
  8
Hofsgrund
 10
21.32958984375
 20
211.228515625
 42
-0.0052560238769
  0
VERTEX
  8
Hofsgrund
 10
21.60302734375
 20
218.650390625
 42
0.1174559086634
  0
VERTEX
  8
Hofsgrund
 10
20.5106234601654
 20
225.678139431413
 42
0.2926316056698
  0
VERTEX
  8
Hofsgrund
 10
18.47802734375
 20
227.087890625
 42
0.1564896348699
  0
VERTEX
  8
Hofsgrund
 10
13.6977057036847
 20
225.456664846807
 42
0.1279222111512
  0
VERTEX
  8
Hofsgrund
 10
6.7475890125591
 20
216.178870782334
 42
0.0385605852713
  0
VERTEX
  8
Hofsgrund
 10
4.49365234375
 20
209.939453125
 42
0.0149025473595
  0
VERTEX
  8
Hofsgrund
 10
3.90771484375
 20
202.322265625
 42
0.0215281376082
  0
VERTEX
  8
Hofsgrund
 10
4.14208984375
 20
198.806640625
 42
-0.0215347935248
  0
VERTEX
  8
Hofsgrund
 10
4.37646484375
 20
195.291015625
 42
-0.6667442554459
  0
VERTEX
  8
Hofsgrund
 10
-2.22509765625
 20
192.439453125
 42
-0.2002040906238
  0
VERTEX
  8
Hofsgrund
 10
-3.27978515625
 20
195.291015625
 42
-0.0055267287506
  0
VERTEX
  8
Hofsgrund
 10
-3.78759765625
 20
202.322265625
 42
-0.0173655750351
  0
VERTEX
  8
Hofsgrund
 10
-3.24072265625
 20
213.455078125
 42
0.0472751464496
  0
VERTEX
  8
Hofsgrund
 10
-2.81103515625
 20
228.337890625
 42
-0.0104133711785
  0
VERTEX
  8
Hofsgrund
 10
-2.92822265625
 20
232.048828125
 42
-0.7474477800677
  0
VERTEX
  8
Hofsgrund
 10
4.005759918313
 20
234.1879538579
 42
-0.1116942918339
  0
VERTEX
  8
Hofsgrund
 10
4.88427734375
 20
230.798828125
 42
0.0
  0
VERTEX
  8
Hofsgrund
 10
5.00146484375
 20
226.228515625
 42
-0.0713201941488
  0
VERTEX
  8
Hofsgrund
 10
10.7336768511475
 20
232.153039844024
 42
-0.309498127399
  0
VERTEX
  8
Hofsgrund
 10
23.7258725757452
 20
233.635956089421
 42
-0.1519676310845
  0
VERTEX
  8
Hofsgrund
 10
27.18896484375
 20
229.470703125
 42
-0.0928658463063
  0
VERTEX
  8
Hofsgrund
 10
29.02490234375
 20
218.611328125
 42
-0.0053761886914
  0
VERTEX
  8
Hofsgrund
 10
28.98583984375
 20
211.033203125
 42
0.0368359158139
  0
VERTEX
  8
Hofsgrund
 10
29.80615234375
 20
202.634765625
 42
-0.0388124099838
  0
VERTEX
  8
Hofsgrund
 10
30.66552734375
 20
194.314453125
 42
-0.4009509530946
  0
SEQEND
  0
ENDSEC
  0
EOF
