0
SECTION
2
HEADER
9
$INSUNITS
70
4
9
$ACADVER
1
AC1014
9
$HANDSEED
5
FFFF
0
ENDSEC
0
SECTION
2
TABLES
0
TABLE
2
VPORT
5
8
100
AcDbSymbolTable
0
ENDTAB
0
TABLE
2
LTYPE
5
5
100
AcDbSymbolTable
0
LTYPE
5
14
100
AcDbSymbolTableRecord
100
AcDbLinetypeTableRecord
2
BYBLOCK
70
0
0
LTYPE
5
15
100
AcDbSymbolTableRecord
100
AcDbLinetypeTableRecord
2
BYLAYER
70
0
0
ENDTAB
0
TABLE
2
LAYER
5
2
100
AcDbSymbolTable
70
2
0
LAYER
5
50
100
AcDbSymbolTableRecord
100
AcDbLayerTableRecord
2
0
70
0
6
CONTINUOUS
0
ENDTAB
0
TABLE
2
STYLE
5
3
100
AcDbSymbolTable
70
1
0
STYLE
5
11
100
AcDbSymbolTableRecord
100
AcDbTextStyleTableRecord
2
STANDARD
70
0
0
ENDTAB
0
TABLE
2
VIEW
5
6
100
AcDbSymbolTable
70
0
0
ENDTAB
0
TABLE
2
UCS
5
7
100
AcDbSymbolTable
70
0
0
ENDTAB
0
TABLE
2
APPID
5
9
100
AcDbSymbolTable
70
2
0
APPID
5
12
100
AcDbSymbolTableRecord
100
AcDbRegAppTableRecord
2
ACAD
70
0
0
ENDTAB
0
TABLE
2
DIMSTYLE
5
A
100
AcDbSymbolTable
70
1
0
ENDTAB
0
TABLE
2
BLOCK_RECORD
5
1
100
AcDbSymbolTable
70
1
0
BLOCK_RECORD
5
1F
100
AcDbSymbolTableRecord
100
AcDbBlockTableRecord
2
*MODEL_SPACE
0
BLOCK_RECORD
5
1B
100
AcDbSymbolTableRecord
100
AcDbBlockTableRecord
2
*PAPER_SPACE
0
ENDTAB
0
ENDSEC
0
SECTION
2
BLOCKS
0
BLOCK
5
20
100
AcDbEntity
100
AcDbBlockBegin
2
*MODEL_SPACE
0
ENDBLK
5
21
100
AcDbEntity
100
AcDbBlockEnd
0
BLOCK
5
1C
100
AcDbEntity
100
AcDbBlockBegin
2
*PAPER_SPACE
0
ENDBLK
5
1D
100
AcDbEntity
100
AcDbBlockEnd
0
ENDSEC
0
SECTION
2
ENTITIES
0
LINE
5
100
100
AcDbEntity
8
0
100
AcDbLine
10
93.840670320270974
20
-132.23773433493199
30
0
11
125.18878207553711
21
-98.314599114054019
31
0
0
SPLINE
5
101
100
AcDbEntity
8
0
100
AcDbSpline
70
1064
71
3
72
53
73
49
74
0
42
0.000000001
43
0.0000000001
44
0.0000000001
40
-0.94426059332721046
40
-0.94426059332721046
40
-0.94426059332721046
40
-0.94426059332721046
40
-0.93233057652894047
40
-0.93233057652894047
40
-0.93233057652894047
40
-0.86466115305788083
40
-0.86466115305788083
40
-0.86466115305788083
40
-0.81878249340640064
40
-0.81878249340640064
40
-0.81878249340640064
40
-0.75837665787520081
40
-0.75837665787520081
40
-0.75837665787520081
40
-0.70849027965054368
40
-0.70849027965054368
40
-0.70849027965054368
40
-0.64318508138219177
40
-0.64318508138219177
40
-0.64318508138219177
40
-0.57726124547714019
40
-0.57726124547714019
40
-0.57726124547714019
40
-0.51486770201835252
40
-0.51486770201835252
40
-0.51486770201835252
40
-0.44255083911711635
40
-0.44255083911711635
40
-0.44255083911711635
40
-0.33939615549408736
40
-0.33939615549408736
40
-0.33939615549408736
40
-0.24502417770752841
40
-0.24502417770752841
40
-0.24502417770752841
40
-0.1911393876942194
40
-0.1911393876942194
40
-0.1911393876942194
40
-0.14264880036472852
40
-0.14264880036472852
40
-0.14264880036472852
40
-0.099742201724698443
40
-0.099742201724698443
40
-0.099742201724698443
40
-0.05395070253949568
40
-0.05395070253949568
40
-0.05395070253949568
40
-0.044365445941033456
40
-0.044365445941033456
40
-0.044365445941033456
40
-0.044365445941033456
10
-7.1336438187716432e-14
20
145.80169188533193
30
0
10
0.80657423164451469
20
145.01452214175171
30
0
10
1.647785031219219
20
144.23317846754952
30
0
10
2.5181993589029013
20
143.46080980302014
30
0
10
7.4553622088199356
20
139.07978141725997
30
0
10
13.380772778270147
20
134.92911416921078
30
0
10
19.564139223921927
20
131.56894272670547
30
0
10
23.756351158190355
20
129.29080654534351
30
0
10
28.046693295882775
20
127.40368763684585
30
0
10
32.344458050771543
20
125.75981729758097
30
0
10
38.00308175311465
20
123.59542622550988
30
0
10
43.710792692858632
20
121.78302828900644
30
0
10
49.888898210610435
20
119.4974177862823
30
0
10
54.991109046039071
20
117.60983806802389
30
0
10
60.417031107817508
20
115.40342768123699
30
0
10
65.951222667224229
20
112.68782950039723
30
0
10
73.19591530485215
20
109.13289759457165
30
0
10
80.579810613145938
20
104.69977804466652
30
0
10
87.20404373745032
20
99.458193334396697
30
0
10
93.891028373634782
20
94.166954972293553
30
0
10
99.767051014313793
20
88.077379999787183
30
0
10
104.27839555108299
20
81.550945593215005
30
0
10
108.54815272689237
20
75.374008781408776
30
0
10
111.606901919065
20
68.82358020239829
30
0
10
113.52994104884135
20
62.059915278298689
30
0
10
115.75882803605994
20
54.22052995232999
30
0
10
116.46988944832339
20
46.082748285238395
30
0
10
116.19902464216709
20
37.792719207417406
30
0
10
115.81265592728209
20
25.967602734704403
30
0
10
113.49604672248815
20
13.820544231025483
30
0
10
111.56687638616839
20
1.3963769839457894
30
0
10
109.80195778304437
20
-9.9699826836645187
30
0
10
108.33787836785076
20
-21.49168303143334
30
0
10
107.54393012451672
20
-33.311819832347787
30
0
10
107.09059921658292
20
-40.060916379697844
30
0
10
106.84411040727652
20
-46.94445903890211
30
0
10
107.21634015090783
20
-53.790671834909212
30
0
10
107.55130738165568
20
-59.951536141498607
30
0
10
108.43617520924448
20
-66.078893370676909
30
0
10
110.0888295696039
20
-71.766935248868677
30
0
10
111.55117063899142
20
-76.799964200589145
30
0
10
113.60790998541748
20
-81.435622332990363
30
0
10
115.90879316543132
20
-85.455477281047791
30
0
10
118.36438026863631
20
-89.745614239302753
30
0
10
121.03768738282666
20
-93.347508305353713
30
0
10
123.59338500767183
20
-96.436992938558589
30
0
10
124.12835367998248
20
-97.083696005573344
30
0
10
124.66000852097268
20
-97.708651993778219
30
0
10
125.18878207553711
20
-98.314599114054019
30
0
0
SPLINE
5
102
100
AcDbEntity
8
0
100
AcDbSpline
70
1064
71
3
72
53
73
49
74
0
42
0.000000001
43
0.0000000001
44
0.0000000001
40
0.044365445941033456
40
0.044365445941033456
40
0.044365445941033456
40
0.044365445941033456
40
0.05395070253949568
40
0.05395070253949568
40
0.05395070253949568
40
0.099742201724698443
40
0.099742201724698443
40
0.099742201724698443
40
0.14264880036472852
40
0.14264880036472852
40
0.14264880036472852
40
0.1911393876942194
40
0.1911393876942194
40
0.1911393876942194
40
0.24502417770752841
40
0.24502417770752841
40
0.24502417770752841
40
0.33939615549408736
40
0.33939615549408736
40
0.33939615549408736
40
0.44255083911711635
40
0.44255083911711635
40
0.44255083911711635
40
0.51486770201835252
40
0.51486770201835252
40
0.51486770201835252
40
0.57726124547714019
40
0.57726124547714019
40
0.57726124547714019
40
0.64318508138219177
40
0.64318508138219177
40
0.64318508138219177
40
0.70849027965054368
40
0.70849027965054368
40
0.70849027965054368
40
0.75837665787520081
40
0.75837665787520081
40
0.75837665787520081
40
0.81878249340640064
40
0.81878249340640064
40
0.81878249340640064
40
0.86466115305788083
40
0.86466115305788083
40
0.86466115305788083
40
0.93233057652894047
40
0.93233057652894047
40
0.93233057652894047
40
0.94426059332721046
40
0.94426059332721046
40
0.94426059332721046
40
0.94426059332721046
10
-125.18878207553718
20
-98.314599114054019
30
-2.2204460492503131e-15
10
-124.66000852097275
20
-97.708651993778219
30
-2.2204460492503131e-15
10
-124.12835367998255
20
-97.083696005573344
30
0
10
-123.59338500767191
20
-96.436992938558589
30
0
10
-121.03768738282673
20
-93.347508305353713
30
-2.2204460492503131e-15
10
-118.36438026863638
20
-89.745614239302753
30
0
10
-115.90879316543139
20
-85.455477281047791
30
0
10
-113.60790998541756
20
-81.435622332990363
30
0
10
-111.55117063899149
20
-76.799964200589145
30
0
10
-110.08882956960397
20
-71.766935248868677
30
0
10
-108.43617520924455
20
-66.078893370676909
30
0
10
-107.55130738165575
20
-59.951536141498607
30
0
10
-107.21634015090788
20
-53.790671834909212
30
0
10
-106.84411040727659
20
-46.94445903890211
30
0
10
-107.09059921658297
20
-40.060916379697844
30
0
10
-107.54393012451679
20
-33.311819832347787
30
0
10
-108.33787836785083
20
-21.49168303143334
30
0
10
-109.80195778304446
20
-9.9699826836645187
30
0
10
-111.56687638616846
20
1.3963769839457894
30
0
10
-113.49604672248822
20
13.820544231025483
30
0
10
-115.81265592728217
20
25.967602734704403
30
0
10
-116.19902464216716
20
37.792719207417406
30
2.2204460492503131e-15
10
-116.46988944832346
20
46.082748285238395
30
0
10
-115.75882803606001
20
54.22052995232999
30
0
10
-113.52994104884144
20
62.059915278298689
30
2.2204460492503131e-15
10
-111.60690191906508
20
68.82358020239829
30
-2.2204460492503131e-15
10
-108.54815272689244
20
75.374008781408776
30
0
10
-104.27839555108307
20
81.550945593215005
30
0
10
-99.767051014313864
20
88.077379999787183
30
0
10
-93.891028373634839
20
94.166954972293553
30
0
10
-87.204043737450391
20
99.458193334396697
30
0
10
-80.579810613146009
20
104.69977804466652
30
0
10
-73.195915304852235
20
109.13289759457165
30
0
10
-65.951222667224314
20
112.68782950039723
30
0
10
-60.4170311078176
20
115.40342768123699
30
0
10
-54.991109046039163
20
117.60983806802389
30
0
10
-49.88889821061052
20
119.4974177862823
30
0
10
-43.710792692858718
20
121.78302828900644
30
0
10
-38.003081753114742
20
123.59542622550988
30
0
10
-32.344458050771635
20
125.75981729758097
30
0
10
-28.046693295882864
20
127.40368763684585
30
0
10
-23.756351158190444
20
129.29080654534351
30
0
10
-19.564139223922009
20
131.56894272670547
30
0
10
-13.380772778270231
20
134.92911416921078
30
0
10
-7.45536220882002
20
139.07978141725997
30
0
10
-2.5181993589029865
20
143.46080980302014
30
0
10
-1.6477850312193041
20
144.23317846754952
30
0
10
-0.80657423164459963
20
145.01452214175171
30
0
10
-1.3604840907208276e-14
20
145.80169188533193
30
0
0
LINE
5
103
100
AcDbEntity
8
0
100
AcDbLine
10
-125.18878207553718
20
-98.314599114054019
30
-2.2204460492503131e-15
11
-93.840670320271045
21
-132.23773433493201
31
-2.2204460492503131e-15
0
ARC
5
104
100
AcDbEntity
8
0
100
AcDbCircle
10
-4.247063954746233e-14
20
-432.5126543554104
30
0
40
314.59672439404466
100
AcDbArc
50
72.645148292903045
51
107.35485170709696
0
SPLINE
5
105
100
AcDbEntity
8
0
100
AcDbSpline
70
1064
71
5
72
156
73
150
74
0
42
0.000000001
43
0.0000000001
44
0.0000000001
40
0
40
0
40
0
40
0
40
0
40
0
40
0.0068965517241379309
40
0.013793103448275862
40
0.020689655172413793
40
0.027586206896551724
40
0.034482758620689655
40
0.041379310344827586
40
0.048275862068965517
40
0.055172413793103448
40
0.062068965517241378
40
0.068965517241379309
40
0.07586206896551724
40
0.082758620689655171
40
0.089655172413793102
40
0.096551724137931033
40
0.10344827586206896
40
0.1103448275862069
40
0.11724137931034483
40
0.12413793103448276
40
0.13103448275862067
40
0.13793103448275862
40
0.14482758620689656
40
0.15172413793103451
40
0.15862068965517245
40
0.1655172413793104
40
0.17241379310344834
40
0.17931034482758629
40
0.18620689655172423
40
0.19310344827586218
40
0.20000000000000012
40
0.20689655172413807
40
0.21379310344827601
40
0.22068965517241396
40
0.2275862068965519
40
0.23448275862068985
40
0.24137931034482779
40
0.24827586206896574
40
0.25517241379310368
40
0.26206896551724163
40
0.26896551724137957
40
0.27586206896551752
40
0.28275862068965546
40
0.2896551724137934
40
0.29655172413793135
40
0.30344827586206929
40
0.31034482758620724
40
0.31724137931034518
40
0.32413793103448313
40
0.33103448275862107
40
0.33793103448275902
40
0.34482758620689696
40
0.35172413793103491
40
0.35862068965517285
40
0.3655172413793108
40
0.37241379310344874
40
0.37931034482758669
40
0.38620689655172463
40
0.39310344827586258
40
0.40000000000000052
40
0.40689655172413847
40
0.41379310344827641
40
0.42068965517241436
40
0.4275862068965523
40
0.43448275862069025
40
0.44137931034482819
40
0.44827586206896614
40
0.45517241379310408
40
0.46206896551724203
40
0.46896551724137997
40
0.47586206896551791
40
0.48275862068965586
40
0.4896551724137938
40
0.49655172413793175
40
0.50344827586206964
40
0.51034482758620758
40
0.51724137931034553
40
0.52413793103448347
40
0.53103448275862142
40
0.53793103448275936
40
0.54482758620689731
40
0.55172413793103525
40
0.5586206896551732
40
0.56551724137931114
40
0.57241379310344909
40
0.57931034482758703
40
0.58620689655172498
40
0.59310344827586292
40
0.60000000000000087
40
0.60689655172413881
40
0.61379310344827676
40
0.6206896551724147
40
0.62758620689655265
40
0.63448275862069059
40
0.64137931034482853
40
0.64827586206896648
40
0.65517241379310442
40
0.66206896551724237
40
0.66896551724138031
40
0.67586206896551826
40
0.6827586206896562
40
0.68965517241379415
40
0.69655172413793209
40
0.70344827586207004
40
0.71034482758620798
40
0.71724137931034593
40
0.72413793103448387
40
0.73103448275862182
40
0.73793103448275976
40
0.74482758620689771
40
0.75172413793103565
40
0.7586206896551736
40
0.76551724137931154
40
0.77241379310344949
40
0.77931034482758743
40
0.78620689655172538
40
0.79310344827586332
40
0.80000000000000127
40
0.80689655172413921
40
0.81379310344827716
40
0.8206896551724151
40
0.82758620689655304
40
0.83448275862069099
40
0.84137931034482893
40
0.84827586206896688
40
0.85517241379310482
40
0.86206896551724277
40
0.86896551724138071
40
0.87586206896551866
40
0.8827586206896566
40
0.88965517241379455
40
0.89655172413793249
40
0.90344827586207044
40
0.91034482758620838
40
0.91724137931034633
40
0.92413793103448427
40
0.93103448275862222
40
0.93793103448276016
40
0.94482758620689811
40
0.95172413793103605
40
0.958620689655174
40
0.96551724137931194
40
0.97241379310344989
40
0.97931034482758783
40
0.98620689655172578
40
0.99310344827586372
40
1
40
1
40
1
40
1
40
1
40
1
10
65
20
-100
30
0
10
65.21666843287052
20
-99.788302739031693
30
0
10
65.642167610728364
20
-99.368641992407362
30
0
10
66.256903333347751
20
-98.750352192589588
30
0
10
67.029521065056315
20
-97.948370218000548
30
0
10
67.917653518443032
20
-96.983062323037132
30
0
10
68.730410079516403
20
-96.054394138493478
30
0
10
69.472351781131067
20
-95.161291138664282
30
0
10
70.151094184121106
20
-94.301954059040355
30
0
10
70.778111664338766
20
-93.473664838680804
30
0
10
71.369435132740321
20
-92.672624421336081
30
0
10
71.946606471643094
20
-91.893714001294171
30
0
10
72.536898403032268
20
-91.130475322013751
30
0
10
73.169773392814363
20
-90.376204600611743
30
0
10
73.873791319736696
20
-89.624918926378641
30
0
10
74.673403303372041
20
-88.872343668046128
30
0
10
75.585655918578809
20
-88.116956475973097
30
0
10
76.61725078877113
20
-87.360856249872541
30
0
10
77.760672510902069
20
-86.611076864642484
30
0
10
78.993365250715016
20
-85.87945182420556
30
0
10
80.282444271446934
20
-85.179854437301685
30
0
10
81.588179149456352
20
-84.52601527363386
30
0
10
82.867959613200583
20
-83.929120774205884
30
0
10
84.080071437903257
20
-83.395475759354568
30
0
10
85.187512927261636
20
-82.924204347713797
30
0
10
86.161890621485043
20
-82.504775622776748
30
0
10
86.987058392812472
20
-82.114970569661509
30
0
10
87.663468256342242
20
-81.717676830354662
30
0
10
88.205729483041694
20
-81.268765445326281
30
0
10
88.639169811791987
20
-80.726558047753954
30
0
10
88.996749392783357
20
-80.060810599466251
30
0
10
89.315834861142406
20
-79.261728285233133
30
0
10
89.635021050811844
20
-78.349452910358949
30
0
10
89.99117233635836
20
-77.365550909560625
30
0
10
90.416429287881982
20
-76.36375574359468
30
0
10
90.935331833248711
20
-75.401159309336919
30
0
10
91.561652156078722
20
-74.528831469978357
30
0
10
92.295904808657028
20
-73.783577793000916
30
0
10
93.121196341634686
20
-73.177009891897441
30
0
10
94.004872097004778
20
-72.693926972978289
30
0
10
94.907531369622177
20
-72.302403055126192
30
0
10
95.79001217295945
20
-71.960797505168458
30
0
10
96.621541754245413
20
-71.626231854849507
30
0
10
97.386601953313544
20
-71.261928428678019
30
0
10
98.094253073048577
20
-70.846268371072355
30
0
10
98.780262296818279
20
-70.377149076090745
30
0
10
99.490334333587853
20
-69.864255538705336
30
0
10
100.26725795693048
20
-69.323748215307702
30
0
10
101.13575959912254
20
-68.771696865934715
30
0
10
102.09003293188623
20
-68.218737422338975
30
0
10
103.07599017569459
20
-67.662538162441692
30
0
10
103.98950266524807
20
-67.086762158243758
30
0
10
104.70867411775072
20
-66.473924095908743
30
0
10
105.11850986423673
20
-65.814998733415678
30
0
10
105.1397543853689
20
-65.121103439415592
30
0
10
104.75332983482105
20
-64.432502358562616
30
0
10
104.03355545285366
20
-63.833455189401135
30
0
10
103.11943642815045
20
-63.425762896952271
30
0
10
102.174440962517
20
-63.295594607476708
30
0
10
101.34841444932077
20
-63.479581529712149
30
0
10
100.74275327721027
20
-63.938083285495622
30
0
10
100.36360851589376
20
-64.507943207370332
30
0
10
100.1396260534657
20
-64.960098813031266
30
0
10
99.964641729783239
20
-65.09305090886464
30
0
10
99.735124268905011
20
-64.827149817104612
30
0
10
99.381393350451532
20
-64.261613479031553
30
0
10
98.864723251686371
20
-63.582310552307973
30
0
10
98.18013708369854
20
-62.996572596100648
30
0
10
97.357673946570657
20
-62.653540144967714
30
0
10
96.462232968292824
20
-62.581613645320793
30
0
10
95.572394203817694
20
-62.728394504402061
30
0
10
94.761737659106245
20
-62.991514620931504
30
0
10
94.07840175139539
20
-63.253274987578003
30
0
10
93.52721389746371
20
-63.412789777236391
30
0
10
93.045916677269616
20
-63.421553454806904
30
0
10
92.547741559356936
20
-63.279642047080543
30
0
10
91.964832765192384
20
-63.027516640247249
30
0
10
91.301941631821876
20
-62.741098600801884
30
0
10
90.650312770128181
20
-62.519671094758479
30
0
10
90.123586174102158
20
-62.459938883161506
30
0
10
89.816591944618551
20
-62.635705758549747
30
0
10
89.742591679380595
20
-63.069420483909596
30
0
10
89.830637942812302
20
-63.731365581238187
30
0
10
89.973128793686641
20
-64.562940650415328
30
0
10
90.056433658414193
20
-65.491965600352316
30
0
10
90.005382240309103
20
-66.454092802722414
30
0
10
89.793157022267934
20
-67.399854418706653
30
0
10
89.42474753811139
20
-68.290975542189315
30
0
10
88.927905610889312
20
-69.099685289460155
30
0
10
88.340669853496379
20
-69.806730519748015
30
0
10
87.701222339956502
20
-70.400121905650124
30
0
10
87.03456562545864
20
-70.873128362503266
30
0
10
86.351979983839641
20
-71.224851215393173
30
0
10
85.656446614601421
20
-71.461828942774233
30
0
10
84.946167991039232
20
-71.599535544268079
30
0
10
84.218943406402857
20
-71.663453377438643
30
0
10
83.476003386760084
20
-71.691539721555714
30
0
10
82.727226853373054
20
-71.728550619791662
30
0
10
81.996856456147199
20
-71.8174910238194
30
0
10
81.328832335925711
20
-71.99209683316225
30
0
10
80.79280565353406
20
-72.268695229096096
30
0
10
80.488457099000442
20
-72.638845876422295
30
0
10
80.494700472387208
20
-73.082781976025814
30
0
10
80.819537989200697
20
-73.582533521623816
30
0
10
81.351372177711909
20
-74.134739414760389
30
0
10
81.912660847902131
20
-74.740802744889422
30
0
10
82.314693412839063
20
-75.396513758453352
30
0
10
82.406680091004532
20
-76.083614320036745
30
0
10
82.139824888561094
20
-76.756372066279795
30
0
10
81.579202249444535
20
-77.34540488650768
30
0
10
80.847263284969628
20
-77.783640770153596
30
0
10
80.083253990775404
20
-78.027726520184743
30
0
10
79.398682416378534
20
-78.079188483327798
30
0
10
78.82797247059878
20
-78.011172214865866
30
0
10
78.34752033551456
20
-77.938118471468755
30
0
10
77.905045095376011
20
-77.978162537153679
30
0
10
77.447391556087595
20
-78.214558447727953
30
0
10
76.942683180242852
20
-78.668040903676427
30
0
10
76.37378357142083
20
-79.316532465431621
30
0
10
75.736377510141679
20
-80.107381314447252
30
0
10
75.035226104668553
20
-80.972568365886048
30
0
10
74.281227048779485
20
-81.842532299944878
30
0
10
73.488066867266241
20
-82.660882342735647
30
0
10
72.672288604747663
20
-83.386427696609189
30
0
10
71.853449519497602
20
-83.99510143937033
30
0
10
71.054137612172468
20
-84.481643117107893
30
0
10
70.300303836280946
20
-84.862019778616542
30
0
10
69.620864515982078
20
-85.174067253038174
30
0
10
69.049110115213765
20
-85.482579780360979
30
0
10
68.61679932390949
20
-85.866534335715073
30
0
10
68.340670314646275
20
-86.388508688349361
30
0
10
68.213271873633204
20
-87.073371968706041
30
0
10
68.186926964056624
20
-87.873265242574263
30
0
10
68.182374792870192
20
-88.680725592508452
30
0
10
68.116243017783432
20
-89.378343916975354
30
0
10
67.922870930223894
20
-89.877497817956723
30
0
10
67.578967689061372
20
-90.162510738561934
30
0
10
67.125576475701024
20
-90.329764468242288
30
0
10
66.634113503390608
20
-90.52134085316068
30
0
10
66.176413506879555
20
-90.866635890536017
30
0
10
65.7884248187286
20
-91.410886576589675
30
0
10
65.473643030504959
20
-92.126374701692569
30
0
10
65.21580294007795
20
-92.942951457397598
30
0
10
64.988335631147919
20
-93.771769934139883
30
0
10
64.765348241867201
20
-94.532300918251167
30
0
10
64.531469363404241
20
-95.176691747116152
30
0
10
64.329470101229816
20
-95.58006911488215
30
0
10
64.168441729284638
20
-95.815954133456358
30
0
10
64.056853791083384
20
-95.943589171702627
30
0
10
64.000000953674316
20
-96.000001430511475
30
0
0
SPLINE
5
106
100
AcDbEntity
8
0
100
AcDbSpline
70
1064
71
5
72
306
73
300
74
0
42
0.000000001
43
0.0000000001
44
0.0000000001
40
0
40
0
40
0
40
0
40
0
40
0
40
0.0033898305084745762
40
0.0067796610169491523
40
0.010169491525423728
40
0.013559322033898305
40
0.016949152542372881
40
0.020338983050847456
40
0.023728813559322031
40
0.027118644067796606
40
0.030508474576271181
40
0.033898305084745756
40
0.037288135593220334
40
0.040677966101694912
40
0.044067796610169491
40
0.047457627118644069
40
0.050847457627118647
40
0.054237288135593226
40
0.057627118644067804
40
0.061016949152542382
40
0.064406779661016961
40
0.067796610169491539
40
0.071186440677966117
40
0.074576271186440696
40
0.077966101694915274
40
0.081355932203389852
40
0.084745762711864431
40
0.088135593220339009
40
0.091525423728813587
40
0.094915254237288166
40
0.098305084745762744
40
0.10169491525423732
40
0.1050847457627119
40
0.10847457627118648
40
0.11186440677966106
40
0.11525423728813564
40
0.11864406779661021
40
0.12203389830508479
40
0.12542372881355937
40
0.12881355932203395
40
0.13220338983050853
40
0.13559322033898311
40
0.13898305084745768
40
0.14237288135593226
40
0.14576271186440684
40
0.14915254237288142
40
0.152542372881356
40
0.15593220338983058
40
0.15932203389830515
40
0.16271186440677973
40
0.16610169491525431
40
0.16949152542372889
40
0.17288135593220347
40
0.17627118644067805
40
0.17966101694915262
40
0.1830508474576272
40
0.18644067796610178
40
0.18983050847457636
40
0.19322033898305094
40
0.19661016949152552
40
0.20000000000000009
40
0.20338983050847467
40
0.20677966101694925
40
0.21016949152542383
40
0.21355932203389841
40
0.21694915254237299
40
0.22033898305084756
40
0.22372881355932214
40
0.22711864406779672
40
0.2305084745762713
40
0.23389830508474588
40
0.23728813559322046
40
0.24067796610169503
40
0.24406779661016961
40
0.24745762711864419
40
0.25084745762711874
40
0.25423728813559332
40
0.2576271186440679
40
0.26101694915254248
40
0.26440677966101706
40
0.26779661016949163
40
0.27118644067796621
40
0.27457627118644079
40
0.27796610169491537
40
0.28135593220338995
40
0.28474576271186453
40
0.2881355932203391
40
0.29152542372881368
40
0.29491525423728826
40
0.29830508474576284
40
0.30169491525423742
40
0.305084745762712
40
0.30847457627118657
40
0.31186440677966115
40
0.31525423728813573
40
0.31864406779661031
40
0.32203389830508489
40
0.32542372881355947
40
0.32881355932203404
40
0.33220338983050862
40
0.3355932203389832
40
0.33898305084745778
40
0.34237288135593236
40
0.34576271186440694
40
0.34915254237288151
40
0.35254237288135609
40
0.35593220338983067
40
0.35932203389830525
40
0.36271186440677983
40
0.36610169491525441
40
0.36949152542372898
40
0.37288135593220356
40
0.37627118644067814
40
0.37966101694915272
40
0.3830508474576273
40
0.38644067796610188
40
0.38983050847457645
40
0.39322033898305103
40
0.39661016949152561
40
0.40000000000000019
40
0.40338983050847477
40
0.40677966101694935
40
0.41016949152542392
40
0.4135593220338985
40
0.41694915254237308
40
0.42033898305084766
40
0.42372881355932224
40
0.42711864406779682
40
0.43050847457627139
40
0.43389830508474597
40
0.43728813559322055
40
0.44067796610169513
40
0.44406779661016971
40
0.44745762711864429
40
0.45084745762711886
40
0.45423728813559344
40
0.45762711864406802
40
0.4610169491525426
40
0.46440677966101718
40
0.46779661016949176
40
0.47118644067796633
40
0.47457627118644091
40
0.47796610169491549
40
0.48135593220339007
40
0.48474576271186465
40
0.48813559322033923
40
0.4915254237288138
40
0.49491525423728838
40
0.49830508474576296
40
0.50169491525423748
40
0.50508474576271201
40
0.50847457627118653
40
0.51186440677966105
40
0.51525423728813557
40
0.5186440677966101
40
0.52203389830508462
40
0.52542372881355914
40
0.52881355932203367
40
0.53220338983050819
40
0.53559322033898271
40
0.53898305084745723
40
0.54237288135593176
40
0.54576271186440628
40
0.5491525423728808
40
0.55254237288135533
40
0.55593220338982985
40
0.55932203389830437
40
0.56271186440677889
40
0.56610169491525342
40
0.56949152542372794
40
0.57288135593220246
40
0.57627118644067699
40
0.57966101694915151
40
0.58305084745762603
40
0.58644067796610055
40
0.58983050847457508
40
0.5932203389830496
40
0.59661016949152412
40
0.59999999999999865
40
0.60338983050847317
40
0.60677966101694769
40
0.61016949152542221
40
0.61355932203389674
40
0.61694915254237126
40
0.62033898305084578
40
0.62372881355932031
40
0.62711864406779483
40
0.63050847457626935
40
0.63389830508474387
40
0.6372881355932184
40
0.64067796610169292
40
0.64406779661016744
40
0.64745762711864197
40
0.65084745762711649
40
0.65423728813559101
40
0.65762711864406553
40
0.66101694915254006
40
0.66440677966101458
40
0.6677966101694891
40
0.67118644067796362
40
0.67457627118643815
40
0.67796610169491267
40
0.68135593220338719
40
0.68474576271186172
40
0.68813559322033624
40
0.69152542372881076
40
0.69491525423728528
40
0.69830508474575981
40
0.70169491525423433
40
0.70508474576270885
40
0.70847457627118338
40
0.7118644067796579
40
0.71525423728813242
40
0.71864406779660694
40
0.72203389830508147
40
0.72542372881355599
40
0.72881355932203051
40
0.73220338983050504
40
0.73559322033897956
40
0.73898305084745408
40
0.7423728813559286
40
0.74576271186440313
40
0.74915254237287765
40
0.75254237288135217
40
0.7559322033898267
40
0.75932203389830122
40
0.76271186440677574
40
0.76610169491525026
40
0.76949152542372479
40
0.77288135593219931
40
0.77627118644067383
40
0.77966101694914836
40
0.78305084745762288
40
0.7864406779660974
40
0.78983050847457192
40
0.79322033898304645
40
0.79661016949152097
40
0.79999999999999549
40
0.80338983050847002
40
0.80677966101694454
40
0.81016949152541906
40
0.81355932203389358
40
0.81694915254236811
40
0.82033898305084263
40
0.82372881355931715
40
0.82711864406779168
40
0.8305084745762662
40
0.83389830508474072
40
0.83728813559321524
40
0.84067796610168977
40
0.84406779661016429
40
0.84745762711863881
40
0.85084745762711333
40
0.85423728813558786
40
0.85762711864406238
40
0.8610169491525369
40
0.86440677966101143
40
0.86779661016948595
40
0.87118644067796047
40
0.87457627118643499
40
0.87796610169490952
40
0.88135593220338404
40
0.88474576271185856
40
0.88813559322033309
40
0.89152542372880761
40
0.89491525423728213
40
0.89830508474575665
40
0.90169491525423118
40
0.9050847457627057
40
0.90847457627118022
40
0.91186440677965475
40
0.91525423728812927
40
0.91864406779660379
40
0.92203389830507831
40
0.92542372881355284
40
0.92881355932202736
40
0.93220338983050188
40
0.93559322033897641
40
0.93898305084745093
40
0.94237288135592545
40
0.94576271186439997
40
0.9491525423728745
40
0.95254237288134902
40
0.95593220338982354
40
0.95932203389829807
40
0.96271186440677259
40
0.96610169491524711
40
0.96949152542372163
40
0.97288135593219616
40
0.97627118644067068
40
0.9796610169491452
40
0.98305084745761973
40
0.98644067796609425
40
0.98983050847456877
40
0.99322033898304329
40
0.99661016949151782
40
1
40
1
40
1
40
1
40
1
40
1
10
64.000000953674316
20
-96.000001430511475
30
0
10
63.978213337416335
20
-95.94777593277577
30
0
10
63.922765950269209
20
-95.84089453072977
30
0
10
63.803980199434861
20
-95.673279804997037
30
0
10
63.574352964052913
20
-95.435220156986148
30
0
10
63.171359755222774
20
-95.112135037635937
30
0
10
62.660481605540745
20
-94.760106233819386
30
0
10
62.058455884434345
20
-94.371815845173174
30
0
10
61.389676266428935
20
-93.937852608023348
30
0
10
60.683335767040354
20
-93.450043828275398
30
0
10
59.971180786314441
20
-92.904149593920238
30
0
10
59.284973145285207
20
-92.303140477715871
30
0
10
58.654165647955637
20
-91.659487295650578
30
0
10
58.103265319040219
20
-90.999705787928079
30
0
10
57.650279853119443
20
-90.360444992477284
30
0
10
57.306251172745071
20
-89.777780947746081
30
0
10
57.074218964633339
20
-89.27770476273065
30
0
10
56.948995441128474
20
-88.867686773925683
30
0
10
56.91521765246015
20
-88.524045746374114
30
0
10
56.950388882551451
20
-88.192853354738205
30
0
10
57.037035387295596
20
-87.819007092208778
30
0
10
57.176501325629104
20
-87.375933931537617
30
0
10
57.389783359222257
20
-86.873024562695207
30
0
10
57.703859487631107
20
-86.337126592948636
30
0
10
58.142794609421927
20
-85.802051251664025
30
0
10
58.715124797447643
20
-85.292981310441021
30
0
10
59.408825592052054
20
-84.819221517805687
30
0
10
60.198279623247885
20
-84.379065144606997
30
0
10
61.048658771620516
20
-83.962081346955827
30
0
10
61.921270866899363
20
-83.552400509015825
30
0
10
62.778651898085528
20
-83.13164159461401
30
0
10
63.58939723220972
20
-82.681832007990693
30
0
10
64.33405581896335
20
-82.188744153291609
30
0
10
65.004921382168718
20
-81.642598194988324
30
0
10
65.603496440567199
20
-81.037749554809423
30
0
10
66.138722997722169
20
-80.372703061158035
30
0
10
66.624882932589244
20
-79.65000554998457
30
0
10
67.07966622254817
20
-78.876157493880498
30
0
10
67.522106106849932
20
-78.061596760452289
30
0
10
67.970754457941055
20
-77.22041189605082
30
0
10
68.442965232909586
20
-76.368564182720704
30
0
10
68.954045975550883
20
-75.522306455127449
30
0
10
69.516451253358923
20
-74.696510468030596
30
0
10
70.138978200500361
20
-73.903067675450217
30
0
10
70.82591410416174
20
-73.149178101123752
30
0
10
71.576314229076289
20
-72.435875388900698
30
0
10
72.382937101569027
20
-71.755959625867533
30
0
10
73.233416440360074
20
-71.095764747675133
30
0
10
74.112027320253091
20
-70.437943510268354
30
0
10
75.001243259223955
20
-69.763894037237208
30
0
10
75.8833975284019
20
-69.056366617708832
30
0
10
76.742260847336951
20
-68.301923312120834
30
0
10
77.564745286726847
20
-67.493623368535978
30
0
10
78.342343541322791
20
-66.633233073264918
30
0
10
79.07319852262259
20
-65.734569618772397
30
0
10
79.762011285923919
20
-64.822955681352852
30
0
10
80.41706176904151
20
-63.929482619280279
30
0
10
81.047970052622574
20
-63.086600567348405
30
0
10
81.663109636094617
20
-62.323094463127447
30
0
10
82.26727983386175
20
-61.659498322048385
30
0
10
82.859010396974909
20
-61.102912437967269
30
0
10
83.42862544543874
20
-60.643034848326884
30
0
10
83.954424728352691
20
-60.245191853944817
30
0
10
84.409815179383031
20
-59.860780187437939
30
0
10
84.774217047418162
20
-59.443656917452607
30
0
10
85.042330094640391
20
-58.964032273230728
30
0
10
85.234969318819665
20
-58.424599406645719
30
0
10
85.406697692462956
20
-57.872289607826744
30
0
10
85.624721935361123
20
-57.371302490927619
30
0
10
85.949903261793253
20
-56.978958934428796
30
0
10
86.41728786906009
20
-56.72095805924932
30
0
10
87.015971200671004
20
-56.565604369787309
30
0
10
87.701165721298111
20
-56.446060555557551
30
0
10
88.407520307111639
20
-56.284556574690498
30
0
10
89.061887533474589
20
-56.015551955485478
30
0
10
89.596525876676409
20
-55.610086502570219
30
0
10
89.961542843617593
20
-55.097531655860223
30
0
10
90.124152727942018
20
-54.541231162409254
30
0
10
90.068581312393292
20
-54.015894084115274
30
0
10
89.795614942190298
20
-53.585012155125071
30
0
10
89.322602093483297
20
-53.276472658259799
30
0
10
88.678143622376979
20
-53.089473964367009
30
0
10
87.896357052671803
20
-53.004128344234559
30
0
10
87.011301843158463
20
-52.990081835802194
30
0
10
86.051317876100768
20
-53.015569711061232
30
0
10
85.033453457454499
20
-53.056224894990791
30
0
10
83.966161133197872
20
-53.094437849884144
30
0
10
82.851942519458589
20
-53.1187540696518
30
0
10
81.690001856280333
20
-53.123259158509768
30
0
10
80.478916828833633
20
-53.106971458917009
30
0
10
79.219252600147954
20
-53.073227387904879
30
0
10
77.9163147844272
20
-53.029080636534701
30
0
10
76.582576120373943
20
-52.984671546018831
30
0
10
75.240889781028542
20
-52.952668088523708
30
0
10
73.925241317146956
20
-52.947483465280399
30
0
10
72.675921229171607
20
-52.983982484668758
30
0
10
71.535827114223835
20
-53.076296717375783
30
0
10
70.546306178448347
20
-53.236584240876653
30
0
10
69.743216970075778
20
-53.473840499903915
30
0
10
69.152843232571058
20
-53.792622957073831
30
0
10
68.7879946629171
20
-54.191962123539852
30
0
10
68.643730639796942
20
-54.663821400510855
30
0
10
68.694142017564701
20
-55.193236128871035
30
0
10
68.888573348734155
20
-55.760160376887782
30
0
10
69.150303712909803
20
-56.340758009280272
30
0
10
69.368794377341274
20
-56.909134607256519
30
0
10
69.41971294090142
20
-57.437840434015321
30
0
10
69.207520308184286
20
-57.897272203308646
30
0
10
68.696011481945035
20
-58.255938026459205
30
0
10
67.956671897012399
20
-58.479071245584542
30
0
10
67.142370145389776
20
-58.534656119212997
30
0
10
66.427496624504485
20
-58.402687895963894
30
0
10
65.957249205917151
20
-58.083806937603569
30
0
10
65.796295788059084
20
-57.60731053154003
30
0
10
65.86925402626845
20
-57.041784626918634
30
0
10
66.015706717411547
20
-56.473613572401469
30
0
10
66.059291767928116
20
-55.98156543619951
30
0
10
65.871005170065857
20
-55.613098301221306
30
0
10
65.436959695148232
20
-55.359059137142836
30
0
10
64.819516869077859
20
-55.178360735390939
30
0
10
64.114872548871034
20
-55.024875251960992
30
0
10
63.414209450402026
20
-54.871517516518963
30
0
10
62.757489091729056
20
-54.740647719745226
30
0
10
62.144267378968664
20
-54.684429733822498
30
0
10
61.555129109716809
20
-54.755704955253258
30
0
10
60.969154246642049
20
-54.982645204921859
30
0
10
60.383690637619353
20
-55.340711147497252
30
0
10
59.831353593405233
20
-55.728846381591694
30
0
10
59.357089535071552
20
-56.014887754946223
30
0
10
58.996386485337091
20
-56.078899778403169
30
0
10
58.75407547236798
20
-55.855513199373334
30
0
10
58.580176871578217
20
-55.381384026624509
30
0
10
58.394638883076773
20
-54.75909611617795
30
0
10
58.11762304717395
20
-54.112202127216804
30
0
10
57.69530348414672
20
-53.546518638452049
30
0
10
57.133806416876148
20
-53.1010960285994
30
0
10
56.485522159088852
20
-52.758178106480472
30
0
10
55.82341853431096
20
-52.468317599262591
30
0
10
55.218124174045769
20
-52.171278031288828
30
0
10
54.71670996760318
20
-51.816702964806055
30
0
10
54.313677355561168
20
-51.389818178412376
30
0
10
53.954678063344367
20
-50.914416286753088
30
0
10
53.567987071713787
20
-50.436191218322733
30
0
10
53.088667307321266
20
-50.011507967182041
30
0
10
52.484490289084718
20
-49.694271322499127
30
0
10
51.784414989179631
20
-49.522734624983791
30
0
10
51.060314283784471
20
-49.518172154666956
30
0
10
50.40305878479856
20
-49.684991356318918
30
0
10
49.901053868902771
20
-50.010470608218967
30
0
10
49.616778569497299
20
-50.464298037207122
30
0
10
49.566945810022474
20
-50.999249335438094
30
0
10
49.729437021277036
20
-51.563882149325607
30
0
10
50.048487728170876
20
-52.113537080236718
30
0
10
50.439354737713707
20
-52.623268933805562
30
0
10
50.796731470584717
20
-53.096149814086885
30
0
10
51.022072705152119
20
-53.551962268695178
30
0
10
51.047743429912316
20
-54.018714102283951
30
0
10
50.863386359697301
20
-54.522890434114366
30
0
10
50.538645985713387
20
-55.080705454871016
30
0
10
50.190398263216977
20
-55.69907361681657
30
0
10
49.952135349854494
20
-56.376155644086914
30
0
10
49.943460788204426
20
-57.102117113198567
30
0
10
50.237401880891959
20
-57.859662389061164
30
0
10
50.83496366318866
20
-58.625062153405082
30
0
10
51.685442179583291
20
-59.372121625779727
30
0
10
52.701453510108109
20
-60.075769732209245
30
0
10
53.776165147575803
20
-60.715895864523119
30
0
10
54.799211200389585
20
-61.280850505383768
30
0
10
55.674046732564278
20
-61.771626764736908
30
0
10
56.332641977911315
20
-62.204497763507625
30
0
10
56.756353170603305
20
-62.617411826582369
30
0
10
56.974937999772912
20
-63.062791022092142
30
0
10
57.038601761867199
20
-63.582319784442035
30
0
10
56.998880678148616
20
-64.189208770007951
30
0
10
56.8817436699808
20
-64.841074892398808
30
0
10
56.677820721589853
20
-65.437806803870672
30
0
10
56.367473969076009
20
-65.873822394942167
30
0
10
55.937798255141132
20
-66.076552019526318
30
0
10
55.4050279275775
20
-66.056175930837341
30
0
10
54.828066368977616
20
-65.933190977533641
30
0
10
54.285697797667808
20
-65.86640671365177
30
0
10
53.859419278923149
20
-65.998713283919344
30
0
10
53.612343281048219
20
-66.386466894289626
30
0
10
53.575208573933189
20
-66.96572956638947
30
0
10
53.749303321738331
20
-67.62031837943978
30
0
10
54.107059867104525
20
-68.227342333565247
30
0
10
54.592150220384561
20
-68.721091816892198
30
0
10
55.12446953520169
20
-69.11758770365563
30
0
10
55.615078892538328
20
-69.473126178854756
30
0
10
55.979432954536108
20
-69.855532300724107
30
0
10
56.150213587548222
20
-70.31339943531836
30
0
10
56.093070975401773
20
-70.838441225309467
30
0
10
55.805272250239696
20
-71.376201744169066
30
0
10
55.307390736421254
20
-71.858215269294874
30
0
10
54.637365698854097
20
-72.224656186163855
30
0
10
53.843327395686671
20
-72.456924561207103
30
0
10
52.978010134334461
20
-72.580000430364493
30
0
10
52.093790700570224
20
-72.643571576470663
30
0
10
51.23769423303947
20
-72.709538565515615
30
0
10
50.446137375100577
20
-72.836330839882436
30
0
10
49.740417970823003
20
-73.065903914688292
30
0
10
49.120342884267885
20
-73.406392896424933
30
0
10
48.563862068224736
20
-73.827423157552488
30
0
10
48.038031421950976
20
-74.278868424072201
30
0
10
47.50764003664122
20
-74.704723576184847
30
0
10
46.944497801812844
20
-75.058513934071115
30
0
10
46.337086768829757
20
-75.319031776490945
30
0
10
45.69819251673686
20
-75.503089482639353
30
0
10
45.054431102415585
20
-75.650405395904514
30
0
10
44.437165285291933
20
-75.81074981913909
30
0
10
43.873422446704183
20
-76.030828423006398
30
0
10
43.37556052685553
20
-76.339861432859294
30
0
10
42.935250473110628
20
-76.740015932097677
30
0
10
42.534917638648714
20
-77.217092750219692
30
0
10
42.157244089391135
20
-77.748619312504616
30
0
10
41.794102552341386
20
-78.312120678168711
30
0
10
41.458974974798423
20
-78.895356818434522
30
0
10
41.184077307662932
20
-79.497001026592301
30
0
10
41.005917650898709
20
-80.119874236383112
30
0
10
40.953391236977801
20
-80.765978032767691
30
0
10
41.036620584669095
20
-81.431586330742419
30
0
10
41.2309913917559
20
-82.100309586190008
30
0
10
41.485708930573054
20
-82.7470457495902
30
0
10
41.744614499492592
20
-83.347387576058509
30
0
10
41.964335301242038
20
-83.885898283805943
30
0
10
42.130932370983992
20
-84.363568093348462
30
0
10
42.283920910432599
20
-84.808947731213721
30
0
10
42.492481697592851
20
-85.26561921042051
30
0
10
42.812595307228356
20
-85.77020292501598
30
0
10
43.255967791380556
20
-86.336264538000535
30
0
10
43.740876745638545
20
-86.929109810853816
30
0
10
44.112350376245757
20
-87.475586233009196
30
0
10
44.209067892454392
20
-87.897410888422982
30
0
10
43.910615075728529
20
-88.134717071540877
30
0
10
43.205997605222642
20
-88.179999952391981
30
0
10
42.203355717029197
20
-88.083570194138616
30
0
10
41.07552676706586
20
-87.928027851964586
30
0
10
40.022938662128297
20
-87.81105886309885
30
0
10
39.227800386070776
20
-87.824140958817281
30
0
10
38.815847876136672
20
-88.034636283634953
30
0
10
38.805589187418128
20
-88.462476369326296
30
0
10
39.093016144262009
20
-89.072033569470207
30
0
10
39.514619841475799
20
-89.797579955996383
30
0
10
39.89763434769727
20
-90.563121409197208
30
0
10
40.109484200923013
20
-91.302263271973828
30
0
10
40.121676626310673
20
-91.983353248613767
30
0
10
40.018145772411444
20
-92.613880484803715
30
0
10
39.921479758605706
20
-93.214397384483078
30
0
10
39.932517099383922
20
-93.797002484573397
30
0
10
40.077873992526349
20
-94.347802663579401
30
0
10
40.221096420490206
20
-94.793281772720448
30
0
10
40.140967775983427
20
-95.039329639229507
30
0
10
39.695591082237705
20
-95.046135384000081
30
0
10
38.990347773499352
20
-94.907612725844288
30
0
10
38.294036434272499
20
-94.799855007884588
30
0
10
37.893644820281509
20
-94.898111625804091
30
0
10
37.976325133569418
20
-95.308206126739634
30
0
10
38.485686250858677
20
-95.983225818038008
30
0
10
39.201542081413713
20
-96.775389341187463
30
0
10
39.836129859095152
20
-97.49792005825428
30
0
10
40.129624993318735
20
-97.986753008939246
30
0
10
39.934383976532338
20
-98.15466620958523
30
0
10
39.333371314659701
20
-98.068062242560714
30
0
10
38.587229075201947
20
-97.910449839259343
30
0
10
37.992795920457276
20
-97.887384314292888
30
0
10
37.780072666370536
20
-98.156847305300317
30
0
10
37.967576611643224
20
-98.732048884231688
30
0
10
38.402415326729212
20
-99.50681753556843
30
0
10
38.853244503739674
20
-100.31619565425385
30
0
10
39.088191153009156
20
-100.98684423985645
30
0
10
38.953652389986587
20
-101.38851345911274
30
0
10
38.466922379752361
20
-101.49343680960834
30
0
10
37.764303366547963
20
-101.35067899651305
30
0
10
37.022448667924571
20
-101.04479075272566
30
0
10
36.391042265832731
20
-100.66089073207786
30
0
10
35.915639842359049
20
-100.24466055302811
30
0
10
35.564235022236382
20
-99.811066031980943
30
0
10
35.261251711691436
20
-99.356368166379795
30
0
10
34.917384822815343
20
-98.868451263069304
30
0
10
34.464724277388761
20
-98.33907678523191
30
0
10
33.87831209439517
20
-97.771418399171012
30
0
10
33.16291830812731
20
-97.175638673351585
30
0
10
32.346214357182014
20
-96.566657882095811
30
0
10
31.469509639206876
20
-95.961093052625387
30
0
10
30.579317910643727
20
-95.374467034903958
30
0
10
29.719059600050905
20
-94.818497633481087
30
0
10
28.919514053152383
20
-94.29787703707234
30
0
10
28.193738978707216
20
-93.808837080227434
30
0
10
27.542189302247479
20
-93.34178249503195
30
0
10
26.955737718379808
20
-92.883083819272031
30
0
10
26.419569285846379
20
-92.417228365796092
30
0
10
25.916614562058797
20
-91.928764446346506
30
0
10
25.431389923374535
20
-91.404462376600691
30
0
10
24.953041102894034
20
-90.835001859233671
30
0
10
24.474262181898215
20
-90.214128816818857
30
0
10
23.990698110165116
20
-89.538110835083273
30
0
10
23.598268226209637
20
-88.951684079244856
30
0
10
23.300481630970008
20
-88.485928612668999
30
0
10
23.100417402180803
20
-88.163898200979688
30
0
10
23.000000342726707
20
-88.000001311302185
30
0
0
SPLINE
5
107
100
AcDbEntity
8
0
100
AcDbSpline
70
1064
71
5
72
181
73
175
74
0
42
0.000000001
43
0.0000000001
44
0.0000000001
40
0
40
0
40
0
40
0
40
0
40
0
40
0.0058823529411764705
40
0.011764705882352941
40
0.017647058823529412
40
0.023529411764705882
40
0.029411764705882353
40
0.035294117647058823
40
0.041176470588235294
40
0.047058823529411764
40
0.052941176470588235
40
0.058823529411764705
40
0.064705882352941169
40
0.070588235294117646
40
0.076470588235294124
40
0.082352941176470601
40
0.088235294117647078
40
0.094117647058823556
40
0.10000000000000003
40
0.10588235294117651
40
0.11176470588235299
40
0.11764705882352947
40
0.12352941176470594
40
0.12941176470588242
40
0.1352941176470589
40
0.14117647058823538
40
0.14705882352941185
40
0.15294117647058833
40
0.15882352941176481
40
0.16470588235294129
40
0.17058823529411776
40
0.17647058823529424
40
0.18235294117647072
40
0.18823529411764719
40
0.19411764705882367
40
0.20000000000000015
40
0.20588235294117663
40
0.2117647058823531
40
0.21764705882352958
40
0.22352941176470606
40
0.22941176470588254
40
0.23529411764705901
40
0.24117647058823549
40
0.24705882352941197
40
0.25294117647058845
40
0.2588235294117649
40
0.26470588235294135
40
0.2705882352941178
40
0.27647058823529425
40
0.2823529411764707
40
0.28823529411764715
40
0.29411764705882359
40
0.30000000000000004
40
0.30588235294117649
40
0.31176470588235294
40
0.31764705882352939
40
0.32352941176470584
40
0.32941176470588229
40
0.33529411764705874
40
0.34117647058823519
40
0.34705882352941164
40
0.35294117647058809
40
0.35882352941176454
40
0.36470588235294099
40
0.37058823529411744
40
0.37647058823529389
40
0.38235294117647034
40
0.38823529411764679
40
0.39411764705882324
40
0.39999999999999969
40
0.40588235294117614
40
0.41176470588235259
40
0.41764705882352904
40
0.42352941176470549
40
0.42941176470588194
40
0.43529411764705839
40
0.44117647058823484
40
0.44705882352941129
40
0.45294117647058774
40
0.45882352941176419
40
0.46470588235294064
40
0.47058823529411709
40
0.47647058823529354
40
0.48235294117646998
40
0.48823529411764643
40
0.49411764705882288
40
0.49999999999999933
40
0.50588235294117578
40
0.51176470588235223
40
0.51764705882352868
40
0.52352941176470513
40
0.52941176470588158
40
0.53529411764705803
40
0.54117647058823448
40
0.54705882352941093
40
0.55294117647058738
40
0.55882352941176383
40
0.56470588235294028
40
0.57058823529411673
40
0.57647058823529318
40
0.58235294117646963
40
0.58823529411764608
40
0.59411764705882253
40
0.59999999999999898
40
0.60588235294117543
40
0.61176470588235188
40
0.61764705882352833
40
0.62352941176470478
40
0.62941176470588123
40
0.63529411764705768
40
0.64117647058823413
40
0.64705882352941058
40
0.65294117647058703
40
0.65882352941176348
40
0.66470588235293993
40
0.67058823529411637
40
0.67647058823529282
40
0.68235294117646927
40
0.68823529411764572
40
0.69411764705882217
40
0.69999999999999862
40
0.70588235294117507
40
0.71176470588235152
40
0.71764705882352797
40
0.72352941176470442
40
0.72941176470588087
40
0.73529411764705732
40
0.74117647058823377
40
0.74705882352941022
40
0.75294117647058667
40
0.75882352941176312
40
0.76470588235293957
40
0.77058823529411602
40
0.77647058823529247
40
0.78235294117646892
40
0.78823529411764537
40
0.79411764705882182
40
0.79999999999999827
40
0.80588235294117472
40
0.81176470588235117
40
0.81764705882352762
40
0.82352941176470407
40
0.82941176470588052
40
0.83529411764705697
40
0.84117647058823342
40
0.84705882352940987
40
0.85294117647058632
40
0.85882352941176276
40
0.86470588235293921
40
0.87058823529411566
40
0.87647058823529211
40
0.88235294117646856
40
0.88823529411764501
40
0.89411764705882146
40
0.89999999999999791
40
0.90588235294117436
40
0.91176470588235081
40
0.91764705882352726
40
0.92352941176470371
40
0.92941176470588016
40
0.93529411764705661
40
0.94117647058823306
40
0.94705882352940951
40
0.95294117647058596
40
0.95882352941176241
40
0.96470588235293886
40
0.97058823529411531
40
0.97647058823529176
40
0.98235294117646821
40
0.98823529411764466
40
0.99411764705882111
40
1
40
1
40
1
40
1
40
1
40
1
10
65
20
-100
30
0
10
64.880105090326055
20
-99.984140482126506
30
0
10
64.650963070003854
20
-99.949148948467425
30
0
10
64.339183772166336
20
-99.886841641457949
30
0
10
63.987432928133103
20
-99.78414590711148
30
0
10
63.646630977563746
20
-99.621684060848267
30
0
10
63.383133770548667
20
-99.421369171012913
30
0
10
63.150806408134635
20
-99.174922751638263
30
0
10
62.88352610448473
20
-98.871358631635985
30
0
10
62.520703421014787
20
-98.504216149029247
30
0
10
62.027989170496909
20
-98.077576971207947
30
0
10
61.419169642316184
20
-97.612300792443165
30
0
10
60.739488240711694
20
-97.137891363265183
30
0
10
60.05042128960487
20
-96.684932558495461
30
0
10
59.413517988860633
20
-96.277029177036439
30
0
10
58.875491567332723
20
-95.923586415426243
30
0
10
58.450734234292312
20
-95.610721700556581
30
0
10
58.111129362471146
20
-95.297558883631325
30
0
10
57.807887503598458
20
-94.936383369595518
30
0
10
57.488581884739588
20
-94.489096367563718
30
0
10
57.116619634912539
20
-93.945796071450332
30
0
10
56.688089297313468
20
-93.340529530852038
30
0
10
56.221705015160282
20
-92.732971253416707
30
0
10
55.750231327779275
20
-92.192443820611331
30
0
10
55.311301661824139
20
-91.780180534264147
30
0
10
54.938624005620802
20
-91.534355532106673
30
0
10
54.652758428379698
20
-91.448647755619348
30
0
10
54.45119296317457
20
-91.49039644480257
30
0
10
54.293415173482487
20
-91.635708072877279
30
0
10
54.098204379530159
20
-91.888939907446172
30
0
10
53.783174132837878
20
-92.260603649884786
30
0
10
53.304869638620367
20
-92.747421413968922
30
0
10
52.660012301586988
20
-93.331113264372348
30
0
10
51.872639427647655
20
-93.984707385493195
30
0
10
50.986001756211465
20
-94.676280550378749
30
0
10
50.052579513987823
20
-95.373715497269544
30
0
10
49.124659058479985
20
-96.049162128455023
30
0
10
48.245252174899036
20
-96.683298383828884
30
0
10
47.437459404169346
20
-97.270471472602338
30
0
10
46.69900531057386
20
-97.82092509126403
30
0
10
46.011054575549622
20
-98.35498325091649
30
0
10
45.344352545931976
20
-98.898742120066899
30
0
10
44.666477442197198
20
-99.47913317112706
30
0
10
43.948491149568191
20
-100.11933100761249
30
0
10
43.172140765818405
20
-100.83383640789609
30
0
10
42.336139153706014
20
-101.62411118380392
30
0
10
41.464639864115668
20
-102.47289031878873
30
0
10
40.60037677865423
20
-103.34774815288505
30
0
10
39.794374209118423
20
-104.20673994712759
30
0
10
39.096778874215786
20
-105.00335267647954
30
0
10
38.547346405567552
20
-105.69169291183533
30
0
10
38.165785770287528
20
-106.23169121342565
30
0
10
37.942834780596172
20
-106.59402550459299
30
0
10
37.829352029308929
20
-106.76580141068037
30
0
10
37.732372296014788
20
-106.75455161350419
30
0
10
37.5891022207568
20
-106.60167046782702
30
0
10
37.390207794156815
20
-106.37406318947225
30
0
10
37.13354479153994
20
-106.1073981218411
30
0
10
36.816164307044403
20
-105.80156437294683
30
0
10
36.436610479268168
20
-105.4413910255231
30
0
10
35.994967629605398
20
-105.01154326479178
30
0
10
35.493719762296664
20
-104.51040008340328
30
0
10
34.937855778384169
20
-103.94533128141133
30
0
10
34.335196692798711
20
-103.33095845669479
30
0
10
33.696620490253515
20
-102.68623810910098
30
0
10
33.036354011088001
20
-102.03203746306635
30
0
10
32.372183993232191
20
-101.38852590866469
30
0
10
31.725848561094885
20
-100.77257292388724
30
0
10
31.119460554445318
20
-100.19697073563469
30
0
10
30.571684628603599
20
-99.669753645722651
30
0
10
30.094085675432076
20
-99.193511181406109
30
0
10
29.687217580863226
20
-98.764632167934039
30
0
10
29.337257852922093
20
-98.372742726264761
30
0
10
29.011233194443122
20
-97.999613733810662
30
0
10
28.666123449840832
20
-97.623414545413411
30
0
10
28.260657910417937
20
-97.224060100936981
30
0
10
27.765022738985188
20
-96.787631630577266
30
0
10
27.17417211117731
20
-96.312480585928455
30
0
10
26.50889435554457
20
-95.809533649747195
30
0
10
25.804608308700022
20
-95.296776283284089
30
0
10
25.103593919342661
20
-94.795357910788013
30
0
10
24.445551934082303
20
-94.324926076098677
30
0
10
23.859503354853409
20
-93.899543946672026
30
0
10
23.353615972767745
20
-93.522749005204219
30
0
10
22.91047569572083
20
-93.184841333621065
30
0
10
22.501722843632329
20
-92.86835504514687
30
0
10
22.100493356306288
20
-92.552360064415694
30
0
10
21.693111676005064
20
-92.217048034569473
30
0
10
21.295170993589146
20
-91.848625396289265
30
0
10
20.941164351688574
20
-91.441743704438622
30
0
10
20.661830608137961
20
-91.001269300861765
30
0
10
20.468700036372418
20
-90.543641737239838
30
0
10
20.328066788070075
20
-90.09990356208796
30
0
10
20.170464709716036
20
-89.711881152495238
30
0
10
19.929100995121413
20
-89.422525074760671
30
0
10
19.571596998693447
20
-89.267662072512024
30
0
10
19.130579039520217
20
-89.267786593801631
30
0
10
18.666132677341459
20
-89.428493534764726
30
0
10
18.23607600692247
20
-89.740596116576995
30
0
10
17.856828619966464
20
-90.179586241989512
30
0
10
17.508214165985038
20
-90.710189310850751
30
0
10
17.151715552174551
20
-91.292553842251039
30
0
10
16.744904534480927
20
-91.888101435630489
30
0
10
16.256108546940748
20
-92.465051191657949
30
0
10
15.682422775562785
20
-93.005271178721102
30
0
10
15.047139053141978
20
-93.503990444859738
30
0
10
14.387901507560969
20
-93.966411578687726
30
0
10
13.748080185175652
20
-94.405313081736921
30
0
10
13.166311628181893
20
-94.838261079716773
30
0
10
12.667976672699693
20
-95.284944749520633
30
0
10
12.252935898900416
20
-95.7645716574376
30
0
10
11.899267229555992
20
-96.292736440555188
30
0
10
11.575238467949271
20
-96.878156316213179
30
0
10
11.249178705109294
20
-97.519149654013717
30
0
10
10.899226994461744
20
-98.20087863411571
30
0
10
10.525513518058299
20
-98.890681642926111
30
0
10
10.153646849203328
20
-99.539282687943427
30
0
10
9.8172182722839025
20
-100.09548586335393
30
0
10
9.5434029863643826
20
-100.51926641326132
30
0
10
9.3394308372477592
20
-100.79336043294174
30
0
10
9.1736462351791364
20
-100.94063596178836
30
0
10
8.9760972042108413
20
-101.02126856521453
30
0
10
8.693039812783228
20
-101.07233092963594
30
0
10
8.3179423754887232
20
-101.07494089856488
30
0
10
7.8682385219272497
20
-100.98924468410078
30
0
10
7.366139213858979
20
-100.78540054728533
30
0
10
6.8246095163068325
20
-100.46391023700448
30
0
10
6.2519201367025348
20
-100.04269142110955
30
0
10
5.6522372836082582
20
-99.551142739812263
30
0
10
5.0278111060019377
20
-99.02136731451732
30
0
10
4.3804615993390881
20
-98.48070989592928
30
0
10
3.713417324243923
20
-97.943460179457432
30
0
10
3.0310113023005654
20
-97.413461253296617
30
0
10
2.3383652980279872
20
-96.886976426402725
30
0
10
1.6410753643645593
20
-96.35545314763533
30
0
10
0.94489654052339112
20
-95.808356769532438
30
0
10
0.25542942652801476
20
-95.235908708784564
30
0
10
-0.42219753697300078
20
-94.632020437335953
30
0
10
-1.0836338956265692
20
-93.996692021754242
30
0
10
-1.7255208531388277
20
-93.334284236696007
30
0
10
-2.345713776072281
20
-92.652186366679018
30
0
10
-2.9435019235886042
20
-91.959332379185824
30
0
10
-3.5198289233473448
20
-91.264783796253838
30
0
10
-4.077515097456943
20
-90.576279996087564
30
0
10
-4.6214752135826442
20
-89.898811847057956
30
0
10
-5.1589503941128259
20
-89.233158420079405
30
0
10
-5.6986587954820642
20
-88.576825237002737
30
0
10
-6.249929875309701
20
-87.925015409115375
30
0
10
-6.8218485396801256
20
-87.271584965475867
30
0
10
-7.4223869121121826
20
-86.610011571767117
30
0
10
-8.0575602312384138
20
-85.934340872094097
30
0
10
-8.7305266800197341
20
-85.240181710196694
30
0
10
-9.4408416556507433
20
-84.525567275135117
30
0
10
-10.185177625496857
20
-83.790546702293398
30
0
10
-10.957924090933231
20
-83.036880800021464
30
0
10
-11.751831100703091
20
-82.267699070642493
30
0
10
-12.558637459821227
20
-81.4871721981132
30
0
10
-13.369696762744315
20
-80.700181273803778
30
0
10
-14.176623888548868
20
-79.911981396388512
30
0
10
-14.971886563463379
20
-79.127884768030114
30
0
10
-15.749538604909016
20
-78.352892114871111
30
0
10
-16.505229366569758
20
-77.591589948248043
30
0
10
-17.235910626641544
20
-76.848158901647565
30
0
10
-17.939641579969845
20
-76.126346370775707
30
0
10
-18.615352445155136
20
-75.42945353731902
30
0
10
-19.262627937948604
20
-74.760316980988634
30
0
10
-19.881478018208046
20
-74.12129047915414
30
0
10
-20.472124481763988
20
-73.514231367431009
30
0
10
-21.034754102991776
20
-72.940472392430834
30
0
10
-21.569488362975761
20
-72.400893713375496
30
0
10
-22.076406591941293
20
-71.896019884536528
30
0
10
-22.459722053697956
20
-71.520090552421493
30
0
10
-22.734718300846801
20
-71.253913429527373
30
0
10
-22.912498157132074
20
-71.083470443273612
30
0
10
-23.000000342726707
20
-71.000001057982445
30
0
0
SPLINE
5
108
100
AcDbEntity
8
0
100
AcDbSpline
70
1064
71
5
72
46
73
40
74
0
42
0.000000001
43
0.0000000001
44
0.0000000001
40
0
40
0
40
0
40
0
40
0
40
0
40
0.028571428571428571
40
0.057142857142857141
40
0.085714285714285715
40
0.11428571428571428
40
0.14285714285714285
40
0.17142857142857143
40
0.20000000000000001
40
0.22857142857142859
40
0.25714285714285717
40
0.28571428571428575
40
0.31428571428571433
40
0.34285714285714292
40
0.3714285714285715
40
0.40000000000000008
40
0.42857142857142866
40
0.45714285714285724
40
0.48571428571428582
40
0.51428571428571435
40
0.54285714285714293
40
0.57142857142857151
40
0.60000000000000009
40
0.62857142857142867
40
0.65714285714285725
40
0.68571428571428583
40
0.71428571428571441
40
0.74285714285714299
40
0.77142857142857157
40
0.80000000000000016
40
0.82857142857142874
40
0.85714285714285732
40
0.8857142857142859
40
0.91428571428571448
40
0.94285714285714306
40
0.97142857142857164
40
1
40
1
40
1
40
1
40
1
40
1
10
23.000000342726707
20
-88.000001311302185
30
0
10
22.990290041289526
20
-87.916749363429517
30
0
10
22.966274506182405
20
-87.753617900638247
30
0
10
22.91646603037703
20
-87.519035144882366
30
0
10
22.822450986862123
20
-87.226538765202491
30
0
10
22.65848802162747
20
-86.891877010293598
30
0
10
22.447197944493698
20
-86.579827301291118
30
0
10
22.186981126586964
20
-86.272600331459557
30
0
10
21.875788062556843
20
-85.943048951262625
30
0
10
21.5125811891171
20
-85.563886830554807
30
0
10
21.098638549569721
20
-85.115457005389516
30
0
10
20.638790497501127
20
-84.593349929864303
30
0
10
20.143087025572591
20
-84.018130160616508
30
0
10
19.625310811765416
20
-83.428708247422279
30
0
10
19.100737231764025
20
-82.871784663276671
30
0
10
18.584206335853885
20
-82.392880665511413
30
0
10
18.087977351182445
20
-82.026309794700651
30
0
10
17.619872704114286
20
-81.786484877721193
30
0
10
17.180727616754737
20
-81.656087637043129
30
0
10
16.766572321802123
20
-81.595244126467207
30
0
10
16.37210318509139
20
-81.556082038722963
30
0
10
15.99331710316163
20
-81.49428803550046
30
0
10
15.631436659297368
20
-81.384604135245951
30
0
10
15.290720532001767
20
-81.218699709033601
30
0
10
14.974167970751202
20
-80.996947885849806
30
0
10
14.679761815983472
20
-80.722080268532736
30
0
10
14.39685123898861
20
-80.392537859078459
30
0
10
14.109386729924754
20
-80.004184260459539
30
0
10
13.798794582045046
20
-79.551453643314815
30
0
10
13.446789460565444
20
-79.028636827187086
30
0
10
13.038671659174735
20
-78.431315823786719
30
0
10
12.563582490324357
20
-77.756487289190204
30
0
10
12.013700144664785
20
-77.002208061245682
30
0
10
11.383810377916838
20
-76.167414693729924
30
0
10
10.67074452969737
20
-75.251684784943194
30
0
10
9.8728964306855218
20
-74.255036901300144
30
0
10
9.1663591441723771
20
-73.393188464494614
30
0
10
8.5980828056916074
20
-72.710639384642292
30
0
10
8.2021997139051468
20
-72.239555675047143
30
0
10
8.0000001192092896
20
-72.000001072883606
30
0
0
SPLINE
5
109
100
AcDbEntity
8
0
100
AcDbSpline
70
1064
71
5
72
121
73
115
74
0
42
0.000000001
43
0.0000000001
44
0.0000000001
40
0
40
0
40
0
40
0
40
0
40
0
40
0.0090909090909090905
40
0.018181818181818181
40
0.027272727272727271
40
0.036363636363636362
40
0.045454545454545456
40
0.05454545454545455
40
0.063636363636363644
40
0.072727272727272738
40
0.081818181818181832
40
0.090909090909090925
40
0.10000000000000002
40
0.10909090909090911
40
0.11818181818181821
40
0.12727272727272729
40
0.13636363636363638
40
0.14545454545454548
40
0.15454545454545457
40
0.16363636363636366
40
0.17272727272727276
40
0.18181818181818185
40
0.19090909090909094
40
0.20000000000000004
40
0.20909090909090913
40
0.21818181818181823
40
0.22727272727272732
40
0.23636363636363641
40
0.24545454545454551
40
0.25454545454545457
40
0.26363636363636367
40
0.27272727272727276
40
0.28181818181818186
40
0.29090909090909095
40
0.30000000000000004
40
0.30909090909090914
40
0.31818181818181823
40
0.32727272727272733
40
0.33636363636363642
40
0.34545454545454551
40
0.35454545454545461
40
0.3636363636363637
40
0.3727272727272728
40
0.38181818181818189
40
0.39090909090909098
40
0.40000000000000008
40
0.40909090909090917
40
0.41818181818181827
40
0.42727272727272736
40
0.43636363636363645
40
0.44545454545454555
40
0.45454545454545464
40
0.46363636363636374
40
0.47272727272727283
40
0.48181818181818192
40
0.49090909090909102
40
0.50000000000000011
40
0.50909090909090915
40
0.51818181818181819
40
0.52727272727272723
40
0.53636363636363626
40
0.5454545454545453
40
0.55454545454545434
40
0.56363636363636338
40
0.57272727272727242
40
0.58181818181818146
40
0.5909090909090905
40
0.59999999999999953
40
0.60909090909090857
40
0.61818181818181761
40
0.62727272727272665
40
0.63636363636363569
40
0.64545454545454473
40
0.65454545454545376
40
0.6636363636363628
40
0.67272727272727184
40
0.68181818181818088
40
0.69090909090908992
40
0.69999999999999896
40
0.70909090909090799
40
0.71818181818181703
40
0.72727272727272607
40
0.73636363636363511
40
0.74545454545454415
40
0.75454545454545319
40
0.76363636363636223
40
0.77272727272727126
40
0.7818181818181803
40
0.79090909090908934
40
0.79999999999999838
40
0.80909090909090742
40
0.81818181818181646
40
0.82727272727272549
40
0.83636363636363453
40
0.84545454545454357
40
0.85454545454545261
40
0.86363636363636165
40
0.87272727272727069
40
0.88181818181817972
40
0.89090909090908876
40
0.8999999999999978
40
0.90909090909090684
40
0.91818181818181588
40
0.92727272727272492
40
0.93636363636363396
40
0.94545454545454299
40
0.95454545454545203
40
0.96363636363636107
40
0.97272727272727011
40
0.98181818181817915
40
0.99090909090908819
40
1
40
1
40
1
40
1
40
1
40
1
10
6.0000000894069672
20
-74.000001102685928
30
0
10
6.1185516826706419
20
-74.130232058117471
30
0
10
6.3542497751648579
20
-74.392353051391723
30
0
10
6.7035816370746106
20
-74.790511820641598
30
0
10
7.1609257198286125
20
-75.331345800197312
30
0
10
7.718297195619761
20
-76.023153781968119
30
0
10
8.2606032290477334
20
-76.728226763519359
30
0
10
8.7863399056841338
20
-77.441561742420049
30
0
10
9.2930044768009008
20
-78.154789899531934
30
0
10
9.7768557169487558
20
-78.855388150908738
30
0
10
10.232644821981218
20
-79.525712026817246
30
0
10
10.653413882080851
20
-80.142442853172895
30
0
10
11.030114769551
20
-80.674940025679405
30
0
10
11.353205301860561
20
-81.095654694382944
30
0
10
11.61453885937836
20
-81.392325233241536
30
0
10
11.809065394186399
20
-81.579047862742442
30
0
10
11.936803369548713
20
-81.70894830060341
30
0
10
12.004279324626708
20
-81.883764944598951
30
0
10
12.016078386034415
20
-82.187226167050852
30
0
10
11.962267347241651
20
-82.592619784366676
30
0
10
11.824717641876534
20
-82.988111215527567
30
0
10
11.591536569842336
20
-83.253787408287948
30
0
10
11.270145137705292
20
-83.327660909717281
30
0
10
10.897522397740326
20
-83.261159800260302
30
0
10
10.526445825126121
20
-83.163029391118911
30
0
10
10.214525563468641
20
-83.159105919039277
30
0
10
10.012431200356742
20
-83.341341024912367
30
0
10
9.952096084524559
20
-83.752750659037957
30
0
10
10.037052535439434
20
-84.384788463617909
30
0
10
10.227275391433302
20
-85.164960591477254
30
0
10
10.449622934136968
20
-85.976200732253858
30
0
10
10.621681002216016
20
-86.691664276873354
30
0
10
10.671162984872243
20
-87.204349628640344
30
0
10
10.557716040171501
20
-87.459795486115837
30
0
10
10.292396419203083
20
-87.485307827930527
30
0
10
9.9617645818054186
20
-87.426671642754613
30
0
10
9.6784963484358784
20
-87.463014513278495
30
0
10
9.5248338555308081
20
-87.709682553452964
30
0
10
9.5026863274110447
20
-88.132556502024045
30
0
10
9.5602939612173117
20
-88.617240240241131
30
0
10
9.6158434662213672
20
-89.02596394973493
30
0
10
9.5810186779940292
20
-89.269292733326068
30
0
10
9.3887611089099057
20
-89.335837003521505
30
0
10
9.0289759647289856
20
-89.262717517692508
30
0
10
8.5810551945042075
20
-89.120427650145302
30
0
10
8.162917707047864
20
-88.99455205505879
30
0
10
7.8861388994257897
20
-88.97062988845839
30
0
10
7.799948884037514
20
-89.116153458150848
30
0
10
7.8683642873528292
20
-89.468813989621609
30
0
10
8.0178310747279866
20
-90.037768607027004
30
0
10
8.1724161973506284
20
-90.801795937405586
30
0
10
8.2887804467660882
20
-91.709960967758718
30
0
10
8.3461003542473104
20
-92.692615065663631
30
0
10
8.3414817758883029
20
-93.671357187518666
30
0
10
8.2831144071192622
20
-94.569611191770719
30
0
10
8.1846477326748808
20
-95.322412948123855
30
0
10
8.0584651108698928
20
-95.887765943968986
30
0
10
7.9107913325438357
20
-96.254469837039352
30
0
10
7.732612727011543
20
-96.458647479137923
30
0
10
7.5078710078331117
20
-96.563674476045264
30
0
10
7.2287815897703824
20
-96.624181565742845
30
0
10
6.9141125011155644
20
-96.645395818030039
30
0
10
6.5984131201447962
20
-96.596572713601162
30
0
10
6.3118562950239223
20
-96.443273058891492
30
0
10
6.0586587029699217
20
-96.179759178203199
30
0
10
5.8180262414198012
20
-95.830493621423983
30
0
10
5.5591101830653944
20
-95.431700133901501
30
0
10
5.2506098527704994
20
-95.020384097073517
30
0
10
4.8747842510853001
20
-94.617612952344217
30
0
10
4.4286958659000746
20
-94.227397453959099
30
0
10
3.9193799913622938
20
-93.842842598264852
30
0
10
3.3609097144711746
20
-93.450025617315674
30
0
10
2.7705871731373115
20
-93.032953655168242
30
0
10
2.1657319450533925
20
-92.577718787636343
30
0
10
1.5596512282061736
20
-92.077861729674169
30
0
10
0.9611606801979401
20
-91.534305143153716
30
0
10
0.37549993355490929
20
-90.953137696298853
30
0
10
-0.19520124510938541
20
-90.344089825182067
30
0
10
-0.75127244903036239
20
-89.718728987462114
30
0
10
-1.2949308446298349
20
-89.088764932060585
30
0
10
-1.8296812013947448
20
-88.464335376088869
30
0
10
-2.3597182350649066
20
-87.852234445641173
30
0
10
-2.8893590858042084
20
-87.254350828358426
30
0
10
-3.4229148472696025
20
-86.668784992279825
30
0
10
-3.9645319588475827
20
-86.090779109175031
30
0
10
-4.5180439221819348
20
-85.513722221170255
30
0
10
-5.0868209718624957
20
-84.930109017759435
30
0
10
-5.6736145652015768
20
-84.332548405593698
30
0
10
-6.2804173176501443
20
-83.714679222975406
30
0
10
-6.9082824709833179
20
-83.072301913138858
30
0
10
-7.5572870351600994
20
-82.403751645694697
30
0
10
-8.2266607381351857
20
-81.709399371696776
30
0
10
-8.9148713612684141
20
-80.991380699685621
30
0
10
-9.619727341595846
20
-80.253233391180345
30
0
10
-10.338472593879287
20
-79.499574269693511
30
0
10
-11.067884241801627
20
-78.735761276757387
30
0
10
-11.804368967842588
20
-77.967559170627226
30
0
10
-12.544059304230277
20
-77.200811555983734
30
0
10
-13.282910742470923
20
-76.441092141396808
30
0
10
-14.016795434344001
20
-75.69341921366923
30
0
10
-14.74157781653857
20
-74.962302240088107
30
0
10
-15.453192596637908
20
-74.25174609352392
30
0
10
-16.147721732879525
20
-73.565271444728339
30
0
10
-16.821472216662457
20
-72.905927878655362
30
0
10
-17.471052977649435
20
-72.276310037599785
30
0
10
-18.093453902779171
20
-71.678571700247517
30
0
10
-18.686120566421302
20
-71.114441536995244
30
0
10
-19.24703972287292
20
-70.585235277180672
30
0
10
-19.774794803306925
20
-70.091876819088583
30
0
10
-20.268450620471935
20
-69.634970229089646
30
0
10
-20.727458755824721
20
-69.214865485576198
30
0
10
-21.066735917403797
20
-68.908354256455155
30
0
10
-21.305448256296899
20
-68.695125469697658
30
0
10
-21.457592733068587
20
-68.560374012345321
30
0
10
-21.531915701377542
20
-68.494848550297576
30
0
0
LINE
5
110
100
AcDbEntity
8
0
100
AcDbLine
10
8.0000001192092896
20
-72.000001072883606
30
0
11
6.0000000894069672
21
-74.000001102685928
31
0
0
LINE
5
111
100
AcDbEntity
8
0
100
AcDbLine
10
-23.000000342726707
20
-71.000001057982445
30
0
11
-21.531915701377542
21
-68.494848550297576
31
0
0
ENDSEC
0
SECTION
2
OBJECTS
0
DICTIONARY
5
C
100
AcDbDictionary
3
ACAD_GROUP
350
D
3
ACAD_MLINESTYLE
350
17
0
DICTIONARY
5
D
100
AcDbDictionary
0
DICTIONARY
5
1A
330
C
100
AcDbDictionary
0
DICTIONARY
5
17
100
AcDbDictionary
0
ENDSEC
0
EOF
