0
SECTION
2
HEADER
9
$INSUNITS
70
4
9
$ACADVER
1
AC1014
9
$HANDSEED
5
FFFF
0
ENDSEC
0
SECTION
2
TABLES
0
TABLE
2
VPORT
5
8
100
AcDbSymbolTable
0
ENDTAB
0
TABLE
2
LTYPE
5
5
100
AcDbSymbolTable
0
LTYPE
5
14
100
AcDbSymbolTableRecord
100
AcDbLinetypeTableRecord
2
BYBLOCK
70
0
0
LTYPE
5
15
100
AcDbSymbolTableRecord
100
AcDbLinetypeTableRecord
2
BYLAYER
70
0
0
ENDTAB
0
TABLE
2
LAYER
5
2
100
AcDbSymbolTable
70
2
0
LAYER
5
50
100
AcDbSymbolTableRecord
100
AcDbLayerTableRecord
2
0
70
0
6
CONTINUOUS
0
ENDTAB
0
TABLE
2
STYLE
5
3
100
AcDbSymbolTable
70
1
0
STYLE
5
11
100
AcDbSymbolTableRecord
100
AcDbTextStyleTableRecord
2
STANDARD
70
0
0
ENDTAB
0
TABLE
2
VIEW
5
6
100
AcDbSymbolTable
70
0
0
ENDTAB
0
TABLE
2
UCS
5
7
100
AcDbSymbolTable
70
0
0
ENDTAB
0
TABLE
2
APPID
5
9
100
AcDbSymbolTable
70
2
0
APPID
5
12
100
AcDbSymbolTableRecord
100
AcDbRegAppTableRecord
2
ACAD
70
0
0
ENDTAB
0
TABLE
2
DIMSTYLE
5
A
100
AcDbSymbolTable
70
1
0
ENDTAB
0
TABLE
2
BLOCK_RECORD
5
1
100
AcDbSymbolTable
70
1
0
BLOCK_RECORD
5
1F
100
AcDbSymbolTableRecord
100
AcDbBlockTableRecord
2
*MODEL_SPACE
0
BLOCK_RECORD
5
1B
100
AcDbSymbolTableRecord
100
AcDbBlockTableRecord
2
*PAPER_SPACE
0
ENDTAB
0
ENDSEC
0
SECTION
2
BLOCKS
0
BLOCK
5
20
100
AcDbEntity
100
AcDbBlockBegin
2
*MODEL_SPACE
0
ENDBLK
5
21
100
AcDbEntity
100
AcDbBlockEnd
0
BLOCK
5
1C
100
AcDbEntity
100
AcDbBlockBegin
2
*PAPER_SPACE
0
ENDBLK
5
1D
100
AcDbEntity
100
AcDbBlockEnd
0
ENDSEC
0
SECTION
2
ENTITIES
0
LWPOLYLINE
5
100
100
AcDbEntity
8
0
100
AcDbPolyline
90
4
70
1
43
0.0
10
-250
20
205
10
250
20
205
10
250
20
-185
10
-250
20
-185
0
LINE
5
101
100
AcDbEntity
8
0
100
AcDbLine
10
0
20
-207.35864072502011
30
0
11
0
21
232.64135927497989
31
0
0
LINE
5
102
100
AcDbEntity
8
0
100
AcDbLine
10
96.844533186587384
20
-143.72155182028456
30
0
11
138.99285814370407
21
-98.111043027404662
31
0
0
ARC
5
103
100
AcDbEntity
8
0
100
AcDbCircle
10
0
20
-432.5126543554104
30
0
40
304.59672439404466
100
AcDbArc
50
71.461401086529705
51
90
0
SPLINE
5
104
100
AcDbEntity
8
0
100
AcDbSpline
70
1064
71
5
72
66
73
60
74
0
42
0.000000001
43
0.0000000001
44
0.0000000001
40
0
40
0
40
0
40
0
40
0
40
0
40
0.018181818181818181
40
0.036363636363636362
40
0.054545454545454543
40
0.072727272727272724
40
0.090909090909090912
40
0.1090909090909091
40
0.12727272727272729
40
0.14545454545454548
40
0.16363636363636366
40
0.18181818181818185
40
0.20000000000000004
40
0.21818181818181823
40
0.23636363636363641
40
0.25454545454545457
40
0.27272727272727276
40
0.29090909090909095
40
0.30909090909090914
40
0.32727272727272733
40
0.34545454545454551
40
0.3636363636363637
40
0.38181818181818189
40
0.40000000000000008
40
0.41818181818181827
40
0.43636363636363645
40
0.45454545454545464
40
0.47272727272727283
40
0.49090909090909102
40
0.50909090909090915
40
0.52727272727272734
40
0.54545454545454553
40
0.56363636363636371
40
0.5818181818181819
40
0.60000000000000009
40
0.61818181818181828
40
0.63636363636363646
40
0.65454545454545465
40
0.67272727272727284
40
0.69090909090909103
40
0.70909090909090922
40
0.7272727272727274
40
0.74545454545454559
40
0.76363636363636378
40
0.78181818181818197
40
0.80000000000000016
40
0.81818181818181834
40
0.83636363636363653
40
0.85454545454545472
40
0.87272727272727291
40
0.89090909090909109
40
0.90909090909090928
40
0.92727272727272747
40
0.94545454545454566
40
0.96363636363636385
40
0.98181818181818203
40
1
40
1
40
1
40
1
40
1
40
1
10
138.99285814370407
20
-98.111043027404662
30
0
10
138.50504522310979
20
-97.681434404498404
30
-3.4006991173044686e-17
10
137.51836037243433
20
-96.784365150542243
30
-9.115087101727922e-17
10
136.00517194039756
20
-95.325200388348549
30
-1.44271350763257e-16
10
133.92109156561847
20
-93.152445516194376
30
-1.4974297417038632e-16
10
131.22140452504374
20
-90.053715847144602
30
-5.9076160567238018e-17
10
128.47364392533092
20
-86.561866576909964
30
9.6910759416712467e-17
10
125.77627735616873
20
-82.655578245904252
30
2.4870612483171611e-16
10
123.26481901975141
20
-78.309101432777169
30
3.0797571737114274e-16
10
121.07779764372415
20
-73.504982408168956
30
2.0564003769547223e-16
10
119.33102949618772
20
-68.243765206842866
30
-8.0404212815270692e-17
10
118.08315484141582
20
-62.5575379930944
30
-4.8342266936071224e-16
10
117.32236881134693
20
-56.513383893603518
30
-8.4449699265165019e-16
10
116.99231728011669
20
-50.197763138151039
30
-9.8245025574760819e-16
10
117.00956055511698
20
-43.705015886851825
30
-7.4798292204470996e-16
10
117.2843387514686
20
-37.124241752205734
30
-8.4309475975471651e-17
10
117.73985955818132
20
-30.526889323381052
30
9.1514197502423613e-16
10
118.33231391988153
20
-23.953968691884366
30
1.9466147239153954e-15
10
119.04053355297151
20
-17.421842605849246
30
2.6129091917307066e-15
10
119.85587047114706
20
-10.92793110825362
30
2.5370661473018136e-15
10
120.77173838046762
20
-4.4564716223276113
30
1.4835684693911604e-15
10
121.77394368636564
20
2.0159292582843467
30
-5.3776727341710983e-16
10
122.82912986631247
20
8.514315607521171
30
-3.1252492062252609e-15
10
123.87903211835841
20
15.060774602977654
30
-5.4707680874725377e-15
10
124.84809882211746
20
21.672911239604069
30
-6.6570159652518235e-15
10
125.64837127138945
20
28.361749849859685
30
-5.8828787723793655e-15
10
126.18548112654231
20
35.129736490698271
30
-2.7365891376761628e-15
10
126.36402522137527
20
41.968938029173081
30
2.5946088932633712e-15
10
126.09352635346391
20
48.858489352950528
30
8.9775274775788441e-15
10
125.2928582026192
20
55.764966909986306
30
1.449030027636791e-14
10
123.89346974985152
20
62.645416113161431
30
1.7041845992536424e-14
10
121.84289030635355
20
69.449611110419212
30
1.4843893000319529e-14
10
119.10834354010292
20
76.122622446416628
30
6.98318746102684e-15
10
115.67995727799479
20
82.607216035106518
30
-6.1385919808967856e-15
10
111.57523143093769
20
88.846382709008864
30
-2.2080017219229837e-14
10
106.8389675548442
20
94.785563571084026
30
-3.6651200506891951e-14
10
101.53876507254635
20
100.37461815895938
30
-4.5187424558375607e-14
10
95.761791769463386
20
105.5698739662425
30
-4.3554912528697495e-14
10
89.61108364582978
20
110.33616349516784
30
-2.9263393997050595e-14
10
83.202112009889575
20
114.64889016746561
30
-2.543870760946762e-15
10
76.659235085842994
20
118.49611775867061
30
3.2571171030885669e-14
10
70.11233315407982
20
121.88067517704313
30
6.7110697639889911e-14
10
63.686147202110178
20
124.82221344959916
30
8.9859921038221185e-14
10
57.489638400027616
20
127.35921332984583
30
9.0081548234369469e-14
10
51.605059867762407
20
129.55121927580745
30
6.0280859905559623e-14
10
46.077657027133867
20
131.48067174399233
30
-1.1642113070287043e-15
10
40.903677845810805
20
133.25582409377236
30
-8.7012983713823508e-14
10
36.022793244631032
20
135.01084693587242
30
-1.7913128435668848e-13
10
31.350159146967641
20
136.88160496262304
30
-2.5510516987298639e-13
10
26.806977292113746
20
138.98191114104998
30
-2.9451097435145666e-13
10
22.348094820316376
20
141.38257431191951
30
-2.8458702626426065e-13
10
17.999563375203213
20
144.08178271261681
30
-2.2796526127226008e-13
10
13.852693601365406
20
147.01271222091316
30
-1.4139433611644268e-13
10
10.027268434022847
20
150.07751892285529
30
-4.8077864025425683e-14
10
6.6458776556530053
20
153.17170551921345
30
2.7687838839097793e-14
10
3.7994191190598947
20
156.21628323115854
30
6.7688500089452187e-14
10
1.9840030586002435
20
158.58255103702777
30
6.4240341733489049e-14
10
0.88859113689002411
20
160.31236512462013
30
4.0381105108636159e-14
10
0.27649839778283702
20
161.44567497512224
30
1.5034171302960961e-14
10
0
20
162.00735274448243
30
0
0
SPLINE
5
105
100
AcDbEntity
8
0
100
AcDbSpline
70
1064
71
5
72
66
73
60
74
0
42
0.000000001
43
0.0000000001
44
0.0000000001
40
0
40
0
40
0
40
0
40
0
40
0
40
0.018181818181818181
40
0.036363636363636362
40
0.054545454545454543
40
0.072727272727272724
40
0.090909090909090912
40
0.1090909090909091
40
0.12727272727272729
40
0.14545454545454548
40
0.16363636363636366
40
0.18181818181818185
40
0.20000000000000004
40
0.21818181818181823
40
0.23636363636363641
40
0.25454545454545457
40
0.27272727272727276
40
0.29090909090909095
40
0.30909090909090914
40
0.32727272727272733
40
0.34545454545454551
40
0.3636363636363637
40
0.38181818181818189
40
0.40000000000000008
40
0.41818181818181827
40
0.43636363636363645
40
0.45454545454545464
40
0.47272727272727283
40
0.49090909090909102
40
0.50909090909090915
40
0.52727272727272734
40
0.54545454545454553
40
0.56363636363636371
40
0.5818181818181819
40
0.60000000000000009
40
0.61818181818181828
40
0.63636363636363646
40
0.65454545454545465
40
0.67272727272727284
40
0.69090909090909103
40
0.70909090909090922
40
0.7272727272727274
40
0.74545454545454559
40
0.76363636363636378
40
0.78181818181818197
40
0.80000000000000016
40
0.81818181818181834
40
0.83636363636363653
40
0.85454545454545472
40
0.87272727272727291
40
0.89090909090909109
40
0.90909090909090928
40
0.92727272727272747
40
0.94545454545454566
40
0.96363636363636385
40
0.98181818181818203
40
1
40
1
40
1
40
1
40
1
40
1
10
-138.99285814370407
20
-98.111043027404662
30
0
10
-138.50504522310979
20
-97.681434404498404
30
-3.4006991173044686e-17
10
-137.51836037243433
20
-96.784365150542243
30
-9.115087101727922e-17
10
-136.00517194039756
20
-95.325200388348549
30
-1.44271350763257e-16
10
-133.92109156561847
20
-93.152445516194376
30
-1.4974297417038632e-16
10
-131.22140452504374
20
-90.053715847144602
30
-5.9076160567238018e-17
10
-128.47364392533092
20
-86.561866576909964
30
9.6910759416712467e-17
10
-125.77627735616873
20
-82.655578245904252
30
2.4870612483171611e-16
10
-123.26481901975141
20
-78.309101432777169
30
3.0797571737114274e-16
10
-121.07779764372415
20
-73.504982408168956
30
2.0564003769547223e-16
10
-119.33102949618772
20
-68.243765206842866
30
-8.0404212815270692e-17
10
-118.08315484141582
20
-62.5575379930944
30
-4.8342266936071224e-16
10
-117.32236881134693
20
-56.513383893603518
30
-8.4449699265165019e-16
10
-116.99231728011669
20
-50.197763138151039
30
-9.8245025574760819e-16
10
-117.00956055511698
20
-43.705015886851825
30
-7.4798292204470996e-16
10
-117.2843387514686
20
-37.124241752205734
30
-8.4309475975471651e-17
10
-117.73985955818132
20
-30.526889323381052
30
9.1514197502423613e-16
10
-118.33231391988153
20
-23.953968691884366
30
1.9466147239153954e-15
10
-119.04053355297151
20
-17.421842605849246
30
2.6129091917307066e-15
10
-119.85587047114706
20
-10.92793110825362
30
2.5370661473018136e-15
10
-120.77173838046762
20
-4.4564716223276113
30
1.4835684693911604e-15
10
-121.77394368636564
20
2.0159292582843467
30
-5.3776727341710983e-16
10
-122.82912986631247
20
8.514315607521171
30
-3.1252492062252609e-15
10
-123.87903211835841
20
15.060774602977654
30
-5.4707680874725377e-15
10
-124.84809882211746
20
21.672911239604069
30
-6.6570159652518235e-15
10
-125.64837127138945
20
28.361749849859685
30
-5.8828787723793655e-15
10
-126.18548112654231
20
35.129736490698271
30
-2.7365891376761628e-15
10
-126.36402522137527
20
41.968938029173081
30
2.5946088932633712e-15
10
-126.09352635346391
20
48.858489352950528
30
8.9775274775788441e-15
10
-125.2928582026192
20
55.764966909986306
30
1.449030027636791e-14
10
-123.89346974985152
20
62.645416113161431
30
1.7041845992536424e-14
10
-121.84289030635355
20
69.449611110419212
30
1.4843893000319529e-14
10
-119.10834354010292
20
76.122622446416628
30
6.98318746102684e-15
10
-115.67995727799479
20
82.607216035106518
30
-6.1385919808967856e-15
10
-111.57523143093769
20
88.846382709008864
30
-2.2080017219229837e-14
10
-106.8389675548442
20
94.785563571084026
30
-3.6651200506891951e-14
10
-101.53876507254635
20
100.37461815895938
30
-4.5187424558375607e-14
10
-95.761791769463386
20
105.5698739662425
30
-4.3554912528697495e-14
10
-89.61108364582978
20
110.33616349516784
30
-2.9263393997050595e-14
10
-83.202112009889575
20
114.64889016746561
30
-2.543870760946762e-15
10
-76.659235085842994
20
118.49611775867061
30
3.2571171030885669e-14
10
-70.11233315407982
20
121.88067517704313
30
6.7110697639889911e-14
10
-63.686147202110178
20
124.82221344959916
30
8.9859921038221185e-14
10
-57.489638400027616
20
127.35921332984583
30
9.0081548234369469e-14
10
-51.605059867762407
20
129.55121927580745
30
6.0280859905559623e-14
10
-46.077657027133867
20
131.48067174399233
30
-1.1642113070287043e-15
10
-40.903677845810805
20
133.25582409377236
30
-8.7012983713823508e-14
10
-36.022793244631032
20
135.01084693587242
30
-1.7913128435668848e-13
10
-31.350159146967641
20
136.88160496262304
30
-2.5510516987298639e-13
10
-26.806977292113746
20
138.98191114104998
30
-2.9451097435145666e-13
10
-22.348094820316376
20
141.38257431191951
30
-2.8458702626426065e-13
10
-17.999563375203213
20
144.08178271261681
30
-2.2796526127226008e-13
10
-13.852693601365406
20
147.01271222091316
30
-1.4139433611644268e-13
10
-10.027268434022847
20
150.07751892285529
30
-4.8077864025425683e-14
10
-6.6458776556530053
20
153.17170551921345
30
2.7687838839097793e-14
10
-3.7994191190598947
20
156.21628323115854
30
6.7688500089452187e-14
10
-1.9840030586002435
20
158.58255103702777
30
6.4240341733489049e-14
10
-0.88859113689002411
20
160.31236512462013
30
4.0381105108636159e-14
10
-0.27649839778283702
20
161.44567497512224
30
1.5034171302960961e-14
10
0
20
162.00735274448243
30
0
0
LINE
5
106
100
AcDbEntity
8
0
100
AcDbLine
10
-96.844533186587384
20
-143.72155182028456
30
0
11
-138.99285814370407
21
-98.111043027404662
31
0
0
ARC
5
107
100
AcDbEntity
8
0
100
AcDbCircle
10
0
20
-432.5126543554104
30
0
40
304.59672439404466
100
AcDbArc
50
90
51
108.5385989134703
0
SPLINE
5
108
100
AcDbEntity
8
0
100
AcDbSpline
70
1064
71
3
72
65
73
61
74
0
42
0.000000001
43
0.0000000001
44
0.0000000001
40
-0.057297250645216291
40
-0.057297250645216291
40
-0.057297250645216291
40
-0.057297250645216291
40
0
40
0
40
0
40
0.05726021408858506
40
0.05726021408858506
40
0.05726021408858506
40
0.10761949274240026
40
0.10761949274240026
40
0.10761949274240026
40
0.16339327444600024
40
0.16339327444600024
40
0.16339327444600024
40
0.21785118199049602
40
0.21785118199049602
40
0.21785118199049602
40
0.27285855153307359
40
0.27285855153307359
40
0.27285855153307359
40
0.33468557584974867
40
0.33468557584974867
40
0.33468557584974867
40
0.39586317008885408
40
0.39586317008885408
40
0.39586317008885408
40
0.46073880522076727
40
0.46073880522076727
40
0.46073880522076727
40
0.51991126006364352
40
0.51991126006364352
40
0.51991126006364352
40
0.57567755103056406
40
0.57567755103056406
40
0.57567755103056406
40
0.64287594111953639
40
0.64287594111953639
40
0.64287594111953639
40
0.711417443684629
40
0.711417443684629
40
0.711417443684629
40
0.7677247009297461
40
0.7677247009297461
40
0.7677247009297461
40
0.81521165300342491
40
0.81521165300342491
40
0.81521165300342491
40
0.86140873975256871
40
0.86140873975256871
40
0.86140873975256871
40
0.90439566582961295
40
0.90439566582961295
40
0.90439566582961295
40
0.95265832191345268
40
0.95265832191345268
40
0.95265832191345268
40
1
40
1
40
1
40
1.1179928934301384
40
1.1179928934301384
40
1.1179928934301384
40
1.1179928934301384
10
-153.28836920028914
20
-97.375684078287762
30
5.3583945165618975e-16
10
-150.72625477552324
20
-95.119273058237255
30
3.5722630110412657e-16
10
-148.16414035075726
20
-92.862862038186734
30
1.7861315055206328e-16
10
-145.60202592599131
20
-90.606451018136184
30
0
10
-143.55295760885301
20
-88.801871063808179
30
-1.7849769621540644e-16
10
-141.0773921226444
20
-86.249571549172614
30
-1.5830955404615636e-16
10
-138.56910880917545
20
-83.15811697648526
30
-2.4645914559614162e-17
10
-136.36312092847558
20
-80.439240968953698
30
9.29087361507777e-17
10
-134.18388242089296
20
-77.359462835978576
30
2.8155661954308886e-16
10
-132.40519063413211
20
-73.944355377324257
30
2.6951650603797187e-16
10
-130.43525837766066
20
-70.162064149471419
30
2.561818697947245e-16
10
-128.95114550231145
20
-65.921160150235693
30
-9.1059998912304108e-17
10
-128.07146013295812
20
-60.840471590550358
30
-4.6782867105013341e-16
10
-127.21252923300455
20
-55.87965201915911
30
-8.3570821742882192e-16
10
-126.94348583728676
20
-50.128933025086148
30
-1.0894892849168872e-15
10
-127.06944998160475
20
-44.007322294520776
30
-6.5000490450978597e-16
10
-127.19668506183537
20
-37.823946567554344
30
-2.0608627429999236e-16
10
-127.6800340707935
20
-31.326779251383666
30
1.0404777873474549e-15
10
-128.31720350715486
20
-24.903886276011264
30
1.8613756877922452e-15
10
-129.03336736962177
20
-17.68470158359699
30
2.784046138576526e-15
10
-129.97278178783543
20
-10.548128019047802
30
2.668703047295588e-15
10
-131.07543972718591
20
-3.3255749137118769
30
5.5281566301338513e-16
10
-132.1665153651237
20
3.8211126089716356
30
-1.5408464739228527e-15
10
-133.44811397658668
20
11.113960006887071
30
-5.4472385056306273e-15
10
-134.50862155117738
20
18.816747096032095
30
-6.0869494754319993e-15
10
-135.63323430065685
20
26.985149448388007
30
-6.765329460504833e-15
10
-136.47798174641193
20
35.627792479288374
30
-2.230949925748138e-15
10
-136.20254412550523
20
44.627417498328377
30
4.845630230877557e-15
10
-135.95132006963291
20
52.835890586247416
30
1.1300112239546864e-14
10
-134.73717194619275
20
61.328081036048445
30
1.8168255267796513e-14
10
-132.13026905547628
20
69.664718422831925
30
1.5042153159664966e-14
10
-129.67342819071533
20
77.521471154006548
30
1.2095999916280386e-14
10
-125.97089002235423
20
85.215382484497439
30
-1.1842760480460337e-15
10
-121.14426519876017
20
92.319447051114906
30
-1.6650981371558485e-14
10
-115.32818146636018
20
100.87984606076003
30
-3.5288363913945769e-14
10
-107.90083137036285
20
108.56911116194388
30
-5.2111100342927222e-14
10
-99.727170163579729
20
115.05269800109011
30
-3.673765698848127e-14
10
-91.390139770006897
20
121.66587405155727
30
-2.1056940445749915e-14
10
-82.29923716010093
20
127.02018575073693
30
3.476636065706987e-14
10
-73.651302338047827
20
131.1822641577908
30
6.7615677435135254e-14
10
-66.546971787343736
20
134.60143664117439
30
9.4601589049668153e-14
10
-59.765062530425801
20
137.22150073515397
30
9.5247602700026547e-14
10
-53.789465511190933
20
139.35990156869315
30
4.1481195279179152e-14
10
-48.74992170907062
20
141.16333052021423
30
-3.8629208665079146e-15
10
-44.305642637543478
20
142.63106646612567
30
-8.7863200039108337e-14
10
-40.369747211503615
20
144.10669830516829
30
-1.6147827795551789e-13
10
-36.540760626931778
20
145.54224826365544
30
-2.3309378478511622e-13
10
-33.14146238612242
20
147.00469607279527
30
-2.8736082528269071e-13
10
-29.81477198353808
20
148.76577749423382
30
-2.843476934612993e-13
10
-26.719247904419483
20
150.40448422243327
30
-2.815439392858492e-13
10
-23.67089331036459
20
152.31426784740793
30
-2.2951379817598412e-13
10
-20.855341330889306
20
154.36374793580674
30
-1.6214611306523078e-13
10
-17.694240287561733
20
156.66475807269788
30
-8.6510478829895914e-14
10
-14.881271919609755
20
159.11098918720151
30
1.097478905351264e-15
10
-12.835388065811738
20
161.26189782825134
30
3.8509306103440355e-14
10
-10.8285450391719
20
163.37176149388262
30
7.5207217564523775e-14
10
-9.5762949881988035
20
165.19603483155765
30
6.5243098994589435e-14
10
-8.9718326453785284
20
166.42393728271102
30
0
10
-5.9812217635856797
20
172.49905259107885
30
-1.6260982579973436e-13
10
-2.9906108817928323
20
178.57416789944665
30
-3.2521965159946878e-13
10
1.5543122344752192e-14
20
184.64928320781451
30
-4.8782947739920309e-13
0
SPLINE
5
109
100
AcDbEntity
8
0
100
AcDbSpline
70
1064
71
3
72
65
73
61
74
0
42
0.000000001
43
0.0000000001
44
0.0000000001
40
-0.057297250645216291
40
-0.057297250645216291
40
-0.057297250645216291
40
-0.057297250645216291
40
0
40
0
40
0
40
0.05726021408858506
40
0.05726021408858506
40
0.05726021408858506
40
0.10761949274240026
40
0.10761949274240026
40
0.10761949274240026
40
0.16339327444600024
40
0.16339327444600024
40
0.16339327444600024
40
0.21785118199049602
40
0.21785118199049602
40
0.21785118199049602
40
0.27285855153307359
40
0.27285855153307359
40
0.27285855153307359
40
0.33468557584974867
40
0.33468557584974867
40
0.33468557584974867
40
0.39586317008885408
40
0.39586317008885408
40
0.39586317008885408
40
0.46073880522076727
40
0.46073880522076727
40
0.46073880522076727
40
0.51991126006364352
40
0.51991126006364352
40
0.51991126006364352
40
0.57567755103056406
40
0.57567755103056406
40
0.57567755103056406
40
0.64287594111953639
40
0.64287594111953639
40
0.64287594111953639
40
0.711417443684629
40
0.711417443684629
40
0.711417443684629
40
0.7677247009297461
40
0.7677247009297461
40
0.7677247009297461
40
0.81521165300342491
40
0.81521165300342491
40
0.81521165300342491
40
0.86140873975256871
40
0.86140873975256871
40
0.86140873975256871
40
0.90439566582961295
40
0.90439566582961295
40
0.90439566582961295
40
0.95265832191345268
40
0.95265832191345268
40
0.95265832191345268
40
1
40
1
40
1
40
1.1179928934301384
40
1.1179928934301384
40
1.1179928934301384
40
1.1179928934301384
10
153.28836920028914
20
-97.375684078287762
30
5.3583945165618975e-16
10
150.72625477552324
20
-95.119273058237255
30
3.5722630110412657e-16
10
148.16414035075726
20
-92.862862038186734
30
1.7861315055206328e-16
10
145.60202592599131
20
-90.606451018136184
30
0
10
143.55295760885301
20
-88.801871063808179
30
-1.7849769621540644e-16
10
141.0773921226444
20
-86.249571549172614
30
-1.5830955404615636e-16
10
138.56910880917545
20
-83.15811697648526
30
-2.4645914559614162e-17
10
136.36312092847558
20
-80.439240968953698
30
9.29087361507777e-17
10
134.18388242089296
20
-77.359462835978576
30
2.8155661954308886e-16
10
132.40519063413211
20
-73.944355377324257
30
2.6951650603797187e-16
10
130.43525837766066
20
-70.162064149471419
30
2.561818697947245e-16
10
128.95114550231145
20
-65.921160150235693
30
-9.1059998912304108e-17
10
128.07146013295812
20
-60.840471590550358
30
-4.6782867105013341e-16
10
127.21252923300455
20
-55.87965201915911
30
-8.3570821742882192e-16
10
126.94348583728676
20
-50.128933025086148
30
-1.0894892849168872e-15
10
127.06944998160475
20
-44.007322294520776
30
-6.5000490450978597e-16
10
127.19668506183537
20
-37.823946567554344
30
-2.0608627429999236e-16
10
127.6800340707935
20
-31.326779251383666
30
1.0404777873474549e-15
10
128.31720350715486
20
-24.903886276011264
30
1.8613756877922452e-15
10
129.03336736962177
20
-17.68470158359699
30
2.784046138576526e-15
10
129.97278178783543
20
-10.548128019047802
30
2.668703047295588e-15
10
131.07543972718591
20
-3.3255749137118769
30
5.5281566301338513e-16
10
132.1665153651237
20
3.8211126089716356
30
-1.5408464739228527e-15
10
133.44811397658668
20
11.113960006887071
30
-5.4472385056306273e-15
10
134.50862155117738
20
18.816747096032095
30
-6.0869494754319993e-15
10
135.63323430065685
20
26.985149448388007
30
-6.765329460504833e-15
10
136.47798174641193
20
35.627792479288374
30
-2.230949925748138e-15
10
136.20254412550523
20
44.627417498328377
30
4.845630230877557e-15
10
135.95132006963291
20
52.835890586247416
30
1.1300112239546864e-14
10
134.73717194619275
20
61.328081036048445
30
1.8168255267796513e-14
10
132.13026905547628
20
69.664718422831925
30
1.5042153159664966e-14
10
129.67342819071533
20
77.521471154006548
30
1.2095999916280386e-14
10
125.97089002235423
20
85.215382484497439
30
-1.1842760480460337e-15
10
121.14426519876017
20
92.319447051114906
30
-1.6650981371558485e-14
10
115.32818146636018
20
100.87984606076003
30
-3.5288363913945769e-14
10
107.90083137036285
20
108.56911116194388
30
-5.2111100342927222e-14
10
99.727170163579729
20
115.05269800109011
30
-3.673765698848127e-14
10
91.390139770006897
20
121.66587405155727
30
-2.1056940445749915e-14
10
82.29923716010093
20
127.02018575073693
30
3.476636065706987e-14
10
73.651302338047827
20
131.1822641577908
30
6.7615677435135254e-14
10
66.546971787343736
20
134.60143664117439
30
9.4601589049668153e-14
10
59.765062530425801
20
137.22150073515397
30
9.5247602700026547e-14
10
53.789465511190933
20
139.35990156869315
30
4.1481195279179152e-14
10
48.74992170907062
20
141.16333052021423
30
-3.8629208665079146e-15
10
44.305642637543478
20
142.63106646612567
30
-8.7863200039108337e-14
10
40.369747211503615
20
144.10669830516829
30
-1.6147827795551789e-13
10
36.540760626931778
20
145.54224826365544
30
-2.3309378478511622e-13
10
33.14146238612242
20
147.00469607279527
30
-2.8736082528269071e-13
10
29.81477198353808
20
148.76577749423382
30
-2.843476934612993e-13
10
26.719247904419483
20
150.40448422243327
30
-2.815439392858492e-13
10
23.67089331036459
20
152.31426784740793
30
-2.2951379817598412e-13
10
20.855341330889306
20
154.36374793580674
30
-1.6214611306523078e-13
10
17.694240287561733
20
156.66475807269788
30
-8.6510478829895914e-14
10
14.881271919609755
20
159.11098918720151
30
1.097478905351264e-15
10
12.835388065811738
20
161.26189782825134
30
3.8509306103440355e-14
10
10.8285450391719
20
163.37176149388262
30
7.5207217564523775e-14
10
9.5762949881988035
20
165.19603483155765
30
6.5243098994589435e-14
10
8.9718326453785284
20
166.42393728271102
30
0
10
5.9812217635856797
20
172.49905259107885
30
-1.6260982579973436e-13
10
2.9906108817928323
20
178.57416789944665
30
-3.2521965159946878e-13
10
-1.5543122344752192e-14
20
184.64928320781451
30
-4.8782947739920309e-13
0
LINE
5
110
100
AcDbEntity
8
0
100
AcDbLine
10
99.746097759915401
20
-155.31607067269235
30
0
11
153.28836920028914
21
-97.375684078287762
31
5.3583945165618975e-16
0
ARC
5
111
100
AcDbEntity
8
0
100
AcDbCircle
10
0
20
-432.5126543554104
30
0
40
294.59672439404471
100
AcDbArc
50
70.209298336218396
51
90
0
ARC
5
112
100
AcDbEntity
8
0
100
AcDbCircle
10
0
20
-432.5126543554104
30
0
40
294.59672439404477
100
AcDbArc
50
90
51
109.7907016637816
0
LINE
5
113
100
AcDbEntity
8
0
100
AcDbLine
10
-99.746097759915443
20
-155.3160706726924
30
0
11
-153.28836920028914
21
-97.375684078287762
31
5.3583945165618975e-16
0
SPLINE
5
114
100
AcDbEntity
8
0
100
AcDbSpline
70
1064
71
3
72
53
73
49
74
0
42
0.000000001
43
0.0000000001
44
0.0000000001
40
0.044365445941033456
40
0.044365445941033456
40
0.044365445941033456
40
0.044365445941033456
40
0.05395070253949568
40
0.05395070253949568
40
0.05395070253949568
40
0.099742201724698443
40
0.099742201724698443
40
0.099742201724698443
40
0.14264880036472852
40
0.14264880036472852
40
0.14264880036472852
40
0.1911393876942194
40
0.1911393876942194
40
0.1911393876942194
40
0.24502417770752841
40
0.24502417770752841
40
0.24502417770752841
40
0.33939615549408736
40
0.33939615549408736
40
0.33939615549408736
40
0.44255083911711635
40
0.44255083911711635
40
0.44255083911711635
40
0.51486770201835252
40
0.51486770201835252
40
0.51486770201835252
40
0.57726124547714019
40
0.57726124547714019
40
0.57726124547714019
40
0.64318508138219177
40
0.64318508138219177
40
0.64318508138219177
40
0.70849027965054368
40
0.70849027965054368
40
0.70849027965054368
40
0.75837665787520081
40
0.75837665787520081
40
0.75837665787520081
40
0.81878249340640064
40
0.81878249340640064
40
0.81878249340640064
40
0.86466115305788083
40
0.86466115305788083
40
0.86466115305788083
40
0.93233057652894047
40
0.93233057652894047
40
0.93233057652894047
40
0.94426059332721046
40
0.94426059332721046
40
0.94426059332721046
40
0.94426059332721046
10
-125.18878207553713
20
-98.314599114054019
30
-9.9129685356689439e-17
10
-124.66000852097272
20
-97.708651993778219
30
-8.5233172651614951e-17
10
-124.12835367998252
20
-97.083696005573344
30
-6.7503931964807618e-17
10
-123.59338500767187
20
-96.436992938558589
30
-4.692084331659698e-17
10
-121.03768738282669
20
-93.347508305353713
30
5.1410430069939726e-17
10
-118.36438026863634
20
-89.745614239302753
30
2.2259830338572624e-16
10
-115.90879316543136
20
-85.455477281047791
30
2.6182503070711412e-16
10
-113.60790998541752
20
-81.435622332990363
30
2.9858044328562542e-16
10
-111.55117063899147
20
-76.799964200589145
30
1.9183240608484661e-16
10
-110.08882956960393
20
-71.766935248868677
30
-5.8440550088381591e-17
10
-108.43617520924452
20
-66.078893370676909
30
-3.4128475173072506e-16
10
-107.5513073816557
20
-59.951536141498607
30
-7.8582153442367019e-16
10
-107.21634015090785
20
-53.790671834909212
30
-8.7761632416605759e-16
10
-106.84411040727655
20
-46.94445903890211
30
-9.7962257407955656e-16
10
-107.09059921658294
20
-40.060916379697844
30
-5.0469008508427629e-16
10
-107.54393012451675
20
-33.311819832347787
30
4.1620844841975067e-16
10
-108.33787836785079
20
-21.491683031433343
30
2.0290386353064691e-15
10
-109.80195778304441
20
-9.9699826836645222
30
3.6026022695796399e-15
10
-111.56687638616843
20
1.3963769839457862
30
4.3950949572860804e-17
10
-113.49604672248817
20
13.82054423102548
30
-3.8458854155208595e-15
10
-115.81265592728214
20
25.9676027347044
30
-9.7949278788940529e-15
10
-116.19902464216713
20
37.792719207417399
30
-6.6201850374282199e-16
10
-116.46988944832343
20
46.082748285238395
30
5.7406316908507621e-15
10
-115.75882803605998
20
54.22052995232999
30
1.758100124725804e-14
10
-113.52994104884139
20
62.059915278298689
30
1.5642968234829281e-14
10
-111.60690191906504
20
68.82358020239829
30
1.3970872099372166e-14
10
-108.5481527268924
20
75.374008781408776
30
-6.8075241494538975e-16
10
-104.27839555108304
20
81.550945593215005
30
-1.7968264091022222e-14
10
-99.767051014313836
20
88.077379999787183
30
-3.6233921397264535e-14
10
-93.891028373634811
20
94.166954972293553
30
-5.1860928823801362e-14
10
-87.204043737450348
20
99.458193334396697
30
-3.6523688111554831e-14
10
-80.57981061314598
20
104.69977804466652
30
-2.1330374011245501e-14
10
-73.195915304852193
20
109.13289759457165
30
2.958901754372863e-14
10
-65.951222667224272
20
112.68782950039723
30
6.3244736815789306e-14
10
-60.41703110781755
20
115.40342768123699
30
8.895420536574633e-14
10
-54.991109046039114
20
117.60983806802389
30
9.7757527744869731e-14
10
-49.888898210610478
20
119.4974177862823
30
6.4302782591614344e-14
10
-43.710792692858675
20
121.78302828900644
30
2.3793491170115508e-14
10
-38.003081753114699
20
123.59542622550988
30
-8.7312786134629551e-14
10
-32.344458050771586
20
125.75981729758097
30
-1.7782068251509233e-13
10
-28.046693295882822
20
127.40368763684585
30
-2.4656207045046765e-13
10
-23.756351158190402
20
129.29080654534351
30
-2.9308324974699876e-13
10
-19.56413922392197
20
131.56894272670547
30
-2.8295112292857497e-13
10
-13.380772778270188
20
134.92911416921078
30
-2.6800658911815272e-13
10
-7.4553622088199774
20
139.07978141725997
30
-1.2608981425797253e-13
10
-2.5181993589029439
20
143.46080980302014
30
-3.0104380155526855e-14
10
-1.6477850312192617
20
144.23317846754952
30
-1.318229359864721e-14
10
-0.80657423164455722
20
145.01452214175171
30
2.1416061904728558e-15
10
2.886579864025407e-14
20
145.80169188533193
30
1.5026332321503838e-14
0
SPLINE
5
115
100
AcDbEntity
8
0
100
AcDbSpline
70
1064
71
3
72
53
73
49
74
0
42
0.000000001
43
0.0000000001
44
0.0000000001
40
0.044365445941033456
40
0.044365445941033456
40
0.044365445941033456
40
0.044365445941033456
40
0.05395070253949568
40
0.05395070253949568
40
0.05395070253949568
40
0.099742201724698443
40
0.099742201724698443
40
0.099742201724698443
40
0.14264880036472852
40
0.14264880036472852
40
0.14264880036472852
40
0.1911393876942194
40
0.1911393876942194
40
0.1911393876942194
40
0.24502417770752841
40
0.24502417770752841
40
0.24502417770752841
40
0.33939615549408736
40
0.33939615549408736
40
0.33939615549408736
40
0.44255083911711635
40
0.44255083911711635
40
0.44255083911711635
40
0.51486770201835252
40
0.51486770201835252
40
0.51486770201835252
40
0.57726124547714019
40
0.57726124547714019
40
0.57726124547714019
40
0.64318508138219177
40
0.64318508138219177
40
0.64318508138219177
40
0.70849027965054368
40
0.70849027965054368
40
0.70849027965054368
40
0.75837665787520081
40
0.75837665787520081
40
0.75837665787520081
40
0.81878249340640064
40
0.81878249340640064
40
0.81878249340640064
40
0.86466115305788083
40
0.86466115305788083
40
0.86466115305788083
40
0.93233057652894047
40
0.93233057652894047
40
0.93233057652894047
40
0.94426059332721046
40
0.94426059332721046
40
0.94426059332721046
40
0.94426059332721046
10
125.18878207553713
20
-98.314599114054019
30
-9.9129685356689439e-17
10
124.66000852097272
20
-97.708651993778219
30
-8.5233172651614951e-17
10
124.12835367998252
20
-97.083696005573344
30
-6.7503931964807618e-17
10
123.59338500767187
20
-96.436992938558589
30
-4.692084331659698e-17
10
121.03768738282669
20
-93.347508305353713
30
5.1410430069939726e-17
10
118.36438026863634
20
-89.745614239302753
30
2.2259830338572624e-16
10
115.90879316543136
20
-85.455477281047791
30
2.6182503070711412e-16
10
113.60790998541752
20
-81.435622332990363
30
2.9858044328562542e-16
10
111.55117063899147
20
-76.799964200589145
30
1.9183240608484661e-16
10
110.08882956960393
20
-71.766935248868677
30
-5.8440550088381591e-17
10
108.43617520924452
20
-66.078893370676909
30
-3.4128475173072506e-16
10
107.5513073816557
20
-59.951536141498607
30
-7.8582153442367019e-16
10
107.21634015090785
20
-53.790671834909212
30
-8.7761632416605759e-16
10
106.84411040727655
20
-46.94445903890211
30
-9.7962257407955656e-16
10
107.09059921658294
20
-40.060916379697844
30
-5.0469008508427629e-16
10
107.54393012451675
20
-33.311819832347787
30
4.1620844841975067e-16
10
108.33787836785079
20
-21.491683031433343
30
2.0290386353064691e-15
10
109.80195778304441
20
-9.9699826836645222
30
3.6026022695796399e-15
10
111.56687638616843
20
1.3963769839457862
30
4.3950949572860804e-17
10
113.49604672248817
20
13.82054423102548
30
-3.8458854155208595e-15
10
115.81265592728214
20
25.9676027347044
30
-9.7949278788940529e-15
10
116.19902464216713
20
37.792719207417399
30
-6.6201850374282199e-16
10
116.46988944832343
20
46.082748285238395
30
5.7406316908507621e-15
10
115.75882803605998
20
54.22052995232999
30
1.758100124725804e-14
10
113.52994104884139
20
62.059915278298689
30
1.5642968234829281e-14
10
111.60690191906504
20
68.82358020239829
30
1.3970872099372166e-14
10
108.5481527268924
20
75.374008781408776
30
-6.8075241494538975e-16
10
104.27839555108304
20
81.550945593215005
30
-1.7968264091022222e-14
10
99.767051014313836
20
88.077379999787183
30
-3.6233921397264535e-14
10
93.891028373634811
20
94.166954972293553
30
-5.1860928823801362e-14
10
87.204043737450348
20
99.458193334396697
30
-3.6523688111554831e-14
10
80.57981061314598
20
104.69977804466652
30
-2.1330374011245501e-14
10
73.195915304852193
20
109.13289759457165
30
2.958901754372863e-14
10
65.951222667224272
20
112.68782950039723
30
6.3244736815789306e-14
10
60.41703110781755
20
115.40342768123699
30
8.895420536574633e-14
10
54.991109046039114
20
117.60983806802389
30
9.7757527744869731e-14
10
49.888898210610478
20
119.4974177862823
30
6.4302782591614344e-14
10
43.710792692858675
20
121.78302828900644
30
2.3793491170115508e-14
10
38.003081753114699
20
123.59542622550988
30
-8.7312786134629551e-14
10
32.344458050771586
20
125.75981729758097
30
-1.7782068251509233e-13
10
28.046693295882822
20
127.40368763684585
30
-2.4656207045046765e-13
10
23.756351158190402
20
129.29080654534351
30
-2.9308324974699876e-13
10
19.56413922392197
20
131.56894272670547
30
-2.8295112292857497e-13
10
13.380772778270188
20
134.92911416921078
30
-2.6800658911815272e-13
10
7.4553622088199774
20
139.07978141725997
30
-1.2608981425797253e-13
10
2.5181993589029439
20
143.46080980302014
30
-3.0104380155526855e-14
10
1.6477850312192617
20
144.23317846754952
30
-1.318229359864721e-14
10
0.80657423164455722
20
145.01452214175171
30
2.1416061904728558e-15
10
-2.886579864025407e-14
20
145.80169188533193
30
1.5026332321503838e-14
0
LINE
5
116
100
AcDbEntity
8
0
100
AcDbLine
10
93.840670320271016
20
-132.23773433493199
30
0
11
125.18878207553713
21
-98.314599114054019
31
-9.9129685356689439e-17
0
ARC
5
117
100
AcDbEntity
8
0
100
AcDbCircle
10
0
20
-432.5126543554104
30
0
40
314.59672439404466
100
AcDbArc
50
72.645148292903045
51
89.999999999999986
0
ARC
5
118
100
AcDbEntity
8
0
100
AcDbCircle
10
0
20
-432.5126543554104
30
0
40
314.59672439404471
100
AcDbArc
50
89.999999999999986
51
107.35485170709696
0
LINE
5
119
100
AcDbEntity
8
0
100
AcDbLine
10
-93.840670320270988
20
-132.23773433493201
30
0
11
-125.18878207553713
21
-98.314599114054019
31
-9.9129685356689439e-17
0
ENDSEC
0
SECTION
2
OBJECTS
0
DICTIONARY
5
C
100
AcDbDictionary
3
ACAD_GROUP
350
D
3
ACAD_MLINESTYLE
350
17
0
DICTIONARY
5
D
100
AcDbDictionary
0
DICTIONARY
5
1A
330
C
100
AcDbDictionary
0
DICTIONARY
5
17
100
AcDbDictionary
0
ENDSEC
0
EOF
