0
SECTION
2
HEADER
9
$INSUNITS
70
4
9
$ACADVER
1
AC1014
9
$HANDSEED
5
FFFF
0
ENDSEC
0
SECTION
2
TABLES
0
TABLE
2
VPORT
5
8
100
AcDbSymbolTable
0
ENDTAB
0
TABLE
2
LTYPE
5
5
100
AcDbSymbolTable
0
LTYPE
5
14
100
AcDbSymbolTableRecord
100
AcDbLinetypeTableRecord
2
BYBLOCK
70
0
0
LTYPE
5
15
100
AcDbSymbolTableRecord
100
AcDbLinetypeTableRecord
2
BYLAYER
70
0
0
ENDTAB
0
TABLE
2
LAYER
5
2
100
AcDbSymbolTable
70
2
0
LAYER
5
50
100
AcDbSymbolTableRecord
100
AcDbLayerTableRecord
2
0
70
0
6
CONTINUOUS
0
ENDTAB
0
TABLE
2
STYLE
5
3
100
AcDbSymbolTable
70
1
0
STYLE
5
11
100
AcDbSymbolTableRecord
100
AcDbTextStyleTableRecord
2
STANDARD
70
0
0
ENDTAB
0
TABLE
2
VIEW
5
6
100
AcDbSymbolTable
70
0
0
ENDTAB
0
TABLE
2
UCS
5
7
100
AcDbSymbolTable
70
0
0
ENDTAB
0
TABLE
2
APPID
5
9
100
AcDbSymbolTable
70
2
0
APPID
5
12
100
AcDbSymbolTableRecord
100
AcDbRegAppTableRecord
2
ACAD
70
0
0
ENDTAB
0
TABLE
2
DIMSTYLE
5
A
100
AcDbSymbolTable
70
1
0
ENDTAB
0
TABLE
2
BLOCK_RECORD
5
1
100
AcDbSymbolTable
70
1
0
BLOCK_RECORD
5
1F
100
AcDbSymbolTableRecord
100
AcDbBlockTableRecord
2
*MODEL_SPACE
0
BLOCK_RECORD
5
1B
100
AcDbSymbolTableRecord
100
AcDbBlockTableRecord
2
*PAPER_SPACE
0
ENDTAB
0
ENDSEC
0
SECTION
2
BLOCKS
0
BLOCK
5
20
100
AcDbEntity
100
AcDbBlockBegin
2
*MODEL_SPACE
0
ENDBLK
5
21
100
AcDbEntity
100
AcDbBlockEnd
0
BLOCK
5
1C
100
AcDbEntity
100
AcDbBlockBegin
2
*PAPER_SPACE
0
ENDBLK
5
1D
100
AcDbEntity
100
AcDbBlockEnd
0
ENDSEC
0
SECTION
2
ENTITIES
0
SPLINE
5
100
100
AcDbEntity
8
0
100
AcDbSpline
70
1064
71
5
72
281
73
275
74
0
42
0.000000001
43
0.0000000001
44
0.0000000001
40
0
40
0
40
0
40
0
40
0
40
0
40
0.0037037037037037038
40
0.0074074074074074077
40
0.011111111111111112
40
0.014814814814814815
40
0.018518518518518517
40
0.02222222222222222
40
0.025925925925925922
40
0.029629629629629624
40
0.033333333333333326
40
0.037037037037037028
40
0.04074074074074073
40
0.044444444444444432
40
0.048148148148148134
40
0.051851851851851836
40
0.055555555555555539
40
0.059259259259259241
40
0.062962962962962943
40
0.066666666666666652
40
0.070370370370370361
40
0.07407407407407407
40
0.077777777777777779
40
0.081481481481481488
40
0.085185185185185197
40
0.088888888888888906
40
0.092592592592592615
40
0.096296296296296324
40
0.10000000000000003
40
0.10370370370370374
40
0.10740740740740745
40
0.11111111111111116
40
0.11481481481481487
40
0.11851851851851858
40
0.12222222222222229
40
0.125925925925926
40
0.12962962962962971
40
0.13333333333333341
40
0.13703703703703712
40
0.14074074074074083
40
0.14444444444444454
40
0.14814814814814825
40
0.15185185185185196
40
0.15555555555555567
40
0.15925925925925938
40
0.16296296296296309
40
0.1666666666666668
40
0.17037037037037051
40
0.17407407407407421
40
0.17777777777777792
40
0.18148148148148163
40
0.18518518518518534
40
0.18888888888888905
40
0.19259259259259276
40
0.19629629629629647
40
0.20000000000000018
40
0.20370370370370389
40
0.2074074074074076
40
0.2111111111111113
40
0.21481481481481501
40
0.21851851851851872
40
0.22222222222222243
40
0.22592592592592614
40
0.22962962962962985
40
0.23333333333333356
40
0.23703703703703727
40
0.24074074074074098
40
0.24444444444444469
40
0.2481481481481484
40
0.2518518518518521
40
0.25555555555555581
40
0.25925925925925952
40
0.26296296296296323
40
0.26666666666666694
40
0.27037037037037065
40
0.27407407407407436
40
0.27777777777777807
40
0.28148148148148178
40
0.28518518518518549
40
0.28888888888888919
40
0.2925925925925929
40
0.29629629629629661
40
0.30000000000000032
40
0.30370370370370403
40
0.30740740740740774
40
0.31111111111111145
40
0.31481481481481516
40
0.31851851851851887
40
0.32222222222222258
40
0.32592592592592629
40
0.32962962962962999
40
0.3333333333333337
40
0.33703703703703741
40
0.34074074074074112
40
0.34444444444444483
40
0.34814814814814854
40
0.35185185185185225
40
0.35555555555555596
40
0.35925925925925967
40
0.36296296296296338
40
0.36666666666666708
40
0.37037037037037079
40
0.3740740740740745
40
0.37777777777777821
40
0.38148148148148192
40
0.38518518518518563
40
0.38888888888888934
40
0.39259259259259305
40
0.39629629629629676
40
0.40000000000000047
40
0.40370370370370418
40
0.40740740740740788
40
0.41111111111111159
40
0.4148148148148153
40
0.41851851851851901
40
0.42222222222222272
40
0.42592592592592643
40
0.42962962962963014
40
0.43333333333333385
40
0.43703703703703756
40
0.44074074074074127
40
0.44444444444444497
40
0.44814814814814868
40
0.45185185185185239
40
0.4555555555555561
40
0.45925925925925981
40
0.46296296296296352
40
0.46666666666666723
40
0.47037037037037094
40
0.47407407407407465
40
0.47777777777777836
40
0.48148148148148207
40
0.48518518518518577
40
0.48888888888888948
40
0.49259259259259319
40
0.4962962962962969
40
0.50000000000000056
40
0.50370370370370421
40
0.50740740740740786
40
0.51111111111111152
40
0.51481481481481517
40
0.51851851851851882
40
0.52222222222222248
40
0.52592592592592613
40
0.52962962962962978
40
0.53333333333333344
40
0.53703703703703709
40
0.54074074074074074
40
0.5444444444444444
40
0.54814814814814805
40
0.5518518518518517
40
0.55555555555555536
40
0.55925925925925901
40
0.56296296296296267
40
0.56666666666666632
40
0.57037037037036997
40
0.57407407407407363
40
0.57777777777777728
40
0.58148148148148093
40
0.58518518518518459
40
0.58888888888888824
40
0.59259259259259189
40
0.59629629629629555
40
0.5999999999999992
40
0.60370370370370285
40
0.60740740740740651
40
0.61111111111111016
40
0.61481481481481381
40
0.61851851851851747
40
0.62222222222222112
40
0.62592592592592478
40
0.62962962962962843
40
0.63333333333333208
40
0.63703703703703574
40
0.64074074074073939
40
0.64444444444444304
40
0.6481481481481467
40
0.65185185185185035
40
0.655555555555554
40
0.65925925925925766
40
0.66296296296296131
40
0.66666666666666496
40
0.67037037037036862
40
0.67407407407407227
40
0.67777777777777592
40
0.68148148148147958
40
0.68518518518518323
40
0.68888888888888689
40
0.69259259259259054
40
0.69629629629629419
40
0.69999999999999785
40
0.7037037037037015
40
0.70740740740740515
40
0.71111111111110881
40
0.71481481481481246
40
0.71851851851851611
40
0.72222222222221977
40
0.72592592592592342
40
0.72962962962962707
40
0.73333333333333073
40
0.73703703703703438
40
0.74074074074073804
40
0.74444444444444169
40
0.74814814814814534
40
0.751851851851849
40
0.75555555555555265
40
0.7592592592592563
40
0.76296296296295996
40
0.76666666666666361
40
0.77037037037036726
40
0.77407407407407092
40
0.77777777777777457
40
0.78148148148147822
40
0.78518518518518188
40
0.78888888888888553
40
0.79259259259258918
40
0.79629629629629284
40
0.79999999999999649
40
0.80370370370370015
40
0.8074074074074038
40
0.81111111111110745
40
0.81481481481481111
40
0.81851851851851476
40
0.82222222222221841
40
0.82592592592592207
40
0.82962962962962572
40
0.83333333333332937
40
0.83703703703703303
40
0.84074074074073668
40
0.84444444444444033
40
0.84814814814814399
40
0.85185185185184764
40
0.85555555555555129
40
0.85925925925925495
40
0.8629629629629586
40
0.86666666666666226
40
0.87037037037036591
40
0.87407407407406956
40
0.87777777777777322
40
0.88148148148147687
40
0.88518518518518052
40
0.88888888888888418
40
0.89259259259258783
40
0.89629629629629148
40
0.89999999999999514
40
0.90370370370369879
40
0.90740740740740244
40
0.9111111111111061
40
0.91481481481480975
40
0.9185185185185134
40
0.92222222222221706
40
0.92592592592592071
40
0.92962962962962437
40
0.93333333333332802
40
0.93703703703703167
40
0.94074074074073533
40
0.94444444444443898
40
0.94814814814814263
40
0.95185185185184629
40
0.95555555555554994
40
0.95925925925925359
40
0.96296296296295725
40
0.9666666666666609
40
0.97037037037036455
40
0.97407407407406821
40
0.97777777777777186
40
0.98148148148147552
40
0.98518518518517917
40
0.98888888888888282
40
0.99259259259258648
40
0.99629629629629013
40
1
40
1
40
1
40
1
40
1
40
1
10
7.1564278779818524
20
-34.095031537866774
30
0
10
7.1862168980003585
20
-34.093931833404568
30
0
10
7.2443101477714755
20
-34.057833053966718
30
0
10
7.3283831729697226
20
-33.901274702043494
30
0
10
7.4411675732802651
20
-33.500666679028981
30
0
10
7.6028453220268597
20
-32.765657301233318
30
0
10
7.8034431126501369
20
-31.909131676870818
30
0
10
8.0559557905481025
20
-31.044811031403725
30
0
10
8.3644198096504514
20
-30.262057798193322
30
0
10
8.7197344646533423
20
-29.598140785392356
30
0
10
9.1026296363645915
20
-29.048572153374835
30
0
10
9.4871627247764572
20
-28.580181262761787
30
0
10
9.8440400155432695
20
-28.143446483606596
30
0
10
10.143975001230515
20
-27.684573155437025
30
0
10
10.361122931504196
20
-27.159089958677797
30
0
10
10.476057633414623
20
-26.538493382215588
30
0
10
10.478346958106307
20
-25.811780597508751
30
0
10
10.369342032191138
20
-24.988650304192539
30
0
10
10.16467319556542
20
-24.101673814001533
30
0
10
9.8973595989122511
20
-23.209720880442035
30
0
10
9.6192502127756345
20
-22.39850961637298
30
0
10
9.3899739593645233
20
-21.760691058325214
30
0
10
9.2667545329534988
20
-21.377189626052839
30
0
10
9.2945294652970247
20
-21.299399943630497
30
0
10
9.4944432581167035
20
-21.527869974666217
30
0
10
9.857721899552109
20
-22.002343687237257
30
0
10
10.356529188131452
20
-22.627442008082767
30
0
10
10.952017993616272
20
-23.292523735817245
30
0
10
11.603233445599916
20
-23.893178970208233
30
0
10
12.276245326749262
20
-24.353574887815618
30
0
10
12.951421937746465
20
-24.643839907467203
30
0
10
13.61834186107221
20
-24.765206351978691
30
0
10
14.272244085169701
20
-24.739155224066455
30
0
10
14.909744298292447
20
-24.594644251787546
30
0
10
15.525182995960511
20
-24.357004159330167
30
0
10
16.105871826043263
20
-24.033904043242806
30
0
10
16.634177707835768
20
-23.619548828653688
30
0
10
17.091138968130061
20
-23.102962020378534
30
0
10
17.459701721479831
20
-22.475258588632819
30
0
10
17.727797565501081
20
-21.736486476332509
30
0
10
17.892270718398748
20
-20.904753108237362
30
0
10
17.959391520721589
20
-20.016175020502626
30
0
10
17.941745812293398
20
-19.115087759158303
30
0
10
17.856098453497673
20
-18.246870415527052
30
0
10
17.720859383631762
20
-17.449707985826898
30
0
10
17.553720413782504
20
-16.746796158949937
30
0
10
17.36921818378384
20
-16.138383376834089
30
0
10
17.176321979179967
20
-15.593788352374254
30
0
10
16.982827184950171
20
-15.066693317109349
30
0
10
16.800080274747565
20
-14.511092999677738
30
0
10
16.647055672120395
20
-13.896125802418471
30
0
10
16.5559279810196
20
-13.223411179658843
30
0
10
16.573396536918374
20
-12.537268893712156
30
0
10
16.742626633314671
20
-11.901285166473091
30
0
10
17.086654529439066
20
-11.378333765519677
30
0
10
17.593436279554599
20
-11.011220094893691
30
0
10
18.194920054476029
20
-10.798382346948882
30
0
10
18.766517399482257
20
-10.687477584357399
30
0
10
19.172504209407169
20
-10.609029338214345
30
0
10
19.298071921364063
20
-10.499067322208056
30
0
10
19.094979902413204
20
-10.331916877508769
30
0
10
18.590559947777486
20
-10.12720190540551
30
0
10
17.854743981790961
20
-9.9277981614249828
30
0
10
16.979212543565584
20
-9.7861254471679366
30
0
10
16.048264722237995
20
-9.7447945831055378
30
0
10
15.132617602197469
20
-9.8327054177835116
30
0
10
14.290611078940042
20
-10.06607431852556
30
0
10
13.567113375245462
20
-10.4479952439032
30
0
10
12.993323822945532
20
-10.968432223527065
30
0
10
12.58631806660013
20
-11.604432630711553
30
0
10
12.348389519563201
20
-12.319252311220145
30
0
10
12.267571256240753
20
-13.06541786355462
30
0
10
12.320231361558205
20
-13.79433849042189
30
0
10
12.473187900781767
20
-14.464351583410789
30
0
10
12.686001807843857
20
-15.04949803395597
30
0
10
12.913227594594733
20
-15.54775844342033
30
0
10
13.106592416550544
20
-15.990121262013687
30
0
10
13.221279229029712
20
-16.417919814575207
30
0
10
13.222067886325526
20
-16.860721423897044
30
0
10
13.089967637704401
20
-17.311847311272558
30
0
10
12.827410533992758
20
-17.711253050024183
30
0
10
12.454817039825086
20
-17.984285453967136
30
0
10
12.007522649553044
20
-18.070575753414001
30
0
10
11.533830861205367
20
-17.965295087893949
30
0
10
11.085992836822287
20
-17.710866611159005
30
0
10
10.707468394017194
20
-17.365620057449426
30
0
10
10.421707131187016
20
-16.980149060542939
30
0
10
10.219426316698872
20
-16.569270297903309
30
0
10
10.072492806983336
20
-16.122896761218229
30
0
10
9.9484906748265249
20
-15.617753482807856
30
0
10
9.8256640899944365
20
-15.029133037617605
30
0
10
9.705965318136192
20
-14.341752525073453
30
0
10
9.6073610240277265
20
-13.549878177320199
30
0
10
9.5577139439884427
20
-12.658361587437842
30
0
10
9.5881829710329125
20
-11.683214205579413
30
0
10
9.7265586471815819
20
-10.652638481519636
30
0
10
9.991254865918556
20
-9.6072596651318012
30
0
10
10.383474374869444
20
-8.6021860209592163
30
0
10
10.885892165133772
20
-7.7027687157651856
30
0
10
11.46955139281906
20
-6.9724480748249373
30
0
10
12.098657198608702
20
-6.4626595696100244
30
0
10
12.736260897015093
20
-6.201785722495389
30
0
10
13.349476313568761
20
-6.1847837113027984
30
0
10
13.91510293221952
20
-6.3618805843091106
30
0
10
14.424492473788952
20
-6.6294761617378235
30
0
10
14.875525953701105
20
-6.8610173370218881
30
0
10
15.265200682175081
20
-6.9360006020120748
30
0
10
15.58195567034835
20
-6.7696933079295221
30
0
10
15.798182875463882
20
-6.3425157951621873
30
0
10
15.879427207373563
20
-5.6864652826777249
30
0
10
15.794020575047352
20
-4.8714531411010444
30
0
10
15.521708037016824
20
-3.9918124321878374
30
0
10
15.064793361691038
20
-3.1524148278323674
30
0
10
14.447215285912147
20
-2.4565525375696415
30
0
10
13.707836827131096
20
-1.9944178121396248
30
0
10
12.895604933462849
20
-1.8317970070858287
30
0
10
12.063843619080766
20
-1.9977806960147957
30
0
10
11.265129903606521
20
-2.4749706559636713
30
0
10
10.545386529092539
20
-3.183342325187652
30
0
10
9.9410136321447453
20
-3.9938297715580093
30
0
10
9.4774606768248297
20
-4.7573470174796597
30
0
10
9.1674346240427553
20
-5.3285107998402959
30
0
10
9.0090712312307204
20
-5.5925963626779165
30
0
10
8.9845562562496237
20
-5.4886940363141896
30
0
10
9.0574151462065977
20
-5.0408071593022612
30
0
10
9.1792412396593583
20
-4.3363591760942741
30
0
10
9.2986578458700855
20
-3.492403306658483
30
0
10
9.3695335762981902
20
-2.6259544857093053
30
0
10
9.3594712387835912
20
-1.8227679774752787
30
0
10
9.2582882280220442
20
-1.1063206609215113
30
0
10
9.0726617252976265
20
-0.45913554357311365
30
0
10
8.8206985250665966
20
0.15592405777573656
30
0
10
8.5264026687928229
20
0.7731537961350774
30
0
10
8.2144884403249172
20
1.4047576972709845
30
0
10
7.9043116093070847
20
2.0135078950247944
30
0
10
7.6067833641192451
20
2.513240322946837
30
0
10
7.3253368750190662
20
2.8123383465089455
30
0
10
7.0562332472507725
20
2.8430865397351739
30
0
10
6.7884099135427265
20
2.6051108751038998
30
0
10
6.5060774426412085
20
2.1739606034979269
30
0
10
6.1974324086659562
20
1.6489345805661486
30
0
10
5.8608550156059227
20
1.1187887550744802
30
0
10
5.5147200246577874
20
0.6101796501706882
30
0
10
5.1927138357362734
20
0.093861056456707601
30
0
10
4.9322590500031289
20
-0.48249201947618642
30
0
10
4.7645161513636509
20
-1.1681582290279537
30
0
10
4.7049843047044577
20
-1.9838131592848727
30
0
10
4.7407699803125443
20
-2.8875315662122167
30
0
10
4.831380335991601
20
-3.7766446440124177
30
0
10
4.9231520525876089
20
-4.5259479733606289
30
0
10
4.9602855171365059
20
-5.0169497659813409
30
0
10
4.8965982871461566
20
-5.1687798627591128
30
0
10
4.7085586253600091
20
-4.9731498701947228
30
0
10
4.4028600719291084
20
-4.5128551138279125
30
0
10
4.0026778333168043
20
-3.916399064071439
30
0
10
3.5375028962521844
20
-3.323328376513798
30
0
10
3.0311734247968425
20
-2.8441668385668106
30
0
10
2.4917820948782925
20
-2.525988674428417
30
0
10
1.9194460758548939
20
-2.3727786424481581
30
0
10
1.3134403345740486
20
-2.3635121455643082
30
0
10
0.67894979761716034
20
-2.4698274656967136
30
0
10
0.035436840786242582
20
-2.6768204613594211
30
0
10
-0.58037548521270832
20
-2.9929746396664929
30
0
10
-1.1250885406947764
20
-3.4325311844069937
30
0
10
-1.5566460119387269
20
-4.00306473091399
30
0
10
-1.8432600400467913
20
-4.6912482339738233
30
0
10
-1.9722088773847286
20
-5.4487919457801661
30
0
10
-1.9579928997135658
20
-6.1799081557666504
30
0
10
-1.8303895657578257
20
-6.7729076566099602
30
0
10
-1.6223146463349079
20
-7.1326503377187684
30
0
10
-1.3594251103567603
20
-7.2081728792511761
30
0
10
-1.0449129748662243
20
-7.0333561542767411
30
0
10
-0.66448185800972459
20
-6.7128433684592377
30
0
10
-0.20340878055730705
20
-6.3743169887292588
30
0
10
0.33768995926745649
20
-6.1259886775058794
30
0
10
0.93353734523727261
20
-6.0265458780382941
30
0
10
1.5465110887117104
20
-6.1012924660910537
30
0
10
2.1350586747366322
20
-6.3493647494066563
30
0
10
2.6629782911813349
20
-6.7540905708545287
30
0
10
3.1100758678569118
20
-7.2930635013627718
30
0
10
3.4714151769020289
20
-7.9417861516608115
30
0
10
3.7523396844964441
20
-8.6745687949453689
30
0
10
3.9649353372431961
20
-9.4663373445757806
30
0
10
4.123816452215161
20
-10.294112583914421
30
0
10
4.2423784513953633
20
-11.138507656991848
30
0
10
4.3283868222355375
20
-11.985542745366722
30
0
10
4.3841057890930877
20
-12.825291417274673
30
0
10
4.407203157116407
20
-13.649897698464832
30
0
10
4.3914408655908863
20
-14.451863880674338
30
0
10
4.3273332191866034
20
-15.222111513414799
30
0
10
4.2031018202529848
20
-15.948402309721949
30
0
10
4.0048141270091833
20
-16.612963406741724
30
0
10
3.7192499897915381
20
-17.192714495637112
30
0
10
3.3403568777120762
20
-17.663335376458843
30
0
10
2.8755812040829549
20
-18.002550924346004
30
0
10
2.3506821908252156
20
-18.193455533476616
30
0
10
1.8190882785910762
20
-18.228506546803573
30
0
10
1.3512956743738671
20
-18.110070310602566
30
0
10
1.0111508208489908
20
-17.848681348762454
30
0
10
0.8363858066688219
20
-17.461982798203834
30
0
10
0.816572215953415
20
-16.973414678345289
30
0
10
0.90919071701755449
20
-16.408965706787185
30
0
10
1.0569889118199582
20
-15.79366764559145
30
0
10
1.203997226332479
20
-15.148466090472079
30
0
10
1.3143791683426551
20
-14.486220409229325
30
0
10
1.3688221572178834
20
-13.814653238428306
30
0
10
1.3572520644057251
20
-13.140357126868231
30
0
10
1.2723478783143671
20
-12.472737659114179
30
0
10
1.1038047169601701
20
-11.827295797751034
30
0
10
0.82958488976942701
20
-11.230901155057417
30
0
10
0.4200548260705273
20
-10.718847393068394
30
0
10
-0.14854869750007182
20
-10.325955637984324
30
0
10
-0.88262769219237203
20
-10.079003395816004
30
0
10
-1.7605455537258434
20
-9.9894988819450337
30
0
10
-2.7176814470458672
20
-10.044160920889556
30
0
10
-3.6465025024495978
20
-10.203602860693419
30
0
10
-4.4271870781033282
20
-10.417734410458516
30
0
10
-4.951399978184269
20
-10.637433670752754
30
0
10
-5.1494386353138335
20
-10.828014926402043
30
0
10
-5.0144776859681937
20
-10.981225430275185
30
0
10
-4.6319856213510207
20
-11.129762760092795
30
0
10
-4.1345126769452856
20
-11.325905862662429
30
0
10
-3.6528433925613193
20
-11.618420937730642
30
0
10
-3.2649683425832849
20
-12.028374137205027
30
0
10
-3.0042626077093693
20
-12.554004599319757
30
0
10
-2.8733616381943792
20
-13.178378903897794
30
0
10
-2.8553149005254985
20
-13.875734582320984
30
0
10
-2.9274116822616598
20
-14.619078086482343
30
0
10
-3.0684511977880118
20
-15.384761319720745
30
0
10
-3.2568912993858836
20
-16.152932128191349
30
0
10
-3.4711660024575224
20
-16.908891538562948
30
0
10
-3.6890866111817422
20
-17.644224295891068
30
0
10
-3.88773239451967
20
-18.357708561719324
30
0
10
-4.0428930690763432
20
-19.057095297037826
30
0
10
-4.1295214751777127
20
-19.757842368178419
30
0
10
-4.1238622073431594
20
-20.476180788995496
30
0
10
-4.0051791447999179
20
-21.223655265709162
30
0
10
-3.7577139549550473
20
-22.000635601013006
30
0
10
-3.3723846733267111
20
-22.791274710913086
30
0
10
-2.8489973264365225
20
-23.555345492978667
30
0
10
-2.1965932368691763
20
-24.231669162881211
30
0
10
-1.4321535435873058
20
-24.751801553193097
30
0
10
-0.57976247987227869
20
-25.050855160618308
30
0
10
0.33041629944115697
20
-25.079495295694137
30
0
10
1.2630835247137857
20
-24.815434219905196
30
0
10
2.178780039718899
20
-24.275143880335811
30
0
10
3.0348525224892873
20
-23.525480256941606
30
0
10
3.7892930083537535
20
-22.667674175425887
30
0
10
4.4046183222263799
20
-21.821178006481773
30
0
10
4.8516564743489425
20
-21.1077779612739
30
0
10
5.1135511086586272
20
-20.635121935104909
30
0
10
5.1892597446345192
20
-20.481595831132985
30
0
10
5.0982685248919113
20
-20.677969529813648
30
0
10
4.8815909411659666
20
-21.198900435285083
30
0
10
4.5924059919560403
20
-21.981760719463036
30
0
10
4.288723590200286
20
-22.940269638239876
30
0
10
4.0249845126681603
20
-23.980557073294367
30
0
10
3.8447250040472842
20
-25.015313999701661
30
0
10
3.7712112374165163
20
-25.981016414946772
30
0
10
3.8090391984368397
20
-26.839436339560617
30
0
10
3.9493093731618267
20
-27.574200401355892
30
0
10
4.1735637286266849
20
-28.18886052080979
30
0
10
4.4583582183655093
20
-28.704613402534523
30
0
10
4.7792835218789955
20
-29.157523945062223
30
0
10
5.1159301395116907
20
-29.597604034673925
30
0
10
5.4526997191710507
20
-30.0786267760915
30
0
10
5.7777320145427371
20
-30.644214721408723
30
0
10
6.0823831162027826
20
-31.31400112629608
30
0
10
6.3605731563347234
20
-32.07222895511039
30
0
10
6.6079448975680712
20
-32.849127845953568
30
0
10
6.8222618154781065
20
-33.534528613538065
30
0
10
6.9681398898556433
20
-33.915895297021585
30
0
10
7.0655760276603292
20
-34.06443128073991
30
0
10
7.1266388579632967
20
-34.096131242328987
30
0
10
7.1564278779818524
20
-34.095031537866774
30
0
0
ARC
5
101
100
AcDbEntity
8
0
100
AcDbCircle
10
-28.469154454425983
20
-13.08805478305236
30
0
40
1.000003470238958
100
AcDbArc
50
90.030825822070511
51
270.1048786312931
0
ARC
5
102
100
AcDbEntity
8
0
100
AcDbCircle
10
-28.468440000178255
20
-13.088803019196941
30
0
40
0.99925382050060474
100
AcDbArc
50
90.015412315123058
51
270.0639914547989
0
ARC
5
103
100
AcDbEntity
8
0
100
AcDbCircle
10
-28.4700985914758
20
-14.83805108411353
30
0
40
0.75000000000000266
100
AcDbArc
50
89.964391745201937
51
270.00012149724228
0
LINE
5
104
100
AcDbEntity
8
0
100
AcDbLine
10
-22.869148150575221
20
-12.088051641233575
30
0
11
-28.524138226536351
21
-12.089564059362614
31
0
0
ARC
5
105
100
AcDbEntity
8
0
100
AcDbCircle
10
-22.86914851937242
20
-14.838051663082471
30
0
40
0.74999998877795016
100
AcDbArc
50
-95.40024875658392
51
89.999987925100882
0
ARC
5
106
100
AcDbEntity
8
0
100
AcDbCircle
10
-28.470096003851747
20
-11.338051084113783
30
0
40
0.74999999999999933
100
AcDbArc
50
89.999993962550391
51
270.03082782266642
0
LINE
5
107
100
AcDbEntity
8
0
100
AcDbLine
10
-22.869147992505564
20
-10.588051674304552
30
0
11
-28.470095924821717
21
-10.588051084113788
31
0
0
LINE
5
108
100
AcDbEntity
8
0
100
AcDbLine
10
-22.869148150565621
20
-12.088051674304543
30
0
11
-28.516316330887278
21
-12.088051079243394
31
0
0
ARC
5
109
100
AcDbEntity
8
0
100
AcDbCircle
10
-28.469154454425983
20
-13.08805478305236
30
0
40
1.000003470238958
100
AcDbArc
50
90.030825822070511
51
270.1048786312931
0
ARC
5
110
100
AcDbEntity
8
0
100
AcDbCircle
10
-22.86913807992789
20
-13.088051674441664
30
0
40
0.99999999991572186
100
AcDbArc
50
-90.000589079937882
51
90.015323665014876
0
LINE
5
111
100
AcDbEntity
8
0
100
AcDbLine
10
-22.869148361312362
20
-14.088051674304531
30
0
11
-28.470098512445773
21
-14.088051084113534
31
0
0
LINE
5
112
100
AcDbEntity
8
0
100
AcDbLine
10
-22.869148150565621
20
-12.088051674304543
30
0
11
-28.516316330887278
21
-12.088051079243394
31
0
0
ARC
5
113
100
AcDbEntity
8
0
100
AcDbCircle
10
-22.86913807992789
20
-13.088051674441664
30
0
40
0.99999999991572186
100
AcDbArc
50
-90.000589079937882
51
90.015323665014876
0
LINE
5
114
100
AcDbEntity
8
0
100
AcDbLine
10
-22.869147992505564
20
-10.588051674304552
30
0
11
-28.470095924821717
21
-10.588051084113788
31
0
0
LINE
5
115
100
AcDbEntity
8
0
100
AcDbLine
10
-22.869148361312362
20
-14.088051674304531
30
0
11
-28.470098512445773
21
-14.088051084113534
31
0
0
ARC
5
116
100
AcDbEntity
8
0
100
AcDbCircle
10
-28.4700985914758
20
-14.83805108411353
30
0
40
0.75000000000000266
100
AcDbArc
50
89.964391745201937
51
270.00012149724228
0
ARC
5
117
100
AcDbEntity
8
0
100
AcDbCircle
10
-28.4700985914758
20
-14.83805108411353
30
0
40
0.75000000000000266
100
AcDbArc
50
89.964391745201937
51
270.00012149724228
0
ARC
5
118
100
AcDbEntity
8
0
100
AcDbCircle
10
-28.470096003851747
20
-11.338051084113783
30
0
40
0.74999999999999933
100
AcDbArc
50
89.999993962550391
51
270.03082782266642
0
ARC
5
119
100
AcDbEntity
8
0
100
AcDbCircle
10
-28.46891089232837
20
-11.338799705466521
30
0
40
0.75074955658428244
100
AcDbArc
50
90.09043774152002
51
270.01542367659363
0
ARC
5
120
100
AcDbEntity
8
0
100
AcDbCircle
10
-22.870076759648725
20
-11.338051800178754
30
0
40
0.75000012587372078
100
AcDbArc
50
-90.008214067857949
51
89.99999396255059
0
LINE
5
121
100
AcDbEntity
8
0
100
AcDbLine
10
-22.86914851937242
20
-15.588051674304523
30
0
11
-28.470097001080617
21
-15.588051084111846
31
0
0
ARC
5
122
100
AcDbEntity
8
0
100
AcDbCircle
10
-22.86914851937242
20
-14.838051663082471
30
0
40
0.74999998877795016
100
AcDbArc
50
-95.40024875658392
51
89.999987925100882
0
ARC
5
123
100
AcDbEntity
8
0
100
AcDbCircle
10
-22.870076759648725
20
-11.338051800178754
30
0
40
0.75000012587372078
100
AcDbArc
50
-90.008214067857949
51
89.99999396255059
0
LINE
5
124
100
AcDbEntity
8
0
100
AcDbLine
10
-22.86914851937242
20
-15.588051674304523
30
0
11
-28.470097001080617
21
-15.588051084111846
31
0
0
ARC
5
125
100
AcDbEntity
8
0
100
AcDbCircle
10
-22.86914851937242
20
-14.838051663082471
30
0
40
0.74999998877795016
100
AcDbArc
50
-95.40024875658392
51
89.999987925100882
0
ARC
5
126
100
AcDbEntity
8
0
100
AcDbCircle
10
-22.86913807992789
20
-13.088051674441664
30
0
40
0.99999999991572186
100
AcDbArc
50
-90.000589079937882
51
90.015323665014876
0
LINE
5
127
100
AcDbEntity
8
0
100
AcDbLine
10
-28.469160423656152
20
-14.08805789178254
30
0
11
-28.469160423656152
21
-14.08805789178254
31
0
0
LINE
5
128
100
AcDbEntity
8
0
100
AcDbLine
10
-22.86914851937242
20
-15.588051674304523
30
0
11
-28.470097001080617
21
-15.588051084111846
31
0
0
LINE
5
129
100
AcDbEntity
8
0
100
AcDbLine
10
-28.469160424279817
20
-14.08805657999773
30
0
11
-28.469160424279817
21
-14.08805657999773
31
0
0
LINE
5
130
100
AcDbEntity
8
0
100
AcDbLine
10
-22.869148361312362
20
-14.088051674304531
30
0
11
-28.470098512445773
21
-14.088051084113534
31
0
0
LINE
5
131
100
AcDbEntity
8
0
100
AcDbLine
10
-28.469160423656152
20
-14.08805789178254
30
0
11
-28.469160423656152
21
-14.08805789178254
31
0
0
ARC
5
132
100
AcDbEntity
8
0
100
AcDbCircle
10
-12.736716792348384
20
14.666224639296443
30
0
40
1.000003470238958
100
AcDbArc
50
90.030825822070199
51
270.10487863129339
0
ARC
5
133
100
AcDbEntity
8
0
100
AcDbCircle
10
-12.736716792348384
20
14.666224639296443
30
0
40
1.000003470238958
100
AcDbArc
50
90.030825822070199
51
270.10487863129339
0
ARC
5
134
100
AcDbEntity
8
0
100
AcDbCircle
10
-12.737660929398197
20
12.916228338235275
30
0
40
0.75000000000000266
100
AcDbArc
50
89.964391745201794
51
270.00012149724239
0
LINE
5
135
100
AcDbEntity
8
0
100
AcDbLine
10
-7.136710488488017
20
15.66622774804426
30
0
11
-12.860651210610229
21
15.666228351195191
31
0
0
ARC
5
136
100
AcDbEntity
8
0
100
AcDbCircle
10
-7.1367108572948155
20
12.916227759266334
30
0
40
0.74999998877795049
100
AcDbArc
50
-95.400248756584062
51
115.13409046529833
0
ARC
5
137
100
AcDbEntity
8
0
100
AcDbCircle
10
-12.737658341774145
20
16.416228338235022
30
0
40
0.74999999999999933
100
AcDbArc
50
89.999993962550548
51
270.03082782266659
0
LINE
5
138
100
AcDbEntity
8
0
100
AcDbLine
10
-7.1367103304279613
20
17.16622774804425
30
0
11
-12.860651052550171
21
17.16622835119518
31
0
0
LINE
5
139
100
AcDbEntity
8
0
100
AcDbLine
10
-7.136710488488017
20
15.66622774804426
30
0
11
-12.860651210610229
21
15.666228351195191
31
0
0
ARC
5
140
100
AcDbEntity
8
0
100
AcDbCircle
10
-12.736716792348384
20
14.666224639296443
30
0
40
1.000003470238958
100
AcDbArc
50
90.030825822070199
51
270.10487863129339
0
ARC
5
141
100
AcDbEntity
8
0
100
AcDbCircle
10
-7.1367004178502844
20
14.666227747907142
30
0
40
1.0000000001371399
100
AcDbArc
50
-109.52880548495122
51
114.03757690028951
0
LINE
5
142
100
AcDbEntity
8
0
100
AcDbLine
10
-7.1367106992347598
20
13.666227748044273
30
0
11
-12.86065142135697
21
13.666228351195201
31
0
0
LINE
5
143
100
AcDbEntity
8
0
100
AcDbLine
10
-7.136710488488017
20
15.66622774804426
30
0
11
-12.860651210610229
21
15.666228351195191
31
0
0
ARC
5
144
100
AcDbEntity
8
0
100
AcDbCircle
10
-7.1367004178502844
20
14.666227747907142
30
0
40
1.0000000001371399
100
AcDbArc
50
-109.52880548495122
51
114.03757690028951
0
LINE
5
145
100
AcDbEntity
8
0
100
AcDbLine
10
-7.1367103304279613
20
17.16622774804425
30
0
11
-12.860651052550171
21
17.16622835119518
31
0
0
LINE
5
146
100
AcDbEntity
8
0
100
AcDbLine
10
-7.1367106992347598
20
13.666227748044273
30
0
11
-12.86065142135697
21
13.666228351195201
31
0
0
ARC
5
147
100
AcDbEntity
8
0
100
AcDbCircle
10
-12.737660929398197
20
12.916228338235275
30
0
40
0.75000000000000266
100
AcDbArc
50
89.964391745201794
51
270.00012149724239
0
LINE
5
148
100
AcDbEntity
8
0
100
AcDbLine
10
-7.1367103304279613
20
17.16622774804425
30
0
11
-12.860651052550171
21
17.16622835119518
31
0
0
ARC
5
149
100
AcDbEntity
8
0
100
AcDbCircle
10
-12.737660929398197
20
12.916228338235275
30
0
40
0.75000000000000266
100
AcDbArc
50
89.964391745201794
51
270.00012149724239
0
ARC
5
150
100
AcDbEntity
8
0
100
AcDbCircle
10
-7.137639097571121
20
16.416227622170048
30
0
40
0.75000012587371923
100
AcDbArc
50
-121.81321601074315
51
106.32527325484936
0
ARC
5
151
100
AcDbEntity
8
0
100
AcDbCircle
10
-12.737658341774145
20
16.416228338235022
30
0
40
0.74999999999999933
100
AcDbArc
50
89.999993962550548
51
270.03082782266659
0
ARC
5
152
100
AcDbEntity
8
0
100
AcDbCircle
10
-12.737658341774145
20
16.416228338235022
30
0
40
0.74999999999999933
100
AcDbArc
50
89.999993962550548
51
270.03082782266659
0
ARC
5
153
100
AcDbEntity
8
0
100
AcDbCircle
10
-7.137639097571121
20
16.416227622170048
30
0
40
0.75000012587371923
100
AcDbArc
50
-121.81321601074315
51
106.32527325484936
0
LINE
5
154
100
AcDbEntity
8
0
100
AcDbLine
10
-7.1367108572948155
20
12.16622774804428
30
0
11
-12.860651579417027
21
12.16622835119521
31
0
0
ARC
5
155
100
AcDbEntity
8
0
100
AcDbCircle
10
-7.1367108572948155
20
12.916227759266334
30
0
40
0.74999998877795049
100
AcDbArc
50
-95.400248756584062
51
115.13409046529833
0
ARC
5
156
100
AcDbEntity
8
0
100
AcDbCircle
10
-7.137639097571121
20
16.416227622170048
30
0
40
0.75000012587371923
100
AcDbArc
50
-121.81321601074315
51
106.32527325484936
0
LINE
5
157
100
AcDbEntity
8
0
100
AcDbLine
10
-7.1367108572948155
20
12.16622774804428
30
0
11
-12.860651579417027
21
12.16622835119521
31
0
0
ARC
5
158
100
AcDbEntity
8
0
100
AcDbCircle
10
-7.1367108572948155
20
12.916227759266334
30
0
40
0.74999998877795049
100
AcDbArc
50
-95.400248756584062
51
115.13409046529833
0
ARC
5
159
100
AcDbEntity
8
0
100
AcDbCircle
10
-7.1367004178502844
20
14.666227747907142
30
0
40
1.0000000001371399
100
AcDbArc
50
-109.52880548495122
51
114.03757690028951
0
LINE
5
160
100
AcDbEntity
8
0
100
AcDbLine
10
-12.736722761578552
20
13.666221530566265
30
0
11
-12.736722761578552
21
13.666221530566265
31
0
0
LINE
5
161
100
AcDbEntity
8
0
100
AcDbLine
10
-7.1367108572948155
20
12.16622774804428
30
0
11
-12.860651579417027
21
12.16622835119521
31
0
0
LINE
5
162
100
AcDbEntity
8
0
100
AcDbLine
10
-12.736722761578552
20
13.666221530566265
30
0
11
-12.736722761578552
21
13.666221530566265
31
0
0
LINE
5
163
100
AcDbEntity
8
0
100
AcDbLine
10
-7.1367106992347598
20
13.666227748044273
30
0
11
-12.86065142135697
21
13.666228351195201
31
0
0
LINE
5
164
100
AcDbEntity
8
0
100
AcDbLine
10
-12.736722761578552
20
13.666221530566265
30
0
11
-12.736722761578552
21
13.666221530566265
31
0
0
ARC
5
165
100
AcDbEntity
8
0
100
AcDbCircle
10
-22.870076759648725
20
-11.338051800178754
30
0
40
0.75000012587372078
100
AcDbArc
50
269.99178593214208
51
270.03886139788659
0
ARC
5
166
100
AcDbEntity
8
0
100
AcDbCircle
10
4.3299039961482588
20
-11.338051084113783
30
0
40
0.74999999999999933
100
AcDbArc
50
89.99999396255032
51
270.03082782266648
0
LINE
5
167
100
AcDbEntity
8
0
100
AcDbLine
10
9.9308518494343865
20
-12.088051674304543
30
0
11
4.2836836691127278
21
-12.088051079243394
31
0
0
LINE
5
168
100
AcDbEntity
8
0
100
AcDbLine
10
9.9308518494247835
20
-12.088051641233575
30
0
11
4.2758617734636539
21
-12.089564059362614
31
0
0
ARC
5
169
100
AcDbEntity
8
0
100
AcDbCircle
10
4.3308455455740225
20
-13.08805478305236
30
0
40
1.000003470238958
100
AcDbArc
50
90.030825822070398
51
270.10487863129316
0
ARC
5
170
100
AcDbEntity
8
0
100
AcDbCircle
10
4.3315599998217502
20
-13.088803019196941
30
0
40
0.99925382050060474
100
AcDbArc
50
90.015412315122958
51
270.06399145479901
0
LINE
5
171
100
AcDbEntity
8
0
100
AcDbLine
10
9.9308518494343865
20
-12.088051674304543
30
0
11
4.2836836691127278
21
-12.088051079243394
31
0
0
ARC
5
172
100
AcDbEntity
8
0
100
AcDbCircle
10
4.3308455455740225
20
-13.08805478305236
30
0
40
1.000003470238958
100
AcDbArc
50
90.030825822070398
51
270.10487863129316
0
LINE
5
173
100
AcDbEntity
8
0
100
AcDbLine
10
9.930852007494444
20
-10.588051674304552
30
0
11
4.3299040751782902
21
-10.588051084113788
31
0
0
LINE
5
174
100
AcDbEntity
8
0
100
AcDbLine
10
9.930851480627588
20
-15.588051674304523
30
0
11
4.3299029989193905
21
-15.588051084111846
31
0
0
LINE
5
175
100
AcDbEntity
8
0
100
AcDbLine
10
4.3308395763438545
20
-14.08805789178254
30
0
11
4.3308395763438545
21
-14.08805789178254
31
0
0
ARC
5
176
100
AcDbEntity
8
0
100
AcDbCircle
10
4.329901408524206
20
-14.83805108411353
30
0
40
0.75000000000000266
100
AcDbArc
50
89.964391745201794
51
270.00012149724239
0
LINE
5
177
100
AcDbEntity
8
0
100
AcDbLine
10
9.930852007494444
20
-10.588051674304552
30
0
11
4.3299040751782902
21
-10.588051084113788
31
0
0
ARC
5
178
100
AcDbEntity
8
0
100
AcDbCircle
10
9.9308619200721182
20
-13.088051674441664
30
0
40
0.99999999991572186
100
AcDbArc
50
-90.000589079937882
51
90.015323665014876
0
ARC
5
179
100
AcDbEntity
8
0
100
AcDbCircle
10
9.9299232403512825
20
-11.338051800178754
30
0
40
0.75000012587372078
100
AcDbArc
50
-90.008214067858034
51
89.999993962550747
0
ARC
5
180
100
AcDbEntity
8
0
100
AcDbCircle
10
9.930851480627588
20
-14.838051663082471
30
0
40
0.74999998877795016
100
AcDbArc
50
-95.40024875658392
51
89.999987925100882
0
ARC
5
181
100
AcDbEntity
8
0
100
AcDbCircle
10
4.3310891076716374
20
-11.338799705466521
30
0
40
0.75074955658428244
100
AcDbArc
50
90.090437741520162
51
270.01542367659357
0
LINE
5
182
100
AcDbEntity
8
0
100
AcDbLine
10
4.330839575720189
20
-14.08805657999773
30
0
11
4.330839575720189
21
-14.08805657999773
31
0
0
ARC
5
183
100
AcDbEntity
8
0
100
AcDbCircle
10
9.930851480627588
20
-14.838051663082471
30
0
40
0.74999998877795016
100
AcDbArc
50
-95.40024875658392
51
89.999987925100882
0
LINE
5
184
100
AcDbEntity
8
0
100
AcDbLine
10
9.930851480627588
20
-15.588051674304523
30
0
11
4.3299029989193905
21
-15.588051084111846
31
0
0
LINE
5
185
100
AcDbEntity
8
0
100
AcDbLine
10
4.3308395763438545
20
-14.08805789178254
30
0
11
4.3308395763438545
21
-14.08805789178254
31
0
0
ARC
5
186
100
AcDbEntity
8
0
100
AcDbCircle
10
4.329901408524206
20
-14.83805108411353
30
0
40
0.75000000000000266
100
AcDbArc
50
89.964391745201794
51
270.00012149724239
0
LINE
5
187
100
AcDbEntity
8
0
100
AcDbLine
10
9.9308516386876455
20
-14.088051674304531
30
0
11
4.329901487554233
21
-14.088051084113534
31
0
0
ARC
5
188
100
AcDbEntity
8
0
100
AcDbCircle
10
9.930851480627588
20
-14.838051663082471
30
0
40
0.74999998877795016
100
AcDbArc
50
-95.40024875658392
51
89.999987925100882
0
LINE
5
189
100
AcDbEntity
8
0
100
AcDbLine
10
9.9308516386876455
20
-14.088051674304531
30
0
11
4.329901487554233
21
-14.088051084113534
31
0
0
ARC
5
190
100
AcDbEntity
8
0
100
AcDbCircle
10
9.9299232403512825
20
-11.338051800178754
30
0
40
0.75000012587372078
100
AcDbArc
50
269.99178593214197
51
270.03886139788659
0
ARC
5
191
100
AcDbEntity
8
0
100
AcDbCircle
10
9.9299232403512825
20
-11.338051800178754
30
0
40
0.75000012587372078
100
AcDbArc
50
-90.008214067858034
51
89.999993962550747
0
LINE
5
192
100
AcDbEntity
8
0
100
AcDbLine
10
9.930851480627588
20
-15.588051674304523
30
0
11
4.3299029989193905
21
-15.588051084111846
31
0
0
LINE
5
193
100
AcDbEntity
8
0
100
AcDbLine
10
9.9308516386876455
20
-14.088051674304531
30
0
11
4.329901487554233
21
-14.088051084113534
31
0
0
ARC
5
194
100
AcDbEntity
8
0
100
AcDbCircle
10
4.329901408524206
20
-14.83805108411353
30
0
40
0.75000000000000266
100
AcDbArc
50
89.964391745201794
51
270.00012149724239
0
ARC
5
195
100
AcDbEntity
8
0
100
AcDbCircle
10
9.9308619200721182
20
-13.088051674441664
30
0
40
0.99999999991572186
100
AcDbArc
50
-90.000589079937882
51
90.015323665014876
0
ARC
5
196
100
AcDbEntity
8
0
100
AcDbCircle
10
4.3299039961482588
20
-11.338051084113783
30
0
40
0.74999999999999933
100
AcDbArc
50
89.99999396255032
51
270.03082782266648
0
ARC
5
197
100
AcDbEntity
8
0
100
AcDbCircle
10
9.9308619200721182
20
-13.088051674441664
30
0
40
0.99999999991572186
100
AcDbArc
50
-90.000589079937882
51
90.015323665014876
0
ENDSEC
0
SECTION
2
OBJECTS
0
DICTIONARY
5
C
100
AcDbDictionary
3
ACAD_GROUP
350
D
3
ACAD_MLINESTYLE
350
17
0
DICTIONARY
5
D
100
AcDbDictionary
0
DICTIONARY
5
1A
330
C
100
AcDbDictionary
0
DICTIONARY
5
17
100
AcDbDictionary
0
ENDSEC
0
EOF
