  0
SECTION
  2
HEADER
  9
$ACADVER
  1
AC1009
  9
$EXTMAX
 10
211.612396240234
 20
20.2089805603027
 30
0.0
  9
$EXTMIN
 10
1.0031137466431
 20
-3.0703191757202
 30
0.0
  9
$INSUNITS
 70
     4
  9
$LUNITS
 70
     2
  9
$LUPREC
 70
     4
  9
$MEASUREMENT
 70
     1
  0
ENDSEC
  0
SECTION
  2
TABLES
  0
TABLE
  2
LAYER
 70
     1
  0
LAYER
  2
0
 70
     0
 62
     7
  6
Continuous
  0
LAYER
  2
Standard
 70
     0
 62
    70
  6
Continuous
  0
ENDTAB
  0
TABLE
  2
APPID
 70
     1
  0
APPID
  2
ACAD
 70
     0
  0
ENDTAB
  0
ENDSEC
  0
SECTION
  2
ENTITIES
  0
POLYLINE
  8
Standard
 66
     1
 10
0.0
 20
0.0
 30
0.0
 70
     1
  0
VERTEX
  8
Standard
 10
6.1552734375
 20
16.642578125
 42
-0.0103007879182
  0
VERTEX
  8
Standard
 10
5.5859375
 20
13.076171875
 42
-0.092788079696
  0
VERTEX
  8
Standard
 10
11.90234375
 20
13.2802734375
 42
-0.6677216220102
  0
VERTEX
  8
Standard
 10
12.439453125
 20
10.884765625
 42
-0.2334782956098
  0
VERTEX
  8
Standard
 10
9.5498046875
 20
10.455078125
 42
0.0927473705264
  0
VERTEX
  8
Standard
 10
5.1025390625
 20
10.0576171875
 42
0.0
  0
VERTEX
  8
Standard
 10
4.0498046875
 20
3.3330078125
 42
-0.6060960953932
  0
VERTEX
  8
Standard
 10
1.2568359375
 20
2.2802734375
 42
-0.2123001103716
  0
VERTEX
  8
Standard
 10
1.03125
 20
3.3330078125
 42
-0.0123717960348
  0
VERTEX
  8
Standard
 10
3.4267578125
 20
18.1572265625
 42
-0.4976109203537
  0
VERTEX
  8
Standard
 10
5.8330078125
 20
19.478515625
 42
-0.1707901242938
  0
VERTEX
  8
Standard
 10
14.3881759517105
 20
18.907824007709
 42
-0.5524226955687
  0
VERTEX
  8
Standard
 10
15.025915423676
 20
17.4413878908409
 42
-0.4228685104397
  0
VERTEX
  8
Standard
 10
12.93359375
 20
16.53515625
 42
0.0934821270591
  0
SEQEND
  0
POLYLINE
  8
Standard
 66
     1
 10
0.0
 20
0.0
 30
0.0
 70
     1
  0
VERTEX
  8
Standard
 10
24.6640625
 20
10.7451171875
 42
-0.4593328788079
  0
VERTEX
  8
Standard
 10
22.4699504452765
 20
9.1373573758307
 42
-0.3694035160398
  0
VERTEX
  8
Standard
 10
21.7958984375
 20
10.498046875
 42
0.0
  0
VERTEX
  8
Standard
 10
21.892578125
 20
11.5830078125
 42
0.222007186255
  0
VERTEX
  8
Standard
 10
18.0361328125
 20
9.0908203125
 42
0.0
  0
VERTEX
  8
Standard
 10
17.1982421875
 20
3.708984375
 42
-0.4711029103764
  0
VERTEX
  8
Standard
 10
14.9837103249588
 20
2.3618327841142
 42
-0.3677722212958
  0
VERTEX
  8
Standard
 10
14.3623046875
 20
3.708984375
 42
-0.0150415429825
  0
VERTEX
  8
Standard
 10
15.8418618294712
 20
12.8274834646619
 42
-0.6833789548875
  0
VERTEX
  8
Standard
 10
18.490617820954
 20
13.6161055343475
 42
-0.1202671098501
  0
VERTEX
  8
Standard
 10
18.6591796875
 20
12.904296875
 42
-0.1517708735183
  0
VERTEX
  8
Standard
 10
23.095703125
 20
14.3330078125
 42
-0.4758714918724
  0
VERTEX
  8
Standard
 10
24.857421875
 20
12.388671875
 42
-0.0901771594277
  0
SEQEND
  0
POLYLINE
  8
Standard
 66
     1
 10
0.0
 20
0.0
 30
0.0
 70
     1
  0
VERTEX
  8
Standard
 10
32.0224609375
 20
3.3759765625
 42
-0.2058851181744
  0
VERTEX
  8
Standard
 10
27.1595208773947
 20
2.5962410599958
 42
-0.3729056993135
  0
VERTEX
  8
Standard
 10
24.427734375
 20
6.48046875
 42
-0.4111156786833
  0
VERTEX
  8
Standard
 10
32.0224609375
 20
14.21484375
 42
-0.1499758435042
  0
VERTEX
  8
Standard
 10
35.2025081268545
 20
13.0688637169159
 42
-0.4626139565093
  0
VERTEX
  8
Standard
 10
35.3203125
 20
11.3359375
 42
0.0703696998823
  0
VERTEX
  8
Standard
 10
34.4501953125
 20
6.39453125
 42
-0.0185594619808
  0
VERTEX
  8
Standard
 10
35.083984375
 20
3.64453125
 42
-0.3602161951154
  0
VERTEX
  8
Standard
 10
33.408203125
 20
2.291015625
 42
-0.1332764846123
  0
SEQEND
  0
POLYLINE
  8
Standard
 66
     1
 10
0.0
 20
0.0
 30
0.0
 70
     1
  0
VERTEX
  8
Standard
 10
32.3984375
 20
11.443359375
 42
0.2818119507867
  0
VERTEX
  8
Standard
 10
30.1660752125162
 20
11.2721903179071
 42
0.3379520987559
  0
VERTEX
  8
Standard
 10
27.5293531500153
 20
6.1464968181263
 42
0.3965522050909
  0
VERTEX
  8
Standard
 10
29.1220703125
 20
4.955078125
 42
0.1667019033873
  0
VERTEX
  8
Standard
 10
31.646484375
 20
5.8359375
 42
-0.09019780527
  0
SEQEND
  0
POLYLINE
  8
Standard
 66
     1
 10
0.0
 20
0.0
 30
0.0
 70
     1
  0
VERTEX
  8
Standard
 10
47.609375
 20
9.208984375
 42
0.0092962335379
  0
VERTEX
  8
Standard
 10
46.79296875
 20
3.5263671875
 42
-0.5098007611085
  0
VERTEX
  8
Standard
 10
44.3448032382288
 20
2.3385607326241
 42
-0.163725134043
  0
VERTEX
  8
Standard
 10
43.892578125
 20
2.95703125
 42
-0.2229769467664
  0
VERTEX
  8
Standard
 10
38.80078125
 20
2.9248046875
 42
-0.2824919815459
  0
VERTEX
  8
Standard
 10
37.5160436884475
 20
4.8743619358563
 42
-0.1103432916595
  0
VERTEX
  8
Standard
 10
38.6587048182495
 20
13.288769648721
 42
-0.5272848621872
  0
VERTEX
  8
Standard
 10
41.20703125
 20
14.12890625
 42
-0.3083054879441
  0
VERTEX
  8
Standard
 10
41.4087938471205
 20
12.4273011533714
 42
0.1072540200448
  0
VERTEX
  8
Standard
 10
40.455078125
 20
5.53515625
 42
0.1380600447714
  0
VERTEX
  8
Standard
 10
41.4326171875
 20
5.2880859375
 42
0.057428333593
  0
VERTEX
  8
Standard
 10
44.0859375
 20
5.62109375
 42
-0.0345247502812
  0
VERTEX
  8
Standard
 10
45.41796875
 20
13.0224609375
 42
-0.5527217208012
  0
VERTEX
  8
Standard
 10
48.060546875
 20
14.0751953125
 42
-0.3026217219014
  0
VERTEX
  8
Standard
 10
48.236009268765
 20
12.1550321854079
 42
-0.007815776242
  0
VERTEX
  8
Standard
 10
47.609375
 20
9.1875
 42
0.0
  0
SEQEND
  0
POLYLINE
  8
Standard
 66
     1
 10
0.0
 20
0.0
 30
0.0
 70
     1
  0
VERTEX
  8
Standard
 10
51.3583984375
 20
6.2333984375
 42
0.3180064741841
  0
VERTEX
  8
Standard
 10
56.6328125
 20
5.70703125
 42
-0.3024147443966
  0
VERTEX
  8
Standard
 10
58.8317288484031
 20
6.0577806039797
 42
-0.4242283858323
  0
VERTEX
  8
Standard
 10
58.5569862857328
 20
4.1289570390493
 42
-0.1969412286899
  0
VERTEX
  8
Standard
 10
53.689453125
 20
2.5166015625
 42
-0.1666181960371
  0
VERTEX
  8
Standard
 10
49.80078125
 20
3.623046875
 42
-0.2400717818209
  0
VERTEX
  8
Standard
 10
48.404296875
 20
6.6201171875
 42
-0.2628123017812
  0
VERTEX
  8
Standard
 10
52.4519489823493
 20
13.5920656605873
 42
-0.2292847335471
  0
VERTEX
  8
Standard
 10
58.4052734375
 20
13.5380859375
 42
-0.5256114301863
  0
VERTEX
  8
Standard
 10
58.6416015625
 20
9.66015625
 42
-0.087613057441
  0
VERTEX
  8
Standard
 10
55.2255859375
 20
7.8447265625
 42
0.0
  0
SEQEND
  0
POLYLINE
  8
Standard
 66
     1
 10
0.0
 20
0.0
 30
0.0
 70
     1
  0
VERTEX
  8
Standard
 10
51.5517578125
 20
8.9619140625
 42
0.0404374322551
  0
VERTEX
  8
Standard
 10
56.654296875
 20
11.228515625
 42
0.3948503647986
  0
VERTEX
  8
Standard
 10
52.1076334619565
 20
9.9220304673263
 42
0.034483651342
  0
SEQEND
  0
POLYLINE
  8
Standard
 66
     1
 10
0.0
 20
0.0
 30
0.0
 70
     1
  0
VERTEX
  8
Standard
 10
65.3984375
 20
12.92578125
 42
-0.2979419138444
  0
VERTEX
  8
Standard
 10
70.1116678279895
 20
14.3162607307543
 42
-0.2832543156332
  0
VERTEX
  8
Standard
 10
71.650390625
 20
11.3896484375
 42
0.033234081842
  0
VERTEX
  8
Standard
 10
70.9951171875
 20
3.708984375
 42
-0.4448975804916
  0
VERTEX
  8
Standard
 10
68.7959548578095
 20
2.2867103013278
 42
-0.3749385915763
  0
VERTEX
  8
Standard
 10
68.01953125
 20
3.4619140625
 42
-0.073515852882
  0
VERTEX
  8
Standard
 10
68.7177734375
 20
10.283203125
 42
0.1765514871721
  0
VERTEX
  8
Standard
 10
68.8064662268336
 20
11.4826151741158
 42
0.3159128701534
  0
VERTEX
  8
Standard
 10
68.5029296875
 20
11.6689453125
 42
0.1965061531332
  0
VERTEX
  8
Standard
 10
66.3330078125
 20
10.455078125
 42
0.1906520818426
  0
VERTEX
  8
Standard
 10
63.8837890625
 20
4.783203125
 42
-0.4847192036517
  0
VERTEX
  8
Standard
 10
62.1005859375
 20
2.4736328125
 42
-0.440747543477
  0
VERTEX
  8
Standard
 10
60.822265625
 20
3.623046875
 42
-0.0353454442994
  0
VERTEX
  8
Standard
 10
61.9737649573601
 20
10.1827955652201
 42
0.0306597960249
  0
VERTEX
  8
Standard
 10
62.43359375
 20
13.3876953125
 42
-0.4428029958985
  0
VERTEX
  8
Standard
 10
64.7664196283775
 20
14.6247128857517
 42
-0.3345233370945
  0
VERTEX
  8
Standard
 10
65.3984375
 20
13.0546875
 42
0.0
  0
SEQEND
  0
POLYLINE
  8
Standard
 66
     1
 10
0.0
 20
0.0
 30
0.0
 70
     1
  0
VERTEX
  8
Standard
 10
79.1376953125
 20
3.5693359375
 42
-0.3902590533884
  0
VERTEX
  8
Standard
 10
73.1865234375
 20
3.5693359375
 42
-0.2883195007813
  0
VERTEX
  8
Standard
 10
72.658478982109
 20
9.2179488510467
 42
-0.3626063354516
  0
VERTEX
  8
Standard
 10
81.5163515235189
 20
13.8200992852087
 42
-0.1655608101504
  0
VERTEX
  8
Standard
 10
82.7900390625
 20
13.01171875
 42
-0.4684291645678
  0
VERTEX
  8
Standard
 10
83.8482919920496
 20
11.1681128392331
 42
0.0134709839105
  0
VERTEX
  8
Standard
 10
81.9521484375
 20
4.07421875
 42
-0.1774096578707
  0
VERTEX
  8
Standard
 10
79.5244140625
 20
-1.4580078125
 42
-0.1900071439345
  0
VERTEX
  8
Standard
 10
74.6904296875
 20
-3.0478515625
 42
-0.1181472764334
  0
VERTEX
  8
Standard
 10
71.4404738895748
 20
-2.539797088277
 42
-0.5348556977895
  0
VERTEX
  8
Standard
 10
71.2099609375
 20
-0.544921875
 42
-0.2628190005887
  0
VERTEX
  8
Standard
 10
73.7021484375
 20
-0.2548828125
 42
0.4458758767326
  0
VERTEX
  8
Standard
 10
78.6372962309087
 20
1.9463894063784
 42
0.0413048478291
  0
SEQEND
  0
POLYLINE
  8
Standard
 66
     1
 10
0.0
 20
0.0
 30
0.0
 70
     1
  0
VERTEX
  8
Standard
 10
80.8564453125
 20
11.12109375
 42
0.3627720737408
  0
VERTEX
  8
Standard
 10
76.2587890625
 20
10.068359375
 42
0.2260907235662
  0
VERTEX
  8
Standard
 10
75.1593430200078
 20
6.0704975407866
 42
0.4832737559617
  0
VERTEX
  8
Standard
 10
77.6240523762289
 20
5.2446183572491
 42
0.2112571399338
  0
VERTEX
  8
Standard
 10
80.3208997329867
 20
9.2986014689146
 42
0.0048611449859
  0
SEQEND
  0
POLYLINE
  8
Standard
 66
     1
 10
0.0
 20
0.0
 30
0.0
 70
     1
  0
VERTEX
  8
Standard
 10
86.861328125
 20
6.2333984375
 42
0.3180064741841
  0
VERTEX
  8
Standard
 10
92.1357421875
 20
5.70703125
 42
-0.3024147443966
  0
VERTEX
  8
Standard
 10
94.3346585359031
 20
6.0577806039797
 42
-0.4242283858323
  0
VERTEX
  8
Standard
 10
94.0599159732328
 20
4.1289570390493
 42
-0.1969412286899
  0
VERTEX
  8
Standard
 10
89.1923828125
 20
2.5166015625
 42
-0.1666181960371
  0
VERTEX
  8
Standard
 10
85.3037109375
 20
3.623046875
 42
-0.2400717818209
  0
VERTEX
  8
Standard
 10
83.9072265625
 20
6.6201171875
 42
-0.2628123017812
  0
VERTEX
  8
Standard
 10
87.9548786698493
 20
13.5920656605873
 42
-0.2292847335471
  0
VERTEX
  8
Standard
 10
93.908203125
 20
13.5380859375
 42
-0.5256114301863
  0
VERTEX
  8
Standard
 10
94.14453125
 20
9.66015625
 42
-0.087613057441
  0
VERTEX
  8
Standard
 10
90.728515625
 20
7.8447265625
 42
0.0
  0
SEQEND
  0
POLYLINE
  8
Standard
 66
     1
 10
0.0
 20
0.0
 30
0.0
 70
     1
  0
VERTEX
  8
Standard
 10
87.0546875
 20
8.9619140625
 42
0.0404374322551
  0
VERTEX
  8
Standard
 10
92.1572265625
 20
11.228515625
 42
0.3948503647986
  0
VERTEX
  8
Standard
 10
87.6105631494565
 20
9.9220304673263
 42
0.034483651342
  0
SEQEND
  0
POLYLINE
  8
Standard
 66
     1
 10
0.0
 20
0.0
 30
0.0
 70
     1
  0
VERTEX
  8
Standard
 10
100.6865234375
 20
12.5068359375
 42
-0.2137458659649
  0
VERTEX
  8
Standard
 10
104.0703125
 20
14.3974609375
 42
-0.3288362228507
  0
VERTEX
  8
Standard
 10
106.2724609375
 20
13.119140625
 42
-0.260548196155
  0
VERTEX
  8
Standard
 10
110.789206898916
 20
14.0863353068528
 42
-0.3092130802299
  0
VERTEX
  8
Standard
 10
112.234375
 20
11.142578125
 42
-0.0050362460694
  0
VERTEX
  8
Standard
 10
112.01953125
 20
3.623046875
 42
-0.4626740028533
  0
VERTEX
  8
Standard
 10
109.770465658686
 20
2.1475934054337
 42
-0.2831531003982
  0
VERTEX
  8
Standard
 10
109.033203125
 20
3.8486328125
 42
0.0
  0
VERTEX
  8
Standard
 10
109.2802734375
 20
9.552734375
 42
0.1346792076192
  0
VERTEX
  8
Standard
 10
109.064796067997
 20
11.3314572771147
 42
0.5115484835352
  0
VERTEX
  8
Standard
 10
108.51832298053
 20
11.3988067168242
 42
0.0457926253067
  0
VERTEX
  8
Standard
 10
106.2080078125
 20
10.154296875
 42
-0.0093673006062
  0
VERTEX
  8
Standard
 10
105.773742414895
 20
3.7630723052793
 42
-0.4377275791857
  0
VERTEX
  8
Standard
 10
103.984375
 20
1.6572265625
 42
-0.4270041263828
  0
VERTEX
  8
Standard
 10
102.6845703125
 20
2.8388671875
 42
0.008084685339
  0
VERTEX
  8
Standard
 10
103.3935546875
 20
11.400390625
 42
0.0877123818965
  0
VERTEX
  8
Standard
 10
100.2890625
 20
8.7900390625
 42
0.0
  0
VERTEX
  8
Standard
 10
99.408203125
 20
3.81640625
 42
-0.4119714170828
  0
VERTEX
  8
Standard
 10
97.1677093875047
 20
2.6639660411187
 42
-0.3205554563898
  0
VERTEX
  8
Standard
 10
96.5185546875
 20
3.923828125
 42
-0.0162633495942
  0
VERTEX
  8
Standard
 10
97.8008804778262
 20
12.829791587289
 42
-0.1511495163981
  0
VERTEX
  8
Standard
 10
98.8425679800047
 20
14.6288797209032
 42
-0.788312265147
  0
VERTEX
  8
Standard
 10
100.834982995041
 20
13.0566159758718
 42
-0.0045867254743
  0
SEQEND
  0
POLYLINE
  8
Standard
 66
     1
 10
0.0
 20
0.0
 30
0.0
 70
     1
  0
VERTEX
  8
Standard
 10
116.251953125
 20
6.2333984375
 42
0.3180064741841
  0
VERTEX
  8
Standard
 10
121.5263671875
 20
5.70703125
 42
-0.3024147443966
  0
VERTEX
  8
Standard
 10
123.725283535903
 20
6.0577806039797
 42
-0.4242283858323
  0
VERTEX
  8
Standard
 10
123.450540973233
 20
4.1289570390493
 42
-0.1969412286899
  0
VERTEX
  8
Standard
 10
118.5830078125
 20
2.5166015625
 42
-0.1666181960371
  0
VERTEX
  8
Standard
 10
114.6943359375
 20
3.623046875
 42
-0.2400717818209
  0
VERTEX
  8
Standard
 10
113.2978515625
 20
6.6201171875
 42
-0.2628123017812
  0
VERTEX
  8
Standard
 10
117.345503669849
 20
13.5920656605873
 42
-0.2292847335471
  0
VERTEX
  8
Standard
 10
123.298828125
 20
13.5380859375
 42
-0.5256114301863
  0
VERTEX
  8
Standard
 10
123.53515625
 20
9.66015625
 42
-0.087613057441
  0
VERTEX
  8
Standard
 10
120.119140625
 20
7.8447265625
 42
0.0
  0
SEQEND
  0
POLYLINE
  8
Standard
 66
     1
 10
0.0
 20
0.0
 30
0.0
 70
     1
  0
VERTEX
  8
Standard
 10
116.4453125
 20
8.9619140625
 42
0.0404374322551
  0
VERTEX
  8
Standard
 10
121.5478515625
 20
11.228515625
 42
0.3948503647986
  0
VERTEX
  8
Standard
 10
117.001188149457
 20
9.9220304673263
 42
0.034483651342
  0
SEQEND
  0
POLYLINE
  8
Standard
 66
     1
 10
0.0
 20
0.0
 30
0.0
 70
     1
  0
VERTEX
  8
Standard
 10
128.8740234375
 20
17.265625
 42
-0.6219358108263
  0
VERTEX
  8
Standard
 10
131.87109375
 20
18.68359375
 42
-0.4667112701808
  0
VERTEX
  8
Standard
 10
131.6884765625
 20
16.4599609375
 42
-0.3914746583275
  0
VERTEX
  8
Standard
 10
129.2822265625
 20
16.3095703125
 42
-0.1797010594719
  0
SEQEND
  0
POLYLINE
  8
Standard
 66
     1
 10
0.0
 20
0.0
 30
0.0
 70
     1
  0
VERTEX
  8
Standard
 10
127.7568359375
 20
2.6669921875
 42
-0.449708228753
  0
VERTEX
  8
Standard
 10
126.45703125
 20
3.8701171875
 42
-0.0173238930394
  0
VERTEX
  8
Standard
 10
128.0146484375
 20
12.8291015625
 42
-0.5797104596516
  0
VERTEX
  8
Standard
 10
130.6357421875
 20
13.935546875
 42
-0.262534186357
  0
VERTEX
  8
Standard
 10
130.910418897523
 20
12.4383720665213
 42
0.0235254516596
  0
VERTEX
  8
Standard
 10
129.4326171875
 20
4.0634765625
 42
-0.3787685175918
  0
SEQEND
  0
POLYLINE
  8
Standard
 66
     1
 10
0.0
 20
0.0
 30
0.0
 70
     1
  0
VERTEX
  8
Standard
 10
136.4580078125
 20
12.92578125
 42
-0.2979419138444
  0
VERTEX
  8
Standard
 10
141.171238140489
 20
14.3162607307543
 42
-0.2832543156332
  0
VERTEX
  8
Standard
 10
142.7099609375
 20
11.3896484375
 42
0.033234081842
  0
VERTEX
  8
Standard
 10
142.0546875
 20
3.708984375
 42
-0.4448975804916
  0
VERTEX
  8
Standard
 10
139.85552517031
 20
2.2867103013278
 42
-0.3749385915763
  0
VERTEX
  8
Standard
 10
139.0791015625
 20
3.4619140625
 42
-0.073515852882
  0
VERTEX
  8
Standard
 10
139.77734375
 20
10.283203125
 42
0.1765514871721
  0
VERTEX
  8
Standard
 10
139.866036539334
 20
11.4826151741158
 42
0.3159128701534
  0
VERTEX
  8
Standard
 10
139.5625
 20
11.6689453125
 42
0.1965061531332
  0
VERTEX
  8
Standard
 10
137.392578125
 20
10.455078125
 42
0.1906520818426
  0
VERTEX
  8
Standard
 10
134.943359375
 20
4.783203125
 42
-0.4847192036517
  0
VERTEX
  8
Standard
 10
133.16015625
 20
2.4736328125
 42
-0.440747543477
  0
VERTEX
  8
Standard
 10
131.8818359375
 20
3.623046875
 42
-0.0353454442994
  0
VERTEX
  8
Standard
 10
133.03333526986
 20
10.1827955652201
 42
0.0306597960249
  0
VERTEX
  8
Standard
 10
133.4931640625
 20
13.3876953125
 42
-0.4428029958985
  0
VERTEX
  8
Standard
 10
135.825989940878
 20
14.6247128857517
 42
-0.3345233370944
  0
VERTEX
  8
Standard
 10
136.4580078125
 20
13.0546875
 42
0.0
  0
SEQEND
  0
POLYLINE
  8
Standard
 66
     1
 10
0.0
 20
0.0
 30
0.0
 70
     1
  0
VERTEX
  8
Standard
 10
151.0244140625
 20
11.7548828125
 42
0.1027857335902
  0
VERTEX
  8
Standard
 10
147.99299203073
 20
11.5921157220035
 42
0.650135828177
  0
VERTEX
  8
Standard
 10
147.536976506643
 20
10.8601208343213
 42
0.0437122395353
  0
VERTEX
  8
Standard
 10
150.43353950328
 20
9.1279749898175
 42
-0.2753493177175
  0
VERTEX
  8
Standard
 10
152.6572265625
 20
6.265625
 42
-0.3263227521453
  0
VERTEX
  8
Standard
 10
149.11322634403
 20
2.6056138919712
 42
-0.1498682572368
  0
VERTEX
  8
Standard
 10
144.224609375
 20
2.8818359375
 42
-0.7086799351117
  0
VERTEX
  8
Standard
 10
143.685361063164
 20
5.486740256037
 42
-0.1693710195453
  0
VERTEX
  8
Standard
 10
145.87890625
 20
5.3310546875
 42
0.2185153665427
  0
VERTEX
  8
Standard
 10
149.25181153817
 20
5.3741766180466
 42
0.5900940074744
  0
VERTEX
  8
Standard
 10
148.886638616736
 20
6.7988543931877
 42
-0.0736321823372
  0
VERTEX
  8
Standard
 10
145.2880859375
 20
8.8544921875
 42
-0.4338808914558
  0
VERTEX
  8
Standard
 10
145.9111328125
 20
13.3447265625
 42
-0.140832997896
  0
VERTEX
  8
Standard
 10
149.316791423959
 20
14.371742329734
 42
-0.0974128743971
  0
VERTEX
  8
Standard
 10
152.785765928838
 20
14.2592226988482
 42
-0.4429701061037
  0
VERTEX
  8
Standard
 10
153.205078125
 20
11.6689453125
 42
-0.8647372283184
  0
SEQEND
  0
POLYLINE
  8
Standard
 66
     1
 10
0.0
 20
0.0
 30
0.0
 70
     1
  0
VERTEX
  8
Standard
 10
153.892578125
 20
6.5234375
 42
-0.2075718321301
  0
VERTEX
  8
Standard
 10
158.028126412518
 20
13.5698285294109
 42
-0.2651790589878
  0
VERTEX
  8
Standard
 10
163.216796875
 20
13.763671875
 42
-0.3365506883419
  0
VERTEX
  8
Standard
 10
164.65625
 20
12.2705078125
 42
-0.6706166544885
  0
VERTEX
  8
Standard
 10
162.0244140625
 20
11.228515625
 42
0.4406371992257
  0
VERTEX
  8
Standard
 10
158.67534322053
 20
10.792973528442
 42
0.1119280418018
  0
VERTEX
  8
Standard
 10
156.85669966178
 20
7.8144440553906
 42
0.470468158183
  0
VERTEX
  8
Standard
 10
158.259847608091
 20
5.1323528548767
 42
0.1849808466461
  0
VERTEX
  8
Standard
 10
161.0791015625
 20
5.578125
 42
-0.0812514347307
  0
VERTEX
  8
Standard
 10
162.5078125
 20
6.1259765625
 42
-0.6373307675918
  0
VERTEX
  8
Standard
 10
163.477780876281
 20
4.2847080746733
 42
-0.1592804820322
  0
VERTEX
  8
Standard
 10
158.8125
 20
2.3232421875
 42
-0.3184695841324
  0
VERTEX
  8
Standard
 10
154.216676659774
 20
4.8500222986654
 42
-0.0789794018201
  0
SEQEND
  0
POLYLINE
  8
Standard
 66
     1
 10
0.0
 20
0.0
 30
0.0
 70
     1
  0
VERTEX
  8
Standard
 10
170.2744140625
 20
12.8291015625
 42
-0.2515478733332
  0
VERTEX
  8
Standard
 10
175.239845517067
 20
14.2516724831101
 42
-0.3677771621074
  0
VERTEX
  8
Standard
 10
176.98828125
 20
11.6259765625
 42
-0.0225604270473
  0
VERTEX
  8
Standard
 10
176.9560546875
 20
10.9599609375
 42
0.0582571540039
  0
VERTEX
  8
Standard
 10
176.5693359375
 20
3.9130859375
 42
-0.4866563424464
  0
VERTEX
  8
Standard
 10
174.219199166708
 20
2.4508870571982
 42
-0.2883305558924
  0
VERTEX
  8
Standard
 10
173.58315824823
 20
3.4429103912186
 42
-0.0838049310675
  0
VERTEX
  8
Standard
 10
173.9482421875
 20
9.6171875
 42
0.1651789503703
  0
VERTEX
  8
Standard
 10
174.037998931832
 20
11.2814725850243
 42
0.301682995406
  0
VERTEX
  8
Standard
 10
173.658203125
 20
11.4970703125
 42
0.2133438579232
  0
VERTEX
  8
Standard
 10
170.857332918009
 20
9.8714660336596
 42
0.0354863742075
  0
VERTEX
  8
Standard
 10
169.6513671875
 20
8.306640625
 42
-0.0562897097911
  0
VERTEX
  8
Standard
 10
168.733721911077
 20
4.0456091381982
 42
-0.5643354879624
  0
VERTEX
  8
Standard
 10
166.095703125
 20
3.0966796875
 42
-0.3738948862232
  0
VERTEX
  8
Standard
 10
165.9560546875
 20
4.71875
 42
0.0099278832171
  0
VERTEX
  8
Standard
 10
167.6748046875
 20
14.794921875
 42
0.0544566557118
  0
VERTEX
  8
Standard
 10
168.166760302822
 20
18.5304723938032
 42
-0.5195538567902
  0
VERTEX
  8
Standard
 10
170.518135267136
 20
20.0910255172296
 42
-0.2889538708805
  0
VERTEX
  8
Standard
 10
171.2197265625
 20
18.533203125
 42
-0.0184413652233
  0
SEQEND
  0
POLYLINE
  8
Standard
 66
     1
 10
0.0
 20
0.0
 30
0.0
 70
     1
  0
VERTEX
  8
Standard
 10
185.28125
 20
3.3759765625
 42
-0.2058851181744
  0
VERTEX
  8
Standard
 10
180.418309939895
 20
2.5962410599958
 42
-0.3729056993135
  0
VERTEX
  8
Standard
 10
177.6865234375
 20
6.48046875
 42
-0.4111156786833
  0
VERTEX
  8
Standard
 10
185.28125
 20
14.21484375
 42
-0.1499758435042
  0
VERTEX
  8
Standard
 10
188.461297189355
 20
13.0688637169159
 42
-0.4626139565096
  0
VERTEX
  8
Standard
 10
188.5791015625
 20
11.3359375
 42
0.0703696998823
  0
VERTEX
  8
Standard
 10
187.708984375
 20
6.39453125
 42
-0.0185594619808
  0
VERTEX
  8
Standard
 10
188.3427734375
 20
3.64453125
 42
-0.3602161951154
  0
VERTEX
  8
Standard
 10
186.6669921875
 20
2.291015625
 42
-0.1332764846123
  0
SEQEND
  0
POLYLINE
  8
Standard
 66
     1
 10
0.0
 20
0.0
 30
0.0
 70
     1
  0
VERTEX
  8
Standard
 10
185.6572265625
 20
11.443359375
 42
0.2818119507867
  0
VERTEX
  8
Standard
 10
183.424864275016
 20
11.2721903179071
 42
0.3379520987559
  0
VERTEX
  8
Standard
 10
180.788142212515
 20
6.1464968181263
 42
0.396552205091
  0
VERTEX
  8
Standard
 10
182.380859375
 20
4.955078125
 42
0.1667019033873
  0
VERTEX
  8
Standard
 10
184.9052734375
 20
5.8359375
 42
-0.09019780527
  0
SEQEND
  0
POLYLINE
  8
Standard
 66
     1
 10
0.0
 20
0.0
 30
0.0
 70
     1
  0
VERTEX
  8
Standard
 10
197.3447265625
 20
14.0322265625
 42
-0.1395642308282
  0
VERTEX
  8
Standard
 10
200.55017338042
 20
13.9974482640263
 42
-0.6656518298499
  0
VERTEX
  8
Standard
 10
200.317404535309
 20
11.6383202059122
 42
-0.0473283210842
  0
VERTEX
  8
Standard
 10
196.796875
 20
11.3359375
 42
-0.017020950112
  0
VERTEX
  8
Standard
 10
195.607555987608
 20
3.9709391590965
 42
-0.1686299522966
  0
VERTEX
  8
Standard
 10
194.562901724603
 20
1.578661297578
 42
-0.3437683774445
  0
VERTEX
  8
Standard
 10
192.5751953125
 20
1.66796875
 42
-0.2681505736998
  0
VERTEX
  8
Standard
 10
192.349609375
 20
2.9140625
 42
0.0437274356598
  0
VERTEX
  8
Standard
 10
193.91796875
 20
11.1748046875
 42
-0.1263855814435
  0
VERTEX
  8
Standard
 10
192.010529339781
 20
11.1180960214187
 42
-0.5213770833773
  0
VERTEX
  8
Standard
 10
191.693876428073
 20
13.2989841402771
 42
-0.1347885452157
  0
VERTEX
  8
Standard
 10
194.4443359375
 20
13.935546875
 42
-0.1419181718297
  0
VERTEX
  8
Standard
 10
196.6357421875
 20
18.7158203125
 42
-0.2115428684287
  0
VERTEX
  8
Standard
 10
201.333567794514
 20
20.1310693131064
 42
-0.565780259278
  0
VERTEX
  8
Standard
 10
202.200803875292
 20
18.1215588192798
 42
-0.2551789347292
  0
VERTEX
  8
Standard
 10
200.384765625
 20
17.373046875
 42
0.3305473443659
  0
VERTEX
  8
Standard
 10
197.788476784945
 20
15.4473005786049
 42
0.0221910389356
  0
SEQEND
  0
POLYLINE
  8
Standard
 66
     1
 10
0.0
 20
0.0
 30
0.0
 70
     1
  0
VERTEX
  8
Standard
 10
210.009765625
 20
11.46484375
 42
0.0084739677277
  0
VERTEX
  8
Standard
 10
207.8720703125
 20
11.443359375
 42
0.064788144463
  0
VERTEX
  8
Standard
 10
206.8408203125
 20
6.544921875
 42
0.1320012299335
  0
VERTEX
  8
Standard
 10
207.025385255909
 20
5.4845656693384
 42
0.4525002815348
  0
VERTEX
  8
Standard
 10
207.932741374314
 20
5.4694566362577
 42
-0.1887421815051
  0
VERTEX
  8
Standard
 10
209.4296875
 20
6.4267578125
 42
-0.611138176201
  0
VERTEX
  8
Standard
 10
210.306931359103
 20
4.0242829811098
 42
-0.3046466135996
  0
VERTEX
  8
Standard
 10
205.61684445335
 20
2.7732617172553
 42
-0.2669778562773
  0
VERTEX
  8
Standard
 10
203.951171875
 20
6.1689453125
 42
-0.0736282932192
  0
VERTEX
  8
Standard
 10
205.0146484375
 20
11.357421875
 42
-0.137644317896
  0
VERTEX
  8
Standard
 10
202.76953125
 20
11.787109375
 42
-0.6979350795404
  0
VERTEX
  8
Standard
 10
203.908203125
 20
14.3974609375
 42
0.0
  0
VERTEX
  8
Standard
 10
205.583984375
 20
14.2470703125
 42
0.0
  0
VERTEX
  8
Standard
 10
205.841796875
 20
16.3955078125
 42
-0.5074072987112
  0
VERTEX
  8
Standard
 10
208.02558878665
 20
17.6200745057282
 42
-0.2528107680013
  0
VERTEX
  8
Standard
 10
208.594666860254
 20
15.1414707639885
 42
-0.0042692983555
  0
VERTEX
  8
Standard
 10
208.462890625
 20
14.3115234375
 42
-0.2551112049724
  0
VERTEX
  8
Standard
 10
211.359223470999
 20
13.8539591148721
 42
-0.6098689070892
  0
SEQEND
  0
ENDSEC
  0
EOF
