  0
SECTION
  2
HEADER
  9
$ACADVER
  1
AC1009
  9
$EXTMAX
 10
104.40357208252
 20
64.3300018310547
 30
0.0
  9
$EXTMIN
 10
0.3266666829586
 20
0.070000000298
 30
0.0
  9
$INSUNITS
 70
     4
  9
$LUNITS
 70
     2
  9
$LUPREC
 70
     4
  9
$MEASUREMENT
 70
     1
  0
ENDSEC
  0
SECTION
  2
TABLES
  0
TABLE
  2
LAYER
 70
     1
  0
LAYER
  2
0
 70
     0
 62
     7
  6
Continuous
  0
LAYER
  2
C18
 70
     0
 62
    18
  6
Continuous
  0
ENDTAB
  0
TABLE
  2
APPID
 70
     1
  0
APPID
  2
ACAD
 70
     0
  0
ENDTAB
  0
ENDSEC
  0
SECTION
  2
ENTITIES
  0
POLYLINE
  8
C18
 66
     1
 10
0.0
 20
0.0
 30
0.0
 70
     1
  0
VERTEX
  8
C18
 10
0.49
 20
1.05
 42
0.0
  0
VERTEX
  8
C18
 10
0.56
 20
0.98
 42
0.0
  0
SEQEND
  0
POLYLINE
  8
C18
 66
     1
 10
0.0
 20
0.0
 30
0.0
 70
     1
  0
VERTEX
  8
C18
 10
0.35
 20
0.98
 42
0.0
  0
VERTEX
  8
C18
 10
0.42
 20
0.91
 42
0.0
  0
SEQEND
  0
POLYLINE
  8
C18
 66
     1
 10
0.0
 20
0.0
 30
0.0
 70
     1
  0
VERTEX
  8
C18
 10
1.26
 20
0.21
 42
0.0
  0
VERTEX
  8
C18
 10
1.33
 20
0.14
 42
0.0
  0
SEQEND
  0
POLYLINE
  8
C18
 66
     1
 10
0.0
 20
0.0
 30
0.0
 70
     1
  0
VERTEX
  8
C18
 10
2.73
 20
0.21
 42
0.0
  0
VERTEX
  8
C18
 10
2.8
 20
0.14
 42
0.0
  0
SEQEND
  0
POLYLINE
  8
C18
 66
     1
 10
0.0
 20
0.0
 30
0.0
 70
     1
  0
VERTEX
  8
C18
 10
0.49
 20
0.14
 42
0.0
  0
VERTEX
  8
C18
 10
0.56
 20
0.07
 42
0.0
  0
SEQEND
  0
POLYLINE
  8
C18
 66
     1
 10
0.0
 20
0.0
 30
0.0
 70
     1
  0
VERTEX
  8
C18
 10
1.26
 20
0.7
 42
0.1054466471069
  0
VERTEX
  8
C18
 10
1.47
 20
0.63
 42
0.105345144207
  0
SEQEND
  0
POLYLINE
  8
C18
 66
     1
 10
0.0
 20
0.0
 30
0.0
 70
     1
  0
VERTEX
  8
C18
 10
1.05
 20
0.21
 42
0.3826801956432
  0
VERTEX
  8
C18
 10
1.19
 20
0.07
 42
0.3824723152261
  0
SEQEND
  0
POLYLINE
  8
C18
 66
     1
 10
0.0
 20
0.0
 30
0.0
 70
     1
  0
VERTEX
  8
C18
 10
21.49
 20
50.26
 42
-0.0586897287155
  0
VERTEX
  8
C18
 10
21.07693
 20
49.442316
 42
-0.0218320329999
  0
VERTEX
  8
C18
 10
20.26003
 20
48.295856
 42
-0.0899527780892
  0
VERTEX
  8
C18
 10
17.64
 20
45.92
 42
-0.075477906925
  0
VERTEX
  8
C18
 10
17.263414
 20
47.172867
 42
-0.0420207527047
  0
VERTEX
  8
C18
 10
17.210242
 20
48.874889
 42
-0.018823009424
  0
VERTEX
  8
C18
 10
17.255882
 20
49.621285
 42
-0.1010133920236
  0
VERTEX
  8
C18
 10
17.360119
 20
50.048901
 42
-0.2243679732257
  0
VERTEX
  8
C18
 10
17.633798
 20
50.260581
 42
-0.0558469574179
  0
VERTEX
  8
C18
 10
18.221714
 20
50.279047
 42
0.0227526112068
  0
VERTEX
  8
C18
 10
18.55
 20
50.26
 42
0.0
  0
SEQEND
  0
POLYLINE
  8
C18
 66
     1
 10
0.0
 20
0.0
 30
0.0
 70
     1
  0
VERTEX
  8
C18
 10
44.31
 20
43.82
 42
0.0
  0
VERTEX
  8
C18
 10
21.91
 20
43.82
 42
0.0125586495097
  0
VERTEX
  8
C18
 10
22.620843
 20
44.881774
 42
0.038897848014
  0
VERTEX
  8
C18
 10
23.353428
 20
46.338243
 42
0.0367531144068
  0
VERTEX
  8
C18
 10
24.159478
 20
48.947941
 42
0.0096350245474
  0
VERTEX
  8
C18
 10
24.43
 20
50.26
 42
0.0
  0
VERTEX
  8
C18
 10
42.98
 20
50.26
 42
-0.023338494157
  0
VERTEX
  8
C18
 10
43.682688
 20
50.297058
 42
-0.1080813975164
  0
VERTEX
  8
C18
 10
44.105915
 20
50.238559
 42
-0.28332809259
  0
VERTEX
  8
C18
 10
44.310224
 20
49.937755
 42
0.0000747785848
  0
SEQEND
  0
POLYLINE
  8
C18
 66
     1
 10
0.0
 20
0.0
 30
0.0
 70
     1
  0
VERTEX
  8
C18
 10
16.87
 20
38.85
 42
0.0251328211609
  0
VERTEX
  8
C18
 10
17.173555
 20
37.479064
 42
-0.0278175149914
  0
VERTEX
  8
C18
 10
17.513671
 20
36.115618
 42
-0.0135713195158
  0
VERTEX
  8
C18
 10
17.57
 20
35.77
 42
0.0
  0
VERTEX
  8
C18
 10
13.72
 20
35.77
 42
-0.072289152107
  0
VERTEX
  8
C18
 10
14.17612
 20
36.381268
 42
-0.0069408849754
  0
VERTEX
  8
C18
 10
15.725962
 20
37.841923
 42
0.0344673091748
  0
VERTEX
  8
C18
 10
16.73
 20
38.85
 42
0.0
  0
SEQEND
  0
POLYLINE
  8
C18
 66
     1
 10
0.0
 20
0.0
 30
0.0
 70
     1
  0
VERTEX
  8
C18
 10
16.24
 20
34.51
 42
-0.0353967129431
  0
VERTEX
  8
C18
 10
15.590071
 20
34.116432
 42
0.0689374482228
  0
VERTEX
  8
C18
 10
14.566769
 20
33.401298
 42
0.1289546037897
  0
VERTEX
  8
C18
 10
13.011383
 20
30.896075
 42
0.0330644849331
  0
VERTEX
  8
C18
 10
12.667914
 20
29.258061
 42
0.048980187584
  0
VERTEX
  8
C18
 10
12.623121
 20
28.645883
 42
-0.0977544760233
  0
VERTEX
  8
C18
 10
12.581198
 20
28.216839
 42
-0.2512315904809
  0
VERTEX
  8
C18
 10
12.312517
 20
27.964104
 42
-0.0543568570209
  0
VERTEX
  8
C18
 10
11.894176
 20
27.929762
 42
0.0022519363856
  0
VERTEX
  8
C18
 10
10.29
 20
27.93
 42
-0.05882572836
  0
VERTEX
  8
C18
 10
9.892463
 20
27.932457
 42
-0.1978705768121
  0
VERTEX
  8
C18
 10
9.667539
 20
28.038626
 42
-0.1249450305079
  0
VERTEX
  8
C18
 10
9.567733
 20
28.418285
 42
-0.0212631245951
  0
VERTEX
  8
C18
 10
9.636781
 20
29.19679
 42
-0.0585559415719
  0
VERTEX
  8
C18
 10
9.989777
 20
30.801869
 42
-0.0998156375833
  0
VERTEX
  8
C18
 10
11.765992
 20
33.74
 42
-0.0216480618014
  0
VERTEX
  8
C18
 10
12.196443
 20
34.241795
 42
-0.1264055996661
  0
VERTEX
  8
C18
 10
12.591054
 20
34.534913
 42
-0.0784974149435
  0
VERTEX
  8
C18
 10
13.157417
 20
34.597556
 42
0.0247636381558
  0
VERTEX
  8
C18
 10
14.269003
 20
34.603982
 42
-0.0317714628584
  0
VERTEX
  8
C18
 10
15.428637
 20
34.630764
 42
-0.0682833658217
  0
SEQEND
  0
POLYLINE
  8
C18
 66
     1
 10
0.0
 20
0.0
 30
0.0
 70
     1
  0
VERTEX
  8
C18
 10
62.44
 20
34.51
 42
0.0
  0
VERTEX
  8
C18
 10
62.44
 20
28.0
 42
0.0
  0
VERTEX
  8
C18
 10
27.79
 20
28.0
 42
0.1373909368154
  0
VERTEX
  8
C18
 10
26.740259
 20
31.639664
 42
0.0920184213023
  0
VERTEX
  8
C18
 10
24.551863
 20
33.98045
 42
0.0210650218782
  0
VERTEX
  8
C18
 10
23.87
 20
34.44
 42
-0.0839650375949
  0
VERTEX
  8
C18
 10
24.425065
 20
34.518652
 42
0.0086934850697
  0
VERTEX
  8
C18
 10
24.78
 20
34.51
 42
0.0
  0
VERTEX
  8
C18
 10
34.09
 20
34.51
 42
-0.022183311987
  0
VERTEX
  8
C18
 10
34.574946
 20
34.52988
 42
-0.1278222637329
  0
VERTEX
  8
C18
 10
34.899641
 20
34.467762
 42
-0.1983127257148
  0
VERTEX
  8
C18
 10
35.067025
 20
34.20606
 42
0.1315538785007
  0
VERTEX
  8
C18
 10
35.542423
 20
32.888541
 42
0.1193492103181
  0
VERTEX
  8
C18
 10
36.89105
 20
31.764264
 42
0.0789430810472
  0
VERTEX
  8
C18
 10
38.658277
 20
31.265927
 42
0.2148040191512
  0
VERTEX
  8
C18
 10
42.918715
 20
32.510821
 42
0.0537670247084
  0
VERTEX
  8
C18
 10
44.305989
 20
34.005335
 42
-0.059342520385
  0
VERTEX
  8
C18
 10
44.572745
 20
34.337779
 42
-0.1694085954309
  0
VERTEX
  8
C18
 10
44.942884
 20
34.509972
 42
-0.0346059744078
  0
VERTEX
  8
C18
 10
45.993248
 20
34.535753
 42
0.0155633744537
  0
VERTEX
  8
C18
 10
46.76
 20
34.51
 42
0.0
  0
SEQEND
  0
POLYLINE
  8
C18
 66
     1
 10
0.0
 20
0.0
 30
0.0
 70
     1
  0
VERTEX
  8
C18
 10
25.06
 20
27.93
 42
0.0
  0
VERTEX
  8
C18
 10
20.58
 20
27.93
 42
0.0461974062164
  0
VERTEX
  8
C18
 10
20.416585
 20
29.170309
 42
-0.0151337689155
  0
VERTEX
  8
C18
 10
20.131195
 20
30.393489
 42
-0.0523731647976
  0
VERTEX
  8
C18
 10
20.02
 20
31.36
 42
-0.0261010367125
  0
VERTEX
  8
C18
 10
21.004655
 20
31.350473
 42
-0.081410866767
  0
VERTEX
  8
C18
 10
22.312017
 20
31.022824
 42
-0.148754019119
  0
VERTEX
  8
C18
 10
24.503143
 20
29.200423
 42
-0.0898679672273
  0
SEQEND
  0
POLYLINE
  8
C18
 66
     1
 10
0.0
 20
0.0
 30
0.0
 70
     1
  0
VERTEX
  8
C18
 10
18.48
 20
30.94
 42
-0.0293742278277
  0
VERTEX
  8
C18
 10
18.716726
 20
30.033787
 42
0.0121402876078
  0
VERTEX
  8
C18
 10
19.005091
 20
28.845257
 42
-0.0532696594809
  0
VERTEX
  8
C18
 10
19.18
 20
27.93
 42
0.0
  0
VERTEX
  8
C18
 10
16.66
 20
27.93
 42
-0.0282983045707
  0
VERTEX
  8
C18
 10
16.099482
 20
27.904884
 42
-0.132288348796
  0
VERTEX
  8
C18
 10
15.770139
 20
27.970635
 42
-0.2926818387454
  0
VERTEX
  8
C18
 10
15.622117
 20
28.254093
 42
-0.0919936948907
  0
VERTEX
  8
C18
 10
15.787625
 20
28.69972
 42
-0.1343259752962
  0
VERTEX
  8
C18
 10
18.033596
 20
30.734515
 42
-0.0187455549009
  0
SEQEND
  0
POLYLINE
  8
C18
 66
     1
 10
0.0
 20
0.0
 30
0.0
 70
     1
  0
VERTEX
  8
C18
 10
21.21
 20
51.381288
 42
0.0024812898953
  0
VERTEX
  8
C18
 10
19.601393
 20
51.441621
 42
0.0110685671946
  0
VERTEX
  8
C18
 10
18.547221
 20
51.436014
 42
-0.0691582543754
  0
VERTEX
  8
C18
 10
17.773462
 20
51.486351
 42
-0.0197388846575
  0
VERTEX
  8
C18
 10
17.64
 20
51.52
 42
-0.0553390216988
  0
VERTEX
  8
C18
 10
18.328471
 20
53.433212
 42
-0.0160486050443
  0
VERTEX
  8
C18
 10
18.649925
 20
54.04
 42
0.0
  0
VERTEX
  8
C18
 10
18.649918
 20
54.04
 42
-0.0552952634465
  0
VERTEX
  8
C18
 10
20.144838
 20
56.167951
 42
-0.0402307366676
  0
VERTEX
  8
C18
 10
20.919367
 20
56.949942
 42
-0.1133204302338
  0
VERTEX
  8
C18
 10
21.441651
 20
57.263514
 42
-0.3119325953761
  0
VERTEX
  8
C18
 10
22.349642
 20
56.97447
 42
-0.0790634206188
  0
VERTEX
  8
C18
 10
22.645616
 20
56.343301
 42
-0.048312333811
  0
VERTEX
  8
C18
 10
22.958467
 20
54.672849
 42
-0.1101520512972
  0
VERTEX
  8
C18
 10
22.676486
 20
52.43
 42
-0.0083884522062
  0
VERTEX
  8
C18
 10
22.535555
 20
51.937529
 42
-0.1367108338701
  0
VERTEX
  8
C18
 10
22.340962
 20
51.562231
 42
-0.1177402497957
  0
VERTEX
  8
C18
 10
21.994742
 20
51.418423
 42
-0.0330713200615
  0
SEQEND
  0
POLYLINE
  8
C18
 66
     1
 10
0.0
 20
0.0
 30
0.0
 70
     1
  0
VERTEX
  8
C18
 10
76.612732
 20
25.13
 42
0.1678286206133
  0
VERTEX
  8
C18
 10
76.061139
 20
22.73838
 42
0.1481115312109
  0
VERTEX
  8
C18
 10
76.623344
 20
21.294434
 42
0.0764810865805
  0
VERTEX
  8
C18
 10
77.31682
 20
20.685273
 42
0.0616933044611
  0
VERTEX
  8
C18
 10
78.4
 20
20.16
 42
-0.0809057588829
  0
VERTEX
  8
C18
 10
77.785435
 20
20.061769
 42
0.005760721109
  0
VERTEX
  8
C18
 10
77.065618
 20
20.089307
 42
0.0
  0
VERTEX
  8
C18
 10
77.0
 20
20.09
 42
0.0
  0
VERTEX
  8
C18
 10
63.98
 20
20.09
 42
0.0019807786006
  0
VERTEX
  8
C18
 10
63.97972
 20
24.570679
 42
-0.00557995864
  0
VERTEX
  8
C18
 10
63.941143
 20
25.761666
 42
-0.040782859041
  0
VERTEX
  8
C18
 10
63.98
 20
26.67
 42
0.0
  0
VERTEX
  8
C18
 10
77.98
 20
26.67
 42
0.0052201878521
  0
VERTEX
  8
C18
 10
77.234178
 20
25.906657
 42
0.0591516299822
  0
SEQEND
  0
POLYLINE
  8
C18
 66
     1
 10
0.0
 20
0.0
 30
0.0
 70
     1
  0
VERTEX
  8
C18
 10
25.659207
 20
21.859978
 42
0.0679039305013
  0
VERTEX
  8
C18
 10
26.621994
 20
23.275378
 42
0.0399078268752
  0
VERTEX
  8
C18
 10
27.349854
 20
25.208498
 42
0.0118409680257
  0
VERTEX
  8
C18
 10
27.72
 20
26.67
 42
0.0
  0
VERTEX
  8
C18
 10
62.51
 20
26.67
 42
0.0
  0
VERTEX
  8
C18
 10
62.51
 20
20.3
 42
-0.0451046788214
  0
VERTEX
  8
C18
 10
61.484745
 20
20.484065
 42
0.0205504303006
  0
VERTEX
  8
C18
 10
60.469549
 20
20.758752
 42
0.0586025535019
  0
VERTEX
  8
C18
 10
59.295929
 20
20.860525
 42
0.0723662844806
  0
VERTEX
  8
C18
 10
57.54
 20
20.586748
 42
0.016729035545
  0
VERTEX
  8
C18
 10
56.882777
 20
20.308442
 42
-0.0850096417421
  0
VERTEX
  8
C18
 10
55.949292
 20
20.056022
 42
-0.027843669686
  0
VERTEX
  8
C18
 10
54.738019
 20
20.049316
 42
0.0182455109825
  0
VERTEX
  8
C18
 10
53.69
 20
20.09
 42
0.0
  0
VERTEX
  8
C18
 10
23.31
 20
20.09
 42
-0.0450677756206
  0
VERTEX
  8
C18
 10
24.161305
 20
20.760663
 42
0.0211359880728
  0
VERTEX
  8
C18
 10
25.0831
 20
21.366555
 42
0.0500269579566
  0
VERTEX
  8
C18
 10
25.659207
 20
21.859985
 42
0.0
  0
SEQEND
  0
POLYLINE
  8
C18
 66
     1
 10
0.0
 20
0.0
 30
0.0
 70
     1
  0
VERTEX
  8
C18
 10
15.34253
 20
26.57774
 42
-0.1783470834794
  0
VERTEX
  8
C18
 10
15.651741
 20
26.74497
 42
-0.039783862495
  0
VERTEX
  8
C18
 10
16.207625
 20
26.747595
 42
0.0173622740844
  0
VERTEX
  8
C18
 10
16.38
 20
26.74
 42
0.0
  0
VERTEX
  8
C18
 10
19.39
 20
26.74
 42
0.0157944148192
  0
VERTEX
  8
C18
 10
19.753622
 20
24.77608
 42
-0.0108314694029
  0
VERTEX
  8
C18
 10
20.258294
 20
22.186731
 42
0.0215832273444
  0
VERTEX
  8
C18
 10
20.58
 20
20.58
 42
0.0189856479671
  0
VERTEX
  8
C18
 10
19.669951
 20
20.384448
 42
-0.0276861505479
  0
VERTEX
  8
C18
 10
19.04
 20
20.249222
 42
-0.0682278872431
  0
VERTEX
  8
C18
 10
16.080848
 20
20.171648
 42
-0.1521116657318
  0
VERTEX
  8
C18
 10
12.758837
 20
21.563899
 42
-0.0772208381507
  0
VERTEX
  8
C18
 10
11.123476
 20
23.505517
 42
-0.0323208109989
  0
VERTEX
  8
C18
 10
10.386684
 20
24.976266
 42
-0.0462146457792
  0
VERTEX
  8
C18
 10
9.978129
 20
26.110091
 42
-0.0448630734175
  0
VERTEX
  8
C18
 10
9.87
 20
26.74
 42
0.0
  0
VERTEX
  8
C18
 10
11.9
 20
26.74
 42
-0.0399226958502
  0
VERTEX
  8
C18
 10
12.305937
 20
26.746846
 42
-0.1507621629066
  0
VERTEX
  8
C18
 10
12.555186
 20
26.669594
 42
-0.1452960589968
  0
VERTEX
  8
C18
 10
12.710229
 20
26.379857
 42
0.0468816091305
  0
VERTEX
  8
C18
 10
13.037661
 20
25.378759
 42
0.0668460166665
  0
VERTEX
  8
C18
 10
14.25865
 20
23.348353
 42
0.0798713305655
  0
VERTEX
  8
C18
 10
15.68
 20
22.026662
 42
0.000926152203
  0
VERTEX
  8
C18
 10
16.188039
 20
21.617043
 42
0.0974917059875
  0
VERTEX
  8
C18
 10
16.650529
 20
21.338163
 42
0.3029752997856
  0
VERTEX
  8
C18
 10
17.278366
 20
21.464716
 42
0.2173744919406
  0
VERTEX
  8
C18
 10
17.382197
 20
21.891352
 42
0.1126246736664
  0
VERTEX
  8
C18
 10
17.056991
 20
22.54
 42
0.0
  0
VERTEX
  8
C18
 10
17.056984
 20
22.54
 42
-0.014424595681
  0
VERTEX
  8
C18
 10
16.218272
 20
23.545984
 42
-0.076224940067
  0
VERTEX
  8
C18
 10
15.529682
 20
24.670485
 42
-0.0566610063862
  0
VERTEX
  8
C18
 10
15.272369
 20
25.669406
 42
-0.0718917736822
  0
VERTEX
  8
C18
 10
15.243998
 20
26.26421
 42
-0.1329806691265
  0
SEQEND
  0
POLYLINE
  8
C18
 66
     1
 10
0.0
 20
0.0
 30
0.0
 70
     1
  0
VERTEX
  8
C18
 10
82.04
 20
28.553728
 42
0.0490649882272
  0
VERTEX
  8
C18
 10
81.010391
 20
28.335069
 42
-0.0289582599137
  0
VERTEX
  8
C18
 10
80.07916
 20
28.056644
 42
-0.0587632107116
  0
VERTEX
  8
C18
 10
79.31091
 20
27.987799
 42
0.0102878783639
  0
VERTEX
  8
C18
 10
78.82
 20
28.0
 42
0.0
  0
VERTEX
  8
C18
 10
63.91
 20
28.0
 42
0.0
  0
VERTEX
  8
C18
 10
63.91
 20
34.51
 42
0.0
  0
VERTEX
  8
C18
 10
85.61
 20
34.51
 42
0.00124650061
  0
VERTEX
  8
C18
 10
85.664607
 20
31.291428
 42
0.0013008960879
  0
VERTEX
  8
C18
 10
85.68126
 20
29.748558
 42
-0.0126816847129
  0
VERTEX
  8
C18
 10
85.714132
 20
28.699027
 42
-0.0349857197258
  0
VERTEX
  8
C18
 10
85.68
 20
28.07
 42
-0.0045133097095
  0
VERTEX
  8
C18
 10
84.179326
 20
28.352681
 42
0.0443552887272
  0
VERTEX
  8
C18
 10
82.669825
 20
28.559412
 42
0.0294475926239
  0
VERTEX
  8
C18
 10
82.04
 20
28.553735
 42
0.0
  0
SEQEND
  0
POLYLINE
  8
C18
 66
     1
 10
0.0
 20
0.0
 30
0.0
 70
     1
  0
VERTEX
  8
C18
 10
25.181737
 20
24.92
 42
-0.0924552678499
  0
VERTEX
  8
C18
 10
24.452771
 20
22.924839
 42
-0.1164381115298
  0
VERTEX
  8
C18
 10
23.222962
 20
21.584871
 42
-0.0906621924124
  0
VERTEX
  8
C18
 10
22.05
 20
21.07
 42
-0.0498853978401
  0
VERTEX
  8
C18
 10
21.819133
 20
21.964012
 42
0.0203840324075
  0
VERTEX
  8
C18
 10
21.667765
 20
22.961547
 42
0.0038437340085
  0
VERTEX
  8
C18
 10
21.26313
 20
24.990364
 42
-0.0041413358212
  0
VERTEX
  8
C18
 10
21.035763
 20
25.964652
 42
-0.0560021326498
  0
VERTEX
  8
C18
 10
20.93
 20
26.74
 42
0.0
  0
VERTEX
  8
C18
 10
24.01
 20
26.74
 42
-0.0177103843452
  0
VERTEX
  8
C18
 10
24.641939
 20
26.775364
 42
-0.1092544784283
  0
VERTEX
  8
C18
 10
25.05909
 20
26.722549
 42
-0.2808752359657
  0
VERTEX
  8
C18
 10
25.25929
 20
26.478935
 42
-0.0517914357341
  0
VERTEX
  8
C18
 10
25.215778
 20
25.130119
 42
-0.0116738374514
  0
SEQEND
  0
POLYLINE
  8
C18
 66
     1
 10
0.0
 20
0.0
 30
0.0
 70
     1
  0
VERTEX
  8
C18
 10
20.853728
 20
18.73774
 42
-0.1104864382431
  0
VERTEX
  8
C18
 10
20.992279
 20
18.342044
 42
0.0096911654806
  0
VERTEX
  8
C18
 10
21.148967
 20
17.221799
 42
-0.0305974860157
  0
VERTEX
  8
C18
 10
21.282485
 20
16.1
 42
0.0
  0
VERTEX
  8
C18
 10
21.282478
 20
16.1
 42
0.0037186975461
  0
VERTEX
  8
C18
 10
21.412636
 20
14.774774
 42
-0.044818349268
  0
VERTEX
  8
C18
 10
21.470953
 20
13.494544
 42
-0.1257635530519
  0
VERTEX
  8
C18
 10
20.9944
 20
11.863663
 42
-0.0552578091808
  0
VERTEX
  8
C18
 10
20.021372
 20
10.647203
 42
-0.017621800329
  0
VERTEX
  8
C18
 10
19.32
 20
10.000872
 42
0.0
  0
VERTEX
  8
C18
 10
19.32
 20
10.000865
 42
-0.0561213407448
  0
VERTEX
  8
C18
 10
18.089197
 20
9.115862
 42
-0.0884511409777
  0
VERTEX
  8
C18
 10
16.989973
 20
8.694308
 42
-0.1065261334657
  0
VERTEX
  8
C18
 10
15.898274
 20
8.738093
 42
-0.0505615767802
  0
VERTEX
  8
C18
 10
14.710738
 20
9.222304
 42
-0.0791595341563
  0
VERTEX
  8
C18
 10
14.053487
 20
9.655569
 42
-0.0471281444266
  0
VERTEX
  8
C18
 10
13.86
 20
9.87
 42
0.086870019287
  0
VERTEX
  8
C18
 10
14.702366
 20
9.862727
 42
0.0732575788082
  0
VERTEX
  8
C18
 10
15.980965
 20
10.242617
 42
0.1574164953949
  0
VERTEX
  8
C18
 10
17.234945
 20
11.384842
 42
0.1691005377883
  0
VERTEX
  8
C18
 10
17.708103
 20
14.050421
 42
0.1201178786925
  0
VERTEX
  8
C18
 10
17.255665
 20
15.230915
 42
0.1259974412942
  0
VERTEX
  8
C18
 10
16.084523
 20
16.173675
 42
0.1936410946613
  0
VERTEX
  8
C18
 10
12.98234
 20
16.284765
 42
0.1272376545193
  0
VERTEX
  8
C18
 10
11.77274
 20
15.507709
 42
0.0
  0
VERTEX
  8
C18
 10
11.733099
 20
15.463735
 42
0.0
  0
VERTEX
  8
C18
 10
11.733099
 20
15.463728
 42
0.2640383608506
  0
VERTEX
  8
C18
 10
10.821559
 20
10.891944
 42
0.1221780658207
  0
VERTEX
  8
C18
 10
11.921217
 20
9.087974
 42
0.0599240733205
  0
VERTEX
  8
C18
 10
13.151173
 20
8.189636
 42
0.1764621864075
  0
VERTEX
  8
C18
 10
17.852835
 20
7.315735
 42
0.1356909214817
  0
VERTEX
  8
C18
 10
20.729954
 20
8.602853
 42
0.1442971279558
  0
VERTEX
  8
C18
 10
22.428931
 20
11.098409
 42
0.0369849250242
  0
VERTEX
  8
C18
 10
22.769985
 20
12.67
 42
0.0
  0
VERTEX
  8
C18
 10
22.769978
 20
12.67
 42
0.0466559764809
  0
VERTEX
  8
C18
 10
22.96112
 20
15.748544
 42
0.026766015345
  0
VERTEX
  8
C18
 10
22.775991
 20
17.792089
 42
0.0505655814977
  0
VERTEX
  8
C18
 10
22.54
 20
18.83
 42
-0.0617812044258
  0
VERTEX
  8
C18
 10
23.518334
 20
18.895226
 42
0.0155421997143
  0
VERTEX
  8
C18
 10
24.498929
 20
18.825296
 42
0.0016571444075
  0
VERTEX
  8
C18
 10
25.760322
 20
18.829825
 42
0.0011849996599
  0
VERTEX
  8
C18
 10
46.058348
 20
18.875227
 42
-0.0013649237993
  0
VERTEX
  8
C18
 10
54.88
 20
18.9
 42
-0.0030587762498
  0
VERTEX
  8
C18
 10
54.196947
 20
18.014367
 42
0.0640087398768
  0
VERTEX
  8
C18
 10
53.620637
 20
17.123204
 42
0.0853093703489
  0
VERTEX
  8
C18
 10
53.338131
 20
16.036314
 42
0.0857680753198
  0
VERTEX
  8
C18
 10
53.425267
 20
14.567651
 42
0.2069993871505
  0
VERTEX
  8
C18
 10
54.927824
 20
12.519017
 42
0.0930207962286
  0
VERTEX
  8
C18
 10
56.596351
 20
11.97266
 42
0.1407547450233
  0
VERTEX
  8
C18
 10
60.114271
 20
12.511779
 42
0.0875876812734
  0
VERTEX
  8
C18
 10
61.671022
 20
13.630785
 42
0.0313772618553
  0
VERTEX
  8
C18
 10
62.609757
 20
14.77
 42
0.0134273158729
  0
VERTEX
  8
C18
 10
63.037198
 20
15.327291
 42
0.0652243327296
  0
VERTEX
  8
C18
 10
63.379757
 20
15.995707
 42
0.0629718093214
  0
VERTEX
  8
C18
 10
63.818363
 20
18.224808
 42
0.0173445282242
  0
VERTEX
  8
C18
 10
63.84
 20
18.83
 42
0.0
  0
VERTEX
  8
C18
 10
104.37
 20
18.9
 42
0.0
  0
VERTEX
  8
C18
 10
104.3
 20
20.09
 42
0.0
  0
VERTEX
  8
C18
 10
93.8
 20
20.02
 42
0.0
  0
VERTEX
  8
C18
 10
82.67
 20
20.09
 42
-0.0014577640976
  0
VERTEX
  8
C18
 10
83.637631
 20
20.65245
 42
0.0567102063692
  0
VERTEX
  8
C18
 10
84.55972
 20
21.291123
 42
0.1261348973293
  0
VERTEX
  8
C18
 10
86.355451
 20
23.982959
 42
0.0786508814294
  0
VERTEX
  8
C18
 10
86.799741
 20
26.670322
 42
0.0
  0
VERTEX
  8
C18
 10
86.8
 20
26.74
 42
0.0482556448288
  0
VERTEX
  8
C18
 10
87.77741
 20
26.701213
 42
-0.0213812080442
  0
VERTEX
  8
C18
 10
88.62
 20
26.74
 42
0.0
  0
VERTEX
  8
C18
 10
104.3
 20
26.74
 42
0.0
  0
VERTEX
  8
C18
 10
104.37
 20
27.93
 42
0.0004822938093
  0
VERTEX
  8
C18
 10
95.409545
 20
27.875834
 42
-0.0019844290071
  0
VERTEX
  8
C18
 10
88.2
 20
27.86
 42
-0.0197118532161
  0
VERTEX
  8
C18
 10
87.564701
 20
27.829802
 42
-0.1016526023611
  0
VERTEX
  8
C18
 10
87.136539
 20
27.888497
 42
-0.108568288268
  0
VERTEX
  8
C18
 10
86.982231
 20
27.981954
 42
-0.1644534826796
  0
VERTEX
  8
C18
 10
86.871484
 20
28.289534
 42
-0.0005336338959
  0
VERTEX
  8
C18
 10
86.87
 20
34.58
 42
0.0
  0
VERTEX
  8
C18
 10
104.37
 20
34.58
 42
0.0
  0
VERTEX
  8
C18
 10
104.37
 20
35.77
 42
0.0004615730053
  0
VERTEX
  8
C18
 10
95.271036
 20
35.71554
 42
-0.0019468555407
  0
VERTEX
  8
C18
 10
88.06
 20
35.7
 42
-0.0308117412655
  0
VERTEX
  8
C18
 10
87.453954
 20
35.683795
 42
-0.116750972955
  0
VERTEX
  8
C18
 10
87.060967
 20
35.768362
 42
-0.0991341274545
  0
VERTEX
  8
C18
 10
86.912231
 20
35.880075
 42
-0.15041405967
  0
VERTEX
  8
C18
 10
86.79832
 20
36.265572
 42
0.0006023973236
  0
VERTEX
  8
C18
 10
86.8
 20
42.49
 42
-0.0270538517032
  0
VERTEX
  8
C18
 10
89.309038
 20
42.624288
 42
-0.0012337095407
  0
VERTEX
  8
C18
 10
91.916909
 20
42.572936
 42
0.0060973279767
  0
VERTEX
  8
C18
 10
92.96
 20
42.56
 42
0.0
  0
VERTEX
  8
C18
 10
104.37
 20
42.56
 42
0.0
  0
VERTEX
  8
C18
 10
104.37
 20
43.75
 42
0.0
  0
VERTEX
  8
C18
 10
88.83
 20
43.75
 42
-0.0089061449416
  0
VERTEX
  8
C18
 10
87.773644
 20
43.727257
 42
-0.0679152729526
  0
VERTEX
  8
C18
 10
86.8
 20
43.82
 42
0.0604033468754
  0
VERTEX
  8
C18
 10
86.875922
 20
44.51636
 42
0.0186642170994
  0
VERTEX
  8
C18
 10
86.810976
 20
46.829748
 42
0.0
  0
VERTEX
  8
C18
 10
86.806258
 20
46.9
 42
0.0013575323989
  0
VERTEX
  8
C18
 10
86.802016
 20
47.605138
 42
0.0767118107465
  0
VERTEX
  8
C18
 10
86.73
 20
48.16
 42
-0.0055295331857
  0
VERTEX
  8
C18
 10
81.881947
 20
47.358934
 42
0.0028649385009
  0
VERTEX
  8
C18
 10
74.65759
 20
46.18474
 42
-0.0018263858077
  0
VERTEX
  8
C18
 10
68.528663
 20
45.191867
 42
0.0078223784805
  0
VERTEX
  8
C18
 10
65.033234
 20
44.604735
 42
-0.0049935478042
  0
VERTEX
  8
C18
 10
63.703542
 20
44.321312
 42
-0.0534537486233
  0
VERTEX
  8
C18
 10
62.50566
 20
44.169804
 42
-0.0091892676879
  0
VERTEX
  8
C18
 10
62.37
 20
44.17
 42
-0.1820554893646
  0
VERTEX
  8
C18
 10
62.237686
 20
43.877085
 42
-0.1468222953866
  0
VERTEX
  8
C18
 10
61.934838
 20
43.75861
 42
-0.0172641744421
  0
VERTEX
  8
C18
 10
61.6
 20
43.75
 42
0.0
  0
VERTEX
  8
C18
 10
52.22
 20
43.75
 42
0.0699061407981
  0
VERTEX
  8
C18
 10
52.808028
 20
46.058621
 42
0.0366505128393
  0
VERTEX
  8
C18
 10
52.847515
 20
48.37
 42
0.0
  0
VERTEX
  8
C18
 10
52.847508
 20
48.37
 42
0.0254235526694
  0
VERTEX
  8
C18
 10
52.776997
 20
49.424914
 42
0.012614369705
  0
VERTEX
  8
C18
 10
52.708264
 20
49.828506
 42
-0.1624034533102
  0
VERTEX
  8
C18
 10
52.721438
 20
50.086729
 42
-0.2219894530343
  0
VERTEX
  8
C18
 10
53.052797
 20
50.295189
 42
-0.0433126399072
  0
VERTEX
  8
C18
 10
53.559667
 20
50.275421
 42
0.0112758965917
  0
VERTEX
  8
C18
 10
54.389916
 20
50.256031
 42
-0.0010499521779
  0
VERTEX
  8
C18
 10
66.15
 20
50.26
 42
0.0039347137841
  0
VERTEX
  8
C18
 10
67.340182
 20
50.315209
 42
-0.0048854704951
  0
VERTEX
  8
C18
 10
68.880245
 20
50.331421
 42
-0.0005715993657
  0
VERTEX
  8
C18
 10
91.351134
 20
50.285123
 42
0.0009700840351
  0
VERTEX
  8
C18
 10
104.37
 20
50.26
 42
0.0259126447955
  0
VERTEX
  8
C18
 10
104.401731
 20
50.919106
 42
0.1091349453854
  0
VERTEX
  8
C18
 10
104.340194
 20
51.321361
 42
0.2524015719172
  0
VERTEX
  8
C18
 10
104.083924
 20
51.519195
 42
0.0679298608175
  0
VERTEX
  8
C18
 10
103.588891
 20
51.498531
 42
-0.032887700869
  0
VERTEX
  8
C18
 10
102.90084
 20
51.441481
 42
-0.0004518169284
  0
VERTEX
  8
C18
 10
101.009678
 20
51.449685
 42
-0.0002868330618
  0
VERTEX
  8
C18
 10
96.598971
 20
51.495185
 42
0.0158980361561
  0
VERTEX
  8
C18
 10
92.259706
 20
51.450245
 42
-0.0115979074261
  0
VERTEX
  8
C18
 10
87.849573
 20
51.398956
 42
0.0033713405448
  0
VERTEX
  8
C18
 10
72.307053
 20
51.518838
 42
0.0005451298155
  0
VERTEX
  8
C18
 10
58.10056
 20
51.51993
 42
0.0003952099656
  0
VERTEX
  8
C18
 10
55.293966
 20
51.464378
 42
-0.0252250325229
  0
VERTEX
  8
C18
 10
52.565723
 20
51.500295
 42
-0.0037303610772
  0
VERTEX
  8
C18
 10
52.29
 20
51.52
 42
0.0804853947408
  0
VERTEX
  8
C18
 10
51.750083
 20
53.162312
 42
0.0332451591233
  0
VERTEX
  8
C18
 10
50.85269
 20
54.558203
 42
0.0016359431048
  0
VERTEX
  8
C18
 10
48.653661
 20
57.471302
 42
0.0115693307743
  0
VERTEX
  8
C18
 10
47.24524
 20
59.227784
 42
-0.0369014944769
  0
VERTEX
  8
C18
 10
46.310432
 20
60.451335
 42
-0.0772287412955
  0
VERTEX
  8
C18
 10
45.475871
 20
62.378477
 42
-0.0647321559822
  0
VERTEX
  8
C18
 10
45.22
 20
64.33
 42
0.0
  0
VERTEX
  8
C18
 10
44.17
 20
64.33
 42
0.0024059433237
  0
VERTEX
  8
C18
 10
44.250857
 20
57.259895
 42
-0.0051141496633
  0
VERTEX
  8
C18
 10
44.31
 20
51.52
 42
0.0
  0
VERTEX
  8
C18
 10
24.57
 20
51.52
 42
0.0408419428012
  0
VERTEX
  8
C18
 10
24.319456
 20
55.119932
 42
0.0566809558215
  0
VERTEX
  8
C18
 10
23.507288
 20
58.286676
 42
0.0600640194648
  0
VERTEX
  8
C18
 10
22.339114
 20
60.572876
 42
0.0719418749384
  0
VERTEX
  8
C18
 10
21.657272
 20
61.379871
 42
0.1222535570643
  0
VERTEX
  8
C18
 10
20.960604
 20
61.784807
 42
0.1720073960158
  0
VERTEX
  8
C18
 10
20.014456
 20
61.700695
 42
0.0
  0
VERTEX
  8
C18
 10
19.95
 20
61.67
 42
0.0655132187622
  0
VERTEX
  8
C18
 10
19.391022
 20
61.247186
 42
0.031787833512
  0
VERTEX
  8
C18
 10
18.567178
 20
60.269083
 42
0.0112420010577
  0
VERTEX
  8
C18
 10
17.573206
 20
58.906512
 42
0.0497603211727
  0
VERTEX
  8
C18
 10
16.042453
 20
56.25116
 42
0.0720663613152
  0
VERTEX
  8
C18
 10
15.144087
 20
53.140339
 42
0.0271548485021
  0
VERTEX
  8
C18
 10
15.058505
 20
52.374686
 42
-0.0300661458836
  0
VERTEX
  8
C18
 10
15.060269
 20
51.907513
 42
-0.1512005161593
  0
VERTEX
  8
C18
 10
14.972671
 20
51.605687
 42
-0.0948034011018
  0
VERTEX
  8
C18
 10
14.887747
 20
51.521939
 42
0.0
  0
VERTEX
  8
C18
 10
14.88774
 20
51.521939
 42
-0.1173534753142
  0
VERTEX
  8
C18
 10
14.489895
 20
51.433956
 42
0.0106720418028
  0
VERTEX
  8
C18
 10
14.07
 20
51.45
 42
0.0
  0
VERTEX
  8
C18
 10
2.31
 20
51.45
 42
0.0536298742897
  0
VERTEX
  8
C18
 10
1.86599
 20
51.445541
 42
0.232609302314
  0
VERTEX
  8
C18
 10
1.558046
 20
51.286109
 42
0.0970900242401
  0
VERTEX
  8
C18
 10
1.456532
 20
50.921997
 42
0.1139703309997
  0
VERTEX
  8
C18
 10
1.489901
 20
50.487745
 42
0.2190799470288
  0
VERTEX
  8
C18
 10
1.632253
 20
50.302231
 42
0.1124480528744
  0
VERTEX
  8
C18
 10
2.099916
 20
50.250781
 42
-0.0102930265542
  0
VERTEX
  8
C18
 10
2.602957
 20
50.321383
 42
-0.0038806728546
  0
VERTEX
  8
C18
 10
5.040049
 20
50.331225
 42
0.0000802757444
  0
VERTEX
  8
C18
 10
14.35
 20
50.33
 42
-0.0421120261319
  0
VERTEX
  8
C18
 10
14.767438
 20
50.330105
 42
-0.1905157176864
  0
VERTEX
  8
C18
 10
15.077762
 20
50.208032
 42
-0.1236311459599
  0
VERTEX
  8
C18
 10
15.217797
 20
49.844235
 42
-0.0028865247257
  0
VERTEX
  8
C18
 10
15.253784
 20
49.28
 42
0.024711654282
  0
VERTEX
  8
C18
 10
15.540665
 20
47.317977
 42
0.0179662692963
  0
VERTEX
  8
C18
 10
15.897266
 20
45.636367
 42
0.0203095100784
  0
VERTEX
  8
C18
 10
16.099538
 20
44.972221
 42
-0.141167021678
  0
VERTEX
  8
C18
 10
16.155391
 20
44.574474
 42
-0.0780203089141
  0
VERTEX
  8
C18
 10
16.114854
 20
44.45
 42
0.0
  0
VERTEX
  8
C18
 10
16.114847
 20
44.45
 42
-0.2054026814144
  0
VERTEX
  8
C18
 10
15.382997
 20
43.843674
 42
-0.0552853237191
  0
VERTEX
  8
C18
 10
14.617771
 20
43.751141
 42
-0.000264393191
  0
VERTEX
  8
C18
 10
1.47
 20
43.75
 42
0.0258718538914
  0
VERTEX
  8
C18
 10
1.438255
 20
43.090894
 42
0.1090980103831
  0
VERTEX
  8
C18
 10
1.499799
 20
42.688674
 42
0.1980455328744
  0
VERTEX
  8
C18
 10
1.632253
 20
42.532231
 42
0.1114292843757
  0
VERTEX
  8
C18
 10
2.102366
 20
42.471128
 42
-0.0080406207006
  0
VERTEX
  8
C18
 10
2.66805
 20
42.548198
 42
-0.0174610153067
  0
VERTEX
  8
C18
 10
4.200462
 20
42.571312
 42
-0.0013821565383
  0
VERTEX
  8
C18
 10
8.051253
 20
42.541359
 42
0.0043699363323
  0
VERTEX
  8
C18
 10
13.93
 20
42.49
 42
0.0569958832218
  0
VERTEX
  8
C18
 10
11.625747
 20
40.275704
 42
0.0264156613072
  0
VERTEX
  8
C18
 10
9.991324
 20
37.999129
 42
0.0017254189506
  0
VERTEX
  8
C18
 10
9.077908
 20
36.54
 42
-0.0224934917327
  0
VERTEX
  8
C18
 10
8.834084
 20
36.095878
 42
-0.1327170465875
  0
VERTEX
  8
C18
 10
8.59509
 20
35.841939
 42
-0.1102870123159
  0
VERTEX
  8
C18
 10
8.187319
 20
35.765576
 42
0.0106683335579
  0
VERTEX
  8
C18
 10
6.58
 20
35.77
 42
0.0
  0
VERTEX
  8
C18
 10
1.54
 20
35.77
 42
0.0358827994339
  0
VERTEX
  8
C18
 10
1.470091
 20
34.792205
 42
0.0006185521345
  0
VERTEX
  8
C18
 10
1.47
 20
34.58
 42
0.0057014276328
  0
VERTEX
  8
C18
 10
6.722534
 20
34.5989
 42
-0.0490720332635
  0
VERTEX
  8
C18
 10
7.983241
 20
34.533142
 42
-0.0077587224898
  0
VERTEX
  8
C18
 10
8.12
 20
34.51
 42
0.0451693374449
  0
VERTEX
  8
C18
 10
7.609805
 20
32.541908
 42
0.01078171824
  0
VERTEX
  8
C18
 10
7.400967
 20
30.870756
 42
0.019334247066
  0
VERTEX
  8
C18
 10
7.292166
 20
29.88951
 42
0.0399180425798
  0
VERTEX
  8
C18
 10
7.336413
 20
28.840007
 42
-0.0337315826985
  0
VERTEX
  8
C18
 10
7.42
 20
27.93
 42
0.0074366586836
  0
VERTEX
  8
C18
 10
3.290259
 20
27.999867
 42
-0.0048416173936
  0
VERTEX
  8
C18
 10
1.878037
 20
28.001554
 42
0.1896952978217
  0
VERTEX
  8
C18
 10
1.582231
 20
27.928054
 42
0.1516496491735
  0
VERTEX
  8
C18
 10
1.456308
 20
27.667619
 42
0.04499739768
  0
VERTEX
  8
C18
 10
1.450876
 20
27.053376
 42
-0.0231456718594
  0
VERTEX
  8
C18
 10
1.47
 20
26.74
 42
0.0
  0
VERTEX
  8
C18
 10
7.63
 20
26.74
 42
0.0496565935603
  0
VERTEX
  8
C18
 10
7.860951
 20
25.752006
 42
0.0827237022732
  0
VERTEX
  8
C18
 10
9.512202
 20
22.568364
 42
0.0521911676551
  0
VERTEX
  8
C18
 10
10.815504
 20
21.115066
 42
0.0119453428246
  0
VERTEX
  8
C18
 10
11.660264
 20
20.447105
 42
-0.0167456700485
  0
VERTEX
  8
C18
 10
12.11
 20
20.09
 42
-0.0014659760225
  0
VERTEX
  8
C18
 10
3.710763
 20
20.090203
 42
0.01210488941
  0
VERTEX
  8
C18
 10
2.447718
 20
20.111273
 42
0.0215201655726
  0
VERTEX
  8
C18
 10
1.891078
 20
20.085891
 42
0.1959099038724
  0
VERTEX
  8
C18
 10
1.584541
 20
19.888288
 42
0.2044290995937
  0
VERTEX
  8
C18
 10
1.427538
 20
19.181421
 42
0.2490662463154
  0
VERTEX
  8
C18
 10
1.629565
 20
18.871125
 42
0.0957990706221
  0
VERTEX
  8
C18
 10
2.031064
 20
18.80123
 42
-0.0015486476853
  0
VERTEX
  8
C18
 10
2.53435
 20
18.828775
 42
0.0025883739322
  0
VERTEX
  8
C18
 10
4.478544
 20
18.884194
 42
-0.0091592934697
  0
VERTEX
  8
C18
 10
5.32
 20
18.9
 42
0.0
  0
VERTEX
  8
C18
 10
19.6
 20
18.9
 42
-0.0253883537521
  0
VERTEX
  8
C18
 10
20.26605
 20
18.93017
 42
-0.1000780643148
  0
VERTEX
  8
C18
 10
20.668522
 20
18.868584
 42
-0.1480439237402
  0
VERTEX
  8
C18
 10
20.853735
 20
18.737747
 42
0.0
  0
SEQEND
  0
POLYLINE
  8
C18
 66
     1
 10
0.0
 20
0.0
 30
0.0
 70
     1
  0
VERTEX
  8
C18
 10
85.538054
 20
35.882231
 42
-0.1490972736747
  0
VERTEX
  8
C18
 10
85.217993
 20
35.745332
 42
-0.0369908204677
  0
VERTEX
  8
C18
 10
84.514108
 20
35.751611
 42
0.0234965378586
  0
VERTEX
  8
C18
 10
84.21
 20
35.77
 42
0.0
  0
VERTEX
  8
C18
 10
63.91
 20
35.77
 42
0.0
  0
VERTEX
  8
C18
 10
63.91
 20
39.69
 42
0.0199062850969
  0
VERTEX
  8
C18
 10
66.085019
 20
39.995165
 42
-0.008987608639
  0
VERTEX
  8
C18
 10
68.11
 20
40.359319
 42
0.0074890184405
  0
VERTEX
  8
C18
 10
79.307256
 20
42.194418
 42
-0.0251982352657
  0
VERTEX
  8
C18
 10
81.337144
 20
42.491603
 42
-0.0233588098715
  0
VERTEX
  8
C18
 10
83.366801
 20
42.540708
 42
0.0100706147917
  0
VERTEX
  8
C18
 10
85.471085
 20
42.490105
 42
0.0
  0
VERTEX
  8
C18
 10
85.54
 20
42.49
 42
0.0013389701344
  0
VERTEX
  8
C18
 10
85.598611
 20
38.358663
 42
-0.0012280504111
  0
VERTEX
  8
C18
 10
85.60972
 20
37.59
 42
-0.0014003549568
  0
VERTEX
  8
C18
 10
85.61
 20
36.4
 42
-0.0790085501961
  0
VERTEX
  8
C18
 10
85.598051
 20
36.015315
 42
-0.1117256268516
  0
VERTEX
  8
C18
 10
85.538061
 20
35.882238
 42
0.0
  0
SEQEND
  0
POLYLINE
  8
C18
 66
     1
 10
0.0
 20
0.0
 30
0.0
 70
     1
  0
VERTEX
  8
C18
 10
62.428114
 20
36.4
 42
-0.0961636020262
  0
VERTEX
  8
C18
 10
62.428023
 20
36.015385
 42
-0.111905148151
  0
VERTEX
  8
C18
 10
62.368054
 20
35.882231
 42
-0.1569089368253
  0
VERTEX
  8
C18
 10
62.097504
 20
35.756847
 42
-0.0373230398634
  0
VERTEX
  8
C18
 10
61.495917
 20
35.761138
 42
0.0191540265204
  0
VERTEX
  8
C18
 10
61.32
 20
35.77
 42
0.0
  0
VERTEX
  8
C18
 10
45.36
 20
35.77
 42
-0.0155547324862
  0
VERTEX
  8
C18
 10
45.453828
 20
36.609517
 42
0.0255049027803
  0
VERTEX
  8
C18
 10
45.505614
 20
37.449244
 42
0.0062051897861
  0
VERTEX
  8
C18
 10
45.463621
 20
40.45888
 42
-0.0081569554766
  0
VERTEX
  8
C18
 10
45.43
 20
42.49
 42
0.0
  0
VERTEX
  8
C18
 10
50.68
 20
42.49
 42
0.0634266031346
  0
VERTEX
  8
C18
 10
50.707132
 20
41.9748
 42
0.1746751351205
  0
VERTEX
  8
C18
 10
50.841917
 20
41.683803
 42
0.2233874101004
  0
VERTEX
  8
C18
 10
51.167025
 20
41.606355
 42
0.1974705317357
  0
VERTEX
  8
C18
 10
51.472197
 20
41.820982
 42
0.0041129527174
  0
VERTEX
  8
C18
 10
51.654274
 20
42.171955
 42
-0.1899009445797
  0
VERTEX
  8
C18
 10
51.903607
 20
42.445564
 42
-0.0640619704378
  0
VERTEX
  8
C18
 10
52.35769
 20
42.508466
 42
0.0087576040635
  0
VERTEX
  8
C18
 10
53.13
 20
42.49
 42
0.0
  0
VERTEX
  8
C18
 10
62.37
 20
42.49
 42
0.0014791408325
  0
VERTEX
  8
C18
 10
62.37021
 20
37.519013
 42
0.0207984394593
  0
SEQEND
  0
POLYLINE
  8
C18
 66
     1
 10
0.0
 20
0.0
 30
0.0
 70
     1
  0
VERTEX
  8
C18
 10
19.39
 20
41.259701
 42
0.0136022006466
  0
VERTEX
  8
C18
 10
19.91584
 20
41.808123
 42
-0.064511780104
  0
VERTEX
  8
C18
 10
20.43566
 20
42.293587
 42
-0.1355690001792
  0
VERTEX
  8
C18
 10
21.116102
 20
42.522998
 42
-0.0171873689716
  0
VERTEX
  8
C18
 10
21.922705
 20
42.499457
 42
0.015946505872
  0
VERTEX
  8
C18
 10
22.19
 20
42.49
 42
0.0
  0
VERTEX
  8
C18
 10
44.38
 20
42.49
 42
0.0
  0
VERTEX
  8
C18
 10
44.38
 20
39.62
 42
0.0044976624241
  0
VERTEX
  8
C18
 10
42.886536
 20
39.999792
 42
0.0529917631224
  0
VERTEX
  8
C18
 10
41.380234
 20
40.246997
 42
0.1081722338533
  0
VERTEX
  8
C18
 10
39.279723
 20
39.897571
 42
0.0590499164871
  0
VERTEX
  8
C18
 10
37.547699
 20
38.902045
 42
0.0516329930576
  0
VERTEX
  8
C18
 10
36.24859
 20
37.758161
 42
0.0942533438154
  0
VERTEX
  8
C18
 10
35.335636
 20
36.377082
 42
0.0421595585661
  0
VERTEX
  8
C18
 10
35.14
 20
35.77
 42
0.0
  0
VERTEX
  8
C18
 10
19.11
 20
35.77
 42
-0.0035746983477
  0
VERTEX
  8
C18
 10
18.528853
 20
38.639349
 42
-0.0016508955219
  0
VERTEX
  8
C18
 10
18.461737
 20
38.99
 42
-0.0162420281676
  0
VERTEX
  8
C18
 10
18.313953
 20
39.587436
 42
-0.1243165053608
  0
VERTEX
  8
C18
 10
18.299729
 20
40.059803
 42
-0.0925265507652
  0
VERTEX
  8
C18
 10
18.578791
 20
40.524407
 42
-0.0262939098058
  0
VERTEX
  8
C18
 10
19.233998
 20
41.127436
 42
0.0051272620449
  0
SEQEND
  0
POLYLINE
  8
C18
 66
     1
 10
0.0
 20
0.0
 30
0.0
 70
     1
  0
VERTEX
  8
C18
 10
3.66333324
 20
0.23333331
 42
0.0
  0
VERTEX
  8
C18
 10
3.686662
 20
0.186662
 42
0.0
  0
SEQEND
  0
POLYLINE
  8
C18
 66
     1
 10
0.0
 20
0.0
 30
0.0
 70
     1
  0
VERTEX
  8
C18
 10
51.00067
 20
43.862231
 42
-0.0849532562252
  0
VERTEX
  8
C18
 10
50.492428
 20
43.763398
 42
-0.0155102470548
  0
VERTEX
  8
C18
 10
49.66815
 20
43.804348
 42
0.0217583142614
  0
VERTEX
  8
C18
 10
49.35
 20
43.82
 42
0.0
  0
VERTEX
  8
C18
 10
45.43
 20
43.82
 42
0.001168817934
  0
VERTEX
  8
C18
 10
45.374987
 20
47.109335
 42
-0.0053498056515
  0
VERTEX
  8
C18
 10
45.36
 20
49.63
 42
-0.0790129416124
  0
VERTEX
  8
C18
 10
45.371942
 20
50.014678
 42
-0.3122471999918
  0
VERTEX
  8
C18
 10
45.656611
 20
50.25839
 42
-0.0151259522909
  0
VERTEX
  8
C18
 10
46.06
 20
50.26
 42
0.0
  0
VERTEX
  8
C18
 10
50.4
 20
50.26
 42
-0.0285562634025
  0
VERTEX
  8
C18
 10
50.956563
 20
50.282533
 42
-0.1200079541987
  0
VERTEX
  8
C18
 10
51.293697
 20
50.216782
 42
-0.1608071506895
  0
VERTEX
  8
C18
 10
51.518173
 20
49.934178
 42
-0.059182600515
  0
VERTEX
  8
C18
 10
51.640085
 20
49.266364
 42
-0.0155671474083
  0
VERTEX
  8
C18
 10
51.704898
 20
47.587617
 42
-0.0610062386437
  0
VERTEX
  8
C18
 10
51.479701
 20
45.22
 42
-0.0245177064695
  0
VERTEX
  8
C18
 10
51.343383
 20
44.478336
 42
-0.1017509761879
  0
VERTEX
  8
C18
 10
51.164127
 20
44.015671
 42
-0.1414857997475
  0
SEQEND
  0
POLYLINE
  8
C18
 66
     1
 10
0.0
 20
0.0
 30
0.0
 70
     1
  0
VERTEX
  8
C18
 10
0.32666669
 20
0.25666669
 42
0.0
  0
VERTEX
  8
C18
 10
0.373331
 20
0.233331
 42
0.0
  0
SEQEND
  0
POLYLINE
  8
C18
 66
     1
 10
0.0
 20
0.0
 30
0.0
 70
     1
  0
VERTEX
  8
C18
 10
1.63333338
 20
0.65333331
 42
0.0
  0
VERTEX
  8
C18
 10
1.656662
 20
0.606662
 42
0.0
  0
SEQEND
  0
POLYLINE
  8
C18
 66
     1
 10
0.0
 20
0.0
 30
0.0
 70
     1
  0
VERTEX
  8
C18
 10
0.93333331
 20
0.65333331
 42
0.0
  0
VERTEX
  8
C18
 10
0.956662
 20
0.606662
 42
0.0
  0
SEQEND
  0
POLYLINE
  8
C18
 66
     1
 10
0.0
 20
0.0
 30
0.0
 70
     1
  0
VERTEX
  8
C18
 10
47.32
 20
55.396894
 42
-0.0686937701611
  0
VERTEX
  8
C18
 10
48.536292
 20
54.614889
 42
-0.0443665489044
  0
VERTEX
  8
C18
 10
49.89754
 20
53.152974
 42
-0.0312512710631
  0
VERTEX
  8
C18
 10
50.551116
 20
52.240958
 42
-0.0750132721092
  0
VERTEX
  8
C18
 10
50.89
 20
51.52
 42
0.0
  0
VERTEX
  8
C18
 10
45.36
 20
51.52
 42
0.0070364030488
  0
VERTEX
  8
C18
 10
45.384724
 20
53.064039
 42
0.0372427703186
  0
VERTEX
  8
C18
 10
45.319701
 20
54.25
 42
-0.0603215269464
  0
VERTEX
  8
C18
 10
45.268188
 20
55.001744
 42
-0.1376645530603
  0
VERTEX
  8
C18
 10
45.385844
 20
55.453762
 42
-0.2020024387609
  0
VERTEX
  8
C18
 10
45.835867
 20
55.729387
 42
-0.0839113212418
  0
VERTEX
  8
C18
 10
46.520306
 20
55.676026
 42
-0.0330819787268
  0
VERTEX
  8
C18
 10
47.32
 20
55.396901
 42
0.0
  0
SEQEND
  0
ENDSEC
  0
EOF
