  0
SECTION
  2
HEADER
  9
$ACADVER
  1
AC1009
  9
$EXTMAX
 10
128.0
 20
73.5199966430664
 30
0.0
  9
$EXTMIN
 10
0.0
 20
8.2391176223755
 30
0.0
  9
$INSUNITS
 70
     4
  9
$LUNITS
 70
     2
  9
$LUPREC
 70
     4
  9
$MEASUREMENT
 70
     1
  0
ENDSEC
  0
SECTION
  2
TABLES
  0
TABLE
  2
LAYER
 70
     1
  0
LAYER
  2
0
 70
     0
 62
     7
  6
Continuous
  0
LAYER
  2
Noten
 70
     0
 62
     7
  6
Continuous
  0
LAYER
  2
Linien
 70
     0
 62
     5
  6
Continuous
  0
ENDTAB
  0
TABLE
  2
APPID
 70
     1
  0
APPID
  2
ACAD
 70
     0
  0
ENDTAB
  0
ENDSEC
  0
SECTION
  2
ENTITIES
  0
ARC
  8
Noten
 10
14.9613559611812
 20
40.1778994730003
 30
0.0
 40
0.0905432426044
 50
181.353712102699
 51
201.748917907741
  0
POLYLINE
  8
Noten
 66
     1
 10
0.0
 20
0.0
 30
0.0
 70
     1
  0
VERTEX
  8
Noten
 10
15.90222168
 20
11.16222288
 42
0.0
  0
VERTEX
  8
Noten
 10
15.84
 20
11.28
 42
0.1407750136346
  0
VERTEX
  8
Noten
 10
16.72
 20
11.2488892
 42
0.0116427718862
  0
VERTEX
  8
Noten
 10
17.44
 20
11.39333376
 42
0.0445252574299
  0
VERTEX
  8
Noten
 10
18.08
 20
11.62
 42
-0.013448844627
  0
VERTEX
  8
Noten
 10
18.56
 20
11.86
 42
0.1249895542383
  0
VERTEX
  8
Noten
 10
19.3888892
 20
12.56
 42
0.077388922481
  0
VERTEX
  8
Noten
 10
19.69777832
 20
13.04
 42
0.083732018269
  0
VERTEX
  8
Noten
 10
20.1088892
 20
14.08
 42
0.0261375857626
  0
VERTEX
  8
Noten
 10
20.1488892
 20
14.24
 42
0.0625415909537
  0
VERTEX
  8
Noten
 10
20.24666624
 20
14.8
 42
0.1207855498588
  0
VERTEX
  8
Noten
 10
20.2711108
 20
15.76
 42
0.0896837269949
  0
VERTEX
  8
Noten
 10
19.98
 20
16.96
 42
0.1858117900332
  0
VERTEX
  8
Noten
 10
18.48
 20
18.41777832
 42
0.096981136765
  0
VERTEX
  8
Noten
 10
16.96
 20
18.80666624
 42
0.0827635752446
  0
VERTEX
  8
Noten
 10
16.0
 20
18.87333376
 42
0.0022520852806
  0
VERTEX
  8
Noten
 10
15.36
 20
18.7688892
 42
0.0565004768401
  0
VERTEX
  8
Noten
 10
14.48
 20
18.52666752
 42
0.1106209695335
  0
VERTEX
  8
Noten
 10
13.34444456
 20
17.6
 42
0.0404166038428
  0
VERTEX
  8
Noten
 10
12.74
 20
16.72
 42
0.067051013161
  0
VERTEX
  8
Noten
 10
12.1288892
 20
14.88
 42
0.0507948543052
  0
VERTEX
  8
Noten
 10
12.08
 20
14.24
 42
0.0208229673288
  0
VERTEX
  8
Noten
 10
12.08666624
 20
13.36
 42
0.0344828890524
  0
VERTEX
  8
Noten
 10
12.34666624
 20
12.4
 42
0.0598509848109
  0
VERTEX
  8
Noten
 10
12.54222168
 20
11.92
 42
0.0661799227212
  0
VERTEX
  8
Noten
 10
13.0511108
 20
11.04
 42
0.110477759015
  0
VERTEX
  8
Noten
 10
14.9599999999999
 20
9.38
 42
0.0052746317137
  0
VERTEX
  8
Noten
 10
15.52
 20
9.06222232
 42
0.0351105820264
  0
VERTEX
  8
Noten
 10
17.2
 20
8.43333312
 42
0.0407161657348
  0
VERTEX
  8
Noten
 10
17.84
 20
8.31555544
 42
0.015755963934
  0
VERTEX
  8
Noten
 10
18.24
 20
8.24666688
 42
0.0101498388485
  0
VERTEX
  8
Noten
 10
19.1722149360742
 20
8.2391172731024
 42
0.0033945797377
  0
VERTEX
  8
Noten
 10
19.8766311284262
 20
8.2391172731024
 42
0.0489819122493
  0
VERTEX
  8
Noten
 10
20.9439283895657
 20
8.4098848348847
 42
0.0579401996514
  0
VERTEX
  8
Noten
 10
22.16
 20
8.8488892
 42
0.0575493157549
  0
VERTEX
  8
Noten
 10
22.8
 20
9.1688892
 42
0.0266890304027
  0
VERTEX
  8
Noten
 10
23.6
 20
9.7111108
 42
0.0230950008087
  0
VERTEX
  8
Noten
 10
24.5350071810689
 20
10.4094941233679
 42
0.0317958069013
  0
VERTEX
  8
Noten
 10
25.1797363611366
 20
11.1633109874964
 42
-0.0129110978254
  0
VERTEX
  8
Noten
 10
25.9116937365345
 20
12.4083924179716
 42
0.0469934156569
  0
VERTEX
  8
Noten
 10
26.3329121117529
 20
13.8874085794452
 42
0.0193082034777
  0
VERTEX
  8
Noten
 10
26.3329121117529
 20
13.8874085794452
 42
0.0318788564751
  0
VERTEX
  8
Noten
 10
26.4784628815431
 20
15.2612367926168
 42
-0.0033916461432
  0
VERTEX
  8
Noten
 10
26.4500513777841
 20
16.7102234843264
 42
0.0082867483499
  0
VERTEX
  8
Noten
 10
26.3543217009272
 20
18.095978254007
 42
0.0033916461432
  0
VERTEX
  8
Noten
 10
26.16666752
 20
19.2
 42
0.0489791856587
  0
VERTEX
  8
Noten
 10
25.9249997574103
 20
20.6575747333962
 42
0.0197488401062
  0
VERTEX
  8
Noten
 10
25.6731678594351
 20
22.3011092254442
 42
0.0284539431248
  0
VERTEX
  8
Noten
 10
27.6878230432362
 20
23.3879626798632
 42
0.0789782275205
  0
VERTEX
  8
Noten
 10
28.6852637701466
 20
24.2671818544606
 42
0.0993803418135
  0
VERTEX
  8
Noten
 10
29.7296687073408
 20
25.3929994545668
 42
0.0739167153382
  0
VERTEX
  8
Noten
 10
30.2807529075386
 20
26.2503103865877
 42
0.0036212419616
  0
VERTEX
  8
Noten
 10
30.8230185675148
 20
27.5836297146584
 42
0.0440473326554
  0
VERTEX
  8
Noten
 10
31.3318058023032
 20
29.027324852451
 42
0.0142912979285
  0
VERTEX
  8
Noten
 10
31.68
 20
30.48
 42
0.0871902453104
  0
VERTEX
  8
Noten
 10
31.76
 20
32.0
 42
0.0104168695307
  0
VERTEX
  8
Noten
 10
31.75333248
 20
32.8
 42
0.0039443241323
  0
VERTEX
  8
Noten
 10
31.56666752
 20
33.92
 42
0.0753126569368
  0
VERTEX
  8
Noten
 10
30.34444336
 20
36.56
 42
0.0969840493087
  0
VERTEX
  8
Noten
 10
27.8399999999988
 20
39.0377783200005
 42
-0.0000587273169
  0
VERTEX
  8
Noten
 10
26.1938302135846
 20
40.0151471195518
 42
0.0
  0
VERTEX
  8
Noten
 10
24.3647053187774
 20
40.4658010791421
 42
0.0
  0
VERTEX
  8
Noten
 10
21.9605497274043
 20
40.4212878748136
 42
0.0
  0
VERTEX
  8
Noten
 10
21.9597249088375
 20
40.4994863982522
 42
-0.0177848956251
  0
VERTEX
  8
Noten
 10
21.4888892
 20
42.72
 42
-0.0226519252998
  0
VERTEX
  8
Noten
 10
21.35555664
 20
43.36
 42
0.0370002933526
  0
VERTEX
  8
Noten
 10
21.2311108
 20
43.92
 42
0.0053511280536
  0
VERTEX
  8
Noten
 10
21.0511108
 20
44.8
 42
-0.0318319145236
  0
VERTEX
  8
Noten
 10
20.9111108
 20
45.44
 42
-0.1562440328203
  0
VERTEX
  8
Noten
 10
20.93777832
 20
45.92
 42
0.0
  0
VERTEX
  8
Noten
 10
21.0488892
 20
46.08
 42
-0.0409460731434
  0
VERTEX
  8
Noten
 10
22.0799999999997
 20
47.0422216799997
 42
0.00163731661
  0
VERTEX
  8
Noten
 10
23.4399999999999
 20
48.3911132799999
 42
-0.0996126452856
  0
VERTEX
  8
Noten
 10
24.5732284109546
 20
49.5362536979575
 42
0.0244254343475
  0
VERTEX
  8
Noten
 10
25.56444336
 20
50.8
 42
0.0316011239117
  0
VERTEX
  8
Noten
 10
26.6088892
 20
52.72
 42
-0.0060058935948
  0
VERTEX
  8
Noten
 10
26.9288892
 20
53.5199999999999
 42
0.0426691957311
  0
VERTEX
  8
Noten
 10
27.8547038035027
 20
56.8263920693458
 42
-0.0262211265077
  0
VERTEX
  8
Noten
 10
28.1180584375544
 20
58.3982900413415
 42
-0.024933600816
  0
VERTEX
  8
Noten
 10
28.1180584375544
 20
60.4557481198698
 42
0.0033916461432
  0
VERTEX
  8
Noten
 10
28.00666752
 20
61.6
 42
0.0623354932391
  0
VERTEX
  8
Noten
 10
27.9511108
 20
62.08
 42
0.0224506767826
  0
VERTEX
  8
Noten
 10
27.4688892
 20
64.56
 42
0.0018357855089
  0
VERTEX
  8
Noten
 10
27.1511108
 20
65.68
 42
0.0399538095346
  0
VERTEX
  8
Noten
 10
26.8311108
 20
66.64
 42
0.0612347353346
  0
VERTEX
  8
Noten
 10
26.0311108
 20
68.4
 42
-0.0276248585802
  0
VERTEX
  8
Noten
 10
25.82
 20
68.8
 42
0.0221818762103
  0
VERTEX
  8
Noten
 10
25.38444336
 20
69.52
 42
0.0393829037429
  0
VERTEX
  8
Noten
 10
24.8
 20
70.15333496
 42
0.0877786761833
  0
VERTEX
  8
Noten
 10
24.4
 20
70.41777832
 42
0.0501105855176
  0
VERTEX
  8
Noten
 10
24.0
 20
70.60222168
 42
0.0588243678795
  0
VERTEX
  8
Noten
 10
23.52
 20
70.64
 42
0.0845591841647
  0
VERTEX
  8
Noten
 10
23.04
 20
70.60222168
 42
0.1036909550792
  0
VERTEX
  8
Noten
 10
22.16
 20
70.0
 42
0.0231597485212
  0
VERTEX
  8
Noten
 10
21.5355566400001
 20
69.2800000000002
 42
0.0026563306265
  0
VERTEX
  8
Noten
 10
20.4488892
 20
67.84
 42
0.0382585440148
  0
VERTEX
  8
Noten
 10
18.9
 20
65.44
 42
0.0032414579316
  0
VERTEX
  8
Noten
 10
18.34
 20
64.32
 42
-0.0054056291512
  0
VERTEX
  8
Noten
 10
17.9511108
 20
63.36
 42
0.047173039228
  0
VERTEX
  8
Noten
 10
17.4088892
 20
61.44
 42
0.0289333401147
  0
VERTEX
  8
Noten
 10
17.28666624
 20
60.8
 42
-0.0623370852555
  0
VERTEX
  8
Noten
 10
17.2311108
 20
60.32
 42
0.0242909711193
  0
VERTEX
  8
Noten
 10
17.2
 20
58.88
 42
0.0
  0
VERTEX
  8
Noten
 10
17.2481673470928
 20
57.9346943621314
 42
0.0
  0
VERTEX
  8
Noten
 10
17.2481673470928
 20
57.9182346296808
 42
0.0257720438152
  0
VERTEX
  8
Noten
 10
17.36666624
 20
56.8
 42
-0.0112708400346
  0
VERTEX
  8
Noten
 10
17.43333376
 20
56.4
 42
0.0166434369835
  0
VERTEX
  8
Noten
 10
17.44666624
 20
55.92
 42
-0.0410304104728
  0
VERTEX
  8
Noten
 10
17.52666624
 20
55.3600000000001
 42
0.0022520852806
  0
VERTEX
  8
Noten
 10
17.6311108
 20
54.72
 42
-0.0030922835841
  0
VERTEX
  8
Noten
 10
17.9511108
 20
53.04
 42
0.0146163829101
  0
VERTEX
  8
Noten
 10
18.1311108
 20
52.32
 42
0.026578259972
  0
VERTEX
  8
Noten
 10
18.4
 20
51.36
 42
0.0075693226352
  0
VERTEX
  8
Noten
 10
18.56
 20
50.8
 42
0.1416390155759
  0
VERTEX
  8
Noten
 10
18.39555544
 20
50.69555664
 42
0.015987964352
  0
VERTEX
  8
Noten
 10
15.3599999999999
 20
48.14222168
 42
0.0202298331493
  0
VERTEX
  8
Noten
 10
14.11333376
 20
47.0288867199999
 42
-0.0035285135058
  0
VERTEX
  8
Noten
 10
13.5266662400001
 20
46.4000000000001
 42
0.0081641062577
  0
VERTEX
  8
Noten
 10
11.84
 20
44.08
 42
0.0127744632057
  0
VERTEX
  8
Noten
 10
10.9111108
 20
42.64
 42
0.0
  0
VERTEX
  8
Noten
 10
10.08
 20
41.2
 42
0.0
  0
VERTEX
  8
Noten
 10
9.28
 20
39.52
 42
0.0679501512487
  0
VERTEX
  8
Noten
 10
9.0088892
 20
38.64
 42
0.0149660947784
  0
VERTEX
  8
Noten
 10
8.8488892
 20
37.92
 42
0.0267666902524
  0
VERTEX
  8
Noten
 10
8.64444456
 20
36.88
 42
0.0067739487532
  0
VERTEX
  8
Noten
 10
8.56666688
 20
36.4
 42
-0.062336289247
  0
VERTEX
  8
Noten
 10
8.5111108
 20
35.92
 42
0.0321570272178
  0
VERTEX
  8
Noten
 10
8.47333312
 20
35.52
 42
0.0112715011971
  0
VERTEX
  8
Noten
 10
8.40666688
 20
35.12
 42
0.0016579339563
  0
VERTEX
  8
Noten
 10
8.3784219291857
 20
33.6287546384482
 42
0.0291630468553
  0
VERTEX
  8
Noten
 10
8.4071034190756
 20
32.7252877069152
 42
-0.0112715011972
  0
VERTEX
  8
Noten
 10
8.5074886336904
 20
31.506324386593
 42
0.0166418373304
  0
VERTEX
  8
Noten
 10
8.6362017434793
 20
30.7085488368461
 42
0.0642852620378
  0
VERTEX
  8
Noten
 10
8.8326857343791
 20
29.9271822683841
 42
0.0462315760093
  0
VERTEX
  8
Noten
 10
9.1688892
 20
28.88
 42
0.0488226534179
  0
VERTEX
  8
Noten
 10
9.53777768
 20
28.0
 42
0.0379502253265
  0
VERTEX
  8
Noten
 10
10.1288892
 20
26.96
 42
0.0303901578193
  0
VERTEX
  8
Noten
 10
10.7688892
 20
26.0
 42
0.0996651198549
  0
VERTEX
  8
Noten
 10
13.59555544
 20
23.1711108
 42
0.0134952026614
  0
VERTEX
  8
Noten
 10
14.1459327971362
 20
22.813506465203
 42
0.0964392176346
  0
VERTEX
  8
Noten
 10
17.1636952810403
 20
21.7927529563814
 42
0.0102542016576
  0
VERTEX
  8
Noten
 10
19.6159479976126
 20
21.4925962898399
 42
0.0590912049919
  0
VERTEX
  8
Noten
 10
22.0945040461043
 20
21.6649023252967
 42
-0.0007882657727
  0
VERTEX
  8
Noten
 10
23.8043100902514
 20
21.9432428441112
 42
-0.0167935509157
  0
VERTEX
  8
Noten
 10
24.06222168
 20
20.4
 42
0.0352280784877
  0
VERTEX
  8
Noten
 10
24.14222168
 20
19.84
 42
0.0407155047315
  0
VERTEX
  8
Noten
 10
24.2088892
 20
19.36
 42
-0.0138124869384
  0
VERTEX
  8
Noten
 10
24.24666752
 20
18.88
 42
-0.0112721623608
  0
VERTEX
  8
Noten
 10
24.31333248
 20
18.48
 42
0.0579655237235
  0
VERTEX
  8
Noten
 10
24.3688892
 20
18.0
 42
-0.0323731200973
  0
VERTEX
  8
Noten
 10
24.4
 20
17.36
 42
0.0706449832917
  0
VERTEX
  8
Noten
 10
24.4488892
 20
16.88
 42
-0.0323731200973
  0
VERTEX
  8
Noten
 10
24.48
 20
16.24
 42
0.0
  0
VERTEX
  8
Noten
 10
24.48
 20
15.04
 42
-0.1024866982221
  0
VERTEX
  8
Noten
 10
24.3
 20
14.24
 42
-0.0083082927088
  0
VERTEX
  8
Noten
 10
24.06
 20
13.76
 42
-0.0260110592245
  0
VERTEX
  8
Noten
 10
23.4088892
 20
12.8
 42
0.0275891465628
  0
VERTEX
  8
Noten
 10
22.9288892
 20
12.24
 42
-0.0536904914154
  0
VERTEX
  8
Noten
 10
22.24
 20
11.58222168
 42
-0.0577769109183
  0
VERTEX
  8
Noten
 10
20.48
 20
10.34
 42
-0.0320776530898
  0
VERTEX
  8
Noten
 10
19.68
 20
10.02666688
 42
-0.069883783821
  0
VERTEX
  8
Noten
 10
19.2
 20
9.91555544
 42
-0.0782221027493
  0
VERTEX
  8
Noten
 10
18.1262636201577
 20
9.989484781371
 42
-0.1158381450415
  0
VERTEX
  8
Noten
 10
16.16
 20
10.93555544
 42
-0.0223475691249
  0
SEQEND
  0
POLYLINE
  8
Noten
 66
     1
 10
0.0
 20
0.0
 30
0.0
 70
     1
  0
VERTEX
  8
Noten
 10
19.7911108
 20
57.04
 42
0.0321623346852
  0
VERTEX
  8
Noten
 10
19.75333376
 20
56.64
 42
0.0112708400347
  0
VERTEX
  8
Noten
 10
19.68666624
 20
56.24
 42
0.002777578571
  0
VERTEX
  8
Noten
 10
19.68
 20
54.88
 42
0.0609551722728
  0
VERTEX
  8
Noten
 10
19.7288892
 20
54.48
 42
0.0582103262006
  0
VERTEX
  8
Noten
 10
20.08
 20
52.56
 42
0.1499096872555
  0
VERTEX
  8
Noten
 10
20.56
 20
52.75111328
 42
0.0296855310021
  0
VERTEX
  8
Noten
 10
21.52
 20
53.51555664
 42
0.0269887670206
  0
VERTEX
  8
Noten
 10
22.16
 20
54.07333496
 42
0.0606834343979
  0
VERTEX
  8
Noten
 10
23.33555664
 20
55.44
 42
0.0160968798681
  0
VERTEX
  8
Noten
 10
24.2088892
 20
56.72
 42
-0.0144447642376
  0
VERTEX
  8
Noten
 10
25.062646156235
 20
58.1309798862589
 42
-0.0907903448132
  0
VERTEX
  8
Noten
 10
25.3378491466105
 20
58.5969687693439
 42
0.0066566277359
  0
VERTEX
  8
Noten
 10
25.73576
 20
59.440656
 42
0.0221626038849
  0
VERTEX
  8
Noten
 10
26.1288892
 20
60.56
 42
0.0590135303221
  0
VERTEX
  8
Noten
 10
26.24
 20
61.2
 42
-0.0609551722732
  0
VERTEX
  8
Noten
 10
26.2888892
 20
61.6
 42
0.1097759791796
  0
VERTEX
  8
Noten
 10
26.2711108
 20
62.24
 42
-0.0138124869382
  0
VERTEX
  8
Noten
 10
26.2333324799999
 20
62.72
 42
0.001208670185
  0
VERTEX
  8
Noten
 10
26.0488892
 20
63.68
 42
0.036822719869
  0
VERTEX
  8
Noten
 10
25.7288892
 20
64.8
 42
0.2333838951722
  0
VERTEX
  8
Noten
 10
25.04
 20
65.46222168
 42
0.2135850883604
  0
VERTEX
  8
Noten
 10
24.48
 20
65.42
 42
0.0424776510027
  0
VERTEX
  8
Noten
 10
24.0
 20
65.16222168
 42
0.0269890598922
  0
VERTEX
  8
Noten
 10
23.20666752
 20
64.4
 42
0.0349150131457
  0
VERTEX
  8
Noten
 10
21.84222168
 20
62.64
 42
0.0457004793206
  0
VERTEX
  8
Noten
 10
20.6088892
 20
60.16
 42
0.0267249369497
  0
VERTEX
  8
Noten
 10
20.21555544
 20
59.12444336
 42
0.0566366542129
  0
VERTEX
  8
Noten
 10
19.9475634689955
 20
58.1157514190883
 42
0.0
  0
VERTEX
  8
Noten
 10
19.84
 20
57.36
 42
-0.0522995257896
  0
SEQEND
  0
POLYLINE
  8
Noten
 66
     1
 10
0.0
 20
0.0
 30
0.0
 70
     0
  0
VERTEX
  8
Noten
 10
88.87111328
 20
30.23555664
 42
-0.0062812702584
  0
VERTEX
  8
Noten
 10
88.32
 20
29.68
 42
0.0870906604574
  0
VERTEX
  8
Noten
 10
87.34222656
 20
28.32
 42
0.0635321883557
  0
VERTEX
  8
Noten
 10
87.12
 20
27.76
 42
0.0383956468574
  0
VERTEX
  8
Noten
 10
86.9378330120032
 20
27.0963285361746
 42
-0.0321307058085
  0
VERTEX
  8
Noten
 10
86.8848183042216
 20
26.221585857775
 42
0.1097460818126
  0
VERTEX
  8
Noten
 10
87.0703697814576
 20
25.2010527329755
 42
-0.0113728427373
  0
VERTEX
  8
Noten
 10
87.5904856873824
 20
24.2344567172387
 42
0.1410469460784
  0
VERTEX
  8
Noten
 10
88.6491830039024
 20
23.2491210174508
 42
0.0923408624092
  0
VERTEX
  8
Noten
 10
90.226482954636
 20
22.6028661765251
 42
0.0054293382043
  0
VERTEX
  8
Noten
 10
91.7818759616096
 20
22.4604710420838
 42
0.0199791332741
  0
VERTEX
  8
Noten
 10
93.2605946654224
 20
22.4933314577242
 42
0.0564665749457
  0
VERTEX
  8
Noten
 10
94.9912432224776
 20
22.9424238048081
 42
-0.0019362512152
  0
VERTEX
  8
Noten
 10
96.0865904104872
 20
23.7529807239352
 42
0.0149220214552
  0
VERTEX
  8
Noten
 10
97.3352862048184
 20
24.8373744400647
 42
0.0121220637153
  0
VERTEX
  8
Noten
 10
97.8829597988232
 20
25.5931639997914
 42
-0.0022009190476
  0
VERTEX
  8
Noten
 10
98.38
 20
26.56
 42
0.0531291699397
  0
VERTEX
  8
Noten
 10
98.94888672
 20
28.24
 42
0.0514182270932
  0
VERTEX
  8
Noten
 10
99.04444336
 20
28.72
 42
0.0437089435237
  0
VERTEX
  8
Noten
 10
99.12666992
 20
29.28
 42
0.0112620552825
  0
VERTEX
  8
Noten
 10
99.19333008
 20
29.6799999999999
 42
0.0104206183095
  0
VERTEX
  8
Noten
 10
99.3980547175312
 20
31.4479621914434
 42
0.0
  0
VERTEX
  8
Noten
 10
99.4018798505728
 20
39.4610189253497
 42
0.0
  0
VERTEX
  8
Noten
 10
99.28
 20
50.0
 42
0.0
  0
VERTEX
  8
Noten
 10
99.28
 20
54.96
 42
0.1593542250002
  0
VERTEX
  8
Noten
 10
98.8
 20
55.00888672
 42
-0.009954812214
  0
VERTEX
  8
Noten
 10
97.2
 20
54.7266650399999
 42
0.0009009508391
  0
VERTEX
  8
Noten
 10
95.52
 20
54.44888672
 42
-0.0446909826073
  0
VERTEX
  8
Noten
 10
95.04
 20
54.3933349600001
 42
0.0011056540604
  0
VERTEX
  8
Noten
 10
93.92
 20
54.17777832
 42
0.0309074194657
  0
VERTEX
  8
Noten
 10
93.52
 20
54.14222168
 42
-0.0159774727463
  0
VERTEX
  8
Noten
 10
91.76
 20
53.84444336
 42
0.0038777025563
  0
VERTEX
  8
Noten
 10
91.04
 20
53.72888672
 42
-0.0214615404458
  0
VERTEX
  8
Noten
 10
89.8400000000008
 20
53.5244433600002
 42
0.0089791268736
  0
VERTEX
  8
Noten
 10
88.64
 20
53.31111328
 42
0.0124060575463
  0
VERTEX
  8
Noten
 10
87.04
 20
53.05777832
 42
0.0536542042804
  0
VERTEX
  8
Noten
 10
86.08
 20
52.91111328
 42
0.0182534369759
  0
VERTEX
  8
Noten
 10
84.64
 20
52.67111328
 42
0.0213394348096
  0
VERTEX
  8
Noten
 10
83.76
 20
52.51111328
 42
-0.0321711751569
  0
VERTEX
  8
Noten
 10
83.36
 20
52.47333496
 42
-0.0147440800471
  0
VERTEX
  8
Noten
 10
81.52
 20
52.16444336
 42
-0.0272658721275
  0
VERTEX
  8
Noten
 10
80.96
 20
52.07555664
 42
0.0151962512081
  0
VERTEX
  8
Noten
 10
80.32
 20
51.95111328
 42
0.0063777989614
  0
VERTEX
  8
Noten
 10
76.8
 20
51.37777832
 42
0.0294462667941
  0
VERTEX
  8
Noten
 10
75.92
 20
51.23111328
 42
0.0188533962941
  0
VERTEX
  8
Noten
 10
75.36
 20
51.13777832
 42
0.0309074194633
  0
VERTEX
  8
Noten
 10
74.96
 20
51.10222168
 42
-0.0255407290502
  0
VERTEX
  8
Noten
 10
74.08
 20
50.94222168
 42
-0.044419170538
  0
VERTEX
  8
Noten
 10
73.6
 20
50.87333496
 42
0.0022632744949
  0
VERTEX
  8
Noten
 10
72.96
 20
50.76888672
 42
-0.0440806214693
  0
VERTEX
  8
Noten
 10
72.4
 20
50.64666504
 42
0.0755493419009
  0
VERTEX
  8
Noten
 10
71.86112770576
 20
50.539698179856
 42
-0.0921629935167
  0
VERTEX
  8
Noten
 10
71.160597174491
 20
50.3922180680099
 42
0.0
  0
VERTEX
  8
Noten
 10
71.160597174491
 20
50.3922180680099
 42
0.0
  0
VERTEX
  8
Noten
 10
71.160597174491
 20
50.3922180680099
 42
0.0006828931242
  0
VERTEX
  8
Noten
 10
71.160597174491
 20
50.3922180680099
 42
0.0
  0
VERTEX
  8
Noten
 10
71.160597174491
 20
50.3922180680099
 42
0.0
  0
VERTEX
  8
Noten
 10
71.44
 20
23.2
 42
-0.0593128852206
  0
VERTEX
  8
Noten
 10
71.04
 20
23.23333248
 42
0.0148672139099
  0
VERTEX
  8
Noten
 10
70.4
 20
23.39333248
 42
-0.0042525031904
  0
VERTEX
  8
Noten
 10
69.76
 20
23.58444336
 42
0.0
  0
VERTEX
  8
Noten
 10
68.48
 20
23.83333248
 42
0.0208269621277
  0
VERTEX
  8
Noten
 10
67.84
 20
23.84
 42
0.0507948543053
  0
VERTEX
  8
Noten
 10
67.1999999999999
 20
23.7911108
 42
-0.0022582512011
  0
VERTEX
  8
Noten
 10
65.8503738367131
 20
23.5382072938009
 42
0.0321583428671
  0
VERTEX
  8
Noten
 10
64.663628052003
 20
23.0250199274398
 42
0.0590075580228
  0
VERTEX
  8
Noten
 10
63.0438804269255
 20
21.9665709843198
 42
0.0
  0
VERTEX
  8
Noten
 10
63.1240659529194
 20
22.0467565103138
 42
0.0390957668476
  0
VERTEX
  8
Noten
 10
62.1137283253958
 20
21.1005673035854
 42
0.0864033004295
  0
VERTEX
  8
Noten
 10
61.24888672
 20
19.6
 42
0.1012568914754
  0
VERTEX
  8
Noten
 10
60.96
 20
18.24
 42
0.0266807102116
  0
VERTEX
  8
Noten
 10
60.96666504
 20
17.12
 42
0.0595950623382
  0
VERTEX
  8
Noten
 10
61.31111328
 20
15.84
 42
0.0762810865365
  0
VERTEX
  8
Noten
 10
61.92666504
 20
14.88
 42
0.1115492680865
  0
VERTEX
  8
Noten
 10
62.8
 20
14.22222168
 42
0.083732018269
  0
VERTEX
  8
Noten
 10
63.84
 20
13.8111108
 42
0.0261375857624
  0
VERTEX
  8
Noten
 10
64.0
 20
13.7711108
 42
0.0808175993168
  0
VERTEX
  8
Noten
 10
64.72
 20
13.68
 42
0.0
  0
VERTEX
  8
Noten
 10
66.0
 20
13.68
 42
0.0609551722734
  0
VERTEX
  8
Noten
 10
66.4
 20
13.7288892
 42
-0.0241495716336
  0
VERTEX
  8
Noten
 10
66.7999999999999
 20
13.76666624
 42
0.0080138618078
  0
VERTEX
  8
Noten
 10
67.76
 20
13.95333376
 42
0.0155288480226
  0
VERTEX
  8
Noten
 10
68.48
 20
14.1911108
 42
0.0386811061256
  0
VERTEX
  8
Noten
 10
68.88
 20
14.38222168
 42
0.0623455392239
  0
VERTEX
  8
Noten
 10
70.0
 20
15.10444456
 42
0.066123823072
  0
VERTEX
  8
Noten
 10
70.81777832
 20
15.92
 42
0.0242962618156
  0
VERTEX
  8
Noten
 10
71.79333496
 20
17.2
 42
0.058120904625
  0
VERTEX
  8
Noten
 10
72.29777832
 20
17.92
 42
0.075605185489
  0
VERTEX
  8
Noten
 10
72.48
 20
18.48
 42
-0.023967149572
  0
VERTEX
  8
Noten
 10
72.8093697747842
 20
19.3970249683503
 42
0.0207326132386
  0
VERTEX
  8
Noten
 10
73.0712193109531
 20
20.9381965240874
 42
-0.0485338406393
  0
VERTEX
  8
Noten
 10
73.0712193109531
 20
20.9232336934492
 42
0.0326775550188
  0
VERTEX
  8
Noten
 10
73.123589218187
 20
22.6963291240788
 42
0.0
  0
VERTEX
  8
Noten
 10
73.123589218187
 20
22.6963291240788
 42
0.0
  0
VERTEX
  8
Noten
 10
73.0996441390496
 20
39.7670156881061
 42
0.0
  0
VERTEX
  8
Noten
 10
73.04
 20
45.28
 42
0.0
  0
VERTEX
  8
Noten
 10
73.12
 20
45.36
 42
0.0
  0
VERTEX
  8
Noten
 10
73.24
 20
45.36666504
 42
-0.0392035054473
  0
VERTEX
  8
Noten
 10
73.76
 20
45.45777832
 42
-0.0116362284108
  0
VERTEX
  8
Noten
 10
74.4
 20
45.55111328
 42
-0.0407080246709
  0
VERTEX
  8
Noten
 10
74.88
 20
45.61777832
 42
-0.0188533962939
  0
VERTEX
  8
Noten
 10
75.44
 20
45.71111328
 42
-0.0207417292322
  0
VERTEX
  8
Noten
 10
76.24
 20
45.85777832
 42
-0.0352175433795
  0
VERTEX
  8
Noten
 10
76.8
 20
45.93777832
 42
-0.0352076357052
  0
VERTEX
  8
Noten
 10
77.9199999999999
 20
46.09777832
 42
0.0053643401235
  0
VERTEX
  8
Noten
 10
79.36
 20
46.36888672
 42
-0.0377134717192
  0
VERTEX
  8
Noten
 10
79.8399999999999
 20
46.41777832
 42
-0.0033717227184
  0
VERTEX
  8
Noten
 10
81.5200000000016
 20
46.7022216799995
 42
0.0255407290504
  0
VERTEX
  8
Noten
 10
82.4
 20
46.86222168
 42
-0.0309074194659
  0
VERTEX
  8
Noten
 10
82.8
 20
46.89777832
 42
-0.0080847410271
  0
VERTEX
  8
Noten
 10
84.0799999999992
 20
47.1244433600002
 42
0.0206427877932
  0
VERTEX
  8
Noten
 10
85.44
 20
47.35333496
 42
0.0034669231933
  0
VERTEX
  8
Noten
 10
85.84
 20
47.37777832
 42
-0.0038199903381
  0
VERTEX
  8
Noten
 10
87.12
 20
47.61777832
 42
-0.0352175433797
  0
VERTEX
  8
Noten
 10
87.68
 20
47.69777832
 42
-0.018853396294
  0
VERTEX
  8
Noten
 10
88.24
 20
47.79111328
 42
-0.062305837036
  0
VERTEX
  8
Noten
 10
88.72
 20
47.84666504
 42
0.0157043395274
  0
VERTEX
  8
Noten
 10
89.92
 20
48.06444336
 42
-0.0071158780388
  0
VERTEX
  8
Noten
 10
91.2
 20
48.25777832
 42
-0.0315664938227
  0
VERTEX
  8
Noten
 10
91.84
 20
48.35111328
 42
-0.0213394348092
  0
VERTEX
  8
Noten
 10
92.72
 20
48.51111328
 42
-0.0706121977306
  0
VERTEX
  8
Noten
 10
93.2
 20
48.56
 42
0.0
  0
VERTEX
  8
Noten
 10
97.6851187976712
 20
49.166563596207
 42
0.0
  0
VERTEX
  8
Noten
 10
97.67555664
 20
32.11333248
 42
0.0
  0
VERTEX
  8
Noten
 10
97.67555664
 20
32.11333248
 42
-0.0779454855296
  0
VERTEX
  8
Noten
 10
97.67555664
 20
32.11333248
 42
0.0134431516082
  0
VERTEX
  8
Noten
 10
96.72
 20
32.3688892
 42
0.0170441797126
  0
VERTEX
  8
Noten
 10
96.24
 20
32.4311108
 42
0.0171461598837
  0
VERTEX
  8
Noten
 10
95.6
 20
32.55333248
 42
0.0166498149165
  0
VERTEX
  8
Noten
 10
95.12
 20
32.56666752
 42
0.0033916461431
  0
VERTEX
  8
Noten
 10
94.64
 20
32.63777832
 42
0.0111098644237
  0
VERTEX
  8
Noten
 10
93.2056155901056
 20
32.6095612434214
 42
0.011272162361
  0
VERTEX
  8
Noten
 10
92.0956632972464
 20
32.2893826974042
 42
0.0241415916074
  0
VERTEX
  8
Noten
 10
91.1351276591952
 20
31.9905493877882
 42
0.0407170919619
  0
VERTEX
  8
Noten
 10
89.7263420567192
 20
31.0300137497368
 42
0.0408225149748
  0
VERTEX
  8
Noten
 10
88.87111328
 20
30.23555664
 42
0.0
  0
VERTEX
  8
Noten
 10
89.7263420567192
 20
31.0300137497368
 42
0.0
  0
SEQEND
  0
POLYLINE
  8
Noten
 66
     1
 10
0.0
 20
0.0
 30
0.0
 70
     1
  0
VERTEX
  8
Noten
 10
24.56
 20
35.7488892
 42
0.0808175993168
  0
VERTEX
  8
Noten
 10
23.92
 20
35.84
 42
0.0
  0
VERTEX
  8
Noten
 10
22.8332914527913
 20
35.8144368638628
 42
0.0817707274267
  0
VERTEX
  8
Noten
 10
22.834871375811
 20
35.7991548834607
 42
0.0184265394362
  0
VERTEX
  8
Noten
 10
23.1088892
 20
34.32
 42
-0.0150488622717
  0
VERTEX
  8
Noten
 10
23.3911108
 20
33.12
 42
-0.044101659148
  0
VERTEX
  8
Noten
 10
23.5598476212996
 20
32.1059490444332
 42
-0.0105635171953
  0
VERTEX
  8
Noten
 10
23.8047056835983
 20
30.8000393788402
 42
0.0
  0
VERTEX
  8
Noten
 10
23.8047056835983
 20
30.7932377659986
 42
0.0173476991114
  0
VERTEX
  8
Noten
 10
24.0911108
 20
29.52
 42
-0.0162585252807
  0
VERTEX
  8
Noten
 10
24.2711108
 20
28.72
 42
0.0106408004683
  0
VERTEX
  8
Noten
 10
24.5288892
 20
27.44
 42
-0.0388156750121
  0
VERTEX
  8
Noten
 10
24.64444336
 20
26.8
 42
0.0153627118198
  0
VERTEX
  8
Noten
 10
24.7688892
 20
26.2400000000001
 42
0.0114598987868
  0
VERTEX
  8
Noten
 10
25.287956458599
 20
23.7485980280121
 42
0.0
  0
VERTEX
  8
Noten
 10
25.281773578305
 20
23.723866506836
 42
0.0745406032568
  0
VERTEX
  8
Noten
 10
26.051013318191
 20
24.2486456861334
 42
0.0463873431733
  0
VERTEX
  8
Noten
 10
26.96
 20
25.0111108
 42
0.0891037459637
  0
VERTEX
  8
Noten
 10
27.73333248
 20
25.84
 42
0.0799132645938
  0
VERTEX
  8
Noten
 10
28.41555664
 20
27.12
 42
0.0473930425538
  0
VERTEX
  8
Noten
 10
28.5888892
 20
27.68
 42
0.0084204994709
  0
VERTEX
  8
Noten
 10
28.7688892
 20
28.4
 42
0.0241415916076
  0
VERTEX
  8
Noten
 10
28.8464470354389
 20
29.3440805732394
 42
0.0112721623608
  0
VERTEX
  8
Noten
 10
28.9007646571798
 20
30.0321037819578
 42
0.0069449983391
  0
VERTEX
  8
Noten
 10
28.8826587832662
 20
30.9011857298126
 42
0.0
  0
VERTEX
  8
Noten
 10
28.7559176658706
 20
31.543944253747
 42
0.0818227084063
  0
VERTEX
  8
Noten
 10
28.33777832
 20
32.72
 42
0.0512142188052
  0
VERTEX
  8
Noten
 10
27.7488892
 20
33.68
 42
0.0790248792103
  0
VERTEX
  8
Noten
 10
26.8
 20
34.6711108
 42
0.069298164433
  0
VERTEX
  8
Noten
 10
25.44
 20
35.4888892
 42
0.0437117072931
  0
VERTEX
  8
Noten
 10
24.72
 20
35.7088892
 42
0.0261375857629
  0
SEQEND
  0
POLYLINE
  8
Noten
 66
     1
 10
0.0
 20
0.0
 30
0.0
 70
     1
  0
VERTEX
  8
Noten
 10
19.28
 20
44.32
 42
0.0387456387776
  0
VERTEX
  8
Noten
 10
19.4088892
 20
43.7600000000001
 42
0.0088916567065
  0
VERTEX
  8
Noten
 10
19.6288892
 20
42.72
 42
-0.0129812123724
  0
VERTEX
  8
Noten
 10
20.1630198720098
 20
40.2272195711238
 42
0.1367421388944
  0
VERTEX
  8
Noten
 10
17.410107852417
 20
38.8990256830998
 42
0.0441688196784
  0
VERTEX
  8
Noten
 10
16.48666624
 20
38.07333248
 42
0.0201180756089
  0
VERTEX
  8
Noten
 10
16.15555544
 20
37.68
 42
0.0357113820806
  0
VERTEX
  8
Noten
 10
15.71555544
 20
37.12
 42
0.0516679275569
  0
VERTEX
  8
Noten
 10
15.0888892
 20
35.92
 42
0.0368672286856
  0
VERTEX
  8
Noten
 10
14.7688892
 20
34.96
 42
0.0150477029357
  0
VERTEX
  8
Noten
 10
14.48666624
 20
33.76
 42
-0.0660115766165
  0
VERTEX
  8
Noten
 10
14.40666624
 20
32.96
 42
0.0263675342932
  0
VERTEX
  8
Noten
 10
14.4
 20
32.08
 42
0.0
  0
VERTEX
  8
Noten
 10
14.3868367731335
 20
31.1747092183138
 42
0.0593151469234
  0
VERTEX
  8
Noten
 10
14.51333376
 20
30.08
 42
0.0415600005098
  0
VERTEX
  8
Noten
 10
14.9288892
 20
28.96
 42
0.0574304870417
  0
VERTEX
  8
Noten
 10
15.3288892
 20
28.16
 42
0.012957078434
  0
VERTEX
  8
Noten
 10
16.13333376
 20
26.88
 42
0.0438819546189
  0
VERTEX
  8
Noten
 10
16.6888892
 20
26.16
 42
0.0816306966736
  0
VERTEX
  8
Noten
 10
17.2
 20
25.66444336
 42
0.0492370403553
  0
VERTEX
  8
Noten
 10
17.92
 20
25.1688892
 42
-0.0397257020527
  0
VERTEX
  8
Noten
 10
18.64
 20
24.63333248
 42
0.0869248590491
  0
VERTEX
  8
Noten
 10
19.12
 20
24.28222168
 42
0.1793430477421
  0
VERTEX
  8
Noten
 10
19.44
 20
24.3088892
 42
0.210378089174
  0
VERTEX
  8
Noten
 10
19.88
 20
24.72
 42
0.1797152016835
  0
VERTEX
  8
Noten
 10
19.84666752
 20
25.28
 42
0.0927145392881
  0
VERTEX
  8
Noten
 10
19.36
 20
25.92
 42
-0.0598643050962
  0
VERTEX
  8
Noten
 10
17.9584896559743
 20
27.7220561239904
 42
-0.0373571810611
  0
VERTEX
  8
Noten
 10
17.3948658998366
 20
29.7548930907717
 42
-0.0343672841079
  0
VERTEX
  8
Noten
 10
17.8890814867293
 20
32.5979800134538
 42
-0.0308981885127
  0
VERTEX
  8
Noten
 10
18.96
 20
33.92
 42
-0.0718604295682
  0
VERTEX
  8
Noten
 10
21.1364705130895
 20
35.3770947871255
 42
-0.0433246791597
  0
VERTEX
  8
Noten
 10
21.8025787276507
 20
32.5678515936608
 42
-0.0106408004683
  0
VERTEX
  8
Noten
 10
22.4488892
 20
28.9600000000002
 42
0.00446211564
  0
VERTEX
  8
Noten
 10
23.4632387980503
 20
23.4428986046514
 42
-0.0160386285516
  0
VERTEX
  8
Noten
 10
22.3463359440796
 20
23.2156566444066
 42
-0.0768639329269
  0
VERTEX
  8
Noten
 10
21.3655169730186
 20
23.0566049193696
 42
-0.0033916461433
  0
VERTEX
  8
Noten
 10
20.3714436915378
 20
22.9770790568512
 42
-0.0069424153794
  0
VERTEX
  8
Noten
 10
19.2580816162795
 20
22.990333367271
 42
-0.0323731200973
  0
VERTEX
  8
Noten
 10
18.24
 20
23.0711108
 42
0.0352280784878
  0
VERTEX
  8
Noten
 10
17.68
 20
23.1511108
 42
-0.0403105306067
  0
VERTEX
  8
Noten
 10
15.84
 20
23.78222168
 42
-0.0078831016827
  0
VERTEX
  8
Noten
 10
15.12
 20
24.19555664
 42
-0.032586281705
  0
VERTEX
  8
Noten
 10
14.08666624
 20
25.04
 42
-0.0068159887894
  0
VERTEX
  8
Noten
 10
13.75333376
 20
25.44
 42
-0.0662246474118
  0
VERTEX
  8
Noten
 10
12.5288892
 20
27.2
 42
-0.0471408738754
  0
VERTEX
  8
Noten
 10
11.94
 20
28.4000000000001
 42
-0.0130317825645
  0
VERTEX
  8
Noten
 10
11.5511108
 20
29.36
 42
-0.0402830059925
  0
VERTEX
  8
Noten
 10
11.3711108
 20
30.0
 42
-0.0642852620377
  0
VERTEX
  8
Noten
 10
11.1087137308081
 20
31.1625454964498
 42
0.0
  0
VERTEX
  8
Noten
 10
10.987076512169
 20
32.1842981330188
 42
-0.0388298655352
  0
VERTEX
  8
Noten
 10
10.9911108
 20
33.2
 42
0.0623370852557
  0
VERTEX
  8
Noten
 10
11.04666624
 20
33.68
 42
-0.0426646124089
  0
VERTEX
  8
Noten
 10
11.44222168
 20
35.28
 42
-0.0303430213167
  0
VERTEX
  8
Noten
 10
12.02
 20
36.56
 42
-0.049983830186
  0
VERTEX
  8
Noten
 10
13.0140775942913
 20
38.2067867112302
 42
-0.0060834095486
  0
VERTEX
  8
Noten
 10
13.9550698502652
 20
39.4393540324355
 42
0.0167259456897
  0
VERTEX
  8
Noten
 10
15.2936644679182
 20
40.7514418259766
 42
-0.0069341095138
  0
VERTEX
  8
Noten
 10
16.8443136784668
 20
42.2623308003573
 42
-0.0349897886557
  0
VERTEX
  8
Noten
 10
17.7630619247554
 20
43.1315628937063
 42
0.0135064597167
  0
VERTEX
  8
Noten
 10
18.48
 20
43.76
 42
-0.0384048104053
  0
VERTEX
  8
Noten
 10
19.12
 20
44.32
 42
0.0
  0
SEQEND
  0
POLYLINE
  8
Noten
 66
     1
 10
0.0
 20
0.0
 30
0.0
 70
     1
  0
VERTEX
  8
Noten
 10
58.32
 20
47.48666504
 42
-0.2016944926762
  0
VERTEX
  8
Noten
 10
57.97777832
 20
47.76222168
 42
-0.1082430814506
  0
VERTEX
  8
Noten
 10
57.92
 20
48.16
 42
0.0
  0
VERTEX
  8
Noten
 10
58.0130450241246
 20
48.8764328839905
 42
0.0
  0
VERTEX
  8
Noten
 10
58.0130450241246
 20
48.8356247620698
 42
0.0226071232966
  0
VERTEX
  8
Noten
 10
58.6251668529335
 20
50.8420240898322
 42
0.0290207333126
  0
VERTEX
  8
Noten
 10
59.08888672
 20
53.2
 42
0.0485001458543
  0
VERTEX
  8
Noten
 10
59.12
 20
53.68
 42
0.0069424153794
  0
VERTEX
  8
Noten
 10
59.11777832
 20
55.12
 42
0.0034105870971
  0
VERTEX
  8
Noten
 10
59.04666504
 20
55.6
 42
0.0166374576601
  0
VERTEX
  8
Noten
 10
58.973665359197
 20
56.1366991349091
 42
0.0249830716015
  0
VERTEX
  8
Noten
 10
58.1646281460748
 20
58.9570378494572
 42
0.0
  0
VERTEX
  8
Noten
 10
58.16
 20
58.88
 42
0.0950787827386
  0
VERTEX
  8
Noten
 10
57.91777832
 20
59.44
 42
-0.0083273329306
  0
VERTEX
  8
Noten
 10
57.56444336
 20
60.0
 42
0.0467244051757
  0
VERTEX
  8
Noten
 10
56.24
 20
61.6
 42
0.0135064597167
  0
VERTEX
  8
Noten
 10
55.44
 20
62.39333496
 42
0.031805907213
  0
VERTEX
  8
Noten
 10
54.48
 20
63.08888672
 42
0.0391154480682
  0
VERTEX
  8
Noten
 10
54.08
 20
63.29777832
 42
0.0761549460061
  0
VERTEX
  8
Noten
 10
53.12
 20
63.61555664
 42
0.0782621366015
  0
VERTEX
  8
Noten
 10
52.4
 20
63.67333496
 42
0.1508825029018
  0
VERTEX
  8
Noten
 10
51.94
 20
63.48222168
 42
0.1986670623154
  0
VERTEX
  8
Noten
 10
51.76666504
 20
63.12
 42
0.0759599245382
  0
VERTEX
  8
Noten
 10
51.79111328
 20
62.48
 42
-0.0507922908982
  0
VERTEX
  8
Noten
 10
51.84
 20
61.76
 42
0.0
  0
VERTEX
  8
Noten
 10
51.9133349600001
 20
54.72
 42
-0.0008678430964
  0
VERTEX
  8
Noten
 10
51.92
 20
50.08
 42
0.0
  0
VERTEX
  8
Noten
 10
51.92
 20
45.12
 42
0.0706121977302
  0
VERTEX
  8
Noten
 10
51.96888672
 20
44.64
 42
-0.0318819409656
  0
VERTEX
  8
Noten
 10
52.00222168
 20
44.08
 42
0.0034105870966
  0
VERTEX
  8
Noten
 10
52.103709630479
 20
43.5019746040978
 42
-0.0291550006218
  0
VERTEX
  8
Noten
 10
52.0954799685242
 20
42.7119270564241
 42
0.0112570140106
  0
VERTEX
  8
Noten
 10
52.0378723348396
 20
41.7572862696516
 42
-0.0148666625395
  0
VERTEX
  8
Noten
 10
51.7580638283718
 20
40.5886742720509
 42
-0.0171123287956
  0
VERTEX
  8
Noten
 10
51.223135801301
 20
39.6669521330982
 42
0.0074651042622
  0
VERTEX
  8
Noten
 10
50.28888672
 20
38.4
 42
-0.0169025758073
  0
VERTEX
  8
Noten
 10
49.12
 20
37.20666752
 42
-0.1035669989283
  0
VERTEX
  8
Noten
 10
46.96
 20
35.97333248
 42
-0.0759960522007
  0
VERTEX
  8
Noten
 10
46.4
 20
35.83555664
 42
0.0134491969773
  0
VERTEX
  8
Noten
 10
45.6
 20
35.69777832
 42
-0.0366123734761
  0
VERTEX
  8
Noten
 10
44.64
 20
35.68666752
 42
0.011272162361
  0
VERTEX
  8
Noten
 10
43.8620617191014
 20
35.778745750298
 42
-0.0773189608573
  0
VERTEX
  8
Noten
 10
42.56
 20
36.10666752
 42
-0.0685955484167
  0
VERTEX
  8
Noten
 10
41.84
 20
36.4488892
 42
-0.0412561353283
  0
VERTEX
  8
Noten
 10
41.2482631290928
 20
36.8015365029101
 42
-0.0703373774913
  0
VERTEX
  8
Noten
 10
40.78444336
 20
37.36
 42
-0.0719910080787
  0
VERTEX
  8
Noten
 10
40.32666752
 20
38.08
 42
-0.0252056390675
  0
VERTEX
  8
Noten
 10
40.11333248
 20
38.72
 42
-0.031328611161
  0
VERTEX
  8
Noten
 10
40.0
 20
39.44
 42
-0.0838499451123
  0
VERTEX
  8
Noten
 10
40.30444336
 20
41.44
 42
-0.0164610599864
  0
VERTEX
  8
Noten
 10
40.50222168
 20
41.92
 42
-0.0268815535224
  0
VERTEX
  8
Noten
 10
41.15111328
 20
42.88
 42
-0.0230919763741
  0
VERTEX
  8
Noten
 10
41.92
 20
43.67333496
 42
-0.0525448882023
  0
VERTEX
  8
Noten
 10
43.84
 20
45.08888672
 42
-0.0693122456028
  0
VERTEX
  8
Noten
 10
45.84
 20
45.88888672
 42
0.032155030593
  0
VERTEX
  8
Noten
 10
46.32
 20
45.96888672
 42
-0.0485001458546
  0
VERTEX
  8
Noten
 10
46.8
 20
46.0
 42
-0.0264863712316
  0
VERTEX
  8
Noten
 10
47.76
 20
45.99333496
 42
-0.0022632744949
  0
VERTEX
  8
Noten
 10
48.4
 20
45.88888672
 42
0.0372994905988
  0
VERTEX
  8
Noten
 10
48.96
 20
45.76444336
 42
-0.0350068944853
  0
VERTEX
  8
Noten
 10
49.52
 20
45.64444336
 42
0.058236124482
  0
VERTEX
  8
Noten
 10
50.0
 20
45.50444336
 42
-0.0219656006466
  0
VERTEX
  8
Noten
 10
50.4029092646518
 20
45.334958487284
 42
0.0
  0
VERTEX
  8
Noten
 10
50.4174491939977
 20
50.4456716079662
 42
0.0
  0
VERTEX
  8
Noten
 10
50.2801814031383
 20
57.8581323143703
 42
0.0
  0
VERTEX
  8
Noten
 10
50.48
 20
69.36
 42
0.0
  0
VERTEX
  8
Noten
 10
50.48
 20
73.52
 42
0.0
  0
VERTEX
  8
Noten
 10
51.68
 20
73.52
 42
0.0392678334028
  0
VERTEX
  8
Noten
 10
51.71111328
 20
72.96
 42
-0.0623058370374
  0
VERTEX
  8
Noten
 10
51.76666504
 20
72.48
 42
0.0157401897292
  0
VERTEX
  8
Noten
 10
51.83555664
 20
72.08
 42
0.0514182270927
  0
VERTEX
  8
Noten
 10
51.93111328
 20
71.6
 42
0.016451132519
  0
VERTEX
  8
Noten
 10
52.03111328
 20
71.2
 42
0.0206024074562
  0
VERTEX
  8
Noten
 10
52.44888672
 20
70.0
 42
0.0463996407972
  0
VERTEX
  8
Noten
 10
52.75111328
 20
69.36
 42
0.0121489719917
  0
VERTEX
  8
Noten
 10
53.23333496
 20
68.64
 42
0.0118681467536
  0
VERTEX
  8
Noten
 10
54.40666504
 20
67.2
 42
-0.0392435123009
  0
VERTEX
  8
Noten
 10
54.99111328
 20
66.48
 42
-0.0068203437932
  0
VERTEX
  8
Noten
 10
56.84888672
 20
64.08
 42
0.0189373062612
  0
VERTEX
  8
Noten
 10
57.68666504
 20
62.96
 42
-0.0151017592436
  0
VERTEX
  8
Noten
 10
58.04666504
 20
62.56
 42
-0.0196215355974
  0
VERTEX
  8
Noten
 10
58.68888672
 20
61.6
 42
-0.0132268806146
  0
VERTEX
  8
Noten
 10
59.37333496
 20
60.24
 42
-0.0683210617904
  0
VERTEX
  8
Noten
 10
60.16
 20
57.36
 42
0.0373093962239
  0
VERTEX
  8
Noten
 10
60.22888672
 20
57.04
 42
-0.0643167017167
  0
VERTEX
  8
Noten
 10
60.32
 20
56.48
 42
-0.0706121977318
  0
VERTEX
  8
Noten
 10
60.4056202176548
 20
55.6593808487566
 42
0.0083307217999
  0
VERTEX
  8
Noten
 10
60.4385387201481
 20
54.9927811732675
 42
-0.0034105870973
  0
VERTEX
  8
Noten
 10
60.47777832
 20
54.48
 42
-0.0111083143401
  0
VERTEX
  8
Noten
 10
60.47333496
 20
53.52
 42
0.0034105870969
  0
VERTEX
  8
Noten
 10
60.40222168
 20
53.04
 42
-0.0606371966141
  0
VERTEX
  8
Noten
 10
60.33777832
 20
52.48
 42
-0.0370380172863
  0
VERTEX
  8
Noten
 10
60.10888672
 20
51.36
 42
-0.0247363793696
  0
VERTEX
  8
Noten
 10
59.2
 20
48.56
 42
-0.1097640575575
  0
VERTEX
  8
Noten
 10
59.13333496
 20
48.39555664
 42
0.0055796758534
  0
VERTEX
  8
Noten
 10
58.87333008
 20
47.84
 42
-0.2175753193264
  0
VERTEX
  8
Noten
 10
58.48
 20
47.48666504
 42
0.0
  0
SEQEND
  0
POLYLINE
  8
Linien
 66
     1
 10
0.0
 20
0.0
 30
0.0
 70
     1
  0
VERTEX
  8
Linien
 10
0.0
 20
21.12
 42
0.0
  0
VERTEX
  8
Linien
 10
128.0
 20
21.12
 42
0.0
  0
VERTEX
  8
Linien
 10
128.0
 20
23.04
 42
0.0
  0
VERTEX
  8
Linien
 10
0.0
 20
23.04
 42
0.0
  0
SEQEND
  0
POLYLINE
  8
Linien
 66
     1
 10
0.0
 20
0.0
 30
0.0
 70
     1
  0
VERTEX
  8
Linien
 10
0.0
 20
30.0
 42
0.0
  0
VERTEX
  8
Linien
 10
128.0
 20
30.0
 42
0.0
  0
VERTEX
  8
Linien
 10
128.0
 20
31.92
 42
0.0
  0
VERTEX
  8
Linien
 10
0.0
 20
31.92
 42
0.0
  0
SEQEND
  0
POLYLINE
  8
Linien
 66
     1
 10
0.0
 20
0.0
 30
0.0
 70
     1
  0
VERTEX
  8
Linien
 10
0.0
 20
38.88
 42
0.0
  0
VERTEX
  8
Linien
 10
128.0
 20
38.88
 42
0.0
  0
VERTEX
  8
Linien
 10
128.0
 20
40.8
 42
0.0
  0
VERTEX
  8
Linien
 10
0.0
 20
40.8
 42
0.0
  0
SEQEND
  0
POLYLINE
  8
Linien
 66
     1
 10
0.0
 20
0.0
 30
0.0
 70
     1
  0
VERTEX
  8
Linien
 10
0.0
 20
47.76
 42
0.0
  0
VERTEX
  8
Linien
 10
128.0
 20
47.76
 42
0.0
  0
VERTEX
  8
Linien
 10
128.0
 20
49.68
 42
0.0
  0
VERTEX
  8
Linien
 10
0.0
 20
49.68
 42
0.0
  0
SEQEND
  0
POLYLINE
  8
Linien
 66
     1
 10
0.0
 20
0.0
 30
0.0
 70
     1
  0
VERTEX
  8
Linien
 10
0.0
 20
56.64
 42
0.0
  0
VERTEX
  8
Linien
 10
128.0
 20
56.64
 42
0.0
  0
VERTEX
  8
Linien
 10
128.0
 20
58.56
 42
0.0
  0
VERTEX
  8
Linien
 10
0.0
 20
58.56
 42
0.0
  0
SEQEND
  0
ENDSEC
  0
EOF
