<?xml version="1.0" standalone="yes"?>
<svg xmlns="http://www.w3.org/2000/svg" width="1208" height="427">
<path style="fill:#33343d; stroke:none;" d="M0 0L0 427L1208 427L1208 0L0 0M386 23C382.781 39.6008 376.727 57.1139 376 74C380.542 70.1289 385.272 66.8707 391 65.0293C395.25 63.6633 399.526 62.7303 404 63.2901C407.307 63.7039 410.906 64.3481 414 65.6134C434.723 74.0885 422.364 104.226 419.389 120C418.187 126.371 416.552 132.658 415.211 139C414.682 141.5 414.682 145.357 412.987 147.397C410.433 150.47 402.592 149 399 149C399.315 133.809 404.822 117.886 407.8 103C408.983 97.0887 412.12 88.8095 409.413 83.0154C403.237 69.7952 385.037 78.419 378.185 86.0154C368.462 96.7956 367.054 113.288 364.576 127C363.245 134.363 360.998 141.587 360 149L346 149C346.135 132.641 351.748 114.941 355.35 99C361.041 73.8104 366.219 48.3734 371 23L386 23M711 23C704.471 48.237 699.826 74.3835 695 100C702.988 93.4952 710.62 86.1732 718 78.9854C722.298 74.7995 727.186 68.6741 733 66.5995C738.476 64.6455 746.23 66 752 66C747.308 72.135 740.677 76.865 735 82.0857C726.939 89.4986 718.968 97.7078 710 104C718.698 116.227 719.324 137.145 738 138C737.932 141.281 738.211 146.72 735.987 149.397C731.85 154.375 720.632 148.629 717.004 145.66C704.59 135.501 703.825 117.418 693 106C692.366 120.54 686.153 134.513 685 149L670 149C673.919 118.653 681.939 87.8643 688.651 58C690.442 50.029 691.859 41.9744 693.651 34C694.267 31.2567 694.36 26.8422 696.175 24.6034C698.768 21.4059 707.296 23 711 23M1049 23C1047.91 31.4383 1045.44 39.6577 1043.8 48C1039.81 68.3583 1035.77 88.7785 1031.12 109C1029.68 115.269 1028.33 121.657 1027.27 128C1026.85 130.474 1026.35 133.484 1028.41 135.397C1030.6 137.434 1034.25 136.99 1037 137C1036.72 140.497 1036.65 146.716 1033.49 148.972C1031.47 150.409 1028.33 150.007 1026 149.999C1018.45 149.975 1011.82 147.474 1011.09 139C1010.03 126.577 1015.42 112.084 1018.12 100C1023.75 74.7033 1030.54 48.6724 1034 23L1049 23M1091 23C1090.57 32.9646 1087.28 43.2476 1085.21 53C1081.24 71.6658 1077.51 90.3585 1073.42 109C1072.05 115.274 1070.69 121.669 1069.62 128C1069.2 130.424 1068.67 133.445 1070.6 135.397C1072.66 137.474 1076.34 136.991 1079 137C1078.93 140.559 1079.03 145.691 1076.27 148.397C1070.51 154.056 1055.99 149.018 1053.81 141.985C1051.09 133.227 1056.12 119.679 1058.12 111C1062.69 91.0927 1066.54 70.9828 1070.79 51C1072.38 43.5341 1072.37 31.8134 1076.43 25.3179C1078.88 21.4034 1087.04 23 1091 23M372 24C371.366 31.7682 368.81 39.3367 367.424 47C362.764 72.7825 356.244 98.2202 351.576 124C350.132 131.973 347.354 139.885 347 148L359 148C360.345 137.585 363.108 127.287 365.199 117C367.547 105.446 369.373 92.8142 378.093 84.0934C385.586 76.6012 402.718 69.2678 409.991 81.0185C413.948 87.4125 410.755 96.2963 409.13 103C405.537 117.819 402.824 133.013 400 148L412 148L421.003 105C422.716 96.7252 425.301 87.4994 423.66 79C420.41 62.1757 396.898 62.3426 385 68.9051C380.766 71.2402 377.402 74.6267 374 78C374.785 59.7216 382.551 42.2102 384 24L372 24M697 24C693.322 51.3156 686.113 79.081 680.116 106C677.123 119.433 672.286 134.24 672 148L684 148C685.157 133.465 690.844 119.521 692 105C706.092 111.631 705.405 133.688 717.015 143.787C720.541 146.854 730.808 152.422 734.987 147.397C736.681 145.359 736.681 141.511 737 139C716.655 138.51 719.848 115.157 708 105C720.933 92.1743 737.948 81.451 749 67C744.053 67 737.686 65.9522 733 67.7423C727.796 69.7303 723.967 75.2155 720 78.9105C711.308 87.0077 702.718 96.1606 693 103C696.561 76.5542 706.828 50.5848 709 24L697 24M1035 24C1034.37 31.7401 1031.97 39.3911 1030.45 47C1026.57 66.3534 1022.71 85.7458 1018.35 105C1016.62 112.632 1015.14 120.328 1013.6 128C1012.74 132.266 1011.46 136.694 1012.8 140.996C1015.81 150.592 1026.21 148.985 1034 148C1034.44 144.608 1035.14 141.312 1036 138C1033.15 137.998 1028.94 138.659 1026.74 136.397C1024.58 134.172 1025.31 130.708 1025.8 128C1026.91 121.968 1028.26 115.987 1029.58 110C1033.59 91.7114 1037.21 73.3342 1041 55C1043.12 44.7842 1046.17 34.4169 1047 24L1035 24M1078 138C1074.9 137.989 1070.8 138.441 1068.64 135.682C1066.9 133.462 1067.72 130.504 1068.2 128C1069.35 121.973 1070.75 116.006 1072 110C1077.92 81.3744 1083.01 52.38 1090 24C1086.47 24 1079.78 22.6747 1077.7 26.3179C1073.48 33.7257 1073.22 45.6993 1071.55 54C1067.72 73.027 1063.37 91.9624 1059.55 111C1057.69 120.283 1053.14 131.467 1055.39 140.985C1057.04 147.932 1069.74 152.358 1075.26 147.142C1077.51 145.017 1077.63 140.869 1078 138M134 32L131 46L95 46C93.9955 58.6218 90.1416 71.6293 87.4244 84C82.6812 105.594 78.2086 127.298 74 149L59 149C59.6449 134.019 64.6637 118.68 67.6003 104C71.3942 85.034 73.8034 64.299 80 46L44 46C44.6808 42.3868 44.5958 35.465 47.7276 33.0278C49.6223 31.5533 52.7656 32.0046 55 32L71 32L134 32M46 45L81 45C76.5369 79.5604 66.4537 113.747 60 148L73 148C76.2784 122.613 83.0915 97.0043 88.5756 72C89.8865 66.0233 90.9876 59.9973 92.1998 54C92.7352 51.3513 92.9873 47.6999 95.4329 46.0278C98.1488 44.1708 102.889 45 106 45L130 45C130.775 41.0028 131.677 37.063 132 33L73 33L57 33C54.6918 33.001 51.5672 32.5229 49.4336 33.6034C46.1008 35.2912 46.2536 41.7914 46 45M479 43C477.964 50.6967 475.947 58.4795 474 66L496 66C494.97 69.983 494.177 73.8842 494 78C488.684 78 476.671 75.7629 472.564 79.6034C469.618 82.3577 469.751 88.2965 468.996 92C466.954 102.017 464.617 111.973 462.6 122C461.733 126.31 460.165 131.066 463.434 134.772C468.39 140.387 477.567 137.053 484 137C483.727 140.428 483.627 145.612 481.143 148.272C478.556 151.043 473.474 150.955 470 150.996C461.229 151.1 451.173 150.313 447.228 140.996C444.411 134.341 446.611 126.692 447.997 120C450.888 106.038 453.141 91.727 457 78L441 78L443 66C447.122 66 454.106 67.3238 457.686 64.9722C462.565 61.7676 462.958 48.374 464 43L479 43M465 44C464.288 49.2881 463.472 62.8866 458.697 65.9722C455.077 68.3108 448.15 67 444 67L443 77L458 77C456.306 90.3361 453.131 103.895 450.119 117C448.49 124.087 445.531 132.915 448.344 139.999C452.056 149.346 463.294 150.316 472 149.284C474.533 148.984 478.153 149.37 480.012 147.258C482.008 144.989 481.878 140.824 482 138C476.294 139.059 465.845 141.201 461.742 135.772C458.831 131.919 460.307 126.283 461.211 122C463.32 112.004 465.544 102.019 467.551 92C468.336 88.0807 468.42 82.6081 470.938 79.3179C475.673 73.1293 487.268 80.899 492.012 75.3966C493.812 73.3079 493.793 69.5911 494 67L473 67C473.996 59.2839 476.382 51.7631 477 44L465 44M186 64C185.341 67.3963 185.284 74.7306 182.4 76.9722C179.843 78.9605 175.048 77.8572 172 78.5185C166.063 79.8066 160.49 83.3367 156.681 88.0401C147.445 99.4444 146.787 117.116 143.79 131C142.911 135.072 142.597 145.292 139.258 147.972C136.355 150.303 129.524 149 126 149C126.148 141.839 128.152 134.984 129.551 128C133.614 107.719 140.318 86.5963 142 66L155 66L155 75C164.302 65.8962 173.142 62.375 186 64M245 73C249.319 65.7985 253.046 66 261 66C257.956 89.5731 248.016 113.176 248 137L258 137C257.853 140.418 257.892 145.677 255.262 148.258C253.388 150.096 250.429 149.974 248 149.995C239.633 150.068 234.452 146.691 234 138C227.706 142.381 222.719 147.876 215 149.761C197.359 154.069 185.899 143.291 184.171 126C182.266 106.948 190.251 81.7334 206.004 70.1597C217.065 62.0332 237.063 58.9517 245 73M339 80C327.15 78.403 317.117 73.033 306 80.8002C294.775 88.6433 290.516 101.034 288.73 114C287.584 122.318 289.799 131.94 298.015 135.95C309.044 141.333 319.243 134.851 330 133C329.497 136.732 329.178 143.415 326.4 146.181C323.663 148.907 318.617 149.469 315 150.079C304.44 151.863 292.763 151.526 284.04 144.471C272.656 135.262 272.597 118.165 275.095 105C278.446 87.3411 289.214 70.6731 307 65.2053C315.196 62.6856 322.674 62.7998 331 64.6651C333.776 65.287 338.243 65.9436 339.958 68.51C341.972 71.5261 339.817 76.8433 339 80M514 114C514.07 117.385 514.344 120.73 515.304 124C521.429 144.867 545.326 136.395 560 133C559.703 136.758 559.672 142.471 557.142 145.49C554.387 148.777 547.985 149.667 544 150.384C529.376 153.016 511.442 150.086 503.709 136C500.24 129.68 499.989 123.012 500 116C500.046 87.0767 524.656 52.9892 557 65.4684C570.302 70.6006 575.649 87.4387 566.606 98.9962C560.741 106.491 550.992 109.493 542 111.334C533.143 113.147 523.036 113.813 514 114M631 149C632.338 138.641 634.811 128.184 637.12 118C638.773 110.704 640.136 103.336 641.6 96C642.376 92.1143 643.574 87.9236 642.346 84.0038C637.327 67.9717 615.179 79.6587 608.927 88.0146C596.52 104.6 600.459 127.536 592.853 145.852C590.813 150.764 582.319 149 578 149C578.321 141.544 580.49 134.28 581.997 127C584.55 114.67 587.116 102.344 589.6 90C590.609 84.9869 591.794 80.0145 592.8 75C593.259 72.7147 593.4 69.4466 594.988 67.6034C597.394 64.8125 603.701 66 607 66L607 76C610.998 71.7707 615.547 68.1197 621 65.9298C624.953 64.3422 629.715 63.0297 634 63.1288C637.211 63.2032 640.922 63.7127 644 64.6343C667.291 71.6084 654.977 101.672 652.084 118C650.835 125.053 649.158 131.997 647.661 139C647.097 141.638 647.101 145.324 645.142 147.397C642.277 150.427 634.803 149 631 149M814 73C816.367 65.1258 821.89 66 829 66C826.741 82.7784 821.849 99.3476 818.739 116C817.828 120.877 814.072 129.035 815.833 133.852C817.283 137.819 822.654 136.997 826 137C825.729 140.404 825.637 145.772 823.143 148.397C819.63 152.093 808.711 150.254 805.228 147.347C802.18 144.804 801.504 140.489 800 137C790.834 154.302 762.026 156.605 754.213 137C746.744 118.26 755.011 89.3503 768.184 75.0394C781.322 60.7673 800.221 59.5452 814 73M855 144C852.961 159.143 848.04 173.851 846 189L831 189C835.06 158.848 843.47 128.841 849.449 99C851.624 88.1449 855.099 77.0324 856 66L869 66L869 75C881.187 63.3697 901.78 56.5873 912.867 74.0008C914.612 76.7417 915.655 79.8371 916.331 83C920.278 101.472 914.26 124.952 901.7 138.961C889.889 152.134 868.993 155.468 855 144M945 114C945 117.636 944.702 121.484 945.804 125C952.039 144.885 976.151 136.204 990 133C989.835 136.83 989.741 142.408 987.143 145.49C984.53 148.589 978.737 149.269 975 150.112C960.975 153.274 942.163 150.416 934.363 137C930.563 130.464 929.989 123.369 930 116C930.046 86.3119 954.62 54.2123 987 65.4097C1000.64 70.1259 1005.48 87.707 996.606 98.9962C990.789 106.4 981.828 109.121 973 111.112C964.088 113.121 954.112 113.609 945 114M1110 114C1110.01 117.38 1110.02 120.712 1110.93 124C1116.92 145.711 1141.28 135.503 1156 133C1155.5 136.679 1155.2 143.311 1152.4 146.005C1149.45 148.851 1143.85 149.458 1140 150.195C1125.32 153.004 1107.03 150.335 1099.32 136C1082.07 103.892 1114.54 50.0063 1153 65.4784C1165.99 70.7023 1170.88 88.9218 1161.61 99.9066C1155.91 106.658 1146.27 109.305 1138 111.115C1129 113.084 1119.18 113.606 1110 114M154 78L154 67C150.701 67.0004 145.48 66.0446 143.433 69.3179C139.846 75.0528 139.842 85.402 138.35 92C135.647 103.942 133.442 116.004 130.996 128C129.635 134.675 127.542 141.184 127 148L139 148C140.487 136.958 143.471 125.904 145.789 115C147.694 106.039 149.001 96.6638 154.443 89.0146C158.169 83.7775 163.686 79.3343 170 77.7083C173.249 76.8717 178.573 78.1061 181.262 75.9722C184.004 73.7954 183.864 68.1559 184 65C170.651 65 163.473 68.5329 154 78M235 134C235.01 137.599 234.737 141.603 237.009 144.657C239.985 148.655 250.252 151.262 254.143 147.258C256.073 145.271 256.332 141.572 257 139C253.271 138.966 248.201 139.155 246.643 134.891C244.767 129.757 248.548 120.218 249.661 115C253.07 99.0206 255.905 82.8198 260 67C252.429 67.0008 249.101 67.6298 246 75C243.016 71.6571 240.206 68.365 235.999 66.5332C223.146 60.9357 207.817 67.7695 199.669 78.0038C188.505 92.0262 185.56 109.576 186.015 127C186.473 144.56 201.917 154.039 218 147.518C225.066 144.653 229.287 138.606 235 134M328 135C319.014 137.402 308.307 141.562 299.001 138.005C281.104 131.165 286.604 104.657 293.954 92C304.29 74.2038 320.376 73.2672 338 79L340 69C323.026 61.4871 301.976 63.8372 289.184 78.0146C281.743 86.2624 277.743 97.1854 275.921 108C274.188 118.28 274.196 130.181 280.638 138.985C288.119 149.209 301.454 150.637 313 148.999C316.746 148.468 322.419 147.955 325.262 145.157C327.691 142.765 327.747 138.177 328 135M559 135C543.734 137.255 519.596 146.1 514.044 124C513.219 120.716 511.899 115.31 515.318 113.028C518.927 110.618 525.805 112.128 530 111.576C546.72 109.374 569.074 106.272 568.999 85C568.99 82.2963 569.025 79.55 567.991 77C561.561 61.1444 537.077 62.8622 525 69.8766C504.82 81.5969 492.517 116.139 505.969 137C513.896 149.292 529.746 151.153 543 148.919C546.842 148.271 552.427 147.917 555.436 145.157C557.979 142.823 558.178 138.175 559 135M606 78L606 67C603.319 67.0003 598.988 66.2419 596.738 68.0278C592.564 71.3414 592.657 83.0687 591.576 88C587.2 107.95 582.889 127.949 579 148C582.123 148 587.66 149.037 590.262 146.972C591.959 145.625 592.19 142.964 592.6 140.999L595.789 126C599.255 109.702 600.448 92.713 614 81.213C621.079 75.2062 636.962 70.5247 642.543 81.0432C644.947 85.5728 643.932 91.2211 642.999 96C641.697 102.675 640.08 109.303 638.92 116C637.089 126.566 633.223 137.252 633 148L645 148C646.196 132.971 650.8 117.769 653.801 103C655.151 96.3574 657.526 88.8314 656.684 82C654.834 66.9902 638.916 62.4521 626 65.7608C618.08 67.7896 611.813 72.4401 606 78M803 134C803.003 137.915 802.473 142.52 805.434 145.581C808.568 148.821 818.562 151.175 822.012 147.258C823.818 145.207 823.796 141.56 824 139C811.365 138.695 814.561 129.176 816.4 120C819.891 102.573 825.589 84.7325 827 67C819.787 67.0056 816.895 68.1174 814 75C810.94 71.9668 807.953 68.7903 804 66.9197C793.008 61.718 779.362 66.0895 771.039 74.0934C758.6 86.0558 751.517 107.855 753.17 125C754.916 143.119 767.943 154.58 786 147.237C793.122 144.34 797.137 138.483 803 134M868 78L868 67L857 67C856.65 75.1412 854.041 83.0424 852.449 91C848.244 112.019 843.755 132.982 839.551 154C837.325 165.128 833.495 176.644 833 188L845 188C846.197 172.966 851.128 157.81 854 143C862.431 146.493 869.363 151.063 879 149.561C901.752 146.015 912.653 123.845 915.155 103C916.219 94.139 916.68 85.3434 912.811 77C907.294 65.1045 892.29 61.9756 881 67.4028C875.88 69.8638 871.963 74.0479 868 78M989 135C974.137 137.195 949.266 146.186 944.29 124C943.565 120.766 941.95 115.29 945.319 113.028C948.763 110.714 955.028 112.189 959 111.715C974.473 109.864 995.906 107.55 999.381 89C999.95 85.9622 1000.07 82.9987 999.211 80C994.057 62.0689 969.568 62.0382 956 69.3241C935.447 80.3602 922.562 116.169 935.97 136.999C943.766 149.11 958.094 150.28 971 149.075C975.584 148.647 982.916 148.317 986.143 144.49C988.198 142.052 988.415 138.017 989 135M1154 135C1139.57 138.309 1115.51 145.256 1109.93 125C1108.76 120.765 1109 116.347 1109 112C1118.14 112 1126.97 111.602 1136 110.079C1144.15 108.705 1153.94 106.141 1159.79 99.8951C1169.11 89.9313 1165.84 72.1525 1153 67.1188C1121.7 54.8452 1097.01 86.3943 1097 115C1097 121.92 1097.02 128.712 1100.33 135C1107.36 148.363 1123.27 151.06 1137 149.13C1147.03 147.721 1153.12 145.996 1154 135M375 74L376 75L375 74M223 75.3287C230.159 74.0711 241.643 76.4652 243.312 85.0038C244.187 89.4756 241.683 95.5838 240.8 100C237.653 115.736 231.685 136.482 213 139.518C199.94 141.64 197.996 128.679 198 119C198.006 103.274 204.719 78.5402 223 75.3287M516 102C517.96 88.7305 527.943 76.1026 542 75.0903C546.049 74.7986 550.496 74.9701 553.786 77.6528C558.857 81.7878 558.33 89.274 553.772 93.6096C548.788 98.3512 540.578 99.903 534 100.714C528.094 101.442 521.951 101.984 516 102M790 75.3904C797.157 73.8322 809.521 76.3807 811.136 85.0146C812.021 89.7473 809.442 96.3585 808.424 101C805.082 116.241 799.182 136.558 781 139.518C769.174 141.443 764.889 129.721 765.129 120C765.515 104.346 772.119 79.2835 790 75.3904M886 75.3904C900.054 72.3568 904.455 85.7119 903.961 97C903.232 113.631 895.11 135.642 877 139.482C871.073 140.739 858.856 138.73 856.774 131.826C855.444 127.417 858.364 120.36 859.349 116C862.802 100.721 867.823 79.3141 886 75.3904M946 102C948 88.6586 958.773 75.3136 973 75.0154C977.251 74.9263 981.52 75.3298 984.772 78.3943C989.348 82.707 987.973 89.5757 983.775 93.6597C978.919 98.3846 970.486 99.8653 964 100.711C958.111 101.478 951.939 101.984 946 102M1111 101C1115.09 89.0008 1123.04 76.2163 1137 75.0934C1142.51 74.6498 1149.46 75.3445 1151.99 81.0941C1154.82 87.5049 1150.54 93.5289 1145 96.5833C1138.14 100.365 1130.56 100.569 1123 101.09C1118.71 101.385 1115.21 102.234 1111 101M223 76.5293C206.445 80.3297 199.181 103.021 199.004 118C198.878 128.674 201.38 140.571 215 137.61C231.597 134 236.357 113.966 239.424 100C240.388 95.6136 242.321 90.5403 241.812 86.0008C240.899 77.8413 229.773 74.9746 223 76.5293M518 100C523.696 100 529.378 100.253 535 99.196C540.985 98.0704 548.109 97.0853 552.656 92.6096C556.456 88.8686 557.214 82.2979 552.772 78.7029C538.839 67.428 519.973 86.8884 518 100M791 76.5301C774.011 80.3689 767.025 102.67 767 118C766.984 128.271 768.553 140.054 782 137.671C798.958 134.664 804.315 114.19 807.199 100C808.076 95.6882 810.168 90.4144 809.681 86.0038C808.802 78.0265 797.629 75.0322 791 76.5301M887 76.544C869.205 80.2068 863.196 101.695 860.424 117C859.669 121.171 857.006 127.717 858.618 131.815C861.215 138.415 872.237 138.702 878 137.671C896.025 134.445 902.24 109.448 902.896 94C903.287 84.7838 897.571 74.3681 887 76.544M948 100C953.707 100 959.351 100.169 965 99.2462C970.999 98.266 978.256 97.1176 982.772 92.6597C986.608 88.8723 987.114 82.2982 982.772 78.6528C978.742 75.27 972.73 75.6393 968 77.044C957.632 80.1226 949.885 89.4233 948 100M1113 100C1118.71 100 1124.35 100.163 1130 99.2462C1135.84 98.2992 1142.24 97.5479 1146.95 93.6065C1151.87 89.4781 1153.45 82.8932 1147.89 78.5139C1133.49 67.1611 1116.35 87.7457 1113 100M467 281L489 281C488.971 284.48 489.299 289.565 486.86 292.397C485.212 294.311 482.27 293.984 479.999 293.999L464 294C463.68 301.437 461.455 308.722 460 316C457.261 329.698 454.417 343.356 451.424 357C448.783 369.042 447.95 382.384 441.034 393C434.442 403.119 423.578 406.757 412 406.985C408.773 407.048 403.206 407.404 401.029 404.436C398.902 401.536 400.741 396.276 401 393C408.724 393.159 416.094 395.257 422.985 390.348C431.843 384.037 433.138 371.788 435.35 362C440.391 339.69 442.655 315.654 450 294L435 294L437 281L453 281C453.648 265.949 458.944 247.872 473 240.324C479.932 236.601 487.22 235.296 495 236.428C498.165 236.889 502.42 237.117 502.682 241.109C503.375 251.663 496.102 248.859 489 249.133C485.039 249.286 481.171 250.969 478.174 253.532C469.952 260.562 470.201 271.546 467 281M438 283L436 293L451 293C448.037 308.724 444.201 324.282 441.261 340C438.843 352.927 437.255 367.854 432.124 380C426.76 392.699 416.084 397.115 403 394C402.186 396.404 400.648 400.022 401.693 402.566C403.134 406.075 410.919 406.002 414 405.699C423.558 404.759 432.9 402.11 438.779 393.961C446.515 383.238 447.855 368.622 450.4 356C454.56 335.362 461.33 313.988 463 293L486 293L488 283L466 283C466.971 270.801 470.537 253.025 484 248.804C489.106 247.203 494.862 248.046 500 249L502 239C487.328 236.236 472.236 237.283 463.105 251C458.932 257.269 457.03 264.733 455.424 272C454.732 275.135 454.658 280.02 451.686 281.972C448.295 284.2 441.894 283 438 283M969 238C968.152 248.38 964.874 258.796 962.801 269C959.011 287.652 955.542 306.441 951.349 325C949.923 331.315 948.469 337.613 947.394 344C946.972 346.501 946.297 349.433 948.407 351.397C950.599 353.435 954.255 352.99 957 353C956.731 356.375 956.651 361.675 954.143 364.258C952.342 366.112 949.381 365.988 947 365.992C938.285 366.006 933.294 361.596 932 353C927.887 357.506 923.701 361.671 918 364.12C907.154 368.778 893.849 367.551 886.969 356.996C883.822 352.168 882.931 346.614 882.286 341C880.414 324.689 887.071 303.112 898.184 291.039C910.841 277.289 930.302 275.013 944 288C946.33 275.984 948.798 263.957 951.424 252C952.196 248.487 952.466 241.321 955.564 239.028C958.665 236.732 965.324 238 969 238M955 240C952.791 257.103 946.401 273.851 945 291C941.111 287.65 937.936 283.858 933 281.955C920.704 277.214 906.435 283.388 898.326 293.004C886.61 306.895 881.665 328.152 884.301 346C886.682 362.124 902.583 368.883 917 363.069C924.058 360.223 928.185 354.443 934 350C934.007 352.289 933.811 354.768 934.434 356.998C936.945 365.996 946.924 364.558 954 364L956 354C939.026 356.998 947.464 336.66 949.4 327C952.942 309.322 956.556 291.61 960.424 274C962.84 263.002 966.51 251.253 967 240L955 240M268 248C266.637 264.692 261.19 281.55 258 298L314 298C315.361 281.341 320.623 264.372 324 248L339 248C338.505 259.343 334.852 270.932 332.424 282C328.707 298.947 325.659 316.057 321.884 333C320.257 340.305 318.995 347.691 317.35 355C316.793 357.472 316.655 361.39 314.987 363.397C312.327 366.595 303.757 365 300 365C300.767 355.615 303.701 346.231 305.551 337C307.208 328.732 308.295 319.989 311 312L255 312C252.701 329.803 247.418 347.374 244 365L229 365C229.545 352.503 233.592 339.206 236.35 327C239.952 311.058 242.747 294.943 246.35 279C247.848 272.367 249.215 265.667 250.551 259C251.133 256.096 251.109 251.96 253.14 249.603C255.88 246.422 264.193 248 268 248M231 363C234.123 363 239.66 364.037 242.262 361.972C244.759 359.99 244.793 354.878 245.424 352C247.393 343.027 249.198 334.011 251 325C251.718 321.41 251.809 315.279 254.589 312.603C257.83 309.483 265.864 311 270 311L312 311C309.761 328.339 302.752 345.538 302 363C305.198 363 310.718 364.025 313.411 361.972C315.587 360.313 315.688 356.453 316.211 354C317.56 347.67 318.91 341.343 320.199 335C326.028 306.314 332.428 277.733 338 249L325 249C321.868 265.621 317.165 282.236 315 299L257 299C257.703 282.664 262.906 264.815 267 249C263.626 249 256.561 247.661 254.175 250.603C252.329 252.88 252.376 257.224 251.789 260C250.307 267.011 248.606 273.972 247.2 281C243.529 299.349 239.733 317.669 235.996 336C234.177 344.923 231.189 353.849 231 363M385 279.3C405.762 276.31 422.296 292.058 420.816 313C419.041 338.104 406.194 363.187 379 366.711C358.302 369.392 344.414 352.687 345.043 333C345.792 309.574 359.969 282.905 385 279.3M546 297C536.614 294.438 526.867 289.62 517 293.264C510.51 295.661 505.626 302.707 510.434 308.957C519.335 320.53 538.485 316.636 542.471 334C543.308 337.648 542.825 341.403 541.96 345C536.017 369.698 501.623 371.586 483 361C483.832 356.965 484.678 352.898 486 349C496.61 352.452 508.054 356.657 518.999 351.786C524.766 349.22 530.144 342.468 526.681 336.043C524.043 331.148 517.839 329.154 513 327.201C503.293 323.283 494.899 319.441 493.301 308C492.876 304.962 493.157 301.966 493.903 299C494.715 295.771 496.063 292.769 498.055 290.09C506.626 278.566 521.224 278.473 534 280.159C537.834 280.665 545.729 281.781 547.879 285.499C549.581 288.444 546.998 294.077 546 297M622 289C624.457 280.52 629.157 281 637 281C635.347 301.773 628.13 322.498 624.424 343C621.335 360.094 619.511 380.377 607.535 393.91C596.521 406.357 578.427 408.007 563 406.155C558.975 405.672 550.497 405.459 548.118 401.49C546.414 398.648 548.743 393.151 549 390C557.08 390.705 564.775 394.222 573 393.957C594.939 393.249 605.354 375.15 607 355C594.671 367.066 572.974 373.745 562.709 355C561.005 351.888 560.229 348.466 559.615 345C556.437 327.057 563.276 304.519 575.44 291.09C584.51 281.077 600.177 275.301 613 281.569C616.543 283.301 619.239 286.264 622 289M704 279C703.957 284.17 702.684 288.919 702 294C697.706 294 693.175 293.602 689 294.789C670.411 300.072 668.526 319.149 664.881 335C663.277 341.977 661.966 348.988 660.551 356C660.048 358.494 659.649 362.337 657.436 363.972C654.331 366.266 647.679 365 644 365C644.694 356.277 647.285 347.579 649 339C652.871 319.641 657.241 300.384 661 281L673 281L673 292C681.555 281.583 690.996 279 704 279M856 365L842 365C842.314 349.778 847.618 333.909 850.6 319C851.844 312.785 854.972 304.077 851.821 298.019C845.24 285.363 827.682 294.809 821.105 302.004C813.066 310.797 811.444 322.778 809.2 334C807.143 344.284 804.398 354.614 803 365C797.964 365 792.853 365.435 788 364C791.243 347.279 795.205 330.7 798.551 314C800.399 304.775 800.914 292.669 804.89 284.148C806.553 280.583 814.388 279.344 816.972 282.603C818.621 284.683 817.998 288.528 818 291C827.3 282.125 839.039 277.017 852 279.819C859.391 281.418 866.253 286.149 867.671 294C869.331 303.199 867.025 313.016 865.199 322C862.28 336.365 858.961 350.645 856 365M386 280.465C364.017 284.243 349.487 304.4 347.174 326C346.396 333.263 346.309 342.107 348.955 349C354.502 363.447 370.049 367.051 384 364.535C409.481 359.941 419.552 330.758 418.985 308C418.555 290.712 403.448 277.466 386 280.465M486 351C485.78 353.788 484.368 357.985 486.042 360.49C488.561 364.258 496.929 364.781 501 364.961C514.341 365.55 530.115 364.882 537.775 352C539.388 349.288 540.435 346.129 540.816 343C541.168 340.1 541.186 336.88 540.671 334C537.658 317.172 516.819 320.7 508.518 308.985C504.119 302.777 508.967 295.467 515.001 292.573C519.423 290.451 525.242 290.67 530 291.289C535.475 292.003 540.565 294.197 546 295L547 285C530.152 280.496 506.373 274.952 496.825 295C495.427 297.935 495.042 300.782 495.004 304C494.959 307.746 494.934 311.568 496.688 314.985C502.678 326.652 519.63 324.173 527.145 334.185C532.418 341.209 526.734 349.615 519.999 353C508.828 358.615 497.111 352.641 486 351M610 351C606.881 360.21 606.196 370.229 601.598 379C590.674 399.838 568.627 395.27 550 391L549 402C567.328 405.781 586.926 409.16 602.985 396.471C614.039 387.737 616.591 373.919 619.424 361C622.631 346.381 625.213 331.621 628.424 317C630.874 305.847 634.099 294.399 635 283C627.787 283.006 624.895 284.117 622 291C618.956 287.84 616.041 284.456 611.996 282.554C596.859 275.437 580.201 285.431 571.749 298C562.685 311.48 560.601 327.159 561.015 343C561.454 359.824 576.514 368.733 592 363.776C599.347 361.425 603.913 355.287 610 351M672 293L672 283L662 283C658.696 300.037 654.954 316.986 651.551 334C649.622 343.641 646.777 353.164 646 363L658 363C658.772 353.305 661.52 343.482 663.651 334C667.411 317.264 670.004 299.136 689 293.221C692.939 291.994 696.92 292.003 701 292L703 281C689.578 278.517 682.24 285.815 672 293M817 294C816.121 290.306 816.003 286.786 816 283L806 283C805.502 289.098 803.647 295.011 802.449 301C798.337 321.555 792.685 342.209 790 363L802 363C804.266 350.973 806.652 338.94 809.349 327C811.605 317.019 813.7 307.699 821.093 300.04C828.537 292.328 845.808 285.071 853.142 297.015C856.581 302.617 853.787 310.045 852.75 316C850.009 331.739 846.043 347.31 843 363C846.237 363 852.512 364.192 854.836 361.397C856.376 359.543 856.608 356.274 857.116 354C858.374 348.365 859.465 342.664 860.6 337C864.012 319.971 876.847 288.585 853 281.44C850.081 280.565 847.059 279.966 844 280.104C839.965 280.287 835.709 281.299 832 282.88C826.056 285.414 821.53 289.508 817 294M731 281C730.384 295.125 725.627 310.184 722.576 324C721.05 330.905 718.262 339.081 721.228 345.985C726.828 359.019 745.759 354.303 752.351 344.996C757.12 338.264 758.014 328.882 759.6 321C762.288 307.647 765.248 294.339 768 281L782 281C781.896 293.556 777.626 306.738 775 319C772.95 328.574 771.835 339.056 767.676 348C758.549 367.626 722.468 375.991 708.919 355.996C698.932 341.258 709.226 316.768 712.4 301C713.397 296.046 713.466 286.449 716.938 282.603C719.69 279.556 727.273 281 731 281M717 283C715.886 296.991 711.75 311.285 708.79 325C706.937 333.589 704.724 342.411 707.839 351C714.95 370.602 748.521 368.803 760.815 355.907C767.233 349.174 769.107 339.749 771.119 331C774.773 315.108 777.981 299.022 781 283C777.893 283 772.321 281.957 769.742 284.028C766.403 286.708 766.089 296.928 765.21 301C763.27 309.988 761.407 318.983 759.6 328C758.212 334.93 756.65 342.526 751.786 347.957C744.165 356.467 724.293 359.399 719.703 345.996C716.527 336.721 721.08 324.139 723.116 315C725.421 304.653 728.544 293.604 729 283L717 283M384 291.329C399.473 288.561 407.163 298.496 406.996 313C406.815 328.722 399.03 352.037 381 354.787C365.736 357.115 358.938 347.051 359.001 333C359.069 317.619 366.441 294.472 384 291.329M597 291.39C604.315 289.797 616.263 291.455 618.562 300.015C619.887 304.944 617.572 311.149 616.6 316C613.682 330.563 607.984 350.912 591 354.61C576.975 357.663 573 346.643 573 335C573 319.782 579.574 295.187 597 291.39M920 291.39C927.399 289.778 939.518 291.537 942.167 300.004C943.602 304.588 940.676 311.462 939.651 316C936.394 330.411 931.37 351.312 914 354.66C900.065 357.345 896 346.784 896 335C896 319.782 902.574 295.187 920 291.39M384 292.529C366.784 296.508 359.704 319.476 360.015 335C360.258 347.073 368.314 356.229 381 353.481C398.652 349.659 405.672 327.959 405.985 312C406.238 299.07 397.481 289.414 384 292.529M597 292.638C580.81 297.317 574.049 320.085 574.001 335C573.967 345.546 578.13 356.905 591 353.211C607.217 348.556 612.292 330.543 615.2 316C616.075 311.622 617.933 306.486 617.681 302.004C617.186 293.199 603.76 290.685 597 292.638M921 292.529C904.043 296.443 897.112 319.78 897.005 335C896.933 345.116 900.846 355.99 913 353.521C930.021 350.062 935.458 330.591 938.4 316C939.281 311.627 941.309 306.488 940.812 302.001C939.862 293.412 927.958 290.924 921 292.529z"/>
</svg>
