  0
SECTION
  2
HEADER
  9
$ACADVER
  1
AC1009
  9
$EXTMAX
 10
167.304656982422
 20
17.317081451416
 30
0.0
  9
$EXTMIN
 10
1.2944078445435
 20
-6.2532730102539
 30
0.0
  9
$INSUNITS
 70
     4
  9
$LUNITS
 70
     2
  9
$LUPREC
 70
     4
  9
$MEASUREMENT
 70
     1
  0
ENDSEC
  0
SECTION
  2
TABLES
  0
TABLE
  2
LAYER
 70
     1
  0
LAYER
  2
0
 70
     0
 62
     7
  6
Continuous
  0
LAYER
  2
Standard
 70
     0
 62
    70
  6
Continuous
  0
ENDTAB
  0
TABLE
  2
APPID
 70
     1
  0
APPID
  2
ACAD
 70
     0
  0
ENDTAB
  0
ENDSEC
  0
SECTION
  2
ENTITIES
  0
POLYLINE
  8
Standard
 66
     1
 10
0.0
 20
0.0
 30
0.0
 70
     1
  0
VERTEX
  8
Standard
 10
9.78515625
 20
13.1591796875
 42
-0.0142427020535
  0
VERTEX
  8
Standard
 10
8.5414424537113
 20
1.8780897254147
 42
-0.6649236776525
  0
VERTEX
  8
Standard
 10
5.7138671875
 20
0.279296875
 42
-0.1602831931026
  0
VERTEX
  8
Standard
 10
5.6923828125
 20
2.986328125
 42
-0.0024391751349
  0
VERTEX
  8
Standard
 10
6.7021484375
 20
12.9765625
 42
-0.0654011718034
  0
VERTEX
  8
Standard
 10
2.4482421875
 20
13.10546875
 42
-0.6553088529205
  0
VERTEX
  8
Standard
 10
1.79296875
 20
15.4794921875
 42
-0.2250309124866
  0
VERTEX
  8
Standard
 10
3.0712890625
 20
16.0380859375
 42
0.0292494562505
  0
VERTEX
  8
Standard
 10
11.4287109375
 20
16.0810546875
 42
-0.0100451612537
  0
VERTEX
  8
Standard
 10
15.8974609375
 20
15.9736328125
 42
-0.7185118164571
  0
VERTEX
  8
Standard
 10
14.9951171875
 20
13.1162109375
 42
0.004651062175
  0
SEQEND
  0
POLYLINE
  8
Standard
 66
     1
 10
0.0
 20
0.0
 30
0.0
 70
     1
  0
VERTEX
  8
Standard
 10
25.619140625
 20
7.7451171875
 42
-0.6909430418147
  0
VERTEX
  8
Standard
 10
22.8799448243485
 20
6.4920429154207
 42
-0.1086127307088
  0
VERTEX
  8
Standard
 10
22.84765625
 20
8.5830078125
 42
0.222007186255
  0
VERTEX
  8
Standard
 10
18.9912109375
 20
6.0908203125
 42
0.0
  0
VERTEX
  8
Standard
 10
18.1533203125
 20
0.708984375
 42
-0.6893464461178
  0
VERTEX
  8
Standard
 10
15.5322265625
 20
-0.322265625
 42
-0.2115238464611
  0
VERTEX
  8
Standard
 10
15.3173828125
 20
0.708984375
 42
-0.0150415429825
  0
VERTEX
  8
Standard
 10
16.7969399544712
 20
9.8274834646619
 42
-0.6833789548875
  0
VERTEX
  8
Standard
 10
19.445695945954
 20
10.6161055343475
 42
-0.1202671098501
  0
VERTEX
  8
Standard
 10
19.6142578125
 20
9.904296875
 42
-0.2344572553233
  0
VERTEX
  8
Standard
 10
24.7936641790092
 20
11.2214550943925
 42
-0.3093989814479
  0
VERTEX
  8
Standard
 10
25.7265625
 20
8.46484375
 42
-0.052214876528
  0
SEQEND
  0
POLYLINE
  8
Standard
 66
     1
 10
0.0
 20
0.0
 30
0.0
 70
     1
  0
VERTEX
  8
Standard
 10
32.9775390625
 20
0.3759765625
 42
-0.2850126760728
  0
VERTEX
  8
Standard
 10
26.9183488280659
 20
0.0968161287475
 42
-0.3160874326391
  0
VERTEX
  8
Standard
 10
25.9550316408382
 20
6.5166522698677
 42
-0.2946898466437
  0
VERTEX
  8
Standard
 10
32.9775390625
 20
11.21484375
 42
-0.2675025429249
  0
VERTEX
  8
Standard
 10
36.4842341193735
 20
9.6827430047403
 42
-0.3372362379779
  0
VERTEX
  8
Standard
 10
36.275390625
 20
8.3359375
 42
0.1362202597862
  0
VERTEX
  8
Standard
 10
35.4697265625
 20
2.728515625
 42
-0.0466156062831
  0
VERTEX
  8
Standard
 10
36.0390625
 20
0.64453125
 42
-0.6978178914347
  0
VERTEX
  8
Standard
 10
33.4299404110226
 20
-0.1180898895312
 42
-0.0199999803588
  0
SEQEND
  0
POLYLINE
  8
Standard
 66
     1
 10
0.0
 20
0.0
 30
0.0
 70
     1
  0
VERTEX
  8
Standard
 10
33.353515625
 20
8.443359375
 42
0.4980071348916
  0
VERTEX
  8
Standard
 10
28.4844312750153
 20
3.1464968181263
 42
0.5320872151425
  0
VERTEX
  8
Standard
 10
32.6015625
 20
2.8359375
 42
-0.09019780527
  0
SEQEND
  0
POLYLINE
  8
Standard
 66
     1
 10
0.0
 20
0.0
 30
0.0
 70
     1
  0
VERTEX
  8
Standard
 10
37.822265625
 20
3.5234375
 42
-0.2930292696436
  0
VERTEX
  8
Standard
 10
43.1771854586095
 20
11.1891721053331
 42
-0.2186344783121
  0
VERTEX
  8
Standard
 10
48.0699642588659
 20
10.2135133853492
 42
-0.9977032247516
  0
VERTEX
  8
Standard
 10
45.9541015625
 20
8.228515625
 42
0.4406371992257
  0
VERTEX
  8
Standard
 10
42.6050307205302
 20
7.792973528442
 42
0.1979037570073
  0
VERTEX
  8
Standard
 10
40.658203125
 20
4.0068359375
 42
0.4571424840233
  0
VERTEX
  8
Standard
 10
44.1149885503991
 20
2.1995061228239
 42
-0.079869932568
  0
VERTEX
  8
Standard
 10
46.4375
 20
3.1259765625
 42
-0.7928619297714
  0
VERTEX
  8
Standard
 10
46.6404576693965
 20
0.6188753517621
 42
-0.3487510470038
  0
VERTEX
  8
Standard
 10
39.1650390625
 20
0.4833984375
 42
-0.1766374550374
  0
SEQEND
  0
POLYLINE
  8
Standard
 66
     1
 10
0.0
 20
0.0
 30
0.0
 70
     1
  0
VERTEX
  8
Standard
 10
54.2041015625
 20
9.8291015625
 42
-0.3872160185525
  0
VERTEX
  8
Standard
 10
60.1982421875
 20
10.7421875
 42
-0.1903393441348
  0
VERTEX
  8
Standard
 10
60.8857421875
 20
7.9599609375
 42
0.0582571540039
  0
VERTEX
  8
Standard
 10
60.4990234375
 20
0.9130859375
 42
-0.7439775641495
  0
VERTEX
  8
Standard
 10
57.6845703125
 20
-0.1396484375
 42
-0.1124812810593
  0
VERTEX
  8
Standard
 10
57.8779296875
 20
6.6171875
 42
0.1651789503703
  0
VERTEX
  8
Standard
 10
57.9676864318325
 20
8.2814725850243
 42
0.4172452790945
  0
VERTEX
  8
Standard
 10
56.3048405526775
 20
8.1360817905348
 42
0.303813538357
  0
VERTEX
  8
Standard
 10
53.1439850967238
 20
2.8556821279032
 42
-0.2678897036077
  0
VERTEX
  8
Standard
 10
51.7844824280369
 20
-0.0672467626896
 42
-0.8640432600441
  0
VERTEX
  8
Standard
 10
49.8857421875
 20
1.71875
 42
0.0099278832171
  0
VERTEX
  8
Standard
 10
51.6044921875
 20
11.794921875
 42
0.0544566557118
  0
VERTEX
  8
Standard
 10
52.096447802822
 20
15.5304723938031
 42
-1.1637909258057
  0
VERTEX
  8
Standard
 10
55.1494140625
 20
15.533203125
 42
-0.0184413652233
  0
SEQEND
  0
POLYLINE
  8
Standard
 66
     1
 10
0.0
 20
0.0
 30
0.0
 70
     1
  0
VERTEX
  8
Standard
 10
70.5322265625
 20
8.46484375
 42
0.0084739677277
  0
VERTEX
  8
Standard
 10
68.39453125
 20
8.443359375
 42
0.145570467176
  0
VERTEX
  8
Standard
 10
67.4210787453433
 20
2.8383135067278
 42
0.5633171719964
  0
VERTEX
  8
Standard
 10
68.931640625
 20
2.857421875
 42
-1.017769493633
  0
VERTEX
  8
Standard
 10
70.8293922966027
 20
1.0242829811098
 42
-0.3046466135995
  0
VERTEX
  8
Standard
 10
66.1393053908504
 20
-0.2267382827447
 42
-0.2669778562773
  0
VERTEX
  8
Standard
 10
64.4736328125
 20
3.1689453125
 42
-0.0736282932192
  0
VERTEX
  8
Standard
 10
65.537109375
 20
8.357421875
 42
-0.1376443178961
  0
VERTEX
  8
Standard
 10
63.2919921875
 20
8.787109375
 42
-0.6979350795402
  0
VERTEX
  8
Standard
 10
64.4306640625
 20
11.3974609375
 42
0.0
  0
VERTEX
  8
Standard
 10
66.1064453125
 20
11.2470703125
 42
-0.1852966913852
  0
VERTEX
  8
Standard
 10
66.869140625
 20
14.3515625
 42
-0.7129850470207
  0
VERTEX
  8
Standard
 10
69.2109375
 20
12.9765625
 42
-0.022802232045
  0
VERTEX
  8
Standard
 10
68.9853515625
 20
11.3115234375
 42
-0.2551112049724
  0
VERTEX
  8
Standard
 10
71.8816844084993
 20
10.8539591148721
 42
-0.6098689070892
  0
SEQEND
  0
POLYLINE
  8
Standard
 66
     1
 10
0.0
 20
0.0
 30
0.0
 70
     1
  0
VERTEX
  8
Standard
 10
75.248046875
 20
3.2333984375
 42
0.3180064741841
  0
VERTEX
  8
Standard
 10
80.5224609375
 20
2.70703125
 42
-0.3024147443966
  0
VERTEX
  8
Standard
 10
82.7213772859031
 20
3.0577806039797
 42
-0.4371199020428
  0
VERTEX
  8
Standard
 10
81.2958984375
 20
0.3330078125
 42
-0.2789166646554
  0
VERTEX
  8
Standard
 10
73.6904296875
 20
0.623046875
 42
-0.321630811073
  0
VERTEX
  8
Standard
 10
72.8050799043158
 20
6.3315429383163
 42
-0.4699965098025
  0
VERTEX
  8
Standard
 10
82.294921875
 20
10.5380859375
 42
-0.5541652548933
  0
VERTEX
  8
Standard
 10
81.7404954043413
 20
6.0961164324998
 42
-0.0250157075898
  0
SEQEND
  0
POLYLINE
  8
Standard
 66
     1
 10
0.0
 20
0.0
 30
0.0
 70
     1
  0
VERTEX
  8
Standard
 10
75.44140625
 20
5.9619140625
 42
0.0404374322551
  0
VERTEX
  8
Standard
 10
80.5439453125
 20
8.228515625
 42
0.3948503647986
  0
VERTEX
  8
Standard
 10
75.9972818994565
 20
6.9220304673263
 42
0.034483651342
  0
SEQEND
  0
POLYLINE
  8
Standard
 66
     1
 10
0.0
 20
0.0
 30
0.0
 70
     1
  0
VERTEX
  8
Standard
 10
89.2880859375
 20
9.92578125
 42
-0.2979419138444
  0
VERTEX
  8
Standard
 10
94.0013162654895
 20
11.3162607307543
 42
-0.2960643462011
  0
VERTEX
  8
Standard
 10
95.357421875
 20
6.40234375
 42
0.0363115096698
  0
VERTEX
  8
Standard
 10
94.884765625
 20
0.708984375
 42
-0.6858372913295
  0
VERTEX
  8
Standard
 10
92.0770771423396
 20
-0.2712438174578
 42
-0.052701824436
  0
VERTEX
  8
Standard
 10
92.7578125
 20
8.1318359375
 42
0.4502586391444
  0
VERTEX
  8
Standard
 10
92.392578125
 20
8.6689453125
 42
0.2597145151934
  0
VERTEX
  8
Standard
 10
87.985208428671
 20
3.4153984452872
 42
-0.0384125392543
  0
VERTEX
  8
Standard
 10
87.6015625
 20
0.4833984375
 42
-0.8688934446776
  0
VERTEX
  8
Standard
 10
84.7119140625
 20
0.623046875
 42
0.0009060587723
  0
VERTEX
  8
Standard
 10
86.1513671875
 20
8.8408203125
 42
-0.6568462104604
  0
VERTEX
  8
Standard
 10
88.6560680658775
 20
11.6247128857517
 42
-0.1937227251509
  0
SEQEND
  0
POLYLINE
  8
Standard
 66
     1
 10
0.0
 20
0.0
 30
0.0
 70
     1
  0
VERTEX
  8
Standard
 10
101.3408203125
 20
4.8876953125
 42
-0.0154319148138
  0
VERTEX
  8
Standard
 10
99.7724609375
 20
3.9208984375
 42
-0.1659184211141
  0
VERTEX
  8
Standard
 10
98.6123046875
 20
0.0322265625
 42
-0.7626954422228
  0
VERTEX
  8
Standard
 10
96.2275390625
 20
0.880859375
 42
0.0396107466517
  0
VERTEX
  8
Standard
 10
98.7476347705655
 20
15.4408784316745
 42
-0.6427563277973
  0
VERTEX
  8
Standard
 10
101.4267578125
 20
16.8974609375
 42
-0.2498561516357
  0
VERTEX
  8
Standard
 10
101.6416015625
 20
14.673828125
 42
-0.0058277508826
  0
VERTEX
  8
Standard
 10
100.4384765625
 20
7.541015625
 42
0.0222118087123
  0
VERTEX
  8
Standard
 10
105.541015625
 20
11.6337890625
 42
-1.1253429838631
  0
VERTEX
  8
Standard
 10
107.438264910139
 20
9.7235402852343
 42
-0.0255879509639
  0
VERTEX
  8
Standard
 10
103.908203125
 20
6.7353515625
 42
-0.0690693145574
  0
VERTEX
  8
Standard
 10
106.719389650365
 20
1.8440811109716
 42
-0.9948979873391
  0
VERTEX
  8
Standard
 10
103.9296875
 20
0.3759765625
 42
0.0246190333106
  0
SEQEND
  0
POLYLINE
  8
Standard
 66
     1
 10
0.0
 20
0.0
 30
0.0
 70
     1
  0
VERTEX
  8
Standard
 10
115.2734375
 20
0.3759765625
 42
-0.2850126760728
  0
VERTEX
  8
Standard
 10
109.214247265566
 20
0.0968161287475
 42
-0.3160874326391
  0
VERTEX
  8
Standard
 10
108.250930078338
 20
6.5166522698677
 42
-0.2946898466437
  0
VERTEX
  8
Standard
 10
115.2734375
 20
11.21484375
 42
-0.2675025429249
  0
VERTEX
  8
Standard
 10
118.780132556874
 20
9.6827430047403
 42
-0.3372362379779
  0
VERTEX
  8
Standard
 10
118.5712890625
 20
8.3359375
 42
0.1362202597862
  0
VERTEX
  8
Standard
 10
117.765625
 20
2.728515625
 42
-0.0466156062831
  0
VERTEX
  8
Standard
 10
118.3349609375
 20
0.64453125
 42
-0.6978178914347
  0
VERTEX
  8
Standard
 10
115.725838848523
 20
-0.1180898895312
 42
-0.0199999803588
  0
SEQEND
  0
POLYLINE
  8
Standard
 66
     1
 10
0.0
 20
0.0
 30
0.0
 70
     1
  0
VERTEX
  8
Standard
 10
115.6494140625
 20
8.443359375
 42
0.4980071348916
  0
VERTEX
  8
Standard
 10
110.780329712515
 20
3.1464968181263
 42
0.5320872151426
  0
VERTEX
  8
Standard
 10
114.8974609375
 20
2.8359375
 42
-0.09019780527
  0
SEQEND
  0
POLYLINE
  8
Standard
 66
     1
 10
0.0
 20
0.0
 30
0.0
 70
     1
  0
VERTEX
  8
Standard
 10
123.3515625
 20
-0.4189453125
 42
0.0
  0
VERTEX
  8
Standard
 10
122.6640625
 20
-4.791015625
 42
-0.5859486401241
  0
VERTEX
  8
Standard
 10
120.021484375
 20
-5.908203125
 42
-0.2662988491119
  0
VERTEX
  8
Standard
 10
119.823742371383
 20
-3.9898563120469
 42
0.0237375219826
  0
VERTEX
  8
Standard
 10
121.6220703125
 20
8.98046875
 42
-0.450283475439
  0
VERTEX
  8
Standard
 10
123.6845703125
 20
11.81640625
 42
-0.6100011956775
  0
VERTEX
  8
Standard
 10
124.8447265625
 20
10.3232421875
 42
-0.208889719745
  0
VERTEX
  8
Standard
 10
129.436505238712
 20
10.8572646991718
 42
-0.2860527955583
  0
VERTEX
  8
Standard
 10
131.5263671875
 20
6.9287109375
 42
-0.5404931339228
  0
SEQEND
  0
POLYLINE
  8
Standard
 66
     1
 10
0.0
 20
0.0
 30
0.0
 70
     1
  0
VERTEX
  8
Standard
 10
124.447265625
 20
6.9716796875
 42
-0.007407105912
  0
VERTEX
  8
Standard
 10
123.8564453125
 20
2.556640625
 42
0.4460574176654
  0
VERTEX
  8
Standard
 10
127.884765625
 20
3.5556640625
 42
0.19836524921
  0
VERTEX
  8
Standard
 10
128.372754104405
 20
7.6497073312772
 42
0.4266821441084
  0
VERTEX
  8
Standard
 10
125.83010236225
 20
7.855148772925
 42
0.0566004085025
  0
SEQEND
  0
POLYLINE
  8
Standard
 66
     1
 10
0.0
 20
0.0
 30
0.0
 70
     1
  0
VERTEX
  8
Standard
 10
134.931640625
 20
3.2333984375
 42
0.3180064741841
  0
VERTEX
  8
Standard
 10
140.2060546875
 20
2.70703125
 42
-0.3024147443966
  0
VERTEX
  8
Standard
 10
142.404971035903
 20
3.0577806039797
 42
-0.4371199020428
  0
VERTEX
  8
Standard
 10
140.9794921875
 20
0.3330078125
 42
-0.2789166646554
  0
VERTEX
  8
Standard
 10
133.3740234375
 20
0.623046875
 42
-0.321630811073
  0
VERTEX
  8
Standard
 10
132.488673654316
 20
6.3315429383163
 42
-0.4699965098025
  0
VERTEX
  8
Standard
 10
141.978515625
 20
10.5380859375
 42
-0.5541652548933
  0
VERTEX
  8
Standard
 10
141.424089154341
 20
6.0961164324998
 42
-0.0250157075898
  0
SEQEND
  0
POLYLINE
  8
Standard
 66
     1
 10
0.0
 20
0.0
 30
0.0
 70
     1
  0
VERTEX
  8
Standard
 10
135.125
 20
5.9619140625
 42
0.0404374322551
  0
VERTEX
  8
Standard
 10
140.2275390625
 20
8.228515625
 42
0.3948503647986
  0
VERTEX
  8
Standard
 10
135.680875649457
 20
6.9220304673263
 42
0.034483651342
  0
SEQEND
  0
POLYLINE
  8
Standard
 66
     1
 10
0.0
 20
0.0
 30
0.0
 70
     1
  0
VERTEX
  8
Standard
 10
148.1552734375
 20
1.5791015625
 42
-0.7029637553047
  0
VERTEX
  8
Standard
 10
145.3515625
 20
-0.064453125
 42
-0.2391135664489
  0
VERTEX
  8
Standard
 10
145.09375
 20
0.98828125
 42
0.0
  0
VERTEX
  8
Standard
 10
147.45703125
 20
15.8662109375
 42
-0.6355451114093
  0
VERTEX
  8
Standard
 10
150.1640625
 20
16.8544921875
 42
-0.2295437069177
  0
VERTEX
  8
Standard
 10
150.421875
 20
15.8662109375
 42
0.0
  0
SEQEND
  0
POLYLINE
  8
Standard
 66
     1
 10
0.0
 20
0.0
 30
0.0
 70
     1
  0
VERTEX
  8
Standard
 10
154.181640625
 20
1.5791015625
 42
-0.7029637553047
  0
VERTEX
  8
Standard
 10
151.3779296875
 20
-0.064453125
 42
-0.2391135664489
  0
VERTEX
  8
Standard
 10
151.1201171875
 20
0.98828125
 42
0.0
  0
VERTEX
  8
Standard
 10
153.4833984375
 20
15.8662109375
 42
-0.6355451114093
  0
VERTEX
  8
Standard
 10
156.1904296875
 20
16.8544921875
 42
-0.2295437069177
  0
VERTEX
  8
Standard
 10
156.4482421875
 20
15.8662109375
 42
0.0
  0
SEQEND
  0
POLYLINE
  8
Standard
 66
     1
 10
0.0
 20
0.0
 30
0.0
 70
     1
  0
VERTEX
  8
Standard
 10
159.2841796875
 20
3.2333984375
 42
0.3180064741841
  0
VERTEX
  8
Standard
 10
164.55859375
 20
2.70703125
 42
-0.3024147443966
  0
VERTEX
  8
Standard
 10
166.757510098403
 20
3.0577806039797
 42
-0.4371199020428
  0
VERTEX
  8
Standard
 10
165.33203125
 20
0.3330078125
 42
-0.2789166646554
  0
VERTEX
  8
Standard
 10
157.7265625
 20
0.623046875
 42
-0.321630811073
  0
VERTEX
  8
Standard
 10
156.841212716816
 20
6.3315429383163
 42
-0.4699965098025
  0
VERTEX
  8
Standard
 10
166.3310546875
 20
10.5380859375
 42
-0.5541652548933
  0
VERTEX
  8
Standard
 10
165.776628216841
 20
6.0961164324998
 42
-0.0250157075898
  0
SEQEND
  0
POLYLINE
  8
Standard
 66
     1
 10
0.0
 20
0.0
 30
0.0
 70
     1
  0
VERTEX
  8
Standard
 10
159.4775390625
 20
5.9619140625
 42
0.0404374322551
  0
VERTEX
  8
Standard
 10
164.580078125
 20
8.228515625
 42
0.3948503647986
  0
VERTEX
  8
Standard
 10
160.033414711957
 20
6.9220304673263
 42
0.034483651342
  0
SEQEND
  0
ENDSEC
  0
EOF
