  0
SECTION
  2
HEADER
  9
$ACADVER
  1
AC1009
  9
$EXTMAX
 10
131.057281494141
 20
48.835636138916
 30
0.0
  9
$EXTMIN
 10
1.0194511413574
 20
-5.0703191757202
 30
0.0
  9
$INSUNITS
 70
     4
  9
$LUNITS
 70
     2
  9
$LUPREC
 70
     4
  9
$MEASUREMENT
 70
     1
  0
ENDSEC
  0
SECTION
  2
TABLES
  0
TABLE
  2
LAYER
 70
     1
  0
LAYER
  2
0
 70
     0
 62
     7
  6
Continuous
  0
LAYER
  2
Standard
 70
     0
 62
    70
  6
Continuous
  0
ENDTAB
  0
TABLE
  2
APPID
 70
     1
  0
APPID
  2
ACAD
 70
     0
  0
ENDTAB
  0
ENDSEC
  0
SECTION
  2
ENTITIES
  0
POLYLINE
  8
Standard
 66
     1
 10
0.0
 20
0.0
 30
0.0
 70
     1
  0
VERTEX
  8
Standard
 10
4.2109375
 20
31.9052734375
 42
-1.013945290711
  0
VERTEX
  8
Standard
 10
1.203125
 20
32.0234375
 42
-0.0009911935308
  0
VERTEX
  8
Standard
 10
3.7705078125
 20
46.6435546875
 42
-0.5901292950401
  0
VERTEX
  8
Standard
 10
6.4453125
 20
47.7607421875
 42
-0.2644608049291
  0
VERTEX
  8
Standard
 10
6.7220313437828
 20
46.1829977150793
 42
-0.0027639553031
  0
VERTEX
  8
Standard
 10
5.736328125
 20
41.4228515625
 42
0.0087233380997
  0
VERTEX
  8
Standard
 10
12.24609375
 20
47.384765625
 42
-0.7269233454567
  0
VERTEX
  8
Standard
 10
14.7705078125
 20
46.697265625
 42
-0.1389924693296
  0
VERTEX
  8
Standard
 10
12.9199014881596
 20
44.2404959762133
 42
-0.0239370671418
  0
VERTEX
  8
Standard
 10
7.025390625
 20
38.962890625
 42
0.0180605833759
  0
VERTEX
  8
Standard
 10
10.52734375
 20
35.2138671875
 42
0.0238026180767
  0
VERTEX
  8
Standard
 10
12.9449015727077
 20
33.6473289778414
 42
-0.7479212617697
  0
VERTEX
  8
Standard
 10
10.4016904944061
 20
31.4390462702356
 42
-0.1049983486166
  0
VERTEX
  8
Standard
 10
6.5038206612591
 20
34.6447493395143
 42
-0.0084311684718
  0
VERTEX
  8
Standard
 10
4.962890625
 20
36.40625
 42
0.0
  0
SEQEND
  0
POLYLINE
  8
Standard
 66
     1
 10
0.0
 20
0.0
 30
0.0
 70
     1
  0
VERTEX
  8
Standard
 10
21.5380859375
 20
32.0341796875
 42
-0.2058851181744
  0
VERTEX
  8
Standard
 10
16.6751458773947
 20
31.2544441849958
 42
-0.3729056993135
  0
VERTEX
  8
Standard
 10
13.943359375
 20
35.138671875
 42
-0.4111156786833
  0
VERTEX
  8
Standard
 10
21.5380859375
 20
42.873046875
 42
-0.1499758435042
  0
VERTEX
  8
Standard
 10
24.7181331268545
 20
41.7270668419159
 42
-0.4626139565093
  0
VERTEX
  8
Standard
 10
24.8359375
 20
39.994140625
 42
0.0703696998823
  0
VERTEX
  8
Standard
 10
23.9658203125
 20
35.052734375
 42
-0.0185594619808
  0
VERTEX
  8
Standard
 10
24.599609375
 20
32.302734375
 42
-0.3602161951154
  0
VERTEX
  8
Standard
 10
22.923828125
 20
30.94921875
 42
-0.1332764846123
  0
SEQEND
  0
POLYLINE
  8
Standard
 66
     1
 10
0.0
 20
0.0
 30
0.0
 70
     1
  0
VERTEX
  8
Standard
 10
21.9140625
 20
40.1015625
 42
0.2818119507867
  0
VERTEX
  8
Standard
 10
19.6817002125162
 20
39.9303934429071
 42
0.3379520987559
  0
VERTEX
  8
Standard
 10
17.0449781500153
 20
34.8046999431263
 42
0.3965522050909
  0
VERTEX
  8
Standard
 10
18.6376953125
 20
33.61328125
 42
0.1667019033873
  0
VERTEX
  8
Standard
 10
21.162109375
 20
34.494140625
 42
-0.09019780527
  0
SEQEND
  0
POLYLINE
  8
Standard
 66
     1
 10
0.0
 20
0.0
 30
0.0
 70
     1
  0
VERTEX
  8
Standard
 10
17.7998046875
 20
45.365234375
 42
-0.4530419439468
  0
VERTEX
  8
Standard
 10
21.1217391026271
 20
46.8774887385212
 42
-0.6248576611585
  0
VERTEX
  8
Standard
 10
20.8935546875
 20
44.5703125
 42
-0.2463640990939
  0
VERTEX
  8
Standard
 10
18.4117685632922
 20
44.3578239384605
 42
-0.2439008283516
  0
SEQEND
  0
POLYLINE
  8
Standard
 66
     1
 10
0.0
 20
0.0
 30
0.0
 70
     1
  0
VERTEX
  8
Standard
 10
22.55859375
 20
45.3544921875
 42
-0.3555240359275
  0
VERTEX
  8
Standard
 10
24.034297573756
 20
46.9466154682872
 42
-0.3413802565079
  0
VERTEX
  8
Standard
 10
26.4815468734968
 20
46.2779511907813
 42
-0.3861288035745
  0
VERTEX
  8
Standard
 10
25.9638671875
 20
44.634765625
 42
-0.2980898174083
  0
VERTEX
  8
Standard
 10
23.0634765625
 20
44.5166015625
 42
-0.2134055893418
  0
SEQEND
  0
POLYLINE
  8
Standard
 66
     1
 10
0.0
 20
0.0
 30
0.0
 70
     1
  0
VERTEX
  8
Standard
 10
37.125
 20
37.8671875
 42
0.0092962335379
  0
VERTEX
  8
Standard
 10
36.30859375
 20
32.1845703125
 42
-0.5098007611085
  0
VERTEX
  8
Standard
 10
33.8604282382288
 20
30.9967638576241
 42
-0.163725134043
  0
VERTEX
  8
Standard
 10
33.408203125
 20
31.615234375
 42
-0.2229769467664
  0
VERTEX
  8
Standard
 10
28.31640625
 20
31.5830078125
 42
-0.2824919815459
  0
VERTEX
  8
Standard
 10
27.0316686884475
 20
33.5325650608563
 42
-0.1103432916595
  0
VERTEX
  8
Standard
 10
28.1743298182495
 20
41.946972773721
 42
-0.5272848621872
  0
VERTEX
  8
Standard
 10
30.72265625
 20
42.787109375
 42
-0.3083054879441
  0
VERTEX
  8
Standard
 10
30.9244188471205
 20
41.0855042783714
 42
0.1072540200448
  0
VERTEX
  8
Standard
 10
29.970703125
 20
34.193359375
 42
0.1380600447714
  0
VERTEX
  8
Standard
 10
30.9482421875
 20
33.9462890625
 42
0.057428333593
  0
VERTEX
  8
Standard
 10
33.6015625
 20
34.279296875
 42
-0.0345247502812
  0
VERTEX
  8
Standard
 10
34.93359375
 20
41.6806640625
 42
-0.5527217208012
  0
VERTEX
  8
Standard
 10
37.576171875
 20
42.7333984375
 42
-0.3026217219015
  0
VERTEX
  8
Standard
 10
37.751634268765
 20
40.8132353104079
 42
-0.007815776242
  0
VERTEX
  8
Standard
 10
37.125
 20
37.845703125
 42
0.0
  0
SEQEND
  0
POLYLINE
  8
Standard
 66
     1
 10
0.0
 20
0.0
 30
0.0
 70
     1
  0
VERTEX
  8
Standard
 10
46.5244140625
 20
40.123046875
 42
0.0084739677277
  0
VERTEX
  8
Standard
 10
44.38671875
 20
40.1015625
 42
0.064788144463
  0
VERTEX
  8
Standard
 10
43.35546875
 20
35.203125
 42
0.1320012299335
  0
VERTEX
  8
Standard
 10
43.5400336934091
 20
34.1427687943384
 42
0.4525002815351
  0
VERTEX
  8
Standard
 10
44.4473898118137
 20
34.1276597612577
 42
-0.1887421815051
  0
VERTEX
  8
Standard
 10
45.9443359375
 20
35.0849609375
 42
-0.6111381762011
  0
VERTEX
  8
Standard
 10
46.8215797966027
 20
32.6824861061098
 42
-0.3046466135995
  0
VERTEX
  8
Standard
 10
42.1314928908504
 20
31.4314648422553
 42
-0.2669778562773
  0
VERTEX
  8
Standard
 10
40.4658203125
 20
34.8271484375
 42
-0.0736282932192
  0
VERTEX
  8
Standard
 10
41.529296875
 20
40.015625
 42
-0.137644317896
  0
VERTEX
  8
Standard
 10
39.2841796875
 20
40.4453125
 42
-0.6979350795402
  0
VERTEX
  8
Standard
 10
40.4228515625
 20
43.0556640625
 42
0.0
  0
VERTEX
  8
Standard
 10
42.0986328125
 20
42.9052734375
 42
0.0
  0
VERTEX
  8
Standard
 10
42.3564453125
 20
45.0537109375
 42
-0.5074072987112
  0
VERTEX
  8
Standard
 10
44.5402372241504
 20
46.2782776307282
 42
-0.2528107680013
  0
VERTEX
  8
Standard
 10
45.1093152977538
 20
43.7996738889885
 42
-0.0042692983555
  0
VERTEX
  8
Standard
 10
44.9775390625
 20
42.9697265625
 42
-0.2551112049724
  0
VERTEX
  8
Standard
 10
47.8738719084993
 20
42.5121622398721
 42
-0.6098689070892
  0
SEQEND
  0
POLYLINE
  8
Standard
 66
     1
 10
0.0
 20
0.0
 30
0.0
 70
     1
  0
VERTEX
  8
Standard
 10
51.240234375
 20
34.8916015625
 42
0.3180064741841
  0
VERTEX
  8
Standard
 10
56.5146484375
 20
34.365234375
 42
-0.3024147443966
  0
VERTEX
  8
Standard
 10
58.7135647859031
 20
34.7159837289797
 42
-0.4242283858324
  0
VERTEX
  8
Standard
 10
58.4388222232328
 20
32.7871601640493
 42
-0.1969412286899
  0
VERTEX
  8
Standard
 10
53.5712890625
 20
31.1748046875
 42
-0.1666181960371
  0
VERTEX
  8
Standard
 10
49.6826171875
 20
32.28125
 42
-0.2400717818209
  0
VERTEX
  8
Standard
 10
48.2861328125
 20
35.2783203125
 42
-0.2628123017812
  0
VERTEX
  8
Standard
 10
52.3337849198493
 20
42.2502687855873
 42
-0.2292847335471
  0
VERTEX
  8
Standard
 10
58.287109375
 20
42.1962890625
 42
-0.5256114301862
  0
VERTEX
  8
Standard
 10
58.5234375
 20
38.318359375
 42
-0.087613057441
  0
VERTEX
  8
Standard
 10
55.107421875
 20
36.5029296875
 42
0.0
  0
SEQEND
  0
POLYLINE
  8
Standard
 66
     1
 10
0.0
 20
0.0
 30
0.0
 70
     1
  0
VERTEX
  8
Standard
 10
51.43359375
 20
37.6201171875
 42
0.0404374322551
  0
VERTEX
  8
Standard
 10
56.5361328125
 20
39.88671875
 42
0.3948503647986
  0
VERTEX
  8
Standard
 10
51.9894693994565
 20
38.5802335923263
 42
0.034483651342
  0
SEQEND
  0
POLYLINE
  8
Standard
 66
     1
 10
0.0
 20
0.0
 30
0.0
 70
     1
  0
VERTEX
  8
Standard
 10
71.0810546875
 20
39.4033203125
 42
-0.4593328788079
  0
VERTEX
  8
Standard
 10
68.8869426327765
 20
37.7955605008307
 42
-0.36940351604
  0
VERTEX
  8
Standard
 10
68.212890625
 20
39.15625
 42
0.0
  0
VERTEX
  8
Standard
 10
68.3095703125
 20
40.2412109375
 42
0.222007186255
  0
VERTEX
  8
Standard
 10
64.453125
 20
37.7490234375
 42
0.0
  0
VERTEX
  8
Standard
 10
63.615234375
 20
32.3671875
 42
-0.4711029103763
  0
VERTEX
  8
Standard
 10
61.4007025124588
 20
31.0200359091142
 42
-0.3677722212959
  0
VERTEX
  8
Standard
 10
60.779296875
 20
32.3671875
 42
-0.0150415429825
  0
VERTEX
  8
Standard
 10
62.2588540169712
 20
41.4856865896619
 42
-0.6833789548876
  0
VERTEX
  8
Standard
 10
64.907610008454
 20
42.2743086593475
 42
-0.1202671098501
  0
VERTEX
  8
Standard
 10
65.076171875
 20
41.5625
 42
-0.1517708735183
  0
VERTEX
  8
Standard
 10
69.5126953125
 20
42.9912109375
 42
-0.4758714918725
  0
VERTEX
  8
Standard
 10
71.2744140625
 20
41.046875
 42
-0.0901771594277
  0
SEQEND
  0
POLYLINE
  8
Standard
 66
     1
 10
0.0
 20
0.0
 30
0.0
 70
     1
  0
VERTEX
  8
Standard
 10
80.8671875
 20
42.46484375
 42
-0.0137450737296
  0
VERTEX
  8
Standard
 10
82.02734375
 20
47.599609375
 42
-0.6233156829983
  0
VERTEX
  8
Standard
 10
84.6695861739715
 20
48.3022896291006
 42
-0.181046220293
  0
VERTEX
  8
Standard
 10
84.7507488521663
 20
46.9910788579258
 42
0.0103590940639
  0
VERTEX
  8
Standard
 10
82.6181640625
 20
36.5888671875
 42
-0.0022928146744
  0
VERTEX
  8
Standard
 10
82.1884765625
 20
32.3564453125
 42
-0.4502216865754
  0
VERTEX
  8
Standard
 10
79.962748297951
 20
31.5038316028924
 42
-0.1585455603269
  0
VERTEX
  8
Standard
 10
79.5458984375
 20
32.0556640625
 42
-0.2096583223685
  0
VERTEX
  8
Standard
 10
74.3665971614956
 20
31.4637441042015
 42
-0.3253121907978
  0
VERTEX
  8
Standard
 10
71.45703125
 20
35.6650390625
 42
-0.2813656476493
  0
VERTEX
  8
Standard
 10
75.6393262025033
 20
42.5676598787715
 42
-0.1548351285662
  0
VERTEX
  8
Standard
 10
79.715800275462
 20
43.0071823774278
 42
-0.1128808253619
  0
SEQEND
  0
POLYLINE
  8
Standard
 66
     1
 10
0.0
 20
0.0
 30
0.0
 70
     1
  0
VERTEX
  8
Standard
 10
80.1259765625
 20
39.0703125
 42
0.3475038634722
  0
VERTEX
  8
Standard
 10
78.07421875
 20
40.4130859375
 42
0.3467849156154
  0
VERTEX
  8
Standard
 10
74.5070796135369
 20
37.7410398520096
 42
0.5816223127522
  0
VERTEX
  8
Standard
 10
76.7099609375
 20
33.9248046875
 42
0.1831305624244
  0
VERTEX
  8
Standard
 10
79.5029296875
 20
35.138671875
 42
-0.0195251838289
  0
SEQEND
  0
POLYLINE
  8
Standard
 66
     1
 10
0.0
 20
0.0
 30
0.0
 70
     1
  0
VERTEX
  8
Standard
 10
84.283203125
 20
35.439453125
 42
-0.2751079875167
  0
VERTEX
  8
Standard
 10
88.4640161191055
 20
42.2065677594416
 42
-0.1962335097807
  0
VERTEX
  8
Standard
 10
92.7649189811314
 20
42.5077301872629
 42
-0.2917554194604
  0
VERTEX
  8
Standard
 10
95.0146484375
 20
38.42578125
 42
-0.2694411954296
  0
VERTEX
  8
Standard
 10
91.1473959870052
 20
31.6194489336338
 42
-0.3437774358963
  0
VERTEX
  8
Standard
 10
85.4755859375
 20
32.2705078125
 42
-0.1541245127495
  0
SEQEND
  0
POLYLINE
  8
Standard
 66
     1
 10
0.0
 20
0.0
 30
0.0
 70
     1
  0
VERTEX
  8
Standard
 10
87.291015625
 20
35.869140625
 42
0.4684128797288
  0
VERTEX
  8
Standard
 10
89.0205078125
 20
33.8603515625
 42
0.346154911729
  0
VERTEX
  8
Standard
 10
91.891400494051
 20
36.4820908703466
 42
0.2615744066699
  0
VERTEX
  8
Standard
 10
91.573654406921
 20
39.62679771233
 42
0.3955902097429
  0
VERTEX
  8
Standard
 10
88.2470703125
 20
38.576171875
 42
0.1848654722541
  0
SEQEND
  0
POLYLINE
  8
Standard
 66
     1
 10
0.0
 20
0.0
 30
0.0
 70
     1
  0
VERTEX
  8
Standard
 10
106.1435546875
 20
39.4033203125
 42
-0.4593328788079
  0
VERTEX
  8
Standard
 10
103.949442632776
 20
37.7955605008307
 42
-0.3694035160401
  0
VERTEX
  8
Standard
 10
103.275390625
 20
39.15625
 42
0.0
  0
VERTEX
  8
Standard
 10
103.3720703125
 20
40.2412109375
 42
0.222007186255
  0
VERTEX
  8
Standard
 10
99.515625
 20
37.7490234375
 42
0.0
  0
VERTEX
  8
Standard
 10
98.677734375
 20
32.3671875
 42
-0.4711029103764
  0
VERTEX
  8
Standard
 10
96.4632025124588
 20
31.0200359091142
 42
-0.3677722212958
  0
VERTEX
  8
Standard
 10
95.841796875
 20
32.3671875
 42
-0.0150415429825
  0
VERTEX
  8
Standard
 10
97.3213540169712
 20
41.4856865896619
 42
-0.6833789548878
  0
VERTEX
  8
Standard
 10
99.970110008454
 20
42.2743086593475
 42
-0.1202671098501
  0
VERTEX
  8
Standard
 10
100.138671875
 20
41.5625
 42
-0.1517708735183
  0
VERTEX
  8
Standard
 10
104.5751953125
 20
42.9912109375
 42
-0.4758714918723
  0
VERTEX
  8
Standard
 10
106.3369140625
 20
41.046875
 42
-0.0901771594277
  0
SEQEND
  0
POLYLINE
  8
Standard
 66
     1
 10
0.0
 20
0.0
 30
0.0
 70
     1
  0
VERTEX
  8
Standard
 10
113.3408203125
 20
42.6904296875
 42
-0.1395642308282
  0
VERTEX
  8
Standard
 10
116.54626713042
 20
42.6556513890263
 42
-0.6656518298499
  0
VERTEX
  8
Standard
 10
116.313498285309
 20
40.2965233309122
 42
-0.0473283210842
  0
VERTEX
  8
Standard
 10
112.79296875
 20
39.994140625
 42
-0.017020950112
  0
VERTEX
  8
Standard
 10
111.603649737608
 20
32.6291422840965
 42
-0.1686299522966
  0
VERTEX
  8
Standard
 10
110.558995474603
 20
30.236864422578
 42
-0.3437683774445
  0
VERTEX
  8
Standard
 10
108.5712890625
 20
30.326171875
 42
-0.2681505736997
  0
VERTEX
  8
Standard
 10
108.345703125
 20
31.572265625
 42
0.0437274356598
  0
VERTEX
  8
Standard
 10
109.9140625
 20
39.8330078125
 42
-0.1263855814435
  0
VERTEX
  8
Standard
 10
108.006623089781
 20
39.7762991464187
 42
-0.5213770833777
  0
VERTEX
  8
Standard
 10
107.689970178073
 20
41.9571872652771
 42
-0.1347885452157
  0
VERTEX
  8
Standard
 10
110.4404296875
 20
42.59375
 42
-0.1419181718297
  0
VERTEX
  8
Standard
 10
112.6318359375
 20
47.3740234375
 42
-0.2115428684287
  0
VERTEX
  8
Standard
 10
117.329661544514
 20
48.7892724381064
 42
-0.5657802592778
  0
VERTEX
  8
Standard
 10
118.196897625292
 20
46.7797619442798
 42
-0.2551789347293
  0
VERTEX
  8
Standard
 10
116.380859375
 20
46.03125
 42
0.3305473443658
  0
VERTEX
  8
Standard
 10
113.784570534945
 20
44.1055037036049
 42
0.0221910389356
  0
SEQEND
  0
POLYLINE
  8
Standard
 66
     1
 10
0.0
 20
0.0
 30
0.0
 70
     1
  0
VERTEX
  8
Standard
 10
12.890625
 20
16.9091796875
 42
-0.7634088270861
  0
VERTEX
  8
Standard
 10
15.275390625
 20
15.78125
 42
-0.1634689692877
  0
VERTEX
  8
Standard
 10
14.759765625
 20
13.1494140625
 42
-0.703439842443
  0
VERTEX
  8
Standard
 10
12.095703125
 20
13.4501953125
 42
0.4785537630534
  0
VERTEX
  8
Standard
 10
11.3638079120796
 20
14.1033717594189
 42
0.2182080368525
  0
VERTEX
  8
Standard
 10
8.0586741564847
 20
12.5774032361279
 42
0.1307466794358
  0
VERTEX
  8
Standard
 10
4.3278372860418
 20
7.4605011492713
 42
0.2739411928863
  0
VERTEX
  8
Standard
 10
4.6943359375
 20
4.3515625
 42
0.2969106388369
  0
VERTEX
  8
Standard
 10
7.9921875
 20
3.96484375
 42
-0.0000120049128
  0
VERTEX
  8
Standard
 10
11.0189665607107
 20
5.61455468583
 42
-0.8934581236011
  0
VERTEX
  8
Standard
 10
12.6435546875
 20
3.5673828125
 42
-0.1810851069429
  0
VERTEX
  8
Standard
 10
5.865234375
 20
0.7314453125
 42
-0.4306533940489
  0
VERTEX
  8
Standard
 10
1.0205078125
 20
5.5439453125
 42
-0.1464856158161
  0
VERTEX
  8
Standard
 10
2.6844136600796
 20
10.5109730145143
 42
-0.1191660690045
  0
VERTEX
  8
Standard
 10
8.4709173408266
 20
16.2369885209687
 42
-0.1786825078203
  0
SEQEND
  0
POLYLINE
  8
Standard
 66
     1
 10
0.0
 20
0.0
 30
0.0
 70
     1
  0
VERTEX
  8
Standard
 10
17.380859375
 20
4.2333984375
 42
0.3180064741841
  0
VERTEX
  8
Standard
 10
22.6552734375
 20
3.70703125
 42
-0.3024147443966
  0
VERTEX
  8
Standard
 10
24.8541897859031
 20
4.0577806039797
 42
-0.4242283858323
  0
VERTEX
  8
Standard
 10
24.5794472232328
 20
2.1289570390493
 42
-0.1969412286899
  0
VERTEX
  8
Standard
 10
19.7119140625
 20
0.5166015625
 42
-0.1666181960371
  0
VERTEX
  8
Standard
 10
15.8232421875
 20
1.623046875
 42
-0.2400717818209
  0
VERTEX
  8
Standard
 10
14.4267578125
 20
4.6201171875
 42
-0.2628123017812
  0
VERTEX
  8
Standard
 10
18.4744099198493
 20
11.5920656605873
 42
-0.2292847335471
  0
VERTEX
  8
Standard
 10
24.427734375
 20
11.5380859375
 42
-0.5256114301863
  0
VERTEX
  8
Standard
 10
24.6640625
 20
7.66015625
 42
-0.087613057441
  0
VERTEX
  8
Standard
 10
21.248046875
 20
5.8447265625
 42
0.0
  0
SEQEND
  0
POLYLINE
  8
Standard
 66
     1
 10
0.0
 20
0.0
 30
0.0
 70
     1
  0
VERTEX
  8
Standard
 10
17.57421875
 20
6.9619140625
 42
0.0404374322551
  0
VERTEX
  8
Standard
 10
22.6767578125
 20
9.228515625
 42
0.3948503647986
  0
VERTEX
  8
Standard
 10
18.1300943994565
 20
7.9220304673263
 42
0.034483651342
  0
SEQEND
  0
POLYLINE
  8
Standard
 66
     1
 10
0.0
 20
0.0
 30
0.0
 70
     1
  0
VERTEX
  8
Standard
 10
33.64453125
 20
1.5693359375
 42
-0.3902590533884
  0
VERTEX
  8
Standard
 10
27.693359375
 20
1.5693359375
 42
-0.2883195007813
  0
VERTEX
  8
Standard
 10
27.165314919609
 20
7.2179488510467
 42
-0.3626063354516
  0
VERTEX
  8
Standard
 10
36.0231874610189
 20
11.8200992852087
 42
-0.1655608101504
  0
VERTEX
  8
Standard
 10
37.296875
 20
11.01171875
 42
-0.4684291645678
  0
VERTEX
  8
Standard
 10
38.3551279295496
 20
9.1681128392331
 42
0.0134709839105
  0
VERTEX
  8
Standard
 10
36.458984375
 20
2.07421875
 42
-0.1774096578707
  0
VERTEX
  8
Standard
 10
34.03125
 20
-3.4580078125
 42
-0.1900071439345
  0
VERTEX
  8
Standard
 10
29.197265625
 20
-5.0478515625
 42
-0.1181472764334
  0
VERTEX
  8
Standard
 10
25.9473098270748
 20
-4.539797088277
 42
-0.5348556977895
  0
VERTEX
  8
Standard
 10
25.716796875
 20
-2.544921875
 42
-0.2628190005887
  0
VERTEX
  8
Standard
 10
28.208984375
 20
-2.2548828125
 42
0.4458758767326
  0
VERTEX
  8
Standard
 10
33.1441321684087
 20
-0.0536105936216
 42
0.0413048478291
  0
SEQEND
  0
POLYLINE
  8
Standard
 66
     1
 10
0.0
 20
0.0
 30
0.0
 70
     1
  0
VERTEX
  8
Standard
 10
35.36328125
 20
9.12109375
 42
0.3627720737408
  0
VERTEX
  8
Standard
 10
30.765625
 20
8.068359375
 42
0.2260907235662
  0
VERTEX
  8
Standard
 10
29.6661789575078
 20
4.0704975407866
 42
0.4832737559617
  0
VERTEX
  8
Standard
 10
32.1308883137289
 20
3.2446183572491
 42
0.2112571399338
  0
VERTEX
  8
Standard
 10
34.8277356704867
 20
7.2986014689146
 42
0.0048611449859
  0
SEQEND
  0
POLYLINE
  8
Standard
 66
     1
 10
0.0
 20
0.0
 30
0.0
 70
     1
  0
VERTEX
  8
Standard
 10
38.6181640625
 20
4.78125
 42
-0.2751079875168
  0
VERTEX
  8
Standard
 10
42.7989770566055
 20
11.5483646344416
 42
-0.1962335097807
  0
VERTEX
  8
Standard
 10
47.0998799186314
 20
11.8495270622629
 42
-0.2917554194604
  0
VERTEX
  8
Standard
 10
49.349609375
 20
7.767578125
 42
-0.2694411954296
  0
VERTEX
  8
Standard
 10
45.4823569245052
 20
0.9612458086338
 42
-0.3437774358963
  0
VERTEX
  8
Standard
 10
39.810546875
 20
1.6123046875
 42
-0.1541245127495
  0
SEQEND
  0
POLYLINE
  8
Standard
 66
     1
 10
0.0
 20
0.0
 30
0.0
 70
     1
  0
VERTEX
  8
Standard
 10
41.6259765625
 20
5.2109375
 42
0.4684128797288
  0
VERTEX
  8
Standard
 10
43.35546875
 20
3.2021484375
 42
0.346154911729
  0
VERTEX
  8
Standard
 10
46.226361431551
 20
5.8238877453466
 42
0.26157440667
  0
VERTEX
  8
Standard
 10
45.908615344421
 20
8.96859458733
 42
0.3955902097429
  0
VERTEX
  8
Standard
 10
42.58203125
 20
7.91796875
 42
0.1848654722541
  0
SEQEND
  0
POLYLINE
  8
Standard
 66
     1
 10
0.0
 20
0.0
 30
0.0
 70
     1
  0
VERTEX
  8
Standard
 10
57.10546875
 20
12.0322265625
 42
-0.1395642308281
  0
VERTEX
  8
Standard
 10
60.3109155679196
 20
11.9974482640263
 42
-0.6656518298499
  0
VERTEX
  8
Standard
 10
60.0781467228087
 20
9.6383202059122
 42
-0.0473283210842
  0
VERTEX
  8
Standard
 10
56.5576171875
 20
9.3359375
 42
-0.017020950112
  0
VERTEX
  8
Standard
 10
55.3682981751076
 20
1.9709391590965
 42
-0.1686299522966
  0
VERTEX
  8
Standard
 10
54.3236439121031
 20
-0.421338702422
 42
-0.3437683774445
  0
VERTEX
  8
Standard
 10
52.3359375
 20
-0.33203125
 42
-0.2681505736999
  0
VERTEX
  8
Standard
 10
52.1103515625
 20
0.9140625
 42
0.0437274356598
  0
VERTEX
  8
Standard
 10
53.6787109375
 20
9.1748046875
 42
-0.1263855814434
  0
VERTEX
  8
Standard
 10
51.7712715272812
 20
9.1180960214187
 42
-0.5213770833774
  0
VERTEX
  8
Standard
 10
51.4546186155726
 20
11.2989841402771
 42
-0.1347885452157
  0
VERTEX
  8
Standard
 10
54.205078125
 20
11.935546875
 42
-0.1419181718297
  0
VERTEX
  8
Standard
 10
56.396484375
 20
16.7158203125
 42
-0.2115428684287
  0
VERTEX
  8
Standard
 10
61.0943099820141
 20
18.1310693131064
 42
-0.565780259278
  0
VERTEX
  8
Standard
 10
61.9615460627925
 20
16.1215588192798
 42
-0.2551789347292
  0
VERTEX
  8
Standard
 10
60.1455078125
 20
15.373046875
 42
0.3305473443658
  0
VERTEX
  8
Standard
 10
57.549218972445
 20
13.4473005786049
 42
0.0221910389356
  0
SEQEND
  0
POLYLINE
  8
Standard
 66
     1
 10
0.0
 20
0.0
 30
0.0
 70
     1
  0
VERTEX
  8
Standard
 10
71.6611328125
 20
8.7451171875
 42
-0.4593328788079
  0
VERTEX
  8
Standard
 10
69.4670207577765
 20
7.1373573758307
 42
-0.3694035160398
  0
VERTEX
  8
Standard
 10
68.79296875
 20
8.498046875
 42
0.0
  0
VERTEX
  8
Standard
 10
68.8896484375
 20
9.5830078125
 42
0.222007186255
  0
VERTEX
  8
Standard
 10
65.033203125
 20
7.0908203125
 42
0.0
  0
VERTEX
  8
Standard
 10
64.1953125
 20
1.708984375
 42
-0.4711029103764
  0
VERTEX
  8
Standard
 10
61.9807806374588
 20
0.3618327841142
 42
-0.3677722212958
  0
VERTEX
  8
Standard
 10
61.359375
 20
1.708984375
 42
-0.0150415429825
  0
VERTEX
  8
Standard
 10
62.8389321419712
 20
10.8274834646619
 42
-0.6833789548875
  0
VERTEX
  8
Standard
 10
65.487688133454
 20
11.6161055343475
 42
-0.1202671098501
  0
VERTEX
  8
Standard
 10
65.65625
 20
10.904296875
 42
-0.1517708735183
  0
VERTEX
  8
Standard
 10
70.0927734375
 20
12.3330078125
 42
-0.4758714918724
  0
VERTEX
  8
Standard
 10
71.8544921875
 20
10.388671875
 42
-0.0901771594277
  0
SEQEND
  0
POLYLINE
  8
Standard
 66
     1
 10
0.0
 20
0.0
 30
0.0
 70
     1
  0
VERTEX
  8
Standard
 10
74.6904296875
 20
4.2333984375
 42
0.3180064741841
  0
VERTEX
  8
Standard
 10
79.96484375
 20
3.70703125
 42
-0.3024147443966
  0
VERTEX
  8
Standard
 10
82.1637600984031
 20
4.0577806039797
 42
-0.4242283858323
  0
VERTEX
  8
Standard
 10
81.8890175357328
 20
2.1289570390493
 42
-0.1969412286899
  0
VERTEX
  8
Standard
 10
77.021484375
 20
0.5166015625
 42
-0.1666181960371
  0
VERTEX
  8
Standard
 10
73.1328125
 20
1.623046875
 42
-0.2400717818209
  0
VERTEX
  8
Standard
 10
71.736328125
 20
4.6201171875
 42
-0.2628123017812
  0
VERTEX
  8
Standard
 10
75.7839802323493
 20
11.5920656605873
 42
-0.2292847335471
  0
VERTEX
  8
Standard
 10
81.7373046875
 20
11.5380859375
 42
-0.5256114301863
  0
VERTEX
  8
Standard
 10
81.9736328125
 20
7.66015625
 42
-0.087613057441
  0
VERTEX
  8
Standard
 10
78.5576171875
 20
5.8447265625
 42
0.0
  0
SEQEND
  0
POLYLINE
  8
Standard
 66
     1
 10
0.0
 20
0.0
 30
0.0
 70
     1
  0
VERTEX
  8
Standard
 10
74.8837890625
 20
6.9619140625
 42
0.0404374322551
  0
VERTEX
  8
Standard
 10
79.986328125
 20
9.228515625
 42
0.3948503647986
  0
VERTEX
  8
Standard
 10
75.4396647119565
 20
7.9220304673263
 42
0.034483651342
  0
SEQEND
  0
POLYLINE
  8
Standard
 66
     1
 10
0.0
 20
0.0
 30
0.0
 70
     1
  0
VERTEX
  8
Standard
 10
94.681640625
 20
7.208984375
 42
0.0092962335379
  0
VERTEX
  8
Standard
 10
93.865234375
 20
1.5263671875
 42
-0.5098007611085
  0
VERTEX
  8
Standard
 10
91.4170688632288
 20
0.3385607326241
 42
-0.163725134043
  0
VERTEX
  8
Standard
 10
90.96484375
 20
0.95703125
 42
-0.2229769467664
  0
VERTEX
  8
Standard
 10
85.873046875
 20
0.9248046875
 42
-0.2824919815459
  0
VERTEX
  8
Standard
 10
84.5883093134475
 20
2.8743619358563
 42
-0.1103432916595
  0
VERTEX
  8
Standard
 10
85.7309704432495
 20
11.288769648721
 42
-0.5272848621872
  0
VERTEX
  8
Standard
 10
88.279296875
 20
12.12890625
 42
-0.3083054879441
  0
VERTEX
  8
Standard
 10
88.4810594721205
 20
10.4273011533714
 42
0.1072540200448
  0
VERTEX
  8
Standard
 10
87.52734375
 20
3.53515625
 42
0.1380600447714
  0
VERTEX
  8
Standard
 10
88.5048828125
 20
3.2880859375
 42
0.057428333593
  0
VERTEX
  8
Standard
 10
91.158203125
 20
3.62109375
 42
-0.0345247502812
  0
VERTEX
  8
Standard
 10
92.490234375
 20
11.0224609375
 42
-0.5527217208013
  0
VERTEX
  8
Standard
 10
95.1328125
 20
12.0751953125
 42
-0.3026217219014
  0
VERTEX
  8
Standard
 10
95.308274893765
 20
10.1550321854079
 42
-0.007815776242
  0
VERTEX
  8
Standard
 10
94.681640625
 20
7.1875
 42
0.0
  0
SEQEND
  0
POLYLINE
  8
Standard
 66
     1
 10
0.0
 20
0.0
 30
0.0
 70
     1
  0
VERTEX
  8
Standard
 10
100.1708984375
 20
10.92578125
 42
-0.2979419138444
  0
VERTEX
  8
Standard
 10
104.884128765489
 20
12.3162607307543
 42
-0.2832543156333
  0
VERTEX
  8
Standard
 10
106.4228515625
 20
9.3896484375
 42
0.033234081842
  0
VERTEX
  8
Standard
 10
105.767578125
 20
1.708984375
 42
-0.4448975804916
  0
VERTEX
  8
Standard
 10
103.56841579531
 20
0.2867103013278
 42
-0.3749385915763
  0
VERTEX
  8
Standard
 10
102.7919921875
 20
1.4619140625
 42
-0.073515852882
  0
VERTEX
  8
Standard
 10
103.490234375
 20
8.283203125
 42
0.1765514871721
  0
VERTEX
  8
Standard
 10
103.578927164334
 20
9.4826151741158
 42
0.3159128701534
  0
VERTEX
  8
Standard
 10
103.275390625
 20
9.6689453125
 42
0.1965061531332
  0
VERTEX
  8
Standard
 10
101.10546875
 20
8.455078125
 42
0.1906520818426
  0
VERTEX
  8
Standard
 10
98.65625
 20
2.783203125
 42
-0.4847192036517
  0
VERTEX
  8
Standard
 10
96.873046875
 20
0.4736328125
 42
-0.440747543477
  0
VERTEX
  8
Standard
 10
95.5947265625
 20
1.623046875
 42
-0.0353454442994
  0
VERTEX
  8
Standard
 10
96.7462258948601
 20
8.1827955652201
 42
0.0306597960249
  0
VERTEX
  8
Standard
 10
97.2060546875
 20
11.3876953125
 42
-0.4428029958985
  0
VERTEX
  8
Standard
 10
99.5388805658775
 20
12.6247128857517
 42
-0.3345233370944
  0
VERTEX
  8
Standard
 10
100.1708984375
 20
11.0546875
 42
0.0
  0
SEQEND
  0
POLYLINE
  8
Standard
 66
     1
 10
0.0
 20
0.0
 30
0.0
 70
     1
  0
VERTEX
  8
Standard
 10
116.703125
 20
11.806640625
 42
-0.0137450737296
  0
VERTEX
  8
Standard
 10
117.86328125
 20
16.94140625
 42
-0.6233156829985
  0
VERTEX
  8
Standard
 10
120.505523673971
 20
17.6440865041006
 42
-0.181046220293
  0
VERTEX
  8
Standard
 10
120.586686352166
 20
16.3328757329258
 42
0.0103590940639
  0
VERTEX
  8
Standard
 10
118.4541015625
 20
5.9306640625
 42
-0.0022928146744
  0
VERTEX
  8
Standard
 10
118.0244140625
 20
1.6982421875
 42
-0.4502216865755
  0
VERTEX
  8
Standard
 10
115.798685797951
 20
0.8456284778924
 42
-0.1585455603269
  0
VERTEX
  8
Standard
 10
115.3818359375
 20
1.3974609375
 42
-0.2096583223685
  0
VERTEX
  8
Standard
 10
110.202534661496
 20
0.8055409792015
 42
-0.3253121907978
  0
VERTEX
  8
Standard
 10
107.29296875
 20
5.0068359375
 42
-0.2813656476493
  0
VERTEX
  8
Standard
 10
111.475263702503
 20
11.9094567537715
 42
-0.1548351285662
  0
VERTEX
  8
Standard
 10
115.551737775462
 20
12.3489792524278
 42
-0.1128808253619
  0
SEQEND
  0
POLYLINE
  8
Standard
 66
     1
 10
0.0
 20
0.0
 30
0.0
 70
     1
  0
VERTEX
  8
Standard
 10
115.9619140625
 20
8.412109375
 42
0.3475038634722
  0
VERTEX
  8
Standard
 10
113.91015625
 20
9.7548828125
 42
0.3467849156154
  0
VERTEX
  8
Standard
 10
110.343017113537
 20
7.0828367270096
 42
0.5816223127522
  0
VERTEX
  8
Standard
 10
112.5458984375
 20
3.2666015625
 42
0.1831305624245
  0
VERTEX
  8
Standard
 10
115.3388671875
 20
4.48046875
 42
-0.0195251838289
  0
SEQEND
  0
POLYLINE
  8
Standard
 66
     1
 10
0.0
 20
0.0
 30
0.0
 70
     1
  0
VERTEX
  8
Standard
 10
122.869140625
 20
4.2333984375
 42
0.3180064741841
  0
VERTEX
  8
Standard
 10
128.1435546875
 20
3.70703125
 42
-0.3024147443966
  0
VERTEX
  8
Standard
 10
130.342471035903
 20
4.0577806039797
 42
-0.4242283858323
  0
VERTEX
  8
Standard
 10
130.067728473233
 20
2.1289570390493
 42
-0.1969412286899
  0
VERTEX
  8
Standard
 10
125.2001953125
 20
0.5166015625
 42
-0.1666181960371
  0
VERTEX
  8
Standard
 10
121.3115234375
 20
1.623046875
 42
-0.2400717818209
  0
VERTEX
  8
Standard
 10
119.9150390625
 20
4.6201171875
 42
-0.2628123017812
  0
VERTEX
  8
Standard
 10
123.962691169849
 20
11.5920656605873
 42
-0.2292847335471
  0
VERTEX
  8
Standard
 10
129.916015625
 20
11.5380859375
 42
-0.5256114301863
  0
VERTEX
  8
Standard
 10
130.15234375
 20
7.66015625
 42
-0.087613057441
  0
VERTEX
  8
Standard
 10
126.736328125
 20
5.8447265625
 42
0.0
  0
SEQEND
  0
POLYLINE
  8
Standard
 66
     1
 10
0.0
 20
0.0
 30
0.0
 70
     1
  0
VERTEX
  8
Standard
 10
123.0625
 20
6.9619140625
 42
0.0404374322551
  0
VERTEX
  8
Standard
 10
128.1650390625
 20
9.228515625
 42
0.3948503647986
  0
VERTEX
  8
Standard
 10
123.618375649457
 20
7.9220304673263
 42
0.034483651342
  0
SEQEND
  0
ENDSEC
  0
EOF
