  0
SECTION
  2
HEADER
  9
$ACADVER
  1
AC1009
  9
$EXTMAX
 10
131.750518798828
 20
50.8373794555664
 30
0.0
  9
$EXTMIN
 10
1.7126870155335
 20
-3.0685775279999
 30
0.0
  9
$INSUNITS
 70
     4
  9
$LUNITS
 70
     2
  9
$LUPREC
 70
     4
  9
$MEASUREMENT
 70
     1
  0
ENDSEC
  0
SECTION
  2
TABLES
  0
TABLE
  2
LAYER
 70
     1
  0
LAYER
  2
0
 70
     0
 62
     7
  6
Continuous
  0
LAYER
  2
Standard
 70
     0
 62
    70
  6
Continuous
  0
ENDTAB
  0
TABLE
  2
APPID
 70
     1
  0
APPID
  2
ACAD
 70
     0
  0
ENDTAB
  0
ENDSEC
  0
SECTION
  2
ENTITIES
  0
POLYLINE
  8
Standard
 66
     1
 10
0.0
 20
0.0
 30
0.0
 70
     1
  0
VERTEX
  8
Standard
 10
4.9041733806064
 20
33.9070151625802
 42
-1.013945290711
  0
VERTEX
  8
Standard
 10
1.8963608806064
 20
34.0251792250802
 42
-0.0009911935308
  0
VERTEX
  8
Standard
 10
4.4637436931064
 20
48.6452964125802
 42
-0.5901292950401
  0
VERTEX
  8
Standard
 10
7.1385483806064
 20
49.7624839125802
 42
-0.2644608049291
  0
VERTEX
  8
Standard
 10
7.4152672243891
 20
48.1847394401595
 42
-0.0027639553031
  0
VERTEX
  8
Standard
 10
6.4295640056064
 20
43.4245932875802
 42
0.0087233380997
  0
VERTEX
  8
Standard
 10
12.9393296306064
 20
49.3865073500802
 42
-0.7269233454567
  0
VERTEX
  8
Standard
 10
15.4637436931064
 20
48.6990073500802
 42
-0.1389924693296
  0
VERTEX
  8
Standard
 10
13.6131373687659
 20
46.2422377012936
 42
-0.0239370671418
  0
VERTEX
  8
Standard
 10
7.7186265056064
 20
40.9646323500802
 42
0.0180605833759
  0
VERTEX
  8
Standard
 10
11.2205796306064
 20
37.2156089125802
 42
0.0238026180767
  0
VERTEX
  8
Standard
 10
13.6381374533141
 20
35.6490707029216
 42
-0.7479212617697
  0
VERTEX
  8
Standard
 10
11.0949263750124
 20
33.4407879953158
 42
-0.1049983486166
  0
VERTEX
  8
Standard
 10
7.1970565418654
 20
36.6464910645945
 42
-0.0084311684718
  0
VERTEX
  8
Standard
 10
5.6561265056064
 20
38.4079917250802
 42
0.0
  0
SEQEND
  0
POLYLINE
  8
Standard
 66
     1
 10
0.0
 20
0.0
 30
0.0
 70
     1
  0
VERTEX
  8
Standard
 10
25.4432358806064
 20
41.4050620375802
 42
-0.4593328788079
  0
VERTEX
  8
Standard
 10
23.2491238258828
 20
39.7973022259109
 42
-0.3694035160398
  0
VERTEX
  8
Standard
 10
22.5750718181064
 20
41.1579917250802
 42
0.0
  0
VERTEX
  8
Standard
 10
22.6717515056064
 20
42.2429526625802
 42
0.222007186255
  0
VERTEX
  8
Standard
 10
18.8153061931064
 20
39.7507651625802
 42
0.0
  0
VERTEX
  8
Standard
 10
17.9774155681064
 20
34.3689292250802
 42
-0.4711029103764
  0
VERTEX
  8
Standard
 10
15.7628837055652
 20
33.0217776341944
 42
-0.3677722212958
  0
VERTEX
  8
Standard
 10
15.1414780681064
 20
34.3689292250802
 42
-0.0150415429825
  0
VERTEX
  8
Standard
 10
16.6210352100776
 20
43.4874283147421
 42
-0.6833789548875
  0
VERTEX
  8
Standard
 10
19.2697912015603
 20
44.2760503844278
 42
-0.1202671098501
  0
VERTEX
  8
Standard
 10
19.4383530681064
 20
43.5642417250802
 42
-0.1517708735183
  0
VERTEX
  8
Standard
 10
23.8748765056064
 20
44.9929526625802
 42
-0.4758714918725
  0
VERTEX
  8
Standard
 10
25.6365952556064
 20
43.0486167250802
 42
-0.0901771594277
  0
SEQEND
  0
POLYLINE
  8
Standard
 66
     1
 10
0.0
 20
0.0
 30
0.0
 70
     1
  0
VERTEX
  8
Standard
 10
32.8016343181064
 20
34.0359214125802
 42
-0.2058851181744
  0
VERTEX
  8
Standard
 10
27.938694258001
 20
33.256185910076
 42
-0.3729056993135
  0
VERTEX
  8
Standard
 10
25.2069077556064
 20
37.1404136000802
 42
-0.4111156786833
  0
VERTEX
  8
Standard
 10
32.8016343181064
 20
44.8747886000802
 42
-0.1499758435042
  0
VERTEX
  8
Standard
 10
35.9816815074609
 20
43.7288085669962
 42
-0.4626139565092
  0
VERTEX
  8
Standard
 10
36.0994858806064
 20
41.9958823500802
 42
0.0703696998823
  0
VERTEX
  8
Standard
 10
35.2293686931064
 20
37.0544761000802
 42
-0.0185594619808
  0
VERTEX
  8
Standard
 10
35.8631577556064
 20
34.3044761000802
 42
-0.3602161951154
  0
VERTEX
  8
Standard
 10
34.1873765056064
 20
32.9509604750802
 42
-0.1332764846123
  0
SEQEND
  0
POLYLINE
  8
Standard
 66
     1
 10
0.0
 20
0.0
 30
0.0
 70
     1
  0
VERTEX
  8
Standard
 10
33.1776108806064
 20
42.1033042250802
 42
0.2818119507867
  0
VERTEX
  8
Standard
 10
30.9452485931226
 20
41.9321351679873
 42
0.3379520987559
  0
VERTEX
  8
Standard
 10
28.3085265306216
 20
36.8064416682065
 42
0.396552205091
  0
VERTEX
  8
Standard
 10
29.9012436931064
 20
35.6150229750802
 42
0.1667019033873
  0
VERTEX
  8
Standard
 10
32.4256577556064
 20
36.4958823500802
 42
-0.09019780527
  0
SEQEND
  0
POLYLINE
  8
Standard
 66
     1
 10
0.0
 20
0.0
 30
0.0
 70
     1
  0
VERTEX
  8
Standard
 10
29.0633530681064
 20
47.3669761000802
 42
-0.4530419439468
  0
VERTEX
  8
Standard
 10
32.3852874832334
 20
48.8792304636014
 42
-0.6248576611585
  0
VERTEX
  8
Standard
 10
32.1571030681064
 20
46.5720542250802
 42
-0.2463640990939
  0
VERTEX
  8
Standard
 10
29.6753169438986
 20
46.3595656635408
 42
-0.2439008283516
  0
SEQEND
  0
POLYLINE
  8
Standard
 66
     1
 10
0.0
 20
0.0
 30
0.0
 70
     1
  0
VERTEX
  8
Standard
 10
33.8221421306064
 20
47.3562339125802
 42
-0.3555240359275
  0
VERTEX
  8
Standard
 10
35.2978459543624
 20
48.9483571933675
 42
-0.3413802565079
  0
VERTEX
  8
Standard
 10
37.7450952541032
 20
48.2796929158615
 42
-0.3861288035745
  0
VERTEX
  8
Standard
 10
37.2274155681064
 20
46.6365073500802
 42
-0.2980898174083
  0
VERTEX
  8
Standard
 10
34.3270249431064
 20
46.5183432875802
 42
-0.2134055893418
  0
SEQEND
  0
POLYLINE
  8
Standard
 66
     1
 10
0.0
 20
0.0
 30
0.0
 70
     1
  0
VERTEX
  8
Standard
 10
48.3885483806064
 20
39.8689292250802
 42
0.0092962335379
  0
VERTEX
  8
Standard
 10
47.5721421306064
 20
34.1863120375802
 42
-0.5098007611084
  0
VERTEX
  8
Standard
 10
45.1239766188352
 20
32.9985055827043
 42
-0.163725134043
  0
VERTEX
  8
Standard
 10
44.6717515056064
 20
33.6169761000802
 42
-0.2229769467664
  0
VERTEX
  8
Standard
 10
39.5799546306064
 20
33.5847495375802
 42
-0.2824919815459
  0
VERTEX
  8
Standard
 10
38.2952170690538
 20
35.5343067859365
 42
-0.1103432916595
  0
VERTEX
  8
Standard
 10
39.4378781988559
 20
43.9487144988012
 42
-0.5272848621873
  0
VERTEX
  8
Standard
 10
41.9862046306064
 20
44.7888511000802
 42
-0.3083054879442
  0
VERTEX
  8
Standard
 10
42.1879672277268
 20
43.0872460034516
 42
0.1072540200448
  0
VERTEX
  8
Standard
 10
41.2342515056064
 20
36.1951011000802
 42
0.1380600447714
  0
VERTEX
  8
Standard
 10
42.2117905681064
 20
35.9480307875802
 42
0.057428333593
  0
VERTEX
  8
Standard
 10
44.8651108806064
 20
36.2810386000802
 42
-0.0345247502812
  0
VERTEX
  8
Standard
 10
46.1971421306064
 20
43.6824057875802
 42
-0.5527217208012
  0
VERTEX
  8
Standard
 10
48.8397202556064
 20
44.7351401625802
 42
-0.3026217219015
  0
VERTEX
  8
Standard
 10
49.0151826493714
 20
42.8149770354881
 42
-0.007815776242
  0
VERTEX
  8
Standard
 10
48.3885483806064
 20
39.8474448500802
 42
0.0
  0
SEQEND
  0
POLYLINE
  8
Standard
 66
     1
 10
0.0
 20
0.0
 30
0.0
 70
     1
  0
VERTEX
  8
Standard
 10
57.7879624431064
 20
42.1247886000802
 42
0.0084739677277
  0
VERTEX
  8
Standard
 10
55.6502671306064
 20
42.1033042250802
 42
0.064788144463
  0
VERTEX
  8
Standard
 10
54.6190171306064
 20
37.2048667250802
 42
0.1320012299335
  0
VERTEX
  8
Standard
 10
54.8035820740155
 20
36.1445105194187
 42
0.4525002815346
  0
VERTEX
  8
Standard
 10
55.7109381924201
 20
36.1294014863379
 42
-0.188742181505
  0
VERTEX
  8
Standard
 10
57.2078843181064
 20
37.0867026625802
 42
-0.6111381762012
  0
VERTEX
  8
Standard
 10
58.0851281772091
 20
34.68422783119
 42
-0.3046466135996
  0
VERTEX
  8
Standard
 10
53.3950412714568
 20
33.4332065673355
 42
-0.2669778562773
  0
VERTEX
  8
Standard
 10
51.7293686931064
 20
36.8288901625802
 42
-0.0736282932192
  0
VERTEX
  8
Standard
 10
52.7928452556064
 20
42.0173667250802
 42
-0.1376443178961
  0
VERTEX
  8
Standard
 10
50.5477280681064
 20
42.4470542250802
 42
-0.6979350795404
  0
VERTEX
  8
Standard
 10
51.6863999431064
 20
45.0574057875802
 42
0.0
  0
VERTEX
  8
Standard
 10
53.3621811931064
 20
44.9070151625802
 42
0.0
  0
VERTEX
  8
Standard
 10
53.6199936931064
 20
47.0554526625802
 42
-0.5074072987111
  0
VERTEX
  8
Standard
 10
55.8037856047567
 20
48.2800193558084
 42
-0.2528107680014
  0
VERTEX
  8
Standard
 10
56.3728636783601
 20
45.8014156140687
 42
-0.0042692983555
  0
VERTEX
  8
Standard
 10
56.2410874431064
 20
44.9714682875802
 42
-0.2551112049724
  0
VERTEX
  8
Standard
 10
59.1374202891056
 20
44.5139039649523
 42
-0.6098689070892
  0
SEQEND
  0
POLYLINE
  8
Standard
 66
     1
 10
0.0
 20
0.0
 30
0.0
 70
     1
  0
VERTEX
  8
Standard
 10
62.5037827556064
 20
36.8933432875802
 42
0.3180064741841
  0
VERTEX
  8
Standard
 10
67.7781968181064
 20
36.3669761000802
 42
-0.3024147443967
  0
VERTEX
  8
Standard
 10
69.9771131665095
 20
36.7177254540599
 42
-0.4242283858324
  0
VERTEX
  8
Standard
 10
69.7023706038392
 20
34.7889018891295
 42
-0.1969412286899
  0
VERTEX
  8
Standard
 10
64.8348374431064
 20
33.1765464125802
 42
-0.1666181960371
  0
VERTEX
  8
Standard
 10
60.9461655681064
 20
34.2829917250802
 42
-0.2400717818209
  0
VERTEX
  8
Standard
 10
59.5496811931064
 20
37.2800620375802
 42
-0.2628123017812
  0
VERTEX
  8
Standard
 10
63.5973333004556
 20
44.2520105106675
 42
-0.2292847335471
  0
VERTEX
  8
Standard
 10
69.5506577556064
 20
44.1980307875802
 42
-0.5256114301863
  0
VERTEX
  8
Standard
 10
69.7869858806064
 20
40.3201011000802
 42
-0.087613057441
  0
VERTEX
  8
Standard
 10
66.3709702556064
 20
38.5046714125802
 42
0.0
  0
SEQEND
  0
POLYLINE
  8
Standard
 66
     1
 10
0.0
 20
0.0
 30
0.0
 70
     1
  0
VERTEX
  8
Standard
 10
62.6971421306064
 20
39.6218589125802
 42
0.0404374322551
  0
VERTEX
  8
Standard
 10
67.7996811931064
 20
41.8884604750802
 42
0.3948503647986
  0
VERTEX
  8
Standard
 10
63.2530177800629
 20
40.5819753174065
 42
0.034483651342
  0
SEQEND
  0
POLYLINE
  8
Standard
 66
     1
 10
0.0
 20
0.0
 30
0.0
 70
     1
  0
VERTEX
  8
Standard
 10
82.3446030681064
 20
41.4050620375802
 42
-0.4593328788079
  0
VERTEX
  8
Standard
 10
80.1504910133828
 20
39.7973022259109
 42
-0.3694035160397
  0
VERTEX
  8
Standard
 10
79.4764390056064
 20
41.1579917250802
 42
0.0
  0
VERTEX
  8
Standard
 10
79.5731186931064
 20
42.2429526625802
 42
0.222007186255
  0
VERTEX
  8
Standard
 10
75.7166733806064
 20
39.7507651625802
 42
0.0
  0
VERTEX
  8
Standard
 10
74.8787827556064
 20
34.3689292250802
 42
-0.4711029103764
  0
VERTEX
  8
Standard
 10
72.6642508930652
 20
33.0217776341944
 42
-0.3677722212957
  0
VERTEX
  8
Standard
 10
72.0428452556064
 20
34.3689292250802
 42
-0.0150415429825
  0
VERTEX
  8
Standard
 10
73.5224023975776
 20
43.4874283147421
 42
-0.6833789548874
  0
VERTEX
  8
Standard
 10
76.1711583890603
 20
44.2760503844278
 42
-0.1202671098501
  0
VERTEX
  8
Standard
 10
76.3397202556064
 20
43.5642417250802
 42
-0.1517708735183
  0
VERTEX
  8
Standard
 10
80.7762436931064
 20
44.9929526625802
 42
-0.4758714918725
  0
VERTEX
  8
Standard
 10
82.5379624431064
 20
43.0486167250802
 42
-0.0901771594277
  0
SEQEND
  0
POLYLINE
  8
Standard
 66
     1
 10
0.0
 20
0.0
 30
0.0
 70
     1
  0
VERTEX
  8
Standard
 10
92.1307358806064
 20
44.4665854750802
 42
-0.0137450737296
  0
VERTEX
  8
Standard
 10
93.2908921306064
 20
49.6013511000802
 42
-0.6233156829985
  0
VERTEX
  8
Standard
 10
95.9331345545778
 20
50.3040313541809
 42
-0.181046220293
  0
VERTEX
  8
Standard
 10
96.0142972327726
 20
48.992820583006
 42
0.0103590940639
  0
VERTEX
  8
Standard
 10
93.8817124431064
 20
38.5906089125802
 42
-0.0022928146744
  0
VERTEX
  8
Standard
 10
93.4520249431064
 20
34.3581870375802
 42
-0.4502216865755
  0
VERTEX
  8
Standard
 10
91.2262966785573
 20
33.5055733279726
 42
-0.1585455603269
  0
VERTEX
  8
Standard
 10
90.8094468181064
 20
34.0574057875802
 42
-0.2096583223685
  0
VERTEX
  8
Standard
 10
85.630145542102
 20
33.4654858292817
 42
-0.3253121907978
  0
VERTEX
  8
Standard
 10
82.7205796306064
 20
37.6667807875802
 42
-0.2813656476493
  0
VERTEX
  8
Standard
 10
86.9028745831097
 20
44.5694016038517
 42
-0.1548351285662
  0
VERTEX
  8
Standard
 10
90.9793486560684
 20
45.008924102508
 42
-0.1128808253619
  0
SEQEND
  0
POLYLINE
  8
Standard
 66
     1
 10
0.0
 20
0.0
 30
0.0
 70
     1
  0
VERTEX
  8
Standard
 10
91.3895249431064
 20
41.0720542250802
 42
0.3475038634722
  0
VERTEX
  8
Standard
 10
89.3377671306064
 20
42.4148276625802
 42
0.3467849156154
  0
VERTEX
  8
Standard
 10
85.7706279941433
 20
39.7427815770899
 42
0.5816223127522
  0
VERTEX
  8
Standard
 10
87.9735093181064
 20
35.9265464125802
 42
0.1831305624244
  0
VERTEX
  8
Standard
 10
90.7664780681064
 20
37.1404136000802
 42
-0.0195251838289
  0
SEQEND
  0
POLYLINE
  8
Standard
 66
     1
 10
0.0
 20
0.0
 30
0.0
 70
     1
  0
VERTEX
  8
Standard
 10
95.5467515056064
 20
37.4411948500802
 42
-0.2751079875167
  0
VERTEX
  8
Standard
 10
99.7275644997119
 20
44.2083094845218
 42
-0.1962335097807
  0
VERTEX
  8
Standard
 10
104.028467361738
 20
44.5094719123431
 42
-0.2917554194604
  0
VERTEX
  8
Standard
 10
106.278196818106
 20
40.4275229750802
 42
-0.2694411954296
  0
VERTEX
  8
Standard
 10
102.410944367612
 20
33.621190658714
 42
-0.3437774358963
  0
VERTEX
  8
Standard
 10
96.7391343181064
 20
34.2722495375802
 42
-0.1541245127495
  0
SEQEND
  0
POLYLINE
  8
Standard
 66
     1
 10
0.0
 20
0.0
 30
0.0
 70
     1
  0
VERTEX
  8
Standard
 10
98.5545640056064
 20
37.8708823500802
 42
0.4684128797288
  0
VERTEX
  8
Standard
 10
100.284056193106
 20
35.8620932875802
 42
0.346154911729
  0
VERTEX
  8
Standard
 10
103.154948874657
 20
38.4838325954268
 42
0.26157440667
  0
VERTEX
  8
Standard
 10
102.837202787527
 20
41.6285394374102
 42
0.395590209743
  0
VERTEX
  8
Standard
 10
99.5106186931064
 20
40.5779136000802
 42
0.1848654722541
  0
SEQEND
  0
POLYLINE
  8
Standard
 66
     1
 10
0.0
 20
0.0
 30
0.0
 70
     1
  0
VERTEX
  8
Standard
 10
117.407103068106
 20
41.4050620375802
 42
-0.4593328788078
  0
VERTEX
  8
Standard
 10
115.212991013383
 20
39.7973022259109
 42
-0.3694035160397
  0
VERTEX
  8
Standard
 10
114.538939005606
 20
41.1579917250802
 42
0.0
  0
VERTEX
  8
Standard
 10
114.635618693106
 20
42.2429526625802
 42
0.222007186255
  0
VERTEX
  8
Standard
 10
110.779173380606
 20
39.7507651625802
 42
0.0
  0
VERTEX
  8
Standard
 10
109.941282755606
 20
34.3689292250802
 42
-0.4711029103764
  0
VERTEX
  8
Standard
 10
107.726750893065
 20
33.0217776341944
 42
-0.3677722212958
  0
VERTEX
  8
Standard
 10
107.105345255606
 20
34.3689292250802
 42
-0.0150415429825
  0
VERTEX
  8
Standard
 10
108.584902397578
 20
43.4874283147421
 42
-0.6833789548873
  0
VERTEX
  8
Standard
 10
111.23365838906
 20
44.2760503844278
 42
-0.1202671098501
  0
VERTEX
  8
Standard
 10
111.402220255606
 20
43.5642417250802
 42
-0.1517708735183
  0
VERTEX
  8
Standard
 10
115.838743693106
 20
44.9929526625802
 42
-0.4758714918725
  0
VERTEX
  8
Standard
 10
117.600462443106
 20
43.0486167250802
 42
-0.0901771594277
  0
SEQEND
  0
POLYLINE
  8
Standard
 66
     1
 10
0.0
 20
0.0
 30
0.0
 70
     1
  0
VERTEX
  8
Standard
 10
124.604368693106
 20
44.6921714125802
 42
-0.1395642308282
  0
VERTEX
  8
Standard
 10
127.809815511026
 20
44.6573931141065
 42
-0.6656518298502
  0
VERTEX
  8
Standard
 10
127.577046665915
 20
42.2982650559924
 42
-0.0473283210842
  0
VERTEX
  8
Standard
 10
124.056517130606
 20
41.9958823500802
 42
-0.017020950112
  0
VERTEX
  8
Standard
 10
122.867198118214
 20
34.6308840091767
 42
-0.1686299522965
  0
VERTEX
  8
Standard
 10
121.82254385521
 20
32.2386061476582
 42
-0.3437683774446
  0
VERTEX
  8
Standard
 10
119.834837443106
 20
32.3279136000802
 42
-0.2681505736998
  0
VERTEX
  8
Standard
 10
119.609251505606
 20
33.5740073500802
 42
0.0437274356598
  0
VERTEX
  8
Standard
 10
121.177610880606
 20
41.8347495375802
 42
-0.1263855814434
  0
VERTEX
  8
Standard
 10
119.270171470388
 20
41.7780408714989
 42
-0.5213770833776
  0
VERTEX
  8
Standard
 10
118.953518558679
 20
43.9589289903573
 42
-0.1347885452158
  0
VERTEX
  8
Standard
 10
121.703978068106
 20
44.5954917250802
 42
-0.1419181718297
  0
VERTEX
  8
Standard
 10
123.895384318106
 20
49.3757651625802
 42
-0.2115428684287
  0
VERTEX
  8
Standard
 10
128.59320992512
 20
50.7910141631866
 42
-0.5657802592778
  0
VERTEX
  8
Standard
 10
129.460446005899
 20
48.78150366936
 42
-0.2551789347293
  0
VERTEX
  8
Standard
 10
127.644407755606
 20
48.0329917250802
 42
0.3305473443658
  0
VERTEX
  8
Standard
 10
125.048118915551
 20
46.1072454286851
 42
0.0221910389356
  0
SEQEND
  0
POLYLINE
  8
Standard
 66
     1
 10
0.0
 20
0.0
 30
0.0
 70
     1
  0
VERTEX
  8
Standard
 10
13.5838608806064
 20
18.9109214125802
 42
-0.7634088270861
  0
VERTEX
  8
Standard
 10
15.9686265056064
 20
17.7829917250802
 42
-0.1634689692877
  0
VERTEX
  8
Standard
 10
15.4530015056064
 20
15.1511557875802
 42
-0.703439842443
  0
VERTEX
  8
Standard
 10
12.7889390056064
 20
15.4519370375802
 42
0.4785537630534
  0
VERTEX
  8
Standard
 10
12.0570437926859
 20
16.1051134844991
 42
0.2182080368525
  0
VERTEX
  8
Standard
 10
8.751910037091
 20
14.5791449612081
 42
0.1307466794358
  0
VERTEX
  8
Standard
 10
5.0210731666482
 20
9.4622428743515
 42
0.2739411928863
  0
VERTEX
  8
Standard
 10
5.3875718181064
 20
6.3533042250802
 42
0.2969106388369
  0
VERTEX
  8
Standard
 10
8.6854233806064
 20
5.9665854750802
 42
-0.0000120049128
  0
VERTEX
  8
Standard
 10
11.712202441317
 20
7.6162964109102
 42
-0.8934581236011
  0
VERTEX
  8
Standard
 10
13.3367905681064
 20
5.5691245375802
 42
-0.1810851069429
  0
VERTEX
  8
Standard
 10
6.5584702556064
 20
2.7331870375802
 42
-0.4306533940489
  0
VERTEX
  8
Standard
 10
1.7137436931064
 20
7.5456870375802
 42
-0.1464856158161
  0
VERTEX
  8
Standard
 10
3.3776495406859
 20
12.5127147395945
 42
-0.1191660690045
  0
VERTEX
  8
Standard
 10
9.164153221433
 20
18.2387302460489
 42
-0.1786825078203
  0
SEQEND
  0
POLYLINE
  8
Standard
 66
     1
 10
0.0
 20
0.0
 30
0.0
 70
     1
  0
VERTEX
  8
Standard
 10
18.0740952556064
 20
6.2351401625802
 42
0.3180064741841
  0
VERTEX
  8
Standard
 10
23.3485093181064
 20
5.7087729750802
 42
-0.3024147443966
  0
VERTEX
  8
Standard
 10
25.5474256665095
 20
6.0595223290599
 42
-0.4242283858323
  0
VERTEX
  8
Standard
 10
25.2726831038392
 20
4.1306987641295
 42
-0.1969412286899
  0
VERTEX
  8
Standard
 10
20.4051499431064
 20
2.5183432875802
 42
-0.1666181960371
  0
VERTEX
  8
Standard
 10
16.5164780681064
 20
3.6247886000802
 42
-0.2400717818209
  0
VERTEX
  8
Standard
 10
15.1199936931064
 20
6.6218589125802
 42
-0.2628123017812
  0
VERTEX
  8
Standard
 10
19.1676458004556
 20
13.5938073856675
 42
-0.2292847335471
  0
VERTEX
  8
Standard
 10
25.1209702556064
 20
13.5398276625802
 42
-0.5256114301863
  0
VERTEX
  8
Standard
 10
25.3572983806064
 20
9.6618979750802
 42
-0.087613057441
  0
VERTEX
  8
Standard
 10
21.9412827556064
 20
7.8464682875802
 42
0.0
  0
SEQEND
  0
POLYLINE
  8
Standard
 66
     1
 10
0.0
 20
0.0
 30
0.0
 70
     1
  0
VERTEX
  8
Standard
 10
18.2674546306064
 20
8.9636557875802
 42
0.0404374322551
  0
VERTEX
  8
Standard
 10
23.3699936931064
 20
11.2302573500802
 42
0.3948503647986
  0
VERTEX
  8
Standard
 10
18.8233302800629
 20
9.9237721924065
 42
0.034483651342
  0
SEQEND
  0
POLYLINE
  8
Standard
 66
     1
 10
0.0
 20
0.0
 30
0.0
 70
     1
  0
VERTEX
  8
Standard
 10
34.3377671306064
 20
3.5710776625802
 42
-0.3902590533884
  0
VERTEX
  8
Standard
 10
28.3865952556064
 20
3.5710776625802
 42
-0.2883195007813
  0
VERTEX
  8
Standard
 10
27.8585508002154
 20
9.2196905761269
 42
-0.3626063354516
  0
VERTEX
  8
Standard
 10
36.7164233416252
 20
13.8218410102889
 42
-0.1655608101504
  0
VERTEX
  8
Standard
 10
37.9901108806064
 20
13.0134604750802
 42
-0.4684291645678
  0
VERTEX
  8
Standard
 10
39.0483638101559
 20
11.1698545643133
 42
0.0134709839105
  0
VERTEX
  8
Standard
 10
37.1522202556064
 20
4.0759604750802
 42
-0.1774096578707
  0
VERTEX
  8
Standard
 10
34.7244858806064
 20
-1.4562660874198
 42
-0.1900071439345
  0
VERTEX
  8
Standard
 10
29.8905015056064
 20
-3.0461098374198
 42
-0.1181472764334
  0
VERTEX
  8
Standard
 10
26.6405457076812
 20
-2.5380553631968
 42
-0.5348556977895
  0
VERTEX
  8
Standard
 10
26.4100327556064
 20
-0.5431801499198
 42
-0.2628190005887
  0
VERTEX
  8
Standard
 10
28.9022202556064
 20
-0.2531410874198
 42
0.4458758767326
  0
VERTEX
  8
Standard
 10
33.837368049015
 20
1.9481311314587
 42
0.0413048478291
  0
SEQEND
  0
POLYLINE
  8
Standard
 66
     1
 10
0.0
 20
0.0
 30
0.0
 70
     1
  0
VERTEX
  8
Standard
 10
36.0565171306064
 20
11.1228354750802
 42
0.3627720737408
  0
VERTEX
  8
Standard
 10
31.4588608806064
 20
10.0701011000802
 42
0.2260907235662
  0
VERTEX
  8
Standard
 10
30.3594148381141
 20
6.0722392658669
 42
0.4832737559617
  0
VERTEX
  8
Standard
 10
32.8241241943352
 20
5.2463600823293
 42
0.2112571399338
  0
VERTEX
  8
Standard
 10
35.520971551093
 20
9.3003431939948
 42
0.0048611449859
  0
SEQEND
  0
POLYLINE
  8
Standard
 66
     1
 10
0.0
 20
0.0
 30
0.0
 70
     1
  0
VERTEX
  8
Standard
 10
39.3113999431064
 20
6.7829917250802
 42
-0.2751079875168
  0
VERTEX
  8
Standard
 10
43.4922129372119
 20
13.5501063595218
 42
-0.1962335097807
  0
VERTEX
  8
Standard
 10
47.7931157992378
 20
13.8512687873431
 42
-0.2917554194604
  0
VERTEX
  8
Standard
 10
50.0428452556064
 20
9.7693198500802
 42
-0.2694411954296
  0
VERTEX
  8
Standard
 10
46.1755928051116
 20
2.962987533714
 42
-0.3437774358963
  0
VERTEX
  8
Standard
 10
40.5037827556064
 20
3.6140464125802
 42
-0.1541245127495
  0
SEQEND
  0
POLYLINE
  8
Standard
 66
     1
 10
0.0
 20
0.0
 30
0.0
 70
     1
  0
VERTEX
  8
Standard
 10
42.3192124431064
 20
7.2126792250802
 42
0.4684128797288
  0
VERTEX
  8
Standard
 10
44.0487046306064
 20
5.2038901625802
 42
0.346154911729
  0
VERTEX
  8
Standard
 10
46.9195973121573
 20
7.8256294704268
 42
0.26157440667
  0
VERTEX
  8
Standard
 10
46.6018512250273
 20
10.9703363124102
 42
0.3955902097429
  0
VERTEX
  8
Standard
 10
43.2752671306064
 20
9.9197104750802
 42
0.1848654722541
  0
SEQEND
  0
POLYLINE
  8
Standard
 66
     1
 10
0.0
 20
0.0
 30
0.0
 70
     1
  0
VERTEX
  8
Standard
 10
57.7987046306064
 20
14.0339682875802
 42
-0.1395642308281
  0
VERTEX
  8
Standard
 10
61.0041514485259
 20
13.9991899891065
 42
-0.6656518298499
  0
VERTEX
  8
Standard
 10
60.771382603415
 20
11.6400619309924
 42
-0.0473283210842
  0
VERTEX
  8
Standard
 10
57.2508530681064
 20
11.3376792250802
 42
-0.017020950112
  0
VERTEX
  8
Standard
 10
56.0615340557139
 20
3.9726808841767
 42
-0.1686299522966
  0
VERTEX
  8
Standard
 10
55.0168797927095
 20
1.5804030226582
 42
-0.3437683774445
  0
VERTEX
  8
Standard
 10
53.0291733806064
 20
1.6697104750802
 42
-0.2681505736999
  0
VERTEX
  8
Standard
 10
52.8035874431064
 20
2.9158042250802
 42
0.0437274356598
  0
VERTEX
  8
Standard
 10
54.3719468181064
 20
11.1765464125802
 42
-0.1263855814435
  0
VERTEX
  8
Standard
 10
52.4645074078876
 20
11.1198377464989
 42
-0.5213770833774
  0
VERTEX
  8
Standard
 10
52.1478544961789
 20
13.3007258653573
 42
-0.1347885452157
  0
VERTEX
  8
Standard
 10
54.8983140056064
 20
13.9372886000802
 42
-0.1419181718297
  0
VERTEX
  8
Standard
 10
57.0897202556064
 20
18.7175620375802
 42
-0.2115428684287
  0
VERTEX
  8
Standard
 10
61.7875458626204
 20
20.1328110381866
 42
-0.5657802592781
  0
VERTEX
  8
Standard
 10
62.6547819433988
 20
18.12330054436
 42
-0.2551789347292
  0
VERTEX
  8
Standard
 10
60.8387436931064
 20
17.3747886000802
 42
0.3305473443658
  0
VERTEX
  8
Standard
 10
58.2424548530513
 20
15.4490423036851
 42
0.0221910389356
  0
SEQEND
  0
POLYLINE
  8
Standard
 66
     1
 10
0.0
 20
0.0
 30
0.0
 70
     1
  0
VERTEX
  8
Standard
 10
72.3543686931064
 20
10.7468589125802
 42
-0.4593328788079
  0
VERTEX
  8
Standard
 10
70.1602566383828
 20
9.1390991009109
 42
-0.3694035160399
  0
VERTEX
  8
Standard
 10
69.4862046306064
 20
10.4997886000802
 42
0.0
  0
VERTEX
  8
Standard
 10
69.5828843181064
 20
11.5847495375802
 42
0.222007186255
  0
VERTEX
  8
Standard
 10
65.7264390056064
 20
9.0925620375802
 42
0.0
  0
VERTEX
  8
Standard
 10
64.8885483806064
 20
3.7107261000802
 42
-0.4711029103764
  0
VERTEX
  8
Standard
 10
62.6740165180652
 20
2.3635745091944
 42
-0.3677722212958
  0
VERTEX
  8
Standard
 10
62.0526108806064
 20
3.7107261000802
 42
-0.0150415429825
  0
VERTEX
  8
Standard
 10
63.5321680225776
 20
12.8292251897421
 42
-0.6833789548875
  0
VERTEX
  8
Standard
 10
66.1809240140603
 20
13.6178472594278
 42
-0.1202671098501
  0
VERTEX
  8
Standard
 10
66.3494858806064
 20
12.9060386000802
 42
-0.1517708735183
  0
VERTEX
  8
Standard
 10
70.7860093181064
 20
14.3347495375802
 42
-0.4758714918724
  0
VERTEX
  8
Standard
 10
72.5477280681064
 20
12.3904136000802
 42
-0.0901771594277
  0
SEQEND
  0
POLYLINE
  8
Standard
 66
     1
 10
0.0
 20
0.0
 30
0.0
 70
     1
  0
VERTEX
  8
Standard
 10
75.3836655681064
 20
6.2351401625802
 42
0.3180064741841
  0
VERTEX
  8
Standard
 10
80.6580796306064
 20
5.7087729750802
 42
-0.3024147443966
  0
VERTEX
  8
Standard
 10
82.8569959790095
 20
6.0595223290599
 42
-0.4242283858323
  0
VERTEX
  8
Standard
 10
82.5822534163392
 20
4.1306987641295
 42
-0.1969412286899
  0
VERTEX
  8
Standard
 10
77.7147202556064
 20
2.5183432875802
 42
-0.1666181960371
  0
VERTEX
  8
Standard
 10
73.8260483806064
 20
3.6247886000802
 42
-0.2400717818209
  0
VERTEX
  8
Standard
 10
72.4295640056064
 20
6.6218589125802
 42
-0.2628123017812
  0
VERTEX
  8
Standard
 10
76.4772161129556
 20
13.5938073856675
 42
-0.2292847335471
  0
VERTEX
  8
Standard
 10
82.4305405681064
 20
13.5398276625802
 42
-0.5256114301863
  0
VERTEX
  8
Standard
 10
82.6668686931064
 20
9.6618979750802
 42
-0.087613057441
  0
VERTEX
  8
Standard
 10
79.2508530681064
 20
7.8464682875802
 42
0.0
  0
SEQEND
  0
POLYLINE
  8
Standard
 66
     1
 10
0.0
 20
0.0
 30
0.0
 70
     1
  0
VERTEX
  8
Standard
 10
75.5770249431064
 20
8.9636557875802
 42
0.0404374322551
  0
VERTEX
  8
Standard
 10
80.6795640056064
 20
11.2302573500802
 42
0.3948503647986
  0
VERTEX
  8
Standard
 10
76.1329005925629
 20
9.9237721924065
 42
0.034483651342
  0
SEQEND
  0
POLYLINE
  8
Standard
 66
     1
 10
0.0
 20
0.0
 30
0.0
 70
     1
  0
VERTEX
  8
Standard
 10
95.3748765056064
 20
9.2107261000802
 42
0.0092962335379
  0
VERTEX
  8
Standard
 10
94.5584702556064
 20
3.5281089125802
 42
-0.5098007611085
  0
VERTEX
  8
Standard
 10
92.1103047438352
 20
2.3403024577043
 42
-0.163725134043
  0
VERTEX
  8
Standard
 10
91.6580796306064
 20
2.9587729750802
 42
-0.2229769467664
  0
VERTEX
  8
Standard
 10
86.5662827556064
 20
2.9265464125802
 42
-0.2824919815459
  0
VERTEX
  8
Standard
 10
85.2815451940538
 20
4.8761036609365
 42
-0.1103432916595
  0
VERTEX
  8
Standard
 10
86.4242063238559
 20
13.2905113738012
 42
-0.5272848621872
  0
VERTEX
  8
Standard
 10
88.9725327556064
 20
14.1306479750802
 42
-0.3083054879441
  0
VERTEX
  8
Standard
 10
89.1742953527268
 20
12.4290428784516
 42
0.1072540200448
  0
VERTEX
  8
Standard
 10
88.2205796306064
 20
5.5368979750802
 42
0.1380600447714
  0
VERTEX
  8
Standard
 10
89.1981186931064
 20
5.2898276625802
 42
0.057428333593
  0
VERTEX
  8
Standard
 10
91.8514390056064
 20
5.6228354750802
 42
-0.0345247502812
  0
VERTEX
  8
Standard
 10
93.1834702556064
 20
13.0242026625802
 42
-0.5527217208013
  0
VERTEX
  8
Standard
 10
95.8260483806064
 20
14.0769370375802
 42
-0.3026217219015
  0
VERTEX
  8
Standard
 10
96.0015107743714
 20
12.1567739104881
 42
-0.007815776242
  0
VERTEX
  8
Standard
 10
95.3748765056064
 20
9.1892417250802
 42
0.0
  0
SEQEND
  0
POLYLINE
  8
Standard
 66
     1
 10
0.0
 20
0.0
 30
0.0
 70
     1
  0
VERTEX
  8
Standard
 10
100.864134318106
 20
12.9275229750802
 42
-0.2979419138444
  0
VERTEX
  8
Standard
 10
105.577364646096
 20
14.3180024558346
 42
-0.2832543156333
  0
VERTEX
  8
Standard
 10
107.116087443106
 20
11.3913901625802
 42
0.033234081842
  0
VERTEX
  8
Standard
 10
106.460814005606
 20
3.7107261000802
 42
-0.4448975804916
  0
VERTEX
  8
Standard
 10
104.261651675916
 20
2.2884520264081
 42
-0.3749385915763
  0
VERTEX
  8
Standard
 10
103.485228068106
 20
3.4636557875802
 42
-0.073515852882
  0
VERTEX
  8
Standard
 10
104.183470255606
 20
10.2849448500802
 42
0.1765514871721
  0
VERTEX
  8
Standard
 10
104.27216304494
 20
11.484356899196
 42
0.3159128701534
  0
VERTEX
  8
Standard
 10
103.968626505606
 20
11.6706870375802
 42
0.1965061531332
  0
VERTEX
  8
Standard
 10
101.798704630606
 20
10.4568198500802
 42
0.1906520818426
  0
VERTEX
  8
Standard
 10
99.3494858806064
 20
4.7849448500802
 42
-0.4847192036517
  0
VERTEX
  8
Standard
 10
97.5662827556064
 20
2.4753745375802
 42
-0.440747543477
  0
VERTEX
  8
Standard
 10
96.2879624431064
 20
3.6247886000802
 42
-0.0353454442994
  0
VERTEX
  8
Standard
 10
97.4394617754665
 20
10.1845372903003
 42
0.0306597960249
  0
VERTEX
  8
Standard
 10
97.8992905681064
 20
13.3894370375802
 42
-0.4428029958985
  0
VERTEX
  8
Standard
 10
100.232116446484
 20
14.6264546108319
 42
-0.3345233370944
  0
VERTEX
  8
Standard
 10
100.864134318106
 20
13.0564292250802
 42
0.0
  0
SEQEND
  0
POLYLINE
  8
Standard
 66
     1
 10
0.0
 20
0.0
 30
0.0
 70
     1
  0
VERTEX
  8
Standard
 10
117.396360880606
 20
13.8083823500802
 42
-0.0137450737296
  0
VERTEX
  8
Standard
 10
118.556517130606
 20
18.9431479750802
 42
-0.6233156829986
  0
VERTEX
  8
Standard
 10
121.198759554578
 20
19.6458282291809
 42
-0.181046220293
  0
VERTEX
  8
Standard
 10
121.279922232773
 20
18.334617458006
 42
0.0103590940639
  0
VERTEX
  8
Standard
 10
119.147337443106
 20
7.9324057875802
 42
-0.0022928146744
  0
VERTEX
  8
Standard
 10
118.717649943106
 20
3.6999839125802
 42
-0.4502216865755
  0
VERTEX
  8
Standard
 10
116.491921678557
 20
2.8473702029726
 42
-0.1585455603269
  0
VERTEX
  8
Standard
 10
116.075071818106
 20
3.3992026625802
 42
-0.2096583223685
  0
VERTEX
  8
Standard
 10
110.895770542102
 20
2.8072827042817
 42
-0.3253121907978
  0
VERTEX
  8
Standard
 10
107.986204630606
 20
7.0085776625802
 42
-0.2813656476493
  0
VERTEX
  8
Standard
 10
112.16849958311
 20
13.9111984788517
 42
-0.1548351285662
  0
VERTEX
  8
Standard
 10
116.244973656068
 20
14.350720977508
 42
-0.1128808253619
  0
SEQEND
  0
POLYLINE
  8
Standard
 66
     1
 10
0.0
 20
0.0
 30
0.0
 70
     1
  0
VERTEX
  8
Standard
 10
116.655149943106
 20
10.4138511000802
 42
0.3475038634722
  0
VERTEX
  8
Standard
 10
114.603392130606
 20
11.7566245375802
 42
0.3467849156154
  0
VERTEX
  8
Standard
 10
111.036252994143
 20
9.0845784520899
 42
0.5816223127522
  0
VERTEX
  8
Standard
 10
113.239134318106
 20
5.2683432875802
 42
0.1831305624245
  0
VERTEX
  8
Standard
 10
116.032103068106
 20
6.4822104750802
 42
-0.0195251838289
  0
SEQEND
  0
POLYLINE
  8
Standard
 66
     1
 10
0.0
 20
0.0
 30
0.0
 70
     1
  0
VERTEX
  8
Standard
 10
123.562376505606
 20
6.2351401625802
 42
0.3180064741841
  0
VERTEX
  8
Standard
 10
128.836790568106
 20
5.7087729750802
 42
-0.3024147443966
  0
VERTEX
  8
Standard
 10
131.035706916509
 20
6.0595223290599
 42
-0.4242283858323
  0
VERTEX
  8
Standard
 10
130.760964353839
 20
4.1306987641295
 42
-0.1969412286899
  0
VERTEX
  8
Standard
 10
125.893431193106
 20
2.5183432875802
 42
-0.1666181960371
  0
VERTEX
  8
Standard
 10
122.004759318106
 20
3.6247886000802
 42
-0.2400717818209
  0
VERTEX
  8
Standard
 10
120.608274943106
 20
6.6218589125802
 42
-0.2628123017812
  0
VERTEX
  8
Standard
 10
124.655927050456
 20
13.5938073856675
 42
-0.2292847335471
  0
VERTEX
  8
Standard
 10
130.609251505606
 20
13.5398276625802
 42
-0.5256114301863
  0
VERTEX
  8
Standard
 10
130.845579630606
 20
9.6618979750802
 42
-0.087613057441
  0
VERTEX
  8
Standard
 10
127.429564005606
 20
7.8464682875802
 42
0.0
  0
SEQEND
  0
POLYLINE
  8
Standard
 66
     1
 10
0.0
 20
0.0
 30
0.0
 70
     1
  0
VERTEX
  8
Standard
 10
123.755735880606
 20
8.9636557875802
 42
0.0404374322551
  0
VERTEX
  8
Standard
 10
128.858274943106
 20
11.2302573500802
 42
0.3948503647986
  0
VERTEX
  8
Standard
 10
124.311611530063
 20
9.9237721924065
 42
0.034483651342
  0
SEQEND
  0
ENDSEC
  0
EOF
