0
SECTION
2
HEADER
9
$INSUNITS
70
4
9
$ACADVER
1
AC1014
9
$HANDSEED
5
FFFF
0
ENDSEC
0
SECTION
2
TABLES
0
TABLE
2
VPORT
5
8
100
AcDbSymbolTable
0
ENDTAB
0
TABLE
2
LTYPE
5
5
100
AcDbSymbolTable
0
LTYPE
5
14
100
AcDbSymbolTableRecord
100
AcDbLinetypeTableRecord
2
BYBLOCK
70
0
0
LTYPE
5
15
100
AcDbSymbolTableRecord
100
AcDbLinetypeTableRecord
2
BYLAYER
70
0
0
ENDTAB
0
TABLE
2
LAYER
5
2
100
AcDbSymbolTable
70
2
0
LAYER
5
50
100
AcDbSymbolTableRecord
100
AcDbLayerTableRecord
2
0
70
0
6
CONTINUOUS
0
ENDTAB
0
TABLE
2
STYLE
5
3
100
AcDbSymbolTable
70
1
0
STYLE
5
11
100
AcDbSymbolTableRecord
100
AcDbTextStyleTableRecord
2
STANDARD
70
0
0
ENDTAB
0
TABLE
2
VIEW
5
6
100
AcDbSymbolTable
70
0
0
ENDTAB
0
TABLE
2
UCS
5
7
100
AcDbSymbolTable
70
0
0
ENDTAB
0
TABLE
2
APPID
5
9
100
AcDbSymbolTable
70
2
0
APPID
5
12
100
AcDbSymbolTableRecord
100
AcDbRegAppTableRecord
2
ACAD
70
0
0
ENDTAB
0
TABLE
2
DIMSTYLE
5
A
100
AcDbSymbolTable
70
1
0
ENDTAB
0
TABLE
2
BLOCK_RECORD
5
1
100
AcDbSymbolTable
70
1
0
BLOCK_RECORD
5
1F
100
AcDbSymbolTableRecord
100
AcDbBlockTableRecord
2
*MODEL_SPACE
0
BLOCK_RECORD
5
1B
100
AcDbSymbolTableRecord
100
AcDbBlockTableRecord
2
*PAPER_SPACE
0
ENDTAB
0
ENDSEC
0
SECTION
2
BLOCKS
0
BLOCK
5
20
100
AcDbEntity
100
AcDbBlockBegin
2
*MODEL_SPACE
0
ENDBLK
5
21
100
AcDbEntity
100
AcDbBlockEnd
0
BLOCK
5
1C
100
AcDbEntity
100
AcDbBlockBegin
2
*PAPER_SPACE
0
ENDBLK
5
1D
100
AcDbEntity
100
AcDbBlockEnd
0
ENDSEC
0
SECTION
2
ENTITIES
0
LWPOLYLINE
5
100
100
AcDbEntity
8
0
100
AcDbPolyline
90
4
70
1
43
0.0
10
8.8817841970012523e-15
20
316
10
0
20
16
10
-119.99999999999999
20
16.000000000000014
10
-120
20
316
0
CIRCLE
5
101
100
AcDbEntity
8
0
100
AcDbCircle
10
-86.114234910548134
20
46.578291857411443
30
0
40
3.5000000000000027
210
0
220
0
230
1
0
SPLINE
5
102
100
AcDbEntity
8
0
100
AcDbSpline
70
4
71
5
72
31
73
25
74
0
42
0.000000001
43
0.0000000001
44
0.0000000001
40
0
40
0
40
0
40
0
40
0
40
0
40
0.050000000000000003
40
0.10000000000000001
40
0.15000000000000002
40
0.20000000000000001
40
0.25
40
0.29999999999999999
40
0.34999999999999998
40
0.39999999999999997
40
0.44999999999999996
40
0.49999999999999994
40
0.54999999999999993
40
0.59999999999999998
40
0.65000000000000002
40
0.70000000000000007
40
0.75000000000000011
40
0.80000000000000016
40
0.8500000000000002
40
0.90000000000000024
40
0.95000000000000029
40
1
40
1
40
1
40
1
40
1
40
1
41
1
41
1
41
1
41
1
41
1
41
1
41
1
41
1
41
1
41
1
41
1
41
1
41
1
41
1
41
1
41
1
41
1
41
1
41
1
41
1
41
1
41
1
41
1
41
1
41
1
10
-88.134772866589316
20
49.436162807646447
30
0
10
-88.19544941078226
20
49.482770089821599
30
0
10
-88.317531454693622
20
49.602426705290554
30
0
10
-88.502842077078981
20
49.861238502962607
30
0
10
-88.754310123552528
20
50.365616117433902
30
0
10
-89.070151903454246
20
51.255585418892124
30
0
10
-89.369716954273997
20
52.380143910993056
30
0
10
-89.617282013258333
20
53.684133463815876
30
0
10
-89.752203568476801
20
55.069225000486028
30
0
10
-89.705051309070129
20
56.412003865666975
30
0
10
-89.413848170015058
20
57.582251424281274
30
0
10
-88.841707907965855
20
58.461851882040541
30
0
10
-87.991722413548658
20
58.961693309336631
30
0
10
-86.930817432365956
20
59.045132492309165
30
0
10
-85.779798304741831
20
58.726944267244853
30
0
10
-84.682162863525846
20
58.056616682415765
30
0
10
-83.77857060745562
20
57.107138791306262
30
0
10
-83.181881078001609
20
55.962842522699169
30
0
10
-82.944323777358932
20
54.707093726402732
30
0
10
-83.061406973335863
20
53.415941738542621
30
0
10
-83.496784837866869
20
52.155451379199924
30
0
10
-84.059105800435532
20
51.213319954854498
30
0
10
-84.580821206117207
20
50.559581845588923
30
0
10
-84.97019490369118
20
50.148982978758731
30
0
10
-85.175273006759795
20
49.949990323056667
30
0
0
SPLINE
5
103
100
AcDbEntity
8
0
100
AcDbSpline
70
4
71
5
72
36
73
30
74
0
42
0.000000001
43
0.0000000001
44
0.0000000001
40
0
40
0
40
0
40
0
40
0
40
0
40
0.040000000000000001
40
0.080000000000000002
40
0.12
40
0.16
40
0.20000000000000001
40
0.24000000000000002
40
0.28000000000000003
40
0.32000000000000001
40
0.35999999999999999
40
0.39999999999999997
40
0.43999999999999995
40
0.47999999999999993
40
0.51999999999999991
40
0.55999999999999994
40
0.59999999999999998
40
0.64000000000000001
40
0.68000000000000005
40
0.72000000000000008
40
0.76000000000000012
40
0.80000000000000016
40
0.84000000000000019
40
0.88000000000000023
40
0.92000000000000026
40
0.9600000000000003
40
1
40
1
40
1
40
1
40
1
40
1
41
1
41
1
41
1
41
1
41
1
41
1
41
1
41
1
41
1
41
1
41
1
41
1
41
1
41
1
41
1
41
1
41
1
41
1
41
1
41
1
41
1
41
1
41
1
41
1
41
1
41
1
41
1
41
1
41
1
41
1
10
-85.175273006759795
20
49.949990323056667
30
0
10
-85.072222557713133
20
50.026030443419067
30
0
10
-84.86696832314621
20
50.193561714879252
30
0
10
-84.561629475580332
20
50.49121604884607
30
0
10
-84.159587557141208
20
50.981007804471687
30
0
10
-83.662724715209876
20
51.742371122023883
30
0
10
-83.162673300107471
20
52.632405721419076
30
0
10
-82.642224062644601
20
53.609381744021874
30
0
10
-82.070781273154395
20
54.598706736301224
30
0
10
-81.40998455056932
20
55.499882695794867
30
0
10
-80.627073919281742
20
56.207261261604138
30
0
10
-79.706950103560388
20
56.627660989470129
30
0
10
-78.663068580594853
20
56.697423912100746
30
0
10
-77.553829531206077
20
56.40499325840797
30
0
10
-76.479444246773568
20
55.79318883316315
30
0
10
-75.556421456172259
20
54.937915596466482
30
0
10
-74.897729620952944
20
53.933341240491835
30
0
10
-74.591450177835057
20
52.875248395720618
30
0
10
-74.677801084498597
20
51.844273513148586
30
0
10
-75.132088495048762
20
50.892232950218592
30
0
10
-75.887190716273196
20
50.049751019381731
30
0
10
-76.850800782121183
20
49.331101738129234
30
0
10
-77.924267840029714
20
48.739902470784614
30
0
10
-79.020437557832381
20
48.274237832157667
30
0
10
-80.082147315164462
20
47.931934971355624
30
0
10
-81.075907862331263
20
47.710884499734824
30
0
10
-81.803644221852778
20
47.629621084612062
30
0
10
-82.309405405926555
20
47.621886513858193
30
0
10
-82.628829706861794
20
47.640318723953321
30
0
10
-82.784104409794509
20
47.655431981977713
30
0
0
SPLINE
5
104
100
AcDbEntity
8
0
100
AcDbSpline
70
4
71
5
72
56
73
50
74
0
42
0.000000001
43
0.0000000001
44
0.0000000001
40
0
40
0
40
0
40
0
40
0
40
0
40
0.022222222222222223
40
0.044444444444444446
40
0.066666666666666666
40
0.088888888888888892
40
0.11111111111111112
40
0.13333333333333333
40
0.15555555555555556
40
0.17777777777777778
40
0.20000000000000001
40
0.22222222222222224
40
0.24444444444444446
40
0.26666666666666666
40
0.28888888888888886
40
0.31111111111111106
40
0.33333333333333326
40
0.35555555555555546
40
0.37777777777777766
40
0.39999999999999986
40
0.42222222222222205
40
0.44444444444444425
40
0.46666666666666645
40
0.48888888888888865
40
0.51111111111111085
40
0.5333333333333331
40
0.55555555555555536
40
0.57777777777777761
40
0.59999999999999987
40
0.62222222222222212
40
0.64444444444444438
40
0.66666666666666663
40
0.68888888888888888
40
0.71111111111111114
40
0.73333333333333339
40
0.75555555555555565
40
0.7777777777777779
40
0.80000000000000016
40
0.82222222222222241
40
0.84444444444444466
40
0.86666666666666692
40
0.88888888888888917
40
0.91111111111111143
40
0.93333333333333368
40
0.95555555555555594
40
0.97777777777777819
40
1
40
1
40
1
40
1
40
1
40
1
41
1
41
1
41
1
41
1
41
1
41
1
41
1
41
1
41
1
41
1
41
1
41
1
41
1
41
1
41
1
41
1
41
1
41
1
41
1
41
1
41
1
41
1
41
1
41
1
41
1
41
1
41
1
41
1
41
1
41
1
41
1
41
1
41
1
41
1
41
1
41
1
41
1
41
1
41
1
41
1
41
1
41
1
41
1
41
1
41
1
41
1
41
1
41
1
41
1
41
1
10
-88.595523701462099
20
49.046733863229043
30
0
10
-88.604682352434764
20
49.138320372955853
30
0
10
-88.627305358865385
20
49.328579569805278
30
0
10
-88.674154578912123
20
49.635229213225642
30
0
10
-88.759970091615344
20
50.088624472813557
30
0
10
-88.894184566107555
20
50.737720442260191
30
0
10
-89.044800091753189
20
51.472940043710111
30
0
10
-89.208786671214128
20
52.28727235912649
30
0
10
-89.399372158640347
20
53.153925446105887
30
0
10
-89.643399419486812
20
54.028327528410244
30
0
10
-89.971935966797147
20
54.856647737151683
30
0
10
-90.412922865600009
20
55.582316207490081
30
0
10
-90.983045548393591
20
56.1533138258131
30
0
10
-91.679733347940299
20
56.529246572604769
30
0
10
-92.473518117762751
20
56.688261692697573
30
0
10
-93.315725640540364
20
56.624516086632049
30
0
10
-94.145590666764804
20
56.346050539110266
30
0
10
-94.8975091344806
20
55.87253517932826
30
0
10
-95.508279783565712
20
55.233194761207649
30
0
10
-95.924177881506253
20
54.464511463548462
30
0
10
-96.109271438755727
20
53.609973709965672
30
0
10
-96.053212573783767
20
52.719767123244793
30
0
10
-95.780665458205902
20
51.851106632933217
30
0
10
-95.357081640402598
20
51.066981671902425
30
0
10
-94.903798152343853
20
50.438919921690996
30
0
10
-94.578619756585709
20
50.034608604771591
30
0
10
-94.521957632941906
20
49.890031672706002
30
0
10
-94.814221301020666
20
49.987093409486157
30
0
10
-95.423773044316619
20
50.225428583693898
30
0
10
-96.240314111080579
20
50.457910019049606
30
0
10
-97.115791431883039
20
50.532918034709773
30
0
10
-97.899805788795902
20
50.330495276851927
30
0
10
-98.483613691459681
20
49.809796063731227
30
0
10
-98.817952325683109
20
49.021092275270647
30
0
10
-98.893934813566489
20
48.067516629289969
30
0
10
-98.732842466232285
20
47.078649848869354
30
0
10
-98.372741487840614
20
46.180455440030272
30
0
10
-97.855839971952619
20
45.464410420552824
30
0
10
-97.217666471144753
20
44.964067345929578
30
0
10
-96.488598296288899
20
44.673014152058755
30
0
10
-95.693666016079675
20
44.557159064145225
30
0
10
-94.853020412001001
20
44.569074140381034
30
0
10
-93.982100047494598
20
44.661484938949407
30
0
10
-93.09192171658384
20
44.80085189835178
30
0
10
-92.189822778374563
20
44.964801566596421
30
0
10
-91.280208713562999
20
45.139947684692615
30
0
10
-90.548271846018793
20
45.28366371294873
30
0
10
-89.997265373392352
20
45.392471187948118
30
0
10
-89.629015639411165
20
45.465462511927555
30
0
10
-89.444662751453663
20
45.50207143550827
30
0
0
SPLINE
5
105
100
AcDbEntity
8
0
100
AcDbSpline
70
4
71
5
72
31
73
25
74
0
42
0.000000001
43
0.0000000001
44
0.0000000001
40
0
40
0
40
0
40
0
40
0
40
0
40
0.050000000000000003
40
0.10000000000000001
40
0.15000000000000002
40
0.20000000000000001
40
0.25
40
0.29999999999999999
40
0.34999999999999998
40
0.39999999999999997
40
0.44999999999999996
40
0.49999999999999994
40
0.54999999999999993
40
0.59999999999999998
40
0.65000000000000002
40
0.70000000000000007
40
0.75000000000000011
40
0.80000000000000016
40
0.8500000000000002
40
0.90000000000000024
40
0.95000000000000029
40
1
40
1
40
1
40
1
40
1
40
1
41
1
41
1
41
1
41
1
41
1
41
1
41
1
41
1
41
1
41
1
41
1
41
1
41
1
41
1
41
1
41
1
41
1
41
1
41
1
41
1
41
1
41
1
41
1
41
1
41
1
10
-89.444662751453649
20
45.502071435508256
30
0
10
-89.550037678692419
20
45.504759726283908
30
0
10
-89.769695289912335
20
45.508321209606287
30
0
10
-90.12589124863598
20
45.508237444862452
30
0
10
-90.65772623548169
20
45.478655488333501
30
0
10
-91.423434403713372
20
45.30059713292065
30
0
10
-92.276742764420021
20
44.886165479268378
30
0
10
-93.161148106401413
20
44.188821940219682
30
0
10
-93.973774454533086
20
43.232421846184238
30
0
10
-94.594992560485878
20
42.084295985019857
30
0
10
-94.910718070309571
20
40.840336947709247
30
0
10
-94.836593483461002
20
39.606549948238822
30
0
10
-94.34494683125601
20
38.481314808671364
30
0
10
-93.483047485885294
20
37.540986058062735
30
0
10
-92.346003085115058
20
36.844753448077718
30
0
10
-91.057283031769487
20
36.436326193075217
30
0
10
-89.746760828626407
20
36.346314147077415
30
0
10
-88.531177423113945
20
36.593840128993108
30
0
10
-87.491041554244305
20
37.187736696593426
30
0
10
-86.675644100244597
20
38.129499157632999
30
0
10
-86.111566458004006
20
39.41623877068308
30
0
10
-85.869776154835989
20
40.717792103317699
30
0
10
-85.806853375621856
20
41.845068074008978
30
0
10
-85.817319907457488
20
42.66347218957516
30
0
10
-85.83565705768136
20
43.089395989104091
30
0
0
SPLINE
5
106
100
AcDbEntity
8
0
100
AcDbSpline
70
4
71
5
72
31
73
25
74
0
42
0.000000001
43
0.0000000001
44
0.0000000001
40
0
40
0
40
0
40
0
40
0
40
0
40
0.050000000000000003
40
0.10000000000000001
40
0.15000000000000002
40
0.20000000000000001
40
0.25
40
0.29999999999999999
40
0.34999999999999998
40
0.39999999999999997
40
0.44999999999999996
40
0.49999999999999994
40
0.54999999999999993
40
0.59999999999999998
40
0.65000000000000002
40
0.70000000000000007
40
0.75000000000000011
40
0.80000000000000016
40
0.8500000000000002
40
0.90000000000000024
40
0.95000000000000029
40
1
40
1
40
1
40
1
40
1
40
1
41
1
41
1
41
1
41
1
41
1
41
1
41
1
41
1
41
1
41
1
41
1
41
1
41
1
41
1
41
1
41
1
41
1
41
1
41
1
41
1
41
1
41
1
41
1
41
1
41
1
10
-85.83565705768136
20
43.089395989104091
30
0
10
-85.866084233074275
20
42.836003967404828
30
0
10
-85.923156730736267
20
42.331123464972293
30
0
10
-85.997421764632946
20
41.579513846236779
30
0
10
-86.058234563556724
20
40.593271810034679
30
0
10
-85.987569477335128
20
39.416182197930034
30
0
10
-85.675263379017466
20
38.337731245875815
30
0
10
-85.04787936678693
20
37.410532306734282
30
0
10
-84.084591655277364
20
36.69261413799935
30
0
10
-82.8564595517675
20
36.243802412405714
30
0
10
-81.499522285027709
20
36.116077676499913
30
0
10
-80.179644184478349
20
36.343356954065811
30
0
10
-79.05957215272359
20
36.929782150145336
30
0
10
-78.268587563328708
20
37.840331146402477
30
0
10
-77.861912469859149
20
38.983053630163326
30
0
10
-77.825140124700056
20
40.224641297430338
30
0
10
-78.102671624154567
20
41.423088527445273
30
0
10
-78.618321616222687
20
42.456398322348491
30
0
10
-79.296698820950823
20
43.249302788392299
30
0
10
-80.088040828720764
20
43.811318489487689
30
0
10
-80.968932263997402
20
44.218776647504114
30
0
10
-81.739308342649991
20
44.501328701561008
30
0
10
-82.354872800947717
20
44.729396641056269
30
0
10
-82.782451675007735
20
44.894250230250996
30
0
10
-83.000542350724359
20
44.979880570258437
30
0
0
SPLINE
5
107
100
AcDbEntity
8
0
100
AcDbSpline
70
4
71
5
72
36
73
30
74
0
42
0.000000001
43
0.0000000001
44
0.0000000001
40
0
40
0
40
0
40
0
40
0
40
0
40
0.040000000000000001
40
0.080000000000000002
40
0.12
40
0.16
40
0.20000000000000001
40
0.24000000000000002
40
0.28000000000000003
40
0.32000000000000001
40
0.35999999999999999
40
0.39999999999999997
40
0.43999999999999995
40
0.47999999999999993
40
0.51999999999999991
40
0.55999999999999994
40
0.59999999999999998
40
0.64000000000000001
40
0.68000000000000005
40
0.72000000000000008
40
0.76000000000000012
40
0.80000000000000016
40
0.84000000000000019
40
0.88000000000000023
40
0.92000000000000026
40
0.9600000000000003
40
1
40
1
40
1
40
1
40
1
40
1
41
1
41
1
41
1
41
1
41
1
41
1
41
1
41
1
41
1
41
1
41
1
41
1
41
1
41
1
41
1
41
1
41
1
41
1
41
1
41
1
41
1
41
1
41
1
41
1
41
1
41
1
41
1
41
1
41
1
41
1
10
-83.010954374970567
20
48.196825118578978
30
0
10
-82.833244859474675
20
48.161907764034623
30
0
10
-82.474178469605619
20
48.108382701900439
30
0
10
-81.924637110194283
20
48.077023969595096
30
0
10
-81.17099165496839
20
48.126434822176705
30
0
10
-80.201417139685631
20
48.298966396104355
30
0
10
-79.216775850754431
20
48.52452183502087
30
0
10
-78.23492383559794
20
48.737022128284977
30
0
10
-77.279211220597418
20
48.86989146798939
30
0
10
-76.379277878792664
20
48.864443045579492
30
0
10
-75.568547095628972
20
48.675700952446697
30
0
10
-74.880230658541478
20
48.277428582534341
30
0
10
-74.343872958497556
20
47.667318769424995
30
0
10
-73.981389448715021
20
46.873236637819332
30
0
10
-73.803769509907212
20
45.957168963281127
30
0
10
-73.812946814804292
20
44.999856203905175
30
0
10
-74.003014287961662
20
44.087088541781789
30
0
10
-74.361572488004839
20
43.296345903585461
30
0
10
-74.870736214993215
20
42.681206990292438
30
0
10
-75.50854551656677
20
42.262946357991858
30
0
10
-76.251519064934058
20
42.042048001219783
30
0
10
-77.07694028742705
20
42.00574095706407
30
0
10
-77.965179826806818
20
42.136801256176824
30
0
10
-78.902043914342968
20
42.421798229313936
30
0
10
-79.877920537950175
20
42.85088539755975
30
0
10
-80.886869177416699
20
43.417264808095901
30
0
10
-81.717977970489869
20
43.976851969711788
30
0
10
-82.354243403338245
20
44.455498484547945
30
0
10
-82.78415379590507
20
44.800730774800286
30
0
10
-83.000542350724359
20
44.979880570258437
30
0
0
ENDSEC
0
SECTION
2
OBJECTS
0
DICTIONARY
5
C
100
AcDbDictionary
3
ACAD_GROUP
350
D
3
ACAD_MLINESTYLE
350
17
0
DICTIONARY
5
D
100
AcDbDictionary
0
DICTIONARY
5
1A
330
C
100
AcDbDictionary
0
DICTIONARY
5
17
100
AcDbDictionary
0
ENDSEC
0
EOF
