0
SECTION
2
HEADER
9
$INSUNITS
70
4
9
$ACADVER
1
AC1014
9
$HANDSEED
5
FFFF
0
ENDSEC
0
SECTION
2
TABLES
0
TABLE
2
VPORT
5
8
100
AcDbSymbolTable
0
ENDTAB
0
TABLE
2
LTYPE
5
5
100
AcDbSymbolTable
0
LTYPE
5
14
100
AcDbSymbolTableRecord
100
AcDbLinetypeTableRecord
2
BYBLOCK
70
0
0
LTYPE
5
15
100
AcDbSymbolTableRecord
100
AcDbLinetypeTableRecord
2
BYLAYER
70
0
0
ENDTAB
0
TABLE
2
LAYER
5
2
100
AcDbSymbolTable
70
2
0
LAYER
5
50
100
AcDbSymbolTableRecord
100
AcDbLayerTableRecord
2
0
70
0
6
CONTINUOUS
0
ENDTAB
0
TABLE
2
STYLE
5
3
100
AcDbSymbolTable
70
1
0
STYLE
5
11
100
AcDbSymbolTableRecord
100
AcDbTextStyleTableRecord
2
STANDARD
70
0
0
ENDTAB
0
TABLE
2
VIEW
5
6
100
AcDbSymbolTable
70
0
0
ENDTAB
0
TABLE
2
UCS
5
7
100
AcDbSymbolTable
70
0
0
ENDTAB
0
TABLE
2
APPID
5
9
100
AcDbSymbolTable
70
2
0
APPID
5
12
100
AcDbSymbolTableRecord
100
AcDbRegAppTableRecord
2
ACAD
70
0
0
ENDTAB
0
TABLE
2
DIMSTYLE
5
A
100
AcDbSymbolTable
70
1
0
ENDTAB
0
TABLE
2
BLOCK_RECORD
5
1
100
AcDbSymbolTable
70
1
0
BLOCK_RECORD
5
1F
100
AcDbSymbolTableRecord
100
AcDbBlockTableRecord
2
*MODEL_SPACE
0
BLOCK_RECORD
5
1B
100
AcDbSymbolTableRecord
100
AcDbBlockTableRecord
2
*PAPER_SPACE
0
ENDTAB
0
ENDSEC
0
SECTION
2
BLOCKS
0
BLOCK
5
20
100
AcDbEntity
100
AcDbBlockBegin
2
*MODEL_SPACE
0
ENDBLK
5
21
100
AcDbEntity
100
AcDbBlockEnd
0
BLOCK
5
1C
100
AcDbEntity
100
AcDbBlockBegin
2
*PAPER_SPACE
0
ENDBLK
5
1D
100
AcDbEntity
100
AcDbBlockEnd
0
ENDSEC
0
SECTION
2
ENTITIES
0
LWPOLYLINE
5
100
100
AcDbEntity
8
0
100
AcDbPolyline
90
4
70
1
43
0.0
10
120
20
0
10
-120
20
0
10
-119.99999999999999
20
16
10
120.00000000000001
20
16
0
LINE
5
101
100
AcDbEntity
8
0
100
AcDbLine
10
0
20
0
30
0
11
0
21
435.99443566764677
31
0
0
SPLINE
5
102
100
AcDbEntity
8
0
100
AcDbSpline
70
4
71
5
72
36
73
30
74
0
42
0.000000001
43
0.0000000001
44
0.0000000001
40
0
40
0
40
0
40
0
40
0
40
0
40
0.040000000000000001
40
0.080000000000000002
40
0.12
40
0.16
40
0.20000000000000001
40
0.24000000000000002
40
0.28000000000000003
40
0.32000000000000001
40
0.35999999999999999
40
0.39999999999999997
40
0.43999999999999995
40
0.47999999999999993
40
0.51999999999999991
40
0.55999999999999994
40
0.59999999999999998
40
0.64000000000000001
40
0.68000000000000005
40
0.72000000000000008
40
0.76000000000000012
40
0.80000000000000016
40
0.84000000000000019
40
0.88000000000000023
40
0.92000000000000026
40
0.9600000000000003
40
1
40
1
40
1
40
1
40
1
40
1
41
1
41
1
41
1
41
1
41
1
41
1
41
1
41
1
41
1
41
1
41
1
41
1
41
1
41
1
41
1
41
1
41
1
41
1
41
1
41
1
41
1
41
1
41
1
41
1
41
1
41
1
41
1
41
1
41
1
41
1
10
1.0384477210023927e-15
20
234.90630445050624
30
0
10
-0.18689562899881415
20
235.55213748527814
30
0
10
-0.5862357131691438
20
236.86274172493108
30
0
10
-1.261887120062557
20
238.88546386355333
30
0
10
-2.3536026513180772
20
241.6506406397537
30
0
10
-4.2175312169360053
20
244.96183205071699
30
0
10
-6.7509046433658675
20
247.80312335211937
30
0
10
-10.011161152934335
20
249.86496809610759
30
0
10
-13.848314259282596
20
250.9301561877794
30
0
10
-17.978558643523161
20
250.87087910137024
30
0
10
-22.050141672835121
20
249.65044575011856
30
0
10
-25.710025085176277
20
247.32412153865542
30
0
10
-28.672680703454819
20
244.04344428340667
30
0
10
-30.726963801196028
20
240.01875783719885
30
0
10
-31.740911230063467
20
235.47868153085813
30
0
10
-31.666779982236996
20
230.63425096352998
30
0
10
-30.551421919965907
20
225.63441639343529
30
0
10
-28.531936970575469
20
220.54835671910251
30
0
10
-25.80357178994123
20
215.39533605020253
30
0
10
-22.59506525016549
20
210.16320409986079
30
0
10
-19.141278589191792
20
204.83159871125275
30
0
10
-15.658562899978282
20
199.39183487896781
30
0
10
-12.316173740575557
20
193.87112868668819
30
0
10
-9.2176270467374462
20
188.34667652446444
30
0
10
-6.4188241716833954
20
182.92279275014042
30
0
10
-3.9399230418109199
20
177.71405438917066
30
0
10
-2.2112751270176503
20
173.80378710426524
30
0
10
-1.052864796707816
20
171.05090957817305
30
0
10
-0.3409030697481647
20
169.299932138803
30
0
10
1.0375783302822195e-14
20
168.4455122389723
30
0
0
SPLINE
5
103
100
AcDbEntity
8
0
100
AcDbSpline
70
4
71
5
72
36
73
30
74
0
42
0.000000001
43
0.0000000001
44
0.0000000001
40
0
40
0
40
0
40
0
40
0
40
0
40
0.040000000000000001
40
0.080000000000000002
40
0.12
40
0.16
40
0.20000000000000001
40
0.24000000000000002
40
0.28000000000000003
40
0.32000000000000001
40
0.35999999999999999
40
0.39999999999999997
40
0.43999999999999995
40
0.47999999999999993
40
0.51999999999999991
40
0.55999999999999994
40
0.59999999999999998
40
0.64000000000000001
40
0.68000000000000005
40
0.72000000000000008
40
0.76000000000000012
40
0.80000000000000016
40
0.84000000000000019
40
0.88000000000000023
40
0.92000000000000026
40
0.9600000000000003
40
1
40
1
40
1
40
1
40
1
40
1
41
1
41
1
41
1
41
1
41
1
41
1
41
1
41
1
41
1
41
1
41
1
41
1
41
1
41
1
41
1
41
1
41
1
41
1
41
1
41
1
41
1
41
1
41
1
41
1
41
1
41
1
41
1
41
1
41
1
41
1
10
1.0384477210023927e-15
20
234.90630445050624
30
0
10
0.18689562899881623
20
235.55213748527814
30
0
10
0.58623571316914913
20
236.86274172493108
30
0
10
1.2618871200625765
20
238.88546386355341
30
0
10
2.3536026513181265
20
241.65064063975376
30
0
10
4.2175312169360533
20
244.96183205071679
30
0
10
6.7509046433658702
20
247.80312335211934
30
0
10
10.011161152934278
20
249.86496809610782
30
0
10
13.84831425928251
20
250.93015618777943
30
0
10
17.978558643523101
20
250.87087910137018
30
0
10
22.050141672835117
20
249.65044575011848
30
0
10
25.710025085176326
20
247.3241215386555
30
0
10
28.672680703454919
20
244.04344428340693
30
0
10
30.726963801196163
20
240.01875783719959
30
0
10
31.740911230063556
20
235.47868153085861
30
0
10
31.666779982236953
20
230.63425096352972
30
0
10
30.551421919965716
20
225.63441639343415
30
0
10
28.531936970575135
20
220.54835671910038
30
0
10
25.803571789940829
20
215.3953360502
30
0
10
22.59506525016517
20
210.1632040998588
30
0
10
19.141278589191643
20
204.83159871125198
30
0
10
15.658562899978332
20
199.39183487896813
30
0
10
12.316173740575746
20
193.8711286866893
30
0
10
9.217627046737686
20
188.34667652446569
30
0
10
6.4188241716836005
20
182.92279275014124
30
0
10
3.9399230418110411
20
177.71405438917088
30
0
10
2.2112751270177062
20
173.8037871042653
30
0
10
1.0528647967078428
20
171.05090957817308
30
0
10
0.34090306974818541
20
169.299932138803
30
0
10
1.0375783302822195e-14
20
168.4455122389723
30
0
0
ENDSEC
0
SECTION
2
OBJECTS
0
DICTIONARY
5
C
100
AcDbDictionary
3
ACAD_GROUP
350
D
3
ACAD_MLINESTYLE
350
17
0
DICTIONARY
5
D
100
AcDbDictionary
0
DICTIONARY
5
1A
330
C
100
AcDbDictionary
0
DICTIONARY
5
17
100
AcDbDictionary
0
ENDSEC
0
EOF
