  0
SECTION
  2
HEADER
  9
$ACADVER
  1
AC1009
  9
$EXTMAX
 10
71.9078674316406
 20
73.5
 30
0.0
  9
$EXTMIN
 10
3.9461789131165
 20
0.6581231951714
 30
0.0
  9
$INSUNITS
 70
     4
  9
$LUNITS
 70
     2
  9
$LUPREC
 70
     4
  9
$MEASUREMENT
 70
     1
  0
ENDSEC
  0
SECTION
  2
TABLES
  0
TABLE
  2
LAYER
 70
     1
  0
LAYER
  2
0
 70
     0
 62
     7
  6
Continuous
  0
LAYER
  2
C7
 70
     0
 62
     7
  6
Continuous
  0
LAYER
  2
C28
 70
     0
 62
    28
  6
Continuous
  0
ENDTAB
  0
TABLE
  2
APPID
 70
     1
  0
APPID
  2
ACAD
 70
     0
  0
ENDTAB
  0
ENDSEC
  0
SECTION
  2
ENTITIES
  0
POLYLINE
  8
C7
 66
     1
 10
0.0
 20
0.0
 30
0.0
 70
     1
  0
VERTEX
  8
C7
 10
53.933976
 20
34.4975877125201
 42
0.0376271642572
  0
VERTEX
  8
C7
 10
53.275032
 20
33.2989077225091
 42
0.1815886254321
  0
VERTEX
  8
C7
 10
53.408466
 20
31.6784697360127
 42
0.1996052157737
  0
VERTEX
  8
C7
 10
54.74535
 20
31.1090877407576
 42
0.0373578488231
  0
VERTEX
  8
C7
 10
56.704218
 20
31.2055077399541
 42
0.0529872699013
  0
VERTEX
  8
C7
 10
58.089468
 20
32.1739677318836
 42
-0.0980800513973
  0
VERTEX
  8
C7
 10
59.08887
 20
32.8287537264271
 42
-0.0421289597784
  0
VERTEX
  8
C7
 10
59.664618
 20
33.4137177215524
 42
-0.0499560309155
  0
VERTEX
  8
C7
 10
59.765418
 20
33.4792137210066
 42
0.0
  0
VERTEX
  8
C7
 10
59.765412
 20
33.4792077210066
 42
0.0425394900368
  0
VERTEX
  8
C7
 10
60.6
 20
33.5581437203488
 42
-0.0538375946196
  0
VERTEX
  8
C7
 10
61.671246
 20
34.0533237162223
 42
0.070708303339
  0
VERTEX
  8
C7
 10
63.138348
 20
34.34520571379
 42
0.3134895044475
  0
VERTEX
  8
C7
 10
63.90684
 20
35.6716617027362
 42
0.2349753315436
  0
VERTEX
  8
C7
 10
63.061986
 20
36.955919692034
 42
0.113522760569
  0
VERTEX
  8
C7
 10
60.520908
 20
37.991879683401
 42
0.073555822735
  0
VERTEX
  8
C7
 10
58.648158
 20
37.7296976855858
 42
0.1299493582297
  0
VERTEX
  8
C7
 10
55.709676
 20
36.3023096974808
 42
-0.0168215199389
  0
VERTEX
  8
C7
 10
54.965256
 20
35.6880957025992
 42
-0.0343273487382
  0
VERTEX
  8
C7
 10
54.053556
 20
34.6471677112736
 42
0.0421332862512
  0
SEQEND
  0
POLYLINE
  8
C7
 66
     1
 10
0.0
 20
0.0
 30
0.0
 70
     1
  0
VERTEX
  8
C7
 10
45.121152
 20
35.5811037034908
 42
0.1571387414503
  0
VERTEX
  8
C7
 10
46.31505
 20
34.6295577114204
 42
-0.0813627547192
  0
VERTEX
  8
C7
 10
47.34
 20
34.4964777125293
 42
-0.0867837693615
  0
VERTEX
  8
C7
 10
48.112776
 20
33.7540917187159
 42
-0.1911279182946
  0
VERTEX
  8
C7
 10
48.76368
 20
32.8244637264628
 42
-0.0234317261466
  0
VERTEX
  8
C7
 10
48.542718
 20
29.4659337544506
 42
0.0271042220252
  0
VERTEX
  8
C7
 10
48.59463
 20
27.239999773
 42
0.0455880175546
  0
VERTEX
  8
C7
 10
49.092696
 20
23.559239803673
 42
-0.0458059391225
  0
VERTEX
  8
C7
 10
49.29984
 20
20.5779718285169
 42
0.0447013921172
  0
VERTEX
  8
C7
 10
49.480272
 20
19.0199998415
 42
0.1749355717829
  0
VERTEX
  8
C7
 10
49.579068
 20
18.0599998495
 42
0.2291208645431
  0
VERTEX
  8
C7
 10
50.70783
 20
17.5203298539973
 42
0.1385126232046
  0
VERTEX
  8
C7
 10
52.02441
 20
17.7652198519565
 42
-0.0208245934974
  0
VERTEX
  8
C7
 10
53.162406
 20
18.1277218489357
 42
-0.1462137036046
  0
VERTEX
  8
C7
 10
53.50287
 20
18.1285138489291
 42
0.0
  0
VERTEX
  8
C7
 10
53.502864
 20
18.1285138489291
 42
-0.1259943583356
  0
VERTEX
  8
C7
 10
54.112542
 20
17.399999855
 42
-0.1047627025712
  0
VERTEX
  8
C7
 10
54.554076
 20
16.0165378665289
 42
0.0404526832739
  0
VERTEX
  8
C7
 10
54.57912
 20
15.8999998675
 42
0.0
  0
VERTEX
  8
C7
 10
54.579114
 20
15.8999998675
 42
-0.018079337802
  0
VERTEX
  8
C7
 10
54.84
 20
15.359999872
 42
0.1532895187215
  0
VERTEX
  8
C7
 10
56.601918
 20
15.807839868268
 42
-0.0296952676116
  0
VERTEX
  8
C7
 10
57.481614
 20
15.9817738668185
 42
0.0888834751
  0
VERTEX
  8
C7
 10
58.312638
 20
16.6277578614353
 42
0.0745650444368
  0
VERTEX
  8
C7
 10
58.983786
 20
17.118125857349
 42
0.0325582242379
  0
VERTEX
  8
C7
 10
59.377776
 20
18.198359848347
 42
0.0695141798241
  0
VERTEX
  8
C7
 10
60.03594
 20
19.5477118371024
 42
0.0225180574956
  0
VERTEX
  8
C7
 10
60.08727
 20
19.7399998355
 42
0.0
  0
VERTEX
  8
C7
 10
60.087264
 20
19.7399998355
 42
0.3511260805653
  0
VERTEX
  8
C7
 10
60.118284
 20
20.2954618308712
 42
0.0107433764676
  0
VERTEX
  8
C7
 10
59.38824
 20
20.4577258295189
 42
-0.07510026805
  0
VERTEX
  8
C7
 10
57.222234
 20
21.2480638229328
 42
-0.2548247612085
  0
VERTEX
  8
C7
 10
56.393052
 20
22.0163218165306
 42
-0.4322258823728
  0
VERTEX
  8
C7
 10
57.008874
 20
22.7939098100507
 42
-0.0306403958208
  0
VERTEX
  8
C7
 10
57.9
 20
22.5350878122076
 42
0.128128379827
  0
VERTEX
  8
C7
 10
59.333976
 20
22.7387698105103
 42
0.1153804122773
  0
VERTEX
  8
C7
 10
60.197454
 20
23.1512038070733
 42
0.0
  0
VERTEX
  8
C7
 10
60.197448
 20
23.1511978070733
 42
-0.2446483669057
  0
VERTEX
  8
C7
 10
61.743438
 20
23.8305358014122
 42
-0.061046480615
  0
VERTEX
  8
C7
 10
63.796464
 20
23.8357618013687
 42
-0.0096273256071
  0
VERTEX
  8
C7
 10
65.167392
 20
23.3368018055266
 42
-0.7236746295967
  0
VERTEX
  8
C7
 10
65.34
 20
23.039999808
 42
-0.133674789578
  0
VERTEX
  8
C7
 10
66.721788
 20
21.9276538172696
 42
-0.0403322377523
  0
VERTEX
  8
C7
 10
67.552008
 20
20.9119858257334
 42
-0.9667014816909
  0
VERTEX
  8
C7
 10
66.407958
 20
19.9991818333401
 42
0.039698428798
  0
VERTEX
  8
C7
 10
65.922042
 20
20.6571298278573
 42
0.0
  0
VERTEX
  8
C7
 10
65.922036
 20
20.6571238278573
 42
0.2133765697994
  0
VERTEX
  8
C7
 10
64.02
 20
21.59999982
 42
0.3155170657477
  0
VERTEX
  8
C7
 10
63.01155
 20
22.1467258154439
 42
0.065785918584
  0
VERTEX
  8
C7
 10
61.8
 20
21.7799998185
 42
0.2591445807611
  0
VERTEX
  8
C7
 10
62.057226
 20
21.596519820029
 42
-0.1086796758276
  0
VERTEX
  8
C7
 10
63.643332
 20
21.3207058223274
 42
-0.1127467516566
  0
VERTEX
  8
C7
 10
64.379172
 20
20.5402078288316
 42
-0.208390605918
  0
VERTEX
  8
C7
 10
64.804476
 20
18.988079841766
 42
0.040109634405
  0
VERTEX
  8
C7
 10
64.543482
 20
16.2000598649995
 42
-0.1019122855157
  0
VERTEX
  8
C7
 10
64.027398
 20
14.4402538796646
 42
-0.0360805709145
  0
VERTEX
  8
C7
 10
63.688242
 20
13.4453698879553
 42
-0.0464870747811
  0
VERTEX
  8
C7
 10
62.71497
 20
12.0791398993405
 42
-0.0442029075109
  0
VERTEX
  8
C7
 10
60.273552
 20
10.410359913247
 42
-0.0263771673653
  0
VERTEX
  8
C7
 10
59.22
 20
10.0968479158596
 42
0.0267846410202
  0
VERTEX
  8
C7
 10
57.40287
 20
9.4730039210583
 42
0.020567040792
  0
VERTEX
  8
C7
 10
56.25942
 20
9.3801059218325
 42
0.3718639769052
  0
VERTEX
  8
C7
 10
55.583166
 20
8.929805925585
 42
0.3390126071144
  0
VERTEX
  8
C7
 10
56.147904
 20
8.3311439305738
 42
0.087438929519
  0
VERTEX
  8
C7
 10
57.536436
 20
8.5373939288551
 42
-0.1534933039483
  0
VERTEX
  8
C7
 10
58.5744
 20
8.2402499313313
 42
0.1222818135629
  0
VERTEX
  8
C7
 10
59.04
 20
8.039999933
 42
-0.2518212709941
  0
VERTEX
  8
C7
 10
59.059812
 20
7.0853639409553
 42
0.266800398932
  0
VERTEX
  8
C7
 10
58.7115
 20
4.1114939657376
 42
0.0962699693175
  0
VERTEX
  8
C7
 10
59.70195
 20
2.8234259764715
 42
0.1568796799967
  0
VERTEX
  8
C7
 10
60.422922
 20
2.1187619823437
 42
0.1302226734735
  0
VERTEX
  8
C7
 10
61.385526
 20
2.2143839815468
 42
0.0431204754784
  0
VERTEX
  8
C7
 10
63.201966
 20
2.8727279760606
 42
-0.0068177955847
  0
VERTEX
  8
C7
 10
64.062504
 20
3.5779439701838
 42
0.1146315986308
  0
VERTEX
  8
C7
 10
65.05923
 20
4.2807479643271
 42
-0.0320360874722
  0
VERTEX
  8
C7
 10
66.149286
 20
5.5582199536815
 42
-0.015241986422
  0
VERTEX
  8
C7
 10
67.28079
 20
6.953045942058
 42
0.0376894568726
  0
VERTEX
  8
C7
 10
68.89713
 20
9.7456919187859
 42
-0.0846753985063
  0
VERTEX
  8
C7
 10
69.414066
 20
10.6925339108956
 42
0.0083474318812
  0
VERTEX
  8
C7
 10
69.772686
 20
12.0145438998788
 42
0.0488748681187
  0
VERTEX
  8
C7
 10
70.278096
 20
13.1399998905
 42
-0.0797841472993
  0
VERTEX
  8
C7
 10
70.364292
 20
14.2252558814562
 42
0.0226328402796
  0
VERTEX
  8
C7
 10
70.564746
 20
15.9000238674998
 42
0.0517320888265
  0
VERTEX
  8
C7
 10
70.925838
 20
19.679405836005
 42
0.0116190105258
  0
VERTEX
  8
C7
 10
70.604988
 20
21.4297858214184
 42
0.0249220259949
  0
VERTEX
  8
C7
 10
70.549812
 20
22.9799998085
 42
-0.0179624222518
  0
VERTEX
  8
C7
 10
70.313724
 20
24.5918277950681
 42
-0.052621457941
  0
VERTEX
  8
C7
 10
69.824592
 20
25.8619497844838
 42
0.0283247841971
  0
VERTEX
  8
C7
 10
69.613194
 20
27.1799997735
 42
0.0634358511783
  0
VERTEX
  8
C7
 10
69.156702
 20
28.928285758931
 42
0.0116629917963
  0
VERTEX
  8
C7
 10
68.982042
 20
29.99999975
 42
-0.0440057363414
  0
VERTEX
  8
C7
 10
68.705262
 20
31.2528417395597
 42
-0.0267847338325
  0
VERTEX
  8
C7
 10
68.251716
 20
32.8199997265
 42
0.0635467436359
  0
VERTEX
  8
C7
 10
67.464624
 20
35.6364717030294
 42
0.0449097458108
  0
VERTEX
  8
C7
 10
67.17495
 20
37.1399996905
 42
-0.0965437023796
  0
VERTEX
  8
C7
 10
66.677112
 20
38.753399677055
 42
0.0448810902479
  0
VERTEX
  8
C7
 10
66.630096
 20
38.9828696751428
 42
0.0
  0
VERTEX
  8
C7
 10
66.63009
 20
38.9828636751428
 42
-0.0343853081906
  0
VERTEX
  8
C7
 10
65.864256
 20
40.679999661
 42
0.0721406794279
  0
VERTEX
  8
C7
 10
65.325006
 20
42.6402476446646
 42
-0.0484062627047
  0
VERTEX
  8
C7
 10
65.014914
 20
43.8612836344893
 42
-0.0547325887676
  0
VERTEX
  8
C7
 10
64.601484
 20
44.7036116274699
 42
0.0876075442985
  0
VERTEX
  8
C7
 10
64.084386
 20
46.3135976140534
 42
-0.0402989151692
  0
VERTEX
  8
C7
 10
63.546066
 20
48.0659035994508
 42
-0.0033302155975
  0
VERTEX
  8
C7
 10
63.034182
 20
49.1529715903919
 42
0.0515357583027
  0
VERTEX
  8
C7
 10
62.381766
 20
51.2089075732591
 42
-0.0367389479668
  0
VERTEX
  8
C7
 10
62.158128
 20
52.2433915646384
 42
0.1414779992227
  0
VERTEX
  8
C7
 10
62.069166
 20
52.4447695629603
 42
0.0
  0
VERTEX
  8
C7
 10
62.06916
 20
52.4447635629603
 42
0.391990868962
  0
VERTEX
  8
C7
 10
61.476474
 20
52.3396435638363
 42
-0.0930535222548
  0
VERTEX
  8
C7
 10
58.825512
 20
49.1237515906354
 42
-0.0420974218632
  0
VERTEX
  8
C7
 10
55.94661
 20
47.0618996078175
 42
-0.0424114639847
  0
VERTEX
  8
C7
 10
53.922822
 20
45.7003676191636
 42
0.0924662128368
  0
VERTEX
  8
C7
 10
52.70682
 20
45.1677716236019
 42
-0.0584422504725
  0
VERTEX
  8
C7
 10
49.38
 20
43.7999516350004
 42
-0.0045781381281
  0
VERTEX
  8
C7
 10
48.0
 20
43.308845639093
 42
0.0852831276351
  0
VERTEX
  8
C7
 10
45.718698
 20
42.9516716420694
 42
-0.0309354880413
  0
VERTEX
  8
C7
 10
44.509266
 20
42.6497756445852
 42
0.4384032942413
  0
VERTEX
  8
C7
 10
43.927008
 20
41.6403356529972
 42
-0.0181726226262
  0
VERTEX
  8
C7
 10
44.080686
 20
39.7133756690552
 42
0.0759288764321
  0
VERTEX
  8
C7
 10
44.557056
 20
37.6138376865513
 42
-0.0025548760203
  0
VERTEX
  8
C7
 10
44.867478
 20
36.0278516997679
 42
0.1388657372046
  0
VERTEX
  8
C7
 10
45.121158
 20
35.5811097034908
 42
0.0
  0
SEQEND
  0
POLYLINE
  8
C7
 66
     1
 10
0.0
 20
0.0
 30
0.0
 70
     1
  0
VERTEX
  8
C7
 10
57.421104
 20
44.7663896269468
 42
-0.0601858085928
  0
VERTEX
  8
C7
 10
56.932272
 20
44.2962956308642
 42
0.1272185234544
  0
VERTEX
  8
C7
 10
55.849836
 20
43.2554696395378
 42
-0.0558228782213
  0
VERTEX
  8
C7
 10
54.151176
 20
41.3579216553506
 42
-0.0708042882188
  0
VERTEX
  8
C7
 10
52.42287
 20
40.4258756631177
 42
0.2767451899736
  0
VERTEX
  8
C7
 10
50.578314
 20
39.4580576711829
 42
0.3933641406883
  0
VERTEX
  8
C7
 10
51.007872
 20
37.3265216889457
 42
0.0
  0
VERTEX
  8
C7
 10
51.007866
 20
37.3265216889457
 42
0.2146216463807
  0
VERTEX
  8
C7
 10
53.74287
 20
37.2728216893931
 42
0.0
  0
VERTEX
  8
C7
 10
53.742864
 20
37.2728216893931
 42
0.0554087595456
  0
VERTEX
  8
C7
 10
57.609438
 20
40.6081016615992
 42
-0.1982569371313
  0
VERTEX
  8
C7
 10
59.581272
 20
42.3928436467263
 42
-0.0720259657272
  0
VERTEX
  8
C7
 10
60.849852
 20
42.2799056476674
 42
-0.1387896742888
  0
VERTEX
  8
C7
 10
61.74
 20
42.1534676487211
 42
0.1824367004661
  0
VERTEX
  8
C7
 10
62.68128
 20
41.6774036526883
 42
0.3416184288752
  0
VERTEX
  8
C7
 10
63.304512
 20
42.4174436465213
 42
0.244488375235
  0
VERTEX
  8
C7
 10
62.745384
 20
43.5379796371835
 42
0.0458997452854
  0
VERTEX
  8
C7
 10
61.277232
 20
44.8928096258933
 42
0.0911885985016
  0
VERTEX
  8
C7
 10
60.23694
 20
45.0602816244976
 42
0.1089662035408
  0
VERTEX
  8
C7
 10
58.50236208
 20
45.0912959842392
 42
0.01772534801
  0
VERTEX
  8
C7
 10
57.535386
 20
44.8226096264783
 42
0.0528677667276
  0
SEQEND
  0
POLYLINE
  8
C7
 66
     1
 10
0.0
 20
0.0
 30
0.0
 70
     1
  0
VERTEX
  8
C7
 10
25.74
 20
45.9712916169059
 42
0.0029173001272
  0
VERTEX
  8
C7
 10
26.997048
 20
46.138565615512
 42
0.2759966027254
  0
VERTEX
  8
C7
 10
28.101372
 20
46.509119612424
 42
0.2934187456186
  0
VERTEX
  8
C7
 10
27.80028
 20
48.599999595
 42
-0.0314293039542
  0
VERTEX
  8
C7
 10
26.273082
 20
50.2612615811562
 42
0.0925058656749
  0
VERTEX
  8
C7
 10
25.407822
 20
51.0833335743056
 42
0.2036694255632
  0
VERTEX
  8
C7
 10
24.658404
 20
51.6503575695804
 42
0.0132876043733
  0
VERTEX
  8
C7
 10
23.82
 20
51.6599995695
 42
0.2510673754171
  0
VERTEX
  8
C7
 10
22.863582
 20
52.212125564899
 42
0.2916912626148
  0
VERTEX
  8
C7
 10
19.02546
 20
50.1898495817512
 42
0.0929361034323
  0
VERTEX
  8
C7
 10
18.52587
 20
49.373159588557
 42
0.413956070193
  0
VERTEX
  8
C7
 10
19.336224
 20
48.1226935989776
 42
-0.0133935620502
  0
VERTEX
  8
C7
 10
20.58
 20
47.9819456001505
 42
-0.0842120173936
  0
VERTEX
  8
C7
 10
21.847728
 20
47.4352736047061
 42
0.0062159475946
  0
VERTEX
  8
C7
 10
23.686488
 20
46.3768496135262
 42
0.0809302361042
  0
VERTEX
  8
C7
 10
24.724746
 20
46.1915816150701
 42
0.0484789432507
  0
SEQEND
  0
POLYLINE
  8
C7
 66
     1
 10
0.0
 20
0.0
 30
0.0
 70
     1
  0
VERTEX
  8
C7
 10
42.822864
 20
30.9525897420617
 42
0.0951438718315
  0
VERTEX
  8
C7
 10
40.259736
 20
31.4399517380004
 42
0.1882535863204
  0
VERTEX
  8
C7
 10
37.72437
 20
30.7352037438733
 42
0.0524837116582
  0
VERTEX
  8
C7
 10
36.787818
 20
30.1393077488391
 42
0.4263219294512
  0
VERTEX
  8
C7
 10
36.532686
 20
28.9946337583781
 42
0.2338906977191
  0
VERTEX
  8
C7
 10
37.720602
 20
28.8078777599344
 42
-0.1007065535937
  0
VERTEX
  8
C7
 10
39.24027
 20
28.9835097584707
 42
0.0015624944622
  0
VERTEX
  8
C7
 10
41.883684
 20
28.9838217584681
 42
0.2425013181129
  0
VERTEX
  8
C7
 10
43.18542
 20
29.3205477556621
 42
0.4263085907674
  0
VERTEX
  8
C7
 10
42.91308
 20
30.8960817425327
 42
0.0155010934751
  0
SEQEND
  0
POLYLINE
  8
C7
 66
     1
 10
0.0
 20
0.0
 30
0.0
 70
     1
  0
VERTEX
  8
C7
 10
23.76
 20
53.8311055514074
 42
-0.0750891356471
  0
VERTEX
  8
C7
 10
25.988052
 20
53.2938415558847
 42
0.10011063809
  0
VERTEX
  8
C7
 10
26.76
 20
52.9799995585
 42
0.0779183138887
  0
VERTEX
  8
C7
 10
27.631674
 20
52.2000775649993
 42
-0.0208632947003
  0
VERTEX
  8
C7
 10
30.028944
 20
49.3825855884784
 42
0.3726365104613
  0
VERTEX
  8
C7
 10
31.482162
 20
48.7031455941405
 42
0.4554609681753
  0
VERTEX
  8
C7
 10
31.793136
 20
49.6195675865036
 42
-0.0241251299516
  0
VERTEX
  8
C7
 10
31.628058
 20
49.919999584
 42
-0.0219731908033
  0
VERTEX
  8
C7
 10
29.940414
 20
52.9301815589152
 42
0.1144952958882
  0
VERTEX
  8
C7
 10
28.944912
 20
54.3166195473615
 42
0.0578724172892
  0
VERTEX
  8
C7
 10
27.951816
 20
55.3984315383464
 42
0.0064392737567
  0
VERTEX
  8
C7
 10
25.469952
 20
56.7633415269721
 42
0.0598074245366
  0
VERTEX
  8
C7
 10
24.419892
 20
57.007439524938
 42
0.03480355207
  0
VERTEX
  8
C7
 10
23.28
 20
57.4889815209252
 42
0.0
  0
VERTEX
  8
C7
 10
23.28
 20
57.4889755209252
 42
0.3412881923644
  0
VERTEX
  8
C7
 10
21.388518
 20
56.7196315273364
 42
0.3286046434752
  0
VERTEX
  8
C7
 10
22.189086
 20
54.3371755471902
 42
0.0898306143178
  0
VERTEX
  8
C7
 10
23.100696
 20
54.0432115496399
 42
0.0901182435253
  0
SEQEND
  0
POLYLINE
  8
C7
 66
     1
 10
0.0
 20
0.0
 30
0.0
 70
     1
  0
VERTEX
  8
C7
 10
23.612124
 20
26.7768477768596
 42
0.5448701986757
  0
VERTEX
  8
C7
 10
23.010498
 20
26.9589837753418
 42
-0.051142625852
  0
VERTEX
  8
C7
 10
21.89463
 20
26.2955577808704
 42
-0.0969686484929
  0
VERTEX
  8
C7
 10
20.548638
 20
26.3429337804756
 42
-0.0494359805729
  0
VERTEX
  8
C7
 10
19.551588
 20
26.4216177798198
 42
-0.2269903469742
  0
VERTEX
  8
C7
 10
18.343818
 20
27.4261497714488
 42
0.1191277046708
  0
VERTEX
  8
C7
 10
17.80806
 20
28.2910077642416
 42
0.0808012986859
  0
VERTEX
  8
C7
 10
16.390182
 20
29.924765750627
 42
0.139055782002
  0
VERTEX
  8
C7
 10
15.16314
 20
30.5698977452508
 42
-0.0103434573211
  0
VERTEX
  8
C7
 10
14.084988
 20
31.0809297409923
 42
0.0420378075397
  0
VERTEX
  8
C7
 10
13.019418
 20
31.1996157400032
 42
0.0488867422152
  0
VERTEX
  8
C7
 10
12.251172
 20
31.478753737677
 42
0.3244058010565
  0
VERTEX
  8
C7
 10
10.930782
 20
31.0612017411567
 42
0.4266904031116
  0
VERTEX
  8
C7
 10
11.791776
 20
29.7511497520738
 42
-0.2143345972072
  0
VERTEX
  8
C7
 10
13.308696
 20
29.0948577575429
 42
0.0094617561153
  0
VERTEX
  8
C7
 10
14.38254
 20
28.1374737655211
 42
0.0361788521928
  0
VERTEX
  8
C7
 10
15.12714
 20
27.1727757735602
 42
-0.3779271594673
  0
VERTEX
  8
C7
 10
14.919414
 20
26.1237117823024
 42
-0.4427680299362
  0
VERTEX
  8
C7
 10
13.81437
 20
26.2968297808597
 42
0.1571732355204
  0
VERTEX
  8
C7
 10
12.580728
 20
27.3784377718464
 42
0.3563681919776
  0
VERTEX
  8
C7
 10
11.62911
 20
26.9600817753327
 42
0.0826964775177
  0
VERTEX
  8
C7
 10
11.448348
 20
25.2982677891811
 42
0.0583971150012
  0
VERTEX
  8
C7
 10
11.42322
 20
23.4442438046313
 42
0.0954936464022
  0
VERTEX
  8
C7
 10
12.073104
 20
22.1796538151696
 42
0.0833647663473
  0
VERTEX
  8
C7
 10
12.568746
 20
21.3498598220845
 42
0.0279859293822
  0
VERTEX
  8
C7
 10
14.064426
 20
20.1155338323705
 42
0.1913134789085
  0
VERTEX
  8
C7
 10
18.837942
 20
19.7050978357909
 42
-0.0266298438514
  0
VERTEX
  8
C7
 10
19.2
 20
19.7943058350474
 42
0.0
  0
VERTEX
  8
C7
 10
19.2
 20
19.7942998350475
 42
0.0644270304438
  0
VERTEX
  8
C7
 10
21.719274
 20
20.2339918313834
 42
-0.0492700358667
  0
VERTEX
  8
C7
 10
22.56
 20
20.6421298279823
 42
0.0
  0
VERTEX
  8
C7
 10
22.56
 20
20.6421238279823
 42
0.0748474876601
  0
VERTEX
  8
C7
 10
23.573748
 20
20.9949538250421
 42
0.0
  0
VERTEX
  8
C7
 10
23.573748
 20
20.9949478250421
 42
-0.0946284879346
  0
VERTEX
  8
C7
 10
24.673716
 20
21.6416038196533
 42
0.098565640421
  0
VERTEX
  8
C7
 10
27.028656
 20
23.3824018051467
 42
-0.0258660704417
  0
VERTEX
  8
C7
 10
28.374972
 20
24.6332637947228
 42
0.0391432315009
  0
VERTEX
  8
C7
 10
28.907454
 20
25.1423577904804
 42
0.0
  0
VERTEX
  8
C7
 10
28.907448
 20
25.1423577904804
 42
-0.0520701577961
  0
VERTEX
  8
C7
 10
30.015966
 20
26.4360837796993
 42
0.0305640545192
  0
VERTEX
  8
C7
 10
31.972692
 20
28.7170557606912
 42
0.2930467634967
  0
VERTEX
  8
C7
 10
31.92147
 20
30.2591097478408
 42
-0.1463351712892
  0
VERTEX
  8
C7
 10
31.207518
 20
31.3691577385904
 42
0.0895356581237
  0
VERTEX
  8
C7
 10
30.74379
 20
32.9445297254623
 42
-0.0151084676098
  0
VERTEX
  8
C7
 10
30.381378
 20
35.0550297078748
 42
-0.004969391406
  0
VERTEX
  8
C7
 10
29.790552
 20
37.0220636914828
 42
0.0144049773375
  0
VERTEX
  8
C7
 10
29.601912
 20
38.6427956779767
 42
0.0009265661628
  0
VERTEX
  8
C7
 10
29.194776
 20
39.6008216699931
 42
0.0806180503827
  0
VERTEX
  8
C7
 10
28.774182
 20
41.634599653045
 42
-0.0884967182784
  0
VERTEX
  8
C7
 10
28.255254
 20
43.6774916360209
 42
-0.1423483668145
  0
VERTEX
  8
C7
 10
28.039644
 20
44.6730956277242
 42
-0.0734131083171
  0
VERTEX
  8
C7
 10
28.118382
 20
44.9828216251431
 42
0.0
  0
VERTEX
  8
C7
 10
28.118376
 20
44.9828216251431
 42
-0.3895387297719
  0
VERTEX
  8
C7
 10
29.133558
 20
45.4271456214405
 42
-0.0142743040543
  0
VERTEX
  8
C7
 10
31.515276
 20
44.4283676297636
 42
0.0245849435282
  0
VERTEX
  8
C7
 10
33.355908
 20
44.05679963286
 42
0.0215701088171
  0
VERTEX
  8
C7
 10
34.497804
 20
43.6597856361685
 42
-0.017851772094
  0
VERTEX
  8
C7
 10
35.16
 20
43.5530576370579
 42
-0.0041149813912
  0
VERTEX
  8
C7
 10
36.50568
 20
43.2932156392232
 42
0.4164631278542
  0
VERTEX
  8
C7
 10
37.268136
 20
44.0372636330228
 42
-0.0386241581805
  0
VERTEX
  8
C7
 10
37.645518
 20
45.9702656169144
 42
-0.0028010785478
  0
VERTEX
  8
C7
 10
37.82817
 20
47.6416136029866
 42
0.0046443952401
  0
VERTEX
  8
C7
 10
37.993374
 20
48.961919591984
 42
0.0623012279291
  0
VERTEX
  8
C7
 10
38.419662
 20
50.0976115825199
 42
-0.0318867336037
  0
VERTEX
  8
C7
 10
39.0762
 20
54.959999542
 42
0.0659681712623
  0
VERTEX
  8
C7
 10
39.281946
 20
55.6199995365
 42
0.0
  0
VERTEX
  8
C7
 10
39.28194
 20
55.6199995365
 42
-0.0363999248396
  0
VERTEX
  8
C7
 10
39.764616
 20
59.9660155002832
 42
0.0893373533948
  0
VERTEX
  8
C7
 10
39.84
 20
61.319999489
 42
0.0470001499668
  0
VERTEX
  8
C7
 10
38.43378
 20
60.7694154935882
 42
0.0402340259825
  0
VERTEX
  8
C7
 10
36.704724
 20
60.0666414994447
 42
-0.0784814822642
  0
VERTEX
  8
C7
 10
33.839238
 20
59.1470515071079
 42
0.0601200292059
  0
VERTEX
  8
C7
 10
31.63062
 20
58.9134595090545
 42
-0.1226092361055
  0
VERTEX
  8
C7
 10
29.998554
 20
58.5627415119772
 42
0.0031633555772
  0
VERTEX
  8
C7
 10
28.081956
 20
58.5547975120434
 42
0.0168742821716
  0
VERTEX
  8
C7
 10
26.94
 20
58.7297695105853
 42
0.0
  0
VERTEX
  8
C7
 10
26.94
 20
58.7297635105853
 42
-0.0468331647174
  0
VERTEX
  8
C7
 10
25.021284
 20
59.0086495082613
 42
0.0253713797737
  0
VERTEX
  8
C7
 10
22.701726
 20
59.2325815063952
 42
-0.0697675757408
  0
VERTEX
  8
C7
 10
20.93877
 20
59.6452615029562
 42
0.1062041811966
  0
VERTEX
  8
C7
 10
20.46
 20
59.813519501554
 42
0.0
  0
VERTEX
  8
C7
 10
20.46
 20
59.813513501554
 42
-0.1110877993561
  0
VERTEX
  8
C7
 10
18.31713
 20
60.1634694986378
 42
0.0890440208031
  0
VERTEX
  8
C7
 10
16.977486
 20
60.6306474947446
 42
-0.0057376634391
  0
VERTEX
  8
C7
 10
16.081044
 20
61.2238134898016
 42
0.3312004522978
  0
VERTEX
  8
C7
 10
15.234528
 20
61.0887774909268
 42
0.1168520651706
  0
VERTEX
  8
C7
 10
14.631432
 20
60.3522714970644
 42
-0.0565165076806
  0
VERTEX
  8
C7
 10
14.14917
 20
59.0370775080243
 42
-0.0174392104103
  0
VERTEX
  8
C7
 10
13.116306
 20
56.4433015296392
 42
0.2796395137185
  0
VERTEX
  8
C7
 10
13.402452
 20
55.1736715402194
 42
0.0481135738005
  0
VERTEX
  8
C7
 10
14.404752
 20
54.1350595488745
 42
-0.0799272148336
  0
VERTEX
  8
C7
 10
14.962356
 20
52.7411695604902
 42
-0.0668381355554
  0
VERTEX
  8
C7
 10
14.702688
 20
51.4155235715373
 42
-0.1856920043481
  0
VERTEX
  8
C7
 10
14.162376
 20
50.2993495808388
 42
-0.0404163433624
  0
VERTEX
  8
C7
 10
13.637316
 20
49.4534755878877
 42
0.1756712976702
  0
VERTEX
  8
C7
 10
13.05339
 20
48.2987095975108
 42
0.0297653360002
  0
VERTEX
  8
C7
 10
12.357312
 20
46.79999961
 42
-0.0725984230281
  0
VERTEX
  8
C7
 10
11.942916
 20
45.3723716218969
 42
0.1068481464849
  0
VERTEX
  8
C7
 10
11.607588
 20
44.7428696271428
 42
-0.0717086528598
  0
VERTEX
  8
C7
 10
11.430324
 20
43.3778156385182
 42
0.0945850041214
  0
VERTEX
  8
C7
 10
10.963458
 20
42.1804496484963
 42
0.0092151541508
  0
VERTEX
  8
C7
 10
10.71033
 20
40.7980556600162
 42
0.1599978876239
  0
VERTEX
  8
C7
 10
10.838052
 20
39.9611576669903
 42
0.2050085419617
  0
VERTEX
  8
C7
 10
11.768814
 20
39.5700296702498
 42
-0.2939817813692
  0
VERTEX
  8
C7
 10
12.880926
 20
39.2736116727199
 42
-0.0650988353619
  0
VERTEX
  8
C7
 10
13.0245
 20
38.2803476809971
 42
0.0275626703624
  0
VERTEX
  8
C7
 10
12.93183
 20
37.0393496913387
 42
0.222964712809
  0
VERTEX
  8
C7
 10
13.21782
 20
36.4853696959552
 42
0.0742005477767
  0
VERTEX
  8
C7
 10
14.87511
 20
35.8988997008425
 42
0.002624755387
  0
VERTEX
  8
C7
 10
16.135746
 20
35.639399703005
 42
0.0631496868627
  0
VERTEX
  8
C7
 10
17.157096
 20
35.1085077074291
 42
-0.0558082139614
  0
VERTEX
  8
C7
 10
18.503322
 20
34.4394657130045
 42
0.0
  0
VERTEX
  8
C7
 10
18.55713
 20
34.4075457132705
 42
0.0
  0
VERTEX
  8
C7
 10
18.557124
 20
34.4075457132705
 42
-0.0874951516047
  0
VERTEX
  8
C7
 10
20.649702
 20
32.8935777258869
 42
-0.0125525896473
  0
VERTEX
  8
C7
 10
22.091268
 20
30.9690957419242
 42
-0.1648852786218
  0
VERTEX
  8
C7
 10
22.699038
 20
30.1937157483857
 42
0.1556964735875
  0
VERTEX
  8
C7
 10
23.358894
 20
28.8668097594433
 42
-0.1810179306604
  0
VERTEX
  8
C7
 10
23.76
 20
28.1399997655
 42
0.4014926951252
  0
VERTEX
  8
C7
 10
24.165912
 20
28.7432517604729
 42
-0.0715065709106
  0
VERTEX
  8
C7
 10
23.839404
 20
29.8782057510149
 42
0.2119037784968
  0
VERTEX
  8
C7
 10
23.459808
 20
30.8718177427348
 42
0.0373662780493
  0
VERTEX
  8
C7
 10
22.537458
 20
32.1164997323625
 42
0.0
  0
VERTEX
  8
C7
 10
22.499352
 20
32.1653697319553
 42
0.0
  0
VERTEX
  8
C7
 10
22.499346
 20
32.1653637319553
 42
0.0728762784358
  0
VERTEX
  8
C7
 10
21.387546
 20
33.8046897182942
 42
-0.0761099303261
  0
VERTEX
  8
C7
 10
20.49528
 20
34.670039711083
 42
-0.0681051493923
  0
VERTEX
  8
C7
 10
19.511526
 20
36.3591836970068
 42
-0.0186058017759
  0
VERTEX
  8
C7
 10
19.301688
 20
37.6154216865381
 42
-0.144394714202
  0
VERTEX
  8
C7
 10
19.146582
 20
39.0640016744666
 42
-0.7311374705396
  0
VERTEX
  8
C7
 10
20.569002
 20
39.1872236734398
 42
0.0605804765354
  0
VERTEX
  8
C7
 10
20.80002
 20
37.4345216880456
 42
0.1242813540705
  0
VERTEX
  8
C7
 10
21.560298
 20
35.940359700497
 42
-0.1177933753667
  0
VERTEX
  8
C7
 10
22.097454
 20
35.4230577048078
 42
0.1346665207423
  0
VERTEX
  8
C7
 10
22.304532
 20
34.7477277104356
 42
-0.0627777223152
  0
VERTEX
  8
C7
 10
23.071482
 20
33.72239971898
 42
-0.0359243783622
  0
VERTEX
  8
C7
 10
24.372546
 20
31.90440573413
 42
-0.0712279494613
  0
VERTEX
  8
C7
 10
25.213452
 20
30.726485743946
 42
-0.0341957244608
  0
VERTEX
  8
C7
 10
25.877154
 20
29.1216477573196
 42
-0.2576185412942
  0
VERTEX
  8
C7
 10
25.523274
 20
27.1559637737003
 42
-0.1808246607155
  0
VERTEX
  8
C7
 10
24.505458
 20
26.0739357827172
 42
-0.3603282357857
  0
VERTEX
  8
C7
 10
23.808156
 20
26.3762937801976
 42
0.009269735748
  0
VERTEX
  8
C7
 10
23.61213
 20
26.7768537768596
 42
0.0
  0
SEQEND
  0
POLYLINE
  8
C7
 66
     1
 10
0.0
 20
0.0
 30
0.0
 70
     1
  0
VERTEX
  8
C7
 10
66.87009
 20
42.5228636456428
 42
-0.120641039585
  0
VERTEX
  8
C7
 10
66.12732
 20
44.3397116305024
 42
0.0618945929837
  0
VERTEX
  8
C7
 10
65.715312
 20
45.6119696199003
 42
0.0385643233371
  0
VERTEX
  8
C7
 10
65.266008
 20
47.095325607539
 42
-0.0781677929626
  0
VERTEX
  8
C7
 10
64.632876
 20
48.8425855929784
 42
0.0016526375975
  0
VERTEX
  8
C7
 10
64.101384
 20
50.1012595824895
 42
-0.0472526814629
  0
VERTEX
  8
C7
 10
63.758364
 20
51.5421895704818
 42
-0.0343573599339
  0
VERTEX
  8
C7
 10
63.304536
 20
52.3231975639734
 42
0.1140382046579
  0
VERTEX
  8
C7
 10
62.47095
 20
54.3903235467473
 42
0.5816877350827
  0
VERTEX
  8
C7
 10
61.259124
 20
54.333245547223
 42
0.0106002410444
  0
VERTEX
  8
C7
 10
60.431634
 20
53.1992515566729
 42
-0.0168459972759
  0
VERTEX
  8
C7
 10
59.658288
 20
52.0253695664553
 42
0.0523652214494
  0
VERTEX
  8
C7
 10
58.87416
 20
50.8822735759811
 42
-0.0014538790744
  0
VERTEX
  8
C7
 10
58.26111
 20
50.3817115801524
 42
-0.0697152492945
  0
VERTEX
  8
C7
 10
55.891782
 20
48.4916275959031
 42
0.0161413550322
  0
VERTEX
  8
C7
 10
54.342696
 20
47.4375356046872
 42
0.0022025068733
  0
VERTEX
  8
C7
 10
52.025592
 20
46.3705496135788
 42
-0.0696233806918
  0
VERTEX
  8
C7
 10
50.92287
 20
45.7103216190807
 42
0.0494230302167
  0
VERTEX
  8
C7
 10
49.672752
 20
45.2561936228651
 42
0.0140422115139
  0
VERTEX
  8
C7
 10
48.00255
 20
44.8320236263998
 42
-0.050496875
  0
VERTEX
  8
C7
 10
45.576288
 20
44.2700816310826
 42
-0.004667034943
  0
VERTEX
  8
C7
 10
43.324272
 20
43.8269816347752
 42
0.0575462684213
  0
VERTEX
  8
C7
 10
41.70348
 20
43.5534956370542
 42
-0.0073582020478
  0
VERTEX
  8
C7
 10
39.352248
 20
43.2946016392116
 42
-0.4512128921237
  0
VERTEX
  8
C7
 10
38.392248
 20
43.7449796354585
 42
-0.0750033534587
  0
VERTEX
  8
C7
 10
38.695512
 20
44.6901236275823
 42
-0.0362543728346
  0
VERTEX
  8
C7
 10
38.87076
 20
45.6609956194917
 42
0.0035910647345
  0
VERTEX
  8
C7
 10
39.06075
 20
47.2187756065102
 42
0.0542769988605
  0
VERTEX
  8
C7
 10
39.58467
 20
49.7379175855174
 42
0.0007492750878
  0
VERTEX
  8
C7
 10
39.826572
 20
50.879999576
 42
-0.041971692325
  0
VERTEX
  8
C7
 10
40.179
 20
52.761239560323
 42
0.0431042066125
  0
VERTEX
  8
C7
 10
40.371516
 20
54.7816075434866
 42
0.0388233274652
  0
VERTEX
  8
C7
 10
40.615002
 20
56.2798015310017
 42
-0.143897619427
  0
VERTEX
  8
C7
 10
40.738032
 20
57.4794775210044
 42
0.0541858296209
  0
VERTEX
  8
C7
 10
40.983234
 20
58.6805935109951
 42
0.046720171381
  0
VERTEX
  8
C7
 10
41.158152
 20
60.7801674934986
 42
0.0832100113467
  0
VERTEX
  8
C7
 10
41.138286
 20
62.7842754767977
 42
0.4196032651329
  0
VERTEX
  8
C7
 10
40.176222
 20
63.1609494736587
 42
-0.073391978666
  0
VERTEX
  8
C7
 10
39.04212
 20
62.5043274791306
 42
-0.0340103028421
  0
VERTEX
  8
C7
 10
37.321842
 20
61.7220234856498
 42
0.0646897716643
  0
VERTEX
  8
C7
 10
36.056118
 20
61.2009294899922
 42
-0.0791705626169
  0
VERTEX
  8
C7
 10
34.555962
 20
60.9002214924982
 42
0.0655035000449
  0
VERTEX
  8
C7
 10
34.32
 20
60.8580594928495
 42
-0.1053103673341
  0
VERTEX
  8
C7
 10
33.18
 20
60.3797214968357
 42
0.0125050340058
  0
VERTEX
  8
C7
 10
31.14081
 20
60.1018134991516
 42
-0.0425595861258
  0
VERTEX
  8
C7
 10
25.919706
 20
60.1246134989616
 42
0.0352202121404
  0
VERTEX
  8
C7
 10
23.69775
 20
60.3550254970415
 42
0.0157746063179
  0
VERTEX
  8
C7
 10
21.838464
 20
60.8559834928668
 42
-0.1227137717166
  0
VERTEX
  8
C7
 10
19.57215
 20
61.236479489696
 42
0.1405808288748
  0
VERTEX
  8
C7
 10
18.113586
 20
61.6837254859689
 42
-0.0418034080859
  0
VERTEX
  8
C7
 10
16.830294
 20
62.2843134809641
 42
-0.0259822190322
  0
VERTEX
  8
C7
 10
15.71469
 20
62.6623134778141
 42
-0.0941407472911
  0
VERTEX
  8
C7
 10
14.090196
 20
63.9616614669862
 42
0.028181700944
  0
VERTEX
  8
C7
 10
13.627218
 20
64.8551274595406
 42
-0.0705953537332
  0
VERTEX
  8
C7
 10
13.289676
 20
65.399999455
 42
-0.0957949955648
  0
VERTEX
  8
C7
 10
12.958482
 20
69.0838974243009
 42
-0.0566598773083
  0
VERTEX
  8
C7
 10
13.101636
 20
70.6800114109999
 42
0.0215295459373
  0
VERTEX
  8
C7
 10
13.76064
 20
72.2108513982429
 42
0.0518653487616
  0
VERTEX
  8
C7
 10
13.802136
 20
73.4418653879845
 42
0.0
  0
VERTEX
  8
C7
 10
13.8
 20
73.4999993875
 42
0.0
  0
VERTEX
  8
C7
 10
12.36
 20
73.4999993875
 42
-0.0827737024116
  0
VERTEX
  8
C7
 10
11.81031
 20
72.289559397587
 42
0.0141092226693
  0
VERTEX
  8
C7
 10
10.195098
 20
69.8470674179411
 42
-0.0980379830094
  0
VERTEX
  8
C7
 10
9.775896
 20
68.8352274263731
 42
0.0760995673982
  0
VERTEX
  8
C7
 10
9.121476
 20
67.4813394376555
 42
0.0278853001801
  0
VERTEX
  8
C7
 10
8.600076
 20
66.3585354470122
 42
-0.0719597647886
  0
VERTEX
  8
C7
 10
8.012076
 20
64.8099054599174
 42
0.0611621830287
  0
VERTEX
  8
C7
 10
7.829676
 20
64.3799994635
 42
-0.0829667304462
  0
VERTEX
  8
C7
 10
7.24602
 20
61.864679484461
 42
0.1077403510736
  0
VERTEX
  8
C7
 10
7.01034
 20
60.6566334945281
 42
-0.007825259641
  0
VERTEX
  8
C7
 10
6.581262
 20
58.9704235085798
 42
0.0425174494476
  0
VERTEX
  8
C7
 10
6.473508
 20
56.3400655304995
 42
-0.1697602412857
  0
VERTEX
  8
C7
 10
5.848236
 20
55.0039495416338
 42
0.0383253584101
  0
VERTEX
  8
C7
 10
5.363862
 20
54.1848655484594
 42
0.117999540603
  0
VERTEX
  8
C7
 10
4.672272
 20
52.8219295598173
 42
-0.0313792786332
  0
VERTEX
  8
C7
 10
4.61457
 20
51.2970715725244
 42
-0.0690765756105
  0
VERTEX
  8
C7
 10
4.16883
 20
49.3132675890561
 42
0.0208832388695
  0
VERTEX
  8
C7
 10
3.95523
 20
44.0403296329972
 42
0.0390265624056
  0
VERTEX
  8
C7
 10
4.06026
 20
41.5794176535049
 42
0.0191604109058
  0
VERTEX
  8
C7
 10
4.347162
 20
38.7604676769961
 42
0.0371896232194
  0
VERTEX
  8
C7
 10
4.590396
 20
37.0834916909709
 42
-0.009895500842
  0
VERTEX
  8
C7
 10
4.86525
 20
32.7002337274981
 42
0.0536120748399
  0
VERTEX
  8
C7
 10
5.191416
 20
29.917433750688
 42
-0.0380645637432
  0
VERTEX
  8
C7
 10
5.403462
 20
26.7598437770013
 42
0.056847163328
  0
VERTEX
  8
C7
 10
5.386782
 20
25.1247117906274
 42
0.0484651836048
  0
VERTEX
  8
C7
 10
5.969682
 20
24.0528357995597
 42
-0.05217644603
  0
VERTEX
  8
C7
 10
6.206346
 20
23.2139098065507
 42
0.1361618512266
  0
VERTEX
  8
C7
 10
8.56137
 20
20.2871398309405
 42
0.03033285978
  0
VERTEX
  8
C7
 10
9.901272
 20
19.6651918361234
 42
0.0952930428252
  0
VERTEX
  8
C7
 10
12.000138
 20
18.8903938425801
 42
-0.0198182852853
  0
VERTEX
  8
C7
 10
13.687938
 20
18.3874918467709
 42
0.010453276115
  0
VERTEX
  8
C7
 10
15.54
 20
18.2346298480448
 42
0.0929136774213
  0
VERTEX
  8
C7
 10
17.877558
 20
18.1996018483367
 42
-0.0063240940675
  0
VERTEX
  8
C7
 10
18.06
 20
18.2274538481046
 42
0.0
  0
VERTEX
  8
C7
 10
18.06
 20
18.2274478481046
 42
0.08524227732
  0
VERTEX
  8
C7
 10
19.918776
 20
18.4177078465191
 42
-0.1023203822595
  0
VERTEX
  8
C7
 10
21.118104
 20
18.83519384304
 42
0.0772503962154
  0
VERTEX
  8
C7
 10
22.92
 20
19.2650878394576
 42
0.0747181423038
  0
VERTEX
  8
C7
 10
23.39463
 20
19.4065258382789
 42
0.0
  0
VERTEX
  8
C7
 10
23.394624
 20
19.4065258382789
 42
0.0208170569627
  0
VERTEX
  8
C7
 10
26.144412
 20
21.0256258247864
 42
-0.0048614211426
  0
VERTEX
  8
C7
 10
28.163268
 20
22.7326978105609
 42
-0.0041078570419
  0
VERTEX
  8
C7
 10
28.25676
 20
22.8083758099302
 42
0.0
  0
VERTEX
  8
C7
 10
28.256754
 20
22.8083758099302
 42
-0.0006318506674
  0
VERTEX
  8
C7
 10
29.497266
 20
23.8190158015082
 42
-0.0142916831598
  0
VERTEX
  8
C7
 10
30.023652
 20
24.66479379446
 42
0.0506547520557
  0
VERTEX
  8
C7
 10
31.401366
 20
25.9916817834027
 42
-0.0341499641247
  0
VERTEX
  8
C7
 10
32.060826
 20
27.1238637739678
 42
-0.5083700235558
  0
VERTEX
  8
C7
 10
32.98992
 20
27.1807677734936
 42
-0.0549091283249
  0
VERTEX
  8
C7
 10
33.549174
 20
25.3470837887743
 42
0.0905328137815
  0
VERTEX
  8
C7
 10
34.018212
 20
24.1152417990397
 42
0.0351687224082
  0
VERTEX
  8
C7
 10
34.323456
 20
22.6640278111331
 42
0.0248052624271
  0
VERTEX
  8
C7
 10
34.380558
 20
22.4999998125
 42
0.0
  0
VERTEX
  8
C7
 10
34.380552
 20
22.4999998125
 42
-0.0972677119468
  0
VERTEX
  8
C7
 10
34.895832
 20
21.719999819
 42
0.060031319112
  0
VERTEX
  8
C7
 10
35.06847
 20
20.5371298288573
 42
-0.0319732684996
  0
VERTEX
  8
C7
 10
35.622828
 20
19.7251678356236
 42
0.0102383039659
  0
VERTEX
  8
C7
 10
35.916804
 20
18.4802278459981
 42
-0.0704347458289
  0
VERTEX
  8
C7
 10
36.623766
 20
16.8359278597006
 42
0.0178061556382
  0
VERTEX
  8
C7
 10
37.885404
 20
14.4519298795672
 42
0.1079295858616
  0
VERTEX
  8
C7
 10
38.426106
 20
13.2882178892649
 42
-0.0097075440677
  0
VERTEX
  8
C7
 10
39.58314
 20
11.4007499049937
 42
0.0099814677906
  0
VERTEX
  8
C7
 10
40.943646
 20
9.5325119205624
 42
-0.0844912829572
  0
VERTEX
  8
C7
 10
41.806026
 20
8.4079079299341
 42
0.0635141073457
  0
VERTEX
  8
C7
 10
43.383036
 20
6.742079943816
 42
0.0669931742522
  0
VERTEX
  8
C7
 10
45.726378
 20
4.6006079616616
 42
-0.022881468857
  0
VERTEX
  8
C7
 10
45.820464
 20
4.525925962284
 42
0.0
  0
VERTEX
  8
C7
 10
45.820458
 20
4.525919962284
 42
0.0823906285931
  0
VERTEX
  8
C7
 10
46.798362
 20
3.7762979685309
 42
0.0926713707279
  0
VERTEX
  8
C7
 10
48.232506
 20
2.9519579754004
 42
0.0908970033455
  0
VERTEX
  8
C7
 10
49.678038
 20
2.2945979808784
 42
-0.0237706614074
  0
VERTEX
  8
C7
 10
50.948244
 20
1.8304079847466
 42
-0.0023757529824
  0
VERTEX
  8
C7
 10
52.021602
 20
1.7328359855597
 42
0.0241251909991
  0
VERTEX
  8
C7
 10
53.38428
 20
1.1885759900952
 42
0.0598441421165
  0
VERTEX
  8
C7
 10
55.62081
 20
0.9657479919521
 42
0.0432668911506
  0
VERTEX
  8
C7
 10
60.117756
 20
0.7108439940763
 42
0.110643917771
  0
VERTEX
  8
C7
 10
61.733904
 20
0.7935419933872
 42
0.1143381809146
  0
VERTEX
  8
C7
 10
66.046398
 20
3.6266879697776
 42
0.0317554186754
  0
VERTEX
  8
C7
 10
67.327818
 20
4.9467899587768
 42
0.030088888734
  0
VERTEX
  8
C7
 10
68.86929
 20
7.0470959412742
 42
-0.0323183782908
  0
VERTEX
  8
C7
 10
69.70167
 20
8.4506099295783
 42
-0.0301008668825
  0
VERTEX
  8
C7
 10
70.202496
 20
9.5870279201081
 42
-0.1587962470576
  0
VERTEX
  8
C7
 10
70.56
 20
9.959999917
 42
0.0303100102156
  0
VERTEX
  8
C7
 10
70.833708
 20
10.7991059100074
 42
-0.1202904282531
  0
VERTEX
  8
C7
 10
71.20533
 20
11.7847379017939
 42
0.0150174714545
  0
VERTEX
  8
C7
 10
71.655222
 20
13.3197658890019
 42
0.0990376098277
  0
VERTEX
  8
C7
 10
71.892774
 20
14.8839778759668
 42
0.006035429772
  0
VERTEX
  8
C7
 10
71.907864
 20
23.1621838069818
 42
0.0320546573154
  0
VERTEX
  8
C7
 10
71.872038
 20
23.6946298025448
 42
0.0
  0
VERTEX
  8
C7
 10
71.872038
 20
23.6946238025448
 42
-0.0349649655918
  0
VERTEX
  8
C7
 10
71.671716
 20
24.2402277979981
 42
0.0450996514128
  0
VERTEX
  8
C7
 10
71.17866
 20
26.5179897790167
 42
-0.0849246359231
  0
VERTEX
  8
C7
 10
70.841454
 20
27.8403897679968
 42
0.0170230191148
  0
VERTEX
  8
C7
 10
70.247718
 20
30.0611937494901
 42
0.0622010198458
  0
VERTEX
  8
C7
 10
69.36273
 20
33.839999718
 42
0.0876629303097
  0
VERTEX
  8
C7
 10
69.280302
 20
34.682879710976
 42
0.2524707624266
  0
VERTEX
  8
C7
 10
69.06
 20
34.919999709
 42
0.017029314973
  0
VERTEX
  8
C7
 10
68.550372
 20
36.4853696959552
 42
0.0
  0
VERTEX
  8
C7
 10
68.550372
 20
36.4853636959553
 42
0.0672559804523
  0
VERTEX
  8
C7
 10
67.814826
 20
39.1307816739102
 42
0.028101090882
  0
VERTEX
  8
C7
 10
67.629672
 20
40.0199996665
 42
-0.0456856821035
  0
VERTEX
  8
C7
 10
66.934068
 20
41.879999651
 42
0.0831295461452
  0
VERTEX
  8
C7
 10
66.870096
 20
42.5228696456428
 42
0.0
  0
SEQEND
  0
POLYLINE
  8
C7
 66
     1
 10
0.0
 20
0.0
 30
0.0
 70
     1
  0
VERTEX
  8
C7
 10
9.24
 20
54.0753655493719
 42
0.1966089811781
  0
VERTEX
  8
C7
 10
8.117334
 20
53.8107775515768
 42
0.3306712348761
  0
VERTEX
  8
C7
 10
8.201022
 20
52.675085561041
 42
0.1687048272665
  0
VERTEX
  8
C7
 10
9.126306
 20
52.4310355630747
 42
0.0320140580746
  0
VERTEX
  8
C7
 10
11.31756
 20
52.4350315630414
 42
0.4361420907541
  0
VERTEX
  8
C7
 10
11.878998
 20
53.4184375548464
 42
0.2059426177479
  0
VERTEX
  8
C7
 10
11.03952
 20
54.0863575492804
 42
0.1856416637751
  0
VERTEX
  8
C7
 10
9.422448
 20
54.1232755489727
 42
-0.0362695934899
  0
VERTEX
  8
C7
 10
9.24
 20
54.0753715493719
 42
0.0
  0
SEQEND
  0
ENDSEC
  0
EOF
