  0
SECTION
  2
HEADER
  9
$ACADVER
  1
AC1009
  9
$EXTMAX
 10
153.958648681641
 20
17.2089805603027
 30
0.0
  9
$EXTMIN
 10
1.2944078445435
 20
-6.2532730102539
 30
0.0
  9
$INSUNITS
 70
     4
  9
$LUNITS
 70
     2
  9
$LUPREC
 70
     4
  9
$MEASUREMENT
 70
     1
  0
ENDSEC
  0
SECTION
  2
TABLES
  0
TABLE
  2
LAYER
 70
     1
  0
LAYER
  2
0
 70
     0
 62
     7
  6
Continuous
  0
LAYER
  2
Standard
 70
     0
 62
    70
  6
Continuous
  0
ENDTAB
  0
TABLE
  2
APPID
 70
     1
  0
APPID
  2
ACAD
 70
     0
  0
ENDTAB
  0
ENDSEC
  0
SECTION
  2
ENTITIES
  0
POLYLINE
  8
Standard
 66
     1
 10
0.0
 20
0.0
 30
0.0
 70
     1
  0
VERTEX
  8
Standard
 10
9.78515625
 20
13.1591796875
 42
-0.0142427020535
  0
VERTEX
  8
Standard
 10
8.5414424537113
 20
1.8780897254147
 42
-0.3554637808245
  0
VERTEX
  8
Standard
 10
6.6806640625
 20
-0.0859375
 42
-0.5679308499949
  0
VERTEX
  8
Standard
 10
5.48828125
 20
1.8046875
 42
0.006257671981
  0
VERTEX
  8
Standard
 10
6.7021484375
 20
12.9765625
 42
-0.0654011718034
  0
VERTEX
  8
Standard
 10
2.4482421875
 20
13.10546875
 42
-0.6553088529205
  0
VERTEX
  8
Standard
 10
1.79296875
 20
15.4794921875
 42
-0.2250309124866
  0
VERTEX
  8
Standard
 10
3.0712890625
 20
16.0380859375
 42
0.0292494562505
  0
VERTEX
  8
Standard
 10
11.4287109375
 20
16.0810546875
 42
-0.0100451612537
  0
VERTEX
  8
Standard
 10
15.8974609375
 20
15.9736328125
 42
-0.5765217097139
  0
VERTEX
  8
Standard
 10
16.166015625
 20
13.6533203125
 42
-0.2045628017998
  0
VERTEX
  8
Standard
 10
14.9951171875
 20
13.1162109375
 42
0.004651062175
  0
SEQEND
  0
POLYLINE
  8
Standard
 66
     1
 10
0.0
 20
0.0
 30
0.0
 70
     1
  0
VERTEX
  8
Standard
 10
20.1083984375
 20
9.8291015625
 42
-0.2515478733332
  0
VERTEX
  8
Standard
 10
25.0738298920668
 20
11.2516724831101
 42
-0.3677771621074
  0
VERTEX
  8
Standard
 10
26.822265625
 20
8.6259765625
 42
-0.0225604270473
  0
VERTEX
  8
Standard
 10
26.7900390625
 20
7.9599609375
 42
0.0582571540039
  0
VERTEX
  8
Standard
 10
26.4033203125
 20
0.9130859375
 42
-0.4866563424465
  0
VERTEX
  8
Standard
 10
24.0531835417078
 20
-0.5491129428018
 42
-0.2883305558924
  0
VERTEX
  8
Standard
 10
23.4171426232298
 20
0.4429103912186
 42
-0.0838049310675
  0
VERTEX
  8
Standard
 10
23.7822265625
 20
6.6171875
 42
0.1651789503703
  0
VERTEX
  8
Standard
 10
23.8719833068325
 20
8.2814725850243
 42
0.301682995406
  0
VERTEX
  8
Standard
 10
23.4921875
 20
8.4970703125
 42
0.2133438579232
  0
VERTEX
  8
Standard
 10
20.6913172930085
 20
6.8714660336596
 42
0.0354863742075
  0
VERTEX
  8
Standard
 10
19.4853515625
 20
5.306640625
 42
-0.056289709791
  0
VERTEX
  8
Standard
 10
18.567706286077
 20
1.0456091381982
 42
-0.5643354879623
  0
VERTEX
  8
Standard
 10
15.9296875
 20
0.0966796875
 42
-0.3738948862233
  0
VERTEX
  8
Standard
 10
15.7900390625
 20
1.71875
 42
0.0099278832171
  0
VERTEX
  8
Standard
 10
17.5087890625
 20
11.794921875
 42
0.0544566557118
  0
VERTEX
  8
Standard
 10
18.000744677822
 20
15.5304723938031
 42
-0.5195538567902
  0
VERTEX
  8
Standard
 10
20.352119642136
 20
17.0910255172296
 42
-0.2889538708806
  0
VERTEX
  8
Standard
 10
21.0537109375
 20
15.533203125
 42
-0.0184413652233
  0
SEQEND
  0
POLYLINE
  8
Standard
 66
     1
 10
0.0
 20
0.0
 30
0.0
 70
     1
  0
VERTEX
  8
Standard
 10
30.7861328125
 20
3.2333984375
 42
0.3180064741841
  0
VERTEX
  8
Standard
 10
36.060546875
 20
2.70703125
 42
-0.3024147443966
  0
VERTEX
  8
Standard
 10
38.2594632234031
 20
3.0577806039797
 42
-0.4242283858323
  0
VERTEX
  8
Standard
 10
37.9847206607328
 20
1.1289570390493
 42
-0.1969412286899
  0
VERTEX
  8
Standard
 10
33.1171875
 20
-0.4833984375
 42
-0.1666181960371
  0
VERTEX
  8
Standard
 10
29.228515625
 20
0.623046875
 42
-0.2400717818209
  0
VERTEX
  8
Standard
 10
27.83203125
 20
3.6201171875
 42
-0.2628123017812
  0
VERTEX
  8
Standard
 10
31.8796833573493
 20
10.5920656605873
 42
-0.2292847335471
  0
VERTEX
  8
Standard
 10
37.8330078125
 20
10.5380859375
 42
-0.5256114301863
  0
VERTEX
  8
Standard
 10
38.0693359375
 20
6.66015625
 42
-0.087613057441
  0
VERTEX
  8
Standard
 10
34.6533203125
 20
4.8447265625
 42
0.0
  0
SEQEND
  0
POLYLINE
  8
Standard
 66
     1
 10
0.0
 20
0.0
 30
0.0
 70
     1
  0
VERTEX
  8
Standard
 10
30.9794921875
 20
5.9619140625
 42
0.0404374322551
  0
VERTEX
  8
Standard
 10
36.08203125
 20
8.228515625
 42
0.3948503647986
  0
VERTEX
  8
Standard
 10
31.5353678369565
 20
6.9220304673263
 42
0.034483651342
  0
SEQEND
  0
POLYLINE
  8
Standard
 66
     1
 10
0.0
 20
0.0
 30
0.0
 70
     1
  0
VERTEX
  8
Standard
 10
47.4150390625
 20
0.3759765625
 42
-0.2058851181744
  0
VERTEX
  8
Standard
 10
42.5520990023947
 20
-0.4037589400042
 42
-0.3729056993135
  0
VERTEX
  8
Standard
 10
39.8203125
 20
3.48046875
 42
-0.4111156786833
  0
VERTEX
  8
Standard
 10
47.4150390625
 20
11.21484375
 42
-0.1499758435042
  0
VERTEX
  8
Standard
 10
50.5950862518545
 20
10.0688637169159
 42
-0.4626139565093
  0
VERTEX
  8
Standard
 10
50.712890625
 20
8.3359375
 42
0.0703696998823
  0
VERTEX
  8
Standard
 10
49.8427734375
 20
3.39453125
 42
-0.0185594619808
  0
VERTEX
  8
Standard
 10
50.4765625
 20
0.64453125
 42
-0.3602161951154
  0
VERTEX
  8
Standard
 10
48.80078125
 20
-0.708984375
 42
-0.1332764846123
  0
SEQEND
  0
POLYLINE
  8
Standard
 66
     1
 10
0.0
 20
0.0
 30
0.0
 70
     1
  0
VERTEX
  8
Standard
 10
47.791015625
 20
8.443359375
 42
0.2818119507867
  0
VERTEX
  8
Standard
 10
45.5586533375162
 20
8.2721903179071
 42
0.3379520987559
  0
VERTEX
  8
Standard
 10
42.9219312750153
 20
3.1464968181263
 42
0.3965522050909
  0
VERTEX
  8
Standard
 10
44.5146484375
 20
1.955078125
 42
0.1667019033873
  0
VERTEX
  8
Standard
 10
47.0390625
 20
2.8359375
 42
-0.09019780527
  0
SEQEND
  0
POLYLINE
  8
Standard
 66
     1
 10
0.0
 20
0.0
 30
0.0
 70
     1
  0
VERTEX
  8
Standard
 10
60.9609375
 20
8.46484375
 42
0.0084739677277
  0
VERTEX
  8
Standard
 10
58.8232421875
 20
8.443359375
 42
0.064788144463
  0
VERTEX
  8
Standard
 10
57.7919921875
 20
3.544921875
 42
0.1320012299335
  0
VERTEX
  8
Standard
 10
57.9765571309091
 20
2.4845656693384
 42
0.4525002815347
  0
VERTEX
  8
Standard
 10
58.8839132493137
 20
2.4694566362577
 42
-0.1887421815051
  0
VERTEX
  8
Standard
 10
60.380859375
 20
3.4267578125
 42
-0.6111381762011
  0
VERTEX
  8
Standard
 10
61.2581032341027
 20
1.0242829811098
 42
-0.3046466135995
  0
VERTEX
  8
Standard
 10
56.5680163283504
 20
-0.2267382827447
 42
-0.2669778562773
  0
VERTEX
  8
Standard
 10
54.90234375
 20
3.1689453125
 42
-0.0736282932192
  0
VERTEX
  8
Standard
 10
55.9658203125
 20
8.357421875
 42
-0.137644317896
  0
VERTEX
  8
Standard
 10
53.720703125
 20
8.787109375
 42
-0.6979350795403
  0
VERTEX
  8
Standard
 10
54.859375
 20
11.3974609375
 42
0.0
  0
VERTEX
  8
Standard
 10
56.53515625
 20
11.2470703125
 42
0.0
  0
VERTEX
  8
Standard
 10
56.79296875
 20
13.3955078125
 42
-0.5074072987112
  0
VERTEX
  8
Standard
 10
58.9767606616504
 20
14.6200745057282
 42
-0.2528107680013
  0
VERTEX
  8
Standard
 10
59.5458387352538
 20
12.1414707639885
 42
-0.0042692983555
  0
VERTEX
  8
Standard
 10
59.4140625
 20
11.3115234375
 42
-0.2551112049724
  0
VERTEX
  8
Standard
 10
62.3103953459993
 20
10.8539591148721
 42
-0.6098689070892
  0
SEQEND
  0
POLYLINE
  8
Standard
 66
     1
 10
0.0
 20
0.0
 30
0.0
 70
     1
  0
VERTEX
  8
Standard
 10
65.6767578125
 20
3.2333984375
 42
0.3180064741841
  0
VERTEX
  8
Standard
 10
70.951171875
 20
2.70703125
 42
-0.3024147443966
  0
VERTEX
  8
Standard
 10
73.1500882234031
 20
3.0577806039797
 42
-0.4242283858323
  0
VERTEX
  8
Standard
 10
72.8753456607328
 20
1.1289570390493
 42
-0.1969412286899
  0
VERTEX
  8
Standard
 10
68.0078125
 20
-0.4833984375
 42
-0.1666181960371
  0
VERTEX
  8
Standard
 10
64.119140625
 20
0.623046875
 42
-0.2400717818209
  0
VERTEX
  8
Standard
 10
62.72265625
 20
3.6201171875
 42
-0.2628123017812
  0
VERTEX
  8
Standard
 10
66.7703083573493
 20
10.5920656605873
 42
-0.2292847335471
  0
VERTEX
  8
Standard
 10
72.7236328125
 20
10.5380859375
 42
-0.5256114301863
  0
VERTEX
  8
Standard
 10
72.9599609375
 20
6.66015625
 42
-0.087613057441
  0
VERTEX
  8
Standard
 10
69.5439453125
 20
4.8447265625
 42
0.0
  0
SEQEND
  0
POLYLINE
  8
Standard
 66
     1
 10
0.0
 20
0.0
 30
0.0
 70
     1
  0
VERTEX
  8
Standard
 10
65.8701171875
 20
5.9619140625
 42
0.0404374322551
  0
VERTEX
  8
Standard
 10
70.97265625
 20
8.228515625
 42
0.3948503647986
  0
VERTEX
  8
Standard
 10
66.4259928369565
 20
6.9220304673263
 42
0.034483651342
  0
SEQEND
  0
POLYLINE
  8
Standard
 66
     1
 10
0.0
 20
0.0
 30
0.0
 70
     1
  0
VERTEX
  8
Standard
 10
85.517578125
 20
7.7451171875
 42
-0.4593328788079
  0
VERTEX
  8
Standard
 10
83.3234660702765
 20
6.1373573758307
 42
-0.3694035160398
  0
VERTEX
  8
Standard
 10
82.6494140625
 20
7.498046875
 42
0.0
  0
VERTEX
  8
Standard
 10
82.74609375
 20
8.5830078125
 42
0.222007186255
  0
VERTEX
  8
Standard
 10
78.8896484375
 20
6.0908203125
 42
0.0
  0
VERTEX
  8
Standard
 10
78.0517578125
 20
0.708984375
 42
-0.4711029103764
  0
VERTEX
  8
Standard
 10
75.8372259499588
 20
-0.6381672158858
 42
-0.3677722212958
  0
VERTEX
  8
Standard
 10
75.2158203125
 20
0.708984375
 42
-0.0150415429825
  0
VERTEX
  8
Standard
 10
76.6953774544712
 20
9.8274834646619
 42
-0.6833789548875
  0
VERTEX
  8
Standard
 10
79.344133445954
 20
10.6161055343475
 42
-0.1202671098501
  0
VERTEX
  8
Standard
 10
79.5126953125
 20
9.904296875
 42
-0.1517708735183
  0
VERTEX
  8
Standard
 10
83.94921875
 20
11.3330078125
 42
-0.4758714918724
  0
VERTEX
  8
Standard
 10
85.7109375
 20
9.388671875
 42
-0.0901771594277
  0
SEQEND
  0
POLYLINE
  8
Standard
 66
     1
 10
0.0
 20
0.0
 30
0.0
 70
     1
  0
VERTEX
  8
Standard
 10
92.5107421875
 20
0.5693359375
 42
-0.3902590533884
  0
VERTEX
  8
Standard
 10
86.5595703125
 20
0.5693359375
 42
-0.2883195007813
  0
VERTEX
  8
Standard
 10
86.031525857109
 20
6.2179488510467
 42
-0.3626063354516
  0
VERTEX
  8
Standard
 10
94.8893983985189
 20
10.8200992852087
 42
-0.1655608101504
  0
VERTEX
  8
Standard
 10
96.1630859375
 20
10.01171875
 42
-0.4684291645679
  0
VERTEX
  8
Standard
 10
97.2213388670496
 20
8.1681128392331
 42
0.0134709839105
  0
VERTEX
  8
Standard
 10
95.3251953125
 20
1.07421875
 42
-0.1774096578707
  0
VERTEX
  8
Standard
 10
92.8974609375
 20
-4.4580078125
 42
-0.1900071439345
  0
VERTEX
  8
Standard
 10
88.0634765625
 20
-6.0478515625
 42
-0.1181472764334
  0
VERTEX
  8
Standard
 10
84.8135207645748
 20
-5.539797088277
 42
-0.5348556977895
  0
VERTEX
  8
Standard
 10
84.5830078125
 20
-3.544921875
 42
-0.2628190005887
  0
VERTEX
  8
Standard
 10
87.0751953125
 20
-3.2548828125
 42
0.4458758767326
  0
VERTEX
  8
Standard
 10
92.0103431059087
 20
-1.0536105936216
 42
0.0413048478291
  0
SEQEND
  0
POLYLINE
  8
Standard
 66
     1
 10
0.0
 20
0.0
 30
0.0
 70
     1
  0
VERTEX
  8
Standard
 10
94.2294921875
 20
8.12109375
 42
0.3627720737408
  0
VERTEX
  8
Standard
 10
89.6318359375
 20
7.068359375
 42
0.2260907235662
  0
VERTEX
  8
Standard
 10
88.5323898950078
 20
3.0704975407866
 42
0.4832737559617
  0
VERTEX
  8
Standard
 10
90.9970992512289
 20
2.2446183572491
 42
0.2112571399338
  0
VERTEX
  8
Standard
 10
93.6939466079867
 20
6.2986014689146
 42
0.0048611449859
  0
SEQEND
  0
POLYLINE
  8
Standard
 66
     1
 10
0.0
 20
0.0
 30
0.0
 70
     1
  0
VERTEX
  8
Standard
 10
107.775390625
 20
7.7451171875
 42
-0.4593328788079
  0
VERTEX
  8
Standard
 10
105.581278570276
 20
6.1373573758307
 42
-0.3694035160399
  0
VERTEX
  8
Standard
 10
104.9072265625
 20
7.498046875
 42
0.0
  0
VERTEX
  8
Standard
 10
105.00390625
 20
8.5830078125
 42
0.222007186255
  0
VERTEX
  8
Standard
 10
101.1474609375
 20
6.0908203125
 42
0.0
  0
VERTEX
  8
Standard
 10
100.3095703125
 20
0.708984375
 42
-0.4711029103764
  0
VERTEX
  8
Standard
 10
98.0950384499588
 20
-0.6381672158858
 42
-0.3677722212958
  0
VERTEX
  8
Standard
 10
97.4736328125
 20
0.708984375
 42
-0.0150415429825
  0
VERTEX
  8
Standard
 10
98.9531899544712
 20
9.8274834646619
 42
-0.6833789548875
  0
VERTEX
  8
Standard
 10
101.601945945954
 20
10.6161055343475
 42
-0.1202671098501
  0
VERTEX
  8
Standard
 10
101.7705078125
 20
9.904296875
 42
-0.1517708735183
  0
VERTEX
  8
Standard
 10
106.20703125
 20
11.3330078125
 42
-0.4758714918724
  0
VERTEX
  8
Standard
 10
107.96875
 20
9.388671875
 42
-0.0901771594277
  0
SEQEND
  0
POLYLINE
  8
Standard
 66
     1
 10
0.0
 20
0.0
 30
0.0
 70
     1
  0
VERTEX
  8
Standard
 10
118.49609375
 20
6.208984375
 42
0.0092962335379
  0
VERTEX
  8
Standard
 10
117.6796875
 20
0.5263671875
 42
-0.5098007611085
  0
VERTEX
  8
Standard
 10
115.231521988229
 20
-0.6614392673759
 42
-0.163725134043
  0
VERTEX
  8
Standard
 10
114.779296875
 20
-0.04296875
 42
-0.2229769467664
  0
VERTEX
  8
Standard
 10
109.6875
 20
-0.0751953125
 42
-0.2824919815459
  0
VERTEX
  8
Standard
 10
108.402762438447
 20
1.8743619358563
 42
-0.1103432916595
  0
VERTEX
  8
Standard
 10
109.54542356825
 20
10.288769648721
 42
-0.5272848621873
  0
VERTEX
  8
Standard
 10
112.09375
 20
11.12890625
 42
-0.3083054879442
  0
VERTEX
  8
Standard
 10
112.29551259712
 20
9.4273011533714
 42
0.1072540200448
  0
VERTEX
  8
Standard
 10
111.341796875
 20
2.53515625
 42
0.1380600447714
  0
VERTEX
  8
Standard
 10
112.3193359375
 20
2.2880859375
 42
0.057428333593
  0
VERTEX
  8
Standard
 10
114.97265625
 20
2.62109375
 42
-0.0345247502812
  0
VERTEX
  8
Standard
 10
116.3046875
 20
10.0224609375
 42
-0.5527217208012
  0
VERTEX
  8
Standard
 10
118.947265625
 20
11.0751953125
 42
-0.3026217219015
  0
VERTEX
  8
Standard
 10
119.122728018765
 20
9.1550321854079
 42
-0.007815776242
  0
VERTEX
  8
Standard
 10
118.49609375
 20
6.1875
 42
0.0
  0
SEQEND
  0
POLYLINE
  8
Standard
 66
     1
 10
0.0
 20
0.0
 30
0.0
 70
     1
  0
VERTEX
  8
Standard
 10
122.427734375
 20
-0.4189453125
 42
0.0
  0
VERTEX
  8
Standard
 10
121.740234375
 20
-4.791015625
 42
-0.5859486401241
  0
VERTEX
  8
Standard
 10
119.09765625
 20
-5.908203125
 42
-0.2662988491118
  0
VERTEX
  8
Standard
 10
118.899914246383
 20
-3.9898563120469
 42
0.0237375219826
  0
VERTEX
  8
Standard
 10
120.6982421875
 20
8.98046875
 42
-0.2728140568258
  0
VERTEX
  8
Standard
 10
121.987797659582
 20
11.6043077244808
 42
-0.6836183652617
  0
VERTEX
  8
Standard
 10
123.9638671875
 20
10.4306640625
 42
0.0
  0
VERTEX
  8
Standard
 10
123.9208984375
 20
10.3232421875
 42
-0.208889719745
  0
VERTEX
  8
Standard
 10
128.512677113712
 20
10.8572646991718
 42
-0.2734489889888
  0
VERTEX
  8
Standard
 10
130.517936058088
 20
8.1023099689226
 42
-0.2270647017905
  0
VERTEX
  8
Standard
 10
128.701171875
 20
1.2998046875
 42
-0.2709531959732
  0
SEQEND
  0
POLYLINE
  8
Standard
 66
     1
 10
0.0
 20
0.0
 30
0.0
 70
     1
  0
VERTEX
  8
Standard
 10
123.5234375
 20
6.9716796875
 42
-0.007407105912
  0
VERTEX
  8
Standard
 10
122.9326171875
 20
2.556640625
 42
0.2095149636514
  0
VERTEX
  8
Standard
 10
126.082338991233
 20
2.5692491063514
 42
0.2778108639118
  0
VERTEX
  8
Standard
 10
127.448925979405
 20
7.6497073312772
 42
0.3209072685762
  0
VERTEX
  8
Standard
 10
126.4990234375
 20
8.25
 42
0.1642090552782
  0
SEQEND
  0
POLYLINE
  8
Standard
 66
     1
 10
0.0
 20
0.0
 30
0.0
 70
     1
  0
VERTEX
  8
Standard
 10
134.1904296875
 20
-0.4189453125
 42
0.0
  0
VERTEX
  8
Standard
 10
133.5029296875
 20
-4.791015625
 42
-0.5859486401241
  0
VERTEX
  8
Standard
 10
130.8603515625
 20
-5.908203125
 42
-0.2662988491119
  0
VERTEX
  8
Standard
 10
130.662609558883
 20
-3.9898563120469
 42
0.0237375219826
  0
VERTEX
  8
Standard
 10
132.4609375
 20
8.98046875
 42
-0.2728140568258
  0
VERTEX
  8
Standard
 10
133.750492972082
 20
11.6043077244808
 42
-0.6836183652616
  0
VERTEX
  8
Standard
 10
135.7265625
 20
10.4306640625
 42
0.0
  0
VERTEX
  8
Standard
 10
135.68359375
 20
10.3232421875
 42
-0.208889719745
  0
VERTEX
  8
Standard
 10
140.275372426212
 20
10.8572646991718
 42
-0.2734489889888
  0
VERTEX
  8
Standard
 10
142.280631370588
 20
8.1023099689226
 42
-0.2270647017905
  0
VERTEX
  8
Standard
 10
140.4638671875
 20
1.2998046875
 42
-0.2709531959732
  0
SEQEND
  0
POLYLINE
  8
Standard
 66
     1
 10
0.0
 20
0.0
 30
0.0
 70
     1
  0
VERTEX
  8
Standard
 10
135.2861328125
 20
6.9716796875
 42
-0.007407105912
  0
VERTEX
  8
Standard
 10
134.6953125
 20
2.556640625
 42
0.2095149636514
  0
VERTEX
  8
Standard
 10
137.845034303733
 20
2.5692491063514
 42
0.2778108639118
  0
VERTEX
  8
Standard
 10
139.211621291905
 20
7.6497073312772
 42
0.3209072685762
  0
VERTEX
  8
Standard
 10
138.26171875
 20
8.25
 42
0.1642090552782
  0
SEQEND
  0
POLYLINE
  8
Standard
 66
     1
 10
0.0
 20
0.0
 30
0.0
 70
     1
  0
VERTEX
  8
Standard
 10
145.7705078125
 20
3.2333984375
 42
0.3180064741841
  0
VERTEX
  8
Standard
 10
151.044921875
 20
2.70703125
 42
-0.3024147443966
  0
VERTEX
  8
Standard
 10
153.243838223403
 20
3.0577806039797
 42
-0.4242283858323
  0
VERTEX
  8
Standard
 10
152.969095660733
 20
1.1289570390493
 42
-0.1969412286899
  0
VERTEX
  8
Standard
 10
148.1015625
 20
-0.4833984375
 42
-0.1666181960371
  0
VERTEX
  8
Standard
 10
144.212890625
 20
0.623046875
 42
-0.2400717818209
  0
VERTEX
  8
Standard
 10
142.81640625
 20
3.6201171875
 42
-0.2628123017812
  0
VERTEX
  8
Standard
 10
146.864058357349
 20
10.5920656605873
 42
-0.2292847335471
  0
VERTEX
  8
Standard
 10
152.8173828125
 20
10.5380859375
 42
-0.5256114301863
  0
VERTEX
  8
Standard
 10
153.0537109375
 20
6.66015625
 42
-0.087613057441
  0
VERTEX
  8
Standard
 10
149.6376953125
 20
4.8447265625
 42
0.0
  0
SEQEND
  0
POLYLINE
  8
Standard
 66
     1
 10
0.0
 20
0.0
 30
0.0
 70
     1
  0
VERTEX
  8
Standard
 10
145.9638671875
 20
5.9619140625
 42
0.0404374322551
  0
VERTEX
  8
Standard
 10
151.06640625
 20
8.228515625
 42
0.3948503647986
  0
VERTEX
  8
Standard
 10
146.519742836957
 20
6.9220304673263
 42
0.034483651342
  0
SEQEND
  0
ENDSEC
  0
EOF
